solid AssimpScene
 facet normal 0 -1 0
  outer loop
  vertex -0.145936891 0.00161234569 -0.0257981829
  vertex -0.144868836 0.00161234569 -0.0257981829
  vertex -0.144868836 0.00161234569 0.00299879373
  endloop
 endfacet

 facet normal 0 -1 0
  outer loop
  vertex -0.145936891 0.00161234569 -0.0257981829
  vertex -0.144868836 0.00161234569 0.00299879373
  vertex -0.145936891 0.00161234569 0.00299879373
  endloop
 endfacet

 facet normal -1 0 0
  outer loop
  vertex -0.145936891 0.00161234569 -0.0257981829
  vertex -0.145936891 0.00161234569 0.00299879373
  vertex -0.145936891 0.00219208188 0.00449762959
  endloop
 endfacet

 facet normal -1 0 0
  outer loop
  vertex -0.145936891 0.00161234569 -0.0257981829
  vertex -0.145936891 0.00219208188 0.00449762959
  vertex -0.145936891 0.029015068 0.00449762959
  endloop
 endfacet

 facet normal -1 0 0
  outer loop
  vertex -0.145936891 0.00161234569 -0.0257981829
  vertex -0.145936891 0.029015068 0.00449762959
  vertex -0.145936891 0.0294178911 0.00299879373
  endloop
 endfacet

 facet normal -1 0 0
  outer loop
  vertex -0.145936891 0.00161234569 -0.0257981829
  vertex -0.145936891 0.0294178911 0.00299879373
  vertex -0.145936891 0.0294178911 -0.0257981829
  endloop
 endfacet

 facet normal -1 0 0
  outer loop
  vertex -0.145936891 0.00161234569 -0.0257981829
  vertex -0.145936891 0.0294178911 -0.0257981829
  vertex -0.145936891 0.0290395655 -0.0272099897
  endloop
 endfacet

 facet normal -1 0 0
  outer loop
  vertex -0.145936891 0.00161234569 -0.0257981829
  vertex -0.145936891 0.0290395655 -0.0272099897
  vertex -0.145936891 0.0290205125 -0.0272809006
  endloop
 endfacet

 facet normal -1 0 0
  outer loop
  vertex -0.145936891 0.00161234569 -0.0257981829
  vertex -0.145936891 0.0290205125 -0.0272809006
  vertex -0.145936891 0.0290177912 -0.0272905733
  endloop
 endfacet

 facet normal -1 0 0
  outer loop
  vertex -0.145936891 0.00161234569 -0.0257981829
  vertex -0.145936891 0.0290177912 -0.0272905733
  vertex -0.145936891 0.029015068 -0.0272970181
  endloop
 endfacet

 facet normal -1 0 0
  outer loop
  vertex -0.145936891 0.00161234569 -0.0257981829
  vertex -0.145936891 0.029015068 -0.0272970181
  vertex -0.145936891 0.0241158921 -0.0273292512
  endloop
 endfacet

 facet normal -1 0 0
  outer loop
  vertex -0.145936891 0.00161234569 -0.0257981829
  vertex -0.145936891 0.0241158921 -0.0273292512
  vertex -0.145936891 0.00727089355 -0.0273292512
  endloop
 endfacet

 facet normal -1 0 0
  outer loop
  vertex -0.145936891 0.00161234569 -0.0257981829
  vertex -0.145936891 0.00727089355 -0.0273292512
  vertex -0.145936891 0.002197525 -0.0272970181
  endloop
 endfacet

 facet normal 0 -0.931521177 -0.363687038
  outer loop
  vertex -0.145936891 0.00161234569 -0.0257981829
  vertex -0.145936891 0.002197525 -0.0272970181
  vertex -0.144868836 0.00161234569 -0.0257981829
  endloop
 endfacet

 facet normal 0.513057053 -0.610089481 -0.6037907
  outer loop
  vertex -0.144868836 0.00161234569 -0.0257981829
  vertex -0.145936891 0.002197525 -0.0272970181
  vertex -0.144868836 0.00309570669 -0.0272970181
  endloop
 endfacet

 facet normal 1 0 0
  outer loop
  vertex -0.144868836 0.00161234569 -0.0257981829
  vertex -0.144868836 0.00309570669 -0.0272970181
  vertex -0.144868836 0.0108227963 -0.0273292512
  endloop
 endfacet

 facet normal 1 0 0
  outer loop
  vertex -0.144868836 0.00161234569 -0.0257981829
  vertex -0.144868836 0.0108227963 -0.0273292512
  vertex -0.144868836 0.0241158921 -0.0273292512
  endloop
 endfacet

 facet normal 1 0 0
  outer loop
  vertex -0.144868836 0.00161234569 -0.0257981829
  vertex -0.144868836 0.0241158921 -0.0273292512
  vertex -0.144868836 0.029015068 -0.0272970181
  endloop
 endfacet

 facet normal 1 0 0
  outer loop
  vertex -0.144868836 0.00161234569 -0.0257981829
  vertex -0.144868836 0.029015068 -0.0272970181
  vertex -0.144868836 0.0290422849 -0.0272003207
  endloop
 endfacet

 facet normal 1 0 0
  outer loop
  vertex -0.144868836 0.00161234569 -0.0257981829
  vertex -0.144868836 0.0290422849 -0.0272003207
  vertex -0.144868836 0.0294178911 -0.0257981829
  endloop
 endfacet

 facet normal 1 0 0
  outer loop
  vertex -0.144868836 0.00161234569 -0.0257981829
  vertex -0.144868836 0.0294178911 -0.0257981829
  vertex -0.144868836 0.0294178911 0.00299879373
  endloop
 endfacet

 facet normal 1 0 0
  outer loop
  vertex -0.144868836 0.00161234569 -0.0257981829
  vertex -0.144868836 0.0294178911 0.00299879373
  vertex -0.144868836 0.0287211183 0.00559999887
  endloop
 endfacet

 facet normal 1 0 0
  outer loop
  vertex -0.144868836 0.00161234569 -0.0257981829
  vertex -0.144868836 0.0287211183 0.00559999887
  vertex -0.144868836 0.00344953639 0.00559999887
  endloop
 endfacet

 facet normal 1 0 0
  outer loop
  vertex -0.144868836 0.00161234569 -0.0257981829
  vertex -0.144868836 0.00344953639 0.00559999887
  vertex -0.144868836 0.00161234569 0.00299879373
  endloop
 endfacet

 facet normal 0 -0.932664096 0.360746115
  outer loop
  vertex -0.145936891 0.00161234569 0.00299879373
  vertex -0.144868836 0.00161234569 0.00299879373
  vertex -0.145936891 0.00219208188 0.00449762959
  endloop
 endfacet

 facet normal 0.000289132149 -0.00635300158 -0.999979734
  outer loop
  vertex -0.145936891 0.002197525 -0.0272970181
  vertex -0.145936891 0.00727089355 -0.0273292512
  vertex -0.145877078 0.00727361534 -0.0273292512
  endloop
 endfacet

 facet normal 0.000654299161 -0.00635730289 -0.999979615
  outer loop
  vertex -0.145936891 0.002197525 -0.0272970181
  vertex -0.145877078 0.00727361534 -0.0273292512
  vertex -0.145850629 0.00727633759 -0.0273292512
  endloop
 endfacet

 facet normal 0.000865447975 -0.00636088802 -0.999979436
  outer loop
  vertex -0.145936891 0.002197525 -0.0272970181
  vertex -0.145850629 0.00727633759 -0.0273292512
  vertex -0.145790622 0.0072845025 -0.0273292512
  endloop
 endfacet

 facet normal 0.00133300968 -0.006374327 -0.999978781
  outer loop
  vertex -0.145936891 0.002197525 -0.0272970181
  vertex -0.145790622 0.0072845025 -0.0273292512
  vertex -0.145764589 0.00728994608 -0.0273292512
  endloop
 endfacet

 facet normal 0.00146701804 -0.00637885975 -0.999978542
  outer loop
  vertex -0.145936891 0.002197525 -0.0272970181
  vertex -0.145764589 0.00728994608 -0.0273292512
  vertex -0.145705417 0.00730355503 -0.0273292512
  endloop
 endfacet

 facet normal 0.0020588655 -0.0064056823 -0.99997735
  outer loop
  vertex -0.145936891 0.002197525 -0.0272970181
  vertex -0.145705417 0.00730355503 -0.0273292512
  vertex -0.14568001 0.0073117204 -0.0273292512
  endloop
 endfacet

 facet normal 0.00211179187 -0.0064083389 -0.999977231
  outer loop
  vertex -0.145936891 0.002197525 -0.0272970181
  vertex -0.14568001 0.0073117204 -0.0273292512
  vertex -0.145622194 0.00733077247 -0.0273292512
  endloop
 endfacet

 facet normal 0.0021301941 -0.0064094672 -0.999977112
  outer loop
  vertex -0.145936891 0.002197525 -0.0272970181
  vertex -0.145622194 0.00733077247 -0.0273292512
  vertex -0.145597622 0.00733893784 -0.0273292512
  endloop
 endfacet

 facet normal 0.00282176281 -0.00645508757 -0.999975204
  outer loop
  vertex -0.145936891 0.002197525 -0.0272970181
  vertex -0.145597622 0.00733893784 -0.0273292512
  vertex -0.145541593 0.00736343395 -0.0273292512
  endloop
 endfacet

 facet normal 0.00297991233 -0.00646718498 -0.999974608
  outer loop
  vertex -0.145936891 0.002197525 -0.0272970181
  vertex -0.145541593 0.00736343395 -0.0273292512
  vertex -0.14551796 0.00737432111 -0.0273292512
  endloop
 endfacet

 facet normal 0.0036325648 -0.00651998399 -0.999972105
  outer loop
  vertex -0.145936891 0.002197525 -0.0272970181
  vertex -0.14551796 0.00737432111 -0.0273292512
  vertex -0.145464227 0.00740425987 -0.0273292512
  endloop
 endfacet

 facet normal 0.00396590261 -0.00655023521 -0.999970675
  outer loop
  vertex -0.145936891 0.002197525 -0.0272970181
  vertex -0.145464227 0.00740425987 -0.0273292512
  vertex -0.145441756 0.00741786929 -0.0273292512
  endloop
 endfacet

 facet normal 0.00420797663 -0.00657318719 -0.999969482
  outer loop
  vertex -0.145936891 0.002197525 -0.0272970181
  vertex -0.145441756 0.00741786929 -0.0273292512
  vertex -0.145390734 0.00745053031 -0.0273292512
  endloop
 endfacet

 facet normal 0.00497070141 -0.00665246323 -0.999965549
  outer loop
  vertex -0.145936891 0.002197525 -0.0272970181
  vertex -0.145390734 0.00745053031 -0.0273292512
  vertex -0.145321518 0.00750224432 -0.0273292512
  endloop
 endfacet

 facet normal 0.00566181261 -0.00673260866 -0.999961317
  outer loop
  vertex -0.145936891 0.002197525 -0.0272970181
  vertex -0.145321518 0.00750224432 -0.0273292512
  vertex -0.144868836 0.00309570669 -0.0272970181
  endloop
 endfacet

 facet normal 0.509543061 -0.702822864 0.496392906
  outer loop
  vertex -0.144868836 0.00161234569 0.00299879373
  vertex -0.144868836 0.00344953639 0.00559999887
  vertex -0.145364389 0.00309026358 0.00559999887
  endloop
 endfacet

 facet normal 0.281500578 -0.810282409 0.514003754
  outer loop
  vertex -0.144868836 0.00161234569 0.00299879373
  vertex -0.145364389 0.00309026358 0.00559999887
  vertex -0.145936891 0.00219208188 0.00449762959
  endloop
 endfacet

 facet normal 0.00621696375 -0.00667555723 -0.999958456
  outer loop
  vertex -0.144868836 0.00309570669 -0.0272970181
  vertex -0.145321518 0.00750224432 -0.0273292512
  vertex -0.14525722 0.00756212277 -0.0273292512
  endloop
 endfacet

 facet normal 0.0070003951 -0.00660739606 -0.999953687
  outer loop
  vertex -0.144868836 0.00309570669 -0.0272970181
  vertex -0.14525722 0.00756212277 -0.0273292512
  vertex -0.145239249 0.00758117484 -0.0273292512
  endloop
 endfacet

 facet normal 0.00742068468 -0.00657266891 -0.999950886
  outer loop
  vertex -0.144868836 0.00309570669 -0.0272970181
  vertex -0.145239249 0.00758117484 -0.0273292512
  vertex -0.145198256 0.00762744481 -0.0273292512
  endloop
 endfacet

 facet normal 0.00770368287 -0.00655208342 -0.999948919
  outer loop
  vertex -0.144868836 0.00309570669 -0.0272970181
  vertex -0.145198256 0.00762744481 -0.0273292512
  vertex -0.145182058 0.0076464978 -0.0273292512
  endloop
 endfacet

 facet normal 0.0086146174 -0.00648933463 -0.999941826
  outer loop
  vertex -0.144868836 0.00309570669 -0.0272970181
  vertex -0.145182058 0.0076464978 -0.0273292512
  vertex -0.145145148 0.0076954891 -0.0273292512
  endloop
 endfacet

 facet normal 0.00976016186 -0.00642044935 -0.999931753
  outer loop
  vertex -0.144868836 0.00309570669 -0.0272970181
  vertex -0.145145148 0.0076954891 -0.0273292512
  vertex -0.145130828 0.00771726295 -0.0273292512
  endloop
 endfacet

 facet normal 0.0101744551 -0.00639693532 -0.999927759
  outer loop
  vertex -0.144868836 0.00309570669 -0.0272970181
  vertex -0.145130828 0.00771726295 -0.0273292512
  vertex -0.145098314 0.00776897697 -0.0273292512
  endloop
 endfacet

 facet normal 0.0123358723 -0.00629063603 -0.999904096
  outer loop
  vertex -0.144868836 0.00309570669 -0.0272970181
  vertex -0.145098314 0.00776897697 -0.0273292512
  vertex -0.145058066 0.00784790795 -0.0273292512
  endloop
 endfacet

 facet normal 0.0146260923 -0.00619923463 -0.999873817
  outer loop
  vertex -0.144868836 0.00309570669 -0.0272970181
  vertex -0.145058066 0.00784790795 -0.0273292512
  vertex -0.145024613 0.0079268394 -0.0273292512
  endloop
 endfacet

 facet normal 0.0187049545 -0.00606726762 -0.999806643
  outer loop
  vertex -0.144868836 0.00309570669 -0.0272970181
  vertex -0.145024613 0.0079268394 -0.0273292512
  vertex -0.145016655 0.00795133505 -0.0273292512
  endloop
 endfacet

 facet normal 0.0198552385 -0.00603210181 -0.999784768
  outer loop
  vertex -0.144868836 0.00309570669 -0.0272970181
  vertex -0.145016655 0.00795133505 -0.0273292512
  vertex -0.144998476 0.0080112135 -0.0273292512
  endloop
 endfacet

 facet normal 0.0247010998 -0.00590359652 -0.99967742
  outer loop
  vertex -0.144868836 0.00309570669 -0.0272970181
  vertex -0.144998476 0.0080112135 -0.0273292512
  vertex -0.14499262 0.00803570915 -0.0273292512
  endloop
 endfacet

 facet normal 0.0268070381 -0.00585047668 -0.999623597
  outer loop
  vertex -0.144868836 0.00309570669 -0.0272970181
  vertex -0.14499262 0.00803570915 -0.0273292512
  vertex -0.144979551 0.00809558854 -0.0273292512
  endloop
 endfacet

 facet normal 0.0420999825 -0.00550844846 -0.999098241
  outer loop
  vertex -0.144868836 0.00309570669 -0.0272970181
  vertex -0.144979551 0.00809558854 -0.0273292512
  vertex -0.144968152 0.00818268489 -0.0273292512
  endloop
 endfacet

 facet normal 0.100487724 -0.00434205262 -0.994928777
  outer loop
  vertex -0.144868836 0.00309570669 -0.0272970181
  vertex -0.144968152 0.00818268489 -0.0273292512
  vertex -0.144964382 0.00826978125 -0.0273292512
  endloop
 endfacet

 facet normal 0.110759042 -0.00414556917 -0.993838727
  outer loop
  vertex -0.144868836 0.00309570669 -0.0272970181
  vertex -0.144964382 0.00826978125 -0.0273292512
  vertex -0.144868836 0.0108227963 -0.0273292512
  endloop
 endfacet

 facet normal -0.887458265 0 0.460888088
  outer loop
  vertex -0.145936891 0.00219208188 0.00449762959
  vertex -0.145364389 0.00309026358 0.00559999887
  vertex -0.145364389 0.0287211183 0.00559999887
  endloop
 endfacet

 facet normal -0.887458265 0 0.460888088
  outer loop
  vertex -0.145936891 0.00219208188 0.00449762959
  vertex -0.145364389 0.0287211183 0.00559999887
  vertex -0.145936891 0.029015068 0.00449762959
  endloop
 endfacet

 facet normal 0 0 -1
  outer loop
  vertex -0.145936891 0.00727089355 -0.0273292512
  vertex -0.145936891 0.0241158921 -0.0273292512
  vertex -0.144868836 0.0241158921 -0.0273292512
  endloop
 endfacet

 facet normal 0 0 -1
  outer loop
  vertex -0.145936891 0.00727089355 -0.0273292512
  vertex -0.144868836 0.0241158921 -0.0273292512
  vertex -0.144868836 0.0108227963 -0.0273292512
  endloop
 endfacet

 facet normal 0 0 -1
  outer loop
  vertex -0.145936891 0.00727089355 -0.0273292512
  vertex -0.144868836 0.0108227963 -0.0273292512
  vertex -0.144964382 0.00826978125 -0.0273292512
  endloop
 endfacet

 facet normal 0 0 -1
  outer loop
  vertex -0.145936891 0.00727089355 -0.0273292512
  vertex -0.144964382 0.00826978125 -0.0273292512
  vertex -0.144968152 0.00818268489 -0.0273292512
  endloop
 endfacet

 facet normal 0 0 -1
  outer loop
  vertex -0.145936891 0.00727089355 -0.0273292512
  vertex -0.144968152 0.00818268489 -0.0273292512
  vertex -0.144979551 0.00809558854 -0.0273292512
  endloop
 endfacet

 facet normal 0 0 -1
  outer loop
  vertex -0.145936891 0.00727089355 -0.0273292512
  vertex -0.144979551 0.00809558854 -0.0273292512
  vertex -0.14499262 0.00803570915 -0.0273292512
  endloop
 endfacet

 facet normal 0 0 -1
  outer loop
  vertex -0.145936891 0.00727089355 -0.0273292512
  vertex -0.14499262 0.00803570915 -0.0273292512
  vertex -0.144998476 0.0080112135 -0.0273292512
  endloop
 endfacet

 facet normal 0 0 -1
  outer loop
  vertex -0.145936891 0.00727089355 -0.0273292512
  vertex -0.144998476 0.0080112135 -0.0273292512
  vertex -0.145016655 0.00795133505 -0.0273292512
  endloop
 endfacet

 facet normal 0 0 -1
  outer loop
  vertex -0.145936891 0.00727089355 -0.0273292512
  vertex -0.145016655 0.00795133505 -0.0273292512
  vertex -0.145024613 0.0079268394 -0.0273292512
  endloop
 endfacet

 facet normal 0 0 -1
  outer loop
  vertex -0.145936891 0.00727089355 -0.0273292512
  vertex -0.145024613 0.0079268394 -0.0273292512
  vertex -0.145058066 0.00784790795 -0.0273292512
  endloop
 endfacet

 facet normal 0 0 -1
  outer loop
  vertex -0.145936891 0.00727089355 -0.0273292512
  vertex -0.145058066 0.00784790795 -0.0273292512
  vertex -0.145098314 0.00776897697 -0.0273292512
  endloop
 endfacet

 facet normal 0 0 -1
  outer loop
  vertex -0.145936891 0.00727089355 -0.0273292512
  vertex -0.145098314 0.00776897697 -0.0273292512
  vertex -0.145130828 0.00771726295 -0.0273292512
  endloop
 endfacet

 facet normal 0 0 -1
  outer loop
  vertex -0.145936891 0.00727089355 -0.0273292512
  vertex -0.145130828 0.00771726295 -0.0273292512
  vertex -0.145145148 0.0076954891 -0.0273292512
  endloop
 endfacet

 facet normal 0 0 -1
  outer loop
  vertex -0.145936891 0.00727089355 -0.0273292512
  vertex -0.145145148 0.0076954891 -0.0273292512
  vertex -0.145182058 0.0076464978 -0.0273292512
  endloop
 endfacet

 facet normal 0 0 -1
  outer loop
  vertex -0.145936891 0.00727089355 -0.0273292512
  vertex -0.145182058 0.0076464978 -0.0273292512
  vertex -0.145198256 0.00762744481 -0.0273292512
  endloop
 endfacet

 facet normal 0 0 -1
  outer loop
  vertex -0.145936891 0.00727089355 -0.0273292512
  vertex -0.145198256 0.00762744481 -0.0273292512
  vertex -0.145239249 0.00758117484 -0.0273292512
  endloop
 endfacet

 facet normal 0 0 -1
  outer loop
  vertex -0.145936891 0.00727089355 -0.0273292512
  vertex -0.145239249 0.00758117484 -0.0273292512
  vertex -0.14525722 0.00756212277 -0.0273292512
  endloop
 endfacet

 facet normal 0 0 -1
  outer loop
  vertex -0.145936891 0.00727089355 -0.0273292512
  vertex -0.14525722 0.00756212277 -0.0273292512
  vertex -0.145321518 0.00750224432 -0.0273292512
  endloop
 endfacet

 facet normal 0 0 -1
  outer loop
  vertex -0.145936891 0.00727089355 -0.0273292512
  vertex -0.145321518 0.00750224432 -0.0273292512
  vertex -0.145390734 0.00745053031 -0.0273292512
  endloop
 endfacet

 facet normal 0 0 -1
  outer loop
  vertex -0.145936891 0.00727089355 -0.0273292512
  vertex -0.145390734 0.00745053031 -0.0273292512
  vertex -0.145441756 0.00741786929 -0.0273292512
  endloop
 endfacet

 facet normal 0 0 -1
  outer loop
  vertex -0.145936891 0.00727089355 -0.0273292512
  vertex -0.145441756 0.00741786929 -0.0273292512
  vertex -0.145464227 0.00740425987 -0.0273292512
  endloop
 endfacet

 facet normal 0 0 -1
  outer loop
  vertex -0.145936891 0.00727089355 -0.0273292512
  vertex -0.145464227 0.00740425987 -0.0273292512
  vertex -0.14551796 0.00737432111 -0.0273292512
  endloop
 endfacet

 facet normal 0 0 -1
  outer loop
  vertex -0.145936891 0.00727089355 -0.0273292512
  vertex -0.14551796 0.00737432111 -0.0273292512
  vertex -0.145541593 0.00736343395 -0.0273292512
  endloop
 endfacet

 facet normal 0 0 -1
  outer loop
  vertex -0.145936891 0.00727089355 -0.0273292512
  vertex -0.145541593 0.00736343395 -0.0273292512
  vertex -0.145597622 0.00733893784 -0.0273292512
  endloop
 endfacet

 facet normal 0 0 -1
  outer loop
  vertex -0.145936891 0.00727089355 -0.0273292512
  vertex -0.145597622 0.00733893784 -0.0273292512
  vertex -0.145622194 0.00733077247 -0.0273292512
  endloop
 endfacet

 facet normal 0 0 -1
  outer loop
  vertex -0.145936891 0.00727089355 -0.0273292512
  vertex -0.145622194 0.00733077247 -0.0273292512
  vertex -0.14568001 0.0073117204 -0.0273292512
  endloop
 endfacet

 facet normal 0 0 -1
  outer loop
  vertex -0.145936891 0.00727089355 -0.0273292512
  vertex -0.14568001 0.0073117204 -0.0273292512
  vertex -0.145705417 0.00730355503 -0.0273292512
  endloop
 endfacet

 facet normal 0 0 -1
  outer loop
  vertex -0.145936891 0.00727089355 -0.0273292512
  vertex -0.145705417 0.00730355503 -0.0273292512
  vertex -0.145764589 0.00728994608 -0.0273292512
  endloop
 endfacet

 facet normal 0 0 -1
  outer loop
  vertex -0.145936891 0.00727089355 -0.0273292512
  vertex -0.145764589 0.00728994608 -0.0273292512
  vertex -0.145790622 0.0072845025 -0.0273292512
  endloop
 endfacet

 facet normal 0 0 -1
  outer loop
  vertex -0.145936891 0.00727089355 -0.0273292512
  vertex -0.145790622 0.0072845025 -0.0273292512
  vertex -0.145850629 0.00727633759 -0.0273292512
  endloop
 endfacet

 facet normal 0 0 -1
  outer loop
  vertex -0.145936891 0.00727089355 -0.0273292512
  vertex -0.145850629 0.00727633759 -0.0273292512
  vertex -0.145877078 0.00727361534 -0.0273292512
  endloop
 endfacet

 facet normal 0 0 1
  outer loop
  vertex -0.144868836 0.00344953639 0.00559999887
  vertex -0.144868836 0.0287211183 0.00559999887
  vertex -0.145364389 0.0287211183 0.00559999887
  endloop
 endfacet

 facet normal 0 0 1
  outer loop
  vertex -0.144868836 0.00344953639 0.00559999887
  vertex -0.145364389 0.0287211183 0.00559999887
  vertex -0.145364389 0.00309026358 0.00559999887
  endloop
 endfacet

 facet normal -0.00391253643 0.965723157 0.259544969
  outer loop
  vertex -0.145936891 0.029015068 0.00449762959
  vertex -0.145364389 0.0287211183 0.00559999887
  vertex -0.145936891 0.0294178911 0.00299879373
  endloop
 endfacet

 facet normal 0 0.00657887757 -0.999978423
  outer loop
  vertex -0.145936891 0.0241158921 -0.0273292512
  vertex -0.145936891 0.029015068 -0.0272970181
  vertex -0.144868836 0.029015068 -0.0272970181
  endloop
 endfacet

 facet normal 0 0.00657887757 -0.999978423
  outer loop
  vertex -0.145936891 0.0241158921 -0.0273292512
  vertex -0.144868836 0.029015068 -0.0272970181
  vertex -0.144868836 0.0241158921 -0.0273292512
  endloop
 endfacet

 facet normal 0 0.965946078 0.258743584
  outer loop
  vertex -0.144868836 0.0287211183 0.00559999887
  vertex -0.144868836 0.0294178911 0.00299879373
  vertex -0.145936891 0.0294178911 0.00299879373
  endloop
 endfacet

 facet normal 0 0.965946078 0.258743584
  outer loop
  vertex -0.144868836 0.0287211183 0.00559999887
  vertex -0.145936891 0.0294178911 0.00299879373
  vertex -0.145364389 0.0287211183 0.00559999887
  endloop
 endfacet

 facet normal 0 1 0
  outer loop
  vertex -0.145936891 0.0294178911 0.00299879373
  vertex -0.144868836 0.0294178911 0.00299879373
  vertex -0.144868836 0.0294178911 -0.0257981829
  endloop
 endfacet

 facet normal 0 1 0
  outer loop
  vertex -0.145936891 0.0294178911 0.00299879373
  vertex -0.144868836 0.0294178911 -0.0257981829
  vertex -0.145936891 0.0294178911 -0.0257981829
  endloop
 endfacet

 facet normal 0 0.921212614 -0.389059603
  outer loop
  vertex -0.145936891 0.029015068 -0.0272970181
  vertex -0.145936891 0.0290177912 -0.0272905733
  vertex -0.144868836 0.029015068 -0.0272970181
  endloop
 endfacet

 facet normal 0.000818288652 0.962593555 -0.270948261
  outer loop
  vertex -0.144868836 0.029015068 -0.0272970181
  vertex -0.145936891 0.0290177912 -0.0272905733
  vertex -0.145936891 0.0290205125 -0.0272809006
  endloop
 endfacet

 facet normal 0.000818416942 0.96259582 -0.270940512
  outer loop
  vertex -0.144868836 0.029015068 -0.0272970181
  vertex -0.145936891 0.0290205125 -0.0272809006
  vertex -0.144868836 0.0290422849 -0.0272003207
  endloop
 endfacet

 facet normal -0.000116332521 0.96592021 -0.258839756
  outer loop
  vertex -0.145936891 0.0294178911 -0.0257981829
  vertex -0.144868836 0.0290422849 -0.0272003207
  vertex -0.145936891 0.0290395655 -0.0272099897
  endloop
 endfacet

 facet normal 0 0.965942383 -0.258757085
  outer loop
  vertex -0.145936891 0.0294178911 -0.0257981829
  vertex -0.144868836 0.0294178911 -0.0257981829
  vertex -0.144868836 0.0290422849 -0.0272003207
  endloop
 endfacet

 facet normal -0.000110043504 0.96574688 -0.259485751
  outer loop
  vertex -0.144868836 0.0290422849 -0.0272003207
  vertex -0.145936891 0.0290205125 -0.0272809006
  vertex -0.145936891 0.0290395655 -0.0272099897
  endloop
 endfacet

endsolid AssimpScene
