solid AssimpScene
 facet normal 0 0.0309913438 0.999519706
  outer loop
  vertex -0.125964299 -0.00274590286 0.00299751922
  vertex -0.150764301 -0.00274590286 0.00299751922
  vertex -0.1383643 -0.00338335522 0.00301728421
  endloop
 endfacet

 facet normal 0.000729939027 0.0168027617 0.999858677
  outer loop
  vertex -0.125964299 -0.00274590286 0.00299751922
  vertex -0.1383643 -0.00338335522 0.00301728421
  vertex -0.138155535 -0.00339242443 0.00301728421
  endloop
 endfacet

 facet normal 0.00115618983 0.00876822509 0.999960899
  outer loop
  vertex -0.125964299 -0.00274590286 0.00299751922
  vertex -0.138155535 -0.00339242443 0.00301728421
  vertex -0.137949184 -0.00341963326 0.00301728421
  endloop
 endfacet

 facet normal 0.00131321652 0.00597550161 0.999981344
  outer loop
  vertex -0.125964299 -0.00274590286 0.00299751922
  vertex -0.137949184 -0.00341963326 0.00301728421
  vertex -0.137742847 -0.00346498052 0.00301728421
  endloop
 endfacet

 facet normal 0.00140842912 0.00441612909 0.999989212
  outer loop
  vertex -0.125964299 -0.00274590286 0.00299751922
  vertex -0.137742847 -0.00346498052 0.00301728421
  vertex -0.137543783 -0.00352846645 0.00301728421
  endloop
 endfacet

 facet normal 0.00146379857 0.00359691749 0.99999249
  outer loop
  vertex -0.125964299 -0.00274590286 0.00299751922
  vertex -0.137543783 -0.00352846645 0.00301728421
  vertex -0.137349576 -0.00360750011 0.00301728421
  endloop
 endfacet

 facet normal 0.00151790935 0.00288193999 0.999994695
  outer loop
  vertex -0.125964299 -0.00274590286 0.00299751922
  vertex -0.137349576 -0.00360750011 0.00301728421
  vertex -0.137165084 -0.00370467314 0.00301728421
  endloop
 endfacet

 facet normal 0.00155529904 0.00244515785 0.999995828
  outer loop
  vertex -0.125964299 -0.00274590286 0.00299751922
  vertex -0.137165084 -0.00370467314 0.00301728421
  vertex -0.136987865 -0.00381739298 0.00301728421
  endloop
 endfacet

 facet normal 0.00159181596 0.00206948584 0.999996603
  outer loop
  vertex -0.125964299 -0.00274590286 0.00299751922
  vertex -0.136987865 -0.00381739298 0.00301728421
  vertex -0.13682279 -0.00394436577 0.00301728421
  endloop
 endfacet

 facet normal 0.00162314193 0.00178566831 0.999997079
  outer loop
  vertex -0.125964299 -0.00274590286 0.00299751922
  vertex -0.13682279 -0.00394436577 0.00301728421
  vertex -0.13666743 -0.00408558873 0.00301728421
  endloop
 endfacet

 facet normal 0.0016586415 0.00150206021 0.999997556
  outer loop
  vertex -0.125964299 -0.00274590286 0.00299751922
  vertex -0.13666743 -0.00408558873 0.00301728421
  vertex -0.136526629 -0.00424106512 0.00301728421
  endloop
 endfacet

 facet normal 0.00168478722 0.00131735799 0.999997735
  outer loop
  vertex -0.125964299 -0.00274590286 0.00299751922
  vertex -0.136526629 -0.00424106512 0.00301728421
  vertex -0.136397973 -0.00440561119 0.00301728421
  endloop
 endfacet

 facet normal 0.00172201451 0.00108333421 0.999997973
  outer loop
  vertex -0.125964299 -0.00274590286 0.00299751922
  vertex -0.136397973 -0.00440561119 0.00301728421
  vertex -0.136286303 -0.00458311336 0.00301728421
  endloop
 endfacet

 facet normal 0.00175145443 0.000917932601 0.999998033
  outer loop
  vertex -0.125964299 -0.00274590286 0.00299751922
  vertex -0.136286303 -0.00458311336 0.00301728421
  vertex -0.136189207 -0.00476838928 0.00301728421
  endloop
 endfacet

 facet normal 0.00178639288 0.000741297321 0.999998093
  outer loop
  vertex -0.125964299 -0.00274590286 0.00299751922
  vertex -0.136189207 -0.00476838928 0.00301728421
  vertex -0.136109099 -0.00496143894 0.00301728421
  endloop
 endfacet

 facet normal 0.00182314846 0.000572997378 0.999998212
  outer loop
  vertex -0.125964299 -0.00274590286 0.00299751922
  vertex -0.136109099 -0.00496143894 0.00301728421
  vertex -0.136045977 -0.00516226189 0.00301728421
  endloop
 endfacet

 facet normal 0.00186448824 0.000400516961 0.999998212
  outer loop
  vertex -0.125964299 -0.00274590286 0.00299751922
  vertex -0.136045977 -0.00516226189 0.00301728421
  vertex -0.136002272 -0.00536567671 0.00301728421
  endloop
 endfacet

 facet normal 0.00189935917 0.000266904273 0.999998093
  outer loop
  vertex -0.125964299 -0.00274590286 0.00299751922
  vertex -0.136002272 -0.00536567671 0.00301728421
  vertex -0.135973155 -0.00557297794 0.00301728421
  endloop
 endfacet

 facet normal 0.00195558229 6.78542856e-05 0.999998093
  outer loop
  vertex -0.125964299 -0.00274590286 0.00299751922
  vertex -0.135973155 -0.00557297794 0.00301728421
  vertex -0.135965869 -0.00578287151 0.00301728421
  endloop
 endfacet

 facet normal 0.00197618618 0 0.999998033
  outer loop
  vertex -0.125964299 -0.00274590286 0.00299751922
  vertex -0.135965869 -0.00578287151 0.00301728421
  vertex -0.125964299 -0.012980124 0.00299751922
  endloop
 endfacet

 facet normal 1 0 0
  outer loop
  vertex -0.125964299 -0.00274590286 0.00299751922
  vertex -0.125964299 -0.012980124 0.00299751922
  vertex -0.125964299 -0.012980124 -0.0257980861
  endloop
 endfacet

 facet normal 1 0 0
  outer loop
  vertex -0.125964299 -0.00274590286 0.00299751922
  vertex -0.125964299 -0.012980124 -0.0257980861
  vertex -0.125964299 -0.00274590286 -0.0257980861
  endloop
 endfacet

 facet normal 0 1 0
  outer loop
  vertex -0.125964299 -0.00274590286 0.00299751922
  vertex -0.125964299 -0.00274590286 -0.0257980861
  vertex -0.150764301 -0.00274590286 -0.0257980861
  endloop
 endfacet

 facet normal 0 1 0
  outer loop
  vertex -0.125964299 -0.00274590286 0.00299751922
  vertex -0.150764301 -0.00274590286 -0.0257980861
  vertex -0.150764301 -0.00274590286 0.00299751922
  endloop
 endfacet

 facet normal -0.00197618618 0 0.999998033
  outer loop
  vertex -0.150764301 -0.00274590286 0.00299751922
  vertex -0.150764301 -0.012980124 0.00299751922
  vertex -0.140762731 -0.00578287151 0.00301728421
  endloop
 endfacet

 facet normal -0.00195558229 6.78542856e-05 0.999998093
  outer loop
  vertex -0.150764301 -0.00274590286 0.00299751922
  vertex -0.140762731 -0.00578287151 0.00301728421
  vertex -0.140755445 -0.00557297794 0.00301728421
  endloop
 endfacet

 facet normal -0.00189935917 0.000266904273 0.999998093
  outer loop
  vertex -0.150764301 -0.00274590286 0.00299751922
  vertex -0.140755445 -0.00557297794 0.00301728421
  vertex -0.140726328 -0.00536567671 0.00301728421
  endloop
 endfacet

 facet normal -0.00186448824 0.000400516961 0.999998212
  outer loop
  vertex -0.150764301 -0.00274590286 0.00299751922
  vertex -0.140726328 -0.00536567671 0.00301728421
  vertex -0.140682623 -0.00516226189 0.00301728421
  endloop
 endfacet

 facet normal -0.00182314846 0.000572997378 0.999998212
  outer loop
  vertex -0.150764301 -0.00274590286 0.00299751922
  vertex -0.140682623 -0.00516226189 0.00301728421
  vertex -0.140619501 -0.00496143894 0.00301728421
  endloop
 endfacet

 facet normal -0.00178639288 0.000741297321 0.999998093
  outer loop
  vertex -0.150764301 -0.00274590286 0.00299751922
  vertex -0.140619501 -0.00496143894 0.00301728421
  vertex -0.140539393 -0.00476838928 0.00301728421
  endloop
 endfacet

 facet normal -0.00175145443 0.000917932601 0.999998033
  outer loop
  vertex -0.150764301 -0.00274590286 0.00299751922
  vertex -0.140539393 -0.00476838928 0.00301728421
  vertex -0.140442297 -0.00458311336 0.00301728421
  endloop
 endfacet

 facet normal -0.00172201451 0.00108333421 0.999997973
  outer loop
  vertex -0.150764301 -0.00274590286 0.00299751922
  vertex -0.140442297 -0.00458311336 0.00301728421
  vertex -0.140330628 -0.00440561119 0.00301728421
  endloop
 endfacet

 facet normal -0.00168478722 0.00131735799 0.999997735
  outer loop
  vertex -0.150764301 -0.00274590286 0.00299751922
  vertex -0.140330628 -0.00440561119 0.00301728421
  vertex -0.140201971 -0.00424106512 0.00301728421
  endloop
 endfacet

 facet normal -0.0016586415 0.00150206021 0.999997556
  outer loop
  vertex -0.150764301 -0.00274590286 0.00299751922
  vertex -0.140201971 -0.00424106512 0.00301728421
  vertex -0.14006117 -0.00408558873 0.00301728421
  endloop
 endfacet

 facet normal -0.00162314193 0.00178566831 0.999997079
  outer loop
  vertex -0.150764301 -0.00274590286 0.00299751922
  vertex -0.14006117 -0.00408558873 0.00301728421
  vertex -0.13990581 -0.00394436577 0.00301728421
  endloop
 endfacet

 facet normal -0.00159181596 0.00206948584 0.999996603
  outer loop
  vertex -0.150764301 -0.00274590286 0.00299751922
  vertex -0.13990581 -0.00394436577 0.00301728421
  vertex -0.139740735 -0.00381739298 0.00301728421
  endloop
 endfacet

 facet normal -0.00155529904 0.00244515785 0.999995828
  outer loop
  vertex -0.150764301 -0.00274590286 0.00299751922
  vertex -0.139740735 -0.00381739298 0.00301728421
  vertex -0.139563516 -0.00370467314 0.00301728421
  endloop
 endfacet

 facet normal -0.00151790935 0.00288193999 0.999994695
  outer loop
  vertex -0.150764301 -0.00274590286 0.00299751922
  vertex -0.139563516 -0.00370467314 0.00301728421
  vertex -0.139379025 -0.00360750011 0.00301728421
  endloop
 endfacet

 facet normal -0.00146379857 0.00359691749 0.99999249
  outer loop
  vertex -0.150764301 -0.00274590286 0.00299751922
  vertex -0.139379025 -0.00360750011 0.00301728421
  vertex -0.139184818 -0.00352846645 0.00301728421
  endloop
 endfacet

 facet normal -0.00140842912 0.00441612909 0.999989212
  outer loop
  vertex -0.150764301 -0.00274590286 0.00299751922
  vertex -0.139184818 -0.00352846645 0.00301728421
  vertex -0.138985753 -0.00346498052 0.00301728421
  endloop
 endfacet

 facet normal -0.00131321652 0.00597550161 0.999981344
  outer loop
  vertex -0.150764301 -0.00274590286 0.00299751922
  vertex -0.138985753 -0.00346498052 0.00301728421
  vertex -0.138779417 -0.00341963326 0.00301728421
  endloop
 endfacet

 facet normal -0.00115618983 0.00876822509 0.999960899
  outer loop
  vertex -0.150764301 -0.00274590286 0.00299751922
  vertex -0.138779417 -0.00341963326 0.00301728421
  vertex -0.138573065 -0.00339242443 0.00301728421
  endloop
 endfacet

 facet normal -0.000729939027 0.0168027617 0.999858677
  outer loop
  vertex -0.150764301 -0.00274590286 0.00299751922
  vertex -0.138573065 -0.00339242443 0.00301728421
  vertex -0.1383643 -0.00338335522 0.00301728421
  endloop
 endfacet

 facet normal -1 0 0
  outer loop
  vertex -0.150764301 -0.00274590286 0.00299751922
  vertex -0.150764301 -0.00274590286 -0.0257980861
  vertex -0.150764301 -0.012980124 -0.0257980861
  endloop
 endfacet

 facet normal -1 0 0
  outer loop
  vertex -0.150764301 -0.00274590286 0.00299751922
  vertex -0.150764301 -0.012980124 -0.0257980861
  vertex -0.150764301 -0.012980124 0.00299751922
  endloop
 endfacet

 facet normal 0 0 1
  outer loop
  vertex -0.1383643 -0.00338335522 0.00301728421
  vertex -0.138573065 -0.00339242443 0.00301728421
  vertex -0.138779417 -0.00341963326 0.00301728421
  endloop
 endfacet

 facet normal 0 0 1
  outer loop
  vertex -0.1383643 -0.00338335522 0.00301728421
  vertex -0.138779417 -0.00341963326 0.00301728421
  vertex -0.138985753 -0.00346498052 0.00301728421
  endloop
 endfacet

 facet normal 0 0 1
  outer loop
  vertex -0.1383643 -0.00338335522 0.00301728421
  vertex -0.138985753 -0.00346498052 0.00301728421
  vertex -0.139184818 -0.00352846645 0.00301728421
  endloop
 endfacet

 facet normal 0 0 1
  outer loop
  vertex -0.1383643 -0.00338335522 0.00301728421
  vertex -0.139184818 -0.00352846645 0.00301728421
  vertex -0.139379025 -0.00360750011 0.00301728421
  endloop
 endfacet

 facet normal 0 0 1
  outer loop
  vertex -0.1383643 -0.00338335522 0.00301728421
  vertex -0.139379025 -0.00360750011 0.00301728421
  vertex -0.139563516 -0.00370467314 0.00301728421
  endloop
 endfacet

 facet normal 0 0 1
  outer loop
  vertex -0.1383643 -0.00338335522 0.00301728421
  vertex -0.139563516 -0.00370467314 0.00301728421
  vertex -0.139740735 -0.00381739298 0.00301728421
  endloop
 endfacet

 facet normal 0 0 1
  outer loop
  vertex -0.1383643 -0.00338335522 0.00301728421
  vertex -0.139740735 -0.00381739298 0.00301728421
  vertex -0.13990581 -0.00394436577 0.00301728421
  endloop
 endfacet

 facet normal 0 0 1
  outer loop
  vertex -0.1383643 -0.00338335522 0.00301728421
  vertex -0.13990581 -0.00394436577 0.00301728421
  vertex -0.14006117 -0.00408558873 0.00301728421
  endloop
 endfacet

 facet normal 0 0 1
  outer loop
  vertex -0.1383643 -0.00338335522 0.00301728421
  vertex -0.14006117 -0.00408558873 0.00301728421
  vertex -0.140201971 -0.00424106512 0.00301728421
  endloop
 endfacet

 facet normal 0 0 1
  outer loop
  vertex -0.1383643 -0.00338335522 0.00301728421
  vertex -0.140201971 -0.00424106512 0.00301728421
  vertex -0.140330628 -0.00440561119 0.00301728421
  endloop
 endfacet

 facet normal 0 0 1
  outer loop
  vertex -0.1383643 -0.00338335522 0.00301728421
  vertex -0.140330628 -0.00440561119 0.00301728421
  vertex -0.140442297 -0.00458311336 0.00301728421
  endloop
 endfacet

 facet normal 0 0 1
  outer loop
  vertex -0.1383643 -0.00338335522 0.00301728421
  vertex -0.140442297 -0.00458311336 0.00301728421
  vertex -0.140539393 -0.00476838928 0.00301728421
  endloop
 endfacet

 facet normal 0 0 1
  outer loop
  vertex -0.1383643 -0.00338335522 0.00301728421
  vertex -0.140539393 -0.00476838928 0.00301728421
  vertex -0.140619501 -0.00496143894 0.00301728421
  endloop
 endfacet

 facet normal 0 0 1
  outer loop
  vertex -0.1383643 -0.00338335522 0.00301728421
  vertex -0.140619501 -0.00496143894 0.00301728421
  vertex -0.140682623 -0.00516226189 0.00301728421
  endloop
 endfacet

 facet normal 0 0 1
  outer loop
  vertex -0.1383643 -0.00338335522 0.00301728421
  vertex -0.140682623 -0.00516226189 0.00301728421
  vertex -0.140726328 -0.00536567671 0.00301728421
  endloop
 endfacet

 facet normal 0 0 1
  outer loop
  vertex -0.1383643 -0.00338335522 0.00301728421
  vertex -0.140726328 -0.00536567671 0.00301728421
  vertex -0.140755445 -0.00557297794 0.00301728421
  endloop
 endfacet

 facet normal 0 0 1
  outer loop
  vertex -0.1383643 -0.00338335522 0.00301728421
  vertex -0.140755445 -0.00557297794 0.00301728421
  vertex -0.140762731 -0.00578287151 0.00301728421
  endloop
 endfacet

 facet normal 0 0 1
  outer loop
  vertex -0.1383643 -0.00338335522 0.00301728421
  vertex -0.140762731 -0.00578287151 0.00301728421
  vertex -0.140757874 -0.00593057321 0.00301728421
  endloop
 endfacet

 facet normal 0 0 1
  outer loop
  vertex -0.1383643 -0.00338335522 0.00301728421
  vertex -0.140757874 -0.00593057321 0.00301728421
  vertex -0.140755445 -0.00599146867 0.00301728421
  endloop
 endfacet

 facet normal 0 0 1
  outer loop
  vertex -0.1383643 -0.00338335522 0.00301728421
  vertex -0.140755445 -0.00599146867 0.00301728421
  vertex -0.140726328 -0.00620006584 0.00301728421
  endloop
 endfacet

 facet normal 0 0 1
  outer loop
  vertex -0.1383643 -0.00338335522 0.00301728421
  vertex -0.140726328 -0.00620006584 0.00301728421
  vertex -0.140682623 -0.00640477613 0.00301728421
  endloop
 endfacet

 facet normal 0 0 1
  outer loop
  vertex -0.1383643 -0.00338335522 0.00301728421
  vertex -0.140682623 -0.00640477613 0.00301728421
  vertex -0.140619501 -0.00660430407 0.00301728421
  endloop
 endfacet

 facet normal 0 0 1
  outer loop
  vertex -0.1383643 -0.00338335522 0.00301728421
  vertex -0.140619501 -0.00660430407 0.00301728421
  vertex -0.140539393 -0.00679864874 0.00301728421
  endloop
 endfacet

 facet normal 0 0 1
  outer loop
  vertex -0.1383643 -0.00338335522 0.00301728421
  vertex -0.140539393 -0.00679864874 0.00301728421
  vertex -0.140442297 -0.00698262872 0.00301728421
  endloop
 endfacet

 facet normal 0 0 1
  outer loop
  vertex -0.1383643 -0.00338335522 0.00301728421
  vertex -0.140442297 -0.00698262872 0.00301728421
  vertex -0.140330628 -0.00716013089 0.00301728421
  endloop
 endfacet

 facet normal 0 0 1
  outer loop
  vertex -0.1383643 -0.00338335522 0.00301728421
  vertex -0.140330628 -0.00716013089 0.00301728421
  vertex -0.140201971 -0.00732597243 0.00301728421
  endloop
 endfacet

 facet normal 0 0 1
  outer loop
  vertex -0.1383643 -0.00338335522 0.00301728421
  vertex -0.140201971 -0.00732597243 0.00301728421
  vertex -0.14006117 -0.00748015242 0.00301728421
  endloop
 endfacet

 facet normal 0 0 1
  outer loop
  vertex -0.1383643 -0.00338335522 0.00301728421
  vertex -0.14006117 -0.00748015242 0.00301728421
  vertex -0.13990581 -0.00762137724 0.00301728421
  endloop
 endfacet

 facet normal 0 0 1
  outer loop
  vertex -0.1383643 -0.00338335522 0.00301728421
  vertex -0.13990581 -0.00762137724 0.00301728421
  vertex -0.139740735 -0.00775094051 0.00301728421
  endloop
 endfacet

 facet normal 0 0 1
  outer loop
  vertex -0.1383643 -0.00338335522 0.00301728421
  vertex -0.139740735 -0.00775094051 0.00301728421
  vertex -0.139563516 -0.00786366127 0.00301728421
  endloop
 endfacet

 facet normal 0 0 1
  outer loop
  vertex -0.1383643 -0.00338335522 0.00301728421
  vertex -0.139563516 -0.00786366127 0.00301728421
  vertex -0.139379025 -0.00795953721 0.00301728421
  endloop
 endfacet

 facet normal 0 0 1
  outer loop
  vertex -0.1383643 -0.00338335522 0.00301728421
  vertex -0.139379025 -0.00795953721 0.00301728421
  vertex -0.139184818 -0.00804116298 0.00301728421
  endloop
 endfacet

 facet normal 0 0 1
  outer loop
  vertex -0.1383643 -0.00338335522 0.00301728421
  vertex -0.139184818 -0.00804116298 0.00301728421
  vertex -0.138985753 -0.0081033539 0.00301728421
  endloop
 endfacet

 facet normal 0 0 1
  outer loop
  vertex -0.1383643 -0.00338335522 0.00301728421
  vertex -0.138985753 -0.0081033539 0.00301728421
  vertex -0.138779417 -0.00814740546 0.00301728421
  endloop
 endfacet

 facet normal 0 0 1
  outer loop
  vertex -0.1383643 -0.00338335522 0.00301728421
  vertex -0.138779417 -0.00814740546 0.00301728421
  vertex -0.138573065 -0.00817720406 0.00301728421
  endloop
 endfacet

 facet normal 0 0 1
  outer loop
  vertex -0.1383643 -0.00338335522 0.00301728421
  vertex -0.138573065 -0.00817720406 0.00301728421
  vertex -0.1383643 -0.00818368234 0.00301728421
  endloop
 endfacet

 facet normal 0 0 1
  outer loop
  vertex -0.1383643 -0.00338335522 0.00301728421
  vertex -0.1383643 -0.00818368234 0.00301728421
  vertex -0.138155535 -0.00817720406 0.00301728421
  endloop
 endfacet

 facet normal 0 0 1
  outer loop
  vertex -0.1383643 -0.00338335522 0.00301728421
  vertex -0.138155535 -0.00817720406 0.00301728421
  vertex -0.137949184 -0.00814740546 0.00301728421
  endloop
 endfacet

 facet normal 0 0 1
  outer loop
  vertex -0.1383643 -0.00338335522 0.00301728421
  vertex -0.137949184 -0.00814740546 0.00301728421
  vertex -0.137742847 -0.0081033539 0.00301728421
  endloop
 endfacet

 facet normal 0 0 1
  outer loop
  vertex -0.1383643 -0.00338335522 0.00301728421
  vertex -0.137742847 -0.0081033539 0.00301728421
  vertex -0.137543783 -0.00804116298 0.00301728421
  endloop
 endfacet

 facet normal 0 0 1
  outer loop
  vertex -0.1383643 -0.00338335522 0.00301728421
  vertex -0.137543783 -0.00804116298 0.00301728421
  vertex -0.137349576 -0.00795953721 0.00301728421
  endloop
 endfacet

 facet normal 0 0 1
  outer loop
  vertex -0.1383643 -0.00338335522 0.00301728421
  vertex -0.137349576 -0.00795953721 0.00301728421
  vertex -0.137165084 -0.00786366127 0.00301728421
  endloop
 endfacet

 facet normal 0 0 1
  outer loop
  vertex -0.1383643 -0.00338335522 0.00301728421
  vertex -0.137165084 -0.00786366127 0.00301728421
  vertex -0.136987865 -0.00775094051 0.00301728421
  endloop
 endfacet

 facet normal 0 0 1
  outer loop
  vertex -0.1383643 -0.00338335522 0.00301728421
  vertex -0.136987865 -0.00775094051 0.00301728421
  vertex -0.13682279 -0.00762137724 0.00301728421
  endloop
 endfacet

 facet normal 0 0 1
  outer loop
  vertex -0.1383643 -0.00338335522 0.00301728421
  vertex -0.13682279 -0.00762137724 0.00301728421
  vertex -0.13666743 -0.00748015242 0.00301728421
  endloop
 endfacet

 facet normal 0 0 1
  outer loop
  vertex -0.1383643 -0.00338335522 0.00301728421
  vertex -0.13666743 -0.00748015242 0.00301728421
  vertex -0.136526629 -0.00732597243 0.00301728421
  endloop
 endfacet

 facet normal 0 0 1
  outer loop
  vertex -0.1383643 -0.00338335522 0.00301728421
  vertex -0.136526629 -0.00732597243 0.00301728421
  vertex -0.136397973 -0.00716013089 0.00301728421
  endloop
 endfacet

 facet normal 0 0 1
  outer loop
  vertex -0.1383643 -0.00338335522 0.00301728421
  vertex -0.136397973 -0.00716013089 0.00301728421
  vertex -0.136286303 -0.00698262872 0.00301728421
  endloop
 endfacet

 facet normal 0 0 1
  outer loop
  vertex -0.1383643 -0.00338335522 0.00301728421
  vertex -0.136286303 -0.00698262872 0.00301728421
  vertex -0.136189207 -0.00679864874 0.00301728421
  endloop
 endfacet

 facet normal 0 0 1
  outer loop
  vertex -0.1383643 -0.00338335522 0.00301728421
  vertex -0.136189207 -0.00679864874 0.00301728421
  vertex -0.136109099 -0.00660430407 0.00301728421
  endloop
 endfacet

 facet normal 0 0 1
  outer loop
  vertex -0.1383643 -0.00338335522 0.00301728421
  vertex -0.136109099 -0.00660430407 0.00301728421
  vertex -0.136045977 -0.00640477613 0.00301728421
  endloop
 endfacet

 facet normal 0 0 1
  outer loop
  vertex -0.1383643 -0.00338335522 0.00301728421
  vertex -0.136045977 -0.00640477613 0.00301728421
  vertex -0.136002272 -0.00620006584 0.00301728421
  endloop
 endfacet

 facet normal 0 0 1
  outer loop
  vertex -0.1383643 -0.00338335522 0.00301728421
  vertex -0.136002272 -0.00620006584 0.00301728421
  vertex -0.135973155 -0.00599146867 0.00301728421
  endloop
 endfacet

 facet normal 0 0 1
  outer loop
  vertex -0.1383643 -0.00338335522 0.00301728421
  vertex -0.135973155 -0.00599146867 0.00301728421
  vertex -0.135970727 -0.00593057321 0.00301728421
  endloop
 endfacet

 facet normal 0 0 1
  outer loop
  vertex -0.1383643 -0.00338335522 0.00301728421
  vertex -0.135970727 -0.00593057321 0.00301728421
  vertex -0.135965869 -0.00578287151 0.00301728421
  endloop
 endfacet

 facet normal 0 0 1
  outer loop
  vertex -0.1383643 -0.00338335522 0.00301728421
  vertex -0.135965869 -0.00578287151 0.00301728421
  vertex -0.135973155 -0.00557297794 0.00301728421
  endloop
 endfacet

 facet normal 0 0 1
  outer loop
  vertex -0.1383643 -0.00338335522 0.00301728421
  vertex -0.135973155 -0.00557297794 0.00301728421
  vertex -0.136002272 -0.00536567671 0.00301728421
  endloop
 endfacet

 facet normal 0 0 1
  outer loop
  vertex -0.1383643 -0.00338335522 0.00301728421
  vertex -0.136002272 -0.00536567671 0.00301728421
  vertex -0.136045977 -0.00516226189 0.00301728421
  endloop
 endfacet

 facet normal 0 0 1
  outer loop
  vertex -0.1383643 -0.00338335522 0.00301728421
  vertex -0.136045977 -0.00516226189 0.00301728421
  vertex -0.136109099 -0.00496143894 0.00301728421
  endloop
 endfacet

 facet normal 0 0 1
  outer loop
  vertex -0.1383643 -0.00338335522 0.00301728421
  vertex -0.136109099 -0.00496143894 0.00301728421
  vertex -0.136189207 -0.00476838928 0.00301728421
  endloop
 endfacet

 facet normal 0 0 1
  outer loop
  vertex -0.1383643 -0.00338335522 0.00301728421
  vertex -0.136189207 -0.00476838928 0.00301728421
  vertex -0.136286303 -0.00458311336 0.00301728421
  endloop
 endfacet

 facet normal 0 0 1
  outer loop
  vertex -0.1383643 -0.00338335522 0.00301728421
  vertex -0.136286303 -0.00458311336 0.00301728421
  vertex -0.136397973 -0.00440561119 0.00301728421
  endloop
 endfacet

 facet normal 0 0 1
  outer loop
  vertex -0.1383643 -0.00338335522 0.00301728421
  vertex -0.136397973 -0.00440561119 0.00301728421
  vertex -0.136526629 -0.00424106512 0.00301728421
  endloop
 endfacet

 facet normal 0 0 1
  outer loop
  vertex -0.1383643 -0.00338335522 0.00301728421
  vertex -0.136526629 -0.00424106512 0.00301728421
  vertex -0.13666743 -0.00408558873 0.00301728421
  endloop
 endfacet

 facet normal 0 0 1
  outer loop
  vertex -0.1383643 -0.00338335522 0.00301728421
  vertex -0.13666743 -0.00408558873 0.00301728421
  vertex -0.13682279 -0.00394436577 0.00301728421
  endloop
 endfacet

 facet normal 0 0 1
  outer loop
  vertex -0.1383643 -0.00338335522 0.00301728421
  vertex -0.13682279 -0.00394436577 0.00301728421
  vertex -0.136987865 -0.00381739298 0.00301728421
  endloop
 endfacet

 facet normal 0 0 1
  outer loop
  vertex -0.1383643 -0.00338335522 0.00301728421
  vertex -0.136987865 -0.00381739298 0.00301728421
  vertex -0.137165084 -0.00370467314 0.00301728421
  endloop
 endfacet

 facet normal 0 0 1
  outer loop
  vertex -0.1383643 -0.00338335522 0.00301728421
  vertex -0.137165084 -0.00370467314 0.00301728421
  vertex -0.137349576 -0.00360750011 0.00301728421
  endloop
 endfacet

 facet normal 0 0 1
  outer loop
  vertex -0.1383643 -0.00338335522 0.00301728421
  vertex -0.137349576 -0.00360750011 0.00301728421
  vertex -0.137543783 -0.00352846645 0.00301728421
  endloop
 endfacet

 facet normal 0 0 1
  outer loop
  vertex -0.1383643 -0.00338335522 0.00301728421
  vertex -0.137543783 -0.00352846645 0.00301728421
  vertex -0.137742847 -0.00346498052 0.00301728421
  endloop
 endfacet

 facet normal 0 0 1
  outer loop
  vertex -0.1383643 -0.00338335522 0.00301728421
  vertex -0.137742847 -0.00346498052 0.00301728421
  vertex -0.137949184 -0.00341963326 0.00301728421
  endloop
 endfacet

 facet normal 0 0 1
  outer loop
  vertex -0.1383643 -0.00338335522 0.00301728421
  vertex -0.137949184 -0.00341963326 0.00301728421
  vertex -0.138155535 -0.00339242443 0.00301728421
  endloop
 endfacet

 facet normal 0.00193052029 -6.34589305e-05 0.999998093
  outer loop
  vertex -0.135965869 -0.00578287151 0.00301728421
  vertex -0.135970727 -0.00593057321 0.00301728421
  vertex -0.125964299 -0.012980124 0.00299751922
  endloop
 endfacet

 facet normal 0.00192126713 -7.65932855e-05 0.999998093
  outer loop
  vertex -0.125964299 -0.012980124 0.00299751922
  vertex -0.135970727 -0.00593057321 0.00301728421
  vertex -0.135973155 -0.00599146867 0.00301728421
  endloop
 endfacet

 facet normal 0.00179929845 -0.000251272286 0.999998331
  outer loop
  vertex -0.125964299 -0.012980124 0.00299751922
  vertex -0.135973155 -0.00599146867 0.00301728421
  vertex -0.136002272 -0.00620006584 0.00301728421
  endloop
 endfacet

 facet normal 0.0017209053 -0.000367335131 0.99999851
  outer loop
  vertex -0.125964299 -0.012980124 0.00299751922
  vertex -0.136002272 -0.00620006584 0.00301728421
  vertex -0.136045977 -0.00640477613 0.00301728421
  endloop
 endfacet

 facet normal 0.00162518746 -0.000514094951 0.999998569
  outer loop
  vertex -0.125964299 -0.012980124 0.00299751922
  vertex -0.136045977 -0.00640477613 0.00301728421
  vertex -0.136109099 -0.00660430407 0.00301728421
  endloop
 endfacet

 facet normal 0.00154741039 -0.000637848745 0.999998569
  outer loop
  vertex -0.125964299 -0.012980124 0.00299751922
  vertex -0.136109099 -0.00660430407 0.00301728421
  vertex -0.136189207 -0.00679864874 0.00301728421
  endloop
 endfacet

 facet normal 0.00146543828 -0.000773440464 0.999998569
  outer loop
  vertex -0.125964299 -0.012980124 0.00299751922
  vertex -0.136189207 -0.00679864874 0.00301728421
  vertex -0.136286303 -0.00698262872 0.00301728421
  endloop
 endfacet

 facet normal 0.00140226004 -0.000882173772 0.999998569
  outer loop
  vertex -0.125964299 -0.012980124 0.00299751922
  vertex -0.136286303 -0.00698262872 0.00301728421
  vertex -0.136397973 -0.00716013089 0.00301728421
  endloop
 endfacet

 facet normal 0.0013221727 -0.00102574867 0.999998569
  outer loop
  vertex -0.125964299 -0.012980124 0.00299751922
  vertex -0.136397973 -0.00716013089 0.00301728421
  vertex -0.136526629 -0.00732597243 0.00301728421
  endloop
 endfacet

 facet normal 0.00125685264 -0.00114777067 0.999998569
  outer loop
  vertex -0.125964299 -0.012980124 0.00299751922
  vertex -0.136526629 -0.00732597243 0.00301728421
  vertex -0.13666743 -0.00748015242 0.00301728421
  endloop
 endfacet

 facet normal 0.00121970009 -0.00122007064 0.99999851
  outer loop
  vertex -0.125964299 -0.012980124 0.00299751922
  vertex -0.13666743 -0.00748015242 0.00301728421
  vertex -0.128967196 -0.0159821101 0.00299751922
  endloop
 endfacet

 facet normal 0.706999302 -0.707214117 0.00057569606
  outer loop
  vertex -0.125964299 -0.012980124 0.00299751922
  vertex -0.128967196 -0.0159821101 0.00299751922
  vertex -0.128964767 -0.0159821101 1.57420181e-05
  endloop
 endfacet

 facet normal 0.707285404 -0.706928194 0
  outer loop
  vertex -0.125964299 -0.012980124 0.00299751922
  vertex -0.128964767 -0.0159821101 1.57420181e-05
  vertex -0.128964767 -0.0159821101 -0.0257980861
  endloop
 endfacet

 facet normal 0.707285404 -0.706928194 0
  outer loop
  vertex -0.125964299 -0.012980124 0.00299751922
  vertex -0.128964767 -0.0159821101 -0.0257980861
  vertex -0.125964299 -0.012980124 -0.0257980861
  endloop
 endfacet

 facet normal 0.00330355461 0 -0.999994516
  outer loop
  vertex -0.125964299 -0.00274590286 -0.0257980861
  vertex -0.125964299 -0.012980124 -0.0257980861
  vertex -0.135366261 -0.00578287151 -0.0258291457
  endloop
 endfacet

 facet normal 0.00326443417 0.000121113415 -0.999994695
  outer loop
  vertex -0.125964299 -0.00274590286 -0.0257980861
  vertex -0.135366261 -0.00578287151 -0.0258291457
  vertex -0.135375962 -0.0055211531 -0.0258291457
  endloop
 endfacet

 facet normal 0.0031772689 0.000416716153 -0.999994874
  outer loop
  vertex -0.125964299 -0.00274590286 -0.0257980861
  vertex -0.135375962 -0.0055211531 -0.0258291457
  vertex -0.135409951 -0.00526202563 -0.0258291457
  endloop
 endfacet

 facet normal 0.00309979334 0.000707564934 -0.999995053
  outer loop
  vertex -0.125964299 -0.00274590286 -0.0257980861
  vertex -0.135409951 -0.00526202563 -0.0258291457
  vertex -0.135468215 -0.0050067855 -0.0258291457
  endloop
 endfacet

 facet normal 0.00304212514 0.000949979527 -0.999994934
  outer loop
  vertex -0.125964299 -0.00274590286 -0.0257980861
  vertex -0.135468215 -0.0050067855 -0.0258291457
  vertex -0.135545895 -0.00475802366 -0.0258291457
  endloop
 endfacet

 facet normal 0.00298544252 0.00121989672 -0.999994755
  outer loop
  vertex -0.125964299 -0.00274590286 -0.0257980861
  vertex -0.135545895 -0.00475802366 -0.0258291457
  vertex -0.135645434 -0.00451444462 -0.0258291457
  endloop
 endfacet

 facet normal 0.00292832032 0.00153258373 -0.999994516
  outer loop
  vertex -0.125964299 -0.00274590286 -0.0257980861
  vertex -0.135645434 -0.00451444462 -0.0258291457
  vertex -0.135766804 -0.00428252574 -0.0258291457
  endloop
 endfacet

 facet normal 0.00287997141 0.00184100855 -0.999994218
  outer loop
  vertex -0.125964299 -0.00274590286 -0.0257980861
  vertex -0.135766804 -0.00428252574 -0.0258291457
  vertex -0.135907605 -0.00406226842 -0.0258291457
  endloop
 endfacet

 facet normal 0.00283374824 0.0021901445 -0.999993563
  outer loop
  vertex -0.125964299 -0.00274590286 -0.0257980861
  vertex -0.135907605 -0.00406226842 -0.0258291457
  vertex -0.136067823 -0.00385496649 -0.0258291457
  endloop
 endfacet

 facet normal 0.00279274746 0.00256363722 -0.999992788
  outer loop
  vertex -0.125964299 -0.00274590286 -0.0257980861
  vertex -0.136067823 -0.00385496649 -0.0258291457
  vertex -0.136245042 -0.00366191682 -0.0258291457
  endloop
 endfacet

 facet normal 0.00275586895 0.00297750696 -0.999991834
  outer loop
  vertex -0.125964299 -0.00274590286 -0.0257980861
  vertex -0.136245042 -0.00366191682 -0.0258291457
  vertex -0.13643682 -0.00348441466 -0.0258291457
  endloop
 endfacet

 facet normal 0.00271501462 0.00355676259 -0.999989986
  outer loop
  vertex -0.125964299 -0.00274590286 -0.0257980861
  vertex -0.13643682 -0.00348441466 -0.0258291457
  vertex -0.136645585 -0.00332505209 -0.0258291457
  endloop
 endfacet

 facet normal 0.0026785743 0.00422870461 -0.999987543
  outer loop
  vertex -0.125964299 -0.00274590286 -0.0257980861
  vertex -0.136645585 -0.00332505209 -0.0258291457
  vertex -0.136866495 -0.00318512274 -0.0258291457
  endloop
 endfacet

 facet normal 0.00264699454 0.00501231942 -0.999983966
  outer loop
  vertex -0.125964299 -0.00274590286 -0.0257980861
  vertex -0.136866495 -0.00318512274 -0.0258291457
  vertex -0.137097105 -0.00306333369 -0.0258291457
  endloop
 endfacet

 facet normal 0.00260888273 0.00634821411 -0.999976397
  outer loop
  vertex -0.125964299 -0.00274590286 -0.0257980861
  vertex -0.137097105 -0.00306333369 -0.0258291457
  vertex -0.137339875 -0.00296356948 -0.0258291457
  endloop
 endfacet

 facet normal 0.00257202005 0.00827272609 -0.999962509
  outer loop
  vertex -0.125964299 -0.00274590286 -0.0257980861
  vertex -0.137339875 -0.00296356948 -0.0258291457
  vertex -0.137589902 -0.00288583152 -0.0258291457
  endloop
 endfacet

 facet normal 0.00253508426 0.0113347992 -0.999932528
  outer loop
  vertex -0.125964299 -0.00274590286 -0.0257980861
  vertex -0.137589902 -0.00288583152 -0.0258291457
  vertex -0.137844801 -0.00282882317 -0.0258291457
  endloop
 endfacet

 facet normal 0.00248512742 0.0184527524 -0.99982661
  outer loop
  vertex -0.125964299 -0.00274590286 -0.0257980861
  vertex -0.137844801 -0.00282882317 -0.0258291457
  vertex -0.138104558 -0.0027938413 -0.0258291457
  endloop
 endfacet

 facet normal 0.00232409919 0.0582433306 -0.998299718
  outer loop
  vertex -0.125964299 -0.00274590286 -0.0257980861
  vertex -0.138104558 -0.0027938413 -0.0258291457
  vertex -0.1383643 -0.00278347638 -0.0258291457
  endloop
 endfacet

 facet normal 0 0.637138247 -0.770749569
  outer loop
  vertex -0.125964299 -0.00274590286 -0.0257980861
  vertex -0.1383643 -0.00278347638 -0.0258291457
  vertex -0.150764301 -0.00274590286 -0.0257980861
  endloop
 endfacet

 facet normal -0.00121970009 -0.00122007064 0.99999851
  outer loop
  vertex -0.150764301 -0.012980124 0.00299751922
  vertex -0.147761405 -0.0159821101 0.00299751922
  vertex -0.14006117 -0.00748015242 0.00301728421
  endloop
 endfacet

 facet normal -0.00125685264 -0.00114777067 0.999998569
  outer loop
  vertex -0.150764301 -0.012980124 0.00299751922
  vertex -0.14006117 -0.00748015242 0.00301728421
  vertex -0.140201971 -0.00732597243 0.00301728421
  endloop
 endfacet

 facet normal -0.0013221727 -0.00102574867 0.999998569
  outer loop
  vertex -0.150764301 -0.012980124 0.00299751922
  vertex -0.140201971 -0.00732597243 0.00301728421
  vertex -0.140330628 -0.00716013089 0.00301728421
  endloop
 endfacet

 facet normal -0.00140226004 -0.000882173772 0.999998569
  outer loop
  vertex -0.150764301 -0.012980124 0.00299751922
  vertex -0.140330628 -0.00716013089 0.00301728421
  vertex -0.140442297 -0.00698262872 0.00301728421
  endloop
 endfacet

 facet normal -0.00146543828 -0.000773440464 0.999998569
  outer loop
  vertex -0.150764301 -0.012980124 0.00299751922
  vertex -0.140442297 -0.00698262872 0.00301728421
  vertex -0.140539393 -0.00679864874 0.00301728421
  endloop
 endfacet

 facet normal -0.00154741039 -0.000637848745 0.999998569
  outer loop
  vertex -0.150764301 -0.012980124 0.00299751922
  vertex -0.140539393 -0.00679864874 0.00301728421
  vertex -0.140619501 -0.00660430407 0.00301728421
  endloop
 endfacet

 facet normal -0.00162518746 -0.000514094951 0.999998569
  outer loop
  vertex -0.150764301 -0.012980124 0.00299751922
  vertex -0.140619501 -0.00660430407 0.00301728421
  vertex -0.140682623 -0.00640477613 0.00301728421
  endloop
 endfacet

 facet normal -0.0017209053 -0.000367335131 0.99999851
  outer loop
  vertex -0.150764301 -0.012980124 0.00299751922
  vertex -0.140682623 -0.00640477613 0.00301728421
  vertex -0.140726328 -0.00620006584 0.00301728421
  endloop
 endfacet

 facet normal -0.00179929845 -0.000251272286 0.999998331
  outer loop
  vertex -0.150764301 -0.012980124 0.00299751922
  vertex -0.140726328 -0.00620006584 0.00301728421
  vertex -0.140755445 -0.00599146867 0.00301728421
  endloop
 endfacet

 facet normal -0.00192126713 -7.65932855e-05 0.999998093
  outer loop
  vertex -0.150764301 -0.012980124 0.00299751922
  vertex -0.140755445 -0.00599146867 0.00301728421
  vertex -0.140757874 -0.00593057321 0.00301728421
  endloop
 endfacet

 facet normal -0.00193052029 -6.34589305e-05 0.999998093
  outer loop
  vertex -0.150764301 -0.012980124 0.00299751922
  vertex -0.140757874 -0.00593057321 0.00301728421
  vertex -0.140762731 -0.00578287151 0.00301728421
  endloop
 endfacet

 facet normal -0.707285404 -0.706928194 0
  outer loop
  vertex -0.150764301 -0.012980124 0.00299751922
  vertex -0.150764301 -0.012980124 -0.0257980861
  vertex -0.147763833 -0.0159821101 -0.0257980861
  endloop
 endfacet

 facet normal -0.707285404 -0.706928194 0
  outer loop
  vertex -0.150764301 -0.012980124 0.00299751922
  vertex -0.147763833 -0.0159821101 -0.0257980861
  vertex -0.147763833 -0.0159821101 1.57420181e-05
  endloop
 endfacet

 facet normal -0.706999302 -0.707214117 0.00057569606
  outer loop
  vertex -0.150764301 -0.012980124 0.00299751922
  vertex -0.147763833 -0.0159821101 1.57420181e-05
  vertex -0.147761405 -0.0159821101 0.00299751922
  endloop
 endfacet

 facet normal -0.00232409919 0.0582433306 -0.998299718
  outer loop
  vertex -0.150764301 -0.00274590286 -0.0257980861
  vertex -0.1383643 -0.00278347638 -0.0258291457
  vertex -0.138624042 -0.0027938413 -0.0258291457
  endloop
 endfacet

 facet normal -0.00248512742 0.0184527524 -0.99982661
  outer loop
  vertex -0.150764301 -0.00274590286 -0.0257980861
  vertex -0.138624042 -0.0027938413 -0.0258291457
  vertex -0.138883799 -0.00282882317 -0.0258291457
  endloop
 endfacet

 facet normal -0.00253508426 0.0113347992 -0.999932528
  outer loop
  vertex -0.150764301 -0.00274590286 -0.0257980861
  vertex -0.138883799 -0.00282882317 -0.0258291457
  vertex -0.139138699 -0.00288583152 -0.0258291457
  endloop
 endfacet

 facet normal -0.00257202005 0.00827272609 -0.999962509
  outer loop
  vertex -0.150764301 -0.00274590286 -0.0257980861
  vertex -0.139138699 -0.00288583152 -0.0258291457
  vertex -0.139388725 -0.00296356948 -0.0258291457
  endloop
 endfacet

 facet normal -0.00260888273 0.00634821411 -0.999976397
  outer loop
  vertex -0.150764301 -0.00274590286 -0.0257980861
  vertex -0.139388725 -0.00296356948 -0.0258291457
  vertex -0.139631495 -0.00306333369 -0.0258291457
  endloop
 endfacet

 facet normal -0.00264699454 0.00501231942 -0.999983966
  outer loop
  vertex -0.150764301 -0.00274590286 -0.0257980861
  vertex -0.139631495 -0.00306333369 -0.0258291457
  vertex -0.139862105 -0.00318512274 -0.0258291457
  endloop
 endfacet

 facet normal -0.0026785743 0.00422870461 -0.999987543
  outer loop
  vertex -0.150764301 -0.00274590286 -0.0257980861
  vertex -0.139862105 -0.00318512274 -0.0258291457
  vertex -0.140083015 -0.00332505209 -0.0258291457
  endloop
 endfacet

 facet normal -0.00271501462 0.00355676259 -0.999989986
  outer loop
  vertex -0.150764301 -0.00274590286 -0.0257980861
  vertex -0.140083015 -0.00332505209 -0.0258291457
  vertex -0.14029178 -0.00348441466 -0.0258291457
  endloop
 endfacet

 facet normal -0.00275586895 0.00297750696 -0.999991834
  outer loop
  vertex -0.150764301 -0.00274590286 -0.0257980861
  vertex -0.14029178 -0.00348441466 -0.0258291457
  vertex -0.140483558 -0.00366191682 -0.0258291457
  endloop
 endfacet

 facet normal -0.00279274746 0.00256363722 -0.999992788
  outer loop
  vertex -0.150764301 -0.00274590286 -0.0257980861
  vertex -0.140483558 -0.00366191682 -0.0258291457
  vertex -0.140660778 -0.00385496649 -0.0258291457
  endloop
 endfacet

 facet normal -0.00283374824 0.0021901445 -0.999993563
  outer loop
  vertex -0.150764301 -0.00274590286 -0.0257980861
  vertex -0.140660778 -0.00385496649 -0.0258291457
  vertex -0.140820995 -0.00406226842 -0.0258291457
  endloop
 endfacet

 facet normal -0.00287997141 0.00184100855 -0.999994218
  outer loop
  vertex -0.150764301 -0.00274590286 -0.0257980861
  vertex -0.140820995 -0.00406226842 -0.0258291457
  vertex -0.140961796 -0.00428252574 -0.0258291457
  endloop
 endfacet

 facet normal -0.00292832032 0.00153258373 -0.999994516
  outer loop
  vertex -0.150764301 -0.00274590286 -0.0257980861
  vertex -0.140961796 -0.00428252574 -0.0258291457
  vertex -0.141083166 -0.00451444462 -0.0258291457
  endloop
 endfacet

 facet normal -0.00298544252 0.00121989672 -0.999994755
  outer loop
  vertex -0.150764301 -0.00274590286 -0.0257980861
  vertex -0.141083166 -0.00451444462 -0.0258291457
  vertex -0.141182706 -0.00475802366 -0.0258291457
  endloop
 endfacet

 facet normal -0.00304212514 0.000949979527 -0.999994934
  outer loop
  vertex -0.150764301 -0.00274590286 -0.0257980861
  vertex -0.141182706 -0.00475802366 -0.0258291457
  vertex -0.141260386 -0.0050067855 -0.0258291457
  endloop
 endfacet

 facet normal -0.00309979334 0.000707564934 -0.999995053
  outer loop
  vertex -0.150764301 -0.00274590286 -0.0257980861
  vertex -0.141260386 -0.0050067855 -0.0258291457
  vertex -0.141318649 -0.00526202563 -0.0258291457
  endloop
 endfacet

 facet normal -0.0031772689 0.000416716153 -0.999994874
  outer loop
  vertex -0.150764301 -0.00274590286 -0.0257980861
  vertex -0.141318649 -0.00526202563 -0.0258291457
  vertex -0.141352639 -0.0055211531 -0.0258291457
  endloop
 endfacet

 facet normal -0.00326443417 0.000121113415 -0.999994695
  outer loop
  vertex -0.150764301 -0.00274590286 -0.0257980861
  vertex -0.141352639 -0.0055211531 -0.0258291457
  vertex -0.141362339 -0.00578287151 -0.0258291457
  endloop
 endfacet

 facet normal -0.00330355461 0 -0.999994516
  outer loop
  vertex -0.150764301 -0.00274590286 -0.0257980861
  vertex -0.141362339 -0.00578287151 -0.0258291457
  vertex -0.150764301 -0.012980124 -0.0257980861
  endloop
 endfacet

 facet normal 0.0011590037 -0.00127504347 0.99999851
  outer loop
  vertex -0.13666743 -0.00748015242 0.00301728421
  vertex -0.13682279 -0.00762137724 0.00301728421
  vertex -0.128967196 -0.0159821101 0.00299751922
  endloop
 endfacet

 facet normal 0 -1 0
  outer loop
  vertex -0.128967196 -0.0159821101 0.00299751922
  vertex -0.147761405 -0.0159821101 0.00299751922
  vertex -0.147763833 -0.0159821101 1.57420181e-05
  endloop
 endfacet

 facet normal 0 -1 0
  outer loop
  vertex -0.128967196 -0.0159821101 0.00299751922
  vertex -0.147763833 -0.0159821101 1.57420181e-05
  vertex -0.147763833 -0.0159821101 -0.0257980861
  endloop
 endfacet

 facet normal 0 -1 0
  outer loop
  vertex -0.128967196 -0.0159821101 0.00299751922
  vertex -0.147763833 -0.0159821101 -0.0257980861
  vertex -0.128964767 -0.0159821101 -0.0257980861
  endloop
 endfacet

 facet normal 0 -1 0
  outer loop
  vertex -0.128967196 -0.0159821101 0.00299751922
  vertex -0.128964767 -0.0159821101 -0.0257980861
  vertex -0.128964767 -0.0159821101 1.57420181e-05
  endloop
 endfacet

 facet normal 0.00106792094 -0.0013606234 0.99999851
  outer loop
  vertex -0.128967196 -0.0159821101 0.00299751922
  vertex -0.13682279 -0.00762137724 0.00301728421
  vertex -0.136987865 -0.00775094051 0.00301728421
  endloop
 endfacet

 facet normal 0.000942930987 -0.00148241688 0.99999851
  outer loop
  vertex -0.128967196 -0.0159821101 0.00299751922
  vertex -0.136987865 -0.00775094051 0.00301728421
  vertex -0.137165084 -0.00786366127 0.00301728421
  endloop
 endfacet

 facet normal 0.000829757773 -0.00159669691 0.999998331
  outer loop
  vertex -0.128967196 -0.0159821101 0.00299751922
  vertex -0.137165084 -0.00786366127 0.00301728421
  vertex -0.137349576 -0.00795953721 0.00301728421
  endloop
 endfacet

 facet normal 0.00071951322 -0.00171188591 0.999998271
  outer loop
  vertex -0.128967196 -0.0159821101 0.00299751922
  vertex -0.137349576 -0.00795953721 0.00301728421
  vertex -0.137543783 -0.00804116298 0.00301728421
  endloop
 endfacet

 facet normal 0.00058142317 -0.00186102907 0.999998093
  outer loop
  vertex -0.128967196 -0.0159821101 0.00299751922
  vertex -0.137543783 -0.00804116298 0.00301728421
  vertex -0.137742847 -0.0081033539 0.00301728421
  endloop
 endfacet

 facet normal 0.000432677916 -0.00202670624 0.999997795
  outer loop
  vertex -0.128967196 -0.0159821101 0.00299751922
  vertex -0.137742847 -0.0081033539 0.00301728421
  vertex -0.137949184 -0.00814740546 0.00301728421
  endloop
 endfacet

 facet normal 0.000312571821 -0.00216439972 0.999997616
  outer loop
  vertex -0.128967196 -0.0159821101 0.00299751922
  vertex -0.137949184 -0.00814740546 0.00301728421
  vertex -0.138155535 -0.00817720406 0.00301728421
  endloop
 endfacet

 facet normal 7.58117312e-05 -0.00244312431 0.999997079
  outer loop
  vertex -0.128967196 -0.0159821101 0.00299751922
  vertex -0.138155535 -0.00817720406 0.00301728421
  vertex -0.1383643 -0.00818368234 0.00301728421
  endloop
 endfacet

 facet normal 0 -0.00253447634 0.999996781
  outer loop
  vertex -0.128967196 -0.0159821101 0.00299751922
  vertex -0.1383643 -0.00818368234 0.00301728421
  vertex -0.147761405 -0.0159821101 0.00299751922
  endloop
 endfacet

 facet normal 0.00202320004 -0.00202217838 -0.999996006
  outer loop
  vertex -0.125964299 -0.012980124 -0.0257980861
  vertex -0.128964767 -0.0159821101 -0.0257980861
  vertex -0.136245042 -0.00790641643 -0.0258291457
  endloop
 endfacet

 facet normal 0.00207922282 -0.00190866156 -0.999996066
  outer loop
  vertex -0.125964299 -0.012980124 -0.0257980861
  vertex -0.136245042 -0.00790641643 -0.0258291457
  vertex -0.136067823 -0.00771336816 -0.0258291457
  endloop
 endfacet

 facet normal 0.0021952372 -0.00168610457 -0.999996185
  outer loop
  vertex -0.125964299 -0.012980124 -0.0257980861
  vertex -0.136067823 -0.00771336816 -0.0258291457
  vertex -0.135907605 -0.0075047696 -0.0258291457
  endloop
 endfacet

 facet normal 0.00231042248 -0.00147692696 -0.999996185
  outer loop
  vertex -0.125964299 -0.012980124 -0.0257980861
  vertex -0.135907605 -0.0075047696 -0.0258291457
  vertex -0.135766804 -0.00728451181 -0.0258291457
  endloop
 endfacet

 facet normal 0.0024328602 -0.00126620347 -0.999996185
  outer loop
  vertex -0.125964299 -0.012980124 -0.0257980861
  vertex -0.135766804 -0.00728451181 -0.0258291457
  vertex -0.135645434 -0.00705129746 -0.0258291457
  endloop
 endfacet

 facet normal 0.00256340089 -0.00105304492 -0.999996185
  outer loop
  vertex -0.125964299 -0.012980124 -0.0257980861
  vertex -0.135645434 -0.00705129746 -0.0258291457
  vertex -0.135545895 -0.0068090139 -0.0258291457
  endloop
 endfacet

 facet normal 0.00269882614 -0.000842775858 -0.999996066
  outer loop
  vertex -0.125964299 -0.012980124 -0.0257980861
  vertex -0.135545895 -0.0068090139 -0.0258291457
  vertex -0.135468215 -0.00656025205 -0.0258291457
  endloop
 endfacet

 facet normal 0.00283343671 -0.000643497915 -0.999995708
  outer loop
  vertex -0.125964299 -0.012980124 -0.0257980861
  vertex -0.135468215 -0.00656025205 -0.0258291457
  vertex -0.135409951 -0.00630371599 -0.0258291457
  endloop
 endfacet

 facet normal 0.00300801871 -0.000396501448 -0.99999541
  outer loop
  vertex -0.125964299 -0.012980124 -0.0257980861
  vertex -0.135409951 -0.00630371599 -0.0258291457
  vertex -0.135375962 -0.00604588492 -0.0258291457
  endloop
 endfacet

 facet normal 0.00320085557 -0.000134766422 -0.999994874
  outer loop
  vertex -0.125964299 -0.012980124 -0.0257980861
  vertex -0.135375962 -0.00604588492 -0.0258291457
  vertex -0.135371119 -0.00593057321 -0.0258291457
  endloop
 endfacet

 facet normal 0.0032224704 -0.000105923464 -0.999994755
  outer loop
  vertex -0.125964299 -0.012980124 -0.0257980861
  vertex -0.135371119 -0.00593057321 -0.0258291457
  vertex -0.135366261 -0.00578287151 -0.0258291457
  endloop
 endfacet

 facet normal 0 0 -1
  outer loop
  vertex -0.135366261 -0.00578287151 -0.0258291457
  vertex -0.135371119 -0.00593057321 -0.0258291457
  vertex -0.135375962 -0.00604588492 -0.0258291457
  endloop
 endfacet

 facet normal 0 0 -1
  outer loop
  vertex -0.135366261 -0.00578287151 -0.0258291457
  vertex -0.135375962 -0.00604588492 -0.0258291457
  vertex -0.135409951 -0.00630371599 -0.0258291457
  endloop
 endfacet

 facet normal 0 0 -1
  outer loop
  vertex -0.135366261 -0.00578287151 -0.0258291457
  vertex -0.135409951 -0.00630371599 -0.0258291457
  vertex -0.135468215 -0.00656025205 -0.0258291457
  endloop
 endfacet

 facet normal 0 0 -1
  outer loop
  vertex -0.135366261 -0.00578287151 -0.0258291457
  vertex -0.135468215 -0.00656025205 -0.0258291457
  vertex -0.135545895 -0.0068090139 -0.0258291457
  endloop
 endfacet

 facet normal 0 0 -1
  outer loop
  vertex -0.135366261 -0.00578287151 -0.0258291457
  vertex -0.135545895 -0.0068090139 -0.0258291457
  vertex -0.135645434 -0.00705129746 -0.0258291457
  endloop
 endfacet

 facet normal 0 0 -1
  outer loop
  vertex -0.135366261 -0.00578287151 -0.0258291457
  vertex -0.135645434 -0.00705129746 -0.0258291457
  vertex -0.135766804 -0.00728451181 -0.0258291457
  endloop
 endfacet

 facet normal 0 0 -1
  outer loop
  vertex -0.135366261 -0.00578287151 -0.0258291457
  vertex -0.135766804 -0.00728451181 -0.0258291457
  vertex -0.135907605 -0.0075047696 -0.0258291457
  endloop
 endfacet

 facet normal 0 0 -1
  outer loop
  vertex -0.135366261 -0.00578287151 -0.0258291457
  vertex -0.135907605 -0.0075047696 -0.0258291457
  vertex -0.136067823 -0.00771336816 -0.0258291457
  endloop
 endfacet

 facet normal 0 0 -1
  outer loop
  vertex -0.135366261 -0.00578287151 -0.0258291457
  vertex -0.136067823 -0.00771336816 -0.0258291457
  vertex -0.136245042 -0.00790641643 -0.0258291457
  endloop
 endfacet

 facet normal 0 0 -1
  outer loop
  vertex -0.135366261 -0.00578287151 -0.0258291457
  vertex -0.136245042 -0.00790641643 -0.0258291457
  vertex -0.13643682 -0.00808132719 -0.0258291457
  endloop
 endfacet

 facet normal 0 0 -1
  outer loop
  vertex -0.135366261 -0.00578287151 -0.0258291457
  vertex -0.13643682 -0.00808132719 -0.0258291457
  vertex -0.136645585 -0.00824069139 -0.0258291457
  endloop
 endfacet

 facet normal 0 0 -1
  outer loop
  vertex -0.135366261 -0.00578287151 -0.0258291457
  vertex -0.136645585 -0.00824069139 -0.0258291457
  vertex -0.136866495 -0.00838061981 -0.0258291457
  endloop
 endfacet

 facet normal 0 0 -1
  outer loop
  vertex -0.135366261 -0.00578287151 -0.0258291457
  vertex -0.136866495 -0.00838061981 -0.0258291457
  vertex -0.137097105 -0.00850370526 -0.0258291457
  endloop
 endfacet

 facet normal 0 0 -1
  outer loop
  vertex -0.135366261 -0.00578287151 -0.0258291457
  vertex -0.137097105 -0.00850370526 -0.0258291457
  vertex -0.137339875 -0.00860346854 -0.0258291457
  endloop
 endfacet

 facet normal 0 0 -1
  outer loop
  vertex -0.135366261 -0.00578287151 -0.0258291457
  vertex -0.137339875 -0.00860346854 -0.0258291457
  vertex -0.137589902 -0.00868120603 -0.0258291457
  endloop
 endfacet

 facet normal 0 0 -1
  outer loop
  vertex -0.135366261 -0.00578287151 -0.0258291457
  vertex -0.137589902 -0.00868120603 -0.0258291457
  vertex -0.137844801 -0.00873821508 -0.0258291457
  endloop
 endfacet

 facet normal 0 0 -1
  outer loop
  vertex -0.135366261 -0.00578287151 -0.0258291457
  vertex -0.137844801 -0.00873821508 -0.0258291457
  vertex -0.138104558 -0.00877190102 -0.0258291457
  endloop
 endfacet

 facet normal 0 0 -1
  outer loop
  vertex -0.135366261 -0.00578287151 -0.0258291457
  vertex -0.138104558 -0.00877190102 -0.0258291457
  vertex -0.1383643 -0.00878485758 -0.0258291457
  endloop
 endfacet

 facet normal 0 0 -1
  outer loop
  vertex -0.135366261 -0.00578287151 -0.0258291457
  vertex -0.1383643 -0.00878485758 -0.0258291457
  vertex -0.138624042 -0.00877190102 -0.0258291457
  endloop
 endfacet

 facet normal 0 0 -1
  outer loop
  vertex -0.135366261 -0.00578287151 -0.0258291457
  vertex -0.138624042 -0.00877190102 -0.0258291457
  vertex -0.138883799 -0.00873821508 -0.0258291457
  endloop
 endfacet

 facet normal 0 0 -1
  outer loop
  vertex -0.135366261 -0.00578287151 -0.0258291457
  vertex -0.138883799 -0.00873821508 -0.0258291457
  vertex -0.139138699 -0.00868120603 -0.0258291457
  endloop
 endfacet

 facet normal 0 0 -1
  outer loop
  vertex -0.135366261 -0.00578287151 -0.0258291457
  vertex -0.139138699 -0.00868120603 -0.0258291457
  vertex -0.139388725 -0.00860346854 -0.0258291457
  endloop
 endfacet

 facet normal 0 0 -1
  outer loop
  vertex -0.135366261 -0.00578287151 -0.0258291457
  vertex -0.139388725 -0.00860346854 -0.0258291457
  vertex -0.139631495 -0.00850370526 -0.0258291457
  endloop
 endfacet

 facet normal 0 0 -1
  outer loop
  vertex -0.135366261 -0.00578287151 -0.0258291457
  vertex -0.139631495 -0.00850370526 -0.0258291457
  vertex -0.139862105 -0.00838061981 -0.0258291457
  endloop
 endfacet

 facet normal 0 0 -1
  outer loop
  vertex -0.135366261 -0.00578287151 -0.0258291457
  vertex -0.139862105 -0.00838061981 -0.0258291457
  vertex -0.140083015 -0.00824069139 -0.0258291457
  endloop
 endfacet

 facet normal 0 0 -1
  outer loop
  vertex -0.135366261 -0.00578287151 -0.0258291457
  vertex -0.140083015 -0.00824069139 -0.0258291457
  vertex -0.14029178 -0.00808132719 -0.0258291457
  endloop
 endfacet

 facet normal 0 0 -1
  outer loop
  vertex -0.135366261 -0.00578287151 -0.0258291457
  vertex -0.14029178 -0.00808132719 -0.0258291457
  vertex -0.140483558 -0.00790641643 -0.0258291457
  endloop
 endfacet

 facet normal 0 0 -1
  outer loop
  vertex -0.135366261 -0.00578287151 -0.0258291457
  vertex -0.140483558 -0.00790641643 -0.0258291457
  vertex -0.140660778 -0.00771336816 -0.0258291457
  endloop
 endfacet

 facet normal 0 0 -1
  outer loop
  vertex -0.135366261 -0.00578287151 -0.0258291457
  vertex -0.140660778 -0.00771336816 -0.0258291457
  vertex -0.140820995 -0.0075047696 -0.0258291457
  endloop
 endfacet

 facet normal 0 0 -1
  outer loop
  vertex -0.135366261 -0.00578287151 -0.0258291457
  vertex -0.140820995 -0.0075047696 -0.0258291457
  vertex -0.140961796 -0.00728451181 -0.0258291457
  endloop
 endfacet

 facet normal 0 0 -1
  outer loop
  vertex -0.135366261 -0.00578287151 -0.0258291457
  vertex -0.140961796 -0.00728451181 -0.0258291457
  vertex -0.141083166 -0.00705129746 -0.0258291457
  endloop
 endfacet

 facet normal 0 0 -1
  outer loop
  vertex -0.135366261 -0.00578287151 -0.0258291457
  vertex -0.141083166 -0.00705129746 -0.0258291457
  vertex -0.141182706 -0.0068090139 -0.0258291457
  endloop
 endfacet

 facet normal 0 0 -1
  outer loop
  vertex -0.135366261 -0.00578287151 -0.0258291457
  vertex -0.141182706 -0.0068090139 -0.0258291457
  vertex -0.141260386 -0.00656025205 -0.0258291457
  endloop
 endfacet

 facet normal 0 0 -1
  outer loop
  vertex -0.135366261 -0.00578287151 -0.0258291457
  vertex -0.141260386 -0.00656025205 -0.0258291457
  vertex -0.141318649 -0.00630371599 -0.0258291457
  endloop
 endfacet

 facet normal 0 0 -1
  outer loop
  vertex -0.135366261 -0.00578287151 -0.0258291457
  vertex -0.141318649 -0.00630371599 -0.0258291457
  vertex -0.141352639 -0.00604588492 -0.0258291457
  endloop
 endfacet

 facet normal 0 0 -1
  outer loop
  vertex -0.135366261 -0.00578287151 -0.0258291457
  vertex -0.141352639 -0.00604588492 -0.0258291457
  vertex -0.141357481 -0.00593057321 -0.0258291457
  endloop
 endfacet

 facet normal 0 0 -1
  outer loop
  vertex -0.135366261 -0.00578287151 -0.0258291457
  vertex -0.141357481 -0.00593057321 -0.0258291457
  vertex -0.141362339 -0.00578287151 -0.0258291457
  endloop
 endfacet

 facet normal 0 0 -1
  outer loop
  vertex -0.135366261 -0.00578287151 -0.0258291457
  vertex -0.141362339 -0.00578287151 -0.0258291457
  vertex -0.141352639 -0.0055211531 -0.0258291457
  endloop
 endfacet

 facet normal 0 0 -1
  outer loop
  vertex -0.135366261 -0.00578287151 -0.0258291457
  vertex -0.141352639 -0.0055211531 -0.0258291457
  vertex -0.141318649 -0.00526202563 -0.0258291457
  endloop
 endfacet

 facet normal 0 0 -1
  outer loop
  vertex -0.135366261 -0.00578287151 -0.0258291457
  vertex -0.141318649 -0.00526202563 -0.0258291457
  vertex -0.141260386 -0.0050067855 -0.0258291457
  endloop
 endfacet

 facet normal 0 0 -1
  outer loop
  vertex -0.135366261 -0.00578287151 -0.0258291457
  vertex -0.141260386 -0.0050067855 -0.0258291457
  vertex -0.141182706 -0.00475802366 -0.0258291457
  endloop
 endfacet

 facet normal 0 0 -1
  outer loop
  vertex -0.135366261 -0.00578287151 -0.0258291457
  vertex -0.141182706 -0.00475802366 -0.0258291457
  vertex -0.141083166 -0.00451444462 -0.0258291457
  endloop
 endfacet

 facet normal 0 0 -1
  outer loop
  vertex -0.135366261 -0.00578287151 -0.0258291457
  vertex -0.141083166 -0.00451444462 -0.0258291457
  vertex -0.140961796 -0.00428252574 -0.0258291457
  endloop
 endfacet

 facet normal 0 0 -1
  outer loop
  vertex -0.135366261 -0.00578287151 -0.0258291457
  vertex -0.140961796 -0.00428252574 -0.0258291457
  vertex -0.140820995 -0.00406226842 -0.0258291457
  endloop
 endfacet

 facet normal 0 0 -1
  outer loop
  vertex -0.135366261 -0.00578287151 -0.0258291457
  vertex -0.140820995 -0.00406226842 -0.0258291457
  vertex -0.140660778 -0.00385496649 -0.0258291457
  endloop
 endfacet

 facet normal 0 0 -1
  outer loop
  vertex -0.135366261 -0.00578287151 -0.0258291457
  vertex -0.140660778 -0.00385496649 -0.0258291457
  vertex -0.140483558 -0.00366191682 -0.0258291457
  endloop
 endfacet

 facet normal 0 0 -1
  outer loop
  vertex -0.135366261 -0.00578287151 -0.0258291457
  vertex -0.140483558 -0.00366191682 -0.0258291457
  vertex -0.14029178 -0.00348441466 -0.0258291457
  endloop
 endfacet

 facet normal 0 0 -1
  outer loop
  vertex -0.135366261 -0.00578287151 -0.0258291457
  vertex -0.14029178 -0.00348441466 -0.0258291457
  vertex -0.140083015 -0.00332505209 -0.0258291457
  endloop
 endfacet

 facet normal 0 0 -1
  outer loop
  vertex -0.135366261 -0.00578287151 -0.0258291457
  vertex -0.140083015 -0.00332505209 -0.0258291457
  vertex -0.139862105 -0.00318512274 -0.0258291457
  endloop
 endfacet

 facet normal 0 0 -1
  outer loop
  vertex -0.135366261 -0.00578287151 -0.0258291457
  vertex -0.139862105 -0.00318512274 -0.0258291457
  vertex -0.139631495 -0.00306333369 -0.0258291457
  endloop
 endfacet

 facet normal 0 0 -1
  outer loop
  vertex -0.135366261 -0.00578287151 -0.0258291457
  vertex -0.139631495 -0.00306333369 -0.0258291457
  vertex -0.139388725 -0.00296356948 -0.0258291457
  endloop
 endfacet

 facet normal 0 0 -1
  outer loop
  vertex -0.135366261 -0.00578287151 -0.0258291457
  vertex -0.139388725 -0.00296356948 -0.0258291457
  vertex -0.139138699 -0.00288583152 -0.0258291457
  endloop
 endfacet

 facet normal 0 0 -1
  outer loop
  vertex -0.135366261 -0.00578287151 -0.0258291457
  vertex -0.139138699 -0.00288583152 -0.0258291457
  vertex -0.138883799 -0.00282882317 -0.0258291457
  endloop
 endfacet

 facet normal 0 0 -1
  outer loop
  vertex -0.135366261 -0.00578287151 -0.0258291457
  vertex -0.138883799 -0.00282882317 -0.0258291457
  vertex -0.138624042 -0.0027938413 -0.0258291457
  endloop
 endfacet

 facet normal 0 0 -1
  outer loop
  vertex -0.135366261 -0.00578287151 -0.0258291457
  vertex -0.138624042 -0.0027938413 -0.0258291457
  vertex -0.1383643 -0.00278347638 -0.0258291457
  endloop
 endfacet

 facet normal 0 0 -1
  outer loop
  vertex -0.135366261 -0.00578287151 -0.0258291457
  vertex -0.1383643 -0.00278347638 -0.0258291457
  vertex -0.138104558 -0.0027938413 -0.0258291457
  endloop
 endfacet

 facet normal 0 0 -1
  outer loop
  vertex -0.135366261 -0.00578287151 -0.0258291457
  vertex -0.138104558 -0.0027938413 -0.0258291457
  vertex -0.137844801 -0.00282882317 -0.0258291457
  endloop
 endfacet

 facet normal 0 0 -1
  outer loop
  vertex -0.135366261 -0.00578287151 -0.0258291457
  vertex -0.137844801 -0.00282882317 -0.0258291457
  vertex -0.137589902 -0.00288583152 -0.0258291457
  endloop
 endfacet

 facet normal 0 0 -1
  outer loop
  vertex -0.135366261 -0.00578287151 -0.0258291457
  vertex -0.137589902 -0.00288583152 -0.0258291457
  vertex -0.137339875 -0.00296356948 -0.0258291457
  endloop
 endfacet

 facet normal 0 0 -1
  outer loop
  vertex -0.135366261 -0.00578287151 -0.0258291457
  vertex -0.137339875 -0.00296356948 -0.0258291457
  vertex -0.137097105 -0.00306333369 -0.0258291457
  endloop
 endfacet

 facet normal 0 0 -1
  outer loop
  vertex -0.135366261 -0.00578287151 -0.0258291457
  vertex -0.137097105 -0.00306333369 -0.0258291457
  vertex -0.136866495 -0.00318512274 -0.0258291457
  endloop
 endfacet

 facet normal 0 0 -1
  outer loop
  vertex -0.135366261 -0.00578287151 -0.0258291457
  vertex -0.136866495 -0.00318512274 -0.0258291457
  vertex -0.136645585 -0.00332505209 -0.0258291457
  endloop
 endfacet

 facet normal 0 0 -1
  outer loop
  vertex -0.135366261 -0.00578287151 -0.0258291457
  vertex -0.136645585 -0.00332505209 -0.0258291457
  vertex -0.13643682 -0.00348441466 -0.0258291457
  endloop
 endfacet

 facet normal 0 0 -1
  outer loop
  vertex -0.135366261 -0.00578287151 -0.0258291457
  vertex -0.13643682 -0.00348441466 -0.0258291457
  vertex -0.136245042 -0.00366191682 -0.0258291457
  endloop
 endfacet

 facet normal 0 0 -1
  outer loop
  vertex -0.135366261 -0.00578287151 -0.0258291457
  vertex -0.136245042 -0.00366191682 -0.0258291457
  vertex -0.136067823 -0.00385496649 -0.0258291457
  endloop
 endfacet

 facet normal 0 0 -1
  outer loop
  vertex -0.135366261 -0.00578287151 -0.0258291457
  vertex -0.136067823 -0.00385496649 -0.0258291457
  vertex -0.135907605 -0.00406226842 -0.0258291457
  endloop
 endfacet

 facet normal 0 0 -1
  outer loop
  vertex -0.135366261 -0.00578287151 -0.0258291457
  vertex -0.135907605 -0.00406226842 -0.0258291457
  vertex -0.135766804 -0.00428252574 -0.0258291457
  endloop
 endfacet

 facet normal 0 0 -1
  outer loop
  vertex -0.135366261 -0.00578287151 -0.0258291457
  vertex -0.135766804 -0.00428252574 -0.0258291457
  vertex -0.135645434 -0.00451444462 -0.0258291457
  endloop
 endfacet

 facet normal 0 0 -1
  outer loop
  vertex -0.135366261 -0.00578287151 -0.0258291457
  vertex -0.135645434 -0.00451444462 -0.0258291457
  vertex -0.135545895 -0.00475802366 -0.0258291457
  endloop
 endfacet

 facet normal 0 0 -1
  outer loop
  vertex -0.135366261 -0.00578287151 -0.0258291457
  vertex -0.135545895 -0.00475802366 -0.0258291457
  vertex -0.135468215 -0.0050067855 -0.0258291457
  endloop
 endfacet

 facet normal 0 0 -1
  outer loop
  vertex -0.135366261 -0.00578287151 -0.0258291457
  vertex -0.135468215 -0.0050067855 -0.0258291457
  vertex -0.135409951 -0.00526202563 -0.0258291457
  endloop
 endfacet

 facet normal 0 0 -1
  outer loop
  vertex -0.135366261 -0.00578287151 -0.0258291457
  vertex -0.135409951 -0.00526202563 -0.0258291457
  vertex -0.135375962 -0.0055211531 -0.0258291457
  endloop
 endfacet

 facet normal -7.58117312e-05 -0.00244312431 0.999997079
  outer loop
  vertex -0.147761405 -0.0159821101 0.00299751922
  vertex -0.1383643 -0.00818368234 0.00301728421
  vertex -0.138573065 -0.00817720406 0.00301728421
  endloop
 endfacet

 facet normal -0.000312571821 -0.00216439972 0.999997616
  outer loop
  vertex -0.147761405 -0.0159821101 0.00299751922
  vertex -0.138573065 -0.00817720406 0.00301728421
  vertex -0.138779417 -0.00814740546 0.00301728421
  endloop
 endfacet

 facet normal -0.000432677916 -0.00202670624 0.999997795
  outer loop
  vertex -0.147761405 -0.0159821101 0.00299751922
  vertex -0.138779417 -0.00814740546 0.00301728421
  vertex -0.138985753 -0.0081033539 0.00301728421
  endloop
 endfacet

 facet normal -0.00058142317 -0.00186102907 0.999998093
  outer loop
  vertex -0.147761405 -0.0159821101 0.00299751922
  vertex -0.138985753 -0.0081033539 0.00301728421
  vertex -0.139184818 -0.00804116298 0.00301728421
  endloop
 endfacet

 facet normal -0.00071951322 -0.00171188591 0.999998271
  outer loop
  vertex -0.147761405 -0.0159821101 0.00299751922
  vertex -0.139184818 -0.00804116298 0.00301728421
  vertex -0.139379025 -0.00795953721 0.00301728421
  endloop
 endfacet

 facet normal -0.000829757773 -0.00159669691 0.999998331
  outer loop
  vertex -0.147761405 -0.0159821101 0.00299751922
  vertex -0.139379025 -0.00795953721 0.00301728421
  vertex -0.139563516 -0.00786366127 0.00301728421
  endloop
 endfacet

 facet normal -0.000942930987 -0.00148241688 0.99999851
  outer loop
  vertex -0.147761405 -0.0159821101 0.00299751922
  vertex -0.139563516 -0.00786366127 0.00301728421
  vertex -0.139740735 -0.00775094051 0.00301728421
  endloop
 endfacet

 facet normal -0.00106792094 -0.0013606234 0.99999851
  outer loop
  vertex -0.147761405 -0.0159821101 0.00299751922
  vertex -0.139740735 -0.00775094051 0.00301728421
  vertex -0.13990581 -0.00762137724 0.00301728421
  endloop
 endfacet

 facet normal -0.0011590037 -0.00127504347 0.99999851
  outer loop
  vertex -0.147761405 -0.0159821101 0.00299751922
  vertex -0.13990581 -0.00762137724 0.00301728421
  vertex -0.14006117 -0.00748015242 0.00301728421
  endloop
 endfacet

 facet normal -0.0032224704 -0.000105923464 -0.999994755
  outer loop
  vertex -0.150764301 -0.012980124 -0.0257980861
  vertex -0.141362339 -0.00578287151 -0.0258291457
  vertex -0.141357481 -0.00593057321 -0.0258291457
  endloop
 endfacet

 facet normal -0.00320085557 -0.000134766422 -0.999994874
  outer loop
  vertex -0.150764301 -0.012980124 -0.0257980861
  vertex -0.141357481 -0.00593057321 -0.0258291457
  vertex -0.141352639 -0.00604588492 -0.0258291457
  endloop
 endfacet

 facet normal -0.00300801871 -0.000396501448 -0.99999541
  outer loop
  vertex -0.150764301 -0.012980124 -0.0257980861
  vertex -0.141352639 -0.00604588492 -0.0258291457
  vertex -0.141318649 -0.00630371599 -0.0258291457
  endloop
 endfacet

 facet normal -0.00283343671 -0.000643497915 -0.999995708
  outer loop
  vertex -0.150764301 -0.012980124 -0.0257980861
  vertex -0.141318649 -0.00630371599 -0.0258291457
  vertex -0.141260386 -0.00656025205 -0.0258291457
  endloop
 endfacet

 facet normal -0.00269882614 -0.000842775858 -0.999996066
  outer loop
  vertex -0.150764301 -0.012980124 -0.0257980861
  vertex -0.141260386 -0.00656025205 -0.0258291457
  vertex -0.141182706 -0.0068090139 -0.0258291457
  endloop
 endfacet

 facet normal -0.00256340089 -0.00105304492 -0.999996185
  outer loop
  vertex -0.150764301 -0.012980124 -0.0257980861
  vertex -0.141182706 -0.0068090139 -0.0258291457
  vertex -0.141083166 -0.00705129746 -0.0258291457
  endloop
 endfacet

 facet normal -0.0024328602 -0.00126620347 -0.999996185
  outer loop
  vertex -0.150764301 -0.012980124 -0.0257980861
  vertex -0.141083166 -0.00705129746 -0.0258291457
  vertex -0.140961796 -0.00728451181 -0.0258291457
  endloop
 endfacet

 facet normal -0.00231042248 -0.00147692696 -0.999996185
  outer loop
  vertex -0.150764301 -0.012980124 -0.0257980861
  vertex -0.140961796 -0.00728451181 -0.0258291457
  vertex -0.140820995 -0.0075047696 -0.0258291457
  endloop
 endfacet

 facet normal -0.0021952372 -0.00168610457 -0.999996185
  outer loop
  vertex -0.150764301 -0.012980124 -0.0257980861
  vertex -0.140820995 -0.0075047696 -0.0258291457
  vertex -0.140660778 -0.00771336816 -0.0258291457
  endloop
 endfacet

 facet normal -0.00207922282 -0.00190866156 -0.999996066
  outer loop
  vertex -0.150764301 -0.012980124 -0.0257980861
  vertex -0.140660778 -0.00771336816 -0.0258291457
  vertex -0.140483558 -0.00790641643 -0.0258291457
  endloop
 endfacet

 facet normal -0.00202320004 -0.00202217838 -0.999996006
  outer loop
  vertex -0.150764301 -0.012980124 -0.0257980861
  vertex -0.140483558 -0.00790641643 -0.0258291457
  vertex -0.147763833 -0.0159821101 -0.0257980861
  endloop
 endfacet

 facet normal 0 -0.00431550248 -0.999990642
  outer loop
  vertex -0.128964767 -0.0159821101 -0.0257980861
  vertex -0.147763833 -0.0159821101 -0.0257980861
  vertex -0.1383643 -0.00878485758 -0.0258291457
  endloop
 endfacet

 facet normal 0.000202096635 -0.00405157218 -0.999991834
  outer loop
  vertex -0.128964767 -0.0159821101 -0.0257980861
  vertex -0.1383643 -0.00878485758 -0.0258291457
  vertex -0.138104558 -0.00877190102 -0.0258291457
  endloop
 endfacet

 facet normal 0.000479788374 -0.00369957066 -0.999993145
  outer loop
  vertex -0.128964767 -0.0159821101 -0.0257980861
  vertex -0.138104558 -0.00877190102 -0.0258291457
  vertex -0.137844801 -0.00873821508 -0.0258291457
  endloop
 endfacet

 facet normal 0.000752624706 -0.0033651148 -0.99999404
  outer loop
  vertex -0.128964767 -0.0159821101 -0.0257980861
  vertex -0.137844801 -0.00873821508 -0.0258291457
  vertex -0.137589902 -0.00868120603 -0.0258291457
  endloop
 endfacet

 facet normal 0.000967356842 -0.00311143696 -0.999994695
  outer loop
  vertex -0.128964767 -0.0159821101 -0.0257980861
  vertex -0.137589902 -0.00868120603 -0.0258291457
  vertex -0.137339875 -0.00860346854 -0.0258291457
  endloop
 endfacet

 facet normal 0.00117964612 -0.002870481 -0.999995172
  outer loop
  vertex -0.128964767 -0.0159821101 -0.0257980861
  vertex -0.137339875 -0.00860346854 -0.0258291457
  vertex -0.137097105 -0.00850370526 -0.0258291457
  endloop
 endfacet

 facet normal 0.00140262325 -0.00262800744 -0.999995589
  outer loop
  vertex -0.128964767 -0.0159821101 -0.0257980861
  vertex -0.137097105 -0.00850370526 -0.0258291457
  vertex -0.136866495 -0.00838061981 -0.0258291457
  endloop
 endfacet

 facet normal 0.00156061456 -0.00246377685 -0.999995708
  outer loop
  vertex -0.128964767 -0.0159821101 -0.0257980861
  vertex -0.136866495 -0.00838061981 -0.0258291457
  vertex -0.136645585 -0.00824069139 -0.0258291457
  endloop
 endfacet

 facet normal 0.00174275646 -0.00228306139 -0.999995887
  outer loop
  vertex -0.128964767 -0.0159821101 -0.0257980861
  vertex -0.136645585 -0.00824069139 -0.0258291457
  vertex -0.13643682 -0.00808132719 -0.0258291457
  endloop
 endfacet

 facet normal 0.00192503992 -0.00211066962 -0.999995887
  outer loop
  vertex -0.128964767 -0.0159821101 -0.0257980861
  vertex -0.13643682 -0.00808132719 -0.0258291457
  vertex -0.136245042 -0.00790641643 -0.0258291457
  endloop
 endfacet

 facet normal -0.00192503992 -0.00211066962 -0.999995887
  outer loop
  vertex -0.140483558 -0.00790641643 -0.0258291457
  vertex -0.14029178 -0.00808132719 -0.0258291457
  vertex -0.147763833 -0.0159821101 -0.0257980861
  endloop
 endfacet

 facet normal -0.00174275646 -0.00228306139 -0.999995887
  outer loop
  vertex -0.147763833 -0.0159821101 -0.0257980861
  vertex -0.14029178 -0.00808132719 -0.0258291457
  vertex -0.140083015 -0.00824069139 -0.0258291457
  endloop
 endfacet

 facet normal -0.00156061456 -0.00246377685 -0.999995708
  outer loop
  vertex -0.147763833 -0.0159821101 -0.0257980861
  vertex -0.140083015 -0.00824069139 -0.0258291457
  vertex -0.139862105 -0.00838061981 -0.0258291457
  endloop
 endfacet

 facet normal -0.00140262325 -0.00262800744 -0.999995589
  outer loop
  vertex -0.147763833 -0.0159821101 -0.0257980861
  vertex -0.139862105 -0.00838061981 -0.0258291457
  vertex -0.139631495 -0.00850370526 -0.0258291457
  endloop
 endfacet

 facet normal -0.00117964612 -0.002870481 -0.999995172
  outer loop
  vertex -0.147763833 -0.0159821101 -0.0257980861
  vertex -0.139631495 -0.00850370526 -0.0258291457
  vertex -0.139388725 -0.00860346854 -0.0258291457
  endloop
 endfacet

 facet normal -0.000967356842 -0.00311143696 -0.999994695
  outer loop
  vertex -0.147763833 -0.0159821101 -0.0257980861
  vertex -0.139388725 -0.00860346854 -0.0258291457
  vertex -0.139138699 -0.00868120603 -0.0258291457
  endloop
 endfacet

 facet normal -0.000752624706 -0.0033651148 -0.99999404
  outer loop
  vertex -0.147763833 -0.0159821101 -0.0257980861
  vertex -0.139138699 -0.00868120603 -0.0258291457
  vertex -0.138883799 -0.00873821508 -0.0258291457
  endloop
 endfacet

 facet normal -0.000479788374 -0.00369957066 -0.999993145
  outer loop
  vertex -0.147763833 -0.0159821101 -0.0257980861
  vertex -0.138883799 -0.00873821508 -0.0258291457
  vertex -0.138624042 -0.00877190102 -0.0258291457
  endloop
 endfacet

 facet normal -0.000202096635 -0.00405157218 -0.999991834
  outer loop
  vertex -0.147763833 -0.0159821101 -0.0257980861
  vertex -0.138624042 -0.00877190102 -0.0258291457
  vertex -0.1383643 -0.00878485758 -0.0258291457
  endloop
 endfacet

endsolid AssimpScene
