solid AssimpScene
 facet normal 0 -0.944932222 -0.327265948
  outer loop
  vertex -0.144868836 0.00257558073 -0.0257992763
  vertex -0.144868836 0.00309533859 -0.0273000002
  vertex -0.143283769 0.00257558073 -0.0257992763
  endloop
 endfacet

 facet normal 0 -1 0
  outer loop
  vertex -0.144868836 0.00257558073 -0.0257992763
  vertex -0.143283769 0.00257558073 -0.0257992763
  vertex -0.143283769 0.00257558073 0.00299788453
  endloop
 endfacet

 facet normal 0 -1 0
  outer loop
  vertex -0.144868836 0.00257558073 -0.0257992763
  vertex -0.143283769 0.00257558073 0.00299788453
  vertex -0.144868836 0.00257558073 0.00299788453
  endloop
 endfacet

 facet normal -1 0 0
  outer loop
  vertex -0.144868836 0.00257558073 -0.0257992763
  vertex -0.144868836 0.00257558073 0.00299788453
  vertex -0.144868836 0.00344884698 0.00559999887
  endloop
 endfacet

 facet normal -1 0 0
  outer loop
  vertex -0.144868836 0.00257558073 -0.0257992763
  vertex -0.144868836 0.00344884698 0.00559999887
  vertex -0.144868836 0.00724152569 0.00559999887
  endloop
 endfacet

 facet normal -1 0 0
  outer loop
  vertex -0.144868836 0.00257558073 -0.0257992763
  vertex -0.144868836 0.00724152569 0.00559999887
  vertex -0.144868836 0.00724152569 -0.0257992763
  endloop
 endfacet

 facet normal -1 0 0
  outer loop
  vertex -0.144868836 0.00257558073 -0.0257992763
  vertex -0.144868836 0.00724152569 -0.0257992763
  vertex -0.144868836 0.00576766068 -0.0272967797
  endloop
 endfacet

 facet normal -1 0 0
  outer loop
  vertex -0.144868836 0.00257558073 -0.0257992763
  vertex -0.144868836 0.00576766068 -0.0272967797
  vertex -0.144868836 0.00576309348 -0.0273000002
  endloop
 endfacet

 facet normal -1 0 0
  outer loop
  vertex -0.144868836 0.00257558073 -0.0257992763
  vertex -0.144868836 0.00576309348 -0.0273000002
  vertex -0.144868836 0.00309533859 -0.0273000002
  endloop
 endfacet

 facet normal 0 0 -1
  outer loop
  vertex -0.144868836 0.00309533859 -0.0273000002
  vertex -0.144868836 0.00576309348 -0.0273000002
  vertex -0.144864172 0.00576766068 -0.0273000002
  endloop
 endfacet

 facet normal 0 0 -1
  outer loop
  vertex -0.144868836 0.00309533859 -0.0273000002
  vertex -0.144864172 0.00576766068 -0.0273000002
  vertex -0.144864172 0.00309853558 -0.0273000002
  endloop
 endfacet

 facet normal 0.424296796 -0.617746711 -0.662088573
  outer loop
  vertex -0.144868836 0.00309533859 -0.0273000002
  vertex -0.144864172 0.00309853558 -0.0273000002
  vertex -0.143283769 0.00257558073 -0.0257992763
  endloop
 endfacet

 facet normal 0.688591182 0 -0.72514981
  outer loop
  vertex -0.143283769 0.00257558073 -0.0257992763
  vertex -0.144864172 0.00309853558 -0.0273000002
  vertex -0.144864172 0.00576766068 -0.0273000002
  endloop
 endfacet

 facet normal 0.688591182 0 -0.72514981
  outer loop
  vertex -0.143283769 0.00257558073 -0.0257992763
  vertex -0.144864172 0.00576766068 -0.0273000002
  vertex -0.143283769 0.00724152569 -0.0257992763
  endloop
 endfacet

 facet normal 1 0 0
  outer loop
  vertex -0.143283769 0.00257558073 -0.0257992763
  vertex -0.143283769 0.00724152569 -0.0257992763
  vertex -0.143283769 0.00724152569 0.00559999887
  endloop
 endfacet

 facet normal 1 0 0
  outer loop
  vertex -0.143283769 0.00257558073 -0.0257992763
  vertex -0.143283769 0.00724152569 0.00559999887
  vertex -0.143283769 0.00438422803 0.00559999887
  endloop
 endfacet

 facet normal 1 0 0
  outer loop
  vertex -0.143283769 0.00257558073 -0.0257992763
  vertex -0.143283769 0.00438422803 0.00559999887
  vertex -0.143283769 0.00257558073 0.00299788453
  endloop
 endfacet

 facet normal 0 -0.948037028 0.318160057
  outer loop
  vertex -0.144868836 0.00257558073 0.00299788453
  vertex -0.143283769 0.00257558073 0.00299788453
  vertex -0.144868836 0.00344884698 0.00559999887
  endloop
 endfacet

 facet normal -0.492209524 0.501596212 -0.711428881
  outer loop
  vertex -0.144868836 0.00576309348 -0.0273000002
  vertex -0.144868836 0.00576766068 -0.0272967797
  vertex -0.144864172 0.00576766068 -0.0273000002
  endloop
 endfacet

 facet normal 0 0.71346271 -0.700693309
  outer loop
  vertex -0.143283769 0.00724152569 -0.0257992763
  vertex -0.144864172 0.00576766068 -0.0273000002
  vertex -0.144868836 0.00724152569 -0.0257992763
  endloop
 endfacet

 facet normal 0 1 0
  outer loop
  vertex -0.143283769 0.00724152569 -0.0257992763
  vertex -0.144868836 0.00724152569 -0.0257992763
  vertex -0.144868836 0.00724152569 0.00559999887
  endloop
 endfacet

 facet normal 0 1 0
  outer loop
  vertex -0.143283769 0.00724152569 -0.0257992763
  vertex -0.144868836 0.00724152569 0.00559999887
  vertex -0.143283769 0.00724152569 0.00559999887
  endloop
 endfacet

 facet normal 0.436070174 -0.738945186 0.513617396
  outer loop
  vertex -0.143283769 0.00257558073 0.00299788453
  vertex -0.143283769 0.00438422803 0.00559999887
  vertex -0.144868836 0.00344884698 0.00559999887
  endloop
 endfacet

 facet normal 0 0 1
  outer loop
  vertex -0.144868836 0.00344884698 0.00559999887
  vertex -0.143283769 0.00438422803 0.00559999887
  vertex -0.143283769 0.00724152569 0.00559999887
  endloop
 endfacet

 facet normal 0 0 1
  outer loop
  vertex -0.144868836 0.00344884698 0.00559999887
  vertex -0.143283769 0.00724152569 0.00559999887
  vertex -0.144868836 0.00724152569 0.00559999887
  endloop
 endfacet

 facet normal -0.436610997 0.641189694 -0.631067932
  outer loop
  vertex -0.144868836 0.00576766068 -0.0272967797
  vertex -0.144868836 0.00724152569 -0.0257992763
  vertex -0.144864172 0.00576766068 -0.0273000002
  endloop
 endfacet

endsolid AssimpScene
