solid AssimpScene
 facet normal -0.998996198 0.044795122 0
  outer loop
  vertex -0.140764058 -0.00578210969 0.00301728421
  vertex -0.140764058 -0.00578210969 0.00599970948
  vertex -0.14075467 -0.00557255605 0.00599970948
  endloop
 endfacet

 facet normal -0.998996198 0.044795122 0
  outer loop
  vertex -0.140764058 -0.00578210969 0.00301728421
  vertex -0.14075467 -0.00557255605 0.00599970948
  vertex -0.14075467 -0.00557255605 0.00301728421
  endloop
 endfacet

 facet normal 0 0 -1
  outer loop
  vertex -0.140764058 -0.00578210969 0.00301728421
  vertex -0.14075467 -0.00557255605 0.00301728421
  vertex -0.140726939 -0.00536535215 0.00301728421
  endloop
 endfacet

 facet normal 0 0 -1
  outer loop
  vertex -0.140764058 -0.00578210969 0.00301728421
  vertex -0.140726939 -0.00536535215 0.00301728421
  vertex -0.140681371 -0.00516096689 0.00301728421
  endloop
 endfacet

 facet normal 0 0 -1
  outer loop
  vertex -0.140764058 -0.00578210969 0.00301728421
  vertex -0.140681371 -0.00516096689 0.00301728421
  vertex -0.140619352 -0.00496127922 0.00301728421
  endloop
 endfacet

 facet normal 0 0 -1
  outer loop
  vertex -0.140764058 -0.00578210969 0.00301728421
  vertex -0.140619352 -0.00496127922 0.00301728421
  vertex -0.14053902 -0.00476817135 0.00301728421
  endloop
 endfacet

 facet normal 0 0 -1
  outer loop
  vertex -0.140764058 -0.00578210969 0.00301728421
  vertex -0.14053902 -0.00476817135 0.00301728421
  vertex -0.14044176 -0.00458258018 0.00301728421
  endloop
 endfacet

 facet normal 0 0 -1
  outer loop
  vertex -0.140764058 -0.00578210969 0.00301728421
  vertex -0.14044176 -0.00458258018 0.00301728421
  vertex -0.140329942 -0.00440591574 0.00301728421
  endloop
 endfacet

 facet normal 0 0 -1
  outer loop
  vertex -0.140764058 -0.00578210969 0.00301728421
  vertex -0.140329942 -0.00440591574 0.00301728421
  vertex -0.140202612 -0.00424005836 0.00301728421
  endloop
 endfacet

 facet normal 0 0 -1
  outer loop
  vertex -0.140764058 -0.00578210969 0.00301728421
  vertex -0.140202612 -0.00424005836 0.00301728421
  vertex -0.1400612 -0.00408547744 0.00301728421
  endloop
 endfacet

 facet normal 0 0 -1
  outer loop
  vertex -0.140764058 -0.00578210969 0.00301728421
  vertex -0.1400612 -0.00408547744 0.00301728421
  vertex -0.139906153 -0.00394405238 0.00301728421
  endloop
 endfacet

 facet normal 0 0 -1
  outer loop
  vertex -0.140764058 -0.00578210969 0.00301728421
  vertex -0.139906153 -0.00394405238 0.00301728421
  vertex -0.139739841 -0.00381672243 0.00301728421
  endloop
 endfacet

 facet normal 0 0 -1
  outer loop
  vertex -0.140764058 -0.00578210969 0.00301728421
  vertex -0.139739841 -0.00381672243 0.00301728421
  vertex -0.13956365 -0.00370442821 0.00301728421
  endloop
 endfacet

 facet normal 0 0 -1
  outer loop
  vertex -0.140764058 -0.00578210969 0.00301728421
  vertex -0.13956365 -0.00370442821 0.00301728421
  vertex -0.139378071 -0.00360763888 0.00301728421
  endloop
 endfacet

 facet normal 0 0 -1
  outer loop
  vertex -0.140764058 -0.00578210969 0.00301728421
  vertex -0.139378071 -0.00360763888 0.00301728421
  vertex -0.139184505 -0.00352729415 0.00301728421
  endloop
 endfacet

 facet normal 0 0 -1
  outer loop
  vertex -0.140764058 -0.00578210969 0.00301728421
  vertex -0.139184505 -0.00352729415 0.00301728421
  vertex -0.138984829 -0.00346433441 0.00301728421
  endloop
 endfacet

 facet normal 0 0 -1
  outer loop
  vertex -0.140764058 -0.00578210969 0.00301728421
  vertex -0.138984829 -0.00346433441 0.00301728421
  vertex -0.138780445 -0.0034192286 0.00301728421
  endloop
 endfacet

 facet normal 0 0 -1
  outer loop
  vertex -0.140764058 -0.00578210969 0.00301728421
  vertex -0.138780445 -0.0034192286 0.00301728421
  vertex -0.138572782 -0.0033919774 0.00301728421
  endloop
 endfacet

 facet normal 0 0 -1
  outer loop
  vertex -0.140764058 -0.00578210969 0.00301728421
  vertex -0.138572782 -0.0033919774 0.00301728421
  vertex -0.138364181 -0.00338257989 0.00301728421
  endloop
 endfacet

 facet normal 0 0 -1
  outer loop
  vertex -0.140764058 -0.00578210969 0.00301728421
  vertex -0.138364181 -0.00338257989 0.00301728421
  vertex -0.138155103 -0.0033919774 0.00301728421
  endloop
 endfacet

 facet normal 0 0 -1
  outer loop
  vertex -0.140764058 -0.00578210969 0.00301728421
  vertex -0.138155103 -0.0033919774 0.00301728421
  vertex -0.13794744 -0.0034192286 0.00301728421
  endloop
 endfacet

 facet normal 0 0 -1
  outer loop
  vertex -0.140764058 -0.00578210969 0.00301728421
  vertex -0.13794744 -0.0034192286 0.00301728421
  vertex -0.137743071 -0.00346433441 0.00301728421
  endloop
 endfacet

 facet normal 0 0 -1
  outer loop
  vertex -0.140764058 -0.00578210969 0.00301728421
  vertex -0.137743071 -0.00346433441 0.00301728421
  vertex -0.137543395 -0.00352729415 0.00301728421
  endloop
 endfacet

 facet normal 0 0 -1
  outer loop
  vertex -0.140764058 -0.00578210969 0.00301728421
  vertex -0.137543395 -0.00352729415 0.00301728421
  vertex -0.137349829 -0.00360763888 0.00301728421
  endloop
 endfacet

 facet normal 0 0 -1
  outer loop
  vertex -0.140764058 -0.00578210969 0.00301728421
  vertex -0.137349829 -0.00360763888 0.00301728421
  vertex -0.137164712 -0.00370442821 0.00301728421
  endloop
 endfacet

 facet normal 0 0 -1
  outer loop
  vertex -0.140764058 -0.00578210969 0.00301728421
  vertex -0.137164712 -0.00370442821 0.00301728421
  vertex -0.136988059 -0.00381672243 0.00301728421
  endloop
 endfacet

 facet normal 0 0 -1
  outer loop
  vertex -0.140764058 -0.00578210969 0.00301728421
  vertex -0.136988059 -0.00381672243 0.00301728421
  vertex -0.136822209 -0.00394405238 0.00301728421
  endloop
 endfacet

 facet normal 0 0 -1
  outer loop
  vertex -0.140764058 -0.00578210969 0.00301728421
  vertex -0.136822209 -0.00394405238 0.00301728421
  vertex -0.136667639 -0.00408547744 0.00301728421
  endloop
 endfacet

 facet normal 0 0 -1
  outer loop
  vertex -0.140764058 -0.00578210969 0.00301728421
  vertex -0.136667639 -0.00408547744 0.00301728421
  vertex -0.136526212 -0.00424005836 0.00301728421
  endloop
 endfacet

 facet normal 0 0 -1
  outer loop
  vertex -0.140764058 -0.00578210969 0.00301728421
  vertex -0.136526212 -0.00424005836 0.00301728421
  vertex -0.13639842 -0.00440591574 0.00301728421
  endloop
 endfacet

 facet normal 0 0 -1
  outer loop
  vertex -0.140764058 -0.00578210969 0.00301728421
  vertex -0.13639842 -0.00440591574 0.00301728421
  vertex -0.136286139 -0.00458258018 0.00301728421
  endloop
 endfacet

 facet normal 0 0 -1
  outer loop
  vertex -0.140764058 -0.00578210969 0.00301728421
  vertex -0.136286139 -0.00458258018 0.00301728421
  vertex -0.136189356 -0.00476817135 0.00301728421
  endloop
 endfacet

 facet normal 0 0 -1
  outer loop
  vertex -0.140764058 -0.00578210969 0.00301728421
  vertex -0.136189356 -0.00476817135 0.00301728421
  vertex -0.136109486 -0.00496127922 0.00301728421
  endloop
 endfacet

 facet normal 0 0 -1
  outer loop
  vertex -0.140764058 -0.00578210969 0.00301728421
  vertex -0.136109486 -0.00496127922 0.00301728421
  vertex -0.136046529 -0.00516096689 0.00301728421
  endloop
 endfacet

 facet normal 0 0 -1
  outer loop
  vertex -0.140764058 -0.00578210969 0.00301728421
  vertex -0.136046529 -0.00516096689 0.00301728421
  vertex -0.136000946 -0.00536535215 0.00301728421
  endloop
 endfacet

 facet normal 0 0 -1
  outer loop
  vertex -0.140764058 -0.00578210969 0.00301728421
  vertex -0.136000946 -0.00536535215 0.00301728421
  vertex -0.135973707 -0.00557255605 0.00301728421
  endloop
 endfacet

 facet normal 0 0 -1
  outer loop
  vertex -0.140764058 -0.00578210969 0.00301728421
  vertex -0.135973707 -0.00557255605 0.00301728421
  vertex -0.135964304 -0.00578210969 0.00301728421
  endloop
 endfacet

 facet normal 0 0 -1
  outer loop
  vertex -0.140764058 -0.00578210969 0.00301728421
  vertex -0.135964304 -0.00578210969 0.00301728421
  vertex -0.135973707 -0.00599072315 0.00301728421
  endloop
 endfacet

 facet normal 0 0 -1
  outer loop
  vertex -0.140764058 -0.00578210969 0.00301728421
  vertex -0.135973707 -0.00599072315 0.00301728421
  vertex -0.136000946 -0.00619839784 0.00301728421
  endloop
 endfacet

 facet normal 0 0 -1
  outer loop
  vertex -0.140764058 -0.00578210969 0.00301728421
  vertex -0.136000946 -0.00619839784 0.00301728421
  vertex -0.13600941 -0.00623739604 0.00301728421
  endloop
 endfacet

 facet normal 0 0 -1
  outer loop
  vertex -0.140764058 -0.00578210969 0.00301728421
  vertex -0.13600941 -0.00623739604 0.00301728421
  vertex -0.136046529 -0.00640325248 0.00301728421
  endloop
 endfacet

 facet normal 0 0 -1
  outer loop
  vertex -0.140764058 -0.00578210969 0.00301728421
  vertex -0.136046529 -0.00640325248 0.00301728421
  vertex -0.136109486 -0.00660294015 0.00301728421
  endloop
 endfacet

 facet normal 0 0 -1
  outer loop
  vertex -0.140764058 -0.00578210969 0.00301728421
  vertex -0.136109486 -0.00660294015 0.00301728421
  vertex -0.136189818 -0.00679604802 0.00301728421
  endloop
 endfacet

 facet normal 0 0 -1
  outer loop
  vertex -0.140764058 -0.00578210969 0.00301728421
  vertex -0.136189818 -0.00679604802 0.00301728421
  vertex -0.136286139 -0.00698210951 0.00301728421
  endloop
 endfacet

 facet normal 0 0 -1
  outer loop
  vertex -0.140764058 -0.00578210969 0.00301728421
  vertex -0.136286139 -0.00698210951 0.00301728421
  vertex -0.136398897 -0.00715877395 0.00301728421
  endloop
 endfacet

 facet normal 0 0 -1
  outer loop
  vertex -0.140764058 -0.00578210969 0.00301728421
  vertex -0.136398897 -0.00715877395 0.00301728421
  vertex -0.136526212 -0.00732416101 0.00301728421
  endloop
 endfacet

 facet normal 0 0 -1
  outer loop
  vertex -0.140764058 -0.00578210969 0.00301728421
  vertex -0.136526212 -0.00732416101 0.00301728421
  vertex -0.136668101 -0.00747874146 0.00301728421
  endloop
 endfacet

 facet normal 0 0 -1
  outer loop
  vertex -0.140764058 -0.00578210969 0.00301728421
  vertex -0.136668101 -0.00747874146 0.00301728421
  vertex -0.136822209 -0.00762016652 0.00301728421
  endloop
 endfacet

 facet normal 0 0 -1
  outer loop
  vertex -0.140764058 -0.00578210969 0.00301728421
  vertex -0.136822209 -0.00762016652 0.00301728421
  vertex -0.136988521 -0.00774749694 0.00301728421
  endloop
 endfacet

 facet normal 0 0 -1
  outer loop
  vertex -0.140764058 -0.00578210969 0.00301728421
  vertex -0.136988521 -0.00774749694 0.00301728421
  vertex -0.137164712 -0.00785979163 0.00301728421
  endloop
 endfacet

 facet normal 0 0 -1
  outer loop
  vertex -0.140764058 -0.00578210969 0.00301728421
  vertex -0.137164712 -0.00785979163 0.00301728421
  vertex -0.137350291 -0.00795658026 0.00301728421
  endloop
 endfacet

 facet normal 0 0 -1
  outer loop
  vertex -0.140764058 -0.00578210969 0.00301728421
  vertex -0.137350291 -0.00795658026 0.00301728421
  vertex -0.137543857 -0.00803692546 0.00301728421
  endloop
 endfacet

 facet normal 0 0 -1
  outer loop
  vertex -0.140764058 -0.00578210969 0.00301728421
  vertex -0.137543857 -0.00803692546 0.00301728421
  vertex -0.137743548 -0.00809988473 0.00301728421
  endloop
 endfacet

 facet normal 0 0 -1
  outer loop
  vertex -0.140764058 -0.00578210969 0.00301728421
  vertex -0.137743548 -0.00809988473 0.00301728421
  vertex -0.137948379 -0.00814499147 0.00301728421
  endloop
 endfacet

 facet normal 0 0 -1
  outer loop
  vertex -0.140764058 -0.00578210969 0.00301728421
  vertex -0.137948379 -0.00814499147 0.00301728421
  vertex -0.138155103 -0.00817271229 0.00301728421
  endloop
 endfacet

 facet normal 0 0 -1
  outer loop
  vertex -0.140764058 -0.00578210969 0.00301728421
  vertex -0.138155103 -0.00817271229 0.00301728421
  vertex -0.138364181 -0.00818210933 0.00301728421
  endloop
 endfacet

 facet normal 0 0 -1
  outer loop
  vertex -0.140764058 -0.00578210969 0.00301728421
  vertex -0.138364181 -0.00818210933 0.00301728421
  vertex -0.138572782 -0.00817271229 0.00301728421
  endloop
 endfacet

 facet normal 0 0 -1
  outer loop
  vertex -0.140764058 -0.00578210969 0.00301728421
  vertex -0.138572782 -0.00817271229 0.00301728421
  vertex -0.138780922 -0.00814546086 0.00301728421
  endloop
 endfacet

 facet normal 0 0 -1
  outer loop
  vertex -0.140764058 -0.00578210969 0.00301728421
  vertex -0.138780922 -0.00814546086 0.00301728421
  vertex -0.138985291 -0.00809988473 0.00301728421
  endloop
 endfacet

 facet normal 0 0 -1
  outer loop
  vertex -0.140764058 -0.00578210969 0.00301728421
  vertex -0.138985291 -0.00809988473 0.00301728421
  vertex -0.139184505 -0.00803692546 0.00301728421
  endloop
 endfacet

 facet normal 0 0 -1
  outer loop
  vertex -0.140764058 -0.00578210969 0.00301728421
  vertex -0.139184505 -0.00803692546 0.00301728421
  vertex -0.139378533 -0.00795705058 0.00301728421
  endloop
 endfacet

 facet normal 0 0 -1
  outer loop
  vertex -0.140764058 -0.00578210969 0.00301728421
  vertex -0.139378533 -0.00795705058 0.00301728421
  vertex -0.13956365 -0.00786026102 0.00301728421
  endloop
 endfacet

 facet normal 0 0 -1
  outer loop
  vertex -0.140764058 -0.00578210969 0.00301728421
  vertex -0.13956365 -0.00786026102 0.00301728421
  vertex -0.139740303 -0.00774749694 0.00301728421
  endloop
 endfacet

 facet normal 0 0 -1
  outer loop
  vertex -0.140764058 -0.00578210969 0.00301728421
  vertex -0.139740303 -0.00774749694 0.00301728421
  vertex -0.13990663 -0.00762016652 0.00301728421
  endloop
 endfacet

 facet normal 0 0 -1
  outer loop
  vertex -0.140764058 -0.00578210969 0.00301728421
  vertex -0.13990663 -0.00762016652 0.00301728421
  vertex -0.140060723 -0.00747874146 0.00301728421
  endloop
 endfacet

 facet normal 0 0 -1
  outer loop
  vertex -0.140764058 -0.00578210969 0.00301728421
  vertex -0.140060723 -0.00747874146 0.00301728421
  vertex -0.14020215 -0.00732416101 0.00301728421
  endloop
 endfacet

 facet normal 0 0 -1
  outer loop
  vertex -0.140764058 -0.00578210969 0.00301728421
  vertex -0.14020215 -0.00732416101 0.00301728421
  vertex -0.140329465 -0.00715877395 0.00301728421
  endloop
 endfacet

 facet normal 0 0 -1
  outer loop
  vertex -0.140764058 -0.00578210969 0.00301728421
  vertex -0.140329465 -0.00715877395 0.00301728421
  vertex -0.14044176 -0.00698210951 0.00301728421
  endloop
 endfacet

 facet normal 0 0 -1
  outer loop
  vertex -0.140764058 -0.00578210969 0.00301728421
  vertex -0.14044176 -0.00698210951 0.00301728421
  vertex -0.140538543 -0.00679651741 0.00301728421
  endloop
 endfacet

 facet normal 0 0 -1
  outer loop
  vertex -0.140764058 -0.00578210969 0.00301728421
  vertex -0.140538543 -0.00679651741 0.00301728421
  vertex -0.140618891 -0.00660294015 0.00301728421
  endloop
 endfacet

 facet normal 0 0 -1
  outer loop
  vertex -0.140764058 -0.00578210969 0.00301728421
  vertex -0.140618891 -0.00660294015 0.00301728421
  vertex -0.140681848 -0.00640325248 0.00301728421
  endloop
 endfacet

 facet normal 0 0 -1
  outer loop
  vertex -0.140764058 -0.00578210969 0.00301728421
  vertex -0.140681848 -0.00640325248 0.00301728421
  vertex -0.140718952 -0.00623739604 0.00301728421
  endloop
 endfacet

 facet normal 0 0 -1
  outer loop
  vertex -0.140764058 -0.00578210969 0.00301728421
  vertex -0.140718952 -0.00623739604 0.00301728421
  vertex -0.140726939 -0.00619839784 0.00301728421
  endloop
 endfacet

 facet normal 0 0 -1
  outer loop
  vertex -0.140764058 -0.00578210969 0.00301728421
  vertex -0.140726939 -0.00619839784 0.00301728421
  vertex -0.14075467 -0.00599072315 0.00301728421
  endloop
 endfacet

 facet normal -0.998987257 -0.0449966379 0
  outer loop
  vertex -0.140764058 -0.00578210969 0.00301728421
  vertex -0.14075467 -0.00599072315 0.00301728421
  vertex -0.14075467 -0.00599072315 0.00599970948
  endloop
 endfacet

 facet normal -0.998987257 -0.0449966379 0
  outer loop
  vertex -0.140764058 -0.00578210969 0.00301728421
  vertex -0.14075467 -0.00599072315 0.00599970948
  vertex -0.140764058 -0.00578210969 0.00599970948
  endloop
 endfacet

 facet normal 0 0 1
  outer loop
  vertex -0.140764058 -0.00578210969 0.00599970948
  vertex -0.14075467 -0.00599072315 0.00599970948
  vertex -0.140726939 -0.00619839784 0.00599970948
  endloop
 endfacet

 facet normal 0 0 1
  outer loop
  vertex -0.140764058 -0.00578210969 0.00599970948
  vertex -0.140726939 -0.00619839784 0.00599970948
  vertex -0.140718952 -0.00623739604 0.00599970948
  endloop
 endfacet

 facet normal 0 0 1
  outer loop
  vertex -0.140764058 -0.00578210969 0.00599970948
  vertex -0.140718952 -0.00623739604 0.00599970948
  vertex -0.140681848 -0.00640325248 0.00599970948
  endloop
 endfacet

 facet normal 0 0 1
  outer loop
  vertex -0.140764058 -0.00578210969 0.00599970948
  vertex -0.140681848 -0.00640325248 0.00599970948
  vertex -0.140618891 -0.00660294015 0.00599970948
  endloop
 endfacet

 facet normal 0 0 1
  outer loop
  vertex -0.140764058 -0.00578210969 0.00599970948
  vertex -0.140618891 -0.00660294015 0.00599970948
  vertex -0.140538543 -0.00679651741 0.00599970948
  endloop
 endfacet

 facet normal 0 0 1
  outer loop
  vertex -0.140764058 -0.00578210969 0.00599970948
  vertex -0.140538543 -0.00679651741 0.00599970948
  vertex -0.14044176 -0.00698210951 0.00599970948
  endloop
 endfacet

 facet normal 0 0 1
  outer loop
  vertex -0.140764058 -0.00578210969 0.00599970948
  vertex -0.14044176 -0.00698210951 0.00599970948
  vertex -0.140329465 -0.00715877395 0.00599970948
  endloop
 endfacet

 facet normal 0 0 1
  outer loop
  vertex -0.140764058 -0.00578210969 0.00599970948
  vertex -0.140329465 -0.00715877395 0.00599970948
  vertex -0.14020215 -0.00732416101 0.00599970948
  endloop
 endfacet

 facet normal 0 0 1
  outer loop
  vertex -0.140764058 -0.00578210969 0.00599970948
  vertex -0.14020215 -0.00732416101 0.00599970948
  vertex -0.140060723 -0.00747874146 0.00599970948
  endloop
 endfacet

 facet normal 0 0 1
  outer loop
  vertex -0.140764058 -0.00578210969 0.00599970948
  vertex -0.140060723 -0.00747874146 0.00599970948
  vertex -0.13990663 -0.00762016652 0.00599970948
  endloop
 endfacet

 facet normal 0 0 1
  outer loop
  vertex -0.140764058 -0.00578210969 0.00599970948
  vertex -0.13990663 -0.00762016652 0.00599970948
  vertex -0.139740303 -0.00774749694 0.00599970948
  endloop
 endfacet

 facet normal 0 0 1
  outer loop
  vertex -0.140764058 -0.00578210969 0.00599970948
  vertex -0.139740303 -0.00774749694 0.00599970948
  vertex -0.13956365 -0.00786026102 0.00599970948
  endloop
 endfacet

 facet normal 0 0 1
  outer loop
  vertex -0.140764058 -0.00578210969 0.00599970948
  vertex -0.13956365 -0.00786026102 0.00599970948
  vertex -0.139378533 -0.00795705058 0.00599970948
  endloop
 endfacet

 facet normal 0 0 1
  outer loop
  vertex -0.140764058 -0.00578210969 0.00599970948
  vertex -0.139378533 -0.00795705058 0.00599970948
  vertex -0.139184505 -0.00803692546 0.00599970948
  endloop
 endfacet

 facet normal 0 0 1
  outer loop
  vertex -0.140764058 -0.00578210969 0.00599970948
  vertex -0.139184505 -0.00803692546 0.00599970948
  vertex -0.138985291 -0.00809988473 0.00599970948
  endloop
 endfacet

 facet normal 0 0 1
  outer loop
  vertex -0.140764058 -0.00578210969 0.00599970948
  vertex -0.138985291 -0.00809988473 0.00599970948
  vertex -0.138780922 -0.00814546086 0.00599970948
  endloop
 endfacet

 facet normal 0 0 1
  outer loop
  vertex -0.140764058 -0.00578210969 0.00599970948
  vertex -0.138780922 -0.00814546086 0.00599970948
  vertex -0.138572782 -0.00817271229 0.00599970948
  endloop
 endfacet

 facet normal 0 0 1
  outer loop
  vertex -0.140764058 -0.00578210969 0.00599970948
  vertex -0.138572782 -0.00817271229 0.00599970948
  vertex -0.138364181 -0.00818210933 0.00599970948
  endloop
 endfacet

 facet normal 0 0 1
  outer loop
  vertex -0.140764058 -0.00578210969 0.00599970948
  vertex -0.138364181 -0.00818210933 0.00599970948
  vertex -0.138155103 -0.00817271229 0.00599970948
  endloop
 endfacet

 facet normal 0 0 1
  outer loop
  vertex -0.140764058 -0.00578210969 0.00599970948
  vertex -0.138155103 -0.00817271229 0.00599970948
  vertex -0.137948379 -0.00814499147 0.00599970948
  endloop
 endfacet

 facet normal 0 0 1
  outer loop
  vertex -0.140764058 -0.00578210969 0.00599970948
  vertex -0.137948379 -0.00814499147 0.00599970948
  vertex -0.137743548 -0.00809988473 0.00599970948
  endloop
 endfacet

 facet normal 0 0 1
  outer loop
  vertex -0.140764058 -0.00578210969 0.00599970948
  vertex -0.137743548 -0.00809988473 0.00599970948
  vertex -0.137543857 -0.00803692546 0.00599970948
  endloop
 endfacet

 facet normal 0 0 1
  outer loop
  vertex -0.140764058 -0.00578210969 0.00599970948
  vertex -0.137543857 -0.00803692546 0.00599970948
  vertex -0.137350291 -0.00795658026 0.00599970948
  endloop
 endfacet

 facet normal 0 0 1
  outer loop
  vertex -0.140764058 -0.00578210969 0.00599970948
  vertex -0.137350291 -0.00795658026 0.00599970948
  vertex -0.137164712 -0.00785979163 0.00599970948
  endloop
 endfacet

 facet normal 0 0 1
  outer loop
  vertex -0.140764058 -0.00578210969 0.00599970948
  vertex -0.137164712 -0.00785979163 0.00599970948
  vertex -0.136988521 -0.00774749694 0.00599970948
  endloop
 endfacet

 facet normal 0 0 1
  outer loop
  vertex -0.140764058 -0.00578210969 0.00599970948
  vertex -0.136988521 -0.00774749694 0.00599970948
  vertex -0.136822209 -0.00762016652 0.00599970948
  endloop
 endfacet

 facet normal 0 0 1
  outer loop
  vertex -0.140764058 -0.00578210969 0.00599970948
  vertex -0.136822209 -0.00762016652 0.00599970948
  vertex -0.136668101 -0.00747874146 0.00599970948
  endloop
 endfacet

 facet normal 0 0 1
  outer loop
  vertex -0.140764058 -0.00578210969 0.00599970948
  vertex -0.136668101 -0.00747874146 0.00599970948
  vertex -0.136526212 -0.00732416101 0.00599970948
  endloop
 endfacet

 facet normal 0 0 1
  outer loop
  vertex -0.140764058 -0.00578210969 0.00599970948
  vertex -0.136526212 -0.00732416101 0.00599970948
  vertex -0.136398897 -0.00715877395 0.00599970948
  endloop
 endfacet

 facet normal 0 0 1
  outer loop
  vertex -0.140764058 -0.00578210969 0.00599970948
  vertex -0.136398897 -0.00715877395 0.00599970948
  vertex -0.136286139 -0.00698210951 0.00599970948
  endloop
 endfacet

 facet normal 0 0 1
  outer loop
  vertex -0.140764058 -0.00578210969 0.00599970948
  vertex -0.136286139 -0.00698210951 0.00599970948
  vertex -0.136189818 -0.00679604802 0.00599970948
  endloop
 endfacet

 facet normal 0 0 1
  outer loop
  vertex -0.140764058 -0.00578210969 0.00599970948
  vertex -0.136189818 -0.00679604802 0.00599970948
  vertex -0.136109486 -0.00660294015 0.00599970948
  endloop
 endfacet

 facet normal 0 0 1
  outer loop
  vertex -0.140764058 -0.00578210969 0.00599970948
  vertex -0.136109486 -0.00660294015 0.00599970948
  vertex -0.136046529 -0.00640325248 0.00599970948
  endloop
 endfacet

 facet normal 0 0 1
  outer loop
  vertex -0.140764058 -0.00578210969 0.00599970948
  vertex -0.136046529 -0.00640325248 0.00599970948
  vertex -0.13600941 -0.00623739604 0.00599970948
  endloop
 endfacet

 facet normal 0 0 1
  outer loop
  vertex -0.140764058 -0.00578210969 0.00599970948
  vertex -0.13600941 -0.00623739604 0.00599970948
  vertex -0.136000946 -0.00619839784 0.00599970948
  endloop
 endfacet

 facet normal 0 0 1
  outer loop
  vertex -0.140764058 -0.00578210969 0.00599970948
  vertex -0.136000946 -0.00619839784 0.00599970948
  vertex -0.135973707 -0.00599072315 0.00599970948
  endloop
 endfacet

 facet normal 0 0 1
  outer loop
  vertex -0.140764058 -0.00578210969 0.00599970948
  vertex -0.135973707 -0.00599072315 0.00599970948
  vertex -0.135964304 -0.00578210969 0.00599970948
  endloop
 endfacet

 facet normal 0 0 1
  outer loop
  vertex -0.140764058 -0.00578210969 0.00599970948
  vertex -0.135964304 -0.00578210969 0.00599970948
  vertex -0.135973707 -0.00557255605 0.00599970948
  endloop
 endfacet

 facet normal 0 0 1
  outer loop
  vertex -0.140764058 -0.00578210969 0.00599970948
  vertex -0.135973707 -0.00557255605 0.00599970948
  vertex -0.136000946 -0.00536535215 0.00599970948
  endloop
 endfacet

 facet normal 0 0 1
  outer loop
  vertex -0.140764058 -0.00578210969 0.00599970948
  vertex -0.136000946 -0.00536535215 0.00599970948
  vertex -0.136046529 -0.00516096689 0.00599970948
  endloop
 endfacet

 facet normal 0 0 1
  outer loop
  vertex -0.140764058 -0.00578210969 0.00599970948
  vertex -0.136046529 -0.00516096689 0.00599970948
  vertex -0.136109486 -0.00496127922 0.00599970948
  endloop
 endfacet

 facet normal 0 0 1
  outer loop
  vertex -0.140764058 -0.00578210969 0.00599970948
  vertex -0.136109486 -0.00496127922 0.00599970948
  vertex -0.136189356 -0.00476817135 0.00599970948
  endloop
 endfacet

 facet normal 0 0 1
  outer loop
  vertex -0.140764058 -0.00578210969 0.00599970948
  vertex -0.136189356 -0.00476817135 0.00599970948
  vertex -0.136286139 -0.00458258018 0.00599970948
  endloop
 endfacet

 facet normal 0 0 1
  outer loop
  vertex -0.140764058 -0.00578210969 0.00599970948
  vertex -0.136286139 -0.00458258018 0.00599970948
  vertex -0.13639842 -0.00440591574 0.00599970948
  endloop
 endfacet

 facet normal 0 0 1
  outer loop
  vertex -0.140764058 -0.00578210969 0.00599970948
  vertex -0.13639842 -0.00440591574 0.00599970948
  vertex -0.136526212 -0.00424005836 0.00599970948
  endloop
 endfacet

 facet normal 0 0 1
  outer loop
  vertex -0.140764058 -0.00578210969 0.00599970948
  vertex -0.136526212 -0.00424005836 0.00599970948
  vertex -0.136667639 -0.00408547744 0.00599970948
  endloop
 endfacet

 facet normal 0 0 1
  outer loop
  vertex -0.140764058 -0.00578210969 0.00599970948
  vertex -0.136667639 -0.00408547744 0.00599970948
  vertex -0.136822209 -0.00394405238 0.00599970948
  endloop
 endfacet

 facet normal 0 0 1
  outer loop
  vertex -0.140764058 -0.00578210969 0.00599970948
  vertex -0.136822209 -0.00394405238 0.00599970948
  vertex -0.136988059 -0.00381672243 0.00599970948
  endloop
 endfacet

 facet normal 0 0 1
  outer loop
  vertex -0.140764058 -0.00578210969 0.00599970948
  vertex -0.136988059 -0.00381672243 0.00599970948
  vertex -0.137164712 -0.00370442821 0.00599970948
  endloop
 endfacet

 facet normal 0 0 1
  outer loop
  vertex -0.140764058 -0.00578210969 0.00599970948
  vertex -0.137164712 -0.00370442821 0.00599970948
  vertex -0.137349829 -0.00360763888 0.00599970948
  endloop
 endfacet

 facet normal 0 0 1
  outer loop
  vertex -0.140764058 -0.00578210969 0.00599970948
  vertex -0.137349829 -0.00360763888 0.00599970948
  vertex -0.137543395 -0.00352729415 0.00599970948
  endloop
 endfacet

 facet normal 0 0 1
  outer loop
  vertex -0.140764058 -0.00578210969 0.00599970948
  vertex -0.137543395 -0.00352729415 0.00599970948
  vertex -0.137743071 -0.00346433441 0.00599970948
  endloop
 endfacet

 facet normal 0 0 1
  outer loop
  vertex -0.140764058 -0.00578210969 0.00599970948
  vertex -0.137743071 -0.00346433441 0.00599970948
  vertex -0.13794744 -0.0034192286 0.00599970948
  endloop
 endfacet

 facet normal 0 0 1
  outer loop
  vertex -0.140764058 -0.00578210969 0.00599970948
  vertex -0.13794744 -0.0034192286 0.00599970948
  vertex -0.138155103 -0.0033919774 0.00599970948
  endloop
 endfacet

 facet normal 0 0 1
  outer loop
  vertex -0.140764058 -0.00578210969 0.00599970948
  vertex -0.138155103 -0.0033919774 0.00599970948
  vertex -0.138364181 -0.0033821105 0.00599970948
  endloop
 endfacet

 facet normal 0 0 1
  outer loop
  vertex -0.140764058 -0.00578210969 0.00599970948
  vertex -0.138364181 -0.0033821105 0.00599970948
  vertex -0.138572782 -0.0033919774 0.00599970948
  endloop
 endfacet

 facet normal 0 0 1
  outer loop
  vertex -0.140764058 -0.00578210969 0.00599970948
  vertex -0.138572782 -0.0033919774 0.00599970948
  vertex -0.138780445 -0.0034192286 0.00599970948
  endloop
 endfacet

 facet normal 0 0 1
  outer loop
  vertex -0.140764058 -0.00578210969 0.00599970948
  vertex -0.138780445 -0.0034192286 0.00599970948
  vertex -0.138984829 -0.00346433441 0.00599970948
  endloop
 endfacet

 facet normal 0 0 1
  outer loop
  vertex -0.140764058 -0.00578210969 0.00599970948
  vertex -0.138984829 -0.00346433441 0.00599970948
  vertex -0.139184505 -0.00352729415 0.00599970948
  endloop
 endfacet

 facet normal 0 0 1
  outer loop
  vertex -0.140764058 -0.00578210969 0.00599970948
  vertex -0.139184505 -0.00352729415 0.00599970948
  vertex -0.139378071 -0.00360763888 0.00599970948
  endloop
 endfacet

 facet normal 0 0 1
  outer loop
  vertex -0.140764058 -0.00578210969 0.00599970948
  vertex -0.139378071 -0.00360763888 0.00599970948
  vertex -0.13956365 -0.00370442821 0.00599970948
  endloop
 endfacet

 facet normal 0 0 1
  outer loop
  vertex -0.140764058 -0.00578210969 0.00599970948
  vertex -0.13956365 -0.00370442821 0.00599970948
  vertex -0.139739841 -0.00381672243 0.00599970948
  endloop
 endfacet

 facet normal 0 0 1
  outer loop
  vertex -0.140764058 -0.00578210969 0.00599970948
  vertex -0.139739841 -0.00381672243 0.00599970948
  vertex -0.139906153 -0.00394405238 0.00599970948
  endloop
 endfacet

 facet normal 0 0 1
  outer loop
  vertex -0.140764058 -0.00578210969 0.00599970948
  vertex -0.139906153 -0.00394405238 0.00599970948
  vertex -0.1400612 -0.00408547744 0.00599970948
  endloop
 endfacet

 facet normal 0 0 1
  outer loop
  vertex -0.140764058 -0.00578210969 0.00599970948
  vertex -0.1400612 -0.00408547744 0.00599970948
  vertex -0.140202612 -0.00424005836 0.00599970948
  endloop
 endfacet

 facet normal 0 0 1
  outer loop
  vertex -0.140764058 -0.00578210969 0.00599970948
  vertex -0.140202612 -0.00424005836 0.00599970948
  vertex -0.140329942 -0.00440591574 0.00599970948
  endloop
 endfacet

 facet normal 0 0 1
  outer loop
  vertex -0.140764058 -0.00578210969 0.00599970948
  vertex -0.140329942 -0.00440591574 0.00599970948
  vertex -0.14044176 -0.00458258018 0.00599970948
  endloop
 endfacet

 facet normal 0 0 1
  outer loop
  vertex -0.140764058 -0.00578210969 0.00599970948
  vertex -0.14044176 -0.00458258018 0.00599970948
  vertex -0.14053902 -0.00476817135 0.00599970948
  endloop
 endfacet

 facet normal 0 0 1
  outer loop
  vertex -0.140764058 -0.00578210969 0.00599970948
  vertex -0.14053902 -0.00476817135 0.00599970948
  vertex -0.140619352 -0.00496127922 0.00599970948
  endloop
 endfacet

 facet normal 0 0 1
  outer loop
  vertex -0.140764058 -0.00578210969 0.00599970948
  vertex -0.140619352 -0.00496127922 0.00599970948
  vertex -0.140681371 -0.00516096689 0.00599970948
  endloop
 endfacet

 facet normal 0 0 1
  outer loop
  vertex -0.140764058 -0.00578210969 0.00599970948
  vertex -0.140681371 -0.00516096689 0.00599970948
  vertex -0.140726939 -0.00536535215 0.00599970948
  endloop
 endfacet

 facet normal 0 0 1
  outer loop
  vertex -0.140764058 -0.00578210969 0.00599970948
  vertex -0.140726939 -0.00536535215 0.00599970948
  vertex -0.14075467 -0.00557255605 0.00599970948
  endloop
 endfacet

 facet normal -0.991169751 0.132599801 0
  outer loop
  vertex -0.14075467 -0.00557255605 0.00301728421
  vertex -0.14075467 -0.00557255605 0.00599970948
  vertex -0.140726939 -0.00536535215 0.00599970948
  endloop
 endfacet

 facet normal -0.991169751 0.132599801 0
  outer loop
  vertex -0.14075467 -0.00557255605 0.00301728421
  vertex -0.140726939 -0.00536535215 0.00599970948
  vertex -0.140726939 -0.00536535215 0.00301728421
  endloop
 endfacet

 facet normal -0.991209149 -0.1323044 0
  outer loop
  vertex -0.14075467 -0.00599072315 0.00301728421
  vertex -0.140726939 -0.00619839784 0.00301728421
  vertex -0.140726939 -0.00619839784 0.00599970948
  endloop
 endfacet

 facet normal -0.991209149 -0.1323044 0
  outer loop
  vertex -0.14075467 -0.00599072315 0.00301728421
  vertex -0.140726939 -0.00619839784 0.00599970948
  vertex -0.14075467 -0.00599072315 0.00599970948
  endloop
 endfacet

 facet normal -0.976030767 0.217632681 0
  outer loop
  vertex -0.140726939 -0.00536535215 0.00301728421
  vertex -0.140726939 -0.00536535215 0.00599970948
  vertex -0.140681371 -0.00516096689 0.00599970948
  endloop
 endfacet

 facet normal -0.976030767 0.217632681 0
  outer loop
  vertex -0.140726939 -0.00536535215 0.00301728421
  vertex -0.140681371 -0.00516096689 0.00599970948
  vertex -0.140681371 -0.00516096689 0.00301728421
  endloop
 endfacet

 facet normal -0.979664803 -0.200641274 0
  outer loop
  vertex -0.140726939 -0.00619839784 0.00301728421
  vertex -0.140718952 -0.00623739604 0.00301728421
  vertex -0.140718952 -0.00623739604 0.00599970948
  endloop
 endfacet

 facet normal -0.979664803 -0.200641274 0
  outer loop
  vertex -0.140726939 -0.00619839784 0.00301728421
  vertex -0.140718952 -0.00623739604 0.00599970948
  vertex -0.140726939 -0.00619839784 0.00599970948
  endloop
 endfacet

 facet normal -0.955003023 0.296595871 0
  outer loop
  vertex -0.140681371 -0.00516096689 0.00301728421
  vertex -0.140681371 -0.00516096689 0.00599970948
  vertex -0.140619352 -0.00496127922 0.00599970948
  endloop
 endfacet

 facet normal -0.955003023 0.296595871 0
  outer loop
  vertex -0.140681371 -0.00516096689 0.00301728421
  vertex -0.140619352 -0.00496127922 0.00599970948
  vertex -0.140619352 -0.00496127922 0.00301728421
  endloop
 endfacet

 facet normal -0.975862861 -0.218384355 0
  outer loop
  vertex -0.140718952 -0.00623739604 0.00301728421
  vertex -0.140681848 -0.00640325248 0.00301728421
  vertex -0.140681848 -0.00640325248 0.00599970948
  endloop
 endfacet

 facet normal -0.975862861 -0.218384355 0
  outer loop
  vertex -0.140718952 -0.00623739604 0.00301728421
  vertex -0.140681848 -0.00640325248 0.00599970948
  vertex -0.140718952 -0.00623739604 0.00599970948
  endloop
 endfacet

 facet normal -0.923282146 0.384122461 0
  outer loop
  vertex -0.140619352 -0.00496127922 0.00301728421
  vertex -0.140619352 -0.00496127922 0.00599970948
  vertex -0.14053902 -0.00476817135 0.00599970948
  endloop
 endfacet

 facet normal -0.923282146 0.384122461 0
  outer loop
  vertex -0.140619352 -0.00496127922 0.00301728421
  vertex -0.14053902 -0.00476817135 0.00599970948
  vertex -0.14053902 -0.00476817135 0.00301728421
  endloop
 endfacet

 facet normal -0.953723133 -0.30068633 0
  outer loop
  vertex -0.140681848 -0.00640325248 0.00301728421
  vertex -0.140618891 -0.00660294015 0.00301728421
  vertex -0.140618891 -0.00660294015 0.00599970948
  endloop
 endfacet

 facet normal -0.953723133 -0.30068633 0
  outer loop
  vertex -0.140681848 -0.00640325248 0.00301728421
  vertex -0.140618891 -0.00660294015 0.00599970948
  vertex -0.140681848 -0.00640325248 0.00599970948
  endloop
 endfacet

 facet normal -0.885753274 0.464156359 0
  outer loop
  vertex -0.14053902 -0.00476817135 0.00301728421
  vertex -0.14053902 -0.00476817135 0.00599970948
  vertex -0.14044176 -0.00458258018 0.00599970948
  endloop
 endfacet

 facet normal -0.885753274 0.464156359 0
  outer loop
  vertex -0.14053902 -0.00476817135 0.00301728421
  vertex -0.14044176 -0.00458258018 0.00599970948
  vertex -0.14044176 -0.00458258018 0.00301728421
  endloop
 endfacet

 facet normal -0.923612356 -0.383327842 0
  outer loop
  vertex -0.140618891 -0.00660294015 0.00301728421
  vertex -0.140538543 -0.00679651741 0.00301728421
  vertex -0.140538543 -0.00679651741 0.00599970948
  endloop
 endfacet

 facet normal -0.923612356 -0.383327842 0
  outer loop
  vertex -0.140618891 -0.00660294015 0.00301728421
  vertex -0.140538543 -0.00679651741 0.00599970948
  vertex -0.140618891 -0.00660294015 0.00599970948
  endloop
 endfacet

 facet normal -0.844967365 0.534817874 0
  outer loop
  vertex -0.14044176 -0.00458258018 0.00301728421
  vertex -0.14044176 -0.00458258018 0.00599970948
  vertex -0.140329942 -0.00440591574 0.00599970948
  endloop
 endfacet

 facet normal -0.844967365 0.534817874 0
  outer loop
  vertex -0.14044176 -0.00458258018 0.00301728421
  vertex -0.140329942 -0.00440591574 0.00599970948
  vertex -0.140329942 -0.00440591574 0.00301728421
  endloop
 endfacet

 facet normal -0.88667506 -0.462393045 0
  outer loop
  vertex -0.140538543 -0.00679651741 0.00301728421
  vertex -0.14044176 -0.00698210951 0.00301728421
  vertex -0.14044176 -0.00698210951 0.00599970948
  endloop
 endfacet

 facet normal -0.88667506 -0.462393045 0
  outer loop
  vertex -0.140538543 -0.00679651741 0.00301728421
  vertex -0.14044176 -0.00698210951 0.00599970948
  vertex -0.140538543 -0.00679651741 0.00599970948
  endloop
 endfacet

 facet normal -0.793223262 0.608931005 0
  outer loop
  vertex -0.140329942 -0.00440591574 0.00301728421
  vertex -0.140329942 -0.00440591574 0.00599970948
  vertex -0.140202612 -0.00424005836 0.00599970948
  endloop
 endfacet

 facet normal -0.793223262 0.608931005 0
  outer loop
  vertex -0.140329942 -0.00440591574 0.00301728421
  vertex -0.140202612 -0.00424005836 0.00599970948
  vertex -0.140202612 -0.00424005836 0.00301728421
  endloop
 endfacet

 facet normal -0.843951941 -0.536418796 0
  outer loop
  vertex -0.14044176 -0.00698210951 0.00301728421
  vertex -0.140329465 -0.00715877395 0.00301728421
  vertex -0.140329465 -0.00715877395 0.00599970948
  endloop
 endfacet

 facet normal -0.843951941 -0.536418796 0
  outer loop
  vertex -0.14044176 -0.00698210951 0.00301728421
  vertex -0.140329465 -0.00715877395 0.00599970948
  vertex -0.14044176 -0.00698210951 0.00599970948
  endloop
 endfacet

 facet normal -0.737822235 0.674995124 0
  outer loop
  vertex -0.140202612 -0.00424005836 0.00301728421
  vertex -0.140202612 -0.00424005836 0.00599970948
  vertex -0.1400612 -0.00408547744 0.00599970948
  endloop
 endfacet

 facet normal -0.737822235 0.674995124 0
  outer loop
  vertex -0.140202612 -0.00424005836 0.00301728421
  vertex -0.1400612 -0.00408547744 0.00599970948
  vertex -0.1400612 -0.00408547744 0.00301728421
  endloop
 endfacet

 facet normal -0.79238677 -0.610019088 0
  outer loop
  vertex -0.140329465 -0.00715877395 0.00301728421
  vertex -0.14020215 -0.00732416101 0.00301728421
  vertex -0.14020215 -0.00732416101 0.00599970948
  endloop
 endfacet

 facet normal -0.79238677 -0.610019088 0
  outer loop
  vertex -0.140329465 -0.00715877395 0.00301728421
  vertex -0.14020215 -0.00732416101 0.00599970948
  vertex -0.140329465 -0.00715877395 0.00599970948
  endloop
 endfacet

 facet normal -0.673915803 0.738808155 0
  outer loop
  vertex -0.1400612 -0.00408547744 0.00301728421
  vertex -0.1400612 -0.00408547744 0.00599970948
  vertex -0.139906153 -0.00394405238 0.00599970948
  endloop
 endfacet

 facet normal -0.673915803 0.738808155 0
  outer loop
  vertex -0.1400612 -0.00408547744 0.00301728421
  vertex -0.139906153 -0.00394405238 0.00599970948
  vertex -0.139906153 -0.00394405238 0.00301728421
  endloop
 endfacet

 facet normal -0.737821221 -0.674996257 0
  outer loop
  vertex -0.14020215 -0.00732416101 0.00301728421
  vertex -0.140060723 -0.00747874146 0.00301728421
  vertex -0.140060723 -0.00747874146 0.00599970948
  endloop
 endfacet

 facet normal -0.737821221 -0.674996257 0
  outer loop
  vertex -0.14020215 -0.00732416101 0.00301728421
  vertex -0.140060723 -0.00747874146 0.00599970948
  vertex -0.14020215 -0.00732416101 0.00599970948
  endloop
 endfacet

 facet normal -0.607886255 0.794024169 0
  outer loop
  vertex -0.139906153 -0.00394405238 0.00301728421
  vertex -0.139906153 -0.00394405238 0.00599970948
  vertex -0.139739841 -0.00381672243 0.00599970948
  endloop
 endfacet

 facet normal -0.607886255 0.794024169 0
  outer loop
  vertex -0.139906153 -0.00394405238 0.00301728421
  vertex -0.139739841 -0.00381672243 0.00599970948
  vertex -0.139739841 -0.00381672243 0.00301728421
  endloop
 endfacet

 facet normal -0.67614913 -0.736764789 0
  outer loop
  vertex -0.140060723 -0.00747874146 0.00301728421
  vertex -0.13990663 -0.00762016652 0.00301728421
  vertex -0.13990663 -0.00762016652 0.00599970948
  endloop
 endfacet

 facet normal -0.67614913 -0.736764789 0
  outer loop
  vertex -0.140060723 -0.00747874146 0.00301728421
  vertex -0.13990663 -0.00762016652 0.00599970948
  vertex -0.140060723 -0.00747874146 0.00599970948
  endloop
 endfacet

 facet normal -0.53747642 0.843278825 0
  outer loop
  vertex -0.139739841 -0.00381672243 0.00301728421
  vertex -0.139739841 -0.00381672243 0.00599970948
  vertex -0.13956365 -0.00370442821 0.00599970948
  endloop
 endfacet

 facet normal -0.53747642 0.843278825 0
  outer loop
  vertex -0.139739841 -0.00381672243 0.00301728421
  vertex -0.13956365 -0.00370442821 0.00599970948
  vertex -0.13956365 -0.00370442821 0.00301728421
  endloop
 endfacet

 facet normal -0.607888341 -0.79402256 0
  outer loop
  vertex -0.13990663 -0.00762016652 0.00301728421
  vertex -0.139740303 -0.00774749694 0.00301728421
  vertex -0.139740303 -0.00774749694 0.00599970948
  endloop
 endfacet

 facet normal -0.607888341 -0.79402256 0
  outer loop
  vertex -0.13990663 -0.00762016652 0.00301728421
  vertex -0.139740303 -0.00774749694 0.00599970948
  vertex -0.13990663 -0.00762016652 0.00599970948
  endloop
 endfacet

 facet normal -0.462431043 0.886655271 0
  outer loop
  vertex -0.13956365 -0.00370442821 0.00301728421
  vertex -0.13956365 -0.00370442821 0.00599970948
  vertex -0.139378071 -0.00360763888 0.00599970948
  endloop
 endfacet

 facet normal -0.462431043 0.886655271 0
  outer loop
  vertex -0.13956365 -0.00370442821 0.00301728421
  vertex -0.139378071 -0.00360763888 0.00599970948
  vertex -0.139378071 -0.00360763888 0.00301728421
  endloop
 endfacet

 facet normal -0.538053215 -0.842910945 0
  outer loop
  vertex -0.139740303 -0.00774749694 0.00301728421
  vertex -0.13956365 -0.00786026102 0.00301728421
  vertex -0.13956365 -0.00786026102 0.00599970948
  endloop
 endfacet

 facet normal -0.538053215 -0.842910945 0
  outer loop
  vertex -0.139740303 -0.00774749694 0.00301728421
  vertex -0.13956365 -0.00786026102 0.00599970948
  vertex -0.139740303 -0.00774749694 0.00599970948
  endloop
 endfacet

 facet normal -0.383358657 0.923599601 0
  outer loop
  vertex -0.139378071 -0.00360763888 0.00301728421
  vertex -0.139378071 -0.00360763888 0.00599970948
  vertex -0.139184505 -0.00352729415 0.00599970948
  endloop
 endfacet

 facet normal -0.383358657 0.923599601 0
  outer loop
  vertex -0.139378071 -0.00360763888 0.00301728421
  vertex -0.139184505 -0.00352729415 0.00599970948
  vertex -0.139184505 -0.00352729415 0.00301728421
  endloop
 endfacet

 facet normal -0.463355541 -0.886172473 0
  outer loop
  vertex -0.13956365 -0.00786026102 0.00301728421
  vertex -0.139378533 -0.00795705058 0.00301728421
  vertex -0.139378533 -0.00795705058 0.00599970948
  endloop
 endfacet

 facet normal -0.463355541 -0.886172473 0
  outer loop
  vertex -0.13956365 -0.00786026102 0.00301728421
  vertex -0.139378533 -0.00795705058 0.00599970948
  vertex -0.13956365 -0.00786026102 0.00599970948
  endloop
 endfacet

 facet normal -0.300713837 0.95371449 0
  outer loop
  vertex -0.139184505 -0.00352729415 0.00301728421
  vertex -0.139184505 -0.00352729415 0.00599970948
  vertex -0.138984829 -0.00346433441 0.00599970948
  endloop
 endfacet

 facet normal -0.300713837 0.95371449 0
  outer loop
  vertex -0.139184505 -0.00352729415 0.00301728421
  vertex -0.138984829 -0.00346433441 0.00599970948
  vertex -0.138984829 -0.00346433441 0.00301728421
  endloop
 endfacet

 facet normal -0.380652815 -0.924718022 0
  outer loop
  vertex -0.139378533 -0.00795705058 0.00301728421
  vertex -0.139184505 -0.00803692546 0.00301728421
  vertex -0.139184505 -0.00803692546 0.00599970948
  endloop
 endfacet

 facet normal -0.380652815 -0.924718022 0
  outer loop
  vertex -0.139378533 -0.00795705058 0.00301728421
  vertex -0.139184505 -0.00803692546 0.00599970948
  vertex -0.139378533 -0.00795705058 0.00599970948
  endloop
 endfacet

 facet normal -0.215514928 0.976500511 0
  outer loop
  vertex -0.138984829 -0.00346433441 0.00301728421
  vertex -0.138984829 -0.00346433441 0.00599970948
  vertex -0.138780445 -0.0034192286 0.00599970948
  endloop
 endfacet

 facet normal -0.215514928 0.976500511 0
  outer loop
  vertex -0.138984829 -0.00346433441 0.00301728421
  vertex -0.138780445 -0.0034192286 0.00599970948
  vertex -0.138780445 -0.0034192286 0.00301728421
  endloop
 endfacet

 facet normal -0.301355749 -0.953511715 0
  outer loop
  vertex -0.139184505 -0.00803692546 0.00301728421
  vertex -0.138985291 -0.00809988473 0.00301728421
  vertex -0.138985291 -0.00809988473 0.00599970948
  endloop
 endfacet

 facet normal -0.301355749 -0.953511715 0
  outer loop
  vertex -0.139184505 -0.00803692546 0.00301728421
  vertex -0.138985291 -0.00809988473 0.00599970948
  vertex -0.139184505 -0.00803692546 0.00599970948
  endloop
 endfacet

 facet normal -0.13011241 0.991499305 0
  outer loop
  vertex -0.138780445 -0.0034192286 0.00301728421
  vertex -0.138780445 -0.0034192286 0.00599970948
  vertex -0.138572782 -0.0033919774 0.00599970948
  endloop
 endfacet

 facet normal -0.13011241 0.991499305 0
  outer loop
  vertex -0.138780445 -0.0034192286 0.00301728421
  vertex -0.138572782 -0.0033919774 0.00599970948
  vertex -0.138572782 -0.0033919774 0.00301728421
  endloop
 endfacet

 facet normal -0.217658609 -0.976024985 0
  outer loop
  vertex -0.138985291 -0.00809988473 0.00301728421
  vertex -0.138780922 -0.00814546086 0.00301728421
  vertex -0.138780922 -0.00814546086 0.00599970948
  endloop
 endfacet

 facet normal -0.217658609 -0.976024985 0
  outer loop
  vertex -0.138985291 -0.00809988473 0.00301728421
  vertex -0.138780922 -0.00814546086 0.00599970948
  vertex -0.138985291 -0.00809988473 0.00599970948
  endloop
 endfacet

 facet normal -0.047247164 0.998883188 0
  outer loop
  vertex -0.138572782 -0.0033919774 0.00301728421
  vertex -0.138572782 -0.0033919774 0.00599970948
  vertex -0.138364181 -0.0033821105 0.00599970948
  endloop
 endfacet

 facet normal -0.0450036712 0.9989869 -0.000157262679
  outer loop
  vertex -0.138572782 -0.0033919774 0.00301728421
  vertex -0.138364181 -0.0033821105 0.00599970948
  vertex -0.138364181 -0.00338257989 0.00301728421
  endloop
 endfacet

 facet normal -0.129823655 -0.991537094 0
  outer loop
  vertex -0.138780922 -0.00814546086 0.00301728421
  vertex -0.138572782 -0.00817271229 0.00301728421
  vertex -0.138572782 -0.00817271229 0.00599970948
  endloop
 endfacet

 facet normal -0.129823655 -0.991537094 0
  outer loop
  vertex -0.138780922 -0.00814546086 0.00301728421
  vertex -0.138572782 -0.00817271229 0.00599970948
  vertex -0.138780922 -0.00814546086 0.00599970948
  endloop
 endfacet

 facet normal 0.0471412316 0.998888254 0
  outer loop
  vertex -0.138364181 -0.0033821105 0.00599970948
  vertex -0.138155103 -0.0033919774 0.00599970948
  vertex -0.138155103 -0.0033919774 0.00301728421
  endloop
 endfacet

 facet normal 0.0449027382 0.99899137 -0.000157263392
  outer loop
  vertex -0.138364181 -0.0033821105 0.00599970948
  vertex -0.138155103 -0.0033919774 0.00301728421
  vertex -0.138364181 -0.00338257989 0.00301728421
  endloop
 endfacet

 facet normal -0.0450004339 -0.998986959 0
  outer loop
  vertex -0.138572782 -0.00817271229 0.00301728421
  vertex -0.138364181 -0.00818210933 0.00301728421
  vertex -0.138364181 -0.00818210933 0.00599970948
  endloop
 endfacet

 facet normal -0.0450004339 -0.998986959 0
  outer loop
  vertex -0.138572782 -0.00817271229 0.00301728421
  vertex -0.138364181 -0.00818210933 0.00599970948
  vertex -0.138572782 -0.00817271229 0.00599970948
  endloop
 endfacet

 facet normal 0.13011241 0.991499305 0
  outer loop
  vertex -0.138155103 -0.0033919774 0.00599970948
  vertex -0.13794744 -0.0034192286 0.00599970948
  vertex -0.13794744 -0.0034192286 0.00301728421
  endloop
 endfacet

 facet normal 0.13011241 0.991499305 0
  outer loop
  vertex -0.138155103 -0.0033919774 0.00599970948
  vertex -0.13794744 -0.0034192286 0.00301728421
  vertex -0.138155103 -0.0033919774 0.00301728421
  endloop
 endfacet

 facet normal 0.0448995158 -0.998991489 0
  outer loop
  vertex -0.138364181 -0.00818210933 0.00301728421
  vertex -0.138155103 -0.00817271229 0.00301728421
  vertex -0.138155103 -0.00817271229 0.00599970948
  endloop
 endfacet

 facet normal 0.0448995158 -0.998991489 0
  outer loop
  vertex -0.138364181 -0.00818210933 0.00301728421
  vertex -0.138155103 -0.00817271229 0.00599970948
  vertex -0.138364181 -0.00818210933 0.00599970948
  endloop
 endfacet

 facet normal 0.215514928 0.976500511 0
  outer loop
  vertex -0.13794744 -0.0034192286 0.00599970948
  vertex -0.137743071 -0.00346433441 0.00599970948
  vertex -0.137743071 -0.00346433441 0.00301728421
  endloop
 endfacet

 facet normal 0.215514928 0.976500511 0
  outer loop
  vertex -0.13794744 -0.0034192286 0.00599970948
  vertex -0.137743071 -0.00346433441 0.00301728421
  vertex -0.13794744 -0.0034192286 0.00301728421
  endloop
 endfacet

 facet normal 0.13290599 -0.991128743 0
  outer loop
  vertex -0.138155103 -0.00817271229 0.00301728421
  vertex -0.137948379 -0.00814499147 0.00301728421
  vertex -0.137948379 -0.00814499147 0.00599970948
  endloop
 endfacet

 facet normal 0.13290599 -0.991128743 0
  outer loop
  vertex -0.138155103 -0.00817271229 0.00301728421
  vertex -0.137948379 -0.00814499147 0.00599970948
  vertex -0.138155103 -0.00817271229 0.00599970948
  endloop
 endfacet

 facet normal 0.300713837 0.95371449 0
  outer loop
  vertex -0.137743071 -0.00346433441 0.00599970948
  vertex -0.137543395 -0.00352729415 0.00599970948
  vertex -0.137543395 -0.00352729415 0.00301728421
  endloop
 endfacet

 facet normal 0.300713837 0.95371449 0
  outer loop
  vertex -0.137743071 -0.00346433441 0.00599970948
  vertex -0.137543395 -0.00352729415 0.00301728421
  vertex -0.137743071 -0.00346433441 0.00301728421
  endloop
 endfacet

 facet normal 0.215049669 -0.97660315 0
  outer loop
  vertex -0.137948379 -0.00814499147 0.00301728421
  vertex -0.137743548 -0.00809988473 0.00301728421
  vertex -0.137743548 -0.00809988473 0.00599970948
  endloop
 endfacet

 facet normal 0.215049669 -0.97660315 0
  outer loop
  vertex -0.137948379 -0.00814499147 0.00301728421
  vertex -0.137743548 -0.00809988473 0.00599970948
  vertex -0.137948379 -0.00814499147 0.00599970948
  endloop
 endfacet

 facet normal 0.383358657 0.923599601 0
  outer loop
  vertex -0.137543395 -0.00352729415 0.00599970948
  vertex -0.137349829 -0.00360763888 0.00599970948
  vertex -0.137349829 -0.00360763888 0.00301728421
  endloop
 endfacet

 facet normal 0.383358657 0.923599601 0
  outer loop
  vertex -0.137543395 -0.00352729415 0.00599970948
  vertex -0.137349829 -0.00360763888 0.00301728421
  vertex -0.137543395 -0.00352729415 0.00301728421
  endloop
 endfacet

 facet normal 0.300710887 -0.953715324 0
  outer loop
  vertex -0.137743548 -0.00809988473 0.00301728421
  vertex -0.137543857 -0.00803692546 0.00301728421
  vertex -0.137543857 -0.00803692546 0.00599970948
  endloop
 endfacet

 facet normal 0.300710887 -0.953715324 0
  outer loop
  vertex -0.137743548 -0.00809988473 0.00301728421
  vertex -0.137543857 -0.00803692546 0.00599970948
  vertex -0.137743548 -0.00809988473 0.00599970948
  endloop
 endfacet

 facet normal 0.463353008 0.886173844 0
  outer loop
  vertex -0.137349829 -0.00360763888 0.00599970948
  vertex -0.137164712 -0.00370442821 0.00599970948
  vertex -0.137164712 -0.00370442821 0.00301728421
  endloop
 endfacet

 facet normal 0.463353008 0.886173844 0
  outer loop
  vertex -0.137349829 -0.00360763888 0.00599970948
  vertex -0.137164712 -0.00370442821 0.00301728421
  vertex -0.137349829 -0.00360763888 0.00301728421
  endloop
 endfacet

 facet normal 0.383361429 -0.923598468 0
  outer loop
  vertex -0.137543857 -0.00803692546 0.00301728421
  vertex -0.137350291 -0.00795658026 0.00301728421
  vertex -0.137350291 -0.00795658026 0.00599970948
  endloop
 endfacet

 facet normal 0.383361429 -0.923598468 0
  outer loop
  vertex -0.137543857 -0.00803692546 0.00301728421
  vertex -0.137350291 -0.00795658026 0.00599970948
  vertex -0.137543857 -0.00803692546 0.00599970948
  endloop
 endfacet

 facet normal 0.536458671 0.843926609 0
  outer loop
  vertex -0.137164712 -0.00370442821 0.00599970948
  vertex -0.136988059 -0.00381672243 0.00599970948
  vertex -0.136988059 -0.00381672243 0.00301728421
  endloop
 endfacet

 facet normal 0.536458671 0.843926609 0
  outer loop
  vertex -0.137164712 -0.00370442821 0.00599970948
  vertex -0.136988059 -0.00381672243 0.00301728421
  vertex -0.137164712 -0.00370442821 0.00301728421
  endloop
 endfacet

 facet normal 0.46242851 -0.886656642 0
  outer loop
  vertex -0.137350291 -0.00795658026 0.00301728421
  vertex -0.137164712 -0.00785979163 0.00301728421
  vertex -0.137164712 -0.00785979163 0.00599970948
  endloop
 endfacet

 facet normal 0.46242851 -0.886656642 0
  outer loop
  vertex -0.137350291 -0.00795658026 0.00301728421
  vertex -0.137164712 -0.00785979163 0.00599970948
  vertex -0.137350291 -0.00795658026 0.00599970948
  endloop
 endfacet

 facet normal 0.608970284 0.793193042 0
  outer loop
  vertex -0.136988059 -0.00381672243 0.00599970948
  vertex -0.136822209 -0.00394405238 0.00599970948
  vertex -0.136822209 -0.00394405238 0.00301728421
  endloop
 endfacet

 facet normal 0.608970284 0.793193042 0
  outer loop
  vertex -0.136988059 -0.00381672243 0.00599970948
  vertex -0.136822209 -0.00394405238 0.00301728421
  vertex -0.136988059 -0.00381672243 0.00301728421
  endloop
 endfacet

 facet normal 0.53747642 -0.843278825 0
  outer loop
  vertex -0.137164712 -0.00785979163 0.00301728421
  vertex -0.136988521 -0.00774749694 0.00301728421
  vertex -0.136988521 -0.00774749694 0.00599970948
  endloop
 endfacet

 facet normal 0.53747642 -0.843278825 0
  outer loop
  vertex -0.137164712 -0.00785979163 0.00301728421
  vertex -0.136988521 -0.00774749694 0.00599970948
  vertex -0.137164712 -0.00785979163 0.00599970948
  endloop
 endfacet

 facet normal 0.675031185 0.737789273 0
  outer loop
  vertex -0.136822209 -0.00394405238 0.00599970948
  vertex -0.136667639 -0.00408547744 0.00599970948
  vertex -0.136667639 -0.00408547744 0.00301728421
  endloop
 endfacet

 facet normal 0.675031185 0.737789273 0
  outer loop
  vertex -0.136822209 -0.00394405238 0.00599970948
  vertex -0.136667639 -0.00408547744 0.00301728421
  vertex -0.136822209 -0.00394405238 0.00301728421
  endloop
 endfacet

 facet normal 0.607888341 -0.79402256 0
  outer loop
  vertex -0.136988521 -0.00774749694 0.00301728421
  vertex -0.136822209 -0.00762016652 0.00301728421
  vertex -0.136822209 -0.00762016652 0.00599970948
  endloop
 endfacet

 facet normal 0.607888341 -0.79402256 0
  outer loop
  vertex -0.136988521 -0.00774749694 0.00301728421
  vertex -0.136822209 -0.00762016652 0.00599970948
  vertex -0.136988521 -0.00774749694 0.00599970948
  endloop
 endfacet

 facet normal 0.737822652 0.674994648 0
  outer loop
  vertex -0.136667639 -0.00408547744 0.00599970948
  vertex -0.136526212 -0.00424005836 0.00599970948
  vertex -0.136526212 -0.00424005836 0.00301728421
  endloop
 endfacet

 facet normal 0.737822652 0.674994648 0
  outer loop
  vertex -0.136667639 -0.00408547744 0.00599970948
  vertex -0.136526212 -0.00424005836 0.00301728421
  vertex -0.136667639 -0.00408547744 0.00301728421
  endloop
 endfacet

 facet normal 0.67614913 -0.736764789 0
  outer loop
  vertex -0.136822209 -0.00762016652 0.00301728421
  vertex -0.136668101 -0.00747874146 0.00301728421
  vertex -0.136668101 -0.00747874146 0.00599970948
  endloop
 endfacet

 facet normal 0.67614913 -0.736764789 0
  outer loop
  vertex -0.136822209 -0.00762016652 0.00301728421
  vertex -0.136668101 -0.00747874146 0.00599970948
  vertex -0.136822209 -0.00762016652 0.00599970948
  endloop
 endfacet

 facet normal 0.7921381 0.610342026 0
  outer loop
  vertex -0.136526212 -0.00424005836 0.00599970948
  vertex -0.13639842 -0.00440591574 0.00599970948
  vertex -0.13639842 -0.00440591574 0.00301728421
  endloop
 endfacet

 facet normal 0.7921381 0.610342026 0
  outer loop
  vertex -0.136526212 -0.00424005836 0.00599970948
  vertex -0.13639842 -0.00440591574 0.00301728421
  vertex -0.136526212 -0.00424005836 0.00301728421
  endloop
 endfacet

 facet normal 0.736705005 -0.676214337 0
  outer loop
  vertex -0.136668101 -0.00747874146 0.00301728421
  vertex -0.136526212 -0.00732416101 0.00301728421
  vertex -0.136526212 -0.00732416101 0.00599970948
  endloop
 endfacet

 facet normal 0.736705005 -0.676214337 0
  outer loop
  vertex -0.136668101 -0.00747874146 0.00301728421
  vertex -0.136526212 -0.00732416101 0.00599970948
  vertex -0.136668101 -0.00747874146 0.00599970948
  endloop
 endfacet

 facet normal 0.843951583 0.536419392 0
  outer loop
  vertex -0.13639842 -0.00440591574 0.00599970948
  vertex -0.136286139 -0.00458258018 0.00599970948
  vertex -0.136286139 -0.00458258018 0.00301728421
  endloop
 endfacet

 facet normal 0.843951583 0.536419392 0
  outer loop
  vertex -0.13639842 -0.00440591574 0.00599970948
  vertex -0.136286139 -0.00458258018 0.00301728421
  vertex -0.13639842 -0.00440591574 0.00301728421
  endloop
 endfacet

 facet normal 0.79238677 -0.610019088 0
  outer loop
  vertex -0.136526212 -0.00732416101 0.00301728421
  vertex -0.136398897 -0.00715877395 0.00301728421
  vertex -0.136398897 -0.00715877395 0.00599970948
  endloop
 endfacet

 facet normal 0.79238677 -0.610019088 0
  outer loop
  vertex -0.136526212 -0.00732416101 0.00301728421
  vertex -0.136398897 -0.00715877395 0.00599970948
  vertex -0.136526212 -0.00732416101 0.00599970948
  endloop
 endfacet

 facet normal 0.886674404 0.462394446 0
  outer loop
  vertex -0.136286139 -0.00458258018 0.00599970948
  vertex -0.136189356 -0.00476817135 0.00599970948
  vertex -0.136189356 -0.00476817135 0.00301728421
  endloop
 endfacet

 facet normal 0.886674404 0.462394446 0
  outer loop
  vertex -0.136286139 -0.00458258018 0.00599970948
  vertex -0.136189356 -0.00476817135 0.00301728421
  vertex -0.136286139 -0.00458258018 0.00301728421
  endloop
 endfacet

 facet normal 0.842935562 -0.538014591 0
  outer loop
  vertex -0.136398897 -0.00715877395 0.00301728421
  vertex -0.136286139 -0.00698210951 0.00301728421
  vertex -0.136286139 -0.00698210951 0.00599970948
  endloop
 endfacet

 facet normal 0.842935562 -0.538014591 0
  outer loop
  vertex -0.136398897 -0.00715877395 0.00301728421
  vertex -0.136286139 -0.00698210951 0.00599970948
  vertex -0.136398897 -0.00715877395 0.00599970948
  endloop
 endfacet

 facet normal 0.924077511 0.382205099 0
  outer loop
  vertex -0.136189356 -0.00476817135 0.00599970948
  vertex -0.136109486 -0.00496127922 0.00599970948
  vertex -0.136109486 -0.00496127922 0.00301728421
  endloop
 endfacet

 facet normal 0.924077511 0.382205099 0
  outer loop
  vertex -0.136189356 -0.00476817135 0.00599970948
  vertex -0.136109486 -0.00496127922 0.00301728421
  vertex -0.136189356 -0.00476817135 0.00301728421
  endloop
 endfacet

 facet normal 0.88806957 -0.459709108 0
  outer loop
  vertex -0.136286139 -0.00698210951 0.00301728421
  vertex -0.136189818 -0.00679604802 0.00301728421
  vertex -0.136189818 -0.00679604802 0.00599970948
  endloop
 endfacet

 facet normal 0.88806957 -0.459709108 0
  outer loop
  vertex -0.136286139 -0.00698210951 0.00301728421
  vertex -0.136189818 -0.00679604802 0.00599970948
  vertex -0.136286139 -0.00698210951 0.00599970948
  endloop
 endfacet

 facet normal 0.953723133 0.30068633 0
  outer loop
  vertex -0.136109486 -0.00496127922 0.00599970948
  vertex -0.136046529 -0.00516096689 0.00599970948
  vertex -0.136046529 -0.00516096689 0.00301728421
  endloop
 endfacet

 facet normal 0.953723133 0.30068633 0
  outer loop
  vertex -0.136109486 -0.00496127922 0.00599970948
  vertex -0.136046529 -0.00516096689 0.00301728421
  vertex -0.136109486 -0.00496127922 0.00301728421
  endloop
 endfacet

 facet normal 0.923282146 -0.384122461 0
  outer loop
  vertex -0.136189818 -0.00679604802 0.00301728421
  vertex -0.136109486 -0.00660294015 0.00301728421
  vertex -0.136109486 -0.00660294015 0.00599970948
  endloop
 endfacet

 facet normal 0.923282146 -0.384122461 0
  outer loop
  vertex -0.136189818 -0.00679604802 0.00301728421
  vertex -0.136109486 -0.00660294015 0.00599970948
  vertex -0.136189818 -0.00679604802 0.00599970948
  endloop
 endfacet

 facet normal 0.976030767 0.217632681 0
  outer loop
  vertex -0.136046529 -0.00516096689 0.00599970948
  vertex -0.136000946 -0.00536535215 0.00599970948
  vertex -0.136000946 -0.00536535215 0.00301728421
  endloop
 endfacet

 facet normal 0.976030767 0.217632681 0
  outer loop
  vertex -0.136046529 -0.00516096689 0.00599970948
  vertex -0.136000946 -0.00536535215 0.00301728421
  vertex -0.136046529 -0.00516096689 0.00301728421
  endloop
 endfacet

 facet normal 0.953723133 -0.30068633 0
  outer loop
  vertex -0.136109486 -0.00660294015 0.00301728421
  vertex -0.136046529 -0.00640325248 0.00301728421
  vertex -0.136046529 -0.00640325248 0.00599970948
  endloop
 endfacet

 facet normal 0.953723133 -0.30068633 0
  outer loop
  vertex -0.136109486 -0.00660294015 0.00301728421
  vertex -0.136046529 -0.00640325248 0.00599970948
  vertex -0.136109486 -0.00660294015 0.00599970948
  endloop
 endfacet

 facet normal 0.991462767 0.130390853 0
  outer loop
  vertex -0.136000946 -0.00536535215 0.00599970948
  vertex -0.135973707 -0.00557255605 0.00599970948
  vertex -0.135973707 -0.00557255605 0.00301728421
  endloop
 endfacet

 facet normal 0.991462767 0.130390853 0
  outer loop
  vertex -0.136000946 -0.00536535215 0.00599970948
  vertex -0.135973707 -0.00557255605 0.00301728421
  vertex -0.136000946 -0.00536535215 0.00301728421
  endloop
 endfacet

 facet normal 0.975862861 -0.218384355 0
  outer loop
  vertex -0.136046529 -0.00640325248 0.00301728421
  vertex -0.13600941 -0.00623739604 0.00301728421
  vertex -0.13600941 -0.00623739604 0.00599970948
  endloop
 endfacet

 facet normal 0.975862861 -0.218384355 0
  outer loop
  vertex -0.136046529 -0.00640325248 0.00301728421
  vertex -0.13600941 -0.00623739604 0.00599970948
  vertex -0.136046529 -0.00640325248 0.00599970948
  endloop
 endfacet

 facet normal 0.998996198 0.044795122 0
  outer loop
  vertex -0.135973707 -0.00557255605 0.00599970948
  vertex -0.135964304 -0.00578210969 0.00599970948
  vertex -0.135964304 -0.00578210969 0.00301728421
  endloop
 endfacet

 facet normal 0.998996198 0.044795122 0
  outer loop
  vertex -0.135973707 -0.00557255605 0.00599970948
  vertex -0.135964304 -0.00578210969 0.00301728421
  vertex -0.135973707 -0.00557255605 0.00301728421
  endloop
 endfacet

 facet normal 0.977285326 -0.211927995 0
  outer loop
  vertex -0.13600941 -0.00623739604 0.00301728421
  vertex -0.136000946 -0.00619839784 0.00301728421
  vertex -0.136000946 -0.00619839784 0.00599970948
  endloop
 endfacet

 facet normal 0.977285326 -0.211927995 0
  outer loop
  vertex -0.13600941 -0.00623739604 0.00301728421
  vertex -0.136000946 -0.00619839784 0.00599970948
  vertex -0.13600941 -0.00623739604 0.00599970948
  endloop
 endfacet

 facet normal 0.998987257 -0.0449966379 0
  outer loop
  vertex -0.135964304 -0.00578210969 0.00599970948
  vertex -0.135973707 -0.00599072315 0.00599970948
  vertex -0.135973707 -0.00599072315 0.00301728421
  endloop
 endfacet

 facet normal 0.998987257 -0.0449966379 0
  outer loop
  vertex -0.135964304 -0.00578210969 0.00599970948
  vertex -0.135973707 -0.00599072315 0.00301728421
  vertex -0.135964304 -0.00578210969 0.00301728421
  endloop
 endfacet

 facet normal 0.991500854 -0.13010022 0
  outer loop
  vertex -0.136000946 -0.00619839784 0.00301728421
  vertex -0.135973707 -0.00599072315 0.00301728421
  vertex -0.135973707 -0.00599072315 0.00599970948
  endloop
 endfacet

 facet normal 0.991500854 -0.13010022 0
  outer loop
  vertex -0.136000946 -0.00619839784 0.00301728421
  vertex -0.135973707 -0.00599072315 0.00599970948
  vertex -0.136000946 -0.00619839784 0.00599970948
  endloop
 endfacet

endsolid AssimpScene
