solid AssimpScene
 facet normal -0.998986959 -0.044999484 0
  outer loop
  vertex -0.141364291 -0.00578210969 -0.0296999998
  vertex -0.141352549 -0.00604287675 -0.0296999998
  vertex -0.141352549 -0.00604287675 -0.0258291457
  endloop
 endfacet

 facet normal -0.998986959 -0.044999484 0
  outer loop
  vertex -0.141364291 -0.00578210969 -0.0296999998
  vertex -0.141352549 -0.00604287675 -0.0258291457
  vertex -0.141364291 -0.00578210969 -0.0258291457
  endloop
 endfacet

 facet normal -0.998991609 0.0448985845 0
  outer loop
  vertex -0.141364291 -0.00578210969 -0.0296999998
  vertex -0.141364291 -0.00578210969 -0.0258291457
  vertex -0.141352549 -0.00552075543 -0.0258291457
  endloop
 endfacet

 facet normal -0.998991609 0.0448985845 0
  outer loop
  vertex -0.141364291 -0.00578210969 -0.0296999998
  vertex -0.141352549 -0.00552075543 -0.0258291457
  vertex -0.141352549 -0.00552075543 -0.0296999998
  endloop
 endfacet

 facet normal 0 0 -1
  outer loop
  vertex -0.141364291 -0.00578210969 -0.0296999998
  vertex -0.141352549 -0.00552075543 -0.0296999998
  vertex -0.141318485 -0.0052611623 -0.0296999998
  endloop
 endfacet

 facet normal 0 0 -1
  outer loop
  vertex -0.141364291 -0.00578210969 -0.0296999998
  vertex -0.141318485 -0.0052611623 -0.0296999998
  vertex -0.141261518 -0.00500568002 -0.0296999998
  endloop
 endfacet

 facet normal 0 0 -1
  outer loop
  vertex -0.141364291 -0.00578210969 -0.0296999998
  vertex -0.141261518 -0.00500568002 -0.0296999998
  vertex -0.14118281 -0.00475607254 -0.0296999998
  endloop
 endfacet

 facet normal 0 0 -1
  outer loop
  vertex -0.141364291 -0.00578210969 -0.0296999998
  vertex -0.14118281 -0.00475607254 -0.0296999998
  vertex -0.141082972 -0.0045146863 -0.0296999998
  endloop
 endfacet

 facet normal 0 0 -1
  outer loop
  vertex -0.141364291 -0.00578210969 -0.0296999998
  vertex -0.141082972 -0.0045146863 -0.0296999998
  vertex -0.140961975 -0.0042826971 -0.0296999998
  endloop
 endfacet

 facet normal 0 0 -1
  outer loop
  vertex -0.141364291 -0.00578210969 -0.0296999998
  vertex -0.140961975 -0.0042826971 -0.0296999998
  vertex -0.140821621 -0.00406186702 -0.0296999998
  endloop
 endfacet

 facet normal 0 0 -1
  outer loop
  vertex -0.141364291 -0.00578210969 -0.0296999998
  vertex -0.140821621 -0.00406186702 -0.0296999998
  vertex -0.140661865 -0.00385454507 -0.0296999998
  endloop
 endfacet

 facet normal 0 0 -1
  outer loop
  vertex -0.141364291 -0.00578210969 -0.0296999998
  vertex -0.140661865 -0.00385454507 -0.0296999998
  vertex -0.140485078 -0.00366131868 -0.0296999998
  endloop
 endfacet

 facet normal 0 0 -1
  outer loop
  vertex -0.141364291 -0.00578210969 -0.0296999998
  vertex -0.140485078 -0.00366131868 -0.0296999998
  vertex -0.140292451 -0.00348453713 -0.0296999998
  endloop
 endfacet

 facet normal 0 0 -1
  outer loop
  vertex -0.141364291 -0.00578210969 -0.0296999998
  vertex -0.140292451 -0.00348453713 -0.0296999998
  vertex -0.140084535 -0.00332478806 -0.0296999998
  endloop
 endfacet

 facet normal 0 0 -1
  outer loop
  vertex -0.141364291 -0.00578210969 -0.0296999998
  vertex -0.140084535 -0.00332478806 -0.0296999998
  vertex -0.1398637 -0.00318441982 -0.0296999998
  endloop
 endfacet

 facet normal 0 0 -1
  outer loop
  vertex -0.141364291 -0.00578210969 -0.0296999998
  vertex -0.1398637 -0.00318441982 -0.0296999998
  vertex -0.1396323 -0.0030634338 -0.0296999998
  endloop
 endfacet

 facet normal 0 0 -1
  outer loop
  vertex -0.141364291 -0.00578210969 -0.0296999998
  vertex -0.1396323 -0.0030634338 -0.0296999998
  vertex -0.139390334 -0.00296358997 -0.0296999998
  endloop
 endfacet

 facet normal 0 0 -1
  outer loop
  vertex -0.141364291 -0.00578210969 -0.0296999998
  vertex -0.139390334 -0.00296358997 -0.0296999998
  vertex -0.139140725 -0.00288488972 -0.0296999998
  endloop
 endfacet

 facet normal 0 0 -1
  outer loop
  vertex -0.141364291 -0.00578210969 -0.0296999998
  vertex -0.139140725 -0.00288488972 -0.0296999998
  vertex -0.138885245 -0.00282850792 -0.0296999998
  endloop
 endfacet

 facet normal 0 0 -1
  outer loop
  vertex -0.141364291 -0.00578210969 -0.0296999998
  vertex -0.138885245 -0.00282850792 -0.0296999998
  vertex -0.138625652 -0.0027938562 -0.0296999998
  endloop
 endfacet

 facet normal 0 0 -1
  outer loop
  vertex -0.141364291 -0.00578210969 -0.0296999998
  vertex -0.138625652 -0.0027938562 -0.0296999998
  vertex -0.1383643 -0.00278210989 -0.0296999998
  endloop
 endfacet

 facet normal 0 0 -1
  outer loop
  vertex -0.141364291 -0.00578210969 -0.0296999998
  vertex -0.1383643 -0.00278210989 -0.0296999998
  vertex -0.138161674 -0.0027915067 -0.0296999998
  endloop
 endfacet

 facet normal 0 0 -1
  outer loop
  vertex -0.141364291 -0.00578210969 -0.0296999998
  vertex -0.138161674 -0.0027915067 -0.0296999998
  vertex -0.138102934 -0.0027944434 -0.0296999998
  endloop
 endfacet

 facet normal 0 0 -1
  outer loop
  vertex -0.141364291 -0.00578210969 -0.0296999998
  vertex -0.138102934 -0.0027944434 -0.0296999998
  vertex -0.137843341 -0.00282792072 -0.0296999998
  endloop
 endfacet

 facet normal 0 0 -1
  outer loop
  vertex -0.141364291 -0.00578210969 -0.0296999998
  vertex -0.137843341 -0.00282792072 -0.0296999998
  vertex -0.13758786 -0.00288488972 -0.0296999998
  endloop
 endfacet

 facet normal 0 0 -1
  outer loop
  vertex -0.141364291 -0.00578210969 -0.0296999998
  vertex -0.13758786 -0.00288488972 -0.0296999998
  vertex -0.137338251 -0.00296358997 -0.0296999998
  endloop
 endfacet

 facet normal 0 0 -1
  outer loop
  vertex -0.141364291 -0.00578210969 -0.0296999998
  vertex -0.137338251 -0.00296358997 -0.0296999998
  vertex -0.137096286 -0.003064021 -0.0296999998
  endloop
 endfacet

 facet normal 0 0 -1
  outer loop
  vertex -0.141364291 -0.00578210969 -0.0296999998
  vertex -0.137096286 -0.003064021 -0.0296999998
  vertex -0.13686429 -0.00318500702 -0.0296999998
  endloop
 endfacet

 facet normal 0 0 -1
  outer loop
  vertex -0.141364291 -0.00578210969 -0.0296999998
  vertex -0.13686429 -0.00318500702 -0.0296999998
  vertex -0.13664405 -0.00332537526 -0.0296999998
  endloop
 endfacet

 facet normal 0 0 -1
  outer loop
  vertex -0.141364291 -0.00578210969 -0.0296999998
  vertex -0.13664405 -0.00332537526 -0.0296999998
  vertex -0.136436731 -0.00348512433 -0.0296999998
  endloop
 endfacet

 facet normal 0 0 -1
  outer loop
  vertex -0.141364291 -0.00578210969 -0.0296999998
  vertex -0.136436731 -0.00348512433 -0.0296999998
  vertex -0.136243507 -0.00366131868 -0.0296999998
  endloop
 endfacet

 facet normal 0 0 -1
  outer loop
  vertex -0.141364291 -0.00578210969 -0.0296999998
  vertex -0.136243507 -0.00366131868 -0.0296999998
  vertex -0.13606672 -0.00385454507 -0.0296999998
  endloop
 endfacet

 facet normal 0 0 -1
  outer loop
  vertex -0.141364291 -0.00578210969 -0.0296999998
  vertex -0.13606672 -0.00385454507 -0.0296999998
  vertex -0.135907561 -0.00406186702 -0.0296999998
  endloop
 endfacet

 facet normal 0 0 -1
  outer loop
  vertex -0.141364291 -0.00578210969 -0.0296999998
  vertex -0.135907561 -0.00406186702 -0.0296999998
  vertex -0.135766611 -0.0042832843 -0.0296999998
  endloop
 endfacet

 facet normal 0 0 -1
  outer loop
  vertex -0.141364291 -0.00578210969 -0.0296999998
  vertex -0.135766611 -0.0042832843 -0.0296999998
  vertex -0.135646209 -0.0045146863 -0.0296999998
  endloop
 endfacet

 facet normal 0 0 -1
  outer loop
  vertex -0.141364291 -0.00578210969 -0.0296999998
  vertex -0.135646209 -0.0045146863 -0.0296999998
  vertex -0.135545775 -0.00475665973 -0.0296999998
  endloop
 endfacet

 facet normal 0 0 -1
  outer loop
  vertex -0.141364291 -0.00578210969 -0.0296999998
  vertex -0.135545775 -0.00475665973 -0.0296999998
  vertex -0.135467067 -0.00500626722 -0.0296999998
  endloop
 endfacet

 facet normal 0 0 -1
  outer loop
  vertex -0.141364291 -0.00578210969 -0.0296999998
  vertex -0.135467067 -0.00500626722 -0.0296999998
  vertex -0.135410696 -0.0052611623 -0.0296999998
  endloop
 endfacet

 facet normal 0 0 -1
  outer loop
  vertex -0.141364291 -0.00578210969 -0.0296999998
  vertex -0.135410696 -0.0052611623 -0.0296999998
  vertex -0.135376632 -0.00552134262 -0.0296999998
  endloop
 endfacet

 facet normal 0 0 -1
  outer loop
  vertex -0.141364291 -0.00578210969 -0.0296999998
  vertex -0.135376632 -0.00552134262 -0.0296999998
  vertex -0.135364294 -0.00578210969 -0.0296999998
  endloop
 endfacet

 facet normal 0 0 -1
  outer loop
  vertex -0.141364291 -0.00578210969 -0.0296999998
  vertex -0.135364294 -0.00578210969 -0.0296999998
  vertex -0.135376632 -0.00604287675 -0.0296999998
  endloop
 endfacet

 facet normal 0 0 -1
  outer loop
  vertex -0.141364291 -0.00578210969 -0.0296999998
  vertex -0.135376632 -0.00604287675 -0.0296999998
  vertex -0.135410696 -0.00630305707 -0.0296999998
  endloop
 endfacet

 facet normal 0 0 -1
  outer loop
  vertex -0.141364291 -0.00578210969 -0.0296999998
  vertex -0.135410696 -0.00630305707 -0.0296999998
  vertex -0.135467067 -0.00655795215 -0.0296999998
  endloop
 endfacet

 facet normal 0 0 -1
  outer loop
  vertex -0.141364291 -0.00578210969 -0.0296999998
  vertex -0.135467067 -0.00655795215 -0.0296999998
  vertex -0.135545775 -0.00680755964 -0.0296999998
  endloop
 endfacet

 facet normal 0 0 -1
  outer loop
  vertex -0.141364291 -0.00578210969 -0.0296999998
  vertex -0.135545775 -0.00680755964 -0.0296999998
  vertex -0.135646209 -0.00704953354 -0.0296999998
  endloop
 endfacet

 facet normal 0 0 -1
  outer loop
  vertex -0.141364291 -0.00578210969 -0.0296999998
  vertex -0.135646209 -0.00704953354 -0.0296999998
  vertex -0.135767192 -0.0072815218 -0.0296999998
  endloop
 endfacet

 facet normal 0 0 -1
  outer loop
  vertex -0.141364291 -0.00578210969 -0.0296999998
  vertex -0.135767192 -0.0072815218 -0.0296999998
  vertex -0.135907561 -0.00750235328 -0.0296999998
  endloop
 endfacet

 facet normal 0 0 -1
  outer loop
  vertex -0.141364291 -0.00578210969 -0.0296999998
  vertex -0.135907561 -0.00750235328 -0.0296999998
  vertex -0.13606672 -0.00770967454 -0.0296999998
  endloop
 endfacet

 facet normal 0 0 -1
  outer loop
  vertex -0.141364291 -0.00578210969 -0.0296999998
  vertex -0.13606672 -0.00770967454 -0.0296999998
  vertex -0.136244088 -0.00790289976 -0.0296999998
  endloop
 endfacet

 facet normal 0 0 -1
  outer loop
  vertex -0.141364291 -0.00578210969 -0.0296999998
  vertex -0.136244088 -0.00790289976 -0.0296999998
  vertex -0.136436731 -0.00807968248 -0.0296999998
  endloop
 endfacet

 facet normal 0 0 -1
  outer loop
  vertex -0.141364291 -0.00578210969 -0.0296999998
  vertex -0.136436731 -0.00807968248 -0.0296999998
  vertex -0.13664405 -0.00823884364 -0.0296999998
  endloop
 endfacet

 facet normal 0 0 -1
  outer loop
  vertex -0.141364291 -0.00578210969 -0.0296999998
  vertex -0.13664405 -0.00823884364 -0.0296999998
  vertex -0.136864886 -0.00837979931 -0.0296999998
  endloop
 endfacet

 facet normal 0 0 -1
  outer loop
  vertex -0.141364291 -0.00578210969 -0.0296999998
  vertex -0.136864886 -0.00837979931 -0.0296999998
  vertex -0.137096867 -0.00850019883 -0.0296999998
  endloop
 endfacet

 facet normal 0 0 -1
  outer loop
  vertex -0.141364291 -0.00578210969 -0.0296999998
  vertex -0.137096867 -0.00850019883 -0.0296999998
  vertex -0.137338251 -0.00860062987 -0.0296999998
  endloop
 endfacet

 facet normal 0 0 -1
  outer loop
  vertex -0.141364291 -0.00578210969 -0.0296999998
  vertex -0.137338251 -0.00860062987 -0.0296999998
  vertex -0.13758786 -0.00867932942 -0.0296999998
  endloop
 endfacet

 facet normal 0 0 -1
  outer loop
  vertex -0.141364291 -0.00578210969 -0.0296999998
  vertex -0.13758786 -0.00867932942 -0.0296999998
  vertex -0.137843341 -0.00873571169 -0.0296999998
  endloop
 endfacet

 facet normal 0 0 -1
  outer loop
  vertex -0.141364291 -0.00578210969 -0.0296999998
  vertex -0.137843341 -0.00873571169 -0.0296999998
  vertex -0.138102934 -0.00877036247 -0.0296999998
  endloop
 endfacet

 facet normal 0 0 -1
  outer loop
  vertex -0.141364291 -0.00578210969 -0.0296999998
  vertex -0.138102934 -0.00877036247 -0.0296999998
  vertex -0.1383643 -0.00878210925 -0.0296999998
  endloop
 endfacet

 facet normal 0 0 -1
  outer loop
  vertex -0.141364291 -0.00578210969 -0.0296999998
  vertex -0.1383643 -0.00878210925 -0.0296999998
  vertex -0.138626233 -0.00876977574 -0.0296999998
  endloop
 endfacet

 facet normal 0 0 -1
  outer loop
  vertex -0.141364291 -0.00578210969 -0.0296999998
  vertex -0.138626233 -0.00876977574 -0.0296999998
  vertex -0.138885245 -0.00873571169 -0.0296999998
  endloop
 endfacet

 facet normal 0 0 -1
  outer loop
  vertex -0.141364291 -0.00578210969 -0.0296999998
  vertex -0.138885245 -0.00873571169 -0.0296999998
  vertex -0.139140725 -0.00867874268 -0.0296999998
  endloop
 endfacet

 facet normal 0 0 -1
  outer loop
  vertex -0.141364291 -0.00578210969 -0.0296999998
  vertex -0.139140725 -0.00867874268 -0.0296999998
  vertex -0.139390334 -0.0086000422 -0.0296999998
  endloop
 endfacet

 facet normal 0 0 -1
  outer loop
  vertex -0.141364291 -0.00578210969 -0.0296999998
  vertex -0.139390334 -0.0086000422 -0.0296999998
  vertex -0.1396323 -0.00850019883 -0.0296999998
  endloop
 endfacet

 facet normal 0 0 -1
  outer loop
  vertex -0.141364291 -0.00578210969 -0.0296999998
  vertex -0.1396323 -0.00850019883 -0.0296999998
  vertex -0.1398637 -0.00837921258 -0.0296999998
  endloop
 endfacet

 facet normal 0 0 -1
  outer loop
  vertex -0.141364291 -0.00578210969 -0.0296999998
  vertex -0.1398637 -0.00837921258 -0.0296999998
  vertex -0.140084535 -0.00823825691 -0.0296999998
  endloop
 endfacet

 facet normal 0 0 -1
  outer loop
  vertex -0.141364291 -0.00578210969 -0.0296999998
  vertex -0.140084535 -0.00823825691 -0.0296999998
  vertex -0.140292451 -0.00807909481 -0.0296999998
  endloop
 endfacet

 facet normal 0 0 -1
  outer loop
  vertex -0.141364291 -0.00578210969 -0.0296999998
  vertex -0.140292451 -0.00807909481 -0.0296999998
  vertex -0.140485078 -0.00790231302 -0.0296999998
  endloop
 endfacet

 facet normal 0 0 -1
  outer loop
  vertex -0.141364291 -0.00578210969 -0.0296999998
  vertex -0.140485078 -0.00790231302 -0.0296999998
  vertex -0.140661865 -0.00770967454 -0.0296999998
  endloop
 endfacet

 facet normal 0 0 -1
  outer loop
  vertex -0.141364291 -0.00578210969 -0.0296999998
  vertex -0.140661865 -0.00770967454 -0.0296999998
  vertex -0.140821025 -0.00750176469 -0.0296999998
  endloop
 endfacet

 facet normal 0 0 -1
  outer loop
  vertex -0.141364291 -0.00578210969 -0.0296999998
  vertex -0.140821025 -0.00750176469 -0.0296999998
  vertex -0.140961975 -0.0072815218 -0.0296999998
  endloop
 endfacet

 facet normal 0 0 -1
  outer loop
  vertex -0.141364291 -0.00578210969 -0.0296999998
  vertex -0.140961975 -0.0072815218 -0.0296999998
  vertex -0.141082376 -0.00704953354 -0.0296999998
  endloop
 endfacet

 facet normal 0 0 -1
  outer loop
  vertex -0.141364291 -0.00578210969 -0.0296999998
  vertex -0.141082376 -0.00704953354 -0.0296999998
  vertex -0.14118281 -0.00680755964 -0.0296999998
  endloop
 endfacet

 facet normal 0 0 -1
  outer loop
  vertex -0.141364291 -0.00578210969 -0.0296999998
  vertex -0.14118281 -0.00680755964 -0.0296999998
  vertex -0.141261518 -0.00655795215 -0.0296999998
  endloop
 endfacet

 facet normal 0 0 -1
  outer loop
  vertex -0.141364291 -0.00578210969 -0.0296999998
  vertex -0.141261518 -0.00655795215 -0.0296999998
  vertex -0.141317889 -0.00630246988 -0.0296999998
  endloop
 endfacet

 facet normal 0 0 -1
  outer loop
  vertex -0.141364291 -0.00578210969 -0.0296999998
  vertex -0.141317889 -0.00630246988 -0.0296999998
  vertex -0.141352549 -0.00604287675 -0.0296999998
  endloop
 endfacet

 facet normal -0.991208375 -0.132311106 0
  outer loop
  vertex -0.141352549 -0.00604287675 -0.0296999998
  vertex -0.141317889 -0.00630246988 -0.0296999998
  vertex -0.141317889 -0.00630246988 -0.0258291457
  endloop
 endfacet

 facet normal -0.991208375 -0.132311106 0
  outer loop
  vertex -0.141352549 -0.00604287675 -0.0296999998
  vertex -0.141317889 -0.00630246988 -0.0258291457
  vertex -0.141352549 -0.00604287675 -0.0258291457
  endloop
 endfacet

 facet normal 0 0 1
  outer loop
  vertex -0.141364291 -0.00578210969 -0.0258291457
  vertex -0.141352549 -0.00604287675 -0.0258291457
  vertex -0.141317889 -0.00630246988 -0.0258291457
  endloop
 endfacet

 facet normal 0 0 1
  outer loop
  vertex -0.141364291 -0.00578210969 -0.0258291457
  vertex -0.141317889 -0.00630246988 -0.0258291457
  vertex -0.141261518 -0.00655795215 -0.0258291457
  endloop
 endfacet

 facet normal 0 0 1
  outer loop
  vertex -0.141364291 -0.00578210969 -0.0258291457
  vertex -0.141261518 -0.00655795215 -0.0258291457
  vertex -0.14118281 -0.00680755964 -0.0258291457
  endloop
 endfacet

 facet normal 0 0 1
  outer loop
  vertex -0.141364291 -0.00578210969 -0.0258291457
  vertex -0.14118281 -0.00680755964 -0.0258291457
  vertex -0.141082376 -0.00704953354 -0.0258291457
  endloop
 endfacet

 facet normal 0 0 1
  outer loop
  vertex -0.141364291 -0.00578210969 -0.0258291457
  vertex -0.141082376 -0.00704953354 -0.0258291457
  vertex -0.140961975 -0.0072815218 -0.0258291457
  endloop
 endfacet

 facet normal 0 0 1
  outer loop
  vertex -0.141364291 -0.00578210969 -0.0258291457
  vertex -0.140961975 -0.0072815218 -0.0258291457
  vertex -0.140821025 -0.00750176469 -0.0258291457
  endloop
 endfacet

 facet normal 0 0 1
  outer loop
  vertex -0.141364291 -0.00578210969 -0.0258291457
  vertex -0.140821025 -0.00750176469 -0.0258291457
  vertex -0.140661865 -0.00770967454 -0.0258291457
  endloop
 endfacet

 facet normal 0 0 1
  outer loop
  vertex -0.141364291 -0.00578210969 -0.0258291457
  vertex -0.140661865 -0.00770967454 -0.0258291457
  vertex -0.140485078 -0.00790231302 -0.0258291457
  endloop
 endfacet

 facet normal 0 0 1
  outer loop
  vertex -0.141364291 -0.00578210969 -0.0258291457
  vertex -0.140485078 -0.00790231302 -0.0258291457
  vertex -0.140292451 -0.00807909481 -0.0258291457
  endloop
 endfacet

 facet normal 0 0 1
  outer loop
  vertex -0.141364291 -0.00578210969 -0.0258291457
  vertex -0.140292451 -0.00807909481 -0.0258291457
  vertex -0.140084535 -0.00823825691 -0.0258291457
  endloop
 endfacet

 facet normal 0 0 1
  outer loop
  vertex -0.141364291 -0.00578210969 -0.0258291457
  vertex -0.140084535 -0.00823825691 -0.0258291457
  vertex -0.1398637 -0.00837921258 -0.0258291457
  endloop
 endfacet

 facet normal 0 0 1
  outer loop
  vertex -0.141364291 -0.00578210969 -0.0258291457
  vertex -0.1398637 -0.00837921258 -0.0258291457
  vertex -0.1396323 -0.00850019883 -0.0258291457
  endloop
 endfacet

 facet normal 0 0 1
  outer loop
  vertex -0.141364291 -0.00578210969 -0.0258291457
  vertex -0.1396323 -0.00850019883 -0.0258291457
  vertex -0.139390334 -0.0086000422 -0.0258291457
  endloop
 endfacet

 facet normal 0 0 1
  outer loop
  vertex -0.141364291 -0.00578210969 -0.0258291457
  vertex -0.139390334 -0.0086000422 -0.0258291457
  vertex -0.139140725 -0.00867874268 -0.0258291457
  endloop
 endfacet

 facet normal 0 0 1
  outer loop
  vertex -0.141364291 -0.00578210969 -0.0258291457
  vertex -0.139140725 -0.00867874268 -0.0258291457
  vertex -0.138885245 -0.00873571169 -0.0258291457
  endloop
 endfacet

 facet normal 0 0 1
  outer loop
  vertex -0.141364291 -0.00578210969 -0.0258291457
  vertex -0.138885245 -0.00873571169 -0.0258291457
  vertex -0.138626233 -0.00876977574 -0.0258291457
  endloop
 endfacet

 facet normal 0 0 1
  outer loop
  vertex -0.141364291 -0.00578210969 -0.0258291457
  vertex -0.138626233 -0.00876977574 -0.0258291457
  vertex -0.138364881 -0.00878152251 -0.0258291457
  endloop
 endfacet

 facet normal 0 0 1
  outer loop
  vertex -0.141364291 -0.00578210969 -0.0258291457
  vertex -0.138364881 -0.00878152251 -0.0258291457
  vertex -0.138362527 -0.00878152251 -0.0258291457
  endloop
 endfacet

 facet normal 0 0 1
  outer loop
  vertex -0.141364291 -0.00578210969 -0.0258291457
  vertex -0.138362527 -0.00878152251 -0.0258291457
  vertex -0.138102934 -0.00877036247 -0.0258291457
  endloop
 endfacet

 facet normal 0 0 1
  outer loop
  vertex -0.141364291 -0.00578210969 -0.0258291457
  vertex -0.138102934 -0.00877036247 -0.0258291457
  vertex -0.137843341 -0.00873571169 -0.0258291457
  endloop
 endfacet

 facet normal 0 0 1
  outer loop
  vertex -0.141364291 -0.00578210969 -0.0258291457
  vertex -0.137843341 -0.00873571169 -0.0258291457
  vertex -0.13758786 -0.00867932942 -0.0258291457
  endloop
 endfacet

 facet normal 0 0 1
  outer loop
  vertex -0.141364291 -0.00578210969 -0.0258291457
  vertex -0.13758786 -0.00867932942 -0.0258291457
  vertex -0.137338251 -0.00860062987 -0.0258291457
  endloop
 endfacet

 facet normal 0 0 1
  outer loop
  vertex -0.141364291 -0.00578210969 -0.0258291457
  vertex -0.137338251 -0.00860062987 -0.0258291457
  vertex -0.137096867 -0.00850019883 -0.0258291457
  endloop
 endfacet

 facet normal 0 0 1
  outer loop
  vertex -0.141364291 -0.00578210969 -0.0258291457
  vertex -0.137096867 -0.00850019883 -0.0258291457
  vertex -0.136864886 -0.00837979931 -0.0258291457
  endloop
 endfacet

 facet normal 0 0 1
  outer loop
  vertex -0.141364291 -0.00578210969 -0.0258291457
  vertex -0.136864886 -0.00837979931 -0.0258291457
  vertex -0.13664405 -0.00823884364 -0.0258291457
  endloop
 endfacet

 facet normal 0 0 1
  outer loop
  vertex -0.141364291 -0.00578210969 -0.0258291457
  vertex -0.13664405 -0.00823884364 -0.0258291457
  vertex -0.136436731 -0.00807968248 -0.0258291457
  endloop
 endfacet

 facet normal 0 0 1
  outer loop
  vertex -0.141364291 -0.00578210969 -0.0258291457
  vertex -0.136436731 -0.00807968248 -0.0258291457
  vertex -0.136244088 -0.00790289976 -0.0258291457
  endloop
 endfacet

 facet normal 0 0 1
  outer loop
  vertex -0.141364291 -0.00578210969 -0.0258291457
  vertex -0.136244088 -0.00790289976 -0.0258291457
  vertex -0.13606672 -0.00770967454 -0.0258291457
  endloop
 endfacet

 facet normal 0 0 1
  outer loop
  vertex -0.141364291 -0.00578210969 -0.0258291457
  vertex -0.13606672 -0.00770967454 -0.0258291457
  vertex -0.135907561 -0.00750235328 -0.0258291457
  endloop
 endfacet

 facet normal 0 0 1
  outer loop
  vertex -0.141364291 -0.00578210969 -0.0258291457
  vertex -0.135907561 -0.00750235328 -0.0258291457
  vertex -0.135767192 -0.0072815218 -0.0258291457
  endloop
 endfacet

 facet normal 0 0 1
  outer loop
  vertex -0.141364291 -0.00578210969 -0.0258291457
  vertex -0.135767192 -0.0072815218 -0.0258291457
  vertex -0.135646209 -0.00704953354 -0.0258291457
  endloop
 endfacet

 facet normal 0 0 1
  outer loop
  vertex -0.141364291 -0.00578210969 -0.0258291457
  vertex -0.135646209 -0.00704953354 -0.0258291457
  vertex -0.135545775 -0.00680755964 -0.0258291457
  endloop
 endfacet

 facet normal 0 0 1
  outer loop
  vertex -0.141364291 -0.00578210969 -0.0258291457
  vertex -0.135545775 -0.00680755964 -0.0258291457
  vertex -0.135467067 -0.00655795215 -0.0258291457
  endloop
 endfacet

 facet normal 0 0 1
  outer loop
  vertex -0.141364291 -0.00578210969 -0.0258291457
  vertex -0.135467067 -0.00655795215 -0.0258291457
  vertex -0.135410696 -0.00630305707 -0.0258291457
  endloop
 endfacet

 facet normal 0 0 1
  outer loop
  vertex -0.141364291 -0.00578210969 -0.0258291457
  vertex -0.135410696 -0.00630305707 -0.0258291457
  vertex -0.135376632 -0.00604287675 -0.0258291457
  endloop
 endfacet

 facet normal 0 0 1
  outer loop
  vertex -0.141364291 -0.00578210969 -0.0258291457
  vertex -0.135376632 -0.00604287675 -0.0258291457
  vertex -0.135364294 -0.00578210969 -0.0258291457
  endloop
 endfacet

 facet normal 0 0 1
  outer loop
  vertex -0.141364291 -0.00578210969 -0.0258291457
  vertex -0.135364294 -0.00578210969 -0.0258291457
  vertex -0.135376632 -0.00552134262 -0.0258291457
  endloop
 endfacet

 facet normal 0 0 1
  outer loop
  vertex -0.141364291 -0.00578210969 -0.0258291457
  vertex -0.135376632 -0.00552134262 -0.0258291457
  vertex -0.135410696 -0.0052611623 -0.0258291457
  endloop
 endfacet

 facet normal 0 0 1
  outer loop
  vertex -0.141364291 -0.00578210969 -0.0258291457
  vertex -0.135410696 -0.0052611623 -0.0258291457
  vertex -0.135467067 -0.00500626722 -0.0258291457
  endloop
 endfacet

 facet normal 0 0 1
  outer loop
  vertex -0.141364291 -0.00578210969 -0.0258291457
  vertex -0.135467067 -0.00500626722 -0.0258291457
  vertex -0.135545775 -0.00475665973 -0.0258291457
  endloop
 endfacet

 facet normal 0 0 1
  outer loop
  vertex -0.141364291 -0.00578210969 -0.0258291457
  vertex -0.135545775 -0.00475665973 -0.0258291457
  vertex -0.135646209 -0.0045146863 -0.0258291457
  endloop
 endfacet

 facet normal 0 0 1
  outer loop
  vertex -0.141364291 -0.00578210969 -0.0258291457
  vertex -0.135646209 -0.0045146863 -0.0258291457
  vertex -0.135766611 -0.0042832843 -0.0258291457
  endloop
 endfacet

 facet normal 0 0 1
  outer loop
  vertex -0.141364291 -0.00578210969 -0.0258291457
  vertex -0.135766611 -0.0042832843 -0.0258291457
  vertex -0.135907561 -0.00406186702 -0.0258291457
  endloop
 endfacet

 facet normal 0 0 1
  outer loop
  vertex -0.141364291 -0.00578210969 -0.0258291457
  vertex -0.135907561 -0.00406186702 -0.0258291457
  vertex -0.13606672 -0.00385454507 -0.0258291457
  endloop
 endfacet

 facet normal 0 0 1
  outer loop
  vertex -0.141364291 -0.00578210969 -0.0258291457
  vertex -0.13606672 -0.00385454507 -0.0258291457
  vertex -0.136243507 -0.00366131868 -0.0258291457
  endloop
 endfacet

 facet normal 0 0 1
  outer loop
  vertex -0.141364291 -0.00578210969 -0.0258291457
  vertex -0.136243507 -0.00366131868 -0.0258291457
  vertex -0.136436731 -0.00348512433 -0.0258291457
  endloop
 endfacet

 facet normal 0 0 1
  outer loop
  vertex -0.141364291 -0.00578210969 -0.0258291457
  vertex -0.136436731 -0.00348512433 -0.0258291457
  vertex -0.13664405 -0.00332537526 -0.0258291457
  endloop
 endfacet

 facet normal 0 0 1
  outer loop
  vertex -0.141364291 -0.00578210969 -0.0258291457
  vertex -0.13664405 -0.00332537526 -0.0258291457
  vertex -0.13686429 -0.00318500702 -0.0258291457
  endloop
 endfacet

 facet normal 0 0 1
  outer loop
  vertex -0.141364291 -0.00578210969 -0.0258291457
  vertex -0.13686429 -0.00318500702 -0.0258291457
  vertex -0.137096286 -0.003064021 -0.0258291457
  endloop
 endfacet

 facet normal 0 0 1
  outer loop
  vertex -0.141364291 -0.00578210969 -0.0258291457
  vertex -0.137096286 -0.003064021 -0.0258291457
  vertex -0.137338251 -0.00296358997 -0.0258291457
  endloop
 endfacet

 facet normal 0 0 1
  outer loop
  vertex -0.141364291 -0.00578210969 -0.0258291457
  vertex -0.137338251 -0.00296358997 -0.0258291457
  vertex -0.13758786 -0.00288488972 -0.0258291457
  endloop
 endfacet

 facet normal 0 0 1
  outer loop
  vertex -0.141364291 -0.00578210969 -0.0258291457
  vertex -0.13758786 -0.00288488972 -0.0258291457
  vertex -0.137843341 -0.00282792072 -0.0258291457
  endloop
 endfacet

 facet normal 0 0 1
  outer loop
  vertex -0.141364291 -0.00578210969 -0.0258291457
  vertex -0.137843341 -0.00282792072 -0.0258291457
  vertex -0.138102934 -0.0027944434 -0.0258291457
  endloop
 endfacet

 facet normal 0 0 1
  outer loop
  vertex -0.141364291 -0.00578210969 -0.0258291457
  vertex -0.138102934 -0.0027944434 -0.0258291457
  vertex -0.138161674 -0.0027915067 -0.0258291457
  endloop
 endfacet

 facet normal 0 0 1
  outer loop
  vertex -0.141364291 -0.00578210969 -0.0258291457
  vertex -0.138161674 -0.0027915067 -0.0258291457
  vertex -0.1383643 -0.00278210989 -0.0258291457
  endloop
 endfacet

 facet normal 0 0 1
  outer loop
  vertex -0.141364291 -0.00578210969 -0.0258291457
  vertex -0.1383643 -0.00278210989 -0.0258291457
  vertex -0.138625652 -0.0027938562 -0.0258291457
  endloop
 endfacet

 facet normal 0 0 1
  outer loop
  vertex -0.141364291 -0.00578210969 -0.0258291457
  vertex -0.138625652 -0.0027938562 -0.0258291457
  vertex -0.138885245 -0.00282850792 -0.0258291457
  endloop
 endfacet

 facet normal 0 0 1
  outer loop
  vertex -0.141364291 -0.00578210969 -0.0258291457
  vertex -0.138885245 -0.00282850792 -0.0258291457
  vertex -0.139140725 -0.00288488972 -0.0258291457
  endloop
 endfacet

 facet normal 0 0 1
  outer loop
  vertex -0.141364291 -0.00578210969 -0.0258291457
  vertex -0.139140725 -0.00288488972 -0.0258291457
  vertex -0.139390334 -0.00296358997 -0.0258291457
  endloop
 endfacet

 facet normal 0 0 1
  outer loop
  vertex -0.141364291 -0.00578210969 -0.0258291457
  vertex -0.139390334 -0.00296358997 -0.0258291457
  vertex -0.1396323 -0.0030634338 -0.0258291457
  endloop
 endfacet

 facet normal 0 0 1
  outer loop
  vertex -0.141364291 -0.00578210969 -0.0258291457
  vertex -0.1396323 -0.0030634338 -0.0258291457
  vertex -0.1398637 -0.00318441982 -0.0258291457
  endloop
 endfacet

 facet normal 0 0 1
  outer loop
  vertex -0.141364291 -0.00578210969 -0.0258291457
  vertex -0.1398637 -0.00318441982 -0.0258291457
  vertex -0.140084535 -0.00332478806 -0.0258291457
  endloop
 endfacet

 facet normal 0 0 1
  outer loop
  vertex -0.141364291 -0.00578210969 -0.0258291457
  vertex -0.140084535 -0.00332478806 -0.0258291457
  vertex -0.140292451 -0.00348453713 -0.0258291457
  endloop
 endfacet

 facet normal 0 0 1
  outer loop
  vertex -0.141364291 -0.00578210969 -0.0258291457
  vertex -0.140292451 -0.00348453713 -0.0258291457
  vertex -0.140485078 -0.00366131868 -0.0258291457
  endloop
 endfacet

 facet normal 0 0 1
  outer loop
  vertex -0.141364291 -0.00578210969 -0.0258291457
  vertex -0.140485078 -0.00366131868 -0.0258291457
  vertex -0.140661865 -0.00385454507 -0.0258291457
  endloop
 endfacet

 facet normal 0 0 1
  outer loop
  vertex -0.141364291 -0.00578210969 -0.0258291457
  vertex -0.140661865 -0.00385454507 -0.0258291457
  vertex -0.140821621 -0.00406186702 -0.0258291457
  endloop
 endfacet

 facet normal 0 0 1
  outer loop
  vertex -0.141364291 -0.00578210969 -0.0258291457
  vertex -0.140821621 -0.00406186702 -0.0258291457
  vertex -0.140961975 -0.0042826971 -0.0258291457
  endloop
 endfacet

 facet normal 0 0 1
  outer loop
  vertex -0.141364291 -0.00578210969 -0.0258291457
  vertex -0.140961975 -0.0042826971 -0.0258291457
  vertex -0.141082972 -0.0045146863 -0.0258291457
  endloop
 endfacet

 facet normal 0 0 1
  outer loop
  vertex -0.141364291 -0.00578210969 -0.0258291457
  vertex -0.141082972 -0.0045146863 -0.0258291457
  vertex -0.14118281 -0.00475607254 -0.0258291457
  endloop
 endfacet

 facet normal 0 0 1
  outer loop
  vertex -0.141364291 -0.00578210969 -0.0258291457
  vertex -0.14118281 -0.00475607254 -0.0258291457
  vertex -0.141261518 -0.00500568002 -0.0258291457
  endloop
 endfacet

 facet normal 0 0 1
  outer loop
  vertex -0.141364291 -0.00578210969 -0.0258291457
  vertex -0.141261518 -0.00500568002 -0.0258291457
  vertex -0.141318485 -0.0052611623 -0.0258291457
  endloop
 endfacet

 facet normal 0 0 1
  outer loop
  vertex -0.141364291 -0.00578210969 -0.0258291457
  vertex -0.141318485 -0.0052611623 -0.0258291457
  vertex -0.141352549 -0.00552075543 -0.0258291457
  endloop
 endfacet

 facet normal -0.991500199 0.130105942 0
  outer loop
  vertex -0.141352549 -0.00552075543 -0.0296999998
  vertex -0.141352549 -0.00552075543 -0.0258291457
  vertex -0.141318485 -0.0052611623 -0.0258291457
  endloop
 endfacet

 facet normal -0.991500199 0.130105942 0
  outer loop
  vertex -0.141352549 -0.00552075543 -0.0296999998
  vertex -0.141318485 -0.0052611623 -0.0258291457
  vertex -0.141318485 -0.0052611623 -0.0296999998
  endloop
 endfacet

 facet normal -0.976503313 -0.215502724 0
  outer loop
  vertex -0.141317889 -0.00630246988 -0.0296999998
  vertex -0.141261518 -0.00655795215 -0.0296999998
  vertex -0.141261518 -0.00655795215 -0.0258291457
  endloop
 endfacet

 facet normal -0.976503313 -0.215502724 0
  outer loop
  vertex -0.141317889 -0.00630246988 -0.0296999998
  vertex -0.141261518 -0.00655795215 -0.0258291457
  vertex -0.141317889 -0.00630246988 -0.0258291457
  endloop
 endfacet

 facet normal -0.976028562 0.217642576 0
  outer loop
  vertex -0.141318485 -0.0052611623 -0.0296999998
  vertex -0.141318485 -0.0052611623 -0.0258291457
  vertex -0.141261518 -0.00500568002 -0.0258291457
  endloop
 endfacet

 facet normal -0.976028562 0.217642576 0
  outer loop
  vertex -0.141318485 -0.0052611623 -0.0296999998
  vertex -0.141261518 -0.00500568002 -0.0258291457
  vertex -0.141261518 -0.00500568002 -0.0296999998
  endloop
 endfacet

 facet normal -0.953717887 -0.30070281 0
  outer loop
  vertex -0.141261518 -0.00655795215 -0.0296999998
  vertex -0.14118281 -0.00680755964 -0.0296999998
  vertex -0.14118281 -0.00680755964 -0.0258291457
  endloop
 endfacet

 facet normal -0.953717887 -0.30070281 0
  outer loop
  vertex -0.141261518 -0.00655795215 -0.0296999998
  vertex -0.14118281 -0.00680755964 -0.0258291457
  vertex -0.141261518 -0.00655795215 -0.0258291457
  endloop
 endfacet

 facet normal -0.953717887 0.30070281 0
  outer loop
  vertex -0.141261518 -0.00500568002 -0.0296999998
  vertex -0.141261518 -0.00500568002 -0.0258291457
  vertex -0.14118281 -0.00475607254 -0.0258291457
  endloop
 endfacet

 facet normal -0.953717887 0.30070281 0
  outer loop
  vertex -0.141261518 -0.00500568002 -0.0296999998
  vertex -0.14118281 -0.00475607254 -0.0258291457
  vertex -0.14118281 -0.00475607254 -0.0296999998
  endloop
 endfacet

 facet normal -0.923606873 -0.383341074 0
  outer loop
  vertex -0.14118281 -0.00680755964 -0.0296999998
  vertex -0.141082376 -0.00704953354 -0.0296999998
  vertex -0.141082376 -0.00704953354 -0.0258291457
  endloop
 endfacet

 facet normal -0.923606873 -0.383341074 0
  outer loop
  vertex -0.14118281 -0.00680755964 -0.0296999998
  vertex -0.141082376 -0.00704953354 -0.0258291457
  vertex -0.14118281 -0.00680755964 -0.0258291457
  endloop
 endfacet

 facet normal -0.924071729 0.382219076 0
  outer loop
  vertex -0.14118281 -0.00475607254 -0.0296999998
  vertex -0.14118281 -0.00475607254 -0.0258291457
  vertex -0.141082972 -0.0045146863 -0.0258291457
  endloop
 endfacet

 facet normal -0.924071729 0.382219076 0
  outer loop
  vertex -0.14118281 -0.00475607254 -0.0296999998
  vertex -0.141082972 -0.0045146863 -0.0258291457
  vertex -0.141082972 -0.0045146863 -0.0296999998
  endloop
 endfacet

 facet normal -0.887583971 -0.460645854 0
  outer loop
  vertex -0.141082376 -0.00704953354 -0.0296999998
  vertex -0.140961975 -0.0072815218 -0.0296999998
  vertex -0.140961975 -0.0072815218 -0.0258291457
  endloop
 endfacet

 facet normal -0.887583971 -0.460645854 0
  outer loop
  vertex -0.141082376 -0.00704953354 -0.0296999998
  vertex -0.140961975 -0.0072815218 -0.0258291457
  vertex -0.141082376 -0.00704953354 -0.0258291457
  endloop
 endfacet

 facet normal -0.886665225 0.462412059 0
  outer loop
  vertex -0.141082972 -0.0045146863 -0.0296999998
  vertex -0.141082972 -0.0045146863 -0.0258291457
  vertex -0.140961975 -0.0042826971 -0.0258291457
  endloop
 endfacet

 facet normal -0.886665225 0.462412059 0
  outer loop
  vertex -0.141082972 -0.0045146863 -0.0296999998
  vertex -0.140961975 -0.0042826971 -0.0258291457
  vertex -0.140961975 -0.0042826971 -0.0296999998
  endloop
 endfacet

 facet normal -0.842271507 -0.539053559 0
  outer loop
  vertex -0.140961975 -0.0072815218 -0.0296999998
  vertex -0.140821025 -0.00750176469 -0.0296999998
  vertex -0.140821025 -0.00750176469 -0.0258291457
  endloop
 endfacet

 facet normal -0.842271507 -0.539053559 0
  outer loop
  vertex -0.140961975 -0.0072815218 -0.0296999998
  vertex -0.140821025 -0.00750176469 -0.0258291457
  vertex -0.140961975 -0.0072815218 -0.0258291457
  endloop
 endfacet

 facet normal -0.84393847 0.536439955 0
  outer loop
  vertex -0.140961975 -0.0042826971 -0.0296999998
  vertex -0.140961975 -0.0042826971 -0.0258291457
  vertex -0.140821621 -0.00406186702 -0.0258291457
  endloop
 endfacet

 facet normal -0.84393847 0.536439955 0
  outer loop
  vertex -0.140961975 -0.0042826971 -0.0296999998
  vertex -0.140821621 -0.00406186702 -0.0258291457
  vertex -0.140821621 -0.00406186702 -0.0296999998
  endloop
 endfacet

 facet normal -0.794040442 -0.607864976 0
  outer loop
  vertex -0.140821025 -0.00750176469 -0.0296999998
  vertex -0.140661865 -0.00770967454 -0.0296999998
  vertex -0.140661865 -0.00770967454 -0.0258291457
  endloop
 endfacet

 facet normal -0.794040442 -0.607864976 0
  outer loop
  vertex -0.140821025 -0.00750176469 -0.0296999998
  vertex -0.140661865 -0.00770967454 -0.0258291457
  vertex -0.140821025 -0.00750176469 -0.0258291457
  endloop
 endfacet

 facet normal -0.792123675 0.610360742 0
  outer loop
  vertex -0.140821621 -0.00406186702 -0.0296999998
  vertex -0.140821621 -0.00406186702 -0.0258291457
  vertex -0.140661865 -0.00385454507 -0.0258291457
  endloop
 endfacet

 facet normal -0.792123675 0.610360742 0
  outer loop
  vertex -0.140821621 -0.00406186702 -0.0296999998
  vertex -0.140661865 -0.00385454507 -0.0258291457
  vertex -0.140661865 -0.00385454507 -0.0296999998
  endloop
 endfacet

 facet normal -0.736780167 -0.676132381 0
  outer loop
  vertex -0.140661865 -0.00770967454 -0.0296999998
  vertex -0.140485078 -0.00790231302 -0.0296999998
  vertex -0.140485078 -0.00790231302 -0.0258291457
  endloop
 endfacet

 facet normal -0.736780167 -0.676132381 0
  outer loop
  vertex -0.140661865 -0.00770967454 -0.0296999998
  vertex -0.140485078 -0.00790231302 -0.0258291457
  vertex -0.140661865 -0.00770967454 -0.0258291457
  endloop
 endfacet

 facet normal -0.737805545 0.675013423 0
  outer loop
  vertex -0.140661865 -0.00385454507 -0.0296999998
  vertex -0.140661865 -0.00385454507 -0.0258291457
  vertex -0.140485078 -0.00366131868 -0.0258291457
  endloop
 endfacet

 facet normal -0.737805545 0.675013423 0
  outer loop
  vertex -0.140661865 -0.00385454507 -0.0296999998
  vertex -0.140485078 -0.00366131868 -0.0258291457
  vertex -0.140485078 -0.00366131868 -0.0296999998
  endloop
 endfacet

 facet normal -0.676133156 -0.736779451 0
  outer loop
  vertex -0.140485078 -0.00790231302 -0.0296999998
  vertex -0.140292451 -0.00807909481 -0.0296999998
  vertex -0.140292451 -0.00807909481 -0.0258291457
  endloop
 endfacet

 facet normal -0.676133156 -0.736779451 0
  outer loop
  vertex -0.140485078 -0.00790231302 -0.0296999998
  vertex -0.140292451 -0.00807909481 -0.0258291457
  vertex -0.140485078 -0.00790231302 -0.0258291457
  endloop
 endfacet

 facet normal -0.676131845 0.736780763 0
  outer loop
  vertex -0.140485078 -0.00366131868 -0.0296999998
  vertex -0.140485078 -0.00366131868 -0.0258291457
  vertex -0.140292451 -0.00348453713 -0.0258291457
  endloop
 endfacet

 facet normal -0.676131845 0.736780763 0
  outer loop
  vertex -0.140485078 -0.00366131868 -0.0296999998
  vertex -0.140292451 -0.00348453713 -0.0258291457
  vertex -0.140292451 -0.00348453713 -0.0296999998
  endloop
 endfacet

 facet normal -0.607865691 -0.794039905 0
  outer loop
  vertex -0.140292451 -0.00807909481 -0.0296999998
  vertex -0.140084535 -0.00823825691 -0.0296999998
  vertex -0.140084535 -0.00823825691 -0.0258291457
  endloop
 endfacet

 facet normal -0.607865691 -0.794039905 0
  outer loop
  vertex -0.140292451 -0.00807909481 -0.0296999998
  vertex -0.140084535 -0.00823825691 -0.0258291457
  vertex -0.140292451 -0.00807909481 -0.0258291457
  endloop
 endfacet

 facet normal -0.609276772 0.792957664 0
  outer loop
  vertex -0.140292451 -0.00348453713 -0.0296999998
  vertex -0.140292451 -0.00348453713 -0.0258291457
  vertex -0.140084535 -0.00332478806 -0.0258291457
  endloop
 endfacet

 facet normal -0.609276772 0.792957664 0
  outer loop
  vertex -0.140292451 -0.00348453713 -0.0296999998
  vertex -0.140084535 -0.00332478806 -0.0258291457
  vertex -0.140084535 -0.00332478806 -0.0296999998
  endloop
 endfacet

 facet normal -0.538035989 -0.842921913 0
  outer loop
  vertex -0.140084535 -0.00823825691 -0.0296999998
  vertex -0.1398637 -0.00837921258 -0.0296999998
  vertex -0.1398637 -0.00837921258 -0.0258291457
  endloop
 endfacet

 facet normal -0.538035989 -0.842921913 0
  outer loop
  vertex -0.140084535 -0.00823825691 -0.0296999998
  vertex -0.1398637 -0.00837921258 -0.0258291457
  vertex -0.140084535 -0.00823825691 -0.0258291457
  endloop
 endfacet

 facet normal -0.536440432 0.843938112 0
  outer loop
  vertex -0.140084535 -0.00332478806 -0.0296999998
  vertex -0.140084535 -0.00332478806 -0.0258291457
  vertex -0.1398637 -0.00318441982 -0.0258291457
  endloop
 endfacet

 facet normal -0.536440432 0.843938112 0
  outer loop
  vertex -0.140084535 -0.00332478806 -0.0296999998
  vertex -0.1398637 -0.00318441982 -0.0258291457
  vertex -0.1398637 -0.00318441982 -0.0296999998
  endloop
 endfacet

 facet normal -0.463333219 -0.886184156 0
  outer loop
  vertex -0.1398637 -0.00837921258 -0.0296999998
  vertex -0.1396323 -0.00850019883 -0.0296999998
  vertex -0.1396323 -0.00850019883 -0.0258291457
  endloop
 endfacet

 facet normal -0.463333219 -0.886184156 0
  outer loop
  vertex -0.1398637 -0.00837921258 -0.0296999998
  vertex -0.1396323 -0.00850019883 -0.0258291457
  vertex -0.1398637 -0.00837921258 -0.0258291457
  endloop
 endfacet

 facet normal -0.463333219 0.886184156 0
  outer loop
  vertex -0.1398637 -0.00318441982 -0.0296999998
  vertex -0.1398637 -0.00318441982 -0.0258291457
  vertex -0.1396323 -0.0030634338 -0.0258291457
  endloop
 endfacet

 facet normal -0.463333219 0.886184156 0
  outer loop
  vertex -0.1398637 -0.00318441982 -0.0296999998
  vertex -0.1396323 -0.0030634338 -0.0258291457
  vertex -0.1396323 -0.0030634338 -0.0296999998
  endloop
 endfacet

 facet normal -0.381428421 -0.924398363 0
  outer loop
  vertex -0.1396323 -0.00850019883 -0.0296999998
  vertex -0.139390334 -0.0086000422 -0.0296999998
  vertex -0.139390334 -0.0086000422 -0.0258291457
  endloop
 endfacet

 facet normal -0.381428421 -0.924398363 0
  outer loop
  vertex -0.1396323 -0.00850019883 -0.0296999998
  vertex -0.139390334 -0.0086000422 -0.0258291457
  vertex -0.1396323 -0.00850019883 -0.0258291457
  endloop
 endfacet

 facet normal -0.381428421 0.924398363 0
  outer loop
  vertex -0.1396323 -0.0030634338 -0.0296999998
  vertex -0.1396323 -0.0030634338 -0.0258291457
  vertex -0.139390334 -0.00296358997 -0.0258291457
  endloop
 endfacet

 facet normal -0.381428421 0.924398363 0
  outer loop
  vertex -0.1396323 -0.0030634338 -0.0296999998
  vertex -0.139390334 -0.00296358997 -0.0258291457
  vertex -0.139390334 -0.00296358997 -0.0296999998
  endloop
 endfacet

 facet normal -0.300701797 -0.953718185 0
  outer loop
  vertex -0.139390334 -0.0086000422 -0.0296999998
  vertex -0.139140725 -0.00867874268 -0.0296999998
  vertex -0.139140725 -0.00867874268 -0.0258291457
  endloop
 endfacet

 facet normal -0.300701797 -0.953718185 0
  outer loop
  vertex -0.139390334 -0.0086000422 -0.0296999998
  vertex -0.139140725 -0.00867874268 -0.0258291457
  vertex -0.139390334 -0.0086000422 -0.0258291457
  endloop
 endfacet

 facet normal -0.300701797 0.953718185 0
  outer loop
  vertex -0.139390334 -0.00296358997 -0.0296999998
  vertex -0.139390334 -0.00296358997 -0.0258291457
  vertex -0.139140725 -0.00288488972 -0.0258291457
  endloop
 endfacet

 facet normal -0.300701797 0.953718185 0
  outer loop
  vertex -0.139390334 -0.00296358997 -0.0296999998
  vertex -0.139140725 -0.00288488972 -0.0258291457
  vertex -0.139140725 -0.00288488972 -0.0296999998
  endloop
 endfacet

 facet normal -0.217642069 -0.976028681 0
  outer loop
  vertex -0.139140725 -0.00867874268 -0.0296999998
  vertex -0.138885245 -0.00873571169 -0.0296999998
  vertex -0.138885245 -0.00873571169 -0.0258291457
  endloop
 endfacet

 facet normal -0.217642069 -0.976028681 0
  outer loop
  vertex -0.139140725 -0.00867874268 -0.0296999998
  vertex -0.138885245 -0.00873571169 -0.0258291457
  vertex -0.139140725 -0.00867874268 -0.0258291457
  endloop
 endfacet

 facet normal -0.215503439 0.976503193 0
  outer loop
  vertex -0.139140725 -0.00288488972 -0.0296999998
  vertex -0.139140725 -0.00288488972 -0.0258291457
  vertex -0.138885245 -0.00282850792 -0.0258291457
  endloop
 endfacet

 facet normal -0.215503439 0.976503193 0
  outer loop
  vertex -0.139140725 -0.00288488972 -0.0296999998
  vertex -0.138885245 -0.00282850792 -0.0258291457
  vertex -0.138885245 -0.00282850792 -0.0296999998
  endloop
 endfacet

 facet normal -0.130394757 -0.99146229 0
  outer loop
  vertex -0.138885245 -0.00873571169 -0.0296999998
  vertex -0.138626233 -0.00876977574 -0.0296999998
  vertex -0.138626233 -0.00876977574 -0.0258291457
  endloop
 endfacet

 facet normal -0.130394757 -0.99146229 0
  outer loop
  vertex -0.138885245 -0.00873571169 -0.0296999998
  vertex -0.138626233 -0.00876977574 -0.0258291457
  vertex -0.138885245 -0.00873571169 -0.0258291457
  endloop
 endfacet

 facet normal -0.13231115 0.991208255 0
  outer loop
  vertex -0.138885245 -0.00282850792 -0.0296999998
  vertex -0.138885245 -0.00282850792 -0.0258291457
  vertex -0.138625652 -0.0027938562 -0.0258291457
  endloop
 endfacet

 facet normal -0.13231115 0.991208255 0
  outer loop
  vertex -0.138885245 -0.00282850792 -0.0296999998
  vertex -0.138625652 -0.0027938562 -0.0258291457
  vertex -0.138625652 -0.0027938562 -0.0296999998
  endloop
 endfacet

 facet normal -0.0470353477 -0.998893321 0
  outer loop
  vertex -0.138626233 -0.00876977574 -0.0296999998
  vertex -0.1383643 -0.00878210925 -0.0296999998
  vertex -0.138626233 -0.00876977574 -0.0258291457
  endloop
 endfacet

 facet normal -0.0448985547 0.998991609 0
  outer loop
  vertex -0.138625652 -0.0027938562 -0.0296999998
  vertex -0.138625652 -0.0027938562 -0.0258291457
  vertex -0.1383643 -0.00278210989 -0.0258291457
  endloop
 endfacet

 facet normal -0.0448985547 0.998991609 0
  outer loop
  vertex -0.138625652 -0.0027938562 -0.0296999998
  vertex -0.1383643 -0.00278210989 -0.0258291457
  vertex -0.1383643 -0.00278210989 -0.0296999998
  endloop
 endfacet

 facet normal -0.0449011363 -0.998991549 0.000144735444
  outer loop
  vertex -0.138626233 -0.00876977574 -0.0258291457
  vertex -0.1383643 -0.00878210925 -0.0296999998
  vertex -0.138364881 -0.00878152251 -0.0258291457
  endloop
 endfacet

 facet normal 0.0449011438 -0.998991549 0
  outer loop
  vertex -0.1383643 -0.00878210925 -0.0296999998
  vertex -0.138102934 -0.00877036247 -0.0296999998
  vertex -0.138102934 -0.00877036247 -0.0258291457
  endloop
 endfacet

 facet normal 0.0429498106 -0.99907726 0.000132011221
  outer loop
  vertex -0.1383643 -0.00878210925 -0.0296999998
  vertex -0.138102934 -0.00877036247 -0.0258291457
  vertex -0.138362527 -0.00878152251 -0.0258291457
  endloop
 endfacet

 facet normal 0 -1 0.000151701155
  outer loop
  vertex -0.1383643 -0.00878210925 -0.0296999998
  vertex -0.138362527 -0.00878152251 -0.0258291457
  vertex -0.138364881 -0.00878152251 -0.0258291457
  endloop
 endfacet

 facet normal 0.0463257544 0.998926401 0
  outer loop
  vertex -0.1383643 -0.00278210989 -0.0296999998
  vertex -0.1383643 -0.00278210989 -0.0258291457
  vertex -0.138161674 -0.0027915067 -0.0258291457
  endloop
 endfacet

 facet normal 0.0463257544 0.998926401 0
  outer loop
  vertex -0.1383643 -0.00278210989 -0.0296999998
  vertex -0.138161674 -0.0027915067 -0.0258291457
  vertex -0.138161674 -0.0027915067 -0.0296999998
  endloop
 endfacet

 facet normal 0.132308632 -0.991208673 0
  outer loop
  vertex -0.138102934 -0.00877036247 -0.0296999998
  vertex -0.137843341 -0.00873571169 -0.0296999998
  vertex -0.137843341 -0.00873571169 -0.0258291457
  endloop
 endfacet

 facet normal 0.132308632 -0.991208673 0
  outer loop
  vertex -0.138102934 -0.00877036247 -0.0296999998
  vertex -0.137843341 -0.00873571169 -0.0258291457
  vertex -0.138102934 -0.00877036247 -0.0258291457
  endloop
 endfacet

 facet normal 0.0499405414 0.998752236 0
  outer loop
  vertex -0.138161674 -0.0027915067 -0.0296999998
  vertex -0.138161674 -0.0027915067 -0.0258291457
  vertex -0.138102934 -0.0027944434 -0.0258291457
  endloop
 endfacet

 facet normal 0.0499405414 0.998752236 0
  outer loop
  vertex -0.138161674 -0.0027915067 -0.0296999998
  vertex -0.138102934 -0.0027944434 -0.0258291457
  vertex -0.138102934 -0.0027944434 -0.0296999998
  endloop
 endfacet

 facet normal 0.215503439 -0.976503193 0
  outer loop
  vertex -0.137843341 -0.00873571169 -0.0296999998
  vertex -0.13758786 -0.00867932942 -0.0296999998
  vertex -0.13758786 -0.00867932942 -0.0258291457
  endloop
 endfacet

 facet normal 0.215503439 -0.976503193 0
  outer loop
  vertex -0.137843341 -0.00873571169 -0.0296999998
  vertex -0.13758786 -0.00867932942 -0.0258291457
  vertex -0.137843341 -0.00873571169 -0.0258291457
  endloop
 endfacet

 facet normal 0.127901465 0.991786897 0
  outer loop
  vertex -0.138102934 -0.0027944434 -0.0296999998
  vertex -0.138102934 -0.0027944434 -0.0258291457
  vertex -0.137843341 -0.00282792072 -0.0258291457
  endloop
 endfacet

 facet normal 0.127901465 0.991786897 0
  outer loop
  vertex -0.138102934 -0.0027944434 -0.0296999998
  vertex -0.137843341 -0.00282792072 -0.0258291457
  vertex -0.137843341 -0.00282792072 -0.0296999998
  endloop
 endfacet

 facet normal 0.300701797 -0.953718185 0
  outer loop
  vertex -0.13758786 -0.00867932942 -0.0296999998
  vertex -0.137338251 -0.00860062987 -0.0296999998
  vertex -0.137338251 -0.00860062987 -0.0258291457
  endloop
 endfacet

 facet normal 0.300701797 -0.953718185 0
  outer loop
  vertex -0.13758786 -0.00867932942 -0.0296999998
  vertex -0.137338251 -0.00860062987 -0.0258291457
  vertex -0.13758786 -0.00867932942 -0.0258291457
  endloop
 endfacet

 facet normal 0.217642069 0.976028681 0
  outer loop
  vertex -0.137843341 -0.00282792072 -0.0296999998
  vertex -0.137843341 -0.00282792072 -0.0258291457
  vertex -0.13758786 -0.00288488972 -0.0258291457
  endloop
 endfacet

 facet normal 0.217642069 0.976028681 0
  outer loop
  vertex -0.137843341 -0.00282792072 -0.0296999998
  vertex -0.13758786 -0.00288488972 -0.0258291457
  vertex -0.13758786 -0.00288488972 -0.0296999998
  endloop
 endfacet

 facet normal 0.384138077 -0.923275769 0
  outer loop
  vertex -0.137338251 -0.00860062987 -0.0296999998
  vertex -0.137096867 -0.00850019883 -0.0296999998
  vertex -0.137096867 -0.00850019883 -0.0258291457
  endloop
 endfacet

 facet normal 0.384138077 -0.923275769 0
  outer loop
  vertex -0.137338251 -0.00860062987 -0.0296999998
  vertex -0.137096867 -0.00850019883 -0.0258291457
  vertex -0.137338251 -0.00860062987 -0.0258291457
  endloop
 endfacet

 facet normal 0.300701797 0.953718185 0
  outer loop
  vertex -0.13758786 -0.00288488972 -0.0296999998
  vertex -0.13758786 -0.00288488972 -0.0258291457
  vertex -0.137338251 -0.00296358997 -0.0258291457
  endloop
 endfacet

 facet normal 0.300701797 0.953718185 0
  outer loop
  vertex -0.13758786 -0.00288488972 -0.0296999998
  vertex -0.137338251 -0.00296358997 -0.0258291457
  vertex -0.137338251 -0.00296358997 -0.0296999998
  endloop
 endfacet

 facet normal 0.460644096 -0.887584925 0
  outer loop
  vertex -0.137096867 -0.00850019883 -0.0296999998
  vertex -0.136864886 -0.00837979931 -0.0296999998
  vertex -0.136864886 -0.00837979931 -0.0258291457
  endloop
 endfacet

 facet normal 0.460644096 -0.887584925 0
  outer loop
  vertex -0.137096867 -0.00850019883 -0.0296999998
  vertex -0.136864886 -0.00837979931 -0.0258291457
  vertex -0.137096867 -0.00850019883 -0.0258291457
  endloop
 endfacet

 facet normal 0.383342922 0.923606217 0
  outer loop
  vertex -0.137338251 -0.00296358997 -0.0296999998
  vertex -0.137338251 -0.00296358997 -0.0258291457
  vertex -0.137096286 -0.003064021 -0.0258291457
  endloop
 endfacet

 facet normal 0.383342922 0.923606217 0
  outer loop
  vertex -0.137338251 -0.00296358997 -0.0296999998
  vertex -0.137096286 -0.003064021 -0.0258291457
  vertex -0.137096286 -0.003064021 -0.0296999998
  endloop
 endfacet

 facet normal 0.538035989 -0.842921913 0
  outer loop
  vertex -0.136864886 -0.00837979931 -0.0296999998
  vertex -0.13664405 -0.00823884364 -0.0296999998
  vertex -0.13664405 -0.00823884364 -0.0258291457
  endloop
 endfacet

 facet normal 0.538035989 -0.842921913 0
  outer loop
  vertex -0.136864886 -0.00837979931 -0.0296999998
  vertex -0.13664405 -0.00823884364 -0.0258291457
  vertex -0.136864886 -0.00837979931 -0.0258291457
  endloop
 endfacet

 facet normal 0.462411135 0.886665702 0
  outer loop
  vertex -0.137096286 -0.003064021 -0.0296999998
  vertex -0.137096286 -0.003064021 -0.0258291457
  vertex -0.13686429 -0.00318500702 -0.0258291457
  endloop
 endfacet

 facet normal 0.462411135 0.886665702 0
  outer loop
  vertex -0.137096286 -0.003064021 -0.0296999998
  vertex -0.13686429 -0.00318500702 -0.0258291457
  vertex -0.13686429 -0.00318500702 -0.0296999998
  endloop
 endfacet

 facet normal 0.60894984 -0.793208778 0
  outer loop
  vertex -0.13664405 -0.00823884364 -0.0296999998
  vertex -0.136436731 -0.00807968248 -0.0296999998
  vertex -0.136436731 -0.00807968248 -0.0258291457
  endloop
 endfacet

 facet normal 0.60894984 -0.793208778 0
  outer loop
  vertex -0.13664405 -0.00823884364 -0.0296999998
  vertex -0.136436731 -0.00807968248 -0.0258291457
  vertex -0.13664405 -0.00823884364 -0.0258291457
  endloop
 endfacet

 facet normal 0.537458301 0.843290329 0
  outer loop
  vertex -0.13686429 -0.00318500702 -0.0296999998
  vertex -0.13686429 -0.00318500702 -0.0258291457
  vertex -0.13664405 -0.00332537526 -0.0258291457
  endloop
 endfacet

 facet normal 0.537458301 0.843290329 0
  outer loop
  vertex -0.13686429 -0.00318500702 -0.0296999998
  vertex -0.13664405 -0.00332537526 -0.0258291457
  vertex -0.13664405 -0.00332537526 -0.0296999998
  endloop
 endfacet

 facet normal 0.676132858 -0.736779809 0
  outer loop
  vertex -0.136436731 -0.00807968248 -0.0296999998
  vertex -0.136244088 -0.00790289976 -0.0296999998
  vertex -0.136244088 -0.00790289976 -0.0258291457
  endloop
 endfacet

 facet normal 0.676132858 -0.736779809 0
  outer loop
  vertex -0.136436731 -0.00807968248 -0.0296999998
  vertex -0.136244088 -0.00790289976 -0.0258291457
  vertex -0.136436731 -0.00807968248 -0.0258291457
  endloop
 endfacet

 facet normal 0.610360503 0.792123795 0
  outer loop
  vertex -0.13664405 -0.00332537526 -0.0296999998
  vertex -0.13664405 -0.00332537526 -0.0258291457
  vertex -0.136436731 -0.00348512433 -0.0258291457
  endloop
 endfacet

 facet normal 0.610360503 0.792123795 0
  outer loop
  vertex -0.13664405 -0.00332537526 -0.0296999998
  vertex -0.136436731 -0.00348512433 -0.0258291457
  vertex -0.136436731 -0.00348512433 -0.0296999998
  endloop
 endfacet

 facet normal 0.736688316 -0.676232457 0
  outer loop
  vertex -0.136244088 -0.00790289976 -0.0296999998
  vertex -0.13606672 -0.00770967454 -0.0296999998
  vertex -0.13606672 -0.00770967454 -0.0258291457
  endloop
 endfacet

 facet normal 0.736688316 -0.676232457 0
  outer loop
  vertex -0.136244088 -0.00790289976 -0.0296999998
  vertex -0.13606672 -0.00770967454 -0.0258291457
  vertex -0.136244088 -0.00790289976 -0.0258291457
  endloop
 endfacet

 facet normal 0.673790395 0.738922536 0
  outer loop
  vertex -0.136436731 -0.00348512433 -0.0296999998
  vertex -0.136436731 -0.00348512433 -0.0258291457
  vertex -0.136243507 -0.00366131868 -0.0258291457
  endloop
 endfacet

 facet normal 0.673790395 0.738922536 0
  outer loop
  vertex -0.136436731 -0.00348512433 -0.0296999998
  vertex -0.136243507 -0.00366131868 -0.0258291457
  vertex -0.136243507 -0.00366131868 -0.0296999998
  endloop
 endfacet

 facet normal 0.793207645 -0.608951271 0
  outer loop
  vertex -0.13606672 -0.00770967454 -0.0296999998
  vertex -0.135907561 -0.00750235328 -0.0296999998
  vertex -0.135907561 -0.00750235328 -0.0258291457
  endloop
 endfacet

 facet normal 0.793207645 -0.608951271 0
  outer loop
  vertex -0.13606672 -0.00770967454 -0.0296999998
  vertex -0.135907561 -0.00750235328 -0.0258291457
  vertex -0.13606672 -0.00770967454 -0.0258291457
  endloop
 endfacet

 facet normal 0.737805545 0.675013423 0
  outer loop
  vertex -0.136243507 -0.00366131868 -0.0296999998
  vertex -0.136243507 -0.00366131868 -0.0258291457
  vertex -0.13606672 -0.00385454507 -0.0258291457
  endloop
 endfacet

 facet normal 0.737805545 0.675013423 0
  outer loop
  vertex -0.136243507 -0.00366131868 -0.0296999998
  vertex -0.13606672 -0.00385454507 -0.0258291457
  vertex -0.13606672 -0.00385454507 -0.0296999998
  endloop
 endfacet

 facet normal 0.843940258 -0.536437213 0
  outer loop
  vertex -0.135907561 -0.00750235328 -0.0296999998
  vertex -0.135767192 -0.0072815218 -0.0296999998
  vertex -0.135767192 -0.0072815218 -0.0258291457
  endloop
 endfacet

 facet normal 0.843940258 -0.536437213 0
  outer loop
  vertex -0.135907561 -0.00750235328 -0.0296999998
  vertex -0.135767192 -0.0072815218 -0.0258291457
  vertex -0.135907561 -0.00750235328 -0.0258291457
  endloop
 endfacet

 facet normal 0.793208599 0.608950019 0
  outer loop
  vertex -0.13606672 -0.00385454507 -0.0296999998
  vertex -0.13606672 -0.00385454507 -0.0258291457
  vertex -0.135907561 -0.00406186702 -0.0258291457
  endloop
 endfacet

 facet normal 0.793208599 0.608950019 0
  outer loop
  vertex -0.13606672 -0.00385454507 -0.0296999998
  vertex -0.135907561 -0.00406186702 -0.0258291457
  vertex -0.135907561 -0.00406186702 -0.0296999998
  endloop
 endfacet

 facet normal 0.886664391 -0.462413639 0
  outer loop
  vertex -0.135767192 -0.0072815218 -0.0296999998
  vertex -0.135646209 -0.00704953354 -0.0296999998
  vertex -0.135646209 -0.00704953354 -0.0258291457
  endloop
 endfacet

 facet normal 0.886664391 -0.462413639 0
  outer loop
  vertex -0.135767192 -0.0072815218 -0.0296999998
  vertex -0.135646209 -0.00704953354 -0.0258291457
  vertex -0.135767192 -0.0072815218 -0.0258291457
  endloop
 endfacet

 facet normal 0.843569219 0.537020445 0
  outer loop
  vertex -0.135907561 -0.00406186702 -0.0296999998
  vertex -0.135907561 -0.00406186702 -0.0258291457
  vertex -0.135766611 -0.0042832843 -0.0258291457
  endloop
 endfacet

 facet normal 0.843569219 0.537020445 0
  outer loop
  vertex -0.135907561 -0.00406186702 -0.0296999998
  vertex -0.135766611 -0.0042832843 -0.0258291457
  vertex -0.135766611 -0.0042832843 -0.0296999998
  endloop
 endfacet

 facet normal 0.923606873 -0.383341074 0
  outer loop
  vertex -0.135646209 -0.00704953354 -0.0296999998
  vertex -0.135545775 -0.00680755964 -0.0296999998
  vertex -0.135545775 -0.00680755964 -0.0258291457
  endloop
 endfacet

 facet normal 0.923606873 -0.383341074 0
  outer loop
  vertex -0.135646209 -0.00704953354 -0.0296999998
  vertex -0.135545775 -0.00680755964 -0.0258291457
  vertex -0.135646209 -0.00704953354 -0.0258291457
  endloop
 endfacet

 facet normal 0.887106419 0.461564988 0
  outer loop
  vertex -0.135766611 -0.0042832843 -0.0296999998
  vertex -0.135766611 -0.0042832843 -0.0258291457
  vertex -0.135646209 -0.0045146863 -0.0258291457
  endloop
 endfacet

 facet normal 0.887106419 0.461564988 0
  outer loop
  vertex -0.135766611 -0.0042832843 -0.0296999998
  vertex -0.135646209 -0.0045146863 -0.0258291457
  vertex -0.135646209 -0.0045146863 -0.0296999998
  endloop
 endfacet

 facet normal 0.953717887 -0.30070281 0
  outer loop
  vertex -0.135545775 -0.00680755964 -0.0296999998
  vertex -0.135467067 -0.00655795215 -0.0296999998
  vertex -0.135467067 -0.00655795215 -0.0258291457
  endloop
 endfacet

 facet normal 0.953717887 -0.30070281 0
  outer loop
  vertex -0.135545775 -0.00680755964 -0.0296999998
  vertex -0.135467067 -0.00655795215 -0.0258291457
  vertex -0.135545775 -0.00680755964 -0.0258291457
  endloop
 endfacet

 facet normal 0.923606873 0.383341074 0
  outer loop
  vertex -0.135646209 -0.0045146863 -0.0296999998
  vertex -0.135646209 -0.0045146863 -0.0258291457
  vertex -0.135545775 -0.00475665973 -0.0258291457
  endloop
 endfacet

 facet normal 0.923606873 0.383341074 0
  outer loop
  vertex -0.135646209 -0.0045146863 -0.0296999998
  vertex -0.135545775 -0.00475665973 -0.0258291457
  vertex -0.135545775 -0.00475665973 -0.0296999998
  endloop
 endfacet

 facet normal 0.976398647 -0.215976045 0
  outer loop
  vertex -0.135467067 -0.00655795215 -0.0296999998
  vertex -0.135410696 -0.00630305707 -0.0296999998
  vertex -0.135410696 -0.00630305707 -0.0258291457
  endloop
 endfacet

 facet normal 0.976398647 -0.215976045 0
  outer loop
  vertex -0.135467067 -0.00655795215 -0.0296999998
  vertex -0.135410696 -0.00630305707 -0.0258291457
  vertex -0.135467067 -0.00655795215 -0.0258291457
  endloop
 endfacet

 facet normal 0.953717887 0.30070281 0
  outer loop
  vertex -0.135545775 -0.00475665973 -0.0296999998
  vertex -0.135545775 -0.00475665973 -0.0258291457
  vertex -0.135467067 -0.00500626722 -0.0258291457
  endloop
 endfacet

 facet normal 0.953717887 0.30070281 0
  outer loop
  vertex -0.135545775 -0.00475665973 -0.0296999998
  vertex -0.135467067 -0.00500626722 -0.0258291457
  vertex -0.135467067 -0.00500626722 -0.0296999998
  endloop
 endfacet

 facet normal 0.991537869 -0.129818529 0
  outer loop
  vertex -0.135410696 -0.00630305707 -0.0296999998
  vertex -0.135376632 -0.00604287675 -0.0296999998
  vertex -0.135376632 -0.00604287675 -0.0258291457
  endloop
 endfacet

 facet normal 0.991537869 -0.129818529 0
  outer loop
  vertex -0.135410696 -0.00630305707 -0.0296999998
  vertex -0.135376632 -0.00604287675 -0.0258291457
  vertex -0.135410696 -0.00630305707 -0.0258291457
  endloop
 endfacet

 facet normal 0.976398647 0.215976045 0
  outer loop
  vertex -0.135467067 -0.00500626722 -0.0296999998
  vertex -0.135467067 -0.00500626722 -0.0258291457
  vertex -0.135410696 -0.0052611623 -0.0258291457
  endloop
 endfacet

 facet normal 0.976398647 0.215976045 0
  outer loop
  vertex -0.135467067 -0.00500626722 -0.0296999998
  vertex -0.135410696 -0.0052611623 -0.0258291457
  vertex -0.135410696 -0.0052611623 -0.0296999998
  endloop
 endfacet

 facet normal 0.998883367 -0.0472441688 0
  outer loop
  vertex -0.135376632 -0.00604287675 -0.0296999998
  vertex -0.135364294 -0.00578210969 -0.0296999998
  vertex -0.135364294 -0.00578210969 -0.0258291457
  endloop
 endfacet

 facet normal 0.998883367 -0.0472441688 0
  outer loop
  vertex -0.135376632 -0.00604287675 -0.0296999998
  vertex -0.135364294 -0.00578210969 -0.0258291457
  vertex -0.135376632 -0.00604287675 -0.0258291457
  endloop
 endfacet

 facet normal 0.991537869 0.129818529 0
  outer loop
  vertex -0.135410696 -0.0052611623 -0.0296999998
  vertex -0.135410696 -0.0052611623 -0.0258291457
  vertex -0.135376632 -0.00552134262 -0.0258291457
  endloop
 endfacet

 facet normal 0.991537869 0.129818529 0
  outer loop
  vertex -0.135410696 -0.0052611623 -0.0296999998
  vertex -0.135376632 -0.00552134262 -0.0258291457
  vertex -0.135376632 -0.00552134262 -0.0296999998
  endloop
 endfacet

 facet normal 0.998883367 0.0472441688 0
  outer loop
  vertex -0.135364294 -0.00578210969 -0.0296999998
  vertex -0.135376632 -0.00552134262 -0.0296999998
  vertex -0.135376632 -0.00552134262 -0.0258291457
  endloop
 endfacet

 facet normal 0.998883367 0.0472441688 0
  outer loop
  vertex -0.135364294 -0.00578210969 -0.0296999998
  vertex -0.135376632 -0.00552134262 -0.0258291457
  vertex -0.135364294 -0.00578210969 -0.0258291457
  endloop
 endfacet

endsolid AssimpScene
