solid AssimpScene
 facet normal -0.790186524 0 -0.612866521
  outer loop
  vertex -0.133028284 0.00216599018 -0.0257992763
  vertex -0.133028284 0.00578548526 -0.0257992763
  vertex -0.131864324 0.00576777058 -0.0273000002
  endloop
 endfacet

 facet normal -0.790186524 0 -0.612866521
  outer loop
  vertex -0.133028284 0.00216599018 -0.0257992763
  vertex -0.131864324 0.00576777058 -0.0273000002
  vertex -0.131864324 0.0030988534 -0.0273000002
  endloop
 endfacet

 facet normal -0.444672227 -0.56424433 -0.695625722
  outer loop
  vertex -0.133028284 0.00216599018 -0.0257992763
  vertex -0.131864324 0.0030988534 -0.0273000002
  vertex -0.131363511 0.00270416681 -0.0273000002
  endloop
 endfacet

 facet normal 0 -0.941303372 -0.337561965
  outer loop
  vertex -0.133028284 0.00216599018 -0.0257992763
  vertex -0.131363511 0.00270416681 -0.0273000002
  vertex -0.131363511 0.00216599018 -0.0257992763
  endloop
 endfacet

 facet normal 0 -1 0
  outer loop
  vertex -0.133028284 0.00216599018 -0.0257992763
  vertex -0.131363511 0.00216599018 -0.0257992763
  vertex -0.131363511 0.00216599018 0.00299788453
  endloop
 endfacet

 facet normal 0 -1 0
  outer loop
  vertex -0.133028284 0.00216599018 -0.0257992763
  vertex -0.131363511 0.00216599018 0.00299788453
  vertex -0.133028284 0.00216599018 0.00299788453
  endloop
 endfacet

 facet normal -1 0 0
  outer loop
  vertex -0.133028284 0.00216599018 -0.0257992763
  vertex -0.133028284 0.00216599018 0.00299788453
  vertex -0.133028284 0.00416882941 0.00559999887
  endloop
 endfacet

 facet normal -1 0 0
  outer loop
  vertex -0.133028284 0.00216599018 -0.0257992763
  vertex -0.133028284 0.00416882941 0.00559999887
  vertex -0.133028284 0.00578548526 0.00559999887
  endloop
 endfacet

 facet normal -1 0 0
  outer loop
  vertex -0.133028284 0.00216599018 -0.0257992763
  vertex -0.133028284 0.00578548526 0.00559999887
  vertex -0.133028284 0.00578548526 -0.0257992763
  endloop
 endfacet

 facet normal 0 0.999930322 -0.0118033607
  outer loop
  vertex -0.133028284 0.00578548526 -0.0257992763
  vertex -0.131363511 0.00578548526 -0.0257992763
  vertex -0.131363511 0.00576777058 -0.0273000002
  endloop
 endfacet

 facet normal 0 0.999930322 -0.0118033607
  outer loop
  vertex -0.133028284 0.00578548526 -0.0257992763
  vertex -0.131363511 0.00576777058 -0.0273000002
  vertex -0.131864324 0.00576777058 -0.0273000002
  endloop
 endfacet

 facet normal 0 1 0
  outer loop
  vertex -0.133028284 0.00578548526 -0.0257992763
  vertex -0.133028284 0.00578548526 0.00559999887
  vertex -0.131364316 0.00578548526 0.00559999887
  endloop
 endfacet

 facet normal 0 1 0
  outer loop
  vertex -0.133028284 0.00578548526 -0.0257992763
  vertex -0.131364316 0.00578548526 0.00559999887
  vertex -0.131363511 0.00578548526 0.0040799533
  endloop
 endfacet

 facet normal 0 1 0
  outer loop
  vertex -0.133028284 0.00578548526 -0.0257992763
  vertex -0.131363511 0.00578548526 0.0040799533
  vertex -0.131363511 0.00578548526 -0.0257992763
  endloop
 endfacet

 facet normal 0 0 -1
  outer loop
  vertex -0.131864324 0.0030988534 -0.0273000002
  vertex -0.131864324 0.00576777058 -0.0273000002
  vertex -0.131363511 0.00576777058 -0.0273000002
  endloop
 endfacet

 facet normal 0 0 -1
  outer loop
  vertex -0.131864324 0.0030988534 -0.0273000002
  vertex -0.131363511 0.00576777058 -0.0273000002
  vertex -0.131363511 0.00270416681 -0.0273000002
  endloop
 endfacet

 facet normal 1 0 0
  outer loop
  vertex -0.131363511 0.00270416681 -0.0273000002
  vertex -0.131363511 0.00576777058 -0.0273000002
  vertex -0.131363511 0.00578548526 -0.0257992763
  endloop
 endfacet

 facet normal 1 0 0
  outer loop
  vertex -0.131363511 0.00270416681 -0.0273000002
  vertex -0.131363511 0.00578548526 -0.0257992763
  vertex -0.131363511 0.00578548526 0.0040799533
  endloop
 endfacet

 facet normal 1 0 0
  outer loop
  vertex -0.131363511 0.00270416681 -0.0273000002
  vertex -0.131363511 0.00578548526 0.0040799533
  vertex -0.131363511 0.00271656737 0.00449860888
  endloop
 endfacet

 facet normal 1 0 0
  outer loop
  vertex -0.131363511 0.00270416681 -0.0273000002
  vertex -0.131363511 0.00271656737 0.00449860888
  vertex -0.131363511 0.0027094814 0.00449860888
  endloop
 endfacet

 facet normal 1 0 0
  outer loop
  vertex -0.131363511 0.00270416681 -0.0273000002
  vertex -0.131363511 0.0027094814 0.00449860888
  vertex -0.131363511 0.00255748816 0.00408961391
  endloop
 endfacet

 facet normal 1 0 0
  outer loop
  vertex -0.131363511 0.00270416681 -0.0273000002
  vertex -0.131363511 0.00255748816 0.00408961391
  vertex -0.131363511 0.00216599018 0.00299788453
  endloop
 endfacet

 facet normal 1 0 0
  outer loop
  vertex -0.131363511 0.00270416681 -0.0273000002
  vertex -0.131363511 0.00216599018 0.00299788453
  vertex -0.131363511 0.00216599018 -0.0257992763
  endloop
 endfacet

 facet normal 0 -0.942471981 0.33428508
  outer loop
  vertex -0.133028284 0.00216599018 0.00299788453
  vertex -0.131363511 0.00216599018 0.00299788453
  vertex -0.131364316 0.00308893318 0.00559999887
  endloop
 endfacet

 facet normal -0.457351387 -0.704710722 0.542413652
  outer loop
  vertex -0.133028284 0.00216599018 0.00299788453
  vertex -0.131364316 0.00308893318 0.00559999887
  vertex -0.133028284 0.00416882941 0.00559999887
  endloop
 endfacet

 facet normal 0 0 1
  outer loop
  vertex -0.133028284 0.00578548526 0.00559999887
  vertex -0.133028284 0.00416882941 0.00559999887
  vertex -0.131364316 0.00308893318 0.00559999887
  endloop
 endfacet

 facet normal 0 0 1
  outer loop
  vertex -0.133028284 0.00578548526 0.00559999887
  vertex -0.131364316 0.00308893318 0.00559999887
  vertex -0.131364316 0.00578548526 0.00559999887
  endloop
 endfacet

 facet normal 0.996403933 -0.079756625 0.0286010094
  outer loop
  vertex -0.131363511 0.00216599018 0.00299788453
  vertex -0.131363511 0.00255748816 0.00408961391
  vertex -0.131364316 0.00308893318 0.00559999887
  endloop
 endfacet

 facet normal 0.999575973 -0.0272945426 0.010143376
  outer loop
  vertex -0.131364316 0.00308893318 0.00559999887
  vertex -0.131363511 0.00255748816 0.00408961391
  vertex -0.131363511 0.0027094814 0.00449860888
  endloop
 endfacet

 facet normal 0.999999821 0 0.000740153657
  outer loop
  vertex -0.131364316 0.00308893318 0.00559999887
  vertex -0.131363511 0.0027094814 0.00449860888
  vertex -0.131363511 0.00271656737 0.00449860888
  endloop
 endfacet

 facet normal 0.999999821 0 0.000740153657
  outer loop
  vertex -0.131364316 0.00308893318 0.00559999887
  vertex -0.131363511 0.00271656737 0.00449860888
  vertex -0.131364316 0.00578548526 0.00559999887
  endloop
 endfacet

 facet normal 0.999999881 7.31607579e-05 0.000536298263
  outer loop
  vertex -0.131363511 0.00578548526 0.0040799533
  vertex -0.131364316 0.00578548526 0.00559999887
  vertex -0.131363511 0.00271656737 0.00449860888
  endloop
 endfacet

endsolid AssimpScene
