solid AssimpScene
 facet normal 1 0 0
  outer loop
  vertex -0.131364197 0.00216515455 0.00300000072
  vertex -0.131364197 -0.00274486118 0.00300000072
  vertex -0.131364197 -0.00274538202 0.00270963321
  endloop
 endfacet

 facet normal 1 0 0
  outer loop
  vertex -0.131364197 0.00216515455 0.00300000072
  vertex -0.131364197 -0.00274538202 0.00270963321
  vertex -0.131364197 -0.00274538202 -0.0258000009
  endloop
 endfacet

 facet normal 1 0 0
  outer loop
  vertex -0.131364197 0.00216515455 0.00300000072
  vertex -0.131364197 -0.00274538202 -0.0258000009
  vertex -0.131364197 0.00216515455 -0.0258000009
  endloop
 endfacet

 facet normal 0.0584728085 0.998289049 0
  outer loop
  vertex -0.131364197 0.00216515455 0.00300000072
  vertex -0.131364197 0.00216515455 -0.0258000009
  vertex -0.138362393 0.00257506035 -0.0221295226
  endloop
 endfacet

 facet normal 0.0584728085 0.998289049 0
  outer loop
  vertex -0.131364197 0.00216515455 0.00300000072
  vertex -0.138362393 0.00257506035 -0.0221295226
  vertex -0.138362393 0.00257506035 0.00300000072
  endloop
 endfacet

 facet normal 0 0 1
  outer loop
  vertex -0.131364197 0.00216515455 0.00300000072
  vertex -0.138362393 0.00257506035 0.00300000072
  vertex -0.144868463 0.00257506035 0.00300000072
  endloop
 endfacet

 facet normal 0 0 1
  outer loop
  vertex -0.131364197 0.00216515455 0.00300000072
  vertex -0.144868463 0.00257506035 0.00300000072
  vertex -0.145936891 0.00161201612 0.00300000072
  endloop
 endfacet

 facet normal 0 0 1
  outer loop
  vertex -0.131364197 0.00216515455 0.00300000072
  vertex -0.145936891 0.00161201612 0.00300000072
  vertex -0.145936891 -0.00274590286 0.00300000072
  endloop
 endfacet

 facet normal 0 0 1
  outer loop
  vertex -0.131364197 0.00216515455 0.00300000072
  vertex -0.145936891 -0.00274590286 0.00300000072
  vertex -0.138362393 -0.00274590286 0.00300000072
  endloop
 endfacet

 facet normal 0 0 1
  outer loop
  vertex -0.131364197 0.00216515455 0.00300000072
  vertex -0.138362393 -0.00274590286 0.00300000072
  vertex -0.131367043 -0.00274538202 0.00300000072
  endloop
 endfacet

 facet normal 0 0 1
  outer loop
  vertex -0.131364197 0.00216515455 0.00300000072
  vertex -0.131367043 -0.00274538202 0.00300000072
  vertex -0.131364197 -0.00274486118 0.00300000072
  endloop
 endfacet

 facet normal 0.179665387 -0.983726323 0.0017647905
  outer loop
  vertex -0.131364197 -0.00274486118 0.00300000072
  vertex -0.131367043 -0.00274538202 0.00300000072
  vertex -0.131364197 -0.00274538202 0.00270963321
  endloop
 endfacet

 facet normal 0 0 -1
  outer loop
  vertex -0.131364197 0.00216515455 -0.0258000009
  vertex -0.131364197 -0.00274538202 -0.0258000009
  vertex -0.138362393 -0.00274590286 -0.0258000009
  endloop
 endfacet

 facet normal 0 0 -1
  outer loop
  vertex -0.131364197 0.00216515455 -0.0258000009
  vertex -0.138362393 -0.00274590286 -0.0258000009
  vertex -0.145936891 -0.00274590286 -0.0258000009
  endloop
 endfacet

 facet normal 0 0 -1
  outer loop
  vertex -0.131364197 0.00216515455 -0.0258000009
  vertex -0.145936891 -0.00274590286 -0.0258000009
  vertex -0.145936891 0.00161201612 -0.0258000009
  endloop
 endfacet

 facet normal 0 0 -1
  outer loop
  vertex -0.131364197 0.00216515455 -0.0258000009
  vertex -0.145936891 0.00161201612 -0.0258000009
  vertex -0.144868463 0.00257506035 -0.0258000009
  endloop
 endfacet

 facet normal 0 0 -1
  outer loop
  vertex -0.131364197 0.00216515455 -0.0258000009
  vertex -0.144868463 0.00257506035 -0.0258000009
  vertex -0.138363823 0.00257506035 -0.0258000009
  endloop
 endfacet

 facet normal 0.0584609285 0.998289704 -2.27198525e-05
  outer loop
  vertex -0.131364197 0.00216515455 -0.0258000009
  vertex -0.138363823 0.00257506035 -0.0258000009
  vertex -0.138362393 0.00257506035 -0.0221295226
  endloop
 endfacet

 facet normal 0 1 0
  outer loop
  vertex -0.138362393 0.00257506035 0.00300000072
  vertex -0.138362393 0.00257506035 -0.0221295226
  vertex -0.138363823 0.00257506035 -0.0258000009
  endloop
 endfacet

 facet normal 0 1 0
  outer loop
  vertex -0.138362393 0.00257506035 0.00300000072
  vertex -0.138363823 0.00257506035 -0.0258000009
  vertex -0.144868463 0.00257506035 -0.0258000009
  endloop
 endfacet

 facet normal 0 1 0
  outer loop
  vertex -0.138362393 0.00257506035 0.00300000072
  vertex -0.144868463 0.00257506035 -0.0258000009
  vertex -0.144868463 0.00257506035 0.00300000072
  endloop
 endfacet

 facet normal 7.44658682e-05 -1 7.3145236e-07
  outer loop
  vertex -0.131367043 -0.00274538202 0.00300000072
  vertex -0.138362393 -0.00274590286 0.00300000072
  vertex -0.131364197 -0.00274538202 0.00270963321
  endloop
 endfacet

 facet normal 7.44355202e-05 -1 0
  outer loop
  vertex -0.131364197 -0.00274538202 0.00270963321
  vertex -0.138362393 -0.00274590286 0.00300000072
  vertex -0.138362393 -0.00274590286 -0.0258000009
  endloop
 endfacet

 facet normal 7.44355202e-05 -1 0
  outer loop
  vertex -0.131364197 -0.00274538202 0.00270963321
  vertex -0.138362393 -0.00274590286 -0.0258000009
  vertex -0.131364197 -0.00274538202 -0.0258000009
  endloop
 endfacet

 facet normal -0.669528484 0.742786407 0
  outer loop
  vertex -0.144868463 0.00257506035 0.00300000072
  vertex -0.144868463 0.00257506035 -0.0258000009
  vertex -0.145936891 0.00161201612 -0.0258000009
  endloop
 endfacet

 facet normal -0.669528484 0.742786407 0
  outer loop
  vertex -0.144868463 0.00257506035 0.00300000072
  vertex -0.145936891 0.00161201612 -0.0258000009
  vertex -0.145936891 0.00161201612 0.00300000072
  endloop
 endfacet

 facet normal 0 -1 0
  outer loop
  vertex -0.138362393 -0.00274590286 0.00300000072
  vertex -0.145936891 -0.00274590286 0.00300000072
  vertex -0.145936891 -0.00274590286 -0.0258000009
  endloop
 endfacet

 facet normal 0 -1 0
  outer loop
  vertex -0.138362393 -0.00274590286 0.00300000072
  vertex -0.145936891 -0.00274590286 -0.0258000009
  vertex -0.138362393 -0.00274590286 -0.0258000009
  endloop
 endfacet

 facet normal -1 0 0
  outer loop
  vertex -0.145936891 0.00161201612 0.00300000072
  vertex -0.145936891 0.00161201612 -0.0258000009
  vertex -0.145936891 -0.00274590286 -0.0258000009
  endloop
 endfacet

 facet normal -1 0 0
  outer loop
  vertex -0.145936891 0.00161201612 0.00300000072
  vertex -0.145936891 -0.00274590286 -0.0258000009
  vertex -0.145936891 -0.00274590286 0.00300000072
  endloop
 endfacet

endsolid AssimpScene
