solid AssimpScene
 facet normal 0 -1 0
  outer loop
  vertex -0.144868836 0.00939499773 -0.0257981829
  vertex -0.138363704 0.00939499773 -0.0257981829
  vertex -0.138361067 0.00939499773 -0.019171074
  endloop
 endfacet

 facet normal 0 -1 0
  outer loop
  vertex -0.144868836 0.00939499773 -0.0257981829
  vertex -0.138361067 0.00939499773 -0.019171074
  vertex -0.138361067 0.00939499773 0.00559677603
  endloop
 endfacet

 facet normal 0 -1 0
  outer loop
  vertex -0.144868836 0.00939499773 -0.0257981829
  vertex -0.138361067 0.00939499773 0.00559677603
  vertex -0.144868836 0.00939499773 0.00559677603
  endloop
 endfacet

 facet normal -1 0 0
  outer loop
  vertex -0.144868836 0.00939499773 -0.0257981829
  vertex -0.144868836 0.00939499773 0.00559677603
  vertex -0.144868836 0.0287181865 0.00559677603
  endloop
 endfacet

 facet normal -1 0 0
  outer loop
  vertex -0.144868836 0.00939499773 -0.0257981829
  vertex -0.144868836 0.0287181865 0.00559677603
  vertex -0.144868836 0.0294178911 0.00299557229
  endloop
 endfacet

 facet normal -1 0 0
  outer loop
  vertex -0.144868836 0.00939499773 -0.0257981829
  vertex -0.144868836 0.0294178911 0.00299557229
  vertex -0.144868836 0.0294178911 -0.0257981829
  endloop
 endfacet

 facet normal -1 0 0
  outer loop
  vertex -0.144868836 0.00939499773 -0.0257981829
  vertex -0.144868836 0.0294178911 -0.0257981829
  vertex -0.144868836 0.02903766 -0.0272164345
  endloop
 endfacet

 facet normal -1 0 0
  outer loop
  vertex -0.144868836 0.00939499773 -0.0257981829
  vertex -0.144868836 0.02903766 -0.0272164345
  vertex -0.144868836 0.0290121809 -0.0272970181
  endloop
 endfacet

 facet normal -1 0 0
  outer loop
  vertex -0.144868836 0.00939499773 -0.0257981829
  vertex -0.144868836 0.0290121809 -0.0272970181
  vertex -0.144868836 0.0241162144 -0.0273260269
  endloop
 endfacet

 facet normal -1 0 0
  outer loop
  vertex -0.144868836 0.00939499773 -0.0257981829
  vertex -0.144868836 0.0241162144 -0.0273260269
  vertex -0.144868836 0.010823804 -0.0273260269
  endloop
 endfacet

 facet normal -1 0 0
  outer loop
  vertex -0.144868836 0.00939499773 -0.0257981829
  vertex -0.144868836 0.010823804 -0.0273260269
  vertex -0.144868836 0.0107689248 -0.0272970181
  endloop
 endfacet

 facet normal 0 -0.737155378 -0.675723314
  outer loop
  vertex -0.144868836 0.00939499773 -0.0257981829
  vertex -0.144868836 0.0107689248 -0.0272970181
  vertex -0.138361067 0.0107689248 -0.0272970181
  endloop
 endfacet

 facet normal 0 -0.737155378 -0.675723314
  outer loop
  vertex -0.144868836 0.00939499773 -0.0257981829
  vertex -0.138361067 0.0107689248 -0.0272970181
  vertex -0.138363704 0.00939499773 -0.0257981829
  endloop
 endfacet

 facet normal 0.123923071 -0.992291868 -4.94381384e-05
  outer loop
  vertex -0.138363704 0.00939499773 -0.0257981829
  vertex -0.131364197 0.0102691371 -0.0257981829
  vertex -0.138361067 0.00939499773 -0.019171074
  endloop
 endfacet

 facet normal 0.000203489821 -0.737155557 -0.675723076
  outer loop
  vertex -0.138363704 0.00939499773 -0.0257981829
  vertex -0.138361067 0.0107689248 -0.0272970181
  vertex -0.131364197 0.0107767656 -0.0273034647
  endloop
 endfacet

 facet normal 0.000920395716 -0.738812447 -0.673910499
  outer loop
  vertex -0.138363704 0.00939499773 -0.0257981829
  vertex -0.131364197 0.0107767656 -0.0273034647
  vertex -0.131364197 0.0107708853 -0.0272970181
  endloop
 endfacet

 facet normal 0.11760442 -0.941696405 -0.315241277
  outer loop
  vertex -0.138363704 0.00939499773 -0.0257981829
  vertex -0.131364197 0.0107708853 -0.0272970181
  vertex -0.131364197 0.0102691371 -0.0257981829
  endloop
 endfacet

 facet normal 0 0 1
  outer loop
  vertex -0.144868836 0.00939499773 0.00559677603
  vertex -0.138361067 0.00939499773 0.00559677603
  vertex -0.131365508 0.0102691371 0.00559677603
  endloop
 endfacet

 facet normal 0 0 1
  outer loop
  vertex -0.144868836 0.00939499773 0.00559677603
  vertex -0.131365508 0.0102691371 0.00559677603
  vertex -0.131365508 0.028720146 0.00559677603
  endloop
 endfacet

 facet normal 0 0 1
  outer loop
  vertex -0.144868836 0.00939499773 0.00559677603
  vertex -0.131365508 0.028720146 0.00559677603
  vertex -0.138361067 0.028720146 0.00559677603
  endloop
 endfacet

 facet normal 0 0 1
  outer loop
  vertex -0.144868836 0.00939499773 0.00559677603
  vertex -0.138361067 0.028720146 0.00559677603
  vertex -0.144868836 0.0287181865 0.00559677603
  endloop
 endfacet

 facet normal -0.000218917019 -0.46732682 -0.884084642
  outer loop
  vertex -0.144868836 0.0107689248 -0.0272970181
  vertex -0.144868836 0.010823804 -0.0273260269
  vertex -0.138361067 0.0107963644 -0.0273131337
  endloop
 endfacet

 facet normal -0.000138539326 -0.481805086 -0.8762784
  outer loop
  vertex -0.144868836 0.0107689248 -0.0272970181
  vertex -0.138361067 0.0107963644 -0.0273131337
  vertex -0.131364197 0.0107767656 -0.0273034647
  endloop
 endfacet

 facet normal 0 -0.635076225 -0.772449493
  outer loop
  vertex -0.144868836 0.0107689248 -0.0272970181
  vertex -0.131364197 0.0107767656 -0.0273034647
  vertex -0.138361067 0.0107689248 -0.0272970181
  endloop
 endfacet

 facet normal 0.123969167 -0.992286086 0
  outer loop
  vertex -0.131364197 0.0102691371 -0.0257981829
  vertex -0.131364197 0.0102691371 0.00380784343
  vertex -0.138361067 0.00939499773 0.00559677603
  endloop
 endfacet

 facet normal 0.123969167 -0.992286086 0
  outer loop
  vertex -0.131364197 0.0102691371 -0.0257981829
  vertex -0.138361067 0.00939499773 0.00559677603
  vertex -0.138361067 0.00939499773 -0.019171074
  endloop
 endfacet

 facet normal 1 0 0
  outer loop
  vertex -0.131364197 0.0102691371 -0.0257981829
  vertex -0.131364197 0.0107708853 -0.0272970181
  vertex -0.131364197 0.0107767656 -0.0273034647
  endloop
 endfacet

 facet normal 1 0 0
  outer loop
  vertex -0.131364197 0.0102691371 -0.0257981829
  vertex -0.131364197 0.0107767656 -0.0273034647
  vertex -0.131364197 0.0108257644 -0.0273260269
  endloop
 endfacet

 facet normal 1 0 0
  outer loop
  vertex -0.131364197 0.0102691371 -0.0257981829
  vertex -0.131364197 0.0108257644 -0.0273260269
  vertex -0.131364197 0.0241162144 -0.0273260269
  endloop
 endfacet

 facet normal 1 0 0
  outer loop
  vertex -0.131364197 0.0102691371 -0.0257981829
  vertex -0.131364197 0.0241162144 -0.0273260269
  vertex -0.131364197 0.0290141404 -0.0272970181
  endloop
 endfacet

 facet normal 1 0 0
  outer loop
  vertex -0.131364197 0.0102691371 -0.0257981829
  vertex -0.131364197 0.0290141404 -0.0272970181
  vertex -0.131364197 0.0290180612 -0.0272873491
  endloop
 endfacet

 facet normal 1 0 0
  outer loop
  vertex -0.131364197 0.0102691371 -0.0257981829
  vertex -0.131364197 0.0290180612 -0.0272873491
  vertex -0.131364197 0.0294178911 -0.0257981829
  endloop
 endfacet

 facet normal 1 0 0
  outer loop
  vertex -0.131364197 0.0102691371 -0.0257981829
  vertex -0.131364197 0.0294178911 -0.0257981829
  vertex -0.131364197 0.0294178911 0.00299557229
  endloop
 endfacet

 facet normal 1 0 0
  outer loop
  vertex -0.131364197 0.0102691371 -0.0257981829
  vertex -0.131364197 0.0294178911 0.00299557229
  vertex -0.131364197 0.0290141404 0.00449440628
  endloop
 endfacet

 facet normal 1 0 0
  outer loop
  vertex -0.131364197 0.0102691371 -0.0257981829
  vertex -0.131364197 0.0290141404 0.00449440628
  vertex -0.131364197 0.0102691371 0.00380784343
  endloop
 endfacet

 facet normal 5.96238424e-05 -0.425266147 -0.905068398
  outer loop
  vertex -0.131364197 0.0107767656 -0.0273034647
  vertex -0.138361067 0.0107963644 -0.0273131337
  vertex -0.138361067 0.010823804 -0.0273260269
  endloop
 endfacet

 facet normal 0.000117198259 -0.418264329 -0.908325374
  outer loop
  vertex -0.131364197 0.0107767656 -0.0273034647
  vertex -0.138361067 0.010823804 -0.0273260269
  vertex -0.131364197 0.0108257644 -0.0273260269
  endloop
 endfacet

 facet normal 0.123992227 -0.992283225 9.1622278e-05
  outer loop
  vertex -0.138361067 0.00939499773 0.00559677603
  vertex -0.131364197 0.0102691371 0.00380784343
  vertex -0.131365508 0.0102691371 0.00559677603
  endloop
 endfacet

 facet normal -0.000290718599 0.965673566 0.259758681
  outer loop
  vertex -0.144868836 0.0287181865 0.00559677603
  vertex -0.138361067 0.028720146 0.00559677603
  vertex -0.144868836 0.0294178911 0.00299557229
  endloop
 endfacet

 facet normal 0 -0.425266147 -0.905068398
  outer loop
  vertex -0.144868836 0.010823804 -0.0273260269
  vertex -0.138361067 0.010823804 -0.0273260269
  vertex -0.138361067 0.0107963644 -0.0273131337
  endloop
 endfacet

 facet normal 0 0 -1
  outer loop
  vertex -0.144868836 0.010823804 -0.0273260269
  vertex -0.144868836 0.0241162144 -0.0273260269
  vertex -0.131364197 0.0241162144 -0.0273260269
  endloop
 endfacet

 facet normal 0 0 -1
  outer loop
  vertex -0.144868836 0.010823804 -0.0273260269
  vertex -0.131364197 0.0241162144 -0.0273260269
  vertex -0.131364197 0.0108257644 -0.0273260269
  endloop
 endfacet

 facet normal 0 0 -1
  outer loop
  vertex -0.144868836 0.010823804 -0.0273260269
  vertex -0.131364197 0.0108257644 -0.0273260269
  vertex -0.138361067 0.010823804 -0.0273260269
  endloop
 endfacet

 facet normal 0.999999821 -2.70645887e-05 0.000738935487
  outer loop
  vertex -0.131364197 0.0102691371 0.00380784343
  vertex -0.131364197 0.0290141404 0.00449440628
  vertex -0.131365508 0.0102691371 0.00559677603
  endloop
 endfacet

 facet normal 0.999999225 0 0.00119914871
  outer loop
  vertex -0.131365508 0.0102691371 0.00559677603
  vertex -0.131364197 0.0290141404 0.00449440628
  vertex -0.131365508 0.028720146 0.00559677603
  endloop
 endfacet

 facet normal 0 0.965842605 0.259129494
  outer loop
  vertex -0.138361067 0.028720146 0.00559677603
  vertex -0.131365508 0.028720146 0.00559677603
  vertex -0.138361067 0.0291983765 0.00381429074
  endloop
 endfacet

 facet normal -2.1095886e-05 0.965842605 0.259129494
  outer loop
  vertex -0.138361067 0.028720146 0.00559677603
  vertex -0.138361067 0.0291983765 0.00381429074
  vertex -0.144868836 0.0294178911 0.00299557229
  endloop
 endfacet

 facet normal 0 0.965884566 0.258973062
  outer loop
  vertex -0.144868836 0.0294178911 0.00299557229
  vertex -0.138361067 0.0291983765 0.00381429074
  vertex -0.131364197 0.0294178911 0.00299557229
  endloop
 endfacet

 facet normal 0 1 0
  outer loop
  vertex -0.144868836 0.0294178911 0.00299557229
  vertex -0.131364197 0.0294178911 0.00299557229
  vertex -0.131364197 0.0294178911 -0.0257981829
  endloop
 endfacet

 facet normal 0 1 0
  outer loop
  vertex -0.144868836 0.0294178911 0.00299557229
  vertex -0.131364197 0.0294178911 -0.0257981829
  vertex -0.144868836 0.0294178911 -0.0257981829
  endloop
 endfacet

 facet normal -1.78372215e-06 0.00592495035 -0.999982476
  outer loop
  vertex -0.144868836 0.0241162144 -0.0273260269
  vertex -0.144868836 0.0290121809 -0.0272970181
  vertex -0.138361067 0.0290141404 -0.0272970181
  endloop
 endfacet

 facet normal 0 0.0059225806 -0.999982476
  outer loop
  vertex -0.144868836 0.0241162144 -0.0273260269
  vertex -0.138361067 0.0290141404 -0.0272970181
  vertex -0.131364197 0.0290141404 -0.0272970181
  endloop
 endfacet

 facet normal 0 0.0059225806 -0.999982476
  outer loop
  vertex -0.144868836 0.0241162144 -0.0273260269
  vertex -0.131364197 0.0290141404 -0.0272970181
  vertex -0.131364197 0.0241162144 -0.0273260269
  endloop
 endfacet

 facet normal 0.907572865 0.405442297 0.109216675
  outer loop
  vertex -0.131364197 0.0290141404 0.00449440628
  vertex -0.131364197 0.0294178911 0.00299557229
  vertex -0.131365508 0.028720146 0.00559677603
  endloop
 endfacet

 facet normal 1.34464963e-05 0.965855896 0.259080291
  outer loop
  vertex -0.131365508 0.028720146 0.00559677603
  vertex -0.131364197 0.0294178911 0.00299557229
  vertex -0.138361067 0.0291983765 0.00381429074
  endloop
 endfacet

 facet normal 0 0.965923727 -0.258826911
  outer loop
  vertex -0.144868836 0.0294178911 -0.0257981829
  vertex -0.131364197 0.0294178911 -0.0257981829
  vertex -0.138361067 0.0290611796 -0.0271294061
  endloop
 endfacet

 facet normal -2.77866748e-05 0.965889812 -0.258953631
  outer loop
  vertex -0.144868836 0.0294178911 -0.0257981829
  vertex -0.138361067 0.0290611796 -0.0271294061
  vertex -0.144868836 0.02903766 -0.0272164345
  endloop
 endfacet

 facet normal -0.000287046481 0.953475893 -0.301469266
  outer loop
  vertex -0.144868836 0.0290121809 -0.0272970181
  vertex -0.144868836 0.02903766 -0.0272164345
  vertex -0.138361067 0.0290141404 -0.0272970181
  endloop
 endfacet

 facet normal -0.000144261867 0.956754923 -0.290895283
  outer loop
  vertex -0.138361067 0.0290141404 -0.0272970181
  vertex -0.144868836 0.02903766 -0.0272164345
  vertex -0.138361067 0.0290259011 -0.0272583384
  endloop
 endfacet

 facet normal -0.000134134534 0.956754923 -0.290895283
  outer loop
  vertex -0.138361067 0.0290141404 -0.0272970181
  vertex -0.138361067 0.0290259011 -0.0272583384
  vertex -0.131364197 0.0290180612 -0.0272873491
  endloop
 endfacet

 facet normal 0 0.926713645 -0.375768304
  outer loop
  vertex -0.138361067 0.0290141404 -0.0272970181
  vertex -0.131364197 0.0290180612 -0.0272873491
  vertex -0.131364197 0.0290141404 -0.0272970181
  endloop
 endfacet

 facet normal 9.82474812e-05 0.965794623 -0.259308666
  outer loop
  vertex -0.131364197 0.0294178911 -0.0257981829
  vertex -0.131364197 0.0290180612 -0.0272873491
  vertex -0.138361067 0.0290611796 -0.0271294061
  endloop
 endfacet

 facet normal 5.99134291e-05 0.96536845 -0.260890543
  outer loop
  vertex -0.138361067 0.0290611796 -0.0271294061
  vertex -0.131364197 0.0290180612 -0.0272873491
  vertex -0.138361067 0.02903766 -0.0272164345
  endloop
 endfacet

 facet normal 0 0.96536845 -0.260890543
  outer loop
  vertex -0.138361067 0.0290611796 -0.0271294061
  vertex -0.138361067 0.02903766 -0.0272164345
  vertex -0.144868836 0.02903766 -0.0272164345
  endloop
 endfacet

 facet normal 0 0.963866293 -0.266386896
  outer loop
  vertex -0.144868836 0.02903766 -0.0272164345
  vertex -0.138361067 0.02903766 -0.0272164345
  vertex -0.131364197 0.0290180612 -0.0272873491
  endloop
 endfacet

 facet normal -0.00011596868 0.957977235 -0.286844194
  outer loop
  vertex -0.144868836 0.02903766 -0.0272164345
  vertex -0.131364197 0.0290180612 -0.0272873491
  vertex -0.138361067 0.0290259011 -0.0272583384
  endloop
 endfacet

endsolid AssimpScene
