solid AssimpScene
 facet normal -0.999032676 0.043974787 0
  outer loop
  vertex -0.146964297 0.00826788973 -0.0307996608
  vertex -0.146964297 0.00826788973 -0.027329253
  vertex -0.146961629 0.00832838286 -0.027329253
  endloop
 endfacet

 facet normal -0.998950779 0.045799125 -3.18631792e-05
  outer loop
  vertex -0.146964297 0.00826788973 -0.0307996608
  vertex -0.146961629 0.00832838286 -0.027329253
  vertex -0.146960303 0.00835500844 -0.0307996608
  endloop
 endfacet

 facet normal 0 0 -1
  outer loop
  vertex -0.146964297 0.00826788973 -0.0307996608
  vertex -0.146960303 0.00835500844 -0.0307996608
  vertex -0.146948993 0.00844134297 -0.0307996608
  endloop
 endfacet

 facet normal 0 0 -1
  outer loop
  vertex -0.146964297 0.00826788973 -0.0307996608
  vertex -0.146948993 0.00844134297 -0.0307996608
  vertex -0.146929681 0.00852669962 -0.0307996608
  endloop
 endfacet

 facet normal 0 0 -1
  outer loop
  vertex -0.146964297 0.00826788973 -0.0307996608
  vertex -0.146929681 0.00852669962 -0.0307996608
  vertex -0.146903723 0.00860990211 -0.0307996608
  endloop
 endfacet

 facet normal 0 0 -1
  outer loop
  vertex -0.146964297 0.00826788973 -0.0307996608
  vertex -0.146903723 0.00860990211 -0.0307996608
  vertex -0.146870449 0.00869036466 -0.0307996608
  endloop
 endfacet

 facet normal 0 0 -1
  outer loop
  vertex -0.146964297 0.00826788973 -0.0307996608
  vertex -0.146870449 0.00869036466 -0.0307996608
  vertex -0.146829844 0.00876769423 -0.0307996608
  endloop
 endfacet

 facet normal 0 0 -1
  outer loop
  vertex -0.146964297 0.00826788973 -0.0307996608
  vertex -0.146829844 0.00876769423 -0.0307996608
  vertex -0.146783248 0.00884130411 -0.0307996608
  endloop
 endfacet

 facet normal 0 0 -1
  outer loop
  vertex -0.146964297 0.00826788973 -0.0307996608
  vertex -0.146783248 0.00884130411 -0.0307996608
  vertex -0.146729991 0.00891060755 -0.0307996608
  endloop
 endfacet

 facet normal 0 0 -1
  outer loop
  vertex -0.146964297 0.00826788973 -0.0307996608
  vertex -0.146729991 0.00891060755 -0.0307996608
  vertex -0.146670759 0.00897482038 -0.0307996608
  endloop
 endfacet

 facet normal 0 0 -1
  outer loop
  vertex -0.146964297 0.00826788973 -0.0307996608
  vertex -0.146670759 0.00897482038 -0.0307996608
  vertex -0.146606863 0.00903374795 -0.0307996608
  endloop
 endfacet

 facet normal 0 0 -1
  outer loop
  vertex -0.146964297 0.00826788973 -0.0307996608
  vertex -0.146606863 0.00903374795 -0.0307996608
  vertex -0.146537632 0.00908699725 -0.0307996608
  endloop
 endfacet

 facet normal 0 0 -1
  outer loop
  vertex -0.146964297 0.00826788973 -0.0307996608
  vertex -0.146537632 0.00908699725 -0.0307996608
  vertex -0.146463752 0.00913378689 -0.0307996608
  endloop
 endfacet

 facet normal 0 0 -1
  outer loop
  vertex -0.146964297 0.00826788973 -0.0307996608
  vertex -0.146463752 0.00913378689 -0.0307996608
  vertex -0.146386534 0.00917411502 -0.0307996608
  endloop
 endfacet

 facet normal 0 0 -1
  outer loop
  vertex -0.146964297 0.00826788973 -0.0307996608
  vertex -0.146386534 0.00917411502 -0.0307996608
  vertex -0.146305993 0.00920739677 -0.0307996608
  endloop
 endfacet

 facet normal 0 0 -1
  outer loop
  vertex -0.146964297 0.00826788973 -0.0307996608
  vertex -0.146305993 0.00920739677 -0.0307996608
  vertex -0.1462228 0.00923363026 -0.0307996608
  endloop
 endfacet

 facet normal 0 0 -1
  outer loop
  vertex -0.146964297 0.00826788973 -0.0307996608
  vertex -0.1462228 0.00923363026 -0.0307996608
  vertex -0.146137595 0.00925261993 -0.0307996608
  endloop
 endfacet

 facet normal 0 0 -1
  outer loop
  vertex -0.146964297 0.00826788973 -0.0307996608
  vertex -0.146137595 0.00925261993 -0.0307996608
  vertex -0.146051064 0.00926397461 -0.0307996608
  endloop
 endfacet

 facet normal 0 0 -1
  outer loop
  vertex -0.146964297 0.00826788973 -0.0307996608
  vertex -0.146051064 0.00926397461 -0.0307996608
  vertex -0.145963863 0.00926788989 -0.0307996608
  endloop
 endfacet

 facet normal 0 0 -1
  outer loop
  vertex -0.146964297 0.00826788973 -0.0307996608
  vertex -0.145963863 0.00926788989 -0.0307996608
  vertex -0.141164735 0.00926788989 -0.0307996608
  endloop
 endfacet

 facet normal 0 0 -1
  outer loop
  vertex -0.146964297 0.00826788973 -0.0307996608
  vertex -0.141164735 0.00926788989 -0.0307996608
  vertex -0.141077533 0.00926397461 -0.0307996608
  endloop
 endfacet

 facet normal 0 0 -1
  outer loop
  vertex -0.146964297 0.00826788973 -0.0307996608
  vertex -0.141077533 0.00926397461 -0.0307996608
  vertex -0.140991002 0.00925261993 -0.0307996608
  endloop
 endfacet

 facet normal 0 0 -1
  outer loop
  vertex -0.146964297 0.00826788973 -0.0307996608
  vertex -0.140991002 0.00925261993 -0.0307996608
  vertex -0.140905797 0.00923363026 -0.0307996608
  endloop
 endfacet

 facet normal 0 0 -1
  outer loop
  vertex -0.146964297 0.00826788973 -0.0307996608
  vertex -0.140905797 0.00923363026 -0.0307996608
  vertex -0.140822604 0.00920739677 -0.0307996608
  endloop
 endfacet

 facet normal 0 0 -1
  outer loop
  vertex -0.146964297 0.00826788973 -0.0307996608
  vertex -0.140822604 0.00920739677 -0.0307996608
  vertex -0.140742064 0.00917411502 -0.0307996608
  endloop
 endfacet

 facet normal 0 0 -1
  outer loop
  vertex -0.146964297 0.00826788973 -0.0307996608
  vertex -0.140742064 0.00917411502 -0.0307996608
  vertex -0.140664846 0.00913378689 -0.0307996608
  endloop
 endfacet

 facet normal 0 0 -1
  outer loop
  vertex -0.146964297 0.00826788973 -0.0307996608
  vertex -0.140664846 0.00913378689 -0.0307996608
  vertex -0.140590966 0.00908699725 -0.0307996608
  endloop
 endfacet

 facet normal 0 0 -1
  outer loop
  vertex -0.146964297 0.00826788973 -0.0307996608
  vertex -0.140590966 0.00908699725 -0.0307996608
  vertex -0.140521735 0.00903374795 -0.0307996608
  endloop
 endfacet

 facet normal 0 0 -1
  outer loop
  vertex -0.146964297 0.00826788973 -0.0307996608
  vertex -0.140521735 0.00903374795 -0.0307996608
  vertex -0.140457839 0.00897482038 -0.0307996608
  endloop
 endfacet

 facet normal 0 0 -1
  outer loop
  vertex -0.146964297 0.00826788973 -0.0307996608
  vertex -0.140457839 0.00897482038 -0.0307996608
  vertex -0.140398607 0.00891060755 -0.0307996608
  endloop
 endfacet

 facet normal 0 0 -1
  outer loop
  vertex -0.146964297 0.00826788973 -0.0307996608
  vertex -0.140398607 0.00891060755 -0.0307996608
  vertex -0.14034535 0.00884130411 -0.0307996608
  endloop
 endfacet

 facet normal 0 0 -1
  outer loop
  vertex -0.146964297 0.00826788973 -0.0307996608
  vertex -0.14034535 0.00884130411 -0.0307996608
  vertex -0.140298754 0.00876769423 -0.0307996608
  endloop
 endfacet

 facet normal 0 0 -1
  outer loop
  vertex -0.146964297 0.00826788973 -0.0307996608
  vertex -0.140298754 0.00876769423 -0.0307996608
  vertex -0.140258148 0.00869036466 -0.0307996608
  endloop
 endfacet

 facet normal 0 0 -1
  outer loop
  vertex -0.146964297 0.00826788973 -0.0307996608
  vertex -0.140258148 0.00869036466 -0.0307996608
  vertex -0.140224874 0.00860990211 -0.0307996608
  endloop
 endfacet

 facet normal 0 0 -1
  outer loop
  vertex -0.146964297 0.00826788973 -0.0307996608
  vertex -0.140224874 0.00860990211 -0.0307996608
  vertex -0.140198916 0.00852669962 -0.0307996608
  endloop
 endfacet

 facet normal 0 0 -1
  outer loop
  vertex -0.146964297 0.00826788973 -0.0307996608
  vertex -0.140198916 0.00852669962 -0.0307996608
  vertex -0.140179604 0.00844134297 -0.0307996608
  endloop
 endfacet

 facet normal 0 0 -1
  outer loop
  vertex -0.146964297 0.00826788973 -0.0307996608
  vertex -0.140179604 0.00844134297 -0.0307996608
  vertex -0.140168294 0.00835500844 -0.0307996608
  endloop
 endfacet

 facet normal 0 0 -1
  outer loop
  vertex -0.146964297 0.00826788973 -0.0307996608
  vertex -0.140168294 0.00835500844 -0.0307996608
  vertex -0.140164301 0.00826788973 -0.0307996608
  endloop
 endfacet

 facet normal 0 0 -1
  outer loop
  vertex -0.146964297 0.00826788973 -0.0307996608
  vertex -0.140164301 0.00826788973 -0.0307996608
  vertex -0.140168294 0.00818077195 -0.0307996608
  endloop
 endfacet

 facet normal 0 0 -1
  outer loop
  vertex -0.146964297 0.00826788973 -0.0307996608
  vertex -0.140168294 0.00818077195 -0.0307996608
  vertex -0.140179604 0.00809443649 -0.0307996608
  endloop
 endfacet

 facet normal 0 0 -1
  outer loop
  vertex -0.146964297 0.00826788973 -0.0307996608
  vertex -0.140179604 0.00809443649 -0.0307996608
  vertex -0.140198916 0.00800907984 -0.0307996608
  endloop
 endfacet

 facet normal 0 0 -1
  outer loop
  vertex -0.146964297 0.00826788973 -0.0307996608
  vertex -0.140198916 0.00800907984 -0.0307996608
  vertex -0.140224874 0.00792587735 -0.0307996608
  endloop
 endfacet

 facet normal 0 0 -1
  outer loop
  vertex -0.146964297 0.00826788973 -0.0307996608
  vertex -0.140224874 0.00792587735 -0.0307996608
  vertex -0.140258148 0.00784541573 -0.0307996608
  endloop
 endfacet

 facet normal 0 0 -1
  outer loop
  vertex -0.146964297 0.00826788973 -0.0307996608
  vertex -0.140258148 0.00784541573 -0.0307996608
  vertex -0.140298754 0.00776808569 -0.0307996608
  endloop
 endfacet

 facet normal 0 0 -1
  outer loop
  vertex -0.146964297 0.00826788973 -0.0307996608
  vertex -0.140298754 0.00776808569 -0.0307996608
  vertex -0.14034535 0.00769447582 -0.0307996608
  endloop
 endfacet

 facet normal 0 0 -1
  outer loop
  vertex -0.146964297 0.00826788973 -0.0307996608
  vertex -0.14034535 0.00769447582 -0.0307996608
  vertex -0.140398607 0.00762517238 -0.0307996608
  endloop
 endfacet

 facet normal 0 0 -1
  outer loop
  vertex -0.146964297 0.00826788973 -0.0307996608
  vertex -0.140398607 0.00762517238 -0.0307996608
  vertex -0.140457839 0.00756095955 -0.0307996608
  endloop
 endfacet

 facet normal 0 0 -1
  outer loop
  vertex -0.146964297 0.00826788973 -0.0307996608
  vertex -0.140457839 0.00756095955 -0.0307996608
  vertex -0.140521735 0.00750203244 -0.0307996608
  endloop
 endfacet

 facet normal 0 0 -1
  outer loop
  vertex -0.146964297 0.00826788973 -0.0307996608
  vertex -0.140521735 0.00750203244 -0.0307996608
  vertex -0.140590966 0.00744878268 -0.0307996608
  endloop
 endfacet

 facet normal 0 0 -1
  outer loop
  vertex -0.146964297 0.00826788973 -0.0307996608
  vertex -0.140590966 0.00744878268 -0.0307996608
  vertex -0.140664846 0.0074019935 -0.0307996608
  endloop
 endfacet

 facet normal 0 0 -1
  outer loop
  vertex -0.146964297 0.00826788973 -0.0307996608
  vertex -0.140664846 0.0074019935 -0.0307996608
  vertex -0.140742064 0.00736166444 -0.0307996608
  endloop
 endfacet

 facet normal 0 0 -1
  outer loop
  vertex -0.146964297 0.00826788973 -0.0307996608
  vertex -0.140742064 0.00736166444 -0.0307996608
  vertex -0.140822604 0.00732838316 -0.0307996608
  endloop
 endfacet

 facet normal 0 0 -1
  outer loop
  vertex -0.146964297 0.00826788973 -0.0307996608
  vertex -0.140822604 0.00732838316 -0.0307996608
  vertex -0.140905797 0.00730215013 -0.0307996608
  endloop
 endfacet

 facet normal 0 0 -1
  outer loop
  vertex -0.146964297 0.00826788973 -0.0307996608
  vertex -0.140905797 0.00730215013 -0.0307996608
  vertex -0.140991002 0.00728316 -0.0307996608
  endloop
 endfacet

 facet normal 0 0 -1
  outer loop
  vertex -0.146964297 0.00826788973 -0.0307996608
  vertex -0.140991002 0.00728316 -0.0307996608
  vertex -0.141077533 0.00727180531 -0.0307996608
  endloop
 endfacet

 facet normal 0 0 -1
  outer loop
  vertex -0.146964297 0.00826788973 -0.0307996608
  vertex -0.141077533 0.00727180531 -0.0307996608
  vertex -0.141164735 0.00726808561 -0.0307996608
  endloop
 endfacet

 facet normal 0 0 -1
  outer loop
  vertex -0.146964297 0.00826788973 -0.0307996608
  vertex -0.141164735 0.00726808561 -0.0307996608
  vertex -0.145963863 0.00726808561 -0.0307996608
  endloop
 endfacet

 facet normal 0 0 -1
  outer loop
  vertex -0.146964297 0.00826788973 -0.0307996608
  vertex -0.145963863 0.00726808561 -0.0307996608
  vertex -0.146051064 0.00727180531 -0.0307996608
  endloop
 endfacet

 facet normal 0 0 -1
  outer loop
  vertex -0.146964297 0.00826788973 -0.0307996608
  vertex -0.146051064 0.00727180531 -0.0307996608
  vertex -0.146137595 0.00728316 -0.0307996608
  endloop
 endfacet

 facet normal 0 0 -1
  outer loop
  vertex -0.146964297 0.00826788973 -0.0307996608
  vertex -0.146137595 0.00728316 -0.0307996608
  vertex -0.1462228 0.00730215013 -0.0307996608
  endloop
 endfacet

 facet normal 0 0 -1
  outer loop
  vertex -0.146964297 0.00826788973 -0.0307996608
  vertex -0.1462228 0.00730215013 -0.0307996608
  vertex -0.146305993 0.00732838316 -0.0307996608
  endloop
 endfacet

 facet normal 0 0 -1
  outer loop
  vertex -0.146964297 0.00826788973 -0.0307996608
  vertex -0.146305993 0.00732838316 -0.0307996608
  vertex -0.146386534 0.00736166444 -0.0307996608
  endloop
 endfacet

 facet normal 0 0 -1
  outer loop
  vertex -0.146964297 0.00826788973 -0.0307996608
  vertex -0.146386534 0.00736166444 -0.0307996608
  vertex -0.146463752 0.0074019935 -0.0307996608
  endloop
 endfacet

 facet normal 0 0 -1
  outer loop
  vertex -0.146964297 0.00826788973 -0.0307996608
  vertex -0.146463752 0.0074019935 -0.0307996608
  vertex -0.146537632 0.00744878268 -0.0307996608
  endloop
 endfacet

 facet normal 0 0 -1
  outer loop
  vertex -0.146964297 0.00826788973 -0.0307996608
  vertex -0.146537632 0.00744878268 -0.0307996608
  vertex -0.146606863 0.00750203244 -0.0307996608
  endloop
 endfacet

 facet normal 0 0 -1
  outer loop
  vertex -0.146964297 0.00826788973 -0.0307996608
  vertex -0.146606863 0.00750203244 -0.0307996608
  vertex -0.146670759 0.00756095955 -0.0307996608
  endloop
 endfacet

 facet normal 0 0 -1
  outer loop
  vertex -0.146964297 0.00826788973 -0.0307996608
  vertex -0.146670759 0.00756095955 -0.0307996608
  vertex -0.146729991 0.00762517238 -0.0307996608
  endloop
 endfacet

 facet normal 0 0 -1
  outer loop
  vertex -0.146964297 0.00826788973 -0.0307996608
  vertex -0.146729991 0.00762517238 -0.0307996608
  vertex -0.146783248 0.00769447582 -0.0307996608
  endloop
 endfacet

 facet normal 0 0 -1
  outer loop
  vertex -0.146964297 0.00826788973 -0.0307996608
  vertex -0.146783248 0.00769447582 -0.0307996608
  vertex -0.146829844 0.00776808569 -0.0307996608
  endloop
 endfacet

 facet normal 0 0 -1
  outer loop
  vertex -0.146964297 0.00826788973 -0.0307996608
  vertex -0.146829844 0.00776808569 -0.0307996608
  vertex -0.146870449 0.00784541573 -0.0307996608
  endloop
 endfacet

 facet normal 0 0 -1
  outer loop
  vertex -0.146964297 0.00826788973 -0.0307996608
  vertex -0.146870449 0.00784541573 -0.0307996608
  vertex -0.146903723 0.00792587735 -0.0307996608
  endloop
 endfacet

 facet normal 0 0 -1
  outer loop
  vertex -0.146964297 0.00826788973 -0.0307996608
  vertex -0.146903723 0.00792587735 -0.0307996608
  vertex -0.146929681 0.00800907984 -0.0307996608
  endloop
 endfacet

 facet normal 0 0 -1
  outer loop
  vertex -0.146964297 0.00826788973 -0.0307996608
  vertex -0.146929681 0.00800907984 -0.0307996608
  vertex -0.146948993 0.00809443649 -0.0307996608
  endloop
 endfacet

 facet normal 0 0 -1
  outer loop
  vertex -0.146964297 0.00826788973 -0.0307996608
  vertex -0.146948993 0.00809443649 -0.0307996608
  vertex -0.146960303 0.00818077195 -0.0307996608
  endloop
 endfacet

 facet normal -0.998950779 -0.045799125 0
  outer loop
  vertex -0.146964297 0.00826788973 -0.0307996608
  vertex -0.146960303 0.00818077195 -0.0307996608
  vertex -0.146960303 0.00818077195 -0.027329253
  endloop
 endfacet

 facet normal -0.998950779 -0.045799125 0
  outer loop
  vertex -0.146964297 0.00826788973 -0.0307996608
  vertex -0.146960303 0.00818077195 -0.027329253
  vertex -0.146964297 0.00826788973 -0.027329253
  endloop
 endfacet

 facet normal 0 0 1
  outer loop
  vertex -0.146964297 0.00826788973 -0.027329253
  vertex -0.146960303 0.00818077195 -0.027329253
  vertex -0.14695698 0.00815434288 -0.027329253
  endloop
 endfacet

 facet normal 0 0 1
  outer loop
  vertex -0.146964297 0.00826788973 -0.027329253
  vertex -0.14695698 0.00815434288 -0.027329253
  vertex -0.146948993 0.00809443649 -0.027329253
  endloop
 endfacet

 facet normal 0 0 1
  outer loop
  vertex -0.146964297 0.00826788973 -0.027329253
  vertex -0.146948993 0.00809443649 -0.027329253
  vertex -0.146929681 0.00800907984 -0.027329253
  endloop
 endfacet

 facet normal 0 0 1
  outer loop
  vertex -0.146964297 0.00826788973 -0.027329253
  vertex -0.146929681 0.00800907984 -0.027329253
  vertex -0.146903723 0.00792587735 -0.027329253
  endloop
 endfacet

 facet normal 0 0 1
  outer loop
  vertex -0.146964297 0.00826788973 -0.027329253
  vertex -0.146903723 0.00792587735 -0.027329253
  vertex -0.14689374 0.00790140592 -0.027329253
  endloop
 endfacet

 facet normal 0 0 1
  outer loop
  vertex -0.146964297 0.00826788973 -0.027329253
  vertex -0.14689374 0.00790140592 -0.027329253
  vertex -0.146870449 0.00784541573 -0.027329253
  endloop
 endfacet

 facet normal 0 0 1
  outer loop
  vertex -0.146964297 0.00826788973 -0.027329253
  vertex -0.146870449 0.00784541573 -0.027329253
  vertex -0.146829844 0.00776808569 -0.027329253
  endloop
 endfacet

 facet normal 0 0 1
  outer loop
  vertex -0.146964297 0.00826788973 -0.027329253
  vertex -0.146829844 0.00776808569 -0.027329253
  vertex -0.146815866 0.0077455719 -0.027329253
  endloop
 endfacet

 facet normal 0 0 1
  outer loop
  vertex -0.146964297 0.00826788973 -0.027329253
  vertex -0.146815866 0.0077455719 -0.027329253
  vertex -0.146783248 0.00769447582 -0.027329253
  endloop
 endfacet

 facet normal 0 0 1
  outer loop
  vertex -0.146964297 0.00826788973 -0.027329253
  vertex -0.146783248 0.00769447582 -0.027329253
  vertex -0.146729991 0.00762517238 -0.027329253
  endloop
 endfacet

 facet normal 0 0 1
  outer loop
  vertex -0.146964297 0.00826788973 -0.027329253
  vertex -0.146729991 0.00762517238 -0.027329253
  vertex -0.14671202 0.00760559551 -0.027329253
  endloop
 endfacet

 facet normal 0 0 1
  outer loop
  vertex -0.146964297 0.00826788973 -0.027329253
  vertex -0.14671202 0.00760559551 -0.027329253
  vertex -0.146670759 0.00756095955 -0.027329253
  endloop
 endfacet

 facet normal 0 0 1
  outer loop
  vertex -0.146964297 0.00826788973 -0.027329253
  vertex -0.146670759 0.00756095955 -0.027329253
  vertex -0.146651447 0.0075429487 -0.027329253
  endloop
 endfacet

 facet normal 0 0 1
  outer loop
  vertex -0.146964297 0.00826788973 -0.027329253
  vertex -0.146651447 0.0075429487 -0.027329253
  vertex -0.146606863 0.00750203244 -0.027329253
  endloop
 endfacet

 facet normal 0 0 1
  outer loop
  vertex -0.146964297 0.00826788973 -0.027329253
  vertex -0.146606863 0.00750203244 -0.027329253
  vertex -0.146537632 0.00744878268 -0.027329253
  endloop
 endfacet

 facet normal 0 0 1
  outer loop
  vertex -0.146964297 0.00826788973 -0.027329253
  vertex -0.146537632 0.00744878268 -0.027329253
  vertex -0.146463752 0.0074019935 -0.027329253
  endloop
 endfacet

 facet normal 0 0 1
  outer loop
  vertex -0.146964297 0.00826788973 -0.027329253
  vertex -0.146463752 0.0074019935 -0.027329253
  vertex -0.146440446 0.00738965953 -0.027329253
  endloop
 endfacet

 facet normal 0 0 1
  outer loop
  vertex -0.146964297 0.00826788973 -0.027329253
  vertex -0.146440446 0.00738965953 -0.027329253
  vertex -0.146386534 0.00736166444 -0.027329253
  endloop
 endfacet

 facet normal 0 0 1
  outer loop
  vertex -0.146964297 0.00826788973 -0.027329253
  vertex -0.146386534 0.00736166444 -0.027329253
  vertex -0.146361902 0.00735148415 -0.027329253
  endloop
 endfacet

 facet normal 0 0 1
  outer loop
  vertex -0.146964297 0.00826788973 -0.027329253
  vertex -0.146361902 0.00735148415 -0.027329253
  vertex -0.146305993 0.00732838316 -0.027329253
  endloop
 endfacet

 facet normal 0 0 1
  outer loop
  vertex -0.146964297 0.00826788973 -0.027329253
  vertex -0.146305993 0.00732838316 -0.027329253
  vertex -0.146280706 0.00732035656 -0.027329253
  endloop
 endfacet

 facet normal 0 0 1
  outer loop
  vertex -0.146964297 0.00826788973 -0.027329253
  vertex -0.146280706 0.00732035656 -0.027329253
  vertex -0.1462228 0.00730215013 -0.027329253
  endloop
 endfacet

 facet normal 0 0 1
  outer loop
  vertex -0.146964297 0.00826788973 -0.027329253
  vertex -0.1462228 0.00730215013 -0.027329253
  vertex -0.146196827 0.00729627674 -0.027329253
  endloop
 endfacet

 facet normal 0 0 1
  outer loop
  vertex -0.146964297 0.00826788973 -0.027329253
  vertex -0.146196827 0.00729627674 -0.027329253
  vertex -0.146137595 0.00728316 -0.027329253
  endloop
 endfacet

 facet normal 0 0 1
  outer loop
  vertex -0.146964297 0.00826788973 -0.027329253
  vertex -0.146137595 0.00728316 -0.027329253
  vertex -0.146110967 0.00727963634 -0.027329253
  endloop
 endfacet

 facet normal 0 0 1
  outer loop
  vertex -0.146964297 0.00826788973 -0.027329253
  vertex -0.146110967 0.00727963634 -0.027329253
  vertex -0.146051064 0.00727180531 -0.027329253
  endloop
 endfacet

 facet normal 0 0 1
  outer loop
  vertex -0.146964297 0.00826788973 -0.027329253
  vertex -0.146051064 0.00727180531 -0.027329253
  vertex -0.146024436 0.00727063045 -0.027329253
  endloop
 endfacet

 facet normal 0 0 1
  outer loop
  vertex -0.146964297 0.00826788973 -0.027329253
  vertex -0.146024436 0.00727063045 -0.027329253
  vertex -0.145963863 0.00726808561 -0.027329253
  endloop
 endfacet

 facet normal 0 0 1
  outer loop
  vertex -0.146964297 0.00826788973 -0.027329253
  vertex -0.145963863 0.00726808561 -0.027329253
  vertex -0.141164735 0.00726808561 -0.027329253
  endloop
 endfacet

 facet normal 0 0 1
  outer loop
  vertex -0.146964297 0.00826788973 -0.027329253
  vertex -0.141164735 0.00726808561 -0.027329253
  vertex -0.141138107 0.00726906443 -0.027329253
  endloop
 endfacet

 facet normal 0 0 1
  outer loop
  vertex -0.146964297 0.00826788973 -0.027329253
  vertex -0.141138107 0.00726906443 -0.027329253
  vertex -0.141077533 0.00727180531 -0.027329253
  endloop
 endfacet

 facet normal 0 0 1
  outer loop
  vertex -0.146964297 0.00826788973 -0.027329253
  vertex -0.141077533 0.00727180531 -0.027329253
  vertex -0.140991002 0.00728316 -0.027329253
  endloop
 endfacet

 facet normal 0 0 1
  outer loop
  vertex -0.146964297 0.00826788973 -0.027329253
  vertex -0.140991002 0.00728316 -0.027329253
  vertex -0.140905797 0.00730215013 -0.027329253
  endloop
 endfacet

 facet normal 0 0 1
  outer loop
  vertex -0.146964297 0.00826788973 -0.027329253
  vertex -0.140905797 0.00730215013 -0.027329253
  vertex -0.140822604 0.00732838316 -0.027329253
  endloop
 endfacet

 facet normal 0 0 1
  outer loop
  vertex -0.146964297 0.00826788973 -0.027329253
  vertex -0.140822604 0.00732838316 -0.027329253
  vertex -0.140742064 0.00736166444 -0.027329253
  endloop
 endfacet

 facet normal 0 0 1
  outer loop
  vertex -0.146964297 0.00826788973 -0.027329253
  vertex -0.140742064 0.00736166444 -0.027329253
  vertex -0.140718102 0.00737399794 -0.027329253
  endloop
 endfacet

 facet normal 0 0 1
  outer loop
  vertex -0.146964297 0.00826788973 -0.027329253
  vertex -0.140718102 0.00737399794 -0.027329253
  vertex -0.140664846 0.0074019935 -0.027329253
  endloop
 endfacet

 facet normal 0 0 1
  outer loop
  vertex -0.146964297 0.00826788973 -0.027329253
  vertex -0.140664846 0.0074019935 -0.027329253
  vertex -0.140642211 0.00741628464 -0.027329253
  endloop
 endfacet

 facet normal 0 0 1
  outer loop
  vertex -0.146964297 0.00826788973 -0.027329253
  vertex -0.140642211 0.00741628464 -0.027329253
  vertex -0.140590966 0.00744878268 -0.027329253
  endloop
 endfacet

 facet normal 0 0 1
  outer loop
  vertex -0.146964297 0.00826788973 -0.027329253
  vertex -0.140590966 0.00744878268 -0.027329253
  vertex -0.140569672 0.00746503146 -0.027329253
  endloop
 endfacet

 facet normal 0 0 1
  outer loop
  vertex -0.146964297 0.00826788973 -0.027329253
  vertex -0.140569672 0.00746503146 -0.027329253
  vertex -0.140521735 0.00750203244 -0.027329253
  endloop
 endfacet

 facet normal 0 0 1
  outer loop
  vertex -0.146964297 0.00826788973 -0.027329253
  vertex -0.140521735 0.00750203244 -0.027329253
  vertex -0.140457839 0.00756095955 -0.027329253
  endloop
 endfacet

 facet normal 0 0 1
  outer loop
  vertex -0.146964297 0.00826788973 -0.027329253
  vertex -0.140457839 0.00756095955 -0.027329253
  vertex -0.140439197 0.00758053688 -0.027329253
  endloop
 endfacet

 facet normal 0 0 1
  outer loop
  vertex -0.146964297 0.00826788973 -0.027329253
  vertex -0.140439197 0.00758053688 -0.027329253
  vertex -0.140398607 0.00762517238 -0.027329253
  endloop
 endfacet

 facet normal 0 0 1
  outer loop
  vertex -0.146964297 0.00826788973 -0.027329253
  vertex -0.140398607 0.00762517238 -0.027329253
  vertex -0.14034535 0.00769447582 -0.027329253
  endloop
 endfacet

 facet normal 0 0 1
  outer loop
  vertex -0.146964297 0.00826788973 -0.027329253
  vertex -0.14034535 0.00769447582 -0.027329253
  vertex -0.140298754 0.00776808569 -0.027329253
  endloop
 endfacet

 facet normal 0 0 1
  outer loop
  vertex -0.146964297 0.00826788973 -0.027329253
  vertex -0.140298754 0.00776808569 -0.027329253
  vertex -0.140286103 0.0077915783 -0.027329253
  endloop
 endfacet

 facet normal 0 0 1
  outer loop
  vertex -0.146964297 0.00826788973 -0.027329253
  vertex -0.140286103 0.0077915783 -0.027329253
  vertex -0.140258148 0.00784541573 -0.027329253
  endloop
 endfacet

 facet normal 0 0 1
  outer loop
  vertex -0.146964297 0.00826788973 -0.027329253
  vertex -0.140258148 0.00784541573 -0.027329253
  vertex -0.140224874 0.00792587735 -0.027329253
  endloop
 endfacet

 facet normal 0 0 1
  outer loop
  vertex -0.146964297 0.00826788973 -0.027329253
  vertex -0.140224874 0.00792587735 -0.027329253
  vertex -0.140216887 0.0079513276 -0.027329253
  endloop
 endfacet

 facet normal 0 0 1
  outer loop
  vertex -0.146964297 0.00826788973 -0.027329253
  vertex -0.140216887 0.0079513276 -0.027329253
  vertex -0.140198916 0.00800907984 -0.027329253
  endloop
 endfacet

 facet normal 0 0 1
  outer loop
  vertex -0.146964297 0.00826788973 -0.027329253
  vertex -0.140198916 0.00800907984 -0.027329253
  vertex -0.140192926 0.00803531334 -0.027329253
  endloop
 endfacet

 facet normal 0 0 1
  outer loop
  vertex -0.146964297 0.00826788973 -0.027329253
  vertex -0.140192926 0.00803531334 -0.027329253
  vertex -0.140179604 0.00809443649 -0.027329253
  endloop
 endfacet

 facet normal 0 0 1
  outer loop
  vertex -0.146964297 0.00826788973 -0.027329253
  vertex -0.140179604 0.00809443649 -0.027329253
  vertex -0.140168294 0.00818077195 -0.027329253
  endloop
 endfacet

 facet normal 0 0 1
  outer loop
  vertex -0.146964297 0.00826788973 -0.027329253
  vertex -0.140168294 0.00818077195 -0.027329253
  vertex -0.140166968 0.0082073966 -0.027329253
  endloop
 endfacet

 facet normal 0 0 1
  outer loop
  vertex -0.146964297 0.00826788973 -0.027329253
  vertex -0.140166968 0.0082073966 -0.027329253
  vertex -0.140164301 0.00826788973 -0.027329253
  endloop
 endfacet

 facet normal 0 0 1
  outer loop
  vertex -0.146964297 0.00826788973 -0.027329253
  vertex -0.140164301 0.00826788973 -0.027329253
  vertex -0.140168294 0.00835500844 -0.027329253
  endloop
 endfacet

 facet normal 0 0 1
  outer loop
  vertex -0.146964297 0.00826788973 -0.027329253
  vertex -0.140168294 0.00835500844 -0.027329253
  vertex -0.140171617 0.00838143751 -0.027329253
  endloop
 endfacet

 facet normal 0 0 1
  outer loop
  vertex -0.146964297 0.00826788973 -0.027329253
  vertex -0.140171617 0.00838143751 -0.027329253
  vertex -0.140179604 0.00844134297 -0.027329253
  endloop
 endfacet

 facet normal 0 0 1
  outer loop
  vertex -0.146964297 0.00826788973 -0.027329253
  vertex -0.140179604 0.00844134297 -0.027329253
  vertex -0.140198916 0.00852669962 -0.027329253
  endloop
 endfacet

 facet normal 0 0 1
  outer loop
  vertex -0.146964297 0.00826788973 -0.027329253
  vertex -0.140198916 0.00852669962 -0.027329253
  vertex -0.140224874 0.00860990211 -0.027329253
  endloop
 endfacet

 facet normal 0 0 1
  outer loop
  vertex -0.146964297 0.00826788973 -0.027329253
  vertex -0.140224874 0.00860990211 -0.027329253
  vertex -0.140234858 0.00863437355 -0.027329253
  endloop
 endfacet

 facet normal 0 0 1
  outer loop
  vertex -0.146964297 0.00826788973 -0.027329253
  vertex -0.140234858 0.00863437355 -0.027329253
  vertex -0.140258148 0.00869036466 -0.027329253
  endloop
 endfacet

 facet normal 0 0 1
  outer loop
  vertex -0.146964297 0.00826788973 -0.027329253
  vertex -0.140258148 0.00869036466 -0.027329253
  vertex -0.140298754 0.00876769423 -0.027329253
  endloop
 endfacet

 facet normal 0 0 1
  outer loop
  vertex -0.146964297 0.00826788973 -0.027329253
  vertex -0.140298754 0.00876769423 -0.027329253
  vertex -0.140312731 0.00879020803 -0.027329253
  endloop
 endfacet

 facet normal 0 0 1
  outer loop
  vertex -0.146964297 0.00826788973 -0.027329253
  vertex -0.140312731 0.00879020803 -0.027329253
  vertex -0.14034535 0.00884130411 -0.027329253
  endloop
 endfacet

 facet normal 0 0 1
  outer loop
  vertex -0.146964297 0.00826788973 -0.027329253
  vertex -0.14034535 0.00884130411 -0.027329253
  vertex -0.140398607 0.00891060755 -0.027329253
  endloop
 endfacet

 facet normal 0 0 1
  outer loop
  vertex -0.146964297 0.00826788973 -0.027329253
  vertex -0.140398607 0.00891060755 -0.027329253
  vertex -0.140416577 0.00893018395 -0.027329253
  endloop
 endfacet

 facet normal 0 0 1
  outer loop
  vertex -0.146964297 0.00826788973 -0.027329253
  vertex -0.140416577 0.00893018395 -0.027329253
  vertex -0.140457839 0.00897482038 -0.027329253
  endloop
 endfacet

 facet normal 0 0 1
  outer loop
  vertex -0.146964297 0.00826788973 -0.027329253
  vertex -0.140457839 0.00897482038 -0.027329253
  vertex -0.140477151 0.00899283122 -0.027329253
  endloop
 endfacet

 facet normal 0 0 1
  outer loop
  vertex -0.146964297 0.00826788973 -0.027329253
  vertex -0.140477151 0.00899283122 -0.027329253
  vertex -0.140521735 0.00903374795 -0.027329253
  endloop
 endfacet

 facet normal 0 0 1
  outer loop
  vertex -0.146964297 0.00826788973 -0.027329253
  vertex -0.140521735 0.00903374795 -0.027329253
  vertex -0.140590966 0.00908699725 -0.027329253
  endloop
 endfacet

 facet normal 0 0 1
  outer loop
  vertex -0.146964297 0.00826788973 -0.027329253
  vertex -0.140590966 0.00908699725 -0.027329253
  vertex -0.140664846 0.00913378689 -0.027329253
  endloop
 endfacet

 facet normal 0 0 1
  outer loop
  vertex -0.146964297 0.00826788973 -0.027329253
  vertex -0.140664846 0.00913378689 -0.027329253
  vertex -0.140688151 0.0091461204 -0.027329253
  endloop
 endfacet

 facet normal 0 0 1
  outer loop
  vertex -0.146964297 0.00826788973 -0.027329253
  vertex -0.140688151 0.0091461204 -0.027329253
  vertex -0.140742064 0.00917411502 -0.027329253
  endloop
 endfacet

 facet normal 0 0 1
  outer loop
  vertex -0.146964297 0.00826788973 -0.027329253
  vertex -0.140742064 0.00917411502 -0.027329253
  vertex -0.140766695 0.00918429531 -0.027329253
  endloop
 endfacet

 facet normal 0 0 1
  outer loop
  vertex -0.146964297 0.00826788973 -0.027329253
  vertex -0.140766695 0.00918429531 -0.027329253
  vertex -0.140822604 0.00920739677 -0.027329253
  endloop
 endfacet

 facet normal 0 0 1
  outer loop
  vertex -0.146964297 0.00826788973 -0.027329253
  vertex -0.140822604 0.00920739677 -0.027329253
  vertex -0.140847892 0.00921542291 -0.027329253
  endloop
 endfacet

 facet normal 0 0 1
  outer loop
  vertex -0.146964297 0.00826788973 -0.027329253
  vertex -0.140847892 0.00921542291 -0.027329253
  vertex -0.140905797 0.00923363026 -0.027329253
  endloop
 endfacet

 facet normal 0 0 1
  outer loop
  vertex -0.146964297 0.00826788973 -0.027329253
  vertex -0.140905797 0.00923363026 -0.027329253
  vertex -0.14093177 0.00923950318 -0.027329253
  endloop
 endfacet

 facet normal 0 0 1
  outer loop
  vertex -0.146964297 0.00826788973 -0.027329253
  vertex -0.14093177 0.00923950318 -0.027329253
  vertex -0.140991002 0.00925261993 -0.027329253
  endloop
 endfacet

 facet normal 0 0 1
  outer loop
  vertex -0.146964297 0.00826788973 -0.027329253
  vertex -0.140991002 0.00925261993 -0.027329253
  vertex -0.141017631 0.00925614405 -0.027329253
  endloop
 endfacet

 facet normal 0 0 1
  outer loop
  vertex -0.146964297 0.00826788973 -0.027329253
  vertex -0.141017631 0.00925614405 -0.027329253
  vertex -0.141077533 0.00926397461 -0.027329253
  endloop
 endfacet

 facet normal 0 0 1
  outer loop
  vertex -0.146964297 0.00826788973 -0.027329253
  vertex -0.141077533 0.00926397461 -0.027329253
  vertex -0.141164735 0.00926788989 -0.027329253
  endloop
 endfacet

 facet normal 0 0 1
  outer loop
  vertex -0.146964297 0.00826788973 -0.027329253
  vertex -0.141164735 0.00926788989 -0.027329253
  vertex -0.145963863 0.00926788989 -0.027329253
  endloop
 endfacet

 facet normal 0 0 1
  outer loop
  vertex -0.146964297 0.00826788973 -0.027329253
  vertex -0.145963863 0.00926788989 -0.027329253
  vertex -0.145990491 0.0092667155 -0.027329253
  endloop
 endfacet

 facet normal 0 0 1
  outer loop
  vertex -0.146964297 0.00826788973 -0.027329253
  vertex -0.145990491 0.0092667155 -0.027329253
  vertex -0.146051064 0.00926397461 -0.027329253
  endloop
 endfacet

 facet normal 0 0 1
  outer loop
  vertex -0.146964297 0.00826788973 -0.027329253
  vertex -0.146051064 0.00926397461 -0.027329253
  vertex -0.146137595 0.00925261993 -0.027329253
  endloop
 endfacet

 facet normal 0 0 1
  outer loop
  vertex -0.146964297 0.00826788973 -0.027329253
  vertex -0.146137595 0.00925261993 -0.027329253
  vertex -0.1462228 0.00923363026 -0.027329253
  endloop
 endfacet

 facet normal 0 0 1
  outer loop
  vertex -0.146964297 0.00826788973 -0.027329253
  vertex -0.1462228 0.00923363026 -0.027329253
  vertex -0.146305993 0.00920739677 -0.027329253
  endloop
 endfacet

 facet normal 0 0 1
  outer loop
  vertex -0.146964297 0.00826788973 -0.027329253
  vertex -0.146305993 0.00920739677 -0.027329253
  vertex -0.146386534 0.00917411502 -0.027329253
  endloop
 endfacet

 facet normal 0 0 1
  outer loop
  vertex -0.146964297 0.00826788973 -0.027329253
  vertex -0.146386534 0.00917411502 -0.027329253
  vertex -0.146410495 0.00916178152 -0.027329253
  endloop
 endfacet

 facet normal 0 0 1
  outer loop
  vertex -0.146964297 0.00826788973 -0.027329253
  vertex -0.146410495 0.00916178152 -0.027329253
  vertex -0.146463752 0.00913378689 -0.027329253
  endloop
 endfacet

 facet normal 0 0 1
  outer loop
  vertex -0.146964297 0.00826788973 -0.027329253
  vertex -0.146463752 0.00913378689 -0.027329253
  vertex -0.146486387 0.00911949482 -0.027329253
  endloop
 endfacet

 facet normal 0 0 1
  outer loop
  vertex -0.146964297 0.00826788973 -0.027329253
  vertex -0.146486387 0.00911949482 -0.027329253
  vertex -0.146537632 0.00908699725 -0.027329253
  endloop
 endfacet

 facet normal 0 0 1
  outer loop
  vertex -0.146964297 0.00826788973 -0.027329253
  vertex -0.146537632 0.00908699725 -0.027329253
  vertex -0.146558926 0.00907074846 -0.027329253
  endloop
 endfacet

 facet normal 0 0 1
  outer loop
  vertex -0.146964297 0.00826788973 -0.027329253
  vertex -0.146558926 0.00907074846 -0.027329253
  vertex -0.146606863 0.00903374795 -0.027329253
  endloop
 endfacet

 facet normal 0 0 1
  outer loop
  vertex -0.146964297 0.00826788973 -0.027329253
  vertex -0.146606863 0.00903374795 -0.027329253
  vertex -0.146670759 0.00897482038 -0.027329253
  endloop
 endfacet

 facet normal 0 0 1
  outer loop
  vertex -0.146964297 0.00826788973 -0.027329253
  vertex -0.146670759 0.00897482038 -0.027329253
  vertex -0.1466894 0.00895524304 -0.027329253
  endloop
 endfacet

 facet normal 0 0 1
  outer loop
  vertex -0.146964297 0.00826788973 -0.027329253
  vertex -0.1466894 0.00895524304 -0.027329253
  vertex -0.146729991 0.00891060755 -0.027329253
  endloop
 endfacet

 facet normal 0 0 1
  outer loop
  vertex -0.146964297 0.00826788973 -0.027329253
  vertex -0.146729991 0.00891060755 -0.027329253
  vertex -0.146783248 0.00884130411 -0.027329253
  endloop
 endfacet

 facet normal 0 0 1
  outer loop
  vertex -0.146964297 0.00826788973 -0.027329253
  vertex -0.146783248 0.00884130411 -0.027329253
  vertex -0.146829844 0.00876769423 -0.027329253
  endloop
 endfacet

 facet normal 0 0 1
  outer loop
  vertex -0.146964297 0.00826788973 -0.027329253
  vertex -0.146829844 0.00876769423 -0.027329253
  vertex -0.146842495 0.00874420162 -0.027329253
  endloop
 endfacet

 facet normal 0 0 1
  outer loop
  vertex -0.146964297 0.00826788973 -0.027329253
  vertex -0.146842495 0.00874420162 -0.027329253
  vertex -0.146870449 0.00869036466 -0.027329253
  endloop
 endfacet

 facet normal 0 0 1
  outer loop
  vertex -0.146964297 0.00826788973 -0.027329253
  vertex -0.146870449 0.00869036466 -0.027329253
  vertex -0.146903723 0.00860990211 -0.027329253
  endloop
 endfacet

 facet normal 0 0 1
  outer loop
  vertex -0.146964297 0.00826788973 -0.027329253
  vertex -0.146903723 0.00860990211 -0.027329253
  vertex -0.146911711 0.00858445186 -0.027329253
  endloop
 endfacet

 facet normal 0 0 1
  outer loop
  vertex -0.146964297 0.00826788973 -0.027329253
  vertex -0.146911711 0.00858445186 -0.027329253
  vertex -0.146929681 0.00852669962 -0.027329253
  endloop
 endfacet

 facet normal 0 0 1
  outer loop
  vertex -0.146964297 0.00826788973 -0.027329253
  vertex -0.146929681 0.00852669962 -0.027329253
  vertex -0.146935672 0.00850046612 -0.027329253
  endloop
 endfacet

 facet normal 0 0 1
  outer loop
  vertex -0.146964297 0.00826788973 -0.027329253
  vertex -0.146935672 0.00850046612 -0.027329253
  vertex -0.146948993 0.00844134297 -0.027329253
  endloop
 endfacet

 facet normal 0 0 1
  outer loop
  vertex -0.146964297 0.00826788973 -0.027329253
  vertex -0.146948993 0.00844134297 -0.027329253
  vertex -0.146960303 0.00835500844 -0.027329253
  endloop
 endfacet

 facet normal 0 0 1
  outer loop
  vertex -0.146964297 0.00826788973 -0.027329253
  vertex -0.146960303 0.00835500844 -0.027329253
  vertex -0.146961629 0.00832838286 -0.027329253
  endloop
 endfacet

 facet normal -0.998752058 0.0499423631 0
  outer loop
  vertex -0.146961629 0.00832838286 -0.027329253
  vertex -0.146960303 0.00835500844 -0.027329253
  vertex -0.146960303 0.00835500844 -0.0307996608
  endloop
 endfacet

 facet normal -0.991520345 0.129951641 0
  outer loop
  vertex -0.146960303 0.00835500844 -0.0307996608
  vertex -0.146960303 0.00835500844 -0.027329253
  vertex -0.146948993 0.00844134297 -0.027329253
  endloop
 endfacet

 facet normal -0.991520345 0.129951641 0
  outer loop
  vertex -0.146960303 0.00835500844 -0.0307996608
  vertex -0.146948993 0.00844134297 -0.027329253
  vertex -0.146948993 0.00844134297 -0.0307996608
  endloop
 endfacet

 facet normal -0.992166042 -0.124926314 0
  outer loop
  vertex -0.146960303 0.00818077195 -0.0307996608
  vertex -0.14695698 0.00815434288 -0.027329253
  vertex -0.146960303 0.00818077195 -0.027329253
  endloop
 endfacet

 facet normal -0.991520345 -0.12995179 -3.88909975e-05
  outer loop
  vertex -0.146960303 0.00818077195 -0.0307996608
  vertex -0.146948993 0.00809443649 -0.0307996608
  vertex -0.14695698 0.00815434288 -0.027329253
  endloop
 endfacet

 facet normal -0.975575268 0.21966587 0
  outer loop
  vertex -0.146948993 0.00844134297 -0.0307996608
  vertex -0.146948993 0.00844134297 -0.027329253
  vertex -0.146935672 0.00850046612 -0.027329253
  endloop
 endfacet

 facet normal -0.97536993 0.220575497 -1.62840406e-05
  outer loop
  vertex -0.146948993 0.00844134297 -0.0307996608
  vertex -0.146935672 0.00850046612 -0.027329253
  vertex -0.146929681 0.00852669962 -0.0307996608
  endloop
 endfacet

 facet normal -0.991227627 -0.13216573 0
  outer loop
  vertex -0.14695698 0.00815434288 -0.027329253
  vertex -0.146948993 0.00809443649 -0.0307996608
  vertex -0.146948993 0.00809443649 -0.027329253
  endloop
 endfacet

 facet normal -0.97536993 -0.220575273 0
  outer loop
  vertex -0.146948993 0.00809443649 -0.0307996608
  vertex -0.146929681 0.00800907984 -0.0307996608
  vertex -0.146929681 0.00800907984 -0.027329253
  endloop
 endfacet

 facet normal -0.97536993 -0.220575273 0
  outer loop
  vertex -0.146948993 0.00809443649 -0.0307996608
  vertex -0.146929681 0.00800907984 -0.027329253
  vertex -0.146948993 0.00809443649 -0.027329253
  endloop
 endfacet

 facet normal -0.974904537 0.222623438 0
  outer loop
  vertex -0.146935672 0.00850046612 -0.027329253
  vertex -0.146929681 0.00852669962 -0.027329253
  vertex -0.146929681 0.00852669962 -0.0307996608
  endloop
 endfacet

 facet normal -0.954837501 0.297128409 0
  outer loop
  vertex -0.146929681 0.00852669962 -0.0307996608
  vertex -0.146929681 0.00852669962 -0.027329253
  vertex -0.146911711 0.00858445186 -0.027329253
  endloop
 endfacet

 facet normal -0.954616189 0.297838837 -1.29691034e-05
  outer loop
  vertex -0.146929681 0.00852669962 -0.0307996608
  vertex -0.146911711 0.00858445186 -0.027329253
  vertex -0.146903723 0.00860990211 -0.0307996608
  endloop
 endfacet

 facet normal -0.954616189 -0.297838837 0
  outer loop
  vertex -0.146929681 0.00800907984 -0.0307996608
  vertex -0.146903723 0.00792587735 -0.0307996608
  vertex -0.146903723 0.00792587735 -0.027329253
  endloop
 endfacet

 facet normal -0.954616189 -0.297838837 0
  outer loop
  vertex -0.146929681 0.00800907984 -0.0307996608
  vertex -0.146903723 0.00792587735 -0.027329253
  vertex -0.146929681 0.00800907984 -0.027329253
  endloop
 endfacet

 facet normal -0.954112351 0.299449205 0
  outer loop
  vertex -0.146911711 0.00858445186 -0.027329253
  vertex -0.146903723 0.00860990211 -0.027329253
  vertex -0.146903723 0.00860990211 -0.0307996608
  endloop
 endfacet

 facet normal -0.924072027 0.38221845 0
  outer loop
  vertex -0.146903723 0.00860990211 -0.0307996608
  vertex -0.146903723 0.00860990211 -0.027329253
  vertex -0.146870449 0.00869036466 -0.027329253
  endloop
 endfacet

 facet normal -0.924072027 0.38221845 0
  outer loop
  vertex -0.146903723 0.00860990211 -0.0307996608
  vertex -0.146870449 0.00869036466 -0.027329253
  vertex -0.146870449 0.00869036466 -0.0307996608
  endloop
 endfacet

 facet normal -0.924072027 -0.38221845 -3.65626402e-05
  outer loop
  vertex -0.146903723 0.00792587735 -0.0307996608
  vertex -0.146870449 0.00784541573 -0.0307996608
  vertex -0.14689374 0.00790140592 -0.027329253
  endloop
 endfacet

 facet normal -0.925896347 -0.377777666 0
  outer loop
  vertex -0.146903723 0.00792587735 -0.0307996608
  vertex -0.14689374 0.00790140592 -0.027329253
  vertex -0.146903723 0.00792587735 -0.027329253
  endloop
 endfacet

 facet normal -0.887480199 0.460845888 0
  outer loop
  vertex -0.146870449 0.00869036466 -0.0307996608
  vertex -0.146870449 0.00869036466 -0.027329253
  vertex -0.146842495 0.00874420162 -0.027329253
  endloop
 endfacet

 facet normal -0.885374904 0.464877725 -7.95060769e-05
  outer loop
  vertex -0.146870449 0.00869036466 -0.0307996608
  vertex -0.146842495 0.00874420162 -0.027329253
  vertex -0.146829844 0.00876769423 -0.0307996608
  endloop
 endfacet

 facet normal -0.885374904 -0.464877725 0
  outer loop
  vertex -0.146870449 0.00784541573 -0.0307996608
  vertex -0.146829844 0.00776808569 -0.0307996608
  vertex -0.146829844 0.00776808569 -0.027329253
  endloop
 endfacet

 facet normal -0.885374904 -0.464877725 0
  outer loop
  vertex -0.146870449 0.00784541573 -0.0307996608
  vertex -0.146829844 0.00776808569 -0.027329253
  vertex -0.146870449 0.00784541573 -0.027329253
  endloop
 endfacet

 facet normal -0.923270226 -0.384151071 0
  outer loop
  vertex -0.146870449 0.00784541573 -0.0307996608
  vertex -0.146870449 0.00784541573 -0.027329253
  vertex -0.14689374 0.00790140592 -0.027329253
  endloop
 endfacet

 facet normal -0.880519986 0.474009126 0
  outer loop
  vertex -0.146842495 0.00874420162 -0.027329253
  vertex -0.146829844 0.00876769423 -0.027329253
  vertex -0.146829844 0.00876769423 -0.0307996608
  endloop
 endfacet

 facet normal -0.84495157 0.534842968 0
  outer loop
  vertex -0.146829844 0.00876769423 -0.0307996608
  vertex -0.146829844 0.00876769423 -0.027329253
  vertex -0.146783248 0.00884130411 -0.027329253
  endloop
 endfacet

 facet normal -0.84495157 0.534842968 0
  outer loop
  vertex -0.146829844 0.00876769423 -0.0307996608
  vertex -0.146783248 0.00884130411 -0.027329253
  vertex -0.146783248 0.00884130411 -0.0307996608
  endloop
 endfacet

 facet normal -0.849570751 -0.527474761 0
  outer loop
  vertex -0.146829844 0.00776808569 -0.0307996608
  vertex -0.146815866 0.0077455719 -0.027329253
  vertex -0.146829844 0.00776808569 -0.027329253
  endloop
 endfacet

 facet normal -0.84495157 -0.534842968 -6.64054824e-05
  outer loop
  vertex -0.146829844 0.00776808569 -0.0307996608
  vertex -0.146783248 0.00769447582 -0.0307996608
  vertex -0.146815866 0.0077455719 -0.027329253
  endloop
 endfacet

 facet normal -0.79295814 0.609276175 0
  outer loop
  vertex -0.146783248 0.00884130411 -0.0307996608
  vertex -0.146783248 0.00884130411 -0.027329253
  vertex -0.146729991 0.00891060755 -0.027329253
  endloop
 endfacet

 facet normal -0.79295814 0.609276175 0
  outer loop
  vertex -0.146783248 0.00884130411 -0.0307996608
  vertex -0.146729991 0.00891060755 -0.027329253
  vertex -0.146729991 0.00891060755 -0.0307996608
  endloop
 endfacet

 facet normal -0.842912138 -0.538051367 0
  outer loop
  vertex -0.146815866 0.0077455719 -0.027329253
  vertex -0.146783248 0.00769447582 -0.0307996608
  vertex -0.146783248 0.00769447582 -0.027329253
  endloop
 endfacet

 facet normal -0.79295814 -0.609276175 0
  outer loop
  vertex -0.146783248 0.00769447582 -0.0307996608
  vertex -0.146729991 0.00762517238 -0.0307996608
  vertex -0.146729991 0.00762517238 -0.027329253
  endloop
 endfacet

 facet normal -0.79295814 -0.609276175 0
  outer loop
  vertex -0.146783248 0.00769447582 -0.0307996608
  vertex -0.146729991 0.00762517238 -0.027329253
  vertex -0.146783248 0.00769447582 -0.027329253
  endloop
 endfacet

 facet normal -0.739734352 0.672899127 0
  outer loop
  vertex -0.146729991 0.00891060755 -0.0307996608
  vertex -0.146729991 0.00891060755 -0.027329253
  vertex -0.1466894 0.00895524304 -0.027329253
  endloop
 endfacet

 facet normal -0.73499316 0.678074539 -0.000122037571
  outer loop
  vertex -0.146729991 0.00891060755 -0.0307996608
  vertex -0.1466894 0.00895524304 -0.027329253
  vertex -0.146670759 0.00897482038 -0.0307996608
  endloop
 endfacet

 facet normal -0.73499316 -0.678074539 -1.89477469e-05
  outer loop
  vertex -0.146729991 0.00762517238 -0.0307996608
  vertex -0.146670759 0.00756095955 -0.0307996608
  vertex -0.14671202 0.00760559551 -0.027329253
  endloop
 endfacet

 facet normal -0.736668706 -0.676253915 0
  outer loop
  vertex -0.146729991 0.00762517238 -0.0307996608
  vertex -0.14671202 0.00760559551 -0.027329253
  vertex -0.146729991 0.00762517238 -0.027329253
  endloop
 endfacet

 facet normal -0.72427839 0.689507663 0
  outer loop
  vertex -0.1466894 0.00895524304 -0.027329253
  vertex -0.146670759 0.00897482038 -0.027329253
  vertex -0.146670759 0.00897482038 -0.0307996608
  endloop
 endfacet

 facet normal -0.677923977 0.735132039 0
  outer loop
  vertex -0.146670759 0.00897482038 -0.0307996608
  vertex -0.146670759 0.00897482038 -0.027329253
  vertex -0.146606863 0.00903374795 -0.027329253
  endloop
 endfacet

 facet normal -0.677923977 0.735132039 0
  outer loop
  vertex -0.146670759 0.00897482038 -0.0307996608
  vertex -0.146606863 0.00903374795 -0.027329253
  vertex -0.146606863 0.00903374795 -0.0307996608
  endloop
 endfacet

 facet normal -0.677923441 -0.735132575 -4.45469741e-05
  outer loop
  vertex -0.146670759 0.00756095955 -0.0307996608
  vertex -0.146606863 0.00750203244 -0.0307996608
  vertex -0.146651447 0.0075429487 -0.027329253
  endloop
 endfacet

 facet normal -0.682216585 -0.73115015 0
  outer loop
  vertex -0.146670759 0.00756095955 -0.0307996608
  vertex -0.146651447 0.0075429487 -0.027329253
  vertex -0.146670759 0.00756095955 -0.027329253
  endloop
 endfacet

 facet normal -0.734259307 -0.678869188 0
  outer loop
  vertex -0.146670759 0.00756095955 -0.0307996608
  vertex -0.146670759 0.00756095955 -0.027329253
  vertex -0.14671202 0.00760559551 -0.027329253
  endloop
 endfacet

 facet normal -0.611120462 0.791537702 0
  outer loop
  vertex -0.146606863 0.00903374795 -0.0307996608
  vertex -0.146606863 0.00903374795 -0.027329253
  vertex -0.146558926 0.00907074846 -0.027329253
  endloop
 endfacet

 facet normal -0.609713018 0.792622268 -3.0998599e-05
  outer loop
  vertex -0.146606863 0.00903374795 -0.0307996608
  vertex -0.146558926 0.00907074846 -0.027329253
  vertex -0.146537632 0.00908699725 -0.0307996608
  endloop
 endfacet

 facet normal -0.60971427 -0.792621374 0
  outer loop
  vertex -0.146606863 0.00750203244 -0.0307996608
  vertex -0.146537632 0.00744878268 -0.0307996608
  vertex -0.146537632 0.00744878268 -0.027329253
  endloop
 endfacet

 facet normal -0.60971427 -0.792621374 0
  outer loop
  vertex -0.146606863 0.00750203244 -0.0307996608
  vertex -0.146537632 0.00744878268 -0.027329253
  vertex -0.146606863 0.00750203244 -0.027329253
  endloop
 endfacet

 facet normal -0.676043451 -0.736861825 0
  outer loop
  vertex -0.146606863 0.00750203244 -0.0307996608
  vertex -0.146606863 0.00750203244 -0.027329253
  vertex -0.146651447 0.0075429487 -0.027329253
  endloop
 endfacet

 facet normal -0.606525302 0.795064211 0
  outer loop
  vertex -0.146558926 0.00907074846 -0.027329253
  vertex -0.146537632 0.00908699725 -0.027329253
  vertex -0.146537632 0.00908699725 -0.0307996608
  endloop
 endfacet

 facet normal -0.535493851 0.844539106 0
  outer loop
  vertex -0.146537632 0.00908699725 -0.0307996608
  vertex -0.146537632 0.00908699725 -0.027329253
  vertex -0.146486387 0.00911949482 -0.027329253
  endloop
 endfacet

 facet normal -0.535020471 0.844839096 -9.80084405e-06
  outer loop
  vertex -0.146537632 0.00908699725 -0.0307996608
  vertex -0.146486387 0.00911949482 -0.027329253
  vertex -0.146463752 0.00913378689 -0.0307996608
  endloop
 endfacet

 facet normal -0.535020471 -0.844839096 0
  outer loop
  vertex -0.146537632 0.00744878268 -0.0307996608
  vertex -0.146463752 0.0074019935 -0.0307996608
  vertex -0.146463752 0.0074019935 -0.027329253
  endloop
 endfacet

 facet normal -0.535020471 -0.844839096 0
  outer loop
  vertex -0.146537632 0.00744878268 -0.0307996608
  vertex -0.146463752 0.0074019935 -0.027329253
  vertex -0.146537632 0.00744878268 -0.027329253
  endloop
 endfacet

 facet normal -0.533946395 0.845518351 0
  outer loop
  vertex -0.146486387 0.00911949482 -0.027329253
  vertex -0.146463752 0.00913378689 -0.027329253
  vertex -0.146463752 0.00913378689 -0.0307996608
  endloop
 endfacet

 facet normal -0.465346962 0.885128438 0
  outer loop
  vertex -0.146463752 0.00913378689 -0.0307996608
  vertex -0.146463752 0.00913378689 -0.027329253
  vertex -0.146410495 0.00916178152 -0.027329253
  endloop
 endfacet

 facet normal -0.462964863 0.886376619 -4.66186284e-05
  outer loop
  vertex -0.146463752 0.00913378689 -0.0307996608
  vertex -0.146410495 0.00916178152 -0.027329253
  vertex -0.146386534 0.00917411502 -0.0307996608
  endloop
 endfacet

 facet normal -0.462964147 -0.886377037 -4.22147532e-05
  outer loop
  vertex -0.146463752 0.0074019935 -0.0307996608
  vertex -0.146386534 0.00736166444 -0.0307996608
  vertex -0.146440446 0.00738965953 -0.027329253
  endloop
 endfacet

 facet normal -0.46788317 -0.883790374 0
  outer loop
  vertex -0.146463752 0.0074019935 -0.0307996608
  vertex -0.146440446 0.00738965953 -0.027329253
  vertex -0.146463752 0.0074019935 -0.027329253
  endloop
 endfacet

 facet normal -0.457635581 0.889139891 0
  outer loop
  vertex -0.146410495 0.00916178152 -0.027329253
  vertex -0.146386534 0.00917411502 -0.027329253
  vertex -0.146386534 0.00917411502 -0.0307996608
  endloop
 endfacet

 facet normal -0.381901711 0.924202919 0
  outer loop
  vertex -0.146386534 0.00917411502 -0.0307996608
  vertex -0.146386534 0.00917411502 -0.027329253
  vertex -0.146305993 0.00920739677 -0.027329253
  endloop
 endfacet

 facet normal -0.381901711 0.924202919 0
  outer loop
  vertex -0.146386534 0.00917411502 -0.0307996608
  vertex -0.146305993 0.00920739677 -0.027329253
  vertex -0.146305993 0.00920739677 -0.0307996608
  endloop
 endfacet

 facet normal -0.382010937 -0.924157798 0
  outer loop
  vertex -0.146386534 0.00736166444 -0.0307996608
  vertex -0.146361902 0.00735148415 -0.027329253
  vertex -0.146386534 0.00736166444 -0.027329253
  endloop
 endfacet

 facet normal -0.460825264 -0.887490928 0
  outer loop
  vertex -0.146386534 0.00736166444 -0.0307996608
  vertex -0.146386534 0.00736166444 -0.027329253
  vertex -0.146440446 0.00738965953 -0.027329253
  endloop
 endfacet

 facet normal -0.381902546 -0.924202621 -9.00665952e-07
  outer loop
  vertex -0.146386534 0.00736166444 -0.0307996608
  vertex -0.146305993 0.00732838316 -0.0307996608
  vertex -0.146361902 0.00735148415 -0.027329253
  endloop
 endfacet

 facet normal -0.300702482 0.953717947 0
  outer loop
  vertex -0.146305993 0.00920739677 -0.0307996608
  vertex -0.146305993 0.00920739677 -0.027329253
  vertex -0.1462228 0.00923363026 -0.027329253
  endloop
 endfacet

 facet normal -0.300702482 0.953717947 0
  outer loop
  vertex -0.146305993 0.00920739677 -0.0307996608
  vertex -0.1462228 0.00923363026 -0.027329253
  vertex -0.1462228 0.00923363026 -0.0307996608
  endloop
 endfacet

 facet normal -0.381854832 -0.92422235 0
  outer loop
  vertex -0.146361902 0.00735148415 -0.027329253
  vertex -0.146305993 0.00732838316 -0.0307996608
  vertex -0.146305993 0.00732838316 -0.027329253
  endloop
 endfacet

 facet normal -0.300701618 -0.953718305 -1.42297831e-05
  outer loop
  vertex -0.146305993 0.00732838316 -0.0307996608
  vertex -0.1462228 0.00730215013 -0.0307996608
  vertex -0.146280706 0.00732035656 -0.027329253
  endloop
 endfacet

 facet normal -0.302475929 -0.953157067 0
  outer loop
  vertex -0.146305993 0.00732838316 -0.0307996608
  vertex -0.146280706 0.00732035656 -0.027329253
  vertex -0.146305993 0.00732838316 -0.027329253
  endloop
 endfacet

 facet normal -0.217547506 0.976049781 0
  outer loop
  vertex -0.1462228 0.00923363026 -0.0307996608
  vertex -0.1462228 0.00923363026 -0.027329253
  vertex -0.146137595 0.00925261993 -0.027329253
  endloop
 endfacet

 facet normal -0.217547506 0.976049781 0
  outer loop
  vertex -0.1462228 0.00923363026 -0.0307996608
  vertex -0.146137595 0.00925261993 -0.027329253
  vertex -0.146137595 0.00925261993 -0.0307996608
  endloop
 endfacet

 facet normal -0.299925655 -0.953962564 0
  outer loop
  vertex -0.1462228 0.00730215013 -0.0307996608
  vertex -0.1462228 0.00730215013 -0.027329253
  vertex -0.146280706 0.00732035656 -0.027329253
  endloop
 endfacet

 facet normal -0.217548415 -0.976049542 -2.45242063e-05
  outer loop
  vertex -0.1462228 0.00730215013 -0.0307996608
  vertex -0.146137595 0.00728316 -0.0307996608
  vertex -0.146196827 0.00729627674 -0.027329253
  endloop
 endfacet

 facet normal -0.220668495 -0.97534889 0
  outer loop
  vertex -0.1462228 0.00730215013 -0.0307996608
  vertex -0.146196827 0.00729627674 -0.027329253
  vertex -0.1462228 0.00730215013 -0.027329253
  endloop
 endfacet

 facet normal -0.13010782 0.99149996 0
  outer loop
  vertex -0.146137595 0.00925261993 -0.0307996608
  vertex -0.146137595 0.00925261993 -0.027329253
  vertex -0.146051064 0.00926397461 -0.027329253
  endloop
 endfacet

 facet normal -0.13010782 0.99149996 0
  outer loop
  vertex -0.146137595 0.00925261993 -0.0307996608
  vertex -0.146051064 0.00926397461 -0.027329253
  vertex -0.146051064 0.00926397461 -0.0307996608
  endloop
 endfacet

 facet normal -0.130105913 -0.991500199 -8.6310929e-06
  outer loop
  vertex -0.146137595 0.00728316 -0.0307996608
  vertex -0.146051064 0.00727180531 -0.0307996608
  vertex -0.146110967 0.00727963634 -0.027329253
  endloop
 endfacet

 facet normal -0.131211638 -0.991354406 0
  outer loop
  vertex -0.146137595 0.00728316 -0.0307996608
  vertex -0.146110967 0.00727963634 -0.027329253
  vertex -0.146137595 0.00728316 -0.027329253
  endloop
 endfacet

 facet normal -0.216179118 -0.976353765 0
  outer loop
  vertex -0.146137595 0.00728316 -0.0307996608
  vertex -0.146137595 0.00728316 -0.027329253
  vertex -0.146196827 0.00729627674 -0.027329253
  endloop
 endfacet

 facet normal -0.0452019237 0.9989779 0
  outer loop
  vertex -0.146051064 0.00926397461 -0.0307996608
  vertex -0.146051064 0.00926397461 -0.027329253
  vertex -0.145990491 0.0092667155 -0.027329253
  endloop
 endfacet

 facet normal -0.0448574349 0.998993397 -6.02489035e-06
  outer loop
  vertex -0.146051064 0.00926397461 -0.0307996608
  vertex -0.145990491 0.0092667155 -0.027329253
  vertex -0.145963863 0.00926788989 -0.0307996608
  endloop
 endfacet

 facet normal -0.0426197127 -0.999091387 -1.12003436e-05
  outer loop
  vertex -0.146051064 0.00727180531 -0.0307996608
  vertex -0.145963863 0.00726808561 -0.0307996608
  vertex -0.146024436 0.00727063045 -0.027329253
  endloop
 endfacet

 facet normal -0.0440768264 -0.999028265 0
  outer loop
  vertex -0.146051064 0.00727180531 -0.0307996608
  vertex -0.146024436 0.00727063045 -0.027329253
  vertex -0.146051064 0.00727180531 -0.027329253
  endloop
 endfacet

 facet normal -0.129614323 -0.991564512 0
  outer loop
  vertex -0.146051064 0.00727180531 -0.0307996608
  vertex -0.146051064 0.00727180531 -0.027329253
  vertex -0.146110967 0.00727963634 -0.027329253
  endloop
 endfacet

 facet normal -0.0440736562 0.999028325 0
  outer loop
  vertex -0.145990491 0.0092667155 -0.027329253
  vertex -0.145963863 0.00926788989 -0.027329253
  vertex -0.145963863 0.00926788989 -0.0307996608
  endloop
 endfacet

 facet normal 0 1 0
  outer loop
  vertex -0.145963863 0.00926788989 -0.0307996608
  vertex -0.145963863 0.00926788989 -0.027329253
  vertex -0.141164735 0.00926788989 -0.027329253
  endloop
 endfacet

 facet normal 0 1 0
  outer loop
  vertex -0.145963863 0.00926788989 -0.0307996608
  vertex -0.141164735 0.00926788989 -0.027329253
  vertex -0.141164735 0.00926788989 -0.0307996608
  endloop
 endfacet

 facet normal -0.0419791266 -0.999118507 0
  outer loop
  vertex -0.145963863 0.00726808561 -0.0307996608
  vertex -0.145963863 0.00726808561 -0.027329253
  vertex -0.146024436 0.00727063045 -0.027329253
  endloop
 endfacet

 facet normal 0 -1 0
  outer loop
  vertex -0.145963863 0.00726808561 -0.0307996608
  vertex -0.141164735 0.00726808561 -0.0307996608
  vertex -0.141164735 0.00726808561 -0.027329253
  endloop
 endfacet

 facet normal 0 -1 0
  outer loop
  vertex -0.145963863 0.00726808561 -0.0307996608
  vertex -0.141164735 0.00726808561 -0.027329253
  vertex -0.145963863 0.00726808561 -0.027329253
  endloop
 endfacet

 facet normal 0.0448570848 0.998993397 0
  outer loop
  vertex -0.141164735 0.00926788989 -0.0307996608
  vertex -0.141164735 0.00926788989 -0.027329253
  vertex -0.141077533 0.00926397461 -0.027329253
  endloop
 endfacet

 facet normal 0.0448570848 0.998993397 0
  outer loop
  vertex -0.141164735 0.00926788989 -0.0307996608
  vertex -0.141077533 0.00926397461 -0.027329253
  vertex -0.141077533 0.00926397461 -0.0307996608
  endloop
 endfacet

 facet normal 0.0426193774 -0.999091387 -4.51802625e-05
  outer loop
  vertex -0.141164735 0.00726808561 -0.0307996608
  vertex -0.141077533 0.00727180531 -0.0307996608
  vertex -0.141138107 0.00726906443 -0.027329253
  endloop
 endfacet

 facet normal 0.0367389508 -0.999324918 0
  outer loop
  vertex -0.141164735 0.00726808561 -0.0307996608
  vertex -0.141138107 0.00726906443 -0.027329253
  vertex -0.141164735 0.00726808561 -0.027329253
  endloop
 endfacet

 facet normal 0.129618153 0.991563976 0
  outer loop
  vertex -0.141077533 0.00926397461 -0.0307996608
  vertex -0.141077533 0.00926397461 -0.027329253
  vertex -0.141017631 0.00925614405 -0.027329253
  endloop
 endfacet

 facet normal 0.130108565 0.991499782 -8.61036824e-06
  outer loop
  vertex -0.141077533 0.00926397461 -0.0307996608
  vertex -0.141017631 0.00925614405 -0.027329253
  vertex -0.140991002 0.00925261993 -0.0307996608
  endloop
 endfacet

 facet normal 0.130106643 -0.99150002 0
  outer loop
  vertex -0.141077533 0.00727180531 -0.0307996608
  vertex -0.140991002 0.00728316 -0.0307996608
  vertex -0.140991002 0.00728316 -0.027329253
  endloop
 endfacet

 facet normal 0.130106643 -0.99150002 0
  outer loop
  vertex -0.141077533 0.00727180531 -0.0307996608
  vertex -0.140991002 0.00728316 -0.027329253
  vertex -0.141077533 0.00727180531 -0.027329253
  endloop
 endfacet

 facet normal 0.045202814 -0.99897784 0
  outer loop
  vertex -0.141077533 0.00727180531 -0.0307996608
  vertex -0.141077533 0.00727180531 -0.027329253
  vertex -0.141138107 0.00726906443 -0.027329253
  endloop
 endfacet

 facet normal 0.131211638 0.991354406 0
  outer loop
  vertex -0.141017631 0.00925614405 -0.027329253
  vertex -0.140991002 0.00925261993 -0.027329253
  vertex -0.140991002 0.00925261993 -0.0307996608
  endloop
 endfacet

 facet normal 0.216177195 0.976354122 0
  outer loop
  vertex -0.140991002 0.00925261993 -0.0307996608
  vertex -0.140991002 0.00925261993 -0.027329253
  vertex -0.14093177 0.00923950318 -0.027329253
  endloop
 endfacet

 facet normal 0.217546701 0.976050019 -2.45273241e-05
  outer loop
  vertex -0.140991002 0.00925261993 -0.0307996608
  vertex -0.14093177 0.00923950318 -0.027329253
  vertex -0.140905797 0.00923363026 -0.0307996608
  endloop
 endfacet

 facet normal 0.217547625 -0.976049781 0
  outer loop
  vertex -0.140991002 0.00728316 -0.0307996608
  vertex -0.140905797 0.00730215013 -0.0307996608
  vertex -0.140905797 0.00730215013 -0.027329253
  endloop
 endfacet

 facet normal 0.217547625 -0.976049781 0
  outer loop
  vertex -0.140991002 0.00728316 -0.0307996608
  vertex -0.140905797 0.00730215013 -0.027329253
  vertex -0.140991002 0.00728316 -0.027329253
  endloop
 endfacet

 facet normal 0.220667124 0.975349188 0
  outer loop
  vertex -0.14093177 0.00923950318 -0.027329253
  vertex -0.140905797 0.00923363026 -0.027329253
  vertex -0.140905797 0.00923363026 -0.0307996608
  endloop
 endfacet

 facet normal 0.299925983 0.953962505 0
  outer loop
  vertex -0.140905797 0.00923363026 -0.0307996608
  vertex -0.140905797 0.00923363026 -0.027329253
  vertex -0.140847892 0.00921542291 -0.027329253
  endloop
 endfacet

 facet normal 0.300703019 0.953717828 -1.42500812e-05
  outer loop
  vertex -0.140905797 0.00923363026 -0.0307996608
  vertex -0.140847892 0.00921542291 -0.027329253
  vertex -0.140822604 0.00920739677 -0.0307996608
  endloop
 endfacet

 facet normal 0.300702214 -0.953718126 0
  outer loop
  vertex -0.140905797 0.00730215013 -0.0307996608
  vertex -0.140822604 0.00732838316 -0.0307996608
  vertex -0.140822604 0.00732838316 -0.027329253
  endloop
 endfacet

 facet normal 0.300702214 -0.953718126 0
  outer loop
  vertex -0.140905797 0.00730215013 -0.0307996608
  vertex -0.140822604 0.00732838316 -0.027329253
  vertex -0.140905797 0.00730215013 -0.027329253
  endloop
 endfacet

 facet normal 0.302479893 0.953155875 0
  outer loop
  vertex -0.140847892 0.00921542291 -0.027329253
  vertex -0.140822604 0.00920739677 -0.027329253
  vertex -0.140822604 0.00920739677 -0.0307996608
  endloop
 endfacet

 facet normal 0.381854624 0.92422241 0
  outer loop
  vertex -0.140822604 0.00920739677 -0.0307996608
  vertex -0.140822604 0.00920739677 -0.027329253
  vertex -0.140766695 0.00918429531 -0.027329253
  endloop
 endfacet

 facet normal 0.381901711 0.924202919 -8.88940804e-07
  outer loop
  vertex -0.140822604 0.00920739677 -0.0307996608
  vertex -0.140766695 0.00918429531 -0.027329253
  vertex -0.140742064 0.00917411502 -0.0307996608
  endloop
 endfacet

 facet normal 0.381902546 -0.924202621 0
  outer loop
  vertex -0.140822604 0.00732838316 -0.0307996608
  vertex -0.140742064 0.00736166444 -0.0307996608
  vertex -0.140742064 0.00736166444 -0.027329253
  endloop
 endfacet

 facet normal 0.381902546 -0.924202621 0
  outer loop
  vertex -0.140822604 0.00732838316 -0.0307996608
  vertex -0.140742064 0.00736166444 -0.027329253
  vertex -0.140822604 0.00732838316 -0.027329253
  endloop
 endfacet

 facet normal 0.382008731 0.924158752 0
  outer loop
  vertex -0.140766695 0.00918429531 -0.027329253
  vertex -0.140742064 0.00917411502 -0.027329253
  vertex -0.140742064 0.00917411502 -0.0307996608
  endloop
 endfacet

 facet normal 0.460825264 0.887490928 0
  outer loop
  vertex -0.140742064 0.00917411502 -0.0307996608
  vertex -0.140742064 0.00917411502 -0.027329253
  vertex -0.140688151 0.0091461204 -0.027329253
  endloop
 endfacet

 facet normal 0.462966532 0.886375844 -4.22612902e-05
  outer loop
  vertex -0.140742064 0.00917411502 -0.0307996608
  vertex -0.140688151 0.0091461204 -0.027329253
  vertex -0.140664846 0.00913378689 -0.0307996608
  endloop
 endfacet

 facet normal 0.462965697 -0.886376262 -4.65591838e-05
  outer loop
  vertex -0.140742064 0.00736166444 -0.0307996608
  vertex -0.140664846 0.0074019935 -0.0307996608
  vertex -0.140718102 0.00737399794 -0.027329253
  endloop
 endfacet

 facet normal 0.457643121 -0.889135957 0
  outer loop
  vertex -0.140742064 0.00736166444 -0.0307996608
  vertex -0.140718102 0.00737399794 -0.027329253
  vertex -0.140742064 0.00736166444 -0.027329253
  endloop
 endfacet

 facet normal 0.467890978 0.883786201 0
  outer loop
  vertex -0.140688151 0.0091461204 -0.027329253
  vertex -0.140664846 0.00913378689 -0.027329253
  vertex -0.140664846 0.00913378689 -0.0307996608
  endloop
 endfacet

 facet normal 0.535018682 0.844840229 0
  outer loop
  vertex -0.140664846 0.00913378689 -0.0307996608
  vertex -0.140664846 0.00913378689 -0.027329253
  vertex -0.140590966 0.00908699725 -0.027329253
  endloop
 endfacet

 facet normal 0.535018682 0.844840229 0
  outer loop
  vertex -0.140664846 0.00913378689 -0.0307996608
  vertex -0.140590966 0.00908699725 -0.027329253
  vertex -0.140590966 0.00908699725 -0.0307996608
  endloop
 endfacet

 facet normal 0.535018682 -0.844840229 -9.88917873e-06
  outer loop
  vertex -0.140664846 0.0074019935 -0.0307996608
  vertex -0.140590966 0.00744878268 -0.0307996608
  vertex -0.140642211 0.00741628464 -0.027329253
  endloop
 endfacet

 facet normal 0.533934951 -0.845525503 0
  outer loop
  vertex -0.140664846 0.0074019935 -0.0307996608
  vertex -0.140642211 0.00741628464 -0.027329253
  vertex -0.140664846 0.0074019935 -0.027329253
  endloop
 endfacet

 facet normal 0.465344638 -0.885129571 0
  outer loop
  vertex -0.140664846 0.0074019935 -0.0307996608
  vertex -0.140664846 0.0074019935 -0.027329253
  vertex -0.140718102 0.00737399794 -0.027329253
  endloop
 endfacet

 facet normal 0.60971117 0.792623758 0
  outer loop
  vertex -0.140590966 0.00908699725 -0.0307996608
  vertex -0.140590966 0.00908699725 -0.027329253
  vertex -0.140521735 0.00903374795 -0.027329253
  endloop
 endfacet

 facet normal 0.60971117 0.792623758 0
  outer loop
  vertex -0.140590966 0.00908699725 -0.0307996608
  vertex -0.140521735 0.00903374795 -0.027329253
  vertex -0.140521735 0.00903374795 -0.0307996608
  endloop
 endfacet

 facet normal 0.606533408 -0.795058012 0
  outer loop
  vertex -0.140590966 0.00744878268 -0.0307996608
  vertex -0.140569672 0.00746503146 -0.027329253
  vertex -0.140590966 0.00744878268 -0.027329253
  endloop
 endfacet

 facet normal 0.535496354 -0.844537616 0
  outer loop
  vertex -0.140590966 0.00744878268 -0.0307996608
  vertex -0.140590966 0.00744878268 -0.027329253
  vertex -0.140642211 0.00741628464 -0.027329253
  endloop
 endfacet

 facet normal 0.609712362 -0.792622745 -3.09134739e-05
  outer loop
  vertex -0.140590966 0.00744878268 -0.0307996608
  vertex -0.140521735 0.00750203244 -0.0307996608
  vertex -0.140569672 0.00746503146 -0.027329253
  endloop
 endfacet

 facet normal 0.676046312 0.736859262 0
  outer loop
  vertex -0.140521735 0.00903374795 -0.0307996608
  vertex -0.140521735 0.00903374795 -0.027329253
  vertex -0.140477151 0.00899283122 -0.027329253
  endloop
 endfacet

 facet normal 0.677925944 0.73513025 -4.4539378e-05
  outer loop
  vertex -0.140521735 0.00903374795 -0.0307996608
  vertex -0.140477151 0.00899283122 -0.027329253
  vertex -0.140457839 0.00897482038 -0.0307996608
  endloop
 endfacet

 facet normal 0.611115873 -0.791541219 0
  outer loop
  vertex -0.140569672 0.00746503146 -0.027329253
  vertex -0.140521735 0.00750203244 -0.0307996608
  vertex -0.140521735 0.00750203244 -0.027329253
  endloop
 endfacet

 facet normal 0.677925408 -0.735130787 0
  outer loop
  vertex -0.140521735 0.00750203244 -0.0307996608
  vertex -0.140457839 0.00756095955 -0.0307996608
  vertex -0.140457839 0.00756095955 -0.027329253
  endloop
 endfacet

 facet normal 0.677925408 -0.735130787 0
  outer loop
  vertex -0.140521735 0.00750203244 -0.0307996608
  vertex -0.140457839 0.00756095955 -0.027329253
  vertex -0.140521735 0.00750203244 -0.027329253
  endloop
 endfacet

 facet normal 0.682218254 0.731148601 0
  outer loop
  vertex -0.140477151 0.00899283122 -0.027329253
  vertex -0.140457839 0.00897482038 -0.027329253
  vertex -0.140457839 0.00897482038 -0.0307996608
  endloop
 endfacet

 facet normal 0.734259307 0.678869188 0
  outer loop
  vertex -0.140457839 0.00897482038 -0.0307996608
  vertex -0.140457839 0.00897482038 -0.027329253
  vertex -0.140416577 0.00893018395 -0.027329253
  endloop
 endfacet

 facet normal 0.734991252 0.678076684 -1.88978993e-05
  outer loop
  vertex -0.140457839 0.00897482038 -0.0307996608
  vertex -0.140416577 0.00893018395 -0.027329253
  vertex -0.140398607 0.00891060755 -0.0307996608
  endloop
 endfacet

 facet normal 0.734991252 -0.678076625 -0.000122087047
  outer loop
  vertex -0.140457839 0.00756095955 -0.0307996608
  vertex -0.140398607 0.00762517238 -0.0307996608
  vertex -0.140439197 0.00758053688 -0.027329253
  endloop
 endfacet

 facet normal 0.724272132 -0.689514279 0
  outer loop
  vertex -0.140457839 0.00756095955 -0.0307996608
  vertex -0.140439197 0.00758053688 -0.027329253
  vertex -0.140457839 0.00756095955 -0.027329253
  endloop
 endfacet

 facet normal 0.736662328 0.676260829 0
  outer loop
  vertex -0.140416577 0.00893018395 -0.027329253
  vertex -0.140398607 0.00891060755 -0.027329253
  vertex -0.140398607 0.00891060755 -0.0307996608
  endloop
 endfacet

 facet normal 0.79295814 0.609276175 0
  outer loop
  vertex -0.140398607 0.00891060755 -0.0307996608
  vertex -0.140398607 0.00891060755 -0.027329253
  vertex -0.14034535 0.00884130411 -0.027329253
  endloop
 endfacet

 facet normal 0.79295814 0.609276175 0
  outer loop
  vertex -0.140398607 0.00891060755 -0.0307996608
  vertex -0.14034535 0.00884130411 -0.027329253
  vertex -0.14034535 0.00884130411 -0.0307996608
  endloop
 endfacet

 facet normal 0.79295814 -0.609276175 0
  outer loop
  vertex -0.140398607 0.00762517238 -0.0307996608
  vertex -0.14034535 0.00769447582 -0.0307996608
  vertex -0.14034535 0.00769447582 -0.027329253
  endloop
 endfacet

 facet normal 0.79295814 -0.609276175 0
  outer loop
  vertex -0.140398607 0.00762517238 -0.0307996608
  vertex -0.14034535 0.00769447582 -0.027329253
  vertex -0.140398607 0.00762517238 -0.027329253
  endloop
 endfacet

 facet normal 0.739734352 -0.672899127 0
  outer loop
  vertex -0.140398607 0.00762517238 -0.0307996608
  vertex -0.140398607 0.00762517238 -0.027329253
  vertex -0.140439197 0.00758053688 -0.027329253
  endloop
 endfacet

 facet normal 0.842914581 0.538047373 0
  outer loop
  vertex -0.14034535 0.00884130411 -0.0307996608
  vertex -0.14034535 0.00884130411 -0.027329253
  vertex -0.140312731 0.00879020803 -0.027329253
  endloop
 endfacet

 facet normal 0.844955087 0.534837365 -6.64377294e-05
  outer loop
  vertex -0.14034535 0.00884130411 -0.0307996608
  vertex -0.140312731 0.00879020803 -0.027329253
  vertex -0.140298754 0.00876769423 -0.0307996608
  endloop
 endfacet

 facet normal 0.844955087 -0.534837365 0
  outer loop
  vertex -0.14034535 0.00769447582 -0.0307996608
  vertex -0.140298754 0.00776808569 -0.0307996608
  vertex -0.140298754 0.00776808569 -0.027329253
  endloop
 endfacet

 facet normal 0.844955087 -0.534837365 0
  outer loop
  vertex -0.14034535 0.00769447582 -0.0307996608
  vertex -0.140298754 0.00776808569 -0.027329253
  vertex -0.14034535 0.00769447582 -0.027329253
  endloop
 endfacet

 facet normal 0.849576473 0.527465463 0
  outer loop
  vertex -0.140312731 0.00879020803 -0.027329253
  vertex -0.140298754 0.00876769423 -0.027329253
  vertex -0.140298754 0.00876769423 -0.0307996608
  endloop
 endfacet

 facet normal 0.885374904 0.464877725 0
  outer loop
  vertex -0.140298754 0.00876769423 -0.0307996608
  vertex -0.140298754 0.00876769423 -0.027329253
  vertex -0.140258148 0.00869036466 -0.027329253
  endloop
 endfacet

 facet normal 0.885374904 0.464877725 0
  outer loop
  vertex -0.140298754 0.00876769423 -0.0307996608
  vertex -0.140258148 0.00869036466 -0.027329253
  vertex -0.140258148 0.00869036466 -0.0307996608
  endloop
 endfacet

 facet normal 0.885374904 -0.464877725 -7.95923843e-05
  outer loop
  vertex -0.140298754 0.00776808569 -0.0307996608
  vertex -0.140258148 0.00784541573 -0.0307996608
  vertex -0.140286103 0.0077915783 -0.027329253
  endloop
 endfacet

 facet normal 0.880514741 -0.474018931 0
  outer loop
  vertex -0.140298754 0.00776808569 -0.0307996608
  vertex -0.140286103 0.0077915783 -0.027329253
  vertex -0.140298754 0.00776808569 -0.027329253
  endloop
 endfacet

 facet normal 0.923266113 0.384161085 0
  outer loop
  vertex -0.140258148 0.00869036466 -0.0307996608
  vertex -0.140258148 0.00869036466 -0.027329253
  vertex -0.140234858 0.00863437355 -0.027329253
  endloop
 endfacet

 facet normal 0.924070597 0.382221758 -3.66893546e-05
  outer loop
  vertex -0.140258148 0.00869036466 -0.0307996608
  vertex -0.140234858 0.00863437355 -0.027329253
  vertex -0.140224874 0.00860990211 -0.0307996608
  endloop
 endfacet

 facet normal 0.924070597 -0.382221758 0
  outer loop
  vertex -0.140258148 0.00784541573 -0.0307996608
  vertex -0.140224874 0.00792587735 -0.0307996608
  vertex -0.140224874 0.00792587735 -0.027329253
  endloop
 endfacet

 facet normal 0.924070597 -0.382221758 0
  outer loop
  vertex -0.140258148 0.00784541573 -0.0307996608
  vertex -0.140224874 0.00792587735 -0.027329253
  vertex -0.140258148 0.00784541573 -0.027329253
  endloop
 endfacet

 facet normal 0.887482524 -0.460841507 0
  outer loop
  vertex -0.140258148 0.00784541573 -0.0307996608
  vertex -0.140258148 0.00784541573 -0.027329253
  vertex -0.140286103 0.0077915783 -0.027329253
  endloop
 endfacet

 facet normal 0.925901294 0.377765596 0
  outer loop
  vertex -0.140234858 0.00863437355 -0.027329253
  vertex -0.140224874 0.00860990211 -0.027329253
  vertex -0.140224874 0.00860990211 -0.0307996608
  endloop
 endfacet

 facet normal 0.954616189 0.297838837 0
  outer loop
  vertex -0.140224874 0.00860990211 -0.0307996608
  vertex -0.140224874 0.00860990211 -0.027329253
  vertex -0.140198916 0.00852669962 -0.027329253
  endloop
 endfacet

 facet normal 0.954616189 0.297838837 0
  outer loop
  vertex -0.140224874 0.00860990211 -0.0307996608
  vertex -0.140198916 0.00852669962 -0.027329253
  vertex -0.140198916 0.00852669962 -0.0307996608
  endloop
 endfacet

 facet normal 0.954115868 -0.299437642 0
  outer loop
  vertex -0.140224874 0.00792587735 -0.0307996608
  vertex -0.140216887 0.0079513276 -0.027329253
  vertex -0.140224874 0.00792587735 -0.027329253
  endloop
 endfacet

 facet normal 0.954616189 -0.297838837 -1.28760585e-05
  outer loop
  vertex -0.140224874 0.00792587735 -0.0307996608
  vertex -0.140198916 0.00800907984 -0.0307996608
  vertex -0.140216887 0.0079513276 -0.027329253
  endloop
 endfacet

 facet normal 0.97536993 0.220575497 0
  outer loop
  vertex -0.140198916 0.00852669962 -0.0307996608
  vertex -0.140198916 0.00852669962 -0.027329253
  vertex -0.140179604 0.00844134297 -0.027329253
  endloop
 endfacet

 facet normal 0.97536993 0.220575497 0
  outer loop
  vertex -0.140198916 0.00852669962 -0.0307996608
  vertex -0.140179604 0.00844134297 -0.027329253
  vertex -0.140179604 0.00844134297 -0.0307996608
  endloop
 endfacet

 facet normal 0.954836011 -0.297133505 0
  outer loop
  vertex -0.140216887 0.0079513276 -0.027329253
  vertex -0.140198916 0.00800907984 -0.0307996608
  vertex -0.140198916 0.00800907984 -0.027329253
  endloop
 endfacet

 facet normal 0.97536993 -0.220575273 -1.62910692e-05
  outer loop
  vertex -0.140198916 0.00800907984 -0.0307996608
  vertex -0.140179604 0.00809443649 -0.0307996608
  vertex -0.140192926 0.00803531334 -0.027329253
  endloop
 endfacet

 facet normal 0.974904418 -0.222624108 0
  outer loop
  vertex -0.140198916 0.00800907984 -0.0307996608
  vertex -0.140192926 0.00803531334 -0.027329253
  vertex -0.140198916 0.00800907984 -0.027329253
  endloop
 endfacet

 facet normal 0.991227746 0.132165566 0
  outer loop
  vertex -0.140179604 0.00844134297 -0.0307996608
  vertex -0.140179604 0.00844134297 -0.027329253
  vertex -0.140171617 0.00838143751 -0.027329253
  endloop
 endfacet

 facet normal 0.991519868 0.129955485 -3.88229528e-05
  outer loop
  vertex -0.140179604 0.00844134297 -0.0307996608
  vertex -0.140171617 0.00838143751 -0.027329253
  vertex -0.140168294 0.00835500844 -0.0307996608
  endloop
 endfacet

 facet normal 0.975575328 -0.219665259 0
  outer loop
  vertex -0.140179604 0.00809443649 -0.0307996608
  vertex -0.140179604 0.00809443649 -0.027329253
  vertex -0.140192926 0.00803531334 -0.027329253
  endloop
 endfacet

 facet normal 0.991519868 -0.129955605 0
  outer loop
  vertex -0.140179604 0.00809443649 -0.0307996608
  vertex -0.140168294 0.00818077195 -0.0307996608
  vertex -0.140168294 0.00818077195 -0.027329253
  endloop
 endfacet

 facet normal 0.991519868 -0.129955605 0
  outer loop
  vertex -0.140179604 0.00809443649 -0.0307996608
  vertex -0.140168294 0.00818077195 -0.027329253
  vertex -0.140179604 0.00809443649 -0.027329253
  endloop
 endfacet

 facet normal 0.992164493 0.124938808 0
  outer loop
  vertex -0.140171617 0.00838143751 -0.027329253
  vertex -0.140168294 0.00835500844 -0.027329253
  vertex -0.140168294 0.00835500844 -0.0307996608
  endloop
 endfacet

 facet normal 0.998950899 0.0457952581 0
  outer loop
  vertex -0.140168294 0.00835500844 -0.0307996608
  vertex -0.140168294 0.00835500844 -0.027329253
  vertex -0.140164301 0.00826788973 -0.027329253
  endloop
 endfacet

 facet normal 0.998950899 0.0457952581 0
  outer loop
  vertex -0.140168294 0.00835500844 -0.0307996608
  vertex -0.140164301 0.00826788973 -0.027329253
  vertex -0.140164301 0.00826788973 -0.0307996608
  endloop
 endfacet

 facet normal 0.998950899 -0.0457952581 -3.18929415e-05
  outer loop
  vertex -0.140168294 0.00818077195 -0.0307996608
  vertex -0.140164301 0.00826788973 -0.0307996608
  vertex -0.140166968 0.0082073966 -0.027329253
  endloop
 endfacet

 facet normal 0.998752058 -0.0499423631 0
  outer loop
  vertex -0.140168294 0.00818077195 -0.0307996608
  vertex -0.140166968 0.0082073966 -0.027329253
  vertex -0.140168294 0.00818077195 -0.027329253
  endloop
 endfacet

 facet normal 0.999032915 -0.0439692102 0
  outer loop
  vertex -0.140164301 0.00826788973 -0.0307996608
  vertex -0.140164301 0.00826788973 -0.027329253
  vertex -0.140166968 0.0082073966 -0.027329253
  endloop
 endfacet

endsolid AssimpScene
