solid AssimpScene
 facet normal 1 0 0
  outer loop
  vertex -0.138362303 0.0093949968 0.00559999887
  vertex -0.138362303 0.00724173617 0.00559999887
  vertex -0.138362303 0.00724173617 -0.00875658728
  endloop
 endfacet

 facet normal 1 0 0
  outer loop
  vertex -0.138362303 0.0093949968 0.00559999887
  vertex -0.138362303 0.00724173617 -0.00875658728
  vertex -0.138362303 0.0093949968 -0.0191710759
  endloop
 endfacet

 facet normal 0 1 0
  outer loop
  vertex -0.138362303 0.0093949968 0.00559999887
  vertex -0.138362303 0.0093949968 -0.0191710759
  vertex -0.138364851 0.0093949968 -0.0257981829
  endloop
 endfacet

 facet normal 0 1 0
  outer loop
  vertex -0.138362303 0.0093949968 0.00559999887
  vertex -0.138364851 0.0093949968 -0.0257981829
  vertex -0.144868836 0.0093949968 -0.0257981829
  endloop
 endfacet

 facet normal 0 1 0
  outer loop
  vertex -0.138362303 0.0093949968 0.00559999887
  vertex -0.144868836 0.0093949968 -0.0257981829
  vertex -0.144868836 0.0093949968 0.00559999887
  endloop
 endfacet

 facet normal 0 0 1
  outer loop
  vertex -0.138362303 0.0093949968 0.00559999887
  vertex -0.144868836 0.0093949968 0.00559999887
  vertex -0.144868836 0.00724173617 0.00559999887
  endloop
 endfacet

 facet normal 0 0 1
  outer loop
  vertex -0.138362303 0.0093949968 0.00559999887
  vertex -0.144868836 0.00724173617 0.00559999887
  vertex -0.138362303 0.00724173617 0.00559999887
  endloop
 endfacet

 facet normal 0 -1 0
  outer loop
  vertex -0.138362303 0.00724173617 0.00559999887
  vertex -0.144868836 0.00724173617 0.00559999887
  vertex -0.144868836 0.00724173617 -0.0257981829
  endloop
 endfacet

 facet normal 0 -1 0
  outer loop
  vertex -0.138362303 0.00724173617 0.00559999887
  vertex -0.144868836 0.00724173617 -0.0257981829
  vertex -0.138364851 0.00724173617 -0.0257981829
  endloop
 endfacet

 facet normal 0 -1 0
  outer loop
  vertex -0.138362303 0.00724173617 0.00559999887
  vertex -0.138364851 0.00724173617 -0.0257981829
  vertex -0.138362303 0.00724173617 -0.00875658728
  endloop
 endfacet

 facet normal 0.999999821 -0.000723081466 -0.000149501648
  outer loop
  vertex -0.138362303 0.0093949968 -0.0191710759
  vertex -0.138362303 0.00724173617 -0.00875658728
  vertex -0.138364851 0.00724173617 -0.0257981829
  endloop
 endfacet

 facet normal 0.99999994 0 -0.000384443265
  outer loop
  vertex -0.138362303 0.0093949968 -0.0191710759
  vertex -0.138364851 0.00724173617 -0.0257981829
  vertex -0.138364851 0.0093949968 -0.0257981829
  endloop
 endfacet

 facet normal -1 0 0
  outer loop
  vertex -0.144868836 0.0093949968 0.00559999887
  vertex -0.144868836 0.0093949968 -0.0257981829
  vertex -0.144868836 0.00724173617 -0.0257981829
  endloop
 endfacet

 facet normal -1 0 0
  outer loop
  vertex -0.144868836 0.0093949968 0.00559999887
  vertex -0.144868836 0.00724173617 -0.0257981829
  vertex -0.144868836 0.00724173617 0.00559999887
  endloop
 endfacet

 facet normal 0 -0.999851942 -0.0172071718
  outer loop
  vertex -0.138364851 0.00724173617 -0.0257981829
  vertex -0.144868836 0.00724173617 -0.0257981829
  vertex -0.143563837 0.00726808561 -0.0273292512
  endloop
 endfacet

 facet normal 0 -0.999851942 -0.0172071718
  outer loop
  vertex -0.138364851 0.00724173617 -0.0257981829
  vertex -0.143563837 0.00726808561 -0.0273292512
  vertex -0.141164646 0.00726808561 -0.0273292512
  endloop
 endfacet

 facet normal 0.0392163992 -0.995273471 -0.0888415799
  outer loop
  vertex -0.138364851 0.00724173617 -0.0257981829
  vertex -0.141164646 0.00726808561 -0.0273292512
  vertex -0.141137898 0.0072691394 -0.0273292512
  endloop
 endfacet

 facet normal 0.0450202525 -0.994035542 -0.0993312597
  outer loop
  vertex -0.138364851 0.00724173617 -0.0257981829
  vertex -0.141137898 0.0072691394 -0.0273292512
  vertex -0.141077399 0.00727187982 -0.0273292512
  endloop
 endfacet

 facet normal 0.124375217 -0.962944388 -0.239309475
  outer loop
  vertex -0.138364851 0.00724173617 -0.0257981829
  vertex -0.141077399 0.00727187982 -0.0273292512
  vertex -0.141051278 0.0072752526 -0.0273292512
  endloop
 endfacet

 facet normal 0.127264977 -0.961301148 -0.244343892
  outer loop
  vertex -0.138364851 0.00724173617 -0.0257981829
  vertex -0.141051278 0.0072752526 -0.0273292512
  vertex -0.140990779 0.00728326291 -0.0273292512
  endloop
 endfacet

 facet normal 0.198284671 -0.909747303 -0.364750803
  outer loop
  vertex -0.138364851 0.00724173617 -0.0257981829
  vertex -0.140990779 0.00728326291 -0.0273292512
  vertex -0.140964672 0.00728895422 -0.0273292512
  endloop
 endfacet

 facet normal 0.202143013 -0.90628475 -0.371195644
  outer loop
  vertex -0.138364851 0.00724173617 -0.0257981829
  vertex -0.140964672 0.00728895422 -0.0273292512
  vertex -0.140906066 0.00730202347 -0.0273292512
  endloop
 endfacet

 facet normal 0.264430374 -0.841002703 -0.472007483
  outer loop
  vertex -0.138364851 0.00724173617 -0.0257981829
  vertex -0.140906066 0.00730202347 -0.0273292512
  vertex -0.1408806 0.00731003378 -0.0273292512
  endloop
 endfacet

 facet normal 0.265646726 -0.839531124 -0.473940432
  outer loop
  vertex -0.138364851 0.00724173617 -0.0257981829
  vertex -0.1408806 0.00731003378 -0.0273292512
  vertex -0.140822634 0.00732837291 -0.0273292512
  endloop
 endfacet

 facet normal 0.315146178 -0.773655534 -0.549672842
  outer loop
  vertex -0.138364851 0.00724173617 -0.0257981829
  vertex -0.140822634 0.00732837291 -0.0273292512
  vertex -0.140797794 0.0073384908 -0.0273292512
  endloop
 endfacet

 facet normal 0.318201602 -0.769131541 -0.554242253
  outer loop
  vertex -0.138364851 0.00724173617 -0.0257981829
  vertex -0.140797794 0.0073384908 -0.0273292512
  vertex -0.140741751 0.00736167841 -0.0273292512
  endloop
 endfacet

 facet normal 0.362339556 -0.698388994 -0.617221951
  outer loop
  vertex -0.138364851 0.00724173617 -0.0257981829
  vertex -0.140741751 0.00736167841 -0.0273292512
  vertex -0.140718192 0.00737390434 -0.0273292512
  endloop
 endfacet

 facet normal 0.364238501 -0.695062518 -0.619853616
  outer loop
  vertex -0.138364851 0.00724173617 -0.0257981829
  vertex -0.140718192 0.00737390434 -0.0273292512
  vertex -0.140664682 0.00740193995 -0.0273292512
  endloop
 endfacet

 facet normal 0.400077045 -0.628791928 -0.666752696
  outer loop
  vertex -0.138364851 0.00724173617 -0.0257981829
  vertex -0.140664682 0.00740193995 -0.0273292512
  vertex -0.140590802 0.00744894706 -0.0273292512
  endloop
 endfacet

 facet normal 0.432484508 -0.562250376 -0.704862952
  outer loop
  vertex -0.138364851 0.00724173617 -0.0257981829
  vertex -0.140590802 0.00744894706 -0.0273292512
  vertex -0.140522018 0.00750185642 -0.0273292512
  endloop
 endfacet

 facet normal 0.459852606 -0.501177132 -0.733046532
  outer loop
  vertex -0.138364851 0.00724173617 -0.0257981829
  vertex -0.140522018 0.00750185642 -0.0273292512
  vertex -0.14045769 0.00756087853 -0.0273292512
  endloop
 endfacet

 facet normal 0.480480164 -0.452694595 -0.75113678
  outer loop
  vertex -0.138364851 0.00724173617 -0.0257981829
  vertex -0.14045769 0.00756087853 -0.0273292512
  vertex -0.140439227 0.0075804824 -0.0273292512
  endloop
 endfacet

 facet normal 0.484777838 -0.442177027 -0.754632413
  outer loop
  vertex -0.138364851 0.00724173617 -0.0257981829
  vertex -0.140439227 0.0075804824 -0.0273292512
  vertex -0.140398458 0.00762517052 -0.0273292512
  endloop
 endfacet

 facet normal 0.507102609 -0.386533588 -0.770349741
  outer loop
  vertex -0.138364851 0.00724173617 -0.0257981829
  vertex -0.140398458 0.00762517052 -0.0273292512
  vertex -0.140345603 0.00769452192 -0.0273292512
  endloop
 endfacet

 facet normal 0.523948133 -0.34349668 -0.779415488
  outer loop
  vertex -0.138364851 0.00724173617 -0.0257981829
  vertex -0.140345603 0.00769452192 -0.0273292512
  vertex -0.140330955 0.00771686621 -0.0273292512
  endloop
 endfacet

 facet normal 0.527396083 -0.334432781 -0.781030178
  outer loop
  vertex -0.138364851 0.00724173617 -0.0257981829
  vertex -0.140330955 0.00771686621 -0.0273292512
  vertex -0.140298471 0.00776808895 -0.0273292512
  endloop
 endfacet

 facet normal 0.546673179 -0.283539236 -0.787879407
  outer loop
  vertex -0.138364851 0.00724173617 -0.0257981829
  vertex -0.140298471 0.00776808895 -0.0273292512
  vertex -0.140258342 0.00784545019 -0.0273292512
  endloop
 endfacet

 facet normal 0.565260768 -0.233556911 -0.791158378
  outer loop
  vertex -0.138364851 0.00724173617 -0.0257981829
  vertex -0.140258342 0.00784545019 -0.0273292512
  vertex -0.140248165 0.00787011348 -0.0273292512
  endloop
 endfacet

 facet normal 0.565747499 -0.232213691 -0.791205883
  outer loop
  vertex -0.138364851 0.00724173617 -0.0257981829
  vertex -0.140248165 0.00787011348 -0.0273292512
  vertex -0.140225232 0.00792597421 -0.0273292512
  endloop
 endfacet

 facet normal 0.581691325 -0.188826263 -0.791188955
  outer loop
  vertex -0.138364851 0.00724173617 -0.0257981829
  vertex -0.140225232 0.00792597421 -0.0273292512
  vertex -0.140216947 0.00795147941 -0.0273292512
  endloop
 endfacet

 facet normal 0.582599401 -0.186304748 -0.791118562
  outer loop
  vertex -0.138364851 0.00724173617 -0.0257981829
  vertex -0.140216947 0.00795147941 -0.0273292512
  vertex -0.140198484 0.00800923724 -0.0273292512
  endloop
 endfacet

 facet normal 0.601833701 -0.133053809 -0.787459791
  outer loop
  vertex -0.138364851 0.00724173617 -0.0257981829
  vertex -0.140198484 0.00800923724 -0.0273292512
  vertex -0.140192747 0.00803516526 -0.0273292512
  endloop
 endfacet

 facet normal 0.603014231 -0.129677862 -0.787119746
  outer loop
  vertex -0.138364851 0.00724173617 -0.0257981829
  vertex -0.140192747 0.00803516526 -0.0273292512
  vertex -0.140180007 0.0080943983 -0.0273292512
  endloop
 endfacet

 facet normal 0.617263198 -0.0895182118 -0.781647384
  outer loop
  vertex -0.138364851 0.00724173617 -0.0257981829
  vertex -0.140180007 0.0080943983 -0.0273292512
  vertex -0.140176192 0.00812074728 -0.0273292512
  endloop
 endfacet

 facet normal 0.620897651 -0.078988716 -0.779901922
  outer loop
  vertex -0.138364851 0.00724173617 -0.0257981829
  vertex -0.140176192 0.00812074728 -0.0273292512
  vertex -0.140168548 0.00818082411 -0.0273292512
  endloop
 endfacet

 facet normal 0.637615085 -0.0303405598 -0.76975745
  outer loop
  vertex -0.138364851 0.00724173617 -0.0257981829
  vertex -0.140168548 0.00818082411 -0.0273292512
  vertex -0.140167266 0.00820759498 -0.0273292512
  endloop
 endfacet

 facet normal 0.638760924 -0.0268983748 -0.768934965
  outer loop
  vertex -0.138364851 0.00724173617 -0.0257981829
  vertex -0.140167266 0.00820759498 -0.0273292512
  vertex -0.140164718 0.00826809276 -0.0273292512
  endloop
 endfacet

 facet normal 0.647938609 0 -0.761692524
  outer loop
  vertex -0.138364851 0.00724173617 -0.0257981829
  vertex -0.140164718 0.00826809276 -0.0273292512
  vertex -0.138364851 0.0093949968 -0.0257981829
  endloop
 endfacet

 facet normal 0.637437105 0.0280485284 -0.769991815
  outer loop
  vertex -0.138364851 0.0093949968 -0.0257981829
  vertex -0.140164718 0.00826809276 -0.0273292512
  vertex -0.140168548 0.00835493952 -0.0273292512
  endloop
 endfacet

 facet normal 0.620086491 0.0743475184 -0.78100276
  outer loop
  vertex -0.138364851 0.0093949968 -0.0257981829
  vertex -0.140168548 0.00835493952 -0.0273292512
  vertex -0.140171736 0.00838149991 -0.0273292512
  endloop
 endfacet

 facet normal 0.615887046 0.0851783007 -0.783216357
  outer loop
  vertex -0.138364851 0.0093949968 -0.0257981829
  vertex -0.140171736 0.00838149991 -0.0273292512
  vertex -0.140180007 0.00844136532 -0.0273292512
  endloop
 endfacet

 facet normal 0.598564804 0.129820123 -0.790485322
  outer loop
  vertex -0.138364851 0.0093949968 -0.0257981829
  vertex -0.140180007 0.00844136532 -0.0273292512
  vertex -0.140198484 0.00852652546 -0.0273292512
  endloop
 endfacet

 facet normal 0.576661646 0.185259685 -0.795701087
  outer loop
  vertex -0.138364851 0.0093949968 -0.0257981829
  vertex -0.140198484 0.00852652546 -0.0273292512
  vertex -0.140225232 0.00860978942 -0.0273292512
  endloop
 endfacet

 facet normal 0.558783948 0.229822904 -0.796832442
  outer loop
  vertex -0.138364851 0.0093949968 -0.0257981829
  vertex -0.140225232 0.00860978942 -0.0273292512
  vertex -0.140258342 0.0086903125 -0.0273292512
  endloop
 endfacet

 facet normal 0.540692806 0.274688423 -0.795108557
  outer loop
  vertex -0.138364851 0.0093949968 -0.0257981829
  vertex -0.140258342 0.0086903125 -0.0273292512
  vertex -0.140270442 0.00871413201 -0.0273292512
  endloop
 endfacet

 facet normal 0.538247943 0.280610532 -0.794699311
  outer loop
  vertex -0.138364851 0.0093949968 -0.0257981829
  vertex -0.140270442 0.00871413201 -0.0273292512
  vertex -0.140298471 0.00876788516 -0.0273292512
  endloop
 endfacet

 facet normal 0.517293453 0.331400126 -0.78903836
  outer loop
  vertex -0.138364851 0.0093949968 -0.0257981829
  vertex -0.140298471 0.00876788516 -0.0273292512
  vertex -0.140345603 0.00884145219 -0.0273292512
  endloop
 endfacet

 facet normal 0.498420596 0.376481861 -0.780921459
  outer loop
  vertex -0.138364851 0.0093949968 -0.0257981829
  vertex -0.140345603 0.00884145219 -0.0273292512
  vertex -0.140361518 0.00886253174 -0.0273292512
  endloop
 endfacet

 facet normal 0.496288002 0.381449908 -0.779868066
  outer loop
  vertex -0.138364851 0.0093949968 -0.0257981829
  vertex -0.140361518 0.00886253174 -0.0273292512
  vertex -0.140398458 0.00891059265 -0.0273292512
  endloop
 endfacet

 facet normal 0.474628776 0.431756914 -0.767016053
  outer loop
  vertex -0.138364851 0.0093949968 -0.0257981829
  vertex -0.140398458 0.00891059265 -0.0273292512
  vertex -0.140416294 0.00893019605 -0.0273292512
  endloop
 endfacet

 facet normal 0.472131342 0.43737191 -0.765374362
  outer loop
  vertex -0.138364851 0.0093949968 -0.0257981829
  vertex -0.140416294 0.00893019605 -0.0273292512
  vertex -0.14045769 0.00897488464 -0.0273292512
  endloop
 endfacet

 facet normal 0.448972762 0.488978922 -0.747879148
  outer loop
  vertex -0.138364851 0.0093949968 -0.0257981829
  vertex -0.14045769 0.00897488464 -0.0273292512
  vertex -0.140477434 0.00899301283 -0.0273292512
  endloop
 endfacet

 facet normal 0.448821485 0.489305675 -0.747756183
  outer loop
  vertex -0.138364851 0.0093949968 -0.0257981829
  vertex -0.140477434 0.00899301283 -0.0273292512
  vertex -0.140522018 0.0090339072 -0.0273292512
  endloop
 endfacet

 facet normal 0.421989053 0.546428561 -0.723423183
  outer loop
  vertex -0.138364851 0.0093949968 -0.0257981829
  vertex -0.140522018 0.0090339072 -0.0273292512
  vertex -0.140590802 0.00908702705 -0.0273292512
  endloop
 endfacet

 facet normal 0.388356298 0.613120437 -0.687940955
  outer loop
  vertex -0.138364851 0.0093949968 -0.0257981829
  vertex -0.140590802 0.00908702705 -0.0273292512
  vertex -0.140664682 0.00913382322 -0.0273292512
  endloop
 endfacet

 facet normal 0.353386164 0.676411808 -0.646208465
  outer loop
  vertex -0.138364851 0.0093949968 -0.0257981829
  vertex -0.140664682 0.00913382322 -0.0273292512
  vertex -0.140741751 0.00917408522 -0.0273292512
  endloop
 endfacet

 facet normal 0.308327913 0.748807371 -0.586703897
  outer loop
  vertex -0.138364851 0.0093949968 -0.0257981829
  vertex -0.140741751 0.00917408522 -0.0273292512
  vertex -0.140822634 0.00920739025 -0.0273292512
  endloop
 endfacet

 facet normal 0.258204192 0.817585588 -0.514669299
  outer loop
  vertex -0.138364851 0.0093949968 -0.0257981829
  vertex -0.140822634 0.00920739025 -0.0273292512
  vertex -0.140906066 0.00923374016 -0.0273292512
  endloop
 endfacet

 facet normal 0.197724134 0.885060966 -0.421393335
  outer loop
  vertex -0.138364851 0.0093949968 -0.0257981829
  vertex -0.140906066 0.00923374016 -0.0273292512
  vertex -0.140931547 0.00923943147 -0.0273292512
  endloop
 endfacet

 facet normal 0.195718035 0.887006044 -0.418227971
  outer loop
  vertex -0.138364851 0.0093949968 -0.0257981829
  vertex -0.140931547 0.00923943147 -0.0273292512
  vertex -0.140990779 0.00925250072 -0.0273292512
  endloop
 endfacet

 facet normal 0.126461789 0.943998933 -0.304751575
  outer loop
  vertex -0.138364851 0.0093949968 -0.0257981829
  vertex -0.140990779 0.00925250072 -0.0273292512
  vertex -0.141017526 0.00925608352 -0.0273292512
  endloop
 endfacet

 facet normal 0.123257995 0.946134448 -0.299394578
  outer loop
  vertex -0.138364851 0.0093949968 -0.0257981829
  vertex -0.141017526 0.00925608352 -0.0273292512
  vertex -0.141077399 0.00926388334 -0.0273292512
  endloop
 endfacet

 facet normal 0.0465659313 0.984883726 -0.166840315
  outer loop
  vertex -0.138364851 0.0093949968 -0.0257981829
  vertex -0.141077399 0.00926388334 -0.0273292512
  vertex -0.141104147 0.00926514808 -0.0273292512
  endloop
 endfacet

 facet normal 0.0446369611 0.985542178 -0.163444966
  outer loop
  vertex -0.138364851 0.0093949968 -0.0257981829
  vertex -0.141104147 0.00926514808 -0.0273292512
  vertex -0.141164646 0.00926788803 -0.0273292512
  endloop
 endfacet

 facet normal 0 0.99657166 -0.0827351063
  outer loop
  vertex -0.138364851 0.0093949968 -0.0257981829
  vertex -0.141164646 0.00926788803 -0.0273292512
  vertex -0.143563837 0.00926788803 -0.0273292512
  endloop
 endfacet

 facet normal 0 0.99657166 -0.0827351063
  outer loop
  vertex -0.138364851 0.0093949968 -0.0257981829
  vertex -0.143563837 0.00926788803 -0.0273292512
  vertex -0.144868836 0.0093949968 -0.0257981829
  endloop
 endfacet

 facet normal -0.0455157571 0.991594195 -0.121117026
  outer loop
  vertex -0.144868836 0.0093949968 -0.0257981829
  vertex -0.143563837 0.00926788803 -0.0273292512
  vertex -0.143651083 0.00926388334 -0.0273292512
  endloop
 endfacet

 facet normal -0.123020098 0.975684762 -0.181398183
  outer loop
  vertex -0.144868836 0.0093949968 -0.0257981829
  vertex -0.143651083 0.00926388334 -0.0273292512
  vertex -0.143677846 0.00926051009 -0.0273292512
  endloop
 endfacet

 facet normal -0.130277216 0.973708153 -0.18686977
  outer loop
  vertex -0.144868836 0.0093949968 -0.0257981829
  vertex -0.143677846 0.00926051009 -0.0273292512
  vertex -0.143737704 0.00925250072 -0.0273292512
  endloop
 endfacet

 facet normal -0.206684917 0.948274136 -0.24095127
  outer loop
  vertex -0.144868836 0.0093949968 -0.0257981829
  vertex -0.143737704 0.00925250072 -0.0273292512
  vertex -0.143763825 0.00924680848 -0.0273292512
  endloop
 endfacet

 facet normal -0.209030926 0.947350502 -0.242555082
  outer loop
  vertex -0.144868836 0.0093949968 -0.0257981829
  vertex -0.143763825 0.00924680848 -0.0273292512
  vertex -0.143823057 0.00923374016 -0.0273292512
  endloop
 endfacet

 facet normal -0.28686735 0.912371576 -0.292036474
  outer loop
  vertex -0.144868836 0.0093949968 -0.0257981829
  vertex -0.143823057 0.00923374016 -0.0273292512
  vertex -0.143848523 0.00922572985 -0.0273292512
  endloop
 endfacet

 facet normal -0.291193396 0.910150468 -0.294673771
  outer loop
  vertex -0.144868836 0.0093949968 -0.0257981829
  vertex -0.143848523 0.00922572985 -0.0273292512
  vertex -0.143905848 0.00920739025 -0.0273292512
  endloop
 endfacet

 facet normal -0.355982691 0.873914182 -0.330983698
  outer loop
  vertex -0.144868836 0.0093949968 -0.0257981829
  vertex -0.143905848 0.00920739025 -0.0273292512
  vertex -0.143930689 0.00919727236 -0.0273292512
  endloop
 endfacet

 facet normal -0.360427052 0.87118715 -0.333354831
  outer loop
  vertex -0.144868836 0.0093949968 -0.0257981829
  vertex -0.143930689 0.00919727236 -0.0273292512
  vertex -0.143986732 0.00917408522 -0.0273292512
  endloop
 endfacet

 facet normal -0.428552359 0.826028049 -0.366088241
  outer loop
  vertex -0.144868836 0.0093949968 -0.0257981829
  vertex -0.143986732 0.00917408522 -0.0273292512
  vertex -0.144010291 0.00916185882 -0.0273292512
  endloop
 endfacet

 facet normal -0.431687325 0.82376492 -0.367501557
  outer loop
  vertex -0.144868836 0.0093949968 -0.0257981829
  vertex -0.144010291 0.00916185882 -0.0273292512
  vertex -0.144063801 0.00913382322 -0.0273292512
  endloop
 endfacet

 facet normal -0.48815161 0.780839801 -0.3898682
  outer loop
  vertex -0.144868836 0.0093949968 -0.0257981829
  vertex -0.144063801 0.00913382322 -0.0273292512
  vertex -0.144086719 0.00911948923 -0.0273292512
  endloop
 endfacet

 facet normal -0.494300067 0.775834203 -0.392108262
  outer loop
  vertex -0.144868836 0.0093949968 -0.0257981829
  vertex -0.144086719 0.00911948923 -0.0273292512
  vertex -0.144137681 0.00908702705 -0.0273292512
  endloop
 endfacet

 facet normal -0.557155311 0.721459091 -0.411187142
  outer loop
  vertex -0.144868836 0.0093949968 -0.0257981829
  vertex -0.144137681 0.00908702705 -0.0273292512
  vertex -0.144206464 0.0090339072 -0.0273292512
  endloop
 endfacet

 facet normal -0.612745166 0.667807519 -0.422583193
  outer loop
  vertex -0.144868836 0.0093949968 -0.0257981829
  vertex -0.144206464 0.0090339072 -0.0273292512
  vertex -0.144270793 0.00897488464 -0.0273292512
  endloop
 endfacet

 facet normal -0.658086061 0.620029688 -0.427183747
  outer loop
  vertex -0.144868836 0.0093949968 -0.0257981829
  vertex -0.144270793 0.00897488464 -0.0273292512
  vertex -0.144289255 0.00895528123 -0.0273292512
  endloop
 endfacet

 facet normal -0.667824388 0.60913682 -0.427741736
  outer loop
  vertex -0.144868836 0.0093949968 -0.0257981829
  vertex -0.144289255 0.00895528123 -0.0273292512
  vertex -0.144330025 0.00891059265 -0.0273292512
  endloop
 endfacet

 facet normal -0.713824391 0.555195451 -0.426863909
  outer loop
  vertex -0.144868836 0.0093949968 -0.0257981829
  vertex -0.144330025 0.00891059265 -0.0273292512
  vertex -0.14434658 0.00888930261 -0.0273292512
  endloop
 endfacet

 facet normal -0.720619798 0.546721637 -0.426383018
  outer loop
  vertex -0.144868836 0.0093949968 -0.0257981829
  vertex -0.14434658 0.00888930261 -0.0273292512
  vertex -0.144382879 0.00884145219 -0.0273292512
  endloop
 endfacet

 facet normal -0.761006773 0.494243562 -0.420228571
  outer loop
  vertex -0.144868836 0.0093949968 -0.0257981829
  vertex -0.144382879 0.00884145219 -0.0273292512
  vertex -0.144397527 0.00881889742 -0.0273292512
  endloop
 endfacet

 facet normal -0.765813112 0.487631768 -0.419220299
  outer loop
  vertex -0.144868836 0.0093949968 -0.0257981829
  vertex -0.144397527 0.00881889742 -0.0273292512
  vertex -0.144430012 0.00876788516 -0.0273292512
  endloop
 endfacet

 facet normal -0.812171698 0.420093387 -0.404843986
  outer loop
  vertex -0.144868836 0.0093949968 -0.0257981829
  vertex -0.144430012 0.00876788516 -0.0273292512
  vertex -0.14447014 0.0086903125 -0.0273292512
  endloop
 endfacet

 facet normal -0.850871801 0.356684625 -0.38573736
  outer loop
  vertex -0.144868836 0.0093949968 -0.0257981829
  vertex -0.14447014 0.0086903125 -0.0273292512
  vertex -0.144503891 0.00860978942 -0.0273292512
  endloop
 endfacet

 facet normal -0.891678274 0.279650748 -0.355957061
  outer loop
  vertex -0.144868836 0.0093949968 -0.0257981829
  vertex -0.144503891 0.00860978942 -0.0273292512
  vertex -0.144529998 0.00852652546 -0.0273292512
  endloop
 endfacet

 facet normal -0.924872279 0.204446599 -0.320644677
  outer loop
  vertex -0.144868836 0.0093949968 -0.0257981829
  vertex -0.144529998 0.00852652546 -0.0273292512
  vertex -0.144535735 0.00850059837 -0.0273292512
  endloop
 endfacet

 facet normal -0.926867723 0.199333221 -0.31809178
  outer loop
  vertex -0.144868836 0.0093949968 -0.0257981829
  vertex -0.144535735 0.00850059837 -0.0273292512
  vertex -0.144548476 0.00844136532 -0.0273292512
  endloop
 endfacet

 facet normal -0.948831439 0.137591943 -0.284231603
  outer loop
  vertex -0.144868836 0.0093949968 -0.0257981829
  vertex -0.144548476 0.00844136532 -0.0273292512
  vertex -0.14455229 0.00841501635 -0.0273292512
  endloop
 endfacet

 facet normal -0.953799009 0.121336751 -0.274854243
  outer loop
  vertex -0.144868836 0.0093949968 -0.0257981829
  vertex -0.14455229 0.00841501635 -0.0273292512
  vertex -0.144559935 0.00835493952 -0.0273292512
  endloop
 endfacet

 facet normal -0.972565889 0.0466462001 -0.227902994
  outer loop
  vertex -0.144868836 0.0093949968 -0.0257981829
  vertex -0.144559935 0.00835493952 -0.0273292512
  vertex -0.144561216 0.00832837913 -0.0273292512
  endloop
 endfacet

 facet normal -0.973653316 0.0411468223 -0.224290341
  outer loop
  vertex -0.144868836 0.0093949968 -0.0257981829
  vertex -0.144561216 0.00832837913 -0.0273292512
  vertex -0.144563764 0.00826809276 -0.0273292512
  endloop
 endfacet

 facet normal -0.980721056 0 -0.19541353
  outer loop
  vertex -0.144868836 0.0093949968 -0.0257981829
  vertex -0.144563764 0.00826809276 -0.0273292512
  vertex -0.144868836 0.00724173617 -0.0257981829
  endloop
 endfacet

 facet normal -0.977351785 -0.0232657231 -0.210338399
  outer loop
  vertex -0.144868836 0.00724173617 -0.0257981829
  vertex -0.144563764 0.00826809276 -0.0273292512
  vertex -0.144563124 0.00824132189 -0.0273292512
  endloop
 endfacet

 facet normal -0.972413599 -0.051183667 -0.227579147
  outer loop
  vertex -0.144868836 0.00724173617 -0.0257981829
  vertex -0.144563124 0.00824132189 -0.0273292512
  vertex -0.144559935 0.00818082411 -0.0273292512
  endloop
 endfacet

 facet normal -0.957513511 -0.115716569 -0.264154613
  outer loop
  vertex -0.144868836 0.00724173617 -0.0257981829
  vertex -0.144559935 0.00818082411 -0.0273292512
  vertex -0.144556761 0.0081544742 -0.0273292512
  endloop
 endfacet

 facet normal -0.953124881 -0.131350949 -0.272580415
  outer loop
  vertex -0.144868836 0.00724173617 -0.0257981829
  vertex -0.144556761 0.0081544742 -0.0273292512
  vertex -0.144548476 0.0080943983 -0.0273292512
  endloop
 endfacet

 facet normal -0.930099905 -0.201725349 -0.306954712
  outer loop
  vertex -0.144868836 0.00724173617 -0.0257981829
  vertex -0.144548476 0.0080943983 -0.0273292512
  vertex -0.144529998 0.00800923724 -0.0273292512
  endloop
 endfacet

 facet normal -0.897435367 -0.28145656 -0.339694023
  outer loop
  vertex -0.144868836 0.00724173617 -0.0257981829
  vertex -0.144529998 0.00800923724 -0.0273292512
  vertex -0.144503891 0.00792597421 -0.0273292512
  endloop
 endfacet

 facet normal -0.860782743 -0.355637163 -0.364109039
  outer loop
  vertex -0.144868836 0.00724173617 -0.0257981829
  vertex -0.144503891 0.00792597421 -0.0273292512
  vertex -0.144493699 0.00790131092 -0.0273292512
  endloop
 endfacet

 facet normal -0.857465446 -0.361736029 -0.365923643
  outer loop
  vertex -0.144868836 0.00724173617 -0.0257981829
  vertex -0.144493699 0.00790131092 -0.0273292512
  vertex -0.14447014 0.00784545019 -0.0273292512
  endloop
 endfacet

 facet normal -0.824690461 -0.4189547 -0.379950732
  outer loop
  vertex -0.144868836 0.00724173617 -0.0257981829
  vertex -0.14447014 0.00784545019 -0.0273292512
  vertex -0.144458041 0.00782163069 -0.0273292512
  endloop
 endfacet

 facet normal -0.818792284 -0.428548574 -0.382001936
  outer loop
  vertex -0.144868836 0.00724173617 -0.0257981829
  vertex -0.144458041 0.00782163069 -0.0273292512
  vertex -0.144430012 0.00776808895 -0.0273292512
  endloop
 endfacet

 facet normal -0.774442792 -0.496144414 -0.39252907
  outer loop
  vertex -0.144868836 0.00724173617 -0.0257981829
  vertex -0.144430012 0.00776808895 -0.0273292512
  vertex -0.144382879 0.00769452192 -0.0273292512
  endloop
 endfacet

 facet normal -0.735340118 -0.549942493 -0.396027982
  outer loop
  vertex -0.144868836 0.00724173617 -0.0257981829
  vertex -0.144382879 0.00769452192 -0.0273292512
  vertex -0.144366965 0.00767323188 -0.0273292512
  endloop
 endfacet

 facet normal -0.727947593 -0.55949986 -0.39629823
  outer loop
  vertex -0.144868836 0.00724173617 -0.0257981829
  vertex -0.144366965 0.00767323188 -0.0273292512
  vertex -0.144330025 0.00762517052 -0.0273292512
  endloop
 endfacet

 facet normal -0.679851055 -0.61843574 -0.39413175
  outer loop
  vertex -0.144868836 0.00724173617 -0.0257981829
  vertex -0.144330025 0.00762517052 -0.0273292512
  vertex -0.144312188 0.00760556711 -0.0273292512
  endloop
 endfacet

 facet normal -0.674368739 -0.62472403 -0.393632829
  outer loop
  vertex -0.144868836 0.00724173617 -0.0257981829
  vertex -0.144312188 0.00760556711 -0.0273292512
  vertex -0.144270793 0.00756087853 -0.0273292512
  endloop
 endfacet

 facet normal -0.630845368 -0.672715962 -0.386635959
  outer loop
  vertex -0.144868836 0.00724173617 -0.0257981829
  vertex -0.144270793 0.00756087853 -0.0273292512
  vertex -0.144251674 0.00754296081 -0.0273292512
  endloop
 endfacet

 facet normal -0.620886981 -0.683038414 -0.384652764
  outer loop
  vertex -0.144868836 0.00724173617 -0.0257981829
  vertex -0.144251674 0.00754296081 -0.0273292512
  vertex -0.144206464 0.00750185642 -0.0273292512
  endloop
 endfacet

 facet normal -0.567714036 -0.73513943 -0.370500714
  outer loop
  vertex -0.144868836 0.00724173617 -0.0257981829
  vertex -0.144206464 0.00750185642 -0.0273292512
  vertex -0.144185439 0.00748562487 -0.0273292512
  endloop
 endfacet

 facet normal -0.565818548 -0.736884773 -0.369932741
  outer loop
  vertex -0.144868836 0.00724173617 -0.0257981829
  vertex -0.144185439 0.00748562487 -0.0273292512
  vertex -0.144137681 0.00744894706 -0.0273292512
  endloop
 endfacet

 facet normal -0.503370166 -0.791135311 -0.347452819
  outer loop
  vertex -0.144868836 0.00724173617 -0.0257981829
  vertex -0.144137681 0.00744894706 -0.0273292512
  vertex -0.144063801 0.00740193995 -0.0273292512
  endloop
 endfacet

 facet normal -0.438912362 -0.840116262 -0.318686008
  outer loop
  vertex -0.144868836 0.00724173617 -0.0257981829
  vertex -0.144063801 0.00740193995 -0.0273292512
  vertex -0.143986732 0.00736167841 -0.0273292512
  endloop
 endfacet

 facet normal -0.36550492 -0.887659907 -0.280117959
  outer loop
  vertex -0.144868836 0.00724173617 -0.0257981829
  vertex -0.143986732 0.00736167841 -0.0273292512
  vertex -0.143905848 0.00732837291 -0.0273292512
  endloop
 endfacet

 facet normal -0.294566393 -0.925610244 -0.237647697
  outer loop
  vertex -0.144868836 0.00724173617 -0.0257981829
  vertex -0.143905848 0.00732837291 -0.0273292512
  vertex -0.143823057 0.00730202347 -0.0273292512
  endloop
 endfacet

 facet normal -0.211111724 -0.96036613 -0.182013258
  outer loop
  vertex -0.144868836 0.00724173617 -0.0257981829
  vertex -0.143823057 0.00730202347 -0.0273292512
  vertex -0.143737704 0.00728326291 -0.0273292512
  endloop
 endfacet

 facet normal -0.131752849 -0.983495057 -0.124011613
  outer loop
  vertex -0.144868836 0.00724173617 -0.0257981829
  vertex -0.143737704 0.00728326291 -0.0273292512
  vertex -0.143710956 0.00727967918 -0.0273292512
  endloop
 endfacet

 facet normal -0.128229782 -0.984290242 -0.121366993
  outer loop
  vertex -0.144868836 0.00724173617 -0.0257981829
  vertex -0.143710956 0.00727967918 -0.0273292512
  vertex -0.143651083 0.00727187982 -0.0273292512
  endloop
 endfacet

 facet normal -0.0471513271 -0.997252405 -0.0571359359
  outer loop
  vertex -0.144868836 0.00724173617 -0.0257981829
  vertex -0.143651083 0.00727187982 -0.0273292512
  vertex -0.143624336 0.00727061508 -0.0273292512
  endloop
 endfacet

 facet normal -0.0417127721 -0.997737586 -0.0527244806
  outer loop
  vertex -0.144868836 0.00724173617 -0.0257981829
  vertex -0.143624336 0.00727061508 -0.0273292512
  vertex -0.143563837 0.00726808561 -0.0273292512
  endloop
 endfacet

 facet normal 0 0 -1
  outer loop
  vertex -0.141164646 0.00726808561 -0.0273292512
  vertex -0.143563837 0.00726808561 -0.0273292512
  vertex -0.143624336 0.00727061508 -0.0273292512
  endloop
 endfacet

 facet normal 0 0 -1
  outer loop
  vertex -0.141164646 0.00726808561 -0.0273292512
  vertex -0.143624336 0.00727061508 -0.0273292512
  vertex -0.143651083 0.00727187982 -0.0273292512
  endloop
 endfacet

 facet normal 0 0 -1
  outer loop
  vertex -0.141164646 0.00726808561 -0.0273292512
  vertex -0.143651083 0.00727187982 -0.0273292512
  vertex -0.143710956 0.00727967918 -0.0273292512
  endloop
 endfacet

 facet normal 0 0 -1
  outer loop
  vertex -0.141164646 0.00726808561 -0.0273292512
  vertex -0.143710956 0.00727967918 -0.0273292512
  vertex -0.143737704 0.00728326291 -0.0273292512
  endloop
 endfacet

 facet normal 0 0 -1
  outer loop
  vertex -0.141164646 0.00726808561 -0.0273292512
  vertex -0.143737704 0.00728326291 -0.0273292512
  vertex -0.143823057 0.00730202347 -0.0273292512
  endloop
 endfacet

 facet normal 0 0 -1
  outer loop
  vertex -0.141164646 0.00726808561 -0.0273292512
  vertex -0.143823057 0.00730202347 -0.0273292512
  vertex -0.143905848 0.00732837291 -0.0273292512
  endloop
 endfacet

 facet normal 0 0 -1
  outer loop
  vertex -0.141164646 0.00726808561 -0.0273292512
  vertex -0.143905848 0.00732837291 -0.0273292512
  vertex -0.143986732 0.00736167841 -0.0273292512
  endloop
 endfacet

 facet normal 0 0 -1
  outer loop
  vertex -0.141164646 0.00726808561 -0.0273292512
  vertex -0.143986732 0.00736167841 -0.0273292512
  vertex -0.144063801 0.00740193995 -0.0273292512
  endloop
 endfacet

 facet normal 0 0 -1
  outer loop
  vertex -0.141164646 0.00726808561 -0.0273292512
  vertex -0.144063801 0.00740193995 -0.0273292512
  vertex -0.144137681 0.00744894706 -0.0273292512
  endloop
 endfacet

 facet normal 0 0 -1
  outer loop
  vertex -0.141164646 0.00726808561 -0.0273292512
  vertex -0.144137681 0.00744894706 -0.0273292512
  vertex -0.144185439 0.00748562487 -0.0273292512
  endloop
 endfacet

 facet normal 0 0 -1
  outer loop
  vertex -0.141164646 0.00726808561 -0.0273292512
  vertex -0.144185439 0.00748562487 -0.0273292512
  vertex -0.144206464 0.00750185642 -0.0273292512
  endloop
 endfacet

 facet normal 0 0 -1
  outer loop
  vertex -0.141164646 0.00726808561 -0.0273292512
  vertex -0.144206464 0.00750185642 -0.0273292512
  vertex -0.144251674 0.00754296081 -0.0273292512
  endloop
 endfacet

 facet normal 0 0 -1
  outer loop
  vertex -0.141164646 0.00726808561 -0.0273292512
  vertex -0.144251674 0.00754296081 -0.0273292512
  vertex -0.144270793 0.00756087853 -0.0273292512
  endloop
 endfacet

 facet normal 0 0 -1
  outer loop
  vertex -0.141164646 0.00726808561 -0.0273292512
  vertex -0.144270793 0.00756087853 -0.0273292512
  vertex -0.144312188 0.00760556711 -0.0273292512
  endloop
 endfacet

 facet normal 0 0 -1
  outer loop
  vertex -0.141164646 0.00726808561 -0.0273292512
  vertex -0.144312188 0.00760556711 -0.0273292512
  vertex -0.144330025 0.00762517052 -0.0273292512
  endloop
 endfacet

 facet normal 0 0 -1
  outer loop
  vertex -0.141164646 0.00726808561 -0.0273292512
  vertex -0.144330025 0.00762517052 -0.0273292512
  vertex -0.144366965 0.00767323188 -0.0273292512
  endloop
 endfacet

 facet normal 0 0 -1
  outer loop
  vertex -0.141164646 0.00726808561 -0.0273292512
  vertex -0.144366965 0.00767323188 -0.0273292512
  vertex -0.144382879 0.00769452192 -0.0273292512
  endloop
 endfacet

 facet normal 0 0 -1
  outer loop
  vertex -0.141164646 0.00726808561 -0.0273292512
  vertex -0.144382879 0.00769452192 -0.0273292512
  vertex -0.144430012 0.00776808895 -0.0273292512
  endloop
 endfacet

 facet normal 0 0 -1
  outer loop
  vertex -0.141164646 0.00726808561 -0.0273292512
  vertex -0.144430012 0.00776808895 -0.0273292512
  vertex -0.144458041 0.00782163069 -0.0273292512
  endloop
 endfacet

 facet normal 0 0 -1
  outer loop
  vertex -0.141164646 0.00726808561 -0.0273292512
  vertex -0.144458041 0.00782163069 -0.0273292512
  vertex -0.14447014 0.00784545019 -0.0273292512
  endloop
 endfacet

 facet normal 0 0 -1
  outer loop
  vertex -0.141164646 0.00726808561 -0.0273292512
  vertex -0.14447014 0.00784545019 -0.0273292512
  vertex -0.144493699 0.00790131092 -0.0273292512
  endloop
 endfacet

 facet normal 0 0 -1
  outer loop
  vertex -0.141164646 0.00726808561 -0.0273292512
  vertex -0.144493699 0.00790131092 -0.0273292512
  vertex -0.144503891 0.00792597421 -0.0273292512
  endloop
 endfacet

 facet normal 0 0 -1
  outer loop
  vertex -0.141164646 0.00726808561 -0.0273292512
  vertex -0.144503891 0.00792597421 -0.0273292512
  vertex -0.144529998 0.00800923724 -0.0273292512
  endloop
 endfacet

 facet normal 0 0 -1
  outer loop
  vertex -0.141164646 0.00726808561 -0.0273292512
  vertex -0.144529998 0.00800923724 -0.0273292512
  vertex -0.144548476 0.0080943983 -0.0273292512
  endloop
 endfacet

 facet normal 0 0 -1
  outer loop
  vertex -0.141164646 0.00726808561 -0.0273292512
  vertex -0.144548476 0.0080943983 -0.0273292512
  vertex -0.144556761 0.0081544742 -0.0273292512
  endloop
 endfacet

 facet normal 0 0 -1
  outer loop
  vertex -0.141164646 0.00726808561 -0.0273292512
  vertex -0.144556761 0.0081544742 -0.0273292512
  vertex -0.144559935 0.00818082411 -0.0273292512
  endloop
 endfacet

 facet normal 0 0 -1
  outer loop
  vertex -0.141164646 0.00726808561 -0.0273292512
  vertex -0.144559935 0.00818082411 -0.0273292512
  vertex -0.144563124 0.00824132189 -0.0273292512
  endloop
 endfacet

 facet normal 0 0 -1
  outer loop
  vertex -0.141164646 0.00726808561 -0.0273292512
  vertex -0.144563124 0.00824132189 -0.0273292512
  vertex -0.144563764 0.00826809276 -0.0273292512
  endloop
 endfacet

 facet normal 0 0 -1
  outer loop
  vertex -0.141164646 0.00726808561 -0.0273292512
  vertex -0.144563764 0.00826809276 -0.0273292512
  vertex -0.144561216 0.00832837913 -0.0273292512
  endloop
 endfacet

 facet normal 0 0 -1
  outer loop
  vertex -0.141164646 0.00726808561 -0.0273292512
  vertex -0.144561216 0.00832837913 -0.0273292512
  vertex -0.144559935 0.00835493952 -0.0273292512
  endloop
 endfacet

 facet normal 0 0 -1
  outer loop
  vertex -0.141164646 0.00726808561 -0.0273292512
  vertex -0.144559935 0.00835493952 -0.0273292512
  vertex -0.14455229 0.00841501635 -0.0273292512
  endloop
 endfacet

 facet normal 0 0 -1
  outer loop
  vertex -0.141164646 0.00726808561 -0.0273292512
  vertex -0.14455229 0.00841501635 -0.0273292512
  vertex -0.144548476 0.00844136532 -0.0273292512
  endloop
 endfacet

 facet normal 0 0 -1
  outer loop
  vertex -0.141164646 0.00726808561 -0.0273292512
  vertex -0.144548476 0.00844136532 -0.0273292512
  vertex -0.144535735 0.00850059837 -0.0273292512
  endloop
 endfacet

 facet normal 0 0 -1
  outer loop
  vertex -0.141164646 0.00726808561 -0.0273292512
  vertex -0.144535735 0.00850059837 -0.0273292512
  vertex -0.144529998 0.00852652546 -0.0273292512
  endloop
 endfacet

 facet normal 0 0 -1
  outer loop
  vertex -0.141164646 0.00726808561 -0.0273292512
  vertex -0.144529998 0.00852652546 -0.0273292512
  vertex -0.144503891 0.00860978942 -0.0273292512
  endloop
 endfacet

 facet normal 0 0 -1
  outer loop
  vertex -0.141164646 0.00726808561 -0.0273292512
  vertex -0.144503891 0.00860978942 -0.0273292512
  vertex -0.14447014 0.0086903125 -0.0273292512
  endloop
 endfacet

 facet normal 0 0 -1
  outer loop
  vertex -0.141164646 0.00726808561 -0.0273292512
  vertex -0.14447014 0.0086903125 -0.0273292512
  vertex -0.144430012 0.00876788516 -0.0273292512
  endloop
 endfacet

 facet normal 0 0 -1
  outer loop
  vertex -0.141164646 0.00726808561 -0.0273292512
  vertex -0.144430012 0.00876788516 -0.0273292512
  vertex -0.144397527 0.00881889742 -0.0273292512
  endloop
 endfacet

 facet normal 0 0 -1
  outer loop
  vertex -0.141164646 0.00726808561 -0.0273292512
  vertex -0.144397527 0.00881889742 -0.0273292512
  vertex -0.144382879 0.00884145219 -0.0273292512
  endloop
 endfacet

 facet normal 0 0 -1
  outer loop
  vertex -0.141164646 0.00726808561 -0.0273292512
  vertex -0.144382879 0.00884145219 -0.0273292512
  vertex -0.14434658 0.00888930261 -0.0273292512
  endloop
 endfacet

 facet normal 0 0 -1
  outer loop
  vertex -0.141164646 0.00726808561 -0.0273292512
  vertex -0.14434658 0.00888930261 -0.0273292512
  vertex -0.144330025 0.00891059265 -0.0273292512
  endloop
 endfacet

 facet normal 0 0 -1
  outer loop
  vertex -0.141164646 0.00726808561 -0.0273292512
  vertex -0.144330025 0.00891059265 -0.0273292512
  vertex -0.144289255 0.00895528123 -0.0273292512
  endloop
 endfacet

 facet normal 0 0 -1
  outer loop
  vertex -0.141164646 0.00726808561 -0.0273292512
  vertex -0.144289255 0.00895528123 -0.0273292512
  vertex -0.144270793 0.00897488464 -0.0273292512
  endloop
 endfacet

 facet normal 0 0 -1
  outer loop
  vertex -0.141164646 0.00726808561 -0.0273292512
  vertex -0.144270793 0.00897488464 -0.0273292512
  vertex -0.144206464 0.0090339072 -0.0273292512
  endloop
 endfacet

 facet normal 0 0 -1
  outer loop
  vertex -0.141164646 0.00726808561 -0.0273292512
  vertex -0.144206464 0.0090339072 -0.0273292512
  vertex -0.144137681 0.00908702705 -0.0273292512
  endloop
 endfacet

 facet normal 0 0 -1
  outer loop
  vertex -0.141164646 0.00726808561 -0.0273292512
  vertex -0.144137681 0.00908702705 -0.0273292512
  vertex -0.144086719 0.00911948923 -0.0273292512
  endloop
 endfacet

 facet normal 0 0 -1
  outer loop
  vertex -0.141164646 0.00726808561 -0.0273292512
  vertex -0.144086719 0.00911948923 -0.0273292512
  vertex -0.144063801 0.00913382322 -0.0273292512
  endloop
 endfacet

 facet normal 0 0 -1
  outer loop
  vertex -0.141164646 0.00726808561 -0.0273292512
  vertex -0.144063801 0.00913382322 -0.0273292512
  vertex -0.144010291 0.00916185882 -0.0273292512
  endloop
 endfacet

 facet normal 0 0 -1
  outer loop
  vertex -0.141164646 0.00726808561 -0.0273292512
  vertex -0.144010291 0.00916185882 -0.0273292512
  vertex -0.143986732 0.00917408522 -0.0273292512
  endloop
 endfacet

 facet normal 0 0 -1
  outer loop
  vertex -0.141164646 0.00726808561 -0.0273292512
  vertex -0.143986732 0.00917408522 -0.0273292512
  vertex -0.143930689 0.00919727236 -0.0273292512
  endloop
 endfacet

 facet normal 0 0 -1
  outer loop
  vertex -0.141164646 0.00726808561 -0.0273292512
  vertex -0.143930689 0.00919727236 -0.0273292512
  vertex -0.143905848 0.00920739025 -0.0273292512
  endloop
 endfacet

 facet normal 0 0 -1
  outer loop
  vertex -0.141164646 0.00726808561 -0.0273292512
  vertex -0.143905848 0.00920739025 -0.0273292512
  vertex -0.143848523 0.00922572985 -0.0273292512
  endloop
 endfacet

 facet normal 0 0 -1
  outer loop
  vertex -0.141164646 0.00726808561 -0.0273292512
  vertex -0.143848523 0.00922572985 -0.0273292512
  vertex -0.143823057 0.00923374016 -0.0273292512
  endloop
 endfacet

 facet normal 0 0 -1
  outer loop
  vertex -0.141164646 0.00726808561 -0.0273292512
  vertex -0.143823057 0.00923374016 -0.0273292512
  vertex -0.143763825 0.00924680848 -0.0273292512
  endloop
 endfacet

 facet normal 0 0 -1
  outer loop
  vertex -0.141164646 0.00726808561 -0.0273292512
  vertex -0.143763825 0.00924680848 -0.0273292512
  vertex -0.143737704 0.00925250072 -0.0273292512
  endloop
 endfacet

 facet normal 0 0 -1
  outer loop
  vertex -0.141164646 0.00726808561 -0.0273292512
  vertex -0.143737704 0.00925250072 -0.0273292512
  vertex -0.143677846 0.00926051009 -0.0273292512
  endloop
 endfacet

 facet normal 0 0 -1
  outer loop
  vertex -0.141164646 0.00726808561 -0.0273292512
  vertex -0.143677846 0.00926051009 -0.0273292512
  vertex -0.143651083 0.00926388334 -0.0273292512
  endloop
 endfacet

 facet normal 0 0 -1
  outer loop
  vertex -0.141164646 0.00726808561 -0.0273292512
  vertex -0.143651083 0.00926388334 -0.0273292512
  vertex -0.143563837 0.00926788803 -0.0273292512
  endloop
 endfacet

 facet normal 0 0 -1
  outer loop
  vertex -0.141164646 0.00726808561 -0.0273292512
  vertex -0.143563837 0.00926788803 -0.0273292512
  vertex -0.141164646 0.00926788803 -0.0273292512
  endloop
 endfacet

 facet normal 0 0 -1
  outer loop
  vertex -0.141164646 0.00726808561 -0.0273292512
  vertex -0.141164646 0.00926788803 -0.0273292512
  vertex -0.141104147 0.00926514808 -0.0273292512
  endloop
 endfacet

 facet normal 0 0 -1
  outer loop
  vertex -0.141164646 0.00726808561 -0.0273292512
  vertex -0.141104147 0.00926514808 -0.0273292512
  vertex -0.141077399 0.00926388334 -0.0273292512
  endloop
 endfacet

 facet normal 0 0 -1
  outer loop
  vertex -0.141164646 0.00726808561 -0.0273292512
  vertex -0.141077399 0.00926388334 -0.0273292512
  vertex -0.141017526 0.00925608352 -0.0273292512
  endloop
 endfacet

 facet normal 0 0 -1
  outer loop
  vertex -0.141164646 0.00726808561 -0.0273292512
  vertex -0.141017526 0.00925608352 -0.0273292512
  vertex -0.140990779 0.00925250072 -0.0273292512
  endloop
 endfacet

 facet normal 0 0 -1
  outer loop
  vertex -0.141164646 0.00726808561 -0.0273292512
  vertex -0.140990779 0.00925250072 -0.0273292512
  vertex -0.140931547 0.00923943147 -0.0273292512
  endloop
 endfacet

 facet normal 0 0 -1
  outer loop
  vertex -0.141164646 0.00726808561 -0.0273292512
  vertex -0.140931547 0.00923943147 -0.0273292512
  vertex -0.140906066 0.00923374016 -0.0273292512
  endloop
 endfacet

 facet normal 0 0 -1
  outer loop
  vertex -0.141164646 0.00726808561 -0.0273292512
  vertex -0.140906066 0.00923374016 -0.0273292512
  vertex -0.140822634 0.00920739025 -0.0273292512
  endloop
 endfacet

 facet normal 0 0 -1
  outer loop
  vertex -0.141164646 0.00726808561 -0.0273292512
  vertex -0.140822634 0.00920739025 -0.0273292512
  vertex -0.140741751 0.00917408522 -0.0273292512
  endloop
 endfacet

 facet normal 0 0 -1
  outer loop
  vertex -0.141164646 0.00726808561 -0.0273292512
  vertex -0.140741751 0.00917408522 -0.0273292512
  vertex -0.140664682 0.00913382322 -0.0273292512
  endloop
 endfacet

 facet normal 0 0 -1
  outer loop
  vertex -0.141164646 0.00726808561 -0.0273292512
  vertex -0.140664682 0.00913382322 -0.0273292512
  vertex -0.140590802 0.00908702705 -0.0273292512
  endloop
 endfacet

 facet normal 0 0 -1
  outer loop
  vertex -0.141164646 0.00726808561 -0.0273292512
  vertex -0.140590802 0.00908702705 -0.0273292512
  vertex -0.140522018 0.0090339072 -0.0273292512
  endloop
 endfacet

 facet normal 0 0 -1
  outer loop
  vertex -0.141164646 0.00726808561 -0.0273292512
  vertex -0.140522018 0.0090339072 -0.0273292512
  vertex -0.140477434 0.00899301283 -0.0273292512
  endloop
 endfacet

 facet normal 0 0 -1
  outer loop
  vertex -0.141164646 0.00726808561 -0.0273292512
  vertex -0.140477434 0.00899301283 -0.0273292512
  vertex -0.14045769 0.00897488464 -0.0273292512
  endloop
 endfacet

 facet normal 0 0 -1
  outer loop
  vertex -0.141164646 0.00726808561 -0.0273292512
  vertex -0.14045769 0.00897488464 -0.0273292512
  vertex -0.140416294 0.00893019605 -0.0273292512
  endloop
 endfacet

 facet normal 0 0 -1
  outer loop
  vertex -0.141164646 0.00726808561 -0.0273292512
  vertex -0.140416294 0.00893019605 -0.0273292512
  vertex -0.140398458 0.00891059265 -0.0273292512
  endloop
 endfacet

 facet normal 0 0 -1
  outer loop
  vertex -0.141164646 0.00726808561 -0.0273292512
  vertex -0.140398458 0.00891059265 -0.0273292512
  vertex -0.140361518 0.00886253174 -0.0273292512
  endloop
 endfacet

 facet normal 0 0 -1
  outer loop
  vertex -0.141164646 0.00726808561 -0.0273292512
  vertex -0.140361518 0.00886253174 -0.0273292512
  vertex -0.140345603 0.00884145219 -0.0273292512
  endloop
 endfacet

 facet normal 0 0 -1
  outer loop
  vertex -0.141164646 0.00726808561 -0.0273292512
  vertex -0.140345603 0.00884145219 -0.0273292512
  vertex -0.140298471 0.00876788516 -0.0273292512
  endloop
 endfacet

 facet normal 0 0 -1
  outer loop
  vertex -0.141164646 0.00726808561 -0.0273292512
  vertex -0.140298471 0.00876788516 -0.0273292512
  vertex -0.140270442 0.00871413201 -0.0273292512
  endloop
 endfacet

 facet normal 0 0 -1
  outer loop
  vertex -0.141164646 0.00726808561 -0.0273292512
  vertex -0.140270442 0.00871413201 -0.0273292512
  vertex -0.140258342 0.0086903125 -0.0273292512
  endloop
 endfacet

 facet normal 0 0 -1
  outer loop
  vertex -0.141164646 0.00726808561 -0.0273292512
  vertex -0.140258342 0.0086903125 -0.0273292512
  vertex -0.140225232 0.00860978942 -0.0273292512
  endloop
 endfacet

 facet normal 0 0 -1
  outer loop
  vertex -0.141164646 0.00726808561 -0.0273292512
  vertex -0.140225232 0.00860978942 -0.0273292512
  vertex -0.140198484 0.00852652546 -0.0273292512
  endloop
 endfacet

 facet normal 0 0 -1
  outer loop
  vertex -0.141164646 0.00726808561 -0.0273292512
  vertex -0.140198484 0.00852652546 -0.0273292512
  vertex -0.140180007 0.00844136532 -0.0273292512
  endloop
 endfacet

 facet normal 0 0 -1
  outer loop
  vertex -0.141164646 0.00726808561 -0.0273292512
  vertex -0.140180007 0.00844136532 -0.0273292512
  vertex -0.140171736 0.00838149991 -0.0273292512
  endloop
 endfacet

 facet normal 0 0 -1
  outer loop
  vertex -0.141164646 0.00726808561 -0.0273292512
  vertex -0.140171736 0.00838149991 -0.0273292512
  vertex -0.140168548 0.00835493952 -0.0273292512
  endloop
 endfacet

 facet normal 0 0 -1
  outer loop
  vertex -0.141164646 0.00726808561 -0.0273292512
  vertex -0.140168548 0.00835493952 -0.0273292512
  vertex -0.140164718 0.00826809276 -0.0273292512
  endloop
 endfacet

 facet normal 0 0 -1
  outer loop
  vertex -0.141164646 0.00726808561 -0.0273292512
  vertex -0.140164718 0.00826809276 -0.0273292512
  vertex -0.140167266 0.00820759498 -0.0273292512
  endloop
 endfacet

 facet normal 0 0 -1
  outer loop
  vertex -0.141164646 0.00726808561 -0.0273292512
  vertex -0.140167266 0.00820759498 -0.0273292512
  vertex -0.140168548 0.00818082411 -0.0273292512
  endloop
 endfacet

 facet normal 0 0 -1
  outer loop
  vertex -0.141164646 0.00726808561 -0.0273292512
  vertex -0.140168548 0.00818082411 -0.0273292512
  vertex -0.140176192 0.00812074728 -0.0273292512
  endloop
 endfacet

 facet normal 0 0 -1
  outer loop
  vertex -0.141164646 0.00726808561 -0.0273292512
  vertex -0.140176192 0.00812074728 -0.0273292512
  vertex -0.140180007 0.0080943983 -0.0273292512
  endloop
 endfacet

 facet normal 0 0 -1
  outer loop
  vertex -0.141164646 0.00726808561 -0.0273292512
  vertex -0.140180007 0.0080943983 -0.0273292512
  vertex -0.140192747 0.00803516526 -0.0273292512
  endloop
 endfacet

 facet normal 0 0 -1
  outer loop
  vertex -0.141164646 0.00726808561 -0.0273292512
  vertex -0.140192747 0.00803516526 -0.0273292512
  vertex -0.140198484 0.00800923724 -0.0273292512
  endloop
 endfacet

 facet normal 0 0 -1
  outer loop
  vertex -0.141164646 0.00726808561 -0.0273292512
  vertex -0.140198484 0.00800923724 -0.0273292512
  vertex -0.140216947 0.00795147941 -0.0273292512
  endloop
 endfacet

 facet normal 0 0 -1
  outer loop
  vertex -0.141164646 0.00726808561 -0.0273292512
  vertex -0.140216947 0.00795147941 -0.0273292512
  vertex -0.140225232 0.00792597421 -0.0273292512
  endloop
 endfacet

 facet normal 0 0 -1
  outer loop
  vertex -0.141164646 0.00726808561 -0.0273292512
  vertex -0.140225232 0.00792597421 -0.0273292512
  vertex -0.140248165 0.00787011348 -0.0273292512
  endloop
 endfacet

 facet normal 0 0 -1
  outer loop
  vertex -0.141164646 0.00726808561 -0.0273292512
  vertex -0.140248165 0.00787011348 -0.0273292512
  vertex -0.140258342 0.00784545019 -0.0273292512
  endloop
 endfacet

 facet normal 0 0 -1
  outer loop
  vertex -0.141164646 0.00726808561 -0.0273292512
  vertex -0.140258342 0.00784545019 -0.0273292512
  vertex -0.140298471 0.00776808895 -0.0273292512
  endloop
 endfacet

 facet normal 0 0 -1
  outer loop
  vertex -0.141164646 0.00726808561 -0.0273292512
  vertex -0.140298471 0.00776808895 -0.0273292512
  vertex -0.140330955 0.00771686621 -0.0273292512
  endloop
 endfacet

 facet normal 0 0 -1
  outer loop
  vertex -0.141164646 0.00726808561 -0.0273292512
  vertex -0.140330955 0.00771686621 -0.0273292512
  vertex -0.140345603 0.00769452192 -0.0273292512
  endloop
 endfacet

 facet normal 0 0 -1
  outer loop
  vertex -0.141164646 0.00726808561 -0.0273292512
  vertex -0.140345603 0.00769452192 -0.0273292512
  vertex -0.140398458 0.00762517052 -0.0273292512
  endloop
 endfacet

 facet normal 0 0 -1
  outer loop
  vertex -0.141164646 0.00726808561 -0.0273292512
  vertex -0.140398458 0.00762517052 -0.0273292512
  vertex -0.140439227 0.0075804824 -0.0273292512
  endloop
 endfacet

 facet normal 0 0 -1
  outer loop
  vertex -0.141164646 0.00726808561 -0.0273292512
  vertex -0.140439227 0.0075804824 -0.0273292512
  vertex -0.14045769 0.00756087853 -0.0273292512
  endloop
 endfacet

 facet normal 0 0 -1
  outer loop
  vertex -0.141164646 0.00726808561 -0.0273292512
  vertex -0.14045769 0.00756087853 -0.0273292512
  vertex -0.140522018 0.00750185642 -0.0273292512
  endloop
 endfacet

 facet normal 0 0 -1
  outer loop
  vertex -0.141164646 0.00726808561 -0.0273292512
  vertex -0.140522018 0.00750185642 -0.0273292512
  vertex -0.140590802 0.00744894706 -0.0273292512
  endloop
 endfacet

 facet normal 0 0 -1
  outer loop
  vertex -0.141164646 0.00726808561 -0.0273292512
  vertex -0.140590802 0.00744894706 -0.0273292512
  vertex -0.140664682 0.00740193995 -0.0273292512
  endloop
 endfacet

 facet normal 0 0 -1
  outer loop
  vertex -0.141164646 0.00726808561 -0.0273292512
  vertex -0.140664682 0.00740193995 -0.0273292512
  vertex -0.140718192 0.00737390434 -0.0273292512
  endloop
 endfacet

 facet normal 0 0 -1
  outer loop
  vertex -0.141164646 0.00726808561 -0.0273292512
  vertex -0.140718192 0.00737390434 -0.0273292512
  vertex -0.140741751 0.00736167841 -0.0273292512
  endloop
 endfacet

 facet normal 0 0 -1
  outer loop
  vertex -0.141164646 0.00726808561 -0.0273292512
  vertex -0.140741751 0.00736167841 -0.0273292512
  vertex -0.140797794 0.0073384908 -0.0273292512
  endloop
 endfacet

 facet normal 0 0 -1
  outer loop
  vertex -0.141164646 0.00726808561 -0.0273292512
  vertex -0.140797794 0.0073384908 -0.0273292512
  vertex -0.140822634 0.00732837291 -0.0273292512
  endloop
 endfacet

 facet normal 0 0 -1
  outer loop
  vertex -0.141164646 0.00726808561 -0.0273292512
  vertex -0.140822634 0.00732837291 -0.0273292512
  vertex -0.1408806 0.00731003378 -0.0273292512
  endloop
 endfacet

 facet normal 0 0 -1
  outer loop
  vertex -0.141164646 0.00726808561 -0.0273292512
  vertex -0.1408806 0.00731003378 -0.0273292512
  vertex -0.140906066 0.00730202347 -0.0273292512
  endloop
 endfacet

 facet normal 0 0 -1
  outer loop
  vertex -0.141164646 0.00726808561 -0.0273292512
  vertex -0.140906066 0.00730202347 -0.0273292512
  vertex -0.140964672 0.00728895422 -0.0273292512
  endloop
 endfacet

 facet normal 0 0 -1
  outer loop
  vertex -0.141164646 0.00726808561 -0.0273292512
  vertex -0.140964672 0.00728895422 -0.0273292512
  vertex -0.140990779 0.00728326291 -0.0273292512
  endloop
 endfacet

 facet normal 0 0 -1
  outer loop
  vertex -0.141164646 0.00726808561 -0.0273292512
  vertex -0.140990779 0.00728326291 -0.0273292512
  vertex -0.141051278 0.0072752526 -0.0273292512
  endloop
 endfacet

 facet normal 0 0 -1
  outer loop
  vertex -0.141164646 0.00726808561 -0.0273292512
  vertex -0.141051278 0.0072752526 -0.0273292512
  vertex -0.141077399 0.00727187982 -0.0273292512
  endloop
 endfacet

 facet normal 0 0 -1
  outer loop
  vertex -0.141164646 0.00726808561 -0.0273292512
  vertex -0.141077399 0.00727187982 -0.0273292512
  vertex -0.141137898 0.0072691394 -0.0273292512
  endloop
 endfacet

endsolid AssimpScene
