solid AssimpScene
 facet normal 0.263417691 0.964681864 0
  outer loop
  vertex -0.138361827 0.00724152569 0.00560000027
  vertex -0.133028448 0.00578518491 0.00560000027
  vertex -0.133028448 0.00578518491 0.0030232335
  endloop
 endfacet

 facet normal 0.263417691 0.964681864 0
  outer loop
  vertex -0.138361827 0.00724152569 0.00560000027
  vertex -0.133028448 0.00578518491 0.0030232335
  vertex -0.138361827 0.00724152569 0.0030232335
  endloop
 endfacet

 facet normal 0 1 0
  outer loop
  vertex -0.138361827 0.00724152569 0.00560000027
  vertex -0.138361827 0.00724152569 0.0030232335
  vertex -0.14328362 0.00724152569 0.0030232335
  endloop
 endfacet

 facet normal 0 1 0
  outer loop
  vertex -0.138361827 0.00724152569 0.00560000027
  vertex -0.14328362 0.00724152569 0.0030232335
  vertex -0.14328362 0.00724152569 0.00560000027
  endloop
 endfacet

 facet normal 0 0 1
  outer loop
  vertex -0.138361827 0.00724152569 0.00560000027
  vertex -0.14328362 0.00724152569 0.00560000027
  vertex -0.14328362 0.00438442128 0.00560000027
  endloop
 endfacet

 facet normal 0 0 1
  outer loop
  vertex -0.138361827 0.00724152569 0.00560000027
  vertex -0.14328362 0.00438442128 0.00560000027
  vertex -0.133028448 0.00416929694 0.00560000027
  endloop
 endfacet

 facet normal 0 0 1
  outer loop
  vertex -0.138361827 0.00724152569 0.00560000027
  vertex -0.133028448 0.00416929694 0.00560000027
  vertex -0.133028448 0.00578518491 0.00560000027
  endloop
 endfacet

 facet normal 1 0 0
  outer loop
  vertex -0.133028448 0.00578518491 0.00560000027
  vertex -0.133028448 0.00416929694 0.00560000027
  vertex -0.133028448 0.00337912259 0.0030232335
  endloop
 endfacet

 facet normal 1 0 0
  outer loop
  vertex -0.133028448 0.00578518491 0.00560000027
  vertex -0.133028448 0.00337912259 0.0030232335
  vertex -0.133028448 0.00578518491 0.0030232335
  endloop
 endfacet

 facet normal 0 0 -1
  outer loop
  vertex -0.138361827 0.00724152569 0.0030232335
  vertex -0.133028448 0.00578518491 0.0030232335
  vertex -0.133028448 0.00337912259 0.0030232335
  endloop
 endfacet

 facet normal 0 0 -1
  outer loop
  vertex -0.138361827 0.00724152569 0.0030232335
  vertex -0.133028448 0.00337912259 0.0030232335
  vertex -0.14328362 0.00361163798 0.0030232335
  endloop
 endfacet

 facet normal 0 0 -1
  outer loop
  vertex -0.138361827 0.00724152569 0.0030232335
  vertex -0.14328362 0.00361163798 0.0030232335
  vertex -0.14328362 0.00724152569 0.0030232335
  endloop
 endfacet

 facet normal -1 0 0
  outer loop
  vertex -0.14328362 0.00724152569 0.00560000027
  vertex -0.14328362 0.00724152569 0.0030232335
  vertex -0.14328362 0.00361163798 0.0030232335
  endloop
 endfacet

 facet normal -1 0 0
  outer loop
  vertex -0.14328362 0.00724152569 0.00560000027
  vertex -0.14328362 0.00361163798 0.0030232335
  vertex -0.14328362 0.00438442128 0.00560000027
  endloop
 endfacet

 facet normal -0.0200513247 -0.955865681 0.29311946
  outer loop
  vertex -0.133028448 0.00416929694 0.00560000027
  vertex -0.14328362 0.00438442128 0.00560000027
  vertex -0.133028448 0.00337912259 0.0030232335
  endloop
 endfacet

 facet normal -0.0217122249 -0.957625747 0.28719601
  outer loop
  vertex -0.14328362 0.00438442128 0.00560000027
  vertex -0.14328362 0.00361163798 0.0030232335
  vertex -0.133028448 0.00337912259 0.0030232335
  endloop
 endfacet

endsolid AssimpScene
