solid AssimpScene
 facet normal 0.998840451 -0.0481424816 0
  outer loop
  vertex -0.129764304 0.00826772582 -0.0273257308
  vertex -0.129768506 0.00818042178 -0.0273257308
  vertex -0.129768506 0.00818042178 -0.0307996608
  endloop
 endfacet

 facet normal 0.998840451 -0.0481424816 0
  outer loop
  vertex -0.129764304 0.00826772582 -0.0273257308
  vertex -0.129768506 0.00818042178 -0.0307996608
  vertex -0.129764304 0.00826772582 -0.0307996608
  endloop
 endfacet

 facet normal 0.998828769 0.048385065 0
  outer loop
  vertex -0.129764304 0.00826772582 -0.0273257308
  vertex -0.129764304 0.00826772582 -0.0307996608
  vertex -0.129768506 0.00835459027 -0.0307996608
  endloop
 endfacet

 facet normal 0.998828769 0.048385065 0
  outer loop
  vertex -0.129764304 0.00826772582 -0.0273257308
  vertex -0.129768506 0.00835459027 -0.0307996608
  vertex -0.129768506 0.00835459027 -0.0273257308
  endloop
 endfacet

 facet normal 0.997790694 0.0483347774 0.0455794744
  outer loop
  vertex -0.129764304 0.00826772582 -0.0273257308
  vertex -0.129768506 0.00835459027 -0.0273257308
  vertex -0.131365076 0.0102673806 0.0055964347
  endloop
 endfacet

 facet normal 0.998820126 0 0.0485653244
  outer loop
  vertex -0.129764304 0.00826772582 -0.0273257308
  vertex -0.131365076 0.0102673806 0.0055964347
  vertex -0.131365076 0.00578548526 0.0055964347
  endloop
 endfacet

 facet normal 0.99783361 -0.048093956 0.0448912047
  outer loop
  vertex -0.129764304 0.00826772582 -0.0273257308
  vertex -0.131365076 0.00578548526 0.0055964347
  vertex -0.129768506 0.00818042178 -0.0273257308
  endloop
 endfacet

 facet normal 0.990020871 -0.135661557 0.0381421931
  outer loop
  vertex -0.129768506 0.00818042178 -0.0273257308
  vertex -0.131365076 0.00578548526 0.0055964347
  vertex -0.129780293 0.0080944337 -0.0273257308
  endloop
 endfacet

 facet normal 0.99074173 -0.135760337 0
  outer loop
  vertex -0.129768506 0.00818042178 -0.0273257308
  vertex -0.129780293 0.0080944337 -0.0273257308
  vertex -0.129780293 0.0080944337 -0.0307996608
  endloop
 endfacet

 facet normal 0.99074173 -0.135760337 0
  outer loop
  vertex -0.129768506 0.00818042178 -0.0273257308
  vertex -0.129780293 0.0080944337 -0.0307996608
  vertex -0.129768506 0.00818042178 -0.0307996608
  endloop
 endfacet

 facet normal 0 0 -1
  outer loop
  vertex -0.129764304 0.00826772582 -0.0307996608
  vertex -0.129768506 0.00818042178 -0.0307996608
  vertex -0.129780293 0.0080944337 -0.0307996608
  endloop
 endfacet

 facet normal 0 0 -1
  outer loop
  vertex -0.129764304 0.00826772582 -0.0307996608
  vertex -0.129780293 0.0080944337 -0.0307996608
  vertex -0.129799649 0.00800932292 -0.0307996608
  endloop
 endfacet

 facet normal 0 0 -1
  outer loop
  vertex -0.129764304 0.00826772582 -0.0307996608
  vertex -0.129799649 0.00800932292 -0.0307996608
  vertex -0.129824907 0.00792596769 -0.0307996608
  endloop
 endfacet

 facet normal 0 0 -1
  outer loop
  vertex -0.129764304 0.00826772582 -0.0307996608
  vertex -0.129824907 0.00792596769 -0.0307996608
  vertex -0.129858568 0.00784568302 -0.0307996608
  endloop
 endfacet

 facet normal 0 0 -1
  outer loop
  vertex -0.129764304 0.00826772582 -0.0307996608
  vertex -0.129858568 0.00784568302 -0.0307996608
  vertex -0.129898965 0.0077684694 -0.0307996608
  endloop
 endfacet

 facet normal 0 0 -1
  outer loop
  vertex -0.129764304 0.00826772582 -0.0307996608
  vertex -0.129898965 0.0077684694 -0.0307996608
  vertex -0.129946098 0.00769476593 -0.0307996608
  endloop
 endfacet

 facet normal 0 0 -1
  outer loop
  vertex -0.129764304 0.00826772582 -0.0307996608
  vertex -0.129946098 0.00769476593 -0.0307996608
  vertex -0.129999116 0.00762544898 -0.0307996608
  endloop
 endfacet

 facet normal 0 0 -1
  outer loop
  vertex -0.129764304 0.00826772582 -0.0307996608
  vertex -0.129999116 0.00762544898 -0.0307996608
  vertex -0.130058035 0.00756139681 -0.0307996608
  endloop
 endfacet

 facet normal 0 0 -1
  outer loop
  vertex -0.129764304 0.00826772582 -0.0307996608
  vertex -0.130058035 0.00756139681 -0.0307996608
  vertex -0.130121991 0.00750217075 -0.0307996608
  endloop
 endfacet

 facet normal 0 0 -1
  outer loop
  vertex -0.129764304 0.00826772582 -0.0307996608
  vertex -0.130121991 0.00750217075 -0.0307996608
  vertex -0.130191013 0.00744908629 -0.0307996608
  endloop
 endfacet

 facet normal 0 0 -1
  outer loop
  vertex -0.129764304 0.00826772582 -0.0307996608
  vertex -0.130191013 0.00744908629 -0.0307996608
  vertex -0.130265072 0.00740214391 -0.0307996608
  endloop
 endfacet

 facet normal 0 0 -1
  outer loop
  vertex -0.129764304 0.00826772582 -0.0307996608
  vertex -0.130265072 0.00740214391 -0.0307996608
  vertex -0.130342498 0.00736178225 -0.0307996608
  endloop
 endfacet

 facet normal 0 0 -1
  outer loop
  vertex -0.129764304 0.00826772582 -0.0307996608
  vertex -0.130342498 0.00736178225 -0.0307996608
  vertex -0.130423293 0.00732843997 -0.0307996608
  endloop
 endfacet

 facet normal 0 0 -1
  outer loop
  vertex -0.129764304 0.00826772582 -0.0307996608
  vertex -0.130423293 0.00732843997 -0.0307996608
  vertex -0.13050662 0.00730255619 -0.0307996608
  endloop
 endfacet

 facet normal 0 0 -1
  outer loop
  vertex -0.129764304 0.00826772582 -0.0307996608
  vertex -0.13050662 0.00730255619 -0.0307996608
  vertex -0.130591616 0.00728325266 -0.0307996608
  endloop
 endfacet

 facet normal 0 0 -1
  outer loop
  vertex -0.129764304 0.00826772582 -0.0307996608
  vertex -0.130591616 0.00728325266 -0.0307996608
  vertex -0.130678311 0.00727184629 -0.0307996608
  endloop
 endfacet

 facet normal 0 0 -1
  outer loop
  vertex -0.129764304 0.00826772582 -0.0307996608
  vertex -0.130678311 0.00727184629 -0.0307996608
  vertex -0.130764991 0.0072683366 -0.0307996608
  endloop
 endfacet

 facet normal 0 0 -1
  outer loop
  vertex -0.129764304 0.00826772582 -0.0307996608
  vertex -0.130764991 0.0072683366 -0.0307996608
  vertex -0.135563076 0.0072683366 -0.0307996608
  endloop
 endfacet

 facet normal 0 0 -1
  outer loop
  vertex -0.129764304 0.00826772582 -0.0307996608
  vertex -0.135563076 0.0072683366 -0.0307996608
  vertex -0.135650605 0.00727184629 -0.0307996608
  endloop
 endfacet

 facet normal 0 0 -1
  outer loop
  vertex -0.129764304 0.00826772582 -0.0307996608
  vertex -0.135650605 0.00727184629 -0.0307996608
  vertex -0.135737285 0.00728325266 -0.0307996608
  endloop
 endfacet

 facet normal 0 0 -1
  outer loop
  vertex -0.129764304 0.00826772582 -0.0307996608
  vertex -0.135737285 0.00728325266 -0.0307996608
  vertex -0.135822296 0.00730255619 -0.0307996608
  endloop
 endfacet

 facet normal 0 0 -1
  outer loop
  vertex -0.129764304 0.00826772582 -0.0307996608
  vertex -0.135822296 0.00730255619 -0.0307996608
  vertex -0.135905623 0.00732843997 -0.0307996608
  endloop
 endfacet

 facet normal 0 0 -1
  outer loop
  vertex -0.129764304 0.00826772582 -0.0307996608
  vertex -0.135905623 0.00732843997 -0.0307996608
  vertex -0.135986418 0.00736178225 -0.0307996608
  endloop
 endfacet

 facet normal 0 0 -1
  outer loop
  vertex -0.129764304 0.00826772582 -0.0307996608
  vertex -0.135986418 0.00736178225 -0.0307996608
  vertex -0.136062995 0.00740214391 -0.0307996608
  endloop
 endfacet

 facet normal 0 0 -1
  outer loop
  vertex -0.129764304 0.00826772582 -0.0307996608
  vertex -0.136062995 0.00740214391 -0.0307996608
  vertex -0.136137068 0.00744908629 -0.0307996608
  endloop
 endfacet

 facet normal 0 0 -1
  outer loop
  vertex -0.129764304 0.00826772582 -0.0307996608
  vertex -0.136137068 0.00744908629 -0.0307996608
  vertex -0.136206076 0.00750217075 -0.0307996608
  endloop
 endfacet

 facet normal 0 0 -1
  outer loop
  vertex -0.129764304 0.00826772582 -0.0307996608
  vertex -0.136206076 0.00750217075 -0.0307996608
  vertex -0.136270031 0.00756139681 -0.0307996608
  endloop
 endfacet

 facet normal 0 0 -1
  outer loop
  vertex -0.129764304 0.00826772582 -0.0307996608
  vertex -0.136270031 0.00756139681 -0.0307996608
  vertex -0.1363298 0.00762544898 -0.0307996608
  endloop
 endfacet

 facet normal 0 0 -1
  outer loop
  vertex -0.129764304 0.00826772582 -0.0307996608
  vertex -0.1363298 0.00762544898 -0.0307996608
  vertex -0.136382818 0.00769476593 -0.0307996608
  endloop
 endfacet

 facet normal 0 0 -1
  outer loop
  vertex -0.129764304 0.00826772582 -0.0307996608
  vertex -0.136382818 0.00769476593 -0.0307996608
  vertex -0.136429101 0.0077684694 -0.0307996608
  endloop
 endfacet

 facet normal 0 0 -1
  outer loop
  vertex -0.129764304 0.00826772582 -0.0307996608
  vertex -0.136429101 0.0077684694 -0.0307996608
  vertex -0.136470348 0.00784568302 -0.0307996608
  endloop
 endfacet

 facet normal 0 0 -1
  outer loop
  vertex -0.129764304 0.00826772582 -0.0307996608
  vertex -0.136470348 0.00784568302 -0.0307996608
  vertex -0.136503175 0.00792596769 -0.0307996608
  endloop
 endfacet

 facet normal 0 0 -1
  outer loop
  vertex -0.129764304 0.00826772582 -0.0307996608
  vertex -0.136503175 0.00792596769 -0.0307996608
  vertex -0.136529252 0.00800932292 -0.0307996608
  endloop
 endfacet

 facet normal 0 0 -1
  outer loop
  vertex -0.129764304 0.00826772582 -0.0307996608
  vertex -0.136529252 0.00800932292 -0.0307996608
  vertex -0.136548609 0.0080944337 -0.0307996608
  endloop
 endfacet

 facet normal 0 0 -1
  outer loop
  vertex -0.129764304 0.00826772582 -0.0307996608
  vertex -0.136548609 0.0080944337 -0.0307996608
  vertex -0.136559561 0.00818042178 -0.0307996608
  endloop
 endfacet

 facet normal 0 0 -1
  outer loop
  vertex -0.129764304 0.00826772582 -0.0307996608
  vertex -0.136559561 0.00818042178 -0.0307996608
  vertex -0.136563763 0.00826772582 -0.0307996608
  endloop
 endfacet

 facet normal 0 0 -1
  outer loop
  vertex -0.129764304 0.00826772582 -0.0307996608
  vertex -0.136563763 0.00826772582 -0.0307996608
  vertex -0.136559561 0.00835459027 -0.0307996608
  endloop
 endfacet

 facet normal 0 0 -1
  outer loop
  vertex -0.129764304 0.00826772582 -0.0307996608
  vertex -0.136559561 0.00835459027 -0.0307996608
  vertex -0.136548609 0.00844101701 -0.0307996608
  endloop
 endfacet

 facet normal 0 0 -1
  outer loop
  vertex -0.129764304 0.00826772582 -0.0307996608
  vertex -0.136548609 0.00844101701 -0.0307996608
  vertex -0.136529252 0.00852656644 -0.0307996608
  endloop
 endfacet

 facet normal 0 0 -1
  outer loop
  vertex -0.129764304 0.00826772582 -0.0307996608
  vertex -0.136529252 0.00852656644 -0.0307996608
  vertex -0.136503175 0.00860948302 -0.0307996608
  endloop
 endfacet

 facet normal 0 0 -1
  outer loop
  vertex -0.129764304 0.00826772582 -0.0307996608
  vertex -0.136503175 0.00860948302 -0.0307996608
  vertex -0.136470348 0.00869020633 -0.0307996608
  endloop
 endfacet

 facet normal 0 0 -1
  outer loop
  vertex -0.129764304 0.00826772582 -0.0307996608
  vertex -0.136470348 0.00869020633 -0.0307996608
  vertex -0.136429101 0.00876741949 -0.0307996608
  endloop
 endfacet

 facet normal 0 0 -1
  outer loop
  vertex -0.129764304 0.00826772582 -0.0307996608
  vertex -0.136429101 0.00876741949 -0.0307996608
  vertex -0.136382818 0.00884112343 -0.0307996608
  endloop
 endfacet

 facet normal 0 0 -1
  outer loop
  vertex -0.129764304 0.00826772582 -0.0307996608
  vertex -0.136382818 0.00884112343 -0.0307996608
  vertex -0.1363298 0.00891043991 -0.0307996608
  endloop
 endfacet

 facet normal 0 0 -1
  outer loop
  vertex -0.129764304 0.00826772582 -0.0307996608
  vertex -0.1363298 0.00891043991 -0.0307996608
  vertex -0.136270031 0.00897449255 -0.0307996608
  endloop
 endfacet

 facet normal 0 0 -1
  outer loop
  vertex -0.129764304 0.00826772582 -0.0307996608
  vertex -0.136270031 0.00897449255 -0.0307996608
  vertex -0.136206076 0.00903371908 -0.0307996608
  endloop
 endfacet

 facet normal 0 0 -1
  outer loop
  vertex -0.129764304 0.00826772582 -0.0307996608
  vertex -0.136206076 0.00903371908 -0.0307996608
  vertex -0.136137068 0.0090868026 -0.0307996608
  endloop
 endfacet

 facet normal 0 0 -1
  outer loop
  vertex -0.129764304 0.00826772582 -0.0307996608
  vertex -0.136137068 0.0090868026 -0.0307996608
  vertex -0.136062995 0.00913374592 -0.0307996608
  endloop
 endfacet

 facet normal 0 0 -1
  outer loop
  vertex -0.129764304 0.00826772582 -0.0307996608
  vertex -0.136062995 0.00913374592 -0.0307996608
  vertex -0.135986418 0.00917410664 -0.0307996608
  endloop
 endfacet

 facet normal 0 0 -1
  outer loop
  vertex -0.129764304 0.00826772582 -0.0307996608
  vertex -0.135986418 0.00917410664 -0.0307996608
  vertex -0.135905623 0.00920701027 -0.0307996608
  endloop
 endfacet

 facet normal 0 0 -1
  outer loop
  vertex -0.129764304 0.00826772582 -0.0307996608
  vertex -0.135905623 0.00920701027 -0.0307996608
  vertex -0.135822296 0.00923333317 -0.0307996608
  endloop
 endfacet

 facet normal 0 0 -1
  outer loop
  vertex -0.129764304 0.00826772582 -0.0307996608
  vertex -0.135822296 0.00923333317 -0.0307996608
  vertex -0.135737285 0.00925219804 -0.0307996608
  endloop
 endfacet

 facet normal 0 0 -1
  outer loop
  vertex -0.129764304 0.00826772582 -0.0307996608
  vertex -0.135737285 0.00925219804 -0.0307996608
  vertex -0.135650605 0.00926360488 -0.0307996608
  endloop
 endfacet

 facet normal 0 0 -1
  outer loop
  vertex -0.129764304 0.00826772582 -0.0307996608
  vertex -0.135650605 0.00926360488 -0.0307996608
  vertex -0.135563076 0.00926755276 -0.0307996608
  endloop
 endfacet

 facet normal 0 0 -1
  outer loop
  vertex -0.129764304 0.00826772582 -0.0307996608
  vertex -0.135563076 0.00926755276 -0.0307996608
  vertex -0.130764991 0.00926755276 -0.0307996608
  endloop
 endfacet

 facet normal 0 0 -1
  outer loop
  vertex -0.129764304 0.00826772582 -0.0307996608
  vertex -0.130764991 0.00926755276 -0.0307996608
  vertex -0.130678311 0.00926360488 -0.0307996608
  endloop
 endfacet

 facet normal 0 0 -1
  outer loop
  vertex -0.129764304 0.00826772582 -0.0307996608
  vertex -0.130678311 0.00926360488 -0.0307996608
  vertex -0.130591616 0.00925219804 -0.0307996608
  endloop
 endfacet

 facet normal 0 0 -1
  outer loop
  vertex -0.129764304 0.00826772582 -0.0307996608
  vertex -0.130591616 0.00925219804 -0.0307996608
  vertex -0.13050662 0.00923333317 -0.0307996608
  endloop
 endfacet

 facet normal 0 0 -1
  outer loop
  vertex -0.129764304 0.00826772582 -0.0307996608
  vertex -0.13050662 0.00923333317 -0.0307996608
  vertex -0.130423293 0.00920701027 -0.0307996608
  endloop
 endfacet

 facet normal 0 0 -1
  outer loop
  vertex -0.129764304 0.00826772582 -0.0307996608
  vertex -0.130423293 0.00920701027 -0.0307996608
  vertex -0.130342498 0.00917410664 -0.0307996608
  endloop
 endfacet

 facet normal 0 0 -1
  outer loop
  vertex -0.129764304 0.00826772582 -0.0307996608
  vertex -0.130342498 0.00917410664 -0.0307996608
  vertex -0.130265072 0.00913374592 -0.0307996608
  endloop
 endfacet

 facet normal 0 0 -1
  outer loop
  vertex -0.129764304 0.00826772582 -0.0307996608
  vertex -0.130265072 0.00913374592 -0.0307996608
  vertex -0.130191013 0.0090868026 -0.0307996608
  endloop
 endfacet

 facet normal 0 0 -1
  outer loop
  vertex -0.129764304 0.00826772582 -0.0307996608
  vertex -0.130191013 0.0090868026 -0.0307996608
  vertex -0.130121991 0.00903371908 -0.0307996608
  endloop
 endfacet

 facet normal 0 0 -1
  outer loop
  vertex -0.129764304 0.00826772582 -0.0307996608
  vertex -0.130121991 0.00903371908 -0.0307996608
  vertex -0.130058035 0.00897449255 -0.0307996608
  endloop
 endfacet

 facet normal 0 0 -1
  outer loop
  vertex -0.129764304 0.00826772582 -0.0307996608
  vertex -0.130058035 0.00897449255 -0.0307996608
  vertex -0.129999116 0.00891043991 -0.0307996608
  endloop
 endfacet

 facet normal 0 0 -1
  outer loop
  vertex -0.129764304 0.00826772582 -0.0307996608
  vertex -0.129999116 0.00891043991 -0.0307996608
  vertex -0.129946098 0.00884112343 -0.0307996608
  endloop
 endfacet

 facet normal 0 0 -1
  outer loop
  vertex -0.129764304 0.00826772582 -0.0307996608
  vertex -0.129946098 0.00884112343 -0.0307996608
  vertex -0.129898965 0.00876741949 -0.0307996608
  endloop
 endfacet

 facet normal 0 0 -1
  outer loop
  vertex -0.129764304 0.00826772582 -0.0307996608
  vertex -0.129898965 0.00876741949 -0.0307996608
  vertex -0.129858568 0.00869020633 -0.0307996608
  endloop
 endfacet

 facet normal 0 0 -1
  outer loop
  vertex -0.129764304 0.00826772582 -0.0307996608
  vertex -0.129858568 0.00869020633 -0.0307996608
  vertex -0.129824907 0.00860948302 -0.0307996608
  endloop
 endfacet

 facet normal 0 0 -1
  outer loop
  vertex -0.129764304 0.00826772582 -0.0307996608
  vertex -0.129824907 0.00860948302 -0.0307996608
  vertex -0.129799649 0.00852656644 -0.0307996608
  endloop
 endfacet

 facet normal 0 0 -1
  outer loop
  vertex -0.129764304 0.00826772582 -0.0307996608
  vertex -0.129799649 0.00852656644 -0.0307996608
  vertex -0.129780293 0.00844101701 -0.0307996608
  endloop
 endfacet

 facet normal 0 0 -1
  outer loop
  vertex -0.129764304 0.00826772582 -0.0307996608
  vertex -0.129780293 0.00844101701 -0.0307996608
  vertex -0.129768506 0.00835459027 -0.0307996608
  endloop
 endfacet

 facet normal 0.992181063 0.124806434 0
  outer loop
  vertex -0.129768506 0.00835459027 -0.0273257308
  vertex -0.129768506 0.00835459027 -0.0307996608
  vertex -0.129771873 0.00838135183 -0.0273257308
  endloop
 endfacet

 facet normal 0.991353691 0.124702357 0.0408303253
  outer loop
  vertex -0.129768506 0.00835459027 -0.0273257308
  vertex -0.129771873 0.00838135183 -0.0273257308
  vertex -0.131365076 0.0102673806 0.0055964347
  endloop
 endfacet

 facet normal 0 1 0
  outer loop
  vertex -0.131365076 0.0102673806 0.0055964347
  vertex -0.131364226 0.0102673806 0.00346219563
  vertex -0.131364226 0.0102673806 -0.0257972013
  endloop
 endfacet

 facet normal 0 1 0
  outer loop
  vertex -0.131365076 0.0102673806 0.0055964347
  vertex -0.131364226 0.0102673806 -0.0257972013
  vertex -0.134558186 0.0102673806 -0.0257972013
  endloop
 endfacet

 facet normal 0 1 0
  outer loop
  vertex -0.131365076 0.0102673806 0.0055964347
  vertex -0.134558186 0.0102673806 -0.0257972013
  vertex -0.138362303 0.0102673806 -0.0257936381
  endloop
 endfacet

 facet normal 0 1 0
  outer loop
  vertex -0.131365076 0.0102673806 0.0055964347
  vertex -0.138362303 0.0102673806 -0.0257936381
  vertex -0.138362303 0.0102673806 0.00559999887
  endloop
 endfacet

 facet normal 0 1 0
  outer loop
  vertex -0.131365076 0.0102673806 0.0055964347
  vertex -0.138362303 0.0102673806 0.00559999887
  vertex -0.136570498 0.0102673806 0.00559999887
  endloop
 endfacet

 facet normal 0.000684644445 0 0.999999762
  outer loop
  vertex -0.131365076 0.0102673806 0.0055964347
  vertex -0.136570498 0.0102673806 0.00559999887
  vertex -0.136570498 0.00578548526 0.00559999887
  endloop
 endfacet

 facet normal 0.000684644445 0 0.999999762
  outer loop
  vertex -0.131365076 0.0102673806 0.0055964347
  vertex -0.136570498 0.00578548526 0.00559999887
  vertex -0.131365076 0.00578548526 0.0055964347
  endloop
 endfacet

 facet normal 0.98940891 0.139568418 0.0398845784
  outer loop
  vertex -0.131365076 0.0102673806 0.0055964347
  vertex -0.129771873 0.00838135183 -0.0273257308
  vertex -0.129780293 0.00844101701 -0.0273257308
  endloop
 endfacet

 facet normal 0.974757195 0.220556781 0.0346864387
  outer loop
  vertex -0.131365076 0.0102673806 0.0055964347
  vertex -0.129780293 0.00844101701 -0.0273257308
  vertex -0.129799649 0.00852656644 -0.0273257308
  endloop
 endfacet

 facet normal 0.956198752 0.291169971 0.0300702136
  outer loop
  vertex -0.131365076 0.0102673806 0.0055964347
  vertex -0.129799649 0.00852656644 -0.0273257308
  vertex -0.129824907 0.00860948302 -0.0273257308
  endloop
 endfacet

 facet normal 0.924628198 0.380106986 0.0241145827
  outer loop
  vertex -0.131365076 0.0102673806 0.0055964347
  vertex -0.129824907 0.00860948302 -0.0273257308
  vertex -0.129834995 0.00863405131 -0.0273257308
  endloop
 endfacet

 facet normal 0.921842813 0.386841476 0.0236510169
  outer loop
  vertex -0.131365076 0.0102673806 0.0055964347
  vertex -0.129834995 0.00863405131 -0.0273257308
  vertex -0.129858568 0.00869020633 -0.0273257308
  endloop
 endfacet

 facet normal 0.885902345 0.46350953 0.0183335263
  outer loop
  vertex -0.131365076 0.0102673806 0.0055964347
  vertex -0.129858568 0.00869020633 -0.0273257308
  vertex -0.129898965 0.00876741949 -0.0273257308
  endloop
 endfacet

 facet normal 0.842407346 0.538685024 0.0129715251
  outer loop
  vertex -0.131365076 0.0102673806 0.0055964347
  vertex -0.129898965 0.00876741949 -0.0273257308
  vertex -0.129946098 0.00884112343 -0.0273257308
  endloop
 endfacet

 facet normal 0.794251144 0.607538223 0.00791308936
  outer loop
  vertex -0.131365076 0.0102673806 0.0055964347
  vertex -0.129946098 0.00884112343 -0.0273257308
  vertex -0.129999116 0.00891043991 -0.0273257308
  endloop
 endfacet

 facet normal 0.745039523 0.667011678 0.00341998693
  outer loop
  vertex -0.131365076 0.0102673806 0.0055964347
  vertex -0.129999116 0.00891043991 -0.0273257308
  vertex -0.130016789 0.00893018208 -0.0273257308
  endloop
 endfacet

 facet normal 0.7320171 0.681282461 0.00230703852
  outer loop
  vertex -0.131365076 0.0102673806 0.0055964347
  vertex -0.130016789 0.00893018208 -0.0273257308
  vertex -0.130058035 0.00897449255 -0.0273257308
  endloop
 endfacet

 facet normal 0.706787229 0.707426131 0.000278703199
  outer loop
  vertex -0.131365076 0.0102673806 0.0055964347
  vertex -0.130058035 0.00897449255 -0.0273257308
  vertex -0.131364226 0.0102673806 0.00346219563
  endloop
 endfacet

 facet normal 0.806279302 -0.591534913 0.000446002814
  outer loop
  vertex -0.131365076 0.00578548526 0.0055964347
  vertex -0.131364226 0.00578548526 0.00407503219
  vertex -0.129946098 0.00769476593 -0.0273257308
  endloop
 endfacet

 facet normal 0.842467427 -0.538723588 0.00506847305
  outer loop
  vertex -0.131365076 0.00578548526 0.0055964347
  vertex -0.129946098 0.00769476593 -0.0273257308
  vertex -0.129898965 0.0077684694 -0.0273257308
  endloop
 endfacet

 facet normal 0.878763795 -0.477143705 0.0103939446
  outer loop
  vertex -0.131365076 0.00578548526 0.0055964347
  vertex -0.129898965 0.0077684694 -0.0273257308
  vertex -0.129886344 0.00779172126 -0.0273257308
  endloop
 endfacet

 facet normal 0.889076948 -0.457599133 0.0120481951
  outer loop
  vertex -0.131365076 0.00578548526 0.0055964347
  vertex -0.129886344 0.00779172126 -0.0273257308
  vertex -0.129858568 0.00784568302 -0.0273257308
  endloop
 endfacet

 facet normal 0.922057629 -0.386633813 0.0179982278
  outer loop
  vertex -0.131365076 0.00578548526 0.0055964347
  vertex -0.129858568 0.00784568302 -0.0273257308
  vertex -0.129824907 0.00792596769 -0.0273257308
  endloop
 endfacet

 facet normal 0.956736207 -0.289800256 0.0259163361
  outer loop
  vertex -0.131365076 0.00578548526 0.0055964347
  vertex -0.129824907 0.00792596769 -0.0273257308
  vertex -0.129799649 0.00800932292 -0.0273257308
  endloop
 endfacet

 facet normal 0.974585652 -0.22180979 0.0313577056
  outer loop
  vertex -0.131365076 0.00578548526 0.0055964347
  vertex -0.129799649 0.00800932292 -0.0273257308
  vertex -0.129793763 0.00803520717 -0.0273257308
  endloop
 endfacet

 facet normal 0.974633336 -0.221597701 0.0313744731
  outer loop
  vertex -0.131365076 0.00578548526 0.0055964347
  vertex -0.129793763 0.00803520717 -0.0273257308
  vertex -0.129780293 0.0080944337 -0.0273257308
  endloop
 endfacet

 facet normal 0 -1 0
  outer loop
  vertex -0.131365076 0.00578548526 0.0055964347
  vertex -0.136570498 0.00578548526 0.00559999887
  vertex -0.138362303 0.00578548526 0.00559999887
  endloop
 endfacet

 facet normal 0 -1 0
  outer loop
  vertex -0.131365076 0.00578548526 0.0055964347
  vertex -0.138362303 0.00578548526 0.00559999887
  vertex -0.138362303 0.00578548526 -0.0257936381
  endloop
 endfacet

 facet normal 0 -1 0
  outer loop
  vertex -0.131365076 0.00578548526 0.0055964347
  vertex -0.138362303 0.00578548526 -0.0257936381
  vertex -0.134558186 0.00578548526 -0.0257972013
  endloop
 endfacet

 facet normal 0 -1 0
  outer loop
  vertex -0.131365076 0.00578548526 0.0055964347
  vertex -0.134558186 0.00578548526 -0.0257972013
  vertex -0.131364226 0.00578548526 -0.0257972013
  endloop
 endfacet

 facet normal 0 -1 0
  outer loop
  vertex -0.131365076 0.00578548526 0.0055964347
  vertex -0.131364226 0.00578548526 -0.0257972013
  vertex -0.131364226 0.00578548526 0.00407503219
  endloop
 endfacet

 facet normal 0.975113332 -0.221706837 0
  outer loop
  vertex -0.129780293 0.0080944337 -0.0273257308
  vertex -0.129793763 0.00803520717 -0.0273257308
  vertex -0.129780293 0.0080944337 -0.0307996608
  endloop
 endfacet

 facet normal 0.990834296 0.135083795 -8.04769443e-05
  outer loop
  vertex -0.129768506 0.00835459027 -0.0307996608
  vertex -0.129780293 0.00844101701 -0.0307996608
  vertex -0.129771873 0.00838135183 -0.0273257308
  endloop
 endfacet

 facet normal 0.990196824 0.139679551 0
  outer loop
  vertex -0.129771873 0.00838135183 -0.0273257308
  vertex -0.129780293 0.00844101701 -0.0307996608
  vertex -0.129780293 0.00844101701 -0.0273257308
  endloop
 endfacet

 facet normal 0.703476787 0.710718334 0
  outer loop
  vertex -0.131364226 0.0102673806 0.00346219563
  vertex -0.130058035 0.00897449255 -0.0273257308
  vertex -0.130058035 0.00897449255 -0.0307996608
  endloop
 endfacet

 facet normal 0.703476787 0.710718334 0
  outer loop
  vertex -0.131364226 0.0102673806 0.00346219563
  vertex -0.130058035 0.00897449255 -0.0307996608
  vertex -0.131364226 0.0102673806 -0.0257972013
  endloop
 endfacet

 facet normal 0 0 1
  outer loop
  vertex -0.136570498 0.0102673806 0.00559999887
  vertex -0.138362303 0.0102673806 0.00559999887
  vertex -0.138362303 0.00578548526 0.00559999887
  endloop
 endfacet

 facet normal 0 0 1
  outer loop
  vertex -0.136570498 0.0102673806 0.00559999887
  vertex -0.138362303 0.00578548526 0.00559999887
  vertex -0.136570498 0.00578548526 0.00559999887
  endloop
 endfacet

 facet normal 0.975344121 0.22068958 0
  outer loop
  vertex -0.129780293 0.00844101701 -0.0273257308
  vertex -0.129780293 0.00844101701 -0.0307996608
  vertex -0.129799649 0.00852656644 -0.0307996608
  endloop
 endfacet

 facet normal 0.975344121 0.22068958 0
  outer loop
  vertex -0.129780293 0.00844101701 -0.0273257308
  vertex -0.129799649 0.00852656644 -0.0307996608
  vertex -0.129799649 0.00852656644 -0.0273257308
  endloop
 endfacet

 facet normal 0.956631303 0.291301697 0
  outer loop
  vertex -0.129799649 0.00852656644 -0.0273257308
  vertex -0.129799649 0.00852656644 -0.0307996608
  vertex -0.129824907 0.00860948302 -0.0307996608
  endloop
 endfacet

 facet normal 0.956631303 0.291301697 0
  outer loop
  vertex -0.129799649 0.00852656644 -0.0273257308
  vertex -0.129824907 0.00860948302 -0.0307996608
  vertex -0.129824907 0.00860948302 -0.0273257308
  endloop
 endfacet

 facet normal 0.924897134 0.380217522 0
  outer loop
  vertex -0.129824907 0.00860948302 -0.0273257308
  vertex -0.129824907 0.00860948302 -0.0307996608
  vertex -0.129834995 0.00863405131 -0.0273257308
  endloop
 endfacet

 facet normal 0.922955275 0.384907305 -3.8811937e-05
  outer loop
  vertex -0.129834995 0.00863405131 -0.0273257308
  vertex -0.129824907 0.00860948302 -0.0307996608
  vertex -0.129858568 0.00869020633 -0.0307996608
  endloop
 endfacet

 facet normal 0.922100782 0.386949748 0
  outer loop
  vertex -0.129834995 0.00863405131 -0.0273257308
  vertex -0.129858568 0.00869020633 -0.0307996608
  vertex -0.129858568 0.00869020633 -0.0273257308
  endloop
 endfacet

 facet normal 0.886051178 0.463587403 0
  outer loop
  vertex -0.129858568 0.00869020633 -0.0273257308
  vertex -0.129858568 0.00869020633 -0.0307996608
  vertex -0.129898965 0.00876741949 -0.0307996608
  endloop
 endfacet

 facet normal 0.886051178 0.463587403 0
  outer loop
  vertex -0.129858568 0.00869020633 -0.0273257308
  vertex -0.129898965 0.00876741949 -0.0307996608
  vertex -0.129898965 0.00876741949 -0.0273257308
  endloop
 endfacet

 facet normal 0.842478216 0.538730502 0
  outer loop
  vertex -0.129898965 0.00876741949 -0.0273257308
  vertex -0.129898965 0.00876741949 -0.0307996608
  vertex -0.129946098 0.00884112343 -0.0307996608
  endloop
 endfacet

 facet normal 0.842478216 0.538730502 0
  outer loop
  vertex -0.129898965 0.00876741949 -0.0273257308
  vertex -0.129946098 0.00884112343 -0.0307996608
  vertex -0.129946098 0.00884112343 -0.0273257308
  endloop
 endfacet

 facet normal 0.794275939 0.607557237 0
  outer loop
  vertex -0.129946098 0.00884112343 -0.0273257308
  vertex -0.129946098 0.00884112343 -0.0307996608
  vertex -0.129999116 0.00891043991 -0.0307996608
  endloop
 endfacet

 facet normal 0.794275939 0.607557237 0
  outer loop
  vertex -0.129946098 0.00884112343 -0.0273257308
  vertex -0.129999116 0.00891043991 -0.0307996608
  vertex -0.129999116 0.00891043991 -0.0273257308
  endloop
 endfacet

 facet normal 0.745043874 0.667015553 0
  outer loop
  vertex -0.129999116 0.00891043991 -0.0273257308
  vertex -0.129999116 0.00891043991 -0.0307996608
  vertex -0.130016789 0.00893018208 -0.0273257308
  endloop
 endfacet

 facet normal 0.73601383 0.676966608 -0.000102493766
  outer loop
  vertex -0.130016789 0.00893018208 -0.0273257308
  vertex -0.129999116 0.00891043991 -0.0307996608
  vertex -0.130058035 0.00897449255 -0.0307996608
  endloop
 endfacet

 facet normal 0.732019007 0.681284249 0
  outer loop
  vertex -0.130016789 0.00893018208 -0.0273257308
  vertex -0.130058035 0.00897449255 -0.0307996608
  vertex -0.130058035 0.00897449255 -0.0273257308
  endloop
 endfacet

 facet normal 0.802782178 -0.596272469 0
  outer loop
  vertex -0.131364226 0.00578548526 0.00407503219
  vertex -0.131364226 0.00578548526 -0.0257972013
  vertex -0.129946098 0.00769476593 -0.0307996608
  endloop
 endfacet

 facet normal 0.802782178 -0.596272469 0
  outer loop
  vertex -0.131364226 0.00578548526 0.00407503219
  vertex -0.129946098 0.00769476593 -0.0307996608
  vertex -0.129946098 0.00769476593 -0.0273257308
  endloop
 endfacet

 facet normal 0.842478216 -0.538730502 0
  outer loop
  vertex -0.129946098 0.00769476593 -0.0273257308
  vertex -0.129946098 0.00769476593 -0.0307996608
  vertex -0.129898965 0.0077684694 -0.0307996608
  endloop
 endfacet

 facet normal 0.842478216 -0.538730502 0
  outer loop
  vertex -0.129946098 0.00769476593 -0.0273257308
  vertex -0.129898965 0.0077684694 -0.0307996608
  vertex -0.129898965 0.0077684694 -0.0273257308
  endloop
 endfacet

 facet normal 0.8788113 -0.477169514 0
  outer loop
  vertex -0.129898965 0.0077684694 -0.0273257308
  vertex -0.129898965 0.0077684694 -0.0307996608
  vertex -0.129886344 0.00779172126 -0.0273257308
  endloop
 endfacet

 facet normal 0.88605094 -0.463587761 -0.000117216347
  outer loop
  vertex -0.129886344 0.00779172126 -0.0273257308
  vertex -0.129898965 0.0077684694 -0.0307996608
  vertex -0.129858568 0.00784568302 -0.0307996608
  endloop
 endfacet

 facet normal 0.8891415 -0.457632393 0
  outer loop
  vertex -0.129886344 0.00779172126 -0.0273257308
  vertex -0.129858568 0.00784568302 -0.0307996608
  vertex -0.129858568 0.00784568302 -0.0273257308
  endloop
 endfacet

 facet normal 0.922207057 -0.386696517 0
  outer loop
  vertex -0.129858568 0.00784568302 -0.0273257308
  vertex -0.129858568 0.00784568302 -0.0307996608
  vertex -0.129824907 0.00792596769 -0.0307996608
  endloop
 endfacet

 facet normal 0.922207057 -0.386696517 0
  outer loop
  vertex -0.129858568 0.00784568302 -0.0273257308
  vertex -0.129824907 0.00792596769 -0.0307996608
  vertex -0.129824907 0.00792596769 -0.0273257308
  endloop
 endfacet

 facet normal 0.957057655 -0.28989765 0
  outer loop
  vertex -0.129824907 0.00792596769 -0.0273257308
  vertex -0.129824907 0.00792596769 -0.0307996608
  vertex -0.129799649 0.00800932292 -0.0307996608
  endloop
 endfacet

 facet normal 0.957057655 -0.28989765 0
  outer loop
  vertex -0.129824907 0.00792596769 -0.0273257308
  vertex -0.129799649 0.00800932292 -0.0307996608
  vertex -0.129799649 0.00800932292 -0.0273257308
  endloop
 endfacet

 facet normal 0.975065172 -0.221918926 0
  outer loop
  vertex -0.129799649 0.00800932292 -0.0273257308
  vertex -0.129799649 0.00800932292 -0.0307996608
  vertex -0.129793763 0.00803520717 -0.0273257308
  endloop
 endfacet

 facet normal 0.975098729 -0.221771345 -1.15639239e-06
  outer loop
  vertex -0.129793763 0.00803520717 -0.0273257308
  vertex -0.129799649 0.00800932292 -0.0307996608
  vertex -0.129780293 0.0080944337 -0.0307996608
  endloop
 endfacet

 facet normal 0.67936188 0.733701348 -0.012236624
  outer loop
  vertex -0.131364226 0.0102673806 -0.0257972013
  vertex -0.130058035 0.00897449255 -0.0307996608
  vertex -0.130121991 0.00903371908 -0.0307996608
  endloop
 endfacet

 facet normal 0.609099865 0.791870534 -0.0440295786
  outer loop
  vertex -0.131364226 0.0102673806 -0.0257972013
  vertex -0.130121991 0.00903371908 -0.0307996608
  vertex -0.130191013 0.0090868026 -0.0307996608
  endloop
 endfacet

 facet normal 0.53389591 0.842342794 -0.0735784769
  outer loop
  vertex -0.131364226 0.0102673806 -0.0257972013
  vertex -0.130191013 0.0090868026 -0.0307996608
  vertex -0.130265072 0.00913374592 -0.0307996608
  endloop
 endfacet

 facet normal 0.459973305 0.882407665 -0.0989003405
  outer loop
  vertex -0.131364226 0.0102673806 -0.0257972013
  vertex -0.130265072 0.00913374592 -0.0307996608
  vertex -0.130342498 0.00917410664 -0.0307996608
  endloop
 endfacet

 facet normal 0.374236435 0.91895169 -0.124398291
  outer loop
  vertex -0.131364226 0.0102673806 -0.0257972013
  vertex -0.130342498 0.00917410664 -0.0307996608
  vertex -0.130423293 0.00920701027 -0.0307996608
  endloop
 endfacet

 facet normal 0.298108369 0.943615913 -0.14394559
  outer loop
  vertex -0.131364226 0.0102673806 -0.0257972013
  vertex -0.130423293 0.00920701027 -0.0307996608
  vertex -0.13050662 0.00923333317 -0.0307996608
  endloop
 endfacet

 facet normal 0.213778183 0.96327734 -0.162467167
  outer loop
  vertex -0.131364226 0.0102673806 -0.0257972013
  vertex -0.13050662 0.00923333317 -0.0307996608
  vertex -0.130591616 0.00925219804 -0.0307996608
  endloop
 endfacet

 facet normal 0.128371164 0.975592673 -0.178157166
  outer loop
  vertex -0.131364226 0.0102673806 -0.0257972013
  vertex -0.130591616 0.00925219804 -0.0307996608
  vertex -0.130678311 0.00926360488 -0.0307996608
  endloop
 endfacet

 facet normal 0.0446668118 0.980641842 -0.190647587
  outer loop
  vertex -0.131364226 0.0102673806 -0.0257972013
  vertex -0.130678311 0.00926360488 -0.0307996608
  vertex -0.130764991 0.00926755276 -0.0307996608
  endloop
 endfacet

 facet normal 0 0.980605721 -0.195990905
  outer loop
  vertex -0.131364226 0.0102673806 -0.0257972013
  vertex -0.130764991 0.00926755276 -0.0307996608
  vertex -0.135563076 0.00926755276 -0.0307996608
  endloop
 endfacet

 facet normal 0 0.980605721 -0.195990905
  outer loop
  vertex -0.131364226 0.0102673806 -0.0257972013
  vertex -0.135563076 0.00926755276 -0.0307996608
  vertex -0.134558186 0.0102673806 -0.0257972013
  endloop
 endfacet

 facet normal -1 0 0
  outer loop
  vertex -0.138362303 0.0102673806 0.00559999887
  vertex -0.138362303 0.0102673806 -0.0257936381
  vertex -0.138362303 0.00578548526 -0.0257936381
  endloop
 endfacet

 facet normal -1 0 0
  outer loop
  vertex -0.138362303 0.0102673806 0.00559999887
  vertex -0.138362303 0.00578548526 -0.0257936381
  vertex -0.138362303 0.00578548526 0.00559999887
  endloop
 endfacet

 facet normal 0 -0.958764672 -0.284201175
  outer loop
  vertex -0.131364226 0.00578548526 -0.0257972013
  vertex -0.134558186 0.00578548526 -0.0257972013
  vertex -0.135563076 0.0072683366 -0.0307996608
  endloop
 endfacet

 facet normal 0 -0.958764672 -0.284201175
  outer loop
  vertex -0.131364226 0.00578548526 -0.0257972013
  vertex -0.135563076 0.0072683366 -0.0307996608
  vertex -0.130764991 0.0072683366 -0.0307996608
  endloop
 endfacet

 facet normal 0.0388397351 -0.959299445 -0.279707193
  outer loop
  vertex -0.131364226 0.00578548526 -0.0257972013
  vertex -0.130764991 0.0072683366 -0.0307996608
  vertex -0.130678311 0.00727184629 -0.0307996608
  endloop
 endfacet

 facet normal 0.125733763 -0.955548942 -0.266678184
  outer loop
  vertex -0.131364226 0.00578548526 -0.0257972013
  vertex -0.130678311 0.00727184629 -0.0307996608
  vertex -0.130591616 0.00728325266 -0.0307996608
  endloop
 endfacet

 facet normal 0.214441106 -0.944303691 -0.249610826
  outer loop
  vertex -0.131364226 0.00578548526 -0.0257972013
  vertex -0.130591616 0.00728325266 -0.0307996608
  vertex -0.13050662 0.00730255619 -0.0307996608
  endloop
 endfacet

 facet normal 0.288559854 -0.928873003 -0.232224435
  outer loop
  vertex -0.131364226 0.00578548526 -0.0257972013
  vertex -0.13050662 0.00730255619 -0.0307996608
  vertex -0.130423293 0.00732843997 -0.0307996608
  endloop
 endfacet

 facet normal 0.373069167 -0.904033899 -0.208667397
  outer loop
  vertex -0.131364226 0.00578548526 -0.0257972013
  vertex -0.130423293 0.00732843997 -0.0307996608
  vertex -0.130342498 0.00736178225 -0.0307996608
  endloop
 endfacet

 facet normal 0.454527944 -0.871956825 -0.181922182
  outer loop
  vertex -0.131364226 0.00578548526 -0.0257972013
  vertex -0.130342498 0.00736178225 -0.0307996608
  vertex -0.130265072 0.00740214391 -0.0307996608
  endloop
 endfacet

 facet normal 0.529001296 -0.834624171 -0.153493747
  outer loop
  vertex -0.131364226 0.00578548526 -0.0257972013
  vertex -0.130265072 0.00740214391 -0.0307996608
  vertex -0.130191013 0.00744908629 -0.0307996608
  endloop
 endfacet

 facet normal 0.605305135 -0.786935985 -0.119739264
  outer loop
  vertex -0.131364226 0.00578548526 -0.0257972013
  vertex -0.130191013 0.00744908629 -0.0307996608
  vertex -0.130121991 0.00750217075 -0.0307996608
  endloop
 endfacet

 facet normal 0.677079141 -0.731237113 -0.082801953
  outer loop
  vertex -0.131364226 0.00578548526 -0.0257972013
  vertex -0.130121991 0.00750217075 -0.0307996608
  vertex -0.130058035 0.00756139681 -0.0307996608
  endloop
 endfacet

 facet normal 0.735162616 -0.676182866 -0.0480910167
  outer loop
  vertex -0.131364226 0.00578548526 -0.0257972013
  vertex -0.130058035 0.00756139681 -0.0307996608
  vertex -0.129999116 0.00762544898 -0.0307996608
  endloop
 endfacet

 facet normal 0.794257998 -0.607543588 -0.00671826489
  outer loop
  vertex -0.131364226 0.00578548526 -0.0257972013
  vertex -0.129999116 0.00762544898 -0.0307996608
  vertex -0.129946098 0.00769476593 -0.0307996608
  endloop
 endfacet

 facet normal -0.000183509663 0.980612874 -0.1959555
  outer loop
  vertex -0.134558186 0.0102673806 -0.0257972013
  vertex -0.135563076 0.00926755276 -0.0307996608
  vertex -0.138362303 0.0102673806 -0.0257936381
  endloop
 endfacet

 facet normal -0.0439682566 0.974676788 -0.219253153
  outer loop
  vertex -0.138362303 0.0102673806 -0.0257936381
  vertex -0.135563076 0.00926755276 -0.0307996608
  vertex -0.135650605 0.00926360488 -0.0307996608
  endloop
 endfacet

 facet normal -0.125965014 0.957306385 -0.260186821
  outer loop
  vertex -0.138362303 0.0102673806 -0.0257936381
  vertex -0.135650605 0.00926360488 -0.0307996608
  vertex -0.135737285 0.00925219804 -0.0307996608
  endloop
 endfacet

 facet normal -0.206848353 0.932051778 -0.297478378
  outer loop
  vertex -0.138362303 0.0102673806 -0.0257936381
  vertex -0.135737285 0.00925219804 -0.0307996608
  vertex -0.135822296 0.00923333317 -0.0307996608
  endloop
 endfacet

 facet normal -0.284350157 0.900064647 -0.33019489
  outer loop
  vertex -0.138362303 0.0102673806 -0.0257936381
  vertex -0.135822296 0.00923333317 -0.0307996608
  vertex -0.135905623 0.00920701027 -0.0307996608
  endloop
 endfacet

 facet normal -0.352420628 0.865380406 -0.356253475
  outer loop
  vertex -0.138362303 0.0102673806 -0.0257936381
  vertex -0.135905623 0.00920701027 -0.0307996608
  vertex -0.135986418 0.00917410664 -0.0307996608
  endloop
 endfacet

 facet normal -0.43069002 0.817252398 -0.382890046
  outer loop
  vertex -0.138362303 0.0102673806 -0.0257936381
  vertex -0.135986418 0.00917410664 -0.0307996608
  vertex -0.136062995 0.00913374592 -0.0307996608
  endloop
 endfacet

 facet normal -0.490522563 0.773913145 -0.40055725
  outer loop
  vertex -0.138362303 0.0102673806 -0.0257936381
  vertex -0.136062995 0.00913374592 -0.0307996608
  vertex -0.136137068 0.0090868026 -0.0307996608
  endloop
 endfacet

 facet normal -0.554330945 0.720665455 -0.416363478
  outer loop
  vertex -0.138362303 0.0102673806 -0.0257936381
  vertex -0.136137068 0.0090868026 -0.0307996608
  vertex -0.136206076 0.00903371908 -0.0307996608
  endloop
 endfacet

 facet normal -0.614064574 0.663177669 -0.427925438
  outer loop
  vertex -0.138362303 0.0102673806 -0.0257936381
  vertex -0.136206076 0.00903371908 -0.0307996608
  vertex -0.136270031 0.00897449255 -0.0307996608
  endloop
 endfacet

 facet normal -0.658741415 0.614548624 -0.434038877
  outer loop
  vertex -0.138362303 0.0102673806 -0.0257936381
  vertex -0.136270031 0.00897449255 -0.0307996608
  vertex -0.1363298 0.00891043991 -0.0307996608
  endloop
 endfacet

 facet normal -0.714045465 0.546192646 -0.437964439
  outer loop
  vertex -0.138362303 0.0102673806 -0.0257936381
  vertex -0.1363298 0.00891043991 -0.0307996608
  vertex -0.136382818 0.00884112343 -0.0307996608
  endloop
 endfacet

 facet normal -0.761536181 0.478277504 -0.437393725
  outer loop
  vertex -0.138362303 0.0102673806 -0.0257936381
  vertex -0.136382818 0.00884112343 -0.0307996608
  vertex -0.136429101 0.00876741949 -0.0307996608
  endloop
 endfacet

 facet normal -0.794651926 0.424421042 -0.434045196
  outer loop
  vertex -0.138362303 0.0102673806 -0.0257936381
  vertex -0.136429101 0.00876741949 -0.0307996608
  vertex -0.136470348 0.00869020633 -0.0307996608
  endloop
 endfacet

 facet normal -0.838763356 0.341053277 -0.424451053
  outer loop
  vertex -0.138362303 0.0102673806 -0.0257936381
  vertex -0.136470348 0.00869020633 -0.0307996608
  vertex -0.136503175 0.00860948302 -0.0307996608
  endloop
 endfacet

 facet normal -0.868681312 0.273335338 -0.413135171
  outer loop
  vertex -0.138362303 0.0102673806 -0.0257936381
  vertex -0.136503175 0.00860948302 -0.0307996608
  vertex -0.136529252 0.00852656644 -0.0307996608
  endloop
 endfacet

 facet normal -0.89475143 0.202457517 -0.398033917
  outer loop
  vertex -0.138362303 0.0102673806 -0.0257936381
  vertex -0.136529252 0.00852656644 -0.0307996608
  vertex -0.136548609 0.00844101701 -0.0307996608
  endloop
 endfacet

 facet normal -0.919449925 0.11639674 -0.375584424
  outer loop
  vertex -0.138362303 0.0102673806 -0.0257936381
  vertex -0.136548609 0.00844101701 -0.0307996608
  vertex -0.136559561 0.00835459027 -0.0307996608
  endloop
 endfacet

 facet normal -0.934250951 0.0452586189 -0.353732795
  outer loop
  vertex -0.138362303 0.0102673806 -0.0257936381
  vertex -0.136559561 0.00835459027 -0.0307996608
  vertex -0.136563763 0.00826772582 -0.0307996608
  endloop
 endfacet

 facet normal -0.941104293 0 -0.338116497
  outer loop
  vertex -0.138362303 0.0102673806 -0.0257936381
  vertex -0.136563763 0.00826772582 -0.0307996608
  vertex -0.138362303 0.00578548526 -0.0257936381
  endloop
 endfacet

 facet normal -0.000266104558 -0.958779216 -0.284152091
  outer loop
  vertex -0.134558186 0.00578548526 -0.0257972013
  vertex -0.138362303 0.00578548526 -0.0257936381
  vertex -0.135563076 0.0072683366 -0.0307996608
  endloop
 endfacet

 facet normal -0.932850599 -0.0449636914 -0.357446402
  outer loop
  vertex -0.138362303 0.00578548526 -0.0257936381
  vertex -0.136563763 0.00826772582 -0.0307996608
  vertex -0.136559561 0.00818042178 -0.0307996608
  endloop
 endfacet

 facet normal -0.915383101 -0.116473153 -0.385366976
  outer loop
  vertex -0.138362303 0.00578548526 -0.0257936381
  vertex -0.136559561 0.00818042178 -0.0307996608
  vertex -0.136548609 0.0080944337 -0.0307996608
  endloop
 endfacet

 facet normal -0.887353361 -0.201818541 -0.414575905
  outer loop
  vertex -0.138362303 0.00578548526 -0.0257936381
  vertex -0.136548609 0.0080944337 -0.0307996608
  vertex -0.136529252 0.00800932292 -0.0307996608
  endloop
 endfacet

 facet normal -0.859641671 -0.269067317 -0.434302866
  outer loop
  vertex -0.138362303 0.00578548526 -0.0257936381
  vertex -0.136529252 0.00800932292 -0.0307996608
  vertex -0.136503175 0.00792596769 -0.0307996608
  endloop
 endfacet

 facet normal -0.826059282 -0.337722749 -0.451186776
  outer loop
  vertex -0.138362303 0.00578548526 -0.0257936381
  vertex -0.136503175 0.00792596769 -0.0307996608
  vertex -0.136470348 0.00784568302 -0.0307996608
  endloop
 endfacet

 facet normal -0.78026104 -0.416735351 -0.46639508
  outer loop
  vertex -0.138362303 0.00578548526 -0.0257936381
  vertex -0.136470348 0.00784568302 -0.0307996608
  vertex -0.136429101 0.0077684694 -0.0307996608
  endloop
 endfacet

 facet normal -0.745851934 -0.468427151 -0.473583192
  outer loop
  vertex -0.138362303 0.00578548526 -0.0257936381
  vertex -0.136429101 0.0077684694 -0.0307996608
  vertex -0.136382818 0.00769476593 -0.0307996608
  endloop
 endfacet

 facet normal -0.697189033 -0.533298612 -0.479082555
  outer loop
  vertex -0.138362303 0.00578548526 -0.0257936381
  vertex -0.136382818 0.00769476593 -0.0307996608
  vertex -0.1363298 0.00762544898 -0.0307996608
  endloop
 endfacet

 facet normal -0.641343951 -0.598317504 -0.480306327
  outer loop
  vertex -0.138362303 0.00578548526 -0.0257936381
  vertex -0.1363298 0.00762544898 -0.0307996608
  vertex -0.136270031 0.00756139681 -0.0307996608
  endloop
 endfacet

 facet normal -0.596752882 -0.644482255 -0.478046656
  outer loop
  vertex -0.138362303 0.00578548526 -0.0257936381
  vertex -0.136270031 0.00756139681 -0.0307996608
  vertex -0.136206076 0.00750217075 -0.0307996608
  endloop
 endfacet

 facet normal -0.537719905 -0.699068964 -0.4713386
  outer loop
  vertex -0.138362303 0.00578548526 -0.0257936381
  vertex -0.136206076 0.00750217075 -0.0307996608
  vertex -0.136137068 0.00744908629 -0.0307996608
  endloop
 endfacet

 facet normal -0.475227594 -0.749785185 -0.460413873
  outer loop
  vertex -0.138362303 0.00578548526 -0.0257936381
  vertex -0.136137068 0.00744908629 -0.0307996608
  vertex -0.136062995 0.00740214391 -0.0307996608
  endloop
 endfacet

 facet normal -0.417027652 -0.791323364 -0.447096586
  outer loop
  vertex -0.138362303 0.00578548526 -0.0257936381
  vertex -0.136062995 0.00740214391 -0.0307996608
  vertex -0.135986418 0.00736178225 -0.0307996608
  endloop
 endfacet

 facet normal -0.344955206 -0.835905492 -0.42692849
  outer loop
  vertex -0.138362303 0.00578548526 -0.0257936381
  vertex -0.135986418 0.00736178225 -0.0307996608
  vertex -0.135905623 0.00732843997 -0.0307996608
  endloop
 endfacet

 facet normal -0.271553755 -0.874128699 -0.402688026
  outer loop
  vertex -0.138362303 0.00578548526 -0.0257936381
  vertex -0.135905623 0.00732843997 -0.0307996608
  vertex -0.135822296 0.00730255619 -0.0307996608
  endloop
 endfacet

 facet normal -0.205049545 -0.902947426 -0.377677828
  outer loop
  vertex -0.138362303 0.00578548526 -0.0257936381
  vertex -0.135822296 0.00730255619 -0.0307996608
  vertex -0.135737285 0.00728325266 -0.0307996608
  endloop
 endfacet

 facet normal -0.122548237 -0.931339741 -0.342911273
  outer loop
  vertex -0.138362303 0.00578548526 -0.0257936381
  vertex -0.135737285 0.00728325266 -0.0307996608
  vertex -0.135650605 0.00727184629 -0.0307996608
  endloop
 endfacet

 facet normal -0.0381778516 -0.952106178 -0.303374678
  outer loop
  vertex -0.138362303 0.00578548526 -0.0257936381
  vertex -0.135650605 0.00727184629 -0.0307996608
  vertex -0.135563076 0.0072683366 -0.0307996608
  endloop
 endfacet

endsolid AssimpScene
