solid AssimpScene
 facet normal -6.555955e-07 -5.80291162e-05 -1
  outer loop
  vertex -0.00821748096 0.00146729418 -0.00628125668
  vertex -0.00400992204 -0.027674675 -0.00627956819
  vertex -0.00528381718 -0.0276602842 -0.00627956819
  endloop
 endfacet

 facet normal -2.34670697e-05 -6.03266344e-05 -1
  outer loop
  vertex -0.00821748096 0.00146729418 -0.00628125668
  vertex -0.00528381718 -0.0276602842 -0.00627956819
  vertex -0.005333154 -0.0276410915 -0.00627956819
  endloop
 endfacet

 facet normal -2.47989701e-05 -6.04586094e-05 -1
  outer loop
  vertex -0.00821748096 0.00146729418 -0.00628125668
  vertex -0.005333154 -0.0276410915 -0.00627956819
  vertex -0.00630399445 -0.027242871 -0.00627956819
  endloop
 endfacet

 facet normal -4.48183928e-05 -6.17928745e-05 -1
  outer loop
  vertex -0.00821748096 0.00146729418 -0.00628125668
  vertex -0.00630399445 -0.027242871 -0.00627956819
  vertex -0.00821571704 -0.0258562993 -0.00627956819
  endloop
 endfacet

 facet normal -1 -6.45369728e-05 0
  outer loop
  vertex -0.00821748096 0.00146729418 -0.00628125668
  vertex -0.00821571704 -0.0258562993 -0.00627956819
  vertex -0.00821571704 -0.0258562993 0.00652861409
  endloop
 endfacet

 facet normal -1 -6.45369728e-05 0
  outer loop
  vertex -0.00821748096 0.00146729418 -0.00628125668
  vertex -0.00821571704 -0.0258562993 0.00652861409
  vertex -0.00821748096 0.00146729418 0.0109128049
  endloop
 endfacet

 facet normal -1 0 0
  outer loop
  vertex -0.00821748096 0.00146729418 -0.00628125668
  vertex -0.00821748096 0.00146729418 0.0109128049
  vertex -0.00821748096 0.0102521051 0.0109128049
  endloop
 endfacet

 facet normal -1 0 0
  outer loop
  vertex -0.00821748096 0.00146729418 -0.00628125668
  vertex -0.00821748096 0.0102521051 0.0109128049
  vertex -0.00821748096 0.0102521051 -0.00628125668
  endloop
 endfacet

 facet normal 0 0 -1
  outer loop
  vertex -0.00821748096 0.00146729418 -0.00628125668
  vertex -0.00821748096 0.0102521051 -0.00628125668
  vertex 0.00472586649 0.0102521051 -0.00628125668
  endloop
 endfacet

 facet normal 0 0 -1
  outer loop
  vertex -0.00821748096 0.00146729418 -0.00628125668
  vertex 0.00472586649 0.0102521051 -0.00628125668
  vertex 0.00491087371 0.00146729418 -0.00628125668
  endloop
 endfacet

 facet normal 0 -5.79344596e-05 -1
  outer loop
  vertex -0.00821748096 0.00146729418 -0.00628125668
  vertex 0.00491087371 0.00146729418 -0.00628125668
  vertex 0.0097809257 -0.027674675 -0.00627956819
  endloop
 endfacet

 facet normal 0 -5.79344596e-05 -1
  outer loop
  vertex -0.00821748096 0.00146729418 -0.00628125668
  vertex 0.0097809257 -0.027674675 -0.00627956819
  vertex -0.00400992204 -0.027674675 -0.00627956819
  endloop
 endfacet

 facet normal -0.00967309903 -0.99995321 0
  outer loop
  vertex -0.00400992204 -0.027674675 -0.00627956819
  vertex -0.00400992204 -0.027674675 0.0109634493
  vertex -0.00500190444 -0.0276650805 0.000441055774
  endloop
 endfacet

 facet normal -0.0112969773 -0.999936104 -0.000239713263
  outer loop
  vertex -0.00400992204 -0.027674675 -0.00627956819
  vertex -0.00500190444 -0.0276650805 0.000441055774
  vertex -0.00528381718 -0.0276602842 -0.00627956819
  endloop
 endfacet

 facet normal 0 -1 0
  outer loop
  vertex -0.00400992204 -0.027674675 -0.00627956819
  vertex 0.0097809257 -0.027674675 -0.00627956819
  vertex 0.0097809257 -0.027674675 0.0109634493
  endloop
 endfacet

 facet normal 0 -1 0
  outer loop
  vertex -0.00400992204 -0.027674675 -0.00627956819
  vertex 0.0097809257 -0.027674675 0.0109634493
  vertex -0.00400992204 -0.027674675 0.0109634493
  endloop
 endfacet

 facet normal -0.362536371 -0.931969643 0
  outer loop
  vertex -0.00528381718 -0.0276602842 -0.00627956819
  vertex -0.00528381718 -0.0276602842 0.0109634493
  vertex -0.005333154 -0.0276410915 -0.00627956819
  endloop
 endfacet

 facet normal -0.0170102082 -0.99985528 0
  outer loop
  vertex -0.00528381718 -0.0276602842 -0.00627956819
  vertex -0.00500190444 -0.0276650805 0.000441055774
  vertex -0.00528381718 -0.0276602842 0.0109634493
  endloop
 endfacet

 facet normal -0.378886133 -0.925443292 5.40451074e-05
  outer loop
  vertex -0.005333154 -0.0276410915 -0.00627956819
  vertex -0.00528381718 -0.0276602842 0.0109634493
  vertex -0.00630399445 -0.027242871 0.00652861409
  endloop
 endfacet

 facet normal -0.379496574 -0.925193191 0
  outer loop
  vertex -0.005333154 -0.0276410915 -0.00627956819
  vertex -0.00630399445 -0.027242871 0.00652861409
  vertex -0.00630399445 -0.027242871 -0.00627956819
  endloop
 endfacet

 facet normal -0.587126911 -0.809494913 0
  outer loop
  vertex -0.00630399445 -0.027242871 -0.00627956819
  vertex -0.00630399445 -0.027242871 0.00652861409
  vertex -0.00821571704 -0.0258562993 0.00652861409
  endloop
 endfacet

 facet normal -0.587126911 -0.809494913 0
  outer loop
  vertex -0.00630399445 -0.027242871 -0.00627956819
  vertex -0.00821571704 -0.0258562993 0.00652861409
  vertex -0.00821571704 -0.0258562993 -0.00627956819
  endloop
 endfacet

 facet normal -1 -6.47324632e-05 1.21829657e-06
  outer loop
  vertex -0.00821748096 0.00146729418 0.0109128049
  vertex -0.00821571704 -0.0258562993 0.00652861409
  vertex -0.00821571704 -0.0258323103 0.00780318631
  endloop
 endfacet

 facet normal -1 -6.58501958e-05 1.10309938e-05
  outer loop
  vertex -0.00821748096 0.00146729418 0.0109128049
  vertex -0.00821571704 -0.0258323103 0.00780318631
  vertex -0.00821571704 -0.0256931745 0.00863376819
  endloop
 endfacet

 facet normal -1 -6.80140365e-05 3.68186011e-05
  outer loop
  vertex -0.00821748096 0.00146729418 0.0109128049
  vertex -0.00821571704 -0.0256931745 0.00863376819
  vertex -0.00821571704 -0.0253477301 0.00927189831
  endloop
 endfacet

 facet normal -1 -6.90212328e-05 5.32779086e-05
  outer loop
  vertex -0.00821748096 0.00146729418 0.0109128049
  vertex -0.00821571704 -0.0253477301 0.00927189831
  vertex -0.00821571704 -0.0247144178 0.0100923516
  endloop
 endfacet

 facet normal -1 -7.1183822e-05 0.000122288824
  outer loop
  vertex -0.00821748096 0.00146729418 0.0109128049
  vertex -0.00821571704 -0.0247144178 0.0100923516
  vertex -0.00821571704 -0.0239371732 0.0105447825
  endloop
 endfacet

 facet normal -1 -7.13810005e-05 0.000135899842
  outer loop
  vertex -0.00821748096 0.00146729418 0.0109128049
  vertex -0.00821571704 -0.0239371732 0.0105447825
  vertex -0.00821571704 -0.0236061234 0.0107186642
  endloop
 endfacet

 facet normal -0.99999994 -7.40679097e-05 0.000482917967
  outer loop
  vertex -0.00821748096 0.00146729418 0.0109128049
  vertex -0.00821571704 -0.0236061234 0.0107186642
  vertex -0.00821571704 -0.0224834308 0.0108908582
  endloop
 endfacet

 facet normal -0.99999994 -7.40755277e-05 0.000491230399
  outer loop
  vertex -0.00821748096 0.00146729418 0.0109128049
  vertex -0.00821571704 -0.0224834308 0.0108908582
  vertex -0.00821571704 -0.0223826785 0.0109060518
  endloop
 endfacet

 facet normal -0.999535024 -8.25358657e-05 0.0304911695
  outer loop
  vertex -0.00821748096 0.00146729418 0.0109128049
  vertex -0.00821571704 -0.0223826785 0.0109060518
  vertex -0.00821571704 -0.0211352464 0.0109094279
  endloop
 endfacet

 facet normal -0.346481979 -0.00016717003 0.938056588
  outer loop
  vertex -0.00821748096 0.00146729418 0.0109128049
  vertex -0.00821571704 -0.0211352464 0.0109094279
  vertex -0.00806947425 -0.0211064573 0.0109634493
  endloop
 endfacet

 facet normal -0.340566248 -0.000123528152 0.940220535
  outer loop
  vertex -0.00821748096 0.00146729418 0.0109128049
  vertex -0.00806947425 -0.0211064573 0.0109634493
  vertex -0.00807300117 0.00146729418 0.0109651377
  endloop
 endfacet

 facet normal -0.340566248 0 0.940220535
  outer loop
  vertex -0.00821748096 0.00146729418 0.0109128049
  vertex -0.00807300117 0.00146729418 0.0109651377
  vertex -0.00807300117 0.0102521051 0.0109651377
  endloop
 endfacet

 facet normal -0.340566248 0 0.940220535
  outer loop
  vertex -0.00821748096 0.00146729418 0.0109128049
  vertex -0.00807300117 0.0102521051 0.0109651377
  vertex -0.00821748096 0.0102521051 0.0109128049
  endloop
 endfacet

 facet normal -0.999427795 0.0338226445 0
  outer loop
  vertex -0.00821748096 0.0102521051 -0.00628125668
  vertex -0.00821748096 0.0102521051 0.0109128049
  vertex -0.00784923043 0.0211335644 0.00526754791
  endloop
 endfacet

 facet normal -0.999427795 0.0338226445 0
  outer loop
  vertex -0.00821748096 0.0102521051 -0.00628125668
  vertex -0.00784923043 0.0211335644 0.00526754791
  vertex -0.00784923043 0.0211335644 -0.00539158843
  endloop
 endfacet

 facet normal -0.0221166629 0.0822116286 -0.996369481
  outer loop
  vertex -0.00821748096 0.0102521051 -0.00628125668
  vertex -0.00784923043 0.0211335644 -0.00539158843
  vertex -0.00711801602 0.0213302765 -0.00539158843
  endloop
 endfacet

 facet normal 0 0.0800504833 -0.996790826
  outer loop
  vertex -0.00821748096 0.0102521051 -0.00628125668
  vertex -0.00711801602 0.0213302765 -0.00539158843
  vertex 0.00835902616 0.0213302765 -0.00539158843
  endloop
 endfacet

 facet normal 0 0.0800504833 -0.996790826
  outer loop
  vertex -0.00821748096 0.0102521051 -0.00628125668
  vertex 0.00835902616 0.0213302765 -0.00539158843
  vertex 0.00472586649 0.0102521051 -0.00628125668
  endloop
 endfacet

 facet normal 0.000360769103 7.59774684e-06 -0.99999994
  outer loop
  vertex 0.00491087371 0.00146729418 -0.00628125668
  vertex 0.00472586649 0.0102521051 -0.00628125668
  vertex 0.0097809257 -0.00756700383 -0.00627956819
  endloop
 endfacet

 facet normal 0.000346674758 0 -0.99999994
  outer loop
  vertex 0.00491087371 0.00146729418 -0.00628125668
  vertex 0.0097809257 -0.00756700383 -0.00627956819
  vertex 0.0097809257 -0.027674675 -0.00627956819
  endloop
 endfacet

 facet normal 0 -5.79344596e-05 1
  outer loop
  vertex -0.00400992204 -0.027674675 0.0109634493
  vertex 0.0097809257 -0.027674675 0.0109634493
  vertex 0.00740580633 0.00146729418 0.0109651377
  endloop
 endfacet

 facet normal 0 -5.79344596e-05 1
  outer loop
  vertex -0.00400992204 -0.027674675 0.0109634493
  vertex 0.00740580633 0.00146729418 0.0109651377
  vertex -0.00807300117 0.00146729418 0.0109651377
  endloop
 endfacet

 facet normal -6.55558665e-07 -5.80258602e-05 1
  outer loop
  vertex -0.00400992204 -0.027674675 0.0109634493
  vertex -0.00807300117 0.00146729418 0.0109651377
  vertex -0.00528381718 -0.0276602842 0.0109634493
  endloop
 endfacet

 facet normal -0.0112969782 -0.999936104 0.000426914397
  outer loop
  vertex -0.00400992204 -0.027674675 0.0109634493
  vertex -0.00528381718 -0.0276602842 0.0109634493
  vertex -0.00496666692 -0.0276650805 0.00812225137
  endloop
 endfacet

 facet normal -0.0101678306 -0.999948263 4.66445963e-05
  outer loop
  vertex -0.00400992204 -0.027674675 0.0109634493
  vertex -0.00496666692 -0.0276650805 0.00812225137
  vertex -0.00500190444 -0.0276650805 0.000441055774
  endloop
 endfacet

 facet normal -0.0145239811 -0.999894559 6.6628294e-05
  outer loop
  vertex -0.00500190444 -0.0276650805 0.000441055774
  vertex -0.00496666692 -0.0276650805 0.00812225137
  vertex -0.00528381718 -0.0276602842 0.0109634493
  endloop
 endfacet

 facet normal 1 0 0
  outer loop
  vertex 0.0097809257 -0.027674675 -0.00627956819
  vertex 0.0097809257 -0.00756700383 -0.00627956819
  vertex 0.0097809257 -0.00251489738 0.010853718
  endloop
 endfacet

 facet normal 1 0 0
  outer loop
  vertex 0.0097809257 -0.027674675 -0.00627956819
  vertex 0.0097809257 -0.00251489738 0.010853718
  vertex 0.0097809257 -0.00251489738 0.0109634493
  endloop
 endfacet

 facet normal 1 0 0
  outer loop
  vertex 0.0097809257 -0.027674675 -0.00627956819
  vertex 0.0097809257 -0.00251489738 0.0109634493
  vertex 0.0097809257 -0.027674675 0.0109634493
  endloop
 endfacet

 facet normal -2.49069963e-05 -6.03481167e-05 1
  outer loop
  vertex -0.00528381718 -0.0276602842 0.0109634493
  vertex -0.00807300117 0.00146729418 0.0109651377
  vertex -0.00629518135 -0.027242871 0.0109634493
  endloop
 endfacet

 facet normal -0.381506085 -0.924365699 0.0010704723
  outer loop
  vertex -0.00528381718 -0.0276602842 0.0109634493
  vertex -0.00629518135 -0.027242871 0.0109634493
  vertex -0.006300468 -0.027242871 0.00907944702
  endloop
 endfacet

 facet normal -0.380643815 -0.924721658 0.000526275602
  outer loop
  vertex -0.00528381718 -0.0276602842 0.0109634493
  vertex -0.006300468 -0.027242871 0.00907944702
  vertex -0.00630399445 -0.027242871 0.00652861409
  endloop
 endfacet

 facet normal -0.587126732 -0.809494674 0.000811757636
  outer loop
  vertex -0.00630399445 -0.027242871 0.00652861409
  vertex -0.006300468 -0.027242871 0.00907944702
  vertex -0.00821571704 -0.0258562993 0.00652861409
  endloop
 endfacet

 facet normal -0.587857425 -0.808962941 0.00164947601
  outer loop
  vertex -0.00821571704 -0.0258562993 0.00652861409
  vertex -0.006300468 -0.027242871 0.00907944702
  vertex -0.00629518135 -0.027242871 0.0109634493
  endloop
 endfacet

 facet normal -0.607745886 -0.793991029 0.0149433026
  outer loop
  vertex -0.00821571704 -0.0258562993 0.00652861409
  vertex -0.00629518135 -0.027242871 0.0109634493
  vertex -0.00821571704 -0.0258323103 0.00780318631
  endloop
 endfacet

 facet normal -0.705770612 -0.698704898 0.11704459
  outer loop
  vertex -0.00821571704 -0.0258323103 0.00780318631
  vertex -0.00629518135 -0.027242871 0.0109634493
  vertex -0.00821571704 -0.0256931745 0.00863376819
  endloop
 endfacet

 facet normal -0.789668977 -0.539548993 0.292078584
  outer loop
  vertex -0.00821571704 -0.0256931745 0.00863376819
  vertex -0.00629518135 -0.027242871 0.0109634493
  vertex -0.00821571704 -0.0253477301 0.00927189831
  endloop
 endfacet

 facet normal -0.796942115 -0.478170156 0.369102448
  outer loop
  vertex -0.00821571704 -0.0253477301 0.00927189831
  vertex -0.00629518135 -0.027242871 0.0109634493
  vertex -0.00821571704 -0.0247144178 0.0100923516
  endloop
 endfacet

 facet normal -0.725546837 -0.346201092 0.594749272
  outer loop
  vertex -0.00821571704 -0.0247144178 0.0100923516
  vertex -0.00629518135 -0.027242871 0.0109634493
  vertex -0.00821571704 -0.0239371732 0.0105447825
  endloop
 endfacet

 facet normal -0.704753816 -0.329899043 0.628083467
  outer loop
  vertex -0.00821571704 -0.0239371732 0.0105447825
  vertex -0.00629518135 -0.027242871 0.0109634493
  vertex -0.00821571704 -0.0236061234 0.0107186642
  endloop
 endfacet

 facet normal -0.410763919 -0.156463116 0.898216188
  outer loop
  vertex -0.00821571704 -0.0236061234 0.0107186642
  vertex -0.00629518135 -0.027242871 0.0109634493
  vertex -0.00668810029 -0.0262113381 0.0109634493
  endloop
 endfacet

 facet normal -0.384824842 -0.139927939 0.91232121
  outer loop
  vertex -0.00821571704 -0.0236061234 0.0107186642
  vertex -0.00668810029 -0.0262113381 0.0109634493
  vertex -0.00821571704 -0.0224834308 0.0108908582
  endloop
 endfacet

 facet normal -0.380040258 -0.137922376 0.9146294
  outer loop
  vertex -0.00821571704 -0.0224834308 0.0108908582
  vertex -0.00668810029 -0.0262113381 0.0109634493
  vertex -0.00821571704 -0.0223826785 0.0109060518
  endloop
 endfacet

 facet normal -0.250179827 -0.0324294195 0.967656136
  outer loop
  vertex -0.00821571704 -0.0223826785 0.0109060518
  vertex -0.00799371023 -0.0223826785 0.0109634493
  vertex -0.00802542828 -0.0221379865 0.0109634493
  endloop
 endfacet

 facet normal -0.274899662 -0.0117382836 0.961401224
  outer loop
  vertex -0.00821571704 -0.0223826785 0.0109060518
  vertex -0.00802542828 -0.0221379865 0.0109634493
  vertex -0.00806947425 -0.0211064573 0.0109634493
  endloop
 endfacet

 facet normal -0.346069902 -0.00253960653 0.938205361
  outer loop
  vertex -0.00821571704 -0.0223826785 0.0109060518
  vertex -0.00806947425 -0.0211064573 0.0109634493
  vertex -0.00821571704 -0.0211352464 0.0109094279
  endloop
 endfacet

 facet normal -0.24940452 -0.0850493237 0.964657485
  outer loop
  vertex -0.00821571704 -0.0223826785 0.0109060518
  vertex -0.00668810029 -0.0262113381 0.0109634493
  vertex -0.00799371023 -0.0223826785 0.0109634493
  endloop
 endfacet

 facet normal -0.00175797637 -7.50660183e-05 0.99999851
  outer loop
  vertex -0.00806947425 -0.0211064573 0.0109634493
  vertex -0.00802542828 -0.0221379865 0.0109634493
  vertex -0.00807300117 0.00146729418 0.0109651377
  endloop
 endfacet

 facet normal 0 0 1
  outer loop
  vertex -0.00807300117 0.00146729418 0.0109651377
  vertex 0.00740580633 0.00146729418 0.0109651377
  vertex 0.00755028566 0.0213302765 0.0109651377
  endloop
 endfacet

 facet normal 0 0 1
  outer loop
  vertex -0.00807300117 0.00146729418 0.0109651377
  vertex 0.00755028566 0.0213302765 0.0109651377
  vertex -0.00667752745 0.0213302765 0.0109651377
  endloop
 endfacet

 facet normal 0 0 1
  outer loop
  vertex -0.00807300117 0.00146729418 0.0109651377
  vertex -0.00667752745 0.0213302765 0.0109651377
  vertex -0.00807300117 0.0102521051 0.0109651377
  endloop
 endfacet

 facet normal -0.00056048634 -7.26527287e-05 0.999999881
  outer loop
  vertex -0.00807300117 0.00146729418 0.0109651377
  vertex -0.00802542828 -0.0221379865 0.0109634493
  vertex -0.00799371023 -0.0223826785 0.0109634493
  endloop
 endfacet

 facet normal -0.00020963134 -7.14862981e-05 1
  outer loop
  vertex -0.00807300117 0.00146729418 0.0109651377
  vertex -0.00799371023 -0.0223826785 0.0109634493
  vertex -0.00668810029 -0.0262113381 0.0109634493
  endloop
 endfacet

 facet normal -0.000184353077 -7.02215038e-05 1
  outer loop
  vertex -0.00807300117 0.00146729418 0.0109651377
  vertex -0.00668810029 -0.0262113381 0.0109634493
  vertex -0.00629518135 -0.027242871 0.0109634493
  endloop
 endfacet

 facet normal -0.34054029 0.0123591721 0.940148771
  outer loop
  vertex -0.00821748096 0.0102521051 0.0109128049
  vertex -0.00807300117 0.0102521051 0.0109651377
  vertex -0.00784746651 0.0165948253 0.0109634493
  endloop
 endfacet

 facet normal -0.924421906 0.0509098805 0.377958119
  outer loop
  vertex -0.00821748096 0.0102521051 0.0109128049
  vertex -0.00784746651 0.0165948253 0.0109634493
  vertex -0.00784746651 0.0172089469 0.0108807292
  endloop
 endfacet

 facet normal -0.993913114 0.0533078089 0.0964101776
  outer loop
  vertex -0.00821748096 0.0102521051 0.0109128049
  vertex -0.00784746651 0.0172089469 0.0108807292
  vertex -0.00784746651 0.018485168 0.0101750717
  endloop
 endfacet

 facet normal -0.996936202 0.0501811616 0.0600006804
  outer loop
  vertex -0.00821748096 0.0102521051 0.0109128049
  vertex -0.00784746651 0.018485168 0.0101750717
  vertex -0.00784923043 0.0188498013 0.00984081347
  endloop
 endfacet

 facet normal -0.997202754 0.0496751443 0.0558507219
  outer loop
  vertex -0.00821748096 0.0102521051 0.0109128049
  vertex -0.00784923043 0.0188498013 0.00984081347
  vertex -0.00784923043 0.0190225244 0.00968718994
  endloop
 endfacet

 facet normal -0.997559488 0.0488559529 0.0498814434
  outer loop
  vertex -0.00821748096 0.0102521051 0.0109128049
  vertex -0.00784923043 0.0190225244 0.00968718994
  vertex -0.00784923043 0.0196654312 0.0090575004
  endloop
 endfacet

 facet normal -0.997747421 0.0482230149 0.0466328077
  outer loop
  vertex -0.00821748096 0.0102521051 0.0109128049
  vertex -0.00784923043 0.0196654312 0.0090575004
  vertex -0.00784923043 0.0202939454 0.00840755273
  endloop
 endfacet

 facet normal -0.998593271 0.044001352 0.0295867175
  outer loop
  vertex -0.00821748096 0.0102521051 0.0109128049
  vertex -0.00784923043 0.0202939454 0.00840755273
  vertex -0.00784923043 0.0206537824 0.00787240174
  endloop
 endfacet

 facet normal -0.999143958 0.0392201655 0.0131628541
  outer loop
  vertex -0.00821748096 0.0102521051 0.0109128049
  vertex -0.00784923043 0.0206537824 0.00787240174
  vertex -0.00784923043 0.0211047772 0.00652861409
  endloop
 endfacet

 facet normal -0.999413729 0.0342275016 0.000781303155
  outer loop
  vertex -0.00821748096 0.0102521051 0.0109128049
  vertex -0.00784923043 0.0211047772 0.00652861409
  vertex -0.00784923043 0.0211335644 0.00526754791
  endloop
 endfacet

 facet normal -0.259784669 0.965666652 0
  outer loop
  vertex -0.00784923043 0.0211335644 -0.00539158843
  vertex -0.00784923043 0.0211335644 0.00526754791
  vertex -0.00711801602 0.0213302765 0.00525404233
  endloop
 endfacet

 facet normal -0.259784669 0.965666652 0
  outer loop
  vertex -0.00784923043 0.0211335644 -0.00539158843
  vertex -0.00711801602 0.0213302765 0.00525404233
  vertex -0.00711801602 0.0213302765 -0.00539158843
  endloop
 endfacet

 facet normal 0 1 0
  outer loop
  vertex -0.00711801602 0.0213302765 -0.00539158843
  vertex -0.00711801602 0.0213302765 0.00525404233
  vertex -0.00705811009 0.0213302765 0.00652861409
  endloop
 endfacet

 facet normal 0 1 0
  outer loop
  vertex -0.00711801602 0.0213302765 -0.00539158843
  vertex -0.00705811009 0.0213302765 0.00652861409
  vertex -0.00681496132 0.0213302765 0.00944578089
  endloop
 endfacet

 facet normal 0 1 0
  outer loop
  vertex -0.00711801602 0.0213302765 -0.00539158843
  vertex -0.00681496132 0.0213302765 0.00944578089
  vertex -0.00667752745 0.0213302765 0.0109651377
  endloop
 endfacet

 facet normal 0 1 0
  outer loop
  vertex -0.00711801602 0.0213302765 -0.00539158843
  vertex -0.00667752745 0.0213302765 0.0109651377
  vertex 0.00755028566 0.0213302765 0.0109651377
  endloop
 endfacet

 facet normal 0 1 0
  outer loop
  vertex -0.00711801602 0.0213302765 -0.00539158843
  vertex 0.00755028566 0.0213302765 0.0109651377
  vertex 0.00777757959 0.0213302765 0.0103506418
  endloop
 endfacet

 facet normal 0 1 0
  outer loop
  vertex -0.00711801602 0.0213302765 -0.00539158843
  vertex 0.00777757959 0.0213302765 0.0103506418
  vertex 0.00835902616 0.0213302765 -0.00539158843
  endloop
 endfacet

 facet normal 0.123895817 0.0389954448 -0.991528809
  outer loop
  vertex 0.00472586649 0.0102521051 -0.00628125668
  vertex 0.00835902616 0.0213302765 -0.00539158843
  vertex 0.00859160442 -0.001987139 -0.00627956819
  endloop
 endfacet

 facet normal 0.00134313421 0.000286282564 -0.999999046
  outer loop
  vertex 0.00472586649 0.0102521051 -0.00628125668
  vertex 0.00859160442 -0.001987139 -0.00627956819
  vertex 0.0097809257 -0.00756700383 -0.00627956819
  endloop
 endfacet

 facet normal 0.184089378 0.0392377637 -0.982126117
  outer loop
  vertex 0.0097809257 -0.00756700383 -0.00627956819
  vertex 0.00859160442 -0.001987139 -0.00627956819
  vertex 0.00835902616 0.0213302765 -0.00539158843
  endloop
 endfacet

 facet normal 0.998662651 0.0495888367 -0.0146223009
  outer loop
  vertex 0.0097809257 -0.00756700383 -0.00627956819
  vertex 0.00835902616 0.0213302765 -0.00539158843
  vertex 0.0097809257 -0.00251489738 0.010853718
  endloop
 endfacet

 facet normal 0.000756878639 0 0.999999821
  outer loop
  vertex 0.0097809257 -0.027674675 0.0109634493
  vertex 0.0097809257 -0.00251489738 0.0109634493
  vertex 0.00755028566 0.0213302765 0.0109651377
  endloop
 endfacet

 facet normal 0.000652595074 -4.74685066e-06 0.999999762
  outer loop
  vertex 0.0097809257 -0.027674675 0.0109634493
  vertex 0.00755028566 0.0213302765 0.0109651377
  vertex 0.00740580633 0.00146729418 0.0109651377
  endloop
 endfacet

 facet normal -0.00294422545 0.000370872527 0.999995649
  outer loop
  vertex -0.00807300117 0.0102521051 0.0109651377
  vertex -0.00667752745 0.0213302765 0.0109651377
  vertex -0.00784746651 0.0165948253 0.0109634493
  endloop
 endfacet

 facet normal -0.476340592 0.117373928 0.871391416
  outer loop
  vertex -0.00784746651 0.0165948253 0.0109634493
  vertex -0.00667752745 0.0213302765 0.0109651377
  vertex -0.00784746651 0.0172089469 0.0108807292
  endloop
 endfacet

 facet normal -0.870381594 0.238253772 0.430895448
  outer loop
  vertex -0.00784746651 0.0172089469 0.0108807292
  vertex -0.00667752745 0.0213302765 0.0109651377
  vertex -0.00784746651 0.018485168 0.0101750717
  endloop
 endfacet

 facet normal -0.972970366 0.153473735 0.17255348
  outer loop
  vertex -0.00784746651 0.018485168 0.0101750717
  vertex -0.00784923043 0.0190225244 0.00968718994
  vertex -0.00784923043 0.0188498013 0.00984081347
  endloop
 endfacet

 facet normal -0.905024946 0.284295321 0.316395521
  outer loop
  vertex -0.00784746651 0.018485168 0.0101750717
  vertex -0.00667752745 0.0213302765 0.0109651377
  vertex -0.00784923043 0.0190225244 0.00968718994
  endloop
 endfacet

 facet normal -0.907270133 0.294268131 0.300444901
  outer loop
  vertex -0.00784923043 0.0190225244 0.00968718994
  vertex -0.00667752745 0.0213302765 0.0109651377
  vertex -0.00784923043 0.0196654312 0.0090575004
  endloop
 endfacet

 facet normal -0.906959713 0.302796423 0.292811334
  outer loop
  vertex -0.00784923043 0.0196654312 0.0090575004
  vertex -0.00667752745 0.0213302765 0.0109651377
  vertex -0.00784923043 0.0202939454 0.00840755273
  endloop
 endfacet

 facet normal -0.890002728 0.37837258 0.254419476
  outer loop
  vertex -0.00784923043 0.0202939454 0.00840755273
  vertex -0.00667752745 0.0213302765 0.0109651377
  vertex -0.00784923043 0.0206537824 0.00787240174
  endloop
 endfacet

 facet normal -0.811193168 0.554388881 0.186060905
  outer loop
  vertex -0.00784923043 0.0206537824 0.00787240174
  vertex -0.00667752745 0.0213302765 0.0109651377
  vertex -0.00784923043 0.0211047772 0.00652861409
  endloop
 endfacet

 facet normal -0.280826718 0.959422231 0.0254021995
  outer loop
  vertex -0.00784923043 0.0211047772 0.00652861409
  vertex -0.00667752745 0.0213302765 0.0109651377
  vertex -0.00681496132 0.0213302765 0.00944578089
  endloop
 endfacet

 facet normal -0.274047017 0.961445034 0.0228421278
  outer loop
  vertex -0.00784923043 0.0211047772 0.00652861409
  vertex -0.00681496132 0.0213302765 0.00944578089
  vertex -0.00705811009 0.0213302765 0.00652861409
  endloop
 endfacet

 facet normal -0.274052501 0.961464286 0.0219471212
  outer loop
  vertex -0.00784923043 0.0211047772 0.00652861409
  vertex -0.00705811009 0.0213302765 0.00652861409
  vertex -0.00784923043 0.0211335644 0.00526754791
  endloop
 endfacet

 facet normal -0.25955525 0.965651333 0.0121992379
  outer loop
  vertex -0.00784923043 0.0211335644 0.00526754791
  vertex -0.00705811009 0.0213302765 0.00652861409
  vertex -0.00711801602 0.0213302765 0.00525404233
  endloop
 endfacet

 facet normal 0.995735884 0.0846016854 0.0367779732
  outer loop
  vertex 0.00835902616 0.0213302765 -0.00539158843
  vertex 0.00777757959 0.0213302765 0.0103506418
  vertex 0.0097809257 -0.00251489738 0.0109634493
  endloop
 endfacet

 facet normal 0.998226821 0.0595247671 0
  outer loop
  vertex 0.00835902616 0.0213302765 -0.00539158843
  vertex 0.0097809257 -0.00251489738 0.0109634493
  vertex 0.0097809257 -0.00251489738 0.010853718
  endloop
 endfacet

 facet normal 0.934309244 0.0873771906 0.345588565
  outer loop
  vertex 0.0097809257 -0.00251489738 0.0109634493
  vertex 0.00777757959 0.0213302765 0.0103506418
  vertex 0.00755028566 0.0213302765 0.0109651377
  endloop
 endfacet

endsolid AssimpScene
