solid AssimpScene
 facet normal -1 0 0
  outer loop
  vertex -0.0745603144 0.0145414844 -0.00299999979
  vertex -0.0745603144 0.0145414844 0.0149999997
  vertex -0.0745603144 0.0218309797 0.0149999997
  endloop
 endfacet

 facet normal -1 0 0
  outer loop
  vertex -0.0745603144 0.0145414844 -0.00299999979
  vertex -0.0745603144 0.0218309797 0.0149999997
  vertex -0.0745603144 0.0218309797 -0.00299999979
  endloop
 endfacet

 facet normal 0 0 -1
  outer loop
  vertex -0.0745603144 0.0145414844 -0.00299999979
  vertex -0.0745603144 0.0218309797 -0.00299999979
  vertex -0.0338764973 0.0126341088 -0.00299999979
  endloop
 endfacet

 facet normal 0 0 -1
  outer loop
  vertex -0.0745603144 0.0145414844 -0.00299999979
  vertex -0.0338764973 0.0126341088 -0.00299999979
  vertex -0.0338764973 0.00610756362 -0.00299999979
  endloop
 endfacet

 facet normal 0 0 -1
  outer loop
  vertex -0.0745603144 0.0145414844 -0.00299999979
  vertex -0.0338764973 0.00610756362 -0.00299999979
  vertex -0.0398141965 0.0048901597 -0.00299999979
  endloop
 endfacet

 facet normal 0 0 -1
  outer loop
  vertex -0.0745603144 0.0145414844 -0.00299999979
  vertex -0.0398141965 0.0048901597 -0.00299999979
  vertex -0.0447802022 0.00549886189 -0.00299999979
  endloop
 endfacet

 facet normal -0.290547282 -0.956860662 0
  outer loop
  vertex -0.0745603144 0.0145414844 -0.00299999979
  vertex -0.0447802022 0.00549886189 -0.00299999979
  vertex -0.0447802022 0.00549886189 0.0149999997
  endloop
 endfacet

 facet normal -0.290547282 -0.956860662 0
  outer loop
  vertex -0.0745603144 0.0145414844 -0.00299999979
  vertex -0.0447802022 0.00549886189 0.0149999997
  vertex -0.0745603144 0.0145414844 0.0149999997
  endloop
 endfacet

 facet normal 0 0 1
  outer loop
  vertex -0.0745603144 0.0145414844 0.0149999997
  vertex -0.0447802022 0.00549886189 0.0149999997
  vertex -0.0398141965 0.0048901597 0.0149999997
  endloop
 endfacet

 facet normal 0 0 1
  outer loop
  vertex -0.0745603144 0.0145414844 0.0149999997
  vertex -0.0398141965 0.0048901597 0.0149999997
  vertex -0.0338764973 0.0061092223 0.0149999997
  endloop
 endfacet

 facet normal 0 0 1
  outer loop
  vertex -0.0745603144 0.0145414844 0.0149999997
  vertex -0.0338764973 0.0061092223 0.0149999997
  vertex -0.0338764973 0.0126341088 0.0149999997
  endloop
 endfacet

 facet normal 0 0 1
  outer loop
  vertex -0.0745603144 0.0145414844 0.0149999997
  vertex -0.0338764973 0.0126341088 0.0149999997
  vertex -0.0745603144 0.0218309797 0.0149999997
  endloop
 endfacet

 facet normal 0.220493644 0.975388467 0
  outer loop
  vertex -0.0745603144 0.0218309797 -0.00299999979
  vertex -0.0745603144 0.0218309797 0.0149999997
  vertex -0.0338764973 0.0126341088 0.0149999997
  endloop
 endfacet

 facet normal 0.220493644 0.975388467 0
  outer loop
  vertex -0.0745603144 0.0218309797 -0.00299999979
  vertex -0.0338764973 0.0126341088 0.0149999997
  vertex -0.0338764973 0.0126341088 -0.00299999979
  endloop
 endfacet

 facet normal -0.121663168 -0.992571473 0
  outer loop
  vertex -0.0447802022 0.00549886189 -0.00299999979
  vertex -0.0398141965 0.0048901597 -0.00299999979
  vertex -0.0398141965 0.0048901597 0.0149999997
  endloop
 endfacet

 facet normal -0.121663168 -0.992571473 0
  outer loop
  vertex -0.0447802022 0.00549886189 -0.00299999979
  vertex -0.0398141965 0.0048901597 0.0149999997
  vertex -0.0447802022 0.00549886189 0.0149999997
  endloop
 endfacet

 facet normal 1 0 0
  outer loop
  vertex -0.0338764973 0.0126341088 -0.00299999979
  vertex -0.0338764973 0.0126341088 0.0149999997
  vertex -0.0338764973 0.0061092223 0.0149999997
  endloop
 endfacet

 facet normal 1 0 0
  outer loop
  vertex -0.0338764973 0.0126341088 -0.00299999979
  vertex -0.0338764973 0.0061092223 0.0149999997
  vertex -0.0338764973 0.00610756362 -0.00283437734
  endloop
 endfacet

 facet normal 1 0 0
  outer loop
  vertex -0.0338764973 0.0126341088 -0.00299999979
  vertex -0.0338764973 0.00610756362 -0.00283437734
  vertex -0.0338764973 0.00610756362 -0.00299999979
  endloop
 endfacet

 facet normal 0.200851366 -0.979621768 0
  outer loop
  vertex -0.0398141965 0.0048901597 -0.00299999979
  vertex -0.0338764973 0.00610756362 -0.00299999979
  vertex -0.0338764973 0.00610756362 -0.00283437734
  endloop
 endfacet

 facet normal 0.200851366 -0.979621768 0
  outer loop
  vertex -0.0398141965 0.0048901597 -0.00299999979
  vertex -0.0338764973 0.00610756362 -0.00283437734
  vertex -0.0398141965 0.0048901597 0.0149999997
  endloop
 endfacet

 facet normal 0.201113939 -0.979567885 9.11019015e-05
  outer loop
  vertex -0.0398141965 0.0048901597 0.0149999997
  vertex -0.0338764973 0.00610756362 -0.00283437734
  vertex -0.0338764973 0.0061092223 0.0149999997
  endloop
 endfacet

endsolid AssimpScene
