solid AssimpScene
 facet normal 0 -1 0
  outer loop
  vertex -0.104185656 0.0122087216 0.0059806183
  vertex -0.104025386 0.0122087216 0.0059806183
  vertex -0.104025386 0.0122087216 0.0099784648
  endloop
 endfacet

 facet normal 0 -1 0
  outer loop
  vertex -0.104185656 0.0122087216 0.0059806183
  vertex -0.104025386 0.0122087216 0.0099784648
  vertex -0.104247235 0.0122087216 0.0099784648
  endloop
 endfacet

 facet normal 0 -1 0
  outer loop
  vertex -0.104185656 0.0122087216 0.0059806183
  vertex -0.104247235 0.0122087216 0.0099784648
  vertex -0.104247235 0.0122087216 0.00695849629
  endloop
 endfacet

 facet normal -0.917695701 -0.39305824 -0.0577902608
  outer loop
  vertex -0.104185656 0.0122087216 0.0059806183
  vertex -0.104247235 0.0122087216 0.00695849629
  vertex -0.106603563 0.0178539511 0.0059806183
  endloop
 endfacet

 facet normal -0.916790664 -0.392670602 -0.0728338882
  outer loop
  vertex -0.104185656 0.0122087216 0.0059806183
  vertex -0.106603563 0.0178539511 0.0059806183
  vertex -0.106603563 0.0195197053 -0.00299999979
  endloop
 endfacet

 facet normal -0.538793147 -0.718493223 -0.439851761
  outer loop
  vertex -0.104185656 0.0122087216 0.0059806183
  vertex -0.106603563 0.0195197053 -0.00299999979
  vertex -0.104025386 0.0175863467 -0.00299999979
  endloop
 endfacet

 facet normal 0 -0.857945561 -0.513740718
  outer loop
  vertex -0.104185656 0.0122087216 0.0059806183
  vertex -0.104025386 0.0175863467 -0.00299999979
  vertex -0.104025386 0.0122087216 0.0059806183
  endloop
 endfacet

 facet normal 1 0 0
  outer loop
  vertex -0.104025386 0.0122087216 0.0059806183
  vertex -0.104025386 0.0175863467 -0.00299999979
  vertex -0.104025386 0.0256054271 -0.00299999979
  endloop
 endfacet

 facet normal 1 0 0
  outer loop
  vertex -0.104025386 0.0122087216 0.0059806183
  vertex -0.104025386 0.0256054271 -0.00299999979
  vertex -0.104025386 0.0256054271 0.0149999997
  endloop
 endfacet

 facet normal 1 0 0
  outer loop
  vertex -0.104025386 0.0122087216 0.0059806183
  vertex -0.104025386 0.0256054271 0.0149999997
  vertex -0.104025386 0.0174871236 0.0149999997
  endloop
 endfacet

 facet normal 1 0 0
  outer loop
  vertex -0.104025386 0.0122087216 0.0059806183
  vertex -0.104025386 0.0174871236 0.0149999997
  vertex -0.104025386 0.0122087216 0.0099784648
  endloop
 endfacet

 facet normal -0.921094358 -0.389339566 0
  outer loop
  vertex -0.104247235 0.0122087216 0.00695849629
  vertex -0.104247235 0.0122087216 0.0099784648
  vertex -0.106603563 0.0177832916 0.0099784648
  endloop
 endfacet

 facet normal -0.921094358 -0.389339566 0
  outer loop
  vertex -0.104247235 0.0122087216 0.00695849629
  vertex -0.106603563 0.0177832916 0.0099784648
  vertex -0.106603563 0.0177832916 0.00695849629
  endloop
 endfacet

 facet normal -0.920730054 -0.389185548 -0.0281217322
  outer loop
  vertex -0.104247235 0.0122087216 0.00695849629
  vertex -0.106603563 0.0177832916 0.00695849629
  vertex -0.106603563 0.0178539511 0.0059806183
  endloop
 endfacet

 facet normal -1 0 0
  outer loop
  vertex -0.106603563 0.0178539511 0.0059806183
  vertex -0.106603563 0.0177832916 0.00695849629
  vertex -0.106603563 0.0177832916 0.0099784648
  endloop
 endfacet

 facet normal -1 0 0
  outer loop
  vertex -0.106603563 0.0178539511 0.0059806183
  vertex -0.106603563 0.0177832916 0.0099784648
  vertex -0.106603563 0.0194550604 0.0149999997
  endloop
 endfacet

 facet normal -1 0 0
  outer loop
  vertex -0.106603563 0.0178539511 0.0059806183
  vertex -0.106603563 0.0194550604 0.0149999997
  vertex -0.106603563 0.0251408797 0.0149999997
  endloop
 endfacet

 facet normal -1 0 0
  outer loop
  vertex -0.106603563 0.0178539511 0.0059806183
  vertex -0.106603563 0.0251408797 0.0149999997
  vertex -0.106603563 0.0251408797 -0.00299999979
  endloop
 endfacet

 facet normal -1 0 0
  outer loop
  vertex -0.106603563 0.0178539511 0.0059806183
  vertex -0.106603563 0.0251408797 -0.00299999979
  vertex -0.106603563 0.0195197053 -0.00299999979
  endloop
 endfacet

 facet normal 0 0 -1
  outer loop
  vertex -0.106603563 0.0195197053 -0.00299999979
  vertex -0.106603563 0.0251408797 -0.00299999979
  vertex -0.106412247 0.0257317126 -0.00299999979
  endloop
 endfacet

 facet normal 0 0 -1
  outer loop
  vertex -0.106603563 0.0195197053 -0.00299999979
  vertex -0.106412247 0.0257317126 -0.00299999979
  vertex -0.106371358 0.0258459691 -0.00299999979
  endloop
 endfacet

 facet normal 0 0 -1
  outer loop
  vertex -0.106603563 0.0195197053 -0.00299999979
  vertex -0.106371358 0.0258459691 -0.00299999979
  vertex -0.106289841 0.0260278806 -0.00299999979
  endloop
 endfacet

 facet normal 0 0 -1
  outer loop
  vertex -0.106603563 0.0195197053 -0.00299999979
  vertex -0.106289841 0.0260278806 -0.00299999979
  vertex -0.106174245 0.0262413621 -0.00299999979
  endloop
 endfacet

 facet normal 0 0 -1
  outer loop
  vertex -0.106603563 0.0195197053 -0.00299999979
  vertex -0.106174245 0.0262413621 -0.00299999979
  vertex -0.106001608 0.0265119728 -0.00299999979
  endloop
 endfacet

 facet normal 0 0 -1
  outer loop
  vertex -0.106603563 0.0195197053 -0.00299999979
  vertex -0.106001608 0.0265119728 -0.00299999979
  vertex -0.105763607 0.02683069 -0.00299999979
  endloop
 endfacet

 facet normal 0 0 -1
  outer loop
  vertex -0.106603563 0.0195197053 -0.00299999979
  vertex -0.105763607 0.02683069 -0.00299999979
  vertex -0.105450638 0.0271900017 -0.00299999979
  endloop
 endfacet

 facet normal 0 0 -1
  outer loop
  vertex -0.106603563 0.0195197053 -0.00299999979
  vertex -0.105450638 0.0271900017 -0.00299999979
  vertex -0.105068266 0.0275673512 -0.00299999979
  endloop
 endfacet

 facet normal 0 0 -1
  outer loop
  vertex -0.106603563 0.0195197053 -0.00299999979
  vertex -0.105068266 0.0275673512 -0.00299999979
  vertex -0.104182877 0.0272787008 -0.00299999979
  endloop
 endfacet

 facet normal 0 0 -1
  outer loop
  vertex -0.106603563 0.0195197053 -0.00299999979
  vertex -0.104182877 0.0272787008 -0.00299999979
  vertex -0.104111955 0.0268757921 -0.00299999979
  endloop
 endfacet

 facet normal 0 0 -1
  outer loop
  vertex -0.106603563 0.0195197053 -0.00299999979
  vertex -0.104111955 0.0268757921 -0.00299999979
  vertex -0.104058705 0.026382681 -0.00299999979
  endloop
 endfacet

 facet normal 0 0 -1
  outer loop
  vertex -0.106603563 0.0195197053 -0.00299999979
  vertex -0.104058705 0.026382681 -0.00299999979
  vertex -0.104025386 0.0256054271 -0.00299999979
  endloop
 endfacet

 facet normal 0 0 -1
  outer loop
  vertex -0.106603563 0.0195197053 -0.00299999979
  vertex -0.104025386 0.0256054271 -0.00299999979
  vertex -0.104025386 0.0175863467 -0.00299999979
  endloop
 endfacet

 facet normal 0 -0.689258277 0.724515855
  outer loop
  vertex -0.104025386 0.0122087216 0.0099784648
  vertex -0.104025386 0.0174871236 0.0149999997
  vertex -0.104247235 0.0122087216 0.0099784648
  endloop
 endfacet

 facet normal -0.459489644 -0.601973951 0.653067112
  outer loop
  vertex -0.104247235 0.0122087216 0.0099784648
  vertex -0.104025386 0.0174871236 0.0149999997
  vertex -0.106603563 0.0194550604 0.0149999997
  endloop
 endfacet

 facet normal -0.913452804 -0.386109531 0.128543586
  outer loop
  vertex -0.104247235 0.0122087216 0.0099784648
  vertex -0.106603563 0.0194550604 0.0149999997
  vertex -0.106603563 0.0177832916 0.0099784648
  endloop
 endfacet

 facet normal -0.951367497 0.308058292 0
  outer loop
  vertex -0.106603563 0.0251408797 -0.00299999979
  vertex -0.106603563 0.0251408797 0.0149999997
  vertex -0.106412247 0.0257317126 0.0149999997
  endloop
 endfacet

 facet normal -0.951367497 0.308058292 0
  outer loop
  vertex -0.106603563 0.0251408797 -0.00299999979
  vertex -0.106412247 0.0257317126 0.0149999997
  vertex -0.106412247 0.0257317126 -0.00299999979
  endloop
 endfacet

 facet normal 0.999082446 0.0428292006 0
  outer loop
  vertex -0.104025386 0.0256054271 -0.00299999979
  vertex -0.104058705 0.026382681 -0.00299999979
  vertex -0.104058705 0.026382681 0.0149999997
  endloop
 endfacet

 facet normal 0.999082446 0.0428292006 0
  outer loop
  vertex -0.104025386 0.0256054271 -0.00299999979
  vertex -0.104058705 0.026382681 0.0149999997
  vertex -0.104025386 0.0256054271 0.0149999997
  endloop
 endfacet

 facet normal 0 0 1
  outer loop
  vertex -0.104025386 0.0174871236 0.0149999997
  vertex -0.104025386 0.0256054271 0.0149999997
  vertex -0.104058705 0.026382681 0.0149999997
  endloop
 endfacet

 facet normal 0 0 1
  outer loop
  vertex -0.104025386 0.0174871236 0.0149999997
  vertex -0.104058705 0.026382681 0.0149999997
  vertex -0.104111955 0.0268757921 0.0149999997
  endloop
 endfacet

 facet normal 0 0 1
  outer loop
  vertex -0.104025386 0.0174871236 0.0149999997
  vertex -0.104111955 0.0268757921 0.0149999997
  vertex -0.104182877 0.0272787008 0.0149999997
  endloop
 endfacet

 facet normal 0 0 1
  outer loop
  vertex -0.104025386 0.0174871236 0.0149999997
  vertex -0.104182877 0.0272787008 0.0149999997
  vertex -0.105068266 0.0275673512 0.0149999997
  endloop
 endfacet

 facet normal 0 0 1
  outer loop
  vertex -0.104025386 0.0174871236 0.0149999997
  vertex -0.105068266 0.0275673512 0.0149999997
  vertex -0.105450638 0.0271900017 0.0149999997
  endloop
 endfacet

 facet normal 0 0 1
  outer loop
  vertex -0.104025386 0.0174871236 0.0149999997
  vertex -0.105450638 0.0271900017 0.0149999997
  vertex -0.105763607 0.02683069 0.0149999997
  endloop
 endfacet

 facet normal 0 0 1
  outer loop
  vertex -0.104025386 0.0174871236 0.0149999997
  vertex -0.105763607 0.02683069 0.0149999997
  vertex -0.106001608 0.0265119728 0.0149999997
  endloop
 endfacet

 facet normal 0 0 1
  outer loop
  vertex -0.104025386 0.0174871236 0.0149999997
  vertex -0.106001608 0.0265119728 0.0149999997
  vertex -0.106174245 0.0262413621 0.0149999997
  endloop
 endfacet

 facet normal 0 0 1
  outer loop
  vertex -0.104025386 0.0174871236 0.0149999997
  vertex -0.106174245 0.0262413621 0.0149999997
  vertex -0.106289841 0.0260278806 0.0149999997
  endloop
 endfacet

 facet normal 0 0 1
  outer loop
  vertex -0.104025386 0.0174871236 0.0149999997
  vertex -0.106289841 0.0260278806 0.0149999997
  vertex -0.106371358 0.0258459691 0.0149999997
  endloop
 endfacet

 facet normal 0 0 1
  outer loop
  vertex -0.104025386 0.0174871236 0.0149999997
  vertex -0.106371358 0.0258459691 0.0149999997
  vertex -0.106412247 0.0257317126 0.0149999997
  endloop
 endfacet

 facet normal 0 0 1
  outer loop
  vertex -0.104025386 0.0174871236 0.0149999997
  vertex -0.106412247 0.0257317126 0.0149999997
  vertex -0.106603563 0.0251408797 0.0149999997
  endloop
 endfacet

 facet normal 0 0 1
  outer loop
  vertex -0.104025386 0.0174871236 0.0149999997
  vertex -0.106603563 0.0251408797 0.0149999997
  vertex -0.106603563 0.0194550604 0.0149999997
  endloop
 endfacet

 facet normal -0.94152832 0.336933941 0
  outer loop
  vertex -0.106412247 0.0257317126 -0.00299999979
  vertex -0.106412247 0.0257317126 0.0149999997
  vertex -0.106371358 0.0258459691 0.0149999997
  endloop
 endfacet

 facet normal -0.94152832 0.336933941 0
  outer loop
  vertex -0.106412247 0.0257317126 -0.00299999979
  vertex -0.106371358 0.0258459691 0.0149999997
  vertex -0.106371358 0.0258459691 -0.00299999979
  endloop
 endfacet

 facet normal 0.994218946 0.107372127 0
  outer loop
  vertex -0.104058705 0.026382681 -0.00299999979
  vertex -0.104111955 0.0268757921 -0.00299999979
  vertex -0.104111955 0.0268757921 0.0149999997
  endloop
 endfacet

 facet normal 0.994218946 0.107372127 0
  outer loop
  vertex -0.104058705 0.026382681 -0.00299999979
  vertex -0.104111955 0.0268757921 0.0149999997
  vertex -0.104058705 0.026382681 0.0149999997
  endloop
 endfacet

 facet normal -0.912552536 0.408959597 0
  outer loop
  vertex -0.106371358 0.0258459691 -0.00299999979
  vertex -0.106371358 0.0258459691 0.0149999997
  vertex -0.106289841 0.0260278806 0.0149999997
  endloop
 endfacet

 facet normal -0.912552536 0.408959597 0
  outer loop
  vertex -0.106371358 0.0258459691 -0.00299999979
  vertex -0.106289841 0.0260278806 0.0149999997
  vertex -0.106289841 0.0260278806 -0.00299999979
  endloop
 endfacet

 facet normal 0.984859407 0.173355386 0
  outer loop
  vertex -0.104111955 0.0268757921 -0.00299999979
  vertex -0.104182877 0.0272787008 -0.00299999979
  vertex -0.104182877 0.0272787008 0.0149999997
  endloop
 endfacet

 facet normal 0.984859407 0.173355386 0
  outer loop
  vertex -0.104111955 0.0268757921 -0.00299999979
  vertex -0.104182877 0.0272787008 0.0149999997
  vertex -0.104111955 0.0268757921 0.0149999997
  endloop
 endfacet

 facet normal -0.879366994 0.476144731 0
  outer loop
  vertex -0.106289841 0.0260278806 -0.00299999979
  vertex -0.106289841 0.0260278806 0.0149999997
  vertex -0.106174245 0.0262413621 0.0149999997
  endloop
 endfacet

 facet normal -0.879366994 0.476144731 0
  outer loop
  vertex -0.106289841 0.0260278806 -0.00299999979
  vertex -0.106174245 0.0262413621 0.0149999997
  vertex -0.106174245 0.0262413621 -0.00299999979
  endloop
 endfacet

 facet normal 0.309958696 0.950750053 0
  outer loop
  vertex -0.104182877 0.0272787008 -0.00299999979
  vertex -0.105068266 0.0275673512 -0.00299999979
  vertex -0.105068266 0.0275673512 0.0149999997
  endloop
 endfacet

 facet normal 0.309958696 0.950750053 0
  outer loop
  vertex -0.104182877 0.0272787008 -0.00299999979
  vertex -0.105068266 0.0275673512 0.0149999997
  vertex -0.104182877 0.0272787008 0.0149999997
  endloop
 endfacet

 facet normal -0.843051314 0.537833214 0
  outer loop
  vertex -0.106174245 0.0262413621 -0.00299999979
  vertex -0.106174245 0.0262413621 0.0149999997
  vertex -0.106001608 0.0265119728 0.0149999997
  endloop
 endfacet

 facet normal -0.843051314 0.537833214 0
  outer loop
  vertex -0.106174245 0.0262413621 -0.00299999979
  vertex -0.106001608 0.0265119728 0.0149999997
  vertex -0.106001608 0.0265119728 -0.00299999979
  endloop
 endfacet

 facet normal -0.702416301 0.711766422 0
  outer loop
  vertex -0.105068266 0.0275673512 -0.00299999979
  vertex -0.105450638 0.0271900017 -0.00299999979
  vertex -0.105450638 0.0271900017 0.0149999997
  endloop
 endfacet

 facet normal -0.702416301 0.711766422 0
  outer loop
  vertex -0.105068266 0.0275673512 -0.00299999979
  vertex -0.105450638 0.0271900017 0.0149999997
  vertex -0.105068266 0.0275673512 0.0149999997
  endloop
 endfacet

 facet normal -0.801248491 0.598331809 0
  outer loop
  vertex -0.106001608 0.0265119728 -0.00299999979
  vertex -0.106001608 0.0265119728 0.0149999997
  vertex -0.105763607 0.02683069 0.0149999997
  endloop
 endfacet

 facet normal -0.801248491 0.598331809 0
  outer loop
  vertex -0.106001608 0.0265119728 -0.00299999979
  vertex -0.105763607 0.02683069 0.0149999997
  vertex -0.105763607 0.02683069 -0.00299999979
  endloop
 endfacet

 facet normal -0.754064918 0.656799972 0
  outer loop
  vertex -0.105450638 0.0271900017 -0.00299999979
  vertex -0.105763607 0.02683069 -0.00299999979
  vertex -0.105763607 0.02683069 0.0149999997
  endloop
 endfacet

 facet normal -0.754064918 0.656799972 0
  outer loop
  vertex -0.105450638 0.0271900017 -0.00299999979
  vertex -0.105763607 0.02683069 0.0149999997
  vertex -0.105450638 0.0271900017 0.0149999997
  endloop
 endfacet

endsolid AssimpScene
