solid AssimpScene
 facet normal 0 0.136706859 0.990611553
  outer loop
  vertex -0.00785083044 0.0165960472 0.0109625598
  vertex -0.00785083044 0.017212471 0.0108774919
  vertex -0.00785306841 0.017212471 0.0108774919
  endloop
 endfacet

 facet normal -0.00850988925 0.136671573 0.990579844
  outer loop
  vertex -0.00785083044 0.0165960472 0.0109625598
  vertex -0.00785306841 0.017212471 0.0108774919
  vertex -0.023138281 0.0171388686 0.0107563343
  endloop
 endfacet

 facet normal -0.0100806262 0.0943014324 0.995492637
  outer loop
  vertex -0.00785083044 0.0165960472 0.0109625598
  vertex -0.023138281 0.0171388686 0.0107563343
  vertex -0.0244111121 0.0171388686 0.0107434448
  endloop
 endfacet

 facet normal -0.0113289161 0.05734808 0.998290002
  outer loop
  vertex -0.00785083044 0.0165960472 0.0109625598
  vertex -0.0244111121 0.0171388686 0.0107434448
  vertex -0.023138281 0.0158646163 0.0108310906
  endloop
 endfacet

 facet normal -0.00873121712 0.00275447522 0.999958038
  outer loop
  vertex -0.00785083044 0.0165960472 0.0109625598
  vertex -0.023138281 0.0158646163 0.0108310906
  vertex -0.00800321065 0.0161130279 0.0109625598
  endloop
 endfacet

 facet normal 0 0 1
  outer loop
  vertex -0.00785083044 0.0165960472 0.0109625598
  vertex -0.00800321065 0.0161130279 0.0109625598
  vertex -0.00807492062 0.0158646163 0.0109625598
  endloop
 endfacet

 facet normal 0 0 1
  outer loop
  vertex -0.00785083044 0.0165960472 0.0109625598
  vertex -0.00807492062 0.0158646163 0.0109625598
  vertex -0.00808164291 0.0145903639 0.0109625598
  endloop
 endfacet

 facet normal 0 0 1
  outer loop
  vertex -0.00785083044 0.0165960472 0.0109625598
  vertex -0.00808164291 0.0145903639 0.0109625598
  vertex -0.00808164291 0.0102523863 0.0109625598
  endloop
 endfacet

 facet normal 0 0 1
  outer loop
  vertex -0.00785083044 0.0165960472 0.0109625598
  vertex -0.00808164291 0.0102523863 0.0109625598
  vertex -0.00785083044 0.0102523863 0.0109625598
  endloop
 endfacet

 facet normal 1 0 0
  outer loop
  vertex -0.00785083044 0.0165960472 0.0109625598
  vertex -0.00785083044 0.0102523863 0.0109625598
  vertex -0.00785083044 0.0102523863 -0.0151171954
  endloop
 endfacet

 facet normal 1 0 0
  outer loop
  vertex -0.00785083044 0.0165960472 0.0109625598
  vertex -0.00785083044 0.0102523863 -0.0151171954
  vertex -0.00785083044 0.0102569871 -0.0153672434
  endloop
 endfacet

 facet normal 1 0 0
  outer loop
  vertex -0.00785083044 0.0165960472 0.0109625598
  vertex -0.00785083044 0.0102569871 -0.0153672434
  vertex -0.00785083044 0.0158784185 -0.0153672434
  endloop
 endfacet

 facet normal 1 0 0
  outer loop
  vertex -0.00785083044 0.0165960472 0.0109625598
  vertex -0.00785083044 0.0158784185 -0.0153672434
  vertex -0.00785083044 0.0171388686 -0.0152873313
  endloop
 endfacet

 facet normal 1 0 0
  outer loop
  vertex -0.00785083044 0.0165960472 0.0109625598
  vertex -0.00785083044 0.0171388686 -0.0152873313
  vertex -0.00785083044 0.0181739107 -0.0148542589
  endloop
 endfacet

 facet normal 1 0 0
  outer loop
  vertex -0.00785083044 0.0165960472 0.0109625598
  vertex -0.00785083044 0.0181739107 -0.0148542589
  vertex -0.00785083044 0.0188087374 -0.0142639391
  endloop
 endfacet

 facet normal 1 0 0
  outer loop
  vertex -0.00785083044 0.0165960472 0.0109625598
  vertex -0.00785083044 0.0188087374 -0.0142639391
  vertex -0.00785083044 0.0194481649 -0.013627219
  endloop
 endfacet

 facet normal 1 0 0
  outer loop
  vertex -0.00785083044 0.0165960472 0.0109625598
  vertex -0.00785083044 0.0194481649 -0.013627219
  vertex -0.00785083044 0.0200829897 -0.012987921
  endloop
 endfacet

 facet normal 1 0 0
  outer loop
  vertex -0.00785083044 0.0165960472 0.0109625598
  vertex -0.00785083044 0.0200829897 -0.012987921
  vertex -0.00785083044 0.0206626132 -0.012348623
  endloop
 endfacet

 facet normal 1 0 0
  outer loop
  vertex -0.00785083044 0.0165960472 0.0109625598
  vertex -0.00785083044 0.0206626132 -0.012348623
  vertex -0.00785083044 0.0210674293 -0.0113174962
  endloop
 endfacet

 facet normal 1 0 0
  outer loop
  vertex -0.00785083044 0.0165960472 0.0109625598
  vertex -0.00785083044 0.0210674293 -0.0113174962
  vertex -0.00785083044 0.0211364329 -0.0100440551
  endloop
 endfacet

 facet normal 1 0 0
  outer loop
  vertex -0.00785083044 0.0165960472 0.0109625598
  vertex -0.00785083044 0.0211364329 -0.0100440551
  vertex -0.00785083044 0.0211364329 0.0052526989
  endloop
 endfacet

 facet normal 1 0 0
  outer loop
  vertex -0.00785083044 0.0165960472 0.0109625598
  vertex -0.00785083044 0.0211364329 0.0052526989
  vertex -0.00785083044 0.0211042315 0.00652871793
  endloop
 endfacet

 facet normal 1 0 0
  outer loop
  vertex -0.00785083044 0.0165960472 0.0109625598
  vertex -0.00785083044 0.0211042315 0.00652871793
  vertex -0.00785083044 0.0206580125 0.00787175912
  endloop
 endfacet

 facet normal 1 0 0
  outer loop
  vertex -0.00785083044 0.0165960472 0.0109625598
  vertex -0.00785083044 0.0206580125 0.00787175912
  vertex -0.00785083044 0.0202945992 0.00840536691
  endloop
 endfacet

 facet normal 1 0 0
  outer loop
  vertex -0.00785083044 0.0165960472 0.0109625598
  vertex -0.00785083044 0.0202945992 0.00840536691
  vertex -0.00785083044 0.0196183696 0.00910653267
  endloop
 endfacet

 facet normal 1 0 0
  outer loop
  vertex -0.00785083044 0.0165960472 0.0109625598
  vertex -0.00785083044 0.0196183696 0.00910653267
  vertex -0.00785083044 0.0190203469 0.00968396291
  endloop
 endfacet

 facet normal 1 0 0
  outer loop
  vertex -0.00785083044 0.0165960472 0.0109625598
  vertex -0.00785083044 0.0190203469 0.00968396291
  vertex -0.00785083044 0.0184821226 0.0101737482
  endloop
 endfacet

 facet normal 1 0 0
  outer loop
  vertex -0.00785083044 0.0165960472 0.0109625598
  vertex -0.00785083044 0.0184821226 0.0101737482
  vertex -0.00785083044 0.0172400735 0.0108646024
  endloop
 endfacet

 facet normal 1 0 0
  outer loop
  vertex -0.00785083044 0.0165960472 0.0109625598
  vertex -0.00785083044 0.0172400735 0.0108646024
  vertex -0.00785083044 0.017212471 0.0108774919
  endloop
 endfacet

 facet normal 0 0.423100561 0.906082749
  outer loop
  vertex -0.00785083044 0.017212471 0.0108774919
  vertex -0.00785083044 0.0172400735 0.0108646024
  vertex -0.00785306841 0.017212471 0.0108774919
  endloop
 endfacet

 facet normal -0.00921023451 0.415517151 0.909538746
  outer loop
  vertex -0.00785306841 0.017212471 0.0108774919
  vertex -0.0244111121 0.0171388686 0.0107434448
  vertex -0.023138281 0.0171388686 0.0107563343
  endloop
 endfacet

 facet normal -0.00904821791 0.42368561 0.905764103
  outer loop
  vertex -0.00785306841 0.017212471 0.0108774919
  vertex -0.00785083044 0.0172400735 0.0108646024
  vertex -0.0244111121 0.0183027163 0.0102021042
  endloop
 endfacet

 facet normal -0.00921466108 0.421723694 0.906677663
  outer loop
  vertex -0.00785306841 0.017212471 0.0108774919
  vertex -0.0244111121 0.0183027163 0.0102021042
  vertex -0.0244111121 0.0171388686 0.0107434448
  endloop
 endfacet

 facet normal -0.238796279 0.409540415 0.880484521
  outer loop
  vertex -0.0244111121 0.0171388686 0.0107434448
  vertex -0.0244111121 0.0183027163 0.0102021042
  vertex -0.0253097136 0.0181279089 0.0100397021
  endloop
 endfacet

 facet normal -0.436196268 0.223844454 0.871565521
  outer loop
  vertex -0.0244111121 0.0171388686 0.0107434448
  vertex -0.0253097136 0.0181279089 0.0100397021
  vertex -0.0254464112 0.0171388686 0.0102253044
  endloop
 endfacet

 facet normal -0.447131753 0.0433771424 0.893415689
  outer loop
  vertex -0.0244111121 0.0171388686 0.0107434448
  vertex -0.0254464112 0.0171388686 0.0102253044
  vertex -0.0244111121 0.0158646163 0.0108053125
  endloop
 endfacet

 facet normal -0.0202245712 0.0484849773 0.998619199
  outer loop
  vertex -0.0244111121 0.0171388686 0.0107434448
  vertex -0.0244111121 0.0158646163 0.0108053125
  vertex -0.023138281 0.0158646163 0.0108310906
  endloop
 endfacet

 facet normal -0.00872736517 0.00251935911 0.999958694
  outer loop
  vertex -0.023138281 0.0158646163 0.0108310906
  vertex -0.00807492062 0.0158646163 0.0109625598
  vertex -0.00800321065 0.0161130279 0.0109625598
  endloop
 endfacet

 facet normal -0.020248346 0.00202111714 0.999792993
  outer loop
  vertex -0.023138281 0.0158646163 0.0108310906
  vertex -0.0244111121 0.0158646163 0.0108053125
  vertex -0.0244111121 0.00311289332 0.0108310906
  endloop
 endfacet

 facet normal -0.00872738939 0.000871136668 0.999961555
  outer loop
  vertex -0.023138281 0.0158646163 0.0108310906
  vertex -0.0244111121 0.00311289332 0.0108310906
  vertex -0.00807492062 0.0158646163 0.0109625598
  endloop
 endfacet

 facet normal 0 -0.00164403347 0.999998569
  outer loop
  vertex -0.00785083044 0.0102523863 0.0109625598
  vertex -0.00808164291 0.0102523863 0.0109625598
  vertex -0.00822282024 -0.0211071 0.0109110037
  endloop
 endfacet

 facet normal 0.198495537 -0.00396588678 0.980093718
  outer loop
  vertex -0.00785083044 0.0102523863 0.0109625598
  vertex -0.00822282024 -0.0211071 0.0109110037
  vertex -0.00822282024 -0.0223813523 0.010905847
  endloop
 endfacet

 facet normal 0.997078717 -0.011496868 0.0755120516
  outer loop
  vertex -0.00785083044 0.0102523863 0.0109625598
  vertex -0.00822282024 -0.0223813523 0.010905847
  vertex -0.00822282024 -0.0236004014 0.0107202446
  endloop
 endfacet

 facet normal 0.99971664 -0.01113596 0.0210415777
  outer loop
  vertex -0.00785083044 0.0102523863 0.0109625598
  vertex -0.00822282024 -0.0236004014 0.0107202446
  vertex -0.00822282024 -0.0239316169 0.0105449529
  endloop
 endfacet

 facet normal 0.999754786 -0.0111132907 0.0191520117
  outer loop
  vertex -0.00785083044 0.0102523863 0.0109625598
  vertex -0.00822282024 -0.0239316169 0.0105449529
  vertex -0.00822282024 -0.0247090477 0.0100938352
  endloop
 endfacet

 facet normal 0.999905527 -0.0108486162 0.00843574665
  outer loop
  vertex -0.00785083044 0.0102523863 0.0109625598
  vertex -0.00822282024 -0.0247090477 0.0100938352
  vertex -0.00822282024 -0.0253484752 0.00927151274
  endloop
 endfacet

 facet normal 0.99992609 -0.0107203824 0.00573154632
  outer loop
  vertex -0.00785083044 0.0102523863 0.0109625598
  vertex -0.00822282024 -0.0253484752 0.00927151274
  vertex -0.00822282024 -0.0256888904 0.00863479264
  endloop
 endfacet

 facet normal 0.999943614 -0.0104658064 0.00179805257
  outer loop
  vertex -0.00785083044 0.0102523863 0.0109625598
  vertex -0.00822282024 -0.0256888904 0.00863479264
  vertex -0.00822282024 -0.0258314963 0.00780473556
  endloop
 endfacet

 facet normal 0.999946594 -0.010328033 0.00022338063
  outer loop
  vertex -0.00785083044 0.0102523863 0.0109625598
  vertex -0.00822282024 -0.0258314963 0.00780473556
  vertex -0.00822282024 -0.0258590952 0.00652871793
  endloop
 endfacet

 facet normal 0.999947011 -0.0103006102 0
  outer loop
  vertex -0.00785083044 0.0102523863 0.0109625598
  vertex -0.00822282024 -0.0258590952 0.00652871793
  vertex -0.00822282024 -0.0258590952 -0.0113149183
  endloop
 endfacet

 facet normal 0.999947011 -0.0103006102 0
  outer loop
  vertex -0.00785083044 0.0102523863 0.0109625598
  vertex -0.00822282024 -0.0258590952 -0.0113149183
  vertex -0.00785083044 0.0102523863 -0.0151171954
  endloop
 endfacet

 facet normal -0.00376966479 0.486083835 0.873904109
  outer loop
  vertex -0.00785083044 0.0172400735 0.0108646024
  vertex -0.00785083044 0.0184821226 0.0101737482
  vertex -0.0244111121 0.0183027163 0.0102021042
  endloop
 endfacet

 facet normal -0.0060249446 0.673030317 0.739590466
  outer loop
  vertex -0.0244111121 0.0183027163 0.0102021042
  vertex -0.00785083044 0.0184821226 0.0101737482
  vertex -0.00785083044 0.0190203469 0.00968396291
  endloop
 endfacet

 facet normal -0.0071678618 0.68880564 0.724910617
  outer loop
  vertex -0.0244111121 0.0183027163 0.0102021042
  vertex -0.00785083044 0.0190203469 0.00968396291
  vertex -0.0244111121 0.018937543 0.00959889498
  endloop
 endfacet

 facet normal -0.256169528 0.665838599 0.700739741
  outer loop
  vertex -0.0244111121 0.0183027163 0.0102021042
  vertex -0.0244111121 0.018937543 0.00959889498
  vertex -0.0253097136 0.0181279089 0.0100397021
  endloop
 endfacet

 facet normal -0.271300822 0.674789548 0.686334431
  outer loop
  vertex -0.0253097136 0.0181279089 0.0100397021
  vertex -0.0244111121 0.018937543 0.00959889498
  vertex -0.0253097136 0.0194021612 0.00878688321
  endloop
 endfacet

 facet normal -0.868349731 0.347704291 0.353653073
  outer loop
  vertex -0.0253097136 0.0181279089 0.0100397021
  vertex -0.0253097136 0.0194021612 0.00878688321
  vertex -0.0255203582 0.0184959248 0.00916066673
  endloop
 endfacet

 facet normal -0.928838253 0.205181897 0.308479905
  outer loop
  vertex -0.0253097136 0.0181279089 0.0100397021
  vertex -0.0255203582 0.0184959248 0.00916066673
  vertex -0.02584753 0.0171388686 0.00907817669
  endloop
 endfacet

 facet normal -0.926952302 0.188941106 0.324130595
  outer loop
  vertex -0.0253097136 0.0181279089 0.0100397021
  vertex -0.02584753 0.0171388686 0.00907817669
  vertex -0.0254464112 0.0171388686 0.0102253044
  endloop
 endfacet

 facet normal -0.930924535 0.165579706 0.325519562
  outer loop
  vertex -0.0254464112 0.0171388686 0.0102253044
  vertex -0.02584753 0.0171388686 0.00907817669
  vertex -0.030448107 -0.00325836823 0.0062967143
  endloop
 endfacet

 facet normal -0.792773426 0.0779685676 0.604509115
  outer loop
  vertex -0.0254464112 0.0171388686 0.0102253044
  vertex -0.030448107 -0.00325836823 0.0062967143
  vertex -0.0267909523 0.00438714586 0.0101067247
  endloop
 endfacet

 facet normal -0.61111635 0.0570946001 0.789479017
  outer loop
  vertex -0.0254464112 0.0171388686 0.0102253044
  vertex -0.0267909523 0.00438714586 0.0101067247
  vertex -0.0268200859 0.00311289332 0.0101763261
  endloop
 endfacet

 facet normal -0.449550509 0.0409120731 0.892317533
  outer loop
  vertex -0.0254464112 0.0171388686 0.0102253044
  vertex -0.0268200859 0.00311289332 0.0101763261
  vertex -0.0244111121 0.0158646163 0.0108053125
  endloop
 endfacet

 facet normal -0.441381097 0.0391641967 0.896464705
  outer loop
  vertex -0.0244111121 0.0158646163 0.0108053125
  vertex -0.0268200859 0.00311289332 0.0101763261
  vertex -0.0256839469 0.00311289332 0.010735712
  endloop
 endfacet

 facet normal -0.303080291 0.0250528753 0.952635705
  outer loop
  vertex -0.0244111121 0.0158646163 0.0108053125
  vertex -0.0256839469 0.00311289332 0.010735712
  vertex -0.0256839469 0.00183864089 0.0107692229
  endloop
 endfacet

 facet normal -0.0505650118 0.00201894529 0.998718739
  outer loop
  vertex -0.0244111121 0.0158646163 0.0108053125
  vertex -0.0256839469 0.00183864089 0.0107692229
  vertex -0.0244111121 0.00311289332 0.0108310906
  endloop
 endfacet

 facet normal -0.00808072276 4.26334955e-05 0.999967337
  outer loop
  vertex -0.00807492062 0.0158646163 0.0109625598
  vertex -0.0244111121 0.00311289332 0.0108310906
  vertex -0.00808164291 0.0145903639 0.0109625598
  endloop
 endfacet

 facet normal -0.0485604629 1.16943766e-05 0.998820245
  outer loop
  vertex -0.0244111121 0.00311289332 0.0108310906
  vertex -0.0256839469 0.00183864089 0.0107692229
  vertex -0.0244133547 -0.00619788794 0.0108310906
  endloop
 endfacet

 facet normal -0.00805212185 1.93911978e-06 0.999967575
  outer loop
  vertex -0.0244111121 0.00311289332 0.0108310906
  vertex -0.0244133547 -0.00619788794 0.0108310906
  vertex -0.00808164291 0.0145903639 0.0109625598
  endloop
 endfacet

 facet normal 0.999946773 -0.0103205992 -0.000189877508
  outer loop
  vertex -0.00785083044 0.0102523863 -0.0151171954
  vertex -0.00822282024 -0.0258590952 -0.0113149183
  vertex -0.00785083044 0.0102569871 -0.0153672434
  endloop
 endfacet

 facet normal -0.00804965384 0 0.999967575
  outer loop
  vertex -0.00808164291 0.0102523863 0.0109625598
  vertex -0.00808164291 0.0145903639 0.0109625598
  vertex -0.0244133547 -0.00619788794 0.0108310906
  endloop
 endfacet

 facet normal -0.00804965384 0 0.999967575
  outer loop
  vertex -0.00808164291 0.0102523863 0.0109625598
  vertex -0.0244133547 -0.00619788794 0.0108310906
  vertex -0.0244133547 -0.0223813523 0.0108310906
  endloop
 endfacet

 facet normal -0.00480801985 -0.00162236951 0.999987125
  outer loop
  vertex -0.00808164291 0.0102523863 0.0109625598
  vertex -0.0244133547 -0.0223813523 0.0108310906
  vertex -0.00822282024 -0.0211071 0.0109110037
  endloop
 endfacet

 facet normal -0.00461721327 -0.0040463605 0.999981105
  outer loop
  vertex -0.00822282024 -0.0211071 0.0109110037
  vertex -0.0244133547 -0.0223813523 0.0108310906
  vertex -0.00822282024 -0.0223813523 0.010905847
  endloop
 endfacet

 facet normal -0.00457068067 -0.141671717 0.989903152
  outer loop
  vertex -0.00822282024 -0.0223813523 0.010905847
  vertex -0.0244133547 -0.0223813523 0.0108310906
  vertex -0.0244133547 -0.0236602034 0.0106480652
  endloop
 endfacet

 facet normal -0.00385131105 -0.150516421 0.988600016
  outer loop
  vertex -0.00822282024 -0.0223813523 0.010905847
  vertex -0.0244133547 -0.0236602034 0.0106480652
  vertex -0.00822282024 -0.0236004014 0.0107202446
  endloop
 endfacet

 facet normal -0.00221250392 -0.467765242 0.883850038
  outer loop
  vertex -0.00822282024 -0.0236004014 0.0107202446
  vertex -0.0244133547 -0.0236602034 0.0106480652
  vertex -0.00822282024 -0.0239316169 0.0105449529
  endloop
 endfacet

 facet normal -0.00223531155 -0.468897671 0.8832497
  outer loop
  vertex -0.00822282024 -0.0239316169 0.0105449529
  vertex -0.0244133547 -0.0236602034 0.0106480652
  vertex -0.0244133547 -0.0247090477 0.0100912582
  endloop
 endfacet

 facet normal -0.000137701412 -0.501891196 0.864930749
  outer loop
  vertex -0.00822282024 -0.0239316169 0.0105449529
  vertex -0.0244133547 -0.0247090477 0.0100912582
  vertex -0.00822282024 -0.0247090477 0.0100938352
  endloop
 endfacet

 facet normal -9.77275922e-05 -0.789425075 0.613846958
  outer loop
  vertex -0.00822282024 -0.0247090477 0.0100938352
  vertex -0.0244133547 -0.0247090477 0.0100912582
  vertex -0.00822282024 -0.0253484752 0.00927151274
  endloop
 endfacet

 facet normal -0.00242120959 -0.811117887 0.58487767
  outer loop
  vertex -0.00822282024 -0.0253484752 0.00927151274
  vertex -0.0244133547 -0.0247090477 0.0100912582
  vertex -0.0244133547 -0.0253484752 0.00920448918
  endloop
 endfacet

 facet normal -0.0019517967 -0.881872356 0.471484274
  outer loop
  vertex -0.00822282024 -0.0253484752 0.00927151274
  vertex -0.0244133547 -0.0253484752 0.00920448918
  vertex -0.00822282024 -0.0256888904 0.00863479264
  endloop
 endfacet

 facet normal -0.00585113419 -0.922837496 0.385145128
  outer loop
  vertex -0.00822282024 -0.0256888904 0.00863479264
  vertex -0.0244133547 -0.0253484752 0.00920448918
  vertex -0.0244133547 -0.0256152861 0.00856519118
  endloop
 endfacet

 facet normal -0.00520841917 -0.985547483 0.169319615
  outer loop
  vertex -0.00822282024 -0.0256888904 0.00863479264
  vertex -0.0244133547 -0.0256152861 0.00856519118
  vertex -0.00822282024 -0.0258314963 0.00780473556
  endloop
 endfacet

 facet normal -0.0104932962 -0.998120546 0.0603762977
  outer loop
  vertex -0.00822282024 -0.0258314963 0.00780473556
  vertex -0.0244133547 -0.0256152861 0.00856519118
  vertex -0.0244133547 -0.025661286 0.00780473556
  endloop
 endfacet

 facet normal -0.0105100172 -0.999711096 0.0216223281
  outer loop
  vertex -0.00822282024 -0.0258314963 0.00780473556
  vertex -0.0244133547 -0.025661286 0.00780473556
  vertex -0.00822282024 -0.0258590952 0.00652871793
  endloop
 endfacet

 facet normal -0.0113637242 -0.999876916 0.0108159361
  outer loop
  vertex -0.00822282024 -0.0258590952 0.00652871793
  vertex -0.0244133547 -0.025661286 0.00780473556
  vertex -0.0244133547 -0.0256750882 0.00652871793
  endloop
 endfacet

 facet normal -0.0113643873 -0.999935389 0
  outer loop
  vertex -0.00822282024 -0.0258590952 0.00652871793
  vertex -0.0244133547 -0.0256750882 0.00652871793
  vertex -0.0244133547 -0.0256750882 -0.0113149183
  endloop
 endfacet

 facet normal -0.0113643873 -0.999935389 0
  outer loop
  vertex -0.00822282024 -0.0258590952 0.00652871793
  vertex -0.0244133547 -0.0256750882 -0.0113149183
  vertex -0.00822282024 -0.0258590952 -0.0113149183
  endloop
 endfacet

 facet normal -0.0071683242 0.694594264 0.719366074
  outer loop
  vertex -0.00785083044 0.0190203469 0.00968396291
  vertex -0.00785083044 0.0196183696 0.00910653267
  vertex -0.0244111121 0.018937543 0.00959889498
  endloop
 endfacet

 facet normal -0.00783910323 0.70414567 0.710012376
  outer loop
  vertex -0.0244111121 0.018937543 0.00959889498
  vertex -0.00785083044 0.0196183696 0.00910653267
  vertex -0.0244111121 0.0195769686 0.00896475278
  endloop
 endfacet

 facet normal -0.267419696 0.678521574 0.684174895
  outer loop
  vertex -0.0244111121 0.018937543 0.00959889498
  vertex -0.0244111121 0.0195769686 0.00896475278
  vertex -0.0253097136 0.0194021612 0.00878688321
  endloop
 endfacet

 facet normal -0.267416924 0.679907918 0.682798266
  outer loop
  vertex -0.0253097136 0.0194021612 0.00878688321
  vertex -0.0244111121 0.0195769686 0.00896475278
  vertex -0.0244111121 0.0202163961 0.00832803268
  endloop
 endfacet

 facet normal -0.300994158 0.698218346 0.64953351
  outer loop
  vertex -0.0253097136 0.0194021612 0.00878688321
  vertex -0.0244111121 0.0202163961 0.00832803268
  vertex -0.0253097136 0.0205844101 0.00751602091
  endloop
 endfacet

 facet normal -0.85354346 0.381477535 0.354878128
  outer loop
  vertex -0.0253097136 0.0194021612 0.00878688321
  vertex -0.0253097136 0.0205844101 0.00751602091
  vertex -0.0255203582 0.0197701771 0.00788464863
  endloop
 endfacet

 facet normal -0.873046041 0.345050812 0.3445732
  outer loop
  vertex -0.0253097136 0.0194021612 0.00878688321
  vertex -0.0255203582 0.0197701771 0.00788464863
  vertex -0.0255203582 0.0184959248 0.00916066673
  endloop
 endfacet

 facet normal -0.942579687 0.236324102 0.235996991
  outer loop
  vertex -0.0255203582 0.0184959248 0.00916066673
  vertex -0.0255203582 0.0197701771 0.00788464863
  vertex -0.0297130924 0.0120418603 -0.00112223742
  endloop
 endfacet

 facet normal -0.944060147 0.215285823 0.249805287
  outer loop
  vertex -0.0255203582 0.0184959248 0.00916066673
  vertex -0.0297130924 0.0120418603 -0.00112223742
  vertex -0.0296660326 0.010767607 0.000153781264
  endloop
 endfacet

 facet normal -0.9440552 0.212259442 0.252399743
  outer loop
  vertex -0.0255203582 0.0184959248 0.00916066673
  vertex -0.0296660326 0.010767607 0.000153781264
  vertex -0.02584753 0.0171388686 0.00907817669
  endloop
 endfacet

 facet normal -0.944190979 0.174897715 0.279130965
  outer loop
  vertex -0.02584753 0.0171388686 0.00907817669
  vertex -0.0296660326 0.010767607 0.000153781264
  vertex -0.030448107 -0.00325836823 0.0062967143
  endloop
 endfacet

 facet normal -0.96660316 -0.0359234735 0.253747523
  outer loop
  vertex -0.030448107 -0.00325836823 0.0062967143
  vertex -0.0307214987 -0.00325836823 0.0052552768
  vertex -0.0304122549 -0.00453262078 0.00625289092
  endloop
 endfacet

 facet normal -0.828312159 -0.0425185077 0.558651149
  outer loop
  vertex -0.030448107 -0.00325836823 0.0062967143
  vertex -0.0304122549 -0.00453262078 0.00625289092
  vertex -0.0268290471 -0.0223813523 0.01020726
  endloop
 endfacet

 facet normal -0.734272242 -0.000140224496 0.678855121
  outer loop
  vertex -0.030448107 -0.00325836823 0.0062967143
  vertex -0.0268290471 -0.0223813523 0.01020726
  vertex -0.0268312879 0.00183864089 0.0102098379
  endloop
 endfacet

 facet normal -0.749532878 0.0239878781 0.661532342
  outer loop
  vertex -0.030448107 -0.00325836823 0.0062967143
  vertex -0.0268312879 0.00183864089 0.0102098379
  vertex -0.0268200859 0.00311289332 0.0101763261
  endloop
 endfacet

 facet normal -0.770803452 0.0523035191 0.634922445
  outer loop
  vertex -0.030448107 -0.00325836823 0.0062967143
  vertex -0.0268200859 0.00311289332 0.0101763261
  vertex -0.0267909523 0.00438714586 0.0101067247
  endloop
 endfacet

 facet normal -0.954303026 0.16293022 0.250518501
  outer loop
  vertex -0.030448107 -0.00325836823 0.0062967143
  vertex -0.0296660326 0.010767607 0.000153781264
  vertex -0.0307214987 -0.00325836823 0.0052552768
  endloop
 endfacet

 facet normal -0.441553295 0.027467778 0.896814466
  outer loop
  vertex -0.0268200859 0.00311289332 0.0101763261
  vertex -0.0268312879 0.00183864089 0.0102098379
  vertex -0.0256839469 0.00311289332 0.010735712
  endloop
 endfacet

 facet normal -0.438115358 0.0236320309 0.898608088
  outer loop
  vertex -0.0256839469 0.00311289332 0.010735712
  vertex -0.0268312879 0.00183864089 0.0102098379
  vertex -0.0256839469 0.00183864089 0.0107692229
  endloop
 endfacet

 facet normal -0.438237756 -5.51589146e-05 0.898859143
  outer loop
  vertex -0.0256839469 0.00183864089 0.0107692229
  vertex -0.0268312879 0.00183864089 0.0102098379
  vertex -0.0256861858 -0.0223813523 0.0107666459
  endloop
 endfacet

 facet normal -0.0505665652 -0.000101615573 0.998720646
  outer loop
  vertex -0.0256839469 0.00183864089 0.0107692229
  vertex -0.0256861858 -0.0223813523 0.0107666459
  vertex -0.0244133547 -0.0223813523 0.0108310906
  endloop
 endfacet

 facet normal -0.0486342534 0 0.998816669
  outer loop
  vertex -0.0256839469 0.00183864089 0.0107692229
  vertex -0.0244133547 -0.0223813523 0.0108310906
  vertex -0.0244133547 -0.00619788794 0.0108310906
  endloop
 endfacet

 facet normal 0.999946535 -0.0103409896 -0.000371619564
  outer loop
  vertex -0.00785083044 0.0102569871 -0.0153672434
  vertex -0.00822282024 -0.0258590952 -0.0113149183
  vertex -0.00822282024 -0.025845293 -0.0116990125
  endloop
 endfacet

 facet normal 0.999946237 -0.0103573445 -0.000532628561
  outer loop
  vertex -0.00785083044 0.0102569871 -0.0153672434
  vertex -0.00822282024 -0.025845293 -0.0116990125
  vertex -0.00822282024 -0.0257992931 -0.0125935143
  endloop
 endfacet

 facet normal 0.999945998 -0.0103711393 -0.000711959088
  outer loop
  vertex -0.00785083044 0.0102569871 -0.0153672434
  vertex -0.00822282024 -0.0257992931 -0.0125935143
  vertex -0.00822282024 -0.025785489 -0.0127945831
  endloop
 endfacet

 facet normal 0.999942243 -0.010489651 -0.00237282901
  outer loop
  vertex -0.00785083044 0.0102569871 -0.0153672434
  vertex -0.00822282024 -0.025785489 -0.0127945831
  vertex -0.00822282024 -0.025661286 -0.0133436583
  endloop
 endfacet

 facet normal 0.999923587 -0.0107048154 -0.00619539758
  outer loop
  vertex -0.00785083044 0.0102569871 -0.0153672434
  vertex -0.00822282024 -0.025661286 -0.0133436583
  vertex -0.00822282024 -0.0255508833 -0.0135344174
  endloop
 endfacet

 facet normal 0.999913692 -0.0107721323 -0.00751254987
  outer loop
  vertex -0.00785083044 0.0102569871 -0.0153672434
  vertex -0.00822282024 -0.0255508833 -0.0135344174
  vertex -0.00822282024 -0.0252380688 -0.0139829563
  endloop
 endfacet

 facet normal 0.999906242 -0.0108071286 -0.00841189921
  outer loop
  vertex -0.00785083044 0.0102569871 -0.0153672434
  vertex -0.00822282024 -0.0252380688 -0.0139829563
  vertex -0.00822282024 -0.0250494592 -0.0142252715
  endloop
 endfacet

 facet normal 0.999902427 -0.010820779 -0.00883518811
  outer loop
  vertex -0.00785083044 0.0102569871 -0.0153672434
  vertex -0.00822282024 -0.0250494592 -0.0142252715
  vertex -0.00822282024 -0.0246032439 -0.0147717679
  endloop
 endfacet

 facet normal 0.999621749 -0.0110967336 -0.0251654573
  outer loop
  vertex -0.00785083044 0.0102569871 -0.0153672434
  vertex -0.00822282024 -0.0246032439 -0.0147717679
  vertex -0.00822282024 -0.0243226346 -0.0148955034
  endloop
 endfacet

 facet normal 0.99961406 -0.0111008026 -0.0254697427
  outer loop
  vertex -0.00785083044 0.0102569871 -0.0153672434
  vertex -0.00822282024 -0.0243226346 -0.0148955034
  vertex -0.00822282024 -0.0236602034 -0.015184219
  endloop
 endfacet

 facet normal 0.99671787 -0.0113641145 -0.0801515207
  outer loop
  vertex -0.00785083044 0.0102569871 -0.0153672434
  vertex -0.00822282024 -0.0236602034 -0.015184219
  vertex -0.00822282024 -0.0232783891 -0.015238354
  endloop
 endfacet

 facet normal 0.995867133 -0.0113929296 -0.090104349
  outer loop
  vertex -0.00785083044 0.0102569871 -0.0153672434
  vertex -0.00822282024 -0.0232783891 -0.015238354
  vertex -0.00822282024 -0.0223813523 -0.015351776
  endloop
 endfacet

 facet normal 0.80939436 -0.00950320996 -0.587188601
  outer loop
  vertex -0.00785083044 0.0102569871 -0.0153672434
  vertex -0.00822282024 -0.0223813523 -0.015351776
  vertex -0.00822282024 -0.0211071 -0.0153723992
  endloop
 endfacet

 facet normal 0.0139916111 -1.59453202e-06 -0.999902189
  outer loop
  vertex -0.00785083044 0.0102569871 -0.0153672434
  vertex -0.00822282024 -0.0211071 -0.0153723992
  vertex -0.00822057761 -0.00143209356 -0.0153723992
  endloop
 endfacet

 facet normal 0.0139412088 0 -0.999902844
  outer loop
  vertex -0.00785083044 0.0102569871 -0.0153672434
  vertex -0.00822057761 -0.00143209356 -0.0153723992
  vertex -0.00822057761 0.0102523863 -0.0153723992
  endloop
 endfacet

 facet normal 0.0139412088 0 -0.999902844
  outer loop
  vertex -0.00785083044 0.0102569871 -0.0153672434
  vertex -0.00822057761 0.0102523863 -0.0153723992
  vertex -0.00785083044 0.0158784185 -0.0153672434
  endloop
 endfacet

 facet normal -0.0113607859 -0.99961853 -0.0251748245
  outer loop
  vertex -0.00822282024 -0.0258590952 -0.0113149183
  vertex -0.0244133547 -0.0256750882 -0.0113149183
  vertex -0.0244133547 -0.0256428868 -0.0125935143
  endloop
 endfacet

 facet normal -0.0105086444 -0.999299824 -0.0359113961
  outer loop
  vertex -0.00822282024 -0.0258590952 -0.0113149183
  vertex -0.0244133547 -0.0256428868 -0.0125935143
  vertex -0.00822282024 -0.025845293 -0.0116990125
  endloop
 endfacet

 facet normal -0.050057821 -0.1414956 0.988672554
  outer loop
  vertex -0.0244133547 -0.0223813523 0.0108310906
  vertex -0.0256861858 -0.0223813523 0.0107666459
  vertex -0.0244133547 -0.0236602034 0.0106480652
  endloop
 endfacet

 facet normal -0.0756623968 -0.166466653 0.983139932
  outer loop
  vertex -0.0244133547 -0.0236602034 0.0106480652
  vertex -0.0256861858 -0.0223813523 0.0107666459
  vertex -0.0256861858 -0.0236602034 0.0105501087
  endloop
 endfacet

 facet normal -0.067818515 -0.467819303 0.881218374
  outer loop
  vertex -0.0244133547 -0.0236602034 0.0106480652
  vertex -0.0256861858 -0.0236602034 0.0105501087
  vertex -0.0244133547 -0.0247090477 0.0100912582
  endloop
 endfacet

 facet normal -0.0861884877 -0.485254616 0.870114684
  outer loop
  vertex -0.0244133547 -0.0247090477 0.0100912582
  vertex -0.0256861858 -0.0236602034 0.0105501087
  vertex -0.0256861858 -0.0246216431 0.010013924
  endloop
 endfacet

 facet normal -0.0908580869 -0.807765365 0.582460284
  outer loop
  vertex -0.0244133547 -0.0247090477 0.0100912582
  vertex -0.0256861858 -0.0246216431 0.010013924
  vertex -0.0244133547 -0.0253484752 0.00920448918
  endloop
 endfacet

 facet normal -0.136054307 -0.833910644 0.534866691
  outer loop
  vertex -0.0244133547 -0.0253484752 0.00920448918
  vertex -0.0256861858 -0.0246216431 0.010013924
  vertex -0.0256368872 -0.0252794717 0.00900084246
  endloop
 endfacet

 facet normal -0.127157599 -0.874761045 0.46757251
  outer loop
  vertex -0.0244133547 -0.0253484752 0.00920448918
  vertex -0.0256368872 -0.0252794717 0.00900084246
  vertex -0.0251752604 -0.025601482 0.00852394663
  endloop
 endfacet

 facet normal -0.037541952 -0.922202706 0.384880215
  outer loop
  vertex -0.0244133547 -0.0253484752 0.00920448918
  vertex -0.0251752604 -0.025601482 0.00852394663
  vertex -0.0244133547 -0.0256152861 0.00856519118
  endloop
 endfacet

 facet normal -0.0213470738 -0.99794805 0.0603658631
  outer loop
  vertex -0.0244133547 -0.0256152861 0.00856519118
  vertex -0.0251752604 -0.025601482 0.00852394663
  vertex -0.0244133547 -0.025661286 0.00780473556
  endloop
 endfacet

 facet normal -0.0487943441 -0.998317778 0.0313199423
  outer loop
  vertex -0.0244133547 -0.025661286 0.00780473556
  vertex -0.0251752604 -0.025601482 0.00852394663
  vertex -0.0252604149 -0.0256198831 0.00780473556
  endloop
 endfacet

 facet normal -0.0488154367 -0.998749375 0.0108037386
  outer loop
  vertex -0.0244133547 -0.025661286 0.00780473556
  vertex -0.0252604149 -0.0256198831 0.00780473556
  vertex -0.0244133547 -0.0256750882 0.00652871793
  endloop
 endfacet

 facet normal -0.0581000671 -0.998300076 0.00462086499
  outer loop
  vertex -0.0244133547 -0.0256750882 0.00652871793
  vertex -0.0252604149 -0.0256198831 0.00780473556
  vertex -0.0252828225 -0.0256244857 0.00652871793
  endloop
 endfacet

 facet normal -0.0581006855 -0.998310745 0
  outer loop
  vertex -0.0244133547 -0.0256750882 0.00652871793
  vertex -0.0252828225 -0.0256244857 0.00652871793
  vertex -0.0252828225 -0.0256244857 -0.0113149183
  endloop
 endfacet

 facet normal -0.0581006855 -0.998310745 0
  outer loop
  vertex -0.0244133547 -0.0256750882 0.00652871793
  vertex -0.0252828225 -0.0256244857 -0.0113149183
  vertex -0.0244133547 -0.0256750882 -0.0113149183
  endloop
 endfacet

 facet normal -0.0066406941 0.719774902 0.694175839
  outer loop
  vertex -0.00785083044 0.0196183696 0.00910653267
  vertex -0.00785083044 0.0202945992 0.00840536691
  vertex -0.0244111121 0.0202163961 0.00832803268
  endloop
 endfacet

 facet normal -0.00783046335 0.705583751 0.708583295
  outer loop
  vertex -0.00785083044 0.0196183696 0.00910653267
  vertex -0.0244111121 0.0202163961 0.00832803268
  vertex -0.0244111121 0.0195769686 0.00896475278
  endloop
 endfacet

 facet normal -0.00659411168 0.789581776 0.61360991
  outer loop
  vertex -0.0244111121 0.0202163961 0.00832803268
  vertex -0.00785083044 0.0202945992 0.00840536691
  vertex -0.0244111121 0.0207132157 0.00768873421
  endloop
 endfacet

 facet normal -0.225184128 0.769319057 0.597863078
  outer loop
  vertex -0.0244111121 0.0202163961 0.00832803268
  vertex -0.0244111121 0.0207132157 0.00768873421
  vertex -0.0253097136 0.0205844101 0.00751602091
  endloop
 endfacet

 facet normal -0.19395265 0.928498447 0.316659153
  outer loop
  vertex -0.0253097136 0.0205844101 0.00751602091
  vertex -0.0244111121 0.0207132157 0.00768873421
  vertex -0.0244111121 0.0211088322 0.00652871793
  endloop
 endfacet

 facet normal -0.348016083 0.921445966 0.172690824
  outer loop
  vertex -0.0253097136 0.0205844101 0.00751602091
  vertex -0.0244111121 0.0211088322 0.00652871793
  vertex -0.0254464112 0.0207178164 0.00652871793
  endloop
 endfacet

 facet normal -0.917597234 0.35679251 0.175255343
  outer loop
  vertex -0.0253097136 0.0205844101 0.00751602091
  vertex -0.0254464112 0.0207178164 0.00652871793
  vertex -0.025845293 0.0196919739 0.00652871793
  endloop
 endfacet

 facet normal -0.922131956 0.329985082 0.201946855
  outer loop
  vertex -0.0253097136 0.0205844101 0.00751602091
  vertex -0.025845293 0.0196919739 0.00652871793
  vertex -0.0255203582 0.0197701771 0.00788464863
  endloop
 endfacet

 facet normal -0.940917611 0.265526503 0.210166246
  outer loop
  vertex -0.0255203582 0.0197701771 0.00788464863
  vertex -0.025845293 0.0196919739 0.00652871793
  vertex -0.0297130924 0.0120418603 -0.00112223742
  endloop
 endfacet

 facet normal -0.930404842 0.344085455 0.126301438
  outer loop
  vertex -0.0297130924 0.0120418603 -0.00112223742
  vertex -0.025845293 0.0196919739 0.00652871793
  vertex -0.0292962845 0.0131689059 -0.00112223742
  endloop
 endfacet

 facet normal -0.937322736 0.346643835 0.0355552621
  outer loop
  vertex -0.0297130924 0.0120418603 -0.00112223742
  vertex -0.0292962845 0.0131689059 -0.00112223742
  vertex -0.0293119717 0.0132563096 -0.00238794484
  endloop
 endfacet

 facet normal -0.94742167 0.319917381 0.00671067741
  outer loop
  vertex -0.0297130924 0.0120418603 -0.00112223742
  vertex -0.0293119717 0.0132563096 -0.00238794484
  vertex -0.0297220573 0.0120418603 -0.00238794484
  endloop
 endfacet

 facet normal -0.997582912 0.0691263527 0.00706597418
  outer loop
  vertex -0.0297130924 0.0120418603 -0.00112223742
  vertex -0.0297220573 0.0120418603 -0.00238794484
  vertex -0.0307371877 -0.00325836823 0.0039766808
  endloop
 endfacet

 facet normal -0.997412682 0.0708385631 0.0122379782
  outer loop
  vertex -0.0297130924 0.0120418603 -0.00112223742
  vertex -0.0307371877 -0.00325836823 0.0039766808
  vertex -0.0307214987 -0.00325836823 0.0052552768
  endloop
 endfacet

 facet normal -0.975743413 0.13586095 0.171658844
  outer loop
  vertex -0.0297130924 0.0120418603 -0.00112223742
  vertex -0.0307214987 -0.00325836823 0.0052552768
  vertex -0.0296660326 0.010767607 0.000153781264
  endloop
 endfacet

 facet normal -0.99853611 -0.0526822768 0.0122517627
  outer loop
  vertex -0.0307214987 -0.00325836823 0.0052552768
  vertex -0.0307371877 -0.00325836823 0.0039766808
  vertex -0.0306542702 -0.00453262078 0.0052552768
  endloop
 endfacet

 facet normal -0.970537186 -0.0512050651 0.235447794
  outer loop
  vertex -0.0307214987 -0.00325836823 0.0052552768
  vertex -0.0306542702 -0.00453262078 0.0052552768
  vertex -0.0304122549 -0.00453262078 0.00625289092
  endloop
 endfacet

 facet normal -0.968738437 -0.0794702321 0.235011429
  outer loop
  vertex -0.0304122549 -0.00453262078 0.00625289092
  vertex -0.0306542702 -0.00453262078 0.0052552768
  vertex -0.0289511848 -0.0194004271 0.0072479276
  endloop
 endfacet

 facet normal -0.908062458 -0.061509002 0.414293736
  outer loop
  vertex -0.0304122549 -0.00453262078 0.00625289092
  vertex -0.0289511848 -0.0194004271 0.0072479276
  vertex -0.0289870389 -0.0185585953 0.00729432888
  endloop
 endfacet

 facet normal -0.828831673 -0.0427983552 0.557858825
  outer loop
  vertex -0.0304122549 -0.00453262078 0.00625289092
  vertex -0.0289870389 -0.0185585953 0.00729432888
  vertex -0.0268290471 -0.0223813523 0.01020726
  endloop
 endfacet

 facet normal -0.439624369 -0.000136288509 0.898181677
  outer loop
  vertex -0.0268290471 -0.0223813523 0.01020726
  vertex -0.0256861858 -0.0223813523 0.0107666459
  vertex -0.0268312879 0.00183864089 0.0102098379
  endloop
 endfacet

 facet normal -0.840948761 -0.0654221326 0.537145376
  outer loop
  vertex -0.0268290471 -0.0223813523 0.01020726
  vertex -0.0289870389 -0.0185585953 0.00729432888
  vertex -0.0289511848 -0.0194004271 0.0072479276
  endloop
 endfacet

 facet normal -0.853643835 -0.10030973 0.511106908
  outer loop
  vertex -0.0268290471 -0.0223813523 0.01020726
  vertex -0.0289511848 -0.0194004271 0.0072479276
  vertex -0.0267528556 -0.0236602034 0.0100835245
  endloop
 endfacet

 facet normal -0.436839551 -0.11237862 0.892492175
  outer loop
  vertex -0.0268290471 -0.0223813523 0.01020726
  vertex -0.0267528556 -0.0236602034 0.0100835245
  vertex -0.0256861858 -0.0223813523 0.0107666459
  endloop
 endfacet

 facet normal -0.39602074 -0.153296024 0.905355155
  outer loop
  vertex -0.0256861858 -0.0223813523 0.0107666459
  vertex -0.0267528556 -0.0236602034 0.0100835245
  vertex -0.0256861858 -0.0236602034 0.0105501087
  endloop
 endfacet

 facet normal -0.000506749027 0.000949621259 -0.999999464
  outer loop
  vertex -0.00785083044 0.0158784185 -0.0153672434
  vertex -0.00822057761 0.0102523863 -0.0153723992
  vertex -0.023138281 0.0158646163 -0.0153595097
  endloop
 endfacet

 facet normal -0.000561999506 0.0632730573 -0.997996092
  outer loop
  vertex -0.00785083044 0.0158784185 -0.0153672434
  vertex -0.023138281 0.0158646163 -0.0153595097
  vertex -0.00785083044 0.0171388686 -0.0152873313
  endloop
 endfacet

 facet normal -0.00964708626 -0.998633862 -0.0513549447
  outer loop
  vertex -0.00822282024 -0.025845293 -0.0116990125
  vertex -0.0244133547 -0.0256428868 -0.0125935143
  vertex -0.00822282024 -0.0257992931 -0.0125935143
  endloop
 endfacet

 facet normal -0.00963715464 -0.997605741 -0.068483755
  outer loop
  vertex -0.00822282024 -0.0257992931 -0.0125935143
  vertex -0.0244133547 -0.0256428868 -0.0125935143
  vertex -0.00822282024 -0.025785489 -0.0127945831
  endloop
 endfacet

 facet normal -0.00969417021 -0.997261465 -0.0733189508
  outer loop
  vertex -0.00822282024 -0.025785489 -0.0127945831
  vertex -0.0244133547 -0.0256428868 -0.0125935143
  vertex -0.0244133547 -0.0255922843 -0.0132817896
  endloop
 endfacet

 facet normal -0.00499975681 -0.975344896 -0.220629513
  outer loop
  vertex -0.00822282024 -0.025785489 -0.0127945831
  vertex -0.0244133547 -0.0255922843 -0.0132817896
  vertex -0.00822282024 -0.025661286 -0.0133436583
  endloop
 endfacet

 facet normal -0.00558874663 -0.871174693 -0.490941465
  outer loop
  vertex -0.00822282024 -0.025661286 -0.0133436583
  vertex -0.0244133547 -0.0255922843 -0.0132817896
  vertex -0.0244133547 -0.025233468 -0.0139185116
  endloop
 endfacet

 facet normal -0.00508490903 -0.865489662 -0.500900984
  outer loop
  vertex -0.00822282024 -0.025661286 -0.0133436583
  vertex -0.0244133547 -0.025233468 -0.0139185116
  vertex -0.00822282024 -0.0255508833 -0.0135344174
  endloop
 endfacet

 facet normal -0.00251008314 -0.820227683 -0.572031677
  outer loop
  vertex -0.00822282024 -0.0255508833 -0.0135344174
  vertex -0.0244133547 -0.025233468 -0.0139185116
  vertex -0.00822282024 -0.0252380688 -0.0139829563
  endloop
 endfacet

 facet normal -0.00264535192 -0.794019163 -0.60788697
  outer loop
  vertex -0.00822282024 -0.0252380688 -0.0139829563
  vertex -0.0244133547 -0.025233468 -0.0139185116
  vertex -0.0244133547 -0.0245940443 -0.0147537235
  endloop
 endfacet

 facet normal -0.00214880053 -0.789125443 -0.614228368
  outer loop
  vertex -0.00822282024 -0.0252380688 -0.0139829563
  vertex -0.0244133547 -0.0245940443 -0.0147537235
  vertex -0.00822282024 -0.0250494592 -0.0142252715
  endloop
 endfacet

 facet normal -0.00114505668 -0.774594069 -0.632457674
  outer loop
  vertex -0.00822282024 -0.0250494592 -0.0142252715
  vertex -0.0244133547 -0.0245940443 -0.0147537235
  vertex -0.00822282024 -0.0246032439 -0.0147717679
  endloop
 endfacet

 facet normal -0.00124991895 -0.416579217 -0.909098566
  outer loop
  vertex -0.00822282024 -0.0246032439 -0.0147717679
  vertex -0.0244133547 -0.0245940443 -0.0147537235
  vertex -0.0244133547 -0.0236602034 -0.0151816402
  endloop
 endfacet

 facet normal -0.000336963421 -0.403467506 -0.914993942
  outer loop
  vertex -0.00822282024 -0.0246032439 -0.0147717679
  vertex -0.0244133547 -0.0236602034 -0.0151816402
  vertex -0.00822282024 -0.0243226346 -0.0148955034
  endloop
 endfacet

 facet normal -0.000145999424 -0.399543256 -0.91671437
  outer loop
  vertex -0.00822282024 -0.0243226346 -0.0148955034
  vertex -0.0244133547 -0.0236602034 -0.0151816402
  vertex -0.00822282024 -0.0236602034 -0.015184219
  endloop
 endfacet

 facet normal -0.000157686765 -0.140378922 -0.99009788
  outer loop
  vertex -0.00822282024 -0.0236602034 -0.015184219
  vertex -0.0244133547 -0.0236602034 -0.0151816402
  vertex -0.00822282024 -0.0232783891 -0.015238354
  endloop
 endfacet

 facet normal -0.000177823051 -0.139542609 -0.990216136
  outer loop
  vertex -0.00822282024 -0.0232783891 -0.015238354
  vertex -0.0244133547 -0.0236602034 -0.0151816402
  vertex -0.023138281 -0.0223813523 -0.0153620867
  endloop
 endfacet

 facet normal 0 -0.136641651 -0.990620553
  outer loop
  vertex -0.00822282024 -0.0232783891 -0.015238354
  vertex -0.023138281 -0.0223813523 -0.0153620867
  vertex -0.0103920158 -0.0223813523 -0.0153620867
  endloop
 endfacet

 facet normal 0.0047155302 -0.125441343 -0.992089868
  outer loop
  vertex -0.00822282024 -0.0232783891 -0.015238354
  vertex -0.0103920158 -0.0223813523 -0.0153620867
  vertex -0.00822282024 -0.0223813523 -0.015351776
  endloop
 endfacet

 facet normal 0.00475245295 -0.0161819551 -0.999857843
  outer loop
  vertex -0.00822282024 -0.0223813523 -0.015351776
  vertex -0.0103920158 -0.0223813523 -0.0153620867
  vertex -0.00822282024 -0.0211071 -0.0153723992
  endloop
 endfacet

 facet normal -0.000636937679 0 -0.999999762
  outer loop
  vertex -0.00822282024 -0.0211071 -0.0153723992
  vertex -0.0244133547 -0.0185585953 -0.0153620867
  vertex -0.0244133547 -0.00619788794 -0.0153620867
  endloop
 endfacet

 facet normal -0.000636937679 0 -0.999999762
  outer loop
  vertex -0.00822282024 -0.0211071 -0.0153723992
  vertex -0.0244133547 -0.00619788794 -0.0153620867
  vertex -0.00822282024 -0.00143209356 -0.0153723992
  endloop
 endfacet

 facet normal 0 0 -1
  outer loop
  vertex -0.00822282024 -0.0211071 -0.0153723992
  vertex -0.00822282024 -0.00143209356 -0.0153723992
  vertex -0.00822057761 0.0102523863 -0.0153723992
  endloop
 endfacet

 facet normal 0 0 -1
  outer loop
  vertex -0.00822282024 -0.0211071 -0.0153723992
  vertex -0.00822057761 0.0102523863 -0.0153723992
  vertex -0.00822057761 -0.00143209356 -0.0153723992
  endloop
 endfacet

 facet normal 0 -0.0080926083 -0.999967277
  outer loop
  vertex -0.00822282024 -0.0211071 -0.0153723992
  vertex -0.0103920158 -0.0223813523 -0.0153620867
  vertex -0.023138281 -0.0223813523 -0.0153620867
  endloop
 endfacet

 facet normal -0.000672231778 -0.000224221614 -0.999999702
  outer loop
  vertex -0.00822282024 -0.0211071 -0.0153723992
  vertex -0.023138281 -0.0223813523 -0.0153620867
  vertex -0.0244133547 -0.0185585953 -0.0153620867
  endloop
 endfacet

 facet normal -0.0580917709 -0.998157501 -0.0175216179
  outer loop
  vertex -0.0244133547 -0.0256750882 -0.0113149183
  vertex -0.0252828225 -0.0256244857 -0.0113149183
  vertex -0.0252133552 -0.0256060846 -0.0125935143
  endloop
 endfacet

 facet normal -0.0459405221 -0.998627603 -0.0251498707
  outer loop
  vertex -0.0244133547 -0.0256750882 -0.0113149183
  vertex -0.0252133552 -0.0256060846 -0.0125935143
  vertex -0.0244133547 -0.0256428868 -0.0125935143
  endloop
 endfacet

 facet normal -0.045916114 -0.998096943 -0.0411594585
  outer loop
  vertex -0.0244133547 -0.0256428868 -0.0125935143
  vertex -0.0252133552 -0.0256060846 -0.0125935143
  vertex -0.0251125153 -0.0255830847 -0.0132637462
  endloop
 endfacet

 facet normal -0.0150149036 -0.997195899 -0.0733141154
  outer loop
  vertex -0.0244133547 -0.0256428868 -0.0125935143
  vertex -0.0251125153 -0.0255830847 -0.0132637462
  vertex -0.0244133547 -0.0255922843 -0.0132817896
  endloop
 endfacet

 facet normal -0.377697647 -0.334321111 0.863466203
  outer loop
  vertex -0.0256861858 -0.0236602034 0.0105501087
  vertex -0.0267528556 -0.0236602034 0.0100835245
  vertex -0.0265534148 -0.0244514383 0.00986441039
  endloop
 endfacet

 facet normal -0.239027798 -0.472948313 0.848048151
  outer loop
  vertex -0.0256861858 -0.0236602034 0.0105501087
  vertex -0.0265534148 -0.0244514383 0.00986441039
  vertex -0.0256861858 -0.0246216431 0.010013924
  endloop
 endfacet

 facet normal -0.249894887 -0.817598283 0.518734753
  outer loop
  vertex -0.0256861858 -0.0246216431 0.010013924
  vertex -0.0265534148 -0.0244514383 0.00986441039
  vertex -0.0256368872 -0.0252794717 0.00900084246
  endloop
 endfacet

 facet normal -0.386561006 -0.893370569 0.229040608
  outer loop
  vertex -0.0256368872 -0.0252794717 0.00900084246
  vertex -0.0258990712 -0.0254726801 0.00780473556
  vertex -0.0251752604 -0.025601482 0.00852394663
  endloop
 endfacet

 facet normal -0.421366543 -0.835132301 0.353559464
  outer loop
  vertex -0.0256368872 -0.0252794717 0.00900084246
  vertex -0.0265534148 -0.0244514383 0.00986441039
  vertex -0.0267550983 -0.0246814452 0.00908075459
  endloop
 endfacet

 facet normal -0.444932997 -0.863626599 0.237031102
  outer loop
  vertex -0.0256368872 -0.0252794717 0.00900084246
  vertex -0.0267550983 -0.0246814452 0.00908075459
  vertex -0.0258990712 -0.0254726801 0.00780473556
  endloop
 endfacet

 facet normal -0.224304482 -0.973159671 0.0514568537
  outer loop
  vertex -0.0251752604 -0.025601482 0.00852394663
  vertex -0.0258990712 -0.0254726801 0.00780473556
  vertex -0.0252604149 -0.0256198831 0.00780473556
  endloop
 endfacet

 facet normal -0.22459577 -0.974423528 0.00745621091
  outer loop
  vertex -0.0252604149 -0.0256198831 0.00780473556
  vertex -0.0258990712 -0.0254726801 0.00780473556
  vertex -0.0259214826 -0.0254772771 0.00652871793
  endloop
 endfacet

 facet normal -0.224600002 -0.974422574 0.007458515
  outer loop
  vertex -0.0252604149 -0.0256198831 0.00780473556
  vertex -0.0259214826 -0.0254772771 0.00652871793
  vertex -0.0252828225 -0.0256244857 0.00652871793
  endloop
 endfacet

 facet normal -0.224606261 -0.974449694 0
  outer loop
  vertex -0.0252828225 -0.0256244857 0.00652871793
  vertex -0.0259214826 -0.0254772771 0.00652871793
  vertex -0.0259214826 -0.0254772771 -0.0113149183
  endloop
 endfacet

 facet normal -0.224606261 -0.974449694 0
  outer loop
  vertex -0.0252828225 -0.0256244857 0.00652871793
  vertex -0.0259214826 -0.0254772771 -0.0113149183
  vertex -0.0252828225 -0.0256244857 -0.0113149183
  endloop
 endfacet

 facet normal -0.00346606947 0.826516986 0.562901139
  outer loop
  vertex -0.00785083044 0.0202945992 0.00840536691
  vertex -0.00785083044 0.0206580125 0.00787175912
  vertex -0.0244111121 0.0207132157 0.00768873421
  endloop
 endfacet

 facet normal -0.000412475638 0.946470976 0.322788507
  outer loop
  vertex -0.0244111121 0.0207132157 0.00768873421
  vertex -0.00785083044 0.0206580125 0.00787175912
  vertex -0.0244111121 0.0211088322 0.00652871793
  endloop
 endfacet

 facet normal 0 0.999766111 0.0216249917
  outer loop
  vertex -0.0244111121 0.0211088322 0.00652871793
  vertex -0.0103942538 0.0211088322 0.00652871793
  vertex -0.00785083044 0.0211364329 0.0052526989
  endloop
 endfacet

 facet normal -0.00111115316 0.999973416 0.00720883161
  outer loop
  vertex -0.0244111121 0.0211088322 0.00652871793
  vertex -0.00785083044 0.0211364329 0.0052526989
  vertex -0.0244111121 0.0211180318 0.0052526989
  endloop
 endfacet

 facet normal -0.353316426 0.935479701 0.00674389489
  outer loop
  vertex -0.0244111121 0.0211088322 0.00652871793
  vertex -0.0244111121 0.0211180318 0.0052526989
  vertex -0.0254464112 0.0207178164 0.00652871793
  endloop
 endfacet

 facet normal 0 0.948016524 0.318221301
  outer loop
  vertex -0.0244111121 0.0211088322 0.00652871793
  vertex -0.00785083044 0.0206580125 0.00787175912
  vertex -0.0103942538 0.0211088322 0.00652871793
  endloop
 endfacet

 facet normal -0.355605811 0.934624732 0.00461824983
  outer loop
  vertex -0.0254464112 0.0207178164 0.00652871793
  vertex -0.0244111121 0.0211180318 0.0052526989
  vertex -0.0254508909 0.0207224172 0.0052526989
  endloop
 endfacet

 facet normal -0.890224099 0.455497801 0.00476815412
  outer loop
  vertex -0.0254464112 0.0207178164 0.00652871793
  vertex -0.0254508909 0.0207224172 0.0052526989
  vertex -0.0293119717 0.0132563096 -0.00238794484
  endloop
 endfacet

 facet normal -0.906061769 0.421220303 0.0403176658
  outer loop
  vertex -0.0254464112 0.0207178164 0.00652871793
  vertex -0.0293119717 0.0132563096 -0.00238794484
  vertex -0.0292962845 0.0131689059 -0.00112223742
  endloop
 endfacet

 facet normal -0.92629081 0.360172838 0.110729963
  outer loop
  vertex -0.0254464112 0.0207178164 0.00652871793
  vertex -0.0292962845 0.0131689059 -0.00112223742
  vertex -0.025845293 0.0196919739 0.00652871793
  endloop
 endfacet

 facet normal -0.926962137 0.368221223 -0.0717936903
  outer loop
  vertex -0.0293119717 0.0132563096 -0.00238794484
  vertex -0.0292693917 0.0131137036 -0.00366911874
  vertex -0.0296951663 0.0120418603 -0.00366911874
  endloop
 endfacet

 facet normal -0.947255731 0.319861323 -0.0198826995
  outer loop
  vertex -0.0293119717 0.0132563096 -0.00238794484
  vertex -0.0296951663 0.0120418603 -0.00366911874
  vertex -0.0297220573 0.0120418603 -0.00238794484
  endloop
 endfacet

 facet normal -0.888251543 0.459357351 0
  outer loop
  vertex -0.0293119717 0.0132563096 -0.00238794484
  vertex -0.0254508909 0.0207224172 0.0052526989
  vertex -0.0254508909 0.0207224172 -0.0100440551
  endloop
 endfacet

 facet normal -0.901220679 0.43209219 -0.0331289843
  outer loop
  vertex -0.0293119717 0.0132563096 -0.00238794484
  vertex -0.0254508909 0.0207224172 -0.0100440551
  vertex -0.0254195184 0.0206902139 -0.0113174962
  endloop
 endfacet

 facet normal -0.917261064 0.391343176 -0.0740449429
  outer loop
  vertex -0.0293119717 0.0132563096 -0.00238794484
  vertex -0.0254195184 0.0206902139 -0.0113174962
  vertex -0.0292693917 0.0131137036 -0.00366911874
  endloop
 endfacet

 facet normal -0.996941626 0.0752975568 -0.0209255964
  outer loop
  vertex -0.0297220573 0.0120418603 -0.00238794484
  vertex -0.0296951663 0.0120418603 -0.00366911874
  vertex -0.0307170153 -0.00325836823 -0.0100414772
  endloop
 endfacet

 facet normal -0.997035086 0.0744900331 -0.0192991253
  outer loop
  vertex -0.0297220573 0.0120418603 -0.00238794484
  vertex -0.0307170153 -0.00325836823 -0.0100414772
  vertex -0.0307416636 -0.00325836823 -0.00876803789
  endloop
 endfacet

 facet normal -0.997786939 0.0664925203 0
  outer loop
  vertex -0.0297220573 0.0120418603 -0.00238794484
  vertex -0.0307416636 -0.00325836823 -0.00876803789
  vertex -0.0307416636 -0.00325836823 -0.00621342147
  endloop
 endfacet

 facet normal -0.997794211 0.0663834065 0.00043836527
  outer loop
  vertex -0.0297220573 0.0120418603 -0.00238794484
  vertex -0.0307416636 -0.00325836823 -0.00621342147
  vertex -0.0307371877 -0.00325836823 0.0039766808
  endloop
 endfacet

 facet normal -0.998517394 -0.0544323698 0.000438682968
  outer loop
  vertex -0.0307371877 -0.00325836823 0.0039766808
  vertex -0.0307416636 -0.00325836823 -0.00621342147
  vertex -0.0306722 -0.00453262078 -0.00621342147
  endloop
 endfacet

 facet normal -0.998419881 -0.0561898723 0.000659077254
  outer loop
  vertex -0.0307371877 -0.00325836823 0.0039766808
  vertex -0.0306722 -0.00453262078 -0.00621342147
  vertex -0.030665474 -0.00453262078 0.0039766808
  endloop
 endfacet

 facet normal -0.998381853 -0.0561877303 0.0087482119
  outer loop
  vertex -0.0307371877 -0.00325836823 0.0039766808
  vertex -0.030665474 -0.00453262078 0.0039766808
  vertex -0.0306542702 -0.00453262078 0.0052552768
  endloop
 endfacet

 facet normal -0.994281769 -0.106432557 0.00871228613
  outer loop
  vertex -0.0306542702 -0.00453262078 0.0052552768
  vertex -0.030665474 -0.00453262078 0.0039766808
  vertex -0.0291528646 -0.0185585953 0.0052552768
  endloop
 endfacet

 facet normal -0.994100451 -0.106413148 0.0209926665
  outer loop
  vertex -0.0306542702 -0.00453262078 0.0052552768
  vertex -0.0291528646 -0.0185585953 0.0052552768
  vertex -0.0291259736 -0.0185585953 0.00652871793
  endloop
 endfacet

 facet normal -0.987175226 -0.0959828719 0.12756291
  outer loop
  vertex -0.0306542702 -0.00453262078 0.0052552768
  vertex -0.0291259736 -0.0185585953 0.00652871793
  vertex -0.0289511848 -0.0194004271 0.0072479276
  endloop
 endfacet

 facet normal -0.939353347 -0.319857299 0.123720095
  outer loop
  vertex -0.0289511848 -0.0194004271 0.0072479276
  vertex -0.0290004835 -0.0195338372 0.00652871793
  vertex -0.0272592995 -0.0236602034 0.00908075459
  endloop
 endfacet

 facet normal -0.881330907 -0.158529073 0.445111603
  outer loop
  vertex -0.0289511848 -0.0194004271 0.0072479276
  vertex -0.0272592995 -0.0236602034 0.00908075459
  vertex -0.0267528556 -0.0236602034 0.0100835245
  endloop
 endfacet

 facet normal -0.987682581 -0.127089828 0.0912756771
  outer loop
  vertex -0.0289511848 -0.0194004271 0.0072479276
  vertex -0.0291259736 -0.0185585953 0.00652871793
  vertex -0.0290004835 -0.0195338372 0.00652871793
  endloop
 endfacet

 facet normal -0.842548013 -0.33021456 0.425524533
  outer loop
  vertex -0.0267528556 -0.0236602034 0.0100835245
  vertex -0.0272592995 -0.0236602034 0.00908075459
  vertex -0.0265534148 -0.0244514383 0.00986441039
  endloop
 endfacet

 facet normal -0.000673154835 0.064601779 -0.997910917
  outer loop
  vertex -0.00785083044 0.0171388686 -0.0152873313
  vertex -0.023138281 0.0158646163 -0.0153595097
  vertex -0.023138281 0.0171388686 -0.0152770188
  endloop
 endfacet

 facet normal -0.000624117849 0.379438877 -0.925216615
  outer loop
  vertex -0.00785083044 0.0171388686 -0.0152873313
  vertex -0.023138281 0.0171388686 -0.0152770188
  vertex -0.0244111121 0.0181739107 -0.014851681
  endloop
 endfacet

 facet normal -0.0001436413 0.385985017 -0.922505081
  outer loop
  vertex -0.00785083044 0.0171388686 -0.0152873313
  vertex -0.0244111121 0.0181739107 -0.014851681
  vertex -0.00785083044 0.0181739107 -0.0148542589
  endloop
 endfacet

 facet normal -0.000691387453 0.000458839873 -0.999999702
  outer loop
  vertex -0.00822057761 0.0102523863 -0.0153723992
  vertex -0.0231360383 0.0102523863 -0.0153620867
  vertex -0.023138281 0.0158646163 -0.0153595097
  endloop
 endfacet

 facet normal -0.000636973709 1.22234141e-07 -0.999999762
  outer loop
  vertex -0.00822057761 0.0102523863 -0.0153723992
  vertex -0.00822282024 -0.00143209356 -0.0153723992
  vertex -0.0244133547 -0.00619788794 -0.0153620867
  endloop
 endfacet

 facet normal -0.000691387453 5.36842053e-05 -0.999999702
  outer loop
  vertex -0.00822057761 0.0102523863 -0.0153723992
  vertex -0.0244133547 -0.00619788794 -0.0153620867
  vertex -0.0231360383 0.0102523863 -0.0153620867
  endloop
 endfacet

 facet normal -0.00404156279 0.000457497721 -0.999991775
  outer loop
  vertex -0.023138281 0.0158646163 -0.0153595097
  vertex -0.0231360383 0.0102523863 -0.0153620867
  vertex -0.0244111121 0.0102523863 -0.0153569337
  endloop
 endfacet

 facet normal -0.00405017519 0.000459450966 -0.999991655
  outer loop
  vertex -0.023138281 0.0158646163 -0.0153595097
  vertex -0.0244111121 0.0102523863 -0.0153569337
  vertex -0.0244111121 0.0158646163 -0.0153543549
  endloop
 endfacet

 facet normal -0.0040422352 0.0625899583 -0.998031139
  outer loop
  vertex -0.023138281 0.0158646163 -0.0153595097
  vertex -0.0244111121 0.0158646163 -0.0153543549
  vertex -0.0244111121 0.0171388686 -0.0152744418
  endloop
 endfacet

 facet normal -0.00202012551 0.0646016672 -0.997909188
  outer loop
  vertex -0.023138281 0.0158646163 -0.0153595097
  vertex -0.0244111121 0.0171388686 -0.0152744418
  vertex -0.023138281 0.0171388686 -0.0152770188
  endloop
 endfacet

 facet normal -0.0241281539 -0.870934665 -0.490806192
  outer loop
  vertex -0.0244133547 -0.0255922843 -0.0132817896
  vertex -0.0251125153 -0.0255830847 -0.0132637462
  vertex -0.0244133547 -0.025233468 -0.0139185116
  endloop
 endfacet

 facet normal -0.112379611 -0.821689188 -0.558746517
  outer loop
  vertex -0.0244133547 -0.025233468 -0.0139185116
  vertex -0.0251125153 -0.0255830847 -0.0132637462
  vertex -0.0255987905 -0.0251782667 -0.0137612643
  endloop
 endfacet

 facet normal -0.114452176 -0.806833923 -0.57958591
  outer loop
  vertex -0.0244133547 -0.025233468 -0.0139185116
  vertex -0.0255987905 -0.0251782667 -0.0137612643
  vertex -0.0256861858 -0.0245066416 -0.0146789663
  endloop
 endfacet

 facet normal -0.0898613334 -0.790809572 -0.605429769
  outer loop
  vertex -0.0244133547 -0.025233468 -0.0139185116
  vertex -0.0256861858 -0.0245066416 -0.0146789663
  vertex -0.0244133547 -0.0245940443 -0.0147537235
  endloop
 endfacet

 facet normal -0.0823280737 -0.429904878 -0.89911288
  outer loop
  vertex -0.0244133547 -0.0245940443 -0.0147537235
  vertex -0.0256861858 -0.0245066416 -0.0146789663
  vertex -0.0256861858 -0.0236602034 -0.0150836855
  endloop
 endfacet

 facet normal -0.0697922707 -0.415563792 -0.906882524
  outer loop
  vertex -0.0244133547 -0.0245940443 -0.0147537235
  vertex -0.0256861858 -0.0236602034 -0.0150836855
  vertex -0.0244133547 -0.0236602034 -0.0151816402
  endloop
 endfacet

 facet normal -0.0758057758 -0.154870123 -0.985022247
  outer loop
  vertex -0.0244133547 -0.0236602034 -0.0151816402
  vertex -0.0256861858 -0.0236602034 -0.0150836855
  vertex -0.0256861858 -0.0223813523 -0.0152847525
  endloop
 endfacet

 facet normal -0.054111667 -0.133643284 -0.989551067
  outer loop
  vertex -0.0244133547 -0.0236602034 -0.0151816402
  vertex -0.0256861858 -0.0223813523 -0.0152847525
  vertex -0.0244133547 -0.0223813523 -0.0153543549
  endloop
 endfacet

 facet normal -0.00600922015 -0.133836955 -0.990985155
  outer loop
  vertex -0.0244133547 -0.0236602034 -0.0151816402
  vertex -0.0244133547 -0.0223813523 -0.0153543549
  vertex -0.023138281 -0.0223813523 -0.0153620867
  endloop
 endfacet

 facet normal -0.00606376026 -0.00202255556 -0.999979496
  outer loop
  vertex -0.023138281 -0.0223813523 -0.0153620867
  vertex -0.0244133547 -0.0223813523 -0.0153543549
  vertex -0.0244133547 -0.0185585953 -0.0153620867
  endloop
 endfacet

 facet normal -0.0546013564 -0.00201957533 -0.998506188
  outer loop
  vertex -0.0244133547 -0.0185585953 -0.0153620867
  vertex -0.0244133547 -0.0223813523 -0.0153543549
  vertex -0.0256861858 -0.0223813523 -0.0152847525
  endloop
 endfacet

 facet normal -0.0606457852 0 -0.998159468
  outer loop
  vertex -0.0244133547 -0.0185585953 -0.0153620867
  vertex -0.0256861858 -0.0223813523 -0.0152847525
  vertex -0.0244133547 -0.00619788794 -0.0153620867
  endloop
 endfacet

 facet normal -0.224529028 -0.974114597 -0.0262182876
  outer loop
  vertex -0.0252828225 -0.0256244857 -0.0113149183
  vertex -0.0259214826 -0.0254772771 -0.0113149183
  vertex -0.0252133552 -0.0256060846 -0.0125935143
  endloop
 endfacet

 facet normal -0.225277454 -0.97393018 -0.0266513601
  outer loop
  vertex -0.0252133552 -0.0256060846 -0.0125935143
  vertex -0.0259214826 -0.0254772771 -0.0113149183
  vertex -0.0258497726 -0.025458876 -0.0125935143
  endloop
 endfacet

 facet normal -0.224848241 -0.972074687 -0.0671876818
  outer loop
  vertex -0.0252133552 -0.0256060846 -0.0125935143
  vertex -0.0258497726 -0.025458876 -0.0125935143
  vertex -0.0251125153 -0.0255830847 -0.0132637462
  endloop
 endfacet

 facet normal -0.413980454 -0.860870302 -0.29584232
  outer loop
  vertex -0.0251125153 -0.0255830847 -0.0132637462
  vertex -0.0258497726 -0.025458876 -0.0125935143
  vertex -0.0255987905 -0.0251782667 -0.0137612643
  endloop
 endfacet

 facet normal -0.843476534 -0.416436732 0.339304984
  outer loop
  vertex -0.0265534148 -0.0244514383 0.00986441039
  vertex -0.0272592995 -0.0236602034 0.00908075459
  vertex -0.0267550983 -0.0246814452 0.00908075459
  endloop
 endfacet

 facet normal -0.55782479 -0.819119096 0.133698553
  outer loop
  vertex -0.0258990712 -0.0254726801 0.00780473556
  vertex -0.0267550983 -0.0246814452 0.00908075459
  vertex -0.026838012 -0.0248332564 0.00780473556
  endloop
 endfacet

 facet normal -0.5628317 -0.826471388 0.0128635196
  outer loop
  vertex -0.0258990712 -0.0254726801 0.00780473556
  vertex -0.026838012 -0.0248332564 0.00780473556
  vertex -0.0259214826 -0.0254772771 0.00652871793
  endloop
 endfacet

 facet normal -0.891203344 -0.440000147 0.110256307
  outer loop
  vertex -0.0267550983 -0.0246814452 0.00908075459
  vertex -0.0272592995 -0.0236602034 0.00908075459
  vertex -0.026838012 -0.0248332564 0.00780473556
  endloop
 endfacet

 facet normal -0.571227551 -0.820782304 0.00396167766
  outer loop
  vertex -0.0259214826 -0.0254772771 0.00652871793
  vertex -0.026838012 -0.0248332564 0.00780473556
  vertex -0.0268402547 -0.0248378534 0.00652871793
  endloop
 endfacet

 facet normal -0.571231961 -0.820788741 0
  outer loop
  vertex -0.0259214826 -0.0254772771 0.00652871793
  vertex -0.0268402547 -0.0248378534 0.00652871793
  vertex -0.0268402547 -0.0248378534 -0.0113149183
  endloop
 endfacet

 facet normal -0.571231961 -0.820788741 0
  outer loop
  vertex -0.0259214826 -0.0254772771 0.00652871793
  vertex -0.0268402547 -0.0248378534 -0.0113149183
  vertex -0.0259214826 -0.0254772771 -0.0113149183
  endloop
 endfacet

 facet normal 0.00171647198 0.948991239 0.315297931
  outer loop
  vertex -0.00785083044 0.0206580125 0.00787175912
  vertex -0.00785083044 0.0211042315 0.00652871793
  vertex -0.0103942538 0.0211088322 0.00652871793
  endloop
 endfacet

 facet normal 0.0018081544 0.999680161 0.0252272338
  outer loop
  vertex -0.0103942538 0.0211088322 0.00652871793
  vertex -0.00785083044 0.0211042315 0.00652871793
  vertex -0.00785083044 0.0211364329 0.0052526989
  endloop
 endfacet

 facet normal -0.00111118215 0.999999404 0
  outer loop
  vertex -0.00785083044 0.0211364329 0.0052526989
  vertex -0.00785083044 0.0211364329 -0.0100440551
  vertex -0.0244111121 0.0211180318 -0.0100440551
  endloop
 endfacet

 facet normal -0.00111118215 0.999999404 0
  outer loop
  vertex -0.00785083044 0.0211364329 0.0052526989
  vertex -0.0244111121 0.0211180318 -0.0100440551
  vertex -0.0244111121 0.0211180318 0.0052526989
  endloop
 endfacet

 facet normal -0.355609536 0.934634626 0
  outer loop
  vertex -0.0244111121 0.0211180318 0.0052526989
  vertex -0.0244111121 0.0211180318 -0.0100440551
  vertex -0.0254508909 0.0207224172 -0.0100440551
  endloop
 endfacet

 facet normal -0.355609536 0.934634626 0
  outer loop
  vertex -0.0244111121 0.0211180318 0.0052526989
  vertex -0.0254508909 0.0207224172 -0.0100440551
  vertex -0.0254508909 0.0207224172 0.0052526989
  endloop
 endfacet

 facet normal -0.922962964 0.372944951 -0.0951403305
  outer loop
  vertex -0.0292693917 0.0131137036 -0.00366911874
  vertex -0.0254195184 0.0206902139 -0.0113174962
  vertex -0.0258228816 0.0196919739 -0.0113174962
  endloop
 endfacet

 facet normal -0.924631476 0.367295384 -0.100751281
  outer loop
  vertex -0.0292693917 0.0131137036 -0.00366911874
  vertex -0.0258228816 0.0196919739 -0.0113174962
  vertex -0.0296951663 0.0120418603 -0.00366911874
  endloop
 endfacet

 facet normal -0.94149816 0.238629311 -0.237986013
  outer loop
  vertex -0.0296951663 0.0120418603 -0.00366911874
  vertex -0.0258228816 0.0196919739 -0.0113174962
  vertex -0.0258251242 0.0184131209 -0.0125909355
  endloop
 endfacet

 facet normal -0.941510022 0.238449678 -0.238119438
  outer loop
  vertex -0.0296951663 0.0120418603 -0.00366911874
  vertex -0.0258251242 0.0184131209 -0.0125909355
  vertex -0.0258251242 0.0171388686 -0.0138669554
  endloop
 endfacet

 facet normal -0.946304262 0.176109165 -0.271097422
  outer loop
  vertex -0.0296951663 0.0120418603 -0.00366911874
  vertex -0.0258251242 0.0171388686 -0.0138669554
  vertex -0.0307170153 -0.00325836823 -0.0100414772
  endloop
 endfacet

 facet normal -0.355423063 0.934144497 -0.0323786624
  outer loop
  vertex -0.0254508909 0.0207224172 -0.0100440551
  vertex -0.0244111121 0.0211180318 -0.0100440551
  vertex -0.0254195184 0.0206902139 -0.0113174962
  endloop
 endfacet

 facet normal -0.338658184 0.939708591 -0.0475236699
  outer loop
  vertex -0.0254195184 0.0206902139 -0.0113174962
  vertex -0.0244111121 0.0211180318 -0.0100440551
  vertex -0.0244111121 0.0210536309 -0.0113174962
  endloop
 endfacet

 facet normal -0.332345098 0.922191083 -0.197763562
  outer loop
  vertex -0.0254195184 0.0206902139 -0.0113174962
  vertex -0.0244111121 0.0210536309 -0.0113174962
  vertex -0.0252783429 0.0205476079 -0.0122197326
  endloop
 endfacet

 facet normal -0.908405721 0.367062777 -0.200159729
  outer loop
  vertex -0.0254195184 0.0206902139 -0.0113174962
  vertex -0.0252783429 0.0205476079 -0.0122197326
  vertex -0.0258228816 0.0196919739 -0.0113174962
  endloop
 endfacet

 facet normal -0.949163437 -0.0372292362 -0.312574446
  outer loop
  vertex -0.0307170153 -0.00325836823 -0.0100414772
  vertex -0.0304122549 -0.00325836823 -0.0109669138
  vertex -0.0303741582 -0.00453262078 -0.0109308241
  endloop
 endfacet

 facet normal -0.955147445 -0.0537488572 -0.291212142
  outer loop
  vertex -0.0307170153 -0.00325836823 -0.0100414772
  vertex -0.0303741582 -0.00453262078 -0.0109308241
  vertex -0.030645309 -0.00453262078 -0.0100414772
  endloop
 endfacet

 facet normal -0.998234034 -0.0561734587 -0.019322332
  outer loop
  vertex -0.0307170153 -0.00325836823 -0.0100414772
  vertex -0.030645309 -0.00453262078 -0.0100414772
  vertex -0.0307416636 -0.00325836823 -0.00876803789
  endloop
 endfacet

 facet normal -0.936521351 0.166764781 -0.308411211
  outer loop
  vertex -0.0307170153 -0.00325836823 -0.0100414772
  vertex -0.0258251242 0.0171388686 -0.0138669554
  vertex -0.0304122549 -0.00325836823 -0.0109669138
  endloop
 endfacet

 facet normal -0.998166323 -0.0579260662 -0.017563479
  outer loop
  vertex -0.0307416636 -0.00325836823 -0.00876803789
  vertex -0.030645309 -0.00453262078 -0.0100414772
  vertex -0.0306677166 -0.00453262078 -0.00876803789
  endloop
 endfacet

 facet normal -0.998318851 -0.0579349212 -0.00175248401
  outer loop
  vertex -0.0307416636 -0.00325836823 -0.00876803789
  vertex -0.0306677166 -0.00453262078 -0.00876803789
  vertex -0.0306722 -0.00453262078 -0.00621342147
  endloop
 endfacet

 facet normal -0.998517573 -0.0544323772 0
  outer loop
  vertex -0.0307416636 -0.00325836823 -0.00876803789
  vertex -0.0306722 -0.00453262078 -0.00621342147
  vertex -0.0307416636 -0.00325836823 -0.00621342147
  endloop
 endfacet

 facet normal -0.994233668 -0.107222065 -0.00174531282
  outer loop
  vertex -0.0306722 -0.00453262078 -0.00621342147
  vertex -0.0306677166 -0.00453262078 -0.00876803789
  vertex -0.0291528646 -0.0185585953 -0.0100414772
  endloop
 endfacet

 facet normal -0.994184315 -0.107693046 0
  outer loop
  vertex -0.0306722 -0.00453262078 -0.00621342147
  vertex -0.0291528646 -0.0185585953 -0.0100414772
  vertex -0.0291528646 -0.0185585953 0.0052552768
  endloop
 endfacet

 facet normal -0.994241357 -0.10716258 0.000656319025
  outer loop
  vertex -0.0306722 -0.00453262078 -0.00621342147
  vertex -0.0291528646 -0.0185585953 0.0052552768
  vertex -0.030665474 -0.00453262078 0.0039766808
  endloop
 endfacet

 facet normal -0.990539193 -0.137230575 0
  outer loop
  vertex -0.0291528646 -0.0185585953 0.0052552768
  vertex -0.0291528646 -0.0185585953 -0.0100414772
  vertex -0.0290139299 -0.019561436 -0.0100414772
  endloop
 endfacet

 facet normal -0.990539193 -0.137230575 0
  outer loop
  vertex -0.0291528646 -0.0185585953 0.0052552768
  vertex -0.0290139299 -0.019561436 -0.0100414772
  vertex -0.0290139299 -0.019561436 0.0052552768
  endloop
 endfacet

 facet normal -0.990449786 -0.137218207 0.0134316273
  outer loop
  vertex -0.0291528646 -0.0185585953 0.0052552768
  vertex -0.0290139299 -0.019561436 0.0052552768
  vertex -0.0290004835 -0.0195338372 0.00652871793
  endloop
 endfacet

 facet normal -0.991605282 -0.12759456 0.0209399778
  outer loop
  vertex -0.0291528646 -0.0185585953 0.0052552768
  vertex -0.0290004835 -0.0195338372 0.00652871793
  vertex -0.0291259736 -0.0185585953 0.00652871793
  endloop
 endfacet

 facet normal -0.929793119 -0.367652625 0.0177852288
  outer loop
  vertex -0.0290004835 -0.0195338372 0.00652871793
  vertex -0.0290139299 -0.019561436 0.0052552768
  vertex -0.0273444559 -0.0236602034 0.00780473556
  endloop
 endfacet

 facet normal -0.932756424 -0.355092525 0.0622477047
  outer loop
  vertex -0.0290004835 -0.0195338372 0.00652871793
  vertex -0.0273444559 -0.0236602034 0.00780473556
  vertex -0.0272592995 -0.0236602034 0.00908075459
  endloop
 endfacet

 facet normal -0.916372776 -0.395627469 0.0611543357
  outer loop
  vertex -0.0272592995 -0.0236602034 0.00908075459
  vertex -0.0273444559 -0.0236602034 0.00780473556
  vertex -0.026838012 -0.0248332564 0.00780473556
  endloop
 endfacet

 facet normal -0.000114257615 0.679371357 -0.733794689
  outer loop
  vertex -0.00785083044 0.0181739107 -0.0148542589
  vertex -0.0244111121 0.0181739107 -0.014851681
  vertex -0.0244111121 0.0188087374 -0.0142639391
  endloop
 endfacet

 facet normal 0 0.680971384 -0.732310057
  outer loop
  vertex -0.00785083044 0.0181739107 -0.0148542589
  vertex -0.0244111121 0.0188087374 -0.0142639391
  vertex -0.00785083044 0.0188087374 -0.0142639391
  endloop
 endfacet

 facet normal -0.00187405699 0.378122509 -0.925753713
  outer loop
  vertex -0.023138281 0.0171388686 -0.0152770188
  vertex -0.0244111121 0.0171388686 -0.0152744418
  vertex -0.0244111121 0.0181739107 -0.014851681
  endloop
 endfacet

 facet normal -0.179054648 0.372012317 -0.910794258
  outer loop
  vertex -0.0244111121 0.0181739107 -0.014851681
  vertex -0.0244111121 0.0171388686 -0.0152744418
  vertex -0.0252783429 0.0180405062 -0.0147356791
  endloop
 endfacet

 facet normal -0.198622048 0.665835679 -0.719174683
  outer loop
  vertex -0.0244111121 0.0181739107 -0.014851681
  vertex -0.0252783429 0.0180405062 -0.0147356791
  vertex -0.0244111121 0.0188087374 -0.0142639391
  endloop
 endfacet

 facet normal -0.00404156372 0.000313815573 -0.999991834
  outer loop
  vertex -0.0231360383 0.0102523863 -0.0153620867
  vertex -0.0244133547 -0.00619788794 -0.0153620867
  vertex -0.0244111121 0.0102523863 -0.0153569337
  endloop
 endfacet

 facet normal -0.06071686 5.6115e-06 -0.998154998
  outer loop
  vertex -0.0244133547 -0.00619788794 -0.0153620867
  vertex -0.0256861858 -0.0223813523 -0.0152847525
  vertex -0.0256839469 0.00183864089 -0.0152847525
  endloop
 endfacet

 facet normal -0.0587309524 0.00032073172 -0.99827379
  outer loop
  vertex -0.0244133547 -0.00619788794 -0.0153620867
  vertex -0.0256839469 0.00183864089 -0.0152847525
  vertex -0.0244111121 0.0102523863 -0.0153569337
  endloop
 endfacet

 facet normal -0.05963948 0.000458636991 -0.998219907
  outer loop
  vertex -0.0244111121 0.0102523863 -0.0153569337
  vertex -0.0256839469 0.00183864089 -0.0152847525
  vertex -0.0244111121 0.0158646163 -0.0153543549
  endloop
 endfacet

 facet normal -0.381581396 0.0362243168 -0.923625171
  outer loop
  vertex -0.0244111121 0.0158646163 -0.0153543549
  vertex -0.0254531335 0.0158646163 -0.0149238594
  vertex -0.0254195184 0.0171388686 -0.0148877716
  endloop
 endfacet

 facet normal -0.357416391 0.0584560633 -0.932114005
  outer loop
  vertex -0.0244111121 0.0158646163 -0.0153543549
  vertex -0.0254195184 0.0171388686 -0.0148877716
  vertex -0.0244111121 0.0171388686 -0.0152744418
  endloop
 endfacet

 facet normal -0.344217777 0.0265799519 -0.938513517
  outer loop
  vertex -0.0244111121 0.0158646163 -0.0153543549
  vertex -0.0256839469 0.00183864089 -0.0152847525
  vertex -0.0256839469 0.00311289332 -0.0152486637
  endloop
 endfacet

 facet normal -0.360359669 0.0282419696 -0.932385862
  outer loop
  vertex -0.0244111121 0.0158646163 -0.0153543549
  vertex -0.0256839469 0.00311289332 -0.0152486637
  vertex -0.0267909523 0.00183864089 -0.0148594128
  endloop
 endfacet

 facet normal -0.368186772 0.0296796933 -0.929278016
  outer loop
  vertex -0.0244111121 0.0158646163 -0.0153543549
  vertex -0.0267909523 0.00183864089 -0.0148594128
  vertex -0.0267663021 0.00311289332 -0.0148284808
  endloop
 endfacet

 facet normal -0.381631583 0.0323910043 -0.923746824
  outer loop
  vertex -0.0244111121 0.0158646163 -0.0153543549
  vertex -0.0267663021 0.00311289332 -0.0148284808
  vertex -0.0254531335 0.0158646163 -0.0149238594
  endloop
 endfacet

 facet normal -0.350133151 0.208851919 -0.913119793
  outer loop
  vertex -0.0244111121 0.0171388686 -0.0152744418
  vertex -0.0254195184 0.0171388686 -0.0148877716
  vertex -0.0252783429 0.0180405062 -0.0147356791
  endloop
 endfacet

 facet normal -0.424475044 -0.855417013 -0.296787471
  outer loop
  vertex -0.0255987905 -0.0251782667 -0.0137612643
  vertex -0.0258497726 -0.025458876 -0.0125935143
  vertex -0.0266744234 -0.0246078465 -0.0138669554
  endloop
 endfacet

 facet normal -0.398574442 -0.825592697 -0.399418473
  outer loop
  vertex -0.0255987905 -0.0251782667 -0.0137612643
  vertex -0.0266744234 -0.0246078465 -0.0138669554
  vertex -0.0264525767 -0.0243732333 -0.014573277
  endloop
 endfacet

 facet normal -0.216483161 -0.797548234 -0.563073575
  outer loop
  vertex -0.0255987905 -0.0251782667 -0.0137612643
  vertex -0.0264525767 -0.0243732333 -0.014573277
  vertex -0.0256861858 -0.0245066416 -0.0146789663
  endloop
 endfacet

 facet normal -0.195648909 -0.423032612 -0.884740055
  outer loop
  vertex -0.0256861858 -0.0245066416 -0.0146789663
  vertex -0.0264525767 -0.0243732333 -0.014573277
  vertex -0.0256861858 -0.0236602034 -0.0150836855
  endloop
 endfacet

 facet normal -0.30896014 -0.311239243 -0.898706794
  outer loop
  vertex -0.0256861858 -0.0236602034 -0.0150836855
  vertex -0.0264525767 -0.0243732333 -0.014573277
  vertex -0.0266609825 -0.0236602034 -0.0147485668
  endloop
 endfacet

 facet normal -0.321572661 -0.147067368 -0.935394228
  outer loop
  vertex -0.0256861858 -0.0236602034 -0.0150836855
  vertex -0.0266609825 -0.0236602034 -0.0147485668
  vertex -0.0256861858 -0.0223813523 -0.0152847525
  endloop
 endfacet

 facet normal -0.352272838 -0.120605513 -0.928093851
  outer loop
  vertex -0.0256861858 -0.0223813523 -0.0152847525
  vertex -0.0266609825 -0.0236602034 -0.0147485668
  vertex -0.0267931931 -0.0223813523 -0.0148645695
  endloop
 endfacet

 facet normal -0.354863137 3.27967355e-05 -0.934918344
  outer loop
  vertex -0.0256861858 -0.0223813523 -0.0152847525
  vertex -0.0267931931 -0.0223813523 -0.0148645695
  vertex -0.0256839469 0.00183864089 -0.0152847525
  endloop
 endfacet

 facet normal -0.571169317 -0.820698619 -0.0148146804
  outer loop
  vertex -0.0259214826 -0.0254772771 -0.0113149183
  vertex -0.0268402547 -0.0248378534 -0.0113149183
  vertex -0.0268335305 -0.0248194523 -0.0125935143
  endloop
 endfacet

 facet normal -0.544482291 -0.837690115 -0.0425930806
  outer loop
  vertex -0.0259214826 -0.0254772771 -0.0113149183
  vertex -0.0268335305 -0.0248194523 -0.0125935143
  vertex -0.0258497726 -0.025458876 -0.0125935143
  endloop
 endfacet

 facet normal -0.533619344 -0.820977449 -0.203092501
  outer loop
  vertex -0.0258497726 -0.025458876 -0.0125935143
  vertex -0.0268335305 -0.0248194523 -0.0125935143
  vertex -0.0266744234 -0.0246078465 -0.0138669554
  endloop
 endfacet

 facet normal -0.91808641 -0.396367282 0.00322654145
  outer loop
  vertex -0.026838012 -0.0248332564 0.00780473556
  vertex -0.0273444559 -0.0236602034 0.00780473556
  vertex -0.0273489393 -0.0236602034 0.00652871793
  endloop
 endfacet

 facet normal -0.918014109 -0.39653635 0.00304216961
  outer loop
  vertex -0.026838012 -0.0248332564 0.00780473556
  vertex -0.0273489393 -0.0236602034 0.00652871793
  vertex -0.0268402547 -0.0248378534 0.00652871793
  endloop
 endfacet

 facet normal -0.91801703 -0.396537602 0.00161367306
  outer loop
  vertex -0.0268402547 -0.0248378534 0.00652871793
  vertex -0.0273489393 -0.0236602034 0.00652871793
  vertex -0.0273511782 -0.0236602034 0.0052552768
  endloop
 endfacet

 facet normal -0.91738236 -0.398007214 0
  outer loop
  vertex -0.0268402547 -0.0248378534 0.00652871793
  vertex -0.0273511782 -0.0236602034 0.0052552768
  vertex -0.0273511782 -0.0236602034 -0.0100414772
  endloop
 endfacet

 facet normal -0.91738236 -0.398007214 0
  outer loop
  vertex -0.0268402547 -0.0248378534 0.00652871793
  vertex -0.0273511782 -0.0236602034 -0.0100414772
  vertex -0.0268402547 -0.0248378534 -0.0113149183
  endloop
 endfacet

 facet normal -0.000832051272 0.998534799 -0.0541074127
  outer loop
  vertex -0.00785083044 0.0211364329 -0.0100440551
  vertex -0.00785083044 0.0210674293 -0.0113174962
  vertex -0.0244111121 0.0210536309 -0.0113174962
  endloop
 endfacet

 facet normal -0.00110976386 0.99872303 -0.0505081937
  outer loop
  vertex -0.00785083044 0.0211364329 -0.0100440551
  vertex -0.0244111121 0.0210536309 -0.0113174962
  vertex -0.0244111121 0.0211180318 -0.0100440551
  endloop
 endfacet

 facet normal -0.912660778 0.337044239 -0.231195837
  outer loop
  vertex -0.0258228816 0.0196919739 -0.0113174962
  vertex -0.0252783429 0.0205476079 -0.0122197326
  vertex -0.0254822634 0.0197195746 -0.0126218712
  endloop
 endfacet

 facet normal -0.940255582 0.24106352 -0.240432754
  outer loop
  vertex -0.0258228816 0.0196919739 -0.0113174962
  vertex -0.0254822634 0.0197195746 -0.0126218712
  vertex -0.0258251242 0.0184131209 -0.0125909355
  endloop
 endfacet

 facet normal -0.940191448 0.24104017 -0.240706727
  outer loop
  vertex -0.0258251242 0.0184131209 -0.0125909355
  vertex -0.0254822634 0.0197195746 -0.0126218712
  vertex -0.0254822634 0.0184453223 -0.0138978884
  endloop
 endfacet

 facet normal -0.940191388 0.241040513 -0.240706682
  outer loop
  vertex -0.0258251242 0.0184131209 -0.0125909355
  vertex -0.0254822634 0.0184453223 -0.0138978884
  vertex -0.0258251242 0.0171388686 -0.0138669554
  endloop
 endfacet

 facet normal -0.913490772 0.231815889 -0.334359288
  outer loop
  vertex -0.0258251242 0.0171388686 -0.0138669554
  vertex -0.0254822634 0.0184453223 -0.0138978884
  vertex -0.0252783429 0.0180405062 -0.0147356791
  endloop
 endfacet

 facet normal -0.909891367 0.203453749 -0.361530483
  outer loop
  vertex -0.0258251242 0.0171388686 -0.0138669554
  vertex -0.0252783429 0.0180405062 -0.0147356791
  vertex -0.0254195184 0.0171388686 -0.0148877716
  endloop
 endfacet

 facet normal -0.918153286 0.154614836 -0.364813238
  outer loop
  vertex -0.0258251242 0.0171388686 -0.0138669554
  vertex -0.0254195184 0.0171388686 -0.0148877716
  vertex -0.0304122549 -0.00325836823 -0.0109669138
  endloop
 endfacet

 facet normal -0.000777975831 0.933639288 -0.358213753
  outer loop
  vertex -0.0244111121 0.0210536309 -0.0113174962
  vertex -0.00785083044 0.0210674293 -0.0113174962
  vertex -0.0244111121 0.0206580125 -0.012348623
  endloop
 endfacet

 facet normal -0.169605017 0.920113087 -0.353024095
  outer loop
  vertex -0.0244111121 0.0210536309 -0.0113174962
  vertex -0.0244111121 0.0206580125 -0.012348623
  vertex -0.0252783429 0.0205476079 -0.0122197326
  endloop
 endfacet

 facet normal -0.190489978 0.72987926 -0.656498194
  outer loop
  vertex -0.0252783429 0.0205476079 -0.0122197326
  vertex -0.0244111121 0.0206580125 -0.012348623
  vertex -0.0244111121 0.0200829897 -0.012987921
  endloop
 endfacet

 facet normal -0.225266799 0.699997783 -0.677685738
  outer loop
  vertex -0.0252783429 0.0205476079 -0.0122197326
  vertex -0.0244111121 0.0200829897 -0.012987921
  vertex -0.0252783429 0.0193147585 -0.0134931719
  endloop
 endfacet

 facet normal -0.839607954 0.39026469 -0.37782526
  outer loop
  vertex -0.0252783429 0.0205476079 -0.0122197326
  vertex -0.0252783429 0.0193147585 -0.0134931719
  vertex -0.0254822634 0.0197195746 -0.0126218712
  endloop
 endfacet

 facet normal -0.756442189 0.0370910577 -0.653008103
  outer loop
  vertex -0.0304122549 -0.00325836823 -0.0109669138
  vertex -0.0267416518 0.00438714586 -0.0147846574
  vertex -0.0267663021 0.00311289332 -0.0148284808
  endloop
 endfacet

 facet normal -0.751436234 0.0305349641 -0.659098744
  outer loop
  vertex -0.0304122549 -0.00325836823 -0.0109669138
  vertex -0.0267663021 0.00311289332 -0.0148284808
  vertex -0.0267909523 0.00183864089 -0.0148594128
  endloop
 endfacet

 facet normal -0.732290626 0.000212796585 -0.680992305
  outer loop
  vertex -0.0304122549 -0.00325836823 -0.0109669138
  vertex -0.0267909523 0.00183864089 -0.0148594128
  vertex -0.0267931931 -0.0223813523 -0.0148645695
  endloop
 endfacet

 facet normal -0.823762894 -0.0406431332 -0.565475702
  outer loop
  vertex -0.0304122549 -0.00325836823 -0.0109669138
  vertex -0.0267931931 -0.0223813523 -0.0148645695
  vertex -0.0303741582 -0.00453262078 -0.0109308241
  endloop
 endfacet

 facet normal -0.791408181 0.0771518424 -0.606399715
  outer loop
  vertex -0.0304122549 -0.00325836823 -0.0109669138
  vertex -0.0254195184 0.0171388686 -0.0148877716
  vertex -0.0267416518 0.00438714586 -0.0147846574
  endloop
 endfacet

 facet normal -0.829642773 -0.0437844619 -0.55657506
  outer loop
  vertex -0.0303741582 -0.00453262078 -0.0109308241
  vertex -0.0267931931 -0.0223813523 -0.0148645695
  vertex -0.0288951602 -0.0192532241 -0.0119774155
  endloop
 endfacet

 facet normal -0.953824759 -0.0751563907 -0.290808856
  outer loop
  vertex -0.0303741582 -0.00453262078 -0.0109308241
  vertex -0.0288951602 -0.0192532241 -0.0119774155
  vertex -0.030645309 -0.00453262078 -0.0100414772
  endloop
 endfacet

 facet normal -0.987250268 -0.101219296 -0.122847982
  outer loop
  vertex -0.030645309 -0.00453262078 -0.0100414772
  vertex -0.0288951602 -0.0192532241 -0.0119774155
  vertex -0.028960146 -0.0194234308 -0.0113149183
  endloop
 endfacet

 facet normal -0.991326809 -0.105482891 -0.0783868134
  outer loop
  vertex -0.030645309 -0.00453262078 -0.0100414772
  vertex -0.028960146 -0.0194234308 -0.0113149183
  vertex -0.0291528646 -0.0185585953 -0.0100414772
  endloop
 endfacet

 facet normal -0.994234443 -0.105792277 -0.0174942967
  outer loop
  vertex -0.030645309 -0.00453262078 -0.0100414772
  vertex -0.0291528646 -0.0185585953 -0.0100414772
  vertex -0.0306677166 -0.00453262078 -0.00876803789
  endloop
 endfacet

 facet normal -0.988950372 -0.13701044 -0.0566157326
  outer loop
  vertex -0.0291528646 -0.0185585953 -0.0100414772
  vertex -0.028960146 -0.0194234308 -0.0113149183
  vertex -0.0290139299 -0.019561436 -0.0100414772
  endloop
 endfacet

 facet normal -0.926653683 -0.375916481 0
  outer loop
  vertex -0.0290139299 -0.019561436 0.0052552768
  vertex -0.0290139299 -0.019561436 -0.0100414772
  vertex -0.0273511782 -0.0236602034 -0.0100414772
  endloop
 endfacet

 facet normal -0.926653683 -0.375916481 0
  outer loop
  vertex -0.0290139299 -0.019561436 0.0052552768
  vertex -0.0273511782 -0.0236602034 -0.0100414772
  vertex -0.0273511782 -0.0236602034 0.0052552768
  endloop
 endfacet

 facet normal -0.926652372 -0.375915974 0.00162885233
  outer loop
  vertex -0.0290139299 -0.019561436 0.0052552768
  vertex -0.0273511782 -0.0236602034 0.0052552768
  vertex -0.0273489393 -0.0236602034 0.00652871793
  endloop
 endfacet

 facet normal -0.926824749 -0.375480056 0.00325725181
  outer loop
  vertex -0.0290139299 -0.019561436 0.0052552768
  vertex -0.0273489393 -0.0236602034 0.00652871793
  vertex -0.0273444559 -0.0236602034 0.00780473556
  endloop
 endfacet

 facet normal -0.210329592 0.691767573 -0.690810561
  outer loop
  vertex -0.0244111121 0.0188087374 -0.0142639391
  vertex -0.0252783429 0.0193147585 -0.0134931719
  vertex -0.0244111121 0.0200829897 -0.012987921
  endloop
 endfacet

 facet normal -0.000153337111 0.707596064 -0.706617236
  outer loop
  vertex -0.0244111121 0.0188087374 -0.0142639391
  vertex -0.0244111121 0.0200829897 -0.012987921
  vertex -0.00785083044 0.0194481649 -0.013627219
  endloop
 endfacet

 facet normal 0 0.705604911 -0.708605528
  outer loop
  vertex -0.0244111121 0.0188087374 -0.0142639391
  vertex -0.00785083044 0.0194481649 -0.013627219
  vertex -0.00785083044 0.0188087374 -0.0142639391
  endloop
 endfacet

 facet normal -0.223199308 0.680520475 -0.697906971
  outer loop
  vertex -0.0244111121 0.0188087374 -0.0142639391
  vertex -0.0252783429 0.0180405062 -0.0147356791
  vertex -0.0252783429 0.0193147585 -0.0134931719
  endloop
 endfacet

 facet normal -0.841183066 0.377515405 -0.38716048
  outer loop
  vertex -0.0252783429 0.0180405062 -0.0147356791
  vertex -0.0254822634 0.0184453223 -0.0138978884
  vertex -0.0252783429 0.0193147585 -0.0134931719
  endloop
 endfacet

 facet normal -0.358662337 0.000231966173 -0.933467448
  outer loop
  vertex -0.0256839469 0.00183864089 -0.0152847525
  vertex -0.0267931931 -0.0223813523 -0.0148645695
  vertex -0.0267909523 0.00183864089 -0.0148594128
  endloop
 endfacet

 facet normal -0.358537018 0.0264278017 -0.933141351
  outer loop
  vertex -0.0256839469 0.00183864089 -0.0152847525
  vertex -0.0267909523 0.00183864089 -0.0148594128
  vertex -0.0256839469 0.00311289332 -0.0152486637
  endloop
 endfacet

 facet normal -0.4231264 0.0368019231 -0.905323029
  outer loop
  vertex -0.0254531335 0.0158646163 -0.0149238594
  vertex -0.0267663021 0.00311289332 -0.0148284808
  vertex -0.0254195184 0.0171388686 -0.0148877716
  endloop
 endfacet

 facet normal -0.449481219 0.0393870734 -0.892421007
  outer loop
  vertex -0.0254195184 0.0171388686 -0.0148877716
  vertex -0.0267663021 0.00311289332 -0.0148284808
  vertex -0.0267416518 0.00438714586 -0.0147846574
  endloop
 endfacet

 facet normal -0.871930122 -0.453613222 -0.184317574
  outer loop
  vertex -0.0266744234 -0.0246078465 -0.0138669554
  vertex -0.0268335305 -0.0248194523 -0.0125935143
  vertex -0.0271674264 -0.0236602034 -0.0138669554
  endloop
 endfacet

 facet normal -0.814404964 -0.423686326 -0.396528184
  outer loop
  vertex -0.0266744234 -0.0246078465 -0.0138669554
  vertex -0.0271674264 -0.0236602034 -0.0138669554
  vertex -0.0264525767 -0.0243732333 -0.014573277
  endloop
 endfacet

 facet normal -0.811662138 -0.351858974 -0.466261685
  outer loop
  vertex -0.0264525767 -0.0243732333 -0.014573277
  vertex -0.0271674264 -0.0236602034 -0.0138669554
  vertex -0.0266609825 -0.0236602034 -0.0147485668
  endloop
 endfacet

 facet normal -0.859335661 -0.133619219 -0.493647814
  outer loop
  vertex -0.0266609825 -0.0236602034 -0.0147485668
  vertex -0.0271674264 -0.0236602034 -0.0138669554
  vertex -0.0267931931 -0.0223813523 -0.0148645695
  endloop
 endfacet

 facet normal -0.862884998 -0.128742486 -0.488727748
  outer loop
  vertex -0.0267931931 -0.0223813523 -0.0148645695
  vertex -0.0271674264 -0.0236602034 -0.0138669554
  vertex -0.0288951602 -0.0192532241 -0.0119774155
  endloop
 endfacet

 facet normal -0.918648958 -0.395061553 -0.00323230959
  outer loop
  vertex -0.0268402547 -0.0248378534 -0.0113149183
  vertex -0.0273511782 -0.0236602034 -0.0100414772
  vertex -0.0273466986 -0.0236602034 -0.0113149183
  endloop
 endfacet

 facet normal -0.918643117 -0.39505896 -0.00483024959
  outer loop
  vertex -0.0268402547 -0.0248378534 -0.0113149183
  vertex -0.0273466986 -0.0236602034 -0.0113149183
  vertex -0.0273399744 -0.0236602034 -0.0125935143
  endloop
 endfacet

 facet normal -0.916317105 -0.400313824 -0.0105793169
  outer loop
  vertex -0.0268402547 -0.0248378534 -0.0113149183
  vertex -0.0273399744 -0.0236602034 -0.0125935143
  vertex -0.0268335305 -0.0248194523 -0.0125935143
  endloop
 endfacet

 facet normal -0.909384966 -0.397285372 -0.12322019
  outer loop
  vertex -0.0268335305 -0.0248194523 -0.0125935143
  vertex -0.0273399744 -0.0236602034 -0.0125935143
  vertex -0.0271674264 -0.0236602034 -0.0138669554
  endloop
 endfacet

 facet normal -0.000258581771 0.930834234 -0.36544165
  outer loop
  vertex -0.00785083044 0.0210674293 -0.0113174962
  vertex -0.00785083044 0.0206626132 -0.012348623
  vertex -0.0244111121 0.0206580125 -0.012348623
  endloop
 endfacet

 facet normal -0.850135207 0.372595012 -0.372079551
  outer loop
  vertex -0.0254822634 0.0197195746 -0.0126218712
  vertex -0.0252783429 0.0193147585 -0.0134931719
  vertex -0.0254822634 0.0184453223 -0.0138978884
  endloop
 endfacet

 facet normal -0.000206539218 0.743493259 -0.668743491
  outer loop
  vertex -0.0244111121 0.0206580125 -0.012348623
  vertex -0.00785083044 0.0206626132 -0.012348623
  vertex -0.0244111121 0.0200829897 -0.012987921
  endloop
 endfacet

 facet normal 0 0.740836799 -0.6716851
  outer loop
  vertex -0.0244111121 0.0200829897 -0.012987921
  vertex -0.00785083044 0.0206626132 -0.012348623
  vertex -0.00785083044 0.0200829897 -0.012987921
  endloop
 endfacet

 facet normal 0 0.709584832 -0.704620004
  outer loop
  vertex -0.0244111121 0.0200829897 -0.012987921
  vertex -0.00785083044 0.0200829897 -0.012987921
  vertex -0.00785083044 0.0194481649 -0.013627219
  endloop
 endfacet

 facet normal -0.940113425 -0.296378702 -0.168364286
  outer loop
  vertex -0.0288951602 -0.0192532241 -0.0119774155
  vertex -0.0271674264 -0.0236602034 -0.0138669554
  vertex -0.028960146 -0.0194234308 -0.0113149183
  endloop
 endfacet

 facet normal -0.938649535 -0.320563495 -0.127185494
  outer loop
  vertex -0.028960146 -0.0194234308 -0.0113149183
  vertex -0.0271674264 -0.0236602034 -0.0138669554
  vertex -0.0273399744 -0.0236602034 -0.0125935143
  endloop
 endfacet

 facet normal -0.938771904 -0.336037695 -0.0760651901
  outer loop
  vertex -0.028960146 -0.0194234308 -0.0113149183
  vertex -0.0273399744 -0.0236602034 -0.0125935143
  vertex -0.0290139299 -0.019561436 -0.0100414772
  endloop
 endfacet

 facet normal -0.92681694 -0.375481844 -0.00487322826
  outer loop
  vertex -0.0290139299 -0.019561436 -0.0100414772
  vertex -0.0273399744 -0.0236602034 -0.0125935143
  vertex -0.0273466986 -0.0236602034 -0.0113149183
  endloop
 endfacet

 facet normal -0.926648736 -0.375914514 -0.00326045696
  outer loop
  vertex -0.0290139299 -0.019561436 -0.0100414772
  vertex -0.0273466986 -0.0236602034 -0.0113149183
  vertex -0.0273511782 -0.0236602034 -0.0100414772
  endloop
 endfacet

endsolid AssimpScene
