solid AssimpScene
 facet normal -1 0 0
  outer loop
  vertex -0.074715063 -0.0218659677 -0.00300000003
  vertex -0.074715063 -0.0218676291 0.00809318665
  vertex -0.074715063 -0.0218676291 0.0149999997
  endloop
 endfacet

 facet normal -1 0 0
  outer loop
  vertex -0.074715063 -0.0218659677 -0.00300000003
  vertex -0.074715063 -0.0218676291 0.0149999997
  vertex -0.074715063 -0.0145497853 0.0149999997
  endloop
 endfacet

 facet normal -1 0 0
  outer loop
  vertex -0.074715063 -0.0218659677 -0.00300000003
  vertex -0.074715063 -0.0145497853 0.0149999997
  vertex -0.074715063 -0.0145497853 -0.00300000003
  endloop
 endfacet

 facet normal 0 0 -1
  outer loop
  vertex -0.074715063 -0.0218659677 -0.00300000003
  vertex -0.074715063 -0.0145497853 -0.00300000003
  vertex -0.0447773635 -0.00549846096 -0.00300000003
  endloop
 endfacet

 facet normal 0 0 -1
  outer loop
  vertex -0.074715063 -0.0218659677 -0.00300000003
  vertex -0.0447773635 -0.00549846096 -0.00300000003
  vertex -0.0398155525 -0.00488850195 -0.00300000003
  endloop
 endfacet

 facet normal 0 0 -1
  outer loop
  vertex -0.074715063 -0.0218659677 -0.00300000003
  vertex -0.0398155525 -0.00488850195 -0.00300000003
  vertex -0.0341307297 -0.00609678542 -0.00300000003
  endloop
 endfacet

 facet normal 0 0 -1
  outer loop
  vertex -0.074715063 -0.0218659677 -0.00300000003
  vertex -0.0341307297 -0.00609678542 -0.00300000003
  vertex -0.0341307297 -0.0126916543 -0.00300000003
  endloop
 endfacet

 facet normal 0.22049205 -0.975388765 -0.00014613368
  outer loop
  vertex -0.074715063 -0.0218659677 -0.00300000003
  vertex -0.0341307297 -0.0126916543 -0.00300000003
  vertex -0.074715063 -0.0218676291 0.00809318665
  endloop
 endfacet

 facet normal 0.220530033 -0.975380182 0
  outer loop
  vertex -0.074715063 -0.0218676291 0.00809318665
  vertex -0.0341307297 -0.0126916543 -0.00300000003
  vertex -0.0341307297 -0.0126916543 0.0149999997
  endloop
 endfacet

 facet normal 0.220530033 -0.975380182 0
  outer loop
  vertex -0.074715063 -0.0218676291 0.00809318665
  vertex -0.0341307297 -0.0126916543 0.0149999997
  vertex -0.074715063 -0.0218676291 0.0149999997
  endloop
 endfacet

 facet normal -0.289400965 0.957207918 0
  outer loop
  vertex -0.074715063 -0.0145497853 -0.00300000003
  vertex -0.074715063 -0.0145497853 0.0149999997
  vertex -0.0447773635 -0.00549846096 0.0149999997
  endloop
 endfacet

 facet normal -0.289400965 0.957207918 0
  outer loop
  vertex -0.074715063 -0.0145497853 -0.00300000003
  vertex -0.0447773635 -0.00549846096 0.0149999997
  vertex -0.0447773635 -0.00549846096 -0.00300000003
  endloop
 endfacet

 facet normal 1 0 0
  outer loop
  vertex -0.0341307297 -0.0126916543 -0.00300000003
  vertex -0.0341307297 -0.00609678542 -0.00300000003
  vertex -0.0341307297 -0.00609678542 0.0149999997
  endloop
 endfacet

 facet normal 1 0 0
  outer loop
  vertex -0.0341307297 -0.0126916543 -0.00300000003
  vertex -0.0341307297 -0.00609678542 0.0149999997
  vertex -0.0341307297 -0.0126916543 0.0149999997
  endloop
 endfacet

 facet normal 0 0 1
  outer loop
  vertex -0.074715063 -0.0218676291 0.0149999997
  vertex -0.0341307297 -0.0126916543 0.0149999997
  vertex -0.0341307297 -0.00609678542 0.0149999997
  endloop
 endfacet

 facet normal 0 0 1
  outer loop
  vertex -0.074715063 -0.0218676291 0.0149999997
  vertex -0.0341307297 -0.00609678542 0.0149999997
  vertex -0.0398155525 -0.00488850195 0.0149999997
  endloop
 endfacet

 facet normal 0 0 1
  outer loop
  vertex -0.074715063 -0.0218676291 0.0149999997
  vertex -0.0398155525 -0.00488850195 0.0149999997
  vertex -0.0447773635 -0.00549846096 0.0149999997
  endloop
 endfacet

 facet normal 0 0 1
  outer loop
  vertex -0.074715063 -0.0218676291 0.0149999997
  vertex -0.0447773635 -0.00549846096 0.0149999997
  vertex -0.074715063 -0.0145497853 0.0149999997
  endloop
 endfacet

 facet normal -0.122012287 0.992528617 0
  outer loop
  vertex -0.0447773635 -0.00549846096 -0.00300000003
  vertex -0.0447773635 -0.00549846096 0.0149999997
  vertex -0.0398155525 -0.00488850195 0.0149999997
  endloop
 endfacet

 facet normal -0.122012287 0.992528617 0
  outer loop
  vertex -0.0447773635 -0.00549846096 -0.00300000003
  vertex -0.0398155525 -0.00488850195 0.0149999997
  vertex -0.0398155525 -0.00488850195 -0.00300000003
  endloop
 endfacet

 facet normal 0.207901284 0.978149831 0
  outer loop
  vertex -0.0341307297 -0.00609678542 -0.00300000003
  vertex -0.0398155525 -0.00488850195 -0.00300000003
  vertex -0.0398155525 -0.00488850195 0.0149999997
  endloop
 endfacet

 facet normal 0.207901284 0.978149831 0
  outer loop
  vertex -0.0341307297 -0.00609678542 -0.00300000003
  vertex -0.0398155525 -0.00488850195 0.0149999997
  vertex -0.0341307297 -0.00609678542 0.0149999997
  endloop
 endfacet

endsolid AssimpScene
