solid AssimpScene
 facet normal -1 0 0
  outer loop
  vertex -0.0338745825 0.00610702718 -0.00299999979
  vertex -0.0338745825 0.00610702718 -0.00283437734
  vertex -0.0338745825 0.00610824721 0.0149999997
  endloop
 endfacet

 facet normal -1 0 0
  outer loop
  vertex -0.0338745825 0.00610702718 -0.00299999979
  vertex -0.0338745825 0.00610824721 0.0149999997
  vertex -0.0338745825 0.0126328887 0.0149999997
  endloop
 endfacet

 facet normal -1 0 0
  outer loop
  vertex -0.0338745825 0.00610702718 -0.00299999979
  vertex -0.0338745825 0.0126328887 0.0149999997
  vertex -0.0338745825 0.0126328887 -0.00299999979
  endloop
 endfacet

 facet normal 0 0 -1
  outer loop
  vertex -0.0338745825 0.00610702718 -0.00299999979
  vertex -0.0338745825 0.0126328887 -0.00299999979
  vertex -0.0320070125 0.0134467911 -0.00299999979
  endloop
 endfacet

 facet normal 0 0 -1
  outer loop
  vertex -0.0338745825 0.00610702718 -0.00299999979
  vertex -0.0320070125 0.0134467911 -0.00299999979
  vertex -0.031112412 0.0137603935 -0.00299999979
  endloop
 endfacet

 facet normal 0 0 -1
  outer loop
  vertex -0.0338745825 0.00610702718 -0.00299999979
  vertex -0.031112412 0.0137603935 -0.00299999979
  vertex -0.0301929619 0.0139971208 -0.00299999979
  endloop
 endfacet

 facet normal 0 0 -1
  outer loop
  vertex -0.0338745825 0.00610702718 -0.00299999979
  vertex -0.0301929619 0.0139971208 -0.00299999979
  vertex -0.0292582214 0.0141520919 -0.00299999979
  endloop
 endfacet

 facet normal 0 0 -1
  outer loop
  vertex -0.0338745825 0.00610702718 -0.00299999979
  vertex -0.0292582214 0.0141520919 -0.00299999979
  vertex -0.0283120088 0.014226527 -0.00299999979
  endloop
 endfacet

 facet normal 0 0 -1
  outer loop
  vertex -0.0338745825 0.00610702718 -0.00299999979
  vertex -0.0283120088 0.014226527 -0.00299999979
  vertex -0.0273638871 0.0142204259 -0.00299999979
  endloop
 endfacet

 facet normal 0 0 -1
  outer loop
  vertex -0.0338745825 0.00610702718 -0.00299999979
  vertex -0.0273638871 0.0142204259 -0.00299999979
  vertex -0.0264195874 0.0141313476 -0.00299999979
  endloop
 endfacet

 facet normal 0 0 -1
  outer loop
  vertex -0.0338745825 0.00610702718 -0.00299999979
  vertex -0.0264195874 0.0141313476 -0.00299999979
  vertex -0.0143482275 0.0123497928 -0.00299999979
  endloop
 endfacet

 facet normal 0 0 -1
  outer loop
  vertex -0.0338745825 0.00610702718 -0.00299999979
  vertex -0.0143482275 0.0123497928 -0.00299999979
  vertex -0.0143482275 0.00176296069 -0.00299999979
  endloop
 endfacet

 facet normal 0 0 -1
  outer loop
  vertex -0.0338745825 0.00610702718 -0.00299999979
  vertex -0.0143482275 0.00176296069 -0.00299999979
  vertex -0.0248119831 0.00304787653 -0.00299999979
  endloop
 endfacet

 facet normal -0.319827765 -0.947475672 0
  outer loop
  vertex -0.0338745825 0.00610702718 -0.00299999979
  vertex -0.0248119831 0.00304787653 -0.00299999979
  vertex -0.0248119831 0.00304787653 0.0149999997
  endloop
 endfacet

 facet normal -0.319827765 -0.947475672 0
  outer loop
  vertex -0.0338745825 0.00610702718 -0.00299999979
  vertex -0.0248119831 0.00304787653 0.0149999997
  vertex -0.0338745825 0.00610702718 -0.00283437734
  endloop
 endfacet

 facet normal -0.319942296 -0.947437048 6.48274581e-05
  outer loop
  vertex -0.0338745825 0.00610702718 -0.00283437734
  vertex -0.0248119831 0.00304787653 0.0149999997
  vertex -0.0338745825 0.00610824721 0.0149999997
  endloop
 endfacet

 facet normal -0.399516284 0.916726112 0
  outer loop
  vertex -0.0338745825 0.0126328887 -0.00299999979
  vertex -0.0338745825 0.0126328887 0.0149999997
  vertex -0.0320070125 0.0134467911 0.0149999997
  endloop
 endfacet

 facet normal -0.399516284 0.916726112 0
  outer loop
  vertex -0.0338745825 0.0126328887 -0.00299999979
  vertex -0.0320070125 0.0134467911 0.0149999997
  vertex -0.0320070125 0.0134467911 -0.00299999979
  endloop
 endfacet

 facet normal -0.121881306 -0.992544651 0
  outer loop
  vertex -0.0248119831 0.00304787653 -0.00299999979
  vertex -0.0143482275 0.00176296069 -0.00299999979
  vertex -0.0143482275 0.00176296069 0.0149999997
  endloop
 endfacet

 facet normal -0.121881306 -0.992544651 0
  outer loop
  vertex -0.0248119831 0.00304787653 -0.00299999979
  vertex -0.0143482275 0.00176296069 0.0149999997
  vertex -0.0248119831 0.00304787653 0.0149999997
  endloop
 endfacet

 facet normal 0 0 1
  outer loop
  vertex -0.0338745825 0.00610824721 0.0149999997
  vertex -0.0248119831 0.00304787653 0.0149999997
  vertex -0.0143482275 0.00176296069 0.0149999997
  endloop
 endfacet

 facet normal 0 0 1
  outer loop
  vertex -0.0338745825 0.00610824721 0.0149999997
  vertex -0.0143482275 0.00176296069 0.0149999997
  vertex -0.0143482275 0.0123510128 0.0149999997
  endloop
 endfacet

 facet normal 0 0 1
  outer loop
  vertex -0.0338745825 0.00610824721 0.0149999997
  vertex -0.0143482275 0.0123510128 0.0149999997
  vertex -0.0264195874 0.0141313476 0.0149999997
  endloop
 endfacet

 facet normal 0 0 1
  outer loop
  vertex -0.0338745825 0.00610824721 0.0149999997
  vertex -0.0264195874 0.0141313476 0.0149999997
  vertex -0.0273638871 0.0142204259 0.0149999997
  endloop
 endfacet

 facet normal 0 0 1
  outer loop
  vertex -0.0338745825 0.00610824721 0.0149999997
  vertex -0.0273638871 0.0142204259 0.0149999997
  vertex -0.0283120088 0.014226527 0.0149999997
  endloop
 endfacet

 facet normal 0 0 1
  outer loop
  vertex -0.0338745825 0.00610824721 0.0149999997
  vertex -0.0283120088 0.014226527 0.0149999997
  vertex -0.0292582214 0.0141520919 0.0149999997
  endloop
 endfacet

 facet normal 0 0 1
  outer loop
  vertex -0.0338745825 0.00610824721 0.0149999997
  vertex -0.0292582214 0.0141520919 0.0149999997
  vertex -0.0301929619 0.0139971208 0.0149999997
  endloop
 endfacet

 facet normal 0 0 1
  outer loop
  vertex -0.0338745825 0.00610824721 0.0149999997
  vertex -0.0301929619 0.0139971208 0.0149999997
  vertex -0.031112412 0.0137603935 0.0149999997
  endloop
 endfacet

 facet normal 0 0 1
  outer loop
  vertex -0.0338745825 0.00610824721 0.0149999997
  vertex -0.031112412 0.0137603935 0.0149999997
  vertex -0.0320070125 0.0134467911 0.0149999997
  endloop
 endfacet

 facet normal 0 0 1
  outer loop
  vertex -0.0338745825 0.00610824721 0.0149999997
  vertex -0.0320070125 0.0134467911 0.0149999997
  vertex -0.0338745825 0.0126328887 0.0149999997
  endloop
 endfacet

 facet normal -0.330813676 0.943696022 0
  outer loop
  vertex -0.0320070125 0.0134467911 -0.00299999979
  vertex -0.0320070125 0.0134467911 0.0149999997
  vertex -0.031112412 0.0137603935 0.0149999997
  endloop
 endfacet

 facet normal -0.330813676 0.943696022 0
  outer loop
  vertex -0.0320070125 0.0134467911 -0.00299999979
  vertex -0.031112412 0.0137603935 0.0149999997
  vertex -0.031112412 0.0137603935 -0.00299999979
  endloop
 endfacet

 facet normal 1 0 0
  outer loop
  vertex -0.0143482275 0.00176296069 -0.00299999979
  vertex -0.0143482275 0.0123497928 -0.00299999979
  vertex -0.0143482275 0.0123510128 0.00823414233
  endloop
 endfacet

 facet normal 1 0 0
  outer loop
  vertex -0.0143482275 0.00176296069 -0.00299999979
  vertex -0.0143482275 0.0123510128 0.00823414233
  vertex -0.0143482275 0.0123510128 0.0149999997
  endloop
 endfacet

 facet normal 1 0 0
  outer loop
  vertex -0.0143482275 0.00176296069 -0.00299999979
  vertex -0.0143482275 0.0123510128 0.0149999997
  vertex -0.0143482275 0.00176296069 0.0149999997
  endloop
 endfacet

 facet normal -0.249334797 0.968417466 0
  outer loop
  vertex -0.031112412 0.0137603935 -0.00299999979
  vertex -0.031112412 0.0137603935 0.0149999997
  vertex -0.0301929619 0.0139971208 0.0149999997
  endloop
 endfacet

 facet normal -0.249334797 0.968417466 0
  outer loop
  vertex -0.031112412 0.0137603935 -0.00299999979
  vertex -0.0301929619 0.0139971208 0.0149999997
  vertex -0.0301929619 0.0139971208 -0.00299999979
  endloop
 endfacet

 facet normal 0.146003768 0.989284039 -0.000107414635
  outer loop
  vertex -0.0143482275 0.0123497928 -0.00299999979
  vertex -0.0264195874 0.0141313476 -0.00299999979
  vertex -0.0143482275 0.0123510128 0.00823414233
  endloop
 endfacet

 facet normal 0.145905927 0.989298463 0
  outer loop
  vertex -0.0143482275 0.0123510128 0.0149999997
  vertex -0.0143482275 0.0123510128 0.00823414233
  vertex -0.0264195874 0.0141313476 -0.00299999979
  endloop
 endfacet

 facet normal 0.145905927 0.989298463 0
  outer loop
  vertex -0.0143482275 0.0123510128 0.0149999997
  vertex -0.0264195874 0.0141313476 -0.00299999979
  vertex -0.0264195874 0.0141313476 0.0149999997
  endloop
 endfacet

 facet normal -0.1635575 0.986533821 0
  outer loop
  vertex -0.0301929619 0.0139971208 -0.00299999979
  vertex -0.0301929619 0.0139971208 0.0149999997
  vertex -0.0292582214 0.0141520919 0.0149999997
  endloop
 endfacet

 facet normal -0.1635575 0.986533821 0
  outer loop
  vertex -0.0301929619 0.0139971208 -0.00299999979
  vertex -0.0292582214 0.0141520919 0.0149999997
  vertex -0.0292582214 0.0141520919 -0.00299999979
  endloop
 endfacet

 facet normal 0.0939152241 0.995580196 0
  outer loop
  vertex -0.0264195874 0.0141313476 -0.00299999979
  vertex -0.0273638871 0.0142204259 -0.00299999979
  vertex -0.0273638871 0.0142204259 0.0149999997
  endloop
 endfacet

 facet normal 0.0939152241 0.995580196 0
  outer loop
  vertex -0.0264195874 0.0141313476 -0.00299999979
  vertex -0.0273638871 0.0142204259 0.0149999997
  vertex -0.0264195874 0.0141313476 0.0149999997
  endloop
 endfacet

 facet normal -0.0784242526 0.996920168 0
  outer loop
  vertex -0.0292582214 0.0141520919 -0.00299999979
  vertex -0.0292582214 0.0141520919 0.0149999997
  vertex -0.0283120088 0.014226527 0.0149999997
  endloop
 endfacet

 facet normal -0.0784242526 0.996920168 0
  outer loop
  vertex -0.0292582214 0.0141520919 -0.00299999979
  vertex -0.0283120088 0.014226527 0.0149999997
  vertex -0.0283120088 0.014226527 -0.00299999979
  endloop
 endfacet

 facet normal 0.00643521687 0.999979258 0
  outer loop
  vertex -0.0273638871 0.0142204259 -0.00299999979
  vertex -0.0283120088 0.014226527 -0.00299999979
  vertex -0.0283120088 0.014226527 0.0149999997
  endloop
 endfacet

 facet normal 0.00643521687 0.999979258 0
  outer loop
  vertex -0.0273638871 0.0142204259 -0.00299999979
  vertex -0.0283120088 0.014226527 0.0149999997
  vertex -0.0273638871 0.0142204259 0.0149999997
  endloop
 endfacet

endsolid AssimpScene
