solid AssimpScene
 facet normal 0 0 -1
  outer loop
  vertex -0.0139927026 -0.0124691492 -0.00300000003
  vertex -0.0139927026 -0.0108865378 -0.00300000003
  vertex 0.00776850432 -0.00323218782 -0.00300000003
  endloop
 endfacet

 facet normal 0 0 -1
  outer loop
  vertex -0.0139927026 -0.0124691492 -0.00300000003
  vertex 0.00776850432 -0.00323218782 -0.00300000003
  vertex 0.0103839524 -0.00323218782 -0.00300000003
  endloop
 endfacet

 facet normal 0 0 -1
  outer loop
  vertex -0.0139927026 -0.0124691492 -0.00300000003
  vertex 0.0103839524 -0.00323218782 -0.00300000003
  vertex 0.000253859704 -0.0103240497 -0.00300000003
  endloop
 endfacet

 facet normal 0 0 -1
  outer loop
  vertex -0.0139927026 -0.0124691492 -0.00300000003
  vertex 0.000253859704 -0.0103240497 -0.00300000003
  vertex -0.000855796563 -0.0110354898 -0.00300000003
  endloop
 endfacet

 facet normal 0 0 -1
  outer loop
  vertex -0.0139927026 -0.0124691492 -0.00300000003
  vertex -0.000855796563 -0.0110354898 -0.00300000003
  vertex -0.00201795413 -0.0116557945 -0.00300000003
  endloop
 endfacet

 facet normal 0 0 -1
  outer loop
  vertex -0.0139927026 -0.0124691492 -0.00300000003
  vertex -0.00201795413 -0.0116557945 -0.00300000003
  vertex -0.00323022157 -0.0121781053 -0.00300000003
  endloop
 endfacet

 facet normal 0 0 -1
  outer loop
  vertex -0.0139927026 -0.0124691492 -0.00300000003
  vertex -0.00323022157 -0.0121781053 -0.00300000003
  vertex -0.00447828975 -0.012600462 -0.00300000003
  endloop
 endfacet

 facet normal 0 0 -1
  outer loop
  vertex -0.0139927026 -0.0124691492 -0.00300000003
  vertex -0.00447828975 -0.012600462 -0.00300000003
  vertex -0.00575976307 -0.0129199242 -0.00300000003
  endloop
 endfacet

 facet normal 0 0 -1
  outer loop
  vertex -0.0139927026 -0.0124691492 -0.00300000003
  vertex -0.00575976307 -0.0129199242 -0.00300000003
  vertex -0.00706032803 -0.0131345317 -0.00300000003
  endloop
 endfacet

 facet normal 0 0 -1
  outer loop
  vertex -0.0139927026 -0.0124691492 -0.00300000003
  vertex -0.00706032803 -0.0131345317 -0.00300000003
  vertex -0.00837521069 -0.0132423257 -0.00300000003
  endloop
 endfacet

 facet normal 0 0 -1
  outer loop
  vertex -0.0139927026 -0.0124691492 -0.00300000003
  vertex -0.00837521069 -0.0132423257 -0.00300000003
  vertex -0.00969486777 -0.0132433055 -0.00300000003
  endloop
 endfacet

 facet normal 0 0 -1
  outer loop
  vertex -0.0139927026 -0.0124691492 -0.00300000003
  vertex -0.00969486777 -0.0132433055 -0.00300000003
  vertex -0.0110097546 -0.0131364921 -0.00300000003
  endloop
 endfacet

 facet normal 0 0 -1
  outer loop
  vertex -0.0139927026 -0.0124691492 -0.00300000003
  vertex -0.0110097546 -0.0131364921 -0.00300000003
  vertex -0.0123103159 -0.0129228635 -0.00300000003
  endloop
 endfacet

 facet normal 0 0 -1
  outer loop
  vertex -0.0139927026 -0.0124691492 -0.00300000003
  vertex -0.0123103159 -0.0129228635 -0.00300000003
  vertex -0.0135917934 -0.012604381 -0.00300000003
  endloop
 endfacet

 facet normal -0.31962043 -0.947545707 0
  outer loop
  vertex -0.0139927026 -0.0124691492 -0.00300000003
  vertex -0.0135917934 -0.012604381 -0.00300000003
  vertex -0.0135917934 -0.012604381 0.0149999997
  endloop
 endfacet

 facet normal -0.31962043 -0.947545707 0
  outer loop
  vertex -0.0139927026 -0.0124691492 -0.00300000003
  vertex -0.0135917934 -0.012604381 0.0149999997
  vertex -0.0139927026 -0.0124691492 0.0149999997
  endloop
 endfacet

 facet normal -1 0 0
  outer loop
  vertex -0.0139927026 -0.0124691492 -0.00300000003
  vertex -0.0139927026 -0.0124691492 0.0149999997
  vertex -0.0139927026 -0.0108865378 0.0149999997
  endloop
 endfacet

 facet normal -1 0 0
  outer loop
  vertex -0.0139927026 -0.0124691492 -0.00300000003
  vertex -0.0139927026 -0.0108865378 0.0149999997
  vertex -0.0139927026 -0.0108865378 -0.00300000003
  endloop
 endfacet

 facet normal -0.331814736 0.943344533 0
  outer loop
  vertex -0.0139927026 -0.0108865378 -0.00300000003
  vertex -0.0139927026 -0.0108865378 0.0149999997
  vertex 0.00776850432 -0.00323218782 0.0149999997
  endloop
 endfacet

 facet normal -0.331814736 0.943344533 0
  outer loop
  vertex -0.0139927026 -0.0108865378 -0.00300000003
  vertex 0.00776850432 -0.00323218782 0.0149999997
  vertex 0.00776850432 -0.00323218782 -0.00300000003
  endloop
 endfacet

 facet normal -0.241190434 -0.97047776 0
  outer loop
  vertex -0.0135917934 -0.012604381 -0.00300000003
  vertex -0.0123103159 -0.0129228635 -0.00300000003
  vertex -0.0123103159 -0.0129228635 0.0149999997
  endloop
 endfacet

 facet normal -0.241190434 -0.97047776 0
  outer loop
  vertex -0.0135917934 -0.012604381 -0.00300000003
  vertex -0.0123103159 -0.0129228635 0.0149999997
  vertex -0.0135917934 -0.012604381 0.0149999997
  endloop
 endfacet

 facet normal 0 0 1
  outer loop
  vertex -0.0139927026 -0.0124691492 0.0149999997
  vertex -0.0135917934 -0.012604381 0.0149999997
  vertex -0.0123103159 -0.0129228635 0.0149999997
  endloop
 endfacet

 facet normal 0 0 1
  outer loop
  vertex -0.0139927026 -0.0124691492 0.0149999997
  vertex -0.0123103159 -0.0129228635 0.0149999997
  vertex -0.0110097546 -0.0131364921 0.0149999997
  endloop
 endfacet

 facet normal 0 0 1
  outer loop
  vertex -0.0139927026 -0.0124691492 0.0149999997
  vertex -0.0110097546 -0.0131364921 0.0149999997
  vertex -0.00969486777 -0.0132433055 0.0149999997
  endloop
 endfacet

 facet normal 0 0 1
  outer loop
  vertex -0.0139927026 -0.0124691492 0.0149999997
  vertex -0.00969486777 -0.0132433055 0.0149999997
  vertex -0.00837521069 -0.0132423257 0.0149999997
  endloop
 endfacet

 facet normal 0 0 1
  outer loop
  vertex -0.0139927026 -0.0124691492 0.0149999997
  vertex -0.00837521069 -0.0132423257 0.0149999997
  vertex -0.00706032803 -0.0131345317 0.0149999997
  endloop
 endfacet

 facet normal 0 0 1
  outer loop
  vertex -0.0139927026 -0.0124691492 0.0149999997
  vertex -0.00706032803 -0.0131345317 0.0149999997
  vertex -0.00575976307 -0.0129199242 0.0149999997
  endloop
 endfacet

 facet normal 0 0 1
  outer loop
  vertex -0.0139927026 -0.0124691492 0.0149999997
  vertex -0.00575976307 -0.0129199242 0.0149999997
  vertex -0.00447828975 -0.012600462 0.0149999997
  endloop
 endfacet

 facet normal 0 0 1
  outer loop
  vertex -0.0139927026 -0.0124691492 0.0149999997
  vertex -0.00447828975 -0.012600462 0.0149999997
  vertex -0.00323022157 -0.0121781053 0.0149999997
  endloop
 endfacet

 facet normal 0 0 1
  outer loop
  vertex -0.0139927026 -0.0124691492 0.0149999997
  vertex -0.00323022157 -0.0121781053 0.0149999997
  vertex -0.00201795413 -0.0116557945 0.0149999997
  endloop
 endfacet

 facet normal 0 0 1
  outer loop
  vertex -0.0139927026 -0.0124691492 0.0149999997
  vertex -0.00201795413 -0.0116557945 0.0149999997
  vertex -0.000855796563 -0.0110354898 0.0149999997
  endloop
 endfacet

 facet normal 0 0 1
  outer loop
  vertex -0.0139927026 -0.0124691492 0.0149999997
  vertex -0.000855796563 -0.0110354898 0.0149999997
  vertex 0.000253859704 -0.0103240497 0.0149999997
  endloop
 endfacet

 facet normal 0 0 1
  outer loop
  vertex -0.0139927026 -0.0124691492 0.0149999997
  vertex 0.000253859704 -0.0103240497 0.0149999997
  vertex 0.0103839524 -0.00323218782 0.0149999997
  endloop
 endfacet

 facet normal 0 0 1
  outer loop
  vertex -0.0139927026 -0.0124691492 0.0149999997
  vertex 0.0103839524 -0.00323218782 0.0149999997
  vertex 0.00776850432 -0.00323218782 0.0149999997
  endloop
 endfacet

 facet normal 0 0 1
  outer loop
  vertex -0.0139927026 -0.0124691492 0.0149999997
  vertex 0.00776850432 -0.00323218782 0.0149999997
  vertex -0.0139927026 -0.0108865378 0.0149999997
  endloop
 endfacet

 facet normal 0 1 0
  outer loop
  vertex 0.00776850432 -0.00323218782 -0.00300000003
  vertex 0.00776850432 -0.00323218782 0.0149999997
  vertex 0.0103839524 -0.00323218782 0.0149999997
  endloop
 endfacet

 facet normal 0 1 0
  outer loop
  vertex 0.00776850432 -0.00323218782 -0.00300000003
  vertex 0.0103839524 -0.00323218782 0.0149999997
  vertex 0.0103839524 -0.00323218782 -0.00300000003
  endloop
 endfacet

 facet normal -0.162086308 -0.98677659 0
  outer loop
  vertex -0.0123103159 -0.0129228635 -0.00300000003
  vertex -0.0110097546 -0.0131364921 -0.00300000003
  vertex -0.0110097546 -0.0131364921 0.0149999997
  endloop
 endfacet

 facet normal -0.162086308 -0.98677659 0
  outer loop
  vertex -0.0123103159 -0.0129228635 -0.00300000003
  vertex -0.0110097546 -0.0131364921 0.0149999997
  vertex -0.0123103159 -0.0129228635 0.0149999997
  endloop
 endfacet

 facet normal 0.57350564 -0.819201708 0
  outer loop
  vertex 0.0103839524 -0.00323218782 -0.00300000003
  vertex 0.0103839524 -0.00323218782 0.0149999997
  vertex 0.000253859704 -0.0103240497 0.0149999997
  endloop
 endfacet

 facet normal 0.57350564 -0.819201708 0
  outer loop
  vertex 0.0103839524 -0.00323218782 -0.00300000003
  vertex 0.000253859704 -0.0103240497 0.0149999997
  vertex 0.000253859704 -0.0103240497 -0.00300000003
  endloop
 endfacet

 facet normal -0.0809674561 -0.996716738 0
  outer loop
  vertex -0.0110097546 -0.0131364921 -0.00300000003
  vertex -0.00969486777 -0.0132433055 -0.00300000003
  vertex -0.00969486777 -0.0132433055 0.0149999997
  endloop
 endfacet

 facet normal -0.0809674561 -0.996716738 0
  outer loop
  vertex -0.0110097546 -0.0131364921 -0.00300000003
  vertex -0.00969486777 -0.0132433055 0.0149999997
  vertex -0.0110097546 -0.0131364921 0.0149999997
  endloop
 endfacet

 facet normal 0.539731681 -0.841837108 0
  outer loop
  vertex 0.000253859704 -0.0103240497 -0.00300000003
  vertex 0.000253859704 -0.0103240497 0.0149999997
  vertex -0.000855796563 -0.0110354898 0.0149999997
  endloop
 endfacet

 facet normal 0.539731681 -0.841837108 0
  outer loop
  vertex 0.000253859704 -0.0103240497 -0.00300000003
  vertex -0.000855796563 -0.0110354898 0.0149999997
  vertex -0.000855796563 -0.0110354898 -0.00300000003
  endloop
 endfacet

 facet normal 0.000742559438 -0.999999821 0
  outer loop
  vertex -0.00969486777 -0.0132433055 -0.00300000003
  vertex -0.00837521069 -0.0132423257 -0.00300000003
  vertex -0.00837521069 -0.0132423257 0.0149999997
  endloop
 endfacet

 facet normal 0.000742559438 -0.999999821 0
  outer loop
  vertex -0.00969486777 -0.0132433055 -0.00300000003
  vertex -0.00837521069 -0.0132423257 0.0149999997
  vertex -0.00969486777 -0.0132433055 0.0149999997
  endloop
 endfacet

 facet normal 0.470876545 -0.882199168 0
  outer loop
  vertex -0.000855796563 -0.0110354898 -0.00300000003
  vertex -0.000855796563 -0.0110354898 0.0149999997
  vertex -0.00201795413 -0.0116557945 0.0149999997
  endloop
 endfacet

 facet normal 0.470876545 -0.882199168 0
  outer loop
  vertex -0.000855796563 -0.0110354898 -0.00300000003
  vertex -0.00201795413 -0.0116557945 0.0149999997
  vertex -0.00201795413 -0.0116557945 -0.00300000003
  endloop
 endfacet

 facet normal 0.0817055777 -0.996656537 0
  outer loop
  vertex -0.00837521069 -0.0132423257 -0.00300000003
  vertex -0.00706032803 -0.0131345317 -0.00300000003
  vertex -0.00706032803 -0.0131345317 0.0149999997
  endloop
 endfacet

 facet normal 0.0817055777 -0.996656537 0
  outer loop
  vertex -0.00837521069 -0.0132423257 -0.00300000003
  vertex -0.00706032803 -0.0131345317 0.0149999997
  vertex -0.00837521069 -0.0132423257 0.0149999997
  endloop
 endfacet

 facet normal 0.395689815 -0.918384254 0
  outer loop
  vertex -0.00201795413 -0.0116557945 -0.00300000003
  vertex -0.00201795413 -0.0116557945 0.0149999997
  vertex -0.00323022157 -0.0121781053 0.0149999997
  endloop
 endfacet

 facet normal 0.395689815 -0.918384254 0
  outer loop
  vertex -0.00201795413 -0.0116557945 -0.00300000003
  vertex -0.00323022157 -0.0121781053 0.0149999997
  vertex -0.00323022157 -0.0121781053 -0.00300000003
  endloop
 endfacet

 facet normal 0.162809655 -0.98665756 0
  outer loop
  vertex -0.00706032803 -0.0131345317 -0.00300000003
  vertex -0.00575976307 -0.0129199242 -0.00300000003
  vertex -0.00575976307 -0.0129199242 0.0149999997
  endloop
 endfacet

 facet normal 0.162809655 -0.98665756 0
  outer loop
  vertex -0.00706032803 -0.0131345317 -0.00300000003
  vertex -0.00575976307 -0.0129199242 0.0149999997
  vertex -0.00706032803 -0.0131345317 0.0149999997
  endloop
 endfacet

 facet normal 0.32055065 -0.947231412 0
  outer loop
  vertex -0.00323022157 -0.0121781053 -0.00300000003
  vertex -0.00323022157 -0.0121781053 0.0149999997
  vertex -0.00447828975 -0.012600462 0.0149999997
  endloop
 endfacet

 facet normal 0.32055065 -0.947231412 0
  outer loop
  vertex -0.00323022157 -0.0121781053 -0.00300000003
  vertex -0.00447828975 -0.012600462 0.0149999997
  vertex -0.00447828975 -0.012600462 -0.00300000003
  endloop
 endfacet

 facet normal 0.241889939 -0.970303714 0
  outer loop
  vertex -0.00575976307 -0.0129199242 -0.00300000003
  vertex -0.00447828975 -0.012600462 -0.00300000003
  vertex -0.00447828975 -0.012600462 0.0149999997
  endloop
 endfacet

 facet normal 0.241889939 -0.970303714 0
  outer loop
  vertex -0.00575976307 -0.0129199242 -0.00300000003
  vertex -0.00447828975 -0.012600462 0.0149999997
  vertex -0.00575976307 -0.0129199242 0.0149999997
  endloop
 endfacet

endsolid AssimpScene
