solid AssimpScene
 facet normal 0 0 1
  outer loop
  vertex 0.00674009137 -0.0238112938 0.0129749356
  vertex 8.83130124e-05 -0.0238112938 0.0129749356
  vertex 8.83130124e-05 -0.0274134781 0.0129749356
  endloop
 endfacet

 facet normal 0 0 1
  outer loop
  vertex 0.00674009137 -0.0238112938 0.0129749356
  vertex 8.83130124e-05 -0.0274134781 0.0129749356
  vertex 0.00674009137 -0.0274134781 0.0129749356
  endloop
 endfacet

 facet normal 1 0 0
  outer loop
  vertex 0.00674009137 -0.0238112938 0.0129749356
  vertex 0.00674009137 -0.0274134781 0.0129749356
  vertex 0.00674009137 -0.0274141263 0.0129674692
  endloop
 endfacet

 facet normal 1 0 0
  outer loop
  vertex 0.00674009137 -0.0238112938 0.0129749356
  vertex 0.00674009137 -0.0274141263 0.0129674692
  vertex 0.00674009137 -0.0274581816 0.0118288444
  endloop
 endfacet

 facet normal 1 0 0
  outer loop
  vertex 0.00674009137 -0.0238112938 0.0129749356
  vertex 0.00674009137 -0.0274581816 0.0118288444
  vertex 0.00674009137 -0.0274679009 0.0115768537
  endloop
 endfacet

 facet normal 1 0 0
  outer loop
  vertex 0.00674009137 -0.0238112938 0.0129749356
  vertex 0.00674009137 -0.0274679009 0.0115768537
  vertex 0.00674009137 -0.0279395524 -0.000697896641
  endloop
 endfacet

 facet normal 1 0 0
  outer loop
  vertex 0.00674009137 -0.0238112938 0.0129749356
  vertex 0.00674009137 -0.0279395524 -0.000697896641
  vertex 0.00674009137 -0.0280464534 -0.00348286051
  endloop
 endfacet

 facet normal 1 0 0
  outer loop
  vertex 0.00674009137 -0.0238112938 0.0129749356
  vertex 0.00674009137 -0.0280464534 -0.00348286051
  vertex 0.00674009137 -0.0280555226 -0.00373485219
  endloop
 endfacet

 facet normal 1 0 0
  outer loop
  vertex 0.00674009137 -0.0238112938 0.0129749356
  vertex 0.00674009137 -0.0280555226 -0.00373485219
  vertex 0.00674009137 -0.0277510211 -0.00487534422
  endloop
 endfacet

 facet normal 1 0 0
  outer loop
  vertex 0.00674009137 -0.0238112938 0.0129749356
  vertex 0.00674009137 -0.0277510211 -0.00487534422
  vertex 0.00674009137 -0.0276829954 -0.00512733357
  endloop
 endfacet

 facet normal 1 0 0
  outer loop
  vertex 0.00674009137 -0.0238112938 0.0129749356
  vertex 0.00674009137 -0.0276829954 -0.00512733357
  vertex 0.00674009137 -0.0271173995 -0.00580117572
  endloop
 endfacet

 facet normal 1 0 0
  outer loop
  vertex 0.00674009137 -0.0238112938 0.0129749356
  vertex 0.00674009137 -0.0271173995 -0.00580117572
  vertex 0.00674009137 -0.0269917138 -0.00595050445
  endloop
 endfacet

 facet normal 1 0 0
  outer loop
  vertex 0.00674009137 -0.0238112938 0.0129749356
  vertex 0.00674009137 -0.0269917138 -0.00595050445
  vertex 0.00674009137 -0.0260043498 -0.0060942322
  endloop
 endfacet

 facet normal 1 0 0
  outer loop
  vertex 0.00674009137 -0.0238112938 0.0129749356
  vertex 0.00674009137 -0.0260043498 -0.0060942322
  vertex 0.00674009137 -0.0238112938 -0.00601210212
  endloop
 endfacet

 facet normal 1 0 0
  outer loop
  vertex 0.00674009137 -0.0238112938 0.0129749356
  vertex 0.00674009137 -0.0238112938 -0.00601210212
  vertex 0.00674009137 -0.0218287986 -0.00546332216
  endloop
 endfacet

 facet normal 1 0 0
  outer loop
  vertex 0.00674009137 -0.0238112938 0.0129749356
  vertex 0.00674009137 -0.0218287986 -0.00546332216
  vertex 0.00674009137 -0.021437481 -0.00512733357
  endloop
 endfacet

 facet normal 1 0 0
  outer loop
  vertex 0.00674009137 -0.0238112938 0.0129749356
  vertex 0.00674009137 -0.021437481 -0.00512733357
  vertex 0.00674009137 -0.0214627478 -0.00373485219
  endloop
 endfacet

 facet normal 0 0.990266979 0.139181122
  outer loop
  vertex 0.00674009137 -0.0238112938 0.0129749356
  vertex 0.00674009137 -0.0214627478 -0.00373485219
  vertex 8.83130124e-05 -0.0238112938 0.0129749356
  endloop
 endfacet

 facet normal -0.293860912 0.955690861 0.017342288
  outer loop
  vertex 8.83130124e-05 -0.0238112938 0.0129749356
  vertex 0.00674009137 -0.0214627478 -0.00373485219
  vertex 0.00674009137 -0.021437481 -0.00512733357
  endloop
 endfacet

 facet normal -0.427061647 0.903404236 -0.0384595767
  outer loop
  vertex 8.83130124e-05 -0.0238112938 0.0129749356
  vertex 0.00674009137 -0.021437481 -0.00512733357
  vertex 8.83130124e-05 -0.0245226603 -0.00373485219
  endloop
 endfacet

 facet normal -1 0 0
  outer loop
  vertex 8.83130124e-05 -0.0238112938 0.0129749356
  vertex 8.83130124e-05 -0.0245226603 -0.00373485219
  vertex 8.83130124e-05 -0.0248232745 -0.00512733357
  endloop
 endfacet

 facet normal -1 0 0
  outer loop
  vertex 8.83130124e-05 -0.0238112938 0.0129749356
  vertex 8.83130124e-05 -0.0248232745 -0.00512733357
  vertex 8.83130124e-05 -0.02520293 -0.0059057055
  endloop
 endfacet

 facet normal -1 0 0
  outer loop
  vertex 8.83130124e-05 -0.0238112938 0.0129749356
  vertex 8.83130124e-05 -0.02520293 -0.0059057055
  vertex 8.83130124e-05 -0.0255262181 -0.0059579704
  endloop
 endfacet

 facet normal -1 0 0
  outer loop
  vertex 8.83130124e-05 -0.0238112938 0.0129749356
  vertex 8.83130124e-05 -0.0255262181 -0.0059579704
  vertex 8.83130124e-05 -0.0260043498 -0.0060344995
  endloop
 endfacet

 facet normal -1 0 0
  outer loop
  vertex 8.83130124e-05 -0.0238112938 0.0129749356
  vertex 8.83130124e-05 -0.0260043498 -0.0060344995
  vertex 8.83130124e-05 -0.0269923601 -0.00595236942
  endloop
 endfacet

 facet normal -1 0 0
  outer loop
  vertex 8.83130124e-05 -0.0238112938 0.0129749356
  vertex 8.83130124e-05 -0.0269923601 -0.00595236942
  vertex 8.83130124e-05 -0.0276829954 -0.00512733357
  endloop
 endfacet

 facet normal -1 0 0
  outer loop
  vertex 8.83130124e-05 -0.0238112938 0.0129749356
  vertex 8.83130124e-05 -0.0276829954 -0.00512733357
  vertex 8.83130124e-05 -0.0280555226 -0.00373485219
  endloop
 endfacet

 facet normal -1 0 0
  outer loop
  vertex 8.83130124e-05 -0.0238112938 0.0129749356
  vertex 8.83130124e-05 -0.0280555226 -0.00373485219
  vertex 8.83130124e-05 -0.0280341431 -0.0031730053
  endloop
 endfacet

 facet normal -1 0 0
  outer loop
  vertex 8.83130124e-05 -0.0238112938 0.0129749356
  vertex 8.83130124e-05 -0.0280341431 -0.0031730053
  vertex 8.83130124e-05 -0.0279810186 -0.00178239087
  endloop
 endfacet

 facet normal -1 0 0
  outer loop
  vertex 8.83130124e-05 -0.0238112938 0.0129749356
  vertex 8.83130124e-05 -0.0279810186 -0.00178239087
  vertex 8.83130124e-05 -0.0278741177 0.00100257411
  endloop
 endfacet

 facet normal -1 0 0
  outer loop
  vertex 8.83130124e-05 -0.0238112938 0.0129749356
  vertex 8.83130124e-05 -0.0278741177 0.00100257411
  vertex 8.83130124e-05 -0.0274465196 0.0121386992
  endloop
 endfacet

 facet normal -1 0 0
  outer loop
  vertex 8.83130124e-05 -0.0238112938 0.0129749356
  vertex 8.83130124e-05 -0.0274465196 0.0121386992
  vertex 8.83130124e-05 -0.0274141263 0.0129674692
  endloop
 endfacet

 facet normal -1 0 0
  outer loop
  vertex 8.83130124e-05 -0.0238112938 0.0129749356
  vertex 8.83130124e-05 -0.0274141263 0.0129674692
  vertex 8.83130124e-05 -0.0274134781 0.0129749356
  endloop
 endfacet

 facet normal 0 -0.996264398 0.0863549039
  outer loop
  vertex 0.00674009137 -0.0274134781 0.0129749356
  vertex 8.83130124e-05 -0.0274134781 0.0129749356
  vertex 8.83130124e-05 -0.0274141263 0.0129674692
  endloop
 endfacet

 facet normal 0 -0.996264398 0.0863549039
  outer loop
  vertex 0.00674009137 -0.0274134781 0.0129749356
  vertex 8.83130124e-05 -0.0274141263 0.0129674692
  vertex 0.00674009137 -0.0274141263 0.0129674692
  endloop
 endfacet

 facet normal -0.269614041 0.627308846 -0.730610609
  outer loop
  vertex 0.00674009137 -0.021437481 -0.00512733357
  vertex 0.00674009137 -0.0218287986 -0.00546332216
  vertex 8.83130124e-05 -0.02520293 -0.0059057055
  endloop
 endfacet

 facet normal -0.416018903 0.817316473 -0.398650527
  outer loop
  vertex 0.00674009137 -0.021437481 -0.00512733357
  vertex 8.83130124e-05 -0.02520293 -0.0059057055
  vertex 8.83130124e-05 -0.0248232745 -0.00512733357
  endloop
 endfacet

 facet normal -0.445453465 0.875144005 -0.188929111
  outer loop
  vertex 0.00674009137 -0.021437481 -0.00512733357
  vertex 8.83130124e-05 -0.0248232745 -0.00512733357
  vertex 8.83130124e-05 -0.0245226603 -0.00373485219
  endloop
 endfacet

 facet normal 0 -0.999237001 0.0390571058
  outer loop
  vertex 0.00674009137 -0.0274141263 0.0129674692
  vertex 8.83130124e-05 -0.0274141263 0.0129674692
  vertex 8.83130124e-05 -0.0274465196 0.0121386992
  endloop
 endfacet

 facet normal 4.908767e-05 -0.999252379 0.0386637263
  outer loop
  vertex 0.00674009137 -0.0274141263 0.0129674692
  vertex 8.83130124e-05 -0.0274465196 0.0121386992
  vertex 0.00674009137 -0.0274581816 0.0118288444
  endloop
 endfacet

 facet normal -0.0710492581 0.26610595 -0.961321831
  outer loop
  vertex 0.00674009137 -0.0218287986 -0.00546332216
  vertex 0.00674009137 -0.0238112938 -0.00601210212
  vertex 8.83130124e-05 -0.02520293 -0.0059057055
  endloop
 endfacet

 facet normal -0.0491198786 0.159401223 -0.98599112
  outer loop
  vertex 8.83130124e-05 -0.02520293 -0.0059057055
  vertex 0.00674009137 -0.0238112938 -0.00601210212
  vertex 8.83130124e-05 -0.0255262181 -0.0059579704
  endloop
 endfacet

 facet normal 4.3256252e-05 -0.999257207 0.0385387205
  outer loop
  vertex 8.83130124e-05 -0.0274465196 0.0121386992
  vertex 0.00674009137 -0.0274679009 0.0115768537
  vertex 0.00674009137 -0.0274581816 0.0118288444
  endloop
 endfacet

 facet normal -2.13126405e-05 -0.999263704 0.0383690037
  outer loop
  vertex 8.83130124e-05 -0.0274465196 0.0121386992
  vertex 8.83130124e-05 -0.0278741177 0.00100257411
  vertex 0.00674009137 -0.0279395524 -0.000697896641
  endloop
 endfacet

 facet normal 3.11983531e-05 -0.999262571 0.0383961722
  outer loop
  vertex 8.83130124e-05 -0.0274465196 0.0121386992
  vertex 0.00674009137 -0.0279395524 -0.000697896641
  vertex 0.00674009137 -0.0274679009 0.0115768537
  endloop
 endfacet

 facet normal -0.00897331536 0.0374223739 -0.999259233
  outer loop
  vertex 0.00674009137 -0.0238112938 -0.00601210212
  vertex 0.00674009137 -0.0260043498 -0.0060942322
  vertex 8.83130124e-05 -0.0260043498 -0.0060344995
  endloop
 endfacet

 facet normal -0.0487246029 0.157859594 -0.986258745
  outer loop
  vertex 0.00674009137 -0.0238112938 -0.00601210212
  vertex 8.83130124e-05 -0.0260043498 -0.0060344995
  vertex 8.83130124e-05 -0.0255262181 -0.0059579704
  endloop
 endfacet

 facet normal -2.44641415e-05 -0.999264181 0.0383567177
  outer loop
  vertex 8.83130124e-05 -0.0278741177 0.00100257411
  vertex 8.83130124e-05 -0.0279810186 -0.00178239087
  vertex 0.00674009137 -0.0280464534 -0.00348286051
  endloop
 endfacet

 facet normal -2.44545081e-05 -0.999264181 0.0383567326
  outer loop
  vertex 8.83130124e-05 -0.0278741177 0.00100257411
  vertex 0.00674009137 -0.0280464534 -0.00348286051
  vertex 0.00674009137 -0.0279395524 -0.000697896641
  endloop
 endfacet

 facet normal 0 -0.142126873 -0.989848375
  outer loop
  vertex 0.00674009137 -0.0260043498 -0.0060942322
  vertex 0.00648680842 -0.0269923601 -0.00595236942
  vertex 8.83130124e-05 -0.0269923601 -0.00595236942
  endloop
 endfacet

 facet normal -0.00894874241 -0.082837835 -0.996522844
  outer loop
  vertex 0.00674009137 -0.0260043498 -0.0060942322
  vertex 8.83130124e-05 -0.0269923601 -0.00595236942
  vertex 8.83130124e-05 -0.0260043498 -0.0060344995
  endloop
 endfacet

 facet normal 0.00765398331 -0.14404498 -0.989541531
  outer loop
  vertex 0.00674009137 -0.0260043498 -0.0060942322
  vertex 0.00674009137 -0.0269917138 -0.00595050445
  vertex 0.00648680842 -0.0269923601 -0.00595236942
  endloop
 endfacet

 facet normal -7.09296582e-05 -0.999271095 0.0381752215
  outer loop
  vertex 8.83130124e-05 -0.0279810186 -0.00178239087
  vertex 8.83130124e-05 -0.0280341431 -0.0031730053
  vertex 0.00674009137 -0.0280464534 -0.00348286051
  endloop
 endfacet

 facet normal -7.80019691e-05 -0.999276936 0.038023632
  outer loop
  vertex 0.00674009137 -0.0280464534 -0.00348286051
  vertex 8.83130124e-05 -0.0280341431 -0.0031730053
  vertex 8.83130124e-05 -0.0280555226 -0.00373485219
  endloop
 endfacet

 facet normal 0 -0.999353051 0.0359673612
  outer loop
  vertex 0.00674009137 -0.0280464534 -0.00348286051
  vertex 8.83130124e-05 -0.0280555226 -0.00373485219
  vertex 0.00674009137 -0.0280555226 -0.00373485219
  endloop
 endfacet

 facet normal 0.0066961525 -0.765055299 -0.643929839
  outer loop
  vertex 0.00648680842 -0.0269923601 -0.00595236942
  vertex 0.00674009137 -0.0269917138 -0.00595050445
  vertex 0.00674009137 -0.0271173995 -0.00580117572
  endloop
 endfacet

 facet normal 0.0056435219 -0.765934646 -0.642893672
  outer loop
  vertex 0.00648680842 -0.0269923601 -0.00595236942
  vertex 0.00674009137 -0.0271173995 -0.00580117572
  vertex 0.00674009137 -0.0276829954 -0.00512733357
  endloop
 endfacet

 facet normal 0 -0.766800344 -0.641885817
  outer loop
  vertex 0.00648680842 -0.0269923601 -0.00595236942
  vertex 0.00674009137 -0.0276829954 -0.00512733357
  vertex 8.83130124e-05 -0.0276829954 -0.00512733357
  endloop
 endfacet

 facet normal 0 -0.766800344 -0.641885817
  outer loop
  vertex 0.00648680842 -0.0269923601 -0.00595236942
  vertex 8.83130124e-05 -0.0276829954 -0.00512733357
  vertex 8.83130124e-05 -0.0269923601 -0.00595236942
  endloop
 endfacet

 facet normal 0 -0.9661569 -0.257955253
  outer loop
  vertex 8.83130124e-05 -0.0280555226 -0.00373485219
  vertex 0.00674009137 -0.0277510211 -0.00487534422
  vertex 0.00674009137 -0.0280555226 -0.00373485219
  endloop
 endfacet

 facet normal -8.88937357e-05 -0.966027498 -0.258439124
  outer loop
  vertex 8.83130124e-05 -0.0280555226 -0.00373485219
  vertex 8.83130124e-05 -0.0276829954 -0.00512733357
  vertex 0.00674009137 -0.0277510211 -0.00487534422
  endloop
 endfacet

 facet normal 0 -0.965439558 -0.260626972
  outer loop
  vertex 0.00674009137 -0.0276829954 -0.00512733357
  vertex 0.00674009137 -0.0277510211 -0.00487534422
  vertex 8.83130124e-05 -0.0276829954 -0.00512733357
  endloop
 endfacet

endsolid AssimpScene
