solid AssimpScene
 facet normal 1 0 0
  outer loop
  vertex 0.014814348 0.0254342109 0.0269376505
  vertex 0.014814348 0.0254119784 0.0272125117
  vertex 0.014814348 0.025291929 0.0282070339
  endloop
 endfacet

 facet normal 1 0 0
  outer loop
  vertex 0.014814348 0.0254342109 0.0269376505
  vertex 0.014814348 0.025291929 0.0282070339
  vertex 0.014814348 0.0249895789 0.0294823237
  endloop
 endfacet

 facet normal 1 0 0
  outer loop
  vertex 0.014814348 0.0254342109 0.0269376505
  vertex 0.014814348 0.0249895789 0.0294823237
  vertex 0.014814348 0.0245968197 0.030586198
  endloop
 endfacet

 facet normal 1 0 0
  outer loop
  vertex 0.014814348 0.0254342109 0.0269376505
  vertex 0.014814348 0.0245968197 0.030586198
  vertex 0.014814348 0.0244841799 0.0307546593
  endloop
 endfacet

 facet normal 1 0 0
  outer loop
  vertex 0.014814348 0.0254342109 0.0269376505
  vertex 0.014814348 0.0244841799 0.0307546593
  vertex 0.014814348 0.0234052073 0.0319427662
  endloop
 endfacet

 facet normal 1 0 0
  outer loop
  vertex 0.014814348 0.0254342109 0.0269376505
  vertex 0.014814348 0.0234052073 0.0319427662
  vertex 0.014814348 0.023230318 0.0321082734
  endloop
 endfacet

 facet normal 1 0 0
  outer loop
  vertex 0.014814348 0.0254342109 0.0269376505
  vertex 0.014814348 0.023230318 0.0321082734
  vertex 0.014814348 0.0220475979 0.0331116579
  endloop
 endfacet

 facet normal 1 0 0
  outer loop
  vertex 0.014814348 0.0254342109 0.0269376505
  vertex 0.014814348 0.0220475979 0.0331116579
  vertex 0.014814348 0.0217719264 0.0332638659
  endloop
 endfacet

 facet normal 1 0 0
  outer loop
  vertex 0.014814348 0.0254342109 0.0269376505
  vertex 0.014814348 0.0217719264 0.0332638659
  vertex 0.014814348 0.0195428394 0.0344002508
  endloop
 endfacet

 facet normal 1 0 0
  outer loop
  vertex 0.014814348 0.0254342109 0.0269376505
  vertex 0.014814348 0.0195428394 0.0344002508
  vertex 0.014814348 0.0184179209 0.0346455537
  endloop
 endfacet

 facet normal 1 0 0
  outer loop
  vertex 0.014814348 0.0254342109 0.0269376505
  vertex 0.014814348 0.0184179209 0.0346455537
  vertex 0.014814348 0.0171462744 0.0346662439
  endloop
 endfacet

 facet normal 1 0 0
  outer loop
  vertex 0.014814348 0.0254342109 0.0269376505
  vertex 0.014814348 0.0171462744 0.0346662439
  vertex 0.014814348 0.017082544 0.0346558988
  endloop
 endfacet

 facet normal 1 0 0
  outer loop
  vertex 0.014814348 0.0254342109 0.0269376505
  vertex 0.014814348 0.017082544 0.0346558988
  vertex 0.014814348 0.015945768 0.0344608389
  endloop
 endfacet

 facet normal 1 0 0
  outer loop
  vertex 0.014814348 0.0254342109 0.0269376505
  vertex 0.014814348 0.015945768 0.0344608389
  vertex 0.014814348 0.0159013048 0.0344445817
  endloop
 endfacet

 facet normal 1 0 0
  outer loop
  vertex 0.014814348 0.0254342109 0.0269376505
  vertex 0.014814348 0.0159013048 0.0344445817
  vertex 0.014814348 0.0134024741 0.0332032777
  endloop
 endfacet

 facet normal 1 0 0
  outer loop
  vertex 0.014814348 0.0254342109 0.0269376505
  vertex 0.014814348 0.0134024741 0.0332032777
  vertex 0.014814348 0.0133357802 0.0331471264
  endloop
 endfacet

 facet normal 1 0 0
  outer loop
  vertex 0.014814348 0.0254342109 0.0269376505
  vertex 0.014814348 0.0133357802 0.0331471264
  vertex 0.014814348 0.0121041499 0.031982664
  endloop
 endfacet

 facet normal 1 0 0
  outer loop
  vertex 0.014814348 0.0254342109 0.0269376505
  vertex 0.014814348 0.0121041499 0.031982664
  vertex 0.014814348 0.0109451432 0.030587675
  endloop
 endfacet

 facet normal 1 0 0
  outer loop
  vertex 0.014814348 0.0254342109 0.0269376505
  vertex 0.014814348 0.0109451432 0.030587675
  vertex 0.014814348 0.0109110549 0.0305004884
  endloop
 endfacet

 facet normal 1 0 0
  outer loop
  vertex 0.014814348 0.0254342109 0.0269376505
  vertex 0.014814348 0.0109110549 0.0305004884
  vertex 0.014814348 0.0106235258 0.0294069592
  endloop
 endfacet

 facet normal 1 0 0
  outer loop
  vertex 0.014814348 0.0254342109 0.0269376505
  vertex 0.014814348 0.0106235258 0.0294069592
  vertex 0.014814348 0.0104338164 0.0282070339
  endloop
 endfacet

 facet normal 1 0 0
  outer loop
  vertex 0.014814348 0.0254342109 0.0269376505
  vertex 0.014814348 0.0104338164 0.0282070339
  vertex 0.014814348 0.0102930162 0.0269376505
  endloop
 endfacet

 facet normal 1 0 0
  outer loop
  vertex 0.014814348 0.0254342109 0.0269376505
  vertex 0.014814348 0.0102930162 0.0269376505
  vertex 0.014814348 0.0103019094 0.026810566
  endloop
 endfacet

 facet normal 1 0 0
  outer loop
  vertex 0.014814348 0.0254342109 0.0269376505
  vertex 0.014814348 0.0103019094 0.026810566
  vertex 0.014814348 0.0104293702 0.0256446283
  endloop
 endfacet

 facet normal 1 0 0
  outer loop
  vertex 0.014814348 0.0254342109 0.0269376505
  vertex 0.014814348 0.0104293702 0.0256446283
  vertex 0.014814348 0.0106368652 0.024387069
  endloop
 endfacet

 facet normal 1 0 0
  outer loop
  vertex 0.014814348 0.0254342109 0.0269376505
  vertex 0.014814348 0.0106368652 0.024387069
  vertex 0.014814348 0.0109392144 0.0232743286
  endloop
 endfacet

 facet normal 1 0 0
  outer loop
  vertex 0.014814348 0.0254342109 0.0269376505
  vertex 0.014814348 0.0109392144 0.0232743286
  vertex 0.014814348 0.0109925708 0.023194531
  endloop
 endfacet

 facet normal 1 0 0
  outer loop
  vertex 0.014814348 0.0254342109 0.0269376505
  vertex 0.014814348 0.0109925708 0.023194531
  vertex 0.014814348 0.0120967394 0.0218778625
  endloop
 endfacet

 facet normal 1 0 0
  outer loop
  vertex 0.014814348 0.0254342109 0.0269376505
  vertex 0.014814348 0.0120967394 0.0218778625
  vertex 0.014814348 0.0127281165 0.0212202668
  endloop
 endfacet

 facet normal 1 0 0
  outer loop
  vertex 0.014814348 0.0254342109 0.0269376505
  vertex 0.014814348 0.0127281165 0.0212202668
  vertex 0.014814348 0.0133921001 0.0206557699
  endloop
 endfacet

 facet normal 1 0 0
  outer loop
  vertex 0.014814348 0.0254342109 0.0269376505
  vertex 0.014814348 0.0133921001 0.0206557699
  vertex 0.014814348 0.0134765795 0.0206055269
  endloop
 endfacet

 facet normal 1 0 0
  outer loop
  vertex 0.014814348 0.0254342109 0.0269376505
  vertex 0.014814348 0.0134765795 0.0206055269
  vertex 0.014814348 0.0150090773 0.0198045895
  endloop
 endfacet

 facet normal 1 0 0
  outer loop
  vertex 0.014814348 0.0254342109 0.0269376505
  vertex 0.014814348 0.0150090773 0.0198045895
  vertex 0.014814348 0.0205358509 0.0198045895
  endloop
 endfacet

 facet normal 1 0 0
  outer loop
  vertex 0.014814348 0.0254342109 0.0269376505
  vertex 0.014814348 0.0205358509 0.0198045895
  vertex 0.014814348 0.0209686253 0.0199819189
  endloop
 endfacet

 facet normal 1 0 0
  outer loop
  vertex 0.014814348 0.0254342109 0.0269376505
  vertex 0.014814348 0.0209686253 0.0199819189
  vertex 0.014814348 0.0222061835 0.0206291694
  endloop
 endfacet

 facet normal 1 0 0
  outer loop
  vertex 0.014814348 0.0254342109 0.0269376505
  vertex 0.014814348 0.0222061835 0.0206291694
  vertex 0.014814348 0.0222550929 0.0206690691
  endloop
 endfacet

 facet normal 1 0 0
  outer loop
  vertex 0.014814348 0.0254342109 0.0269376505
  vertex 0.014814348 0.0222550929 0.0206690691
  vertex 0.014814348 0.023503026 0.0218394399
  endloop
 endfacet

 facet normal 1 0 0
  outer loop
  vertex 0.014814348 0.0254342109 0.0269376505
  vertex 0.014814348 0.023503026 0.0218394399
  vertex 0.014814348 0.0246590693 0.0232255626
  endloop
 endfacet

 facet normal 1 0 0
  outer loop
  vertex 0.014814348 0.0254342109 0.0269376505
  vertex 0.014814348 0.0246590693 0.0232255626
  vertex 0.014814348 0.0246946402 0.0233112723
  endloop
 endfacet

 facet normal 1 0 0
  outer loop
  vertex 0.014814348 0.0254342109 0.0269376505
  vertex 0.014814348 0.0246946402 0.0233112723
  vertex 0.014814348 0.0249969885 0.024387069
  endloop
 endfacet

 facet normal 1 0 0
  outer loop
  vertex 0.014814348 0.0254342109 0.0269376505
  vertex 0.014814348 0.0249969885 0.024387069
  vertex 0.014814348 0.0250088461 0.0244314
  endloop
 endfacet

 facet normal 1 0 0
  outer loop
  vertex 0.014814348 0.0254342109 0.0269376505
  vertex 0.014814348 0.0250088461 0.0244314
  vertex 0.014814348 0.0252993386 0.0256608818
  endloop
 endfacet

 facet normal -0.00828277972 0.994432867 -0.105046719
  outer loop
  vertex 0.014814348 0.0254342109 0.0269376505
  vertex 0.014814348 0.0252993386 0.0256608818
  vertex -0.000863432942 0.0250340421 0.0243855901
  endloop
 endfacet

 facet normal -0.012415044 0.996716082 -0.0800194666
  outer loop
  vertex 0.014814348 0.0254342109 0.0269376505
  vertex -0.000863432942 0.0250340421 0.0243855901
  vertex -0.000863432942 0.0251363069 0.0256594047
  endloop
 endfacet

 facet normal -0.0173866544 0.999654174 -0.0197270699
  outer loop
  vertex 0.014814348 0.0254342109 0.0269376505
  vertex -0.000863432942 0.0251363069 0.0256594047
  vertex -0.000863432942 0.0251615029 0.0269361734
  endloop
 endfacet

 facet normal -0.017391786 0.999777734 0.0119198998
  outer loop
  vertex 0.014814348 0.0254342109 0.0269376505
  vertex -0.000863432942 0.0251615029 0.0269361734
  vertex -0.000863432942 0.0251496453 0.0279306956
  endloop
 endfacet

 facet normal -0.0147492085 0.998471558 0.0532655232
  outer loop
  vertex 0.014814348 0.0254342109 0.0269376505
  vertex -0.000863432942 0.0251496453 0.0279306956
  vertex -0.000863432942 0.0251348242 0.0282085091
  endloop
 endfacet

 facet normal -0.0141262403 0.998046994 0.0608506426
  outer loop
  vertex 0.014814348 0.0254342109 0.0269376505
  vertex -0.000863432942 0.0251348242 0.0282085091
  vertex -0.000863432942 0.0250755399 0.0291808639
  endloop
 endfacet

 facet normal -0.0112672774 0.996681809 0.0806136131
  outer loop
  vertex 0.014814348 0.0254342109 0.0269376505
  vertex -0.000863432942 0.0250755399 0.0291808639
  vertex 0.014814348 0.0254119784 0.0272125117
  endloop
 endfacet

 facet normal -0.00625855895 0.992773473 0.119839661
  outer loop
  vertex 0.014814348 0.0254119784 0.0272125117
  vertex -0.000863432942 0.0250755399 0.0291808639
  vertex 0.014814348 0.025291929 0.0282070339
  endloop
 endfacet

 facet normal 0.00223590666 0.973201931 -0.229941368
  outer loop
  vertex 0.014814348 0.0252993386 0.0256608818
  vertex 0.014814348 0.0250088461 0.0244314
  vertex -0.000863432942 0.0250340421 0.0243855901
  endloop
 endfacet

 facet normal -1 0 0
  outer loop
  vertex -0.000863432942 0.0250340421 0.0243855901
  vertex -0.000863432942 0.0246649962 0.0232299957
  vertex -0.000863432942 0.024539018 0.0230674446
  endloop
 endfacet

 facet normal -1 0 0
  outer loop
  vertex -0.000863432942 0.0250340421 0.0243855901
  vertex -0.000863432942 0.024539018 0.0230674446
  vertex -0.000863432942 0.0234392956 0.0219059382
  endloop
 endfacet

 facet normal -1 0 0
  outer loop
  vertex -0.000863432942 0.0250340421 0.0243855901
  vertex -0.000863432942 0.0234392956 0.0219059382
  vertex -0.000863432942 0.023270335 0.0217389539
  endloop
 endfacet

 facet normal -1 0 0
  outer loop
  vertex -0.000863432942 0.0250340421 0.0243855901
  vertex -0.000863432942 0.023270335 0.0217389539
  vertex -0.000863432942 0.0221587569 0.02066168
  endloop
 endfacet

 facet normal -1 0 0
  outer loop
  vertex -0.000863432942 0.0250340421 0.0243855901
  vertex -0.000863432942 0.0221587569 0.02066168
  vertex -0.000863432942 0.0218460318 0.0204784386
  endloop
 endfacet

 facet normal -1 0 0
  outer loop
  vertex -0.000863432942 0.0250340421 0.0243855901
  vertex -0.000863432942 0.0218460318 0.0204784386
  vertex -0.000863432942 0.0205980986 0.0198045895
  endloop
 endfacet

 facet normal -1 0 0
  outer loop
  vertex -0.000863432942 0.0250340421 0.0243855901
  vertex -0.000863432942 0.0205980986 0.0198045895
  vertex -0.000863432942 0.0154225854 0.0198045895
  endloop
 endfacet

 facet normal -1 0 0
  outer loop
  vertex -0.000863432942 0.0250340421 0.0243855901
  vertex -0.000863432942 0.0154225854 0.0198045895
  vertex -0.000863432942 0.0145940874 0.0201518591
  endloop
 endfacet

 facet normal -1 0 0
  outer loop
  vertex -0.000863432942 0.0250340421 0.0243855901
  vertex -0.000863432942 0.0145940874 0.0201518591
  vertex -0.000863432942 0.013412849 0.0206631571
  endloop
 endfacet

 facet normal -1 0 0
  outer loop
  vertex -0.000863432942 0.0250340421 0.0243855901
  vertex -0.000863432942 0.013412849 0.0206631571
  vertex -0.000863432942 0.0132542634 0.0208050199
  endloop
 endfacet

 facet normal -1 0 0
  outer loop
  vertex -0.000863432942 0.0250340421 0.0243855901
  vertex -0.000863432942 0.0132542634 0.0208050199
  vertex -0.000863432942 0.0121308276 0.0219162833
  endloop
 endfacet

 facet normal -1 0 0
  outer loop
  vertex -0.000863432942 0.0250340421 0.0243855901
  vertex -0.000863432942 0.0121308276 0.0219162833
  vertex -0.000863432942 0.0109125366 0.0232506841
  endloop
 endfacet

 facet normal -1 0 0
  outer loop
  vertex -0.000863432942 0.0250340421 0.0243855901
  vertex -0.000863432942 0.0109125366 0.0232506841
  vertex -0.000863432942 0.0108339852 0.0234457459
  endloop
 endfacet

 facet normal -1 0 0
  outer loop
  vertex -0.000863432942 0.0250340421 0.0243855901
  vertex -0.000863432942 0.0108339852 0.0234457459
  vertex -0.000863432942 0.010556831 0.0243855901
  endloop
 endfacet

 facet normal -1 0 0
  outer loop
  vertex -0.000863432942 0.0250340421 0.0243855901
  vertex -0.000863432942 0.010556831 0.0243855901
  vertex -0.000863432942 0.0105034756 0.0246530622
  endloop
 endfacet

 facet normal -1 0 0
  outer loop
  vertex -0.000863432942 0.0250340421 0.0243855901
  vertex -0.000863432942 0.0105034756 0.0246530622
  vertex -0.000863432942 0.0104412269 0.0256594047
  endloop
 endfacet

 facet normal -1 0 0
  outer loop
  vertex -0.000863432942 0.0250340421 0.0243855901
  vertex -0.000863432942 0.0104412269 0.0256594047
  vertex -0.000863432942 0.0104264058 0.0259224419
  endloop
 endfacet

 facet normal -1 0 0
  outer loop
  vertex -0.000863432942 0.0250340421 0.0243855901
  vertex -0.000863432942 0.0104264058 0.0259224419
  vertex -0.000863432942 0.0104115847 0.0269361734
  endloop
 endfacet

 facet normal -1 0 0
  outer loop
  vertex -0.000863432942 0.0250340421 0.0243855901
  vertex -0.000863432942 0.0104115847 0.0269361734
  vertex -0.000863432942 0.0104427086 0.0282085091
  endloop
 endfacet

 facet normal -1 0 0
  outer loop
  vertex -0.000863432942 0.0250340421 0.0243855901
  vertex -0.000863432942 0.0104427086 0.0282085091
  vertex -0.000863432942 0.0105612772 0.0294838008
  endloop
 endfacet

 facet normal -1 0 0
  outer loop
  vertex -0.000863432942 0.0250340421 0.0243855901
  vertex -0.000863432942 0.0105612772 0.0294838008
  vertex -0.000863432942 0.010915501 0.0306142736
  endloop
 endfacet

 facet normal -1 0 0
  outer loop
  vertex -0.000863432942 0.0250340421 0.0243855901
  vertex -0.000863432942 0.010915501 0.0306142736
  vertex -0.000863432942 0.0110385157 0.0307738706
  endloop
 endfacet

 facet normal -1 0 0
  outer loop
  vertex -0.000863432942 0.0250340421 0.0243855901
  vertex -0.000863432942 0.0110385157 0.0307738706
  vertex -0.000863432942 0.012133792 0.0319486782
  endloop
 endfacet

 facet normal -1 0 0
  outer loop
  vertex -0.000863432942 0.0250340421 0.0243855901
  vertex -0.000863432942 0.012133792 0.0319486782
  vertex -0.000863432942 0.0134172952 0.0332018025
  endloop
 endfacet

 facet normal -1 0 0
  outer loop
  vertex -0.000863432942 0.0250340421 0.0243855901
  vertex -0.000863432942 0.0134172952 0.0332018025
  vertex -0.000863432942 0.0136381295 0.033324454
  endloop
 endfacet

 facet normal -1 0 0
  outer loop
  vertex -0.000863432942 0.0250340421 0.0243855901
  vertex -0.000863432942 0.0136381295 0.033324454
  vertex -0.000863432942 0.015920572 0.0344770923
  endloop
 endfacet

 facet normal -1 0 0
  outer loop
  vertex -0.000863432942 0.0250340421 0.0243855901
  vertex -0.000863432942 0.015920572 0.0344770923
  vertex -0.000863432942 0.0171447918 0.0347918533
  endloop
 endfacet

 facet normal -1 0 0
  outer loop
  vertex -0.000863432942 0.0250340421 0.0243855901
  vertex -0.000863432942 0.0171447918 0.0347918533
  vertex -0.000863432942 0.0174145345 0.0347918533
  endloop
 endfacet

 facet normal -1 0 0
  outer loop
  vertex -0.000863432942 0.0250340421 0.0243855901
  vertex -0.000863432942 0.0174145345 0.0347918533
  vertex -0.000863432942 0.0184179209 0.0347416066
  endloop
 endfacet

 facet normal -1 0 0
  outer loop
  vertex -0.000863432942 0.0250340421 0.0243855901
  vertex -0.000863432942 0.0184179209 0.0347416066
  vertex -0.000863432942 0.0186728425 0.0346780643
  endloop
 endfacet

 facet normal -1 0 0
  outer loop
  vertex -0.000863432942 0.0250340421 0.0243855901
  vertex -0.000863432942 0.0186728425 0.0346780643
  vertex -0.000863432942 0.019550249 0.0343839936
  endloop
 endfacet

 facet normal -1 0 0
  outer loop
  vertex -0.000863432942 0.0250340421 0.0243855901
  vertex -0.000863432942 0.019550249 0.0343839936
  vertex -0.000863432942 0.0198377781 0.0342554301
  endloop
 endfacet

 facet normal -1 0 0
  outer loop
  vertex -0.000863432942 0.0250340421 0.0243855901
  vertex -0.000863432942 0.0198377781 0.0342554301
  vertex -0.000863432942 0.0220149923 0.0330702811
  endloop
 endfacet

 facet normal -1 0 0
  outer loop
  vertex -0.000863432942 0.0250340421 0.0243855901
  vertex -0.000863432942 0.0220149923 0.0330702811
  vertex -0.000863432942 0.0223366097 0.0328057669
  endloop
 endfacet

 facet normal -1 0 0
  outer loop
  vertex -0.000863432942 0.0250340421 0.0243855901
  vertex -0.000863432942 0.0223366097 0.0328057669
  vertex -0.000863432942 0.0233637076 0.0318969563
  endloop
 endfacet

 facet normal -1 0 0
  outer loop
  vertex -0.000863432942 0.0250340421 0.0243855901
  vertex -0.000863432942 0.0233637076 0.0318969563
  vertex -0.000863432942 0.0245923735 0.0305728968
  endloop
 endfacet

 facet normal -1 0 0
  outer loop
  vertex -0.000863432942 0.0250340421 0.0243855901
  vertex -0.000863432942 0.0245923735 0.0305728968
  vertex -0.000863432942 0.0247524418 0.0301931184
  endloop
 endfacet

 facet normal -1 0 0
  outer loop
  vertex -0.000863432942 0.0250340421 0.0243855901
  vertex -0.000863432942 0.0247524418 0.0301931184
  vertex -0.000863432942 0.0250177383 0.0294838008
  endloop
 endfacet

 facet normal -1 0 0
  outer loop
  vertex -0.000863432942 0.0250340421 0.0243855901
  vertex -0.000863432942 0.0250177383 0.0294838008
  vertex -0.000863432942 0.0250755399 0.0291808639
  endloop
 endfacet

 facet normal -1 0 0
  outer loop
  vertex -0.000863432942 0.0250340421 0.0243855901
  vertex -0.000863432942 0.0250755399 0.0291808639
  vertex -0.000863432942 0.0251348242 0.0282085091
  endloop
 endfacet

 facet normal -1 0 0
  outer loop
  vertex -0.000863432942 0.0250340421 0.0243855901
  vertex -0.000863432942 0.0251348242 0.0282085091
  vertex -0.000863432942 0.0251496453 0.0279306956
  endloop
 endfacet

 facet normal -1 0 0
  outer loop
  vertex -0.000863432942 0.0250340421 0.0243855901
  vertex -0.000863432942 0.0251496453 0.0279306956
  vertex -0.000863432942 0.0251615029 0.0269361734
  endloop
 endfacet

 facet normal -1 0 0
  outer loop
  vertex -0.000863432942 0.0250340421 0.0243855901
  vertex -0.000863432942 0.0251615029 0.0269361734
  vertex -0.000863432942 0.0251363069 0.0256594047
  endloop
 endfacet

 facet normal 0.00230745506 0.966044843 -0.258364201
  outer loop
  vertex -0.000863432942 0.0250340421 0.0243855901
  vertex 0.014814348 0.0250088461 0.0244314
  vertex 0.014814348 0.0249969885 0.024387069
  endloop
 endfacet

 facet normal 0.00230069878 0.962699175 -0.270564139
  outer loop
  vertex -0.000863432942 0.0250340421 0.0243855901
  vertex 0.014814348 0.0249969885 0.024387069
  vertex 0.014814348 0.0246946402 0.0233112723
  endloop
 endfacet

 facet normal -0.000224016869 0.952602386 -0.304218113
  outer loop
  vertex -0.000863432942 0.0250340421 0.0243855901
  vertex 0.014814348 0.0246946402 0.0233112723
  vertex -0.000863432942 0.0246649962 0.0232299957
  endloop
 endfacet

 facet normal -0.00191565731 0.982277274 0.187424049
  outer loop
  vertex -0.000863432942 0.0250755399 0.0291808639
  vertex -0.000863432942 0.0250177383 0.0294838008
  vertex 0.014814348 0.025291929 0.0282070339
  endloop
 endfacet

 facet normal 0.00176947331 0.973026216 0.23068808
  outer loop
  vertex 0.014814348 0.025291929 0.0282070339
  vertex -0.000863432942 0.0250177383 0.0294838008
  vertex 0.014814348 0.0249895789 0.0294823237
  endloop
 endfacet

 facet normal 0.000240825932 0.923618793 -0.383312285
  outer loop
  vertex -0.000863432942 0.0246649962 0.0232299957
  vertex 0.014814348 0.0246946402 0.0233112723
  vertex 0.014814348 0.0246590693 0.0232255626
  endloop
 endfacet

 facet normal 0.000125633829 0.790412784 -0.612574697
  outer loop
  vertex -0.000863432942 0.0246649962 0.0232299957
  vertex 0.014814348 0.0246590693 0.0232255626
  vertex -0.000863432942 0.024539018 0.0230674446
  endloop
 endfacet

 facet normal 0.000513930165 0.936631203 0.350316465
  outer loop
  vertex -0.000863432942 0.0250177383 0.0294838008
  vertex -0.000863432942 0.0247524418 0.0301931184
  vertex 0.014814348 0.0245968197 0.030586198
  endloop
 endfacet

 facet normal 0.0017238541 0.942140758 0.335213155
  outer loop
  vertex -0.000863432942 0.0250177383 0.0294838008
  vertex 0.014814348 0.0245968197 0.030586198
  vertex 0.014814348 0.0249895789 0.0294823237
  endloop
 endfacet

 facet normal 0.000579088111 0.767964602 -0.640492082
  outer loop
  vertex -0.000863432942 0.024539018 0.0230674446
  vertex 0.014814348 0.0246590693 0.0232255626
  vertex 0.014814348 0.023503026 0.0218394399
  endloop
 endfacet

 facet normal -0.00586794876 0.726143241 -0.687518477
  outer loop
  vertex -0.000863432942 0.024539018 0.0230674446
  vertex 0.014814348 0.023503026 0.0218394399
  vertex -0.000863432942 0.0234392956 0.0219059382
  endloop
 endfacet

 facet normal -0.000590867479 0.921495557 0.388388455
  outer loop
  vertex -0.000863432942 0.0247524418 0.0301931184
  vertex -0.000863432942 0.0245923735 0.0305728968
  vertex 0.014814348 0.0245968197 0.030586198
  endloop
 endfacet

 facet normal -0.000707350904 0.831291318 0.555836618
  outer loop
  vertex 0.014814348 0.0245968197 0.030586198
  vertex -0.000863432942 0.0245923735 0.0305728968
  vertex 0.014814348 0.0244841799 0.0307546593
  endloop
 endfacet

 facet normal -0.00587418117 0.70292592 -0.711238801
  outer loop
  vertex -0.000863432942 0.0234392956 0.0219059382
  vertex 0.014814348 0.023503026 0.0218394399
  vertex -0.000863432942 0.023270335 0.0217389539
  endloop
 endfacet

 facet normal -0.0038597032 0.684071064 -0.729405165
  outer loop
  vertex 0.014814348 0.023503026 0.0218394399
  vertex 0.014814348 0.0222550929 0.0206690691
  vertex -0.000863432942 0.0221587569 0.02066168
  endloop
 endfacet

 facet normal -0.00572640216 0.695927501 -0.718089283
  outer loop
  vertex 0.014814348 0.023503026 0.0218394399
  vertex -0.000863432942 0.0221587569 0.02066168
  vertex -0.000863432942 0.023270335 0.0217389539
  endloop
 endfacet

 facet normal -0.00392780546 0.733013391 0.680202961
  outer loop
  vertex -0.000863432942 0.0245923735 0.0305728968
  vertex -0.000863432942 0.0233637076 0.0318969563
  vertex 0.014814348 0.0234052073 0.0319427662
  endloop
 endfacet

 facet normal -0.00268548355 0.740285635 0.672287226
  outer loop
  vertex -0.000863432942 0.0245923735 0.0305728968
  vertex 0.014814348 0.0234052073 0.0319427662
  vertex 0.014814348 0.0244841799 0.0307546593
  endloop
 endfacet

 facet normal -0.00351905706 0.632120967 -0.774861753
  outer loop
  vertex 0.014814348 0.0222550929 0.0206690691
  vertex 0.014814348 0.0222061835 0.0206291694
  vertex -0.000863432942 0.0221587569 0.02066168
  endloop
 endfacet

 facet normal -0.00331850047 0.505551457 -0.862790048
  outer loop
  vertex -0.000863432942 0.0221587569 0.02066168
  vertex 0.014814348 0.0222061835 0.0206291694
  vertex -0.000863432942 0.0218460318 0.0204784386
  endloop
 endfacet

 facet normal -0.00445633475 0.662658453 0.74890852
  outer loop
  vertex -0.000863432942 0.0233637076 0.0318969563
  vertex -0.000863432942 0.0223366097 0.0328057669
  vertex 0.014814348 0.023230318 0.0321082734
  endloop
 endfacet

 facet normal -0.00394167472 0.687352657 0.726313233
  outer loop
  vertex -0.000863432942 0.0233637076 0.0318969563
  vertex 0.014814348 0.023230318 0.0321082734
  vertex 0.014814348 0.0234052073 0.0319427662
  endloop
 endfacet

 facet normal -0.000930309645 0.463448465 -0.886123419
  outer loop
  vertex 0.014814348 0.0222061835 0.0206291694
  vertex 0.014814348 0.0209686253 0.0199819189
  vertex -0.000863432942 0.0205980986 0.0198045895
  endloop
 endfacet

 facet normal -0.00245499983 0.475128621 -0.879912972
  outer loop
  vertex 0.014814348 0.0222061835 0.0206291694
  vertex -0.000863432942 0.0205980986 0.0198045895
  vertex -0.000863432942 0.0218460318 0.0204784386
  endloop
 endfacet

 facet normal -0.00335943792 0.635210693 0.772331595
  outer loop
  vertex -0.000863432942 0.0223366097 0.0328057669
  vertex -0.000863432942 0.0220149923 0.0330702811
  vertex 0.014814348 0.0220475979 0.0331116579
  endloop
 endfacet

 facet normal -0.00295261061 0.646924675 0.762548208
  outer loop
  vertex -0.000863432942 0.0223366097 0.0328057669
  vertex 0.014814348 0.0220475979 0.0331116579
  vertex 0.014814348 0.023230318 0.0321082734
  endloop
 endfacet

 facet normal 0.00150541204 0.379152745 -0.925332904
  outer loop
  vertex 0.014814348 0.0209686253 0.0199819189
  vertex 0.014814348 0.0205358509 0.0198045895
  vertex -0.000863432942 0.0205980986 0.0198045895
  endloop
 endfacet

 facet normal 0.00020118567 0.0506705791 -0.998715401
  outer loop
  vertex -0.000863432942 0.0205980986 0.0198045895
  vertex 0.014814348 0.0205358509 0.0198045895
  vertex 0.0138429282 0.0184134748 0.0196967144
  endloop
 endfacet

 facet normal -0.00733513385 0 -0.999973059
  outer loop
  vertex -0.000863432942 0.0205980986 0.0198045895
  vertex 0.0138429282 0.0184134748 0.0196967144
  vertex -0.000863432942 0.0154225854 0.0198045895
  endloop
 endfacet

 facet normal -0.00343267317 0.478096008 0.878300905
  outer loop
  vertex -0.000863432942 0.0220149923 0.0330702811
  vertex -0.000863432942 0.0198377781 0.0342554301
  vertex 0.014814348 0.0217719264 0.0332638659
  endloop
 endfacet

 facet normal -0.00331567298 0.483349204 0.875421405
  outer loop
  vertex -0.000863432942 0.0220149923 0.0330702811
  vertex 0.014814348 0.0217719264 0.0332638659
  vertex 0.014814348 0.0220475979 0.0331116579
  endloop
 endfacet

 facet normal 0.110371351 0 -0.993890464
  outer loop
  vertex 0.014814348 0.0205358509 0.0198045895
  vertex 0.014814348 0.0150090773 0.0198045895
  vertex 0.0138429282 0.0184134748 0.0196967144
  endloop
 endfacet

 facet normal -0.0052104746 -0.0104455771 -0.999931812
  outer loop
  vertex -0.000863432942 0.0154225854 0.0198045895
  vertex 0.0138429282 0.0184134748 0.0196967144
  vertex 0.0138429282 0.0171403456 0.0197100136
  endloop
 endfacet

 facet normal -0.00118347467 -0.0448704138 -0.998992085
  outer loop
  vertex -0.000863432942 0.0154225854 0.0198045895
  vertex 0.0138429282 0.0171403456 0.0197100136
  vertex 0.014814348 0.0150090773 0.0198045895
  endloop
 endfacet

 facet normal -0.0101953959 -0.386549532 -0.922212422
  outer loop
  vertex -0.000863432942 0.0154225854 0.0198045895
  vertex 0.014814348 0.0150090773 0.0198045895
  vertex -0.000863432942 0.0145940874 0.0201518591
  endloop
 endfacet

 facet normal 0.0742307827 -0.0104169007 -0.997186661
  outer loop
  vertex 0.0138429282 0.0184134748 0.0196967144
  vertex 0.014814348 0.0150090773 0.0198045895
  vertex 0.0138429282 0.0171403456 0.0197100136
  endloop
 endfacet

 facet normal -0.000753532571 0.408186615 0.912898183
  outer loop
  vertex -0.000863432942 0.0198377781 0.0342554301
  vertex -0.000863432942 0.019550249 0.0343839936
  vertex 0.014814348 0.0195428394 0.0344002508
  endloop
 endfacet

 facet normal 0.000314888486 0.454182565 0.890908599
  outer loop
  vertex -0.000863432942 0.0198377781 0.0342554301
  vertex 0.014814348 0.0195428394 0.0344002508
  vertex 0.014814348 0.0217719264 0.0332638659
  endloop
 endfacet

 facet normal -0.00137499336 -0.463189334 -0.886258304
  outer loop
  vertex 0.014814348 0.0150090773 0.0198045895
  vertex 0.014814348 0.0134765795 0.0206055269
  vertex -0.000863432942 0.013412849 0.0206631571
  endloop
 endfacet

 facet normal -0.00981253572 -0.397214919 -0.917673111
  outer loop
  vertex 0.014814348 0.0150090773 0.0198045895
  vertex -0.000863432942 0.013412849 0.0206631571
  vertex -0.000863432942 0.0145940874 0.0201518591
  endloop
 endfacet

 facet normal -0.000832822989 0.317785025 0.948162436
  outer loop
  vertex -0.000863432942 0.019550249 0.0343839936
  vertex -0.000863432942 0.0186728425 0.0346780643
  vertex 0.014814348 0.0195428394 0.0344002508
  endloop
 endfacet

 facet normal 0.0037727647 0.241860375 0.970303833
  outer loop
  vertex 0.014814348 0.0195428394 0.0344002508
  vertex -0.000863432942 0.0186728425 0.0346780643
  vertex -0.000863432942 0.0184179209 0.0347416066
  endloop
 endfacet

 facet normal 0.00598591752 0.213054702 0.977021933
  outer loop
  vertex 0.014814348 0.0195428394 0.0344002508
  vertex -0.000863432942 0.0184179209 0.0347416066
  vertex 0.014814348 0.0184179209 0.0346455537
  endloop
 endfacet

 facet normal -0.00108155003 -0.51116389 -0.859482646
  outer loop
  vertex 0.014814348 0.0134765795 0.0206055269
  vertex 0.014814348 0.0133921001 0.0206557699
  vertex -0.000863432942 0.013412849 0.0206631571
  endloop
 endfacet

 facet normal -0.00121628959 -0.647721887 -0.761875987
  outer loop
  vertex -0.000863432942 0.013412849 0.0206631571
  vertex 0.014814348 0.0133921001 0.0206557699
  vertex 0.014814348 0.0127281165 0.0212202668
  endloop
 endfacet

 facet normal -0.00263461354 -0.666715741 -0.745307565
  outer loop
  vertex -0.000863432942 0.013412849 0.0206631571
  vertex 0.014814348 0.0127281165 0.0212202668
  vertex -0.000863432942 0.0132542634 0.0208050199
  endloop
 endfacet

 facet normal 0.00611891598 0.0500118509 0.998730004
  outer loop
  vertex 0.014814348 0.0184179209 0.0346455537
  vertex -0.000863432942 0.0184179209 0.0347416066
  vertex -0.000863432942 0.0174145345 0.0347918533
  endloop
 endfacet

 facet normal 0.00828889851 0.0162670035 0.999833286
  outer loop
  vertex 0.014814348 0.0184179209 0.0346455537
  vertex -0.000863432942 0.0174145345 0.0347918533
  vertex 0.014814348 0.0171462744 0.0346662439
  endloop
 endfacet

 facet normal -0.0047705234 -0.703236461 -0.710940003
  outer loop
  vertex -0.000863432942 0.0132542634 0.0208050199
  vertex 0.014814348 0.0127281165 0.0212202668
  vertex -0.000863432942 0.0121308276 0.0219162833
  endloop
 endfacet

 facet normal -0.00326571474 -0.721336722 -0.692576885
  outer loop
  vertex 0.014814348 0.0127281165 0.0212202668
  vertex 0.014814348 0.0120967394 0.0218778625
  vertex -0.000863432942 0.0121308276 0.0219162833
  endloop
 endfacet

 facet normal 0.00801163353 0 0.999967933
  outer loop
  vertex 0.014814348 0.0171462744 0.0346662439
  vertex -0.000863432942 0.0174145345 0.0347918533
  vertex -0.000863432942 0.0171447918 0.0347918533
  endloop
 endfacet

 facet normal 0.00792328268 -0.160216779 0.987050056
  outer loop
  vertex 0.014814348 0.0171462744 0.0346662439
  vertex -0.000863432942 0.0171447918 0.0347918533
  vertex 0.014814348 0.017082544 0.0346558988
  endloop
 endfacet

 facet normal -0.00325810676 -0.738502443 -0.674242973
  outer loop
  vertex -0.000863432942 0.0121308276 0.0219162833
  vertex 0.014814348 0.0120967394 0.0218778625
  vertex -0.000863432942 0.0109125366 0.0232506841
  endloop
 endfacet

 facet normal 0.00161000236 -0.766228914 -0.642565668
  outer loop
  vertex 0.014814348 0.0120967394 0.0218778625
  vertex 0.014814348 0.0109925708 0.023194531
  vertex -0.000863432942 0.0109125366 0.0232506841
  endloop
 endfacet

 facet normal 0.0078750765 -0.169114456 0.985564947
  outer loop
  vertex 0.014814348 0.017082544 0.0346558988
  vertex -0.000863432942 0.0171447918 0.0347918533
  vertex 0.014814348 0.015945768 0.0344608389
  endloop
 endfacet

 facet normal 0.00140429928 -0.249011561 0.968499541
  outer loop
  vertex -0.000863432942 0.0171447918 0.0347918533
  vertex -0.000863432942 0.015920572 0.0344770923
  vertex 0.014814348 0.015945768 0.0344608389
  endloop
 endfacet

 facet normal 0.00225281855 -0.831292987 -0.555830002
  outer loop
  vertex -0.000863432942 0.0109125366 0.0232506841
  vertex 0.014814348 0.0109925708 0.023194531
  vertex 0.014814348 0.0109392144 0.0232743286
  endloop
 endfacet

 facet normal 0.00214180909 -0.927607238 -0.373550951
  outer loop
  vertex -0.000863432942 0.0109125366 0.0232506841
  vertex 0.014814348 0.0109392144 0.0232743286
  vertex -0.000863432942 0.0108339852 0.0234457459
  endloop
 endfacet

 facet normal 0.00152557646 -0.343379319 0.939195573
  outer loop
  vertex 0.014814348 0.015945768 0.0344608389
  vertex -0.000863432942 0.015920572 0.0344770923
  vertex 0.014814348 0.0159013048 0.0344445817
  endloop
 endfacet

 facet normal 0.000123385456 -0.450782597 0.892633855
  outer loop
  vertex -0.000863432942 0.015920572 0.0344770923
  vertex -0.000863432942 0.0136381295 0.033324454
  vertex 0.014814348 0.0134024741 0.0332032777
  endloop
 endfacet

 facet normal 0.00131039799 -0.44488579 0.895586431
  outer loop
  vertex -0.000863432942 0.015920572 0.0344770923
  vertex 0.014814348 0.0134024741 0.0332032777
  vertex 0.014814348 0.0159013048 0.0344445817
  endloop
 endfacet

 facet normal 0.0033452916 -0.959158599 -0.282849133
  outer loop
  vertex -0.000863432942 0.0108339852 0.0234457459
  vertex 0.014814348 0.0109392144 0.0232743286
  vertex -0.000863432942 0.010556831 0.0243855901
  endloop
 endfacet

 facet normal 0.0049509434 -0.964999199 -0.262206197
  outer loop
  vertex 0.014814348 0.0109392144 0.0232743286
  vertex 0.014814348 0.0106368652 0.024387069
  vertex -0.000863432942 0.010556831 0.0243855901
  endloop
 endfacet

 facet normal -0.000541443063 -0.485540956 0.874213696
  outer loop
  vertex -0.000863432942 0.0136381295 0.033324454
  vertex -0.000863432942 0.0134172952 0.0332018025
  vertex 0.014814348 0.0134024741 0.0332032777
  endloop
 endfacet

 facet normal -0.00068101089 -0.644073844 0.764963031
  outer loop
  vertex 0.014814348 0.0134024741 0.0332032777
  vertex -0.000863432942 0.0134172952 0.0332018025
  vertex 0.014814348 0.0133357802 0.0331471264
  endloop
 endfacet

 facet normal 0.00502464129 -0.980665743 -0.195626318
  outer loop
  vertex -0.000863432942 0.010556831 0.0243855901
  vertex 0.014814348 0.0106368652 0.024387069
  vertex -0.000863432942 0.0105034756 0.0246530622
  endloop
 endfacet

 facet normal 0.00563254207 -0.986644089 -0.162794292
  outer loop
  vertex 0.014814348 0.0106368652 0.024387069
  vertex 0.014814348 0.0104293702 0.0256446283
  vertex -0.000863432942 0.0105034756 0.0246530622
  endloop
 endfacet

 facet normal -0.00287195551 -0.698585272 0.715521038
  outer loop
  vertex -0.000863432942 0.0134172952 0.0332018025
  vertex -0.000863432942 0.012133792 0.0319486782
  vertex 0.014814348 0.0121041499 0.031982664
  endloop
 endfacet

 facet normal -0.0010379178 -0.687014341 0.726643085
  outer loop
  vertex -0.000863432942 0.0134172952 0.0332018025
  vertex 0.014814348 0.0121041499 0.031982664
  vertex 0.014814348 0.0133357802 0.0331471264
  endloop
 endfacet

 facet normal 0.00217441795 -0.994075239 -0.10867282
  outer loop
  vertex -0.000863432942 0.0105034756 0.0246530622
  vertex 0.014814348 0.0104293702 0.0256446283
  vertex 0.014814348 0.0103019094 0.026810566
  endloop
 endfacet

 facet normal -0.00321913231 -0.997555554 -0.0698050261
  outer loop
  vertex -0.000863432942 0.0105034756 0.0246530622
  vertex 0.014814348 0.0103019094 0.026810566
  vertex 0.014814348 0.0102930162 0.0269376505
  endloop
 endfacet

 facet normal -0.00440180022 -0.998082757 -0.061737638
  outer loop
  vertex -0.000863432942 0.0105034756 0.0246530622
  vertex 0.014814348 0.0102930162 0.0269376505
  vertex -0.000863432942 0.0104412269 0.0256594047
  endloop
 endfacet

 facet normal -0.00286119408 -0.73142761 0.681913078
  outer loop
  vertex -0.000863432942 0.012133792 0.0319486782
  vertex -0.000863432942 0.0110385157 0.0307738706
  vertex 0.014814348 0.0121041499 0.031982664
  endloop
 endfacet

 facet normal 0.00300870673 -0.76916182 0.639046967
  outer loop
  vertex 0.014814348 0.0121041499 0.031982664
  vertex -0.000863432942 0.0110385157 0.0307738706
  vertex 0.014814348 0.0109451432 0.030587675
  endloop
 endfacet

 facet normal -0.00485179853 -0.998404622 -0.0562556833
  outer loop
  vertex -0.000863432942 0.0104412269 0.0256594047
  vertex 0.014814348 0.0102930162 0.0269376505
  vertex -0.000863432942 0.0104264058 0.0259224419
  endloop
 endfacet

 facet normal 0.000897597231 -0.993904114 0.11024414
  outer loop
  vertex 0.014814348 0.0102930162 0.0269376505
  vertex 0.014814348 0.0104338164 0.0282070339
  vertex -0.000863432942 0.0105612772 0.0294838008
  endloop
 endfacet

 facet normal -0.00200289441 -0.995703816 0.0925741419
  outer loop
  vertex 0.014814348 0.0102930162 0.0269376505
  vertex -0.000863432942 0.0105612772 0.0294838008
  vertex -0.000863432942 0.0104427086 0.0282085091
  endloop
 endfacet

 facet normal -0.00756265735 -0.999672294 0.0244542975
  outer loop
  vertex 0.014814348 0.0102930162 0.0269376505
  vertex -0.000863432942 0.0104427086 0.0282085091
  vertex -0.000863432942 0.0104115847 0.0269361734
  endloop
 endfacet

 facet normal -0.00756043196 -0.999864578 -0.0146183111
  outer loop
  vertex 0.014814348 0.0102930162 0.0269376505
  vertex -0.000863432942 0.0104115847 0.0269361734
  vertex -0.000863432942 0.0104264058 0.0259224419
  endloop
 endfacet

 facet normal 0.00253323419 -0.792028368 0.610479057
  outer loop
  vertex -0.000863432942 0.0110385157 0.0307738706
  vertex -0.000863432942 0.010915501 0.0306142736
  vertex 0.014814348 0.0109451432 0.030587675
  endloop
 endfacet

 facet normal 0.00237869425 -0.931341529 0.364139259
  outer loop
  vertex 0.014814348 0.0109451432 0.030587675
  vertex -0.000863432942 0.010915501 0.0306142736
  vertex 0.014814348 0.0109110549 0.0305004884
  endloop
 endfacet

 facet normal 0.00468712905 -0.987720847 0.15615952
  outer loop
  vertex 0.014814348 0.0104338164 0.0282070339
  vertex 0.014814348 0.0106235258 0.0294069592
  vertex -0.000863432942 0.0105612772 0.0294838008
  endloop
 endfacet

 facet normal 0.00508628134 -0.967114687 0.254289806
  outer loop
  vertex -0.000863432942 0.0105612772 0.0294838008
  vertex 0.014814348 0.0106235258 0.0294069592
  vertex 0.014814348 0.0109110549 0.0305004884
  endloop
 endfacet

 facet normal 0.00189947337 -0.954249382 0.299005717
  outer loop
  vertex -0.000863432942 0.0105612772 0.0294838008
  vertex 0.014814348 0.0109110549 0.0305004884
  vertex -0.000863432942 0.010915501 0.0306142736
  endloop
 endfacet

endsolid AssimpScene
