solid AssimpScene
 facet normal 0 -1 0
  outer loop
  vertex 0.00762492185 -0.00962172635 0.0121495035
  vertex 0.00676451297 -0.00962172635 0.0121491561
  vertex 0.00676451297 -0.00962172635 0.0109652542
  endloop
 endfacet

 facet normal 0 -1 0
  outer loop
  vertex 0.00762492185 -0.00962172635 0.0121495035
  vertex 0.00676451297 -0.00962172635 0.0109652542
  vertex 0.00762492185 -0.00962172635 0.0109652542
  endloop
 endfacet

 facet normal 1 0 0
  outer loop
  vertex 0.00762492185 -0.00962172635 0.0121495035
  vertex 0.00762492185 -0.00962172635 0.0109652542
  vertex 0.00762492185 -0.00197261199 0.0109652542
  endloop
 endfacet

 facet normal 1 0 0
  outer loop
  vertex 0.00762492185 -0.00962172635 0.0121495035
  vertex 0.00762492185 -0.00197261199 0.0109652542
  vertex 0.00762492185 -0.00200909562 0.0115794642
  endloop
 endfacet

 facet normal 1 0 0
  outer loop
  vertex 0.00762492185 -0.00962172635 0.0121495035
  vertex 0.00762492185 -0.00200909562 0.0115794642
  vertex 0.00762492185 -0.00325557101 0.0120125869
  endloop
 endfacet

 facet normal 1 0 0
  outer loop
  vertex 0.00762492185 -0.00962172635 0.0121495035
  vertex 0.00762492185 -0.00325557101 0.0120125869
  vertex 0.00762492185 -0.00453245174 0.0121063767
  endloop
 endfacet

 facet normal 1 0 0
  outer loop
  vertex 0.00762492185 -0.00962172635 0.0121495035
  vertex 0.00762492185 -0.00453245174 0.0121063767
  vertex 0.00762492185 -0.00580933038 0.0121173905
  endloop
 endfacet

 facet normal 0.112006322 0.00837009307 0.993672252
  outer loop
  vertex 0.00762492185 -0.00962172635 0.0121495035
  vertex 0.00762492185 -0.00580933038 0.0121173905
  vertex 0.00676442729 0.0214368347 0.0119848801
  endloop
 endfacet

 facet normal -0.000404146238 0.00528916577 0.999985874
  outer loop
  vertex 0.00762492185 -0.00962172635 0.0121495035
  vertex 0.00676442729 0.0214368347 0.0119848801
  vertex 0.00676451297 -0.00962172635 0.0121491561
  endloop
 endfacet

 facet normal -1 -1.84229873e-06 0.000172207991
  outer loop
  vertex 0.00676451297 -0.00962172635 0.0121491561
  vertex 0.00676442729 0.0214368347 0.0119848801
  vertex 0.00676442729 0.00513838744 0.0118105169
  endloop
 endfacet

 facet normal -1 -5.7932366e-06 0
  outer loop
  vertex 0.00676451297 -0.00962172635 0.0121491561
  vertex 0.00676442729 0.00513838744 0.0118105169
  vertex 0.00676442729 0.00513838744 0.0109652542
  endloop
 endfacet

 facet normal -1 -5.7932366e-06 0
  outer loop
  vertex 0.00676451297 -0.00962172635 0.0121491561
  vertex 0.00676442729 0.00513838744 0.0109652542
  vertex 0.00676451297 -0.00962172635 0.0109652542
  endloop
 endfacet

 facet normal 0 0 -1
  outer loop
  vertex 0.00762492185 -0.00962172635 0.0109652542
  vertex 0.00676451297 -0.00962172635 0.0109652542
  vertex 0.00676442729 0.00513838744 0.0109652542
  endloop
 endfacet

 facet normal 0 0 -1
  outer loop
  vertex 0.00762492185 -0.00962172635 0.0109652542
  vertex 0.00676442729 0.00513838744 0.0109652542
  vertex 0.00676442729 0.0214368347 0.0109652542
  endloop
 endfacet

 facet normal 0 0 -1
  outer loop
  vertex 0.00762492185 -0.00962172635 0.0109652542
  vertex 0.00676442729 0.0214368347 0.0109652542
  vertex 0.00756494375 0.0214368347 0.0109652542
  endloop
 endfacet

 facet normal 0 0 -1
  outer loop
  vertex 0.00762492185 -0.00962172635 0.0109652542
  vertex 0.00756494375 0.0214368347 0.0109652542
  vertex 0.00762492185 -0.00197261199 0.0109652542
  endloop
 endfacet

 facet normal 0.118273988 0.00856449921 0.992944002
  outer loop
  vertex 0.00762492185 -0.00580933038 0.0121173905
  vertex 0.00762492185 -0.00453245174 0.0121063767
  vertex 0.00676442729 0.0214368347 0.0119848801
  endloop
 endfacet

 facet normal 0 1 0
  outer loop
  vertex 0.00676442729 0.0214368347 0.0119848801
  vertex 0.00692667207 0.0214368347 0.0119232032
  vertex 0.00718343025 0.0214368347 0.0117869824
  endloop
 endfacet

 facet normal 0 1 0
  outer loop
  vertex 0.00676442729 0.0214368347 0.0119848801
  vertex 0.00718343025 0.0214368347 0.0117869824
  vertex 0.00741634844 0.0214368347 0.0116632832
  endloop
 endfacet

 facet normal 0 1 0
  outer loop
  vertex 0.00676442729 0.0214368347 0.0119848801
  vertex 0.00741634844 0.0214368347 0.0116632832
  vertex 0.00756494375 0.0214368347 0.0109652542
  endloop
 endfacet

 facet normal 0 1 0
  outer loop
  vertex 0.00676442729 0.0214368347 0.0119848801
  vertex 0.00756494375 0.0214368347 0.0109652542
  vertex 0.00676442729 0.0214368347 0.0109652542
  endloop
 endfacet

 facet normal -1 0 0
  outer loop
  vertex 0.00676442729 0.0214368347 0.0119848801
  vertex 0.00676442729 0.0214368347 0.0109652542
  vertex 0.00676442729 0.00513838744 0.0109652542
  endloop
 endfacet

 facet normal -1 0 0
  outer loop
  vertex 0.00676442729 0.0214368347 0.0119848801
  vertex 0.00676442729 0.00513838744 0.0109652542
  vertex 0.00676442729 0.00513838744 0.0118105169
  endloop
 endfacet

 facet normal 0.355288237 0.0161451064 0.9346174
  outer loop
  vertex 0.00676442729 0.0214368347 0.0119848801
  vertex 0.00762492185 -0.00453245174 0.0121063767
  vertex 0.00692667207 0.0214368347 0.0119232032
  endloop
 endfacet

 facet normal 0.999996662 0.00256211055 0.00015218815
  outer loop
  vertex 0.00762492185 -0.00197261199 0.0109652542
  vertex 0.00756494375 0.0214368347 0.0109652542
  vertex 0.00762492185 -0.00200909562 0.0115794642
  endloop
 endfacet

 facet normal 0.996935129 0.00573087204 0.0780220106
  outer loop
  vertex 0.00762492185 -0.00453245174 0.0121063767
  vertex 0.00762492185 -0.00325557101 0.0120125869
  vertex 0.00756494375 0.0214368347 0.0109652542
  endloop
 endfacet

 facet normal 0.978019893 0.0114073437 0.208199441
  outer loop
  vertex 0.00762492185 -0.00453245174 0.0121063767
  vertex 0.00756494375 0.0214368347 0.0109652542
  vertex 0.00741634844 0.0214368347 0.0116632832
  endloop
 endfacet

 facet normal 0.468959659 0.018832732 0.883018851
  outer loop
  vertex 0.00762492185 -0.00453245174 0.0121063767
  vertex 0.00741634844 0.0214368347 0.0116632832
  vertex 0.00718343025 0.0214368347 0.0117869824
  endloop
 endfacet

 facet normal 0.468583554 0.0188287944 0.883218527
  outer loop
  vertex 0.00762492185 -0.00453245174 0.0121063767
  vertex 0.00718343025 0.0214368347 0.0117869824
  vertex 0.00692667207 0.0214368347 0.0119232032
  endloop
 endfacet

 facet normal 0.999964476 0.00276662037 0.00796198659
  outer loop
  vertex 0.00756494375 0.0214368347 0.0109652542
  vertex 0.00762492185 -0.00325557101 0.0120125869
  vertex 0.00762492185 -0.00200909562 0.0115794642
  endloop
 endfacet

endsolid AssimpScene
