solid AssimpScene
 facet normal 1 0 0
  outer loop
  vertex 0.00661918242 0.0272860657 0.0127558326
  vertex 0.00661918242 0.0236927792 0.0127558326
  vertex 0.00661918242 0.0216382369 -0.00400840631
  endloop
 endfacet

 facet normal 1 0 0
  outer loop
  vertex 0.00661918242 0.0272860657 0.0127558326
  vertex 0.00661918242 0.0216382369 -0.00400840631
  vertex 0.00661918242 0.0216388553 -0.00407005334
  endloop
 endfacet

 facet normal 1 0 0
  outer loop
  vertex 0.00661918242 0.0272860657 0.0127558326
  vertex 0.00661918242 0.0216388553 -0.00407005334
  vertex 0.00661918242 0.0216815267 -0.00503585627
  endloop
 endfacet

 facet normal 1 0 0
  outer loop
  vertex 0.00661918242 0.0272860657 0.0127558326
  vertex 0.00661918242 0.0216815267 -0.00503585627
  vertex 0.00661918242 0.0217050295 -0.00537771638
  endloop
 endfacet

 facet normal 1 0 0
  outer loop
  vertex 0.00661918242 0.0272860657 0.0127558326
  vertex 0.00661918242 0.0217050295 -0.00537771638
  vertex 0.00661918242 0.021716781 -0.00540200155
  endloop
 endfacet

 facet normal 1 0 0
  outer loop
  vertex 0.00661918242 0.0272860657 0.0127558326
  vertex 0.00661918242 0.021716781 -0.00540200155
  vertex 0.00661918242 0.0225572754 -0.00572144473
  endloop
 endfacet

 facet normal 1 0 0
  outer loop
  vertex 0.00661918242 0.0272860657 0.0127558326
  vertex 0.00661918242 0.0225572754 -0.00572144473
  vertex 0.00661918242 0.0241974462 -0.00625571841
  endloop
 endfacet

 facet normal 1 0 0
  outer loop
  vertex 0.00661918242 0.0272860657 0.0127558326
  vertex 0.00661918242 0.0241974462 -0.00625571841
  vertex 0.00661918242 0.0244299918 -0.00629121112
  endloop
 endfacet

 facet normal 1 0 0
  outer loop
  vertex 0.00661918242 0.0272860657 0.0127558326
  vertex 0.00661918242 0.0244299918 -0.00629121112
  vertex 0.00661918242 0.0257312432 -0.00632857392
  endloop
 endfacet

 facet normal 1 0 0
  outer loop
  vertex 0.00661918242 0.0272860657 0.0127558326
  vertex 0.00661918242 0.0257312432 -0.00632857392
  vertex 0.00661918242 0.0258592647 -0.00632110238
  endloop
 endfacet

 facet normal 1 0 0
  outer loop
  vertex 0.00661918242 0.0272860657 0.0127558326
  vertex 0.00661918242 0.0258592647 -0.00632110238
  vertex 0.00661918242 0.0267226435 -0.00621648971
  endloop
 endfacet

 facet normal 1 0 0
  outer loop
  vertex 0.00661918242 0.0272860657 0.0127558326
  vertex 0.00661918242 0.0267226435 -0.00621648971
  vertex 0.00661918242 0.026809847 -0.00620341254
  endloop
 endfacet

 facet normal 1 0 0
  outer loop
  vertex 0.00661918242 0.0272860657 0.0127558326
  vertex 0.00661918242 0.026809847 -0.00620341254
  vertex 0.00661918242 0.0275068581 -0.00542628672
  endloop
 endfacet

 facet normal 1 0 0
  outer loop
  vertex 0.00661918242 0.0272860657 0.0127558326
  vertex 0.00661918242 0.0275068581 -0.00542628672
  vertex 0.00661918242 0.0279138088 -0.00479487237
  endloop
 endfacet

 facet normal 1 0 0
  outer loop
  vertex 0.00661918242 0.0272860657 0.0127558326
  vertex 0.00661918242 0.0279138088 -0.00479487237
  vertex 0.00661918242 0.0279552452 -0.0047294884
  endloop
 endfacet

 facet normal 1 0 0
  outer loop
  vertex 0.00661918242 0.0272860657 0.0127558326
  vertex 0.00661918242 0.0279552452 -0.0047294884
  vertex 0.00661918242 0.0279552452 -0.00452960329
  endloop
 endfacet

 facet normal 1 0 0
  outer loop
  vertex 0.00661918242 0.0272860657 0.0127558326
  vertex 0.00661918242 0.0279552452 -0.00452960329
  vertex 0.00661918242 0.0279311258 -0.00389632117
  endloop
 endfacet

 facet normal 1 0 0
  outer loop
  vertex 0.00661918242 0.0272860657 0.0127558326
  vertex 0.00661918242 0.0279311258 -0.00389632117
  vertex 0.00661918242 0.0278865974 -0.0027287649
  endloop
 endfacet

 facet normal 1 0 0
  outer loop
  vertex 0.00661918242 0.0272860657 0.0127558326
  vertex 0.00661918242 0.0278865974 -0.0027287649
  vertex 0.00661918242 0.0274011008 0.00991820451
  endloop
 endfacet

 facet normal 1 0 0
  outer loop
  vertex 0.00661918242 0.0272860657 0.0127558326
  vertex 0.00661918242 0.0274011008 0.00991820451
  vertex 0.00661918242 0.0272941049 0.0127035268
  endloop
 endfacet

 facet normal 0 0.988390684 0.151933387
  outer loop
  vertex 0.00661918242 0.0272860657 0.0127558326
  vertex 0.00661918242 0.0272941049 0.0127035268
  vertex -2.63020538e-05 0.0272941049 0.0127035268
  endloop
 endfacet

 facet normal 0 0.988390684 0.151933387
  outer loop
  vertex 0.00661918242 0.0272860657 0.0127558326
  vertex -2.63020538e-05 0.0272941049 0.0127035268
  vertex -2.63020538e-05 0.0272860657 0.0127558326
  endloop
 endfacet

 facet normal 0 0 1
  outer loop
  vertex 0.00661918242 0.0272860657 0.0127558326
  vertex -2.63020538e-05 0.0272860657 0.0127558326
  vertex -2.63020538e-05 0.0236927792 0.0127558326
  endloop
 endfacet

 facet normal 0 0 1
  outer loop
  vertex 0.00661918242 0.0272860657 0.0127558326
  vertex -2.63020538e-05 0.0236927792 0.0127558326
  vertex 0.00661918242 0.0236927792 0.0127558326
  endloop
 endfacet

 facet normal 0 -0.992573678 0.121644966
  outer loop
  vertex 0.00661918242 0.0236927792 0.0127558326
  vertex -2.63020538e-05 0.0236927792 0.0127558326
  vertex 0.00661918242 0.0216382369 -0.00400840631
  endloop
 endfacet

 facet normal 0 0.999263108 0.0383855812
  outer loop
  vertex 0.00661918242 0.0272941049 0.0127035268
  vertex 0.00661918242 0.0274011008 0.00991820451
  vertex -2.63020538e-05 0.0274011008 0.00991820451
  endloop
 endfacet

 facet normal 0 0.999263108 0.0383855812
  outer loop
  vertex 0.00661918242 0.0272941049 0.0127035268
  vertex -2.63020538e-05 0.0274011008 0.00991820451
  vertex -2.63020538e-05 0.0272941049 0.0127035268
  endloop
 endfacet

 facet normal -1 0 0
  outer loop
  vertex -2.63020538e-05 0.0272860657 0.0127558326
  vertex -2.63020538e-05 0.0272941049 0.0127035268
  vertex -2.63020538e-05 0.0274011008 0.00991820451
  endloop
 endfacet

 facet normal -1 0 0
  outer loop
  vertex -2.63020538e-05 0.0272860657 0.0127558326
  vertex -2.63020538e-05 0.0274011008 0.00991820451
  vertex -2.63020538e-05 0.0277925897 -0.000275962579
  endloop
 endfacet

 facet normal -1 0 0
  outer loop
  vertex -2.63020538e-05 0.0272860657 0.0127558326
  vertex -2.63020538e-05 0.0277925897 -0.000275962579
  vertex -2.63020538e-05 0.0279558636 -0.00452773552
  endloop
 endfacet

 facet normal -1 0 0
  outer loop
  vertex -2.63020538e-05 0.0272860657 0.0127558326
  vertex -2.63020538e-05 0.0279558636 -0.00452773552
  vertex -2.63020538e-05 0.0279558636 -0.0047294884
  endloop
 endfacet

 facet normal -1 0 0
  outer loop
  vertex -2.63020538e-05 0.0272860657 0.0127558326
  vertex -2.63020538e-05 0.0279558636 -0.0047294884
  vertex -2.63020538e-05 0.0278117638 -0.004953661
  endloop
 endfacet

 facet normal -1 0 0
  outer loop
  vertex -2.63020538e-05 0.0272860657 0.0127558326
  vertex -2.63020538e-05 0.0278117638 -0.004953661
  vertex -2.63020538e-05 0.0275068581 -0.00542628672
  endloop
 endfacet

 facet normal -1 0 0
  outer loop
  vertex -2.63020538e-05 0.0272860657 0.0127558326
  vertex -2.63020538e-05 0.0275068581 -0.00542628672
  vertex -2.63020538e-05 0.0272835903 -0.0056766104
  endloop
 endfacet

 facet normal -1 0 0
  outer loop
  vertex -2.63020538e-05 0.0272860657 0.0127558326
  vertex -2.63020538e-05 0.0272835903 -0.0056766104
  vertex -2.63020538e-05 0.0268104654 -0.00620341254
  endloop
 endfacet

 facet normal -1 0 0
  outer loop
  vertex -2.63020538e-05 0.0272860657 0.0127558326
  vertex -2.63020538e-05 0.0268104654 -0.00620341254
  vertex -2.63020538e-05 0.0265055634 -0.00622209394
  endloop
 endfacet

 facet normal -1 0 0
  outer loop
  vertex -2.63020538e-05 0.0272860657 0.0127558326
  vertex -2.63020538e-05 0.0265055634 -0.00622209394
  vertex -2.63020538e-05 0.0258592647 -0.00625945441
  endloop
 endfacet

 facet normal -1 0 0
  outer loop
  vertex -2.63020538e-05 0.0272860657 0.0127558326
  vertex -2.63020538e-05 0.0258592647 -0.00625945441
  vertex -2.63020538e-05 0.0250911303 -0.00615484221
  endloop
 endfacet

 facet normal -1 0 0
  outer loop
  vertex -2.63020538e-05 0.0272860657 0.0127558326
  vertex -2.63020538e-05 0.0250911303 -0.00615484221
  vertex -2.63020538e-05 0.0247237626 -0.00540200155
  endloop
 endfacet

 facet normal -1 0 0
  outer loop
  vertex -2.63020538e-05 0.0272860657 0.0127558326
  vertex -2.63020538e-05 0.0247237626 -0.00540200155
  vertex -2.63020538e-05 0.024620479 -0.00495552877
  endloop
 endfacet

 facet normal -1 0 0
  outer loop
  vertex -2.63020538e-05 0.0272860657 0.0127558326
  vertex -2.63020538e-05 0.024620479 -0.00495552877
  vertex -2.63020538e-05 0.0244015399 -0.00400840631
  endloop
 endfacet

 facet normal -1 0 0
  outer loop
  vertex -2.63020538e-05 0.0272860657 0.0127558326
  vertex -2.63020538e-05 0.0244015399 -0.00400840631
  vertex -2.63020538e-05 0.0236927792 0.0127558326
  endloop
 endfacet

 facet normal -0.383889735 -0.922554731 -0.0390039273
  outer loop
  vertex -2.63020538e-05 0.0236927792 0.0127558326
  vertex -2.63020538e-05 0.0244015399 -0.00400840631
  vertex 0.00661918242 0.0216388553 -0.00407005334
  endloop
 endfacet

 facet normal -0.317186058 -0.94831562 -0.00951428525
  outer loop
  vertex -2.63020538e-05 0.0236927792 0.0127558326
  vertex 0.00661918242 0.0216388553 -0.00407005334
  vertex 0.00661918242 0.0216382369 -0.00400840631
  endloop
 endfacet

 facet normal 0.0016101147 0.99926275 0.0383600183
  outer loop
  vertex 0.00661918242 0.0274011008 0.00991820451
  vertex 0.00661918242 0.0278865974 -0.0027287649
  vertex 0.00649037072 0.0279558636 -0.00452773552
  endloop
 endfacet

 facet normal 8.80915309e-07 0.999263465 0.0383743942
  outer loop
  vertex 0.00661918242 0.0274011008 0.00991820451
  vertex 0.00649037072 0.0279558636 -0.00452773552
  vertex -2.63020538e-05 0.0277925897 -0.000275962579
  endloop
 endfacet

 facet normal 0 0.999263406 0.0383749641
  outer loop
  vertex 0.00661918242 0.0274011008 0.00991820451
  vertex -2.63020538e-05 0.0277925897 -0.000275962579
  vertex -2.63020538e-05 0.0274011008 0.00991820451
  endloop
 endfacet

 facet normal -0.404077828 -0.891222954 -0.206016198
  outer loop
  vertex -2.63020538e-05 0.0244015399 -0.00400840631
  vertex -2.63020538e-05 0.024620479 -0.00495552877
  vertex 0.00661918242 0.0217050295 -0.00537771638
  endloop
 endfacet

 facet normal -0.38640365 -0.92015785 -0.063260369
  outer loop
  vertex -2.63020538e-05 0.0244015399 -0.00400840631
  vertex 0.00661918242 0.0217050295 -0.00537771638
  vertex 0.00661918242 0.0216815267 -0.00503585627
  endloop
 endfacet

 facet normal -0.383876771 -0.922484398 -0.0407578945
  outer loop
  vertex -2.63020538e-05 0.0244015399 -0.00400840631
  vertex 0.00661918242 0.0216815267 -0.00503585627
  vertex 0.00661918242 0.0216388553 -0.00407005334
  endloop
 endfacet

 facet normal 0.00508995866 0.999260604 0.0381107703
  outer loop
  vertex 0.00661918242 0.0278865974 -0.0027287649
  vertex 0.00661918242 0.0279311258 -0.00389632117
  vertex 0.00649037072 0.0279558636 -0.00452773552
  endloop
 endfacet

 facet normal 0.00534987357 0.99926126 0.0380577669
  outer loop
  vertex 0.00649037072 0.0279558636 -0.00452773552
  vertex 0.00661918242 0.0279311258 -0.00389632117
  vertex 0.00661918242 0.0279552452 -0.00452960329
  endloop
 endfacet

 facet normal 0.0048014787 0.999988437 0
  outer loop
  vertex 0.00649037072 0.0279558636 -0.00452773552
  vertex 0.00661918242 0.0279552452 -0.00452960329
  vertex 0.00661918242 0.0279552452 -0.0047294884
  endloop
 endfacet

 facet normal 0.0048014787 0.999988437 0
  outer loop
  vertex 0.00649037072 0.0279558636 -0.00452773552
  vertex 0.00661918242 0.0279552452 -0.0047294884
  vertex 0.00649037072 0.0279558636 -0.0047294884
  endloop
 endfacet

 facet normal 0 1 0
  outer loop
  vertex 0.00649037072 0.0279558636 -0.00452773552
  vertex 0.00649037072 0.0279558636 -0.0047294884
  vertex -2.63020538e-05 0.0279558636 -0.0047294884
  endloop
 endfacet

 facet normal 0 1 0
  outer loop
  vertex 0.00649037072 0.0279558636 -0.00452773552
  vertex -2.63020538e-05 0.0279558636 -0.0047294884
  vertex -2.63020538e-05 0.0279558636 -0.00452773552
  endloop
 endfacet

 facet normal 0 0.999263585 0.0383730493
  outer loop
  vertex 0.00649037072 0.0279558636 -0.00452773552
  vertex -2.63020538e-05 0.0279558636 -0.00452773552
  vertex -2.63020538e-05 0.0277925897 -0.000275962579
  endloop
 endfacet

 facet normal -0.404073179 -0.891191244 -0.206162378
  outer loop
  vertex -2.63020538e-05 0.024620479 -0.00495552877
  vertex -2.63020538e-05 0.0247237626 -0.00540200155
  vertex 0.00661918242 0.0217050295 -0.00537771638
  endloop
 endfacet

 facet normal -0.377215952 -0.833654046 -0.403397053
  outer loop
  vertex 0.00661918242 0.0217050295 -0.00537771638
  vertex -2.63020538e-05 0.0247237626 -0.00540200155
  vertex 0.00661918242 0.021716781 -0.00540200155
  endloop
 endfacet

 facet normal 0.00405563181 0.844653308 -0.535298347
  outer loop
  vertex 0.00649037072 0.0279558636 -0.0047294884
  vertex 0.00661918242 0.0279552452 -0.0047294884
  vertex 0.00661918242 0.0279138088 -0.00479487237
  endloop
 endfacet

 facet normal 1.07768819e-05 0.841053665 -0.540951729
  outer loop
  vertex 0.00649037072 0.0279558636 -0.0047294884
  vertex 0.00661918242 0.0279138088 -0.00479487237
  vertex -2.63020538e-05 0.0278117638 -0.004953661
  endloop
 endfacet

 facet normal 0 0.841196179 -0.540730059
  outer loop
  vertex 0.00649037072 0.0279558636 -0.0047294884
  vertex -2.63020538e-05 0.0278117638 -0.004953661
  vertex -2.63020538e-05 0.0279558636 -0.0047294884
  endloop
 endfacet

 facet normal -0.376696527 -0.83250612 -0.406242937
  outer loop
  vertex -2.63020538e-05 0.0247237626 -0.00540200155
  vertex -2.63020538e-05 0.0250911303 -0.00615484221
  vertex 0.00661918242 0.021716781 -0.00540200155
  endloop
 endfacet

 facet normal -0.0742933154 -0.35428977 -0.932179868
  outer loop
  vertex 0.00661918242 0.021716781 -0.00540200155
  vertex -2.63020538e-05 0.0250911303 -0.00615484221
  vertex 0.00661918242 0.0225572754 -0.00572144473
  endloop
 endfacet

 facet normal 3.73031762e-05 0.840548038 -0.541736901
  outer loop
  vertex 0.00661918242 0.0279138088 -0.00479487237
  vertex 0.00661918242 0.0275068581 -0.00542628672
  vertex -2.63020538e-05 0.0278117638 -0.004953661
  endloop
 endfacet

 facet normal 0 0.840309262 -0.542107344
  outer loop
  vertex -2.63020538e-05 0.0278117638 -0.004953661
  vertex 0.00661918242 0.0275068581 -0.00542628672
  vertex -2.63020538e-05 0.0275068581 -0.00542628672
  endloop
 endfacet

 facet normal -0.0337389074 -0.134867698 -0.990289092
  outer loop
  vertex -2.63020538e-05 0.0250911303 -0.00615484221
  vertex -2.63020538e-05 0.0258592647 -0.00625945441
  vertex 0.00661918242 0.0244299918 -0.00629121112
  endloop
 endfacet

 facet normal -0.0352743454 -0.150786385 -0.987936914
  outer loop
  vertex -2.63020538e-05 0.0250911303 -0.00615484221
  vertex 0.00661918242 0.0244299918 -0.00629121112
  vertex 0.00661918242 0.0241974462 -0.00625571841
  endloop
 endfacet

 facet normal -0.0559970252 -0.309238642 -0.949334383
  outer loop
  vertex -2.63020538e-05 0.0250911303 -0.00615484221
  vertex 0.00661918242 0.0241974462 -0.00625571841
  vertex 0.00661918242 0.0225572754 -0.00572144473
  endloop
 endfacet

 facet normal 0.00357441558 0.744431973 -0.667688847
  outer loop
  vertex 0.00661918242 0.0275068581 -0.00542628672
  vertex 0.00661918242 0.026809847 -0.00620341254
  vertex 0.00649037072 0.0268104654 -0.00620341254
  endloop
 endfacet

 facet normal 0.000118519201 0.744721472 -0.667375505
  outer loop
  vertex 0.00661918242 0.0275068581 -0.00542628672
  vertex 0.00649037072 0.0268104654 -0.00620341254
  vertex -2.63020538e-05 0.0272835903 -0.0056766104
  endloop
 endfacet

 facet normal 0 0.746286452 -0.665624917
  outer loop
  vertex 0.00661918242 0.0275068581 -0.00542628672
  vertex -2.63020538e-05 0.0272835903 -0.0056766104
  vertex -2.63020538e-05 0.0275068581 -0.00542628672
  endloop
 endfacet

 facet normal -0.00927149318 0.0577084124 -0.99829042
  outer loop
  vertex -2.63020538e-05 0.0258592647 -0.00625945441
  vertex -2.63020538e-05 0.0265055634 -0.00622209394
  vertex 0.00661918242 0.0257312432 -0.00632857392
  endloop
 endfacet

 facet normal -0.0109489672 -0.0286993813 -0.999528229
  outer loop
  vertex -2.63020538e-05 0.0258592647 -0.00625945441
  vertex 0.00661918242 0.0257312432 -0.00632857392
  vertex 0.00661918242 0.0244299918 -0.00629121112
  endloop
 endfacet

 facet normal 0.000712106761 0.148308173 -0.988940895
  outer loop
  vertex 0.00661918242 0.026809847 -0.00620341254
  vertex 0.00661918242 0.0267226435 -0.00621648971
  vertex 0.00649037072 0.0268104654 -0.00620341254
  endloop
 endfacet

 facet normal 0 0.14728649 -0.9890939
  outer loop
  vertex 0.00649037072 0.0268104654 -0.00620341254
  vertex 0.00661918242 0.0267226435 -0.00621648971
  vertex -2.63020538e-05 0.0268104654 -0.00620341254
  endloop
 endfacet

 facet normal 0 0.743993044 -0.66818738
  outer loop
  vertex 0.00649037072 0.0268104654 -0.00620341254
  vertex -2.63020538e-05 0.0268104654 -0.00620341254
  vertex -2.63020538e-05 0.0272835903 -0.0056766104
  endloop
 endfacet

 facet normal -0.00892280601 0.0611529462 -0.998088658
  outer loop
  vertex -2.63020538e-05 0.0265055634 -0.00622209394
  vertex -2.63020538e-05 0.0268104654 -0.00620341254
  vertex 0.00661918242 0.0258592647 -0.00632110238
  endloop
 endfacet

 facet normal -0.0092065651 0.0582613051 -0.998258948
  outer loop
  vertex -2.63020538e-05 0.0265055634 -0.00622209394
  vertex 0.00661918242 0.0258592647 -0.00632110238
  vertex 0.00661918242 0.0257312432 -0.00632857392
  endloop
 endfacet

 facet normal -0.000363983971 0.120286606 -0.992739141
  outer loop
  vertex 0.00661918242 0.0267226435 -0.00621648971
  vertex 0.00661918242 0.0258592647 -0.00632110238
  vertex -2.63020538e-05 0.0268104654 -0.00620341254
  endloop
 endfacet

endsolid AssimpScene
