solid AssimpScene
 facet normal 0 0 -1
  outer loop
  vertex -0.0143482238 0.0017615282 -0.00299999979
  vertex -0.0143482238 0.00327269011 -0.00299999979
  vertex 0.00770603819 0.00327461422 -0.00299999979
  endloop
 endfacet

 facet normal 0 0 -1
  outer loop
  vertex -0.0143482238 0.0017615282 -0.00299999979
  vertex 0.00770603819 0.00327461422 -0.00299999979
  vertex 0.0103202583 0.00327461422 -0.00299999979
  endloop
 endfacet

 facet normal 0 0 -1
  outer loop
  vertex -0.0143482238 0.0017615282 -0.00299999979
  vertex 0.0103202583 0.00327461422 -0.00299999979
  vertex 0.0149971303 9.95605709e-10 -0.00299999979
  endloop
 endfacet

 facet normal 0 0 -1
  outer loop
  vertex -0.0143482238 0.0017615282 -0.00299999979
  vertex 0.0149971303 9.95605709e-10 -0.00299999979
  vertex 1.26551367e-06 9.95605709e-10 -0.00299999979
  endloop
 endfacet

 facet normal -0.121844225 -0.992549181 0
  outer loop
  vertex -0.0143482238 0.0017615282 -0.00299999979
  vertex 1.26551367e-06 9.95605709e-10 -0.00299999979
  vertex 1.26551367e-06 9.95605709e-10 0.0149999997
  endloop
 endfacet

 facet normal -0.121844225 -0.992549181 0
  outer loop
  vertex -0.0143482238 0.0017615282 -0.00299999979
  vertex 1.26551367e-06 9.95605709e-10 0.0149999997
  vertex -0.0143482238 0.0017615282 0.0149999997
  endloop
 endfacet

 facet normal -1 0 0
  outer loop
  vertex -0.0143482238 0.0017615282 -0.00299999979
  vertex -0.0143482238 0.0017615282 0.0149999997
  vertex -0.0143482238 0.00327269011 0.0149999997
  endloop
 endfacet

 facet normal -1 0 0
  outer loop
  vertex -0.0143482238 0.0017615282 -0.00299999979
  vertex -0.0143482238 0.00327269011 0.0149999997
  vertex -0.0143482238 0.00327269011 -0.00299999979
  endloop
 endfacet

 facet normal -8.72448145e-05 1 0
  outer loop
  vertex -0.0143482238 0.00327269011 -0.00299999979
  vertex -0.0143482238 0.00327269011 0.0149999997
  vertex 0.00770603819 0.00327461422 0.0149999997
  endloop
 endfacet

 facet normal -8.72448145e-05 1 0
  outer loop
  vertex -0.0143482238 0.00327269011 -0.00299999979
  vertex 0.00770603819 0.00327461422 0.0149999997
  vertex 0.00770603819 0.00327461422 -0.00299999979
  endloop
 endfacet

 facet normal 0 -1 0
  outer loop
  vertex 1.26551367e-06 9.95605709e-10 -0.00299999979
  vertex 0.0149971303 9.95605709e-10 -0.00299999979
  vertex 0.0149971303 9.95605709e-10 0.0149999997
  endloop
 endfacet

 facet normal 0 -1 0
  outer loop
  vertex 1.26551367e-06 9.95605709e-10 -0.00299999979
  vertex 0.0149971303 9.95605709e-10 0.0149999997
  vertex 1.26551367e-06 9.95605709e-10 0.0149999997
  endloop
 endfacet

 facet normal 0 0 1
  outer loop
  vertex -0.0143482238 0.0017615282 0.0149999997
  vertex 1.26551367e-06 9.95605709e-10 0.0149999997
  vertex 0.0149971303 9.95605709e-10 0.0149999997
  endloop
 endfacet

 facet normal 0 0 1
  outer loop
  vertex -0.0143482238 0.0017615282 0.0149999997
  vertex 0.0149971303 9.95605709e-10 0.0149999997
  vertex 0.0103202583 0.00327461422 0.0149999997
  endloop
 endfacet

 facet normal 0 0 1
  outer loop
  vertex -0.0143482238 0.0017615282 0.0149999997
  vertex 0.0103202583 0.00327461422 0.0149999997
  vertex 0.00770603819 0.00327461422 0.0149999997
  endloop
 endfacet

 facet normal 0 0 1
  outer loop
  vertex -0.0143482238 0.0017615282 0.0149999997
  vertex 0.00770603819 0.00327461422 0.0149999997
  vertex -0.0143482238 0.00327269011 0.0149999997
  endloop
 endfacet

 facet normal 0 1 0
  outer loop
  vertex 0.00770603819 0.00327461422 -0.00299999979
  vertex 0.00770603819 0.00327461422 0.0149999997
  vertex 0.0103202583 0.00327461422 0.0149999997
  endloop
 endfacet

 facet normal 0 1 0
  outer loop
  vertex 0.00770603819 0.00327461422 -0.00299999979
  vertex 0.0103202583 0.00327461422 0.0149999997
  vertex 0.0103202583 0.00327461422 -0.00299999979
  endloop
 endfacet

 facet normal 0.573556662 0.819165885 0
  outer loop
  vertex 0.0149971303 9.95605709e-10 -0.00299999979
  vertex 0.0103202583 0.00327461422 -0.00299999979
  vertex 0.0103202583 0.00327461422 0.0149999997
  endloop
 endfacet

 facet normal 0.573556662 0.819165885 0
  outer loop
  vertex 0.0149971303 9.95605709e-10 -0.00299999979
  vertex 0.0103202583 0.00327461422 0.0149999997
  vertex 0.0149971303 9.95605709e-10 0.0149999997
  endloop
 endfacet

endsolid AssimpScene
