solid AssimpScene
 facet normal 0.963793397 0.26664871 -0.000915648823
  outer loop
  vertex 0.00954379607 -0.00602746708 0.0610130616
  vertex 0.0095361881 -0.00602746708 0.0530053265
  vertex 0.0091557987 -0.00463936571 0.0568482317
  endloop
 endfacet

 facet normal 0.932310045 0.360135198 0.0331755839
  outer loop
  vertex 0.00954379607 -0.00602746708 0.0610130616
  vertex 0.0091557987 -0.00463936571 0.0568482317
  vertex 0.00908352435 -0.00470803911 0.0596247837
  endloop
 endfacet

 facet normal 0.931805313 0.36131829 0.0344673693
  outer loop
  vertex 0.00954379607 -0.00602746708 0.0610130616
  vertex 0.00908352435 -0.00470803911 0.0596247837
  vertex 0.00949244387 -0.00602746708 0.0624013357
  endloop
 endfacet

 facet normal 0.996499419 0.0750360712 0.0368604027
  outer loop
  vertex 0.00954379607 -0.00602746708 0.0610130616
  vertex 0.00949244387 -0.00602746708 0.0624013357
  vertex 0.00949434564 -0.00741556892 0.0651756525
  endloop
 endfacet

 facet normal 0.99892056 0.0391921513 0.02493627
  outer loop
  vertex 0.00954379607 -0.00602746708 0.0610130616
  vertex 0.00949434564 -0.00741556892 0.0651756525
  vertex 0.00951907039 -0.0115789566 0.0707287565
  endloop
 endfacet

 facet normal 0.999980807 -0.00611634413 -0.000950028596
  outer loop
  vertex 0.00954379607 -0.00602746708 0.0610130616
  vertex 0.00951907039 -0.0115789566 0.0707287565
  vertex 0.0095361881 -0.00602746708 0.0530053265
  endloop
 endfacet

 facet normal 0 0 -1
  outer loop
  vertex 0.0095361881 -0.00602746708 0.0530053265
  vertex 0.00902646594 -0.0071372157 0.0530053265
  vertex 0.00810211804 -0.00749339676 0.0530053265
  endloop
 endfacet

 facet normal 0 0 -1
  outer loop
  vertex 0.0095361881 -0.00602746708 0.0530053265
  vertex 0.00810211804 -0.00749339676 0.0530053265
  vertex 0.00784725696 -0.00755565986 0.0530053265
  endloop
 endfacet

 facet normal 0 0 -1
  outer loop
  vertex 0.0095361881 -0.00602746708 0.0530053265
  vertex 0.00784725696 -0.00755565986 0.0530053265
  vertex 0.00677836128 -0.00755932322 0.0530053265
  endloop
 endfacet

 facet normal 0 0 -1
  outer loop
  vertex 0.0095361881 -0.00602746708 0.0530053265
  vertex 0.00677836128 -0.00755932322 0.0530053265
  vertex -0.0060312706 -0.00755932322 0.0530053265
  endloop
 endfacet

 facet normal 0 0 -1
  outer loop
  vertex 0.0095361881 -0.00602746708 0.0530053265
  vertex -0.0060312706 -0.00755932322 0.0530053265
  vertex -0.00741969375 -0.00755749177 0.0530053265
  endloop
 endfacet

 facet normal 0 0 -1
  outer loop
  vertex 0.0095361881 -0.00602746708 0.0530053265
  vertex -0.00741969375 -0.00755749177 0.0530053265
  vertex -0.00880811736 -0.0074265562 0.0530053265
  endloop
 endfacet

 facet normal 0 0 -1
  outer loop
  vertex 0.0095361881 -0.00602746708 0.0530053265
  vertex -0.00880811736 -0.0074265562 0.0530053265
  vertex -0.00968871918 -0.00700994255 0.0530053265
  endloop
 endfacet

 facet normal 0 0 -1
  outer loop
  vertex 0.0095361881 -0.00602746708 0.0530053265
  vertex -0.00968871918 -0.00700994255 0.0530053265
  vertex -0.00973436702 -0.00680850307 0.0530053265
  endloop
 endfacet

 facet normal 0 0 -1
  outer loop
  vertex 0.0095361881 -0.00602746708 0.0530053265
  vertex -0.00973436702 -0.00680850307 0.0530053265
  vertex -0.00988271832 -0.00602746708 0.0530053265
  endloop
 endfacet

 facet normal 0 0 -1
  outer loop
  vertex 0.0095361881 -0.00602746708 0.0530053265
  vertex -0.00988271832 -0.00602746708 0.0530053265
  vertex -0.00984658208 -0.00577108935 0.0530053265
  endloop
 endfacet

 facet normal 0 0 -1
  outer loop
  vertex 0.0095361881 -0.00602746708 0.0530053265
  vertex -0.00984658208 -0.00577108935 0.0530053265
  vertex -0.00969632715 -0.00501111336 0.0530053265
  endloop
 endfacet

 facet normal 0 0 -1
  outer loop
  vertex 0.0095361881 -0.00602746708 0.0530053265
  vertex -0.00969632715 -0.00501111336 0.0530053265
  vertex -0.00880811736 -0.00454413984 0.0530053265
  endloop
 endfacet

 facet normal 0 0 -1
  outer loop
  vertex 0.0095361881 -0.00602746708 0.0530053265
  vertex -0.00880811736 -0.00454413984 0.0530053265
  vertex -0.00741969375 -0.00440038554 0.0530053265
  endloop
 endfacet

 facet normal 0 0 -1
  outer loop
  vertex 0.0095361881 -0.00602746708 0.0530053265
  vertex -0.00741969375 -0.00440038554 0.0530053265
  vertex 0.0075277295 -0.00440038554 0.0530053265
  endloop
 endfacet

 facet normal 0 0 -1
  outer loop
  vertex 0.0095361881 -0.00602746708 0.0530053265
  vertex 0.0075277295 -0.00440038554 0.0530053265
  vertex 0.00784725696 -0.00440130057 0.0530053265
  endloop
 endfacet

 facet normal 0 0 -1
  outer loop
  vertex 0.0095361881 -0.00602746708 0.0530053265
  vertex 0.00784725696 -0.00440130057 0.0530053265
  vertex 0.00876780041 -0.00473276107 0.0530053265
  endloop
 endfacet

 facet normal 0 0 -1
  outer loop
  vertex 0.0095361881 -0.00602746708 0.0530053265
  vertex 0.00876780041 -0.00473276107 0.0530053265
  vertex 0.00905119162 -0.0048673586 0.0530053265
  endloop
 endfacet

 facet normal 0.920550942 0.384846747 -0.0669258684
  outer loop
  vertex 0.0095361881 -0.00602746708 0.0530053265
  vertex 0.00905119162 -0.0048673586 0.0530053265
  vertex 0.00907972082 -0.00475015771 0.0540716797
  endloop
 endfacet

 facet normal 0.929849565 0.365751475 -0.0400726162
  outer loop
  vertex 0.0095361881 -0.00602746708 0.0530053265
  vertex 0.00907972082 -0.00475015771 0.0540716797
  vertex 0.0091557987 -0.00463936571 0.0568482317
  endloop
 endfacet

 facet normal 0.994336069 -0.101692796 -0.0308927801
  outer loop
  vertex 0.0095361881 -0.00602746708 0.0530053265
  vertex 0.00951907039 -0.0115789566 0.0707287565
  vertex 0.00942016952 -0.0129670575 0.0721147954
  endloop
 endfacet

 facet normal 0.969136119 -0.233549803 -0.0789295509
  outer loop
  vertex 0.0095361881 -0.00602746708 0.0530053265
  vertex 0.00942016952 -0.0129670575 0.0721147954
  vertex 0.00937262084 -0.0132399155 0.0723383501
  endloop
 endfacet

 facet normal 0.898932099 -0.412891865 -0.146429524
  outer loop
  vertex 0.0095361881 -0.00602746708 0.0530053265
  vertex 0.00937262084 -0.0132399155 0.0723383501
  vertex 0.00902646594 -0.0071372157 0.0530053265
  endloop
 endfacet

 facet normal 0.821327567 0.568663716 -0.0451958291
  outer loop
  vertex 0.0091557987 -0.00463936571 0.0568482317
  vertex 0.00907972082 -0.00475015771 0.0540716797
  vertex 0.00899983849 -0.0045212484 0.0555001944
  endloop
 endfacet

 facet normal 0.799797535 0.598932147 -0.0400527418
  outer loop
  vertex 0.0091557987 -0.00463936571 0.0568482317
  vertex 0.00899983849 -0.0045212484 0.0555001944
  vertex 0.00858140923 -0.0039297496 0.0559897833
  endloop
 endfacet

 facet normal 0.798657894 0.600589395 -0.0379203223
  outer loop
  vertex 0.0091557987 -0.00463936571 0.0568482317
  vertex 0.00858140923 -0.0039297496 0.0559897833
  vertex 0.0086118402 -0.00391601492 0.0568482317
  endloop
 endfacet

 facet normal 0.799137235 0.600949764 0.0154687325
  outer loop
  vertex 0.0091557987 -0.00463936571 0.0568482317
  vertex 0.0086118402 -0.00391601492 0.0568482317
  vertex 0.00859662518 -0.00392242474 0.0578832924
  endloop
 endfacet

 facet normal 0.807025611 0.589880586 0.0273974948
  outer loop
  vertex 0.0091557987 -0.00463936571 0.0568482317
  vertex 0.00859662518 -0.00392242474 0.0578832924
  vertex 0.00900934823 -0.00450659869 0.058303576
  endloop
 endfacet

 facet normal 0.84047997 0.540694833 0.0352510512
  outer loop
  vertex 0.0091557987 -0.00463936571 0.0568482317
  vertex 0.00900934823 -0.00450659869 0.058303576
  vertex 0.00908352435 -0.00470803911 0.0596247837
  endloop
 endfacet

 facet normal 0.919482112 0.389953554 0.0498898737
  outer loop
  vertex 0.00908352435 -0.00470803911 0.0596247837
  vertex 0.00906450488 -0.00484080613 0.0610130616
  vertex 0.00949244387 -0.00602746708 0.0624013357
  endloop
 endfacet

 facet normal 0.799836814 0.598426282 0.0463349931
  outer loop
  vertex 0.00908352435 -0.00470803911 0.0596247837
  vertex 0.00900934823 -0.00450659869 0.058303576
  vertex 0.00859662518 -0.00392242474 0.0578832924
  endloop
 endfacet

 facet normal 0.769396305 0.634785831 0.0712481141
  outer loop
  vertex 0.00908352435 -0.00470803911 0.0596247837
  vertex 0.00859662518 -0.00392242474 0.0578832924
  vertex 0.00906450488 -0.00484080613 0.0610130616
  endloop
 endfacet

 facet normal 0.873540103 0.468693197 0.13135612
  outer loop
  vertex 0.00949244387 -0.00602746708 0.0624013357
  vertex 0.00906450488 -0.00484080613 0.0610130616
  vertex 0.00895989779 -0.00503491983 0.0624013357
  endloop
 endfacet

 facet normal 0.862783551 0.462921798 0.203243777
  outer loop
  vertex 0.00949244387 -0.00602746708 0.0624013357
  vertex 0.00895989779 -0.00503491983 0.0624013357
  vertex 0.00910634734 -0.00593407219 0.063827619
  endloop
 endfacet

 facet normal 0.881370425 0.422734588 0.210906804
  outer loop
  vertex 0.00949244387 -0.00602746708 0.0624013357
  vertex 0.00910634734 -0.00593407219 0.063827619
  vertex 0.00949434564 -0.00741556892 0.0651756525
  endloop
 endfacet

 facet normal 0.873010397 0.419657826 0.248475954
  outer loop
  vertex 0.00949434564 -0.00741556892 0.0651756525
  vertex 0.00897321105 -0.00633145776 0.0651756525
  vertex 0.00908542611 -0.0073789428 0.0665505156
  endloop
 endfacet

 facet normal 0.890895247 0.375899762 0.254961014
  outer loop
  vertex 0.00949434564 -0.00741556892 0.0651756525
  vertex 0.00908542611 -0.0073789428 0.0665505156
  vertex 0.0094734244 -0.0101908557 0.0693404749
  endloop
 endfacet

 facet normal 0.99042058 0.112560883 0.0799816176
  outer loop
  vertex 0.00949434564 -0.00741556892 0.0651756525
  vertex 0.0094734244 -0.0101908557 0.0693404749
  vertex 0.00951907039 -0.0115789566 0.0707287565
  endloop
 endfacet

 facet normal 0.880826652 0.423415065 0.211811155
  outer loop
  vertex 0.00949434564 -0.00741556892 0.0651756525
  vertex 0.00910634734 -0.00593407219 0.063827619
  vertex 0.00897321105 -0.00633145776 0.0651756525
  endloop
 endfacet

 facet normal 0.985282898 0.135982066 0.103568718
  outer loop
  vertex 0.00951907039 -0.0115789566 0.0707287565
  vertex 0.0094734244 -0.0101908557 0.0693404749
  vertex 0.00942777749 -0.0132399155 0.0737780407
  endloop
 endfacet

 facet normal 0.995728076 -0.0902816355 -0.0193652958
  outer loop
  vertex 0.00951907039 -0.0115789566 0.0707287565
  vertex 0.00942777749 -0.0132399155 0.0737780407
  vertex 0.00942016952 -0.0129670575 0.0721147954
  endloop
 endfacet

 facet normal 0.694245994 -0.682693362 -0.227930665
  outer loop
  vertex 0.00902646594 -0.0071372157 0.0530053265
  vertex 0.00937262084 -0.0132399155 0.0723383501
  vertex 0.0089770155 -0.0132399155 0.0711333901
  endloop
 endfacet

 facet normal 0.50522393 -0.818302512 -0.274098247
  outer loop
  vertex 0.00902646594 -0.0071372157 0.0530053265
  vertex 0.0089770155 -0.0132399155 0.0711333901
  vertex 0.00889332965 -0.0132399155 0.0709791407
  endloop
 endfacet

 facet normal 0.343032062 -0.890223265 -0.299719155
  outer loop
  vertex 0.00902646594 -0.0071372157 0.0530053265
  vertex 0.00889332965 -0.0132399155 0.0709791407
  vertex 0.00810211804 -0.00749339676 0.0530053265
  endloop
 endfacet

 facet normal 0.41933006 0.882885873 -0.211364374
  outer loop
  vertex 0.00905119162 -0.0048673586 0.0530053265
  vertex 0.00876780041 -0.00473276107 0.0530053265
  vertex 0.00858140923 -0.0039297496 0.0559897833
  endloop
 endfacet

 facet normal 0.739469051 0.666727066 -0.0930621475
  outer loop
  vertex 0.00905119162 -0.0048673586 0.0530053265
  vertex 0.00858140923 -0.0039297496 0.0559897833
  vertex 0.00907972082 -0.00475015771 0.0540716797
  endloop
 endfacet

 facet normal 0.794212162 0.60536021 -0.0525924787
  outer loop
  vertex 0.00907972082 -0.00475015771 0.0540716797
  vertex 0.00858140923 -0.0039297496 0.0559897833
  vertex 0.00899983849 -0.0045212484 0.0555001944
  endloop
 endfacet

 facet normal 0.978813291 -0.201291665 -0.0374992713
  outer loop
  vertex 0.00942016952 -0.0129670575 0.0721147954
  vertex 0.00942777749 -0.0132399155 0.0737780407
  vertex 0.00937262084 -0.0132399155 0.0723383501
  endloop
 endfacet

 facet normal 0 -1 0
  outer loop
  vertex 0.00937262084 -0.0132399155 0.0723383501
  vertex 0.00942777749 -0.0132399155 0.0737780407
  vertex 0.0090169562 -0.0132399155 0.0750992596
  endloop
 endfacet

 facet normal 0 -1 0
  outer loop
  vertex 0.00937262084 -0.0132399155 0.0723383501
  vertex 0.0090169562 -0.0132399155 0.0750992596
  vertex 0.00889713317 -0.0132399155 0.0753742233
  endloop
 endfacet

 facet normal 0 -1 0
  outer loop
  vertex 0.00937262084 -0.0132399155 0.0723383501
  vertex 0.00889713317 -0.0132399155 0.0753742233
  vertex 0.00784725696 -0.0132399155 0.0758414567
  endloop
 endfacet

 facet normal 0 -1 0
  outer loop
  vertex 0.00937262084 -0.0132399155 0.0723383501
  vertex 0.00784725696 -0.0132399155 0.0758414567
  vertex -0.00741969375 -0.0132399155 0.0758414567
  endloop
 endfacet

 facet normal 0 -1 0
  outer loop
  vertex 0.00937262084 -0.0132399155 0.0723383501
  vertex -0.00741969375 -0.0132399155 0.0758414567
  vertex -0.00880811736 -0.0132399155 0.0757252052
  endloop
 endfacet

 facet normal 0 -1 0
  outer loop
  vertex 0.00937262084 -0.0132399155 0.0723383501
  vertex -0.00880811736 -0.0132399155 0.0757252052
  vertex -0.00933305547 -0.0132399155 0.0755150691
  endloop
 endfacet

 facet normal 0 -1 0
  outer loop
  vertex 0.00937262084 -0.0132399155 0.0723383501
  vertex -0.00933305547 -0.0132399155 0.0755150691
  vertex -0.00963546522 -0.0132399155 0.0752222091
  endloop
 endfacet

 facet normal 0 -1 0
  outer loop
  vertex 0.00937262084 -0.0132399155 0.0723383501
  vertex -0.00963546522 -0.0132399155 0.0752222091
  vertex -0.0096925227 -0.0132399155 0.074790746
  endloop
 endfacet

 facet normal 0 -1 0
  outer loop
  vertex 0.00937262084 -0.0132399155 0.0723383501
  vertex -0.0096925227 -0.0132399155 0.074790746
  vertex -0.00979903247 -0.0132399155 0.0734985992
  endloop
 endfacet

 facet normal 0 -1 0
  outer loop
  vertex 0.00937262084 -0.0132399155 0.0723383501
  vertex -0.00979903247 -0.0132399155 0.0734985992
  vertex -0.00975528825 -0.0132399155 0.0721147954
  endloop
 endfacet

 facet normal 0 -1 0
  outer loop
  vertex 0.00937262084 -0.0132399155 0.0723383501
  vertex -0.00975528825 -0.0132399155 0.0721147954
  vertex -0.00959932897 -0.0132399155 0.0710775033
  endloop
 endfacet

 facet normal 0 -1 0
  outer loop
  vertex 0.00937262084 -0.0132399155 0.0723383501
  vertex -0.00959932897 -0.0132399155 0.0710775033
  vertex -0.00880811736 -0.0132399155 0.0706236884
  endloop
 endfacet

 facet normal 0 -1 0
  outer loop
  vertex 0.00937262084 -0.0132399155 0.0723383501
  vertex -0.00880811736 -0.0132399155 0.0706236884
  vertex -0.00877007842 -0.0132399155 0.0706192106
  endloop
 endfacet

 facet normal 0 -1 0
  outer loop
  vertex 0.00937262084 -0.0132399155 0.0723383501
  vertex -0.00877007842 -0.0132399155 0.0706192106
  vertex -0.00746724289 -0.0132399155 0.0704895481
  endloop
 endfacet

 facet normal 0 -1 0
  outer loop
  vertex 0.00937262084 -0.0132399155 0.0723383501
  vertex -0.00746724289 -0.0132399155 0.0704895481
  vertex -0.00741969375 -0.0132399155 0.0704850852
  endloop
 endfacet

 facet normal 0 -1 0
  outer loop
  vertex 0.00937262084 -0.0132399155 0.0723383501
  vertex -0.00741969375 -0.0132399155 0.0704850852
  vertex 0.00645883381 -0.0132399155 0.0704850852
  endloop
 endfacet

 facet normal 0 -1 0
  outer loop
  vertex 0.00937262084 -0.0132399155 0.0723383501
  vertex 0.00645883381 -0.0132399155 0.0704850852
  vertex 0.00784725696 -0.0132399155 0.0705052018
  endloop
 endfacet

 facet normal 0 -1 0
  outer loop
  vertex 0.00937262084 -0.0132399155 0.0723383501
  vertex 0.00784725696 -0.0132399155 0.0705052018
  vertex 0.00889332965 -0.0132399155 0.0709791407
  endloop
 endfacet

 facet normal 0 -1 0
  outer loop
  vertex 0.00937262084 -0.0132399155 0.0723383501
  vertex 0.00889332965 -0.0132399155 0.0709791407
  vertex 0.0089770155 -0.0132399155 0.0711333901
  endloop
 endfacet

 facet normal 0.330013216 0.916525006 -0.225993663
  outer loop
  vertex 0.00858140923 -0.0039297496 0.0559897833
  vertex 0.00876780041 -0.00473276107 0.0530053265
  vertex 0.00784725696 -0.00440130057 0.0530053265
  endloop
 endfacet

 facet normal 0.253656 0.943881691 -0.211532801
  outer loop
  vertex 0.00858140923 -0.0039297496 0.0559897833
  vertex 0.00784725696 -0.00440130057 0.0530053265
  vertex 0.00784725696 -0.0041623204 0.0540716797
  endloop
 endfacet

 facet normal 0.0704319701 0.98668617 -0.146593973
  outer loop
  vertex 0.00858140923 -0.0039297496 0.0559897833
  vertex 0.00784725696 -0.0041623204 0.0540716797
  vertex 0.00784725696 -0.00399292866 0.0552118123
  endloop
 endfacet

 facet normal 0.0230215527 0.994467974 -0.102485761
  outer loop
  vertex 0.00858140923 -0.0039297496 0.0559897833
  vertex 0.00784725696 -0.00399292866 0.0552118123
  vertex 0.00784725696 -0.00392150879 0.0559048317
  endloop
 endfacet

 facet normal 0.015480049 0.999200821 -0.0368523374
  outer loop
  vertex 0.00858140923 -0.0039297496 0.0559897833
  vertex 0.00784725696 -0.00392150879 0.0559048317
  vertex 0.00784725696 -0.00388671458 0.0568482317
  endloop
 endfacet

 facet normal 0.0382882953 0.999116302 -0.0173422843
  outer loop
  vertex 0.00858140923 -0.0039297496 0.0559897833
  vertex 0.00784725696 -0.00388671458 0.0568482317
  vertex 0.0086118402 -0.00391601492 0.0568482317
  endloop
 endfacet

 facet normal 0.0382931866 0.999243855 0.00675070193
  outer loop
  vertex 0.0086118402 -0.00391601492 0.0568482317
  vertex 0.00784725696 -0.00388671458 0.0568482317
  vertex 0.00859662518 -0.00392242474 0.0578832924
  endloop
 endfacet

 facet normal 0.0193071719 0.999603331 0.0205086973
  outer loop
  vertex 0.00859662518 -0.00392242474 0.0578832924
  vertex 0.00784725696 -0.00388671458 0.0568482317
  vertex 0.00784725696 -0.00391143654 0.0580531918
  endloop
 endfacet

 facet normal 0.0301058944 0.997210979 0.0682922378
  outer loop
  vertex 0.00859662518 -0.00392242474 0.0578832924
  vertex 0.00784725696 -0.00391143654 0.0580531918
  vertex 0.00784725696 -0.00395904994 0.0587484501
  endloop
 endfacet

 facet normal 0.106353335 0.98528105 0.133829921
  outer loop
  vertex 0.00859662518 -0.00392242474 0.0578832924
  vertex 0.00784725696 -0.00395904994 0.0587484501
  vertex 0.00784725696 -0.00407808181 0.0596247837
  endloop
 endfacet

 facet normal 0.230607346 0.955371499 0.184623256
  outer loop
  vertex 0.00859662518 -0.00392242474 0.0578832924
  vertex 0.00784725696 -0.00407808181 0.0596247837
  vertex 0.00784725696 -0.00434636278 0.0610130616
  endloop
 endfacet

 facet normal 0.320534766 0.925426185 0.202098608
  outer loop
  vertex 0.00859662518 -0.00392242474 0.0578832924
  vertex 0.00784725696 -0.00434636278 0.0610130616
  vertex 0.00895989779 -0.00503491983 0.0624013357
  endloop
 endfacet

 facet normal 0.557199478 0.815588892 0.156023949
  outer loop
  vertex 0.00859662518 -0.00392242474 0.0578832924
  vertex 0.00895989779 -0.00503491983 0.0624013357
  vertex 0.00906450488 -0.00484080613 0.0610130616
  endloop
 endfacet

 facet normal 0.295488596 0.928756893 0.223823965
  outer loop
  vertex 0.00895989779 -0.00503491983 0.0624013357
  vertex 0.00784725696 -0.00434636278 0.0610130616
  vertex 0.00876399688 -0.00521072187 0.0633894503
  endloop
 endfacet

 facet normal 0.791405141 0.555248439 0.25568974
  outer loop
  vertex 0.00895989779 -0.00503491983 0.0624013357
  vertex 0.00876399688 -0.00521072187 0.0633894503
  vertex 0.00897321105 -0.00633145776 0.0651756525
  endloop
 endfacet

 facet normal 0.834423304 0.500816464 0.230045274
  outer loop
  vertex 0.00895989779 -0.00503491983 0.0624013357
  vertex 0.00897321105 -0.00633145776 0.0651756525
  vertex 0.00910634734 -0.00593407219 0.063827619
  endloop
 endfacet

 facet normal 0.784706593 0.522273898 0.333864629
  outer loop
  vertex 0.00897321105 -0.00633145776 0.0651756525
  vertex 0.00876019336 -0.00658875098 0.0660788193
  vertex 0.00908542611 -0.0073789428 0.0665505156
  endloop
 endfacet

 facet normal 0.653432131 0.673318267 0.345932066
  outer loop
  vertex 0.00897321105 -0.00633145776 0.0651756525
  vertex 0.00876399688 -0.00521072187 0.0633894503
  vertex 0.00876019336 -0.00658875098 0.0660788193
  endloop
 endfacet

 facet normal 0.769840062 0.529536843 0.356282145
  outer loop
  vertex 0.00908542611 -0.0073789428 0.0665505156
  vertex 0.00876019336 -0.00658875098 0.0660788193
  vertex 0.00886670221 -0.00781753194 0.0676749945
  endloop
 endfacet

 facet normal 0.786791205 0.507665753 0.351048708
  outer loop
  vertex 0.00908542611 -0.0073789428 0.0665505156
  vertex 0.00886670221 -0.00781753194 0.0676749945
  vertex 0.00894658454 -0.00909300987 0.0693404749
  endloop
 endfacet

 facet normal 0.789955258 0.504129231 0.349033505
  outer loop
  vertex 0.00908542611 -0.0073789428 0.0665505156
  vertex 0.00894658454 -0.00909300987 0.0693404749
  vertex 0.00904928986 -0.0101826144 0.0706818104
  endloop
 endfacet

 facet normal 0.877113819 0.393809348 0.274928033
  outer loop
  vertex 0.00908542611 -0.0073789428 0.0665505156
  vertex 0.00904928986 -0.0101826144 0.0706818104
  vertex 0.0094734244 -0.0101908557 0.0693404749
  endloop
 endfacet

 facet normal 0.878819346 0.389589638 0.275493264
  outer loop
  vertex 0.0094734244 -0.0101908557 0.0693404749
  vertex 0.00904928986 -0.0101826144 0.0706818104
  vertex 0.00939924829 -0.0129670575 0.073503077
  endloop
 endfacet

 facet normal 0.908754289 0.339540958 0.242647246
  outer loop
  vertex 0.0094734244 -0.0101908557 0.0693404749
  vertex 0.00939924829 -0.0129670575 0.073503077
  vertex 0.00942777749 -0.0132399155 0.0737780407
  endloop
 endfacet

 facet normal 0.8868922 0.37063691 0.275772631
  outer loop
  vertex 0.00942777749 -0.0132399155 0.0737780407
  vertex 0.00939924829 -0.0129670575 0.073503077
  vertex 0.0090169562 -0.0132399155 0.0750992596
  endloop
 endfacet

 facet normal 0.225964606 -0.924937427 -0.30566448
  outer loop
  vertex 0.00810211804 -0.00749339676 0.0530053265
  vertex 0.00889332965 -0.0132399155 0.0709791407
  vertex 0.00784725696 -0.00755565986 0.0530053265
  endloop
 endfacet

 facet normal 0.138613254 -0.941904128 -0.30594638
  outer loop
  vertex 0.00889332965 -0.0132399155 0.0709791407
  vertex 0.00784725696 -0.0132399155 0.0705052018
  vertex 0.00784725696 -0.00755565986 0.0530053265
  endloop
 endfacet

 facet normal 0.00279515027 0.975791693 -0.218684167
  outer loop
  vertex 0.00784725696 -0.00440130057 0.0530053265
  vertex 0.0075277295 -0.00440038554 0.0530053265
  vertex 0.00784725696 -0.0041623204 0.0540716797
  endloop
 endfacet

 facet normal 0.00257383566 0.975806415 -0.218621135
  outer loop
  vertex 0.00784725696 -0.0041623204 0.0540716797
  vertex 0.0075277295 -0.00440038554 0.0530053265
  vertex 0.00645883381 -0.00415865798 0.0540716797
  endloop
 endfacet

 facet normal 0.00260900287 0.989139199 -0.146958873
  outer loop
  vertex 0.00784725696 -0.0041623204 0.0540716797
  vertex 0.00645883381 -0.00415865798 0.0540716797
  vertex 0.00645883381 -0.00398926577 0.0552118123
  endloop
 endfacet

 facet normal 0.00260937121 0.989139259 -0.146958441
  outer loop
  vertex 0.00784725696 -0.0041623204 0.0540716797
  vertex 0.00645883381 -0.00398926577 0.0552118123
  vertex 0.00784725696 -0.00399292866 0.0552118123
  endloop
 endfacet

 facet normal 0.00262411544 0.994728267 -0.102512583
  outer loop
  vertex 0.00784725696 -0.00399292866 0.0552118123
  vertex 0.00645883381 -0.00398926577 0.0552118123
  vertex 0.00784725696 -0.00392150879 0.0559048317
  endloop
 endfacet

 facet normal 0 0.999320507 -0.0368567519
  outer loop
  vertex 0.00784725696 -0.00392150879 0.0559048317
  vertex -0.00741969375 -0.00392150879 0.0559048317
  vertex -0.00741969375 -0.00388671458 0.0568482317
  endloop
 endfacet

 facet normal 0 0.999320507 -0.0368567519
  outer loop
  vertex 0.00784725696 -0.00392150879 0.0559048317
  vertex -0.00741969375 -0.00388671458 0.0568482317
  vertex 0.00784725696 -0.00388671458 0.0568482317
  endloop
 endfacet

 facet normal 0 0.995254457 -0.0973067731
  outer loop
  vertex 0.00784725696 -0.00392150879 0.0559048317
  vertex 0.00645883381 -0.00398926577 0.0552118123
  vertex -0.00741969375 -0.00398926577 0.0552118123
  endloop
 endfacet

 facet normal 0 0.995254457 -0.0973067731
  outer loop
  vertex 0.00784725696 -0.00392150879 0.0559048317
  vertex -0.00741969375 -0.00398926577 0.0552118123
  vertex -0.00741969375 -0.00392150879 0.0559048317
  endloop
 endfacet

 facet normal 0 0.999789655 0.0205125194
  outer loop
  vertex 0.00784725696 -0.00388671458 0.0568482317
  vertex -0.00741969375 -0.00388671458 0.0568482317
  vertex -0.00741969375 -0.00391143654 0.0580531918
  endloop
 endfacet

 facet normal 0 0.999789655 0.0205125194
  outer loop
  vertex 0.00784725696 -0.00388671458 0.0568482317
  vertex -0.00741969375 -0.00391143654 0.0580531918
  vertex 0.00784725696 -0.00391143654 0.0580531918
  endloop
 endfacet

 facet normal 0 0.997751951 0.0670150444
  outer loop
  vertex 0.00784725696 -0.00391143654 0.0580531918
  vertex -0.00741969375 -0.00391143654 0.0580531918
  vertex -0.00741969375 -0.00395813398 0.0587484501
  endloop
 endfacet

 facet normal 0 0.997751951 0.0670150444
  outer loop
  vertex 0.00784725696 -0.00391143654 0.0580531918
  vertex -0.00741969375 -0.00395813398 0.0587484501
  vertex 0.00645883381 -0.00395813398 0.0587484501
  endloop
 endfacet

 facet normal 0.000658057281 0.997663021 0.0683232099
  outer loop
  vertex 0.00784725696 -0.00391143654 0.0580531918
  vertex 0.00645883381 -0.00395813398 0.0587484501
  vertex 0.00784725696 -0.00395904994 0.0587484501
  endloop
 endfacet

 facet normal 0.000653867028 0.991310358 0.131542191
  outer loop
  vertex 0.00784725696 -0.00395904994 0.0587484501
  vertex 0.00645883381 -0.00395813398 0.0587484501
  vertex 0.00645883381 -0.00407441985 0.0596247837
  endloop
 endfacet

 facet normal 0.00261364109 0.990897596 0.134592816
  outer loop
  vertex 0.00784725696 -0.00395904994 0.0587484501
  vertex 0.00645883381 -0.00407441985 0.0596247837
  vertex 0.00784725696 -0.00407808181 0.0596247837
  endloop
 endfacet

 facet normal 0.00258972822 0.98183167 0.189736634
  outer loop
  vertex 0.00784725696 -0.00407808181 0.0596247837
  vertex 0.00645883381 -0.00407441985 0.0596247837
  vertex 0.00784725696 -0.00434636278 0.0610130616
  endloop
 endfacet

 facet normal 0.00129491382 0.981592119 0.190984651
  outer loop
  vertex 0.00784725696 -0.00434636278 0.0610130616
  vertex 0.00645883381 -0.00407441985 0.0596247837
  vertex 0.00645883381 -0.00434453133 0.0610130616
  endloop
 endfacet

 facet normal 0.00127001898 0.96272105 0.270493388
  outer loop
  vertex 0.00784725696 -0.00434636278 0.0610130616
  vertex 0.00645883381 -0.00434453133 0.0610130616
  vertex 0.00784725696 -0.00473642303 0.0624013357
  endloop
 endfacet

 facet normal 0.202266023 0.942822933 0.264902651
  outer loop
  vertex 0.00784725696 -0.00434636278 0.0610130616
  vertex 0.00784725696 -0.00473642303 0.0624013357
  vertex 0.00876399688 -0.00521072187 0.0633894503
  endloop
 endfacet

 facet normal 0.11791005 0.933483541 0.338682383
  outer loop
  vertex 0.00876399688 -0.00521072187 0.0633894503
  vertex 0.00784725696 -0.00473642303 0.0624013357
  vertex 0.00784725696 -0.00514845876 0.0635369942
  endloop
 endfacet

 facet normal 0.125056416 0.911219239 0.392479956
  outer loop
  vertex 0.00876399688 -0.00521072187 0.0633894503
  vertex 0.00784725696 -0.00514845876 0.0635369942
  vertex 0.00784725696 -0.0054469551 0.0642300174
  endloop
 endfacet

 facet normal 0.185725898 0.87437892 0.448293865
  outer loop
  vertex 0.00876399688 -0.00521072187 0.0633894503
  vertex 0.00784725696 -0.0054469551 0.0642300174
  vertex 0.00876019336 -0.00658875098 0.0660788193
  endloop
 endfacet

 facet normal 0.167582124 0.873642623 0.456798494
  outer loop
  vertex 0.00876019336 -0.00658875098 0.0660788193
  vertex 0.00784725696 -0.0054469551 0.0642300174
  vertex 0.00784725696 -0.00594139751 0.0651756525
  endloop
 endfacet

 facet normal 0.118865393 0.859997213 0.496261895
  outer loop
  vertex 0.00876019336 -0.00658875098 0.0660788193
  vertex 0.00784725696 -0.00594139751 0.0651756525
  vertex 0.00784725696 -0.0065219095 0.0661816522
  endloop
 endfacet

 facet normal 0.122030161 0.830450535 0.543562829
  outer loop
  vertex 0.00876019336 -0.00658875098 0.0660788193
  vertex 0.00784725696 -0.0065219095 0.0661816522
  vertex 0.00784725696 -0.00697697978 0.0668769032
  endloop
 endfacet

 facet normal 0.140645891 0.817465961 0.558541179
  outer loop
  vertex 0.00876019336 -0.00658875098 0.0660788193
  vertex 0.00784725696 -0.00697697978 0.0668769032
  vertex 0.00872215349 -0.00938967522 0.0701877549
  endloop
 endfacet

 facet normal 0.690226078 0.594905376 0.411916971
  outer loop
  vertex 0.00876019336 -0.00658875098 0.0660788193
  vertex 0.00872215349 -0.00938967522 0.0701877549
  vertex 0.00886670221 -0.00781753194 0.0676749945
  endloop
 endfacet

 facet normal 0.701233864 0.58555007 0.406696916
  outer loop
  vertex 0.00886670221 -0.00781753194 0.0676749945
  vertex 0.00872215349 -0.00938967522 0.0701877549
  vertex 0.00884578098 -0.0106386002 0.0717727542
  endloop
 endfacet

 facet normal 0.767426908 0.526254535 0.366213381
  outer loop
  vertex 0.00886670221 -0.00781753194 0.0676749945
  vertex 0.00884578098 -0.0106386002 0.0717727542
  vertex 0.00894658454 -0.00909300987 0.0693404749
  endloop
 endfacet

 facet normal 0.775742888 0.517566562 0.361037225
  outer loop
  vertex 0.00894658454 -0.00909300987 0.0693404749
  vertex 0.00884578098 -0.0106386002 0.0717727542
  vertex 0.00904928986 -0.0101826144 0.0706818104
  endloop
 endfacet

 facet normal 0.778703511 0.513814628 0.360021323
  outer loop
  vertex 0.00904928986 -0.0101826144 0.0706818104
  vertex 0.00884578098 -0.0106386002 0.0717727542
  vertex 0.00889713317 -0.0132399155 0.0753742233
  endloop
 endfacet

 facet normal 0.786432803 0.505548418 0.354886204
  outer loop
  vertex 0.00904928986 -0.0101826144 0.0706818104
  vertex 0.00889713317 -0.0132399155 0.0753742233
  vertex 0.00899032876 -0.0129862856 0.0748063996
  endloop
 endfacet

 facet normal 0.822692811 0.464615613 0.327580661
  outer loop
  vertex 0.00904928986 -0.0101826144 0.0706818104
  vertex 0.00899032876 -0.0129862856 0.0748063996
  vertex 0.0090169562 -0.0132399155 0.0750992596
  endloop
 endfacet

 facet normal 0.877688587 0.391029179 0.27705425
  outer loop
  vertex 0.00904928986 -0.0101826144 0.0706818104
  vertex 0.0090169562 -0.0132399155 0.0750992596
  vertex 0.00939924829 -0.0129670575 0.073503077
  endloop
 endfacet

 facet normal 0.800708532 0.486949354 0.348921657
  outer loop
  vertex 0.0090169562 -0.0132399155 0.0750992596
  vertex 0.00899032876 -0.0129862856 0.0748063996
  vertex 0.00889713317 -0.0132399155 0.0753742233
  endloop
 endfacet

 facet normal 0.00447619706 -0.951075733 -0.30892548
  outer loop
  vertex 0.00784725696 -0.00755565986 0.0530053265
  vertex 0.00784725696 -0.0132399155 0.0705052018
  vertex 0.00645883381 -0.0132399155 0.0704850852
  endloop
 endfacet

 facet normal 0.00325934635 -0.951051831 -0.30901438
  outer loop
  vertex 0.00784725696 -0.00755565986 0.0530053265
  vertex 0.00645883381 -0.0132399155 0.0704850852
  vertex 0.00677836128 -0.00755932322 0.0530053265
  endloop
 endfacet

 facet normal 0 0.975256562 -0.221076429
  outer loop
  vertex 0.0075277295 -0.00440038554 0.0530053265
  vertex -0.00741969375 -0.00440038554 0.0530053265
  vertex -0.00741969375 -0.00415865798 0.0540716797
  endloop
 endfacet

 facet normal 0 0.975256562 -0.221076429
  outer loop
  vertex 0.0075277295 -0.00440038554 0.0530053265
  vertex -0.00741969375 -0.00415865798 0.0540716797
  vertex 0.00645883381 -0.00415865798 0.0540716797
  endloop
 endfacet

 facet normal 0 0.989142597 -0.146959364
  outer loop
  vertex 0.00645883381 -0.00415865798 0.0540716797
  vertex -0.00741969375 -0.00415865798 0.0540716797
  vertex -0.00741969375 -0.00398926577 0.0552118123
  endloop
 endfacet

 facet normal 0 0.989142597 -0.146959364
  outer loop
  vertex 0.00645883381 -0.00415865798 0.0540716797
  vertex -0.00741969375 -0.00398926577 0.0552118123
  vertex 0.00645883381 -0.00398926577 0.0552118123
  endloop
 endfacet

 facet normal -0.0120475432 0.999248028 -0.0368540809
  outer loop
  vertex -0.00741969375 -0.00392150879 0.0559048317
  vertex -0.00836306065 -0.0039297496 0.0559897833
  vertex -0.00741969375 -0.00388671458 0.0568482317
  endloop
 endfacet

 facet normal -0.0174538027 0.995102823 -0.097291939
  outer loop
  vertex -0.00741969375 -0.00392150879 0.0559048317
  vertex -0.00741969375 -0.00398926577 0.0552118123
  vertex -0.00836306065 -0.0039297496 0.0559897833
  endloop
 endfacet

 facet normal -0.0256664213 0.999633253 0.00864266418
  outer loop
  vertex -0.00741969375 -0.00388671458 0.0568482317
  vertex -0.00856086425 -0.00391601492 0.0568482317
  vertex -0.00846196245 -0.00392242474 0.0578832924
  endloop
 endfacet

 facet normal -0.013882678 0.999693274 0.0205105431
  outer loop
  vertex -0.00741969375 -0.00388671458 0.0568482317
  vertex -0.00846196245 -0.00392242474 0.0578832924
  vertex -0.00741969375 -0.00391143654 0.0580531918
  endloop
 endfacet

 facet normal -0.0256612208 0.999430776 -0.0219028797
  outer loop
  vertex -0.00741969375 -0.00388671458 0.0568482317
  vertex -0.00836306065 -0.0039297496 0.0559897833
  vertex -0.00856086425 -0.00391601492 0.0568482317
  endloop
 endfacet

 facet normal -0.021438051 0.997522712 0.0669996366
  outer loop
  vertex -0.00741969375 -0.00391143654 0.0580531918
  vertex -0.00846196245 -0.00392242474 0.0578832924
  vertex -0.00741969375 -0.00395813398 0.0587484501
  endloop
 endfacet

 facet normal 0 0.991310537 0.131542191
  outer loop
  vertex 0.00645883381 -0.00395813398 0.0587484501
  vertex -0.00741969375 -0.00395813398 0.0587484501
  vertex -0.00741969375 -0.00407441985 0.0596247837
  endloop
 endfacet

 facet normal 0 0.991310537 0.131542191
  outer loop
  vertex 0.00645883381 -0.00395813398 0.0587484501
  vertex -0.00741969375 -0.00407441985 0.0596247837
  vertex 0.00645883381 -0.00407441985 0.0596247837
  endloop
 endfacet

 facet normal 0 0.981593072 0.190984845
  outer loop
  vertex 0.00645883381 -0.00407441985 0.0596247837
  vertex -0.00741969375 -0.00407441985 0.0596247837
  vertex -0.00741969375 -0.00434453133 0.0610130616
  endloop
 endfacet

 facet normal 0 0.981593072 0.190984845
  outer loop
  vertex 0.00645883381 -0.00407441985 0.0596247837
  vertex -0.00741969375 -0.00434453133 0.0610130616
  vertex 0.00645883381 -0.00434453133 0.0610130616
  endloop
 endfacet

 facet normal 0 0.962390423 0.271670192
  outer loop
  vertex 0.00645883381 -0.00434453133 0.0610130616
  vertex -0.00741969375 -0.00434453133 0.0610130616
  vertex -0.00741969375 -0.00473642303 0.0624013357
  endloop
 endfacet

 facet normal 0 0.962390423 0.271670192
  outer loop
  vertex 0.00645883381 -0.00434453133 0.0610130616
  vertex -0.00741969375 -0.00473642303 0.0624013357
  vertex 0.00784725696 -0.00473642303 0.0624013357
  endloop
 endfacet

 facet normal 0 0.940041006 0.341061562
  outer loop
  vertex 0.00784725696 -0.00473642303 0.0624013357
  vertex -0.00741969375 -0.00473642303 0.0624013357
  vertex -0.00741969375 -0.00514845876 0.0635369942
  endloop
 endfacet

 facet normal 0 0.940041006 0.341061562
  outer loop
  vertex 0.00784725696 -0.00473642303 0.0624013357
  vertex -0.00741969375 -0.00514845876 0.0635369942
  vertex 0.00784725696 -0.00514845876 0.0635369942
  endloop
 endfacet

 facet normal 0 0.918429255 0.395585418
  outer loop
  vertex 0.00784725696 -0.00514845876 0.0635369942
  vertex -0.00741969375 -0.00514845876 0.0635369942
  vertex -0.00741969375 -0.0054469551 0.0642300174
  endloop
 endfacet

 facet normal 0 0.918429255 0.395585418
  outer loop
  vertex 0.00784725696 -0.00514845876 0.0635369942
  vertex -0.00741969375 -0.0054469551 0.0642300174
  vertex 0.00784725696 -0.0054469551 0.0642300174
  endloop
 endfacet

 facet normal 0 0.886174798 0.46335119
  outer loop
  vertex 0.00784725696 -0.0054469551 0.0642300174
  vertex -0.00741969375 -0.0054469551 0.0642300174
  vertex -0.00741969375 -0.00594139751 0.0651756525
  endloop
 endfacet

 facet normal 0 0.886174798 0.46335119
  outer loop
  vertex 0.00784725696 -0.0054469551 0.0642300174
  vertex -0.00741969375 -0.00594139751 0.0651756525
  vertex 0.00784725696 -0.00594139751 0.0651756525
  endloop
 endfacet

 facet normal 0 0.866137862 0.499805301
  outer loop
  vertex 0.00784725696 -0.00594139751 0.0651756525
  vertex -0.00741969375 -0.00594139751 0.0651756525
  vertex -0.00741969375 -0.0065219095 0.0661816522
  endloop
 endfacet

 facet normal 0 0.866137862 0.499805301
  outer loop
  vertex 0.00784725696 -0.00594139751 0.0651756525
  vertex -0.00741969375 -0.0065219095 0.0661816522
  vertex 0.00784725696 -0.0065219095 0.0661816522
  endloop
 endfacet

 facet normal 0 0.836703718 0.547655821
  outer loop
  vertex 0.00784725696 -0.0065219095 0.0661816522
  vertex -0.00741969375 -0.0065219095 0.0661816522
  vertex -0.00741969375 -0.00697697978 0.0668769032
  endloop
 endfacet

 facet normal 0 0.836703718 0.547655821
  outer loop
  vertex 0.00784725696 -0.0065219095 0.0661816522
  vertex -0.00741969375 -0.00697697978 0.0668769032
  vertex 0.00784725696 -0.00697697978 0.0668769032
  endloop
 endfacet

 facet normal 0 0.823703051 0.567021489
  outer loop
  vertex 0.00784725696 -0.00697697978 0.0668769032
  vertex -0.00741969375 -0.00697697978 0.0668769032
  vertex -0.00741969375 -0.00767103024 0.0678851381
  endloop
 endfacet

 facet normal 0 0.823703051 0.567021489
  outer loop
  vertex 0.00784725696 -0.00697697978 0.0668769032
  vertex -0.00741969375 -0.00767103024 0.0678851381
  vertex 0.00784725696 -0.00767103024 0.0678851381
  endloop
 endfacet

 facet normal 0.124771461 0.817266226 0.56259048
  outer loop
  vertex 0.00784725696 -0.00697697978 0.0668769032
  vertex 0.00784725696 -0.00767103024 0.0678851381
  vertex 0.00872215349 -0.00938967522 0.0701877549
  endloop
 endfacet

 facet normal 0.649610877 0.62097162 0.438634336
  outer loop
  vertex 0.00872215349 -0.00938967522 0.0701877549
  vertex 0.00865368359 -0.0122125754 0.0742855147
  vertex 0.00884578098 -0.0106386002 0.0717727542
  endloop
 endfacet

 facet normal 0.118401498 0.816789806 0.564655185
  outer loop
  vertex 0.00872215349 -0.00938967522 0.0701877549
  vertex 0.00784725696 -0.00767103024 0.0678851381
  vertex 0.00865368359 -0.0122125754 0.0742855147
  endloop
 endfacet

 facet normal 0.653425634 0.618047953 0.437094629
  outer loop
  vertex 0.00884578098 -0.0106386002 0.0717727542
  vertex 0.00865368359 -0.0122125754 0.0742855147
  vertex 0.00889713317 -0.0132399155 0.0753742233
  endloop
 endfacet

 facet normal 0.2783764 0.728855133 0.625521183
  outer loop
  vertex 0.00889713317 -0.0132399155 0.0753742233
  vertex 0.00865368359 -0.0122125754 0.0742855147
  vertex 0.00784725696 -0.0132399155 0.0758414567
  endloop
 endfacet

 facet normal 0 -0.951039433 -0.309069902
  outer loop
  vertex 0.00677836128 -0.00755932322 0.0530053265
  vertex 0.00645883381 -0.0132399155 0.0704850852
  vertex -0.00741969375 -0.0132399155 0.0704850852
  endloop
 endfacet

 facet normal 0 -0.951039433 -0.309069902
  outer loop
  vertex 0.00677836128 -0.00755932322 0.0530053265
  vertex -0.00741969375 -0.0132399155 0.0704850852
  vertex -0.0060312706 -0.00755932322 0.0530053265
  endloop
 endfacet

 facet normal -0.100465216 0.970322251 -0.219957888
  outer loop
  vertex -0.00741969375 -0.00440038554 0.0530053265
  vertex -0.00880811736 -0.00454413984 0.0530053265
  vertex -0.00741969375 -0.00415865798 0.0540716797
  endloop
 endfacet

 facet normal -0.117314838 0.977423191 -0.175730035
  outer loop
  vertex -0.00741969375 -0.00415865798 0.0540716797
  vertex -0.00880811736 -0.00432530325 0.0540716797
  vertex -0.00881952886 -0.00406984147 0.0555001944
  endloop
 endfacet

 facet normal -0.114570528 0.978219569 -0.173090339
  outer loop
  vertex -0.00741969375 -0.00415865798 0.0540716797
  vertex -0.00881952886 -0.00406984147 0.0555001944
  vertex -0.00836306065 -0.0039297496 0.0559897833
  endloop
 endfacet

 facet normal -0.0586878993 0.987437665 -0.146706089
  outer loop
  vertex -0.00741969375 -0.00415865798 0.0540716797
  vertex -0.00836306065 -0.0039297496 0.0559897833
  vertex -0.00741969375 -0.00398926577 0.0552118123
  endloop
 endfacet

 facet normal -0.116769984 0.972883701 -0.199654624
  outer loop
  vertex -0.00741969375 -0.00415865798 0.0540716797
  vertex -0.00880811736 -0.00454413984 0.0530053265
  vertex -0.00880811736 -0.00432530325 0.0540716797
  endloop
 endfacet

 facet normal -0.18043904 0.977257013 -0.111402333
  outer loop
  vertex -0.00836306065 -0.0039297496 0.0559897833
  vertex -0.00881952886 -0.00406984147 0.0555001944
  vertex -0.0092550749 -0.00399659062 0.0568482317
  endloop
 endfacet

 facet normal -0.115190074 0.992437303 -0.0424201451
  outer loop
  vertex -0.00836306065 -0.0039297496 0.0559897833
  vertex -0.0092550749 -0.00399659062 0.0568482317
  vertex -0.00856086425 -0.00391601492 0.0568482317
  endloop
 endfacet

 facet normal -0.115276843 0.993185043 0.0171651356
  outer loop
  vertex -0.00856086425 -0.00391601492 0.0568482317
  vertex -0.0092550749 -0.00399659062 0.0568482317
  vertex -0.00846196245 -0.00392242474 0.0578832924
  endloop
 endfacet

 facet normal -0.175254747 0.982447743 0.063892439
  outer loop
  vertex -0.00846196245 -0.00392242474 0.0578832924
  vertex -0.0092550749 -0.00399659062 0.0568482317
  vertex -0.00887848902 -0.00402405998 0.058303576
  endloop
 endfacet

 facet normal -0.0957713127 0.985035837 0.143290803
  outer loop
  vertex -0.00846196245 -0.00392242474 0.0578832924
  vertex -0.00887848902 -0.00402405998 0.058303576
  vertex -0.00741969375 -0.00407441985 0.0596247837
  endloop
 endfacet

 facet normal -0.0750139505 0.988517523 0.131171584
  outer loop
  vertex -0.00846196245 -0.00392242474 0.0578832924
  vertex -0.00741969375 -0.00407441985 0.0596247837
  vertex -0.00741969375 -0.00395813398 0.0587484501
  endloop
 endfacet

 facet normal -0.11125131 0.980791688 0.16022107
  outer loop
  vertex -0.00741969375 -0.00407441985 0.0596247837
  vertex -0.00887848902 -0.00402405998 0.058303576
  vertex -0.00880811736 -0.00423190882 0.0596247837
  endloop
 endfacet

 facet normal -0.1106584 0.975564599 0.189811885
  outer loop
  vertex -0.00741969375 -0.00407441985 0.0596247837
  vertex -0.00880811736 -0.00423190882 0.0596247837
  vertex -0.00880811736 -0.00450202031 0.0610130616
  endloop
 endfacet

 facet normal -0.1106584 0.975564599 0.189811885
  outer loop
  vertex -0.00741969375 -0.00407441985 0.0596247837
  vertex -0.00880811736 -0.00450202031 0.0610130616
  vertex -0.00741969375 -0.00434453133 0.0610130616
  endloop
 endfacet

 facet normal -0.109615028 0.966366231 0.232638747
  outer loop
  vertex -0.00741969375 -0.00434453133 0.0610130616
  vertex -0.00880811736 -0.00450202031 0.0610130616
  vertex -0.00880811736 -0.00483622774 0.0624013357
  endloop
 endfacet

 facet normal -0.0690147728 0.960095763 0.271022439
  outer loop
  vertex -0.00741969375 -0.00434453133 0.0610130616
  vertex -0.00880811736 -0.00483622774 0.0624013357
  vertex -0.00741969375 -0.00473642303 0.0624013357
  endloop
 endfacet

 facet normal -0.0682298392 0.949176192 0.307261199
  outer loop
  vertex -0.00741969375 -0.00473642303 0.0624013357
  vertex -0.00880811736 -0.00483622774 0.0624013357
  vertex -0.00880811736 -0.00518142153 0.0634676889
  endloop
 endfacet

 facet normal -0.0393117629 0.939314306 0.340797871
  outer loop
  vertex -0.00741969375 -0.00473642303 0.0624013357
  vertex -0.00880811736 -0.00518142153 0.0634676889
  vertex -0.00741969375 -0.00514845876 0.0635369942
  endloop
 endfacet

 facet normal -0.0415149108 0.917637467 0.39524436
  outer loop
  vertex -0.00741969375 -0.00514845876 0.0635369942
  vertex -0.00880811736 -0.00518142153 0.0634676889
  vertex -0.00741969375 -0.0054469551 0.0642300174
  endloop
 endfacet

 facet normal -0.0750891715 0.89127171 0.447209537
  outer loop
  vertex -0.00741969375 -0.0054469551 0.0642300174
  vertex -0.00880811736 -0.00518142153 0.0634676889
  vertex -0.00880811736 -0.00553027727 0.0641629472
  endloop
 endfacet

 facet normal -0.0753405541 0.883893251 0.461580366
  outer loop
  vertex -0.00741969375 -0.0054469551 0.0642300174
  vertex -0.00880811736 -0.00553027727 0.0641629472
  vertex -0.00880811736 -0.00655761873 0.0661302358
  endloop
 endfacet

 facet normal -0.0745342225 0.883709848 0.462062329
  outer loop
  vertex -0.00741969375 -0.0054469551 0.0642300174
  vertex -0.00880811736 -0.00655761873 0.0661302358
  vertex -0.00741969375 -0.00594139751 0.0651756525
  endloop
 endfacet

 facet normal -0.0407519788 0.865418315 0.499390095
  outer loop
  vertex -0.00741969375 -0.00594139751 0.0651756525
  vertex -0.00880811736 -0.00655761873 0.0661302358
  vertex -0.00741969375 -0.0065219095 0.0661816522
  endloop
 endfacet

 facet normal -0.0417644009 0.83597368 0.54717797
  outer loop
  vertex -0.00741969375 -0.0065219095 0.0661816522
  vertex -0.00880811736 -0.00655761873 0.0661302358
  vertex -0.00741969375 -0.00697697978 0.0668769032
  endloop
 endfacet

 facet normal -0.0559308492 0.822527528 0.565968335
  outer loop
  vertex -0.00741969375 -0.00697697978 0.0668769032
  vertex -0.00880811736 -0.00655761873 0.0661302358
  vertex -0.00880811736 -0.00936953165 0.0702168122
  endloop
 endfacet

 facet normal -0.0553384274 0.822440803 0.566152513
  outer loop
  vertex -0.00741969375 -0.00697697978 0.0668769032
  vertex -0.00880811736 -0.00936953165 0.0702168122
  vertex -0.00741969375 -0.00767103024 0.0678851381
  endloop
 endfacet

 facet normal 0 0.819620013 0.572907567
  outer loop
  vertex 0.00784725696 -0.00767103024 0.0678851381
  vertex -0.00741969375 -0.00767103024 0.0678851381
  vertex -0.00741969375 -0.00868829992 0.0693404749
  endloop
 endfacet

 facet normal 0 0.819620013 0.572907567
  outer loop
  vertex 0.00784725696 -0.00767103024 0.0678851381
  vertex -0.00741969375 -0.00868829992 0.0693404749
  vertex 0.00784725696 -0.00868829992 0.0693404749
  endloop
 endfacet

 facet normal 0.0686804652 0.817684591 0.57155478
  outer loop
  vertex 0.00784725696 -0.00767103024 0.0678851381
  vertex 0.00784725696 -0.00868829992 0.0693404749
  vertex 0.00865368359 -0.0122125754 0.0742855147
  endloop
 endfacet

 facet normal 0.0628958344 0.817554832 0.572405696
  outer loop
  vertex 0.00865368359 -0.0122125754 0.0742855147
  vertex 0.00784725696 -0.00868829992 0.0693404749
  vertex 0.00784725696 -0.0132399155 0.0758414567
  endloop
 endfacet

 facet normal 0 0.819176733 0.573541224
  outer loop
  vertex 0.00784725696 -0.0132399155 0.0758414567
  vertex 0.00784725696 -0.00868829992 0.0693404749
  vertex -0.00741969375 -0.00868829992 0.0693404749
  endloop
 endfacet

 facet normal 0 0.819176733 0.573541224
  outer loop
  vertex 0.00784725696 -0.0132399155 0.0758414567
  vertex -0.00741969375 -0.00868829992 0.0693404749
  vertex -0.00741969375 -0.0132399155 0.0758414567
  endloop
 endfacet

 facet normal -0.00125456869 -0.951009274 -0.309159756
  outer loop
  vertex -0.0060312706 -0.00755932322 0.0530053265
  vertex -0.00741969375 -0.0132399155 0.0704850852
  vertex -0.00741969375 -0.00755749177 0.0530053265
  endloop
 endfacet

 facet normal -0.0290370621 -0.950608969 -0.309029609
  outer loop
  vertex -0.00741969375 -0.0132399155 0.0704850852
  vertex -0.00746724289 -0.0132399155 0.0704895481
  vertex -0.00741969375 -0.00755749177 0.0530053265
  endloop
 endfacet

 facet normal -0.457859516 0.870875299 -0.178720534
  outer loop
  vertex -0.00880811736 -0.00454413984 0.0530053265
  vertex -0.00969632715 -0.00501111336 0.0530053265
  vertex -0.00880811736 -0.00432530325 0.0540716797
  endloop
 endfacet

 facet normal -0.459510654 0.870354772 -0.177010417
  outer loop
  vertex -0.00880811736 -0.00432530325 0.0540716797
  vertex -0.00969632715 -0.00501111336 0.0530053265
  vertex -0.0092550749 -0.00399659062 0.0568482317
  endloop
 endfacet

 facet normal -0.362285793 0.917005658 -0.166882485
  outer loop
  vertex -0.00880811736 -0.00432530325 0.0540716797
  vertex -0.0092550749 -0.00399659062 0.0568482317
  vertex -0.00881952886 -0.00406984147 0.0555001944
  endloop
 endfacet

 facet normal -0.804393291 0.591508627 0.0553982481
  outer loop
  vertex -0.0092550749 -0.00399659062 0.0568482317
  vertex -0.0097001316 -0.00473184464 0.0582365096
  vertex -0.0097001316 -0.00486186473 0.0596247837
  endloop
 endfacet

 facet normal -0.799944282 0.597273707 0.057907965
  outer loop
  vertex -0.0092550749 -0.00399659062 0.0568482317
  vertex -0.0097001316 -0.00486186473 0.0596247837
  vertex -0.0097001316 -0.00499646319 0.0610130616
  endloop
 endfacet

 facet normal -0.712970614 0.695298553 0.0907353982
  outer loop
  vertex -0.0092550749 -0.00399659062 0.0568482317
  vertex -0.0097001316 -0.00499646319 0.0610130616
  vertex -0.00965828821 -0.00513472408 0.0624013357
  endloop
 endfacet

 facet normal -0.484687775 0.863131702 0.141709268
  outer loop
  vertex -0.0092550749 -0.00399659062 0.0568482317
  vertex -0.00965828821 -0.00513472408 0.0624013357
  vertex -0.00887848902 -0.00402405998 0.058303576
  endloop
 endfacet

 facet normal -0.819151163 0.570775628 -0.0566270612
  outer loop
  vertex -0.0092550749 -0.00399659062 0.0568482317
  vertex -0.00969632715 -0.00501111336 0.0530053265
  vertex -0.0097001316 -0.00477304822 0.0554599538
  endloop
 endfacet

 facet normal -0.841363192 0.539520502 -0.0320254192
  outer loop
  vertex -0.0092550749 -0.00399659062 0.0568482317
  vertex -0.0097001316 -0.00477304822 0.0554599538
  vertex -0.0097001316 -0.00469064154 0.0568482317
  endloop
 endfacet

 facet normal -0.841686964 0.539728105 0.0160188209
  outer loop
  vertex -0.0092550749 -0.00399659062 0.0568482317
  vertex -0.0097001316 -0.00469064154 0.0568482317
  vertex -0.0097001316 -0.00473184464 0.0582365096
  endloop
 endfacet

 facet normal -0.440781295 0.884003758 0.155721828
  outer loop
  vertex -0.00887848902 -0.00402405998 0.058303576
  vertex -0.00965828821 -0.00513472408 0.0624013357
  vertex -0.00958030857 -0.00525375688 0.0632977933
  endloop
 endfacet

 facet normal -0.411414474 0.896756828 0.162988767
  outer loop
  vertex -0.00887848902 -0.00402405998 0.058303576
  vertex -0.00958030857 -0.00525375688 0.0632977933
  vertex -0.00880811736 -0.00423190882 0.0596247837
  endloop
 endfacet

 facet normal -0.363759935 0.914346814 0.17790097
  outer loop
  vertex -0.00880811736 -0.00423190882 0.0596247837
  vertex -0.00958030857 -0.00525375688 0.0632977933
  vertex -0.00880811736 -0.00450202031 0.0610130616
  endloop
 endfacet

 facet normal -0.246160865 0.942308426 0.226847172
  outer loop
  vertex -0.00880811736 -0.00450202031 0.0610130616
  vertex -0.00958030857 -0.00525375688 0.0632977933
  vertex -0.00880811736 -0.00483622774 0.0624013357
  endloop
 endfacet

 facet normal -0.154989645 0.939896584 0.304257303
  outer loop
  vertex -0.00880811736 -0.00483622774 0.0624013357
  vertex -0.00958030857 -0.00525375688 0.0632977933
  vertex -0.00880811736 -0.00518142153 0.0634676889
  endloop
 endfacet

 facet normal -0.179442137 0.879287422 0.441196293
  outer loop
  vertex -0.00880811736 -0.00518142153 0.0634676889
  vertex -0.00958030857 -0.00525375688 0.0632977933
  vertex -0.00880811736 -0.00553027727 0.0641629472
  endloop
 endfacet

 facet normal -0.186393097 0.875338972 0.446138352
  outer loop
  vertex -0.00880811736 -0.00553027727 0.0641629472
  vertex -0.00958030857 -0.00525375688 0.0632977933
  vertex -0.00957840588 -0.00663544796 0.066009514
  endloop
 endfacet

 facet normal -0.160019889 0.874990106 0.456930995
  outer loop
  vertex -0.00880811736 -0.00553027727 0.0641629472
  vertex -0.00957840588 -0.00663544796 0.066009514
  vertex -0.00880811736 -0.00655761873 0.0661302358
  endloop
 endfacet

 facet normal -0.169259071 0.814553201 0.554846406
  outer loop
  vertex -0.00880811736 -0.00655761873 0.0661302358
  vertex -0.00957840588 -0.00663544796 0.066009514
  vertex -0.00955748465 -0.00943454169 0.0701251552
  endloop
 endfacet

 facet normal -0.139426738 0.815770388 0.561318874
  outer loop
  vertex -0.00880811736 -0.00655761873 0.0661302358
  vertex -0.00955748465 -0.00943454169 0.0701251552
  vertex -0.00880811736 -0.00936953165 0.0702168122
  endloop
 endfacet

 facet normal -0.139441758 0.815600038 0.561562717
  outer loop
  vertex -0.00880811736 -0.00936953165 0.0702168122
  vertex -0.00955748465 -0.00943454169 0.0701251552
  vertex -0.0095213484 -0.0122528635 0.0742273927
  endloop
 endfacet

 facet normal -0.0936139524 0.816195905 0.570141077
  outer loop
  vertex -0.00880811736 -0.00936953165 0.0702168122
  vertex -0.0095213484 -0.0122528635 0.0742273927
  vertex -0.00880811736 -0.0122116599 0.0742855147
  endloop
 endfacet

 facet normal -0.041146636 0.819101691 0.572170854
  outer loop
  vertex -0.00880811736 -0.00936953165 0.0702168122
  vertex -0.00880811736 -0.0122116599 0.0742855147
  vertex -0.00741969375 -0.00767103024 0.0678851381
  endloop
 endfacet

 facet normal -0.0394145884 0.818983018 0.57246238
  outer loop
  vertex -0.00741969375 -0.00767103024 0.0678851381
  vertex -0.00880811736 -0.0122116599 0.0742855147
  vertex -0.00741969375 -0.00868829992 0.0693404749
  endloop
 endfacet

 facet normal -0.048603911 0.812797368 0.580515325
  outer loop
  vertex -0.00741969375 -0.0132399155 0.0758414567
  vertex -0.00880811736 -0.0122116599 0.0742855147
  vertex -0.00880811736 -0.0132399155 0.0757252052
  endloop
 endfacet

 facet normal -0.036040321 0.818644524 0.573168635
  outer loop
  vertex -0.00741969375 -0.0132399155 0.0758414567
  vertex -0.00741969375 -0.00868829992 0.0693404749
  vertex -0.00880811736 -0.0122116599 0.0742855147
  endloop
 endfacet

 facet normal -0.0307544433 -0.950558782 -0.309017956
  outer loop
  vertex -0.00741969375 -0.00755749177 0.0530053265
  vertex -0.00746724289 -0.0132399155 0.0704895481
  vertex -0.00877007842 -0.0132399155 0.0706192106
  endloop
 endfacet

 facet normal -0.0363683477 -0.950252712 -0.309349626
  outer loop
  vertex -0.00741969375 -0.00755749177 0.0530053265
  vertex -0.00877007842 -0.0132399155 0.0706192106
  vertex -0.00880811736 -0.0132399155 0.0706236884
  endloop
 endfacet

 facet normal -0.0891989172 -0.945854545 -0.31209445
  outer loop
  vertex -0.00741969375 -0.00755749177 0.0530053265
  vertex -0.00880811736 -0.0132399155 0.0706236884
  vertex -0.00880811736 -0.0074265562 0.0530053265
  endloop
 endfacet

 facet normal -0.980784059 0.19391048 -0.0214817673
  outer loop
  vertex -0.00969632715 -0.00501111336 0.0530053265
  vertex -0.00984658208 -0.00577108935 0.0530053265
  vertex -0.0097001316 -0.00491222506 0.0540716797
  endloop
 endfacet

 facet normal -0.902563214 0.428409994 -0.0429488719
  outer loop
  vertex -0.00969632715 -0.00501111336 0.0530053265
  vertex -0.0097001316 -0.00491222506 0.0540716797
  vertex -0.0097001316 -0.00477304822 0.0554599538
  endloop
 endfacet

 facet normal -0.988393247 0.15185003 0.00450682174
  outer loop
  vertex -0.0097001316 -0.00473184464 0.0582365096
  vertex -0.0097001316 -0.00469064154 0.0568482317
  vertex -0.00988652185 -0.00602746708 0.0610130616
  endloop
 endfacet

 facet normal -0.984050274 0.177115232 0.0165878776
  outer loop
  vertex -0.0097001316 -0.00473184464 0.0582365096
  vertex -0.00988652185 -0.00602746708 0.0610130616
  vertex -0.0097001316 -0.00486186473 0.0596247837
  endloop
 endfacet

 facet normal -0.983901918 0.177874953 0.0172456559
  outer loop
  vertex -0.0097001316 -0.00486186473 0.0596247837
  vertex -0.00988652185 -0.00602746708 0.0610130616
  vertex -0.0097001316 -0.00499646319 0.0610130616
  endloop
 endfacet

 facet normal -0.983819425 0.177860036 0.0215652529
  outer loop
  vertex -0.0097001316 -0.00499646319 0.0610130616
  vertex -0.00988652185 -0.00602746708 0.0610130616
  vertex -0.00985609088 -0.00602746708 0.0624013357
  endloop
 endfacet

 facet normal -0.975056529 0.216040894 0.0509047322
  outer loop
  vertex -0.0097001316 -0.00499646319 0.0610130616
  vertex -0.00985609088 -0.00602746708 0.0624013357
  vertex -0.00965828821 -0.00513472408 0.0624013357
  endloop
 endfacet

 facet normal -0.971331596 0.215215564 0.100981288
  outer loop
  vertex -0.00965828821 -0.00513472408 0.0624013357
  vertex -0.00985609088 -0.00602746708 0.0624013357
  vertex -0.00970773958 -0.00600091368 0.0637717247
  endloop
 endfacet

 facet normal -0.969435632 0.221678346 0.105134659
  outer loop
  vertex -0.00965828821 -0.00513472408 0.0624013357
  vertex -0.00970773958 -0.00600091368 0.0637717247
  vertex -0.00965828821 -0.00645049009 0.0651756525
  endloop
 endfacet

 facet normal -0.962480426 0.245175168 0.116278432
  outer loop
  vertex -0.00965828821 -0.00513472408 0.0624013357
  vertex -0.00965828821 -0.00645049009 0.0651756525
  vertex -0.00958030857 -0.00525375688 0.0632977933
  endloop
 endfacet

 facet normal -0.981377602 0.191130489 -0.0191611759
  outer loop
  vertex -0.0097001316 -0.00477304822 0.0554599538
  vertex -0.0097001316 -0.00491222506 0.0540716797
  vertex -0.00984658208 -0.00577108935 0.0530053265
  endloop
 endfacet

 facet normal -0.985508025 0.169331416 -0.0100513501
  outer loop
  vertex -0.0097001316 -0.00477304822 0.0554599538
  vertex -0.00984658208 -0.00577108935 0.0530053265
  vertex -0.0097001316 -0.00469064154 0.0568482317
  endloop
 endfacet

 facet normal -0.99021095 0.139571041 -0.00150487619
  outer loop
  vertex -0.0097001316 -0.00469064154 0.0568482317
  vertex -0.00984658208 -0.00577108935 0.0530053265
  vertex -0.00988271832 -0.00602746708 0.0530053265
  endloop
 endfacet

 facet normal -0.990618825 0.136653453 -0.000470567116
  outer loop
  vertex -0.0097001316 -0.00469064154 0.0568482317
  vertex -0.00988271832 -0.00602746708 0.0530053265
  vertex -0.00988652185 -0.00602746708 0.0610130616
  endloop
 endfacet

 facet normal -0.937472582 0.309856445 0.158537284
  outer loop
  vertex -0.00958030857 -0.00525375688 0.0632977933
  vertex -0.00965828821 -0.00645049009 0.0651756525
  vertex -0.00957840588 -0.00663544796 0.066009514
  endloop
 endfacet

 facet normal -0.95815742 0.245997593 0.146354362
  outer loop
  vertex -0.00957840588 -0.00663544796 0.066009514
  vertex -0.00965828821 -0.00645049009 0.0651756525
  vertex -0.00970583782 -0.00742838671 0.0665080398
  endloop
 endfacet

 facet normal -0.947673738 0.264595807 0.178615719
  outer loop
  vertex -0.00957840588 -0.00663544796 0.066009514
  vertex -0.00970583782 -0.00742838671 0.0665080398
  vertex -0.00963356346 -0.00789993815 0.0675900429
  endloop
 endfacet

 facet normal -0.932921767 0.296348989 0.204534352
  outer loop
  vertex -0.00957840588 -0.00663544796 0.066009514
  vertex -0.00963356346 -0.00789993815 0.0675900429
  vertex -0.00962595548 -0.0107072722 0.0716922805
  endloop
 endfacet

 facet normal -0.912048757 0.336919397 0.233778581
  outer loop
  vertex -0.00957840588 -0.00663544796 0.066009514
  vertex -0.00962595548 -0.0107072722 0.0716922805
  vertex -0.00955748465 -0.00943454169 0.0701251552
  endloop
 endfacet

 facet normal -0.889351845 0.373161376 0.264203995
  outer loop
  vertex -0.00955748465 -0.00943454169 0.0701251552
  vertex -0.00962595548 -0.0107072722 0.0716922805
  vertex -0.0095213484 -0.0122528635 0.0742273927
  endloop
 endfacet

 facet normal -0.542051315 0.626802564 0.559731185
  outer loop
  vertex -0.0095213484 -0.0122528635 0.0742273927
  vertex -0.00963546522 -0.0132399155 0.0752222091
  vertex -0.00933305547 -0.0132399155 0.0755150691
  endloop
 endfacet

 facet normal -0.245047837 0.751825213 0.612136006
  outer loop
  vertex -0.0095213484 -0.0122528635 0.0742273927
  vertex -0.00933305547 -0.0132399155 0.0755150691
  vertex -0.00880811736 -0.0132399155 0.0757252052
  endloop
 endfacet

 facet normal -0.0939570963 0.810159206 0.578631282
  outer loop
  vertex -0.0095213484 -0.0122528635 0.0742273927
  vertex -0.00880811736 -0.0132399155 0.0757252052
  vertex -0.00880811736 -0.0122116599 0.0742855147
  endloop
 endfacet

 facet normal -0.894326627 0.364664555 0.259229034
  outer loop
  vertex -0.0095213484 -0.0122528635 0.0742273927
  vertex -0.00962595548 -0.0107072722 0.0716922805
  vertex -0.00963546522 -0.0132399155 0.0752222091
  endloop
 endfacet

 facet normal -0.176890492 -0.934664607 -0.30840224
  outer loop
  vertex -0.00880811736 -0.0074265562 0.0530053265
  vertex -0.00880811736 -0.0132399155 0.0706236884
  vertex -0.00959932897 -0.0132399155 0.0710775033
  endloop
 endfacet

 facet normal -0.408536524 -0.863528967 -0.2956613
  outer loop
  vertex -0.00880811736 -0.0074265562 0.0530053265
  vertex -0.00959932897 -0.0132399155 0.0710775033
  vertex -0.00968871918 -0.00700994255 0.0530053265
  endloop
 endfacet

 facet normal -0.999566317 0.0249562617 0.0156295709
  outer loop
  vertex -0.00988652185 -0.00602746708 0.0610130616
  vertex -0.00987320859 -0.0115789566 0.0707287565
  vertex -0.00985609088 -0.00741556892 0.0651756525
  endloop
 endfacet

 facet normal -0.998802185 0.0437575951 0.0218936745
  outer loop
  vertex -0.00988652185 -0.00602746708 0.0610130616
  vertex -0.00985609088 -0.00741556892 0.0651756525
  vertex -0.00985609088 -0.00602746708 0.0624013357
  endloop
 endfacet

 facet normal -0.999994695 -0.0032295126 -0.000475020934
  outer loop
  vertex -0.00988652185 -0.00602746708 0.0610130616
  vertex -0.00988271832 -0.00602746708 0.0530053265
  vertex -0.00987320859 -0.0115789566 0.0707287565
  endloop
 endfacet

 facet normal -0.974728763 0.199780822 0.0999583304
  outer loop
  vertex -0.00985609088 -0.00602746708 0.0624013357
  vertex -0.00985609088 -0.00741556892 0.0651756525
  vertex -0.00965828821 -0.00645049009 0.0651756525
  endloop
 endfacet

 facet normal -0.972626448 0.209161401 0.101238772
  outer loop
  vertex -0.00985609088 -0.00602746708 0.0624013357
  vertex -0.00965828821 -0.00645049009 0.0651756525
  vertex -0.00970773958 -0.00600091368 0.0637717247
  endloop
 endfacet

 facet normal -0.973504245 0.199529856 0.11170195
  outer loop
  vertex -0.00965828821 -0.00645049009 0.0651756525
  vertex -0.00985609088 -0.00741556892 0.0651756525
  vertex -0.00970583782 -0.00742838671 0.0665080398
  endloop
 endfacet

 facet normal -0.980419815 -0.186223075 -0.0640163273
  outer loop
  vertex -0.00988271832 -0.00602746708 0.0530053265
  vertex -0.00973436702 -0.00680850307 0.0530053265
  vertex -0.00981234666 -0.0129670575 0.0721147954
  endloop
 endfacet

 facet normal -0.997836947 -0.0628836304 -0.0191615634
  outer loop
  vertex -0.00988271832 -0.00602746708 0.0530053265
  vertex -0.00981234666 -0.0129670575 0.0721147954
  vertex -0.00987320859 -0.0115789566 0.0707287565
  endloop
 endfacet

 facet normal -0.98025769 0.162868589 0.112110838
  outer loop
  vertex -0.00970583782 -0.00742838671 0.0665080398
  vertex -0.00985609088 -0.00741556892 0.0651756525
  vertex -0.00984087586 -0.0101908557 0.0693404749
  endloop
 endfacet

 facet normal -0.978407621 0.169335812 0.118506491
  outer loop
  vertex -0.00970583782 -0.00742838671 0.0665080398
  vertex -0.00984087586 -0.0101908557 0.0693404749
  vertex -0.00968871918 -0.010223818 0.070643805
  endloop
 endfacet

 facet normal -0.953678787 0.247387826 0.171160743
  outer loop
  vertex -0.00970583782 -0.00742838671 0.0665080398
  vertex -0.00968871918 -0.010223818 0.070643805
  vertex -0.00962595548 -0.0107072722 0.0716922805
  endloop
 endfacet

 facet normal -0.953062177 0.249040216 0.172196314
  outer loop
  vertex -0.00970583782 -0.00742838671 0.0665080398
  vertex -0.00962595548 -0.0107072722 0.0716922805
  vertex -0.00963356346 -0.00789993815 0.0675900429
  endloop
 endfacet

 facet normal -0.958155632 0.233794257 0.165160686
  outer loop
  vertex -0.00962595548 -0.0107072722 0.0716922805
  vertex -0.00968871918 -0.010223818 0.070643805
  vertex -0.00963546522 -0.0132399155 0.0752222091
  endloop
 endfacet

 facet normal -0.976402402 0.17310594 0.129123181
  outer loop
  vertex -0.00963546522 -0.0132399155 0.0752222091
  vertex -0.00965638645 -0.0130210808 0.0747706294
  vertex -0.0096925227 -0.0132399155 0.074790746
  endloop
 endfacet

 facet normal -0.971239269 0.193491846 0.138762981
  outer loop
  vertex -0.00963546522 -0.0132399155 0.0752222091
  vertex -0.00968871918 -0.010223818 0.070643805
  vertex -0.00965638645 -0.0130210808 0.0747706294
  endloop
 endfacet

 facet normal -0.9033041 -0.406935394 -0.135813713
  outer loop
  vertex -0.00968871918 -0.00700994255 0.0530053265
  vertex -0.00959932897 -0.0132399155 0.0710775033
  vertex -0.00975528825 -0.0132399155 0.0721147954
  endloop
 endfacet

 facet normal -0.972509086 -0.220376611 -0.0752338544
  outer loop
  vertex -0.00968871918 -0.00700994255 0.0530053265
  vertex -0.00975528825 -0.0132399155 0.0721147954
  vertex -0.00973436702 -0.00680850307 0.0530053265
  endloop
 endfacet

 facet normal -0.998978496 -0.0451671556 -0.00136859226
  outer loop
  vertex -0.00987320859 -0.0115789566 0.0707287565
  vertex -0.00981234666 -0.0129670575 0.0721147954
  vertex -0.00981424842 -0.0129670575 0.073503077
  endloop
 endfacet

 facet normal -0.993911624 0.088624306 0.0654648915
  outer loop
  vertex -0.00987320859 -0.0115789566 0.0707287565
  vertex -0.00981424842 -0.0129670575 0.073503077
  vertex -0.00984087586 -0.0101908557 0.0693404749
  endloop
 endfacet

 facet normal -0.995120287 0.0803928301 0.0572063252
  outer loop
  vertex -0.00987320859 -0.0115789566 0.0707287565
  vertex -0.00984087586 -0.0101908557 0.0693404749
  vertex -0.00985609088 -0.00741556892 0.0651756525
  endloop
 endfacet

 facet normal -0.976440609 -0.204189062 -0.0697901398
  outer loop
  vertex -0.00973436702 -0.00680850307 0.0530053265
  vertex -0.00975528825 -0.0132399155 0.0721147954
  vertex -0.00981234666 -0.0129670575 0.0721147954
  endloop
 endfacet

 facet normal -0.978358984 -0.204590246 -0.0309275296
  outer loop
  vertex -0.00981234666 -0.0129670575 0.0721147954
  vertex -0.00975528825 -0.0132399155 0.0721147954
  vertex -0.00979903247 -0.0132399155 0.0734985992
  endloop
 endfacet

 facet normal -0.998448968 -0.0556580536 -0.00136786664
  outer loop
  vertex -0.00981234666 -0.0129670575 0.0721147954
  vertex -0.00979903247 -0.0132399155 0.0734985992
  vertex -0.00981424842 -0.0129670575 0.073503077
  endloop
 endfacet

 facet normal -0.978588223 0.168293133 0.118501201
  outer loop
  vertex -0.00984087586 -0.0101908557 0.0693404749
  vertex -0.00981424842 -0.0129670575 0.073503077
  vertex -0.00968871918 -0.010223818 0.070643805
  endloop
 endfacet

 facet normal -0.975306392 0.179192662 0.129102513
  outer loop
  vertex -0.00968871918 -0.010223818 0.070643805
  vertex -0.00981424842 -0.0129670575 0.073503077
  vertex -0.00965638645 -0.0130210808 0.0747706294
  endloop
 endfacet

 facet normal -0.976422727 0.173096299 0.128981709
  outer loop
  vertex -0.00965638645 -0.0130210808 0.0747706294
  vertex -0.00981424842 -0.0129670575 0.073503077
  vertex -0.0096925227 -0.0132399155 0.074790746
  endloop
 endfacet

 facet normal -0.995009184 -0.05683285 0.0820167065
  outer loop
  vertex -0.0096925227 -0.0132399155 0.074790746
  vertex -0.00981424842 -0.0129670575 0.073503077
  vertex -0.00979903247 -0.0132399155 0.0734985992
  endloop
 endfacet

endsolid AssimpScene
