solid AssimpScene
 facet normal -0.010619388 -0.999787629 -0.0176680945
  outer loop
  vertex 0.0257441178 0.0143886665 -0.0125937993
  vertex 0.0278684869 0.0143886665 -0.013870649
  vertex 0.0453312658 0.0141806193 -0.0125937993
  endloop
 endfacet

 facet normal -0.0106210448 -0.999943614 0
  outer loop
  vertex 0.0257441178 0.0143886665 -0.0125937993
  vertex 0.0453312658 0.0141806193 -0.0125937993
  vertex 0.0453312658 0.0141806193 -0.00112247979
  endloop
 endfacet

 facet normal -0.0106210448 -0.999943614 0
  outer loop
  vertex 0.0257441178 0.0143886665 -0.0125937993
  vertex 0.0453312658 0.0141806193 -0.00112247979
  vertex 0.0257441178 0.0143886665 -0.00112078572
  endloop
 endfacet

 facet normal -1 0 0
  outer loop
  vertex 0.0257441178 0.0143886665 -0.0125937993
  vertex 0.0257441178 0.0143886665 -0.00112078572
  vertex 0.0257441178 0.0144858854 0.000152675828
  endloop
 endfacet

 facet normal -1 0 0
  outer loop
  vertex 0.0257441178 0.0143886665 -0.0125937993
  vertex 0.0257441178 0.0144858854 0.000152675828
  vertex 0.0257441178 0.0149233695 0.00125002058
  endloop
 endfacet

 facet normal -1 0 0
  outer loop
  vertex 0.0257441178 0.0143886665 -0.0125937993
  vertex 0.0257441178 0.0149233695 0.00125002058
  vertex 0.0257441178 0.0158702787 0.00154637138
  endloop
 endfacet

 facet normal -1 0 0
  outer loop
  vertex 0.0257441178 0.0143886665 -0.0125937993
  vertex 0.0257441178 0.0158702787 0.00154637138
  vertex 0.0257441178 0.0171457864 0.00155314559
  endloop
 endfacet

 facet normal -1 0 0
  outer loop
  vertex 0.0257441178 0.0143886665 -0.0125937993
  vertex 0.0257441178 0.0171457864 0.00155314559
  vertex 0.0257441178 0.0298930909 0.00155314559
  endloop
 endfacet

 facet normal -1 0 0
  outer loop
  vertex 0.0257441178 0.0143886665 -0.0125937993
  vertex 0.0257441178 0.0298930909 0.00155314559
  vertex 0.0257441178 0.0302139129 0.00155145151
  endloop
 endfacet

 facet normal -1 0 0
  outer loop
  vertex 0.0257441178 0.0143886665 -0.0125937993
  vertex 0.0257441178 0.0302139129 0.00155145151
  vertex 0.0257441178 0.0316683017 0.0015328239
  endloop
 endfacet

 facet normal -1 0 0
  outer loop
  vertex 0.0257441178 0.0143886665 -0.0125937993
  vertex 0.0257441178 0.0316683017 0.0015328239
  vertex 0.0257441178 0.0327474289 0.0012720353
  endloop
 endfacet

 facet normal -1 0 0
  outer loop
  vertex 0.0257441178 0.0143886665 -0.0125937993
  vertex 0.0257441178 0.0327474289 0.0012720353
  vertex 0.0257441178 0.0333404653 0.00100447249
  endloop
 endfacet

 facet normal -1 0 0
  outer loop
  vertex 0.0257441178 0.0143886665 -0.0125937993
  vertex 0.0257441178 0.0333404653 0.00100447249
  vertex 0.0257441178 0.0334571265 0.000718282477
  endloop
 endfacet

 facet normal -1 0 0
  outer loop
  vertex 0.0257441178 0.0143886665 -0.0125937993
  vertex 0.0257441178 0.0334571265 0.000718282477
  vertex 0.0257441178 0.0336768404 0.000152675828
  endloop
 endfacet

 facet normal -1 0 0
  outer loop
  vertex 0.0257441178 0.0143886665 -0.0125937993
  vertex 0.0257441178 0.0336768404 0.000152675828
  vertex 0.0257441178 0.0337060057 -0.000274069724
  endloop
 endfacet

 facet normal -1 0 0
  outer loop
  vertex 0.0257441178 0.0143886665 -0.0125937993
  vertex 0.0257441178 0.0337060057 -0.000274069724
  vertex 0.0257441178 0.0337565579 -0.00112078572
  endloop
 endfacet

 facet normal -1 0 0
  outer loop
  vertex 0.0257441178 0.0143886665 -0.0125937993
  vertex 0.0257441178 0.0337565579 -0.00112078572
  vertex 0.0257441178 0.0337565579 -0.013870649
  endloop
 endfacet

 facet normal -1 0 0
  outer loop
  vertex 0.0257441178 0.0143886665 -0.0125937993
  vertex 0.0257441178 0.0337565579 -0.013870649
  vertex 0.0257441178 0.0334201828 -0.0149036432
  endloop
 endfacet

 facet normal -1 0 0
  outer loop
  vertex 0.0257441178 0.0143886665 -0.0125937993
  vertex 0.0257441178 0.0334201828 -0.0149036432
  vertex 0.0257441178 0.0324227214 -0.0154506229
  endloop
 endfacet

 facet normal -1 0 0
  outer loop
  vertex 0.0257441178 0.0143886665 -0.0125937993
  vertex 0.0257441178 0.0324227214 -0.0154506229
  vertex 0.0257441178 0.0311686005 -0.0155573087
  endloop
 endfacet

 facet normal -1 0 0
  outer loop
  vertex 0.0257441178 0.0143886665 -0.0125937993
  vertex 0.0257441178 0.0311686005 -0.0155573087
  vertex 0.0257441178 0.0298930909 -0.0155708576
  endloop
 endfacet

 facet normal -1 0 0
  outer loop
  vertex 0.0257441178 0.0143886665 -0.0125937993
  vertex 0.0257441178 0.0298930909 -0.0155708576
  vertex 0.0257441178 0.0286175832 -0.0155742439
  endloop
 endfacet

 facet normal -1 0 0
  outer loop
  vertex 0.0257441178 0.0143886665 -0.0125937993
  vertex 0.0257441178 0.0286175832 -0.0155742439
  vertex 0.0257441178 0.0171457864 -0.0155742439
  endloop
 endfacet

 facet normal -1 0 0
  outer loop
  vertex 0.0257441178 0.0143886665 -0.0125937993
  vertex 0.0257441178 0.0171457864 -0.0155742439
  vertex 0.0257441178 0.0158702787 -0.0155268265
  endloop
 endfacet

 facet normal -1 0 0
  outer loop
  vertex 0.0257441178 0.0143886665 -0.0125937993
  vertex 0.0257441178 0.0158702787 -0.0155268265
  vertex 0.0257441178 0.0157575049 -0.0154794101
  endloop
 endfacet

 facet normal -1 0 0
  outer loop
  vertex 0.0257441178 0.0143886665 -0.0125937993
  vertex 0.0257441178 0.0157575049 -0.0154794101
  vertex 0.0257441178 0.014849483 -0.0150780678
  endloop
 endfacet

 facet normal -1 0 0
  outer loop
  vertex 0.0257441178 0.0143886665 -0.0125937993
  vertex 0.0257441178 0.014849483 -0.0150780678
  vertex 0.0257441178 0.0147036556 -0.0147173656
  endloop
 endfacet

 facet normal -1 0 0
  outer loop
  vertex 0.0257441178 0.0143886665 -0.0125937993
  vertex 0.0257441178 0.0147036556 -0.0147173656
  vertex 0.0257441178 0.0144333877 -0.013870649
  endloop
 endfacet

 facet normal -0.0210339166 -0.999166131 -0.034995351
  outer loop
  vertex 0.0257441178 0.0143886665 -0.0125937993
  vertex 0.0257441178 0.0144333877 -0.013870649
  vertex 0.0278684869 0.0143886665 -0.013870649
  endloop
 endfacet

 facet normal -0.0100145228 -0.99961412 -0.0259122234
  outer loop
  vertex 0.0278684869 0.0143886665 -0.013870649
  vertex 0.0453312658 0.0142136738 -0.013868954
  vertex 0.0453312658 0.0141806193 -0.0125937993
  endloop
 endfacet

 facet normal -0.0200505834 -0.952454984 -0.304019123
  outer loop
  vertex 0.0278684869 0.0143886665 -0.013870649
  vertex 0.0257441178 0.0144333877 -0.013870649
  vertex 0.0257441178 0.0147036556 -0.0147173656
  endloop
 endfacet

 facet normal -0.0115038799 -0.946273446 -0.323162764
  outer loop
  vertex 0.0278684869 0.0143886665 -0.013870649
  vertex 0.0257441178 0.0147036556 -0.0147173656
  vertex 0.0453312658 0.0146083804 -0.015135644
  endloop
 endfacet

 facet normal -0.00953787845 -0.954679489 -0.297482908
  outer loop
  vertex 0.0278684869 0.0143886665 -0.013870649
  vertex 0.0453312658 0.0146083804 -0.015135644
  vertex 0.0453312658 0.0142136738 -0.013868954
  endloop
 endfacet

 facet normal 1 0 0
  outer loop
  vertex 0.0453312658 0.0141806193 -0.0125937993
  vertex 0.0453312658 0.0142136738 -0.013868954
  vertex 0.0453312658 0.0146083804 -0.015135644
  endloop
 endfacet

 facet normal 1 0 0
  outer loop
  vertex 0.0453312658 0.0141806193 -0.0125937993
  vertex 0.0453312658 0.0146083804 -0.015135644
  vertex 0.0453312658 0.0147153214 -0.0151813664
  endloop
 endfacet

 facet normal 1 0 0
  outer loop
  vertex 0.0453312658 0.0141806193 -0.0125937993
  vertex 0.0453312658 0.0147153214 -0.0151813664
  vertex 0.0453312658 0.0157886147 -0.0156064173
  endloop
 endfacet

 facet normal 1 0 0
  outer loop
  vertex 0.0453312658 0.0141806193 -0.0125937993
  vertex 0.0453312658 0.0157886147 -0.0156064173
  vertex 0.0453312658 0.0158683341 -0.0156182712
  endloop
 endfacet

 facet normal 1 0 0
  outer loop
  vertex 0.0453312658 0.0141806193 -0.0125937993
  vertex 0.0453312658 0.0158683341 -0.0156182712
  vertex 0.0453312658 0.0171438418 -0.0156572219
  endloop
 endfacet

 facet normal 1 0 0
  outer loop
  vertex 0.0453312658 0.0141806193 -0.0125937993
  vertex 0.0453312658 0.0171438418 -0.0156572219
  vertex 0.0453312658 0.0311705433 -0.0156572219
  endloop
 endfacet

 facet normal 1 0 0
  outer loop
  vertex 0.0453312658 0.0141806193 -0.0125937993
  vertex 0.0453312658 0.0311705433 -0.0156572219
  vertex 0.0453312658 0.0323449448 -0.0156369004
  endloop
 endfacet

 facet normal 1 0 0
  outer loop
  vertex 0.0453312658 0.0141806193 -0.0125937993
  vertex 0.0453312658 0.0323449448 -0.0156369004
  vertex 0.0453312658 0.0324421637 -0.0156352054
  endloop
 endfacet

 facet normal 1 0 0
  outer loop
  vertex 0.0453312658 0.0141806193 -0.0125937993
  vertex 0.0453312658 0.0324421637 -0.0156352054
  vertex 0.0453312658 0.0336943381 -0.0151441116
  endloop
 endfacet

 facet normal 1 0 0
  outer loop
  vertex 0.0453312658 0.0141806193 -0.0125937993
  vertex 0.0453312658 0.0336943381 -0.0151441116
  vertex 0.0453312658 0.0337410048 -0.0150035555
  endloop
 endfacet

 facet normal 1 0 0
  outer loop
  vertex 0.0453312658 0.0141806193 -0.0125937993
  vertex 0.0453312658 0.0337410048 -0.0150035555
  vertex 0.0453312658 0.0340404361 -0.013868954
  endloop
 endfacet

 facet normal 1 0 0
  outer loop
  vertex 0.0453312658 0.0141806193 -0.0125937993
  vertex 0.0453312658 0.0340404361 -0.013868954
  vertex 0.0453312658 0.0340443254 -0.0137080802
  endloop
 endfacet

 facet normal 1 0 0
  outer loop
  vertex 0.0453312658 0.0141806193 -0.0125937993
  vertex 0.0453312658 0.0340443254 -0.0137080802
  vertex 0.0453312658 0.0340384915 -0.00112247979
  endloop
 endfacet

 facet normal 1 0 0
  outer loop
  vertex 0.0453312658 0.0141806193 -0.0125937993
  vertex 0.0453312658 0.0340384915 -0.00112247979
  vertex 0.0453312658 0.033999607 0.000152675828
  endloop
 endfacet

 facet normal 1 0 0
  outer loop
  vertex 0.0453312658 0.0141806193 -0.0125937993
  vertex 0.0453312658 0.033999607 0.000152675828
  vertex 0.0453312658 0.0336437859 0.00133638538
  endloop
 endfacet

 facet normal 1 0 0
  outer loop
  vertex 0.0453312658 0.0141806193 -0.0125937993
  vertex 0.0453312658 0.0336437859 0.00133638538
  vertex 0.0453312658 0.0334843472 0.00137702876
  endloop
 endfacet

 facet normal 1 0 0
  outer loop
  vertex 0.0453312658 0.0141806193 -0.0125937993
  vertex 0.0453312658 0.0334843472 0.00137702876
  vertex 0.0453312658 0.0324421637 0.00163612328
  endloop
 endfacet

 facet normal 1 0 0
  outer loop
  vertex 0.0453312658 0.0141806193 -0.0125937993
  vertex 0.0453312658 0.0324421637 0.00163612328
  vertex 0.0453312658 0.0311705433 0.00164120353
  endloop
 endfacet

 facet normal 1 0 0
  outer loop
  vertex 0.0453312658 0.0141806193 -0.0125937993
  vertex 0.0453312658 0.0311705433 0.00164120353
  vertex 0.0453312658 0.0169980153 0.00164120353
  endloop
 endfacet

 facet normal 1 0 0
  outer loop
  vertex 0.0453312658 0.0141806193 -0.0125937993
  vertex 0.0453312658 0.0169980153 0.00164120353
  vertex 0.0453312658 0.0158683341 0.00163612328
  endloop
 endfacet

 facet normal 1 0 0
  outer loop
  vertex 0.0453312658 0.0141806193 -0.0125937993
  vertex 0.0453312658 0.0158683341 0.00163612328
  vertex 0.0453312658 0.0146492133 0.00134146656
  endloop
 endfacet

 facet normal 1 0 0
  outer loop
  vertex 0.0453312658 0.0141806193 -0.0125937993
  vertex 0.0453312658 0.0146492133 0.00134146656
  vertex 0.0453312658 0.014585048 0.0012076851
  endloop
 endfacet

 facet normal 1 0 0
  outer loop
  vertex 0.0453312658 0.0141806193 -0.0125937993
  vertex 0.0453312658 0.014585048 0.0012076851
  vertex 0.0453312658 0.0142408945 0.000152675828
  endloop
 endfacet

 facet normal 1 0 0
  outer loop
  vertex 0.0453312658 0.0141806193 -0.0125937993
  vertex 0.0453312658 0.0142408945 0.000152675828
  vertex 0.0453312658 0.0142370053 0.000101872662
  endloop
 endfacet

 facet normal 1 0 0
  outer loop
  vertex 0.0453312658 0.0141806193 -0.0125937993
  vertex 0.0453312658 0.0142370053 0.000101872662
  vertex 0.0453312658 0.0141806193 -0.00112247979
  endloop
 endfacet

 facet normal -0.0106058223 -0.998885036 0.046002727
  outer loop
  vertex 0.0257441178 0.0143886665 -0.00112078572
  vertex 0.0453312658 0.0141806193 -0.00112247979
  vertex 0.0453312658 0.0142370053 0.000101872662
  endloop
 endfacet

 facet normal -0.0124710258 -0.997021079 0.076114729
  outer loop
  vertex 0.0257441178 0.0143886665 -0.00112078572
  vertex 0.0453312658 0.0142370053 0.000101872662
  vertex 0.0257441178 0.0144858854 0.000152675828
  endloop
 endfacet

 facet normal -0.0125126569 -0.927027106 -0.374785602
  outer loop
  vertex 0.0257441178 0.0147036556 -0.0147173656
  vertex 0.0257441178 0.014849483 -0.0150780678
  vertex 0.0453312658 0.0146083804 -0.015135644
  endloop
 endfacet

 facet normal -0.00766455941 -0.404255837 -0.914613843
  outer loop
  vertex 0.0453312658 0.0146083804 -0.015135644
  vertex 0.0257441178 0.014849483 -0.0150780678
  vertex 0.0257441178 0.0157575049 -0.0154794101
  endloop
 endfacet

 facet normal -0.00692585064 -0.393115103 -0.919463277
  outer loop
  vertex 0.0453312658 0.0146083804 -0.015135644
  vertex 0.0257441178 0.0157575049 -0.0154794101
  vertex 0.0453312658 0.0147153214 -0.0151813664
  endloop
 endfacet

 facet normal -0.0124703059 -0.997005641 0.0763162449
  outer loop
  vertex 0.0453312658 0.0142370053 0.000101872662
  vertex 0.0453312658 0.0142408945 0.000152675828
  vertex 0.0257441178 0.0144858854 0.000152675828
  endloop
 endfacet

 facet normal -0.0118902288 -0.950628281 0.310103953
  outer loop
  vertex 0.0257441178 0.0144858854 0.000152675828
  vertex 0.0453312658 0.0142408945 0.000152675828
  vertex 0.0453312658 0.014585048 0.0012076851
  endloop
 endfacet

 facet normal -0.0152423484 -0.928792596 0.370286524
  outer loop
  vertex 0.0257441178 0.0144858854 0.000152675828
  vertex 0.0453312658 0.014585048 0.0012076851
  vertex 0.0257441178 0.0149233695 0.00125002058
  endloop
 endfacet

 facet normal -0.0065953359 -0.387575686 -0.921814382
  outer loop
  vertex 0.0257441178 0.0157575049 -0.0154794101
  vertex 0.0257441178 0.0158702787 -0.0155268265
  vertex 0.0453312658 0.0147153214 -0.0151813664
  endloop
 endfacet

 facet normal -0.00531303976 -0.368197322 -0.929732502
  outer loop
  vertex 0.0453312658 0.0147153214 -0.0151813664
  vertex 0.0257441178 0.0158702787 -0.0155268265
  vertex 0.0453312658 0.0157886147 -0.0156064173
  endloop
 endfacet

 facet normal -0.0146376705 -0.901558399 0.432409704
  outer loop
  vertex 0.0453312658 0.014585048 0.0012076851
  vertex 0.0453312658 0.0146492133 0.00134146656
  vertex 0.0257441178 0.0149233695 0.00125002058
  endloop
 endfacet

 facet normal -0.00863579568 -0.298669249 0.95431757
  outer loop
  vertex 0.0257441178 0.0149233695 0.00125002058
  vertex 0.0453312658 0.0146492133 0.00134146656
  vertex 0.0257441178 0.0158702787 0.00154637138
  endloop
 endfacet

 facet normal -0.00466903951 -0.037149325 -0.999298811
  outer loop
  vertex 0.0257441178 0.0158702787 -0.0155268265
  vertex 0.0257441178 0.0171457864 -0.0155742439
  vertex 0.0453312658 0.0158683341 -0.0156182712
  endloop
 endfacet

 facet normal -0.00463240873 -0.147071689 -0.98911494
  outer loop
  vertex 0.0257441178 0.0158702787 -0.0155268265
  vertex 0.0453312658 0.0158683341 -0.0156182712
  vertex 0.0453312658 0.0157886147 -0.0156064173
  endloop
 endfacet

 facet normal -0.00447722152 -0.234929085 0.972002208
  outer loop
  vertex 0.0453312658 0.0146492133 0.00134146656
  vertex 0.0453312658 0.0158683341 0.00163612328
  vertex 0.0257441178 0.0158702787 0.00154637138
  endloop
 endfacet

 facet normal -0.00458260113 -0.00531085348 0.999975502
  outer loop
  vertex 0.0257441178 0.0158702787 0.00154637138
  vertex 0.0453312658 0.0158683341 0.00163612328
  vertex 0.0257441178 0.0171457864 0.00155314559
  endloop
 endfacet

 facet normal -0.00423735566 -0.0305225234 -0.999525189
  outer loop
  vertex 0.0257441178 0.0171457864 -0.0155742439
  vertex 0.0453312658 0.0171438418 -0.0156572219
  vertex 0.0453312658 0.0158683341 -0.0156182712
  endloop
 endfacet

 facet normal -0.00423629908 0 -0.999991059
  outer loop
  vertex 0.0257441178 0.0171457864 -0.0155742439
  vertex 0.0257441178 0.0286175832 -0.0155742439
  vertex 0.0453312658 0.0311705433 -0.0156572219
  endloop
 endfacet

 facet normal -0.00423629908 0 -0.999991059
  outer loop
  vertex 0.0257441178 0.0171457864 -0.0155742439
  vertex 0.0453312658 0.0311705433 -0.0156572219
  vertex 0.0453312658 0.0171438418 -0.0156572219
  endloop
 endfacet

 facet normal -0.00452953484 -0.00449690968 0.999979675
  outer loop
  vertex 0.0453312658 0.0158683341 0.00163612328
  vertex 0.0453312658 0.0169980153 0.00164120353
  vertex 0.0257441178 0.0171457864 0.00155314559
  endloop
 endfacet

 facet normal -0.00449565472 0 0.999989927
  outer loop
  vertex 0.0257441178 0.0171457864 0.00155314559
  vertex 0.0453312658 0.0169980153 0.00164120353
  vertex 0.0453312658 0.0311705433 0.00164120353
  endloop
 endfacet

 facet normal -0.00449565472 0 0.999989927
  outer loop
  vertex 0.0257441178 0.0171457864 0.00155314559
  vertex 0.0453312658 0.0311705433 0.00164120353
  vertex 0.0257441178 0.0298930909 0.00155314559
  endloop
 endfacet

 facet normal -0.00458228821 0.00265470752 -0.999985933
  outer loop
  vertex 0.0257441178 0.0286175832 -0.0155742439
  vertex 0.0257441178 0.0298930909 -0.0155708576
  vertex 0.0453312658 0.0311705433 -0.0156572219
  endloop
 endfacet

 facet normal -0.00475616008 0.00399496499 0.999980688
  outer loop
  vertex 0.0257441178 0.0298930909 0.00155314559
  vertex 0.0453312658 0.0311705433 0.00164120353
  vertex 0.0453312658 0.0324421637 0.00163612328
  endloop
 endfacet

 facet normal -0.00492338371 0.00528013473 0.999973953
  outer loop
  vertex 0.0257441178 0.0298930909 0.00155314559
  vertex 0.0453312658 0.0324421637 0.00163612328
  vertex 0.0257441178 0.0302139129 0.00155145151
  endloop
 endfacet

 facet normal -0.00510161184 0.0106212227 -0.99993068
  outer loop
  vertex 0.0453312658 0.0311705433 -0.0156572219
  vertex 0.0257441178 0.0298930909 -0.0155708576
  vertex 0.0257441178 0.0311686005 -0.0155573087
  endloop
 endfacet

 facet normal -0.00510179903 0.0173002165 -0.999837339
  outer loop
  vertex 0.0453312658 0.0311705433 -0.0156572219
  vertex 0.0257441178 0.0311686005 -0.0155573087
  vertex 0.0453312658 0.0323449448 -0.0156369004
  endloop
 endfacet

 facet normal -0.0144055095 0.234879956 0.971917748
  outer loop
  vertex 0.0453312658 0.0324421637 0.00163612328
  vertex 0.0257441178 0.0327474289 0.0012720353
  vertex 0.0257441178 0.0316683017 0.0015328239
  endloop
 endfacet

 facet normal -0.00577928638 0.0128065934 0.999901295
  outer loop
  vertex 0.0453312658 0.0324421637 0.00163612328
  vertex 0.0257441178 0.0316683017 0.0015328239
  vertex 0.0257441178 0.0302139129 0.00155145151
  endloop
 endfacet

 facet normal -0.0142774684 0.241238743 0.970360875
  outer loop
  vertex 0.0453312658 0.0324421637 0.00163612328
  vertex 0.0453312658 0.0334843472 0.00137702876
  vertex 0.0257441178 0.0327474289 0.0012720353
  endloop
 endfacet

 facet normal -0.00947349053 0.0847588852 -0.996356547
  outer loop
  vertex 0.0257441178 0.0311686005 -0.0155573087
  vertex 0.0257441178 0.0324227214 -0.0154506229
  vertex 0.0453312658 0.0324421637 -0.0156352054
  endloop
 endfacet

 facet normal -0.00510968966 0.0174317695 -0.999835014
  outer loop
  vertex 0.0257441178 0.0311686005 -0.0155573087
  vertex 0.0453312658 0.0324421637 -0.0156352054
  vertex 0.0453312658 0.0323449448 -0.0156369004
  endloop
 endfacet

 facet normal -0.0144860949 0.24699077 0.968909621
  outer loop
  vertex 0.0257441178 0.0327474289 0.0012720353
  vertex 0.0453312658 0.0334843472 0.00137702876
  vertex 0.0453312658 0.0336437859 0.00133638538
  endloop
 endfacet

 facet normal -0.0218095463 0.411158144 0.911303043
  outer loop
  vertex 0.0257441178 0.0327474289 0.0012720353
  vertex 0.0453312658 0.0336437859 0.00133638538
  vertex 0.0257441178 0.0333404653 0.00100447249
  endloop
 endfacet

 facet normal -0.0192908049 0.480732054 -0.87665534
  outer loop
  vertex 0.0257441178 0.0324227214 -0.0154506229
  vertex 0.0257441178 0.0334201828 -0.0149036432
  vertex 0.0265934821 0.0334357359 -0.0149138039
  endloop
 endfacet

 facet normal -0.0174015723 0.47952044 -0.877358139
  outer loop
  vertex 0.0257441178 0.0324227214 -0.0154506229
  vertex 0.0265934821 0.0334357359 -0.0149138039
  vertex 0.0453312658 0.0336943381 -0.0151441116
  endloop
 endfacet

 facet normal -0.00913515501 0.365101427 -0.930922925
  outer loop
  vertex 0.0257441178 0.0324227214 -0.0154506229
  vertex 0.0453312658 0.0336943381 -0.0151441116
  vertex 0.0453312658 0.0324421637 -0.0156352054
  endloop
 endfacet

 facet normal -0.0204880517 0.929366052 0.368590713
  outer loop
  vertex 0.0453312658 0.0336437859 0.00133638538
  vertex 0.0265934821 0.0337001719 0.000152675828
  vertex 0.0257441178 0.0334571265 0.000718282477
  endloop
 endfacet

 facet normal -0.0207322501 0.925817966 0.377400637
  outer loop
  vertex 0.0453312658 0.0336437859 0.00133638538
  vertex 0.0257441178 0.0334571265 0.000718282477
  vertex 0.0257441178 0.0333404653 0.00100447249
  endloop
 endfacet

 facet normal -0.0153019149 0.957556725 0.287838519
  outer loop
  vertex 0.0453312658 0.0336437859 0.00133638538
  vertex 0.0453312658 0.033999607 0.000152675828
  vertex 0.0265934821 0.0337001719 0.000152675828
  endloop
 endfacet

 facet normal -0.0369804427 0.950206697 -0.309418261
  outer loop
  vertex 0.0257441178 0.0334201828 -0.0149036432
  vertex 0.0257441178 0.0337565579 -0.013870649
  vertex 0.0265934821 0.0337896161 -0.013870649
  endloop
 endfacet

 facet normal -0.0211811513 0.946780086 -0.321183503
  outer loop
  vertex 0.0257441178 0.0334201828 -0.0149036432
  vertex 0.0265934821 0.0337896161 -0.013870649
  vertex 0.0265934821 0.0334357359 -0.0149138039
  endloop
 endfacet

 facet normal -0.0170156248 0.946855485 -0.321209103
  outer loop
  vertex 0.0265934821 0.0334357359 -0.0149138039
  vertex 0.0265934821 0.0337896161 -0.013870649
  vertex 0.0453312658 0.0336943381 -0.0151441116
  endloop
 endfacet

 facet normal -0.0165864006 0.948930621 -0.315048695
  outer loop
  vertex 0.0453312658 0.0336943381 -0.0151441116
  vertex 0.0265934821 0.0337896161 -0.013870649
  vertex 0.0453312658 0.0337410048 -0.0150035555
  endloop
 endfacet

 facet normal -0.0255980399 0.931835115 0.361978024
  outer loop
  vertex 0.0265934821 0.0337001719 0.000152675828
  vertex 0.0257441178 0.0336768404 0.000152675828
  vertex 0.0257441178 0.0334571265 0.000718282477
  endloop
 endfacet

 facet normal -0.0159388706 0.9974159 0.070054017
  outer loop
  vertex 0.0265934821 0.0337001719 0.000152675828
  vertex 0.0453312658 0.033999607 0.000152675828
  vertex 0.0265934821 0.0337896161 -0.00112078572
  endloop
 endfacet

 facet normal -0.0273927785 0.997168243 0.0700366348
  outer loop
  vertex 0.0265934821 0.0337001719 0.000152675828
  vertex 0.0265934821 0.0337896161 -0.00112078572
  vertex 0.0257441178 0.0336768404 0.000152675828
  endloop
 endfacet

 facet normal -0.013272061 0.999447405 0.0304794367
  outer loop
  vertex 0.0453312658 0.033999607 0.000152675828
  vertex 0.0453312658 0.0340384915 -0.00112247979
  vertex 0.0265934821 0.0337896161 -0.00112078572
  endloop
 endfacet

 facet normal -0.0388888791 0.999243617 0
  outer loop
  vertex 0.0257441178 0.0337565579 -0.013870649
  vertex 0.0257441178 0.0337565579 -0.00112078572
  vertex 0.0265934821 0.0337896161 -0.00112078572
  endloop
 endfacet

 facet normal -0.0388888791 0.999243617 0
  outer loop
  vertex 0.0257441178 0.0337565579 -0.013870649
  vertex 0.0265934821 0.0337896161 -0.00112078572
  vertex 0.0265934821 0.0337896161 -0.013870649
  endloop
 endfacet

 facet normal -0.0135922274 0.999907613 0
  outer loop
  vertex 0.0265934821 0.0337896161 -0.013870649
  vertex 0.0265934821 0.0337896161 -0.00112078572
  vertex 0.0453312658 0.0340443254 -0.0137080802
  endloop
 endfacet

 facet normal -0.0133786034 0.999618411 -0.0241692718
  outer loop
  vertex 0.0265934821 0.0337896161 -0.013870649
  vertex 0.0453312658 0.0340443254 -0.0137080802
  vertex 0.0453312658 0.0340404361 -0.013868954
  endloop
 endfacet

 facet normal -0.0129186017 0.966814637 -0.255152285
  outer loop
  vertex 0.0265934821 0.0337896161 -0.013870649
  vertex 0.0453312658 0.0340404361 -0.013868954
  vertex 0.0453312658 0.0337410048 -0.0150035555
  endloop
 endfacet

 facet normal -0.0302200541 0.99721688 0.0681552142
  outer loop
  vertex 0.0257441178 0.0336768404 0.000152675828
  vertex 0.0265934821 0.0337896161 -0.00112078572
  vertex 0.0257441178 0.0337060057 -0.000274069724
  endloop
 endfacet

 facet normal -0.0132809393 0.999911666 0.000463473029
  outer loop
  vertex 0.0265934821 0.0337896161 -0.00112078572
  vertex 0.0453312658 0.0340384915 -0.00112247979
  vertex 0.0453312658 0.0340443254 -0.0137080802
  endloop
 endfacet

 facet normal -0.0388198458 0.997470021 0.0595535189
  outer loop
  vertex 0.0265934821 0.0337896161 -0.00112078572
  vertex 0.0257441178 0.0337565579 -0.00112078572
  vertex 0.0257441178 0.0337060057 -0.000274069724
  endloop
 endfacet

endsolid AssimpScene
