solid AssimpScene
 facet normal 0.653133273 0 -0.757242978
  outer loop
  vertex 0.014375289 -0.00900529325 0.0194172766
  vertex 0.014375289 -0.00836197753 0.0194172766
  vertex 0.0148256011 -0.00623443071 0.0198056772
  endloop
 endfacet

 facet normal 0.653133273 0 -0.757242978
  outer loop
  vertex 0.014375289 -0.00900529325 0.0194172766
  vertex 0.0148256011 -0.00623443071 0.0198056772
  vertex 0.0148256011 -0.0118415272 0.0198056772
  endloop
 endfacet

 facet normal 0.639653862 -0.00370282098 -0.768654227
  outer loop
  vertex 0.014375289 -0.00900529325 0.0194172766
  vertex 0.0148256011 -0.0118415272 0.0198056772
  vertex 0.014375289 -0.00963523611 0.0194203109
  endloop
 endfacet

 facet normal -0.0240846649 -0.00481582526 -0.999698341
  outer loop
  vertex 0.014375289 -0.00900529325 0.0194172766
  vertex 0.014375289 -0.00963523611 0.0194203109
  vertex -0.00103632419 -0.0122411847 0.019804161
  endloop
 endfacet

 facet normal -0.0250954852 0 -0.999685168
  outer loop
  vertex 0.014375289 -0.00900529325 0.0194172766
  vertex -0.00103632419 -0.0122411847 0.019804161
  vertex -0.00103632419 -0.00572185824 0.019804161
  endloop
 endfacet

 facet normal -0.0250954852 0 -0.999685168
  outer loop
  vertex 0.014375289 -0.00900529325 0.0194172766
  vertex -0.00103632419 -0.00572185824 0.019804161
  vertex 0.014375289 -0.00836197753 0.0194172766
  endloop
 endfacet

 facet normal 0.148384184 0.147121489 -0.977925062
  outer loop
  vertex 0.014375289 -0.00836197753 0.0194172766
  vertex 0.014375289 -0.00802917685 0.0194673445
  vertex 0.0148256011 -0.00623443071 0.0198056772
  endloop
 endfacet

 facet normal 0.000661044498 0.148768336 -0.988871813
  outer loop
  vertex 0.014375289 -0.00836197753 0.0194172766
  vertex -0.00103632419 -0.00572185824 0.019804161
  vertex 0.014375289 -0.00802917685 0.0194673445
  endloop
 endfacet

 facet normal 0.0423037261 -0.163523123 -0.985632122
  outer loop
  vertex 0.0148256011 -0.0118415272 0.0198056772
  vertex 0.014375289 -0.0106960377 0.0195963066
  vertex 0.014375289 -0.00963523611 0.0194203109
  endloop
 endfacet

 facet normal 1 0 0
  outer loop
  vertex 0.0148256011 -0.0118415272 0.0198056772
  vertex 0.0148256011 -0.00623443071 0.0198056772
  vertex 0.0148256011 -0.00581248617 0.0199816711
  endloop
 endfacet

 facet normal 1 0 0
  outer loop
  vertex 0.0148256011 -0.0118415272 0.0198056772
  vertex 0.0148256011 -0.00581248617 0.0199816711
  vertex 0.0148256011 -0.00458082696 0.0206310283
  endloop
 endfacet

 facet normal 1 0 0
  outer loop
  vertex 0.0148256011 -0.0118415272 0.0198056772
  vertex 0.0148256011 -0.00458082696 0.0206310283
  vertex 0.0148256011 -0.00453328388 0.0206704773
  endloop
 endfacet

 facet normal 1 0 0
  outer loop
  vertex 0.0148256011 -0.0118415272 0.0198056772
  vertex 0.0148256011 -0.00453328388 0.0206704773
  vertex 0.0148256011 -0.00328528252 0.0218463
  endloop
 endfacet

 facet normal 1 0 0
  outer loop
  vertex 0.0148256011 -0.0118415272 0.0198056772
  vertex 0.0148256011 -0.00328528252 0.0218463
  vertex 0.0148256011 -0.00212790724 0.0232330132
  endloop
 endfacet

 facet normal 1 0 0
  outer loop
  vertex 0.0148256011 -0.0118415272 0.0198056772
  vertex 0.0148256011 -0.00212790724 0.0232330132
  vertex 0.0148256011 -0.00209522201 0.0233119056
  endloop
 endfacet

 facet normal 1 0 0
  outer loop
  vertex 0.0148256011 -0.0118415272 0.0198056772
  vertex 0.0148256011 -0.00209522201 0.0233119056
  vertex 0.0148256011 -0.00179659296 0.0243860763
  endloop
 endfacet

 facet normal 1 0 0
  outer loop
  vertex 0.0148256011 -0.0118415272 0.0198056772
  vertex 0.0148256011 -0.00179659296 0.0243860763
  vertex 0.0148256011 -0.00178619311 0.0244270414
  endloop
 endfacet

 facet normal 1 0 0
  outer loop
  vertex 0.0148256011 -0.0118415272 0.0198056772
  vertex 0.0148256011 -0.00178619311 0.0244270414
  vertex 0.0148256011 -0.00150242168 0.0256605167
  endloop
 endfacet

 facet normal 1 0 0
  outer loop
  vertex 0.0148256011 -0.0118415272 0.0198056772
  vertex 0.0148256011 -0.00150242168 0.0256605167
  vertex 0.0148256011 -0.00136722077 0.0269364771
  endloop
 endfacet

 facet normal 1 0 0
  outer loop
  vertex 0.0148256011 -0.0118415272 0.0198056772
  vertex 0.0148256011 -0.00136722077 0.0269364771
  vertex 0.0148256011 -0.00138950627 0.027200466
  endloop
 endfacet

 facet normal 1 0 0
  outer loop
  vertex 0.0148256011 -0.0118415272 0.0198056772
  vertex 0.0148256011 -0.00138950627 0.027200466
  vertex 0.0148256011 -0.00150836364 0.0282078832
  endloop
 endfacet

 facet normal 1 0 0
  outer loop
  vertex 0.0148256011 -0.0118415272 0.0198056772
  vertex 0.0148256011 -0.00150836364 0.0282078832
  vertex 0.0148256011 -0.00152767904 0.0283383615
  endloop
 endfacet

 facet normal 1 0 0
  outer loop
  vertex 0.0148256011 -0.0118415272 0.0198056772
  vertex 0.0148256011 -0.00152767904 0.0283383615
  vertex 0.0148256011 -0.0018040227 0.0294808056
  endloop
 endfacet

 facet normal 1 0 0
  outer loop
  vertex 0.0148256011 -0.0118415272 0.0198056772
  vertex 0.0148256011 -0.0018040227 0.0294808056
  vertex 0.0148256011 -0.00213236525 0.0306293201
  endloop
 endfacet

 facet normal 1 0 0
  outer loop
  vertex 0.0148256011 -0.0118415272 0.0198056772
  vertex 0.0148256011 -0.00213236525 0.0306293201
  vertex 0.0148256011 -0.00217842218 0.0306975916
  endloop
 endfacet

 facet normal 1 0 0
  outer loop
  vertex 0.0148256011 -0.0118415272 0.0198056772
  vertex 0.0148256011 -0.00217842218 0.0306975916
  vertex 0.0148256011 -0.00264939526 0.031286262
  endloop
 endfacet

 facet normal 1 0 0
  outer loop
  vertex 0.0148256011 -0.0118415272 0.0198056772
  vertex 0.0148256011 -0.00264939526 0.031286262
  vertex 0.0148256011 -0.00329271052 0.0320145153
  endloop
 endfacet

 facet normal 1 0 0
  outer loop
  vertex 0.0148256011 -0.0118415272 0.0198056772
  vertex 0.0148256011 -0.00329271052 0.0320145153
  vertex 0.0148256011 -0.00390185439 0.032695733
  endloop
 endfacet

 facet normal 1 0 0
  outer loop
  vertex 0.0148256011 -0.0118415272 0.0198056772
  vertex 0.0148256011 -0.00390185439 0.032695733
  vertex 0.0148256011 -0.00459122658 0.0332267508
  endloop
 endfacet

 facet normal 1 0 0
  outer loop
  vertex 0.0148256011 -0.0118415272 0.0198056772
  vertex 0.0148256011 -0.00459122658 0.0332267508
  vertex 0.0148256011 -0.00466402667 0.0332677141
  endloop
 endfacet

 facet normal 1 0 0
  outer loop
  vertex 0.0148256011 -0.0118415272 0.0198056772
  vertex 0.0148256011 -0.00466402667 0.0332677141
  vertex 0.0148256011 -0.00563122844 0.0337926596
  endloop
 endfacet

 facet normal 1 0 0
  outer loop
  vertex 0.0148256011 -0.0118415272 0.0198056772
  vertex 0.0148256011 -0.00563122844 0.0337926596
  vertex 0.0148256011 -0.00633100234 0.0341628566
  endloop
 endfacet

 facet normal 1 0 0
  outer loop
  vertex 0.0148256011 -0.0118415272 0.0198056772
  vertex 0.0148256011 -0.00633100234 0.0341628566
  vertex 0.0148256011 -0.00713328971 0.0344753973
  endloop
 endfacet

 facet normal 1 0 0
  outer loop
  vertex 0.0148256011 -0.0118415272 0.0198056772
  vertex 0.0148256011 -0.00713328971 0.0344753973
  vertex 0.0148256011 -0.00836197753 0.0346771851
  endloop
 endfacet

 facet normal 1 0 0
  outer loop
  vertex 0.0148256011 -0.0118415272 0.0198056772
  vertex 0.0148256011 -0.00836197753 0.0346771851
  vertex 0.0148256011 -0.00845409185 0.0346771851
  endloop
 endfacet

 facet normal 1 0 0
  outer loop
  vertex 0.0148256011 -0.0118415272 0.0198056772
  vertex 0.0148256011 -0.00845409185 0.0346771851
  vertex 0.0148256011 -0.00963375065 0.0346392542
  endloop
 endfacet

 facet normal 1 0 0
  outer loop
  vertex 0.0148256011 -0.0118415272 0.0198056772
  vertex 0.0148256011 -0.00963375065 0.0346392542
  vertex 0.0148256011 -0.00972289406 0.0346240811
  endloop
 endfacet

 facet normal 1 0 0
  outer loop
  vertex 0.0148256011 -0.0118415272 0.0198056772
  vertex 0.0148256011 -0.00972289406 0.0346240811
  vertex 0.0148256011 -0.0107257534 0.0343858823
  endloop
 endfacet

 facet normal 1 0 0
  outer loop
  vertex 0.0148256011 -0.0118415272 0.0198056772
  vertex 0.0148256011 -0.0107257534 0.0343858823
  vertex 0.0148256011 -0.0108862119 0.034332782
  endloop
 endfacet

 facet normal 1 0 0
  outer loop
  vertex 0.0148256011 -0.0118415272 0.0198056772
  vertex 0.0148256011 -0.0108862119 0.034332782
  vertex 0.0148256011 -0.0122708995 0.033610601
  endloop
 endfacet

 facet normal 1 0 0
  outer loop
  vertex 0.0148256011 -0.0118415272 0.0198056772
  vertex 0.0148256011 -0.0122708995 0.033610601
  vertex 0.0148256011 -0.0124476999 0.0335104652
  endloop
 endfacet

 facet normal 1 0 0
  outer loop
  vertex 0.0148256011 -0.0118415272 0.0198056772
  vertex 0.0148256011 -0.0124476999 0.0335104652
  vertex 0.0148256011 -0.0133242728 0.032988552
  endloop
 endfacet

 facet normal 1 0 0
  outer loop
  vertex 0.0148256011 -0.0118415272 0.0198056772
  vertex 0.0148256011 -0.0133242728 0.032988552
  vertex 0.0148256011 -0.0134862158 0.0328550376
  endloop
 endfacet

 facet normal 1 0 0
  outer loop
  vertex 0.0148256011 -0.0118415272 0.0198056772
  vertex 0.0148256011 -0.0134862158 0.0328550376
  vertex 0.0148256011 -0.0145841604 0.0319098309
  endloop
 endfacet

 facet normal 1 0 0
  outer loop
  vertex 0.0148256011 -0.0118415272 0.0198056772
  vertex 0.0148256011 -0.0145841604 0.0319098309
  vertex 0.0148256011 -0.0157771911 0.0305398051
  endloop
 endfacet

 facet normal 1 0 0
  outer loop
  vertex 0.0148256011 -0.0118415272 0.0198056772
  vertex 0.0148256011 -0.0157771911 0.0305398051
  vertex 0.0148256011 -0.0158499908 0.0303562246
  endloop
 endfacet

 facet normal 1 0 0
  outer loop
  vertex 0.0148256011 -0.0118415272 0.0198056772
  vertex 0.0148256011 -0.0158499908 0.0303562246
  vertex 0.0148256011 -0.016151594 0.0294808056
  endloop
 endfacet

 facet normal 1 0 0
  outer loop
  vertex 0.0148256011 -0.0118415272 0.0198056772
  vertex 0.0148256011 -0.016151594 0.0294808056
  vertex 0.0148256011 -0.0161694214 0.0294186007
  endloop
 endfacet

 facet normal 1 0 0
  outer loop
  vertex 0.0148256011 -0.0118415272 0.0198056772
  vertex 0.0148256011 -0.0161694214 0.0294186007
  vertex 0.0148256011 -0.016404165 0.0282078832
  endloop
 endfacet

 facet normal 1 0 0
  outer loop
  vertex 0.0148256011 -0.0118415272 0.0198056772
  vertex 0.0148256011 -0.016404165 0.0282078832
  vertex 0.0148256011 -0.0165453069 0.0269364771
  endloop
 endfacet

 facet normal 1 0 0
  outer loop
  vertex 0.0148256011 -0.0118415272 0.0198056772
  vertex 0.0148256011 -0.0165453069 0.0269364771
  vertex 0.0148256011 -0.0165334195 0.0267453082
  endloop
 endfacet

 facet normal 1 0 0
  outer loop
  vertex 0.0148256011 -0.0118415272 0.0198056772
  vertex 0.0148256011 -0.0165334195 0.0267453082
  vertex 0.0148256011 -0.0164115932 0.0256605167
  endloop
 endfacet

 facet normal 1 0 0
  outer loop
  vertex 0.0148256011 -0.0118415272 0.0198056772
  vertex 0.0148256011 -0.0164115932 0.0256605167
  vertex 0.0148256011 -0.0164026786 0.0255892109
  endloop
 endfacet

 facet normal 1 0 0
  outer loop
  vertex 0.0148256011 -0.0118415272 0.0198056772
  vertex 0.0148256011 -0.0164026786 0.0255892109
  vertex 0.0148256011 -0.0161634777 0.0243860763
  endloop
 endfacet

 facet normal 1 0 0
  outer loop
  vertex 0.0148256011 -0.0118415272 0.0198056772
  vertex 0.0148256011 -0.0161634777 0.0243860763
  vertex 0.0148256011 -0.0158514772 0.0232572872
  endloop
 endfacet

 facet normal 1 0 0
  outer loop
  vertex 0.0148256011 -0.0118415272 0.0198056772
  vertex 0.0148256011 -0.0158514772 0.0232572872
  vertex 0.0148256011 -0.015803935 0.0231844634
  endloop
 endfacet

 facet normal 1 0 0
  outer loop
  vertex 0.0148256011 -0.0118415272 0.0198056772
  vertex 0.0148256011 -0.015803935 0.0231844634
  vertex 0.0148256011 -0.0153240468 0.0226139985
  endloop
 endfacet

 facet normal 1 0 0
  outer loop
  vertex 0.0148256011 -0.0118415272 0.0198056772
  vertex 0.0148256011 -0.0153240468 0.0226139985
  vertex 0.0148256011 -0.0146926176 0.0218660235
  endloop
 endfacet

 facet normal 1 0 0
  outer loop
  vertex 0.0148256011 -0.0118415272 0.0198056772
  vertex 0.0148256011 -0.0146926176 0.0218660235
  vertex 0.0148256011 -0.0140805021 0.0211908724
  endloop
 endfacet

 facet normal 1 0 0
  outer loop
  vertex 0.0148256011 -0.0118415272 0.0198056772
  vertex 0.0148256011 -0.0140805021 0.0211908724
  vertex 0.0148256011 -0.0133985579 0.0206446834
  endloop
 endfacet

 facet normal 1 0 0
  outer loop
  vertex 0.0148256011 -0.0118415272 0.0198056772
  vertex 0.0148256011 -0.0133985579 0.0206446834
  vertex 0.0148256011 -0.0133242728 0.0206022039
  endloop
 endfacet

 facet normal 1 0 0
  outer loop
  vertex 0.0148256011 -0.0118415272 0.0198056772
  vertex 0.0148256011 -0.0133242728 0.0206022039
  vertex 0.0148256011 -0.0123704411 0.0200727042
  endloop
 endfacet

 facet normal 0.0114399455 -0.450649559 -0.892627656
  outer loop
  vertex 0.0148256011 -0.0118415272 0.0198056772
  vertex 0.0148256011 -0.0123704411 0.0200727042
  vertex -0.00103632419 -0.0122411847 0.019804161
  endloop
 endfacet

 facet normal 0.00458043208 -0.1780563 -0.984009683
  outer loop
  vertex 0.0148256011 -0.0118415272 0.0198056772
  vertex -0.00103632419 -0.0122411847 0.019804161
  vertex 0.014375289 -0.0106960377 0.0195963066
  endloop
 endfacet

 facet normal 0.0031042411 -0.163668871 -0.986510575
  outer loop
  vertex 0.014375289 -0.00963523611 0.0194203109
  vertex 0.014375289 -0.0106960377 0.0195963066
  vertex -0.00103632419 -0.0122411847 0.019804161
  endloop
 endfacet

 facet normal -1 0 0
  outer loop
  vertex -0.00103632419 -0.0122411847 0.019804161
  vertex -0.00103632419 -0.0134386728 0.0205839965
  vertex -0.00103632419 -0.0134743303 0.0206143409
  endloop
 endfacet

 facet normal -1 0 0
  outer loop
  vertex -0.00103632419 -0.0122411847 0.019804161
  vertex -0.00103632419 -0.0134743303 0.0206143409
  vertex -0.00103632419 -0.014720845 0.0218493342
  endloop
 endfacet

 facet normal -1 0 0
  outer loop
  vertex -0.00103632419 -0.0122411847 0.019804161
  vertex -0.00103632419 -0.014720845 0.0218493342
  vertex -0.00103632419 -0.0159614179 0.0231556352
  endloop
 endfacet

 facet normal -1 0 0
  outer loop
  vertex -0.00103632419 -0.0122411847 0.019804161
  vertex -0.00103632419 -0.0159614179 0.0231556352
  vertex -0.00103632419 -0.0159807354 0.0231996346
  endloop
 endfacet

 facet normal -1 0 0
  outer loop
  vertex -0.00103632419 -0.0122411847 0.019804161
  vertex -0.00103632419 -0.0159807354 0.0231996346
  vertex -0.00103632419 -0.0163328499 0.0243860763
  endloop
 endfacet

 facet normal -1 0 0
  outer loop
  vertex -0.00103632419 -0.0122411847 0.019804161
  vertex -0.00103632419 -0.0163328499 0.0243860763
  vertex -0.00103632419 -0.0163343363 0.0243936647
  endloop
 endfacet

 facet normal -1 0 0
  outer loop
  vertex -0.00103632419 -0.0122411847 0.019804161
  vertex -0.00103632419 -0.0163343363 0.0243936647
  vertex -0.00103632419 -0.0164086223 0.0256605167
  endloop
 endfacet

 facet normal -1 0 0
  outer loop
  vertex -0.00103632419 -0.0122411847 0.019804161
  vertex -0.00103632419 -0.0164086223 0.0256605167
  vertex -0.00103632419 -0.0164219923 0.0269364771
  endloop
 endfacet

 facet normal -1 0 0
  outer loop
  vertex -0.00103632419 -0.0122411847 0.019804161
  vertex -0.00103632419 -0.0164219923 0.0269364771
  vertex -0.00103632419 -0.0164071359 0.0282078832
  endloop
 endfacet

 facet normal -1 0 0
  outer loop
  vertex -0.00103632419 -0.0122411847 0.019804161
  vertex -0.00103632419 -0.0164071359 0.0282078832
  vertex -0.00103632419 -0.0163046215 0.0294838399
  endloop
 endfacet

 facet normal -1 0 0
  outer loop
  vertex -0.00103632419 -0.0122411847 0.019804161
  vertex -0.00103632419 -0.0163046215 0.0294838399
  vertex -0.00103632419 -0.0158440471 0.0305989757
  endloop
 endfacet

 facet normal -1 0 0
  outer loop
  vertex -0.00103632419 -0.0122411847 0.019804161
  vertex -0.00103632419 -0.0158440471 0.0305989757
  vertex -0.00103632419 -0.0156835914 0.0308068302
  endloop
 endfacet

 facet normal -1 0 0
  outer loop
  vertex -0.00103632419 -0.0122411847 0.019804161
  vertex -0.00103632419 -0.0156835914 0.0308068302
  vertex -0.00103632419 -0.0145960459 0.0319083109
  endloop
 endfacet

 facet normal -1 0 0
  outer loop
  vertex -0.00103632419 -0.0122411847 0.019804161
  vertex -0.00103632419 -0.0145960459 0.0319083109
  vertex -0.00103632419 -0.0143657597 0.0321237519
  endloop
 endfacet

 facet normal -1 0 0
  outer loop
  vertex -0.00103632419 -0.0122411847 0.019804161
  vertex -0.00103632419 -0.0143657597 0.0321237519
  vertex -0.00103632419 -0.0132306712 0.0330886878
  endloop
 endfacet

 facet normal -1 0 0
  outer loop
  vertex -0.00103632419 -0.0122411847 0.019804161
  vertex -0.00103632419 -0.0132306712 0.0330886878
  vertex -0.00103632419 -0.0107807238 0.0344374664
  endloop
 endfacet

 facet normal -1 0 0
  outer loop
  vertex -0.00103632419 -0.0122411847 0.019804161
  vertex -0.00103632419 -0.0107807238 0.0344374664
  vertex -0.00103632419 -0.00963375065 0.0348304212
  endloop
 endfacet

 facet normal -1 0 0
  outer loop
  vertex -0.00103632419 -0.0122411847 0.019804161
  vertex -0.00103632419 -0.00963375065 0.0348304212
  vertex -0.00103632419 -0.00836197753 0.0349153839
  endloop
 endfacet

 facet normal -1 0 0
  outer loop
  vertex -0.00103632419 -0.0122411847 0.019804161
  vertex -0.00103632419 -0.00836197753 0.0349153839
  vertex -0.00103632419 -0.00699808914 0.0346544273
  endloop
 endfacet

 facet normal -1 0 0
  outer loop
  vertex -0.00103632419 -0.0122411847 0.019804161
  vertex -0.00103632419 -0.00699808914 0.0346544273
  vertex -0.00103632419 -0.00684060249 0.0345816016
  endloop
 endfacet

 facet normal -1 0 0
  outer loop
  vertex -0.00103632419 -0.0122411847 0.019804161
  vertex -0.00103632419 -0.00684060249 0.0345816016
  vertex -0.00103632419 -0.00581100024 0.034076374
  endloop
 endfacet

 facet normal -1 0 0
  outer loop
  vertex -0.00103632419 -0.0122411847 0.019804161
  vertex -0.00103632419 -0.00581100024 0.034076374
  vertex -0.00103632419 -0.00455705542 0.0332859196
  endloop
 endfacet

 facet normal -1 0 0
  outer loop
  vertex -0.00103632419 -0.0122411847 0.019804161
  vertex -0.00103632419 -0.00455705542 0.0332859196
  vertex -0.00103632419 -0.00452139834 0.0332540572
  endloop
 endfacet

 facet normal -1 0 0
  outer loop
  vertex -0.00103632419 -0.0122411847 0.019804161
  vertex -0.00103632419 -0.00452139834 0.0332540572
  vertex -0.00103632419 -0.00327488082 0.0320220999
  endloop
 endfacet

 facet normal -1 0 0
  outer loop
  vertex -0.00103632419 -0.0122411847 0.019804161
  vertex -0.00103632419 -0.00327488082 0.0320220999
  vertex -0.00103632419 -0.00202984968 0.0307188332
  endloop
 endfacet

 facet normal -1 0 0
  outer loop
  vertex -0.00103632419 -0.0122411847 0.019804161
  vertex -0.00103632419 -0.00202984968 0.0307188332
  vertex -0.00103632419 -0.00201053591 0.0306733176
  endloop
 endfacet

 facet normal -1 0 0
  outer loop
  vertex -0.00103632419 -0.0122411847 0.019804161
  vertex -0.00103632419 -0.00201053591 0.0306733176
  vertex -0.00103632419 -0.00166287809 0.0294838399
  endloop
 endfacet

 facet normal -1 0 0
  outer loop
  vertex -0.00103632419 -0.0122411847 0.019804161
  vertex -0.00103632419 -0.00166287809 0.0294838399
  vertex -0.00103632419 -0.00165842206 0.0294625983
  endloop
 endfacet

 facet normal -1 0 0
  outer loop
  vertex -0.00103632419 -0.0122411847 0.019804161
  vertex -0.00103632419 -0.00165842206 0.0294625983
  vertex -0.00103632419 -0.00159602158 0.0281775389
  endloop
 endfacet

 facet normal -1 0 0
  outer loop
  vertex -0.00103632419 -0.0122411847 0.019804161
  vertex -0.00103632419 -0.00159602158 0.0281775389
  vertex -0.00103632419 -0.00158562174 0.0269364771
  endloop
 endfacet

 facet normal -1 0 0
  outer loop
  vertex -0.00103632419 -0.0122411847 0.019804161
  vertex -0.00103632419 -0.00158562174 0.0269364771
  vertex -0.00103632419 -0.00159602158 0.0256605167
  endloop
 endfacet

 facet normal -1 0 0
  outer loop
  vertex -0.00103632419 -0.0122411847 0.019804161
  vertex -0.00103632419 -0.00159602158 0.0256605167
  vertex -0.00103632419 -0.00165990798 0.0243860763
  endloop
 endfacet

 facet normal -1 0 0
  outer loop
  vertex -0.00103632419 -0.0122411847 0.019804161
  vertex -0.00103632419 -0.00165990798 0.0243860763
  vertex -0.00103632419 -0.00203133561 0.023154119
  endloop
 endfacet

 facet normal -1 0 0
  outer loop
  vertex -0.00103632419 -0.0122411847 0.019804161
  vertex -0.00103632419 -0.00203133561 0.023154119
  vertex -0.00103632419 -0.00206253678 0.0231116358
  endloop
 endfacet

 facet normal -1 0 0
  outer loop
  vertex -0.00103632419 -0.0122411847 0.019804161
  vertex -0.00103632419 -0.00206253678 0.0231116358
  vertex -0.00103632419 -0.00328231067 0.0218538847
  endloop
 endfacet

 facet normal -1 0 0
  outer loop
  vertex -0.00103632419 -0.0122411847 0.019804161
  vertex -0.00103632419 -0.00328231067 0.0218538847
  vertex -0.00103632419 -0.00456299912 0.0205946174
  endloop
 endfacet

 facet normal -1 0 0
  outer loop
  vertex -0.00103632419 -0.0122411847 0.019804161
  vertex -0.00103632419 -0.00456299912 0.0205946174
  vertex -0.00103632419 -0.00539351394 0.0199892577
  endloop
 endfacet

 facet normal -1 0 0
  outer loop
  vertex -0.00103632419 -0.0122411847 0.019804161
  vertex -0.00103632419 -0.00539351394 0.0199892577
  vertex -0.00103632419 -0.00572185824 0.019804161
  endloop
 endfacet

 facet normal 0.0108464556 -0.485328913 -0.874264359
  outer loop
  vertex -0.00103632419 -0.0122411847 0.019804161
  vertex 0.0148256011 -0.0123704411 0.0200727042
  vertex 0.0148256011 -0.0133242728 0.0206022039
  endloop
 endfacet

 facet normal 0.00977707189 -0.496402144 -0.868037641
  outer loop
  vertex -0.00103632419 -0.0122411847 0.019804161
  vertex 0.0148256011 -0.0133242728 0.0206022039
  vertex 0.0148256011 -0.0133985579 0.0206446834
  endloop
 endfacet

 facet normal 0.00458608847 -0.545705199 -0.837964714
  outer loop
  vertex -0.00103632419 -0.0122411847 0.019804161
  vertex 0.0148256011 -0.0133985579 0.0206446834
  vertex -0.00103632419 -0.0134386728 0.0205839965
  endloop
 endfacet

 facet normal 0.109715134 0.157480448 -0.981408477
  outer loop
  vertex 0.014375289 -0.00802917685 0.0194673445
  vertex 0.014375289 -0.00792517606 0.0194840319
  vertex 0.0148256011 -0.00623443071 0.0198056772
  endloop
 endfacet

 facet normal 0.00214139046 0.158436567 -0.987366855
  outer loop
  vertex 0.014375289 -0.00802917685 0.0194673445
  vertex -0.00103632419 -0.00572185824 0.019804161
  vertex 0.014375289 -0.00792517606 0.0194840319
  endloop
 endfacet

 facet normal 0.0983109623 0.160649985 -0.982103109
  outer loop
  vertex 0.0148256011 -0.00623443071 0.0198056772
  vertex 0.014375289 -0.00792517606 0.0194840319
  vertex 0.014375289 -0.0072759185 0.0195902362
  endloop
 endfacet

 facet normal 0.0065517663 0.199848861 -0.979804873
  outer loop
  vertex 0.0148256011 -0.00623443071 0.0198056772
  vertex 0.014375289 -0.0072759185 0.0195902362
  vertex -0.00103632419 -0.00572185824 0.019804161
  endloop
 endfacet

 facet normal 0.0125270383 0.384926617 -0.922862172
  outer loop
  vertex 0.0148256011 -0.00623443071 0.0198056772
  vertex -0.00103632419 -0.00572185824 0.019804161
  vertex 0.0148256011 -0.00581248617 0.0199816711
  endloop
 endfacet

 facet normal 0.0100845639 0.491049141 -0.871073484
  outer loop
  vertex -0.00103632419 -0.00572185824 0.019804161
  vertex -0.00103632419 -0.00539351394 0.0199892577
  vertex 0.0148256011 -0.00458082696 0.0206310283
  endloop
 endfacet

 facet normal 0.0125630721 0.466337174 -0.884517908
  outer loop
  vertex -0.00103632419 -0.00572185824 0.019804161
  vertex 0.0148256011 -0.00458082696 0.0206310283
  vertex 0.0148256011 -0.00581248617 0.0199816711
  endloop
 endfacet

 facet normal 0.00257965876 0.161431462 -0.986880541
  outer loop
  vertex -0.00103632419 -0.00572185824 0.019804161
  vertex 0.014375289 -0.0072759185 0.0195902362
  vertex 0.014375289 -0.00792517606 0.0194840319
  endloop
 endfacet

 facet normal 0.00456712721 -0.625131071 -0.780506551
  outer loop
  vertex -0.00103632419 -0.0134386728 0.0205839965
  vertex 0.0148256011 -0.0133985579 0.0206446834
  vertex 0.0148256011 -0.0140805021 0.0211908724
  endloop
 endfacet

 facet normal 0.00291421451 -0.648075581 -0.761570454
  outer loop
  vertex -0.00103632419 -0.0134386728 0.0205839965
  vertex 0.0148256011 -0.0140805021 0.0211908724
  vertex -0.00103632419 -0.0134743303 0.0206143409
  endloop
 endfacet

 facet normal 0.00251706364 0.589028001 -0.808108747
  outer loop
  vertex -0.00103632419 -0.00539351394 0.0199892577
  vertex -0.00103632419 -0.00456299912 0.0205946174
  vertex 0.0148256011 -0.00458082696 0.0206310283
  endloop
 endfacet

 facet normal 0.0024842727 0.638547301 -0.769578636
  outer loop
  vertex 0.0148256011 -0.00458082696 0.0206310283
  vertex -0.00103632419 -0.00456299912 0.0205946174
  vertex 0.0148256011 -0.00453328388 0.0206704773
  endloop
 endfacet

 facet normal -0.00107647269 -0.703815699 -0.710381925
  outer loop
  vertex -0.00103632419 -0.0134743303 0.0206143409
  vertex 0.0148256011 -0.0140805021 0.0211908724
  vertex -0.00103632419 -0.014720845 0.0218493342
  endloop
 endfacet

 facet normal 0.00465145288 -0.740836382 -0.671669424
  outer loop
  vertex 0.0148256011 -0.0140805021 0.0211908724
  vertex 0.0148256011 -0.0146926176 0.0218660235
  vertex -0.00103632419 -0.0159614179 0.0231556352
  endloop
 endfacet

 facet normal 0.000686335727 -0.72511363 -0.688628852
  outer loop
  vertex 0.0148256011 -0.0140805021 0.0211908724
  vertex -0.00103632419 -0.0159614179 0.0231556352
  vertex -0.00103632419 -0.014720845 0.0218493342
  endloop
 endfacet

 facet normal -0.00020963425 0.701118469 -0.713044882
  outer loop
  vertex -0.00103632419 -0.00456299912 0.0205946174
  vertex -0.00103632419 -0.00328231067 0.0218538847
  vertex 0.0148256011 -0.00328528252 0.0218463
  endloop
 endfacet

 facet normal 0.00219623698 0.685744226 -0.727839351
  outer loop
  vertex -0.00103632419 -0.00456299912 0.0205946174
  vertex 0.0148256011 -0.00328528252 0.0218463
  vertex 0.0148256011 -0.00453328388 0.0206704773
  endloop
 endfacet

 facet normal 0.00867712032 -0.764098406 -0.645041347
  outer loop
  vertex 0.0148256011 -0.0146926176 0.0218660235
  vertex 0.0148256011 -0.0153240468 0.0226139985
  vertex -0.00103632419 -0.0159614179 0.0231556352
  endloop
 endfacet

 facet normal 0.00876731239 -0.765215516 -0.643714488
  outer loop
  vertex -0.00103632419 -0.0159614179 0.0231556352
  vertex 0.0148256011 -0.0153240468 0.0226139985
  vertex 0.0148256011 -0.015803935 0.0231844634
  endloop
 endfacet

 facet normal 0.00930676144 -0.83731997 -0.546633899
  outer loop
  vertex -0.00103632419 -0.0159614179 0.0231556352
  vertex 0.0148256011 -0.015803935 0.0231844634
  vertex 0.0148256011 -0.0158514772 0.0232572872
  endloop
 endfacet

 facet normal 0.0089223627 -0.915601909 -0.401987016
  outer loop
  vertex -0.00103632419 -0.0159614179 0.0231556352
  vertex 0.0148256011 -0.0158514772 0.0232572872
  vertex -0.00103632419 -0.0159807354 0.0231996346
  endloop
 endfacet

 facet normal -0.000198434849 0.717861533 -0.696185946
  outer loop
  vertex -0.00103632419 -0.00328231067 0.0218538847
  vertex -0.00103632419 -0.00206253678 0.0231116358
  vertex 0.0148256011 -0.00328528252 0.0218463
  endloop
 endfacet

 facet normal 0.0080669513 0.767711341 -0.640745103
  outer loop
  vertex 0.0148256011 -0.00328528252 0.0218463
  vertex -0.00103632419 -0.00206253678 0.0231116358
  vertex 0.0148256011 -0.00212790724 0.0232330132
  endloop
 endfacet

 facet normal 0.00884601288 -0.958633959 -0.284504622
  outer loop
  vertex -0.00103632419 -0.0159807354 0.0231996346
  vertex 0.0148256011 -0.0158514772 0.0232572872
  vertex -0.00103632419 -0.0163328499 0.0243860763
  endloop
 endfacet

 facet normal 0.0102914441 -0.963807702 -0.266399533
  outer loop
  vertex 0.0148256011 -0.0158514772 0.0232572872
  vertex 0.0148256011 -0.0161634777 0.0243860763
  vertex -0.00103632419 -0.0163328499 0.0243860763
  endloop
 endfacet

 facet normal 0.00785100088 0.805952489 -0.591928303
  outer loop
  vertex -0.00103632419 -0.00206253678 0.0231116358
  vertex -0.00103632419 -0.00203133561 0.023154119
  vertex 0.0148256011 -0.00212790724 0.0232330132
  endloop
 endfacet

 facet normal 0.00752818724 0.92382443 -0.382742494
  outer loop
  vertex 0.0148256011 -0.00212790724 0.0232330132
  vertex -0.00103632419 -0.00203133561 0.023154119
  vertex 0.0148256011 -0.00209522201 0.0233119056
  endloop
 endfacet

 facet normal 0.0104723517 -0.980749846 -0.194987327
  outer loop
  vertex -0.00103632419 -0.0163328499 0.0243860763
  vertex 0.0148256011 -0.0161634777 0.0243860763
  vertex 0.0148256011 -0.0164026786 0.0255892109
  endloop
 endfacet

 facet normal 0.0102570895 -0.981305778 -0.192181617
  outer loop
  vertex -0.00103632419 -0.0163328499 0.0243860763
  vertex 0.0148256011 -0.0164026786 0.0255892109
  vertex -0.00103632419 -0.0163343363 0.0243936647
  endloop
 endfacet

 facet normal 0.00672750361 0.957410097 -0.288653105
  outer loop
  vertex -0.00103632419 -0.00203133561 0.023154119
  vertex -0.00103632419 -0.00165990798 0.0243860763
  vertex 0.0148256011 -0.00209522201 0.0233119056
  endloop
 endfacet

 facet normal 0.00830201712 0.963427305 -0.26784128
  outer loop
  vertex 0.0148256011 -0.00209522201 0.0233119056
  vertex -0.00103632419 -0.00165990798 0.0243860763
  vertex 0.0148256011 -0.00179659296 0.0243860763
  endloop
 endfacet

 facet normal 0.0050758482 -0.992261052 -0.124065667
  outer loop
  vertex -0.00103632419 -0.0163343363 0.0243936647
  vertex 0.0148256011 -0.0164026786 0.0255892109
  vertex 0.0148256011 -0.0164115932 0.0256605167
  endloop
 endfacet

 facet normal 0.00407306198 -0.993744791 -0.111600548
  outer loop
  vertex -0.00103632419 -0.0163343363 0.0243936647
  vertex 0.0148256011 -0.0164115932 0.0256605167
  vertex 0.0148256011 -0.0165334195 0.0267453082
  endloop
 endfacet

 facet normal -0.00332530565 -0.998066723 -0.0620641895
  outer loop
  vertex -0.00103632419 -0.0163343363 0.0243936647
  vertex 0.0148256011 -0.0165334195 0.0267453082
  vertex 0.0148256011 -0.0165453069 0.0269364771
  endloop
 endfacet

 facet normal -0.00389348366 -0.998277724 -0.0585374311
  outer loop
  vertex -0.00103632419 -0.0163343363 0.0243936647
  vertex 0.0148256011 -0.0165453069 0.0269364771
  vertex -0.00103632419 -0.0164086223 0.0256605167
  endloop
 endfacet

 facet normal -0.0103784697 0.998692036 -0.0500634797
  outer loop
  vertex -0.00103632419 -0.00165990798 0.0243860763
  vertex -0.00103632419 -0.00159602158 0.0256605167
  vertex 0.0148256011 -0.00136722077 0.0269364771
  endloop
 endfacet

 facet normal -0.00140723097 0.994432092 -0.105370209
  outer loop
  vertex -0.00103632419 -0.00165990798 0.0243860763
  vertex 0.0148256011 -0.00136722077 0.0269364771
  vertex 0.0148256011 -0.00150242168 0.0256605167
  endloop
 endfacet

 facet normal 0.00833757408 0.974508941 -0.224193901
  outer loop
  vertex -0.00103632419 -0.00165990798 0.0243860763
  vertex 0.0148256011 -0.00150242168 0.0256605167
  vertex 0.0148256011 -0.00178619311 0.0244270414
  endloop
 endfacet

 facet normal 0.0083519239 0.96921891 -0.246058792
  outer loop
  vertex -0.00103632419 -0.00165990798 0.0243860763
  vertex 0.0148256011 -0.00178619311 0.0244270414
  vertex 0.0148256011 -0.00179659296 0.0243860763
  endloop
 endfacet

 facet normal -0.0077736238 -0.999914885 -0.0104773296
  outer loop
  vertex -0.00103632419 -0.0164086223 0.0256605167
  vertex 0.0148256011 -0.0165453069 0.0269364771
  vertex -0.00103632419 -0.0164219923 0.0269364771
  endloop
 endfacet

 facet normal 0.00263821054 -0.99389106 0.110334963
  outer loop
  vertex 0.0148256011 -0.0165453069 0.0269364771
  vertex 0.0148256011 -0.016404165 0.0282078832
  vertex -0.00103632419 -0.0163046215 0.0294838399
  endloop
 endfacet

 facet normal -0.00226360513 -0.996785402 0.0800857991
  outer loop
  vertex 0.0148256011 -0.0165453069 0.0269364771
  vertex -0.00103632419 -0.0163046215 0.0294838399
  vertex -0.00103632419 -0.0164071359 0.0282078832
  endloop
 endfacet

 facet normal -0.00777351996 -0.999901533 0.0116833411
  outer loop
  vertex 0.0148256011 -0.0165453069 0.0269364771
  vertex -0.00103632419 -0.0164071359 0.0282078832
  vertex -0.00103632419 -0.0164219923 0.0269364771
  endloop
 endfacet

 facet normal -0.0137671176 0.999871969 -0.00814951118
  outer loop
  vertex -0.00103632419 -0.00159602158 0.0256605167
  vertex -0.00103632419 -0.00158562174 0.0269364771
  vertex 0.0148256011 -0.00136722077 0.0269364771
  endloop
 endfacet

 facet normal -0.0137670897 0.999870062 0.00837864913
  outer loop
  vertex 0.0148256011 -0.00136722077 0.0269364771
  vertex -0.00103632419 -0.00158562174 0.0269364771
  vertex -0.00103632419 -0.00159602158 0.0281775389
  endloop
 endfacet

 facet normal -0.0106121339 0.998766899 0.048498556
  outer loop
  vertex 0.0148256011 -0.00136722077 0.0269364771
  vertex -0.00103632419 -0.00159602158 0.0281775389
  vertex -0.00103632419 -0.00165842206 0.0294625983
  endloop
 endfacet

 facet normal -0.00489689969 0.996443868 0.0841176212
  outer loop
  vertex 0.0148256011 -0.00136722077 0.0269364771
  vertex -0.00103632419 -0.00165842206 0.0294625983
  vertex 0.0148256011 -0.00138950627 0.027200466
  endloop
 endfacet

 facet normal 0.0091501493 -0.981676698 0.190334529
  outer loop
  vertex 0.0148256011 -0.016404165 0.0282078832
  vertex 0.0148256011 -0.0161694214 0.0294186007
  vertex -0.00103632419 -0.0163046215 0.0294838399
  endloop
 endfacet

 facet normal 0.00932636019 -0.961257935 0.27549246
  outer loop
  vertex -0.00103632419 -0.0163046215 0.0294838399
  vertex 0.0148256011 -0.0161694214 0.0294186007
  vertex 0.0148256011 -0.016151594 0.0294808056
  endloop
 endfacet

 facet normal 0.00918319263 -0.945421696 0.325720042
  outer loop
  vertex -0.00103632419 -0.0163046215 0.0294838399
  vertex 0.0148256011 -0.016151594 0.0294808056
  vertex 0.0148256011 -0.0158499908 0.0303562246
  endloop
 endfacet

 facet normal 0.00636878563 -0.929556608 0.368624419
  outer loop
  vertex -0.00103632419 -0.0163046215 0.0294838399
  vertex 0.0148256011 -0.0158499908 0.0303562246
  vertex 0.0148256011 -0.0157771911 0.0305398051
  endloop
 endfacet

 facet normal 0.00531965261 -0.924256027 0.381736219
  outer loop
  vertex -0.00103632419 -0.0163046215 0.0294838399
  vertex 0.0148256011 -0.0157771911 0.0305398051
  vertex -0.00103632419 -0.0158440471 0.0305989757
  endloop
 endfacet

 facet normal -0.000126726081 0.993111849 0.117169678
  outer loop
  vertex 0.0148256011 -0.00138950627 0.027200466
  vertex -0.00103632419 -0.00165842206 0.0294625983
  vertex 0.0148256011 -0.00150836364 0.0282078832
  endloop
 endfacet

 facet normal 0.00648509664 0.978674829 0.205313325
  outer loop
  vertex -0.00103632419 -0.00165842206 0.0294625983
  vertex -0.00103632419 -0.00166287809 0.0294838399
  vertex 0.0148256011 -0.00152767904 0.0283383615
  endloop
 endfacet

 facet normal 0.00222540693 0.989217222 0.146439195
  outer loop
  vertex -0.00103632419 -0.00165842206 0.0294625983
  vertex 0.0148256011 -0.00152767904 0.0283383615
  vertex 0.0148256011 -0.00150836364 0.0282078832
  endloop
 endfacet

 facet normal 0.00561582297 -0.791564941 0.611059308
  outer loop
  vertex -0.00103632419 -0.0158440471 0.0305989757
  vertex 0.0148256011 -0.0157771911 0.0305398051
  vertex -0.00103632419 -0.0156835914 0.0308068302
  endloop
 endfacet

 facet normal 0.00660506776 -0.754124165 0.656698644
  outer loop
  vertex 0.0148256011 -0.0157771911 0.0305398051
  vertex 0.0148256011 -0.0145841604 0.0319098309
  vertex -0.00103632419 -0.0156835914 0.0308068302
  endloop
 endfacet

 facet normal 0.00815008115 0.959810376 0.280530959
  outer loop
  vertex -0.00103632419 -0.00166287809 0.0294838399
  vertex -0.00103632419 -0.00201053591 0.0306733176
  vertex 0.0148256011 -0.00213236525 0.0306293201
  endloop
 endfacet

 facet normal 0.00860784203 0.961445093 0.27486223
  outer loop
  vertex -0.00103632419 -0.00166287809 0.0294838399
  vertex 0.0148256011 -0.00213236525 0.0306293201
  vertex 0.0148256011 -0.0018040227 0.0294808056
  endloop
 endfacet

 facet normal 0.00869355537 0.97193259 0.235099047
  outer loop
  vertex -0.00103632419 -0.00166287809 0.0294838399
  vertex 0.0148256011 -0.0018040227 0.0294808056
  vertex 0.0148256011 -0.00152767904 0.0283383615
  endloop
 endfacet

 facet normal 0.000465964753 -0.711593986 0.702590823
  outer loop
  vertex -0.00103632419 -0.0156835914 0.0308068302
  vertex 0.0148256011 -0.0145841604 0.0319098309
  vertex -0.00103632419 -0.0145960459 0.0319083109
  endloop
 endfacet

 facet normal 0.00123760093 -0.652426064 0.757851303
  outer loop
  vertex 0.0148256011 -0.0145841604 0.0319098309
  vertex 0.0148256011 -0.0134862158 0.0328550376
  vertex -0.00103632419 -0.0143657597 0.0321237519
  endloop
 endfacet

 facet normal 0.000442022341 -0.683175623 0.730253994
  outer loop
  vertex 0.0148256011 -0.0145841604 0.0319098309
  vertex -0.00103632419 -0.0143657597 0.0321237519
  vertex -0.00103632419 -0.0145960459 0.0319083109
  endloop
 endfacet

 facet normal 0.0081536565 0.920521855 0.390605956
  outer loop
  vertex -0.00103632419 -0.00201053591 0.0306733176
  vertex -0.00103632419 -0.00202984968 0.0307188332
  vertex 0.0148256011 -0.00213236525 0.0306293201
  endloop
 endfacet

 facet normal 0.00851355586 0.82896924 0.559229493
  outer loop
  vertex 0.0148256011 -0.00213236525 0.0306293201
  vertex -0.00103632419 -0.00202984968 0.0307188332
  vertex 0.0148256011 -0.00217842218 0.0306975916
  endloop
 endfacet

 facet normal 0.0011170794 -0.636130452 0.771580815
  outer loop
  vertex 0.0148256011 -0.0134862158 0.0328550376
  vertex 0.0148256011 -0.0133242728 0.032988552
  vertex -0.00103632419 -0.0132306712 0.0330886878
  endloop
 endfacet

 facet normal 0.000788269914 -0.647691131 0.76190269
  outer loop
  vertex 0.0148256011 -0.0134862158 0.0328550376
  vertex -0.00103632419 -0.0132306712 0.0330886878
  vertex -0.00103632419 -0.0143657597 0.0321237519
  endloop
 endfacet

 facet normal -0.000754836889 0.723077059 0.69076699
  outer loop
  vertex -0.00103632419 -0.00202984968 0.0307188332
  vertex -0.00103632419 -0.00327488082 0.0320220999
  vertex 0.0148256011 -0.00390185439 0.032695733
  endloop
 endfacet

 facet normal 0.00489997584 0.745432079 0.66656363
  outer loop
  vertex -0.00103632419 -0.00202984968 0.0307188332
  vertex 0.0148256011 -0.00390185439 0.032695733
  vertex 0.0148256011 -0.00329271052 0.0320145153
  endloop
 endfacet

 facet normal 0.00558930635 0.749448299 0.66203928
  outer loop
  vertex -0.00103632419 -0.00202984968 0.0307188332
  vertex 0.0148256011 -0.00329271052 0.0320145153
  vertex 0.0148256011 -0.00264939526 0.031286262
  endloop
 endfacet

 facet normal 0.00815023761 0.780819535 0.624703467
  outer loop
  vertex -0.00103632419 -0.00202984968 0.0307188332
  vertex 0.0148256011 -0.00264939526 0.031286262
  vertex 0.0148256011 -0.00217842218 0.0306975916
  endloop
 endfacet

 facet normal 0.00240533031 -0.511586189 0.859228611
  outer loop
  vertex 0.0148256011 -0.0133242728 0.032988552
  vertex 0.0148256011 -0.0124476999 0.0335104652
  vertex -0.00103632419 -0.0132306712 0.0330886878
  endloop
 endfacet

 facet normal 0.00118901208 -0.492818475 0.870131373
  outer loop
  vertex -0.00103632419 -0.0132306712 0.0330886878
  vertex 0.0148256011 -0.0124476999 0.0335104652
  vertex 0.0148256011 -0.0122708995 0.033610601
  endloop
 endfacet

 facet normal 0.000357573968 -0.482278526 0.876017928
  outer loop
  vertex -0.00103632419 -0.0132306712 0.0330886878
  vertex 0.0148256011 -0.0122708995 0.033610601
  vertex -0.00103632419 -0.0107807238 0.0344374664
  endloop
 endfacet

 facet normal -0.00242056022 0.702938914 0.711246192
  outer loop
  vertex -0.00103632419 -0.00327488082 0.0320220999
  vertex -0.00103632419 -0.00452139834 0.0332540572
  vertex 0.0148256011 -0.00390185439 0.032695733
  endloop
 endfacet

 facet normal 0.000221613722 0.66631496 0.745670438
  outer loop
  vertex 0.0148256011 -0.00390185439 0.032695733
  vertex -0.00103632419 -0.00452139834 0.0332540572
  vertex -0.00103632419 -0.00455705542 0.0332859196
  endloop
 endfacet

 facet normal 0.00426982669 0.610232949 0.792210519
  outer loop
  vertex 0.0148256011 -0.00390185439 0.032695733
  vertex -0.00103632419 -0.00455705542 0.0332859196
  vertex 0.0148256011 -0.00459122658 0.0332267508
  endloop
 endfacet

 facet normal 0.00277638319 -0.462431788 0.886650503
  outer loop
  vertex -0.00103632419 -0.0107807238 0.0344374664
  vertex 0.0148256011 -0.0122708995 0.033610601
  vertex 0.0148256011 -0.0108862119 0.034332782
  endloop
 endfacet

 facet normal 0.00408809306 -0.324103832 0.946012795
  outer loop
  vertex -0.00103632419 -0.0107807238 0.0344374664
  vertex 0.0148256011 -0.0108862119 0.034332782
  vertex -0.00103632419 -0.00963375065 0.0348304212
  endloop
 endfacet

 facet normal 0.0043044351 0.533259511 0.845940828
  outer loop
  vertex 0.0148256011 -0.00459122658 0.0332267508
  vertex -0.00103632419 -0.00455705542 0.0332859196
  vertex -0.00103632419 -0.00581100024 0.034076374
  endloop
 endfacet

 facet normal 0.00897168927 0.490353823 0.871477306
  outer loop
  vertex 0.0148256011 -0.00459122658 0.0332267508
  vertex -0.00103632419 -0.00581100024 0.034076374
  vertex 0.0148256011 -0.00466402667 0.0332677141
  endloop
 endfacet

 facet normal 0.00497706328 -0.314172447 0.94935286
  outer loop
  vertex -0.00103632419 -0.00963375065 0.0348304212
  vertex 0.0148256011 -0.0108862119 0.034332782
  vertex 0.0148256011 -0.0107257534 0.0343858823
  endloop
 endfacet

 facet normal 0.0113568446 -0.231076017 0.972869515
  outer loop
  vertex -0.00103632419 -0.00963375065 0.0348304212
  vertex 0.0148256011 -0.0107257534 0.0343858823
  vertex 0.0148256011 -0.00972289406 0.0346240811
  endloop
 endfacet

 facet normal 0.0118801324 -0.167783603 0.985752285
  outer loop
  vertex -0.00103632419 -0.00963375065 0.0348304212
  vertex 0.0148256011 -0.00972289406 0.0346240811
  vertex 0.0148256011 -0.00963375065 0.0346392542
  endloop
 endfacet

 facet normal 0.0120241698 -0.0666537136 0.997703731
  outer loop
  vertex -0.00103632419 -0.00963375065 0.0348304212
  vertex 0.0148256011 -0.00963375065 0.0346392542
  vertex -0.00103632419 -0.00836197753 0.0349153839
  endloop
 endfacet

 facet normal 0.0103134671 0.476993382 0.878846347
  outer loop
  vertex 0.0148256011 -0.00466402667 0.0332677141
  vertex -0.00103632419 -0.00581100024 0.034076374
  vertex 0.0148256011 -0.00563122844 0.0337926596
  endloop
 endfacet

 facet normal 0.00954658352 0.440502018 0.897700906
  outer loop
  vertex -0.00103632419 -0.00581100024 0.034076374
  vertex -0.00103632419 -0.00684060249 0.0345816016
  vertex 0.0148256011 -0.00633100234 0.0341628566
  endloop
 endfacet

 facet normal 0.0105100628 0.467593253 0.883881271
  outer loop
  vertex -0.00103632419 -0.00581100024 0.034076374
  vertex 0.0148256011 -0.00633100234 0.0341628566
  vertex 0.0148256011 -0.00563122844 0.0337926596
  endloop
 endfacet

 facet normal 0.0148211559 -0.0321314596 0.999373794
  outer loop
  vertex -0.00103632419 -0.00836197753 0.0349153839
  vertex 0.0148256011 -0.00963375065 0.0346392542
  vertex 0.0148256011 -0.00845409185 0.0346771851
  endloop
 endfacet

 facet normal 0.0150154606 0 0.999887228
  outer loop
  vertex -0.00103632419 -0.00836197753 0.0349153839
  vertex 0.0148256011 -0.00845409185 0.0346771851
  vertex 0.0148256011 -0.00836197753 0.0346771851
  endloop
 endfacet

 facet normal 0.0148170209 0.162039906 0.986672997
  outer loop
  vertex -0.00103632419 -0.00836197753 0.0349153839
  vertex 0.0148256011 -0.00836197753 0.0346771851
  vertex 0.0148256011 -0.00713328971 0.0344753973
  endloop
 endfacet

 facet normal 0.0126863914 0.187909573 0.982104421
  outer loop
  vertex -0.00103632419 -0.00836197753 0.0349153839
  vertex 0.0148256011 -0.00713328971 0.0344753973
  vertex -0.00103632419 -0.00699808914 0.0346544273
  endloop
 endfacet

 facet normal 0.0104764886 0.419695497 0.907604575
  outer loop
  vertex -0.00103632419 -0.00684060249 0.0345816016
  vertex -0.00103632419 -0.00699808914 0.0346544273
  vertex 0.0148256011 -0.00633100234 0.0341628566
  endloop
 endfacet

 facet normal 0.0136096012 0.36295712 0.931706429
  outer loop
  vertex 0.0148256011 -0.00633100234 0.0341628566
  vertex -0.00103632419 -0.00699808914 0.0346544273
  vertex 0.0148256011 -0.00713328971 0.0344753973
  endloop
 endfacet

endsolid AssimpScene
