solid AssimpScene
 facet normal -0.994374454 -0.0994698256 -0.03640268
  outer loop
  vertex -0.00989866816 -0.015741447 -0.0486499183
  vertex -0.00988528877 -0.0143524716 -0.0528107509
  vertex -0.00963298231 -0.0179926455 -0.0497560166
  endloop
 endfacet

 facet normal -0.994333208 -0.100894116 -0.0334939733
  outer loop
  vertex -0.00989866816 -0.015741447 -0.0486499183
  vertex -0.00963298231 -0.0179926455 -0.0497560166
  vertex -0.00970370416 -0.0185605958 -0.0459456556
  endloop
 endfacet

 facet normal -0.995132565 -0.0947621763 -0.0270438977
  outer loop
  vertex -0.00989866816 -0.015741447 -0.0486499183
  vertex -0.00970370416 -0.0185605958 -0.0459456556
  vertex -0.00987955369 -0.0171304233 -0.0444862805
  endloop
 endfacet

 facet normal -0.999905288 -0.0137602389 0
  outer loop
  vertex -0.00989866816 -0.015741447 -0.0486499183
  vertex -0.00987955369 -0.0171304233 -0.0444862805
  vertex -0.00989866816 -0.015741447 -0.0444862805
  endloop
 endfacet

 facet normal -1 0 0
  outer loop
  vertex -0.00989866816 -0.015741447 -0.0486499183
  vertex -0.00989866816 -0.015741447 -0.0444862805
  vertex -0.00989866816 -0.0151175838 -0.0438610315
  endloop
 endfacet

 facet normal -1 0 0
  outer loop
  vertex -0.00989866816 -0.015741447 -0.0486499183
  vertex -0.00989866816 -0.0151175838 -0.0438610315
  vertex -0.00989866816 0.00646450929 -0.0438610315
  endloop
 endfacet

 facet normal -1 0 0
  outer loop
  vertex -0.00989866816 -0.015741447 -0.0486499183
  vertex -0.00989866816 0.00646450929 -0.0438610315
  vertex -0.00989866816 0.00646450929 -0.0486499183
  endloop
 endfacet

 facet normal -1 0 0
  outer loop
  vertex -0.00989866816 -0.015741447 -0.0486499183
  vertex -0.00989866816 0.00646450929 -0.0486499183
  vertex -0.00989866816 0.00368655729 -0.0514228754
  endloop
 endfacet

 facet normal -1 0 0
  outer loop
  vertex -0.00989866816 -0.015741447 -0.0486499183
  vertex -0.00989866816 0.00368655729 -0.0514228754
  vertex -0.00989866816 0.000911548792 -0.0528107509
  endloop
 endfacet

 facet normal -1 0 0
  outer loop
  vertex -0.00989866816 -0.015741447 -0.0486499183
  vertex -0.00989866816 0.000911548792 -0.0528107509
  vertex -0.00989866816 -0.00602744473 -0.0541986339
  endloop
 endfacet

 facet normal -1 0 0
  outer loop
  vertex -0.00989866816 -0.015741447 -0.0486499183
  vertex -0.00989866816 -0.00602744473 -0.0541986339
  vertex -0.00989866816 -0.0101914294 -0.0541986339
  endloop
 endfacet

 facet normal -0.999976635 -0.00482516829 -0.00482630031
  outer loop
  vertex -0.00989866816 -0.015741447 -0.0486499183
  vertex -0.00989866816 -0.0101914294 -0.0541986339
  vertex -0.00988528877 -0.0143524716 -0.0528107509
  endloop
 endfacet

 facet normal -0.9788059 -0.167143047 -0.118331343
  outer loop
  vertex -0.00988528877 -0.0143524716 -0.0528107509
  vertex -0.00962724816 -0.0152323516 -0.0537023619
  vertex -0.00963298231 -0.0179926455 -0.0497560166
  endloop
 endfacet

 facet normal -0.994413018 -0.0362633988 -0.0991356373
  outer loop
  vertex -0.00988528877 -0.0143524716 -0.0528107509
  vertex -0.00989866816 -0.0101914294 -0.0541986339
  vertex -0.00963298231 -0.0112684751 -0.0564697087
  endloop
 endfacet

 facet normal -0.978892684 -0.117942505 -0.166909695
  outer loop
  vertex -0.00988528877 -0.0143524716 -0.0528107509
  vertex -0.00963298231 -0.0112684751 -0.0564697087
  vertex -0.00962724816 -0.0152323516 -0.0537023619
  endloop
 endfacet

 facet normal -0.31381911 -0.821915567 -0.475365579
  outer loop
  vertex -0.00963298231 -0.0179926455 -0.0497560166
  vertex -0.00924879033 -0.0176042058 -0.0506812669
  vertex -0.00879387558 -0.0180868134 -0.050147146
  endloop
 endfacet

 facet normal -0.242447838 -0.923315942 -0.2978369
  outer loop
  vertex -0.00963298231 -0.0179926455 -0.0497560166
  vertex -0.00879387558 -0.0180868134 -0.050147146
  vertex -0.00962533709 -0.0193580817 -0.045529291
  endloop
 endfacet

 facet normal -0.9925825 -0.116200022 -0.0357428864
  outer loop
  vertex -0.00963298231 -0.0179926455 -0.0497560166
  vertex -0.00962533709 -0.0193580817 -0.045529291
  vertex -0.00970370416 -0.0185605958 -0.0459456556
  endloop
 endfacet

 facet normal -0.48428762 -0.716605842 -0.501937866
  outer loop
  vertex -0.00963298231 -0.0179926455 -0.0497560166
  vertex -0.00962724816 -0.0152323516 -0.0537023619
  vertex -0.00924879033 -0.0176042058 -0.0506812669
  endloop
 endfacet

 facet normal -0.994237781 -0.106009811 -0.0159135051
  outer loop
  vertex -0.00970370416 -0.0185605958 -0.0459456556
  vertex -0.00962533709 -0.0193580817 -0.045529291
  vertex -0.00987955369 -0.0171304233 -0.0444862805
  endloop
 endfacet

 facet normal -0.999032855 -0.0365579836 0.0244321488
  outer loop
  vertex -0.00987955369 -0.0171304233 -0.0444862805
  vertex -0.00986426231 -0.0171304233 -0.0438610315
  vertex -0.00988719985 -0.0165036172 -0.0438610315
  endloop
 endfacet

 facet normal -0.999904096 -0.0137602231 0.00156694534
  outer loop
  vertex -0.00987955369 -0.0171304233 -0.0444862805
  vertex -0.00988719985 -0.0165036172 -0.0438610315
  vertex -0.00989866816 -0.015741447 -0.0444862805
  endloop
 endfacet

 facet normal -0.993551552 -0.113382362 0
  outer loop
  vertex -0.00987955369 -0.0171304233 -0.0444862805
  vertex -0.00962533709 -0.0193580817 -0.045529291
  vertex -0.00962533709 -0.0193580817 -0.0449026451
  endloop
 endfacet

 facet normal -0.993523836 -0.113616422 0.00126916764
  outer loop
  vertex -0.00987955369 -0.0171304233 -0.0444862805
  vertex -0.00962533709 -0.0193580817 -0.0449026451
  vertex -0.00971899647 -0.0185341127 -0.0444582403
  endloop
 endfacet

 facet normal -0.993283272 -0.113129005 0.0242915396
  outer loop
  vertex -0.00987955369 -0.0171304233 -0.0444862805
  vertex -0.00971899647 -0.0185341127 -0.0444582403
  vertex -0.00986426231 -0.0171304233 -0.0438610315
  endloop
 endfacet

 facet normal -0.999916732 -0.0125384433 0.00305651408
  outer loop
  vertex -0.00989866816 -0.015741447 -0.0444862805
  vertex -0.00988719985 -0.0165036172 -0.0438610315
  vertex -0.00989675708 -0.015741447 -0.0438610315
  endloop
 endfacet

 facet normal -0.999990642 -0.00306353043 0.00305673992
  outer loop
  vertex -0.00989866816 -0.015741447 -0.0444862805
  vertex -0.00989675708 -0.015741447 -0.0438610315
  vertex -0.00989866816 -0.0151175838 -0.0438610315
  endloop
 endfacet

 facet normal -0.999991417 0 -0.00413199235
  outer loop
  vertex -0.00989866816 -0.0101914294 -0.0541986339
  vertex -0.00989866816 -0.00602744473 -0.0541986339
  vertex -0.00989293307 -0.00602744473 -0.0555865131
  endloop
 endfacet

 facet normal -0.994408727 -0.0321561992 -0.100585639
  outer loop
  vertex -0.00989866816 -0.0101914294 -0.0541986339
  vertex -0.00989293307 -0.00602744473 -0.0555865131
  vertex -0.00963298231 -0.00703680608 -0.0578337573
  endloop
 endfacet

 facet normal -0.9943645 -0.0325253122 -0.100902736
  outer loop
  vertex -0.00989866816 -0.0101914294 -0.0541986339
  vertex -0.00963298231 -0.00703680608 -0.0578337573
  vertex -0.00963298231 -0.0112684751 -0.0564697087
  endloop
 endfacet

 facet normal -0.302500308 -0.545914054 -0.781326771
  outer loop
  vertex -0.00962724816 -0.0152323516 -0.0537023619
  vertex -0.00963298231 -0.0112684751 -0.0564697087
  vertex -0.0086753685 -0.0116686868 -0.0565608293
  endloop
 endfacet

 facet normal -0.250529826 -0.564145446 -0.786749542
  outer loop
  vertex -0.00962724816 -0.0152323516 -0.0537023619
  vertex -0.0086753685 -0.0116686868 -0.0565608293
  vertex -0.00880725496 -0.0153794894 -0.053857971
  endloop
 endfacet

 facet normal -0.249153405 -0.776664436 -0.578545511
  outer loop
  vertex -0.00962724816 -0.0152323516 -0.0537023619
  vertex -0.00880725496 -0.0153794894 -0.053857971
  vertex -0.00924879033 -0.0176042058 -0.0506812669
  endloop
 endfacet

 facet normal -0.236241192 -0.298114002 -0.924834132
  outer loop
  vertex -0.00963298231 -0.0112684751 -0.0564697087
  vertex -0.00963298231 -0.00703680608 -0.0578337573
  vertex -0.00880725496 -0.00726928329 -0.0579697452
  endloop
 endfacet

 facet normal -0.215238869 -0.303690523 -0.928140283
  outer loop
  vertex -0.00963298231 -0.0112684751 -0.0564697087
  vertex -0.00880725496 -0.00726928329 -0.0579697452
  vertex -0.0086753685 -0.0116686868 -0.0565608293
  endloop
 endfacet

 facet normal -0.243855089 -0.813753486 -0.527579427
  outer loop
  vertex -0.00924879033 -0.0176042058 -0.0506812669
  vertex -0.00832366943 -0.0178396218 -0.0507457592
  vertex -0.00879387558 -0.0180868134 -0.050147146
  endloop
 endfacet

 facet normal -0.238735005 -0.779520273 -0.579097509
  outer loop
  vertex -0.00924879033 -0.0176042058 -0.0506812669
  vertex -0.00880725496 -0.0153794894 -0.053857971
  vertex -0.00832366943 -0.0178396218 -0.0507457592
  endloop
 endfacet

 facet normal -0.0577943996 -0.905919015 -0.419488519
  outer loop
  vertex -0.00879387558 -0.0180868134 -0.050147146
  vertex -0.00832366943 -0.0178396218 -0.0507457592
  vertex -0.00741957501 -0.0182251241 -0.0500377975
  endloop
 endfacet

 facet normal -0.0716604367 -0.9506675 -0.301821321
  outer loop
  vertex -0.00879387558 -0.0180868134 -0.050147146
  vertex -0.00741957501 -0.0182251241 -0.0500377975
  vertex -0.00880725496 -0.0194757897 -0.0457690135
  endloop
 endfacet

 facet normal -0.220361859 -0.929555893 -0.295578033
  outer loop
  vertex -0.00879387558 -0.0180868134 -0.050147146
  vertex -0.00880725496 -0.0194757897 -0.0457690135
  vertex -0.00962533709 -0.0193580817 -0.045529291
  endloop
 endfacet

 facet normal -0.142417222 -0.989806771 0
  outer loop
  vertex -0.00962533709 -0.0193580817 -0.045529291
  vertex -0.00880725496 -0.0194757897 -0.0457690135
  vertex -0.00880725496 -0.0194757897 -0.044672735
  endloop
 endfacet

 facet normal -0.142417222 -0.989806771 0
  outer loop
  vertex -0.00962533709 -0.0193580817 -0.045529291
  vertex -0.00880725496 -0.0194757897 -0.044672735
  vertex -0.00962533709 -0.0193580817 -0.0449026451
  endloop
 endfacet

 facet normal -0.99320817 -0.113561198 0.0253256392
  outer loop
  vertex -0.00986426231 -0.0171304233 -0.0438610315
  vertex -0.00971899647 -0.0185341127 -0.0444582403
  vertex -0.009774426 -0.0179161336 -0.0438610315
  endloop
 endfacet

 facet normal 0 0 1
  outer loop
  vertex -0.00986426231 -0.0171304233 -0.0438610315
  vertex -0.009774426 -0.0179161336 -0.0438610315
  vertex -0.00968841277 -0.0183693171 -0.0438610315
  endloop
 endfacet

 facet normal 0 0 1
  outer loop
  vertex -0.00986426231 -0.0171304233 -0.0438610315
  vertex -0.00968841277 -0.0183693171 -0.0438610315
  vertex -0.00931951217 -0.0186341647 -0.0438610315
  endloop
 endfacet

 facet normal 0 0 1
  outer loop
  vertex -0.00986426231 -0.0171304233 -0.0438610315
  vertex -0.00931951217 -0.0186341647 -0.0438610315
  vertex -0.00880725496 -0.0189902391 -0.0438610315
  endloop
 endfacet

 facet normal 0 0 1
  outer loop
  vertex -0.00986426231 -0.0171304233 -0.0438610315
  vertex -0.00880725496 -0.0189902391 -0.0438610315
  vertex -0.00861993711 -0.0190284923 -0.0438610315
  endloop
 endfacet

 facet normal 0 0 1
  outer loop
  vertex -0.00986426231 -0.0171304233 -0.0438610315
  vertex -0.00861993711 -0.0190284923 -0.0438610315
  vertex -0.00741957501 -0.019149147 -0.0438610315
  endloop
 endfacet

 facet normal 0 0 1
  outer loop
  vertex -0.00986426231 -0.0171304233 -0.0438610315
  vertex -0.00741957501 -0.019149147 -0.0438610315
  vertex -0.00603189506 -0.0191550311 -0.0438610315
  endloop
 endfacet

 facet normal 0 0 1
  outer loop
  vertex -0.00986426231 -0.0171304233 -0.0438610315
  vertex -0.00603189506 -0.0191550311 -0.0438610315
  vertex 0.00511924457 -0.0191550311 -0.0438610315
  endloop
 endfacet

 facet normal 0 0 1
  outer loop
  vertex -0.00986426231 -0.0171304233 -0.0438610315
  vertex 0.00511924457 -0.0191550311 -0.0438610315
  vertex 0.00645722868 -0.01915209 -0.0438610315
  endloop
 endfacet

 facet normal 0 0 1
  outer loop
  vertex -0.00986426231 -0.0171304233 -0.0438610315
  vertex 0.00645722868 -0.01915209 -0.0438610315
  vertex 0.00784682017 -0.0191226602 -0.0438610315
  endloop
 endfacet

 facet normal 0 0 1
  outer loop
  vertex -0.00986426231 -0.0171304233 -0.0438610315
  vertex 0.00784682017 -0.0191226602 -0.0438610315
  vertex 0.00907011982 -0.0185105707 -0.0438610315
  endloop
 endfacet

 facet normal 0 0 1
  outer loop
  vertex -0.00986426231 -0.0171304233 -0.0438610315
  vertex 0.00907011982 -0.0185105707 -0.0438610315
  vertex 0.00955370534 -0.0171304233 -0.0438610315
  endloop
 endfacet

 facet normal 0 0 1
  outer loop
  vertex -0.00986426231 -0.0171304233 -0.0438610315
  vertex 0.00955370534 -0.0171304233 -0.0438610315
  vertex 0.00961487088 -0.015741447 -0.0438610315
  endloop
 endfacet

 facet normal 0 0 1
  outer loop
  vertex -0.00986426231 -0.0171304233 -0.0438610315
  vertex 0.00961487088 -0.015741447 -0.0438610315
  vertex 0.00962825026 -0.0143524716 -0.0438610315
  endloop
 endfacet

 facet normal 0 0 1
  outer loop
  vertex -0.00986426231 -0.0171304233 -0.0438610315
  vertex 0.00962825026 -0.0143524716 -0.0438610315
  vertex 0.00962825026 0.00507553387 -0.0438610315
  endloop
 endfacet

 facet normal 0 0 1
  outer loop
  vertex -0.00986426231 -0.0171304233 -0.0438610315
  vertex 0.00962825026 0.00507553387 -0.0438610315
  vertex 0.00962633919 0.00583770452 -0.0438610315
  endloop
 endfacet

 facet normal 0 0 1
  outer loop
  vertex -0.00986426231 -0.0171304233 -0.0438610315
  vertex 0.00962633919 0.00583770452 -0.0438610315
  vertex 0.00962060411 0.00646450929 -0.0438610315
  endloop
 endfacet

 facet normal 0 0 1
  outer loop
  vertex -0.00986426231 -0.0171304233 -0.0438610315
  vertex 0.00962060411 0.00646450929 -0.0438610315
  vertex 0.0096091358 0.00722667994 -0.0438610315
  endloop
 endfacet

 facet normal 0 0 1
  outer loop
  vertex -0.00986426231 -0.0171304233 -0.0438610315
  vertex 0.0096091358 0.00722667994 -0.0438610315
  vertex 0.00958237611 0.00785054173 -0.0438610315
  endloop
 endfacet

 facet normal 0 0 1
  outer loop
  vertex -0.00986426231 -0.0171304233 -0.0438610315
  vertex 0.00958237611 0.00785054173 -0.0438610315
  vertex 0.00946386904 0.00861271285 -0.0438610315
  endloop
 endfacet

 facet normal 0 0 1
  outer loop
  vertex -0.00986426231 -0.0171304233 -0.0438610315
  vertex 0.00946386904 0.00861271285 -0.0438610315
  vertex 0.0092497915 0.00923951715 -0.0438610315
  endloop
 endfacet

 facet normal 0 0 1
  outer loop
  vertex -0.00986426231 -0.0171304233 -0.0438610315
  vertex 0.0092497915 0.00923951715 -0.0438610315
  vertex 0.00896499213 0.0097721545 -0.0438610315
  endloop
 endfacet

 facet normal 0 0 1
  outer loop
  vertex -0.00986426231 -0.0171304233 -0.0438610315
  vertex 0.00896499213 0.0097721545 -0.0438610315
  vertex 0.00874709245 0.0101046851 -0.0438610315
  endloop
 endfacet

 facet normal 0 0 1
  outer loop
  vertex -0.00986426231 -0.0171304233 -0.0438610315
  vertex 0.00874709245 0.0101046851 -0.0438610315
  vertex 0.00784682017 0.0103106769 -0.0438610315
  endloop
 endfacet

 facet normal 0 0 1
  outer loop
  vertex -0.00986426231 -0.0171304233 -0.0438610315
  vertex 0.00784682017 0.0103106769 -0.0438610315
  vertex 0.0072217905 0.0103312768 -0.0438610315
  endloop
 endfacet

 facet normal 0 0 1
  outer loop
  vertex -0.00986426231 -0.0171304233 -0.0438610315
  vertex 0.0072217905 0.0103312768 -0.0438610315
  vertex 0.00645722868 0.0103459898 -0.0438610315
  endloop
 endfacet

 facet normal 0 0 1
  outer loop
  vertex -0.00986426231 -0.0171304233 -0.0438610315
  vertex 0.00645722868 0.0103459898 -0.0438610315
  vertex -0.00665692473 0.0103459898 -0.0438610315
  endloop
 endfacet

 facet normal 0 0 1
  outer loop
  vertex -0.00986426231 -0.0171304233 -0.0438610315
  vertex -0.00665692473 0.0103459898 -0.0438610315
  vertex -0.00741957501 0.0103430469 -0.0438610315
  endloop
 endfacet

 facet normal 0 0 1
  outer loop
  vertex -0.00986426231 -0.0171304233 -0.0438610315
  vertex -0.00741957501 0.0103430469 -0.0438610315
  vertex -0.007885959 0.0103047909 -0.0438610315
  endloop
 endfacet

 facet normal 0 0 1
  outer loop
  vertex -0.00986426231 -0.0171304233 -0.0438610315
  vertex -0.007885959 0.0103047909 -0.0438610315
  vertex -0.00869448297 0.010184139 -0.0438610315
  endloop
 endfacet

 facet normal 0 0 1
  outer loop
  vertex -0.00986426231 -0.0171304233 -0.0438610315
  vertex -0.00869448297 0.010184139 -0.0438610315
  vertex -0.00936347432 0.00984866638 -0.0438610315
  endloop
 endfacet

 facet normal 0 0 1
  outer loop
  vertex -0.00986426231 -0.0171304233 -0.0438610315
  vertex -0.00936347432 0.00984866638 -0.0438610315
  vertex -0.00937111955 0.00983983837 -0.0438610315
  endloop
 endfacet

 facet normal 0 0 1
  outer loop
  vertex -0.00986426231 -0.0171304233 -0.0438610315
  vertex -0.00937111955 0.00983983837 -0.0438610315
  vertex -0.00971135031 0.00921597518 -0.0438610315
  endloop
 endfacet

 facet normal 0 0 1
  outer loop
  vertex -0.00986426231 -0.0171304233 -0.0438610315
  vertex -0.00971135031 0.00921597518 -0.0438610315
  vertex -0.00988337677 0.00785054173 -0.0438610315
  endloop
 endfacet

 facet normal 0 0 1
  outer loop
  vertex -0.00986426231 -0.0171304233 -0.0438610315
  vertex -0.00988337677 0.00785054173 -0.0438610315
  vertex -0.00989866816 0.00646450929 -0.0438610315
  endloop
 endfacet

 facet normal 0 0 1
  outer loop
  vertex -0.00986426231 -0.0171304233 -0.0438610315
  vertex -0.00989866816 0.00646450929 -0.0438610315
  vertex -0.00989866816 -0.0151175838 -0.0438610315
  endloop
 endfacet

 facet normal 0 0 1
  outer loop
  vertex -0.00986426231 -0.0171304233 -0.0438610315
  vertex -0.00989866816 -0.0151175838 -0.0438610315
  vertex -0.00989675708 -0.015741447 -0.0438610315
  endloop
 endfacet

 facet normal 0 0 1
  outer loop
  vertex -0.00986426231 -0.0171304233 -0.0438610315
  vertex -0.00989675708 -0.015741447 -0.0438610315
  vertex -0.00988719985 -0.0165036172 -0.0438610315
  endloop
 endfacet

 facet normal -0.45918721 -0.66059804 0.593933821
  outer loop
  vertex -0.00962533709 -0.0193580817 -0.0449026451
  vertex -0.00880725496 -0.0189902391 -0.0438610315
  vertex -0.00931951217 -0.0186341647 -0.0438610315
  endloop
 endfacet

 facet normal -0.469742626 -0.654296517 0.592653394
  outer loop
  vertex -0.00962533709 -0.0193580817 -0.0449026451
  vertex -0.00931951217 -0.0186341647 -0.0438610315
  vertex -0.00968841277 -0.0183693171 -0.0438610315
  endloop
 endfacet

 facet normal -0.975746751 -0.185194328 0.116710588
  outer loop
  vertex -0.00962533709 -0.0193580817 -0.0449026451
  vertex -0.00968841277 -0.0183693171 -0.0438610315
  vertex -0.009774426 -0.0179161336 -0.0438610315
  endloop
 endfacet

 facet normal -0.988274038 -0.142256185 0.0554765128
  outer loop
  vertex -0.00962533709 -0.0193580817 -0.0449026451
  vertex -0.009774426 -0.0179161336 -0.0438610315
  vertex -0.00971899647 -0.0185341127 -0.0444582403
  endloop
 endfacet

 facet normal -0.258638799 -0.828977108 0.495886028
  outer loop
  vertex -0.00962533709 -0.0193580817 -0.0449026451
  vertex -0.00880725496 -0.0194757897 -0.044672735
  vertex -0.00880725496 -0.0189902391 -0.0438610315
  endloop
 endfacet

 facet normal -0.999998987 0.000275434344 -0.00137708883
  outer loop
  vertex -0.00989866816 -0.00602744473 -0.0541986339
  vertex -0.00989866816 0.000911548792 -0.0528107509
  vertex -0.00989675708 0.000911548792 -0.0541986339
  endloop
 endfacet

 facet normal -0.999991417 0.000275432307 -0.00413199281
  outer loop
  vertex -0.00989866816 -0.00602744473 -0.0541986339
  vertex -0.00989675708 0.000911548792 -0.0541986339
  vertex -0.00989293307 -0.00602744473 -0.0555865131
  endloop
 endfacet

 facet normal -0.999717593 0.00413001794 -0.0234030597
  outer loop
  vertex -0.00989293307 -0.00602744473 -0.0555865131
  vertex -0.00989675708 0.000911548792 -0.0541986339
  vertex -0.00987573154 -0.00186346017 -0.0555865131
  endloop
 endfacet

 facet normal -0.999021769 0.00412714295 -0.0440275036
  outer loop
  vertex -0.00989293307 -0.00602744473 -0.0555865131
  vertex -0.00987573154 -0.00186346017 -0.0555865131
  vertex -0.009814566 -0.00186346017 -0.0569743961
  endloop
 endfacet

 facet normal -0.994077384 -0.0170637537 -0.107326165
  outer loop
  vertex -0.00989293307 -0.00602744473 -0.0555865131
  vertex -0.009814566 -0.00186346017 -0.0569743961
  vertex -0.00963298231 -0.00703680608 -0.0578337573
  endloop
 endfacet

 facet normal -0.97872591 -0.000271415163 -0.205171943
  outer loop
  vertex -0.00963298231 -0.00703680608 -0.0578337573
  vertex -0.009814566 -0.00186346017 -0.0569743961
  vertex -0.00963298231 -0.00279631023 -0.0578393675
  endloop
 endfacet

 facet normal -0.283490002 -0.00126859522 -0.958974361
  outer loop
  vertex -0.00963298231 -0.00703680608 -0.0578337573
  vertex -0.00963298231 -0.00279631023 -0.0578393675
  vertex -0.00880725496 -0.00186346017 -0.0580847003
  endloop
 endfacet

 facet normal -0.168205604 -0.0209574308 -0.985529244
  outer loop
  vertex -0.00963298231 -0.00703680608 -0.0578337573
  vertex -0.00880725496 -0.00186346017 -0.0580847003
  vertex -0.00880725496 -0.00726928329 -0.0579697452
  endloop
 endfacet

 facet normal -0.0646535382 -0.46685648 -0.881966531
  outer loop
  vertex -0.0086753685 -0.0116686868 -0.0565608293
  vertex -0.00741957501 -0.0115804048 -0.0566996187
  vertex -0.00812488422 -0.01227195 -0.0562818572
  endloop
 endfacet

 facet normal -0.222119987 -0.568877101 -0.791859567
  outer loop
  vertex -0.0086753685 -0.0116686868 -0.0565608293
  vertex -0.00812488422 -0.01227195 -0.0562818572
  vertex -0.00880725496 -0.0153794894 -0.053857971
  endloop
 endfacet

 facet normal -0.0832810029 -0.306196779 -0.948318541
  outer loop
  vertex -0.0086753685 -0.0116686868 -0.0565608293
  vertex -0.00880725496 -0.00726928329 -0.0579697452
  vertex -0.00741957501 -0.0115804048 -0.0566996187
  endloop
 endfacet

 facet normal -0.0552020632 -0.60653007 -0.793141842
  outer loop
  vertex -0.00880725496 -0.0153794894 -0.053857971
  vertex -0.00812488422 -0.01227195 -0.0562818572
  vertex -0.00741957501 -0.0154324584 -0.0539140441
  endloop
 endfacet

 facet normal -0.0548661314 -0.787448049 -0.613934278
  outer loop
  vertex -0.00880725496 -0.0153794894 -0.053857971
  vertex -0.00741957501 -0.0154324584 -0.0539140441
  vertex -0.00832366943 -0.0178396218 -0.0507457592
  endloop
 endfacet

 facet normal -0.0419679806 -0.0522181317 -0.997753501
  outer loop
  vertex -0.00880725496 -0.00726928329 -0.0579697452
  vertex -0.00741957501 -0.00602744473 -0.0580931082
  vertex -0.00741957501 -0.00733990921 -0.0580244176
  endloop
 endfacet

 facet normal -0.0527099036 -0.297787517 -0.953175962
  outer loop
  vertex -0.00880725496 -0.00726928329 -0.0579697452
  vertex -0.00741957501 -0.00733990921 -0.0580244176
  vertex -0.00741957501 -0.0115804048 -0.0566996187
  endloop
 endfacet

 facet normal -0.069682017 -0.0212086663 -0.997343779
  outer loop
  vertex -0.00880725496 -0.00726928329 -0.0579697452
  vertex -0.00880725496 -0.00186346017 -0.0580847003
  vertex -0.00741957501 -0.00602744473 -0.0580931082
  endloop
 endfacet

 facet normal -0.0124640418 -0.794472873 -0.607171774
  outer loop
  vertex -0.00832366943 -0.0178396218 -0.0507457592
  vertex -0.00741957501 -0.0154324584 -0.0539140441
  vertex -0.00741957501 -0.0178484507 -0.0507527664
  endloop
 endfacet

 facet normal -0.0122510036 -0.884661078 -0.466073811
  outer loop
  vertex -0.00832366943 -0.0178396218 -0.0507457592
  vertex -0.00741957501 -0.0178484507 -0.0507527664
  vertex -0.00741957501 -0.0182251241 -0.0500377975
  endloop
 endfacet

 facet normal 0 -0.884727478 -0.466108829
  outer loop
  vertex -0.00741957501 -0.0182251241 -0.0500377975
  vertex -0.00741957501 -0.0178484507 -0.0507527664
  vertex 0.00784682017 -0.0178484507 -0.0507527664
  endloop
 endfacet

 facet normal 0 -0.884727478 -0.466108829
  outer loop
  vertex -0.00741957501 -0.0182251241 -0.0500377975
  vertex 0.00784682017 -0.0178484507 -0.0507527664
  vertex 0.00784682017 -0.0182251241 -0.0500377975
  endloop
 endfacet

 facet normal 0 -0.955515325 -0.294941485
  outer loop
  vertex -0.00741957501 -0.0182251241 -0.0500377975
  vertex 0.00784682017 -0.0182251241 -0.0500377975
  vertex 0.00784682017 -0.0195228737 -0.0458335057
  endloop
 endfacet

 facet normal 0 -0.955515325 -0.294941485
  outer loop
  vertex -0.00741957501 -0.0182251241 -0.0500377975
  vertex 0.00784682017 -0.0195228737 -0.0458335057
  vertex -0.00741957501 -0.0195228737 -0.0458335057
  endloop
 endfacet

 facet normal -0.0460784324 -0.954500496 -0.294628233
  outer loop
  vertex -0.00741957501 -0.0182251241 -0.0500377975
  vertex -0.00741957501 -0.0195228737 -0.0458335057
  vertex -0.00880725496 -0.0194757897 -0.0457690135
  endloop
 endfacet

 facet normal -0.0339104235 -0.999424875 0
  outer loop
  vertex -0.00880725496 -0.0194757897 -0.0457690135
  vertex -0.00741957501 -0.0195228737 -0.0458335057
  vertex -0.00741957501 -0.0195228737 -0.0445802063
  endloop
 endfacet

 facet normal -0.0339104235 -0.999424875 0
  outer loop
  vertex -0.00880725496 -0.0194757897 -0.0457690135
  vertex -0.00741957501 -0.0195228737 -0.0445802063
  vertex -0.00880725496 -0.0194757897 -0.044672735
  endloop
 endfacet

 facet normal -0.172624454 -0.845294178 0.505646706
  outer loop
  vertex -0.00880725496 -0.0189902391 -0.0438610315
  vertex -0.00880725496 -0.0194757897 -0.044672735
  vertex -0.00861993711 -0.0190284923 -0.0438610315
  endloop
 endfacet

 facet normal -0.0607405677 -0.885701418 0.460264653
  outer loop
  vertex -0.00880725496 -0.0194757897 -0.044672735
  vertex -0.00741957501 -0.0195228737 -0.0445802063
  vertex -0.00741957501 -0.019149147 -0.0438610315
  endloop
 endfacet

 facet normal -0.0868355855 -0.86390847 0.496106684
  outer loop
  vertex -0.00880725496 -0.0194757897 -0.044672735
  vertex -0.00741957501 -0.019149147 -0.0438610315
  vertex -0.00861993711 -0.0190284923 -0.0438610315
  endloop
 endfacet

 facet normal -0.999864519 0.0110306712 0.0122254184
  outer loop
  vertex -0.00989866816 0.00646450929 -0.0438610315
  vertex -0.00988337677 0.00785054173 -0.0438610315
  vertex -0.009891022 0.00785054173 -0.0444862805
  endloop
 endfacet

 facet normal -0.999984741 0.00551637169 0
  outer loop
  vertex -0.00989866816 0.00646450929 -0.0438610315
  vertex -0.009891022 0.00785054173 -0.0444862805
  vertex -0.00989866816 0.00646450929 -0.0486499183
  endloop
 endfacet

 facet normal -0.999998808 0.000688729808 -0.00137708872
  outer loop
  vertex -0.00989866816 0.000911548792 -0.0528107509
  vertex -0.00989866816 0.00368655729 -0.0514228754
  vertex -0.00989675708 0.000911548792 -0.0541986339
  endloop
 endfacet

 facet normal -0.999992251 0.00240964233 -0.00309753069
  outer loop
  vertex -0.00989675708 0.000911548792 -0.0541986339
  vertex -0.00989866816 0.00368655729 -0.0514228754
  vertex -0.009891022 0.00507553387 -0.0528107509
  endloop
 endfacet

 facet normal -0.998780191 0.0168461427 -0.0464155562
  outer loop
  vertex -0.00989675708 0.000911548792 -0.0541986339
  vertex -0.009891022 0.00507553387 -0.0528107509
  vertex -0.009814566 -0.00186346017 -0.0569743961
  endloop
 endfacet

 facet normal -0.998926044 0.0144489016 -0.0440232866
  outer loop
  vertex -0.00989675708 0.000911548792 -0.0541986339
  vertex -0.009814566 -0.00186346017 -0.0569743961
  vertex -0.00987573154 -0.00186346017 -0.0555865131
  endloop
 endfacet

 facet normal -0.998578072 0.0189049058 -0.0498429164
  outer loop
  vertex -0.009814566 -0.00186346017 -0.0569743961
  vertex -0.009891022 0.00507553387 -0.0528107509
  vertex -0.00980500877 0.00230052415 -0.0555865131
  endloop
 endfacet

 facet normal -0.981940866 0.0618468374 -0.178793713
  outer loop
  vertex -0.009814566 -0.00186346017 -0.0569743961
  vertex -0.00980500877 0.00230052415 -0.0555865131
  vertex -0.00964445062 0.00230052415 -0.0564683042
  endloop
 endfacet

 facet normal -0.975193143 0.0655379072 -0.211431175
  outer loop
  vertex -0.009814566 -0.00186346017 -0.0569743961
  vertex -0.00964445062 0.00230052415 -0.0564683042
  vertex -0.00962915923 -0.00186346017 -0.0578295551
  endloop
 endfacet

 facet normal -0.977275252 0.00623331591 -0.211882591
  outer loop
  vertex -0.009814566 -0.00186346017 -0.0569743961
  vertex -0.00962915923 -0.00186346017 -0.0578295551
  vertex -0.00963298231 -0.00279631023 -0.0578393675
  endloop
 endfacet

 facet normal -0.29645732 0.0112602366 -0.954979658
  outer loop
  vertex -0.00963298231 -0.00279631023 -0.0578393675
  vertex -0.00962915923 -0.00186346017 -0.0578295551
  vertex -0.00880725496 -0.00186346017 -0.0580847003
  endloop
 endfacet

 facet normal -0.291233301 0.187229425 -0.938151538
  outer loop
  vertex -0.00880725496 -0.00186346017 -0.0580847003
  vertex -0.00962915923 -0.00186346017 -0.0578295551
  vertex -0.00953932386 -0.00113365904 -0.057711795
  endloop
 endfacet

 facet normal -0.177279279 0.300956786 -0.937014997
  outer loop
  vertex -0.00880725496 -0.00186346017 -0.0580847003
  vertex -0.00953932386 -0.00113365904 -0.057711795
  vertex -0.00880725496 0.00230052415 -0.0567472838
  endloop
 endfacet

 facet normal -0.0662203506 0.30512926 -0.950005889
  outer loop
  vertex -0.00880725496 -0.00186346017 -0.0580847003
  vertex -0.00880725496 0.00230052415 -0.0567472838
  vertex -0.00741957501 -0.00186346017 -0.0581814274
  endloop
 endfacet

 facet normal -0.0695209131 -0.021154955 -0.997356176
  outer loop
  vertex -0.00880725496 -0.00186346017 -0.0580847003
  vertex -0.00741957501 -0.00186346017 -0.0581814274
  vertex -0.00741957501 -0.00602744473 -0.0580931082
  endloop
 endfacet

 facet normal 0 -0.517074466 -0.855940461
  outer loop
  vertex -0.00741957501 -0.0115804048 -0.0566996187
  vertex 0.00784682017 -0.0115804048 -0.0566996187
  vertex 0.00854257122 -0.01227195 -0.0562818572
  endloop
 endfacet

 facet normal 0 -0.517074466 -0.855940461
  outer loop
  vertex -0.00741957501 -0.0115804048 -0.0566996187
  vertex 0.00854257122 -0.01227195 -0.0562818572
  vertex -0.00812488422 -0.01227195 -0.0562818572
  endloop
 endfacet

 facet normal 0 -0.298202038 -0.954502881
  outer loop
  vertex -0.00741957501 -0.0115804048 -0.0566996187
  vertex -0.00741957501 -0.00733990921 -0.0580244176
  vertex 0.00645722868 -0.00733990921 -0.0580244176
  endloop
 endfacet

 facet normal 0 -0.298202038 -0.954502881
  outer loop
  vertex -0.00741957501 -0.0115804048 -0.0566996187
  vertex 0.00645722868 -0.00733990921 -0.0580244176
  vertex 0.00784682017 -0.0115804048 -0.0566996187
  endloop
 endfacet

 facet normal 0 -0.599583149 -0.800312459
  outer loop
  vertex -0.00812488422 -0.01227195 -0.0562818572
  vertex 0.00854257122 -0.01227195 -0.0562818572
  vertex 0.00784682017 -0.0154324584 -0.0539140441
  endloop
 endfacet

 facet normal 0 -0.599583149 -0.800312459
  outer loop
  vertex -0.00812488422 -0.01227195 -0.0562818572
  vertex 0.00784682017 -0.0154324584 -0.0539140441
  vertex -0.00741957501 -0.0154324584 -0.0539140441
  endloop
 endfacet

 facet normal 0 -0.794534624 -0.607218981
  outer loop
  vertex -0.00741957501 -0.0154324584 -0.0539140441
  vertex 0.00784682017 -0.0154324584 -0.0539140441
  vertex 0.00784682017 -0.0178484507 -0.0507527664
  endloop
 endfacet

 facet normal 0 -0.794534624 -0.607218981
  outer loop
  vertex -0.00741957501 -0.0154324584 -0.0539140441
  vertex 0.00784682017 -0.0178484507 -0.0507527664
  vertex -0.00741957501 -0.0178484507 -0.0507527664
  endloop
 endfacet

 facet normal -0.00101220503 -0.0522641502 -0.998632789
  outer loop
  vertex -0.00741957501 -0.00602744473 -0.0580931082
  vertex -0.00603189506 -0.00602744473 -0.0580945127
  vertex -0.00741957501 -0.00733990921 -0.0580244176
  endloop
 endfacet

 facet normal -0.00101336255 -0.0212062523 -0.999774635
  outer loop
  vertex -0.00741957501 -0.00602744473 -0.0580931082
  vertex -0.00741957501 -0.00186346017 -0.0581814274
  vertex -0.00603189506 -0.00602744473 -0.0580945127
  endloop
 endfacet

 facet normal 0 -0.0533313751 -0.99857682
  outer loop
  vertex -0.00741957501 -0.00733990921 -0.0580244176
  vertex -0.00603189506 -0.00602744473 -0.0580945127
  vertex 0.00645722868 -0.00602744473 -0.0580945127
  endloop
 endfacet

 facet normal 0 -0.0533313751 -0.99857682
  outer loop
  vertex -0.00741957501 -0.00733990921 -0.0580244176
  vertex 0.00645722868 -0.00602744473 -0.0580945127
  vertex 0.00645722868 -0.00733990921 -0.0580244176
  endloop
 endfacet

 facet normal 0.0152888699 -0.884624004 -0.466054291
  outer loop
  vertex 0.00784682017 -0.0182251241 -0.0500377975
  vertex 0.00784682017 -0.0178484507 -0.0507527664
  vertex 0.00857124291 -0.0178396218 -0.0507457592
  endloop
 endfacet

 facet normal 0.196328446 -0.931465745 -0.306311518
  outer loop
  vertex 0.00784682017 -0.0182251241 -0.0500377975
  vertex 0.00857124291 -0.0178396218 -0.0507457592
  vertex 0.00881016906 -0.0180220753 -0.0500377975
  endloop
 endfacet

 facet normal 0.196936935 -0.934352577 -0.296986759
  outer loop
  vertex 0.00784682017 -0.0182251241 -0.0500377975
  vertex 0.00881016906 -0.0180220753 -0.0500377975
  vertex 0.00884839613 -0.0194198787 -0.0456148088
  endloop
 endfacet

 facet normal 0.160550311 -0.943120003 -0.291115373
  outer loop
  vertex 0.00784682017 -0.0182251241 -0.0500377975
  vertex 0.00884839613 -0.0194198787 -0.0456148088
  vertex 0.00784682017 -0.0195228737 -0.0458335057
  endloop
 endfacet

 facet normal 0 -1 0
  outer loop
  vertex -0.00741957501 -0.0195228737 -0.0458335057
  vertex 0.00784682017 -0.0195228737 -0.0458335057
  vertex 0.00784682017 -0.0195228737 -0.0445914231
  endloop
 endfacet

 facet normal 0 -1 0
  outer loop
  vertex -0.00741957501 -0.0195228737 -0.0458335057
  vertex 0.00784682017 -0.0195228737 -0.0445914231
  vertex 0.00645722868 -0.0195228737 -0.0445802063
  endloop
 endfacet

 facet normal 0 -1 0
  outer loop
  vertex -0.00741957501 -0.0195228737 -0.0458335057
  vertex 0.00645722868 -0.0195228737 -0.0445802063
  vertex -0.00741957501 -0.0195228737 -0.0445802063
  endloop
 endfacet

 facet normal 0 -0.890302122 0.455370516
  outer loop
  vertex -0.00741957501 -0.0195228737 -0.0445802063
  vertex 0.00645722868 -0.0195228737 -0.0445802063
  vertex 0.00511924457 -0.0191550311 -0.0438610315
  endloop
 endfacet

 facet normal 0 -0.890302122 0.455370516
  outer loop
  vertex -0.00741957501 -0.0195228737 -0.0445802063
  vertex 0.00511924457 -0.0191550311 -0.0438610315
  vertex -0.00603189506 -0.0191550311 -0.0438610315
  endloop
 endfacet

 facet normal -0.00376290246 -0.887333572 0.461112827
  outer loop
  vertex -0.00741957501 -0.0195228737 -0.0445802063
  vertex -0.00603189506 -0.0191550311 -0.0438610315
  vertex -0.00741957501 -0.019149147 -0.0438610315
  endloop
 endfacet

 facet normal -0.989806354 0.124702856 0.0687935799
  outer loop
  vertex -0.00988337677 0.00785054173 -0.0438610315
  vertex -0.00971135031 0.00921597518 -0.0438610315
  vertex -0.00973428693 0.00932780001 -0.0443937555
  endloop
 endfacet

 facet normal -0.99442476 0.104745597 0.012158907
  outer loop
  vertex -0.00988337677 0.00785054173 -0.0438610315
  vertex -0.00973428693 0.00932780001 -0.0443937555
  vertex -0.009891022 0.00785054173 -0.0444862805
  endloop
 endfacet

 facet normal -0.998087049 0.0591856651 -0.0178694483
  outer loop
  vertex -0.009891022 0.00785054173 -0.0444862805
  vertex -0.00981647801 0.00785054173 -0.0486499183
  vertex -0.00989866816 0.00646450929 -0.0486499183
  endloop
 endfacet

 facet normal -0.99430126 0.106127053 -0.010106721
  outer loop
  vertex -0.009891022 0.00785054173 -0.0444862805
  vertex -0.00973428693 0.00932780001 -0.0443937555
  vertex -0.00971517246 0.00935428496 -0.0459961258
  endloop
 endfacet

 facet normal -0.994980752 0.0984681174 -0.0178138353
  outer loop
  vertex -0.009891022 0.00785054173 -0.0444862805
  vertex -0.00971517246 0.00935428496 -0.0459961258
  vertex -0.00981647801 0.00785054173 -0.0486499183
  endloop
 endfacet

 facet normal -0.998013735 0.0591813251 -0.0215899553
  outer loop
  vertex -0.00989866816 0.00646450929 -0.0486499183
  vertex -0.00981647801 0.00785054173 -0.0486499183
  vertex -0.009891022 0.00507553387 -0.0528107509
  endloop
 endfacet

 facet normal -0.999992371 0.00275097345 -0.00275592995
  outer loop
  vertex -0.00989866816 0.00646450929 -0.0486499183
  vertex -0.009891022 0.00507553387 -0.0528107509
  vertex -0.00989866816 0.00368655729 -0.0514228754
  endloop
 endfacet

 facet normal -0.992575109 0.108650222 -0.05467996
  outer loop
  vertex -0.009891022 0.00507553387 -0.0528107509
  vertex -0.00981647801 0.00785054173 -0.0486499183
  vertex -0.00974002108 0.00785054173 -0.0500377975
  endloop
 endfacet

 facet normal -0.988468826 0.130513474 -0.0767830238
  outer loop
  vertex -0.009891022 0.00507553387 -0.0528107509
  vertex -0.00974002108 0.00785054173 -0.0500377975
  vertex -0.00962151401 0.00874807872 -0.0500377975
  endloop
 endfacet

 facet normal -0.981566548 0.155709103 -0.110823333
  outer loop
  vertex -0.009891022 0.00507553387 -0.0528107509
  vertex -0.00962151401 0.00874807872 -0.0500377975
  vertex -0.00963298231 0.00604663836 -0.0537317991
  endloop
 endfacet

 facet normal -0.981572986 0.119070753 -0.149454743
  outer loop
  vertex -0.009891022 0.00507553387 -0.0528107509
  vertex -0.00963298231 0.00604663836 -0.0537317991
  vertex -0.00980500877 0.00230052415 -0.0555865131
  endloop
 endfacet

 facet normal -0.975125432 0.132686093 -0.17755276
  outer loop
  vertex -0.00980500877 0.00230052415 -0.0555865131
  vertex -0.00963298231 0.00604663836 -0.0537317991
  vertex -0.00964445062 0.00230052415 -0.0564683042
  endloop
 endfacet

 facet normal -0.972591341 0.139091581 -0.186332092
  outer loop
  vertex -0.00964445062 0.00230052415 -0.0564683042
  vertex -0.00963298231 0.00604663836 -0.0537317991
  vertex -0.00956034847 0.00305386726 -0.0563449375
  endloop
 endfacet

 facet normal -0.802904367 0.182561502 -0.567464471
  outer loop
  vertex -0.00964445062 0.00230052415 -0.0564683042
  vertex -0.00956034847 0.00305386726 -0.0563449375
  vertex -0.00962915923 -0.00186346017 -0.0578295551
  endloop
 endfacet

 facet normal -0.775170982 0.19251129 -0.601705432
  outer loop
  vertex -0.00962915923 -0.00186346017 -0.0578295551
  vertex -0.00956034847 0.00305386726 -0.0563449375
  vertex -0.00953932386 -0.00113365904 -0.057711795
  endloop
 endfacet

 facet normal -0.194739968 0.303474545 -0.932726979
  outer loop
  vertex -0.00953932386 -0.00113365904 -0.057711795
  vertex -0.00956034847 0.00305386726 -0.0563449375
  vertex -0.00880725496 0.00230052415 -0.0567472838
  endloop
 endfacet

 facet normal -0.0642985031 0.305746794 -0.949939251
  outer loop
  vertex -0.00880725496 0.00230052415 -0.0567472838
  vertex -0.00741957501 0.00230052415 -0.0568412133
  vertex -0.00741957501 -0.00186346017 -0.0581814274
  endloop
 endfacet

 facet normal -0.106805906 0.383225143 -0.917459011
  outer loop
  vertex -0.00880725496 0.00230052415 -0.0567472838
  vertex -0.00956034847 0.00305386726 -0.0563449375
  vertex -0.00880725496 0.00311272219 -0.0564080253
  endloop
 endfacet

 facet normal -0.0623358116 0.384680271 -0.920942664
  outer loop
  vertex -0.00880725496 0.00230052415 -0.0567472838
  vertex -0.00880725496 0.00311272219 -0.0564080253
  vertex -0.00741957501 0.00230052415 -0.0568412133
  endloop
 endfacet

 facet normal 0 0.306380779 -0.951909006
  outer loop
  vertex -0.00741957501 -0.00186346017 -0.0581814274
  vertex -0.00741957501 0.00230052415 -0.0568412133
  vertex 0.00784682017 0.00230052415 -0.0568412133
  endloop
 endfacet

 facet normal 0 0.306380779 -0.951909006
  outer loop
  vertex -0.00741957501 -0.00186346017 -0.0581814274
  vertex 0.00784682017 0.00230052415 -0.0568412133
  vertex 0.00784682017 -0.00186346017 -0.0581814274
  endloop
 endfacet

 facet normal 0 -0.0208687 -0.999782264
  outer loop
  vertex -0.00741957501 -0.00186346017 -0.0581814274
  vertex 0.00784682017 -0.00186346017 -0.0581814274
  vertex 0.00645722868 -0.00602744473 -0.0580945127
  endloop
 endfacet

 facet normal 0 -0.0208687 -0.999782264
  outer loop
  vertex -0.00741957501 -0.00186346017 -0.0581814274
  vertex 0.00645722868 -0.00602744473 -0.0580945127
  vertex -0.00603189506 -0.00602744473 -0.0580945127
  endloop
 endfacet

 facet normal 0.00126146665 -0.297825187 -0.954619706
  outer loop
  vertex 0.00784682017 -0.0115804048 -0.0566996187
  vertex 0.00645722868 -0.00733990921 -0.0580244176
  vertex 0.00784682017 -0.00733402371 -0.0580244176
  endloop
 endfacet

 facet normal 0.170843065 -0.293446839 -0.940585792
  outer loop
  vertex 0.00784682017 -0.0115804048 -0.0566996187
  vertex 0.00784682017 -0.00733402371 -0.0580244176
  vertex 0.00886177644 -0.00712508848 -0.0579052493
  endloop
 endfacet

 facet normal 0.206623599 -0.299156636 -0.931564271
  outer loop
  vertex 0.00784682017 -0.0115804048 -0.0566996187
  vertex 0.00886177644 -0.00712508848 -0.0579052493
  vertex 0.00879487768 -0.0115804048 -0.0564893372
  endloop
 endfacet

 facet normal 0.202958375 -0.348583519 -0.915039539
  outer loop
  vertex 0.00784682017 -0.0115804048 -0.0566996187
  vertex 0.00879487768 -0.0115804048 -0.0564893372
  vertex 0.00854257122 -0.01227195 -0.0562818572
  endloop
 endfacet

 facet normal 0.676922739 -0.426875114 -0.599627614
  outer loop
  vertex 0.00854257122 -0.01227195 -0.0562818572
  vertex 0.00879487768 -0.0115804048 -0.0564893372
  vertex 0.00885030814 -0.0153029785 -0.0537766591
  endloop
 endfacet

 facet normal 0.184318379 -0.614977181 -0.766700566
  outer loop
  vertex 0.00854257122 -0.01227195 -0.0562818572
  vertex 0.00885030814 -0.0153029785 -0.0537766591
  vertex 0.00784682017 -0.0154324584 -0.0539140441
  endloop
 endfacet

 facet normal 0.183347821 -0.76210773 -0.620947242
  outer loop
  vertex 0.00784682017 -0.0154324584 -0.0539140441
  vertex 0.00885030814 -0.0153029785 -0.0537766591
  vertex 0.00857124291 -0.0178396218 -0.0507457592
  endloop
 endfacet

 facet normal 0.0155547112 -0.794438481 -0.607145488
  outer loop
  vertex 0.00784682017 -0.0154324584 -0.0539140441
  vertex 0.00857124291 -0.0178396218 -0.0507457592
  vertex 0.00784682017 -0.0178484507 -0.0507527664
  endloop
 endfacet

 facet normal 0.000225890122 -0.0533313863 -0.998576939
  outer loop
  vertex 0.00645722868 -0.00733990921 -0.0580244176
  vertex 0.00645722868 -0.00602744473 -0.0580945127
  vertex 0.00784682017 -0.00733402371 -0.0580244176
  endloop
 endfacet

 facet normal 0.739334643 -0.548308909 -0.390821755
  outer loop
  vertex 0.00857124291 -0.0178396218 -0.0507457592
  vertex 0.00885030814 -0.0153029785 -0.0537766591
  vertex 0.00881016906 -0.0180220753 -0.0500377975
  endloop
 endfacet

 facet normal 0.881932378 -0.385675997 -0.271015644
  outer loop
  vertex 0.00881016906 -0.0180220753 -0.0500377975
  vertex 0.00885030814 -0.0153029785 -0.0537766591
  vertex 0.0092000952 -0.0171304233 -0.0500377975
  endloop
 endfacet

 facet normal 0.908040166 -0.397093117 -0.133342043
  outer loop
  vertex 0.00881016906 -0.0180220753 -0.0500377975
  vertex 0.0092000952 -0.0171304233 -0.0500377975
  vertex 0.00884839613 -0.0194198787 -0.0456148088
  endloop
 endfacet

 facet normal 0.102294408 -0.994754195 0
  outer loop
  vertex 0.00884839613 -0.0194198787 -0.0456148088
  vertex 0.00884839613 -0.0194198787 -0.044796098
  vertex 0.00784682017 -0.0195228737 -0.0445914231
  endloop
 endfacet

 facet normal 0.102294408 -0.994754195 0
  outer loop
  vertex 0.00884839613 -0.0194198787 -0.0456148088
  vertex 0.00784682017 -0.0195228737 -0.0445914231
  vertex 0.00784682017 -0.0195228737 -0.0458335057
  endloop
 endfacet

 facet normal 0.921737552 -0.369445175 -0.117941558
  outer loop
  vertex 0.00884839613 -0.0194198787 -0.0456148088
  vertex 0.0092000952 -0.0171304233 -0.0500377975
  vertex 0.00911216997 -0.0186400507 -0.0459961258
  endloop
 endfacet

 facet normal 0.946547389 -0.32252878 -0.00483140815
  outer loop
  vertex 0.00884839613 -0.0194198787 -0.0456148088
  vertex 0.00911216997 -0.0186400507 -0.0459961258
  vertex 0.00912937336 -0.0186135676 -0.0443937555
  endloop
 endfacet

 facet normal 0.944307446 -0.329064816 0
  outer loop
  vertex 0.00884839613 -0.0194198787 -0.0456148088
  vertex 0.00912937336 -0.0186135676 -0.0443937555
  vertex 0.00884839613 -0.0194198787 -0.044796098
  endloop
 endfacet

 facet normal 0.00369840371 -0.888817549 0.45824632
  outer loop
  vertex 0.00645722868 -0.0195228737 -0.0445802063
  vertex 0.00784682017 -0.0195228737 -0.0445914231
  vertex 0.00645722868 -0.01915209 -0.0438610315
  endloop
 endfacet

 facet normal 0.00195391825 -0.888821959 0.458248556
  outer loop
  vertex 0.00645722868 -0.0195228737 -0.0445802063
  vertex 0.00645722868 -0.01915209 -0.0438610315
  vertex 0.00511924457 -0.0191550311 -0.0438610315
  endloop
 endfacet

 facet normal -0.815262735 0.44461295 0.371033758
  outer loop
  vertex -0.00971135031 0.00921597518 -0.0438610315
  vertex -0.00937111955 0.00983983837 -0.0438610315
  vertex -0.00963298231 0.010139998 -0.044796098
  endloop
 endfacet

 facet normal -0.984115243 0.160419524 0.076045841
  outer loop
  vertex -0.00971135031 0.00921597518 -0.0438610315
  vertex -0.00963298231 0.010139998 -0.044796098
  vertex -0.00973428693 0.00932780001 -0.0443937555
  endloop
 endfacet

 facet normal -0.992310941 0.123770371 0
  outer loop
  vertex -0.00973428693 0.00932780001 -0.0443937555
  vertex -0.00963298231 0.010139998 -0.044796098
  vertex -0.00963298231 0.010139998 -0.0456148088
  endloop
 endfacet

 facet normal -0.994006097 0.108860627 -0.0100580165
  outer loop
  vertex -0.00973428693 0.00932780001 -0.0443937555
  vertex -0.00963298231 0.010139998 -0.0456148088
  vertex -0.00971517246 0.00935428496 -0.0459961258
  endloop
 endfacet

 facet normal -0.992610693 0.117853507 -0.0288888272
  outer loop
  vertex -0.00981647801 0.00785054173 -0.0486499183
  vertex -0.00971517246 0.00935428496 -0.0459961258
  vertex -0.00963298231 0.010139998 -0.0456148088
  endloop
 endfacet

 facet normal -0.988768578 0.141808838 -0.047191184
  outer loop
  vertex -0.00981647801 0.00785054173 -0.0486499183
  vertex -0.00963298231 0.010139998 -0.0456148088
  vertex -0.00962151401 0.00874807872 -0.0500377975
  endloop
 endfacet

 facet normal -0.989920437 0.130705148 -0.0545337163
  outer loop
  vertex -0.00981647801 0.00785054173 -0.0486499183
  vertex -0.00962151401 0.00874807872 -0.0500377975
  vertex -0.00974002108 0.00785054173 -0.0500377975
  endloop
 endfacet

 facet normal -0.500423431 0.825478911 -0.261076629
  outer loop
  vertex -0.00962151401 0.00874807872 -0.0500377975
  vertex -0.00963298231 0.010139998 -0.0456148088
  vertex -0.00952785555 0.00857740082 -0.0507569723
  endloop
 endfacet

 facet normal -0.948899984 0.256125629 -0.184359774
  outer loop
  vertex -0.00962151401 0.00874807872 -0.0500377975
  vertex -0.00952785555 0.00857740082 -0.0507569723
  vertex -0.00963298231 0.00604663836 -0.0537317991
  endloop
 endfacet

 facet normal -0.325177252 0.725912809 -0.606061339
  outer loop
  vertex -0.00963298231 0.00604663836 -0.0537317991
  vertex -0.00952785555 0.00857740082 -0.0507569723
  vertex -0.00880725496 0.00625851704 -0.0539210588
  endloop
 endfacet

 facet normal -0.322874606 0.618030727 -0.716791511
  outer loop
  vertex -0.00963298231 0.00604663836 -0.0537317991
  vertex -0.00880725496 0.00625851704 -0.0539210588
  vertex -0.00956034847 0.00305386726 -0.0563449375
  endloop
 endfacet

 facet normal -0.113445401 0.61616987 -0.779400289
  outer loop
  vertex -0.00956034847 0.00305386726 -0.0563449375
  vertex -0.00880725496 0.00625851704 -0.0539210588
  vertex -0.00880725496 0.00311272219 -0.0564080253
  endloop
 endfacet

 facet normal -0.0291821714 0.43112573 -0.901819825
  outer loop
  vertex -0.00741957501 0.00230052415 -0.0568412133
  vertex -0.00880725496 0.00311272219 -0.0564080253
  vertex -0.00741957501 0.00313920714 -0.0564402677
  endloop
 endfacet

 facet normal 0 0.431309462 -0.902204037
  outer loop
  vertex -0.00741957501 0.00230052415 -0.0568412133
  vertex -0.00741957501 0.00313920714 -0.0564402677
  vertex 0.00784682017 0.00313920714 -0.0564402677
  endloop
 endfacet

 facet normal 0 0.431309462 -0.902204037
  outer loop
  vertex -0.00741957501 0.00230052415 -0.0568412133
  vertex 0.00784682017 0.00313920714 -0.0564402677
  vertex 0.00784682017 0.00230052415 -0.0568412133
  endloop
 endfacet

 facet normal -0.0754570514 0.618405521 -0.782228172
  outer loop
  vertex -0.00880725496 0.00311272219 -0.0564080253
  vertex -0.00880725496 0.00625851704 -0.0539210588
  vertex -0.00741957501 0.00633208547 -0.0539967567
  endloop
 endfacet

 facet normal -0.0300373882 0.607473731 -0.793771684
  outer loop
  vertex -0.00880725496 0.00311272219 -0.0564080253
  vertex -0.00741957501 0.00633208547 -0.0539967567
  vertex -0.00741957501 0.00313920714 -0.0564402677
  endloop
 endfacet

 facet normal 0.196030945 0.300436288 -0.933439851
  outer loop
  vertex 0.00784682017 -0.00186346017 -0.0581814274
  vertex 0.00784682017 0.00230052415 -0.0568412133
  vertex 0.00868783891 -0.00109246082 -0.0577566549
  endloop
 endfacet

 facet normal 0.229764223 0.26526913 -0.936397731
  outer loop
  vertex 0.00784682017 -0.00186346017 -0.0581814274
  vertex 0.00868783891 -0.00109246082 -0.0577566549
  vertex 0.00889809243 -0.00186346017 -0.0579234771
  endloop
 endfacet

 facet normal 0.23829855 -0.00500909239 -0.971179128
  outer loop
  vertex 0.00784682017 -0.00186346017 -0.0581814274
  vertex 0.00889809243 -0.00186346017 -0.0579234771
  vertex 0.00886177644 -0.00712508848 -0.0579052493
  endloop
 endfacet

 facet normal 0.139776453 -0.0249947216 -0.989867628
  outer loop
  vertex 0.00784682017 -0.00186346017 -0.0581814274
  vertex 0.00886177644 -0.00712508848 -0.0579052493
  vertex 0.00784682017 -0.00602744473 -0.0580762848
  endloop
 endfacet

 facet normal 0.0131115653 -0.0252403524 -0.999595404
  outer loop
  vertex 0.00784682017 -0.00186346017 -0.0581814274
  vertex 0.00784682017 -0.00602744473 -0.0580762848
  vertex 0.00645722868 -0.00602744473 -0.0580945127
  endloop
 endfacet

 facet normal 0.0131054241 -0.0396630727 -0.99912715
  outer loop
  vertex 0.00784682017 -0.00733402371 -0.0580244176
  vertex 0.00645722868 -0.00602744473 -0.0580945127
  vertex 0.00784682017 -0.00602744473 -0.0580762848
  endloop
 endfacet

 facet normal 0.124507755 -0.0393578187 -0.991437674
  outer loop
  vertex 0.00784682017 -0.00733402371 -0.0580244176
  vertex 0.00784682017 -0.00602744473 -0.0580762848
  vertex 0.00886177644 -0.00712508848 -0.0579052493
  endloop
 endfacet

 facet normal 0.933465123 -0.10605894 -0.342628628
  outer loop
  vertex 0.00886177644 -0.00712508848 -0.0579052493
  vertex 0.0093281595 -0.00602744473 -0.0569743961
  vertex 0.00936447643 -0.0101914294 -0.0555865131
  endloop
 endfacet

 facet normal 0.918488145 -0.131451577 -0.372961253
  outer loop
  vertex 0.00886177644 -0.00712508848 -0.0579052493
  vertex 0.00936447643 -0.0101914294 -0.0555865131
  vertex 0.00916569028 -0.0115804048 -0.0555865131
  endloop
 endfacet

 facet normal 0.916745424 -0.133427784 -0.376530051
  outer loop
  vertex 0.00886177644 -0.00712508848 -0.0579052493
  vertex 0.00916569028 -0.0115804048 -0.0555865131
  vertex 0.00879487768 -0.0115804048 -0.0564893372
  endloop
 endfacet

 facet normal 0.882930934 -0.00772034936 -0.469439477
  outer loop
  vertex 0.00886177644 -0.00712508848 -0.0579052493
  vertex 0.00889809243 -0.00186346017 -0.0579234771
  vertex 0.00940270443 -0.00186346017 -0.0569743961
  endloop
 endfacet

 facet normal 0.901435018 -0.0161376782 -0.432613701
  outer loop
  vertex 0.00886177644 -0.00712508848 -0.0579052493
  vertex 0.00940270443 -0.00186346017 -0.0569743961
  vertex 0.0093281595 -0.00602744473 -0.0569743961
  endloop
 endfacet

 facet normal 0.894576311 -0.254425585 -0.367424667
  outer loop
  vertex 0.00879487768 -0.0115804048 -0.0564893372
  vertex 0.00916569028 -0.0115804048 -0.0555865131
  vertex 0.00885030814 -0.0153029785 -0.0537766591
  endloop
 endfacet

 facet normal 0.89509505 -0.253998458 -0.366455644
  outer loop
  vertex 0.00885030814 -0.0153029785 -0.0537766591
  vertex 0.00916569028 -0.0115804048 -0.0555865131
  vertex 0.00951547734 -0.0143524716 -0.0528107509
  endloop
 endfacet

 facet normal 0.895158052 -0.361686796 -0.26052779
  outer loop
  vertex 0.00885030814 -0.0153029785 -0.0537766591
  vertex 0.00951547734 -0.0143524716 -0.0528107509
  vertex 0.0092000952 -0.0171304233 -0.0500377975
  endloop
 endfacet

 facet normal 0.979176879 -0.187894315 -0.0768663734
  outer loop
  vertex 0.0092000952 -0.0171304233 -0.0500377975
  vertex 0.00951547734 -0.0143524716 -0.0528107509
  vertex 0.00952694565 -0.0171304233 -0.0458741598
  endloop
 endfacet

 facet normal 0.963050425 -0.258493066 -0.0756004229
  outer loop
  vertex 0.0092000952 -0.0171304233 -0.0500377975
  vertex 0.00952694565 -0.0171304233 -0.0458741598
  vertex 0.00911216997 -0.0186400507 -0.0459961258
  endloop
 endfacet

 facet normal 0.898396015 -0.401680917 0.177587092
  outer loop
  vertex 0.00884839613 -0.0194198787 -0.044796098
  vertex 0.00912937336 -0.0186135676 -0.0443937555
  vertex 0.00907011982 -0.0185105707 -0.0438610315
  endloop
 endfacet

 facet normal 0.355648607 -0.710786998 0.60687393
  outer loop
  vertex 0.00884839613 -0.0194198787 -0.044796098
  vertex 0.00907011982 -0.0185105707 -0.0438610315
  vertex 0.00784682017 -0.0191226602 -0.0438610315
  endloop
 endfacet

 facet normal 0.185125887 -0.861817122 0.472228497
  outer loop
  vertex 0.00884839613 -0.0194198787 -0.044796098
  vertex 0.00784682017 -0.0191226602 -0.0438610315
  vertex 0.00784682017 -0.0195228737 -0.0445914231
  endloop
 endfacet

 facet normal 0.964341402 -0.261843979 -0.0385152772
  outer loop
  vertex 0.00911216997 -0.0186400507 -0.0459961258
  vertex 0.00952694565 -0.0171304233 -0.0458741598
  vertex 0.00958237611 -0.0171304233 -0.0444862805
  endloop
 endfacet

 facet normal 0.956275105 -0.292418063 -0.0054335217
  outer loop
  vertex 0.00911216997 -0.0186400507 -0.0459961258
  vertex 0.00958237611 -0.0171304233 -0.0444862805
  vertex 0.00912937336 -0.0186135676 -0.0443937555
  endloop
 endfacet

 facet normal 0.956225097 -0.289328426 0.043847546
  outer loop
  vertex 0.00912937336 -0.0186135676 -0.0443937555
  vertex 0.00958237611 -0.0171304233 -0.0444862805
  vertex 0.00955370534 -0.0171304233 -0.0438610315
  endloop
 endfacet

 facet normal 0.930564106 -0.326057494 0.166544139
  outer loop
  vertex 0.00912937336 -0.0186135676 -0.0443937555
  vertex 0.00955370534 -0.0171304233 -0.0438610315
  vertex 0.00907011982 -0.0185105707 -0.0438610315
  endloop
 endfacet

 facet normal 0.0185700189 -0.876824558 0.480451763
  outer loop
  vertex 0.00784682017 -0.0195228737 -0.0445914231
  vertex 0.00784682017 -0.0191226602 -0.0438610315
  vertex 0.00645722868 -0.01915209 -0.0438610315
  endloop
 endfacet

 facet normal -0.696510494 0.603163719 0.388672918
  outer loop
  vertex -0.00937111955 0.00983983837 -0.0438610315
  vertex -0.00936347432 0.00984866638 -0.0438610315
  vertex -0.00963298231 0.010139998 -0.044796098
  endloop
 endfacet

 facet normal -0.343099594 0.889297664 0.30237782
  outer loop
  vertex -0.00963298231 0.010139998 -0.044796098
  vertex -0.00869448297 0.010184139 -0.0438610315
  vertex -0.00886650942 0.0102989059 -0.0443937555
  endloop
 endfacet

 facet normal -0.203006595 0.979177415 0
  outer loop
  vertex -0.00963298231 0.010139998 -0.044796098
  vertex -0.00886650942 0.0102989059 -0.0443937555
  vertex -0.00963298231 0.010139998 -0.0456148088
  endloop
 endfacet

 facet normal -0.415085196 0.827751875 0.377532959
  outer loop
  vertex -0.00963298231 0.010139998 -0.044796098
  vertex -0.00936347432 0.00984866638 -0.0438610315
  vertex -0.00869448297 0.010184139 -0.0438610315
  endloop
 endfacet

 facet normal -0.343521804 0.896595716 -0.279479861
  outer loop
  vertex -0.00963298231 0.010139998 -0.0456148088
  vertex -0.00880725496 0.00907766726 -0.0500377975
  vertex -0.00952785555 0.00857740082 -0.0507569723
  endloop
 endfacet

 facet normal -0.18779324 0.982158303 -0.00993755274
  outer loop
  vertex -0.00963298231 0.010139998 -0.0456148088
  vertex -0.00886650942 0.0102989059 -0.0443937555
  vertex -0.00888944604 0.0102783069 -0.0459961258
  endloop
 endfacet

 facet normal -0.310929358 0.909337878 -0.276455611
  outer loop
  vertex -0.00963298231 0.010139998 -0.0456148088
  vertex -0.00888944604 0.0102783069 -0.0459961258
  vertex -0.00880725496 0.00907766726 -0.0500377975
  endloop
 endfacet

 facet normal -0.0911017358 0.793220937 -0.602080762
  outer loop
  vertex -0.00952785555 0.00857740082 -0.0507569723
  vertex -0.00880725496 0.00863036886 -0.0507962219
  vertex -0.00880725496 0.00625851704 -0.0539210588
  endloop
 endfacet

 facet normal -0.0906113759 0.857812166 -0.50591284
  outer loop
  vertex -0.00952785555 0.00857740082 -0.0507569723
  vertex -0.00880725496 0.00907766726 -0.0500377975
  vertex -0.00880725496 0.00863036886 -0.0507962219
  endloop
 endfacet

 facet normal -0.0749984533 0.794289947 -0.602892041
  outer loop
  vertex -0.00880725496 0.00625851704 -0.0539210588
  vertex -0.00880725496 0.00863036886 -0.0507962219
  vertex -0.00741957501 0.00633208547 -0.0539967567
  endloop
 endfacet

 facet normal 0.0773571283 0.430017054 -0.899500549
  outer loop
  vertex 0.00784682017 0.00230052415 -0.0568412133
  vertex 0.00784682017 0.00313920714 -0.0564402677
  vertex 0.00872797798 0.0030921232 -0.0563869998
  endloop
 endfacet

 facet normal 0.207772359 0.302481711 -0.930234134
  outer loop
  vertex 0.00784682017 0.00230052415 -0.0568412133
  vertex 0.00872797798 0.0030921232 -0.0563869998
  vertex 0.00868783891 -0.00109246082 -0.0577566549
  endloop
 endfacet

 facet normal 0 0.607747912 -0.794130027
  outer loop
  vertex -0.00741957501 0.00313920714 -0.0564402677
  vertex -0.00741957501 0.00633208547 -0.0539967567
  vertex 0.00784682017 0.00633208547 -0.0539967567
  endloop
 endfacet

 facet normal 0 0.607747912 -0.794130027
  outer loop
  vertex -0.00741957501 0.00313920714 -0.0564402677
  vertex 0.00784682017 0.00633208547 -0.0539967567
  vertex 0.00784682017 0.00313920714 -0.0564402677
  endloop
 endfacet

 facet normal -0.0307481997 0.805519998 -0.591770411
  outer loop
  vertex -0.00741957501 0.00633208547 -0.0539967567
  vertex -0.00880725496 0.00863036886 -0.0507962219
  vertex -0.00741957501 0.00866273977 -0.0508242622
  endloop
 endfacet

 facet normal 0 0.805900991 -0.592050314
  outer loop
  vertex -0.00741957501 0.00633208547 -0.0539967567
  vertex -0.00741957501 0.00866273977 -0.0508242622
  vertex 0.00784682017 0.00866273977 -0.0508242622
  endloop
 endfacet

 facet normal 0 0.805900991 -0.592050314
  outer loop
  vertex -0.00741957501 0.00633208547 -0.0539967567
  vertex 0.00784682017 0.00866273977 -0.0508242622
  vertex 0.00784682017 0.00633208547 -0.0539967567
  endloop
 endfacet

 facet normal 0.350217432 0.28833431 -0.891185224
  outer loop
  vertex 0.00868783891 -0.00109246082 -0.0577566549
  vertex 0.00872797798 0.0030921232 -0.0563869998
  vertex 0.00889809243 -0.00186346017 -0.0579234771
  endloop
 endfacet

 facet normal 0.372456998 0.28647536 -0.882727385
  outer loop
  vertex 0.00889809243 -0.00186346017 -0.0579234771
  vertex 0.00872797798 0.0030921232 -0.0563869998
  vertex 0.00892485306 0.00230052415 -0.0565608293
  endloop
 endfacet

 facet normal 0.873449087 0.146359116 -0.464398205
  outer loop
  vertex 0.00889809243 -0.00186346017 -0.0579234771
  vertex 0.00892485306 0.00230052415 -0.0565608293
  vertex 0.00940270443 -0.00186346017 -0.0569743961
  endloop
 endfacet

 facet normal 0.980457962 -0.0544574261 -0.189041167
  outer loop
  vertex 0.0093281595 -0.00602744473 -0.0569743961
  vertex 0.00959575642 -0.00602744473 -0.0555865131
  vertex 0.00936447643 -0.0101914294 -0.0555865131
  endloop
 endfacet

 facet normal 0.981763363 -0.0175757371 -0.189292833
  outer loop
  vertex 0.0093281595 -0.00602744473 -0.0569743961
  vertex 0.00940270443 -0.00186346017 -0.0569743961
  vertex 0.00959575642 -0.00602744473 -0.0555865131
  endloop
 endfacet

 facet normal 0.98896867 -0.0549301356 -0.137564003
  outer loop
  vertex 0.00936447643 -0.0101914294 -0.0555865131
  vertex 0.00959575642 -0.00602744473 -0.0555865131
  vertex 0.00955752842 -0.0101914294 -0.0541986339
  endloop
 endfacet

 facet normal 0.988916636 -0.0558749251 -0.137556776
  outer loop
  vertex 0.00936447643 -0.0101914294 -0.0555865131
  vertex 0.00955752842 -0.0101914294 -0.0541986339
  vertex 0.00951547734 -0.0143524716 -0.0528107509
  endloop
 endfacet

 facet normal 0.956593037 -0.136905029 -0.257267684
  outer loop
  vertex 0.00936447643 -0.0101914294 -0.0555865131
  vertex 0.00951547734 -0.0143524716 -0.0528107509
  vertex 0.00916569028 -0.0115804048 -0.0555865131
  endloop
 endfacet

 facet normal 0.897957742 0.144338787 -0.415738195
  outer loop
  vertex 0.00940270443 -0.00186346017 -0.0569743961
  vertex 0.00892485306 0.00230052415 -0.0565608293
  vertex 0.00937594473 0.00230052415 -0.0555865131
  endloop
 endfacet

 facet normal 0.991665244 0.0464310013 -0.120184243
  outer loop
  vertex 0.00940270443 -0.00186346017 -0.0569743961
  vertex 0.00937594473 0.00230052415 -0.0555865131
  vertex 0.0095709078 -0.00186346017 -0.0555865131
  endloop
 endfacet

 facet normal 0.992718458 0.00592395198 -0.120311901
  outer loop
  vertex 0.00940270443 -0.00186346017 -0.0569743961
  vertex 0.0095709078 -0.00186346017 -0.0555865131
  vertex 0.00959575642 -0.00602744473 -0.0555865131
  endloop
 endfacet

 facet normal 0.99872309 -0.0247781109 -0.0440275632
  outer loop
  vertex 0.00951547734 -0.0143524716 -0.0528107509
  vertex 0.00955752842 -0.0101914294 -0.0541986339
  vertex 0.00961104687 -0.0129664382 -0.0514228754
  endloop
 endfacet

 facet normal 0.998762906 -0.0416286439 -0.0272021573
  outer loop
  vertex 0.00951547734 -0.0143524716 -0.0528107509
  vertex 0.00961104687 -0.0129664382 -0.0514228754
  vertex 0.0095709078 -0.015741447 -0.0486499183
  endloop
 endfacet

 facet normal 0.982569098 -0.172007143 -0.0705095232
  outer loop
  vertex 0.00951547734 -0.0143524716 -0.0528107509
  vertex 0.0095709078 -0.015741447 -0.0486499183
  vertex 0.00952694565 -0.0171304233 -0.0458741598
  endloop
 endfacet

 facet normal 0.993062854 -0.110693716 -0.0396623984
  outer loop
  vertex 0.00952694565 -0.0171304233 -0.0458741598
  vertex 0.0095709078 -0.015741447 -0.0486499183
  vertex 0.00958237611 -0.0171304233 -0.0444862805
  endloop
 endfacet

 facet normal 0.999505997 -0.0288844835 -0.0123888459
  outer loop
  vertex 0.00958237611 -0.0171304233 -0.0444862805
  vertex 0.0095709078 -0.015741447 -0.0486499183
  vertex 0.00962825026 -0.0143524716 -0.047262039
  endloop
 endfacet

 facet normal 0.999611974 -0.0261361897 -0.00963663124
  outer loop
  vertex 0.00958237611 -0.0171304233 -0.0444862805
  vertex 0.00962825026 -0.0143524716 -0.047262039
  vertex 0.00961869303 -0.015741447 -0.0444862805
  endloop
 endfacet

 facet normal 0.999639809 -0.026136918 0.00611133501
  outer loop
  vertex 0.00958237611 -0.0171304233 -0.0444862805
  vertex 0.00961869303 -0.015741447 -0.0444862805
  vertex 0.00961487088 -0.015741447 -0.0438610315
  endloop
 endfacet

 facet normal 0.997985244 -0.0439471714 0.0457624495
  outer loop
  vertex 0.00958237611 -0.0171304233 -0.0444862805
  vertex 0.00961487088 -0.015741447 -0.0438610315
  vertex 0.00955370534 -0.0171304233 -0.0438610315
  endloop
 endfacet

 facet normal -0.142816186 0.957052112 0.25229919
  outer loop
  vertex -0.00869448297 0.010184139 -0.0438610315
  vertex -0.007885959 0.0103047909 -0.0438610315
  vertex -0.00886650942 0.0102989059 -0.0443937555
  endloop
 endfacet

 facet normal -0.14176248 0.957719862 0.250352293
  outer loop
  vertex -0.00886650942 0.0102989059 -0.0443937555
  vertex -0.007885959 0.0103047909 -0.0438610315
  vertex -0.00741957501 0.0105372686 -0.0444862805
  endloop
 endfacet

 facet normal -0.163181111 0.986541927 -0.0103462115
  outer loop
  vertex -0.00886650942 0.0102989059 -0.0443937555
  vertex -0.00741957501 0.0105372686 -0.0444862805
  vertex -0.00888944604 0.0102783069 -0.0459961258
  endloop
 endfacet

 facet normal -0.113541573 0.951765478 -0.285045385
  outer loop
  vertex -0.00880725496 0.00907766726 -0.0500377975
  vertex -0.00888944604 0.0102783069 -0.0459961258
  vertex -0.00741957501 0.0104901846 -0.0458741598
  endloop
 endfacet

 facet normal -0.0847757235 0.951835394 -0.294656307
  outer loop
  vertex -0.00880725496 0.00907766726 -0.0500377975
  vertex -0.00741957501 0.0104901846 -0.0458741598
  vertex -0.00741957501 0.00920126215 -0.0500377975
  endloop
 endfacet

 facet normal -0.0764923096 0.858832002 -0.506514251
  outer loop
  vertex -0.00880725496 0.00907766726 -0.0500377975
  vertex -0.00741957501 0.00920126215 -0.0500377975
  vertex -0.00880725496 0.00863036886 -0.0507962219
  endloop
 endfacet

 facet normal -0.139862403 0.989601731 -0.033572346
  outer loop
  vertex -0.00888944604 0.0102783069 -0.0459961258
  vertex -0.00741957501 0.0105372686 -0.0444862805
  vertex -0.00741957501 0.0104901846 -0.0458741598
  endloop
 endfacet

 facet normal -0.0306493174 0.82471776 -0.564713538
  outer loop
  vertex -0.00880725496 0.00863036886 -0.0507962219
  vertex -0.00741957501 0.00920126215 -0.0500377975
  vertex -0.00741957501 0.00866273977 -0.0508242622
  endloop
 endfacet

 facet normal 0.0802244097 0.605789065 -0.791570365
  outer loop
  vertex 0.00784682017 0.00313920714 -0.0564402677
  vertex 0.00784682017 0.00633208547 -0.0539967567
  vertex 0.00872797798 0.0030921232 -0.0563869998
  endloop
 endfacet

 facet normal 0.231693715 0.617530823 -0.751647413
  outer loop
  vertex 0.00872797798 0.0030921232 -0.0563869998
  vertex 0.00784682017 0.00633208547 -0.0539967567
  vertex 0.00888089091 0.00614374969 -0.0538327396
  endloop
 endfacet

 facet normal 0.857416332 0.304369152 -0.414965957
  outer loop
  vertex 0.00872797798 0.0030921232 -0.0563869998
  vertex 0.00888089091 0.00614374969 -0.0538327396
  vertex 0.00892485306 0.00230052415 -0.0565608293
  endloop
 endfacet

 facet normal 0.234539658 0.761192977 -0.604629219
  outer loop
  vertex 0.00784682017 0.00633208547 -0.0539967567
  vertex 0.0086649023 0.00862448476 -0.0507934242
  vertex 0.00888089091 0.00614374969 -0.0538327396
  endloop
 endfacet

 facet normal 0.0598978698 0.804454029 -0.590987325
  outer loop
  vertex 0.00784682017 0.00633208547 -0.0539967567
  vertex 0.00784682017 0.00866273977 -0.0508242622
  vertex 0.0086649023 0.00862448476 -0.0507934242
  endloop
 endfacet

 facet normal 0 0.825105369 -0.564978957
  outer loop
  vertex -0.00741957501 0.00866273977 -0.0508242622
  vertex -0.00741957501 0.00920126215 -0.0500377975
  vertex 0.00784682017 0.00920126215 -0.0500377975
  endloop
 endfacet

 facet normal 0 0.825105369 -0.564978957
  outer loop
  vertex -0.00741957501 0.00866273977 -0.0508242622
  vertex 0.00784682017 0.00920126215 -0.0500377975
  vertex 0.00784682017 0.00866273977 -0.0508242622
  endloop
 endfacet

 facet normal 0.867106915 0.294889182 -0.401454806
  outer loop
  vertex 0.00892485306 0.00230052415 -0.0565608293
  vertex 0.00888089091 0.00614374969 -0.0538327396
  vertex 0.00937594473 0.00230052415 -0.0555865131
  endloop
 endfacet

 facet normal 0.999803305 -0.00853754953 -0.017900195
  outer loop
  vertex 0.00959575642 -0.00602744473 -0.0555865131
  vertex 0.00962060411 -0.00602744473 -0.0541986339
  vertex 0.00961104687 -0.0129664382 -0.0514228754
  endloop
 endfacet

 facet normal 0.998817384 -0.0233786479 -0.0426302999
  outer loop
  vertex 0.00959575642 -0.00602744473 -0.0555865131
  vertex 0.00961104687 -0.0129664382 -0.0514228754
  vertex 0.00955752842 -0.0101914294 -0.0541986339
  endloop
 endfacet

 facet normal 0.999257267 0.0059629716 -0.0380703285
  outer loop
  vertex 0.00959575642 -0.00602744473 -0.0555865131
  vertex 0.0095709078 -0.00186346017 -0.0555865131
  vertex 0.00960722473 0.000911548792 -0.0541986339
  endloop
 endfacet

 facet normal 0.999837875 0.00192787894 -0.0179008134
  outer loop
  vertex 0.00959575642 -0.00602744473 -0.0555865131
  vertex 0.00960722473 0.000911548792 -0.0541986339
  vertex 0.00962060411 -0.00602744473 -0.0541986339
  endloop
 endfacet

 facet normal 0.991830945 0.0464387611 -0.118805781
  outer loop
  vertex 0.00937594473 0.00230052415 -0.0555865131
  vertex 0.00960722473 0.000911548792 -0.0541986339
  vertex 0.0095709078 -0.00186346017 -0.0555865131
  endloop
 endfacet

 facet normal 0.917237699 0.257023662 -0.304325283
  outer loop
  vertex 0.00937594473 0.00230052415 -0.0555865131
  vertex 0.00888089091 0.00614374969 -0.0538327396
  vertex 0.00951930042 0.00507553387 -0.0528107509
  endloop
 endfacet

 facet normal 0.992480636 0.057051383 -0.108293042
  outer loop
  vertex 0.00937594473 0.00230052415 -0.0555865131
  vertex 0.00951930042 0.00507553387 -0.0528107509
  vertex 0.00960722473 0.000911548792 -0.0541986339
  endloop
 endfacet

 facet normal 0.999521732 -0.0278612264 -0.0134135624
  outer loop
  vertex 0.00961104687 -0.0129664382 -0.0514228754
  vertex 0.00962825026 -0.0143524716 -0.047262039
  vertex 0.0095709078 -0.015741447 -0.0486499183
  endloop
 endfacet

 facet normal 0.999958634 -0.00453153905 -0.00788522232
  outer loop
  vertex 0.00961104687 -0.0129664382 -0.0514228754
  vertex 0.00962060411 -0.00602744473 -0.0541986339
  vertex 0.00962825026 -0.0115804048 -0.0500377975
  endloop
 endfacet

 facet normal 0.999961495 -0.00621194718 -0.00620369148
  outer loop
  vertex 0.00961104687 -0.0129664382 -0.0514228754
  vertex 0.00962825026 -0.0115804048 -0.0500377975
  vertex 0.00962825026 -0.0143524716 -0.047262039
  endloop
 endfacet

 facet normal 0.999976337 -0.00688061956 0
  outer loop
  vertex 0.00962825026 -0.0143524716 -0.047262039
  vertex 0.00962825026 -0.0143524716 -0.0438610315
  vertex 0.00961869303 -0.015741447 -0.0444862805
  endloop
 endfacet

 facet normal 1 0 0
  outer loop
  vertex 0.00962825026 -0.0143524716 -0.047262039
  vertex 0.00962825026 -0.0115804048 -0.0500377975
  vertex 0.00962825026 -0.00602744473 -0.0528107509
  endloop
 endfacet

 facet normal 1 0 0
  outer loop
  vertex 0.00962825026 -0.0143524716 -0.047262039
  vertex 0.00962825026 -0.00602744473 -0.0528107509
  vertex 0.00962825026 0.000911548792 -0.0528107509
  endloop
 endfacet

 facet normal 1 0 0
  outer loop
  vertex 0.00962825026 -0.0143524716 -0.047262039
  vertex 0.00962825026 0.000911548792 -0.0528107509
  vertex 0.00962825026 0.00507553387 -0.047262039
  endloop
 endfacet

 facet normal 1 0 0
  outer loop
  vertex 0.00962825026 -0.0143524716 -0.047262039
  vertex 0.00962825026 0.00507553387 -0.047262039
  vertex 0.00962825026 0.00507553387 -0.0438610315
  endloop
 endfacet

 facet normal 1 0 0
  outer loop
  vertex 0.00962825026 -0.0143524716 -0.047262039
  vertex 0.00962825026 0.00507553387 -0.0438610315
  vertex 0.00962825026 -0.0143524716 -0.0438610315
  endloop
 endfacet

 facet normal 0.999934852 -0.00963216927 0.00611313898
  outer loop
  vertex 0.00961869303 -0.015741447 -0.0444862805
  vertex 0.00962825026 -0.0143524716 -0.0438610315
  vertex 0.00961487088 -0.015741447 -0.0438610315
  endloop
 endfacet

 facet normal -0.0780949518 0.952070177 0.295742393
  outer loop
  vertex -0.007885959 0.0103047909 -0.0438610315
  vertex -0.00741957501 0.0103430469 -0.0438610315
  vertex -0.00741957501 0.0105372686 -0.0444862805
  endloop
 endfacet

 facet normal -0.00211911881 0.999422789 -0.0339055285
  outer loop
  vertex -0.00741957501 0.0105372686 -0.0444862805
  vertex -0.00603189506 0.0105402106 -0.0444862805
  vertex -0.00741957501 0.0104901846 -0.0458741598
  endloop
 endfacet

 facet normal -0.00368437869 0.954980314 0.296646357
  outer loop
  vertex -0.00741957501 0.0105372686 -0.0444862805
  vertex -0.00741957501 0.0103430469 -0.0438610315
  vertex -0.00665692473 0.0103459898 -0.0438610315
  endloop
 endfacet

 facet normal -0.00202610786 0.95555681 0.294800043
  outer loop
  vertex -0.00741957501 0.0105372686 -0.0444862805
  vertex -0.00665692473 0.0103459898 -0.0438610315
  vertex -0.00603189506 0.0105402106 -0.0444862805
  endloop
 endfacet

 facet normal 0 0.999351025 -0.0360217541
  outer loop
  vertex -0.00741957501 0.0104901846 -0.0458741598
  vertex -0.00603189506 0.0105402106 -0.0444862805
  vertex 0.00645722868 0.0105402106 -0.0444862805
  endloop
 endfacet

 facet normal 0 0.999351025 -0.0360217541
  outer loop
  vertex -0.00741957501 0.0104901846 -0.0458741598
  vertex 0.00645722868 0.0105402106 -0.0444862805
  vertex 0.00645722868 0.0104901846 -0.0458741598
  endloop
 endfacet

 facet normal 0 0.955274343 -0.295720905
  outer loop
  vertex -0.00741957501 0.0104901846 -0.0458741598
  vertex 0.00645722868 0.0104901846 -0.0458741598
  vertex 0.00784682017 0.00920126215 -0.0500377975
  endloop
 endfacet

 facet normal 0 0.955274343 -0.295720905
  outer loop
  vertex -0.00741957501 0.0104901846 -0.0458741598
  vertex 0.00784682017 0.00920126215 -0.0500377975
  vertex -0.00741957501 0.00920126215 -0.0500377975
  endloop
 endfacet

 facet normal 0.714152038 0.566290319 -0.41146329
  outer loop
  vertex 0.00888089091 0.00614374969 -0.0538327396
  vertex 0.0086649023 0.00862448476 -0.0507934242
  vertex 0.00890191644 0.00887461752 -0.0500377975
  endloop
 endfacet

 facet normal 0.89114356 0.365923852 -0.268258721
  outer loop
  vertex 0.00888089091 0.00614374969 -0.0538327396
  vertex 0.00890191644 0.00887461752 -0.0500377975
  vertex 0.00932242535 0.00785054173 -0.0500377975
  endloop
 endfacet

 facet normal 0.917422533 0.311942369 -0.247037828
  outer loop
  vertex 0.00888089091 0.00614374969 -0.0538327396
  vertex 0.00932242535 0.00785054173 -0.0500377975
  vertex 0.00951930042 0.00507553387 -0.0528107509
  endloop
 endfacet

 facet normal 0.059776023 0.823629916 -0.563968599
  outer loop
  vertex 0.0086649023 0.00862448476 -0.0507934242
  vertex 0.00784682017 0.00866273977 -0.0508242622
  vertex 0.00784682017 0.00920126215 -0.0500377975
  endloop
 endfacet

 facet normal 0.273730397 0.884179294 -0.378548086
  outer loop
  vertex 0.0086649023 0.00862448476 -0.0507934242
  vertex 0.00784682017 0.00920126215 -0.0500377975
  vertex 0.00890191644 0.00887461752 -0.0500377975
  endloop
 endfacet

 facet normal 0.999981105 -0.00275100442 -0.00550900167
  outer loop
  vertex 0.00962060411 -0.00602744473 -0.0541986339
  vertex 0.00962825026 -0.00602744473 -0.0528107509
  vertex 0.00962825026 -0.0115804048 -0.0500377975
  endloop
 endfacet

 facet normal 0.999883413 0.0019279666 -0.0151477177
  outer loop
  vertex 0.00962060411 -0.00602744473 -0.0541986339
  vertex 0.00960722473 0.000911548792 -0.0541986339
  vertex 0.00962825026 0.000911548792 -0.0528107509
  endloop
 endfacet

 facet normal 0.99998486 0 -0.00550902262
  outer loop
  vertex 0.00962060411 -0.00602744473 -0.0541986339
  vertex 0.00962825026 0.000911548792 -0.0528107509
  vertex 0.00962825026 -0.00602744473 -0.0528107509
  endloop
 endfacet

 facet normal 0.999181092 0.0301087555 -0.0270341169
  outer loop
  vertex 0.00960722473 0.000911548792 -0.0541986339
  vertex 0.00951930042 0.00507553387 -0.0528107509
  vertex 0.00959002227 0.00646450929 -0.0486499183
  endloop
 endfacet

 facet normal 0.999719083 0.0182306208 -0.0151452273
  outer loop
  vertex 0.00960722473 0.000911548792 -0.0541986339
  vertex 0.00959002227 0.00646450929 -0.0486499183
  vertex 0.00962825026 0.000911548792 -0.0528107509
  endloop
 endfacet

 facet normal 0.983544648 0.157759473 -0.0880462527
  outer loop
  vertex 0.00951930042 0.00507553387 -0.0528107509
  vertex 0.00932242535 0.00785054173 -0.0500377975
  vertex 0.00944666751 0.00785054173 -0.0486499183
  endloop
 endfacet

 facet normal 0.993390024 0.102744862 -0.0511831753
  outer loop
  vertex 0.00951930042 0.00507553387 -0.0528107509
  vertex 0.00944666751 0.00785054173 -0.0486499183
  vertex 0.00959002227 0.00646450929 -0.0486499183
  endloop
 endfacet

 facet normal 0 0.954986751 0.296648383
  outer loop
  vertex -0.00603189506 0.0105402106 -0.0444862805
  vertex -0.00665692473 0.0103459898 -0.0438610315
  vertex 0.00645722868 0.0103459898 -0.0438610315
  endloop
 endfacet

 facet normal 0 0.954986751 0.296648383
  outer loop
  vertex -0.00603189506 0.0105402106 -0.0444862805
  vertex 0.00645722868 0.0103459898 -0.0438610315
  vertex 0.00645722868 0.0105402106 -0.0444862805
  endloop
 endfacet

 facet normal 0.0105811488 0.999294996 -0.0360197313
  outer loop
  vertex 0.00645722868 0.0104901846 -0.0458741598
  vertex 0.00645722868 0.0105402106 -0.0444862805
  vertex 0.00784682017 0.0104754707 -0.0458741598
  endloop
 endfacet

 facet normal 0.0101245679 0.956175029 -0.292620718
  outer loop
  vertex 0.00645722868 0.0104901846 -0.0458741598
  vertex 0.00784682017 0.0104754707 -0.0458741598
  vertex 0.00784682017 0.00920126215 -0.0500377975
  endloop
 endfacet

 facet normal 0.256711602 0.924179077 -0.282828897
  outer loop
  vertex 0.00784682017 0.00920126215 -0.0500377975
  vertex 0.00784682017 0.0104754707 -0.0458741598
  vertex 0.00884266291 0.010198853 -0.0458741598
  endloop
 endfacet

 facet normal 0.283296645 0.915079236 -0.287007153
  outer loop
  vertex 0.00784682017 0.00920126215 -0.0500377975
  vertex 0.00884266291 0.010198853 -0.0458741598
  vertex 0.00890191644 0.00887461752 -0.0500377975
  endloop
 endfacet

 facet normal 0.878565788 0.458625019 -0.133361548
  outer loop
  vertex 0.00890191644 0.00887461752 -0.0500377975
  vertex 0.00884266291 0.010198853 -0.0458741598
  vertex 0.00934345089 0.00923951715 -0.0458741598
  endloop
 endfacet

 facet normal 0.917167246 0.376609772 -0.130267262
  outer loop
  vertex 0.00890191644 0.00887461752 -0.0500377975
  vertex 0.00934345089 0.00923951715 -0.0458741598
  vertex 0.00932242535 0.00785054173 -0.0500377975
  endloop
 endfacet

 facet normal 0.965776443 0.244542822 -0.0864556581
  outer loop
  vertex 0.00932242535 0.00785054173 -0.0500377975
  vertex 0.00934345089 0.00923951715 -0.0458741598
  vertex 0.00944666751 0.00785054173 -0.0486499183
  endloop
 endfacet

 facet normal 0.999806762 0.0157253817 -0.0118009839
  outer loop
  vertex 0.00962825026 0.000911548792 -0.0528107509
  vertex 0.00959002227 0.00646450929 -0.0486499183
  vertex 0.00962825026 0.00507553387 -0.047262039
  endloop
 endfacet

 facet normal 0.994014144 0.102809399 -0.036962159
  outer loop
  vertex 0.00959002227 0.00646450929 -0.0486499183
  vertex 0.00944666751 0.00785054173 -0.0486499183
  vertex 0.00960149057 0.00785054173 -0.0444862805
  endloop
 endfacet

 facet normal 0.99978745 0.0185834747 -0.00894009974
  outer loop
  vertex 0.00959002227 0.00646450929 -0.0486499183
  vertex 0.00960149057 0.00785054173 -0.0444862805
  vertex 0.00962825026 0.00507553387 -0.047262039
  endloop
 endfacet

 facet normal 0.988467097 0.146907836 -0.0367558897
  outer loop
  vertex 0.00944666751 0.00785054173 -0.0486499183
  vertex 0.00934345089 0.00923951715 -0.0458741598
  vertex 0.00960149057 0.00785054173 -0.0444862805
  endloop
 endfacet

 facet normal 0.99999696 0.0025076184 0
  outer loop
  vertex 0.00962825026 0.00507553387 -0.0438610315
  vertex 0.00962825026 0.00507553387 -0.047262039
  vertex 0.00962633919 0.00583770452 -0.0438610315
  endloop
 endfacet

 facet normal 0.0190483686 0.999439061 -0.0275487807
  outer loop
  vertex 0.00645722868 0.0105402106 -0.0444862805
  vertex 0.00784682017 0.0105137266 -0.0444862805
  vertex 0.00784682017 0.0104754707 -0.0458741598
  endloop
 endfacet

 facet normal 0.0181981381 0.95482868 0.296599269
  outer loop
  vertex 0.00645722868 0.0105402106 -0.0444862805
  vertex 0.00645722868 0.0103459898 -0.0438610315
  vertex 0.00784682017 0.0105137266 -0.0444862805
  endloop
 endfacet

 facet normal 0.0183720198 0.954714715 0.296955198
  outer loop
  vertex 0.00645722868 0.0103459898 -0.0438610315
  vertex 0.0072217905 0.0103312768 -0.0438610315
  vertex 0.00784682017 0.0105137266 -0.0444862805
  endloop
 endfacet

 facet normal 0.267544866 0.963179588 -0.0265493151
  outer loop
  vertex 0.00784682017 0.0104754707 -0.0458741598
  vertex 0.00784682017 0.0105137266 -0.0444862805
  vertex 0.00884266291 0.010198853 -0.0458741598
  endloop
 endfacet

 facet normal 0.286128402 0.958115339 -0.0120661547
  outer loop
  vertex 0.00884266291 0.010198853 -0.0458741598
  vertex 0.00784682017 0.0105137266 -0.0444862805
  vertex 0.00886177644 0.010210623 -0.0444862805
  endloop
 endfacet

 facet normal 0.881490886 0.471925139 -0.0161419697
  outer loop
  vertex 0.00884266291 0.010198853 -0.0458741598
  vertex 0.00886177644 0.010210623 -0.0444862805
  vertex 0.00938167889 0.00923951715 -0.0444862805
  endloop
 endfacet

 facet normal 0.886220217 0.462620795 -0.0244101584
  outer loop
  vertex 0.00884266291 0.010198853 -0.0458741598
  vertex 0.00938167889 0.00923951715 -0.0444862805
  vertex 0.00934345089 0.00923951715 -0.0458741598
  endloop
 endfacet

 facet normal 0.987342894 0.156251833 -0.0271954946
  outer loop
  vertex 0.00934345089 0.00923951715 -0.0458741598
  vertex 0.00938167889 0.00923951715 -0.0444862805
  vertex 0.00960149057 0.00785054173 -0.0444862805
  endloop
 endfacet

 facet normal 0.999869764 0.0151669737 -0.0055237296
  outer loop
  vertex 0.00962825026 0.00507553387 -0.047262039
  vertex 0.00960149057 0.00785054173 -0.0444862805
  vertex 0.00962251518 0.00646450929 -0.0444862805
  endloop
 endfacet

 facet normal 0.99998492 0.0054435865 -0.000657961296
  outer loop
  vertex 0.00962825026 0.00507553387 -0.047262039
  vertex 0.00962251518 0.00646450929 -0.0444862805
  vertex 0.00962633919 0.00583770452 -0.0438610315
  endloop
 endfacet

 facet normal 0.987351894 0.156253248 0.0268522389
  outer loop
  vertex 0.00960149057 0.00785054173 -0.0444862805
  vertex 0.00938167889 0.00923951715 -0.0444862805
  vertex 0.00946386904 0.00861271285 -0.0438610315
  endloop
 endfacet

 facet normal 0.987676322 0.15357022 0.030194249
  outer loop
  vertex 0.00960149057 0.00785054173 -0.0444862805
  vertex 0.00946386904 0.00861271285 -0.0438610315
  vertex 0.00958237611 0.00785054173 -0.0438610315
  endloop
 endfacet

 facet normal 0.998615682 0.0428337604 0.0305286758
  outer loop
  vertex 0.00960149057 0.00785054173 -0.0444862805
  vertex 0.00958237611 0.00785054173 -0.0438610315
  vertex 0.0096091358 0.00722667994 -0.0438610315
  endloop
 endfacet

 facet normal 0.999880731 0.0151671395 0.00290790549
  outer loop
  vertex 0.00960149057 0.00785054173 -0.0444862805
  vertex 0.0096091358 0.00722667994 -0.0438610315
  vertex 0.00962251518 0.00646450929 -0.0444862805
  endloop
 endfacet

 facet normal 0.999953568 0.00914875884 0.00305662653
  outer loop
  vertex 0.00962633919 0.00583770452 -0.0438610315
  vertex 0.00962251518 0.00646450929 -0.0444862805
  vertex 0.00962060411 0.00646450929 -0.0438610315
  endloop
 endfacet

 facet normal 0.0313308798 0.950636983 0.308719575
  outer loop
  vertex 0.00784682017 0.0105137266 -0.0444862805
  vertex 0.0072217905 0.0103312768 -0.0438610315
  vertex 0.00784682017 0.0103106769 -0.0438610315
  endloop
 endfacet

 facet normal 0.212645531 0.929351568 0.301807135
  outer loop
  vertex 0.00784682017 0.0105137266 -0.0444862805
  vertex 0.00784682017 0.0103106769 -0.0438610315
  vertex 0.00874709245 0.0101046851 -0.0438610315
  endloop
 endfacet

 facet normal 0.279765874 0.936810136 0.210042387
  outer loop
  vertex 0.00784682017 0.0105137266 -0.0444862805
  vertex 0.00874709245 0.0101046851 -0.0438610315
  vertex 0.00886177644 0.010210623 -0.0444862805
  endloop
 endfacet

 facet normal 0.812153041 0.532185435 0.239136204
  outer loop
  vertex 0.00886177644 0.010210623 -0.0444862805
  vertex 0.00874709245 0.0101046851 -0.0438610315
  vertex 0.00896499213 0.0097721545 -0.0438610315
  endloop
 endfacet

 facet normal 0.866825104 0.464073509 0.182345957
  outer loop
  vertex 0.00886177644 0.010210623 -0.0444862805
  vertex 0.00896499213 0.0097721545 -0.0438610315
  vertex 0.00938167889 0.00923951715 -0.0444862805
  endloop
 endfacet

 facet normal 0.866981268 0.463572443 0.1828769
  outer loop
  vertex 0.00938167889 0.00923951715 -0.0444862805
  vertex 0.00896499213 0.0097721545 -0.0438610315
  vertex 0.0092497915 0.00923951715 -0.0438610315
  endloop
 endfacet

 facet normal 0.92802012 0.316953808 0.195752129
  outer loop
  vertex 0.00938167889 0.00923951715 -0.0444862805
  vertex 0.0092497915 0.00923951715 -0.0438610315
  vertex 0.00946386904 0.00861271285 -0.0438610315
  endloop
 endfacet

 facet normal 0.999882162 0.0150453402 0.00305640837
  outer loop
  vertex 0.00962251518 0.00646450929 -0.0444862805
  vertex 0.0096091358 0.00722667994 -0.0438610315
  vertex 0.00962060411 0.00646450929 -0.0438610315
  endloop
 endfacet

endsolid AssimpScene
