solid AssimpScene
 facet normal 1 0 0
  outer loop
  vertex -0.109222256 0.00832784083 0.0099784648
  vertex -0.109222256 0.00803138688 0.0099784648
  vertex -0.109222256 0.00803138688 0.0059806183
  endloop
 endfacet

 facet normal 1 0 0
  outer loop
  vertex -0.109222256 0.00832784083 0.0099784648
  vertex -0.109222256 0.00803138688 0.0059806183
  vertex -0.109222256 0.00826773234 0.0059806183
  endloop
 endfacet

 facet normal 1 0 0
  outer loop
  vertex -0.109222256 0.00832784083 0.0099784648
  vertex -0.109222256 0.00826773234 0.0059806183
  vertex -0.109222256 0.00832784083 0.00695849629
  endloop
 endfacet

 facet normal 0.621552944 0.783372164 0
  outer loop
  vertex -0.109222256 0.00832784083 0.0099784648
  vertex -0.109222256 0.00832784083 0.00695849629
  vertex -0.114113517 0.0122087216 0.00695849629
  endloop
 endfacet

 facet normal 0.621552944 0.783372164 0
  outer loop
  vertex -0.109222256 0.00832784083 0.0099784648
  vertex -0.114113517 0.0122087216 0.00695849629
  vertex -0.114113517 0.0122087216 0.0099784648
  endloop
 endfacet

 facet normal 0.610602736 0.769571066 0.186881527
  outer loop
  vertex -0.109222256 0.00832784083 0.0099784648
  vertex -0.114113517 0.0122087216 0.0099784648
  vertex -0.115650408 0.0122087216 0.0149999997
  endloop
 endfacet

 facet normal 0.702448308 0.449713081 0.551656187
  outer loop
  vertex -0.109222256 0.00832784083 0.0099784648
  vertex -0.115650408 0.0122087216 0.0149999997
  vertex -0.112976044 0.00803138688 0.0149999997
  endloop
 endfacet

 facet normal 0.80094564 0 0.59873718
  outer loop
  vertex -0.109222256 0.00832784083 0.0099784648
  vertex -0.112976044 0.00803138688 0.0149999997
  vertex -0.109222256 0.00803138688 0.0099784648
  endloop
 endfacet

 facet normal 0 -1 0
  outer loop
  vertex -0.109222256 0.00803138688 0.0099784648
  vertex -0.112976044 0.00803138688 0.0149999997
  vertex -0.119603217 0.00803138688 0.0149999997
  endloop
 endfacet

 facet normal 0 -1 0
  outer loop
  vertex -0.109222256 0.00803138688 0.0099784648
  vertex -0.119603217 0.00803138688 0.0149999997
  vertex -0.119603217 0.00803138688 -0.00299999979
  endloop
 endfacet

 facet normal 0 -1 0
  outer loop
  vertex -0.109222256 0.00803138688 0.0099784648
  vertex -0.119603217 0.00803138688 -0.00299999979
  vertex -0.113074176 0.00803138688 -0.00299999979
  endloop
 endfacet

 facet normal 0 -1 0
  outer loop
  vertex -0.109222256 0.00803138688 0.0099784648
  vertex -0.113074176 0.00803138688 -0.00299999979
  vertex -0.109222256 0.00803138688 0.0059806183
  endloop
 endfacet

 facet normal 0.621876776 0.781639874 -0.0480459295
  outer loop
  vertex -0.109222256 0.00832784083 0.00695849629
  vertex -0.109222256 0.00826773234 0.0059806183
  vertex -0.114175707 0.0122087216 0.0059806183
  endloop
 endfacet

 facet normal 0.621067882 0.782760799 -0.0394998118
  outer loop
  vertex -0.109222256 0.00832784083 0.00695849629
  vertex -0.114175707 0.0122087216 0.0059806183
  vertex -0.114113517 0.0122087216 0.00695849629
  endloop
 endfacet

 facet normal 0 1 0
  outer loop
  vertex -0.114113517 0.0122087216 0.0099784648
  vertex -0.114113517 0.0122087216 0.00695849629
  vertex -0.114175707 0.0122087216 0.0059806183
  endloop
 endfacet

 facet normal 0 1 0
  outer loop
  vertex -0.114113517 0.0122087216 0.0099784648
  vertex -0.114175707 0.0122087216 0.0059806183
  vertex -0.115709841 0.0122087216 -0.00299999979
  endloop
 endfacet

 facet normal 0 1 0
  outer loop
  vertex -0.114113517 0.0122087216 0.0099784648
  vertex -0.115709841 0.0122087216 -0.00299999979
  vertex -0.121090353 0.0122087216 -0.00299999979
  endloop
 endfacet

 facet normal 0 1 0
  outer loop
  vertex -0.114113517 0.0122087216 0.0099784648
  vertex -0.121090353 0.0122087216 -0.00299999979
  vertex -0.121090353 0.0122087216 0.0149999997
  endloop
 endfacet

 facet normal 0 1 0
  outer loop
  vertex -0.114113517 0.0122087216 0.0099784648
  vertex -0.121090353 0.0122087216 0.0149999997
  vertex -0.115650408 0.0122087216 0.0149999997
  endloop
 endfacet

 facet normal 0 0 1
  outer loop
  vertex -0.115650408 0.0122087216 0.0149999997
  vertex -0.121090353 0.0122087216 0.0149999997
  vertex -0.12334042 0.00929407403 0.0149999997
  endloop
 endfacet

 facet normal 0 0 1
  outer loop
  vertex -0.115650408 0.0122087216 0.0149999997
  vertex -0.12334042 0.00929407403 0.0149999997
  vertex -0.12305294 0.00840839464 0.0149999997
  endloop
 endfacet

 facet normal 0 0 1
  outer loop
  vertex -0.115650408 0.0122087216 0.0149999997
  vertex -0.12305294 0.00840839464 0.0149999997
  vertex -0.122523598 0.00832048059 0.0149999997
  endloop
 endfacet

 facet normal 0 0 1
  outer loop
  vertex -0.115650408 0.0122087216 0.0149999997
  vertex -0.122523598 0.00832048059 0.0149999997
  vertex -0.119603217 0.00803138688 0.0149999997
  endloop
 endfacet

 facet normal 0 0 1
  outer loop
  vertex -0.115650408 0.0122087216 0.0149999997
  vertex -0.119603217 0.00803138688 0.0149999997
  vertex -0.112976044 0.00803138688 0.0149999997
  endloop
 endfacet

 facet normal 0.919030964 0 -0.394185632
  outer loop
  vertex -0.109222256 0.00803138688 0.0059806183
  vertex -0.113074176 0.00803138688 -0.00299999979
  vertex -0.109222256 0.00826773234 0.0059806183
  endloop
 endfacet

 facet normal 0.791416168 0.499339551 -0.352591038
  outer loop
  vertex -0.109222256 0.00826773234 0.0059806183
  vertex -0.113074176 0.00803138688 -0.00299999979
  vertex -0.115709841 0.0122087216 -0.00299999979
  endloop
 endfacet

 facet normal 0.619104147 0.778154969 -0.105759792
  outer loop
  vertex -0.109222256 0.00826773234 0.0059806183
  vertex -0.115709841 0.0122087216 -0.00299999979
  vertex -0.114175707 0.0122087216 0.0059806183
  endloop
 endfacet

 facet normal -0.791569352 0.611079335 0
  outer loop
  vertex -0.121090353 0.0122087216 0.0149999997
  vertex -0.121090353 0.0122087216 -0.00299999979
  vertex -0.12334042 0.00929407403 -0.00299999979
  endloop
 endfacet

 facet normal -0.791569352 0.611079335 0
  outer loop
  vertex -0.121090353 0.0122087216 0.0149999997
  vertex -0.12334042 0.00929407403 -0.00299999979
  vertex -0.12334042 0.00929407403 0.0149999997
  endloop
 endfacet

 facet normal -0.0985100493 -0.995136023 0
  outer loop
  vertex -0.119603217 0.00803138688 0.0149999997
  vertex -0.122523598 0.00832048059 0.0149999997
  vertex -0.122523598 0.00832048059 -0.00299999979
  endloop
 endfacet

 facet normal -0.0985100493 -0.995136023 0
  outer loop
  vertex -0.119603217 0.00803138688 0.0149999997
  vertex -0.122523598 0.00832048059 -0.00299999979
  vertex -0.119603217 0.00803138688 -0.00299999979
  endloop
 endfacet

 facet normal 0 0 -1
  outer loop
  vertex -0.113074176 0.00803138688 -0.00299999979
  vertex -0.119603217 0.00803138688 -0.00299999979
  vertex -0.122523598 0.00832048059 -0.00299999979
  endloop
 endfacet

 facet normal 0 0 -1
  outer loop
  vertex -0.113074176 0.00803138688 -0.00299999979
  vertex -0.122523598 0.00832048059 -0.00299999979
  vertex -0.12305294 0.00840839464 -0.00299999979
  endloop
 endfacet

 facet normal 0 0 -1
  outer loop
  vertex -0.113074176 0.00803138688 -0.00299999979
  vertex -0.12305294 0.00840839464 -0.00299999979
  vertex -0.12334042 0.00929407403 -0.00299999979
  endloop
 endfacet

 facet normal 0 0 -1
  outer loop
  vertex -0.113074176 0.00803138688 -0.00299999979
  vertex -0.12334042 0.00929407403 -0.00299999979
  vertex -0.121090353 0.0122087216 -0.00299999979
  endloop
 endfacet

 facet normal 0 0 -1
  outer loop
  vertex -0.113074176 0.00803138688 -0.00299999979
  vertex -0.121090353 0.0122087216 -0.00299999979
  vertex -0.115709841 0.0122087216 -0.00299999979
  endloop
 endfacet

 facet normal -0.951150477 -0.308728069 0
  outer loop
  vertex -0.12334042 0.00929407403 0.0149999997
  vertex -0.12334042 0.00929407403 -0.00299999979
  vertex -0.12305294 0.00840839464 -0.00299999979
  endloop
 endfacet

 facet normal -0.951150477 -0.308728069 0
  outer loop
  vertex -0.12334042 0.00929407403 0.0149999997
  vertex -0.12305294 0.00840839464 -0.00299999979
  vertex -0.12305294 0.00840839464 0.0149999997
  endloop
 endfacet

 facet normal -0.163836852 -0.986487389 0
  outer loop
  vertex -0.122523598 0.00832048059 0.0149999997
  vertex -0.12305294 0.00840839464 0.0149999997
  vertex -0.12305294 0.00840839464 -0.00299999979
  endloop
 endfacet

 facet normal -0.163836852 -0.986487389 0
  outer loop
  vertex -0.122523598 0.00832048059 0.0149999997
  vertex -0.12305294 0.00840839464 -0.00299999979
  vertex -0.122523598 0.00832048059 -0.00299999979
  endloop
 endfacet

endsolid AssimpScene
