solid AssimpScene
 facet normal 0 1 0
  outer loop
  vertex 0.00543235382 0.0213302765 -0.00539266225
  vertex 0.00543235382 0.0213302765 -0.0238094088
  vertex -0.000188369246 0.0213302765 -0.0239646044
  endloop
 endfacet

 facet normal 0 1 0
  outer loop
  vertex 0.00543235382 0.0213302765 -0.00539266225
  vertex -0.000188369246 0.0213302765 -0.0239646044
  vertex -0.00528754154 0.0213302765 -0.0239646044
  endloop
 endfacet

 facet normal 0 1 0
  outer loop
  vertex 0.00543235382 0.0213302765 -0.00539266225
  vertex -0.00528754154 0.0213302765 -0.0239646044
  vertex -0.00624077488 0.0213302765 -0.0236982778
  endloop
 endfacet

 facet normal 0 1 0
  outer loop
  vertex 0.00543235382 0.0213302765 -0.00539266225
  vertex -0.00624077488 0.0213302765 -0.0236982778
  vertex -0.00635001715 0.0213302765 -0.023439616
  endloop
 endfacet

 facet normal 0 1 0
  outer loop
  vertex 0.00543235382 0.0213302765 -0.00539266225
  vertex -0.00635001715 0.0213302765 -0.023439616
  vertex -0.00661607506 0.0213302765 -0.0227958355
  endloop
 endfacet

 facet normal 0 1 0
  outer loop
  vertex 0.00543235382 0.0213302765 -0.00539266225
  vertex -0.00661607506 0.0213302765 -0.0227958355
  vertex -0.00667422125 0.0213302765 -0.021519769
  endloop
 endfacet

 facet normal 0 1 0
  outer loop
  vertex 0.00543235382 0.0213302765 -0.00539266225
  vertex -0.00667422125 0.0213302765 -0.021519769
  vertex -0.00711824372 0.0213302765 -0.0100466646
  endloop
 endfacet

 facet normal 0 1 0
  outer loop
  vertex 0.00543235382 0.0213302765 -0.00539266225
  vertex -0.00711824372 0.0213302765 -0.0100466646
  vertex -0.00711824372 0.0213302765 -0.00539266225
  endloop
 endfacet

 facet normal 0 0 1
  outer loop
  vertex 0.00543235382 0.0213302765 -0.00539266225
  vertex -0.00711824372 0.0213302765 -0.00539266225
  vertex -0.00784946606 0.0211335644 -0.00539266225
  endloop
 endfacet

 facet normal 0 0 1
  outer loop
  vertex 0.00543235382 0.0213302765 -0.00539266225
  vertex -0.00784946606 0.0211335644 -0.00539266225
  vertex -0.00784946606 0.0102521051 -0.00539266225
  endloop
 endfacet

 facet normal 0 0 1
  outer loop
  vertex 0.00543235382 0.0213302765 -0.00539266225
  vertex -0.00784946606 0.0102521051 -0.00539266225
  vertex 0.00539887603 0.0102521051 -0.00539266225
  endloop
 endfacet

 facet normal 0 0 1
  outer loop
  vertex 0.00543235382 0.0213302765 -0.00539266225
  vertex 0.00539887603 0.0102521051 -0.00539266225
  vertex 0.00543235382 0.0106983026 -0.00539266225
  endloop
 endfacet

 facet normal 0.200221241 0 0.979750752
  outer loop
  vertex 0.00543235382 0.0213302765 -0.00539266225
  vertex 0.00543235382 0.0106983026 -0.00539266225
  vertex 0.00978268776 -0.027674675 -0.00628169347
  endloop
 endfacet

 facet normal 0.200221241 0 0.979750752
  outer loop
  vertex 0.00543235382 0.0213302765 -0.00539266225
  vertex 0.00978268776 -0.027674675 -0.00628169347
  vertex 0.00978268776 -0.00757180201 -0.00628169347
  endloop
 endfacet

 facet normal 0.267256081 0.0105878692 0.963567436
  outer loop
  vertex 0.00543235382 0.0213302765 -0.00539266225
  vertex 0.00978268776 -0.00757180201 -0.00628169347
  vertex 0.00978268776 -0.00199193507 -0.00634300616
  endloop
 endfacet

 facet normal 0.833779812 0.13369897 0.535664022
  outer loop
  vertex 0.00543235382 0.0213302765 -0.00539266225
  vertex 0.00978268776 -0.00199193507 -0.00634300616
  vertex 0.00978268776 -0.00126266631 -0.00652502803
  endloop
 endfacet

 facet normal 0.840506315 0.135550112 0.524571538
  outer loop
  vertex 0.00543235382 0.0213302765 -0.00539266225
  vertex 0.00978268776 -0.00126266631 -0.00652502803
  vertex 0.00978268776 -0.00109954015 -0.00656718016
  endloop
 endfacet

 facet normal 0.951892853 0.171318635 0.254066616
  outer loop
  vertex 0.00543235382 0.0213302765 -0.00539266225
  vertex 0.00978268776 -0.00109954015 -0.00656718016
  vertex 0.00978268776 0.0102521051 -0.0142216627
  endloop
 endfacet

 facet normal 0.931004941 0.365006089 0.000745570986
  outer loop
  vertex 0.00543235382 0.0213302765 -0.00539266225
  vertex 0.00978268776 0.0102521051 -0.0142216627
  vertex 0.00978444889 0.0102521051 -0.016421251
  endloop
 endfacet

 facet normal 0.930752754 0.365649223 0
  outer loop
  vertex 0.00543235382 0.0213302765 -0.00539266225
  vertex 0.00978444889 0.0102521051 -0.016421251
  vertex 0.00978444889 0.0102521051 -0.0233783033
  endloop
 endfacet

 facet normal 0.930752754 0.365649223 0
  outer loop
  vertex 0.00543235382 0.0213302765 -0.00539266225
  vertex 0.00978444889 0.0102521051 -0.0233783033
  vertex 0.00543235382 0.0213302765 -0.0238094088
  endloop
 endfacet

 facet normal 0.930786133 0.365553498 -0.00279644923
  outer loop
  vertex 0.00543235382 0.0213302765 -0.0238094088
  vertex 0.00978444889 0.0102521051 -0.0233783033
  vertex 0.00978268776 0.0102521051 -0.0239646044
  endloop
 endfacet

 facet normal 0.44507581 0.187047154 -0.87574017
  outer loop
  vertex 0.00543235382 0.0213302765 -0.0238094088
  vertex 0.00978268776 0.0102521051 -0.0239646044
  vertex 0.00543235382 0.0166476015 -0.0248095691
  endloop
 endfacet

 facet normal 0.0269926172 0.208800122 -0.977585852
  outer loop
  vertex 0.00543235382 0.0213302765 -0.0238094088
  vertex 0.00543235382 0.0166476015 -0.0248095691
  vertex -0.000188369246 0.0213302765 -0.0239646044
  endloop
 endfacet

 facet normal -0.259782135 0.965667248 0
  outer loop
  vertex -0.00711824372 0.0213302765 -0.00539266225
  vertex -0.00711824372 0.0213302765 -0.0100466646
  vertex -0.00784946606 0.0211335644 -0.0100466646
  endloop
 endfacet

 facet normal -0.259782135 0.965667248 0
  outer loop
  vertex -0.00711824372 0.0213302765 -0.00539266225
  vertex -0.00784946606 0.0211335644 -0.0100466646
  vertex -0.00784946606 0.0211335644 -0.00539266225
  endloop
 endfacet

 facet normal 0.122049682 -0.00915724132 0.992481709
  outer loop
  vertex 0.00543235382 0.0106983026 -0.00539266225
  vertex 0.00539887603 0.0102521051 -0.00539266225
  vertex 0.00978268776 -0.027674675 -0.00628169347
  endloop
 endfacet

 facet normal 1 0 0.000173723762
  outer loop
  vertex 0.00978268776 -0.00757180201 -0.00628169347
  vertex 0.00978268776 -0.027674675 -0.00628169347
  vertex 0.00978444889 -0.0224546436 -0.016421251
  endloop
 endfacet

 facet normal 1 0 0.000173723762
  outer loop
  vertex 0.00978268776 -0.00757180201 -0.00628169347
  vertex 0.00978444889 -0.0224546436 -0.016421251
  vertex 0.00978444889 0.0102521051 -0.016421251
  endloop
 endfacet

 facet normal 1 1.9465092e-06 0.000177145441
  outer loop
  vertex 0.00978268776 -0.00757180201 -0.00628169347
  vertex 0.00978444889 0.0102521051 -0.016421251
  vertex 0.00978268776 -0.00199193507 -0.00634300616
  endloop
 endfacet

 facet normal 0.99999994 6.26095862e-05 0.000250844925
  outer loop
  vertex 0.00978268776 -0.00199193507 -0.00634300616
  vertex 0.00978444889 0.0102521051 -0.016421251
  vertex 0.00978268776 -0.00126266631 -0.00652502803
  endloop
 endfacet

 facet normal 0.99999994 6.57684795e-05 0.000254520419
  outer loop
  vertex 0.00978268776 -0.00126266631 -0.00652502803
  vertex 0.00978444889 0.0102521051 -0.016421251
  vertex 0.00978268776 -0.00109954015 -0.00656718016
  endloop
 endfacet

 facet normal 0.999999523 0.000540000095 0.000800823502
  outer loop
  vertex 0.00978268776 -0.00109954015 -0.00656718016
  vertex 0.00978444889 0.0102521051 -0.016421251
  vertex 0.00978268776 0.0102521051 -0.0142216627
  endloop
 endfacet

 facet normal 1 0 0
  outer loop
  vertex 0.00978444889 0.0102521051 -0.016421251
  vertex 0.00978444889 -0.0224546436 -0.016421251
  vertex 0.00978444889 -0.0224546436 -0.0233783033
  endloop
 endfacet

 facet normal 1 0 0
  outer loop
  vertex 0.00978444889 0.0102521051 -0.016421251
  vertex 0.00978444889 -0.0224546436 -0.0233783033
  vertex 0.00978444889 0.0102521051 -0.0233783033
  endloop
 endfacet

 facet normal 0 0.177576959 -0.984106958
  outer loop
  vertex -0.000188369246 0.0213302765 -0.0239646044
  vertex 0.00543235382 0.0166476015 -0.0248095691
  vertex -0.00528754154 0.0213302765 -0.0239646044
  endloop
 endfacet

 facet normal 0.999999404 0 -0.00112252007
  outer loop
  vertex 0.00978444889 0.0102521051 -0.0233783033
  vertex 0.00978444889 -0.0224546436 -0.0233783033
  vertex 0.00978268776 -0.00581100257 -0.0249475241
  endloop
 endfacet

 facet normal 0.99999547 0.000183841214 -0.0030043812
  outer loop
  vertex 0.00978444889 0.0102521051 -0.0233783033
  vertex 0.00978268776 -0.00581100257 -0.0249475241
  vertex 0.00978268776 0.0102521051 -0.0239646044
  endloop
 endfacet

 facet normal 0.392234772 0.146832258 -0.908070564
  outer loop
  vertex 0.00978268776 0.0102521051 -0.0239646044
  vertex 0.00543235382 0.0158655569 -0.0249360241
  vertex 0.00543235382 0.0166476015 -0.0248095691
  endloop
 endfacet

 facet normal 0.288832754 0.0584736839 -0.955592275
  outer loop
  vertex 0.00978268776 0.0102521051 -0.0239646044
  vertex 0.00978268776 -0.00581100257 -0.0249475241
  vertex 0.00543235382 0.0158655569 -0.0249360241
  endloop
 endfacet

 facet normal -0.00808416121 0.159618467 -0.987145662
  outer loop
  vertex 0.00543235382 0.0166476015 -0.0248095691
  vertex 0.00543235382 0.0158655569 -0.0249360241
  vertex -0.00528754154 0.0213302765 -0.0239646044
  endloop
 endfacet

 facet normal -0.259768993 0.965618372 -0.0100533646
  outer loop
  vertex -0.00711824372 0.0213302765 -0.0100466646
  vertex -0.00667422125 0.0213302765 -0.021519769
  vertex -0.00784946606 0.0211335644 -0.0100466646
  endloop
 endfacet

 facet normal -0.999433279 0.0336612165 0
  outer loop
  vertex -0.00784946606 0.0211335644 -0.00539266225
  vertex -0.00784946606 0.0211335644 -0.0100466646
  vertex -0.00821595639 0.0102521051 -0.0153731899
  endloop
 endfacet

 facet normal -0.999433279 0.0336612165 0
  outer loop
  vertex -0.00784946606 0.0211335644 -0.00539266225
  vertex -0.00821595639 0.0102521051 -0.0153731899
  vertex -0.00821595639 0.0102521051 -0.00628169347
  endloop
 endfacet

 facet normal -0.924524665 0 0.38112241
  outer loop
  vertex -0.00784946606 0.0211335644 -0.00539266225
  vertex -0.00821595639 0.0102521051 -0.00628169347
  vertex -0.00821595639 -0.0258562993 -0.00628169347
  endloop
 endfacet

 facet normal -0.924524665 0 0.38112241
  outer loop
  vertex -0.00784946606 0.0211335644 -0.00539266225
  vertex -0.00821595639 -0.0258562993 -0.00628169347
  vertex -0.00784946606 0.0102521051 -0.00539266225
  endloop
 endfacet

 facet normal 0 -0.0234342907 0.999725342
  outer loop
  vertex 0.00539887603 0.0102521051 -0.00539266225
  vertex -0.00784946606 0.0102521051 -0.00539266225
  vertex -0.0040101083 -0.027674675 -0.00628169347
  endloop
 endfacet

 facet normal 0 -0.0234342907 0.999725342
  outer loop
  vertex 0.00539887603 0.0102521051 -0.00539266225
  vertex -0.0040101083 -0.027674675 -0.00628169347
  vertex 0.00978268776 -0.027674675 -0.00628169347
  endloop
 endfacet

 facet normal 0 -1 0
  outer loop
  vertex 0.00978268776 -0.027674675 -0.00628169347
  vertex -0.0040101083 -0.027674675 -0.00628169347
  vertex -0.0040101083 -0.027674675 -0.0164193325
  endloop
 endfacet

 facet normal 0 -1 0
  outer loop
  vertex 0.00978268776 -0.027674675 -0.00628169347
  vertex -0.0040101083 -0.027674675 -0.0164193325
  vertex -0.00400834484 -0.027674675 -0.021519769
  endloop
 endfacet

 facet normal 0 -1 0
  outer loop
  vertex 0.00978268776 -0.027674675 -0.00628169347
  vertex -0.00400834484 -0.027674675 -0.021519769
  vertex 0.00978268776 -0.027674675 -0.021519769
  endloop
 endfacet

 facet normal 0.99999994 -0.000337446516 0
  outer loop
  vertex 0.00978268776 -0.027674675 -0.00628169347
  vertex 0.00978268776 -0.027674675 -0.021519769
  vertex 0.00978444889 -0.0224546436 -0.0233783033
  endloop
 endfacet

 facet normal 0.99999994 -0.000337446516 0
  outer loop
  vertex 0.00978268776 -0.027674675 -0.00628169347
  vertex 0.00978444889 -0.0224546436 -0.0233783033
  vertex 0.00978444889 -0.0224546436 -0.016421251
  endloop
 endfacet

 facet normal -0.0255878046 0.126089916 -0.991688848
  outer loop
  vertex -0.00528754154 0.0213302765 -0.0239646044
  vertex 0.00543235382 0.0158655569 -0.0249360241
  vertex 0.00491257058 0.0158655569 -0.0249226112
  endloop
 endfacet

 facet normal -0.0365864858 0.105913416 -0.993702114
  outer loop
  vertex -0.00528754154 0.0213302765 -0.0239646044
  vertex 0.00491257058 0.0158655569 -0.0249226112
  vertex 0.00236298237 0.0145893358 -0.0249647666
  endloop
 endfacet

 facet normal -0.0541408211 0.0861547142 -0.994809628
  outer loop
  vertex -0.00528754154 0.0213302765 -0.0239646044
  vertex 0.00236298237 0.0145893358 -0.0249647666
  vertex -0.000188369246 0.0133179128 -0.0249360241
  endloop
 endfacet

 facet normal -0.0720027387 0.074761577 -0.994598687
  outer loop
  vertex -0.00528754154 0.0213302765 -0.0239646044
  vertex -0.000188369246 0.0133179128 -0.0249360241
  vertex -0.00146052008 0.0120416926 -0.0249398574
  endloop
 endfacet

 facet normal -0.103002958 0.0617959984 -0.992759645
  outer loop
  vertex -0.00528754154 0.0213302765 -0.0239646044
  vertex -0.00146052008 0.0120416926 -0.0249398574
  vertex -0.00273619406 0.00948445313 -0.0249666814
  endloop
 endfacet

 facet normal -0.108446375 0.060580872 -0.992254674
  outer loop
  vertex -0.00528754154 0.0213302765 -0.0239646044
  vertex -0.00273619406 0.00948445313 -0.0249666814
  vertex -0.0040101083 0.00820823293 -0.0249053687
  endloop
 endfacet

 facet normal -0.166969836 0.054325074 -0.984464288
  outer loop
  vertex -0.00528754154 0.0213302765 -0.0239646044
  vertex -0.0040101083 0.00820823293 -0.0249053687
  vertex -0.00484176353 0.00693680998 -0.0248344764
  endloop
 endfacet

 facet normal -0.268754631 0.0498102382 -0.961919904
  outer loop
  vertex -0.00528754154 0.0213302765 -0.0239646044
  vertex -0.00484176353 0.00693680998 -0.0248344764
  vertex -0.00624077488 0.0213302765 -0.0236982778
  endloop
 endfacet

 facet normal 0.99999994 -0.000345316832 -2.21052724e-05
  outer loop
  vertex 0.00978444889 -0.0224546436 -0.0233783033
  vertex 0.00978268776 -0.027674675 -0.021519769
  vertex 0.00978268776 -0.0275931116 -0.0227939188
  endloop
 endfacet

 facet normal 0.99999994 -0.000361004932 -0.000160049865
  outer loop
  vertex 0.00978444889 -0.0224546436 -0.0233783033
  vertex 0.00978268776 -0.0275931116 -0.0227939188
  vertex 0.00978268776 -0.027334027 -0.0233783033
  endloop
 endfacet

 facet normal 0.99999994 -0.000361004932 -0.00016680485
  outer loop
  vertex 0.00978444889 -0.0224546436 -0.0233783033
  vertex 0.00978268776 -0.027334027 -0.0233783033
  vertex 0.00978268776 -0.0271852948 -0.0237001944
  endloop
 endfacet

 facet normal 0.999999404 -0.000297368038 -0.0011020361
  outer loop
  vertex 0.00978444889 -0.0224546436 -0.0233783033
  vertex 0.00978268776 -0.0271852948 -0.0237001944
  vertex 0.00978268776 -0.0270077791 -0.0237480942
  endloop
 endfacet

 facet normal 0.999999285 -0.000297055143 -0.0011058884
  outer loop
  vertex 0.00978444889 -0.0224546436 -0.0233783033
  vertex 0.00978268776 -0.0270077791 -0.0237480942
  vertex 0.00978268776 -0.0262017474 -0.0239646044
  endloop
 endfacet

 facet normal 0.999997318 -0.000110715126 -0.00229679723
  outer loop
  vertex 0.00978444889 -0.0224546436 -0.0233783033
  vertex 0.00978268776 -0.0262017474 -0.0239646044
  vertex 0.00978268776 -0.00581100257 -0.0249475241
  endloop
 endfacet

 facet normal 0.0328148007 -0.0481223017 -0.998302341
  outer loop
  vertex 0.00978268776 -0.00581100257 -0.0249475241
  vertex 0.00978268776 -0.0262017474 -0.0239646044
  vertex 0.00873430725 -0.00708242552 -0.0249206964
  endloop
 endfacet

 facet normal 0.0210385062 -0.0384274647 -0.999039888
  outer loop
  vertex 0.00978268776 -0.00581100257 -0.0249475241
  vertex 0.00873430725 -0.00708242552 -0.0249206964
  vertex 0.00746039534 -0.00708242552 -0.0249475241
  endloop
 endfacet

 facet normal 0.0024931503 -0.00455381349 -0.999986589
  outer loop
  vertex 0.00978268776 -0.00581100257 -0.0249475241
  vertex 0.00746039534 -0.00708242552 -0.0249475241
  vertex 0.00363513315 -0.00581100257 -0.0249628499
  endloop
 endfacet

 facet normal 0.00249317591 6.15825193e-05 -0.999996841
  outer loop
  vertex 0.00978268776 -0.00581100257 -0.0249475241
  vertex 0.00363513315 -0.00581100257 -0.0249628499
  vertex 0.00236298237 0.0145893358 -0.0249647666
  endloop
 endfacet

 facet normal 0.00601708982 0.0013432611 -0.999980927
  outer loop
  vertex 0.00978268776 -0.00581100257 -0.0249475241
  vertex 0.00236298237 0.0145893358 -0.0249647666
  vertex 0.00363689475 0.0145893358 -0.0249570999
  endloop
 endfacet

 facet normal 0.00994294882 0.00252597872 -0.999947429
  outer loop
  vertex 0.00978268776 -0.00581100257 -0.0249475241
  vertex 0.00363689475 0.0145893358 -0.0249570999
  vertex 0.00543235382 0.0158655569 -0.0249360241
  endloop
 endfacet

 facet normal 0.00601689983 0.0080493968 -0.999949455
  outer loop
  vertex 0.00543235382 0.0158655569 -0.0249360241
  vertex 0.00363689475 0.0145893358 -0.0249570999
  vertex 0.00236298237 0.0145893358 -0.0249647666
  endloop
 endfacet

 facet normal -0.025701968 0.0842483714 -0.99611336
  outer loop
  vertex 0.00543235382 0.0158655569 -0.0249360241
  vertex 0.00236298237 0.0145893358 -0.0249647666
  vertex 0.00491257058 0.0158655569 -0.0249226112
  endloop
 endfacet

 facet normal -0.288636178 0.957348526 -0.0131521598
  outer loop
  vertex -0.00667422125 0.0213302765 -0.021519769
  vertex -0.00661607506 0.0213302765 -0.0227958355
  vertex -0.00784946606 0.0211335644 -0.0100466646
  endloop
 endfacet

 facet normal -0.999401331 0.0345503613 -0.00181862153
  outer loop
  vertex -0.00784946606 0.0211335644 -0.0100466646
  vertex -0.00784946606 0.0210663956 -0.0113227312
  vertex -0.00821595639 0.0102521051 -0.0153731899
  endloop
 endfacet

 facet normal -0.574892938 0.817097604 -0.0430094264
  outer loop
  vertex -0.00784946606 0.0211335644 -0.0100466646
  vertex -0.00661607506 0.0213302765 -0.0227958355
  vertex -0.00784946606 0.0210663956 -0.0113227312
  endloop
 endfacet

 facet normal -1 0 0
  outer loop
  vertex -0.00821595639 0.0102521051 -0.00628169347
  vertex -0.00821595639 0.0102521051 -0.0153731899
  vertex -0.00821595639 -0.0211064573 -0.0153731899
  endloop
 endfacet

 facet normal -1 0 0
  outer loop
  vertex -0.00821595639 0.0102521051 -0.00628169347
  vertex -0.00821595639 -0.0211064573 -0.0153731899
  vertex -0.00821595639 -0.0223826785 -0.0153540298
  endloop
 endfacet

 facet normal -1 0 0
  outer loop
  vertex -0.00821595639 0.0102521051 -0.00628169347
  vertex -0.00821595639 -0.0223826785 -0.0153540298
  vertex -0.00821595639 -0.0232750718 -0.0152409831
  endloop
 endfacet

 facet normal -1 0 0
  outer loop
  vertex -0.00821595639 0.0102521051 -0.00628169347
  vertex -0.00821595639 -0.0232750718 -0.0152409831
  vertex -0.00821595639 -0.0236588959 -0.0151854195
  endloop
 endfacet

 facet normal -1 0 0
  outer loop
  vertex -0.00821595639 0.0102521051 -0.00628169347
  vertex -0.00821595639 -0.0236588959 -0.0151854195
  vertex -0.00821595639 -0.024316201 -0.014898017
  endloop
 endfacet

 facet normal -1 0 0
  outer loop
  vertex -0.00821595639 0.0102521051 -0.00628169347
  vertex -0.00821595639 -0.024316201 -0.014898017
  vertex -0.00821595639 -0.0245992728 -0.0147734759
  endloop
 endfacet

 facet normal -1 0 0
  outer loop
  vertex -0.00821595639 0.0102521051 -0.00628169347
  vertex -0.00821595639 -0.0245992728 -0.0147734759
  vertex -0.00821595639 -0.0250502657 -0.0142350765
  endloop
 endfacet

 facet normal -1 0 0
  outer loop
  vertex -0.00821595639 0.0102521051 -0.00628169347
  vertex -0.00821595639 -0.0250502657 -0.0142350765
  vertex -0.00821595639 -0.0252373815 -0.0139840776
  endloop
 endfacet

 facet normal -1 0 0
  outer loop
  vertex -0.00821595639 0.0102521051 -0.00628169347
  vertex -0.00821595639 -0.0252373815 -0.0139840776
  vertex -0.00821595639 -0.0255540386 -0.0135357305
  endloop
 endfacet

 facet normal -1 0 0
  outer loop
  vertex -0.00821595639 0.0102521051 -0.00628169347
  vertex -0.00821595639 -0.0255540386 -0.0135357305
  vertex -0.00821595639 -0.0256547946 -0.0133479601
  endloop
 endfacet

 facet normal -1 0 0
  outer loop
  vertex -0.00821595639 0.0102521051 -0.00628169347
  vertex -0.00821595639 -0.0256547946 -0.0133479601
  vertex -0.00821595639 -0.0257843342 -0.0128018958
  endloop
 endfacet

 facet normal -1 0 0
  outer loop
  vertex -0.00821595639 0.0102521051 -0.00628169347
  vertex -0.00821595639 -0.0257843342 -0.0128018958
  vertex -0.00821595639 -0.0258035269 -0.0125987986
  endloop
 endfacet

 facet normal -1 0 0
  outer loop
  vertex -0.00821595639 0.0102521051 -0.00628169347
  vertex -0.00821595639 -0.0258035269 -0.0125987986
  vertex -0.00821595639 -0.0258467067 -0.0117021035
  endloop
 endfacet

 facet normal -1 0 0
  outer loop
  vertex -0.00821595639 0.0102521051 -0.00628169347
  vertex -0.00821595639 -0.0258467067 -0.0117021035
  vertex -0.00821595639 -0.0258562993 -0.0113246469
  endloop
 endfacet

 facet normal -1 0 0
  outer loop
  vertex -0.00821595639 0.0102521051 -0.00628169347
  vertex -0.00821595639 -0.0258562993 -0.0113246469
  vertex -0.00821595639 -0.0258562993 -0.00628169347
  endloop
 endfacet

 facet normal -0.0177797507 -0.0244294815 0.999543548
  outer loop
  vertex -0.00784946606 0.0102521051 -0.00539266225
  vertex -0.00821595639 -0.0258562993 -0.00628169347
  vertex -0.00630420726 -0.0272476673 -0.00628169347
  endloop
 endfacet

 facet normal -0.00976496097 -0.024102021 0.999661863
  outer loop
  vertex -0.00784946606 0.0102521051 -0.00539266225
  vertex -0.00630420726 -0.0272476673 -0.00628169347
  vertex -0.00528578227 -0.0276602842 -0.00628169347
  endloop
 endfacet

 facet normal -0.000264686591 -0.0234610718 0.999724746
  outer loop
  vertex -0.00784946606 0.0102521051 -0.00539266225
  vertex -0.00528578227 -0.0276602842 -0.00628169347
  vertex -0.0040101083 -0.027674675 -0.00628169347
  endloop
 endfacet

 facet normal -0.0112812296 -0.999936342 0
  outer loop
  vertex -0.0040101083 -0.027674675 -0.00628169347
  vertex -0.00528578227 -0.0276602842 -0.00628169347
  vertex -0.00528578227 -0.0276602842 -0.0113246469
  endloop
 endfacet

 facet normal -0.0112812296 -0.999936342 0
  outer loop
  vertex -0.0040101083 -0.027674675 -0.00628169347
  vertex -0.00528578227 -0.0276602842 -0.0113246469
  vertex -0.0040101083 -0.027674675 -0.0164193325
  endloop
 endfacet

 facet normal 0 -0.997957408 -0.0638837069
  outer loop
  vertex 0.00978268776 -0.027674675 -0.021519769
  vertex -0.00400834484 -0.027674675 -0.021519769
  vertex -0.00400834484 -0.0275931116 -0.0227939188
  endloop
 endfacet

 facet normal 0 -0.997957408 -0.0638837069
  outer loop
  vertex 0.00978268776 -0.027674675 -0.021519769
  vertex -0.00400834484 -0.0275931116 -0.0227939188
  vertex 0.00978268776 -0.0275931116 -0.0227939188
  endloop
 endfacet

 facet normal -0.511406541 0.0181123763 -0.859148026
  outer loop
  vertex -0.00624077488 0.0213302765 -0.0236982778
  vertex -0.00484176353 0.00693680998 -0.0248344764
  vertex -0.0048805275 0.00566058978 -0.0248383079
  endloop
 endfacet

 facet normal -0.53949964 0.0144160837 -0.84186244
  outer loop
  vertex -0.00624077488 0.0213302765 -0.0236982778
  vertex -0.0048805275 0.00566058978 -0.0248383079
  vertex -0.00553950761 0.00438436866 -0.0244378597
  endloop
 endfacet

 facet normal -0.672964692 0.00443250593 -0.739661396
  outer loop
  vertex -0.00624077488 0.0213302765 -0.0236982778
  vertex -0.00553950761 0.00438436866 -0.0244378597
  vertex -0.00624077488 0.00438436866 -0.0237998273
  endloop
 endfacet

 facet normal -0.921209693 0.00233148364 -0.389059544
  outer loop
  vertex -0.00624077488 0.0213302765 -0.0236982778
  vertex -0.00624077488 0.00438436866 -0.0237998273
  vertex -0.00635001715 0.0213302765 -0.023439616
  endloop
 endfacet

 facet normal -0.020218011 0.0205704626 -0.99958396
  outer loop
  vertex 0.00236298237 0.0145893358 -0.0249647666
  vertex -0.00273619406 0.00948445313 -0.0249666814
  vertex -0.00146052008 0.0120416926 -0.0249398574
  endloop
 endfacet

 facet normal -0.025342308 0.0282639898 -0.999279201
  outer loop
  vertex 0.00236298237 0.0145893358 -0.0249647666
  vertex -0.00146052008 0.0120416926 -0.0249398574
  vertex -0.000188369246 0.0133179128 -0.0249360241
  endloop
 endfacet

 facet normal 0.000553786522 -5.93567311e-05 -0.999999881
  outer loop
  vertex 0.00236298237 0.0145893358 -0.0249647666
  vertex 0.00363513315 -0.00581100257 -0.0249628499
  vertex -0.00273619406 -0.000715715752 -0.0249666814
  endloop
 endfacet

 facet normal 0.000375628821 0 -0.99999994
  outer loop
  vertex 0.00236298237 0.0145893358 -0.0249647666
  vertex -0.00273619406 -0.000715715752 -0.0249666814
  vertex -0.00273619406 0.00948445313 -0.0249666814
  endloop
 endfacet

 facet normal 0 0 -1
  outer loop
  vertex -0.00273619406 0.00948445313 -0.0249666814
  vertex -0.00273619406 -0.000715715752 -0.0249666814
  vertex -0.0040101083 0.00311294664 -0.0249666814
  endloop
 endfacet

 facet normal 0 0 -1
  outer loop
  vertex -0.00273619406 0.00948445313 -0.0249666814
  vertex -0.0040101083 0.00311294664 -0.0249666814
  vertex -0.0040101083 0.00566058978 -0.0249666814
  endloop
 endfacet

 facet normal -0.00900960993 0.00300153787 -0.999954998
  outer loop
  vertex -0.00273619406 0.00948445313 -0.0249666814
  vertex -0.0040101083 0.00566058978 -0.0249666814
  vertex -0.0040101083 0.00693680998 -0.0249628499
  endloop
 endfacet

 facet normal -0.0929212719 0.0449683815 -0.994657457
  outer loop
  vertex -0.00273619406 0.00948445313 -0.0249666814
  vertex -0.0040101083 0.00693680998 -0.0249628499
  vertex -0.0040101083 0.00820823293 -0.0249053687
  endloop
 endfacet

 facet normal -0.15240027 0.0446362235 -0.987310469
  outer loop
  vertex -0.0040101083 0.00820823293 -0.0249053687
  vertex -0.0040101083 0.00693680998 -0.0249628499
  vertex -0.00484176353 0.00693680998 -0.0248344764
  endloop
 endfacet

 facet normal -0.152547896 0.00759995449 -0.988266885
  outer loop
  vertex -0.00484176353 0.00693680998 -0.0248344764
  vertex -0.0040101083 0.00693680998 -0.0249628499
  vertex -0.0048805275 0.00566058978 -0.0248383079
  endloop
 endfacet

 facet normal 0 -0.914184093 -0.405299366
  outer loop
  vertex 0.00978268776 -0.0275931116 -0.0227939188
  vertex -0.00400834484 -0.0275931116 -0.0227939188
  vertex -0.00483471341 -0.027334027 -0.0233783033
  endloop
 endfacet

 facet normal 0 -0.914184093 -0.405299366
  outer loop
  vertex 0.00978268776 -0.0275931116 -0.0227939188
  vertex -0.00483471341 -0.027334027 -0.0233783033
  vertex 0.00978268776 -0.027334027 -0.0233783033
  endloop
 endfacet

 facet normal 0 -0.90778017 -0.41944623
  outer loop
  vertex 0.00978268776 -0.027334027 -0.0233783033
  vertex -0.00483471341 -0.027334027 -0.0233783033
  vertex -0.00528578227 -0.0271852948 -0.0237001944
  endloop
 endfacet

 facet normal 0 -0.90778017 -0.41944623
  outer loop
  vertex 0.00978268776 -0.027334027 -0.0233783033
  vertex -0.00528578227 -0.0271852948 -0.0237001944
  vertex 0.00978268776 -0.0271852948 -0.0237001944
  endloop
 endfacet

 facet normal 0 -0.260517538 -0.965469122
  outer loop
  vertex 0.00978268776 -0.0271852948 -0.0237001944
  vertex -0.00528578227 -0.0271852948 -0.0237001944
  vertex 0.00978268776 -0.0270077791 -0.0237480942
  endloop
 endfacet

 facet normal -1.14020031e-05 -0.259615242 -0.96571219
  outer loop
  vertex 0.00978268776 -0.0270077791 -0.0237480942
  vertex -0.00528578227 -0.0271852948 -0.0237001944
  vertex -0.00528578227 -0.0262017474 -0.0239646044
  endloop
 endfacet

 facet normal 0 -0.259416431 -0.965765595
  outer loop
  vertex 0.00978268776 -0.0270077791 -0.0237480942
  vertex -0.00528578227 -0.0262017474 -0.0239646044
  vertex 0.00978268776 -0.0262017474 -0.0239646044
  endloop
 endfacet

 facet normal 0.0210289881 -0.0487828478 -0.998588026
  outer loop
  vertex 0.00978268776 -0.0262017474 -0.0239646044
  vertex 0.00746039534 -0.00708242552 -0.0249475241
  vertex 0.00873430725 -0.00708242552 -0.0249206964
  endloop
 endfacet

 facet normal 0 -0.0513418838 -0.998681188
  outer loop
  vertex 0.00978268776 -0.0262017474 -0.0239646044
  vertex -0.00528578227 -0.0262017474 -0.0239646044
  vertex 0.00746039534 -0.00708242552 -0.0249475241
  endloop
 endfacet

 facet normal -0.00451175077 -0.0286421627 -0.999579549
  outer loop
  vertex 0.00746039534 -0.00708242552 -0.0249475241
  vertex 0.00618648296 -0.00708242552 -0.0249417741
  vertex 0.00235945731 -0.00581100257 -0.0249609314
  endloop
 endfacet

 facet normal -0.00150424778 -0.0165790617 -0.999861538
  outer loop
  vertex 0.00746039534 -0.00708242552 -0.0249475241
  vertex 0.00235945731 -0.00581100257 -0.0249609314
  vertex 0.00363513315 -0.00581100257 -0.0249628499
  endloop
 endfacet

 facet normal -0.00450832583 -0.0483435094 -0.998820662
  outer loop
  vertex 0.00746039534 -0.00708242552 -0.0249475241
  vertex -0.00528578227 -0.0262017474 -0.0239646044
  vertex 0.00618648296 -0.00708242552 -0.0249417741
  endloop
 endfacet

 facet normal -0.00150444906 -0.00263304426 -0.99999541
  outer loop
  vertex 0.00363513315 -0.00581100257 -0.0249628499
  vertex 0.00235945731 -0.00581100257 -0.0249609314
  vertex -0.00273619406 -0.000715715752 -0.0249666814
  endloop
 endfacet

 facet normal -0.977550447 0 -0.210701793
  outer loop
  vertex -0.00661607506 0.0213302765 -0.0227958355
  vertex -0.00661607506 0.0102521051 -0.0227958355
  vertex -0.00821595639 -0.0211064573 -0.0153731899
  endloop
 endfacet

 facet normal -0.977550447 0 -0.210701793
  outer loop
  vertex -0.00661607506 0.0213302765 -0.0227958355
  vertex -0.00821595639 -0.0211064573 -0.0153731899
  vertex -0.00821595639 0.0102521051 -0.0153731899
  endloop
 endfacet

 facet normal -0.989718556 0.0542646572 -0.132335454
  outer loop
  vertex -0.00661607506 0.0213302765 -0.0227958355
  vertex -0.00821595639 0.0102521051 -0.0153731899
  vertex -0.00784946606 0.0171513725 -0.0152850524
  endloop
 endfacet

 facet normal -0.989730954 0.0549283847 -0.131968185
  outer loop
  vertex -0.00661607506 0.0213302765 -0.0227958355
  vertex -0.00784946606 0.0171513725 -0.0152850524
  vertex -0.00784946606 0.018173309 -0.0148596978
  endloop
 endfacet

 facet normal -0.988221943 0.104082733 -0.112180248
  outer loop
  vertex -0.00661607506 0.0213302765 -0.0227958355
  vertex -0.00784946606 0.018173309 -0.0148596978
  vertex -0.00784946606 0.0188114196 -0.0142676476
  endloop
 endfacet

 facet normal -0.987783313 0.110019051 -0.110363469
  outer loop
  vertex -0.00661607506 0.0213302765 -0.0227958355
  vertex -0.00784946606 0.0188114196 -0.0142676476
  vertex -0.00784946606 0.0194495283 -0.013631531
  endloop
 endfacet

 facet normal -0.987759531 0.110291004 -0.110304475
  outer loop
  vertex -0.00661607506 0.0213302765 -0.0227958355
  vertex -0.00784946606 0.0194495283 -0.013631531
  vertex -0.00784946606 0.0200876389 -0.0129934978
  endloop
 endfacet

 facet normal -0.986709476 0.120639406 -0.108860478
  outer loop
  vertex -0.00661607506 0.0213302765 -0.0227958355
  vertex -0.00784946606 0.0200876389 -0.0129934978
  vertex -0.00784946606 0.0206633769 -0.0123554636
  endloop
 endfacet

 facet normal -0.973708212 0.203677103 -0.102020375
  outer loop
  vertex -0.00661607506 0.0213302765 -0.0227958355
  vertex -0.00784946606 0.0206633769 -0.0123554636
  vertex -0.00784946606 0.0206681751 -0.0123458849
  endloop
 endfacet

 facet normal -0.963000536 0.251147568 -0.0977488682
  outer loop
  vertex -0.00661607506 0.0213302765 -0.0227958355
  vertex -0.00784946606 0.0206681751 -0.0123458849
  vertex -0.00784946606 0.0210663956 -0.0113227312
  endloop
 endfacet

 facet normal -0.924183726 0.00216102181 -0.381942242
  outer loop
  vertex -0.00661607506 0.0213302765 -0.0227958355
  vertex -0.00635001715 0.0213302765 -0.023439616
  vertex -0.00624077488 0.00438436866 -0.0237998273
  endloop
 endfacet

 facet normal -0.936695695 0 -0.350144446
  outer loop
  vertex -0.00661607506 0.0213302765 -0.0227958355
  vertex -0.00624077488 0.00438436866 -0.0237998273
  vertex -0.00661607506 0.0102521051 -0.0227958355
  endloop
 endfacet

 facet normal -0.999095082 0.0396369845 -0.0154270697
  outer loop
  vertex -0.00784946606 0.0210663956 -0.0113227312
  vertex -0.00784946606 0.0206681751 -0.0123458849
  vertex -0.00821595639 0.0102521051 -0.0153731899
  endloop
 endfacet

 facet normal -0.998941064 0.0411364511 -0.0206049476
  outer loop
  vertex -0.00821595639 0.0102521051 -0.0153731899
  vertex -0.00784946606 0.0206681751 -0.0123458849
  vertex -0.00784946606 0.0206633769 -0.0123554636
  endloop
 endfacet

 facet normal -0.997945011 0.0475713722 -0.0429266244
  outer loop
  vertex -0.00821595639 0.0102521051 -0.0153731899
  vertex -0.00784946606 0.0206633769 -0.0123554636
  vertex -0.00784946606 0.0200876389 -0.0129934978
  endloop
 endfacet

 facet normal -0.997592092 0.0490384027 -0.049044393
  outer loop
  vertex -0.00821595639 0.0102521051 -0.0153731899
  vertex -0.00784946606 0.0200876389 -0.0129934978
  vertex -0.00784946606 0.0194495283 -0.013631531
  endloop
 endfacet

 facet normal -0.997581422 0.0490723662 -0.0492259935
  outer loop
  vertex -0.00821595639 0.0102521051 -0.0153731899
  vertex -0.00784946606 0.0194495283 -0.013631531
  vertex -0.00784946606 0.0188114196 -0.0142676476
  endloop
 endfacet

 facet normal -0.997336388 0.0496099852 -0.0534695834
  outer loop
  vertex -0.00821595639 0.0102521051 -0.0153731899
  vertex -0.00784946606 0.0188114196 -0.0142676476
  vertex -0.00784946606 0.018173309 -0.0148596978
  endloop
 endfacet

 facet normal -0.989983141 0.0542533062 -0.130346268
  outer loop
  vertex -0.00821595639 0.0102521051 -0.0153731899
  vertex -0.00784946606 0.018173309 -0.0148596978
  vertex -0.00784946606 0.0171513725 -0.0152850524
  endloop
 endfacet

 facet normal -0.588449955 -0.808533669 0
  outer loop
  vertex -0.00821595639 -0.0258562993 -0.00628169347
  vertex -0.00821595639 -0.0258562993 -0.0113246469
  vertex -0.00630420726 -0.0272476673 -0.0113246469
  endloop
 endfacet

 facet normal -0.588449955 -0.808533669 0
  outer loop
  vertex -0.00821595639 -0.0258562993 -0.00628169347
  vertex -0.00630420726 -0.0272476673 -0.0113246469
  vertex -0.00630420726 -0.0272476673 -0.00628169347
  endloop
 endfacet

 facet normal -0.375502706 -0.926821351 0
  outer loop
  vertex -0.00630420726 -0.0272476673 -0.00628169347
  vertex -0.00630420726 -0.0272476673 -0.0113246469
  vertex -0.00528578227 -0.0276602842 -0.0113246469
  endloop
 endfacet

 facet normal -0.375502706 -0.926821351 0
  outer loop
  vertex -0.00630420726 -0.0272476673 -0.00628169347
  vertex -0.00528578227 -0.0276602842 -0.0113246469
  vertex -0.00528578227 -0.0276602842 -0.00628169347
  endloop
 endfacet

 facet normal -0.0112968264 -0.999936223 -3.90566993e-06
  outer loop
  vertex -0.0040101083 -0.027674675 -0.0164193325
  vertex -0.00528578227 -0.0276602842 -0.0113246469
  vertex -0.00400834484 -0.027674675 -0.021519769
  endloop
 endfacet

 facet normal -0.0112968106 -0.999936223 -3.90365585e-06
  outer loop
  vertex -0.00400834484 -0.027674675 -0.021519769
  vertex -0.00528578227 -0.0276602842 -0.0113246469
  vertex -0.00528225908 -0.0276602842 -0.021519769
  endloop
 endfacet

 facet normal -0.0112788333 -0.998345017 -0.056392666
  outer loop
  vertex -0.00400834484 -0.027674675 -0.021519769
  vertex -0.00528225908 -0.0276602842 -0.021519769
  vertex -0.00528225908 -0.0275883116 -0.0227939188
  endloop
 endfacet

 facet normal -0.00376010942 -0.997950315 -0.0638832599
  outer loop
  vertex -0.00400834484 -0.027674675 -0.021519769
  vertex -0.00528225908 -0.0275883116 -0.0227939188
  vertex -0.00400834484 -0.0275931116 -0.0227939188
  endloop
 endfacet

 facet normal -0.145906046 0.00201427727 -0.989296496
  outer loop
  vertex -0.0048805275 0.00566058978 -0.0248383079
  vertex -0.0040101083 0.00566058978 -0.0249666814
  vertex -0.00489814579 0.00438436866 -0.0248383079
  endloop
 endfacet

 facet normal -0.529600739 0.00731129851 -0.84821558
  outer loop
  vertex -0.0048805275 0.00566058978 -0.0248383079
  vertex -0.00489814579 0.00438436866 -0.0248383079
  vertex -0.00553950761 0.00438436866 -0.0244378597
  endloop
 endfacet

 facet normal -0.145905703 0.00296953693 -0.989294052
  outer loop
  vertex -0.0048805275 0.00566058978 -0.0248383079
  vertex -0.0040101083 0.00693680998 -0.0249628499
  vertex -0.0040101083 0.00566058978 -0.0249666814
  endloop
 endfacet

 facet normal -0.52960062 -0.00733889267 -0.848215461
  outer loop
  vertex -0.00553950761 0.00438436866 -0.0244378597
  vertex -0.00489814579 0.00438436866 -0.0248383079
  vertex -0.0048805275 0.00311294664 -0.0248383079
  endloop
 endfacet

 facet normal -0.530891836 -0.00826519541 -0.847399354
  outer loop
  vertex -0.00553950761 0.00438436866 -0.0244378597
  vertex -0.0048805275 0.00311294664 -0.0248383079
  vertex -0.00624077488 -0.0262017474 -0.0237001944
  endloop
 endfacet

 facet normal -0.672969282 -0.00240943255 -0.739666581
  outer loop
  vertex -0.00553950761 0.00438436866 -0.0244378597
  vertex -0.00624077488 -0.0262017474 -0.0237001944
  vertex -0.00624077488 0.00438436866 -0.0237998273
  endloop
 endfacet

 facet normal -0.925805688 -0.00123131205 -0.377997845
  outer loop
  vertex -0.00624077488 0.00438436866 -0.0237998273
  vertex -0.00624077488 -0.0262017474 -0.0237001944
  vertex -0.0066107926 -0.0262065418 -0.0227939188
  endloop
 endfacet

 facet normal -0.936990857 -0.000154133857 -0.349353969
  outer loop
  vertex -0.00624077488 0.00438436866 -0.0237998273
  vertex -0.0066107926 -0.0262065418 -0.0227939188
  vertex -0.00661607506 0.0102521051 -0.0227958355
  endloop
 endfacet

 facet normal -0.0263370331 -0.0274665914 -0.999275684
  outer loop
  vertex -0.00273619406 -0.000715715752 -0.0249666814
  vertex 0.00235945731 -0.00581100257 -0.0249609314
  vertex -0.00146052008 -0.00326335803 -0.0249302778
  endloop
 endfacet

 facet normal -0.0416006669 -0.0350986756 -0.998517632
  outer loop
  vertex -0.00273619406 -0.000715715752 -0.0249666814
  vertex -0.00146052008 -0.00326335803 -0.0249302778
  vertex -0.00528578227 -0.0262017474 -0.0239646044
  endloop
 endfacet

 facet normal -0.0690823272 -0.0322932489 -0.997088253
  outer loop
  vertex -0.00273619406 -0.000715715752 -0.0249666814
  vertex -0.00528578227 -0.0262017474 -0.0239646044
  vertex -0.0040101083 0.0018319285 -0.0249609314
  endloop
 endfacet

 facet normal -0.0134888534 -0.00448815804 -0.999898911
  outer loop
  vertex -0.00273619406 -0.000715715752 -0.0249666814
  vertex -0.0040101083 0.0018319285 -0.0249609314
  vertex -0.0040101083 0.00311294664 -0.0249666814
  endloop
 endfacet

 facet normal -0.143071383 0 -0.989712358
  outer loop
  vertex -0.0040101083 0.00566058978 -0.0249666814
  vertex -0.0040101083 0.00311294664 -0.0249666814
  vertex -0.00489814579 0.00438436866 -0.0248383079
  endloop
 endfacet

 facet normal -0.00345125049 -0.915977716 -0.401214182
  outer loop
  vertex -0.00400834484 -0.0275931116 -0.0227939188
  vertex -0.00528225908 -0.0275883116 -0.0227939188
  vertex -0.00483471341 -0.027334027 -0.0233783033
  endloop
 endfacet

 facet normal -0.00972007774 -0.914164782 -0.405226201
  outer loop
  vertex -0.00483471341 -0.027334027 -0.0233783033
  vertex -0.00528225908 -0.0275883116 -0.0227939188
  vertex -0.00528578227 -0.0273292325 -0.0233783033
  endloop
 endfacet

 facet normal -0.00970606599 -0.912847042 -0.408186227
  outer loop
  vertex -0.00483471341 -0.027334027 -0.0233783033
  vertex -0.00528578227 -0.0273292325 -0.0233783033
  vertex -0.00528578227 -0.0271852948 -0.0237001944
  endloop
 endfacet

 facet normal -0.13659063 -0.257182002 -0.956661105
  outer loop
  vertex -0.00528578227 -0.0271852948 -0.0237001944
  vertex -0.00613329606 -0.0270701516 -0.023610143
  vertex -0.00528578227 -0.0262017474 -0.0239646044
  endloop
 endfacet

 facet normal -0.16510269 -0.900361955 -0.402603447
  outer loop
  vertex -0.00528578227 -0.0271852948 -0.0237001944
  vertex -0.00528578227 -0.0273292325 -0.0233783033
  vertex -0.00613329606 -0.0270701516 -0.023610143
  endloop
 endfacet

 facet normal -0.264505088 -0.131803423 -0.955335021
  outer loop
  vertex -0.00528578227 -0.0262017474 -0.0239646044
  vertex -0.00613329606 -0.0270701516 -0.023610143
  vertex -0.00624077488 -0.0262017474 -0.0237001944
  endloop
 endfacet

 facet normal -0.266745836 -0.0255536679 -0.96342802
  outer loop
  vertex -0.00528578227 -0.0262017474 -0.0239646044
  vertex -0.00624077488 -0.0262017474 -0.0237001944
  vertex -0.00483647687 0.0018319285 -0.0248325616
  endloop
 endfacet

 facet normal -0.153440118 -0.0281229317 -0.987757683
  outer loop
  vertex -0.00528578227 -0.0262017474 -0.0239646044
  vertex -0.00483647687 0.0018319285 -0.0248325616
  vertex -0.0040101083 0.0018319285 -0.0249609314
  endloop
 endfacet

 facet normal -0.0324490629 -0.0366367772 -0.998801649
  outer loop
  vertex -0.00528578227 -0.0262017474 -0.0239646044
  vertex -0.00146052008 -0.00326335803 -0.0249302778
  vertex 0.00235945731 -0.00581100257 -0.0249609314
  endloop
 endfacet

 facet normal -0.00997281633 -0.045070421 -0.998934031
  outer loop
  vertex -0.00528578227 -0.0262017474 -0.0239646044
  vertex 0.00235945731 -0.00581100257 -0.0249609314
  vertex 0.00618648296 -0.00708242552 -0.0249417741
  endloop
 endfacet

 facet normal -0.977417231 -0.000152732231 -0.211318314
  outer loop
  vertex -0.00661607506 0.0102521051 -0.0227958355
  vertex -0.0066107926 -0.0262065418 -0.0227939188
  vertex -0.00821595639 -0.0211064573 -0.0153731899
  endloop
 endfacet

 facet normal -0.977835059 -0.00314298738 -0.209353566
  outer loop
  vertex -0.00821595639 -0.0211064573 -0.0153731899
  vertex -0.0066107926 -0.0262065418 -0.0227939188
  vertex -0.00821595639 -0.0223826785 -0.0153540298
  endloop
 endfacet

 facet normal -0.650548398 -0.759219766 -0.0192938056
  outer loop
  vertex -0.00821595639 -0.0258562993 -0.0113246469
  vertex -0.00821595639 -0.0258467067 -0.0117021035
  vertex -0.00629539834 -0.027242871 -0.021519769
  endloop
 endfacet

 facet normal -0.588449717 -0.80853337 -0.00088882097
  outer loop
  vertex -0.00821595639 -0.0258562993 -0.0113246469
  vertex -0.00629539834 -0.027242871 -0.021519769
  vertex -0.00630420726 -0.0272476673 -0.0113246469
  endloop
 endfacet

 facet normal -0.380934924 -0.924601495 -0.000764115422
  outer loop
  vertex -0.00630420726 -0.0272476673 -0.0113246469
  vertex -0.00629539834 -0.027242871 -0.021519769
  vertex -0.00528225908 -0.0276602842 -0.021519769
  endloop
 endfacet

 facet normal -0.375502706 -0.926821351 -0.000129756401
  outer loop
  vertex -0.00630420726 -0.0272476673 -0.0113246469
  vertex -0.00528225908 -0.0276602842 -0.021519769
  vertex -0.00528578227 -0.0276602842 -0.0113246469
  endloop
 endfacet

 facet normal -0.380730361 -0.924104989 -0.0327814557
  outer loop
  vertex -0.00528225908 -0.0276602842 -0.021519769
  vertex -0.00629539834 -0.027242871 -0.021519769
  vertex -0.00626720674 -0.0272092875 -0.0227939188
  endloop
 endfacet

 facet normal -0.358644903 -0.931988418 -0.0526444428
  outer loop
  vertex -0.00528225908 -0.0276602842 -0.021519769
  vertex -0.00626720674 -0.0272092875 -0.0227939188
  vertex -0.00528225908 -0.0275883116 -0.0227939188
  endloop
 endfacet

 facet normal -0.35143134 -0.913242996 -0.206114948
  outer loop
  vertex -0.00528225908 -0.0275883116 -0.0227939188
  vertex -0.00626720674 -0.0272092875 -0.0227939188
  vertex -0.00617381977 -0.0271133315 -0.0233783033
  endloop
 endfacet

 facet normal -0.33655259 -0.913408399 -0.22894904
  outer loop
  vertex -0.00528225908 -0.0275883116 -0.0227939188
  vertex -0.00617381977 -0.0271133315 -0.0233783033
  vertex -0.00613329606 -0.0270701516 -0.023610143
  endloop
 endfacet

 facet normal -0.16658026 -0.901784837 -0.398792088
  outer loop
  vertex -0.00528225908 -0.0275883116 -0.0227939188
  vertex -0.00613329606 -0.0270701516 -0.023610143
  vertex -0.00528578227 -0.0273292325 -0.0233783033
  endloop
 endfacet

 facet normal -0.145906031 -0.00202187966 -0.989296377
  outer loop
  vertex -0.00489814579 0.00438436866 -0.0248383079
  vertex -0.0040101083 0.00311294664 -0.0249666814
  vertex -0.0048805275 0.00311294664 -0.0248383079
  endloop
 endfacet

 facet normal -0.145904899 -0.004440533 -0.989288688
  outer loop
  vertex -0.0048805275 0.00311294664 -0.0248383079
  vertex -0.0040101083 0.00311294664 -0.0249666814
  vertex -0.0040101083 0.0018319285 -0.0249609314
  endloop
 endfacet

 facet normal -0.153493598 -0.00971045531 -0.9881019
  outer loop
  vertex -0.0048805275 0.00311294664 -0.0248383079
  vertex -0.0040101083 0.0018319285 -0.0249609314
  vertex -0.00483647687 0.0018319285 -0.0248325616
  endloop
 endfacet

 facet normal -0.391111076 -0.0175767094 -0.920175672
  outer loop
  vertex -0.0048805275 0.00311294664 -0.0248383079
  vertex -0.00483647687 0.0018319285 -0.0248325616
  vertex -0.00624077488 -0.0262017474 -0.0237001944
  endloop
 endfacet

 facet normal -0.913355768 -0.152203441 -0.377644658
  outer loop
  vertex -0.00624077488 -0.0262017474 -0.0237001944
  vertex -0.00613329606 -0.0270701516 -0.023610143
  vertex -0.00627072994 -0.0268206634 -0.0233783033
  endloop
 endfacet

 facet normal -0.91499567 -0.150422946 -0.374373823
  outer loop
  vertex -0.00624077488 -0.0262017474 -0.0237001944
  vertex -0.00627072994 -0.0268206634 -0.0233783033
  vertex -0.0066107926 -0.0262065418 -0.0227939188
  endloop
 endfacet

 facet normal -0.926731586 -0.306864798 -0.216800898
  outer loop
  vertex -0.0066107926 -0.0262065418 -0.0227939188
  vertex -0.00627072994 -0.0268206634 -0.0233783033
  vertex -0.00617381977 -0.0271133315 -0.0233783033
  endloop
 endfacet

 facet normal -0.926844001 -0.317578763 -0.200260013
  outer loop
  vertex -0.0066107926 -0.0262065418 -0.0227939188
  vertex -0.00617381977 -0.0271133315 -0.0233783033
  vertex -0.00626720674 -0.0272092875 -0.0227939188
  endloop
 endfacet

 facet normal -0.936634719 -0.320933521 -0.140417486
  outer loop
  vertex -0.0066107926 -0.0262065418 -0.0227939188
  vertex -0.00626720674 -0.0272092875 -0.0227939188
  vertex -0.00821595639 -0.0256547946 -0.0133479601
  endloop
 endfacet

 facet normal -0.95128119 -0.271682829 -0.145783171
  outer loop
  vertex -0.0066107926 -0.0262065418 -0.0227939188
  vertex -0.00821595639 -0.0256547946 -0.0133479601
  vertex -0.00821595639 -0.0255540386 -0.0135357305
  endloop
 endfacet

 facet normal -0.964631736 -0.215313897 -0.152070671
  outer loop
  vertex -0.0066107926 -0.0262065418 -0.0227939188
  vertex -0.00821595639 -0.0255540386 -0.0135357305
  vertex -0.00821595639 -0.0252373815 -0.0139840776
  endloop
 endfacet

 facet normal -0.966480017 -0.205838591 -0.153449804
  outer loop
  vertex -0.0066107926 -0.0262065418 -0.0227939188
  vertex -0.00821595639 -0.0252373815 -0.0139840776
  vertex -0.00821595639 -0.0250502657 -0.0142350765
  endloop
 endfacet

 facet normal -0.969799042 -0.18697536 -0.156620622
  outer loop
  vertex -0.0066107926 -0.0262065418 -0.0227939188
  vertex -0.00821595639 -0.0250502657 -0.0142350765
  vertex -0.00821595639 -0.0245992728 -0.0147734759
  endloop
 endfacet

 facet normal -0.980404556 -0.0793314129 -0.18031463
  outer loop
  vertex -0.0066107926 -0.0262065418 -0.0227939188
  vertex -0.00821595639 -0.0245992728 -0.0147734759
  vertex -0.00821595639 -0.024316201 -0.014898017
  endloop
 endfacet

 facet normal -0.980420232 -0.0788892582 -0.180423662
  outer loop
  vertex -0.0066107926 -0.0262065418 -0.0227939188
  vertex -0.00821595639 -0.024316201 -0.014898017
  vertex -0.00821595639 -0.0236588959 -0.0151854195
  endloop
 endfacet

 facet normal -0.979951262 -0.0285447203 -0.197182223
  outer loop
  vertex -0.0066107926 -0.0262065418 -0.0227939188
  vertex -0.00821595639 -0.0236588959 -0.0151854195
  vertex -0.00821595639 -0.0232750718 -0.0152409831
  endloop
 endfacet

 facet normal -0.979785025 -0.0251414813 -0.198467761
  outer loop
  vertex -0.0066107926 -0.0262065418 -0.0227939188
  vertex -0.00821595639 -0.0232750718 -0.0152409831
  vertex -0.00821595639 -0.0223826785 -0.0153540298
  endloop
 endfacet

 facet normal -0.926259696 -0.306708515 -0.219027102
  outer loop
  vertex -0.00613329606 -0.0270701516 -0.023610143
  vertex -0.00617381977 -0.0271133315 -0.0233783033
  vertex -0.00627072994 -0.0268206634 -0.0233783033
  endloop
 endfacet

 facet normal -0.697057724 -0.716185093 -0.0344876647
  outer loop
  vertex -0.00821595639 -0.0258467067 -0.0117021035
  vertex -0.00821595639 -0.0258035269 -0.0125987986
  vertex -0.00626720674 -0.0272092875 -0.0227939188
  endloop
 endfacet

 facet normal -0.696433961 -0.71680069 -0.0343024544
  outer loop
  vertex -0.00821595639 -0.0258467067 -0.0117021035
  vertex -0.00626720674 -0.0272092875 -0.0227939188
  vertex -0.00629539834 -0.027242871 -0.021519769
  endloop
 endfacet

 facet normal -0.770914912 -0.634113312 -0.0599216372
  outer loop
  vertex -0.00626720674 -0.0272092875 -0.0227939188
  vertex -0.00821595639 -0.0258035269 -0.0125987986
  vertex -0.00821595639 -0.0257843342 -0.0128018958
  endloop
 endfacet

 facet normal -0.884408474 -0.454110861 -0.107726358
  outer loop
  vertex -0.00626720674 -0.0272092875 -0.0227939188
  vertex -0.00821595639 -0.0257843342 -0.0128018958
  vertex -0.00821595639 -0.0256547946 -0.0133479601
  endloop
 endfacet

endsolid AssimpScene
