solid AssimpScene
 facet normal 1 0 0
  outer loop
  vertex -0.00829315837 -0.00229650736 -0.011908181
  vertex -0.00829315837 -0.0010094936 -0.011908181
  vertex -0.00829315837 0.000472647982 -0.0118550947
  endloop
 endfacet

 facet normal 1 0 0
  outer loop
  vertex -0.00829315837 -0.00229650736 -0.011908181
  vertex -0.00829315837 0.000472647982 -0.0118550947
  vertex -0.00829315837 0.00158529216 -0.0113518331
  endloop
 endfacet

 facet normal 1 0 0
  outer loop
  vertex -0.00829315837 -0.00229650736 -0.011908181
  vertex -0.00829315837 0.00158529216 -0.0113518331
  vertex -0.00829315837 0.00397041952 -0.0095341485
  endloop
 endfacet

 facet normal 1 0 0
  outer loop
  vertex -0.00829315837 -0.00229650736 -0.011908181
  vertex -0.00829315837 0.00397041952 -0.0095341485
  vertex -0.00829315837 0.00404930068 -0.00880792364
  endloop
 endfacet

 facet normal 1 0 0
  outer loop
  vertex -0.00829315837 -0.00229650736 -0.011908181
  vertex -0.00829315837 0.00404930068 -0.00880792364
  vertex -0.00829315837 0.00410119677 -0.00741917873
  endloop
 endfacet

 facet normal 1 0 0
  outer loop
  vertex -0.00829315837 -0.00229650736 -0.011908181
  vertex -0.00829315837 0.00410119677 -0.00741917873
  vertex -0.00829315837 0.00410119677 0.00693330914
  endloop
 endfacet

 facet normal 1 0 0
  outer loop
  vertex -0.00829315837 -0.00229650736 -0.011908181
  vertex -0.00829315837 0.00410119677 0.00693330914
  vertex -0.00829315837 -0.00502414629 0.00693330914
  endloop
 endfacet

 facet normal 1 0 0
  outer loop
  vertex -0.00829315837 -0.00229650736 -0.011908181
  vertex -0.00829315837 -0.00502414629 0.00693330914
  vertex -0.00829315837 -0.00473560626 -0.0101945447
  endloop
 endfacet

 facet normal 1 0 0
  outer loop
  vertex -0.00829315837 -0.00229650736 -0.011908181
  vertex -0.00829315837 -0.00473560626 -0.0101945447
  vertex -0.00829315837 -0.00455708476 -0.0111331167
  endloop
 endfacet

 facet normal 1 0 0
  outer loop
  vertex -0.00829315837 -0.00229650736 -0.011908181
  vertex -0.00829315837 -0.00455708476 -0.0111331167
  vertex -0.00829315837 -0.00376411807 -0.0116002783
  endloop
 endfacet

 facet normal 1 0 0
  outer loop
  vertex -0.00829315837 -0.00229650736 -0.011908181
  vertex -0.00829315837 -0.00376411807 -0.0116002783
  vertex -0.00829315837 -0.00368731259 -0.0116363773
  endloop
 endfacet

 facet normal 1 0 0
  outer loop
  vertex -0.00829315837 -0.00229650736 -0.011908181
  vertex -0.00829315837 -0.00368731259 -0.0116363773
  vertex -0.00829315837 -0.00242728437 -0.0118954396
  endloop
 endfacet

 facet normal 0.0284528844 -0.096931383 -0.994884253
  outer loop
  vertex -0.00829315837 -0.00229650736 -0.011908181
  vertex -0.00829315837 -0.00242728437 -0.0118954396
  vertex -0.0111750355 -0.00368731259 -0.0118550947
  endloop
 endfacet

 facet normal 0.0274443366 -0.0948503241 -0.995113254
  outer loop
  vertex -0.00829315837 -0.00229650736 -0.011908181
  vertex -0.0111750355 -0.00368731259 -0.0118550947
  vertex -0.0125609282 -0.00368731259 -0.0118933162
  endloop
 endfacet

 facet normal 0.00746824779 -0.033598382 -0.99940747
  outer loop
  vertex -0.00829315837 -0.00229650736 -0.011908181
  vertex -0.0125609282 -0.00368731259 -0.0118933162
  vertex -0.0250469055 -0.00646269554 -0.0118933162
  endloop
 endfacet

 facet normal 0.00153197418 -0.00972842239 -0.999951541
  outer loop
  vertex -0.00829315837 -0.00229650736 -0.011908181
  vertex -0.0250469055 -0.00646269554 -0.0118933162
  vertex -0.0264327992 -0.00646269554 -0.0118954396
  endloop
 endfacet

 facet normal -0.000571191544 -0.000571356795 -0.999999702
  outer loop
  vertex -0.00829315837 -0.00229650736 -0.011908181
  vertex -0.0264327992 -0.00646269554 -0.0118954396
  vertex -0.0278219301 -0.00507396599 -0.0118954396
  endloop
 endfacet

 facet normal -0.000652452232 0 -0.999999762
  outer loop
  vertex -0.00829315837 -0.00229650736 -0.011908181
  vertex -0.0278219301 -0.00507396599 -0.0118954396
  vertex -0.00829315837 -0.0010094936 -0.011908181
  endloop
 endfacet

 facet normal -0.0011181907 0.00223776628 -0.999996841
  outer loop
  vertex -0.00829315837 -0.0010094936 -0.011908181
  vertex -0.0278219301 -0.00507396599 -0.0118954396
  vertex -0.0250469055 -0.00368731259 -0.0118954396
  endloop
 endfacet

 facet normal -0.0037695386 0.0188267585 -0.999815762
  outer loop
  vertex -0.00829315837 -0.0010094936 -0.011908181
  vertex -0.0250469055 -0.00368731259 -0.0118954396
  vertex -0.0181109719 -0.00229858328 -0.0118954396
  endloop
 endfacet

 facet normal -0.00599672087 0.0357938521 -0.999341309
  outer loop
  vertex -0.00829315837 -0.0010094936 -0.011908181
  vertex -0.0181109719 -0.00229858328 -0.0118954396
  vertex -0.00829315837 0.000472647982 -0.0118550947
  endloop
 endfacet

 facet normal 0.0833117366 -0.200687528 -0.976106405
  outer loop
  vertex -0.00829315837 -0.00242728437 -0.0118954396
  vertex -0.00829315837 -0.00368731259 -0.0116363773
  vertex -0.00978590641 -0.00368731259 -0.011763785
  endloop
 endfacet

 facet normal 0.0645301044 -0.17902422 -0.981726229
  outer loop
  vertex -0.00829315837 -0.00242728437 -0.0118954396
  vertex -0.00978590641 -0.00368731259 -0.011763785
  vertex -0.0111750355 -0.00368731259 -0.0118550947
  endloop
 endfacet

 facet normal 0.0630680621 -0.274615884 -0.959483504
  outer loop
  vertex -0.0111750355 -0.00368731259 -0.0118550947
  vertex -0.00978590641 -0.00368731259 -0.011763785
  vertex -0.0167283174 -0.00507396599 -0.0118232416
  endloop
 endfacet

 facet normal 0.0526684225 -0.233231753 -0.970993876
  outer loop
  vertex -0.0111750355 -0.00368731259 -0.0118550947
  vertex -0.0167283174 -0.00507396599 -0.0118232416
  vertex -0.0236610137 -0.00646269554 -0.0118657118
  endloop
 endfacet

 facet normal 0.0286821816 -0.125242457 -0.991711557
  outer loop
  vertex -0.0111750355 -0.00368731259 -0.0118550947
  vertex -0.0236610137 -0.00646269554 -0.0118657118
  vertex -0.0181109719 -0.00507396599 -0.0118805757
  endloop
 endfacet

 facet normal 0.0273737833 -0.118682437 -0.992554963
  outer loop
  vertex -0.0111750355 -0.00368731259 -0.0118550947
  vertex -0.0181109719 -0.00507396599 -0.0118805757
  vertex -0.0125609282 -0.00368731259 -0.0118933162
  endloop
 endfacet

 facet normal 0.0184438806 -0.0829758868 -0.996380925
  outer loop
  vertex -0.0125609282 -0.00368731259 -0.0118933162
  vertex -0.0181109719 -0.00507396599 -0.0118805757
  vertex -0.0250469055 -0.00646269554 -0.0118933162
  endloop
 endfacet

 facet normal 0.0194406696 -0.216768771 -0.976029336
  outer loop
  vertex -0.0250469055 -0.00646269554 -0.0118933162
  vertex -0.0236610137 -0.00646269554 -0.0118657118
  vertex -0.0278219301 -0.00784934871 -0.0116406241
  endloop
 endfacet

 facet normal 0.00150640355 -0.182195902 -0.983261108
  outer loop
  vertex -0.0250469055 -0.00646269554 -0.0118933162
  vertex -0.0278219301 -0.00784934871 -0.0116406241
  vertex -0.0264327992 -0.00646269554 -0.0118954396
  endloop
 endfacet

 facet normal 0.0198334958 -0.0899220333 -0.995751321
  outer loop
  vertex -0.0250469055 -0.00646269554 -0.0118933162
  vertex -0.0181109719 -0.00507396599 -0.0118805757
  vertex -0.0236610137 -0.00646269554 -0.0118657118
  endloop
 endfacet

 facet normal -0.0135612413 -0.167562053 -0.985768259
  outer loop
  vertex -0.0264327992 -0.00646269554 -0.0118954396
  vertex -0.0278219301 -0.00784934871 -0.0116406241
  vertex -0.0278219301 -0.00646269554 -0.0118763288
  endloop
 endfacet

 facet normal -0.0137544237 -0.0137584023 -0.999810696
  outer loop
  vertex -0.0264327992 -0.00646269554 -0.0118954396
  vertex -0.0278219301 -0.00646269554 -0.0118763288
  vertex -0.0278219301 -0.00507396599 -0.0118954396
  endloop
 endfacet

 facet normal -0.0623465329 0.0807380825 -0.994783521
  outer loop
  vertex -0.0278219301 -0.00507396599 -0.0118954396
  vertex -0.0278219301 -0.00368731259 -0.0117828967
  vertex -0.0264327992 -0.00368731259 -0.0118699577
  endloop
 endfacet

 facet normal -0.0183705389 0.0367638282 -0.999155164
  outer loop
  vertex -0.0278219301 -0.00507396599 -0.0118954396
  vertex -0.0264327992 -0.00368731259 -0.0118699577
  vertex -0.0250469055 -0.00368731259 -0.0118954396
  endloop
 endfacet

 facet normal -0.14449428 -0.0136153055 -0.98941195
  outer loop
  vertex -0.0278219301 -0.00507396599 -0.0118954396
  vertex -0.0278219301 -0.00646269554 -0.0118763288
  vertex -0.0413732305 -0.00646477146 -0.00989726093
  endloop
 endfacet

 facet normal -0.145875603 0 -0.989302993
  outer loop
  vertex -0.0278219301 -0.00507396599 -0.0118954396
  vertex -0.0413732305 -0.00646477146 -0.00989726093
  vertex -0.0413732305 -0.00368731259 -0.00989726093
  endloop
 endfacet

 facet normal -0.141334787 0.0439204089 -0.988987088
  outer loop
  vertex -0.0278219301 -0.00507396599 -0.0118954396
  vertex -0.0413732305 -0.00368731259 -0.00989726093
  vertex -0.0413732305 -0.00230065896 -0.00983568002
  endloop
 endfacet

 facet normal -0.139997751 0.0503668413 -0.988870025
  outer loop
  vertex -0.0278219301 -0.00507396599 -0.0118954396
  vertex -0.0413732305 -0.00230065896 -0.00983568002
  vertex -0.0375652649 0.00882578269 -0.00980807561
  endloop
 endfacet

 facet normal -0.0976591259 0.080508776 -0.991958141
  outer loop
  vertex -0.0278219301 -0.00507396599 -0.0118954396
  vertex -0.0375652649 0.00882578269 -0.00980807561
  vertex -0.0278219301 -0.00368731259 -0.0117828967
  endloop
 endfacet

 facet normal -0.0183251537 0.0792462379 -0.996686637
  outer loop
  vertex -0.0250469055 -0.00368731259 -0.0118954396
  vertex -0.0264327992 -0.00368731259 -0.0118699577
  vertex -0.0195033401 -0.00229858328 -0.0118869459
  endloop
 endfacet

 facet normal -0.00609674817 0.0304498821 -0.999517679
  outer loop
  vertex -0.0250469055 -0.00368731259 -0.0118954396
  vertex -0.0195033401 -0.00229858328 -0.0118869459
  vertex -0.0181109719 -0.00229858328 -0.0118954396
  endloop
 endfacet

 facet normal -0.00609559147 0.0361439362 -0.999328077
  outer loop
  vertex -0.0181109719 -0.00229858328 -0.0118954396
  vertex -0.0195033401 -0.00229858328 -0.0118869459
  vertex -0.00829315837 0.000472647982 -0.0118550947
  endloop
 endfacet

 facet normal -0.0204064175 0.0939885229 -0.995364249
  outer loop
  vertex -0.00829315837 0.000472647982 -0.0118550947
  vertex -0.0195033401 -0.00229858328 -0.0118869459
  vertex -0.00839677453 0.000472647982 -0.0118529703
  endloop
 endfacet

 facet normal -0.0202224515 0.163167909 -0.986391008
  outer loop
  vertex -0.00829315837 0.000472647982 -0.0118550947
  vertex -0.00839677453 0.000472647982 -0.0118529703
  vertex -0.0375652649 0.0100795822 -0.00966580305
  endloop
 endfacet

 facet normal -0.00402292097 0.21051985 -0.977581263
  outer loop
  vertex -0.00829315837 0.000472647982 -0.0118550947
  vertex -0.0375652649 0.0100795822 -0.00966580305
  vertex -0.0375652649 0.0101190237 -0.00965730939
  endloop
 endfacet

 facet normal 0.0672474951 0.411181897 -0.909069479
  outer loop
  vertex -0.00829315837 0.000472647982 -0.0118550947
  vertex -0.0375652649 0.0101190237 -0.00965730939
  vertex -0.00829315837 0.00158529216 -0.0113518331
  endloop
 endfacet

 facet normal 0.0934662521 -0.423507094 -0.901058197
  outer loop
  vertex -0.00829315837 -0.00368731259 -0.0116363773
  vertex -0.00829315837 -0.00376411807 -0.0116002783
  vertex -0.0208892319 -0.00646269554 -0.0116385007
  endloop
 endfacet

 facet normal 0.0926796421 -0.419935763 -0.902809262
  outer loop
  vertex -0.00829315837 -0.00368731259 -0.0116363773
  vertex -0.0208892319 -0.00646269554 -0.0116385007
  vertex -0.0222751237 -0.00646269554 -0.0117807724
  endloop
 endfacet

 facet normal 0.0795855373 -0.352427542 -0.932448983
  outer loop
  vertex -0.00829315837 -0.00368731259 -0.0116363773
  vertex -0.0222751237 -0.00646269554 -0.0117807724
  vertex -0.00978590641 -0.00368731259 -0.011763785
  endloop
 endfacet

 facet normal 0.0689325854 -0.304381549 -0.950052738
  outer loop
  vertex -0.00978590641 -0.00368731259 -0.011763785
  vertex -0.0222751237 -0.00646269554 -0.0117807724
  vertex -0.0167283174 -0.00507396599 -0.0118232416
  endloop
 endfacet

 facet normal 0.0589863397 -0.265033275 -0.962433457
  outer loop
  vertex -0.0167283174 -0.00507396599 -0.0118232416
  vertex -0.0222751237 -0.00646269554 -0.0117807724
  vertex -0.0236610137 -0.00646269554 -0.0118657118
  endloop
 endfacet

 facet normal 0.0578212701 -0.326508552 -0.943423986
  outer loop
  vertex -0.0236610137 -0.00646269554 -0.0118657118
  vertex -0.0222751237 -0.00646269554 -0.0117807724
  vertex -0.0264327992 -0.00784934871 -0.0115556857
  endloop
 endfacet

 facet normal 0.0576912127 -0.326268882 -0.943514943
  outer loop
  vertex -0.0236610137 -0.00646269554 -0.0118657118
  vertex -0.0264327992 -0.00784934871 -0.0115556857
  vertex -0.0278219301 -0.00784934871 -0.0116406241
  endloop
 endfacet

 facet normal 0.0537516885 -0.473623365 -0.87908572
  outer loop
  vertex -0.0278219301 -0.00784934871 -0.0116406241
  vertex -0.0264327992 -0.00784934871 -0.0115556857
  vertex -0.0278219301 -0.00874403119 -0.0111585977
  endloop
 endfacet

 facet normal -0.0502848253 -0.473709047 -0.879244685
  outer loop
  vertex -0.0278219301 -0.00784934871 -0.0116406241
  vertex -0.0278219301 -0.00874403119 -0.0111585977
  vertex -0.041337613 -0.0101431403 -0.00963182747
  endloop
 endfacet

 facet normal -0.113550872 -0.185684189 -0.976026475
  outer loop
  vertex -0.0278219301 -0.00784934871 -0.0116406241
  vertex -0.041337613 -0.0101431403 -0.00963182747
  vertex -0.0413732305 -0.0100767128 -0.00964032114
  endloop
 endfacet

 facet normal -0.117165759 -0.166423246 -0.979068696
  outer loop
  vertex -0.0278219301 -0.00784934871 -0.0116406241
  vertex -0.0413732305 -0.0100767128 -0.00964032114
  vertex -0.0278219301 -0.00646269554 -0.0118763288
  endloop
 endfacet

 facet normal -0.128402263 -0.127062067 -0.98354876
  outer loop
  vertex -0.0278219301 -0.00646269554 -0.0118763288
  vertex -0.0413732305 -0.0100767128 -0.00964032114
  vertex -0.0413732305 -0.00927129108 -0.00974437129
  endloop
 endfacet

 facet normal -0.133480102 -0.104095742 -0.985569477
  outer loop
  vertex -0.0278219301 -0.00646269554 -0.0118763288
  vertex -0.0413732305 -0.00927129108 -0.00974437129
  vertex -0.0413732305 -0.00818563346 -0.00985903852
  endloop
 endfacet

 facet normal -0.139970586 -0.0565256327 -0.988540888
  outer loop
  vertex -0.0278219301 -0.00646269554 -0.0118763288
  vertex -0.0413732305 -0.00818563346 -0.00985903852
  vertex -0.0413732305 -0.00785142463 -0.00987814926
  endloop
 endfacet

 facet normal -0.144494265 -0.013636427 -0.989411712
  outer loop
  vertex -0.0278219301 -0.00646269554 -0.0118763288
  vertex -0.0413732305 -0.00785142463 -0.00987814926
  vertex -0.0413732305 -0.00646477146 -0.00989726093
  endloop
 endfacet

 facet normal -0.0621837452 0.108167693 -0.99218601
  outer loop
  vertex -0.0278219301 -0.00368731259 -0.0117828967
  vertex -0.0375652649 0.00882578269 -0.00980807561
  vertex -0.0264327992 -0.00368731259 -0.0118699577
  endloop
 endfacet

 facet normal -0.0581584796 0.111724101 -0.992035985
  outer loop
  vertex -0.0264327992 -0.00368731259 -0.0118699577
  vertex -0.0375652649 0.00882578269 -0.00980807561
  vertex -0.0375652649 0.00905204751 -0.0097825937
  endloop
 endfacet

 facet normal -0.056975469 0.112750113 -0.99198854
  outer loop
  vertex -0.0264327992 -0.00368731259 -0.0118699577
  vertex -0.0375652649 0.00905204751 -0.0097825937
  vertex -0.0375652649 0.0100795822 -0.00966580305
  endloop
 endfacet

 facet normal -0.0300407298 0.134290159 -0.990486622
  outer loop
  vertex -0.0264327992 -0.00368731259 -0.0118699577
  vertex -0.0375652649 0.0100795822 -0.00966580305
  vertex -0.00839677453 0.000472647982 -0.0118529703
  endloop
 endfacet

 facet normal -0.0247795712 0.111491904 -0.993456364
  outer loop
  vertex -0.0264327992 -0.00368731259 -0.0118699577
  vertex -0.00839677453 0.000472647982 -0.0118529703
  vertex -0.0195033401 -0.00229858328 -0.0118869459
  endloop
 endfacet

 facet normal -1 0 0
  outer loop
  vertex -0.0413732305 -0.00646477146 -0.00989726093
  vertex -0.0413732305 -0.00785142463 -0.00987814926
  vertex -0.0413732305 -0.00818563346 -0.00985903852
  endloop
 endfacet

 facet normal -1 0 0
  outer loop
  vertex -0.0413732305 -0.00646477146 -0.00989726093
  vertex -0.0413732305 -0.00818563346 -0.00985903852
  vertex -0.0413732305 -0.00927129108 -0.00974437129
  endloop
 endfacet

 facet normal -1 0 0
  outer loop
  vertex -0.0413732305 -0.00646477146 -0.00989726093
  vertex -0.0413732305 -0.00927129108 -0.00974437129
  vertex -0.0413732305 -0.0100767128 -0.00964032114
  endloop
 endfacet

 facet normal -1 0 0
  outer loop
  vertex -0.0413732305 -0.00646477146 -0.00989726093
  vertex -0.0413732305 -0.0100767128 -0.00964032114
  vertex -0.0413732305 -0.0101306848 -0.00961696357
  endloop
 endfacet

 facet normal -1 0 0
  outer loop
  vertex -0.0413732305 -0.00646477146 -0.00989726093
  vertex -0.0413732305 -0.0101306848 -0.00961696357
  vertex -0.0413732305 -0.0101535181 -0.00956600066
  endloop
 endfacet

 facet normal -1 0 0
  outer loop
  vertex -0.0413732305 -0.00646477146 -0.00989726093
  vertex -0.0413732305 -0.0101535181 -0.00956600066
  vertex -0.0413732305 -0.0103133572 -0.00876120757
  endloop
 endfacet

 facet normal -1 0 0
  outer loop
  vertex -0.0413732305 -0.00646477146 -0.00989726093
  vertex -0.0413732305 -0.0103133572 -0.00876120757
  vertex -0.0413732305 -0.0104815001 -0.00741917873
  endloop
 endfacet

 facet normal -1 0 0
  outer loop
  vertex -0.0413732305 -0.00646477146 -0.00989726093
  vertex -0.0413732305 -0.0104815001 -0.00741917873
  vertex -0.0413732305 -0.0104815001 0.00679316092
  endloop
 endfacet

 facet normal -1 0 0
  outer loop
  vertex -0.0413732305 -0.00646477146 -0.00989726093
  vertex -0.0413732305 -0.0104815001 0.00679316092
  vertex -0.0413732305 -0.0104648937 0.00784639828
  endloop
 endfacet

 facet normal -1 0 0
  outer loop
  vertex -0.0413732305 -0.00646477146 -0.00989726093
  vertex -0.0413732305 -0.0104648937 0.00784639828
  vertex -0.0413732305 -0.0101908837 0.00882743765
  endloop
 endfacet

 facet normal -1 0 0
  outer loop
  vertex -0.0413732305 -0.00646477146 -0.00989726093
  vertex -0.0413732305 -0.0101908837 0.00882743765
  vertex -0.0413732305 -0.00924015418 0.00933494605
  endloop
 endfacet

 facet normal -1 0 0
  outer loop
  vertex -0.0413732305 -0.00646477146 -0.00989726093
  vertex -0.0413732305 -0.00924015418 0.00933494605
  vertex -0.0413732305 -0.00785142463 0.0095855156
  endloop
 endfacet

 facet normal -1 0 0
  outer loop
  vertex -0.0413732305 -0.00646477146 -0.00989726093
  vertex -0.0413732305 -0.00785142463 0.0095855156
  vertex -0.0413732305 -0.00751721673 0.00959400833
  endloop
 endfacet

 facet normal -1 0 0
  outer loop
  vertex -0.0413732305 -0.00646477146 -0.00989726093
  vertex -0.0413732305 -0.00751721673 0.00959400833
  vertex -0.0413732305 -0.00646477146 0.00961949024
  endloop
 endfacet

 facet normal -1 0 0
  outer loop
  vertex -0.0413732305 -0.00646477146 -0.00989726093
  vertex -0.0413732305 -0.00646477146 0.00961949024
  vertex -0.0413732305 -0.0061305631 0.00962161366
  endloop
 endfacet

 facet normal -1 0 0
  outer loop
  vertex -0.0413732305 -0.00646477146 -0.00989726093
  vertex -0.0413732305 -0.0061305631 0.00962161366
  vertex -0.0413732305 -0.00507604191 0.00962798484
  endloop
 endfacet

 facet normal -1 0 0
  outer loop
  vertex -0.0413732305 -0.00646477146 -0.00989726093
  vertex -0.0413732305 -0.00507604191 0.00962798484
  vertex -0.0413732305 -0.00368731259 0.00962798484
  endloop
 endfacet

 facet normal -1 0 0
  outer loop
  vertex -0.0413732305 -0.00646477146 -0.00989726093
  vertex -0.0413732305 -0.00368731259 0.00962798484
  vertex -0.0413732305 -0.00335517991 0.00961524248
  endloop
 endfacet

 facet normal -1 0 0
  outer loop
  vertex -0.0413732305 -0.00646477146 -0.00989726093
  vertex -0.0413732305 -0.00335517991 0.00961524248
  vertex -0.0413732305 -0.00230065896 0.00949208252
  endloop
 endfacet

 facet normal -1 0 0
  outer loop
  vertex -0.0413732305 -0.00646477146 -0.00989726093
  vertex -0.0413732305 -0.00230065896 0.00949208252
  vertex -0.0413732305 -0.00201211893 0.00936255045
  endloop
 endfacet

 facet normal -1 0 0
  outer loop
  vertex -0.0413732305 -0.00646477146 -0.00989726093
  vertex -0.0413732305 -0.00201211893 0.00936255045
  vertex -0.0413732305 -0.00130010955 0.00894847605
  endloop
 endfacet

 facet normal -1 0 0
  outer loop
  vertex -0.0413732305 -0.00646477146 -0.00989726093
  vertex -0.0413732305 -0.00130010955 0.00894847605
  vertex -0.0413732305 -0.00117555994 0.00871064793
  endloop
 endfacet

 facet normal -1 0 0
  outer loop
  vertex -0.0413732305 -0.00646477146 -0.00989726093
  vertex -0.0413732305 -0.00117555994 0.00871064793
  vertex -0.0413732305 0.000439435011 0.00368228694
  endloop
 endfacet

 facet normal -1 0 0
  outer loop
  vertex -0.0413732305 -0.00646477146 -0.00989726093
  vertex -0.0413732305 0.000439435011 0.00368228694
  vertex -0.0413732305 0.000613804557 0.00229354203
  endloop
 endfacet

 facet normal -1 0 0
  outer loop
  vertex -0.0413732305 -0.00646477146 -0.00989726093
  vertex -0.0413732305 0.000613804557 0.00229354203
  vertex -0.0413732305 0.000584742986 0.000904797111
  endloop
 endfacet

 facet normal -1 0 0
  outer loop
  vertex -0.0413732305 -0.00646477146 -0.00989726093
  vertex -0.0413732305 0.000584742986 0.000904797111
  vertex -0.0413732305 -0.00113819505 -0.00880580023
  endloop
 endfacet

 facet normal -1 0 0
  outer loop
  vertex -0.0413732305 -0.00646477146 -0.00989726093
  vertex -0.0413732305 -0.00113819505 -0.00880580023
  vertex -0.0413732305 -0.00141635584 -0.00964032114
  endloop
 endfacet

 facet normal -1 0 0
  outer loop
  vertex -0.0413732305 -0.00646477146 -0.00989726093
  vertex -0.0413732305 -0.00141635584 -0.00964032114
  vertex -0.0413732305 -0.00230065896 -0.00983568002
  endloop
 endfacet

 facet normal -1 0 0
  outer loop
  vertex -0.0413732305 -0.00646477146 -0.00989726093
  vertex -0.0413732305 -0.00230065896 -0.00983568002
  vertex -0.0413732305 -0.00368731259 -0.00989726093
  endloop
 endfacet

 facet normal -0.549574018 0.180219501 -0.815775335
  outer loop
  vertex -0.0413732305 -0.00230065896 -0.00983568002
  vertex -0.0413732305 -0.00141635584 -0.00964032114
  vertex -0.0375652649 0.0101190237 -0.00965730939
  endloop
 endfacet

 facet normal -0.539546192 0.177249953 -0.823087156
  outer loop
  vertex -0.0413732305 -0.00230065896 -0.00983568002
  vertex -0.0375652649 0.0101190237 -0.00965730939
  vertex -0.0375652649 0.0100795822 -0.00966580305
  endloop
 endfacet

 facet normal -0.307224274 0.107471779 -0.94554913
  outer loop
  vertex -0.0413732305 -0.00230065896 -0.00983568002
  vertex -0.0375652649 0.0100795822 -0.00966580305
  vertex -0.0375652649 0.00905204751 -0.0097825937
  endloop
 endfacet

 facet normal -0.30459857 0.106595486 -0.946497321
  outer loop
  vertex -0.0413732305 -0.00230065896 -0.00983568002
  vertex -0.0375652649 0.00905204751 -0.0097825937
  vertex -0.0375652649 0.00882578269 -0.00980807561
  endloop
 endfacet

 facet normal 0.129564136 0.601028085 -0.788656116
  outer loop
  vertex -0.00829315837 0.00158529216 -0.0113518331
  vertex -0.0375652649 0.0101190237 -0.00965730939
  vertex -0.00829315837 0.00397041952 -0.0095341485
  endloop
 endfacet

 facet normal 0.181129396 0.852493763 -0.490353435
  outer loop
  vertex -0.0375652649 0.0101190237 -0.00965730939
  vertex -0.0375652649 0.0105611756 -0.0088886153
  vertex -0.00829315837 0.00397041952 -0.0095341485
  endloop
 endfacet

 facet normal -0.934627235 0.308270425 -0.177316815
  outer loop
  vertex -0.0375652649 0.0101190237 -0.00965730939
  vertex -0.0413732305 -0.00141635584 -0.00964032114
  vertex -0.0375652649 0.0105611756 -0.0088886153
  endloop
 endfacet

 facet normal 0.117885672 -0.504054189 -0.855588913
  outer loop
  vertex -0.00829315837 -0.00376411807 -0.0116002783
  vertex -0.00829315837 -0.00455708476 -0.0111331167
  vertex -0.00978590641 -0.00468993746 -0.0112605244
  endloop
 endfacet

 facet normal 0.113098741 -0.497893065 -0.859832048
  outer loop
  vertex -0.00829315837 -0.00376411807 -0.0116002783
  vertex -0.00978590641 -0.00468993746 -0.0112605244
  vertex -0.0167283174 -0.00616792776 -0.0113178575
  endloop
 endfacet

 facet normal 0.109877318 -0.487345099 -0.866268873
  outer loop
  vertex -0.00829315837 -0.00376411807 -0.0116002783
  vertex -0.0167283174 -0.00616792776 -0.0113178575
  vertex -0.0222751237 -0.00749023072 -0.0112775126
  endloop
 endfacet

 facet normal 0.10425216 -0.467249602 -0.877957463
  outer loop
  vertex -0.00829315837 -0.00376411807 -0.0116002783
  vertex -0.0222751237 -0.00749023072 -0.0112775126
  vertex -0.0236610137 -0.00764384167 -0.0113603268
  endloop
 endfacet

 facet normal 0.0962293074 -0.436496437 -0.894545019
  outer loop
  vertex -0.00829315837 -0.00376411807 -0.0116002783
  vertex -0.0236610137 -0.00764384167 -0.0113603268
  vertex -0.0208892319 -0.00646269554 -0.0116385007
  endloop
 endfacet

 facet normal 0.095344983 -0.434654564 -0.895536065
  outer loop
  vertex -0.0208892319 -0.00646269554 -0.0116385007
  vertex -0.0236610137 -0.00764384167 -0.0113603268
  vertex -0.0264327992 -0.00784934871 -0.0115556857
  endloop
 endfacet

 facet normal 0.0925041512 -0.423629731 -0.901099801
  outer loop
  vertex -0.0208892319 -0.00646269554 -0.0116385007
  vertex -0.0264327992 -0.00784934871 -0.0115556857
  vertex -0.0222751237 -0.00646269554 -0.0117807724
  endloop
 endfacet

 facet normal 0.098519817 -0.525375366 -0.845147729
  outer loop
  vertex -0.0264327992 -0.00784934871 -0.0115556857
  vertex -0.0236610137 -0.00764384167 -0.0113603268
  vertex -0.0264327992 -0.00865892228 -0.0110524241
  endloop
 endfacet

 facet normal 0.0968006998 -0.525464356 -0.845290899
  outer loop
  vertex -0.0264327992 -0.00784934871 -0.0115556857
  vertex -0.0264327992 -0.00865892228 -0.0110524241
  vertex -0.0278219301 -0.00874403119 -0.0111585977
  endloop
 endfacet

 facet normal 0.0792241618 -0.960559666 -0.266549975
  outer loop
  vertex -0.0278219301 -0.00874403119 -0.0111585977
  vertex -0.0264327992 -0.00865892228 -0.0110524241
  vertex -0.0403176248 -0.0104275281 -0.00880580023
  endloop
 endfacet

 facet normal 0.0595824942 -0.934120893 -0.351949036
  outer loop
  vertex -0.0278219301 -0.00874403119 -0.0111585977
  vertex -0.0403176248 -0.0104275281 -0.00880580023
  vertex -0.0403176248 -0.0101203052 -0.0096212104
  endloop
 endfacet

 facet normal 0.0244170483 -0.835278213 -0.549285114
  outer loop
  vertex -0.0278219301 -0.00874403119 -0.0111585977
  vertex -0.0403176248 -0.0101203052 -0.0096212104
  vertex -0.041337613 -0.0101431403 -0.00963182747
  endloop
 endfacet

 facet normal 0.0246120077 -0.935500026 -0.35246858
  outer loop
  vertex -0.041337613 -0.0101431403 -0.00963182747
  vertex -0.0403176248 -0.0101203052 -0.0096212104
  vertex -0.0403176248 -0.0104275281 -0.00880580023
  endloop
 endfacet

 facet normal -0.102210827 -0.972634435 -0.208650917
  outer loop
  vertex -0.041337613 -0.0101431403 -0.00963182747
  vertex -0.0403176248 -0.0104275281 -0.00880580023
  vertex -0.0413732305 -0.0101535181 -0.00956600066
  endloop
 endfacet

 facet normal -0.439832062 -0.819579005 -0.367203087
  outer loop
  vertex -0.041337613 -0.0101431403 -0.00963182747
  vertex -0.0413732305 -0.0101535181 -0.00956600066
  vertex -0.0413732305 -0.0101306848 -0.00961696357
  endloop
 endfacet

 facet normal -0.462662399 -0.352112919 -0.813609242
  outer loop
  vertex -0.041337613 -0.0101431403 -0.00963182747
  vertex -0.0413732305 -0.0101306848 -0.00961696357
  vertex -0.0413732305 -0.0100767128 -0.00964032114
  endloop
 endfacet

 facet normal -0.946112812 0.307220399 -0.102402031
  outer loop
  vertex -0.0413732305 -0.00141635584 -0.00964032114
  vertex -0.0413732305 -0.00113819505 -0.00880580023
  vertex -0.0375652649 0.0105611756 -0.0088886153
  endloop
 endfacet

 facet normal 0.216218412 0.970636189 -0.105428547
  outer loop
  vertex -0.00829315837 0.00397041952 -0.0095341485
  vertex -0.0375652649 0.0105611756 -0.0088886153
  vertex -0.00829315837 0.00404930068 -0.00880792364
  endloop
 endfacet

 facet normal 0.21632719 0.971193314 -0.0999306664
  outer loop
  vertex -0.0375652649 0.0105611756 -0.0088886153
  vertex -0.0375652649 0.0105694784 -0.00880792364
  vertex -0.00829315837 0.00404930068 -0.00880792364
  endloop
 endfacet

 facet normal -0.949585199 0.308687717 -0.054770045
  outer loop
  vertex -0.0375652649 0.0105611756 -0.0088886153
  vertex -0.0413732305 -0.00113819505 -0.00880580023
  vertex -0.0413732305 0.000584742986 0.000904797111
  endloop
 endfacet

 facet normal -0.94429636 0.327367842 -0.0336844176
  outer loop
  vertex -0.0375652649 0.0105611756 -0.0088886153
  vertex -0.0413732305 0.000584742986 0.000904797111
  vertex -0.0375652649 0.0105694784 -0.00880792364
  endloop
 endfacet

 facet normal 0.228550598 -0.956385612 -0.18190977
  outer loop
  vertex -0.00829315837 -0.00455708476 -0.0111331167
  vertex -0.00829315837 -0.00473560626 -0.0101945447
  vertex -0.0132182557 -0.00577767193 -0.0109037822
  endloop
 endfacet

 facet normal 0.200664848 -0.887590885 -0.414627612
  outer loop
  vertex -0.00829315837 -0.00455708476 -0.0111331167
  vertex -0.0132182557 -0.00577767193 -0.0109037822
  vertex -0.0256297588 -0.00857173745 -0.0109292632
  endloop
 endfacet

 facet normal 0.175900549 -0.789457023 -0.58806175
  outer loop
  vertex -0.00829315837 -0.00455708476 -0.0111331167
  vertex -0.0256297588 -0.00857173745 -0.0109292632
  vertex -0.0264327992 -0.00865892228 -0.0110524241
  endloop
 endfacet

 facet normal 0.14673382 -0.663339257 -0.733791709
  outer loop
  vertex -0.00829315837 -0.00455708476 -0.0111331167
  vertex -0.0264327992 -0.00865892228 -0.0110524241
  vertex -0.0222751237 -0.00749023072 -0.0112775126
  endloop
 endfacet

 facet normal 0.118619159 -0.523920715 -0.843466997
  outer loop
  vertex -0.00829315837 -0.00455708476 -0.0111331167
  vertex -0.0222751237 -0.00749023072 -0.0112775126
  vertex -0.00978590641 -0.00468993746 -0.0112605244
  endloop
 endfacet

 facet normal 0.116999283 -0.516667604 -0.848154306
  outer loop
  vertex -0.00978590641 -0.00468993746 -0.0112605244
  vertex -0.0222751237 -0.00749023072 -0.0112775126
  vertex -0.0167283174 -0.00616792776 -0.0113178575
  endloop
 endfacet

 facet normal 0.110612653 -0.552608788 -0.826068044
  outer loop
  vertex -0.0222751237 -0.00749023072 -0.0112775126
  vertex -0.0264327992 -0.00865892228 -0.0110524241
  vertex -0.0236610137 -0.00764384167 -0.0113603268
  endloop
 endfacet

 facet normal 0.127473563 -0.980514467 -0.149471909
  outer loop
  vertex -0.0264327992 -0.00865892228 -0.0110524241
  vertex -0.0264327992 -0.00878969952 -0.0101945447
  vertex -0.0278219301 -0.00897029601 -0.0101945447
  endloop
 endfacet

 facet normal 0.0906175599 -0.974167585 -0.206847787
  outer loop
  vertex -0.0264327992 -0.00865892228 -0.0110524241
  vertex -0.0278219301 -0.00897029601 -0.0101945447
  vertex -0.0403176248 -0.0104275281 -0.00880580023
  endloop
 endfacet

 facet normal 0.129345745 -0.980274856 -0.149435386
  outer loop
  vertex -0.0264327992 -0.00865892228 -0.0110524241
  vertex -0.0256297588 -0.00857173745 -0.0109292632
  vertex -0.0264327992 -0.00878969952 -0.0101945447
  endloop
 endfacet

 facet normal -0.0664450675 -0.993789136 -0.0892648399
  outer loop
  vertex -0.0403176248 -0.0104275281 -0.00880580023
  vertex -0.0403176248 -0.0105520776 -0.00741917873
  vertex -0.0413732305 -0.0104815001 -0.00741917873
  endloop
 endfacet

 facet normal -0.111862391 -0.986014843 -0.123537563
  outer loop
  vertex -0.0403176248 -0.0104275281 -0.00880580023
  vertex -0.0413732305 -0.0104815001 -0.00741917873
  vertex -0.0413732305 -0.0103133572 -0.00876120757
  endloop
 endfacet

 facet normal -0.113573819 -0.974495828 -0.1935433
  outer loop
  vertex -0.0403176248 -0.0104275281 -0.00880580023
  vertex -0.0413732305 -0.0103133572 -0.00876120757
  vertex -0.0413732305 -0.0101535181 -0.00956600066
  endloop
 endfacet

 facet normal 0.105614439 -0.990419805 -0.0889622048
  outer loop
  vertex -0.0403176248 -0.0104275281 -0.00880580023
  vertex -0.0278219301 -0.00897029601 -0.0101945447
  vertex -0.0403176248 -0.0105520776 -0.00741917873
  endloop
 endfacet

 facet normal 0.217015356 0.974282742 -0.0606424138
  outer loop
  vertex -0.00829315837 0.00404930068 -0.00880792364
  vertex -0.0375652649 0.0105694784 -0.00880792364
  vertex -0.0375652649 0.0106400577 -0.00767399464
  endloop
 endfacet

 facet normal 0.21764949 0.974863291 -0.0476462729
  outer loop
  vertex -0.00829315837 0.00404930068 -0.00880792364
  vertex -0.0375652649 0.0106400577 -0.00767399464
  vertex -0.0375652649 0.0106525114 -0.00741917873
  endloop
 endfacet

 facet normal 0.218259305 0.975210249 -0.0364427119
  outer loop
  vertex -0.00829315837 0.00404930068 -0.00880792364
  vertex -0.0375652649 0.0106525114 -0.00741917873
  vertex -0.00829315837 0.00410119677 -0.00741917873
  endloop
 endfacet

 facet normal -0.940796971 0.338315785 -0.0210578386
  outer loop
  vertex -0.0375652649 0.0105694784 -0.00880792364
  vertex -0.0413732305 0.000584742986 0.000904797111
  vertex -0.0375652649 0.0106400577 -0.00767399464
  endloop
 endfacet

 facet normal -0.937286556 0.348483622 -0.00729254587
  outer loop
  vertex -0.0413732305 0.000584742986 0.000904797111
  vertex -0.0413732305 0.000613804557 0.00229354203
  vertex -0.0375652649 0.0106525114 -0.00741917873
  endloop
 endfacet

 facet normal -0.939690709 0.341617763 -0.016696509
  outer loop
  vertex -0.0413732305 0.000584742986 0.000904797111
  vertex -0.0375652649 0.0106525114 -0.00741917873
  vertex -0.0375652649 0.0106400577 -0.00767399464
  endloop
 endfacet

 facet normal 0.224844143 -0.974256516 -0.0164125748
  outer loop
  vertex -0.00829315837 -0.00473560626 -0.0101945447
  vertex -0.00829315837 -0.00502414629 0.00693330914
  vertex -0.0128264502 -0.0060703638 0.00693330914
  endloop
 endfacet

 facet normal 0.223147199 -0.974638402 -0.0168914627
  outer loop
  vertex -0.00829315837 -0.00473560626 -0.0101945447
  vertex -0.0128264502 -0.0060703638 0.00693330914
  vertex -0.0189463925 -0.00747154793 0.00693330914
  endloop
 endfacet

 facet normal 0.218068063 -0.975723982 -0.0202240162
  outer loop
  vertex -0.00829315837 -0.00473560626 -0.0101945447
  vertex -0.0189463925 -0.00747154793 0.00693330914
  vertex -0.0264327992 -0.00878969952 -0.0101945447
  endloop
 endfacet

 facet normal 0.217828214 -0.9746508 -0.051056616
  outer loop
  vertex -0.00829315837 -0.00473560626 -0.0101945447
  vertex -0.0264327992 -0.00878969952 -0.0101945447
  vertex -0.0256297588 -0.00857173745 -0.0109292632
  endloop
 endfacet

 facet normal 0.218859553 -0.971350133 -0.0926260278
  outer loop
  vertex -0.00829315837 -0.00473560626 -0.0101945447
  vertex -0.0256297588 -0.00857173745 -0.0109292632
  vertex -0.0132182557 -0.00577767193 -0.0109037822
  endloop
 endfacet

 facet normal 0.21601972 -0.976198494 -0.0192921888
  outer loop
  vertex -0.0264327992 -0.00878969952 -0.0101945447
  vertex -0.0189463925 -0.00747154793 0.00693330914
  vertex -0.0252314769 -0.00886235386 0.00693330914
  endloop
 endfacet

 facet normal 0.195333794 -0.980574131 -0.0178598706
  outer loop
  vertex -0.0264327992 -0.00878969952 -0.0101945447
  vertex -0.0252314769 -0.00886235386 0.00693330914
  vertex -0.0258046128 -0.00897652376 0.00693330914
  endloop
 endfacet

 facet normal 0.162991017 -0.9864856 -0.0167381372
  outer loop
  vertex -0.0264327992 -0.00878969952 -0.0101945447
  vertex -0.0258046128 -0.00897652376 0.00693330914
  vertex -0.0264327992 -0.00908031501 0.00693330914
  endloop
 endfacet

 facet normal 0.128903657 -0.991514385 -0.0168234669
  outer loop
  vertex -0.0264327992 -0.00878969952 -0.0101945447
  vertex -0.0264327992 -0.00908031501 0.00693330914
  vertex -0.0278219301 -0.00897029601 -0.0101945447
  endloop
 endfacet

 facet normal 0.127155036 -0.991742551 -0.0166831128
  outer loop
  vertex -0.0278219301 -0.00897029601 -0.0101945447
  vertex -0.0264327992 -0.00908031501 0.00693330914
  vertex -0.0272423159 -0.00918410625 0.00693330914
  endloop
 endfacet

 facet normal 0.121955737 -0.992398202 -0.01651535
  outer loop
  vertex -0.0278219301 -0.00897029601 -0.0101945447
  vertex -0.0272423159 -0.00918410625 0.00693330914
  vertex -0.0403176248 -0.0105520776 -0.00741917873
  endloop
 endfacet

 facet normal -0.0667113736 -0.997772336 0
  outer loop
  vertex -0.0403176248 -0.0105520776 -0.00741917873
  vertex -0.0403176248 -0.0105520776 0.00784639828
  vertex -0.0413732305 -0.0104815001 0.00679316092
  endloop
 endfacet

 facet normal -0.0667113736 -0.997772336 0
  outer loop
  vertex -0.0403176248 -0.0105520776 -0.00741917873
  vertex -0.0413732305 -0.0104815001 0.00679316092
  vertex -0.0413732305 -0.0104815001 -0.00741917873
  endloop
 endfacet

 facet normal 0.104054585 -0.994571626 0
  outer loop
  vertex -0.0403176248 -0.0105520776 -0.00741917873
  vertex -0.0272423159 -0.00918410625 0.00693330914
  vertex -0.0403176248 -0.0105520776 0.00784639828
  endloop
 endfacet

 facet normal 0.218403995 0.975856841 -0.00181785342
  outer loop
  vertex -0.00829315837 0.00410119677 -0.00741917873
  vertex -0.0375652649 0.0106525114 -0.00741917873
  vertex -0.0375652649 0.0106545882 -0.00630436046
  endloop
 endfacet

 facet normal 0.218470275 0.975843608 0
  outer loop
  vertex -0.00829315837 0.00410119677 -0.00741917873
  vertex -0.0375652649 0.0106545882 -0.00630436046
  vertex -0.0375652649 0.0106545882 0.00645765383
  endloop
 endfacet

 facet normal 0.218470275 0.975843608 0
  outer loop
  vertex -0.00829315837 0.00410119677 -0.00741917873
  vertex -0.0375652649 0.0106545882 0.00645765383
  vertex -0.00829315837 0.00410119677 0.00693330914
  endloop
 endfacet

 facet normal -0.935203254 0.354110837 -0.000659647572
  outer loop
  vertex -0.0375652649 0.0106525114 -0.00741917873
  vertex -0.0413732305 0.000613804557 0.00229354203
  vertex -0.0375652649 0.0106545882 -0.00630436046
  endloop
 endfacet

 facet normal -0.941641569 0.333994597 0.0419360586
  outer loop
  vertex -0.0413732305 0.000613804557 0.00229354203
  vertex -0.0413732305 0.000439435011 0.00368228694
  vertex -0.0375652649 0.0106525114 0.00784639828
  endloop
 endfacet

 facet normal -0.935089052 0.354412645 0.000529984885
  outer loop
  vertex -0.0413732305 0.000613804557 0.00229354203
  vertex -0.0375652649 0.0106525114 0.00784639828
  vertex -0.0375652649 0.0106545882 0.00645765383
  endloop
 endfacet

 facet normal -0.935016274 0.354604781 0
  outer loop
  vertex -0.0413732305 0.000613804557 0.00229354203
  vertex -0.0375652649 0.0106545882 0.00645765383
  vertex -0.0375652649 0.0106545882 -0.00630436046
  endloop
 endfacet

 facet normal 0.124272987 0 0.992248058
  outer loop
  vertex -0.00829315837 -0.00502414629 0.00693330914
  vertex -0.00829315837 0.00410119677 0.00693330914
  vertex -0.0310632307 -0.00368938851 0.00978512131
  endloop
 endfacet

 facet normal 0.123845741 -0.0073447437 0.992274404
  outer loop
  vertex -0.00829315837 -0.00502414629 0.00693330914
  vertex -0.0310632307 -0.00368938851 0.00978512131
  vertex -0.0310632307 -0.0051237857 0.0097745033
  endloop
 endfacet

 facet normal 0.123891532 -0.038420599 0.991551638
  outer loop
  vertex -0.00829315837 -0.00502414629 0.00693330914
  vertex -0.0310632307 -0.0051237857 0.0097745033
  vertex -0.0310632307 -0.00649383292 0.00972141698
  endloop
 endfacet

 facet normal 0.124351792 -0.0462990962 0.991157472
  outer loop
  vertex -0.00829315837 -0.00502414629 0.00693330914
  vertex -0.0310632307 -0.00649383292 0.00972141698
  vertex -0.0310632307 -0.0069484394 0.00970018096
  endloop
 endfacet

 facet normal 0.130557165 -0.132013589 0.982612491
  outer loop
  vertex -0.00829315837 -0.00502414629 0.00693330914
  vertex -0.0310632307 -0.0069484394 0.00970018096
  vertex -0.0310632307 -0.00784934871 0.00957914442
  endloop
 endfacet

 facet normal 0.158341482 -0.455988258 0.875786901
  outer loop
  vertex -0.00829315837 -0.00502414629 0.00693330914
  vertex -0.0310632307 -0.00784934871 0.00957914442
  vertex -0.0310632307 -0.00819601212 0.00939865038
  endloop
 endfacet

 facet normal 0.159834966 -0.474691093 0.865517974
  outer loop
  vertex -0.00829315837 -0.00502414629 0.00693330914
  vertex -0.0310632307 -0.00819601212 0.00939865038
  vertex -0.0310632307 -0.00888518803 0.00902067404
  endloop
 endfacet

 facet normal 0.188483924 -0.816706657 0.545402646
  outer loop
  vertex -0.00829315837 -0.00502414629 0.00693330914
  vertex -0.0310632307 -0.00888518803 0.00902067404
  vertex -0.0128264502 -0.0060703638 0.00693330914
  endloop
 endfacet

 facet normal 0.188372672 -0.822753906 0.536275804
  outer loop
  vertex -0.0128264502 -0.0060703638 0.00693330914
  vertex -0.0310632307 -0.00888518803 0.00902067404
  vertex -0.0189463925 -0.00747154793 0.00693330914
  endloop
 endfacet

 facet normal 0.185844973 -0.839838147 0.510032833
  outer loop
  vertex -0.0189463925 -0.00747154793 0.00693330914
  vertex -0.0310632307 -0.00888518803 0.00902067404
  vertex -0.0252314769 -0.00886235386 0.00693330914
  endloop
 endfacet

 facet normal 0.172255129 -0.864719391 0.471792907
  outer loop
  vertex -0.0252314769 -0.00886235386 0.00693330914
  vertex -0.0310632307 -0.00888518803 0.00902067404
  vertex -0.0258046128 -0.00897652376 0.00693330914
  endloop
 endfacet

 facet normal 0.148441434 -0.898425937 0.413274854
  outer loop
  vertex -0.0258046128 -0.00897652376 0.00693330914
  vertex -0.0310632307 -0.00888518803 0.00902067404
  vertex -0.0264327992 -0.00908031501 0.00693330914
  endloop
 endfacet

 facet normal 0.129757464 -0.918429554 0.373697937
  outer loop
  vertex -0.0264327992 -0.00908031501 0.00693330914
  vertex -0.0310632307 -0.00888518803 0.00902067404
  vertex -0.0403176248 -0.0102427788 0.00889751315
  endloop
 endfacet

 facet normal 0.121402584 -0.946876526 0.29780218
  outer loop
  vertex -0.0264327992 -0.00908031501 0.00693330914
  vertex -0.0403176248 -0.0102427788 0.00889751315
  vertex -0.0272423159 -0.00918410625 0.00693330914
  endloop
 endfacet

 facet normal 0.119224131 -0.952486455 0.280277014
  outer loop
  vertex -0.0272423159 -0.00918410625 0.00693330914
  vertex -0.0403176248 -0.0102427788 0.00889751315
  vertex -0.0403176248 -0.0105520776 0.00784639828
  endloop
 endfacet

 facet normal -0.0657586083 -0.957252622 0.281679511
  outer loop
  vertex -0.0403176248 -0.0105520776 0.00784639828
  vertex -0.0403176248 -0.0102427788 0.00889751315
  vertex -0.0413732305 -0.0101908837 0.00882743765
  endloop
 endfacet

 facet normal -0.0792969614 -0.960104704 0.268162191
  outer loop
  vertex -0.0403176248 -0.0105520776 0.00784639828
  vertex -0.0413732305 -0.0101908837 0.00882743765
  vertex -0.0413732305 -0.0104648937 0.00784639828
  endloop
 endfacet

 facet normal -0.0823015645 -0.996483564 0.0157116298
  outer loop
  vertex -0.0403176248 -0.0105520776 0.00784639828
  vertex -0.0413732305 -0.0104648937 0.00784639828
  vertex -0.0413732305 -0.0104815001 0.00679316092
  endloop
 endfacet

 facet normal 0.218447492 0.975847661 0.00145927246
  outer loop
  vertex -0.00829315837 0.00410119677 0.00693330914
  vertex -0.0375652649 0.0106545882 0.00645765383
  vertex -0.0375652649 0.0106525114 0.00784639828
  endloop
 endfacet

 facet normal 0.213771075 0.903322637 0.371900767
  outer loop
  vertex -0.00829315837 0.00410119677 0.00693330914
  vertex -0.0375652649 0.0106525114 0.00784639828
  vertex -0.0375652649 0.0101812985 0.00899094529
  endloop
 endfacet

 facet normal 0.14632386 0.397970647 0.905653715
  outer loop
  vertex -0.00829315837 0.00410119677 0.00693330914
  vertex -0.0375652649 0.0101812985 0.00899094529
  vertex -0.036150232 0.0088008726 0.00936892163
  endloop
 endfacet

 facet normal 0.139890641 0.348963737 0.926636398
  outer loop
  vertex -0.00829315837 0.00410119677 0.00693330914
  vertex -0.036150232 0.0088008726 0.00936892163
  vertex -0.0333752073 0.00741214352 0.00947297178
  endloop
 endfacet

 facet normal 0.136215493 0.310214818 0.940857112
  outer loop
  vertex -0.00829315837 0.00410119677 0.00693330914
  vertex -0.0333752073 0.00741214352 0.00947297178
  vertex -0.0310632307 0.00602341397 0.00959613267
  endloop
 endfacet

 facet normal 0.118018389 0.0227697194 0.992750347
  outer loop
  vertex -0.00829315837 0.00410119677 0.00693330914
  vertex -0.0310632307 0.00602341397 0.00959613267
  vertex -0.0310632307 0.00463468395 0.00962798484
  endloop
 endfacet

 facet normal 0.117935166 0.0187422596 0.992844462
  outer loop
  vertex -0.00829315837 0.00410119677 0.00693330914
  vertex -0.0310632307 0.00463468395 0.00962798484
  vertex -0.0310632307 -0.00368938851 0.00978512131
  endloop
 endfacet

 facet normal -0.944953144 0.31153208 0.100056998
  outer loop
  vertex -0.0413732305 0.000439435011 0.00368228694
  vertex -0.0413732305 -0.00117555994 0.00871064793
  vertex -0.0375652649 0.0106525114 0.00784639828
  endloop
 endfacet

 facet normal -0.941199481 0.312410653 0.128620446
  outer loop
  vertex -0.0375652649 0.0106525114 0.00784639828
  vertex -0.0413732305 -0.00117555994 0.00871064793
  vertex -0.0375652649 0.0101812985 0.00899094529
  endloop
 endfacet

 facet normal -0.0144268442 -0.00604067417 0.999877632
  outer loop
  vertex -0.0310632307 -0.00368938851 0.00978512131
  vertex -0.0413732305 -0.00507604191 0.00962798484
  vertex -0.0413732305 -0.0061305631 0.00962161366
  endloop
 endfacet

 facet normal -0.0143530434 -0.00635230448 0.999876857
  outer loop
  vertex -0.0310632307 -0.00368938851 0.00978512131
  vertex -0.0413732305 -0.0061305631 0.00962161366
  vertex -0.0413732305 -0.00646477146 0.00961949024
  endloop
 endfacet

 facet normal -0.0140706925 -0.00740099233 0.999873638
  outer loop
  vertex -0.0310632307 -0.00368938851 0.00978512131
  vertex -0.0413732305 -0.00646477146 0.00961949024
  vertex -0.0310632307 -0.0051237857 0.0097745033
  endloop
 endfacet

 facet normal 0.0237934925 0.0188686308 0.999538779
  outer loop
  vertex -0.0310632307 -0.00368938851 0.00978512131
  vertex -0.0310632307 0.00463468395 0.00962798484
  vertex -0.0319860801 0.00602341397 0.00962373707
  endloop
 endfacet

 facet normal 0.00305725425 0.0169036109 0.999852419
  outer loop
  vertex -0.0310632307 -0.00368938851 0.00978512131
  vertex -0.0319860801 0.00602341397 0.00962373707
  vertex -0.0333752073 0.00602341397 0.00962798484
  endloop
 endfacet

 facet normal 0.00116426894 0.0164532028 0.999863982
  outer loop
  vertex -0.0310632307 -0.00368938851 0.00978512131
  vertex -0.0333752073 0.00602341397 0.00962798484
  vertex -0.034764342 0.00741214352 0.00960674975
  endloop
 endfacet

 facet normal -0.00306448201 0.0150436834 0.999882162
  outer loop
  vertex -0.0310632307 -0.00368938851 0.00978512131
  vertex -0.034764342 0.00741214352 0.00960674975
  vertex -0.036150232 0.00741214352 0.00960250199
  endloop
 endfacet

 facet normal -0.0152367977 0.00946531259 0.999839187
  outer loop
  vertex -0.0310632307 -0.00368938851 0.00978512131
  vertex -0.036150232 0.00741214352 0.00960250199
  vertex -0.0413732305 -0.00368731259 0.00962798484
  endloop
 endfacet

 facet normal -0.015239384 0 0.999883831
  outer loop
  vertex -0.0310632307 -0.00368938851 0.00978512131
  vertex -0.0413732305 -0.00368731259 0.00962798484
  vertex -0.0413732305 -0.00507604191 0.00962798484
  endloop
 endfacet

 facet normal -0.0118816812 -0.0242035296 0.999636412
  outer loop
  vertex -0.0310632307 -0.0051237857 0.0097745033
  vertex -0.0413732305 -0.00646477146 0.00961949024
  vertex -0.0413732305 -0.00751721673 0.00959400833
  endloop
 endfacet

 facet normal -0.0116028963 -0.0254024398 0.999610066
  outer loop
  vertex -0.0310632307 -0.0051237857 0.0097745033
  vertex -0.0413732305 -0.00751721673 0.00959400833
  vertex -0.0413732305 -0.00785142463 0.0095855156
  endloop
 endfacet

 facet normal -0.00807299837 -0.0387176387 0.999217629
  outer loop
  vertex -0.0310632307 -0.0051237857 0.0097745033
  vertex -0.0413732305 -0.00785142463 0.0095855156
  vertex -0.0310632307 -0.00649383292 0.00972141698
  endloop
 endfacet

 facet normal -0.00702278689 -0.0466601178 0.998886108
  outer loop
  vertex -0.0310632307 -0.00649383292 0.00972141698
  vertex -0.0413732305 -0.00785142463 0.0095855156
  vertex -0.0310632307 -0.0069484394 0.00970018096
  endloop
 endfacet

 facet normal 0.000491988729 -0.131500155 0.99131602
  outer loop
  vertex -0.0310632307 -0.0069484394 0.00970018096
  vertex -0.0413732305 -0.00785142463 0.0095855156
  vertex -0.0403176248 -0.00924015418 0.00940077379
  endloop
 endfacet

 facet normal 0.000908498652 -0.13315323 0.991095066
  outer loop
  vertex -0.0310632307 -0.0069484394 0.00970018096
  vertex -0.0403176248 -0.00924015418 0.00940077379
  vertex -0.0310632307 -0.00784934871 0.00957914442
  endloop
 endfacet

 facet normal 0.0501295887 -0.448038518 0.892607689
  outer loop
  vertex -0.0310632307 -0.00784934871 0.00957914442
  vertex -0.0403176248 -0.00924015418 0.00940077379
  vertex -0.0403176248 -0.0102427788 0.00889751315
  endloop
 endfacet

 facet normal 0.054028105 -0.461139858 0.885681093
  outer loop
  vertex -0.0310632307 -0.00784934871 0.00957914442
  vertex -0.0403176248 -0.0102427788 0.00889751315
  vertex -0.0310632307 -0.00819601212 0.00939865038
  endloop
 endfacet

 facet normal 0.0587721877 -0.48004207 0.875274539
  outer loop
  vertex -0.0310632307 -0.00819601212 0.00939865038
  vertex -0.0403176248 -0.0102427788 0.00889751315
  vertex -0.0310632307 -0.00888518803 0.00902067404
  endloop
 endfacet

 facet normal -0.0556462072 -0.447907507 0.892346621
  outer loop
  vertex -0.0403176248 -0.0102427788 0.00889751315
  vertex -0.0403176248 -0.00924015418 0.00940077379
  vertex -0.0413732305 -0.00924015418 0.00933494605
  endloop
 endfacet

 facet normal -0.0814412162 -0.469350904 0.879248083
  outer loop
  vertex -0.0403176248 -0.0102427788 0.00889751315
  vertex -0.0413732305 -0.00924015418 0.00933494605
  vertex -0.0413732305 -0.0101908837 0.00882743765
  endloop
 endfacet

 facet normal 0.0479647778 0.309227407 0.949777782
  outer loop
  vertex -0.0375652649 0.0101812985 0.00899094529
  vertex -0.0375652649 0.00917037018 0.00932008121
  vertex -0.036150232 0.0088008726 0.00936892163
  endloop
 endfacet

 facet normal -0.936738729 0.310081542 0.162388325
  outer loop
  vertex -0.0375652649 0.0101812985 0.00899094529
  vertex -0.0413732305 -0.00117555994 0.00871064793
  vertex -0.0413732305 -0.00130010955 0.00894847605
  endloop
 endfacet

 facet normal -0.836312056 0.275621265 0.473935902
  outer loop
  vertex -0.0375652649 0.0101812985 0.00899094529
  vertex -0.0413732305 -0.00130010955 0.00894847605
  vertex -0.0413732305 -0.00201211893 0.00936255045
  endloop
 endfacet

 facet normal -0.773996115 0.259321094 0.577652752
  outer loop
  vertex -0.0375652649 0.0101812985 0.00899094529
  vertex -0.0413732305 -0.00201211893 0.00936255045
  vertex -0.0413732305 -0.00230065896 0.00949208252
  endloop
 endfacet

 facet normal -0.664674401 0.231300265 0.710428119
  outer loop
  vertex -0.0375652649 0.0101812985 0.00899094529
  vertex -0.0413732305 -0.00230065896 0.00949208252
  vertex -0.0375652649 0.00917037018 0.00932008121
  endloop
 endfacet

 facet normal 0.047718253 0.214683995 0.975517213
  outer loop
  vertex -0.036150232 0.0088008726 0.00936892163
  vertex -0.0375393592 0.0088008726 0.00943687186
  vertex -0.034764342 0.00741214352 0.00960674975
  endloop
 endfacet

 facet normal 0.0926357657 0.257179946 0.961913228
  outer loop
  vertex -0.036150232 0.0088008726 0.00936892163
  vertex -0.034764342 0.00741214352 0.00960674975
  vertex -0.0333752073 0.00741214352 0.00947297178
  endloop
 endfacet

 facet normal 0.0465447828 0.304020703 0.951527774
  outer loop
  vertex -0.036150232 0.0088008726 0.00936892163
  vertex -0.0375652649 0.00917037018 0.00932008121
  vertex -0.0375393592 0.0088008726 0.00943687186
  endloop
 endfacet

 facet normal 0.0930445343 0.240586907 0.966157675
  outer loop
  vertex -0.0333752073 0.00741214352 0.00947297178
  vertex -0.034764342 0.00741214352 0.00960674975
  vertex -0.0310632307 0.00602341397 0.00959613267
  endloop
 endfacet

 facet normal 0.029821394 0.0718550012 0.996969283
  outer loop
  vertex -0.0310632307 0.00602341397 0.00959613267
  vertex -0.034764342 0.00741214352 0.00960674975
  vertex -0.0319860801 0.00602341397 0.00962373707
  endloop
 endfacet

 facet normal 0.029890826 0.0229197238 0.999290407
  outer loop
  vertex -0.0310632307 0.00602341397 0.00959613267
  vertex -0.0319860801 0.00602341397 0.00962373707
  vertex -0.0310632307 0.00463468395 0.00962798484
  endloop
 endfacet

 facet normal 0.00305717671 0.0183460917 0.999827027
  outer loop
  vertex -0.0319860801 0.00602341397 0.00962373707
  vertex -0.034764342 0.00741214352 0.00960674975
  vertex -0.0333752073 0.00602341397 0.00962798484
  endloop
 endfacet

 facet normal -0.00304434402 0.115424655 0.993311584
  outer loop
  vertex -0.034764342 0.00741214352 0.00960674975
  vertex -0.0375393592 0.0088008726 0.00943687186
  vertex -0.036150232 0.00741214352 0.00960250199
  endloop
 endfacet

 facet normal -0.0791863278 0.0395902134 0.996073365
  outer loop
  vertex -0.036150232 0.00741214352 0.00960250199
  vertex -0.0375393592 0.0088008726 0.00943687186
  vertex -0.0413732305 -0.00335517991 0.00961524248
  endloop
 endfacet

 facet normal -0.0763667822 0.0382228307 0.99634701
  outer loop
  vertex -0.036150232 0.00741214352 0.00960250199
  vertex -0.0413732305 -0.00335517991 0.00961524248
  vertex -0.0413732305 -0.00368731259 0.00962798484
  endloop
 endfacet

 facet normal -0.0612532534 -0.177229747 0.982261598
  outer loop
  vertex -0.0413732305 -0.00785142463 0.0095855156
  vertex -0.0413732305 -0.00924015418 0.00933494605
  vertex -0.0403176248 -0.00924015418 0.00940077379
  endloop
 endfacet

 facet normal -0.366503656 0.256952226 0.894231796
  outer loop
  vertex -0.0375652649 0.00917037018 0.00932008121
  vertex -0.0375652649 0.0088008726 0.00942625478
  vertex -0.0375393592 0.0088008726 0.00943687186
  endloop
 endfacet

 facet normal -0.619179547 0.216861591 0.754710436
  outer loop
  vertex -0.0375652649 0.00917037018 0.00932008121
  vertex -0.0413732305 -0.00230065896 0.00949208252
  vertex -0.0375652649 0.0088008726 0.00942625478
  endloop
 endfacet

 facet normal -0.306159556 0.110433504 0.945553184
  outer loop
  vertex -0.0413732305 -0.00230065896 0.00949208252
  vertex -0.0413732305 -0.00335517991 0.00961524248
  vertex -0.0375393592 0.0088008726 0.00943687186
  endloop
 endfacet

 facet normal -0.375799179 0.134340852 0.91691196
  outer loop
  vertex -0.0413732305 -0.00230065896 0.00949208252
  vertex -0.0375393592 0.0088008726 0.00943687186
  vertex -0.0375652649 0.0088008726 0.00942625478
  endloop
 endfacet

endsolid AssimpScene
