solid AssimpScene
 facet normal 0 -1 0
  outer loop
  vertex -0.0171367582 0.00593735976 -0.00608194992
  vertex -0.0164222643 0.00593735976 -0.00597700989
  vertex -0.0151927033 0.00593735976 -0.00559999933
  endloop
 endfacet

 facet normal 0 -1 0
  outer loop
  vertex -0.0171367582 0.00593735976 -0.00608194992
  vertex -0.0151927033 0.00593735976 -0.00559999933
  vertex -0.0144848134 0.00593735976 -0.00522687752
  endloop
 endfacet

 facet normal 0 -1 0
  outer loop
  vertex -0.0171367582 0.00593735976 -0.00608194992
  vertex -0.0144848134 0.00593735976 -0.00522687752
  vertex -0.0144280232 0.00593735976 -0.00516080298
  endloop
 endfacet

 facet normal 0 -1 0
  outer loop
  vertex -0.0171367582 0.00593735976 -0.00608194992
  vertex -0.0144280232 0.00593735976 -0.00516080298
  vertex -0.00611824775 0.00593735976 0.0274018943
  endloop
 endfacet

 facet normal 0 -1 0
  outer loop
  vertex -0.0171367582 0.00593735976 -0.00608194992
  vertex -0.00611824775 0.00593735976 0.0274018943
  vertex -0.0099125877 0.00593735976 0.0274018943
  endloop
 endfacet

 facet normal 0 -1 0
  outer loop
  vertex -0.0171367582 0.00593735976 -0.00608194992
  vertex -0.0099125877 0.00593735976 0.0274018943
  vertex -0.0105121806 0.00593735976 0.0258666519
  endloop
 endfacet

 facet normal 0 -1 0
  outer loop
  vertex -0.0171367582 0.00593735976 -0.00608194992
  vertex -0.0105121806 0.00593735976 0.0258666519
  vertex -0.0121168178 0.00593735976 0.0217545331
  endloop
 endfacet

 facet normal 0 -1 0
  outer loop
  vertex -0.0171367582 0.00593735976 -0.00608194992
  vertex -0.0121168178 0.00593735976 0.0217545331
  vertex -0.0143329343 0.00593735976 0.0160605293
  endloop
 endfacet

 facet normal 0 -1 0
  outer loop
  vertex -0.0171367582 0.00593735976 -0.00608194992
  vertex -0.0143329343 0.00593735976 0.0160605293
  vertex -0.0146538615 0.00593735976 0.0152015714
  endloop
 endfacet

 facet normal 0 -1 0
  outer loop
  vertex -0.0171367582 0.00593735976 -0.00608194992
  vertex -0.0146538615 0.00593735976 0.0152015714
  vertex -0.0147925345 0.00593735976 0.0147934686
  endloop
 endfacet

 facet normal 0 -1 0
  outer loop
  vertex -0.0171367582 0.00593735976 -0.00608194992
  vertex -0.0147925345 0.00593735976 0.0147934686
  vertex -0.0149813918 0.00593735976 0.0142260119
  endloop
 endfacet

 facet normal 0 -1 0
  outer loop
  vertex -0.0171367582 0.00593735976 -0.00608194992
  vertex -0.0149813918 0.00593735976 0.0142260119
  vertex -0.0150500685 0.00593735976 0.0139578301
  endloop
 endfacet

 facet normal 0 -1 0
  outer loop
  vertex -0.0171367582 0.00593735976 -0.00608194992
  vertex -0.0150500685 0.00593735976 0.0139578301
  vertex -0.0152560957 0.00593735976 0.0131493984
  endloop
 endfacet

 facet normal 0 -1 0
  outer loop
  vertex -0.0171367582 0.00593735976 -0.00608194992
  vertex -0.0152560957 0.00593735976 0.0131493984
  vertex -0.0175356045 0.00593735976 0.00410506781
  endloop
 endfacet

 facet normal 0 -1 0
  outer loop
  vertex -0.0171367582 0.00593735976 -0.00608194992
  vertex -0.0175356045 0.00593735976 0.00410506781
  vertex -0.019162694 0.00593735976 -0.00236238609
  endloop
 endfacet

 facet normal 0 -1 0
  outer loop
  vertex -0.0171367582 0.00593735976 -0.00608194992
  vertex -0.019162694 0.00593735976 -0.00236238609
  vertex -0.0193370245 0.00593735976 -0.00305810408
  endloop
 endfacet

 facet normal 0 -1 0
  outer loop
  vertex -0.0171367582 0.00593735976 -0.00608194992
  vertex -0.0193370245 0.00593735976 -0.00305810408
  vertex -0.0194347557 0.00593735976 -0.00346620637
  endloop
 endfacet

 facet normal 0 -1 0
  outer loop
  vertex -0.0171367582 0.00593735976 -0.00608194992
  vertex -0.0194347557 0.00593735976 -0.00346620637
  vertex -0.0195919182 0.00593735976 -0.00422411179
  endloop
 endfacet

 facet normal 0 -1 0
  outer loop
  vertex -0.0171367582 0.00593735976 -0.00608194992
  vertex -0.0195919182 0.00593735976 -0.00422411179
  vertex -0.0195562597 0.00593735976 -0.00469828723
  endloop
 endfacet

 facet normal 0 -1 0
  outer loop
  vertex -0.0171367582 0.00593735976 -0.00608194992
  vertex -0.0195562597 0.00593735976 -0.00469828723
  vertex -0.0194730554 0.00593735976 -0.00536679896
  endloop
 endfacet

 facet normal 0 -1 0
  outer loop
  vertex -0.0171367582 0.00593735976 -0.00608194992
  vertex -0.0194730554 0.00593735976 -0.00536679896
  vertex -0.0191402435 0.00593735976 -0.00564275403
  endloop
 endfacet

 facet normal 0 -1 0
  outer loop
  vertex -0.0171367582 0.00593735976 -0.00608194992
  vertex -0.0191402435 0.00593735976 -0.00564275403
  vertex -0.0185657423 0.00593735976 -0.00598478317
  endloop
 endfacet

 facet normal 0 -1 0
  outer loop
  vertex -0.0171367582 0.00593735976 -0.00608194992
  vertex -0.0185657423 0.00593735976 -0.00598478317
  vertex -0.0177455954 0.00593735976 -0.00607417664
  endloop
 endfacet

 facet normal -0.0124908974 0.206572697 -0.978351653
  outer loop
  vertex -0.0171367582 0.00593735976 -0.00608194992
  vertex -0.0177455954 0.00593735976 -0.00607417664
  vertex -0.0178829469 0.0113593582 -0.00492760306
  endloop
 endfacet

 facet normal 0 0.208233714 -0.9780792
  outer loop
  vertex -0.0171367582 0.00593735976 -0.00608194992
  vertex -0.0178829469 0.0113593582 -0.00492760306
  vertex -0.017801065 0.0113593582 -0.00492760306
  endloop
 endfacet

 facet normal 0.137346357 0.222329885 -0.965248823
  outer loop
  vertex -0.0171367582 0.00593735976 -0.00608194992
  vertex -0.017801065 0.0113593582 -0.00492760306
  vertex -0.0176518261 0.0171056204 -0.00358280633
  endloop
 endfacet

 facet normal 0.14167583 0.222386569 -0.964609861
  outer loop
  vertex -0.0171367582 0.00593735976 -0.00608194992
  vertex -0.0176518261 0.0171056204 -0.00358280633
  vertex -0.0164222643 0.00593735976 -0.00597700989
  endloop
 endfacet

 facet normal 0.285234302 0.230825156 -0.930247903
  outer loop
  vertex -0.0164222643 0.00593735976 -0.00597700989
  vertex -0.0176518261 0.0171056204 -0.00358280633
  vertex -0.0151927033 0.00593735976 -0.00559999933
  endloop
 endfacet

 facet normal -0.106095992 0.20315066 -0.973382473
  outer loop
  vertex -0.0177455954 0.00593735976 -0.00607417664
  vertex -0.0185657423 0.00593735976 -0.00598478317
  vertex -0.0178829469 0.0113593582 -0.00492760306
  endloop
 endfacet

 facet normal -0.152766943 0.207628548 -0.966205299
  outer loop
  vertex -0.0178829469 0.0113593582 -0.00492760306
  vertex -0.0185657423 0.00593735976 -0.00598478317
  vertex -0.0185234807 0.00924217049 -0.0052812919
  endloop
 endfacet

 facet normal -0.159442872 0.209403917 -0.964742422
  outer loop
  vertex -0.0178829469 0.0113593582 -0.00492760306
  vertex -0.0185234807 0.00924217049 -0.0052812919
  vertex -0.0184165053 0.0105770659 -0.00500922371
  endloop
 endfacet

 facet normal -0.170951545 0.216874808 -0.961114407
  outer loop
  vertex -0.0178829469 0.0113593582 -0.00492760306
  vertex -0.0184165053 0.0105770659 -0.00500922371
  vertex -0.0181536879 0.0171056204 -0.00358280633
  endloop
 endfacet

 facet normal 0 0.227872655 -0.973690927
  outer loop
  vertex -0.0178829469 0.0113593582 -0.00492760306
  vertex -0.0181536879 0.0171056204 -0.00358280633
  vertex -0.0176518261 0.0171056204 -0.00358280633
  endloop
 endfacet

 facet normal 0 0.227872655 -0.973690927
  outer loop
  vertex -0.0178829469 0.0113593582 -0.00492760306
  vertex -0.0176518261 0.0171056204 -0.00358280633
  vertex -0.017801065 0.0113593582 -0.00492760306
  endloop
 endfacet

 facet normal 0 0.258222669 -0.966085434
  outer loop
  vertex -0.0176518261 0.0171056204 -0.00358280633
  vertex -0.0181536879 0.0171056204 -0.00358280633
  vertex -0.0185248014 0.0197375808 -0.00287931622
  endloop
 endfacet

 facet normal 0.106539935 0.289582789 -0.951205134
  outer loop
  vertex -0.0176518261 0.0171056204 -0.00358280633
  vertex -0.0185248014 0.0197375808 -0.00287931622
  vertex -0.0171367582 0.0197375808 -0.00272384821
  endloop
 endfacet

 facet normal 0.321338952 0.236379907 -0.91698736
  outer loop
  vertex -0.0176518261 0.0171056204 -0.00358280633
  vertex -0.0171367582 0.0197375808 -0.00272384821
  vertex -0.0151927033 0.00593735976 -0.00559999933
  endloop
 endfacet

 facet normal 0.452354997 0.242586583 -0.858211398
  outer loop
  vertex -0.0151927033 0.00593735976 -0.00559999933
  vertex -0.0171367582 0.0197375808 -0.00272384821
  vertex -0.0144848134 0.00593735976 -0.00522687752
  endloop
 endfacet

 facet normal -0.507284462 0.128948793 -0.85207665
  outer loop
  vertex -0.0185657423 0.00593735976 -0.00598478317
  vertex -0.0191402435 0.00593735976 -0.00564275403
  vertex -0.019325139 0.00924217049 -0.00503254309
  endloop
 endfacet

 facet normal -0.507101476 0.129019186 -0.852174938
  outer loop
  vertex -0.0185657423 0.00593735976 -0.00598478317
  vertex -0.019325139 0.00924217049 -0.00503254309
  vertex -0.0192498602 0.0100771561 -0.00495092245
  endloop
 endfacet

 facet normal -0.198404178 0.206491411 -0.958121657
  outer loop
  vertex -0.0185657423 0.00593735976 -0.00598478317
  vertex -0.0192498602 0.0100771561 -0.00495092245
  vertex -0.0185234807 0.00924217049 -0.0052812919
  endloop
 endfacet

 facet normal -0.193486318 0.210796565 -0.958189845
  outer loop
  vertex -0.0185234807 0.00924217049 -0.0052812919
  vertex -0.0192498602 0.0100771561 -0.00495092245
  vertex -0.0184165053 0.0105770659 -0.00500922371
  endloop
 endfacet

 facet normal -0.196508512 0.216042802 -0.956404686
  outer loop
  vertex -0.0184165053 0.0105770659 -0.00500922371
  vertex -0.0192498602 0.0100771561 -0.00495092245
  vertex -0.0185789485 0.0162449665 -0.00369552197
  endloop
 endfacet

 facet normal -0.184849977 0.216871649 -0.958539128
  outer loop
  vertex -0.0184165053 0.0105770659 -0.00500922371
  vertex -0.0185789485 0.0162449665 -0.00369552197
  vertex -0.0181536879 0.0171056204 -0.00358280633
  endloop
 endfacet

 facet normal -0.193735778 0.22091113 -0.955858171
  outer loop
  vertex -0.0181536879 0.0171056204 -0.00358280633
  vertex -0.0185789485 0.0162449665 -0.00369552197
  vertex -0.0190781709 0.0167489294 -0.00347786606
  endloop
 endfacet

 facet normal -0.195988655 0.227328598 -0.953892112
  outer loop
  vertex -0.0181536879 0.0171056204 -0.00358280633
  vertex -0.0190781709 0.0167489294 -0.00347786606
  vertex -0.0185248014 0.0197375808 -0.00287931622
  endloop
 endfacet

 facet normal -0.382091254 0.248981223 -0.889952123
  outer loop
  vertex -0.0185248014 0.0197375808 -0.00287931622
  vertex -0.0190781709 0.0167489294 -0.00347786606
  vertex -0.0190227013 0.0197375808 -0.00266554812
  endloop
 endfacet

 facet normal 0 1 0
  outer loop
  vertex -0.0185248014 0.0197375808 -0.00287931622
  vertex -0.0190227013 0.0197375808 -0.00266554812
  vertex -0.0194360781 0.0197375808 -0.00242457283
  endloop
 endfacet

 facet normal 0 1 0
  outer loop
  vertex -0.0185248014 0.0197375808 -0.00287931622
  vertex -0.0194360781 0.0197375808 -0.00242457283
  vertex -0.0195364486 0.0197375808 -0.00191153027
  endloop
 endfacet

 facet normal 0 1 0
  outer loop
  vertex -0.0185248014 0.0197375808 -0.00287931622
  vertex -0.0195364486 0.0197375808 -0.00191153027
  vertex -0.0195985213 0.0197375808 -0.00144901348
  endloop
 endfacet

 facet normal 0 1 0
  outer loop
  vertex -0.0185248014 0.0197375808 -0.00287931622
  vertex -0.0195985213 0.0197375808 -0.00144901348
  vertex -0.0194717348 0.0197375808 -0.000582281034
  endloop
 endfacet

 facet normal 0 1 0
  outer loop
  vertex -0.0185248014 0.0197375808 -0.00287931622
  vertex -0.0194717348 0.0197375808 -0.000582281034
  vertex -0.0193660799 0.0197375808 -5.36910629e-05
  endloop
 endfacet

 facet normal 0 1 0
  outer loop
  vertex -0.0185248014 0.0197375808 -0.00287931622
  vertex -0.0193660799 0.0197375808 -5.36910629e-05
  vertex -0.019223446 0.0197375808 0.000521539128
  endloop
 endfacet

 facet normal 0 1 0
  outer loop
  vertex -0.0185248014 0.0197375808 -0.00287931622
  vertex -0.019223446 0.0197375808 0.000521539128
  vertex -0.0188232772 0.0197375808 0.00211119559
  endloop
 endfacet

 facet normal 0 1 0
  outer loop
  vertex -0.0185248014 0.0197375808 -0.00287931622
  vertex -0.0188232772 0.0197375808 0.00211119559
  vertex -0.0178406835 0.0197375808 0.00601343345
  endloop
 endfacet

 facet normal 0 1 0
  outer loop
  vertex -0.0185248014 0.0197375808 -0.00287931622
  vertex -0.0178406835 0.0197375808 0.00601343345
  vertex -0.0150276171 0.0197375808 0.0171760097
  endloop
 endfacet

 facet normal 0 1 0
  outer loop
  vertex -0.0185248014 0.0197375808 -0.00287931622
  vertex -0.0150276171 0.0197375808 0.0171760097
  vertex -0.0149246035 0.0197375808 0.0174947195
  endloop
 endfacet

 facet normal 0 1 0
  outer loop
  vertex -0.0185248014 0.0197375808 -0.00287931622
  vertex -0.0149246035 0.0197375808 0.0174947195
  vertex -0.0147872511 0.0197375808 0.0179105941
  endloop
 endfacet

 facet normal 0 1 0
  outer loop
  vertex -0.0185248014 0.0197375808 -0.00287931622
  vertex -0.0147872511 0.0197375808 0.0179105941
  vertex -0.0144887753 0.0197375808 0.0187578946
  endloop
 endfacet

 facet normal 0 1 0
  outer loop
  vertex -0.0185248014 0.0197375808 -0.00287931622
  vertex -0.0144887753 0.0197375808 0.0187578946
  vertex -0.0142642586 0.0197375808 0.0193642173
  endloop
 endfacet

 facet normal 0 1 0
  outer loop
  vertex -0.0185248014 0.0197375808 -0.00287931622
  vertex -0.0142642586 0.0197375808 0.0193642173
  vertex -0.014005404 0.0197375808 0.0200288426
  endloop
 endfacet

 facet normal 0 1 0
  outer loop
  vertex -0.0185248014 0.0197375808 -0.00287931622
  vertex -0.014005404 0.0197375808 0.0200288426
  vertex -0.0138297519 0.0197375808 0.0204796977
  endloop
 endfacet

 facet normal 0 1 0
  outer loop
  vertex -0.0185248014 0.0197375808 -0.00287931622
  vertex -0.0138297519 0.0197375808 0.0204796977
  vertex -0.0135576893 0.0197375808 0.0211715288
  endloop
 endfacet

 facet normal 0 1 0
  outer loop
  vertex -0.0185248014 0.0197375808 -0.00287931622
  vertex -0.0135576893 0.0197375808 0.0211715288
  vertex -0.0131179001 0.0197375808 0.0221393146
  endloop
 endfacet

 facet normal 0 1 0
  outer loop
  vertex -0.0185248014 0.0197375808 -0.00287931622
  vertex -0.0131179001 0.0197375808 0.0221393146
  vertex -0.0125341546 0.0197375808 0.0233636219
  endloop
 endfacet

 facet normal 0 1 0
  outer loop
  vertex -0.0185248014 0.0197375808 -0.00287931622
  vertex -0.0125341546 0.0197375808 0.0233636219
  vertex -0.0114023248 0.0197375808 0.0246850979
  endloop
 endfacet

 facet normal 0 1 0
  outer loop
  vertex -0.0185248014 0.0197375808 -0.00287931622
  vertex -0.0114023248 0.0197375808 0.0246850979
  vertex -0.0101978565 0.0197375808 0.0252370089
  endloop
 endfacet

 facet normal 0 1 0
  outer loop
  vertex -0.0185248014 0.0197375808 -0.00287931622
  vertex -0.0101978565 0.0197375808 0.0252370089
  vertex -0.00880981237 0.0197375808 0.0252603274
  endloop
 endfacet

 facet normal 0 1 0
  outer loop
  vertex -0.0185248014 0.0197375808 -0.00287931622
  vertex -0.00880981237 0.0197375808 0.0252603274
  vertex -0.00800419133 0.0197375808 0.0252603274
  endloop
 endfacet

 facet normal 0 1 0
  outer loop
  vertex -0.0185248014 0.0197375808 -0.00287931622
  vertex -0.00800419133 0.0197375808 0.0252603274
  vertex -0.00800419133 0.0197375808 0.0190260746
  endloop
 endfacet

 facet normal 0 1 0
  outer loop
  vertex -0.0185248014 0.0197375808 -0.00287931622
  vertex -0.00800419133 0.0197375808 0.0190260746
  vertex -0.0163575504 0.0197375808 -0.0022768788
  endloop
 endfacet

 facet normal 0 1 0
  outer loop
  vertex -0.0185248014 0.0197375808 -0.00287931622
  vertex -0.0163575504 0.0197375808 -0.0022768788
  vertex -0.0171367582 0.0197375808 -0.00272384821
  endloop
 endfacet

 facet normal 0.482379049 0.245223165 -0.840937614
  outer loop
  vertex -0.0171367582 0.0197375808 -0.00272384821
  vertex -0.0163575504 0.0197375808 -0.0022768788
  vertex -0.0144848134 0.00593735976 -0.00522687752
  endloop
 endfacet

 facet normal 0.737058163 0.235439703 -0.633493066
  outer loop
  vertex -0.0144848134 0.00593735976 -0.00522687752
  vertex -0.0163575504 0.0197375808 -0.0022768788
  vertex -0.0144280232 0.00593735976 -0.00516080298
  endloop
 endfacet

 facet normal -0.635265529 0.0971656069 -0.766157031
  outer loop
  vertex -0.0191402435 0.00593735976 -0.00564275403
  vertex -0.0194730554 0.00593735976 -0.00536679896
  vertex -0.0194717348 0.00646699453 -0.00530072488
  endloop
 endfacet

 facet normal -0.634379148 0.0981162488 -0.766770065
  outer loop
  vertex -0.0191402435 0.00593735976 -0.00564275403
  vertex -0.0194717348 0.00646699453 -0.00530072488
  vertex -0.0194215495 0.00785458274 -0.00516468985
  endloop
 endfacet

 facet normal -0.576460958 0.11706847 -0.808695197
  outer loop
  vertex -0.0191402435 0.00593735976 -0.00564275403
  vertex -0.0194215495 0.00785458274 -0.00516468985
  vertex -0.019325139 0.00924217049 -0.00503254309
  endloop
 endfacet

 facet normal -0.875476301 0.105736405 -0.471551657
  outer loop
  vertex -0.019325139 0.00924217049 -0.00503254309
  vertex -0.0194215495 0.00785458274 -0.00516468985
  vertex -0.0193726849 0.0147938747 -0.00369940861
  endloop
 endfacet

 facet normal -0.836606741 0.121123992 -0.534245431
  outer loop
  vertex -0.019325139 0.00924217049 -0.00503254309
  vertex -0.0193726849 0.0147938747 -0.00369940861
  vertex -0.0192881599 0.0158234201 -0.00359835289
  endloop
 endfacet

 facet normal -0.811069667 0.128896683 -0.570571363
  outer loop
  vertex -0.019325139 0.00924217049 -0.00503254309
  vertex -0.0192881599 0.0158234201 -0.00359835289
  vertex -0.0192498602 0.0100771561 -0.00495092245
  endloop
 endfacet

 facet normal -0.40176481 0.2072777 -0.89197588
  outer loop
  vertex -0.0192498602 0.0100771561 -0.00495092245
  vertex -0.0192881599 0.0158234201 -0.00359835289
  vertex -0.0190781709 0.0167489294 -0.00347786606
  endloop
 endfacet

 facet normal -0.198559001 0.216173574 -0.955951452
  outer loop
  vertex -0.0192498602 0.0100771561 -0.00495092245
  vertex -0.0190781709 0.0167489294 -0.00347786606
  vertex -0.0185789485 0.0162449665 -0.00369552197
  endloop
 endfacet

 facet normal -0.525761127 0.226047337 -0.820047498
  outer loop
  vertex -0.0190781709 0.0167489294 -0.00347786606
  vertex -0.0192881599 0.0158234201 -0.00359835289
  vertex -0.0194360781 0.0197375808 -0.00242457283
  endloop
 endfacet

 facet normal -0.489248514 0.237194642 -0.839270294
  outer loop
  vertex -0.0190781709 0.0167489294 -0.00347786606
  vertex -0.0194360781 0.0197375808 -0.00242457283
  vertex -0.0190227013 0.0197375808 -0.00266554812
  endloop
 endfacet

 facet normal 0.911755323 0.202193558 -0.357519418
  outer loop
  vertex -0.0163575504 0.0197375808 -0.0022768788
  vertex -0.00800419133 0.0197375808 0.0190260746
  vertex -0.0144280232 0.00593735976 -0.00516080298
  endloop
 endfacet

 facet normal 0.968795955 -0.017656181 -0.247230038
  outer loop
  vertex -0.0144280232 0.00593735976 -0.00516080298
  vertex -0.00800419133 0.0197375808 0.0190260746
  vertex -0.00611824775 0.00593735976 0.0274018943
  endloop
 endfacet

 facet normal -0.992293537 0.010039119 -0.123502463
  outer loop
  vertex -0.0194730554 0.00593735976 -0.00536679896
  vertex -0.0195562597 0.00593735976 -0.00469828723
  vertex -0.0195958801 0.00785458274 -0.00422411179
  endloop
 endfacet

 facet normal -0.989977062 0.0199114662 -0.139817506
  outer loop
  vertex -0.0194730554 0.00593735976 -0.00536679896
  vertex -0.0195958801 0.00785458274 -0.00422411179
  vertex -0.0194717348 0.00646699453 -0.00530072488
  endloop
 endfacet

 facet normal -0.986448288 0.0359524563 -0.160084963
  outer loop
  vertex -0.0194717348 0.00646699453 -0.00530072488
  vertex -0.0195958801 0.00785458274 -0.00422411179
  vertex -0.0195681453 0.0147938747 -0.00283656269
  endloop
 endfacet

 facet normal -0.985938966 0.0368205719 -0.162998572
  outer loop
  vertex -0.0194717348 0.00646699453 -0.00530072488
  vertex -0.0195681453 0.0147938747 -0.00283656269
  vertex -0.0195364486 0.0197375808 -0.00191153027
  endloop
 endfacet

 facet normal -0.985887289 0.0368961617 -0.163293555
  outer loop
  vertex -0.0194717348 0.00646699453 -0.00530072488
  vertex -0.0195364486 0.0197375808 -0.00191153027
  vertex -0.0194677729 0.0189579893 -0.00250230683
  endloop
 endfacet

 facet normal -0.97406435 0.0497605652 -0.220731765
  outer loop
  vertex -0.0194717348 0.00646699453 -0.00530072488
  vertex -0.0194677729 0.0189579893 -0.00250230683
  vertex -0.0194492843 0.0134062869 -0.00383544154
  endloop
 endfacet

 facet normal -0.958290279 0.062010821 -0.278988212
  outer loop
  vertex -0.0194717348 0.00646699453 -0.00530072488
  vertex -0.0194492843 0.0134062869 -0.00383544154
  vertex -0.0194215495 0.00785458274 -0.00516468985
  endloop
 endfacet

 facet normal -0.916441619 0.0888430104 -0.390181661
  outer loop
  vertex -0.0194215495 0.00785458274 -0.00516468985
  vertex -0.0194492843 0.0134062869 -0.00383544154
  vertex -0.0193726849 0.0147938747 -0.00369940861
  endloop
 endfacet

 facet normal -0.91649127 0.0888345093 -0.390066952
  outer loop
  vertex -0.0193726849 0.0147938747 -0.00369940861
  vertex -0.0194492843 0.0134062869 -0.00383544154
  vertex -0.0194360781 0.0197375808 -0.00242457283
  endloop
 endfacet

 facet normal -0.853441477 0.119853452 -0.507220566
  outer loop
  vertex -0.0193726849 0.0147938747 -0.00369940861
  vertex -0.0194360781 0.0197375808 -0.00242457283
  vertex -0.0192881599 0.0158234201 -0.00359835289
  endloop
 endfacet

 facet normal -0.9520365 0.0684439838 -0.298231423
  outer loop
  vertex -0.0194360781 0.0197375808 -0.00242457283
  vertex -0.0194492843 0.0134062869 -0.00383544154
  vertex -0.0194677729 0.0189579893 -0.00250230683
  endloop
 endfacet

 facet normal -0.979688942 0.0589423813 -0.191665277
  outer loop
  vertex -0.0194360781 0.0197375808 -0.00242457283
  vertex -0.0194677729 0.0189579893 -0.00250230683
  vertex -0.0195364486 0.0197375808 -0.00191153027
  endloop
 endfacet

 facet normal 0.989433706 0.144986361 0
  outer loop
  vertex -0.00800419133 0.0197375808 0.0190260746
  vertex -0.00800419133 0.0197375808 0.0252603274
  vertex -0.00679708179 0.0114998734 0.0274018943
  endloop
 endfacet

 facet normal 0.992068172 0.12391752 -0.0211010985
  outer loop
  vertex -0.00800419133 0.0197375808 0.0190260746
  vertex -0.00679708179 0.0114998734 0.0274018943
  vertex -0.00616843347 0.00646699453 0.0274018943
  endloop
 endfacet

 facet normal 0.993197203 0.0941113979 -0.0685731396
  outer loop
  vertex -0.00800419133 0.0197375808 0.0190260746
  vertex -0.00616843347 0.00646699453 0.0274018943
  vertex -0.00611824775 0.00593735976 0.0274018943
  endloop
 endfacet

 facet normal 0.975389361 0.0924239978 0.200183719
  outer loop
  vertex -0.00611824775 0.00593735976 0.0274018943
  vertex -0.00616843347 0.00646699453 0.0274018943
  vertex -0.00800419133 0.0134319579 0.0331308767
  endloop
 endfacet

 facet normal 0.972543478 0.0768023357 0.219682977
  outer loop
  vertex -0.00611824775 0.00593735976 0.0274018943
  vertex -0.00800419133 0.0134319579 0.0331308767
  vertex -0.00800419133 0.0120200496 0.0336244889
  endloop
 endfacet

 facet normal 0.93189162 -0.0742818117 0.355049551
  outer loop
  vertex -0.00611824775 0.00593735976 0.0274018943
  vertex -0.00800419133 0.0120200496 0.0336244889
  vertex -0.00800419133 0.0114998734 0.0335156582
  endloop
 endfacet

 facet normal 0 -0.739666283 0.672973812
  outer loop
  vertex -0.00611824775 0.00593735976 0.0274018943
  vertex -0.00800419133 0.0114998734 0.0335156582
  vertex -0.0099125877 0.00593735976 0.0274018943
  endloop
 endfacet

 facet normal -0.996876359 -0.0248581581 -0.0749647766
  outer loop
  vertex -0.0195562597 0.00593735976 -0.00469828723
  vertex -0.0195919182 0.00593735976 -0.00422411179
  vertex -0.0196051244 0.00646699453 -0.00422411179
  endloop
 endfacet

 facet normal -0.993929088 0.00662211468 -0.109823227
  outer loop
  vertex -0.0195562597 0.00593735976 -0.00469828723
  vertex -0.0196051244 0.00646699453 -0.00422411179
  vertex -0.0195958801 0.00785458274 -0.00422411179
  endloop
 endfacet

 facet normal -0.999391198 0.00665850565 -0.0342511907
  outer loop
  vertex -0.0195958801 0.00785458274 -0.00422411179
  vertex -0.0196051244 0.00646699453 -0.00422411179
  vertex -0.019606445 0.0134062869 -0.00283656269
  endloop
 endfacet

 facet normal -0.994510293 0.0235871207 -0.101946875
  outer loop
  vertex -0.0195958801 0.00785458274 -0.00422411179
  vertex -0.019606445 0.0134062869 -0.00283656269
  vertex -0.0195985213 0.0197375808 -0.00144901348
  endloop
 endfacet

 facet normal -0.991785407 0.0288804304 -0.124610275
  outer loop
  vertex -0.0195958801 0.00785458274 -0.00422411179
  vertex -0.0195985213 0.0197375808 -0.00144901348
  vertex -0.0195681453 0.0147938747 -0.00283656269
  endloop
 endfacet

 facet normal -0.990630805 0.0312280469 -0.132949322
  outer loop
  vertex -0.0195681453 0.0147938747 -0.00283656269
  vertex -0.0195985213 0.0197375808 -0.00144901348
  vertex -0.0195364486 0.0197375808 -0.00191153027
  endloop
 endfacet

 facet normal 0 0.824650645 0.565642476
  outer loop
  vertex -0.00800419133 0.0197375808 0.0252603274
  vertex -0.00880981237 0.0197375808 0.0252603274
  vertex -0.00800419133 0.0193403531 0.0258394442
  endloop
 endfacet

 facet normal 0.977406204 0.174305946 0.119559519
  outer loop
  vertex -0.00800419133 0.0197375808 0.0252603274
  vertex -0.00800419133 0.0193403531 0.0258394442
  vertex -0.00679708179 0.0114998734 0.0274018943
  endloop
 endfacet

 facet normal 0.977070808 0.174256459 0.122340694
  outer loop
  vertex -0.00679708179 0.0114998734 0.0274018943
  vertex -0.00800419133 0.0179216918 0.0278955046
  vertex -0.00800419133 0.0155586023 0.0312613808
  endloop
 endfacet

 facet normal 0.977528691 0.157596231 0.140004188
  outer loop
  vertex -0.00679708179 0.0114998734 0.0274018943
  vertex -0.00800419133 0.0155586023 0.0312613808
  vertex -0.00800419133 0.0142534319 0.0327305496
  endloop
 endfacet

 facet normal 0.979713678 0.122374341 0.15869993
  outer loop
  vertex -0.00679708179 0.0114998734 0.0274018943
  vertex -0.00800419133 0.0142534319 0.0327305496
  vertex -0.00616843347 0.00646699453 0.0274018943
  endloop
 endfacet

 facet normal 0.977317035 0.174407691 0.120138966
  outer loop
  vertex -0.00679708179 0.0114998734 0.0274018943
  vertex -0.00800419133 0.0193403531 0.0258394442
  vertex -0.00800419133 0.0187593773 0.0266828574
  endloop
 endfacet

 facet normal 0.977267921 0.174435124 0.120498314
  outer loop
  vertex -0.00679708179 0.0114998734 0.0274018943
  vertex -0.00800419133 0.0187593773 0.0266828574
  vertex -0.00800419133 0.0179216918 0.0278955046
  endloop
 endfacet

 facet normal 0.975851595 0.0956915841 0.196359321
  outer loop
  vertex -0.00616843347 0.00646699453 0.0274018943
  vertex -0.00800419133 0.0142534319 0.0327305496
  vertex -0.00800419133 0.0134319579 0.0331308767
  endloop
 endfacet

 facet normal -0.274065614 0.421304464 0.86451757
  outer loop
  vertex -0.00800419133 0.0134319579 0.0331308767
  vertex -0.00800419133 0.0142534319 0.0327305496
  vertex -0.0082155019 0.0142196538 0.0326800197
  endloop
 endfacet

 facet normal -0.616929054 0.259730756 0.742925644
  outer loop
  vertex -0.00800419133 0.0134319579 0.0331308767
  vertex -0.0082155019 0.0142196538 0.0326800197
  vertex -0.00800419133 0.0120200496 0.0336244889
  endloop
 endfacet

 facet normal -0.921903253 -0.0793365166 0.379209816
  outer loop
  vertex -0.00800419133 0.0120200496 0.0336244889
  vertex -0.00827757455 0.0120200496 0.0329598635
  vertex -0.00800419133 0.0114998734 0.0335156582
  endloop
 endfacet

 facet normal -0.672314584 0.236596122 0.701438189
  outer loop
  vertex -0.00800419133 0.0120200496 0.0336244889
  vertex -0.0082155019 0.0142196538 0.0326800197
  vertex -0.00828681886 0.0134062869 0.0328860171
  endloop
 endfacet

 facet normal -0.891828716 0.0572241805 0.44873929
  outer loop
  vertex -0.00800419133 0.0120200496 0.0336244889
  vertex -0.00828681886 0.0134062869 0.0328860171
  vertex -0.00963128079 0.0147938747 0.0300370716
  endloop
 endfacet

 facet normal -0.91920799 -0.0315641575 0.392505258
  outer loop
  vertex -0.00800419133 0.0120200496 0.0336244889
  vertex -0.00963128079 0.0147938747 0.0300370716
  vertex -0.0122686969 0.0189579893 0.0241953749
  endloop
 endfacet

 facet normal -0.919808805 -0.0341445766 0.390878379
  outer loop
  vertex -0.00800419133 0.0120200496 0.0336244889
  vertex -0.0122686969 0.0189579893 0.0241953749
  vertex -0.0109334802 0.0161814634 0.0270948466
  endloop
 endfacet

 facet normal -0.921156049 -0.0411614254 0.387010783
  outer loop
  vertex -0.00800419133 0.0120200496 0.0336244889
  vertex -0.0109334802 0.0161814634 0.0270948466
  vertex -0.0100354115 0.0147938747 0.0290848315
  endloop
 endfacet

 facet normal -0.923440576 -0.0545665249 0.379842222
  outer loop
  vertex -0.00800419133 0.0120200496 0.0336244889
  vertex -0.0100354115 0.0147938747 0.0290848315
  vertex -0.00827757455 0.0120200496 0.0329598635
  endloop
 endfacet

 facet normal -0.922577262 -0.0820707679 0.376982331
  outer loop
  vertex -0.00800419133 0.0114998734 0.0335156582
  vertex -0.00827757455 0.0120200496 0.0329598635
  vertex -0.00825512223 0.0114998734 0.0329015628
  endloop
 endfacet

 facet normal -0.921272874 -0.0976841003 0.376449317
  outer loop
  vertex -0.00800419133 0.0114998734 0.0335156582
  vertex -0.00825512223 0.0114998734 0.0329015628
  vertex -0.0099125877 0.00593735976 0.0274018943
  endloop
 endfacet

 facet normal -0.927396715 -0.0840578005 0.36451292
  outer loop
  vertex -0.0099125877 0.00593735976 0.0274018943
  vertex -0.00825512223 0.0114998734 0.0329015628
  vertex -0.00866453629 0.0114998734 0.0318599306
  endloop
 endfacet

 facet normal -0.927799225 -0.0832874328 0.363664359
  outer loop
  vertex -0.0099125877 0.00593735976 0.0274018943
  vertex -0.00866453629 0.0114998734 0.0318599306
  vertex -0.00996013265 0.00646699453 0.0274018943
  endloop
 endfacet

 facet normal -0.928240895 -0.0833270699 0.362526655
  outer loop
  vertex -0.0099125877 0.00593735976 0.0274018943
  vertex -0.00996013265 0.00646699453 0.0274018943
  vertex -0.0105121806 0.00593735976 0.0258666519
  endloop
 endfacet

 facet normal -0.977942109 -0.0500563532 0.202789783
  outer loop
  vertex -0.0195919182 0.00593735976 -0.00422411179
  vertex -0.0194347557 0.00593735976 -0.00346620637
  vertex -0.0195443723 0.0106297592 -0.00283656269
  endloop
 endfacet

 facet normal -0.986317754 -0.0374778882 0.160539061
  outer loop
  vertex -0.0195919182 0.00593735976 -0.00422411179
  vertex -0.0195443723 0.0106297592 -0.00283656269
  vertex -0.0195972007 0.0120200496 -0.00283656269
  endloop
 endfacet

 facet normal -0.9941746 -0.0247907843 0.104891866
  outer loop
  vertex -0.0195919182 0.00593735976 -0.00422411179
  vertex -0.0195972007 0.0120200496 -0.00283656269
  vertex -0.0196051244 0.00646699453 -0.00422411179
  endloop
 endfacet

 facet normal -0.997922182 -0.0142750666 0.0628287345
  outer loop
  vertex -0.0196051244 0.00646699453 -0.00422411179
  vertex -0.0195972007 0.0120200496 -0.00283656269
  vertex -0.0196090881 0.0189579893 -0.00144901348
  endloop
 endfacet

 facet normal -0.999983191 0.000951778609 -0.00571175897
  outer loop
  vertex -0.0196051244 0.00646699453 -0.00422411179
  vertex -0.0196090881 0.0189579893 -0.00144901348
  vertex -0.019606445 0.0134062869 -0.00283656269
  endloop
 endfacet

 facet normal -0.99833703 0.013530219 -0.0560360402
  outer loop
  vertex -0.019606445 0.0134062869 -0.00283656269
  vertex -0.0196090881 0.0189579893 -0.00144901348
  vertex -0.0195985213 0.0197375808 -0.00144901348
  endloop
 endfacet

 facet normal -0.989380777 0.0134088378 0.14472717
  outer loop
  vertex -0.0195985213 0.0197375808 -0.00144901348
  vertex -0.0196090881 0.0189579893 -0.00144901348
  vertex -0.0194717348 0.0197375808 -0.000582281034
  endloop
 endfacet

 facet normal -0.00952952541 0.823509336 0.567222774
  outer loop
  vertex -0.00880981237 0.0197375808 0.0252603274
  vertex -0.0101978565 0.0197375808 0.0252370089
  vertex -0.00880981237 0.0190174393 0.0263058487
  endloop
 endfacet

 facet normal -0.00169886358 0.823545516 0.567247689
  outer loop
  vertex -0.00880981237 0.0197375808 0.0252603274
  vertex -0.00880981237 0.0190174393 0.0263058487
  vertex -0.00800419133 0.0193403531 0.0258394442
  endloop
 endfacet

 facet normal -0.00167379063 0.823525369 0.567277074
  outer loop
  vertex -0.00800419133 0.0193403531 0.0258394442
  vertex -0.00880981237 0.0190174393 0.0263058487
  vertex -0.00800419133 0.0187593773 0.0266828574
  endloop
 endfacet

 facet normal -0.00097396702 0.822775185 0.56836611
  outer loop
  vertex -0.00800419133 0.0179216918 0.0278955046
  vertex -0.00800419133 0.0187593773 0.0266828574
  vertex -0.00880981237 0.0184013341 0.0271997862
  endloop
 endfacet

 facet normal -0.00413180934 0.821053743 0.570836067
  outer loop
  vertex -0.00800419133 0.0179216918 0.0278955046
  vertex -0.00880981237 0.0184013341 0.0271997862
  vertex -0.00880981237 0.0179176368 0.0278955046
  endloop
 endfacet

 facet normal -0.00411859248 0.818427265 0.574595392
  outer loop
  vertex -0.00800419133 0.0179216918 0.0278955046
  vertex -0.00880981237 0.0179176368 0.0278955046
  vertex -0.00800419133 0.0155586023 0.0312613808
  endloop
 endfacet

 facet normal -0.0468246453 0.812697589 0.580801368
  outer loop
  vertex -0.00800419133 0.0155586023 0.0312613808
  vertex -0.00880981237 0.0179176368 0.0278955046
  vertex -0.0101978565 0.0197375808 0.0252370089
  endloop
 endfacet

 facet normal -0.0504775904 0.811915338 0.581588864
  outer loop
  vertex -0.00800419133 0.0155586023 0.0312613808
  vertex -0.0101978565 0.0197375808 0.0252370089
  vertex -0.0101978565 0.019553829 0.0254935306
  endloop
 endfacet

 facet normal -0.0588573366 0.81000942 0.583455741
  outer loop
  vertex -0.00800419133 0.0155586023 0.0312613808
  vertex -0.0101978565 0.019553829 0.0254935306
  vertex -0.00823135022 0.0155504951 0.0312497206
  endloop
 endfacet

 facet normal -0.0606599376 0.746224165 0.662925243
  outer loop
  vertex -0.00800419133 0.0155586023 0.0312613808
  vertex -0.00823135022 0.0155504951 0.0312497206
  vertex -0.00800419133 0.0142534319 0.0327305496
  endloop
 endfacet

 facet normal -0.269683599 0.703485966 0.657554746
  outer loop
  vertex -0.00800419133 0.0142534319 0.0327305496
  vertex -0.00823135022 0.0155504951 0.0312497206
  vertex -0.0082155019 0.0142196538 0.0326800197
  endloop
 endfacet

 facet normal -0.00181367097 0.823385179 0.567480028
  outer loop
  vertex -0.00800419133 0.0187593773 0.0266828574
  vertex -0.00880981237 0.0190174393 0.0263058487
  vertex -0.00880981237 0.0184013341 0.0271997862
  endloop
 endfacet

 facet normal -0.380464017 0.674939811 0.632221103
  outer loop
  vertex -0.0082155019 0.0142196538 0.0326800197
  vertex -0.00823135022 0.0155504951 0.0312497206
  vertex -0.00975938793 0.0171029195 0.0286728423
  endloop
 endfacet

 facet normal -0.507285476 0.594906211 0.623496711
  outer loop
  vertex -0.0082155019 0.0142196538 0.0326800197
  vertex -0.00975938793 0.0171029195 0.0286728423
  vertex -0.0107538663 0.0180676095 0.0269432664
  endloop
 endfacet

 facet normal -0.728508592 0.374547899 0.573575854
  outer loop
  vertex -0.0082155019 0.0142196538 0.0326800197
  vertex -0.0107538663 0.0180676095 0.0269432664
  vertex -0.00960750785 0.0156964157 0.0299476776
  endloop
 endfacet

 facet normal -0.822200239 0.206432581 0.530445457
  outer loop
  vertex -0.0082155019 0.0142196538 0.0326800197
  vertex -0.00960750785 0.0156964157 0.0299476776
  vertex -0.00828681886 0.0134062869 0.0328860171
  endloop
 endfacet

 facet normal -0.926961899 -0.0735032186 0.367884338
  outer loop
  vertex -0.00827757455 0.0120200496 0.0329598635
  vertex -0.0100354115 0.0147938747 0.0290848315
  vertex -0.00930374954 0.0134062869 0.0306511689
  endloop
 endfacet

 facet normal -0.927590132 -0.078251183 0.365312666
  outer loop
  vertex -0.00827757455 0.0120200496 0.0329598635
  vertex -0.00930374954 0.0134062869 0.0306511689
  vertex -0.00871076062 0.0120200496 0.0318599306
  endloop
 endfacet

 facet normal -0.927388668 -0.0809616596 0.365233332
  outer loop
  vertex -0.00827757455 0.0120200496 0.0329598635
  vertex -0.00871076062 0.0120200496 0.0318599306
  vertex -0.00825512223 0.0114998734 0.0329015628
  endloop
 endfacet

 facet normal -0.889003992 0.0682627857 0.452782631
  outer loop
  vertex -0.00828681886 0.0134062869 0.0328860171
  vertex -0.00960750785 0.0156964157 0.0299476776
  vertex -0.00963128079 0.0147938747 0.0300370716
  endloop
 endfacet

 facet normal -0.88921845 0.0682272464 0.452366769
  outer loop
  vertex -0.00963128079 0.0147938747 0.0300370716
  vertex -0.00960750785 0.0156964157 0.0299476776
  vertex -0.0109400833 0.0171407498 0.0271103922
  endloop
 endfacet

 facet normal -0.898648739 0.0432242788 0.436534345
  outer loop
  vertex -0.00963128079 0.0147938747 0.0300370716
  vertex -0.0109400833 0.0171407498 0.0271103922
  vertex -0.0122686969 0.0189579893 0.0241953749
  endloop
 endfacet

 facet normal -0.878003597 0.106599115 0.466632932
  outer loop
  vertex -0.0122686969 0.0189579893 0.0241953749
  vertex -0.0109400833 0.0171407498 0.0271103922
  vertex -0.00960750785 0.0156964157 0.0299476776
  endloop
 endfacet

 facet normal -0.795235813 0.290104568 0.532390237
  outer loop
  vertex -0.0122686969 0.0189579893 0.0241953749
  vertex -0.00960750785 0.0156964157 0.0299476776
  vertex -0.0107538663 0.0180676095 0.0269432664
  endloop
 endfacet

 facet normal -0.791852653 0.297986597 0.533079147
  outer loop
  vertex -0.0122686969 0.0189579893 0.0241953749
  vertex -0.0107538663 0.0180676095 0.0269432664
  vertex -0.0111553557 0.0186485872 0.0260221194
  endloop
 endfacet

 facet normal -0.79142946 0.299201697 0.533027112
  outer loop
  vertex -0.0122686969 0.0189579893 0.0241953749
  vertex -0.0111553557 0.0186485872 0.0260221194
  vertex -0.0125341546 0.0197375808 0.0233636219
  endloop
 endfacet

 facet normal -0.892422795 0.150094494 0.425503463
  outer loop
  vertex -0.0122686969 0.0189579893 0.0241953749
  vertex -0.0125341546 0.0197375808 0.0233636219
  vertex -0.0131179001 0.0197375808 0.0221393146
  endloop
 endfacet

 facet normal -0.905940771 0.0989263058 0.411685467
  outer loop
  vertex -0.0122686969 0.0189579893 0.0241953749
  vertex -0.0131179001 0.0197375808 0.0221393146
  vertex -0.0135576893 0.0197375808 0.0211715288
  endloop
 endfacet

 facet normal -0.921374023 -0.0173354261 0.388290375
  outer loop
  vertex -0.0122686969 0.0189579893 0.0241953749
  vertex -0.0135576893 0.0197375808 0.0211715288
  vertex -0.0125618894 0.0189579893 0.0234996565
  endloop
 endfacet

 facet normal -0.920861602 -0.0375789106 0.388074458
  outer loop
  vertex -0.0122686969 0.0189579893 0.0241953749
  vertex -0.0125618894 0.0189579893 0.0234996565
  vertex -0.0109334802 0.0161814634 0.0270948466
  endloop
 endfacet

 facet normal -0.923200488 -0.0476540141 0.381352901
  outer loop
  vertex -0.0109334802 0.0161814634 0.0270948466
  vertex -0.0125618894 0.0189579893 0.0234996565
  vertex -0.0119041866 0.0175690502 0.0249182992
  endloop
 endfacet

 facet normal -0.927444637 -0.0737335682 0.366619527
  outer loop
  vertex -0.0109334802 0.0161814634 0.0270948466
  vertex -0.0119041866 0.0175690502 0.0249182992
  vertex -0.0135576893 0.0197375808 0.0211715288
  endloop
 endfacet

 facet normal -0.92749995 -0.0741465688 0.366396129
  outer loop
  vertex -0.0109334802 0.0161814634 0.0270948466
  vertex -0.0135576893 0.0197375808 0.0211715288
  vertex -0.0112451632 0.0161814634 0.0263058487
  endloop
 endfacet

 facet normal -0.927452683 -0.0748277158 0.366377443
  outer loop
  vertex -0.0109334802 0.0161814634 0.0270948466
  vertex -0.0112451632 0.0161814634 0.0263058487
  vertex -0.0100354115 0.0147938747 0.0290848315
  endloop
 endfacet

 facet normal -0.927597463 -0.0762954876 0.365707606
  outer loop
  vertex -0.0100354115 0.0147938747 0.0290848315
  vertex -0.0112451632 0.0161814634 0.0263058487
  vertex -0.00930374954 0.0134062869 0.0306511689
  endloop
 endfacet

 facet normal -0.927523911 -0.0824225917 0.364562899
  outer loop
  vertex -0.00825512223 0.0114998734 0.0329015628
  vertex -0.00871076062 0.0120200496 0.0318599306
  vertex -0.00866453629 0.0114998734 0.0318599306
  endloop
 endfacet

 facet normal -0.928183794 -0.0824812353 0.362866014
  outer loop
  vertex -0.00866453629 0.0114998734 0.0318599306
  vertex -0.00871076062 0.0120200496 0.0318599306
  vertex -0.00996013265 0.00646699453 0.0274018943
  endloop
 endfacet

 facet normal -0.928402126 -0.0820600167 0.362402499
  outer loop
  vertex -0.00996013265 0.00646699453 0.0274018943
  vertex -0.00871076062 0.0120200496 0.0318599306
  vertex -0.00991654955 0.0134062869 0.0290848315
  endloop
 endfacet

 facet normal -0.928433537 -0.0820413828 0.362326473
  outer loop
  vertex -0.00996013265 0.00646699453 0.0274018943
  vertex -0.00991654955 0.0134062869 0.0290848315
  vertex -0.0109163113 0.00966641866 0.0256762039
  endloop
 endfacet

 facet normal -0.928453207 -0.0820792541 0.362267196
  outer loop
  vertex -0.00996013265 0.00646699453 0.0274018943
  vertex -0.0109163113 0.00966641866 0.0256762039
  vertex -0.0121168178 0.00593735976 0.0217545331
  endloop
 endfacet

 facet normal -0.928412616 -0.0824524686 0.362286687
  outer loop
  vertex -0.00996013265 0.00646699453 0.0274018943
  vertex -0.0121168178 0.00593735976 0.0217545331
  vertex -0.0105121806 0.00593735976 0.0258666519
  endloop
 endfacet

 facet normal -0.971042514 -0.0547821037 0.232541382
  outer loop
  vertex -0.0194347557 0.00593735976 -0.00346620637
  vertex -0.0193370245 0.00593735976 -0.00305810408
  vertex -0.0194704141 0.00924217049 -0.00283656269
  endloop
 endfacet

 facet normal -0.974683106 -0.0519503914 0.217472404
  outer loop
  vertex -0.0194347557 0.00593735976 -0.00346620637
  vertex -0.0194704141 0.00924217049 -0.00283656269
  vertex -0.0195443723 0.0106297592 -0.00283656269
  endloop
 endfacet

 facet normal -0.972141206 -0.0518149063 0.228597194
  outer loop
  vertex -0.0195443723 0.0106297592 -0.00283656269
  vertex -0.0194704141 0.00924217049 -0.00283656269
  vertex -0.0195139982 0.0161814634 -0.00144901348
  endloop
 endfacet

 facet normal -0.977931023 -0.0456079543 0.2038894
  outer loop
  vertex -0.0195443723 0.0106297592 -0.00283656269
  vertex -0.0195139982 0.0161814634 -0.00144901348
  vertex -0.0195787121 0.0175690502 -0.00144901348
  endloop
 endfacet

 facet normal -0.985921741 -0.037462838 0.162956983
  outer loop
  vertex -0.0195443723 0.0106297592 -0.00283656269
  vertex -0.0195787121 0.0175690502 -0.00144901348
  vertex -0.0195972007 0.0120200496 -0.00283656269
  endloop
 endfacet

 facet normal -0.994723976 -0.0217546001 0.100254856
  outer loop
  vertex -0.0195972007 0.0120200496 -0.00283656269
  vertex -0.0195787121 0.0175690502 -0.00144901348
  vertex -0.0196090881 0.0189579893 -0.00144901348
  endloop
 endfacet

 facet normal -0.984272599 -0.0215260293 0.175340146
  outer loop
  vertex -0.0196090881 0.0189579893 -0.00144901348
  vertex -0.0195787121 0.0175690502 -0.00144901348
  vertex -0.0194717348 0.0197375808 -0.000582281034
  endloop
 endfacet

 facet normal -0.980163217 -0.0299525112 0.195915654
  outer loop
  vertex -0.0194717348 0.0197375808 -0.000582281034
  vertex -0.0195787121 0.0175690502 -0.00144901348
  vertex -0.0193660799 0.0197375808 -5.36910629e-05
  endloop
 endfacet

 facet normal -0.257814825 0.785469294 0.562645078
  outer loop
  vertex -0.0101978565 0.0197375808 0.0252370089
  vertex -0.0114023248 0.0197375808 0.0246850979
  vertex -0.0101978565 0.019553829 0.0254935306
  endloop
 endfacet

 facet normal -0.0167798698 0.820945144 0.570760489
  outer loop
  vertex -0.0101978565 0.0197375808 0.0252370089
  vertex -0.00880981237 0.0179176368 0.0278955046
  vertex -0.00880981237 0.0184013341 0.0271997862
  endloop
 endfacet

 facet normal -0.00979156047 0.823347032 0.567453742
  outer loop
  vertex -0.0101978565 0.0197375808 0.0252370089
  vertex -0.00880981237 0.0184013341 0.0271997862
  vertex -0.00880981237 0.0190174393 0.0263058487
  endloop
 endfacet

 facet normal -0.288301915 0.746821404 0.59928292
  outer loop
  vertex -0.0101978565 0.019553829 0.0254935306
  vertex -0.0114023248 0.0197375808 0.0246850979
  vertex -0.0102546457 0.0187958572 0.0264107883
  endloop
 endfacet

 facet normal -0.250952661 0.753768086 0.607335567
  outer loop
  vertex -0.0101978565 0.019553829 0.0254935306
  vertex -0.0102546457 0.0187958572 0.0264107883
  vertex -0.00982806366 0.0183553956 0.0271337125
  endloop
 endfacet

 facet normal -0.230271682 0.760270476 0.607423961
  outer loop
  vertex -0.0101978565 0.019553829 0.0254935306
  vertex -0.00982806366 0.0183553956 0.0271337125
  vertex -0.00823135022 0.0155504951 0.0312497206
  endloop
 endfacet

 facet normal -0.266161978 0.745380759 0.611199975
  outer loop
  vertex -0.00823135022 0.0155504951 0.0312497206
  vertex -0.00982806366 0.0183553956 0.0271337125
  vertex -0.0102546457 0.0187958572 0.0264107883
  endloop
 endfacet

 facet normal -0.287095159 0.735695004 0.613456786
  outer loop
  vertex -0.00823135022 0.0155504951 0.0312497206
  vertex -0.0102546457 0.0187958572 0.0264107883
  vertex -0.00975938793 0.0171029195 0.0286728423
  endloop
 endfacet

 facet normal -0.327454984 0.720681787 0.611057222
  outer loop
  vertex -0.00975938793 0.0171029195 0.0286728423
  vertex -0.0102546457 0.0187958572 0.0264107883
  vertex -0.0114023248 0.0197375808 0.0246850979
  endloop
 endfacet

 facet normal -0.421305656 0.667140663 0.614349306
  outer loop
  vertex -0.00975938793 0.0171029195 0.0286728423
  vertex -0.0114023248 0.0197375808 0.0246850979
  vertex -0.0107538663 0.0180676095 0.0269432664
  endloop
 endfacet

 facet normal -0.46872735 0.640530944 0.608288467
  outer loop
  vertex -0.0107538663 0.0180676095 0.0269432664
  vertex -0.0114023248 0.0197375808 0.0246850979
  vertex -0.0111553557 0.0186485872 0.0260221194
  endloop
 endfacet

 facet normal -0.928120732 -0.0799841359 0.363585532
  outer loop
  vertex -0.00930374954 0.0134062869 0.0306511689
  vertex -0.0112451632 0.0161814634 0.0263058487
  vertex -0.00871076062 0.0120200496 0.0318599306
  endloop
 endfacet

 facet normal -0.928311944 -0.0810756013 0.362855047
  outer loop
  vertex -0.00871076062 0.0120200496 0.0318599306
  vertex -0.0112451632 0.0161814634 0.0263058487
  vertex -0.00991654955 0.0134062869 0.0290848315
  endloop
 endfacet

 facet normal -0.643645167 0.530863702 0.551275611
  outer loop
  vertex -0.0111553557 0.0186485872 0.0260221194
  vertex -0.0114023248 0.0197375808 0.0246850979
  vertex -0.0125341546 0.0197375808 0.0233636219
  endloop
 endfacet

 facet normal -0.927895129 -0.0765725076 0.364893824
  outer loop
  vertex -0.0135576893 0.0197375808 0.0211715288
  vertex -0.0138297519 0.0197375808 0.0204796977
  vertex -0.0112451632 0.0161814634 0.0263058487
  endloop
 endfacet

 facet normal -0.924325585 -0.0514945202 0.378114402
  outer loop
  vertex -0.0135576893 0.0197375808 0.0211715288
  vertex -0.0119041866 0.0175690502 0.0249182992
  vertex -0.0125618894 0.0189579893 0.0234996565
  endloop
 endfacet

 facet normal -0.928195655 -0.0788377896 0.363644511
  outer loop
  vertex -0.0112451632 0.0161814634 0.0263058487
  vertex -0.0138297519 0.0197375808 0.0204796977
  vertex -0.0135259926 0.0189579893 0.0210860223
  endloop
 endfacet

 facet normal -0.928503215 -0.0818026513 0.36220181
  outer loop
  vertex -0.0112451632 0.0161814634 0.0263058487
  vertex -0.0135259926 0.0189579893 0.0210860223
  vertex -0.0120468214 0.0134062869 0.0236240309
  endloop
 endfacet

 facet normal -0.928499341 -0.0818114579 0.362209797
  outer loop
  vertex -0.0112451632 0.0161814634 0.0263058487
  vertex -0.0120468214 0.0134062869 0.0236240309
  vertex -0.00991654955 0.0134062869 0.0290848315
  endloop
 endfacet

 facet normal -0.928491294 -0.0819167122 0.362206638
  outer loop
  vertex -0.00991654955 0.0134062869 0.0290848315
  vertex -0.0120468214 0.0134062869 0.0236240309
  vertex -0.0109163113 0.00966641866 0.0256762039
  endloop
 endfacet

 facet normal -0.928507209 -0.0819478184 0.362158746
  outer loop
  vertex -0.0109163113 0.00966641866 0.0256762039
  vertex -0.0120468214 0.0134062869 0.0236240309
  vertex -0.0121168178 0.00593735976 0.0217545331
  endloop
 endfacet

 facet normal -0.928569674 -0.0819093138 0.362007231
  outer loop
  vertex -0.0121168178 0.00593735976 0.0217545331
  vertex -0.0120468214 0.0134062869 0.0236240309
  vertex -0.0135259926 0.0189579893 0.0210860223
  endloop
 endfacet

 facet normal -0.92863673 -0.0819255933 0.361831516
  outer loop
  vertex -0.0121168178 0.00593735976 0.0217545331
  vertex -0.0135259926 0.0189579893 0.0210860223
  vertex -0.0142985955 0.00785458274 0.01658912
  endloop
 endfacet

 facet normal -0.928650022 -0.0822005197 0.361735046
  outer loop
  vertex -0.0121168178 0.00593735976 0.0217545331
  vertex -0.0142985955 0.00785458274 0.01658912
  vertex -0.0141757717 0.00646699453 0.01658912
  endloop
 endfacet

 facet normal -0.928522229 -0.0851427913 0.361382425
  outer loop
  vertex -0.0121168178 0.00593735976 0.0217545331
  vertex -0.0141757717 0.00646699453 0.01658912
  vertex -0.0143329343 0.00593735976 0.0160605293
  endloop
 endfacet

 facet normal -0.968504906 -0.0556951426 0.242685586
  outer loop
  vertex -0.0193370245 0.00593735976 -0.00305810408
  vertex -0.019162694 0.00593735976 -0.00236238609
  vertex -0.0193528738 0.00646699453 -0.00299980305
  endloop
 endfacet

 facet normal -0.970358491 -0.0549422204 0.235341817
  outer loop
  vertex -0.0193370245 0.00593735976 -0.00305810408
  vertex -0.0193528738 0.00646699453 -0.00299980305
  vertex -0.0194704141 0.00924217049 -0.00283656269
  endloop
 endfacet

 facet normal -0.969954491 -0.0535454974 0.237320751
  outer loop
  vertex -0.0194704141 0.00924217049 -0.00283656269
  vertex -0.0194373969 0.0147938747 -0.00144901348
  vertex -0.0195139982 0.0161814634 -0.00144901348
  endloop
 endfacet

 facet normal -0.968451083 -0.0553112291 0.242988497
  outer loop
  vertex -0.0194704141 0.00924217049 -0.00283656269
  vertex -0.0193528738 0.00646699453 -0.00299980305
  vertex -0.019162694 0.00593735976 -0.00236238609
  endloop
 endfacet

 facet normal -0.968301654 -0.0552086607 0.243606374
  outer loop
  vertex -0.0194704141 0.00924217049 -0.00283656269
  vertex -0.019162694 0.00593735976 -0.00236238609
  vertex -0.0175356045 0.00593735976 0.00410506781
  endloop
 endfacet

 facet normal -0.968301177 -0.0552015454 0.243609637
  outer loop
  vertex -0.0194704141 0.00924217049 -0.00283656269
  vertex -0.0175356045 0.00593735976 0.00410506781
  vertex -0.0191613752 0.0120200496 -0.000978723518
  endloop
 endfacet

 facet normal -0.968333602 -0.055123575 0.24349843
  outer loop
  vertex -0.0194704141 0.00924217049 -0.00283656269
  vertex -0.0191613752 0.0120200496 -0.000978723518
  vertex -0.019223446 0.0197375808 0.000521539128
  endloop
 endfacet

 facet normal -0.968421698 -0.0550169423 0.243171662
  outer loop
  vertex -0.0194704141 0.00924217049 -0.00283656269
  vertex -0.019223446 0.0197375808 0.000521539128
  vertex -0.0194373969 0.0147938747 -0.00144901348
  endloop
 endfacet

 facet normal -0.969670951 -0.05352984 0.238480255
  outer loop
  vertex -0.0195139982 0.0161814634 -0.00144901348
  vertex -0.0194373969 0.0147938747 -0.00144901348
  vertex -0.0193594769 0.0189579893 -0.000197499394
  endloop
 endfacet

 facet normal -0.970925748 -0.0513539463 0.233807892
  outer loop
  vertex -0.0195139982 0.0161814634 -0.00144901348
  vertex -0.0193594769 0.0189579893 -0.000197499394
  vertex -0.0193660799 0.0197375808 -5.36910629e-05
  endloop
 endfacet

 facet normal -0.974628687 -0.0454539433 0.219163686
  outer loop
  vertex -0.0195139982 0.0161814634 -0.00144901348
  vertex -0.0193660799 0.0197375808 -5.36910629e-05
  vertex -0.0195787121 0.0175690502 -0.00144901348
  endloop
 endfacet

 facet normal -0.96926564 -0.0525448024 0.240339801
  outer loop
  vertex -0.0193660799 0.0197375808 -5.36910629e-05
  vertex -0.0193594769 0.0189579893 -0.000197499394
  vertex -0.019223446 0.0197375808 0.000521539128
  endloop
 endfacet

 facet normal -0.928760648 -0.0804594532 0.361842453
  outer loop
  vertex -0.0138297519 0.0197375808 0.0204796977
  vertex -0.014005404 0.0197375808 0.0200288426
  vertex -0.0135259926 0.0189579893 0.0210860223
  endloop
 endfacet

 facet normal -0.928787172 -0.0806149617 0.361739844
  outer loop
  vertex -0.0135259926 0.0189579893 0.0210860223
  vertex -0.014005404 0.0197375808 0.0200288426
  vertex -0.0142642586 0.0197375808 0.0193642173
  endloop
 endfacet

 facet normal -0.928865433 -0.0816431493 0.361307859
  outer loop
  vertex -0.0135259926 0.0189579893 0.0210860223
  vertex -0.0142642586 0.0197375808 0.0193642173
  vertex -0.0144914165 0.0161814634 0.0179766696
  endloop
 endfacet

 facet normal -0.928833425 -0.0817256272 0.361371607
  outer loop
  vertex -0.0135259926 0.0189579893 0.0210860223
  vertex -0.0144914165 0.0161814634 0.0179766696
  vertex -0.0142985955 0.00785458274 0.01658912
  endloop
 endfacet

 facet normal -0.930878699 -0.0815118253 0.356119186
  outer loop
  vertex -0.0142985955 0.00785458274 0.01658912
  vertex -0.0144200996 0.00924217049 0.01658912
  vertex -0.0143329343 0.00593735976 0.0160605293
  endloop
 endfacet

 facet normal -0.929743111 -0.0822972879 0.358894318
  outer loop
  vertex -0.0142985955 0.00785458274 0.01658912
  vertex -0.0143329343 0.00593735976 0.0160605293
  vertex -0.0141757717 0.00646699453 0.01658912
  endloop
 endfacet

 facet normal -0.929653108 -0.0814045072 0.359330595
  outer loop
  vertex -0.0142985955 0.00785458274 0.01658912
  vertex -0.0144914165 0.0161814634 0.0179766696
  vertex -0.0144200996 0.00924217049 0.01658912
  endloop
 endfacet

 facet normal -0.932771862 -0.0807904825 0.351297081
  outer loop
  vertex -0.0143329343 0.00593735976 0.0160605293
  vertex -0.0144200996 0.00924217049 0.01658912
  vertex -0.014540283 0.0106297592 0.01658912
  endloop
 endfacet

 facet normal -0.933707833 -0.0805568621 0.348855942
  outer loop
  vertex -0.0143329343 0.00593735976 0.0160605293
  vertex -0.014540283 0.0106297592 0.01658912
  vertex -0.0146538615 0.00593735976 0.0152015714
  endloop
 endfacet

 facet normal -0.968562305 -0.0548064485 0.242658839
  outer loop
  vertex -0.0194373969 0.0147938747 -0.00144901348
  vertex -0.019223446 0.0197375808 0.000521539128
  vertex -0.0193594769 0.0189579893 -0.000197499394
  endloop
 endfacet

 facet normal -0.968140781 -0.0562470071 0.244007677
  outer loop
  vertex -0.0175356045 0.00593735976 0.00410506781
  vertex -0.0152560957 0.00593735976 0.0131493984
  vertex -0.0151742129 0.00646699453 0.013596368
  endloop
 endfacet

 facet normal -0.968213201 -0.0551725999 0.243965715
  outer loop
  vertex -0.0175356045 0.00593735976 0.00410506781
  vertex -0.0151742129 0.00646699453 0.013596368
  vertex -0.0171037409 0.0106297592 0.00688016601
  endloop
 endfacet

 facet normal -0.968231857 -0.0551324002 0.243900657
  outer loop
  vertex -0.0175356045 0.00593735976 0.00410506781
  vertex -0.0171037409 0.0106297592 0.00688016601
  vertex -0.0178406835 0.0197375808 0.00601343345
  endloop
 endfacet

 facet normal -0.968255639 -0.0551202707 0.243809149
  outer loop
  vertex -0.0175356045 0.00593735976 0.00410506781
  vertex -0.0178406835 0.0197375808 0.00601343345
  vertex -0.0188232772 0.0197375808 0.00211119559
  endloop
 endfacet

 facet normal -0.968270957 -0.0551308803 0.24374561
  outer loop
  vertex -0.0175356045 0.00593735976 0.00410506781
  vertex -0.0188232772 0.0197375808 0.00211119559
  vertex -0.019223446 0.0197375808 0.000521539128
  endloop
 endfacet

 facet normal -0.968290687 -0.0551550165 0.24366194
  outer loop
  vertex -0.0175356045 0.00593735976 0.00410506781
  vertex -0.019223446 0.0197375808 0.000521539128
  vertex -0.0191613752 0.0120200496 -0.000978723518
  endloop
 endfacet

 facet normal -0.935197055 -0.0740644187 0.346296072
  outer loop
  vertex -0.0142642586 0.0197375808 0.0193642173
  vertex -0.0144887753 0.0197375808 0.0187578946
  vertex -0.0146063166 0.0175690502 0.0179766696
  endloop
 endfacet

 facet normal -0.933242917 -0.0772775337 0.350835949
  outer loop
  vertex -0.0142642586 0.0197375808 0.0193642173
  vertex -0.0146063166 0.0175690502 0.0179766696
  vertex -0.0144914165 0.0161814634 0.0179766696
  endloop
 endfacet

 facet normal -0.936093271 -0.0775135681 0.343105227
  outer loop
  vertex -0.0144914165 0.0161814634 0.0179766696
  vertex -0.0146063166 0.0175690502 0.0179766696
  vertex -0.014540283 0.0106297592 0.01658912
  endloop
 endfacet

 facet normal -0.931191444 -0.0806536004 0.355496138
  outer loop
  vertex -0.0144914165 0.0161814634 0.0179766696
  vertex -0.014540283 0.0106297592 0.01658912
  vertex -0.0144200996 0.00924217049 0.01658912
  endloop
 endfacet

 facet normal -0.940542459 -0.0751855299 0.331250727
  outer loop
  vertex -0.014540283 0.0106297592 0.01658912
  vertex -0.0146063166 0.0175690502 0.0179766696
  vertex -0.0146538615 0.00593735976 0.0152015714
  endloop
 endfacet

 facet normal -0.944325864 -0.0726958066 0.320879996
  outer loop
  vertex -0.0146538615 0.00593735976 0.0152015714
  vertex -0.0146063166 0.0175690502 0.0179766696
  vertex -0.0147925345 0.00593735976 0.0147934686
  endloop
 endfacet

 facet normal -0.967298925 -0.0596969761 0.246513978
  outer loop
  vertex -0.0152560957 0.00593735976 0.0131493984
  vertex -0.0150500685 0.00593735976 0.0139578301
  vertex -0.0149985617 0.00646699453 0.0142881991
  endloop
 endfacet

 facet normal -0.967631102 -0.0577337742 0.245676041
  outer loop
  vertex -0.0152560957 0.00593735976 0.0131493984
  vertex -0.0149985617 0.00646699453 0.0142881991
  vertex -0.0151742129 0.00646699453 0.013596368
  endloop
 endfacet

 facet normal -0.968210816 -0.0551466495 0.243981108
  outer loop
  vertex -0.0151742129 0.00646699453 0.013596368
  vertex -0.0155136297 0.0134062869 0.0138179092
  vertex -0.0171037409 0.0106297592 0.00688016601
  endloop
 endfacet

 facet normal -0.967749238 -0.0555869192 0.245706022
  outer loop
  vertex -0.0151742129 0.00646699453 0.013596368
  vertex -0.0149985617 0.00646699453 0.0142881991
  vertex -0.0150276171 0.0197375808 0.0171760097
  endloop
 endfacet

 facet normal -0.968180716 -0.0551489852 0.244100168
  outer loop
  vertex -0.0151742129 0.00646699453 0.013596368
  vertex -0.0150276171 0.0197375808 0.0171760097
  vertex -0.0155136297 0.0134062869 0.0138179092
  endloop
 endfacet

 facet normal -0.968214214 -0.0551241003 0.243972883
  outer loop
  vertex -0.0171037409 0.0106297592 0.00688016601
  vertex -0.0155136297 0.0134062869 0.0138179092
  vertex -0.0178406835 0.0197375808 0.00601343345
  endloop
 endfacet

 facet normal -0.968209863 -0.0550922565 0.24399741
  outer loop
  vertex -0.0178406835 0.0197375808 0.00601343345
  vertex -0.0155136297 0.0134062869 0.0138179092
  vertex -0.0150276171 0.0197375808 0.0171760097
  endloop
 endfacet

 facet normal -0.94113493 -0.0659689382 0.331531346
  outer loop
  vertex -0.0144887753 0.0197375808 0.0187578946
  vertex -0.0147872511 0.0197375808 0.0179105941
  vertex -0.0147093302 0.0189579893 0.0179766696
  endloop
 endfacet

 facet normal -0.939693391 -0.0696942806 0.334841937
  outer loop
  vertex -0.0144887753 0.0197375808 0.0187578946
  vertex -0.0147093302 0.0189579893 0.0179766696
  vertex -0.0146063166 0.0175690502 0.0179766696
  endloop
 endfacet

 facet normal -0.944865108 -0.0700778514 0.319873571
  outer loop
  vertex -0.0146063166 0.0175690502 0.0179766696
  vertex -0.0147093302 0.0189579893 0.0179766696
  vertex -0.0149615817 0.0175690502 0.0169272628
  endloop
 endfacet

 facet normal -0.944709063 -0.0723842829 0.319820762
  outer loop
  vertex -0.0146063166 0.0175690502 0.0179766696
  vertex -0.0149615817 0.0175690502 0.0169272628
  vertex -0.0149312066 0.0106297592 0.0154464329
  endloop
 endfacet

 facet normal -0.944653213 -0.0724422336 0.319972575
  outer loop
  vertex -0.0146063166 0.0175690502 0.0179766696
  vertex -0.0149312066 0.0106297592 0.0154464329
  vertex -0.0147925345 0.00593735976 0.0147934686
  endloop
 endfacet

 facet normal -0.946382165 -0.0717971697 0.314969689
  outer loop
  vertex -0.0147925345 0.00593735976 0.0147934686
  vertex -0.0149312066 0.0106297592 0.0154464329
  vertex -0.0149813918 0.00593735976 0.0142260119
  endloop
 endfacet

 facet normal -0.966970563 -0.0604208969 0.247623324
  outer loop
  vertex -0.0150500685 0.00593735976 0.0139578301
  vertex -0.0149813918 0.00593735976 0.0142260119
  vertex -0.0149985617 0.00646699453 0.0142881991
  endloop
 endfacet

 facet normal -0.956580877 -0.0643865466 0.284266412
  outer loop
  vertex -0.0149985617 0.00646699453 0.0142881991
  vertex -0.0149813918 0.00593735976 0.0142260119
  vertex -0.0149615817 0.0175690502 0.0169272628
  endloop
 endfacet

 facet normal -0.962575078 -0.059637472 0.264371902
  outer loop
  vertex -0.0149985617 0.00646699453 0.0142881991
  vertex -0.0149615817 0.0175690502 0.0169272628
  vertex -0.0150276171 0.0197375808 0.0171760097
  endloop
 endfacet

 facet normal -0.949572086 -0.0641223565 0.306921899
  outer loop
  vertex -0.0150276171 0.0197375808 0.0171760097
  vertex -0.0149615817 0.0175690502 0.0169272628
  vertex -0.0149246035 0.0197375808 0.0174947195
  endloop
 endfacet

 facet normal -0.9474985 -0.0657302886 0.312931478
  outer loop
  vertex -0.0147872511 0.0197375808 0.0179105941
  vertex -0.0149246035 0.0197375808 0.0174947195
  vertex -0.0149615817 0.0175690502 0.0169272628
  endloop
 endfacet

 facet normal -0.946011364 -0.0676890165 0.316987365
  outer loop
  vertex -0.0147872511 0.0197375808 0.0179105941
  vertex -0.0149615817 0.0175690502 0.0169272628
  vertex -0.0147093302 0.0189579893 0.0179766696
  endloop
 endfacet

 facet normal -0.954772234 -0.0657176524 0.289984882
  outer loop
  vertex -0.0149615817 0.0175690502 0.0169272628
  vertex -0.0149813918 0.00593735976 0.0142260119
  vertex -0.0149629032 0.0114998734 0.015547487
  endloop
 endfacet

 facet normal -0.947376192 -0.0707701147 0.312201947
  outer loop
  vertex -0.0149615817 0.0175690502 0.0169272628
  vertex -0.0149629032 0.0114998734 0.015547487
  vertex -0.0149312066 0.0106297592 0.0154464329
  endloop
 endfacet

 facet normal -0.948000133 -0.0705772862 0.310345948
  outer loop
  vertex -0.0149312066 0.0106297592 0.0154464329
  vertex -0.0149629032 0.0114998734 0.015547487
  vertex -0.0149813918 0.00593735976 0.0142260119
  endloop
 endfacet

endsolid AssimpScene
