solid AssimpScene
 facet normal 0 -1 0
  outer loop
  vertex 0.00809040759 0.00692367833 -0.00728764851
  vertex 0.0116261719 0.00692367833 -0.00728764851
  vertex 0.0144900875 0.00692367833 0.0127041647
  endloop
 endfacet

 facet normal 0 -1 0
  outer loop
  vertex 0.00809040759 0.00692367833 -0.00728764851
  vertex 0.0144900875 0.00692367833 0.0127041647
  vertex 0.0144947516 0.00692367833 0.0128463535
  endloop
 endfacet

 facet normal 0 -1 0
  outer loop
  vertex 0.00809040759 0.00692367833 -0.00728764851
  vertex 0.0144947516 0.00692367833 0.0128463535
  vertex 0.010886671 0.00692367833 0.0128463535
  endloop
 endfacet

 facet normal 0 -1 0
  outer loop
  vertex 0.00809040759 0.00692367833 -0.00728764851
  vertex 0.010886671 0.00692367833 0.0128463535
  vertex 0.00835557096 0.00692367833 0.00295404205
  endloop
 endfacet

 facet normal 0 -1 0
  outer loop
  vertex 0.00809040759 0.00692367833 -0.00728764851
  vertex 0.00835557096 0.00692367833 0.00295404205
  vertex 0.00821326952 0.00692367833 0.0021293445
  endloop
 endfacet

 facet normal 0 -1 0
  outer loop
  vertex 0.00809040759 0.00692367833 -0.00728764851
  vertex 0.00821326952 0.00692367833 0.0021293445
  vertex 0.00811840221 0.00692367833 0.0015646494
  endloop
 endfacet

 facet normal 0 -1 0
  outer loop
  vertex 0.00809040759 0.00692367833 -0.00728764851
  vertex 0.00811840221 0.00692367833 0.0015646494
  vertex 0.00807407871 0.00692367833 0.000735889131
  endloop
 endfacet

 facet normal 0 -1 0
  outer loop
  vertex 0.00809040759 0.00692367833 -0.00728764851
  vertex 0.00807407871 0.00692367833 0.000735889131
  vertex 0.00805230625 0.00692367833 0.000171195061
  endloop
 endfacet

 facet normal 0 -1 0
  outer loop
  vertex 0.00809040759 0.00692367833 -0.00728764851
  vertex 0.00805230625 0.00692367833 0.000171195061
  vertex 0.00804219674 0.00692367833 -0.000657565193
  endloop
 endfacet

 facet normal 0 -1 0
  outer loop
  vertex 0.00809040759 0.00692367833 -0.00728764851
  vertex 0.00804219674 0.00692367833 -0.000657565193
  vertex 0.00802042335 0.00692367833 -0.00344447489
  endloop
 endfacet

 facet normal 0 -1 0
  outer loop
  vertex 0.00809040759 0.00692367833 -0.00728764851
  vertex 0.00802042335 0.00692367833 -0.00344447489
  vertex 0.00801187102 0.00692367833 -0.0048338687
  endloop
 endfacet

 facet normal 0 -1 0
  outer loop
  vertex 0.00809040759 0.00692367833 -0.00728764851
  vertex 0.00801187102 0.00692367833 -0.0048338687
  vertex 0.00801187102 0.00692367833 -0.00539856264
  endloop
 endfacet

 facet normal 0 -1 0
  outer loop
  vertex 0.00809040759 0.00692367833 -0.00728764851
  vertex 0.00801187102 0.00692367833 -0.00539856264
  vertex 0.00805152766 0.00692367833 -0.00679201819
  endloop
 endfacet

 facet normal -0.992997408 -0.0888156667 -0.0778960958
  outer loop
  vertex 0.00809040759 0.00692367833 -0.00728764851
  vertex 0.00805152766 0.00692367833 -0.00679201819
  vertex 0.00661918242 0.0217157863 -0.00539856264
  endloop
 endfacet

 facet normal -0.978940845 -0.0730194077 -0.19063811
  outer loop
  vertex 0.00809040759 0.00692367833 -0.00728764851
  vertex 0.00661918242 0.0217157863 -0.00539856264
  vertex 0.00661918242 0.0225536972 -0.00571950432
  endloop
 endfacet

 facet normal -0.974121809 -0.070134975 -0.214866668
  outer loop
  vertex 0.00809040759 0.00692367833 -0.00728764851
  vertex 0.00661918242 0.0225536972 -0.00571950432
  vertex 0.00661918242 0.0241965782 -0.00625575986
  endloop
 endfacet

 facet normal -0.929276824 -0.0573519729 -0.364904702
  outer loop
  vertex 0.00809040759 0.00692367833 -0.00728764851
  vertex 0.00661918242 0.0241965782 -0.00625575986
  vertex 0.00661918242 0.024429217 -0.00629232358
  endloop
 endfacet

 facet normal -0.697523236 -0.0178928711 -0.716338813
  outer loop
  vertex 0.00809040759 0.00692367833 -0.00728764851
  vertex 0.00661918242 0.024429217 -0.00629232358
  vertex 0.00661918242 0.0257303473 -0.00632482348
  endloop
 endfacet

 facet normal -0.671765029 -0.0146347545 -0.740619779
  outer loop
  vertex 0.00809040759 0.00692367833 -0.00728764851
  vertex 0.00661918242 0.0257303473 -0.00632482348
  vertex 0.00777703431 0.0213081539 -0.00728764851
  endloop
 endfacet

 facet normal 0 0 -1
  outer loop
  vertex 0.00809040759 0.00692367833 -0.00728764851
  vertex 0.00777703431 0.0213081539 -0.00728764851
  vertex 0.00779414177 0.0216807872 -0.00728764851
  endloop
 endfacet

 facet normal 0 0 -1
  outer loop
  vertex 0.00809040759 0.00692367833 -0.00728764851
  vertex 0.00779414177 0.0216807872 -0.00728764851
  vertex 0.00801575836 0.0225886945 -0.00728764851
  endloop
 endfacet

 facet normal 0 0 -1
  outer loop
  vertex 0.00809040759 0.00692367833 -0.00728764851
  vertex 0.00801575836 0.0225886945 -0.00728764851
  vertex 0.00809507351 0.0228707436 -0.00728764851
  endloop
 endfacet

 facet normal 0 0 -1
  outer loop
  vertex 0.00809040759 0.00692367833 -0.00728764851
  vertex 0.00809507351 0.0228707436 -0.00728764851
  vertex 0.00837034639 0.0229839757 -0.00728764851
  endloop
 endfacet

 facet normal 0 0 -1
  outer loop
  vertex 0.00809040759 0.00692367833 -0.00728764851
  vertex 0.00837034639 0.0229839757 -0.00728764851
  vertex 0.00925759133 0.0231630858 -0.00728764851
  endloop
 endfacet

 facet normal 0 0 -1
  outer loop
  vertex 0.00809040759 0.00692367833 -0.00728764851
  vertex 0.00925759133 0.0231630858 -0.00728764851
  vertex 0.00978869479 0.023121912 -0.00728764851
  endloop
 endfacet

 facet normal 0 0 -1
  outer loop
  vertex 0.00809040759 0.00692367833 -0.00728764851
  vertex 0.00978869479 0.023121912 -0.00728764851
  vertex 0.0106681641 0.0228151567 -0.00728764851
  endloop
 endfacet

 facet normal 0 0 -1
  outer loop
  vertex 0.00809040759 0.00692367833 -0.00728764851
  vertex 0.0106681641 0.0228151567 -0.00728764851
  vertex 0.0109387701 0.0226875152 -0.00728764851
  endloop
 endfacet

 facet normal 0 0 -1
  outer loop
  vertex 0.00809040759 0.00692367833 -0.00728764851
  vertex 0.0109387701 0.0226875152 -0.00728764851
  vertex 0.0114216628 0.0224466436 -0.00728764851
  endloop
 endfacet

 facet normal 0 0 -1
  outer loop
  vertex 0.00809040759 0.00692367833 -0.00728764851
  vertex 0.0114216628 0.0224466436 -0.00728764851
  vertex 0.0115071991 0.0219566599 -0.00728764851
  endloop
 endfacet

 facet normal 0 0 -1
  outer loop
  vertex 0.00809040759 0.00692367833 -0.00728764851
  vertex 0.0115071991 0.0219566599 -0.00728764851
  vertex 0.011553078 0.0216807872 -0.00728764851
  endloop
 endfacet

 facet normal 0 0 -1
  outer loop
  vertex 0.00809040759 0.00692367833 -0.00728764851
  vertex 0.011553078 0.0216807872 -0.00728764851
  vertex 0.0116059547 0.0207790565 -0.00728764851
  endloop
 endfacet

 facet normal 0 0 -1
  outer loop
  vertex 0.00809040759 0.00692367833 -0.00728764851
  vertex 0.0116059547 0.0207790565 -0.00728764851
  vertex 0.0116308378 0.0202849563 -0.00728764851
  endloop
 endfacet

 facet normal 0 0 -1
  outer loop
  vertex 0.00809040759 0.00692367833 -0.00728764851
  vertex 0.0116308378 0.0202849563 -0.00728764851
  vertex 0.0116308378 0.00824745372 -0.00728764851
  endloop
 endfacet

 facet normal 0 0 -1
  outer loop
  vertex 0.00809040759 0.00692367833 -0.00728764851
  vertex 0.0116308378 0.00824745372 -0.00728764851
  vertex 0.0116261719 0.00692367833 -0.00728764851
  endloop
 endfacet

 facet normal 0.98988837 -0.00348888314 -0.141805857
  outer loop
  vertex 0.0116261719 0.00692367833 -0.00728764851
  vertex 0.0116308378 0.00824745372 -0.00728764851
  vertex 0.0144900875 0.00692367833 0.0127041647
  endloop
 endfacet

 facet normal -0.995193601 -0.093742907 -0.0283228233
  outer loop
  vertex 0.00805152766 0.00692367833 -0.00679201819
  vertex 0.00801187102 0.00692367833 -0.00539856264
  vertex 0.00661918242 0.021701375 -0.00537418621
  endloop
 endfacet

 facet normal -0.994370878 -0.091206871 -0.0539242625
  outer loop
  vertex 0.00805152766 0.00692367833 -0.00679201819
  vertex 0.00661918242 0.021701375 -0.00537418621
  vertex 0.00661918242 0.0217157863 -0.00539856264
  endloop
 endfacet

 facet normal -1 0 0
  outer loop
  vertex 0.00661918242 0.0217157863 -0.00539856264
  vertex 0.00661918242 0.021701375 -0.00537418621
  vertex 0.00661918242 0.0216807872 -0.00503293192
  endloop
 endfacet

 facet normal -1 0 0
  outer loop
  vertex 0.00661918242 0.0217157863 -0.00539856264
  vertex 0.00661918242 0.0216807872 -0.00503293192
  vertex 0.00661918242 0.0216354951 -0.00407010922
  endloop
 endfacet

 facet normal -1 0 0
  outer loop
  vertex 0.00661918242 0.0217157863 -0.00539856264
  vertex 0.00661918242 0.0216354951 -0.00407010922
  vertex 0.00661918242 0.0216354951 -0.0040051071
  endloop
 endfacet

 facet normal -1 0 0
  outer loop
  vertex 0.00661918242 0.0217157863 -0.00539856264
  vertex 0.00661918242 0.0216354951 -0.0040051071
  vertex 0.00661918242 0.0236695409 0.0128463535
  endloop
 endfacet

 facet normal -1 0 0
  outer loop
  vertex 0.00661918242 0.0217157863 -0.00539856264
  vertex 0.00661918242 0.0236695409 0.0128463535
  vertex 0.00661918242 0.0272723492 0.0128463535
  endloop
 endfacet

 facet normal -1 0 0
  outer loop
  vertex 0.00661918242 0.0217157863 -0.00539856264
  vertex 0.00661918242 0.0272723492 0.0128463535
  vertex 0.00661918242 0.027290877 0.0127041647
  endloop
 endfacet

 facet normal -1 0 0
  outer loop
  vertex 0.00661918242 0.0217157863 -0.00539856264
  vertex 0.00661918242 0.027290877 0.0127041647
  vertex 0.00661918242 0.02792909 -0.00383041729
  endloop
 endfacet

 facet normal -1 0 0
  outer loop
  vertex 0.00661918242 0.0217157863 -0.00539856264
  vertex 0.00661918242 0.02792909 -0.00383041729
  vertex 0.00661918242 0.0279558524 -0.00452511432
  endloop
 endfacet

 facet normal -1 0 0
  outer loop
  vertex 0.00661918242 0.0217157863 -0.00539856264
  vertex 0.00661918242 0.0279558524 -0.00452511432
  vertex 0.00661918242 0.0279558524 -0.00472824136
  endloop
 endfacet

 facet normal -1 0 0
  outer loop
  vertex 0.00661918242 0.0217157863 -0.00539856264
  vertex 0.00661918242 0.0279558524 -0.00472824136
  vertex 0.00661918242 0.0275029279 -0.00542700104
  endloop
 endfacet

 facet normal -1 0 0
  outer loop
  vertex 0.00661918242 0.0217157863 -0.00539856264
  vertex 0.00661918242 0.0275029279 -0.00542700104
  vertex 0.00661918242 0.0268091299 -0.00620294735
  endloop
 endfacet

 facet normal -1 0 0
  outer loop
  vertex 0.00661918242 0.0217157863 -0.00539856264
  vertex 0.00661918242 0.0268091299 -0.00620294735
  vertex 0.00661918242 0.026722664 -0.00621513464
  endloop
 endfacet

 facet normal -1 0 0
  outer loop
  vertex 0.00661918242 0.0217157863 -0.00539856264
  vertex 0.00661918242 0.026722664 -0.00621513464
  vertex 0.00661918242 0.0258579887 -0.00632076198
  endloop
 endfacet

 facet normal -1 0 0
  outer loop
  vertex 0.00661918242 0.0217157863 -0.00539856264
  vertex 0.00661918242 0.0258579887 -0.00632076198
  vertex 0.00661918242 0.0257303473 -0.00632482348
  endloop
 endfacet

 facet normal -1 0 0
  outer loop
  vertex 0.00661918242 0.0217157863 -0.00539856264
  vertex 0.00661918242 0.0257303473 -0.00632482348
  vertex 0.00661918242 0.024429217 -0.00629232358
  endloop
 endfacet

 facet normal -1 0 0
  outer loop
  vertex 0.00661918242 0.0217157863 -0.00539856264
  vertex 0.00661918242 0.024429217 -0.00629232358
  vertex 0.00661918242 0.0241965782 -0.00625575986
  endloop
 endfacet

 facet normal -1 0 0
  outer loop
  vertex 0.00661918242 0.0217157863 -0.00539856264
  vertex 0.00661918242 0.0241965782 -0.00625575986
  vertex 0.00661918242 0.0225536972 -0.00571950432
  endloop
 endfacet

 facet normal -0.578741431 0.0259373635 -0.815098524
  outer loop
  vertex 0.00661918242 0.0257303473 -0.00632482348
  vertex 0.00661918242 0.0258579887 -0.00632076198
  vertex 0.00777703431 0.0213081539 -0.00728764851
  endloop
 endfacet

 facet normal -0.577331662 0.0265045669 -0.816079497
  outer loop
  vertex 0.00777703431 0.0213081539 -0.00728764851
  vertex 0.00661918242 0.0258579887 -0.00632076198
  vertex 0.00779414177 0.0216807872 -0.00728764851
  endloop
 endfacet

 facet normal 0.989926875 0 -0.141580358
  outer loop
  vertex 0.0116308378 0.00824745372 -0.00728764851
  vertex 0.0116308378 0.0202849563 -0.00728764851
  vertex 0.0144900875 0.00692367833 0.0127041647
  endloop
 endfacet

 facet normal 0.99018091 0.00277054403 -0.139765024
  outer loop
  vertex 0.0144900875 0.00692367833 0.0127041647
  vertex 0.0116308378 0.0202849563 -0.00728764851
  vertex 0.0144838663 0.00914712623 0.0127041647
  endloop
 endfacet

 facet normal 0.997123837 0.00278997049 -0.0757388324
  outer loop
  vertex 0.0144900875 0.00692367833 0.0127041647
  vertex 0.0144838663 0.00914712623 0.0127041647
  vertex 0.0145468516 0.0244642161 0.0140976198
  endloop
 endfacet

 facet normal 0.997127652 0.00278594554 -0.07568831
  outer loop
  vertex 0.0144900875 0.00692367833 0.0127041647
  vertex 0.0145468516 0.0244642161 0.0140976198
  vertex 0.0145507399 0.0230725016 0.0140976198
  endloop
 endfacet

 facet normal 0.997597635 0.00222771312 -0.0692393929
  outer loop
  vertex 0.0144900875 0.00692367833 0.0127041647
  vertex 0.0145507399 0.0230725016 0.0140976198
  vertex 0.0145569602 0.0202870145 0.0140976198
  endloop
 endfacet

 facet normal 0.997779071 0.00194969622 -0.0665818974
  outer loop
  vertex 0.0144900875 0.00692367833 0.0127041647
  vertex 0.0145569602 0.0202870145 0.0140976198
  vertex 0.0145624029 0.0175015274 0.0140976198
  endloop
 endfacet

 facet normal 0.998427272 0.000559189299 -0.0560600683
  outer loop
  vertex 0.0144900875 0.00692367833 0.0127041647
  vertex 0.0145624029 0.0175015274 0.0140976198
  vertex 0.0145631814 0.0161118731 0.0140976198
  endloop
 endfacet

 facet normal 0.999142051 -0.00167232135 -0.0413833745
  outer loop
  vertex 0.0144900875 0.00692367833 0.0127041647
  vertex 0.0145631814 0.0161118731 0.0140976198
  vertex 0.0145608485 0.0147180995 0.0140976198
  endloop
 endfacet

 facet normal 0.99945724 -0.00321182655 -0.0327880159
  outer loop
  vertex 0.0144900875 0.00692367833 0.0127041647
  vertex 0.0145608485 0.0147180995 0.0140976198
  vertex 0.0144947516 0.00692367833 0.0128463535
  endloop
 endfacet

 facet normal -0.995549202 -0.094243288 0
  outer loop
  vertex 0.00801187102 0.00692367833 -0.00539856264
  vertex 0.00801187102 0.00692367833 -0.0048338687
  vertex 0.00661918242 0.0216354951 -0.0040051071
  endloop
 endfacet

 facet normal -0.995549202 -0.094243288 0
  outer loop
  vertex 0.00801187102 0.00692367833 -0.00539856264
  vertex 0.00661918242 0.0216354951 -0.0040051071
  vertex 0.00661918242 0.0216354951 -0.00407010922
  endloop
 endfacet

 facet normal -0.995576918 -0.0938472673 -0.00441476889
  outer loop
  vertex 0.00801187102 0.00692367833 -0.00539856264
  vertex 0.00661918242 0.0216354951 -0.00407010922
  vertex 0.00661918242 0.0216807872 -0.00503293192
  endloop
 endfacet

 facet normal -0.99557358 -0.0938161016 -0.00565959513
  outer loop
  vertex 0.00801187102 0.00692367833 -0.00539856264
  vertex 0.00661918242 0.0216807872 -0.00503293192
  vertex 0.00661918242 0.021701375 -0.00537418621
  endloop
 endfacet

 facet normal -0.375270069 0.112394959 -0.920076013
  outer loop
  vertex 0.00661918242 0.0258579887 -0.00632076198
  vertex 0.00661918242 0.026722664 -0.00621513464
  vertex 0.00809507351 0.0228707436 -0.00728764851
  endloop
 endfacet

 facet normal -0.383023113 0.107710451 -0.917437553
  outer loop
  vertex 0.00661918242 0.0258579887 -0.00632076198
  vertex 0.00809507351 0.0228707436 -0.00728764851
  vertex 0.00801575836 0.0225886945 -0.00728764851
  endloop
 endfacet

 facet normal -0.40124172 0.0979414284 -0.910720944
  outer loop
  vertex 0.00661918242 0.0258579887 -0.00632076198
  vertex 0.00801575836 0.0225886945 -0.00728764851
  vertex 0.00779414177 0.0216807872 -0.00728764851
  endloop
 endfacet

 facet normal 0.987961709 0.049753733 -0.146479145
  outer loop
  vertex 0.0116308378 0.0202849563 -0.00728764851
  vertex 0.0116059547 0.0207790565 -0.00728764851
  vertex 0.0143843321 0.0244662743 0.0127041647
  endloop
 endfacet

 facet normal 0.990346909 0.00912354048 -0.138309792
  outer loop
  vertex 0.0116308378 0.0202849563 -0.00728764851
  vertex 0.0143843321 0.0244662743 0.0127041647
  vertex 0.0144099938 0.0216807872 0.0127041647
  endloop
 endfacet

 facet normal 0.990352154 0.00884033553 -0.138290733
  outer loop
  vertex 0.0116308378 0.0202849563 -0.00728764851
  vertex 0.0144099938 0.0216807872 0.0127041647
  vertex 0.0144473175 0.0174994692 0.0127041647
  endloop
 endfacet

 facet normal 0.990334153 0.00721530896 -0.138514608
  outer loop
  vertex 0.0116308378 0.0202849563 -0.00728764851
  vertex 0.0144473175 0.0174994692 0.0127041647
  vertex 0.014457427 0.0161118731 0.0127041647
  endloop
 endfacet

 facet normal 0.990296423 0.00552480714 -0.138862148
  outer loop
  vertex 0.0116308378 0.0202849563 -0.00728764851
  vertex 0.014457427 0.0161118731 0.0127041647
  vertex 0.0144652035 0.0147180995 0.0127041647
  endloop
 endfacet

 facet normal 0.990240693 0.00387279456 -0.139314264
  outer loop
  vertex 0.0116308378 0.0202849563 -0.00728764851
  vertex 0.0144652035 0.0147180995 0.0127041647
  vertex 0.0144706462 0.013326386 0.0127041647
  endloop
 endfacet

 facet normal 0.990215778 0.00331476191 -0.139504954
  outer loop
  vertex 0.0116308378 0.0202849563 -0.00728764851
  vertex 0.0144706462 0.013326386 0.0127041647
  vertex 0.0144753121 0.0119326124 0.0127041647
  endloop
 endfacet

 facet normal 0.990200937 0.00304085528 -0.139617294
  outer loop
  vertex 0.0116308378 0.0202849563 -0.00728764851
  vertex 0.0144753121 0.0119326124 0.0127041647
  vertex 0.0144838663 0.00914712623 0.0127041647
  endloop
 endfacet

 facet normal 0.999484301 -0.00334908674 -0.0319344178
  outer loop
  vertex 0.0144947516 0.00692367833 0.0128463535
  vertex 0.0145608485 0.0147180995 0.0140976198
  vertex 0.0145468516 0.0105408989 0.0140976198
  endloop
 endfacet

 facet normal 0.999532163 -0.00390335824 -0.0303340927
  outer loop
  vertex 0.0144947516 0.00692367833 0.0128463535
  vertex 0.0145468516 0.0105408989 0.0140976198
  vertex 0.014541408 0.00914712623 0.0140976198
  endloop
 endfacet

 facet normal 0.999546885 -0.00419878028 -0.0298096929
  outer loop
  vertex 0.0144947516 0.00692367833 0.0128463535
  vertex 0.014541408 0.00914712623 0.0140976198
  vertex 0.0145320771 0.00692573749 0.0140976198
  endloop
 endfacet

 facet normal 0.0126878982 -0.999918699 0.00126681826
  outer loop
  vertex 0.0144947516 0.00692367833 0.0128463535
  vertex 0.0145320771 0.00692573749 0.0140976198
  vertex 0.013697709 0.00692573749 0.022454286
  endloop
 endfacet

 facet normal 0.0125758154 -0.99992007 0.00125752052
  outer loop
  vertex 0.0144947516 0.00692367833 0.0128463535
  vertex 0.013697709 0.00692573749 0.022454286
  vertex 0.0129185496 0.00692573749 0.0302462596
  endloop
 endfacet

 facet normal 0.0124973822 -0.999921083 0.00125041569
  outer loop
  vertex 0.0144947516 0.00692367833 0.0128463535
  vertex 0.0129185496 0.00692573749 0.0302462596
  vertex 0.0127754705 0.00692573749 0.0316762775
  endloop
 endfacet

 facet normal 0.00351503212 -0.999993682 0.000430282787
  outer loop
  vertex 0.0144947516 0.00692367833 0.0128463535
  vertex 0.0127754705 0.00692573749 0.0316762775
  vertex 0.0126899332 0.00692573749 0.0323750377
  endloop
 endfacet

 facet normal 0.000175379668 -1 0.000121636622
  outer loop
  vertex 0.0144947516 0.00692367833 0.0128463535
  vertex 0.0126899332 0.00692573749 0.0323750377
  vertex 0.0119939791 0.00692573749 0.0333784856
  endloop
 endfacet

 facet normal 3.79739358e-05 -1 0.000104900879
  outer loop
  vertex 0.0144947516 0.00692367833 0.0128463535
  vertex 0.0119939791 0.00692573749 0.0333784856
  vertex 0.0106697204 0.00692573749 0.0338578671
  endloop
 endfacet

 facet normal 0 -1 9.7987926e-05
  outer loop
  vertex 0.0144947516 0.00692367833 0.0128463535
  vertex 0.0106697204 0.00692573749 0.0338578671
  vertex 0.00920004863 0.00692573749 0.0338578671
  endloop
 endfacet

 facet normal 0 -1 9.7987926e-05
  outer loop
  vertex 0.0144947516 0.00692367833 0.0128463535
  vertex 0.00920004863 0.00692573749 0.0338578671
  vertex 0.010886671 0.00692367833 0.0128463535
  endloop
 endfacet

 facet normal 0.996892691 0.00306140515 -0.0787120387
  outer loop
  vertex 0.0144838663 0.00914712623 0.0127041647
  vertex 0.0144753121 0.0119326124 0.0127041647
  vertex 0.0145468516 0.0244642161 0.0140976198
  endloop
 endfacet

 facet normal 0.990915418 0.11790204 0.0646975413
  outer loop
  vertex 0.0145468516 0.0244642161 0.0140976198
  vertex 0.0143571161 0.0259897485 0.0142235588
  vertex 0.0144558717 0.0244642161 0.015491074
  endloop
 endfacet

 facet normal 0.997871578 0.00278802402 0.0651517212
  outer loop
  vertex 0.0145468516 0.0244642161 0.0140976198
  vertex 0.0144558717 0.0244642161 0.015491074
  vertex 0.0145507399 0.0230725016 0.0140976198
  endloop
 endfacet

 facet normal 0.996694267 0.00333644869 -0.081175372
  outer loop
  vertex 0.0145468516 0.0244642161 0.0140976198
  vertex 0.0144753121 0.0119326124 0.0127041647
  vertex 0.0144706462 0.013326386 0.0127041647
  endloop
 endfacet

 facet normal 0.996319354 0.00389656774 -0.0856318772
  outer loop
  vertex 0.0145468516 0.0244642161 0.0140976198
  vertex 0.0144706462 0.013326386 0.0127041647
  vertex 0.0144652035 0.0147180995 0.0127041647
  endloop
 endfacet

 facet normal 0.995254159 0.00555246556 -0.0971511528
  outer loop
  vertex 0.0145468516 0.0244642161 0.0140976198
  vertex 0.0144652035 0.0147180995 0.0127041647
  vertex 0.014457427 0.0161118731 0.0127041647
  endloop
 endfacet

 facet normal 0.994208932 0.00724353967 -0.107220344
  outer loop
  vertex 0.0145468516 0.0244642161 0.0140976198
  vertex 0.014457427 0.0161118731 0.0127041647
  vertex 0.0144473175 0.0174994692 0.0127041647
  endloop
 endfacet

 facet normal 0.993295014 0.00886660535 -0.115267448
  outer loop
  vertex 0.0145468516 0.0244642161 0.0140976198
  vertex 0.0144473175 0.0174994692 0.0127041647
  vertex 0.0144099938 0.0216807872 0.0127041647
  endloop
 endfacet

 facet normal 0.993227363 0.00915007666 -0.115827046
  outer loop
  vertex 0.0145468516 0.0244642161 0.0140976198
  vertex 0.0144099938 0.0216807872 0.0127041647
  vertex 0.0143843321 0.0244662743 0.0127041647
  endloop
 endfacet

 facet normal 0.991376758 0.0618399978 -0.115533352
  outer loop
  vertex 0.0145468516 0.0244642161 0.0140976198
  vertex 0.0143843321 0.0244662743 0.0127041647
  vertex 0.0143283447 0.0256294683 0.0128463535
  endloop
 endfacet

 facet normal 0.991496861 0.108051948 -0.0725190192
  outer loop
  vertex 0.0145468516 0.0244642161 0.0140976198
  vertex 0.0143283447 0.0256294683 0.0128463535
  vertex 0.0142599158 0.0262573846 0.0128463535
  endloop
 endfacet

 facet normal 0.991495252 0.108373694 -0.0720575675
  outer loop
  vertex 0.0145468516 0.0244642161 0.0140976198
  vertex 0.0142599158 0.0262573846 0.0128463535
  vertex 0.0142319221 0.0266485494 0.0130494814
  endloop
 endfacet

 facet normal 0.991392374 0.126184314 -0.0349091068
  outer loop
  vertex 0.0145468516 0.0244642161 0.0140976198
  vertex 0.0142319221 0.0266485494 0.0130494814
  vertex 0.0143571161 0.0259897485 0.0142235588
  endloop
 endfacet

 facet normal 0.997836351 0.00222824607 0.0657083988
  outer loop
  vertex 0.0145507399 0.0230725016 0.0140976198
  vertex 0.0144558717 0.0244642161 0.015491074
  vertex 0.0145569602 0.0202870145 0.0140976198
  endloop
 endfacet

 facet normal 0.997781932 0.00194970181 0.0665394515
  outer loop
  vertex 0.0145569602 0.0202870145 0.0140976198
  vertex 0.0144558717 0.0244642161 0.015491074
  vertex 0.0145624029 0.0175015274 0.0140976198
  endloop
 endfacet

 facet normal 0.997298479 0.000558557105 0.073453635
  outer loop
  vertex 0.0145624029 0.0175015274 0.0140976198
  vertex 0.0144558717 0.0244642161 0.015491074
  vertex 0.0145631814 0.0161118731 0.0140976198
  endloop
 endfacet

 facet normal 0.996786773 -0.000556701329 0.0800990611
  outer loop
  vertex 0.0145631814 0.0161118731 0.0140976198
  vertex 0.0144558717 0.0244642161 0.015491074
  vertex 0.0144550949 0.0230725016 0.015491074
  endloop
 endfacet

 facet normal 0.996327221 -0.0016676099 0.0856126621
  outer loop
  vertex 0.0145631814 0.0161118731 0.0140976198
  vertex 0.0144550949 0.0230725016 0.015491074
  vertex 0.0145608485 0.0147180995 0.0140976198
  endloop
 endfacet

 facet normal 0.995419681 -0.00333546661 0.0955433547
  outer loop
  vertex 0.0145608485 0.0147180995 0.0140976198
  vertex 0.0144550949 0.0230725016 0.015491074
  vertex 0.0145468516 0.0105408989 0.0140976198
  endloop
 endfacet

 facet normal -0.995498121 -0.0945836827 0.00612824317
  outer loop
  vertex 0.00801187102 0.00692367833 -0.0048338687
  vertex 0.00802042335 0.00692367833 -0.00344447489
  vertex 0.00661918242 0.0216354951 -0.0040051071
  endloop
 endfacet

 facet normal -0.334812343 0.131512493 -0.933062255
  outer loop
  vertex 0.00661918242 0.026722664 -0.00621513464
  vertex 0.00661918242 0.0268091299 -0.00620294735
  vertex 0.00809507351 0.0228707436 -0.00728764851
  endloop
 endfacet

 facet normal -0.0950469822 0.231064305 -0.968284786
  outer loop
  vertex 0.00809507351 0.0228707436 -0.00728764851
  vertex 0.00661918242 0.0268091299 -0.00620294735
  vertex 0.00837034639 0.0229839757 -0.00728764851
  endloop
 endfacet

 facet normal 0.987307906 0.0578951351 -0.147889823
  outer loop
  vertex 0.0116059547 0.0207790565 -0.00728764851
  vertex 0.011553078 0.0216807872 -0.00728764851
  vertex 0.0143843321 0.0244662743 0.0127041647
  endloop
 endfacet

 facet normal 0.987140298 0.0600180775 -0.148161888
  outer loop
  vertex 0.0143843321 0.0244662743 0.0127041647
  vertex 0.011553078 0.0216807872 -0.00728764851
  vertex 0.0142902425 0.0258332845 0.0126310382
  endloop
 endfacet

 facet normal 0.991226792 0.0619802363 -0.116739608
  outer loop
  vertex 0.0143843321 0.0244662743 0.0127041647
  vertex 0.0142902425 0.0258332845 0.0126310382
  vertex 0.0143283447 0.0256294683 0.0128463535
  endloop
 endfacet

 facet normal -0.000291512173 -0.99999994 7.45878642e-05
  outer loop
  vertex 0.010886671 0.00692367833 0.0128463535
  vertex 0.00920004863 0.00692573749 0.0338578671
  vertex 0.00835557096 0.00692367833 0.00295404205
  endloop
 endfacet

 facet normal 0.995055735 -0.00375010399 0.099248305
  outer loop
  vertex 0.0145468516 0.0105408989 0.0140976198
  vertex 0.0144550949 0.0230725016 0.015491074
  vertex 0.0144340992 0.0175015274 0.015491074
  endloop
 endfacet

 facet normal 0.995045543 -0.00377036631 0.0993486941
  outer loop
  vertex 0.0145468516 0.0105408989 0.0140976198
  vertex 0.0144340992 0.0175015274 0.015491074
  vertex 0.0141992625 0.0230725016 0.0180545431
  endloop
 endfacet

 facet normal 0.995040894 -0.00378489308 0.0993942842
  outer loop
  vertex 0.0145468516 0.0105408989 0.0140976198
  vertex 0.0141992625 0.0230725016 0.0180545431
  vertex 0.0138936639 0.021678729 0.0210608318
  endloop
 endfacet

 facet normal 0.995037496 -0.00380653632 0.0994285867
  outer loop
  vertex 0.0145468516 0.0105408989 0.0140976198
  vertex 0.0138936639 0.021678729 0.0210608318
  vertex 0.0137171475 0.0119346716 0.022454286
  endloop
 endfacet

 facet normal 0.995036721 -0.00384429051 0.0994348079
  outer loop
  vertex 0.0145468516 0.0105408989 0.0140976198
  vertex 0.0137171475 0.0119346716 0.022454286
  vertex 0.0144022172 0.00914712623 0.015491074
  endloop
 endfacet

 facet normal 0.995040715 -0.00388581841 0.0993936881
  outer loop
  vertex 0.0145468516 0.0105408989 0.0140976198
  vertex 0.0144022172 0.00914712623 0.015491074
  vertex 0.014541408 0.00914712623 0.0140976198
  endloop
 endfacet

 facet normal 0.995040119 -0.00401346665 0.0993936285
  outer loop
  vertex 0.014541408 0.00914712623 0.0140976198
  vertex 0.0144022172 0.00914712623 0.015491074
  vertex 0.013697709 0.00692573749 0.022454286
  endloop
 endfacet

 facet normal 0.995043755 -0.00417986372 0.0993497595
  outer loop
  vertex 0.014541408 0.00914712623 0.0140976198
  vertex 0.013697709 0.00692573749 0.022454286
  vertex 0.0145320771 0.00692573749 0.0140976198
  endloop
 endfacet

 facet normal 0.995035887 -0.00386158633 0.0994416624
  outer loop
  vertex 0.013697709 0.00692573749 0.022454286
  vertex 0.0144022172 0.00914712623 0.015491074
  vertex 0.0137171475 0.0119346716 0.022454286
  endloop
 endfacet

 facet normal 0.995033205 -0.00386157585 0.0994680896
  outer loop
  vertex 0.013697709 0.00692573749 0.022454286
  vertex 0.0137171475 0.0119346716 0.022454286
  vertex 0.0127770258 0.00775541272 0.0316965878
  endloop
 endfacet

 facet normal 0.995028913 -0.00420029415 0.0994980633
  outer loop
  vertex 0.013697709 0.00692573749 0.022454286
  vertex 0.0127770258 0.00775541272 0.0316965878
  vertex 0.0129185496 0.00692573749 0.0302462596
  endloop
 endfacet

 facet normal 0.995022655 -0.00430298876 0.0995562002
  outer loop
  vertex 0.0129185496 0.00692573749 0.0302462596
  vertex 0.0127770258 0.00775541272 0.0316965878
  vertex 0.0127754705 0.00692573749 0.0316762775
  endloop
 endfacet

 facet normal 0.99421829 -0.00449068798 0.107284419
  outer loop
  vertex 0.0127754705 0.00692573749 0.0316762775
  vertex 0.0127770258 0.00775541272 0.0316965878
  vertex 0.0127194831 0.0147180995 0.0325212888
  endloop
 endfacet

 facet normal 0.993337691 -0.00534636853 0.115116827
  outer loop
  vertex 0.0127754705 0.00692573749 0.0316762775
  vertex 0.0127194831 0.0147180995 0.0325212888
  vertex 0.0127101513 0.0119346716 0.032472536
  endloop
 endfacet

 facet normal 0.993062615 -0.00572049106 0.117447704
  outer loop
  vertex 0.0127754705 0.00692573749 0.0316762775
  vertex 0.0127101513 0.0119346716 0.032472536
  vertex 0.0127054863 0.0105408989 0.0324441008
  endloop
 endfacet

 facet normal 0.992718518 -0.00633114902 0.120291539
  outer loop
  vertex 0.0127754705 0.00692573749 0.0316762775
  vertex 0.0127054863 0.0105408989 0.0324441008
  vertex 0.0127000427 0.00914712623 0.032415662
  endloop
 endfacet

 facet normal 0.992635906 -0.00655593118 0.12095844
  outer loop
  vertex 0.0127754705 0.00692573749 0.0316762775
  vertex 0.0127000427 0.00914712623 0.032415662
  vertex 0.0126938215 0.00775541272 0.0323912837
  endloop
 endfacet

 facet normal 0.992566228 -0.00703140162 0.121502191
  outer loop
  vertex 0.0127754705 0.00692573749 0.0316762775
  vertex 0.0126938215 0.00775541272 0.0323912837
  vertex 0.0126899332 0.00692573749 0.0323750377
  endloop
 endfacet

 facet normal 0.821617126 -0.0150108105 0.56984216
  outer loop
  vertex 0.0126899332 0.00692573749 0.0323750377
  vertex 0.0126938215 0.00775541272 0.0323912837
  vertex 0.0119939791 0.00692573749 0.0333784856
  endloop
 endfacet

 facet normal 0.432958215 -0.0192896742 0.901207566
  outer loop
  vertex 0.0119939791 0.00692573749 0.0333784856
  vertex 0.0120141963 0.0119346716 0.0334759876
  vertex 0.0106697204 0.0161118731 0.0342113078
  endloop
 endfacet

 facet normal 0.343517214 -0.0355618559 0.938472867
  outer loop
  vertex 0.0119939791 0.00692573749 0.0333784856
  vertex 0.0106697204 0.0161118731 0.0342113078
  vertex 0.0106697204 0.0147180995 0.0341584943
  endloop
 endfacet

 facet normal 0.343385905 -0.0355888829 0.938519895
  outer loop
  vertex 0.0119939791 0.00692573749 0.0333784856
  vertex 0.0106697204 0.0147180995 0.0341584943
  vertex 0.0106697204 0.00914712623 0.0339472406
  endloop
 endfacet

 facet normal 0.340139002 -0.0378048792 0.939614952
  outer loop
  vertex 0.0119939791 0.00692573749 0.0333784856
  vertex 0.0106697204 0.00914712623 0.0339472406
  vertex 0.0106697204 0.00692573749 0.0338578671
  endloop
 endfacet

 facet normal 0.821390986 -0.0144140413 0.570183396
  outer loop
  vertex 0.0119939791 0.00692573749 0.0333784856
  vertex 0.0126938215 0.00775541272 0.0323912837
  vertex 0.0120141963 0.0119346716 0.0334759876
  endloop
 endfacet

 facet normal 0.001542037 -0.0402018614 0.999190331
  outer loop
  vertex 0.0106697204 0.00692573749 0.0338578671
  vertex 0.0106697204 0.00914712623 0.0339472406
  vertex 0.00920004863 0.00767717976 0.0338903666
  endloop
 endfacet

 facet normal 0 -0.0432123914 0.999065876
  outer loop
  vertex 0.0106697204 0.00692573749 0.0338578671
  vertex 0.00920004863 0.00767717976 0.0338903666
  vertex 0.00920004863 0.00692573749 0.0338578671
  endloop
 endfacet

 facet normal 0.982418478 0.186692044 0
  outer loop
  vertex 0.0143571161 0.0259897485 0.0142235588
  vertex 0.0142319221 0.0266485494 0.0130494814
  vertex 0.0142319221 0.0266485494 0.0138416784
  endloop
 endfacet

 facet normal 0.960679293 0.251169413 0.118360132
  outer loop
  vertex 0.0143571161 0.0259897485 0.0142235588
  vertex 0.0142319221 0.0266485494 0.0138416784
  vertex 0.014302684 0.0256006438 0.015491074
  endloop
 endfacet

 facet normal 0.987594247 0.133125454 0.0832786113
  outer loop
  vertex 0.0143571161 0.0259897485 0.0142235588
  vertex 0.014302684 0.0256006438 0.015491074
  vertex 0.0144558717 0.0244642161 0.015491074
  endloop
 endfacet

 facet normal 0.984002292 0.132641286 0.118936293
  outer loop
  vertex 0.0144558717 0.0244642161 0.015491074
  vertex 0.014302684 0.0256006438 0.015491074
  vertex 0.0142249241 0.0252959505 0.0164742116
  endloop
 endfacet

 facet normal 0.984296441 0.11409425 0.1346962
  outer loop
  vertex 0.0144558717 0.0244642161 0.015491074
  vertex 0.0142249241 0.0252959505 0.0164742116
  vertex 0.0141837113 0.0239680558 0.017900167
  endloop
 endfacet

 facet normal 0.990940511 0.0538398139 0.123037219
  outer loop
  vertex 0.0144558717 0.0244642161 0.015491074
  vertex 0.0141837113 0.0239680558 0.017900167
  vertex 0.0141269462 0.0230725016 0.0187492408
  endloop
 endfacet

 facet normal 0.994598806 0.00732139545 0.10353636
  outer loop
  vertex 0.0144558717 0.0244642161 0.015491074
  vertex 0.0141269462 0.0230725016 0.0187492408
  vertex 0.0141992625 0.0230725016 0.0180545431
  endloop
 endfacet

 facet normal 0.995056808 -0.000555735198 0.0993057042
  outer loop
  vertex 0.0144558717 0.0244642161 0.015491074
  vertex 0.0141992625 0.0230725016 0.0180545431
  vertex 0.0144550949 0.0230725016 0.015491074
  endloop
 endfacet

 facet normal 0.991449296 0.10804677 -0.0731726587
  outer loop
  vertex 0.0143283447 0.0256294683 0.0128463535
  vertex 0.0142902425 0.0258332845 0.0126310382
  vertex 0.0142599158 0.0262573846 0.0128463535
  endloop
 endfacet

 facet normal 0.974053979 0.153898105 -0.165935025
  outer loop
  vertex 0.0142599158 0.0262573846 0.0128463535
  vertex 0.0142902425 0.0258332845 0.0126310382
  vertex 0.011553078 0.0216807872 -0.00728764851
  endloop
 endfacet

 facet normal 0.97363323 0.156072393 -0.166372672
  outer loop
  vertex 0.0142599158 0.0262573846 0.0128463535
  vertex 0.011553078 0.0216807872 -0.00728764851
  vertex 0.0142319221 0.0266485494 0.0130494814
  endloop
 endfacet

 facet normal 0.363587499 0.93156004 0
  outer loop
  vertex 0.0142319221 0.0266485494 0.0130494814
  vertex 0.0139154373 0.0267720725 0.0128463535
  vertex 0.0142319221 0.0266485494 0.0138416784
  endloop
 endfacet

 facet normal 0.97249788 0.161729351 -0.167604953
  outer loop
  vertex 0.0142319221 0.0266485494 0.0130494814
  vertex 0.011553078 0.0216807872 -0.00728764851
  vertex 0.0115071991 0.0219566599 -0.00728764851
  endloop
 endfacet

 facet normal 0.970901847 0.169491023 -0.169181764
  outer loop
  vertex 0.0142319221 0.0266485494 0.0130494814
  vertex 0.0115071991 0.0219566599 -0.00728764851
  vertex 0.0114216628 0.0224466436 -0.00728764851
  endloop
 endfacet

 facet normal 0.873636425 0.438313663 -0.211283386
  outer loop
  vertex 0.0142319221 0.0266485494 0.0130494814
  vertex 0.0114216628 0.0224466436 -0.00728764851
  vertex 0.0128555642 0.0266835447 0.007430973
  endloop
 endfacet

 facet normal 0.714741111 0.678196549 -0.170864806
  outer loop
  vertex 0.0142319221 0.0266485494 0.0130494814
  vertex 0.0128555642 0.0266835447 0.007430973
  vertex 0.0115997335 0.0268791281 0.00295404205
  endloop
 endfacet

 facet normal 0.686922133 0.708232462 -0.162925556
  outer loop
  vertex 0.0142319221 0.0266485494 0.0130494814
  vertex 0.0115997335 0.0268791281 0.00295404205
  vertex 0.0129854232 0.0268173646 0.00852786191
  endloop
 endfacet

 facet normal 0.645185053 0.749178827 -0.149890915
  outer loop
  vertex 0.0142319221 0.0266485494 0.0130494814
  vertex 0.0129854232 0.0268173646 0.00852786191
  vertex 0.00859040674 0.027951736 -0.00472011557
  endloop
 endfacet

 facet normal 0.411547601 0.909139514 -0.0639842004
  outer loop
  vertex 0.0142319221 0.0266485494 0.0130494814
  vertex 0.00859040674 0.027951736 -0.00472011557
  vertex 0.013311239 0.0269429497 0.0113107096
  endloop
 endfacet

 facet normal 0.3918657 0.918553531 -0.0519686788
  outer loop
  vertex 0.0142319221 0.0266485494 0.0130494814
  vertex 0.013311239 0.0269429497 0.0113107096
  vertex 0.0139154373 0.0267720725 0.0128463535
  endloop
 endfacet

 facet normal 0.995049953 -0.00375008211 0.0993050188
  outer loop
  vertex 0.0144550949 0.0230725016 0.015491074
  vertex 0.0141992625 0.0230725016 0.0180545431
  vertex 0.0144340992 0.0175015274 0.015491074
  endloop
 endfacet

 facet normal -0.995492578 -0.0945202932 0.00777731184
  outer loop
  vertex 0.00802042335 0.00692367833 -0.00344447489
  vertex 0.00804219674 0.00692367833 -0.000657565193
  vertex 0.00661918242 0.0216354951 -0.0040051071
  endloop
 endfacet

 facet normal -0.99553436 -0.0937199667 0.011312414
  outer loop
  vertex 0.00661918242 0.0216354951 -0.0040051071
  vertex 0.00804219674 0.00692367833 -0.000657565193
  vertex 0.00661918242 0.0236695409 0.0128463535
  endloop
 endfacet

 facet normal 0.000464543467 0.285458207 -0.95839107
  outer loop
  vertex 0.00661918242 0.0268091299 -0.00620294735
  vertex 0.00788434409 0.0268070716 -0.00620294735
  vertex 0.00925759133 0.0231630858 -0.00728764851
  endloop
 endfacet

 facet normal -0.0506558865 0.250931203 -0.966678619
  outer loop
  vertex 0.00661918242 0.0268091299 -0.00620294735
  vertex 0.00925759133 0.0231630858 -0.00728764851
  vertex 0.00837034639 0.0229839757 -0.00728764851
  endloop
 endfacet

 facet normal 0.00121314125 0.745465517 -0.666543126
  outer loop
  vertex 0.00661918242 0.0268091299 -0.00620294735
  vertex 0.00661918242 0.0275029279 -0.00542700104
  vertex 0.00788434409 0.0268070716 -0.00620294735
  endloop
 endfacet

 facet normal -0.000458755443 -0.99999994 7.91579441e-05
  outer loop
  vertex 0.00835557096 0.00692367833 0.00295404205
  vertex 0.00920004863 0.00692573749 0.0338578671
  vertex 0.00821326952 0.00692367833 0.0021293445
  endloop
 endfacet

 facet normal -0.993011415 -0.00509987818 0.117908634
  outer loop
  vertex 0.00920004863 0.00692573749 0.0338578671
  vertex 0.00920004863 0.00767717976 0.0338903666
  vertex 0.00661918242 0.0236695409 0.0128463535
  endloop
 endfacet

 facet normal -0.993285418 -0.110626981 0.0338491127
  outer loop
  vertex 0.00920004863 0.00692573749 0.0338578671
  vertex 0.00661918242 0.0236695409 0.0128463535
  vertex 0.00805230625 0.00692367833 0.000171195061
  endloop
 endfacet

 facet normal -0.0136239026 -0.999907017 0.000525294279
  outer loop
  vertex 0.00920004863 0.00692573749 0.0338578671
  vertex 0.00805230625 0.00692367833 0.000171195061
  vertex 0.00807407871 0.00692367833 0.000735889131
  endloop
 endfacet

 facet normal -0.00318993721 -0.999994934 0.000170600833
  outer loop
  vertex 0.00920004863 0.00692573749 0.0338578671
  vertex 0.00807407871 0.00692367833 0.000735889131
  vertex 0.00811840221 0.00692367833 0.0015646494
  endloop
 endfacet

 facet normal -0.000474004977 -0.99999994 7.96322201e-05
  outer loop
  vertex 0.00920004863 0.00692573749 0.0338578671
  vertex 0.00811840221 0.00692367833 0.0015646494
  vertex 0.00821326952 0.00692367833 0.0021293445
  endloop
 endfacet

 facet normal 0.994610727 0.00543790683 0.103537612
  outer loop
  vertex 0.0141992625 0.0230725016 0.0180545431
  vertex 0.0141269462 0.0230725016 0.0187492408
  vertex 0.0129022198 0.0175015274 0.0308068916
  endloop
 endfacet

 facet normal 0.994771481 0.00211903546 0.102104083
  outer loop
  vertex 0.0141992625 0.0230725016 0.0180545431
  vertex 0.0129022198 0.0175015274 0.0308068916
  vertex 0.0138936639 0.021678729 0.0210608318
  endloop
 endfacet

 facet normal 0.995031774 -0.00379822333 0.0994859934
  outer loop
  vertex 0.0138936639 0.021678729 0.0210608318
  vertex 0.0137490304 0.0202870145 0.022454286
  vertex 0.0137171475 0.0119346716 0.022454286
  endloop
 endfacet

 facet normal 0.99498862 -0.00297183683 0.0999441966
  outer loop
  vertex 0.0138936639 0.021678729 0.0210608318
  vertex 0.0129022198 0.0175015274 0.0308068916
  vertex 0.0130421892 0.0175015274 0.0294134356
  endloop
 endfacet

 facet normal 0.995012879 -0.00349399447 0.0996855274
  outer loop
  vertex 0.0138936639 0.021678729 0.0210608318
  vertex 0.0130421892 0.0175015274 0.0294134356
  vertex 0.012790245 0.0147180995 0.0318306535
  endloop
 endfacet

 facet normal 0.995030403 -0.00378445163 0.0994996056
  outer loop
  vertex 0.0138936639 0.021678729 0.0210608318
  vertex 0.012790245 0.0147180995 0.0318306535
  vertex 0.0137490304 0.0202870145 0.022454286
  endloop
 endfacet

 facet normal 0.995031118 -0.00379822031 0.0994914994
  outer loop
  vertex 0.0137171475 0.0119346716 0.022454286
  vertex 0.0137490304 0.0202870145 0.022454286
  vertex 0.012790245 0.0147180995 0.0318306535
  endloop
 endfacet

 facet normal 0.99503088 -0.0038049256 0.0994934663
  outer loop
  vertex 0.0137171475 0.0119346716 0.022454286
  vertex 0.012790245 0.0147180995 0.0318306535
  vertex 0.0127770258 0.00775541272 0.0316965878
  endloop
 endfacet

 facet normal 0.994875669 -0.00383426528 0.101032563
  outer loop
  vertex 0.0127770258 0.00775541272 0.0316965878
  vertex 0.012790245 0.0147180995 0.0318306535
  vertex 0.0127225928 0.0161118731 0.032549724
  endloop
 endfacet

 facet normal 0.994308829 -0.00439062621 0.106445938
  outer loop
  vertex 0.0127770258 0.00775541272 0.0316965878
  vertex 0.0127225928 0.0161118731 0.032549724
  vertex 0.0127194831 0.0147180995 0.0325212888
  endloop
 endfacet

 facet normal 0.932233334 -0.00946094189 0.361733943
  outer loop
  vertex 0.0127194831 0.0147180995 0.0325212888
  vertex 0.0127225928 0.0161118731 0.032549724
  vertex 0.0127101513 0.0119346716 0.032472536
  endloop
 endfacet

 facet normal 0.821640134 -0.0129774231 0.569858909
  outer loop
  vertex 0.0127101513 0.0119346716 0.032472536
  vertex 0.0127225928 0.0161118731 0.032549724
  vertex 0.0120266378 0.0161118731 0.0335531756
  endloop
 endfacet

 facet normal 0.821640134 -0.0129774231 0.569858909
  outer loop
  vertex 0.0127101513 0.0119346716 0.032472536
  vertex 0.0120266378 0.0161118731 0.0335531756
  vertex 0.0120141963 0.0119346716 0.0334759876
  endloop
 endfacet

 facet normal 0.821625412 -0.0142890662 0.569848716
  outer loop
  vertex 0.0127101513 0.0119346716 0.032472536
  vertex 0.0120141963 0.0119346716 0.0334759876
  vertex 0.0126938215 0.00775541272 0.0323912837
  endloop
 endfacet

 facet normal 0.863953114 -0.0131625999 0.503400147
  outer loop
  vertex 0.0127101513 0.0119346716 0.032472536
  vertex 0.0126938215 0.00775541272 0.0323912837
  vertex 0.0127054863 0.0105408989 0.0324441008
  endloop
 endfacet

 facet normal 0.981368244 -0.00774953421 0.191979811
  outer loop
  vertex 0.0127054863 0.0105408989 0.0324441008
  vertex 0.0126938215 0.00775541272 0.0323912837
  vertex 0.0127000427 0.00914712623 0.032415662
  endloop
 endfacet

 facet normal 0.436329454 -0.017923139 0.899608493
  outer loop
  vertex 0.0120141963 0.0119346716 0.0334759876
  vertex 0.0120266378 0.0161118731 0.0335531756
  vertex 0.0106697204 0.0161118731 0.0342113078
  endloop
 endfacet

 facet normal 0.435813278 0.0518177301 0.898544252
  outer loop
  vertex 0.0106697204 0.0161118731 0.0342113078
  vertex 0.0120266378 0.0161118731 0.0335531756
  vertex 0.0119535429 0.0175015274 0.033508487
  endloop
 endfacet

 facet normal 0.430412412 0.0579335205 0.90077126
  outer loop
  vertex 0.0106697204 0.0161118731 0.0342113078
  vertex 0.0119535429 0.0175015274 0.033508487
  vertex 0.0106697204 0.0175015274 0.0341219343
  endloop
 endfacet

 facet normal 0.00291042752 0.064182587 0.997933865
  outer loop
  vertex 0.0106697204 0.0161118731 0.0342113078
  vertex 0.0106697204 0.0175015274 0.0341219343
  vertex 0.00927703176 0.0161118731 0.0342153721
  endloop
 endfacet

 facet normal 0.00291434908 -0.0378659889 0.999278545
  outer loop
  vertex 0.0106697204 0.0161118731 0.0342113078
  vertex 0.00927703176 0.0161118731 0.0342153721
  vertex 0.0106697204 0.0147180995 0.0341584943
  endloop
 endfacet

 facet normal 0.00288745435 -0.0378928296 0.999277711
  outer loop
  vertex 0.0106697204 0.0147180995 0.0341584943
  vertex 0.00927703176 0.0161118731 0.0342153721
  vertex 0.0106697204 0.00914712623 0.0339472406
  endloop
 endfacet

 facet normal 0 -0.0384695232 0.99925983
  outer loop
  vertex 0.0106697204 0.00914712623 0.0339472406
  vertex 0.00927703176 0.0161118731 0.0342153721
  vertex 0.00920004863 0.0161118731 0.0342153721
  endloop
 endfacet

 facet normal -0.000159623669 -0.0385031551 0.999258459
  outer loop
  vertex 0.0106697204 0.00914712623 0.0339472406
  vertex 0.00920004863 0.0161118731 0.0342153721
  vertex 0.00920004863 0.00767717976 0.0338903666
  endloop
 endfacet

 facet normal -0.992965817 -0.00455885008 0.118314192
  outer loop
  vertex 0.00920004863 0.00767717976 0.0338903666
  vertex 0.00920004863 0.0161118731 0.0342153721
  vertex 0.00661918242 0.0236695409 0.0128463535
  endloop
 endfacet

 facet normal 0.330159962 0.933107793 0.142493159
  outer loop
  vertex 0.0142319221 0.0266485494 0.0138416784
  vertex 0.0135841779 0.0268194228 0.0142235588
  vertex 0.0141347218 0.0265414938 0.0147679402
  endloop
 endfacet

 facet normal 0.95350498 0.271220386 0.131406814
  outer loop
  vertex 0.0142319221 0.0266485494 0.0138416784
  vertex 0.0141347218 0.0265414938 0.0147679402
  vertex 0.014302684 0.0256006438 0.015491074
  endloop
 endfacet

 facet normal 0.362624913 0.931935072 0.000352616742
  outer loop
  vertex 0.0142319221 0.0266485494 0.0138416784
  vertex 0.0139154373 0.0267720725 0.0128463535
  vertex 0.0135717364 0.0269058924 0.0126310382
  endloop
 endfacet

 facet normal 0.282111943 0.958087146 0.0498169884
  outer loop
  vertex 0.0142319221 0.0266485494 0.0138416784
  vertex 0.0135717364 0.0269058924 0.0126310382
  vertex 0.0135841779 0.0268194228 0.0142235588
  endloop
 endfacet

 facet normal 0.940795422 0.295543849 0.166005462
  outer loop
  vertex 0.014302684 0.0256006438 0.015491074
  vertex 0.0141347218 0.0265414938 0.0147679402
  vertex 0.0142249241 0.0252959505 0.0164742116
  endloop
 endfacet

 facet normal 0.843353689 0.45427829 0.287029535
  outer loop
  vertex 0.0142249241 0.0252959505 0.0164742116
  vertex 0.0141347218 0.0265414938 0.0147679402
  vertex 0.0127163725 0.0195129253 0.0300593823
  endloop
 endfacet

 facet normal 0.895220757 0.365464061 0.254982054
  outer loop
  vertex 0.0142249241 0.0252959505 0.0164742116
  vertex 0.0127163725 0.0195129253 0.0300593823
  vertex 0.012783247 0.0182550307 0.0316275246
  endloop
 endfacet

 facet normal 0.9777143 0.138798326 0.15751116
  outer loop
  vertex 0.0142249241 0.0252959505 0.0164742116
  vertex 0.012783247 0.0182550307 0.0316275246
  vertex 0.0141837113 0.0239680558 0.017900167
  endloop
 endfacet

 facet normal 0.990807414 0.0545613281 0.123789333
  outer loop
  vertex 0.0141837113 0.0239680558 0.017900167
  vertex 0.012783247 0.0182550307 0.0316275246
  vertex 0.0141269462 0.0230725016 0.0187492408
  endloop
 endfacet

 facet normal 0.992240429 0.0389166549 0.118086539
  outer loop
  vertex 0.0141269462 0.0230725016 0.0187492408
  vertex 0.012783247 0.0182550307 0.0316275246
  vertex 0.0127949109 0.0175015274 0.0317778401
  endloop
 endfacet

 facet normal 0.993764102 0.0192429628 0.109829932
  outer loop
  vertex 0.0141269462 0.0230725016 0.0187492408
  vertex 0.0127949109 0.0175015274 0.0317778401
  vertex 0.0129022198 0.0175015274 0.0308068916
  endloop
 endfacet

 facet normal 0.39000088 0.919393182 -0.0511415415
  outer loop
  vertex 0.0139154373 0.0267720725 0.0128463535
  vertex 0.013311239 0.0269429497 0.0113107096
  vertex 0.0135717364 0.0269058924 0.0126310382
  endloop
 endfacet

 facet normal 0.176622272 0.354086936 -0.918382823
  outer loop
  vertex 0.0114216628 0.0224466436 -0.00728764851
  vertex 0.0109387701 0.0226875152 -0.00728764851
  vertex 0.00870471541 0.0267206058 -0.00616232213
  endloop
 endfacet

 facet normal 0.682583749 0.558133066 -0.471769989
  outer loop
  vertex 0.0114216628 0.0224466436 -0.00728764851
  vertex 0.00870471541 0.0267206058 -0.00616232213
  vertex 0.00892011169 0.0272126459 -0.00526856072
  endloop
 endfacet

 facet normal 0.751384139 0.549289346 -0.365654409
  outer loop
  vertex 0.0114216628 0.0224466436 -0.00728764851
  vertex 0.00892011169 0.0272126459 -0.00526856072
  vertex 0.0100600785 0.0267350152 -0.0036435402
  endloop
 endfacet

 facet normal 0.861763239 0.458363146 -0.217410728
  outer loop
  vertex 0.0114216628 0.0224466436 -0.00728764851
  vertex 0.0100600785 0.0267350152 -0.0036435402
  vertex 0.0114628756 0.0267144293 0.00187340379
  endloop
 endfacet

 facet normal 0.865852535 0.45200026 -0.214464933
  outer loop
  vertex 0.0114216628 0.0224466436 -0.00728764851
  vertex 0.0114628756 0.0267144293 0.00187340379
  vertex 0.0128555642 0.0266835447 0.007430973
  endloop
 endfacet

 facet normal 0.787896037 0.584387422 -0.194193885
  outer loop
  vertex 0.0128555642 0.0266835447 0.007430973
  vertex 0.0114628756 0.0267144293 0.00187340379
  vertex 0.010193049 0.0269347131 -0.00261571468
  endloop
 endfacet

 facet normal 0.756481349 0.627365291 -0.184794098
  outer loop
  vertex 0.0128555642 0.0266835447 0.007430973
  vertex 0.010193049 0.0269347131 -0.00261571468
  vertex 0.0115997335 0.0268791281 0.00295404205
  endloop
 endfacet

 facet normal 0.688968062 0.705298305 -0.166965351
  outer loop
  vertex 0.0115997335 0.0268791281 0.00295404205
  vertex 0.010193049 0.0269347131 -0.00261571468
  vertex 0.010372675 0.027089119 -0.0012222603
  endloop
 endfacet

 facet normal 0.66458106 0.730201721 -0.158547923
  outer loop
  vertex 0.0115997335 0.0268791281 0.00295404205
  vertex 0.010372675 0.027089119 -0.0012222603
  vertex 0.00859040674 0.027951736 -0.00472011557
  endloop
 endfacet

 facet normal 0.659408867 0.735466897 -0.155783787
  outer loop
  vertex 0.0115997335 0.0268791281 0.00295404205
  vertex 0.00859040674 0.027951736 -0.00472011557
  vertex 0.0129854232 0.0268173646 0.00852786191
  endloop
 endfacet

 facet normal 0.674964368 0.718783379 -0.166654423
  outer loop
  vertex 0.00859040674 0.027951736 -0.00472011557
  vertex 0.010372675 0.027089119 -0.0012222603
  vertex 0.010193049 0.0269347131 -0.00261571468
  endloop
 endfacet

 facet normal 0.71300596 0.66525358 -0.221495718
  outer loop
  vertex 0.00859040674 0.027951736 -0.00472011557
  vertex 0.010193049 0.0269347131 -0.00261571468
  vertex 0.0100600785 0.0267350152 -0.0036435402
  endloop
 endfacet

 facet normal 0.735409141 0.583598554 -0.34436354
  outer loop
  vertex 0.00859040674 0.027951736 -0.00472011557
  vertex 0.0100600785 0.0267350152 -0.0036435402
  vertex 0.00892011169 0.0272126459 -0.00526856072
  endloop
 endfacet

 facet normal 0.59835422 0.632193804 -0.492243141
  outer loop
  vertex 0.00859040674 0.027951736 -0.00472011557
  vertex 0.00892011169 0.0272126459 -0.00526856072
  vertex 0.00870471541 0.0267206058 -0.00616232213
  endloop
 endfacet

 facet normal 0.148341238 0.757930458 -0.635245085
  outer loop
  vertex 0.00859040674 0.027951736 -0.00472011557
  vertex 0.00870471541 0.0267206058 -0.00616232213
  vertex 0.00788434409 0.0275008697 -0.00542293722
  endloop
 endfacet

 facet normal 0.00872756448 0.837654352 -0.546131074
  outer loop
  vertex 0.00859040674 0.027951736 -0.00472011557
  vertex 0.00788434409 0.0275008697 -0.00542293722
  vertex 0.00788434409 0.0279537942 -0.00472824136
  endloop
 endfacet

 facet normal 0.00291597913 0.999995708 0
  outer loop
  vertex 0.00859040674 0.027951736 -0.00472011557
  vertex 0.00788434409 0.0279537942 -0.00472824136
  vertex 0.00788434409 0.0279537942 -0.00452917581
  endloop
 endfacet

 facet normal 0.00291597913 0.999995708 0
  outer loop
  vertex 0.00859040674 0.027951736 -0.00472011557
  vertex 0.00788434409 0.0279537942 -0.00452917581
  vertex 0.00859040674 0.027951736 -0.00459011411
  endloop
 endfacet

 facet normal 0.173477069 0.984837949 0
  outer loop
  vertex 0.00859040674 0.027951736 -0.00472011557
  vertex 0.00859040674 0.027951736 -0.00459011411
  vertex 0.0120616304 0.0273402873 0.00991725456
  endloop
 endfacet

 facet normal 0.3458305 0.93731761 -0.0428583398
  outer loop
  vertex 0.00859040674 0.027951736 -0.00472011557
  vertex 0.0120616304 0.0273402873 0.00991725456
  vertex 0.013311239 0.0269429497 0.0113107096
  endloop
 endfacet

 facet normal 0.344670862 0.937797785 -0.0416814797
  outer loop
  vertex 0.013311239 0.0269429497 0.0113107096
  vertex 0.0120616304 0.0273402873 0.00991725456
  vertex 0.0135717364 0.0269058924 0.0126310382
  endloop
 endfacet

 facet normal -0.995461881 -0.0943837389 0.0121431705
  outer loop
  vertex 0.00804219674 0.00692367833 -0.000657565193
  vertex 0.00805230625 0.00692367833 0.000171195061
  vertex 0.00661918242 0.0236695409 0.0128463535
  endloop
 endfacet

 facet normal -0.992785394 0 0.119904749
  outer loop
  vertex 0.00661918242 0.0236695409 0.0128463535
  vertex 0.00920004863 0.0161118731 0.0342153721
  vertex 0.00661918242 0.0272723492 0.0128463535
  endloop
 endfacet

 facet normal 0.00335069722 0.747188926 -0.664603353
  outer loop
  vertex 0.00788434409 0.0268070716 -0.00620294735
  vertex 0.00661918242 0.0275029279 -0.00542700104
  vertex 0.00788434409 0.0275008697 -0.00542293722
  endloop
 endfacet

 facet normal 0.110975705 0.742577791 -0.660501897
  outer loop
  vertex 0.00788434409 0.0268070716 -0.00620294735
  vertex 0.00788434409 0.0275008697 -0.00542293722
  vertex 0.00870471541 0.0267206058 -0.00616232213
  endloop
 endfacet

 facet normal 0.0804286301 0.319474071 -0.944175661
  outer loop
  vertex 0.00788434409 0.0268070716 -0.00620294735
  vertex 0.00870471541 0.0267206058 -0.00616232213
  vertex 0.00978869479 0.023121912 -0.00728764851
  endloop
 endfacet

 facet normal 0.0227207448 0.293079615 -0.955818057
  outer loop
  vertex 0.00788434409 0.0268070716 -0.00620294735
  vertex 0.00978869479 0.023121912 -0.00728764851
  vertex 0.00925759133 0.0231630858 -0.00728764851
  endloop
 endfacet

 facet normal 0.00136558036 0.83913821 -0.543916643
  outer loop
  vertex 0.00661918242 0.0275029279 -0.00542700104
  vertex 0.00661918242 0.0279558524 -0.00472824136
  vertex 0.00788434409 0.0279537942 -0.00472824136
  endloop
 endfacet

 facet normal 0.00311748008 0.837682188 -0.546149194
  outer loop
  vertex 0.00661918242 0.0275029279 -0.00542700104
  vertex 0.00788434409 0.0279537942 -0.00472824136
  vertex 0.00788434409 0.0275008697 -0.00542293722
  endloop
 endfacet

 facet normal 0.993905246 0.00929072499 0.109845541
  outer loop
  vertex 0.0129022198 0.0175015274 0.0308068916
  vertex 0.0127949109 0.0175015274 0.0317778401
  vertex 0.0127225928 0.0161118731 0.032549724
  endloop
 endfacet

 facet normal 0.994987786 -0.00326705608 0.0999441147
  outer loop
  vertex 0.0129022198 0.0175015274 0.0308068916
  vertex 0.0127225928 0.0161118731 0.032549724
  vertex 0.0130421892 0.0175015274 0.0294134356
  endloop
 endfacet

 facet normal 0.994987667 -0.00326723396 0.0999440178
  outer loop
  vertex 0.0130421892 0.0175015274 0.0294134356
  vertex 0.0127225928 0.0161118731 0.032549724
  vertex 0.012790245 0.0147180995 0.0318306535
  endloop
 endfacet

 facet normal 0.981136203 0.0523136072 0.186104998
  outer loop
  vertex 0.0127225928 0.0161118731 0.032549724
  vertex 0.0127949109 0.0175015274 0.0317778401
  vertex 0.012783247 0.0182550307 0.0316275246
  endloop
 endfacet

 facet normal 0.976249158 0.061731346 0.207670063
  outer loop
  vertex 0.0127225928 0.0161118731 0.032549724
  vertex 0.012783247 0.0182550307 0.0316275246
  vertex 0.0126502765 0.0175015274 0.0324766003
  endloop
 endfacet

 facet normal 0.826597095 0.0723846182 0.558119893
  outer loop
  vertex 0.0127225928 0.0161118731 0.032549724
  vertex 0.0126502765 0.0175015274 0.0324766003
  vertex 0.0119535429 0.0175015274 0.033508487
  endloop
 endfacet

 facet normal 0.820157349 0.0614311621 0.56883055
  outer loop
  vertex 0.0127225928 0.0161118731 0.032549724
  vertex 0.0119535429 0.0175015274 0.033508487
  vertex 0.0120266378 0.0161118731 0.0335531756
  endloop
 endfacet

 facet normal 0.775901973 0.351446956 0.523890436
  outer loop
  vertex 0.0119535429 0.0175015274 0.033508487
  vertex 0.0126502765 0.0175015274 0.0324766003
  vertex 0.01170782 0.0184073765 0.0332647339
  endloop
 endfacet

 facet normal 0.405683637 0.338509053 0.849018574
  outer loop
  vertex 0.0119535429 0.0175015274 0.033508487
  vertex 0.01170782 0.0184073765 0.0332647339
  vertex 0.0106697204 0.0175015274 0.0341219343
  endloop
 endfacet

 facet normal 0 0.0670868158 0.997747242
  outer loop
  vertex 0.0106697204 0.0175015274 0.0341219343
  vertex 0.00920004863 0.0175015274 0.0341219343
  vertex 0.00920004863 0.0161118731 0.0342153721
  endloop
 endfacet

 facet normal 0 0.0670868158 0.997747242
  outer loop
  vertex 0.0106697204 0.0175015274 0.0341219343
  vertex 0.00920004863 0.0161118731 0.0342153721
  vertex 0.00927703176 0.0161118731 0.0342153721
  endloop
 endfacet

 facet normal 0.201694846 0.54129976 0.816280484
  outer loop
  vertex 0.0106697204 0.0175015274 0.0341219343
  vertex 0.01170782 0.0184073765 0.0332647339
  vertex 0.0106697204 0.0185123738 0.033451613
  endloop
 endfacet

 facet normal 0 0.552657783 0.833408296
  outer loop
  vertex 0.0106697204 0.0175015274 0.0341219343
  vertex 0.0106697204 0.0185123738 0.033451613
  vertex 0.00920004863 0.0185123738 0.033451613
  endloop
 endfacet

 facet normal 0 0.552657783 0.833408296
  outer loop
  vertex 0.0106697204 0.0175015274 0.0341219343
  vertex 0.00920004863 0.0185123738 0.033451613
  vertex 0.00920004863 0.0175015274 0.0341219343
  endloop
 endfacet

 facet normal -0.992222309 0.00835087337 0.124198183
  outer loop
  vertex 0.00920004863 0.0161118731 0.0342153721
  vertex 0.00920004863 0.0175015274 0.0341219343
  vertex 0.00661918242 0.0272723492 0.0128463535
  endloop
 endfacet

 facet normal 0.153875515 0.976480484 0.151023254
  outer loop
  vertex 0.0135841779 0.0268194228 0.0142235588
  vertex 0.0120616304 0.0272723492 0.0128463535
  vertex 0.0120616304 0.027078826 0.0140976198
  endloop
 endfacet

 facet normal 0.143228337 0.959135711 0.244017065
  outer loop
  vertex 0.0135841779 0.0268194228 0.0142235588
  vertex 0.0120616304 0.027078826 0.0140976198
  vertex 0.0132062631 0.0266670771 0.0150441937
  endloop
 endfacet

 facet normal 0.207540929 0.940193295 0.270117462
  outer loop
  vertex 0.0135841779 0.0268194228 0.0142235588
  vertex 0.0132062631 0.0266670771 0.0150441937
  vertex 0.0141347218 0.0265414938 0.0147679402
  endloop
 endfacet

 facet normal 0.249019727 0.967177451 0.0505690873
  outer loop
  vertex 0.0135841779 0.0268194228 0.0142235588
  vertex 0.0135717364 0.0269058924 0.0126310382
  vertex 0.0120616304 0.027290877 0.0127041647
  endloop
 endfacet

 facet normal 0.17534852 0.97625339 0.127209425
  outer loop
  vertex 0.0135841779 0.0268194228 0.0142235588
  vertex 0.0120616304 0.027290877 0.0127041647
  vertex 0.0120616304 0.0272723492 0.0128463535
  endloop
 endfacet

 facet normal 0.238006473 0.886448383 0.396941036
  outer loop
  vertex 0.0141347218 0.0265414938 0.0147679402
  vertex 0.0132062631 0.0266670771 0.0150441937
  vertex 0.0127661387 0.0237745345 0.021767715
  endloop
 endfacet

 facet normal 0.357935309 0.842327058 0.402948469
  outer loop
  vertex 0.0141347218 0.0265414938 0.0147679402
  vertex 0.0127661387 0.0237745345 0.021767715
  vertex 0.0127956886 0.0224054679 0.0246033762
  endloop
 endfacet

 facet normal 0.496126264 0.774165511 0.393098772
  outer loop
  vertex 0.0141347218 0.0265414938 0.0147679402
  vertex 0.0127956886 0.0224054679 0.0246033762
  vertex 0.0127816917 0.021007577 0.0273740347
  endloop
 endfacet

 facet normal 0.773319364 0.54580605 0.322603434
  outer loop
  vertex 0.0141347218 0.0265414938 0.0147679402
  vertex 0.0127816917 0.021007577 0.0273740347
  vertex 0.0127163725 0.0195129253 0.0300593823
  endloop
 endfacet

 facet normal 0.274091303 0.961702704 0.00141951418
  outer loop
  vertex 0.0135717364 0.0269058924 0.0126310382
  vertex 0.0120616304 0.0273402873 0.00991725456
  vertex 0.0120616304 0.027338231 0.0113107096
  endloop
 endfacet

 facet normal 0.248399019 0.968098998 0.0328991376
  outer loop
  vertex 0.0135717364 0.0269058924 0.0126310382
  vertex 0.0120616304 0.027338231 0.0113107096
  vertex 0.0120616304 0.027290877 0.0127041647
  endloop
 endfacet

 facet normal 0.534420311 0.732937336 0.420948863
  outer loop
  vertex 0.0127163725 0.0195129253 0.0300593823
  vertex 0.0127816917 0.021007577 0.0273740347
  vertex 0.01170782 0.0184073765 0.0332647339
  endloop
 endfacet

 facet normal 0.715781569 0.559308529 0.418127716
  outer loop
  vertex 0.0127163725 0.0195129253 0.0300593823
  vertex 0.01170782 0.0184073765 0.0332647339
  vertex 0.012783247 0.0182550307 0.0316275246
  endloop
 endfacet

 facet normal 0.782858849 0.399424404 0.477066219
  outer loop
  vertex 0.012783247 0.0182550307 0.0316275246
  vertex 0.01170782 0.0184073765 0.0332647339
  vertex 0.0126502765 0.0175015274 0.0324766003
  endloop
 endfacet

 facet normal 0.164402589 0.348540157 -0.92276299
  outer loop
  vertex 0.0109387701 0.0226875152 -0.00728764851
  vertex 0.0106681641 0.0228151567 -0.00728764851
  vertex 0.00870471541 0.0267206058 -0.00616232213
  endloop
 endfacet

 facet normal 0.11429929 0.327696353 -0.93784374
  outer loop
  vertex 0.00870471541 0.0267206058 -0.00616232213
  vertex 0.0106681641 0.0228151567 -0.00728764851
  vertex 0.00978869479 0.023121912 -0.00728764851
  endloop
 endfacet

 facet normal 0.827242017 0.521767855 -0.208396375
  outer loop
  vertex 0.0100600785 0.0267350152 -0.0036435402
  vertex 0.010193049 0.0269347131 -0.00261571468
  vertex 0.0114628756 0.0267144293 0.00187340379
  endloop
 endfacet

 facet normal 0.00162735838 0.999998689 0
  outer loop
  vertex 0.00788434409 0.0279537942 -0.00472824136
  vertex 0.00661918242 0.0279558524 -0.00472824136
  vertex 0.00661918242 0.0279558524 -0.00452511432
  endloop
 endfacet

 facet normal 0.00162735838 0.999998689 0
  outer loop
  vertex 0.00788434409 0.0279537942 -0.00472824136
  vertex 0.00661918242 0.0279558524 -0.00452511432
  vertex 0.00788434409 0.0279537942 -0.00452917581
  endloop
 endfacet

 facet normal 0.00598130561 0.999350429 0.0355383903
  outer loop
  vertex 0.00859040674 0.027951736 -0.00459011411
  vertex 0.00788434409 0.0279537942 -0.00452917581
  vertex 0.00788434409 0.02792909 -0.00383448019
  endloop
 endfacet

 facet normal 0.00725731906 0.99929893 0.0367291532
  outer loop
  vertex 0.00859040674 0.027951736 -0.00459011411
  vertex 0.00788434409 0.02792909 -0.00383448019
  vertex 0.0120616304 0.027290877 0.0127041647
  endloop
 endfacet

 facet normal 0.0210546218 0.999201536 0.033956103
  outer loop
  vertex 0.00859040674 0.027951736 -0.00459011411
  vertex 0.0120616304 0.027290877 0.0127041647
  vertex 0.0120616304 0.027338231 0.0113107096
  endloop
 endfacet

 facet normal 0.167575166 0.985858202 0.00145516894
  outer loop
  vertex 0.00859040674 0.027951736 -0.00459011411
  vertex 0.0120616304 0.027338231 0.0113107096
  vertex 0.0120616304 0.0273402873 0.00991725456
  endloop
 endfacet

 facet normal -0.97879231 0.113214642 0.170727775
  outer loop
  vertex 0.00661918242 0.0272723492 0.0128463535
  vertex 0.00920004863 0.0175015274 0.0341219343
  vertex 0.00920004863 0.0185123738 0.033451613
  endloop
 endfacet

 facet normal -0.486816883 0.780259311 0.392689168
  outer loop
  vertex 0.00661918242 0.0272723492 0.0128463535
  vertex 0.00920004863 0.0185123738 0.033451613
  vertex 0.00920004863 0.0191073529 0.0322694108
  endloop
 endfacet

 facet normal -0.358715385 0.842523754 0.401841998
  outer loop
  vertex 0.00661918242 0.0272723492 0.0128463535
  vertex 0.00920004863 0.0191073529 0.0322694108
  vertex 0.00920004863 0.019140292 0.0322003439
  endloop
 endfacet

 facet normal -0.171324238 0.899927139 0.400972724
  outer loop
  vertex 0.00661918242 0.0272723492 0.0128463535
  vertex 0.00920004863 0.019140292 0.0322003439
  vertex 0.00920004863 0.0234718993 0.0224786624
  endloop
 endfacet

 facet normal -0.170551926 0.900130272 0.400845915
  outer loop
  vertex 0.00661918242 0.0272723492 0.0128463535
  vertex 0.00920004863 0.0234718993 0.0224786624
  vertex 0.00920004863 0.0267247222 0.0151741952
  endloop
 endfacet

 facet normal -0.080141671 0.946829617 0.311594576
  outer loop
  vertex 0.00661918242 0.0272723492 0.0128463535
  vertex 0.00920004863 0.0267247222 0.0151741952
  vertex 0.00920004863 0.0270602982 0.0141544947
  endloop
 endfacet

 facet normal -0.0786290392 0.947877824 0.308780164
  outer loop
  vertex 0.00661918242 0.0272723492 0.0128463535
  vertex 0.00920004863 0.0270602982 0.0141544947
  vertex 0.00920004863 0.027078826 0.0140976198
  endloop
 endfacet

 facet normal 0 0.988250375 0.15284358
  outer loop
  vertex 0.00661918242 0.0272723492 0.0128463535
  vertex 0.00920004863 0.027078826 0.0140976198
  vertex 0.0120616304 0.027078826 0.0140976198
  endloop
 endfacet

 facet normal 0 0.988250375 0.15284358
  outer loop
  vertex 0.00661918242 0.0272723492 0.0128463535
  vertex 0.0120616304 0.027078826 0.0140976198
  vertex 0.0120616304 0.0272723492 0.0128463535
  endloop
 endfacet

 facet normal 0 0.991617143 0.129211381
  outer loop
  vertex 0.00661918242 0.0272723492 0.0128463535
  vertex 0.0120616304 0.0272723492 0.0128463535
  vertex 0.0120616304 0.027290877 0.0127041647
  endloop
 endfacet

 facet normal 0 0.991617143 0.129211381
  outer loop
  vertex 0.00661918242 0.0272723492 0.0128463535
  vertex 0.0120616304 0.027290877 0.0127041647
  vertex 0.00661918242 0.027290877 0.0127041647
  endloop
 endfacet

 facet normal 0.302817523 0.850267887 0.430518448
  outer loop
  vertex 0.01170782 0.0184073765 0.0332647339
  vertex 0.0127816917 0.021007577 0.0273740347
  vertex 0.0127956886 0.0224054679 0.0246033762
  endloop
 endfacet

 facet normal 0.182223007 0.883827925 0.430863082
  outer loop
  vertex 0.01170782 0.0184073765 0.0332647339
  vertex 0.0127956886 0.0224054679 0.0246033762
  vertex 0.0106697204 0.019140292 0.0322003439
  endloop
 endfacet

 facet normal 0.168688357 0.880964756 0.442092001
  outer loop
  vertex 0.01170782 0.0184073765 0.0332647339
  vertex 0.0106697204 0.019140292 0.0322003439
  vertex 0.0106697204 0.0185123738 0.033451613
  endloop
 endfacet

 facet normal 0.00104483822 0.893772542 0.448519289
  outer loop
  vertex 0.0106697204 0.0185123738 0.033451613
  vertex 0.0106697204 0.019140292 0.0322003439
  vertex 0.00920004863 0.0191073529 0.0322694108
  endloop
 endfacet

 facet normal 0 0.893252075 0.449556202
  outer loop
  vertex 0.0106697204 0.0185123738 0.033451613
  vertex 0.00920004863 0.0191073529 0.0322694108
  vertex 0.00920004863 0.0185123738 0.033451613
  endloop
 endfacet

 facet normal 0 0.950821579 0.309739113
  outer loop
  vertex 0.0120616304 0.027078826 0.0140976198
  vertex 0.00920004863 0.027078826 0.0140976198
  vertex 0.00920004863 0.0270602982 0.0141544947
  endloop
 endfacet

 facet normal 5.960614e-05 0.949934483 0.312449098
  outer loop
  vertex 0.0120616304 0.027078826 0.0140976198
  vertex 0.00920004863 0.0270602982 0.0141544947
  vertex 0.0120616304 0.0267247222 0.0151741952
  endloop
 endfacet

 facet normal 0.0830395594 0.946653605 0.311369956
  outer loop
  vertex 0.0120616304 0.027078826 0.0140976198
  vertex 0.0120616304 0.0267247222 0.0151741952
  vertex 0.0132062631 0.0266670771 0.0150441937
  endloop
 endfacet

 facet normal 0.0912284479 0.912586093 0.398577631
  outer loop
  vertex 0.0132062631 0.0266670771 0.0150441937
  vertex 0.0120616304 0.0267247222 0.0151741952
  vertex 0.0127661387 0.0237745345 0.021767715
  endloop
 endfacet

 facet normal 0.000123727281 0.999257505 0.0385293402
  outer loop
  vertex 0.0120616304 0.027290877 0.0127041647
  vertex 0.00788434409 0.02792909 -0.00383448019
  vertex 0.00661918242 0.02792909 -0.00383041729
  endloop
 endfacet

 facet normal 0 0.999255896 0.0385700017
  outer loop
  vertex 0.0120616304 0.027290877 0.0127041647
  vertex 0.00661918242 0.02792909 -0.00383041729
  vertex 0.00661918242 0.027290877 0.0127041647
  endloop
 endfacet

 facet normal 0.0176414121 0.913354039 0.406783909
  outer loop
  vertex 0.0127661387 0.0237745345 0.021767715
  vertex 0.0120616304 0.0267247222 0.0151741952
  vertex 0.0120616304 0.0259629861 0.01688453
  endloop
 endfacet

 facet normal 0.0130450753 0.913172126 0.407365501
  outer loop
  vertex 0.0127661387 0.0237745345 0.021767715
  vertex 0.0120616304 0.0259629861 0.01688453
  vertex 0.0120616304 0.0247215591 0.0196673777
  endloop
 endfacet

 facet normal 0.0128077483 0.913145304 0.407433093
  outer loop
  vertex 0.0127661387 0.0237745345 0.021767715
  vertex 0.0120616304 0.0247215591 0.0196673777
  vertex 0.0120616304 0.0240998175 0.0210608318
  endloop
 endfacet

 facet normal 0.0121652856 0.912915409 0.407967538
  outer loop
  vertex 0.0127661387 0.0237745345 0.021767715
  vertex 0.0120616304 0.0240998175 0.0210608318
  vertex 0.0106697204 0.019140292 0.0322003439
  endloop
 endfacet

 facet normal 0.162380204 0.889245629 0.42763865
  outer loop
  vertex 0.0127661387 0.0237745345 0.021767715
  vertex 0.0106697204 0.019140292 0.0322003439
  vertex 0.0127956886 0.0224054679 0.0246033762
  endloop
 endfacet

 facet normal 0.00174042559 0.99936676 0.0355389714
  outer loop
  vertex 0.00788434409 0.0279537942 -0.00452917581
  vertex 0.00661918242 0.0279558524 -0.00452511432
  vertex 0.00788434409 0.02792909 -0.00383448019
  endloop
 endfacet

 facet normal 0.0001236221 0.999258816 0.0384965874
  outer loop
  vertex 0.00788434409 0.02792909 -0.00383448019
  vertex 0.00661918242 0.0279558524 -0.00452511432
  vertex 0.00661918242 0.02792909 -0.00383041729
  endloop
 endfacet

 facet normal 0 0.902594209 0.43049261
  outer loop
  vertex 0.00920004863 0.0191073529 0.0322694108
  vertex 0.0106697204 0.019140292 0.0322003439
  vertex 0.00920004863 0.019140292 0.0322003439
  endloop
 endfacet

 facet normal 0 0.913135946 0.40765509
  outer loop
  vertex 0.00920004863 0.019140292 0.0322003439
  vertex 0.0106697204 0.019140292 0.0322003439
  vertex 0.0106697204 0.0195211619 0.0313472115
  endloop
 endfacet

 facet normal -0.000462821161 0.913432479 0.40699017
  outer loop
  vertex 0.00920004863 0.019140292 0.0322003439
  vertex 0.0106697204 0.0195211619 0.0313472115
  vertex 0.00920004863 0.0234718993 0.0224786624
  endloop
 endfacet

 facet normal 0 0.913461089 0.406926244
  outer loop
  vertex 0.00920004863 0.0234718993 0.0224786624
  vertex 0.0106697204 0.0195211619 0.0313472115
  vertex 0.0106697204 0.0234718993 0.0224786624
  endloop
 endfacet

 facet normal 0 0.913514495 0.406806201
  outer loop
  vertex 0.00920004863 0.0234718993 0.0224786624
  vertex 0.0106697204 0.0234718993 0.0224786624
  vertex 0.0120616304 0.0267247222 0.0151741952
  endloop
 endfacet

 facet normal 0 0.913514495 0.406806201
  outer loop
  vertex 0.00920004863 0.0234718993 0.0224786624
  vertex 0.0120616304 0.0267247222 0.0151741952
  vertex 0.00920004863 0.0267247222 0.0151741952
  endloop
 endfacet

 facet normal 0 0.949884951 0.312600046
  outer loop
  vertex 0.00920004863 0.0267247222 0.0151741952
  vertex 0.0120616304 0.0267247222 0.0151741952
  vertex 0.00920004863 0.0270602982 0.0141544947
  endloop
 endfacet

 facet normal 0.00887844153 0.913100004 0.407639027
  outer loop
  vertex 0.0106697204 0.019140292 0.0322003439
  vertex 0.0120616304 0.0240998175 0.0210608318
  vertex 0.0106697204 0.0195211619 0.0313472115
  endloop
 endfacet

 facet normal 0.000258177926 0.913496196 0.406847239
  outer loop
  vertex 0.0120616304 0.0267247222 0.0151741952
  vertex 0.0106697204 0.0234718993 0.0224786624
  vertex 0.0120616304 0.0259629861 0.01688453
  endloop
 endfacet

 facet normal 0.000638445199 0.913460851 0.406926095
  outer loop
  vertex 0.0120616304 0.0259629861 0.01688453
  vertex 0.0106697204 0.0234718993 0.0224786624
  vertex 0.0106697204 0.0195211619 0.0313472115
  endloop
 endfacet

 facet normal 0.00654076878 0.913230181 0.407391459
  outer loop
  vertex 0.0120616304 0.0259629861 0.01688453
  vertex 0.0106697204 0.0195211619 0.0313472115
  vertex 0.0120616304 0.0247215591 0.0196673777
  endloop
 endfacet

 facet normal 0.00720748072 0.913196504 0.407455891
  outer loop
  vertex 0.0120616304 0.0247215591 0.0196673777
  vertex 0.0106697204 0.0195211619 0.0313472115
  vertex 0.0120616304 0.0240998175 0.0210608318
  endloop
 endfacet

endsolid AssimpScene
