solid AssimpScene
 facet normal 0.99046582 -0.135562479 0.0245009866
  outer loop
  vertex 0.009582242 -0.017363511 0.0709924921
  vertex 0.00954989437 -0.017363511 0.0723001584
  vertex 0.00939386524 -0.0182671715 0.0736078322
  endloop
 endfacet

 facet normal 0.978955805 -0.204072833 0
  outer loop
  vertex 0.009582242 -0.017363511 0.0709924921
  vertex 0.00939386524 -0.0182671715 0.0736078322
  vertex 0.00939386524 -0.0182671715 0.0683736578
  endloop
 endfacet

 facet normal 0.978955805 -0.204072833 0
  outer loop
  vertex 0.009582242 -0.017363511 0.0709924921
  vertex 0.00939386524 -0.0182671715 0.0683736578
  vertex 0.009582242 -0.017363511 0.0683736578
  endloop
 endfacet

 facet normal 1 0 0
  outer loop
  vertex 0.009582242 -0.017363511 0.0709924921
  vertex 0.009582242 -0.017363511 0.0683736578
  vertex 0.009582242 -0.0147478869 0.0474474989
  endloop
 endfacet

 facet normal 1 0 0
  outer loop
  vertex 0.009582242 -0.017363511 0.0709924921
  vertex 0.009582242 -0.0147478869 0.0474474989
  vertex 0.009582242 -0.0137703903 0.046472881
  endloop
 endfacet

 facet normal 1 0 0
  outer loop
  vertex 0.009582242 -0.017363511 0.0709924921
  vertex 0.009582242 -0.0137703903 0.046472881
  vertex 0.009582242 -0.0137703903 0.0487551615
  endloop
 endfacet

 facet normal 1 0 0
  outer loop
  vertex 0.009582242 -0.017363511 0.0709924921
  vertex 0.009582242 -0.0137703903 0.0487551615
  vertex 0.009582242 -0.0160559434 0.0696813241
  endloop
 endfacet

 facet normal 0.999386966 0.0247898456 0.0247216672
  outer loop
  vertex 0.009582242 -0.017363511 0.0709924921
  vertex 0.009582242 -0.0160559434 0.0696813241
  vertex 0.00954989437 -0.017363511 0.0723001584
  endloop
 endfacet

 facet normal 0.992659926 0.0457361452 0.111957952
  outer loop
  vertex 0.00954989437 -0.017363511 0.0723001584
  vertex 0.00940718595 -0.0173728019 0.073569268
  vertex 0.00933107361 -0.0178148523 0.074424684
  endloop
 endfacet

 facet normal 0.994737566 0 0.102455609
  outer loop
  vertex 0.00954989437 -0.017363511 0.0723001584
  vertex 0.00933107361 -0.0178148523 0.074424684
  vertex 0.00933107361 -0.0181840416 0.074424684
  endloop
 endfacet

 facet normal 0.995213151 -0.0532851778 0.0819248483
  outer loop
  vertex 0.00954989437 -0.017363511 0.0723001584
  vertex 0.00933107361 -0.0181840416 0.074424684
  vertex 0.00939386524 -0.0182671715 0.0736078322
  endloop
 endfacet

 facet normal 0.998004913 0.0506915376 0.0376371257
  outer loop
  vertex 0.00954989437 -0.017363511 0.0723001584
  vertex 0.009582242 -0.0160559434 0.0696813241
  vertex 0.00956511684 -0.0147478869 0.0683736578
  endloop
 endfacet

 facet normal 0.984828472 0.142634928 0.0988338217
  outer loop
  vertex 0.00954989437 -0.017363511 0.0723001584
  vertex 0.00956511684 -0.0147478869 0.0683736578
  vertex 0.00952135306 -0.0137703903 0.0673990473
  endloop
 endfacet

 facet normal 0.980918348 0.15947704 0.111203931
  outer loop
  vertex 0.00954989437 -0.017363511 0.0723001584
  vertex 0.00952135306 -0.0137703903 0.0673990473
  vertex 0.00942050479 -0.0147390841 0.0696778148
  endloop
 endfacet

 facet normal 0.980847061 0.159733504 0.111464106
  outer loop
  vertex 0.00954989437 -0.017363511 0.0723001584
  vertex 0.00942050479 -0.0147390841 0.0696778148
  vertex 0.00940718595 -0.0173728019 0.073569268
  endloop
 endfacet

 facet normal 0.398005217 -0.909085214 0.12310984
  outer loop
  vertex 0.00939386524 -0.0182671715 0.0736078322
  vertex 0.00933107361 -0.0181840416 0.074424684
  vertex 0.0085528316 -0.0186353829 0.0736078322
  endloop
 endfacet

 facet normal 0.401052594 -0.916045845 0.00411006995
  outer loop
  vertex 0.00939386524 -0.0182671715 0.0736078322
  vertex 0.0085528316 -0.0186353829 0.0736078322
  vertex 0.0085528316 -0.0186412502 0.0723001584
  endloop
 endfacet

 facet normal 0.406398028 -0.913696229 0
  outer loop
  vertex 0.00939386524 -0.0182671715 0.0736078322
  vertex 0.0085528316 -0.0186412502 0.0723001584
  vertex 0.0085528316 -0.0186412502 0.0683736578
  endloop
 endfacet

 facet normal 0.406398028 -0.913696229 0
  outer loop
  vertex 0.00939386524 -0.0182671715 0.0736078322
  vertex 0.0085528316 -0.0186412502 0.0683736578
  vertex 0.00939386524 -0.0182671715 0.0683736578
  endloop
 endfacet

 facet normal 0.978954852 -0.204072639 -0.00142422307
  outer loop
  vertex 0.009582242 -0.017363511 0.0683736578
  vertex 0.00939386524 -0.0182671715 0.0683736578
  vertex 0.00958033931 -0.017363511 0.0670659915
  endloop
 endfacet

 facet normal 0.999931276 -0.011638795 -0.00145474041
  outer loop
  vertex 0.009582242 -0.017363511 0.0683736578
  vertex 0.00958033931 -0.017363511 0.0670659915
  vertex 0.00958033931 -0.0160559434 0.0566046648
  endloop
 endfacet

 facet normal 0.999931276 -0.0116367852 -0.00145451713
  outer loop
  vertex 0.009582242 -0.017363511 0.0683736578
  vertex 0.00958033931 -0.0160559434 0.0566046648
  vertex 0.009582242 -0.0147478869 0.0474474989
  endloop
 endfacet

 facet normal 0.999890745 0.0146949841 0.00160498521
  outer loop
  vertex 0.009582242 -0.0160559434 0.0696813241
  vertex 0.009582242 -0.0137703903 0.0487551615
  vertex 0.00956511684 -0.0147478869 0.0683736578
  endloop
 endfacet

 facet normal 0.933461905 0.277954638 0.226693541
  outer loop
  vertex 0.00940718595 -0.0173728019 0.073569268
  vertex 0.00929111429 -0.0166055728 0.0731064975
  vertex 0.00933107361 -0.0178148523 0.074424684
  endloop
 endfacet

 facet normal 0.96534276 0.214591667 0.148538828
  outer loop
  vertex 0.00940718595 -0.0173728019 0.073569268
  vertex 0.00942050479 -0.0147390841 0.0696778148
  vertex 0.0093729347 -0.0137703903 0.0685875118
  endloop
 endfacet

 facet normal 0.964843452 0.216081291 0.14961943
  outer loop
  vertex 0.00940718595 -0.0173728019 0.073569268
  vertex 0.0093729347 -0.0137703903 0.0685875118
  vertex 0.00933107361 -0.0137703903 0.0688574612
  endloop
 endfacet

 facet normal 0.962442577 0.222950846 0.154910326
  outer loop
  vertex 0.00940718595 -0.0173728019 0.073569268
  vertex 0.00933107361 -0.0137703903 0.0688574612
  vertex 0.00931204576 -0.0139537621 0.069239594
  endloop
 endfacet

 facet normal 0.951677918 0.250838965 0.177169487
  outer loop
  vertex 0.00940718595 -0.0173728019 0.073569268
  vertex 0.00931204576 -0.0139537621 0.069239594
  vertex 0.00929111429 -0.0166055728 0.0731064975
  endloop
 endfacet

 facet normal 0.17303662 0 0.984915435
  outer loop
  vertex 0.00933107361 -0.0178148523 0.074424684
  vertex 0.0085528316 -0.0176529959 0.0745614097
  vertex 0.0085528316 -0.0183234047 0.0745614097
  endloop
 endfacet

 facet normal 0.17303662 0 0.984915435
  outer loop
  vertex 0.00933107361 -0.0178148523 0.074424684
  vertex 0.0085528316 -0.0183234047 0.0745614097
  vertex 0.00933107361 -0.0181840416 0.074424684
  endloop
 endfacet

 facet normal 0.297679424 0.707963705 0.64044857
  outer loop
  vertex 0.00933107361 -0.0178148523 0.074424684
  vertex 0.00929111429 -0.0166055728 0.0731064975
  vertex 0.0085528316 -0.0169992112 0.0738847852
  endloop
 endfacet

 facet normal 0.262143463 0.693991601 0.670564353
  outer loop
  vertex 0.00933107361 -0.0178148523 0.074424684
  vertex 0.0085528316 -0.0169992112 0.0738847852
  vertex 0.0085528316 -0.0176529959 0.0745614097
  endloop
 endfacet

 facet normal 0.219349891 -0.927280784 0.30337435
  outer loop
  vertex 0.00933107361 -0.0181840416 0.074424684
  vertex 0.0085528316 -0.0183234047 0.0745614097
  vertex 0.0085528316 -0.0186353829 0.0736078322
  endloop
 endfacet

 facet normal 0.998843372 0.0479723811 0.00326212565
  outer loop
  vertex 0.00956511684 -0.0147478869 0.0683736578
  vertex 0.009582242 -0.0137703903 0.0487551615
  vertex 0.00952135306 -0.0137703903 0.0673990473
  endloop
 endfacet

 facet normal 0.975171864 0.184957728 0.121781327
  outer loop
  vertex 0.00952135306 -0.0137703903 0.0673990473
  vertex 0.0093729347 -0.0137703903 0.0685875118
  vertex 0.00942050479 -0.0147390841 0.0696778148
  endloop
 endfacet

 facet normal 0 1 0
  outer loop
  vertex 0.00952135306 -0.0137703903 0.0673990473
  vertex 0.009582242 -0.0137703903 0.0487551615
  vertex 0.009582242 -0.0137703903 0.046472881
  endloop
 endfacet

 facet normal 0 1 0
  outer loop
  vertex 0.00952135306 -0.0137703903 0.0673990473
  vertex 0.009582242 -0.0137703903 0.046472881
  vertex 0.00958033931 -0.0137703903 0.0451617129
  endloop
 endfacet

 facet normal 0 1 0
  outer loop
  vertex 0.00952135306 -0.0137703903 0.0673990473
  vertex 0.00958033931 -0.0137703903 0.0451617129
  vertex 0.00957843661 -0.0137703903 0.0438540466
  endloop
 endfacet

 facet normal 0 1 0
  outer loop
  vertex 0.00952135306 -0.0137703903 0.0673990473
  vertex 0.00957843661 -0.0137703903 0.0438540466
  vertex 0.00957082585 -0.0137703903 0.0425463766
  endloop
 endfacet

 facet normal 0 1 0
  outer loop
  vertex 0.00952135306 -0.0137703903 0.0673990473
  vertex 0.00957082585 -0.0137703903 0.0425463766
  vertex 0.0095042279 -0.0137703903 0.0412246883
  endloop
 endfacet

 facet normal 0 1 0
  outer loop
  vertex 0.00952135306 -0.0137703903 0.0673990473
  vertex 0.0095042279 -0.0137703903 0.0412246883
  vertex 0.00946997758 -0.0137703903 0.0409091674
  endloop
 endfacet

 facet normal 0 1 0
  outer loop
  vertex 0.00952135306 -0.0137703903 0.0673990473
  vertex 0.00946997758 -0.0137703903 0.0409091674
  vertex 0.0093805464 -0.0137703903 0.04008881
  endloop
 endfacet

 facet normal 0 1 0
  outer loop
  vertex 0.00952135306 -0.0137703903 0.0673990473
  vertex 0.0093805464 -0.0137703903 0.04008881
  vertex 0.00934058707 -0.0137703903 0.0398504138
  endloop
 endfacet

 facet normal 0 1 0
  outer loop
  vertex 0.00952135306 -0.0137703903 0.0673990473
  vertex 0.00934058707 -0.0137703903 0.0398504138
  vertex 0.0085528316 -0.0137703903 0.0390826426
  endloop
 endfacet

 facet normal 0 1 0
  outer loop
  vertex 0.00952135306 -0.0137703903 0.0673990473
  vertex 0.0085528316 -0.0137703903 0.0390826426
  vertex 0.00813802332 -0.0137703903 0.0389879867
  endloop
 endfacet

 facet normal 0 1 0
  outer loop
  vertex 0.00952135306 -0.0137703903 0.0673990473
  vertex 0.00813802332 -0.0137703903 0.0389879867
  vertex 0.00724561373 -0.0137703903 0.0388056859
  endloop
 endfacet

 facet normal 0 1 0
  outer loop
  vertex 0.00952135306 -0.0137703903 0.0673990473
  vertex 0.00724561373 -0.0137703903 0.0388056859
  vertex 0.00593649363 -0.0137703903 0.0388021767
  endloop
 endfacet

 facet normal 0 1 0
  outer loop
  vertex 0.00952135306 -0.0137703903 0.0673990473
  vertex 0.00593649363 -0.0137703903 0.0388021767
  vertex -0.00583417574 -0.0137703903 0.0388021767
  endloop
 endfacet

 facet normal 0 1 0
  outer loop
  vertex 0.00952135306 -0.0137703903 0.0673990473
  vertex -0.00583417574 -0.0137703903 0.0388021767
  vertex -0.00714139361 -0.0137703903 0.0388056859
  endloop
 endfacet

 facet normal 0 1 0
  outer loop
  vertex 0.00952135306 -0.0137703903 0.0673990473
  vertex -0.00714139361 -0.0137703903 0.0388056859
  vertex -0.00772555033 -0.0137703903 0.0388232134
  endloop
 endfacet

 facet normal 0 1 0
  outer loop
  vertex 0.00952135306 -0.0137703903 0.0673990473
  vertex -0.00772555033 -0.0137703903 0.0388232134
  vertex -0.00845051371 -0.0137703903 0.0388477519
  endloop
 endfacet

 facet normal 0 1 0
  outer loop
  vertex 0.00952135306 -0.0137703903 0.0673990473
  vertex -0.00845051371 -0.0137703903 0.0388477519
  vertex -0.009396201 -0.0137703903 0.0397592634
  endloop
 endfacet

 facet normal 0 1 0
  outer loop
  vertex 0.00952135306 -0.0137703903 0.0673990473
  vertex -0.009396201 -0.0137703903 0.0397592634
  vertex -0.00965117477 -0.0137703903 0.0409091674
  endloop
 endfacet

 facet normal 0 1 0
  outer loop
  vertex 0.00952135306 -0.0137703903 0.0673990473
  vertex -0.00965117477 -0.0137703903 0.0409091674
  vertex -0.00977295451 -0.0137703903 0.0421993062
  endloop
 endfacet

 facet normal 0 1 0
  outer loop
  vertex 0.00952135306 -0.0137703903 0.0673990473
  vertex -0.00977295451 -0.0137703903 0.0421993062
  vertex -0.00983193982 -0.0137703903 0.0435245
  endloop
 endfacet

 facet normal 0 1 0
  outer loop
  vertex 0.00952135306 -0.0137703903 0.0673990473
  vertex -0.00983193982 -0.0137703903 0.0435245
  vertex -0.00984716229 -0.0137703903 0.0448321626
  endloop
 endfacet

 facet normal 0 1 0
  outer loop
  vertex 0.00952135306 -0.0137703903 0.0673990473
  vertex -0.00984716229 -0.0137703903 0.0448321626
  vertex -0.00985477399 -0.0137703903 0.0461398326
  endloop
 endfacet

 facet normal 0 1 0
  outer loop
  vertex 0.00952135306 -0.0137703903 0.0673990473
  vertex -0.00985477399 -0.0137703903 0.0461398326
  vertex -0.00985667668 -0.0137703903 0.0474474989
  endloop
 endfacet

 facet normal 0 1 0
  outer loop
  vertex 0.00952135306 -0.0137703903 0.0673990473
  vertex -0.00985667668 -0.0137703903 0.0474474989
  vertex -0.00971016195 -0.0137703903 0.0670659915
  endloop
 endfacet

 facet normal 0 1 0
  outer loop
  vertex 0.00952135306 -0.0137703903 0.0673990473
  vertex -0.00971016195 -0.0137703903 0.0670659915
  vertex -0.00951607712 -0.0137703903 0.0683175623
  endloop
 endfacet

 facet normal 0 1 0
  outer loop
  vertex 0.00952135306 -0.0137703903 0.0673990473
  vertex -0.00951607712 -0.0137703903 0.0683175623
  vertex -0.00933721475 -0.0137703903 0.0690222308
  endloop
 endfacet

 facet normal 0 1 0
  outer loop
  vertex 0.00952135306 -0.0137703903 0.0673990473
  vertex -0.00933721475 -0.0137703903 0.0690222308
  vertex -0.00915835239 -0.0137703903 0.0691764876
  endloop
 endfacet

 facet normal 0 1 0
  outer loop
  vertex 0.00952135306 -0.0137703903 0.0673990473
  vertex -0.00915835239 -0.0137703903 0.0691764876
  vertex -0.00845051371 -0.0137703903 0.0694078729
  endloop
 endfacet

 facet normal 0 1 0
  outer loop
  vertex 0.00952135306 -0.0137703903 0.0673990473
  vertex -0.00845051371 -0.0137703903 0.0694078729
  vertex 0.00724561373 -0.0137703903 0.0694078729
  endloop
 endfacet

 facet normal 0 1 0
  outer loop
  vertex 0.00952135306 -0.0137703903 0.0673990473
  vertex 0.00724561373 -0.0137703903 0.0694078729
  vertex 0.00730650313 -0.0137703903 0.0694043636
  endloop
 endfacet

 facet normal 0 1 0
  outer loop
  vertex 0.00952135306 -0.0137703903 0.0673990473
  vertex 0.00730650313 -0.0137703903 0.0694043636
  vertex 0.0085528316 -0.0137703903 0.0692956895
  endloop
 endfacet

 facet normal 0 1 0
  outer loop
  vertex 0.00952135306 -0.0137703903 0.0673990473
  vertex 0.0085528316 -0.0137703903 0.0692956895
  vertex 0.00933107361 -0.0137703903 0.0688574612
  endloop
 endfacet

 facet normal 0 1 0
  outer loop
  vertex 0.00952135306 -0.0137703903 0.0673990473
  vertex 0.00933107361 -0.0137703903 0.0688574612
  vertex 0.0093729347 -0.0137703903 0.0685875118
  endloop
 endfacet

 facet normal 0.0860725343 -0.946900189 0.309793115
  outer loop
  vertex 0.0085528316 -0.0186353829 0.0736078322
  vertex 0.0085528316 -0.0183234047 0.0745614097
  vertex 0.00724561373 -0.0187542085 0.0736078322
  endloop
 endfacet

 facet normal 0.0905227289 -0.995857596 0.00856522098
  outer loop
  vertex 0.0085528316 -0.0186353829 0.0736078322
  vertex 0.00724561373 -0.0187542085 0.0736078322
  vertex 0.00724561373 -0.0187654551 0.0723001584
  endloop
 endfacet

 facet normal 0.0945878327 -0.995506525 0.00446659047
  outer loop
  vertex 0.0085528316 -0.0186353829 0.0736078322
  vertex 0.00724561373 -0.0187654551 0.0723001584
  vertex 0.0085528316 -0.0186412502 0.0723001584
  endloop
 endfacet

 facet normal 0.0945887715 -0.995516419 0
  outer loop
  vertex 0.0085528316 -0.0186412502 0.0723001584
  vertex 0.00724561373 -0.0187654551 0.0723001584
  vertex 0.00724561373 -0.0187654551 0.0683736578
  endloop
 endfacet

 facet normal 0.0945887715 -0.995516419 0
  outer loop
  vertex 0.0085528316 -0.0186412502 0.0723001584
  vertex 0.00724561373 -0.0187654551 0.0683736578
  vertex 0.0085528316 -0.0186412502 0.0683736578
  endloop
 endfacet

 facet normal 0.4063811 -0.913658082 -0.00913313683
  outer loop
  vertex 0.00939386524 -0.0182671715 0.0683736578
  vertex 0.0085528316 -0.0186412502 0.0683736578
  vertex 0.00939196348 -0.0182549451 0.0670659915
  endloop
 endfacet

 facet normal 0.978387773 -0.20675157 -0.00335634686
  outer loop
  vertex 0.00939386524 -0.0182671715 0.0683736578
  vertex 0.00939196348 -0.0182549451 0.0670659915
  vertex 0.00958033931 -0.017363511 0.0670659915
  endloop
 endfacet

 facet normal 0.978329778 -0.206739292 -0.0113887293
  outer loop
  vertex 0.00958033931 -0.017363511 0.0670659915
  vertex 0.00939196348 -0.0182549451 0.0670659915
  vertex 0.00956511684 -0.017363511 0.0657583252
  endloop
 endfacet

 facet normal 0.995352566 -0.095599249 -0.0115868933
  outer loop
  vertex 0.00958033931 -0.017363511 0.0670659915
  vertex 0.00956511684 -0.017363511 0.0657583252
  vertex 0.00956892315 -0.0160559434 0.0552969985
  endloop
 endfacet

 facet normal 0.996529222 -0.0826229528 -0.010146332
  outer loop
  vertex 0.00958033931 -0.017363511 0.0670659915
  vertex 0.00956892315 -0.0160559434 0.0552969985
  vertex 0.00957082585 -0.0147478869 0.0448321626
  endloop
 endfacet

 facet normal 0.998282671 -0.0581279658 -0.00726545136
  outer loop
  vertex 0.00958033931 -0.017363511 0.0670659915
  vertex 0.00957082585 -0.0147478869 0.0448321626
  vertex 0.00958033931 -0.0160559434 0.0566046648
  endloop
 endfacet

 facet normal 0.998283863 -0.0581077486 -0.00726320595
  outer loop
  vertex 0.00958033931 -0.0160559434 0.0566046648
  vertex 0.00957082585 -0.0147478869 0.0448321626
  vertex 0.00958033931 -0.0147478869 0.0461398326
  endloop
 endfacet

 facet normal 0.999931276 -0.0116383778 -0.00145474484
  outer loop
  vertex 0.00958033931 -0.0160559434 0.0566046648
  vertex 0.00958033931 -0.0147478869 0.0461398326
  vertex 0.009582242 -0.0147478869 0.0474474989
  endloop
 endfacet

 facet normal 0.999997854 -0.00145477289 -0.00145484169
  outer loop
  vertex 0.009582242 -0.0147478869 0.0474474989
  vertex 0.00958033931 -0.0147478869 0.0461398326
  vertex 0.00957843661 -0.0137703903 0.0438540466
  endloop
 endfacet

 facet normal 0.999997854 -0.00145751273 -0.00145558687
  outer loop
  vertex 0.009582242 -0.0147478869 0.0474474989
  vertex 0.00957843661 -0.0137703903 0.0438540466
  vertex 0.00958033931 -0.0137703903 0.0451617129
  endloop
 endfacet

 facet normal 0.999997854 -0.00144667632 -0.00145095272
  outer loop
  vertex 0.009582242 -0.0147478869 0.0474474989
  vertex 0.00958033931 -0.0137703903 0.0451617129
  vertex 0.009582242 -0.0137703903 0.046472881
  endloop
 endfacet

 facet normal 0.196842119 0.786967278 0.584752679
  outer loop
  vertex 0.00929111429 -0.0166055728 0.0731064975
  vertex 0.00904946029 -0.0154354116 0.0716130286
  vertex 0.0085528316 -0.0169992112 0.0738847852
  endloop
 endfacet

 facet normal 0.433728069 0.742000282 0.511190355
  outer loop
  vertex 0.00929111429 -0.0166055728 0.0731064975
  vertex 0.00931204576 -0.0139537621 0.069239594
  vertex 0.00904946029 -0.0154354116 0.0716130286
  endloop
 endfacet

 facet normal 0.24187693 0.870048702 0.42954725
  outer loop
  vertex 0.00933107361 -0.0137703903 0.0688574612
  vertex 0.0085528316 -0.0137703903 0.0692956895
  vertex 0.00931204576 -0.0139537621 0.069239594
  endloop
 endfacet

 facet normal 0.235632464 0.812468886 0.533265114
  outer loop
  vertex 0.00931204576 -0.0139537621 0.069239594
  vertex 0.0085528316 -0.0137703903 0.0692956895
  vertex 0.00904946029 -0.0154354116 0.0716130286
  endloop
 endfacet

 facet normal 0.0428692997 0 0.999080777
  outer loop
  vertex 0.0085528316 -0.0176529959 0.0745614097
  vertex 0.00724561373 -0.0175928473 0.0746174976
  vertex 0.00724561373 -0.0183801278 0.0746174976
  endloop
 endfacet

 facet normal 0.0428692997 0 0.999080777
  outer loop
  vertex 0.0085528316 -0.0176529959 0.0745614097
  vertex 0.00724561373 -0.0183801278 0.0746174976
  vertex 0.0085528316 -0.0183234047 0.0745614097
  endloop
 endfacet

 facet normal 0.0627806336 0.717722118 0.693493724
  outer loop
  vertex 0.0085528316 -0.0176529959 0.0745614097
  vertex 0.0085528316 -0.0169992112 0.0738847852
  vertex 0.00724561373 -0.0175928473 0.0746174976
  endloop
 endfacet

 facet normal 0.0593673401 0.721176505 0.690202892
  outer loop
  vertex 0.0085528316 -0.0169992112 0.0738847852
  vertex 0.00724561373 -0.0169385746 0.0739338621
  vertex 0.00724561373 -0.0175928473 0.0746174976
  endloop
 endfacet

 facet normal 0.184489682 0.79027015 0.58432585
  outer loop
  vertex 0.0085528316 -0.0169992112 0.0738847852
  vertex 0.00904946029 -0.0154354116 0.0716130286
  vertex 0.0085528316 -0.0165170636 0.0732327029
  endloop
 endfacet

 facet normal 0.0595147349 0.802647293 0.593477488
  outer loop
  vertex 0.0085528316 -0.0169992112 0.0738847852
  vertex 0.0085528316 -0.0165170636 0.0732327029
  vertex 0.00724561373 -0.0169385746 0.0739338621
  endloop
 endfacet

 facet normal 0.0555106029 -0.936263978 0.346883893
  outer loop
  vertex 0.0085528316 -0.0183234047 0.0745614097
  vertex 0.00724561373 -0.0183801278 0.0746174976
  vertex 0.00724561373 -0.0187542085 0.0736078322
  endloop
 endfacet

 facet normal 0 -0.937709808 0.34741956
  outer loop
  vertex 0.00724561373 -0.0187542085 0.0736078322
  vertex 0.00724561373 -0.0183801278 0.0746174976
  vertex -0.00845051371 -0.0183801278 0.0746174976
  endloop
 endfacet

 facet normal 0 -0.937709808 0.34741956
  outer loop
  vertex 0.00724561373 -0.0187542085 0.0736078322
  vertex -0.00845051371 -0.0183801278 0.0746174976
  vertex -0.00845051371 -0.0187542085 0.0736078322
  endloop
 endfacet

 facet normal 0 -0.999963105 0.00860053208
  outer loop
  vertex 0.00724561373 -0.0187542085 0.0736078322
  vertex -0.00845051371 -0.0187542085 0.0736078322
  vertex -0.00845051371 -0.0187654551 0.0723001584
  endloop
 endfacet

 facet normal 0 -0.999963105 0.00860053208
  outer loop
  vertex 0.00724561373 -0.0187542085 0.0736078322
  vertex -0.00845051371 -0.0187654551 0.0723001584
  vertex 0.00724561373 -0.0187654551 0.0723001584
  endloop
 endfacet

 facet normal 0 -1 0
  outer loop
  vertex 0.00724561373 -0.0187654551 0.0723001584
  vertex -0.00845051371 -0.0187654551 0.0723001584
  vertex -0.00845051371 -0.0187654551 0.0683736578
  endloop
 endfacet

 facet normal 0 -1 0
  outer loop
  vertex 0.00724561373 -0.0187654551 0.0723001584
  vertex -0.00845051371 -0.0187654551 0.0683736578
  vertex 0.00724561373 -0.0187654551 0.0683736578
  endloop
 endfacet

 facet normal 0.0945509523 -0.99511832 -0.0282813292
  outer loop
  vertex 0.0085528316 -0.0186412502 0.0683736578
  vertex 0.00724561373 -0.0187654551 0.0683736578
  vertex 0.0085528316 -0.0186040867 0.0670659915
  endloop
 endfacet

 facet normal 0.384016693 -0.922953546 -0.0262304023
  outer loop
  vertex 0.0085528316 -0.0186412502 0.0683736578
  vertex 0.0085528316 -0.0186040867 0.0670659915
  vertex 0.00939196348 -0.0182549451 0.0670659915
  endloop
 endfacet

 facet normal 0.383957982 -0.922812581 -0.031516932
  outer loop
  vertex 0.00939196348 -0.0182549451 0.0670659915
  vertex 0.0085528316 -0.0186040867 0.0670659915
  vertex 0.00937864371 -0.0182158258 0.0657583252
  endloop
 endfacet

 facet normal 0.976762652 -0.213700399 -0.0163416211
  outer loop
  vertex 0.00939196348 -0.0182549451 0.0670659915
  vertex 0.00937864371 -0.0182158258 0.0657583252
  vertex 0.00956511684 -0.017363511 0.0657583252
  endloop
 endfacet

 facet normal 0.976557434 -0.213655517 -0.0262099318
  outer loop
  vertex 0.00956511684 -0.017363511 0.0657583252
  vertex 0.00937864371 -0.0182158258 0.0657583252
  vertex 0.00938244909 -0.0169151053 0.0552969985
  endloop
 endfacet

 facet normal 0.976589322 -0.213510722 -0.0262042806
  outer loop
  vertex 0.00956511684 -0.017363511 0.0657583252
  vertex 0.00938244909 -0.0169151053 0.0552969985
  vertex 0.00954037998 -0.0147478869 0.0435245
  endloop
 endfacet

 facet normal 0.980122805 -0.196903631 -0.0242545269
  outer loop
  vertex 0.00956511684 -0.017363511 0.0657583252
  vertex 0.00954037998 -0.0147478869 0.0435245
  vertex 0.00956892315 -0.0160559434 0.0552969985
  endloop
 endfacet

 facet normal 0.98257643 -0.18444632 -0.0228763297
  outer loop
  vertex 0.00956892315 -0.0160559434 0.0552969985
  vertex 0.00954037998 -0.0147478869 0.0435245
  vertex 0.00957082585 -0.0147478869 0.0448321626
  endloop
 endfacet

 facet normal 0.998251557 -0.0543475822 -0.0232412778
  outer loop
  vertex 0.00957082585 -0.0147478869 0.0448321626
  vertex 0.00954037998 -0.0147478869 0.0435245
  vertex 0.00957082585 -0.0137703903 0.0425463766
  endloop
 endfacet

 facet normal 0.999828815 -0.0170106199 -0.00727444654
  outer loop
  vertex 0.00957082585 -0.0147478869 0.0448321626
  vertex 0.00957082585 -0.0137703903 0.0425463766
  vertex 0.00958033931 -0.0147478869 0.0461398326
  endloop
 endfacet

 facet normal 0.999915063 -0.0116615472 -0.00581961265
  outer loop
  vertex 0.00958033931 -0.0147478869 0.0461398326
  vertex 0.00957082585 -0.0137703903 0.0425463766
  vertex 0.00957843661 -0.0137703903 0.0438540466
  endloop
 endfacet

 facet normal 0.0929018185 0.814620972 0.572504938
  outer loop
  vertex 0.00904946029 -0.0154354116 0.0716130286
  vertex 0.00817607902 -0.0153801553 0.0716761276
  vertex 0.0085528316 -0.0165170636 0.0732327029
  endloop
 endfacet

 facet normal 0.0927707553 0.817922235 0.567800045
  outer loop
  vertex 0.00904946029 -0.0154354116 0.0716130286
  vertex 0.0085528316 -0.0137703903 0.0692956895
  vertex 0.00817607902 -0.0153801553 0.0716761276
  endloop
 endfacet

 facet normal 0.0492546968 0.823729396 0.56483978
  outer loop
  vertex 0.0085528316 -0.0137703903 0.0692956895
  vertex 0.00730650313 -0.0137703903 0.0694043636
  vertex 0.00817607902 -0.0153801553 0.0716761276
  endloop
 endfacet

 facet normal 0 0.722450733 0.691422403
  outer loop
  vertex 0.00724561373 -0.0175928473 0.0746174976
  vertex 0.00724561373 -0.0169385746 0.0739338621
  vertex -0.00845051371 -0.0169385746 0.0739338621
  endloop
 endfacet

 facet normal 0 0.722450733 0.691422403
  outer loop
  vertex 0.00724561373 -0.0175928473 0.0746174976
  vertex -0.00845051371 -0.0169385746 0.0739338621
  vertex -0.00845051371 -0.0175928473 0.0746174976
  endloop
 endfacet

 facet normal 0 0 1
  outer loop
  vertex 0.00724561373 -0.0175928473 0.0746174976
  vertex -0.00845051371 -0.0175928473 0.0746174976
  vertex -0.00845051371 -0.0183801278 0.0746174976
  endloop
 endfacet

 facet normal 0 0 1
  outer loop
  vertex 0.00724561373 -0.0175928473 0.0746174976
  vertex -0.00845051371 -0.0183801278 0.0746174976
  vertex 0.00724561373 -0.0183801278 0.0746174976
  endloop
 endfacet

 facet normal 0.0498311967 0.812240243 0.581190765
  outer loop
  vertex 0.00724561373 -0.0169385746 0.0739338621
  vertex 0.0085528316 -0.0165170636 0.0732327029
  vertex 0.00817607902 -0.0153801553 0.0716761276
  endloop
 endfacet

 facet normal 0.0231239796 0.818280697 0.574353695
  outer loop
  vertex 0.00724561373 -0.0169385746 0.0739338621
  vertex 0.00817607902 -0.0153801553 0.0716761276
  vertex 0.00724561373 -0.016480878 0.0732817873
  endloop
 endfacet

 facet normal 0 0.818499506 0.574507236
  outer loop
  vertex 0.00724561373 -0.0169385746 0.0739338621
  vertex 0.00724561373 -0.016480878 0.0732817873
  vertex -0.00845051371 -0.016480878 0.0732817873
  endloop
 endfacet

 facet normal 0 0.818499506 0.574507236
  outer loop
  vertex 0.00724561373 -0.0169385746 0.0739338621
  vertex -0.00845051371 -0.016480878 0.0732817873
  vertex -0.00845051371 -0.0169385746 0.0739338621
  endloop
 endfacet

 facet normal -0.170066267 -0.924049854 0.342358559
  outer loop
  vertex -0.00845051371 -0.0187542085 0.0736078322
  vertex -0.00845051371 -0.0183801278 0.0746174976
  vertex -0.00934672821 -0.0182593465 0.0744983032
  endloop
 endfacet

 facet normal -0.332971215 -0.925726473 0.179334626
  outer loop
  vertex -0.00845051371 -0.0187542085 0.0736078322
  vertex -0.00934672821 -0.0182593465 0.0744983032
  vertex -0.00947421603 -0.018385997 0.0736078322
  endloop
 endfacet

 facet normal -0.338447154 -0.940950632 0.00809297524
  outer loop
  vertex -0.00845051371 -0.0187542085 0.0736078322
  vertex -0.00947421603 -0.018385997 0.0736078322
  vertex -0.00845051371 -0.0187654551 0.0723001584
  endloop
 endfacet

 facet normal -0.341141075 -0.939994812 0.00570669491
  outer loop
  vertex -0.00845051371 -0.0187654551 0.0723001584
  vertex -0.00947421603 -0.018385997 0.0736078322
  vertex -0.00947992411 -0.0183918644 0.0723001584
  endloop
 endfacet

 facet normal -0.341146618 -0.940010071 0
  outer loop
  vertex -0.00845051371 -0.0187654551 0.0723001584
  vertex -0.00947992411 -0.0183918644 0.0723001584
  vertex -0.00947992411 -0.0183918644 0.0683736578
  endloop
 endfacet

 facet normal -0.341146618 -0.940010071 0
  outer loop
  vertex -0.00845051371 -0.0187654551 0.0723001584
  vertex -0.00947992411 -0.0183918644 0.0683736578
  vertex -0.00845051371 -0.0187654551 0.0683736578
  endloop
 endfacet

 facet normal 0 -0.999287546 -0.0377422981
  outer loop
  vertex 0.00724561373 -0.0187654551 0.0683736578
  vertex -0.00845051371 -0.0187654551 0.0683736578
  vertex -0.00845051371 -0.0187160652 0.0670659915
  endloop
 endfacet

 facet normal 0 -0.999287546 -0.0377422981
  outer loop
  vertex 0.00724561373 -0.0187654551 0.0683736578
  vertex -0.00845051371 -0.0187160652 0.0670659915
  vertex 0.00724561373 -0.0187160652 0.0670659915
  endloop
 endfacet

 facet normal 0.0852894709 -0.995646358 -0.0376047716
  outer loop
  vertex 0.00724561373 -0.0187654551 0.0683736578
  vertex 0.00724561373 -0.0187160652 0.0670659915
  vertex 0.0085528316 -0.0186040867 0.0670659915
  endloop
 endfacet

 facet normal 0.0850848407 -0.993257463 -0.0787411034
  outer loop
  vertex 0.0085528316 -0.0186040867 0.0670659915
  vertex 0.00724561373 -0.0187160652 0.0670659915
  vertex 0.0085528316 -0.0185004193 0.0657583252
  endloop
 endfacet

 facet normal 0.259298563 -0.962776601 -0.0763247162
  outer loop
  vertex 0.0085528316 -0.0186040867 0.0670659915
  vertex 0.0085528316 -0.0185004193 0.0657583252
  vertex 0.00923403166 -0.018041255 0.0622805655
  endloop
 endfacet

 facet normal 0.301483661 -0.950976312 -0.0689318329
  outer loop
  vertex 0.0085528316 -0.0186040867 0.0670659915
  vertex 0.00923403166 -0.018041255 0.0622805655
  vertex 0.00928160176 -0.0180886872 0.0631429926
  endloop
 endfacet

 facet normal 0.32592839 -0.943267703 -0.0633780211
  outer loop
  vertex 0.0085528316 -0.0186040867 0.0670659915
  vertex 0.00928160176 -0.0180886872 0.0631429926
  vertex 0.00934058707 -0.018156169 0.0644506589
  endloop
 endfacet

 facet normal 0.355032772 -0.933355212 -0.0529139042
  outer loop
  vertex 0.0085528316 -0.0186040867 0.0670659915
  vertex 0.00934058707 -0.018156169 0.0644506589
  vertex 0.00937864371 -0.0182158258 0.0657583252
  endloop
 endfacet

 facet normal 0.933943212 -0.354780853 -0.04336619
  outer loop
  vertex 0.00937864371 -0.0182158258 0.0657583252
  vertex 0.00934058707 -0.018156169 0.0644506589
  vertex 0.00934819877 -0.0168574024 0.0539893322
  endloop
 endfacet

 facet normal 0.939267099 -0.340638131 -0.0417475589
  outer loop
  vertex 0.00937864371 -0.0182158258 0.0657583252
  vertex 0.00934819877 -0.0168574024 0.0539893322
  vertex 0.00935390685 -0.0155591257 0.0435245
  endloop
 endfacet

 facet normal 0.955999136 -0.29117021 -0.0358552895
  outer loop
  vertex 0.00937864371 -0.0182158258 0.0657583252
  vertex 0.00935390685 -0.0155591257 0.0435245
  vertex 0.00938244909 -0.0169151053 0.0552969985
  endloop
 endfacet

 facet normal 0.960512877 -0.276133567 -0.0341342874
  outer loop
  vertex 0.00938244909 -0.0169151053 0.0552969985
  vertex 0.00935390685 -0.0155591257 0.0435245
  vertex 0.00938435271 -0.0156148719 0.0448321626
  endloop
 endfacet

 facet normal 0.976065278 -0.215839982 -0.0266401097
  outer loop
  vertex 0.00938244909 -0.0169151053 0.0552969985
  vertex 0.00938435271 -0.0156148719 0.0448321626
  vertex 0.00954037998 -0.0147478869 0.0435245
  endloop
 endfacet

 facet normal 0.974078476 -0.22390388 -0.0322235562
  outer loop
  vertex 0.00954037998 -0.0147478869 0.0435245
  vertex 0.00938435271 -0.0156148719 0.0448321626
  vertex 0.00935390685 -0.0155591257 0.0435245
  endloop
 endfacet

 facet normal 0.970930934 -0.223180383 -0.0865086243
  outer loop
  vertex 0.00954037998 -0.0147478869 0.0435245
  vertex 0.00935390685 -0.0155591257 0.0435245
  vertex 0.00929111429 -0.0154857785 0.0426305197
  endloop
 endfacet

 facet normal 0.971652925 -0.218308553 -0.0907311738
  outer loop
  vertex 0.00954037998 -0.0147478869 0.0435245
  vertex 0.00929111429 -0.0154857785 0.0426305197
  vertex 0.00940718595 -0.0147914076 0.0422028117
  endloop
 endfacet

 facet normal 0.978955626 -0.181820005 -0.0926685929
  outer loop
  vertex 0.00954037998 -0.0147478869 0.0435245
  vertex 0.00940718595 -0.0147914076 0.0422028117
  vertex 0.0095042279 -0.0137703903 0.0412246883
  endloop
 endfacet

 facet normal 0.995435536 -0.0811939463 -0.0501581728
  outer loop
  vertex 0.00954037998 -0.0147478869 0.0435245
  vertex 0.0095042279 -0.0137703903 0.0412246883
  vertex 0.00957082585 -0.0137703903 0.0425463766
  endloop
 endfacet

 facet normal 0.0361376703 0.821862876 0.56853807
  outer loop
  vertex 0.00817607902 -0.0153801553 0.0716761276
  vertex 0.00730650313 -0.0137703903 0.0694043636
  vertex 0.00724561373 -0.013799239 0.0694499388
  endloop
 endfacet

 facet normal 0.0220565405 0.819457531 0.572715402
  outer loop
  vertex 0.00817607902 -0.0153801553 0.0716761276
  vertex 0.00724561373 -0.013799239 0.0694499388
  vertex 0.00724561373 -0.0142574273 0.0701055303
  endloop
 endfacet

 facet normal 0.020487871 0.819051385 0.573354363
  outer loop
  vertex 0.00817607902 -0.0153801553 0.0716761276
  vertex 0.00724561373 -0.0142574273 0.0701055303
  vertex 0.00724561373 -0.016480878 0.0732817873
  endloop
 endfacet

 facet normal 0.0325353965 0.82427597 0.565252781
  outer loop
  vertex 0.00730650313 -0.0137703903 0.0694043636
  vertex 0.00724561373 -0.0137703903 0.0694078729
  vertex 0.00724561373 -0.013799239 0.0694499388
  endloop
 endfacet

 facet normal -0.131842166 0 0.99127084
  outer loop
  vertex -0.00845051371 -0.0175928473 0.0746174976
  vertex -0.00934672821 -0.0177346561 0.0744983032
  vertex -0.00934672821 -0.0182593465 0.0744983032
  endloop
 endfacet

 facet normal -0.131842166 0 0.99127084
  outer loop
  vertex -0.00845051371 -0.0175928473 0.0746174976
  vertex -0.00934672821 -0.0182593465 0.0744983032
  vertex -0.00845051371 -0.0183801278 0.0746174976
  endloop
 endfacet

 facet normal -0.202021986 0.707554579 0.677165985
  outer loop
  vertex -0.00845051371 -0.0175928473 0.0746174976
  vertex -0.00845051371 -0.0169385746 0.0739338621
  vertex -0.00934672821 -0.0177346561 0.0744983032
  endloop
 endfacet

 facet normal 0 0.819223285 0.573474765
  outer loop
  vertex 0.00724561373 -0.016480878 0.0732817873
  vertex 0.00724561373 -0.0142574273 0.0701055303
  vertex -0.00714139361 -0.0142574273 0.0701055303
  endloop
 endfacet

 facet normal 0 0.819223285 0.573474765
  outer loop
  vertex 0.00724561373 -0.016480878 0.0732817873
  vertex -0.00714139361 -0.0142574273 0.0701055303
  vertex -0.00845051371 -0.016480878 0.0732817873
  endloop
 endfacet

 facet normal -0.0314903744 0.818093598 0.574222267
  outer loop
  vertex -0.00845051371 -0.0169385746 0.0739338621
  vertex -0.00845051371 -0.016480878 0.0732817873
  vertex -0.00913361646 -0.0153801553 0.0716761276
  endloop
 endfacet

 facet normal -0.193336576 0.779133797 0.596298277
  outer loop
  vertex -0.00845051371 -0.0169385746 0.0739338621
  vertex -0.00913361646 -0.0153801553 0.0716761276
  vertex -0.00927061681 -0.0165571608 0.0731696039
  endloop
 endfacet

 facet normal -0.250574946 0.731610537 0.634001732
  outer loop
  vertex -0.00845051371 -0.0169385746 0.0739338621
  vertex -0.00927061681 -0.0165571608 0.0731696039
  vertex -0.00934672821 -0.0177346561 0.0744983032
  endloop
 endfacet

 facet normal -0.980095387 0 0.198527157
  outer loop
  vertex -0.00934672821 -0.0182593465 0.0744983032
  vertex -0.00934672821 -0.0177346561 0.0744983032
  vertex -0.00979198143 -0.017363511 0.0723001584
  endloop
 endfacet

 facet normal -0.982091427 -0.106093183 0.155694008
  outer loop
  vertex -0.00934672821 -0.0182593465 0.0744983032
  vertex -0.00979198143 -0.017363511 0.0723001584
  vertex -0.00947421603 -0.018385997 0.0736078322
  endloop
 endfacet

 facet normal -0.969235659 -0.241694376 0.046541553
  outer loop
  vertex -0.00947421603 -0.018385997 0.0736078322
  vertex -0.00979198143 -0.017363511 0.0723001584
  vertex -0.00985477399 -0.017363511 0.0709924921
  endloop
 endfacet

 facet normal -0.941791236 -0.336151451 0.00561939739
  outer loop
  vertex -0.00947421603 -0.018385997 0.0736078322
  vertex -0.00985477399 -0.017363511 0.0709924921
  vertex -0.00947992411 -0.0183918644 0.0723001584
  endloop
 endfacet

 facet normal -0.939527988 -0.342472166 0
  outer loop
  vertex -0.00947992411 -0.0183918644 0.0723001584
  vertex -0.00985477399 -0.017363511 0.0709924921
  vertex -0.00985477399 -0.017363511 0.0696813241
  endloop
 endfacet

 facet normal -0.939527988 -0.342472166 0
  outer loop
  vertex -0.00947992411 -0.0183918644 0.0723001584
  vertex -0.00985477399 -0.017363511 0.0696813241
  vertex -0.00947992411 -0.0183918644 0.0683736578
  endloop
 endfacet

 facet normal -0.341068506 -0.939794898 -0.0213969257
  outer loop
  vertex -0.00845051371 -0.0187654551 0.0683736578
  vertex -0.00947992411 -0.0183918644 0.0683736578
  vertex -0.00946660433 -0.0183669254 0.0670659915
  endloop
 endfacet

 facet normal -0.324755639 -0.945124209 -0.0356965885
  outer loop
  vertex -0.00845051371 -0.0187654551 0.0683736578
  vertex -0.00946660433 -0.0183669254 0.0670659915
  vertex -0.00845051371 -0.0187160652 0.0670659915
  endloop
 endfacet

 facet normal 0 -0.995126069 -0.0986119211
  outer loop
  vertex 0.00724561373 -0.0187160652 0.0670659915
  vertex -0.00845051371 -0.0187160652 0.0670659915
  vertex -0.00845051371 -0.0185864829 0.0657583252
  endloop
 endfacet

 facet normal 0 -0.995126069 -0.0986119211
  outer loop
  vertex 0.00724561373 -0.0187160652 0.0670659915
  vertex -0.00845051371 -0.0185864829 0.0657583252
  vertex 0.00724561373 -0.0185864829 0.0657583252
  endloop
 endfacet

 facet normal 0.0653753057 -0.99299711 -0.098400943
  outer loop
  vertex 0.00724561373 -0.0187160652 0.0670659915
  vertex 0.00724561373 -0.0185864829 0.0657583252
  vertex 0.0085528316 -0.0185004193 0.0657583252
  endloop
 endfacet

 facet normal 0.0653232336 -0.992206037 -0.10611394
  outer loop
  vertex 0.0085528316 -0.0185004193 0.0657583252
  vertex 0.00724561373 -0.0185864829 0.0657583252
  vertex 0.0085528316 -0.0183605682 0.0644506589
  endloop
 endfacet

 facet normal 0.126303583 -0.986366749 -0.105489448
  outer loop
  vertex 0.0085528316 -0.0185004193 0.0657583252
  vertex 0.0085528316 -0.0183605682 0.0644506589
  vertex 0.00923403166 -0.018041255 0.0622805655
  endloop
 endfacet

 facet normal 0.106501728 -0.987990916 -0.111944288
  outer loop
  vertex 0.00923403166 -0.018041255 0.0622805655
  vertex 0.0085528316 -0.0183605682 0.0644506589
  vertex 0.0085528316 -0.0182124041 0.0631429926
  endloop
 endfacet

 facet normal 0.0981421769 -0.988084197 -0.118565671
  outer loop
  vertex 0.00923403166 -0.018041255 0.0622805655
  vertex 0.0085528316 -0.0182124041 0.0631429926
  vertex 0.00844437256 -0.0180666838 0.0618388355
  endloop
 endfacet

 facet normal 0.0995481238 -0.987635493 -0.121104836
  outer loop
  vertex 0.00923403166 -0.018041255 0.0622805655
  vertex 0.00844437256 -0.0180666838 0.0618388355
  vertex 0.00851667952 -0.0167723168 0.0513424464
  endloop
 endfacet

 facet normal 0.112734437 -0.986132264 -0.121795237
  outer loop
  vertex 0.00923403166 -0.018041255 0.0622805655
  vertex 0.00851667952 -0.0167723168 0.0513424464
  vertex 0.00924164243 -0.0167405326 0.0517561324
  endloop
 endfacet

 facet normal 0.772963524 -0.629727602 -0.0772694945
  outer loop
  vertex 0.00923403166 -0.018041255 0.0622805655
  vertex 0.00924164243 -0.0167405326 0.0517561324
  vertex 0.00928160176 -0.0180886872 0.0631429926
  endloop
 endfacet

 facet normal 0.788471937 -0.6104756 -0.0750445724
  outer loop
  vertex 0.00928160176 -0.0180886872 0.0631429926
  vertex 0.00924164243 -0.0167405326 0.0517561324
  vertex 0.00929111429 -0.0167904105 0.0526816659
  endloop
 endfacet

 facet normal 0.842468023 -0.534737885 -0.0655962303
  outer loop
  vertex 0.00928160176 -0.0180886872 0.0631429926
  vertex 0.00929111429 -0.0167904105 0.0526816659
  vertex 0.00934058707 -0.018156169 0.0644506589
  endloop
 endfacet

 facet normal 0.852477968 -0.51885587 -0.0637952313
  outer loop
  vertex 0.00934058707 -0.018156169 0.0644506589
  vertex 0.00929111429 -0.0167904105 0.0526816659
  vertex 0.00934819877 -0.0168574024 0.0539893322
  endloop
 endfacet

 facet normal 0.853147209 -0.517758131 -0.0637682229
  outer loop
  vertex 0.00934819877 -0.0168574024 0.0539893322
  vertex 0.00929111429 -0.0167904105 0.0526816659
  vertex 0.00935390685 -0.0155591257 0.0435245
  endloop
 endfacet

 facet normal 0.798317373 -0.597564459 -0.0748750567
  outer loop
  vertex 0.00935390685 -0.0155591257 0.0435245
  vertex 0.00929111429 -0.0167904105 0.0526816659
  vertex 0.00924164243 -0.0167405326 0.0517561324
  endloop
 endfacet

 facet normal 0.587740064 -0.801932693 -0.107077971
  outer loop
  vertex 0.00935390685 -0.0155591257 0.0435245
  vertex 0.00924164243 -0.0167405326 0.0517561324
  vertex 0.00929111429 -0.0154857785 0.0426305197
  endloop
 endfacet

 facet normal 0.147621423 -0.967951 -0.203171581
  outer loop
  vertex 0.00929111429 -0.0154857785 0.0426305197
  vertex 0.0085528316 -0.0157860182 0.0435245
  vertex 0.0085528316 -0.0155586367 0.0424412042
  endloop
 endfacet

 facet normal 0.193623662 -0.8901335 -0.412519425
  outer loop
  vertex 0.00929111429 -0.0154857785 0.0426305197
  vertex 0.0085528316 -0.0155586367 0.0424412042
  vertex 0.0085528316 -0.0152564393 0.0417891257
  endloop
 endfacet

 facet normal 0.246857911 -0.857986152 -0.450467557
  outer loop
  vertex 0.00929111429 -0.0154857785 0.0426305197
  vertex 0.0085528316 -0.0152564393 0.0417891257
  vertex 0.00927208737 -0.0141659845 0.0401063375
  endloop
 endfacet

 facet normal 0.937178314 -0.306193113 -0.167160675
  outer loop
  vertex 0.00929111429 -0.0154857785 0.0426305197
  vertex 0.00927208737 -0.0141659845 0.0401063375
  vertex 0.00935010146 -0.0143654943 0.0409091674
  endloop
 endfacet

 facet normal 0.964530587 -0.235131189 -0.119975105
  outer loop
  vertex 0.00929111429 -0.0154857785 0.0426305197
  vertex 0.00935010146 -0.0143654943 0.0409091674
  vertex 0.00940718595 -0.0147914076 0.0422028117
  endloop
 endfacet

 facet normal 0.232962862 -0.96359092 -0.131229028
  outer loop
  vertex 0.00929111429 -0.0154857785 0.0426305197
  vertex 0.00924164243 -0.0167405326 0.0517561324
  vertex 0.0085528316 -0.0157860182 0.0435245
  endloop
 endfacet

 facet normal 0.97381109 -0.199682742 -0.108713731
  outer loop
  vertex 0.00940718595 -0.0147914076 0.0422028117
  vertex 0.00935010146 -0.0143654943 0.0409091674
  vertex 0.0093805464 -0.0137703903 0.04008881
  endloop
 endfacet

 facet normal 0.975095749 -0.194649965 -0.106299184
  outer loop
  vertex 0.00940718595 -0.0147914076 0.0422028117
  vertex 0.0093805464 -0.0137703903 0.04008881
  vertex 0.00946997758 -0.0137703903 0.0409091674
  endloop
 endfacet

 facet normal 0.975250363 -0.194111228 -0.105866507
  outer loop
  vertex 0.00940718595 -0.0147914076 0.0422028117
  vertex 0.00946997758 -0.0137703903 0.0409091674
  vertex 0.0095042279 -0.0137703903 0.0412246883
  endloop
 endfacet

 facet normal 0 0.824712574 0.565552056
  outer loop
  vertex 0.00724561373 -0.013799239 0.0694499388
  vertex 0.00724561373 -0.0137703903 0.0694078729
  vertex -0.00845051371 -0.0137703903 0.0694078729
  endloop
 endfacet

 facet normal 0 0.824712574 0.565552056
  outer loop
  vertex 0.00724561373 -0.013799239 0.0694499388
  vertex -0.00845051371 -0.0137703903 0.0694078729
  vertex -0.00845051371 -0.013799239 0.0694499388
  endloop
 endfacet

 facet normal 0 0.819656968 0.572854698
  outer loop
  vertex 0.00724561373 -0.013799239 0.0694499388
  vertex -0.00845051371 -0.013799239 0.0694499388
  vertex -0.00714139361 -0.0142574273 0.0701055303
  endloop
 endfacet

 facet normal 0 0.819656968 0.572854698
  outer loop
  vertex 0.00724561373 -0.013799239 0.0694499388
  vertex -0.00714139361 -0.0142574273 0.0701055303
  vertex 0.00724561373 -0.0142574273 0.0701055303
  endloop
 endfacet

 facet normal -0.826888978 0.443552345 0.345710814
  outer loop
  vertex -0.00934672821 -0.0177346561 0.0744983032
  vertex -0.00927061681 -0.0165571608 0.0731696039
  vertex -0.00949895196 -0.0173243918 0.0736078322
  endloop
 endfacet

 facet normal -0.971055627 0.105169676 0.214453459
  outer loop
  vertex -0.00934672821 -0.0177346561 0.0744983032
  vertex -0.00949895196 -0.0173243918 0.0736078322
  vertex -0.00979198143 -0.017363511 0.0723001584
  endloop
 endfacet

 facet normal -0.0276076011 0.818970323 0.573171496
  outer loop
  vertex -0.00845051371 -0.016480878 0.0732817873
  vertex -0.00845051371 -0.0153693976 0.0716936588
  vertex -0.00913361646 -0.0153801553 0.0716761276
  endloop
 endfacet

 facet normal -0.000306190166 0.819282532 0.573389947
  outer loop
  vertex -0.00845051371 -0.016480878 0.0732817873
  vertex -0.00714139361 -0.0142574273 0.0701055303
  vertex -0.00845051371 -0.0153693976 0.0716936588
  endloop
 endfacet

 facet normal -0.0276070721 0.818995833 0.573135138
  outer loop
  vertex -0.00913361646 -0.0153801553 0.0716761276
  vertex -0.00845051371 -0.0153693976 0.0716936588
  vertex -0.00845051371 -0.013799239 0.0694499388
  endloop
 endfacet

 facet normal -0.0654096082 0.822946489 0.564341068
  outer loop
  vertex -0.00913361646 -0.0153801553 0.0716761276
  vertex -0.00845051371 -0.013799239 0.0694499388
  vertex -0.00845051371 -0.0137703903 0.0694078729
  endloop
 endfacet

 facet normal -0.174668774 0.827029407 0.534334362
  outer loop
  vertex -0.00913361646 -0.0153801553 0.0716761276
  vertex -0.00845051371 -0.0137703903 0.0694078729
  vertex -0.00915835239 -0.0137703903 0.0691764876
  endloop
 endfacet

 facet normal -0.231418177 0.8168751 0.528356612
  outer loop
  vertex -0.00913361646 -0.0153801553 0.0716761276
  vertex -0.00915835239 -0.0137703903 0.0691764876
  vertex -0.00930296443 -0.013897527 0.0693097115
  endloop
 endfacet

 facet normal -0.630164087 0.636898875 0.444131851
  outer loop
  vertex -0.00913361646 -0.0153801553 0.0716761276
  vertex -0.00930296443 -0.013897527 0.0693097115
  vertex -0.00927061681 -0.0165571608 0.0731696039
  endloop
 endfacet

 facet normal -0.853569627 0.425629497 0.300430357
  outer loop
  vertex -0.00927061681 -0.0165571608 0.0731696039
  vertex -0.00930296443 -0.013897527 0.0693097115
  vertex -0.00949895196 -0.0173243918 0.0736078322
  endloop
 endfacet

 facet normal -0.939925611 0.274907678 0.202399954
  outer loop
  vertex -0.00979198143 -0.017363511 0.0723001584
  vertex -0.00949895196 -0.0173243918 0.0736078322
  vertex -0.0096911341 -0.0160559434 0.0709924921
  endloop
 endfacet

 facet normal -0.960503101 0.230292961 0.156201601
  outer loop
  vertex -0.00979198143 -0.017363511 0.0723001584
  vertex -0.0096911341 -0.0160559434 0.0709924921
  vertex -0.00980339851 -0.0147478869 0.0683736578
  endloop
 endfacet

 facet normal -0.987656832 0.129017636 0.0888163596
  outer loop
  vertex -0.00979198143 -0.017363511 0.0723001584
  vertex -0.00980339851 -0.0147478869 0.0683736578
  vertex -0.00985667668 -0.0160559434 0.0696813241
  endloop
 endfacet

 facet normal -0.997764349 0.0465919003 0.0479114652
  outer loop
  vertex -0.00979198143 -0.017363511 0.0723001584
  vertex -0.00985667668 -0.0160559434 0.0696813241
  vertex -0.00985477399 -0.017363511 0.0709924921
  endloop
 endfacet

 facet normal -0.999998987 -0.00145495171 0
  outer loop
  vertex -0.00985477399 -0.017363511 0.0709924921
  vertex -0.00985667668 -0.0160559434 0.0696813241
  vertex -0.00985477399 -0.017363511 0.0696813241
  endloop
 endfacet

 facet normal -0.940085769 -0.340935409 -0.00136838341
  outer loop
  vertex -0.00947992411 -0.0183918644 0.0683736578
  vertex -0.00985477399 -0.017363511 0.0696813241
  vertex -0.0098528713 -0.017363511 0.0683736578
  endloop
 endfacet

 facet normal -0.939980209 -0.340897143 -0.0150455348
  outer loop
  vertex -0.00947992411 -0.0183918644 0.0683736578
  vertex -0.0098528713 -0.017363511 0.0683736578
  vertex -0.00983193982 -0.017363511 0.0670659915
  endloop
 endfacet

 facet normal -0.939534009 -0.342077583 -0.0160939414
  outer loop
  vertex -0.00947992411 -0.0183918644 0.0683736578
  vertex -0.00983193982 -0.017363511 0.0670659915
  vertex -0.00946660433 -0.0183669254 0.0670659915
  endloop
 endfacet

 facet normal -0.939230859 -0.341967225 -0.0300664715
  outer loop
  vertex -0.00946660433 -0.0183669254 0.0670659915
  vertex -0.00983193982 -0.017363511 0.0670659915
  vertex -0.00979007967 -0.017363511 0.0657583252
  endloop
 endfacet

 facet normal -0.93487066 -0.352789849 -0.0394496284
  outer loop
  vertex -0.00946660433 -0.0183669254 0.0670659915
  vertex -0.00979007967 -0.017363511 0.0657583252
  vertex -0.00973489881 -0.017363511 0.0644506589
  endloop
 endfacet

 facet normal -0.930678606 -0.363197654 -0.0438727885
  outer loop
  vertex -0.00946660433 -0.0183669254 0.0670659915
  vertex -0.00973489881 -0.017363511 0.0644506589
  vertex -0.00975202397 -0.0160559434 0.0539893322
  endloop
 endfacet

 facet normal -0.927567124 -0.370900124 -0.0453019328
  outer loop
  vertex -0.00946660433 -0.0183669254 0.0670659915
  vertex -0.00975202397 -0.0160559434 0.0539893322
  vertex -0.00942854863 -0.0183023773 0.0657583252
  endloop
 endfacet

 facet normal -0.324451864 -0.944240093 -0.056050282
  outer loop
  vertex -0.00946660433 -0.0183669254 0.0670659915
  vertex -0.00942854863 -0.0183023773 0.0657583252
  vertex -0.00845051371 -0.0187160652 0.0670659915
  endloop
 endfacet

 facet normal -0.303907096 -0.949885249 -0.0732021034
  outer loop
  vertex -0.00845051371 -0.0187160652 0.0670659915
  vertex -0.00942854863 -0.0183023773 0.0657583252
  vertex -0.009365757 -0.0182216931 0.0644506589
  endloop
 endfacet

 facet normal -0.293887228 -0.952714026 -0.0772433206
  outer loop
  vertex -0.00845051371 -0.0187160652 0.0670659915
  vertex -0.009365757 -0.0182216931 0.0644506589
  vertex -0.00928203389 -0.0181414988 0.0631429926
  endloop
 endfacet

 facet normal -0.275179327 -0.957892358 -0.0819670707
  outer loop
  vertex -0.00845051371 -0.0187160652 0.0670659915
  vertex -0.00928203389 -0.0181414988 0.0631429926
  vertex -0.00917167217 -0.0180613045 0.0618353263
  endloop
 endfacet

 facet normal -0.263484478 -0.961002231 -0.0839687288
  outer loop
  vertex -0.00845051371 -0.0187160652 0.0670659915
  vertex -0.00917167217 -0.0180613045 0.0618353263
  vertex -0.00910697691 -0.0180202294 0.0611622147
  endloop
 endfacet

 facet normal -0.165643975 -0.981378973 -0.0972496569
  outer loop
  vertex -0.00845051371 -0.0187160652 0.0670659915
  vertex -0.00910697691 -0.0180202294 0.0611622147
  vertex -0.00845051371 -0.0185864829 0.0657583252
  endloop
 endfacet

 facet normal 0 -0.992561996 -0.121740364
  outer loop
  vertex 0.00724561373 -0.0185864829 0.0657583252
  vertex -0.00845051371 -0.0185864829 0.0657583252
  vertex -0.00845051371 -0.0184260942 0.0644506589
  endloop
 endfacet

 facet normal 0 -0.992561996 -0.121740364
  outer loop
  vertex 0.00724561373 -0.0185864829 0.0657583252
  vertex -0.00845051371 -0.0184260942 0.0644506589
  vertex 0.00724561373 -0.0184260942 0.0644506589
  endloop
 endfacet

 facet normal 0.00363323139 -0.99255538 -0.121739537
  outer loop
  vertex 0.00724561373 -0.0185864829 0.0657583252
  vertex 0.00724561373 -0.0184260942 0.0644506589
  vertex 0.00793632679 -0.0180202294 0.0611622147
  endloop
 endfacet

 facet normal 0.0562729947 -0.991914511 -0.113749772
  outer loop
  vertex 0.00724561373 -0.0185864829 0.0657583252
  vertex 0.00793632679 -0.0180202294 0.0611622147
  vertex 0.0085528316 -0.0182124041 0.0631429926
  endloop
 endfacet

 facet normal 0.0589956045 -0.991911411 -0.112388492
  outer loop
  vertex 0.00724561373 -0.0185864829 0.0657583252
  vertex 0.0085528316 -0.0182124041 0.0631429926
  vertex 0.0085528316 -0.0183605682 0.0644506589
  endloop
 endfacet

 facet normal 0.0639504641 -0.99118036 -0.11606811
  outer loop
  vertex 0.0085528316 -0.0182124041 0.0631429926
  vertex 0.00793632679 -0.0180202294 0.0611622147
  vertex 0.00844437256 -0.0180666838 0.0618388355
  endloop
 endfacet

 facet normal 0.071333304 -0.99002099 -0.121531978
  outer loop
  vertex 0.00844437256 -0.0180666838 0.0618388355
  vertex 0.00793632679 -0.0180202294 0.0611622147
  vertex 0.0080581056 -0.0167195071 0.0506377816
  endloop
 endfacet

 facet normal 0.072809048 -0.989909053 -0.121569403
  outer loop
  vertex 0.00844437256 -0.0180666838 0.0618388355
  vertex 0.0080581056 -0.0167195071 0.0506377816
  vertex 0.00851667952 -0.0167723168 0.0513424464
  endloop
 endfacet

 facet normal 0.0773001835 -0.989211619 -0.124439813
  outer loop
  vertex 0.00851667952 -0.0167723168 0.0513424464
  vertex 0.0080581056 -0.0167195071 0.0506377816
  vertex 0.0085528316 -0.0157860182 0.0435245
  endloop
 endfacet

 facet normal 0.113880649 -0.985746622 -0.123833522
  outer loop
  vertex 0.00851667952 -0.0167723168 0.0513424464
  vertex 0.0085528316 -0.0157860182 0.0435245
  vertex 0.00924164243 -0.0167405326 0.0517561324
  endloop
 endfacet

 facet normal 0.0533584654 -0.990558445 -0.126281694
  outer loop
  vertex 0.0085528316 -0.0157860182 0.0435245
  vertex 0.0080581056 -0.0167195071 0.0506377816
  vertex 0.00724561373 -0.0158564337 0.0435245
  endloop
 endfacet

 facet normal 0.0526451617 -0.977316439 -0.205137357
  outer loop
  vertex 0.0085528316 -0.0157860182 0.0435245
  vertex 0.00724561373 -0.0158564337 0.0435245
  vertex 0.0085528316 -0.0155586367 0.0424412042
  endloop
 endfacet

 facet normal 0.0401937924 -0.929928243 -0.365537882
  outer loop
  vertex 0.0085528316 -0.0155586367 0.0424412042
  vertex 0.00724561373 -0.015588955 0.042374596
  vertex 0.00724561373 -0.0153312543 0.0417190082
  endloop
 endfacet

 facet normal 0.0742754415 -0.904797196 -0.4193151
  outer loop
  vertex 0.0085528316 -0.0155586367 0.0424412042
  vertex 0.00724561373 -0.0153312543 0.0417190082
  vertex 0.0085528316 -0.0152564393 0.0417891257
  endloop
 endfacet

 facet normal 0.0341145024 -0.973429859 -0.226430029
  outer loop
  vertex 0.0085528316 -0.0155586367 0.0424412042
  vertex 0.00724561373 -0.0158564337 0.0435245
  vertex 0.00724561373 -0.015588955 0.042374596
  endloop
 endfacet

 facet normal 0.0755629689 -0.878940284 -0.470907867
  outer loop
  vertex 0.0085528316 -0.0152564393 0.0417891257
  vertex 0.00724561373 -0.0153312543 0.0417190082
  vertex 0.00724561373 -0.0137703903 0.0388056859
  endloop
 endfacet

 facet normal 0.0975747034 -0.873114586 -0.477650732
  outer loop
  vertex 0.0085528316 -0.0152564393 0.0417891257
  vertex 0.00724561373 -0.0137703903 0.0388056859
  vertex 0.00813802332 -0.0137703903 0.0389879867
  endloop
 endfacet

 facet normal 0.109171599 -0.871320605 -0.478416264
  outer loop
  vertex 0.0085528316 -0.0152564393 0.0417891257
  vertex 0.00813802332 -0.0137703903 0.0389879867
  vertex 0.0085528316 -0.0137703903 0.0390826426
  endloop
 endfacet

 facet normal 0.198845729 -0.859055698 -0.471681982
  outer loop
  vertex 0.0085528316 -0.0152564393 0.0417891257
  vertex 0.0085528316 -0.0137703903 0.0390826426
  vertex 0.00927208737 -0.0141659845 0.0401063375
  endloop
 endfacet

 facet normal 0.602673173 -0.504396379 -0.618360221
  outer loop
  vertex 0.00927208737 -0.0141659845 0.0401063375
  vertex 0.0085528316 -0.0137703903 0.0390826426
  vertex 0.00934058707 -0.0137703903 0.0398504138
  endloop
 endfacet

 facet normal 0.950275302 -0.267592609 -0.159283131
  outer loop
  vertex 0.00927208737 -0.0141659845 0.0401063375
  vertex 0.00934058707 -0.0137703903 0.0398504138
  vertex 0.0093805464 -0.0137703903 0.04008881
  endloop
 endfacet

 facet normal 0.9503479 -0.267593235 -0.158848047
  outer loop
  vertex 0.00927208737 -0.0141659845 0.0401063375
  vertex 0.0093805464 -0.0137703903 0.04008881
  vertex 0.00935010146 -0.0143654943 0.0409091674
  endloop
 endfacet

 facet normal -0.000371950649 0.819307923 0.573353589
  outer loop
  vertex -0.00845051371 -0.013799239 0.0694499388
  vertex -0.00845051371 -0.0153693976 0.0716936588
  vertex -0.00714139361 -0.0142574273 0.0701055303
  endloop
 endfacet

 facet normal -0.870227039 0.403781116 0.282251239
  outer loop
  vertex -0.00949895196 -0.0173243918 0.0736078322
  vertex -0.00930296443 -0.013897527 0.0693097115
  vertex -0.00933721475 -0.0137703903 0.0690222308
  endloop
 endfacet

 facet normal -0.88514185 0.382389396 0.265145838
  outer loop
  vertex -0.00949895196 -0.0173243918 0.0736078322
  vertex -0.00933721475 -0.0137703903 0.0690222308
  vertex -0.00952368882 -0.0146857845 0.0697198883
  endloop
 endfacet

 facet normal -0.921166182 0.319266081 0.222535461
  outer loop
  vertex -0.00949895196 -0.0173243918 0.0736078322
  vertex -0.00952368882 -0.0146857845 0.0697198883
  vertex -0.0096911341 -0.0160559434 0.0709924921
  endloop
 endfacet

 facet normal -0.356264472 0.838107944 0.413099021
  outer loop
  vertex -0.00915835239 -0.0137703903 0.0691764876
  vertex -0.00933721475 -0.0137703903 0.0690222308
  vertex -0.00930296443 -0.013897527 0.0693097115
  endloop
 endfacet

 facet normal -0.941171348 0.284458607 0.182427585
  outer loop
  vertex -0.0096911341 -0.0160559434 0.0709924921
  vertex -0.00952368882 -0.0146857845 0.0697198883
  vertex -0.00980339851 -0.0147478869 0.0683736578
  endloop
 endfacet

 facet normal -0.940480947 0.286895514 0.182171747
  outer loop
  vertex -0.00980339851 -0.0147478869 0.0683736578
  vertex -0.00952368882 -0.0146857845 0.0697198883
  vertex -0.00951607712 -0.0137703903 0.0683175623
  endloop
 endfacet

 facet normal -0.946706355 0.286695987 0.146808311
  outer loop
  vertex -0.00980339851 -0.0147478869 0.0683736578
  vertex -0.00951607712 -0.0137703903 0.0683175623
  vertex -0.00971016195 -0.0137703903 0.0670659915
  endloop
 endfacet

 facet normal -0.994466543 0.104790732 0.0074268803
  outer loop
  vertex -0.00980339851 -0.0147478869 0.0683736578
  vertex -0.00971016195 -0.0137703903 0.0670659915
  vertex -0.00985667668 -0.0137703903 0.0474474989
  endloop
 endfacet

 facet normal -0.998960376 0.0453488342 0.00466168951
  outer loop
  vertex -0.00980339851 -0.0147478869 0.0683736578
  vertex -0.00985667668 -0.0137703903 0.0474474989
  vertex -0.00985667668 -0.0160559434 0.0696813241
  endloop
 endfacet

 facet normal -1 0 0
  outer loop
  vertex -0.00985667668 -0.0160559434 0.0696813241
  vertex -0.00985667668 -0.0137703903 0.0474474989
  vertex -0.00985667668 -0.0147478869 0.0474474989
  endloop
 endfacet

 facet normal -0.999998987 -0.00145495171 -8.55975013e-05
  outer loop
  vertex -0.00985667668 -0.0160559434 0.0696813241
  vertex -0.00985667668 -0.0147478869 0.0474474989
  vertex -0.00985477399 -0.017363511 0.0696813241
  endloop
 endfacet

 facet normal -0.999913156 -0.0130993193 -0.00145546789
  outer loop
  vertex -0.00985477399 -0.017363511 0.0696813241
  vertex -0.00985667668 -0.0147478869 0.0474474989
  vertex -0.0098528713 -0.017363511 0.0683736578
  endloop
 endfacet

 facet normal -0.998832226 -0.0479625687 -0.00581332762
  outer loop
  vertex -0.0098528713 -0.017363511 0.0683736578
  vertex -0.00985667668 -0.0147478869 0.0474474989
  vertex -0.00984906591 -0.0147478869 0.0461398326
  endloop
 endfacet

 facet normal -0.997328162 -0.0725316703 -0.00870342087
  outer loop
  vertex -0.0098528713 -0.017363511 0.0683736578
  vertex -0.00984906591 -0.0147478869 0.0461398326
  vertex -0.00984526053 -0.0160559434 0.0566046648
  endloop
 endfacet

 facet normal -0.990454316 -0.136926636 -0.0158534329
  outer loop
  vertex -0.0098528713 -0.017363511 0.0683736578
  vertex -0.00984526053 -0.0160559434 0.0566046648
  vertex -0.00983193982 -0.017363511 0.0670659915
  endloop
 endfacet

 facet normal -0.976379275 -0.214545071 -0.0255729333
  outer loop
  vertex -0.00983193982 -0.017363511 0.0670659915
  vertex -0.00984526053 -0.0160559434 0.0566046648
  vertex -0.00981101021 -0.0160559434 0.0552969985
  endloop
 endfacet

 facet normal -0.964452207 -0.262447864 -0.0308738519
  outer loop
  vertex -0.00983193982 -0.017363511 0.0670659915
  vertex -0.00981101021 -0.0160559434 0.0552969985
  vertex -0.00979007967 -0.017363511 0.0657583252
  endloop
 endfacet

 facet normal -0.942045152 -0.333122671 -0.0397523716
  outer loop
  vertex -0.00979007967 -0.017363511 0.0657583252
  vertex -0.00981101021 -0.0160559434 0.0552969985
  vertex -0.00973489881 -0.017363511 0.0644506589
  endloop
 endfacet

 facet normal -0.935804605 -0.349982589 -0.0422126353
  outer loop
  vertex -0.00973489881 -0.017363511 0.0644506589
  vertex -0.00981101021 -0.0160559434 0.0552969985
  vertex -0.00975202397 -0.0160559434 0.0539893322
  endloop
 endfacet

 facet normal -0.937585056 -0.34517467 -0.0422929451
  outer loop
  vertex -0.00975202397 -0.0160559434 0.0539893322
  vertex -0.00981101021 -0.0160559434 0.0552969985
  vertex -0.00976153649 -0.0147478869 0.0435245
  endloop
 endfacet

 facet normal -0.927870691 -0.370125771 -0.0454205535
  outer loop
  vertex -0.00975202397 -0.0160559434 0.0539893322
  vertex -0.00976153649 -0.0147478869 0.0435245
  vertex -0.0094418684 -0.0157097373 0.0448321626
  endloop
 endfacet

 facet normal -0.927489161 -0.371077955 -0.0454436317
  outer loop
  vertex -0.00975202397 -0.0160559434 0.0539893322
  vertex -0.0094418684 -0.0157097373 0.0448321626
  vertex -0.00943616033 -0.0170055684 0.0552969985
  endloop
 endfacet

 facet normal -0.927563071 -0.370910227 -0.0453039631
  outer loop
  vertex -0.00975202397 -0.0160559434 0.0539893322
  vertex -0.00943616033 -0.0170055684 0.0552969985
  vertex -0.00942854863 -0.0183023773 0.0657583252
  endloop
 endfacet

 facet normal -0.81852591 -0.57017839 -0.0700850263
  outer loop
  vertex -0.00942854863 -0.0183023773 0.0657583252
  vertex -0.00943616033 -0.0170055684 0.0552969985
  vertex -0.00938668661 -0.0156295411 0.0435245
  endloop
 endfacet

 facet normal -0.789017677 -0.609800935 -0.074792698
  outer loop
  vertex -0.00942854863 -0.0183023773 0.0657583252
  vertex -0.00938668661 -0.0156295411 0.0435245
  vertex -0.00937717408 -0.0169253722 0.0539893322
  endloop
 endfacet

 facet normal -0.782674253 -0.617810965 -0.0757021978
  outer loop
  vertex -0.00942854863 -0.0183023773 0.0657583252
  vertex -0.00937717408 -0.0169253722 0.0539893322
  vertex -0.009365757 -0.0182216931 0.0644506589
  endloop
 endfacet

 facet normal -0.698400676 -0.710367322 -0.0872633308
  outer loop
  vertex -0.009365757 -0.0182216931 0.0644506589
  vertex -0.00937717408 -0.0169253722 0.0539893322
  vertex -0.00929535367 -0.0168451779 0.0526816659
  endloop
 endfacet

 facet normal -0.689269006 -0.719112992 -0.0882316083
  outer loop
  vertex -0.009365757 -0.0182216931 0.0644506589
  vertex -0.00929535367 -0.0168451779 0.0526816659
  vertex -0.00928203389 -0.0181414988 0.0631429926
  endloop
 endfacet

 facet normal -0.600315511 -0.79378581 -0.0975980014
  outer loop
  vertex -0.00928203389 -0.0181414988 0.0631429926
  vertex -0.00929535367 -0.0168451779 0.0526816659
  vertex -0.00918879732 -0.0167649817 0.0513740033
  endloop
 endfacet

 facet normal -0.585425794 -0.804688752 -0.0987552479
  outer loop
  vertex -0.00928203389 -0.0181414988 0.0631429926
  vertex -0.00918879732 -0.0167649817 0.0513740033
  vertex -0.00917167217 -0.0180613045 0.0618353263
  endloop
 endfacet

 facet normal -0.545862436 -0.831623733 -0.102157682
  outer loop
  vertex -0.00917167217 -0.0180613045 0.0618353263
  vertex -0.00918879732 -0.0167649817 0.0513740033
  vertex -0.00912029576 -0.0167195071 0.0506377816
  endloop
 endfacet

 facet normal -0.537688136 -0.836859882 -0.102747634
  outer loop
  vertex -0.00917167217 -0.0180613045 0.0618353263
  vertex -0.00912029576 -0.0167195071 0.0506377816
  vertex -0.00910697691 -0.0180202294 0.0611622147
  endloop
 endfacet

 facet normal -0.00343125849 -0.992546737 -0.121816635
  outer loop
  vertex -0.00910697691 -0.0180202294 0.0611622147
  vertex -0.00845051371 -0.0180212073 0.0611516945
  vertex -0.00845051371 -0.0184260942 0.0644506589
  endloop
 endfacet

 facet normal -0.00382278673 -0.992554665 -0.121739462
  outer loop
  vertex -0.00910697691 -0.0180202294 0.0611622147
  vertex -0.00845051371 -0.0184260942 0.0644506589
  vertex -0.00845051371 -0.0185864829 0.0657583252
  endloop
 endfacet

 facet normal -0.0234788787 -0.992179215 -0.122594401
  outer loop
  vertex -0.00910697691 -0.0180202294 0.0611622147
  vertex -0.00912029576 -0.0167195071 0.0506377816
  vertex -0.00845051371 -0.0158564337 0.0435245
  endloop
 endfacet

 facet normal -0.00924776401 -0.992474556 -0.122100964
  outer loop
  vertex -0.00910697691 -0.0180202294 0.0611622147
  vertex -0.00845051371 -0.0158564337 0.0435245
  vertex -0.00845051371 -0.0160173122 0.0448321626
  endloop
 endfacet

 facet normal -0.00343218516 -0.992539525 -0.121875137
  outer loop
  vertex -0.00910697691 -0.0180202294 0.0611622147
  vertex -0.00845051371 -0.0160173122 0.0448321626
  vertex -0.00845051371 -0.0180212073 0.0611516945
  endloop
 endfacet

 facet normal 0 -0.992552519 -0.12181735
  outer loop
  vertex 0.00724561373 -0.0184260942 0.0644506589
  vertex -0.00845051371 -0.0184260942 0.0644506589
  vertex -0.00845051371 -0.0180212073 0.0611516945
  endloop
 endfacet

 facet normal 0 -0.992552519 -0.12181735
  outer loop
  vertex 0.00724561373 -0.0184260942 0.0644506589
  vertex -0.00845051371 -0.0180212073 0.0611516945
  vertex 0.00724561373 -0.0180212073 0.0611516945
  endloop
 endfacet

 facet normal 0.0032611168 -0.992547274 -0.12181671
  outer loop
  vertex 0.00724561373 -0.0184260942 0.0644506589
  vertex 0.00724561373 -0.0180212073 0.0611516945
  vertex 0.00793632679 -0.0180202294 0.0611622147
  endloop
 endfacet

 facet normal 0.00326199806 -0.992540181 -0.121875219
  outer loop
  vertex 0.00793632679 -0.0180202294 0.0611622147
  vertex 0.00724561373 -0.0180212073 0.0611516945
  vertex 0.00724561373 -0.0160173122 0.0448321626
  endloop
 endfacet

 facet normal 0.00878923945 -0.992478728 -0.122101471
  outer loop
  vertex 0.00793632679 -0.0180202294 0.0611622147
  vertex 0.00724561373 -0.0160173122 0.0448321626
  vertex 0.00724561373 -0.0158564337 0.0435245
  endloop
 endfacet

 facet normal 0.017813243 -0.992316663 -0.122434989
  outer loop
  vertex 0.00793632679 -0.0180202294 0.0611622147
  vertex 0.00724561373 -0.0158564337 0.0435245
  vertex 0.0080581056 -0.0167195071 0.0506377816
  endloop
 endfacet

 facet normal 0 -0.992516994 -0.12210618
  outer loop
  vertex 0.00724561373 -0.0158564337 0.0435245
  vertex 0.00724561373 -0.0160173122 0.0448321626
  vertex -0.00845051371 -0.0160173122 0.0448321626
  endloop
 endfacet

 facet normal 0 -0.992516994 -0.12210618
  outer loop
  vertex 0.00724561373 -0.0158564337 0.0435245
  vertex -0.00845051371 -0.0160173122 0.0448321626
  vertex -0.00845051371 -0.0158564337 0.0435245
  endloop
 endfacet

 facet normal 0 -0.973996818 -0.226561904
  outer loop
  vertex 0.00724561373 -0.0158564337 0.0435245
  vertex -0.00845051371 -0.0158564337 0.0435245
  vertex -0.00845051371 -0.015588955 0.042374596
  endloop
 endfacet

 facet normal 0 -0.973996818 -0.226561904
  outer loop
  vertex 0.00724561373 -0.0158564337 0.0435245
  vertex -0.00845051371 -0.015588955 0.042374596
  vertex 0.00724561373 -0.015588955 0.042374596
  endloop
 endfacet

 facet normal 0 -0.931152761 -0.364629477
  outer loop
  vertex 0.00724561373 -0.015588955 0.042374596
  vertex -0.00845051371 -0.015588955 0.042374596
  vertex -0.00583417574 -0.0153322332 0.0417190082
  endloop
 endfacet

 facet normal 0 -0.931152761 -0.364629477
  outer loop
  vertex 0.00724561373 -0.015588955 0.042374596
  vertex -0.00583417574 -0.0153322332 0.0417190082
  vertex 0.00593649363 -0.0153322332 0.0417190082
  endloop
 endfacet

 facet normal 0.00069564546 -0.930680037 -0.365833431
  outer loop
  vertex 0.00724561373 -0.015588955 0.042374596
  vertex 0.00593649363 -0.0153322332 0.0417190082
  vertex 0.00724561373 -0.0153312543 0.0417190082
  endloop
 endfacet

 facet normal 0.000658940291 -0.881573439 -0.472046554
  outer loop
  vertex 0.00724561373 -0.0153312543 0.0417190082
  vertex 0.00593649363 -0.0153322332 0.0417190082
  vertex 0.00593649363 -0.0137703903 0.0388021767
  endloop
 endfacet

 facet normal 0.0012650101 -0.881459653 -0.472257674
  outer loop
  vertex 0.00724561373 -0.0153312543 0.0417190082
  vertex 0.00593649363 -0.0137703903 0.0388021767
  vertex 0.00724561373 -0.0137703903 0.0388056859
  endloop
 endfacet

 facet normal -0.904555917 0.359252959 0.229599446
  outer loop
  vertex -0.00933721475 -0.0137703903 0.0690222308
  vertex -0.00951607712 -0.0137703903 0.0683175623
  vertex -0.00952368882 -0.0146857845 0.0697198883
  endloop
 endfacet

 facet normal -0.999998987 0 -0.00145484321
  outer loop
  vertex -0.00985667668 -0.0137703903 0.0474474989
  vertex -0.00985477399 -0.0137703903 0.0461398326
  vertex -0.00985667668 -0.0147478869 0.0474474989
  endloop
 endfacet

 facet normal -0.999966025 -0.00584051292 -0.00582065387
  outer loop
  vertex -0.00985667668 -0.0147478869 0.0474474989
  vertex -0.00985477399 -0.0137703903 0.0461398326
  vertex -0.00984716229 -0.0137703903 0.0448321626
  endloop
 endfacet

 facet normal -0.999966025 -0.00583856553 -0.00581992604
  outer loop
  vertex -0.00985667668 -0.0147478869 0.0474474989
  vertex -0.00984716229 -0.0137703903 0.0448321626
  vertex -0.00984906591 -0.0147478869 0.0461398326
  endloop
 endfacet

 facet normal -0.999839485 -0.0136235822 -0.0116391247
  outer loop
  vertex -0.00984906591 -0.0147478869 0.0461398326
  vertex -0.00984716229 -0.0137703903 0.0448321626
  vertex -0.00983193982 -0.0137703903 0.0435245
  endloop
 endfacet

 facet normal -0.998729169 -0.0447146669 -0.0232523289
  outer loop
  vertex -0.00984906591 -0.0147478869 0.0461398326
  vertex -0.00983193982 -0.0137703903 0.0435245
  vertex -0.00981862098 -0.0147478869 0.0448321626
  endloop
 endfacet

 facet normal -0.982316434 -0.185826406 -0.0228702109
  outer loop
  vertex -0.00984906591 -0.0147478869 0.0461398326
  vertex -0.00981862098 -0.0147478869 0.0448321626
  vertex -0.00984526053 -0.0160559434 0.0566046648
  endloop
 endfacet

 facet normal -0.977266729 -0.210462928 -0.0255961791
  outer loop
  vertex -0.00984526053 -0.0160559434 0.0566046648
  vertex -0.00981862098 -0.0147478869 0.0448321626
  vertex -0.00981101021 -0.0160559434 0.0552969985
  endloop
 endfacet

 facet normal -0.941565931 -0.334311754 -0.0411026888
  outer loop
  vertex -0.00981101021 -0.0160559434 0.0552969985
  vertex -0.00981862098 -0.0147478869 0.0448321626
  vertex -0.00976153649 -0.0147478869 0.0435245
  endloop
 endfacet

 facet normal -0.996472299 -0.0717700198 -0.0434995443
  outer loop
  vertex -0.00976153649 -0.0147478869 0.0435245
  vertex -0.00981862098 -0.0147478869 0.0448321626
  vertex -0.00983193982 -0.0137703903 0.0435245
  endloop
 endfacet

 facet normal -0.996434808 -0.0717673078 -0.044352334
  outer loop
  vertex -0.00976153649 -0.0147478869 0.0435245
  vertex -0.00983193982 -0.0137703903 0.0435245
  vertex -0.00977295451 -0.0137703903 0.0421993062
  endloop
 endfacet

 facet normal -0.986089945 -0.137705788 -0.093079403
  outer loop
  vertex -0.00976153649 -0.0147478869 0.0435245
  vertex -0.00977295451 -0.0137703903 0.0421993062
  vertex -0.00965117477 -0.0137703903 0.0409091674
  endloop
 endfacet

 facet normal -0.939211786 -0.306726158 -0.154273674
  outer loop
  vertex -0.00976153649 -0.0147478869 0.0435245
  vertex -0.00965117477 -0.0137703903 0.0409091674
  vertex -0.00950466003 -0.0148432394 0.0421502255
  endloop
 endfacet

 facet normal -0.910768449 -0.387227982 -0.143371582
  outer loop
  vertex -0.00976153649 -0.0147478869 0.0435245
  vertex -0.00950466003 -0.0148432394 0.0421502255
  vertex -0.00938668661 -0.0156295411 0.0435245
  endloop
 endfacet

 facet normal -0.91846478 -0.390500158 -0.0627062395
  outer loop
  vertex -0.00976153649 -0.0147478869 0.0435245
  vertex -0.00938668661 -0.0156295411 0.0435245
  vertex -0.0094418684 -0.0157097373 0.0448321626
  endloop
 endfacet

 facet normal -0.823441267 -0.563155591 -0.0692848265
  outer loop
  vertex -0.0094418684 -0.0157097373 0.0448321626
  vertex -0.00938668661 -0.0156295411 0.0435245
  vertex -0.00943616033 -0.0170055684 0.0552969985
  endloop
 endfacet

 facet normal -0.906814456 -0.394699514 -0.147985905
  outer loop
  vertex -0.00938668661 -0.0156295411 0.0435245
  vertex -0.00950466003 -0.0148432394 0.0421502255
  vertex -0.00927061681 -0.0155268526 0.0425393693
  endloop
 endfacet

 facet normal -0.298191428 -0.94510287 -0.133650512
  outer loop
  vertex -0.00938668661 -0.0156295411 0.0435245
  vertex -0.00927061681 -0.0155268526 0.0425393693
  vertex -0.00912029576 -0.0167195071 0.0506377816
  endloop
 endfacet

 facet normal -0.57086885 -0.814500928 -0.103426717
  outer loop
  vertex -0.00938668661 -0.0156295411 0.0435245
  vertex -0.00912029576 -0.0167195071 0.0506377816
  vertex -0.00918879732 -0.0167649817 0.0513740033
  endloop
 endfacet

 facet normal -0.612531006 -0.784346163 -0.0980144814
  outer loop
  vertex -0.00938668661 -0.0156295411 0.0435245
  vertex -0.00918879732 -0.0167649817 0.0513740033
  vertex -0.00929535367 -0.0168451779 0.0526816659
  endloop
 endfacet

 facet normal -0.698917508 -0.709858656 -0.0872644633
  outer loop
  vertex -0.00938668661 -0.0156295411 0.0435245
  vertex -0.00929535367 -0.0168451779 0.0526816659
  vertex -0.00937717408 -0.0169253722 0.0539893322
  endloop
 endfacet

 facet normal -0.222098023 -0.965205669 -0.138023481
  outer loop
  vertex -0.00912029576 -0.0167195071 0.0506377816
  vertex -0.00927061681 -0.0155268526 0.0425393693
  vertex -0.00845051371 -0.0158564337 0.0435245
  endloop
 endfacet

 facet normal 0 -0.992545366 -0.121875867
  outer loop
  vertex -0.00845051371 -0.0180212073 0.0611516945
  vertex -0.00845051371 -0.0160173122 0.0448321626
  vertex 0.00724561373 -0.0160173122 0.0448321626
  endloop
 endfacet

 facet normal 0 -0.992545366 -0.121875867
  outer loop
  vertex -0.00845051371 -0.0180212073 0.0611516945
  vertex 0.00724561373 -0.0160173122 0.0448321626
  vertex 0.00724561373 -0.0180212073 0.0611516945
  endloop
 endfacet

 facet normal -0.118436716 -0.96714139 -0.224967286
  outer loop
  vertex -0.00845051371 -0.0158564337 0.0435245
  vertex -0.00927061681 -0.0155268526 0.0425393693
  vertex -0.00845051371 -0.015588955 0.042374596
  endloop
 endfacet

 facet normal -0.144383997 -0.916438222 -0.373221606
  outer loop
  vertex -0.00845051371 -0.015588955 0.042374596
  vertex -0.00927061681 -0.0155268526 0.0425393693
  vertex -0.00845051371 -0.0153219644 0.0417190082
  endloop
 endfacet

 facet normal -0.00691823568 -0.9261204 -0.377164692
  outer loop
  vertex -0.00845051371 -0.015588955 0.042374596
  vertex -0.00845051371 -0.0153219644 0.0417190082
  vertex -0.00714139361 -0.0153317442 0.0417190082
  endloop
 endfacet

 facet normal -0.000348328758 -0.930679917 -0.365834385
  outer loop
  vertex -0.00845051371 -0.015588955 0.042374596
  vertex -0.00714139361 -0.0153317442 0.0417190082
  vertex -0.00583417574 -0.0153322332 0.0417190082
  endloop
 endfacet

 facet normal 0 -0.881573617 -0.472046614
  outer loop
  vertex 0.00593649363 -0.0153322332 0.0417190082
  vertex -0.00583417574 -0.0153322332 0.0417190082
  vertex -0.00583417574 -0.0137703903 0.0388021767
  endloop
 endfacet

 facet normal 0 -0.881573617 -0.472046614
  outer loop
  vertex 0.00593649363 -0.0153322332 0.0417190082
  vertex -0.00583417574 -0.0137703903 0.0388021767
  vertex 0.00593649363 -0.0137703903 0.0388021767
  endloop
 endfacet

 facet normal -0.918720841 -0.338309258 -0.203712612
  outer loop
  vertex -0.00965117477 -0.0137703903 0.0409091674
  vertex -0.009396201 -0.0137703903 0.0397592634
  vertex -0.009396201 -0.0144628035 0.0409091674
  endloop
 endfacet

 facet normal -0.922252774 -0.339609861 -0.184702635
  outer loop
  vertex -0.00965117477 -0.0137703903 0.0409091674
  vertex -0.009396201 -0.0144628035 0.0409091674
  vertex -0.00950466003 -0.0148432394 0.0421502255
  endloop
 endfacet

 facet normal -0.883914709 -0.419855922 -0.205950946
  outer loop
  vertex -0.00950466003 -0.0148432394 0.0421502255
  vertex -0.009396201 -0.0144628035 0.0409091674
  vertex -0.00927061681 -0.0155268526 0.0425393693
  endloop
 endfacet

 facet normal -0.788448751 -0.541125238 -0.292458981
  outer loop
  vertex -0.00927061681 -0.0155268526 0.0425393693
  vertex -0.009396201 -0.0144628035 0.0409091674
  vertex -0.00924397819 -0.0142090162 0.0400292091
  endloop
 endfacet

 facet normal -0.238967001 -0.858699322 -0.453354448
  outer loop
  vertex -0.00927061681 -0.0155268526 0.0425393693
  vertex -0.00924397819 -0.0142090162 0.0400292091
  vertex -0.00845051371 -0.0153219644 0.0417190082
  endloop
 endfacet

 facet normal -0.216301009 -0.858937919 -0.464154661
  outer loop
  vertex -0.00845051371 -0.0153219644 0.0417190082
  vertex -0.00924397819 -0.0142090162 0.0400292091
  vertex -0.00845051371 -0.0137703903 0.0388477519
  endloop
 endfacet

 facet normal -0.0160910338 -0.87965095 -0.475347579
  outer loop
  vertex -0.00845051371 -0.0153219644 0.0417190082
  vertex -0.00845051371 -0.0137703903 0.0388477519
  vertex -0.00772555033 -0.0137703903 0.0388232134
  endloop
 endfacet

 facet normal -0.014252387 -0.879868388 -0.475003779
  outer loop
  vertex -0.00845051371 -0.0153219644 0.0417190082
  vertex -0.00772555033 -0.0137703903 0.0388232134
  vertex -0.00714139361 -0.0137703903 0.0388056859
  endloop
 endfacet

 facet normal -0.00658401661 -0.881379604 -0.472362816
  outer loop
  vertex -0.00845051371 -0.0153219644 0.0417190082
  vertex -0.00714139361 -0.0137703903 0.0388056859
  vertex -0.00714139361 -0.0153317442 0.0417190082
  endloop
 endfacet

 facet normal -0.00126715936 -0.881398082 -0.472372651
  outer loop
  vertex -0.00714139361 -0.0153317442 0.0417190082
  vertex -0.00714139361 -0.0137703903 0.0388056859
  vertex -0.00583417574 -0.0137703903 0.0388021767
  endloop
 endfacet

 facet normal -0.000329949602 -0.881573558 -0.472046584
  outer loop
  vertex -0.00714139361 -0.0153317442 0.0417190082
  vertex -0.00583417574 -0.0137703903 0.0388021767
  vertex -0.00583417574 -0.0153322332 0.0417190082
  endloop
 endfacet

 facet normal -0.840885282 -0.463646472 -0.279184282
  outer loop
  vertex -0.009396201 -0.0137703903 0.0397592634
  vertex -0.00924397819 -0.0142090162 0.0400292091
  vertex -0.009396201 -0.0144628035 0.0409091674
  endloop
 endfacet

 facet normal -0.572812498 -0.564540625 -0.594289303
  outer loop
  vertex -0.009396201 -0.0137703903 0.0397592634
  vertex -0.00845051371 -0.0137703903 0.0388477519
  vertex -0.00924397819 -0.0142090162 0.0400292091
  endloop
 endfacet

endsolid AssimpScene
