solid AssimpScene
 facet normal -0.0846957788 0.0141976057 -0.996305704
  outer loop
  vertex -0.00422285311 -0.00593633391 -0.019593861
  vertex -0.00470145931 -0.00593633391 -0.0195531733
  vertex -0.005468952 -0.0050764312 -0.0194756761
  endloop
 endfacet

 facet normal -0.0759382099 0.0269491784 -0.996748328
  outer loop
  vertex -0.00422285311 -0.00593633391 -0.019593861
  vertex -0.005468952 -0.0050764312 -0.0194756761
  vertex -0.00422285311 -0.0050764312 -0.0195706114
  endloop
 endfacet

 facet normal 0.204837859 0.0264541321 -0.978438377
  outer loop
  vertex -0.00422285311 -0.00593633391 -0.019593861
  vertex -0.00422285311 -0.0050764312 -0.0195706114
  vertex -0.00346398377 -0.00593633391 -0.0194349904
  endloop
 endfacet

 facet normal 0 -1 0
  outer loop
  vertex -0.00422285311 -0.00593633391 -0.019593861
  vertex -0.00346398377 -0.00593633391 -0.0194349904
  vertex -0.00305436738 -0.00593633391 -0.0193381179
  endloop
 endfacet

 facet normal 0 -1 0
  outer loop
  vertex -0.00422285311 -0.00593633391 -0.019593861
  vertex -0.00305436738 -0.00593633391 -0.0193381179
  vertex 0.00290879468 -0.00593633391 -0.0178366024
  endloop
 endfacet

 facet normal 0 -1 0
  outer loop
  vertex -0.00422285311 -0.00593633391 -0.019593861
  vertex 0.00290879468 -0.00593633391 -0.0178366024
  vertex 0.0135329673 -0.00593633391 -0.0151571222
  endloop
 endfacet

 facet normal 0 -1 0
  outer loop
  vertex -0.00422285311 -0.00593633391 -0.019593861
  vertex 0.0135329673 -0.00593633391 -0.0151571222
  vertex 0.0142228482 -0.00593633391 -0.0149788782
  endloop
 endfacet

 facet normal 0 -1 0
  outer loop
  vertex -0.00422285311 -0.00593633391 -0.019593861
  vertex 0.0142228482 -0.00593633391 -0.0149788782
  vertex 0.0147876889 -0.00593633391 -0.0147928838
  endloop
 endfacet

 facet normal 0 -1 0
  outer loop
  vertex -0.00422285311 -0.00593633391 -0.019593861
  vertex 0.0147876889 -0.00593633391 -0.0147928838
  vertex 0.015201617 -0.00593633391 -0.0146533884
  endloop
 endfacet

 facet normal 0 -1 0
  outer loop
  vertex -0.00422285311 -0.00593633391 -0.019593861
  vertex 0.015201617 -0.00593633391 -0.0146533884
  vertex 0.0160596576 -0.00593633391 -0.0143317729
  endloop
 endfacet

 facet normal 0 -1 0
  outer loop
  vertex -0.00422285311 -0.00593633391 -0.019593861
  vertex 0.0160596576 -0.00593633391 -0.0143317729
  vertex 0.0163959749 -0.00593633391 -0.0141864643
  endloop
 endfacet

 facet normal 0 -1 0
  outer loop
  vertex -0.00422285311 -0.00593633391 -0.019593861
  vertex 0.0163959749 -0.00593633391 -0.0141864643
  vertex 0.0163959749 -0.00593633391 -0.0104859527
  endloop
 endfacet

 facet normal 0 -1 0
  outer loop
  vertex -0.00422285311 -0.00593633391 -0.019593861
  vertex 0.0163959749 -0.00593633391 -0.0104859527
  vertex -0.00417111348 -0.00593633391 -0.0142697738
  endloop
 endfacet

 facet normal 0 -1 0
  outer loop
  vertex -0.00422285311 -0.00593633391 -0.019593861
  vertex -0.00417111348 -0.00593633391 -0.0142697738
  vertex -0.00522749266 -0.00593633391 -0.0144887054
  endloop
 endfacet

 facet normal 0 -1 0
  outer loop
  vertex -0.00422285311 -0.00593633391 -0.019593861
  vertex -0.00522749266 -0.00593633391 -0.0144887054
  vertex -0.0055939937 -0.00593633391 -0.0151919955
  endloop
 endfacet

 facet normal 0 -1 0
  outer loop
  vertex -0.00422285311 -0.00593633391 -0.019593861
  vertex -0.0055939937 -0.00593633391 -0.0151919955
  vertex -0.00597342709 -0.00593633391 -0.0164203327
  endloop
 endfacet

 facet normal 0 -1 0
  outer loop
  vertex -0.00422285311 -0.00593633391 -0.019593861
  vertex -0.00597342709 -0.00593633391 -0.0164203327
  vertex -0.00607691146 -0.00593633391 -0.0171333104
  endloop
 endfacet

 facet normal 0 -1 0
  outer loop
  vertex -0.00422285311 -0.00593633391 -0.019593861
  vertex -0.00607691146 -0.00593633391 -0.0171333104
  vertex -0.00607259665 -0.00593633391 -0.0177474786
  endloop
 endfacet

 facet normal 0 -1 0
  outer loop
  vertex -0.00422285311 -0.00593633391 -0.019593861
  vertex -0.00607259665 -0.00593633391 -0.0177474786
  vertex -0.00598205253 -0.00593633391 -0.018563142
  endloop
 endfacet

 facet normal 0 -1 0
  outer loop
  vertex -0.00422285311 -0.00593633391 -0.019593861
  vertex -0.00598205253 -0.00593633391 -0.018563142
  vertex -0.00564142177 -0.00593633391 -0.0191405006
  endloop
 endfacet

 facet normal 0 -1 0
  outer loop
  vertex -0.00422285311 -0.00593633391 -0.019593861
  vertex -0.00564142177 -0.00593633391 -0.0191405006
  vertex -0.00536546996 -0.00593633391 -0.0194718018
  endloop
 endfacet

 facet normal 0 -1 0
  outer loop
  vertex -0.00422285311 -0.00593633391 -0.019593861
  vertex -0.00536546996 -0.00593633391 -0.0194718018
  vertex -0.00470145931 -0.00593633391 -0.0195531733
  endloop
 endfacet

 facet normal -0.121614724 -0.0191064142 -0.992393494
  outer loop
  vertex -0.00470145931 -0.00593633391 -0.0195531733
  vertex -0.00536546996 -0.00593633391 -0.0194718018
  vertex -0.005468952 -0.0050764312 -0.0194756761
  endloop
 endfacet

 facet normal -0.762930512 -0.0946934521 -0.63950789
  outer loop
  vertex -0.005468952 -0.0050764312 -0.0194756761
  vertex -0.00536546996 -0.00593633391 -0.0194718018
  vertex -0.00617176993 -0.0051187356 -0.0186309535
  endloop
 endfacet

 facet normal -0.763308465 -0.0907700881 -0.639625788
  outer loop
  vertex -0.005468952 -0.0050764312 -0.0194756761
  vertex -0.00617176993 -0.0051187356 -0.0186309535
  vertex -0.00612434046 -0.00368815404 -0.018890569
  endloop
 endfacet

 facet normal -0.586112738 0.063727051 -0.807719469
  outer loop
  vertex -0.005468952 -0.0050764312 -0.0194756761
  vertex -0.00612434046 -0.00368815404 -0.018890569
  vertex -0.00543014612 -0.00368815404 -0.0193943027
  endloop
 endfacet

 facet normal -0.0758268312 0.0604572594 -0.995286465
  outer loop
  vertex -0.005468952 -0.0050764312 -0.0194756761
  vertex -0.00543014612 -0.00368815404 -0.0193943027
  vertex -0.00422285311 -0.0050764312 -0.0195706114
  endloop
 endfacet

 facet normal 0.19846791 0.0939442962 -0.975594699
  outer loop
  vertex -0.00422285311 -0.0050764312 -0.0195706114
  vertex -0.00422285311 -0.00368815404 -0.0194369275
  vertex -0.00335619017 -0.00368815404 -0.0192606207
  endloop
 endfacet

 facet normal 0.228974491 0.0737916529 -0.97063148
  outer loop
  vertex -0.00422285311 -0.0050764312 -0.0195706114
  vertex -0.00335619017 -0.00368815404 -0.0192606207
  vertex -0.00266630831 -0.00368815404 -0.0190978758
  endloop
 endfacet

 facet normal 0.233724892 0.0682186335 -0.969906688
  outer loop
  vertex -0.00422285311 -0.0050764312 -0.0195706114
  vertex -0.00266630831 -0.00368815404 -0.0190978758
  vertex -0.00315353763 -0.0050764312 -0.0193129312
  endloop
 endfacet

 facet normal 0.233910784 0.0554084443 -0.970678031
  outer loop
  vertex -0.00422285311 -0.0050764312 -0.0195706114
  vertex -0.00315353763 -0.0050764312 -0.0193129312
  vertex -0.00305436738 -0.00593633391 -0.0193381179
  endloop
 endfacet

 facet normal 0.229861557 0.0495593622 -0.971960664
  outer loop
  vertex -0.00422285311 -0.0050764312 -0.0195706114
  vertex -0.00305436738 -0.00593633391 -0.0193381179
  vertex -0.00346398377 -0.00593633391 -0.0194349904
  endloop
 endfacet

 facet normal -0.035121493 0.0957919061 -0.994781673
  outer loop
  vertex -0.00422285311 -0.0050764312 -0.0195706114
  vertex -0.00543014612 -0.00368815404 -0.0193943027
  vertex -0.00422285311 -0.00368815404 -0.0194369275
  endloop
 endfacet

 facet normal -0.764593959 -0.0990634859 -0.636853695
  outer loop
  vertex -0.00536546996 -0.00593633391 -0.0194718018
  vertex -0.00564142177 -0.00593633391 -0.0191405006
  vertex -0.00617176993 -0.0051187356 -0.0186309535
  endloop
 endfacet

 facet normal -0.837113023 -0.235207587 -0.493881881
  outer loop
  vertex -0.00617176993 -0.0051187356 -0.0186309535
  vertex -0.00564142177 -0.00593633391 -0.0191405006
  vertex -0.00598205253 -0.00593633391 -0.018563142
  endloop
 endfacet

 facet normal -0.939019203 -0.238441646 -0.247767091
  outer loop
  vertex -0.00617176993 -0.0051187356 -0.0186309535
  vertex -0.00598205253 -0.00593633391 -0.018563142
  vertex -0.00829315465 -0.00455755368 -0.0111311208
  endloop
 endfacet

 facet normal -0.94419086 -0.213171512 -0.251120776
  outer loop
  vertex -0.00617176993 -0.0051187356 -0.0186309535
  vertex -0.00829315465 -0.00455755368 -0.0111311208
  vertex -0.0063744192 -0.00468446687 -0.0182376523
  endloop
 endfacet

 facet normal -0.907634199 -0.0456336364 -0.417274177
  outer loop
  vertex -0.00617176993 -0.0051187356 -0.0186309535
  vertex -0.0063744192 -0.00468446687 -0.0182376523
  vertex -0.00612434046 -0.00368815404 -0.018890569
  endloop
 endfacet

 facet normal -0.944190383 0.021592956 -0.32869193
  outer loop
  vertex -0.00612434046 -0.00368815404 -0.018890569
  vertex -0.0063744192 -0.00468446687 -0.0182376523
  vertex -0.00636579795 -0.00368815404 -0.0181969665
  endloop
 endfacet

 facet normal -0.942507386 0.0634531826 -0.328106046
  outer loop
  vertex -0.00612434046 -0.00368815404 -0.018890569
  vertex -0.00636579795 -0.00368815404 -0.0181969665
  vertex -0.00829315465 0.000473224034 -0.0118557233
  endloop
 endfacet

 facet normal -0.908011377 0.172315687 -0.381867379
  outer loop
  vertex -0.00612434046 -0.00368815404 -0.018890569
  vertex -0.00829315465 0.000473224034 -0.0118557233
  vertex -0.00829315465 0.00158954377 -0.0113519896
  endloop
 endfacet

 facet normal -0.68091917 0.49332872 -0.54127264
  outer loop
  vertex -0.00612434046 -0.00368815404 -0.018890569
  vertex -0.00829315465 0.00158954377 -0.0113519896
  vertex -0.00829315465 0.00288198818 -0.0101740249
  endloop
 endfacet

 facet normal -0.64615941 0.523497224 -0.555363536
  outer loop
  vertex -0.00612434046 -0.00368815404 -0.018890569
  vertex -0.00829315465 0.00288198818 -0.0101740249
  vertex -0.00516281696 -0.00292063016 -0.0192858074
  endloop
 endfacet

 facet normal -0.559531927 0.30388543 -0.7710886
  outer loop
  vertex -0.00612434046 -0.00368815404 -0.018890569
  vertex -0.00516281696 -0.00292063016 -0.0192858074
  vertex -0.00543014612 -0.00368815404 -0.0193943027
  endloop
 endfacet

 facet normal -0.0348749533 0.151780605 -0.98779881
  outer loop
  vertex -0.00543014612 -0.00368815404 -0.0193943027
  vertex -0.00516281696 -0.00292063016 -0.0192858074
  vertex -0.00422285311 -0.00368815404 -0.0194369275
  endloop
 endfacet

 facet normal 0.0858266428 0.209593892 -0.97401458
  outer loop
  vertex -0.00422285311 -0.00368815404 -0.0194369275
  vertex -0.00422285311 -0.00293185376 -0.0192741826
  vertex -0.00349847809 -0.00298538175 -0.0192218721
  endloop
 endfacet

 facet normal 0.198467359 0.093973361 -0.975592017
  outer loop
  vertex -0.00422285311 -0.00368815404 -0.0194369275
  vertex -0.00349847809 -0.00298538175 -0.0192218721
  vertex -0.00335619017 -0.00368815404 -0.0192606207
  endloop
 endfacet

 facet normal 0.0146007258 0.210347697 -0.977517605
  outer loop
  vertex -0.00422285311 -0.00368815404 -0.0194369275
  vertex -0.00516281696 -0.00292063016 -0.0192858074
  vertex -0.00422285311 -0.00293185376 -0.0192741826
  endloop
 endfacet

 facet normal 0.228457615 0.0996510684 -0.968440413
  outer loop
  vertex -0.00335619017 -0.00368815404 -0.0192606207
  vertex -0.00349847809 -0.00298538175 -0.0192218721
  vertex -0.00266630831 -0.00368815404 -0.0190978758
  endloop
 endfacet

 facet normal 0.235905662 0.0893631503 -0.96765846
  outer loop
  vertex -0.00266630831 -0.00368815404 -0.0190978758
  vertex 0.0110407704 -0.000914189673 -0.0155000482
  vertex -0.00145039312 -0.00368815404 -0.018801447
  endloop
 endfacet

 facet normal 0.2363175 0.0672221631 -0.969347835
  outer loop
  vertex -0.00266630831 -0.00368815404 -0.0190978758
  vertex -0.00145039312 -0.00368815404 -0.018801447
  vertex -0.00315353763 -0.0050764312 -0.0193129312
  endloop
 endfacet

 facet normal 0.232584387 0.104807258 -0.966912508
  outer loop
  vertex -0.00266630831 -0.00368815404 -0.0190978758
  vertex -0.00349847809 -0.00298538175 -0.0192218721
  vertex 0.0110407704 -0.000914189673 -0.0155000482
  endloop
 endfacet

 facet normal 0.242478237 0.0592940003 -0.968343198
  outer loop
  vertex -0.00315353763 -0.0050764312 -0.0193129312
  vertex -0.00145039312 -0.00368815404 -0.018801447
  vertex -5.76945313e-05 -0.00368815404 -0.0184527077
  endloop
 endfacet

 facet normal 0.243185505 0.0576678179 -0.968264163
  outer loop
  vertex -0.00315353763 -0.0050764312 -0.0193129312
  vertex -5.76945313e-05 -0.00368815404 -0.0184527077
  vertex 0.0110407704 -0.000914189673 -0.0155000482
  endloop
 endfacet

 facet normal 0.243538767 0.0564476103 -0.968247175
  outer loop
  vertex -0.00315353763 -0.0050764312 -0.0193129312
  vertex 0.0110407704 -0.000914189673 -0.0155000482
  vertex -0.00305436738 -0.00593633391 -0.0193381179
  endloop
 endfacet

 facet normal 0.243797749 0.0557037853 -0.968225002
  outer loop
  vertex -0.00305436738 -0.00593633391 -0.0193381179
  vertex 0.0110407704 -0.000914189673 -0.0155000482
  vertex 0.00290879468 -0.00593633391 -0.0178366024
  endloop
 endfacet

 facet normal -0.652799726 -0.754056633 -0.0724650547
  outer loop
  vertex -0.00598205253 -0.00593633391 -0.018563142
  vertex -0.00607259665 -0.00593633391 -0.0177474786
  vertex -0.00829315465 -0.00473972224 -0.0101953372
  endloop
 endfacet

 facet normal -0.768241823 -0.628364325 -0.12232323
  outer loop
  vertex -0.00598205253 -0.00593633391 -0.018563142
  vertex -0.00829315465 -0.00473972224 -0.0101953372
  vertex -0.00829315465 -0.00455755368 -0.0111311208
  endloop
 endfacet

 facet normal -0.954979479 -0.151391909 -0.255136997
  outer loop
  vertex -0.00829315465 -0.00455755368 -0.0111311208
  vertex -0.00829315465 -0.00376412924 -0.0116019193
  vertex -0.0063744192 -0.00468446687 -0.0182376523
  endloop
 endfacet

 facet normal -1 0 0
  outer loop
  vertex -0.00829315465 -0.00455755368 -0.0111311208
  vertex -0.00829315465 -0.00473972224 -0.0101953372
  vertex -0.00829315465 -0.00475871563 -0.00881006755
  endloop
 endfacet

 facet normal -1 0 0
  outer loop
  vertex -0.00829315465 -0.00455755368 -0.0111311208
  vertex -0.00829315465 -0.00475871563 -0.00881006755
  vertex -0.00829315465 -0.00475871563 0.00019903043
  endloop
 endfacet

 facet normal -1 0 0
  outer loop
  vertex -0.00829315465 -0.00455755368 -0.0111311208
  vertex -0.00829315465 -0.00475871563 0.00019903043
  vertex -0.00829315465 0.00288371486 0.00019903043
  endloop
 endfacet

 facet normal -1 0 0
  outer loop
  vertex -0.00829315465 -0.00455755368 -0.0111311208
  vertex -0.00829315465 0.00288371486 0.00019903043
  vertex -0.00829315465 0.00288371486 -0.00914524402
  endloop
 endfacet

 facet normal -1 0 0
  outer loop
  vertex -0.00829315465 -0.00455755368 -0.0111311208
  vertex -0.00829315465 0.00288371486 -0.00914524402
  vertex -0.00829315465 0.00288198818 -0.0101740249
  endloop
 endfacet

 facet normal -1 0 0
  outer loop
  vertex -0.00829315465 -0.00455755368 -0.0111311208
  vertex -0.00829315465 0.00288198818 -0.0101740249
  vertex -0.00829315465 0.00158954377 -0.0113519896
  endloop
 endfacet

 facet normal -1 0 0
  outer loop
  vertex -0.00829315465 -0.00455755368 -0.0111311208
  vertex -0.00829315465 0.00158954377 -0.0113519896
  vertex -0.00829315465 0.000473224034 -0.0118557233
  endloop
 endfacet

 facet normal -1 0 0
  outer loop
  vertex -0.00829315465 -0.00455755368 -0.0111311208
  vertex -0.00829315465 0.000473224034 -0.0118557233
  vertex -0.00829315465 -0.00101433916 -0.0119060967
  endloop
 endfacet

 facet normal -1 0 0
  outer loop
  vertex -0.00829315465 -0.00455755368 -0.0111311208
  vertex -0.00829315465 -0.00101433916 -0.0119060967
  vertex -0.00829315465 -0.00229901355 -0.0119080339
  endloop
 endfacet

 facet normal -1 0 0
  outer loop
  vertex -0.00829315465 -0.00455755368 -0.0111311208
  vertex -0.00829315465 -0.00229901355 -0.0119080339
  vertex -0.00829315465 -0.00242938031 -0.0118964091
  endloop
 endfacet

 facet normal -1 0 0
  outer loop
  vertex -0.00829315465 -0.00455755368 -0.0111311208
  vertex -0.00829315465 -0.00242938031 -0.0118964091
  vertex -0.00829315465 -0.00368815404 -0.0116367927
  endloop
 endfacet

 facet normal -1 0 0
  outer loop
  vertex -0.00829315465 -0.00455755368 -0.0111311208
  vertex -0.00829315465 -0.00368815404 -0.0116367927
  vertex -0.00829315465 -0.00376412924 -0.0116019193
  endloop
 endfacet

 facet normal -0.958059072 -0.119548157 -0.260443985
  outer loop
  vertex -0.0063744192 -0.00468446687 -0.0182376523
  vertex -0.00829315465 -0.00376412924 -0.0116019193
  vertex -0.00829315465 -0.00368815404 -0.0116367927
  endloop
 endfacet

 facet normal -0.960983217 -0.0558728799 -0.270904958
  outer loop
  vertex -0.0063744192 -0.00468446687 -0.0182376523
  vertex -0.00829315465 -0.00368815404 -0.0116367927
  vertex -0.00829315465 -0.00242938031 -0.0118964091
  endloop
 endfacet

 facet normal -0.959280729 -0.0250865426 -0.281338096
  outer loop
  vertex -0.0063744192 -0.00468446687 -0.0182376523
  vertex -0.00829315465 -0.00242938031 -0.0118964091
  vertex -0.00829315465 -0.00229901355 -0.0119080339
  endloop
 endfacet

 facet normal -0.956950426 0.000437654729 -0.290251076
  outer loop
  vertex -0.0063744192 -0.00468446687 -0.0182376523
  vertex -0.00829315465 -0.00229901355 -0.0119080339
  vertex -0.00829315465 -0.00101433916 -0.0119060967
  endloop
 endfacet

 facet normal -0.955349445 0.0100001255 -0.295308858
  outer loop
  vertex -0.0063744192 -0.00468446687 -0.0182376523
  vertex -0.00829315465 -0.00101433916 -0.0119060967
  vertex -0.00829315465 0.000473224034 -0.0118557233
  endloop
 endfacet

 facet normal -0.952733576 0.0206220653 -0.303106695
  outer loop
  vertex -0.0063744192 -0.00468446687 -0.0182376523
  vertex -0.00829315465 0.000473224034 -0.0118557233
  vertex -0.00636579795 -0.00368815404 -0.0181969665
  endloop
 endfacet

 facet normal -0.00035754859 0.99999851 -0.00167832465
  outer loop
  vertex -0.00829315465 0.00288198818 -0.0101740249
  vertex -0.00829315465 0.00288371486 -0.00914524402
  vertex -0.0030457431 0.00288198818 -0.0112919286
  endloop
 endfacet

 facet normal -0.119778268 0.818256319 -0.562236428
  outer loop
  vertex -0.00829315465 0.00288198818 -0.0101740249
  vertex -0.0030457431 0.00288198818 -0.0112919286
  vertex -0.00516281696 -0.00292063016 -0.0192858074
  endloop
 endfacet

 facet normal -0.0887987688 0.817106724 -0.569606423
  outer loop
  vertex -0.00516281696 -0.00292063016 -0.0192858074
  vertex -0.0030457431 0.00288198818 -0.0112919286
  vertex -0.00283446745 0.00288198818 -0.0113248648
  endloop
 endfacet

 facet normal -0.0539905503 0.814387441 -0.577804744
  outer loop
  vertex -0.00516281696 -0.00292063016 -0.0192858074
  vertex -0.00283446745 0.00288198818 -0.0113248648
  vertex -0.000786382356 -0.00160228484 -0.0178366024
  endloop
 endfacet

 facet normal -0.0160034858 0.763203859 -0.645959556
  outer loop
  vertex -0.00516281696 -0.00292063016 -0.0192858074
  vertex -0.000786382356 -0.00160228484 -0.0178366024
  vertex -5.76945313e-05 -0.00159192458 -0.0178424139
  endloop
 endfacet

 facet normal 0 0.73573184 -0.677272975
  outer loop
  vertex -0.00516281696 -0.00292063016 -0.0192858074
  vertex -5.76945313e-05 -0.00159192458 -0.0178424139
  vertex 0.000748604245 -0.00159192458 -0.0178424139
  endloop
 endfacet

 facet normal 0.0171877425 0.699559808 -0.71436739
  outer loop
  vertex -0.00516281696 -0.00292063016 -0.0192858074
  vertex 0.000748604245 -0.00159192458 -0.0178424139
  vertex -0.00422285311 -0.00293185376 -0.0192741826
  endloop
 endfacet

 facet normal 0.099957794 0.529363275 -0.842486262
  outer loop
  vertex -0.00422285311 -0.00293185376 -0.0192741826
  vertex 0.000748604245 -0.00159192458 -0.0178424139
  vertex -0.00349847809 -0.00298538175 -0.0192218721
  endloop
 endfacet

 facet normal 0.153632507 0.418078035 -0.895325601
  outer loop
  vertex -0.00349847809 -0.00298538175 -0.0192218721
  vertex 0.000748604245 -0.00159192458 -0.0178424139
  vertex 0.0110407704 0.000165005709 -0.0152559308
  endloop
 endfacet

 facet normal 0.176142365 0.346820652 -0.92124337
  outer loop
  vertex -0.00349847809 -0.00298538175 -0.0192218721
  vertex 0.0110407704 0.000165005709 -0.0152559308
  vertex 0.0120410984 -8.52869198e-06 -0.0151299983
  endloop
 endfacet

 facet normal 0.222699493 0.159472495 -0.961755455
  outer loop
  vertex -0.00349847809 -0.00298538175 -0.0192218721
  vertex 0.0120410984 -8.52869198e-06 -0.0151299983
  vertex 0.00965238456 -0.000914189673 -0.0158332884
  endloop
 endfacet

 facet normal 0.232017666 0.108332083 -0.966660202
  outer loop
  vertex -0.00349847809 -0.00298538175 -0.0192218721
  vertex 0.00965238456 -0.000914189673 -0.0158332884
  vertex 0.0110407704 -0.000914189673 -0.0155000482
  endloop
 endfacet

 facet normal 0.231152102 0.138186857 -0.963054061
  outer loop
  vertex 0.0110407704 -0.000914189673 -0.0155000482
  vertex 0.00965238456 -0.000914189673 -0.0158332884
  vertex 0.0120410984 -8.52869198e-06 -0.0151299983
  endloop
 endfacet

 facet normal 0.243670031 0.123893902 -0.961912274
  outer loop
  vertex 0.0110407704 -0.000914189673 -0.0155000482
  vertex 0.0120410984 -8.52869198e-06 -0.0151299983
  vertex 0.0129681267 -0.000914189673 -0.0150118135
  endloop
 endfacet

 facet normal 0.245143741 0.0583407804 -0.967729747
  outer loop
  vertex 0.0110407704 -0.000914189673 -0.0155000482
  vertex 0.0129681267 -0.000914189673 -0.0150118135
  vertex 0.0130716087 -0.00183107436 -0.0150408754
  endloop
 endfacet

 facet normal 0.243946433 0.0554523431 -0.968202055
  outer loop
  vertex 0.0110407704 -0.000914189673 -0.0155000482
  vertex 0.0130716087 -0.00183107436 -0.0150408754
  vertex 0.00290879468 -0.00593633391 -0.0178366024
  endloop
 endfacet

 facet normal 0.242459521 0.0605770163 -0.968268394
  outer loop
  vertex 0.0110407704 -0.000914189673 -0.0155000482
  vertex -5.76945313e-05 -0.00368815404 -0.0184527077
  vertex -0.00145039312 -0.00368815404 -0.018801447
  endloop
 endfacet

 facet normal 0.244180158 0.0548568442 -0.96817714
  outer loop
  vertex 0.00290879468 -0.00593633391 -0.0178366024
  vertex 0.0130716087 -0.00183107436 -0.0150408754
  vertex 0.0135329673 -0.00593633391 -0.0151571222
  endloop
 endfacet

 facet normal -0.479054183 -0.877778947 -0.00336553692
  outer loop
  vertex -0.00607259665 -0.00593633391 -0.0177474786
  vertex -0.00607691146 -0.00593633391 -0.0171333104
  vertex -0.00829315465 -0.00475871563 -0.00881006755
  endloop
 endfacet

 facet normal -0.505236983 -0.862899482 -0.0118313897
  outer loop
  vertex -0.00607259665 -0.00593633391 -0.0177474786
  vertex -0.00829315465 -0.00475871563 -0.00881006755
  vertex -0.00829315465 -0.00473972224 -0.0101953372
  endloop
 endfacet

 facet normal -0.000202592855 0.999999166 -0.00129954726
  outer loop
  vertex -0.00829315465 0.00288371486 -0.00914524402
  vertex -0.00283446745 0.00288198818 -0.0113248648
  vertex -0.0030457431 0.00288198818 -0.0112919286
  endloop
 endfacet

 facet normal 0 1 0
  outer loop
  vertex -0.00829315465 0.00288371486 -0.00914524402
  vertex -0.00829315465 0.00288371486 0.00019903043
  vertex 0.0347985588 0.00288371486 0.00019903043
  endloop
 endfacet

 facet normal 0 1 0
  outer loop
  vertex -0.00829315465 0.00288371486 -0.00914524402
  vertex 0.0347985588 0.00288371486 0.00019903043
  vertex 0.0347985588 0.00288371486 -0.00325930072
  endloop
 endfacet

 facet normal 0 1 0
  outer loop
  vertex -0.00829315465 0.00288371486 -0.00914524402
  vertex 0.0347985588 0.00288371486 -0.00325930072
  vertex 0.0347899348 0.00288371486 -0.00462325895
  endloop
 endfacet

 facet normal 0 1 0
  outer loop
  vertex -0.00829315465 0.00288371486 -0.00914524402
  vertex 0.0347899348 0.00288371486 -0.00462325895
  vertex 0.0345527865 0.00288371486 -0.00601434102
  endloop
 endfacet

 facet normal 0 1 0
  outer loop
  vertex -0.00829315465 0.00288371486 -0.00914524402
  vertex 0.0345527865 0.00288371486 -0.00601434102
  vertex 0.0334231071 0.00288371486 -0.00716711767
  endloop
 endfacet

 facet normal 0 1 0
  outer loop
  vertex -0.00829315465 0.00288371486 -0.00914524402
  vertex 0.0334231071 0.00288371486 -0.00716711767
  vertex 0.0332377031 0.00288371486 -0.00730273919
  endloop
 endfacet

 facet normal 0 1 0
  outer loop
  vertex -0.00829315465 0.00288371486 -0.00914524402
  vertex 0.0332377031 0.00288371486 -0.00730273919
  vertex 0.024803903 0.00288371486 -0.0110904351
  endloop
 endfacet

 facet normal 0 1 0
  outer loop
  vertex -0.00829315465 0.00288371486 -0.00914524402
  vertex 0.024803903 0.00288371486 -0.0110904351
  vertex 0.0235189982 0.00288371486 -0.0113907373
  endloop
 endfacet

 facet normal 0 1 0
  outer loop
  vertex -0.00829315465 0.00288371486 -0.00914524402
  vertex 0.0235189982 0.00288371486 -0.0113907373
  vertex 0.0190433934 0.00288371486 -0.0122335246
  endloop
 endfacet

 facet normal 0 1 0
  outer loop
  vertex -0.00829315465 0.00288371486 -0.00914524402
  vertex 0.0190433934 0.00288371486 -0.0122335246
  vertex 0.0179827008 0.00288371486 -0.0123672085
  endloop
 endfacet

 facet normal 0 1 0
  outer loop
  vertex -0.00829315465 0.00288371486 -0.00914524402
  vertex 0.0179827008 0.00288371486 -0.0123672085
  vertex 0.0165943149 0.00288371486 -0.0123827076
  endloop
 endfacet

 facet normal -0.00015284252 0.999999285 -0.00117495167
  outer loop
  vertex -0.00829315465 0.00288371486 -0.00914524402
  vertex 0.0165943149 0.00288371486 -0.0123827076
  vertex -0.00283446745 0.00288198818 -0.0113248648
  endloop
 endfacet

 facet normal -0.000238483277 0.999996185 -0.00274787052
  outer loop
  vertex -0.00283446745 0.00288198818 -0.0113248648
  vertex 0.0165943149 0.00288371486 -0.0123827076
  vertex -0.00145039312 0.00288198818 -0.0114449868
  endloop
 endfacet

 facet normal -0.0500851199 0.815140009 -0.577094674
  outer loop
  vertex -0.00283446745 0.00288198818 -0.0113248648
  vertex -0.00145039312 0.00288198818 -0.0114449868
  vertex -0.000786382356 -0.00160228484 -0.0178366024
  endloop
 endfacet

 facet normal -0.0496593975 0.815178335 -0.577077329
  outer loop
  vertex -0.000786382356 -0.00160228484 -0.0178366024
  vertex -0.00145039312 0.00288198818 -0.0114449868
  vertex 0.00271476549 0.00288198818 -0.0118034119
  endloop
 endfacet

 facet normal -0.0286864247 0.810154438 -0.585514188
  outer loop
  vertex -0.000786382356 -0.00160228484 -0.0178366024
  vertex 0.00271476549 0.00288198818 -0.0118034119
  vertex 0.00409883959 0.00288198818 -0.0118712233
  endloop
 endfacet

 facet normal -0.0241796523 0.808517873 -0.587974668
  outer loop
  vertex -0.000786382356 -0.00160228484 -0.0178366024
  vertex 0.00409883959 0.00288198818 -0.0118712233
  vertex 0.0165943149 0.00288371486 -0.0123827076
  endloop
 endfacet

 facet normal -0.0161468349 0.796842813 -0.603970885
  outer loop
  vertex -0.000786382356 -0.00160228484 -0.0178366024
  vertex 0.0165943149 0.00288371486 -0.0123827076
  vertex -5.76945313e-05 -0.00159192458 -0.0178424139
  endloop
 endfacet

 facet normal 0 0.773359478 -0.633967757
  outer loop
  vertex -5.76945313e-05 -0.00159192458 -0.0178424139
  vertex 0.0165943149 0.00288371486 -0.0123827076
  vertex 0.000748604245 -0.00159192458 -0.0178424139
  endloop
 endfacet

 facet normal 0.00721630594 0.762969375 -0.646394372
  outer loop
  vertex 0.000748604245 -0.00159192458 -0.0178424139
  vertex 0.0165943149 0.00288371486 -0.0123827076
  vertex 0.0179827008 0.00288371486 -0.0123672085
  endloop
 endfacet

 facet normal 0.0352215543 0.716574609 -0.696620584
  outer loop
  vertex 0.000748604245 -0.00159192458 -0.0178424139
  vertex 0.0179827008 0.00288371486 -0.0123672085
  vertex 0.0138089191 0.0014747174 -0.0140275937
  endloop
 endfacet

 facet normal 0.119521305 0.532982945 -0.837641895
  outer loop
  vertex 0.000748604245 -0.00159192458 -0.0178424139
  vertex 0.0138089191 0.0014747174 -0.0140275937
  vertex 0.0110407704 0.000165005709 -0.0152559308
  endloop
 endfacet

 facet normal 0.134156048 0.512116849 -0.848374069
  outer loop
  vertex 0.0110407704 0.000165005709 -0.0152559308
  vertex 0.0138089191 0.0014747174 -0.0140275937
  vertex 0.015201617 0.00139874208 -0.013853224
  endloop
 endfacet

 facet normal 0.182808727 0.403027534 -0.896744013
  outer loop
  vertex 0.0110407704 0.000165005709 -0.0152559308
  vertex 0.015201617 0.00139874208 -0.013853224
  vertex 0.0120410984 -8.52869198e-06 -0.0151299983
  endloop
 endfacet

 facet normal 0.203167483 0.367221206 -0.907673776
  outer loop
  vertex 0.0120410984 -8.52869198e-06 -0.0151299983
  vertex 0.015201617 0.00139874208 -0.013853224
  vertex 0.0235189982 0.00288371486 -0.0113907373
  endloop
 endfacet

 facet normal 0.214418083 0.33518514 -0.91742903
  outer loop
  vertex 0.0120410984 -8.52869198e-06 -0.0151299983
  vertex 0.0235189982 0.00288371486 -0.0113907373
  vertex 0.024803903 0.00288371486 -0.0110904351
  endloop
 endfacet

 facet normal 0.267411858 0.149500564 -0.951914072
  outer loop
  vertex 0.0120410984 -8.52869198e-06 -0.0151299983
  vertex 0.024803903 0.00288371486 -0.0110904351
  vertex 0.0129681267 -0.000914189673 -0.0150118135
  endloop
 endfacet

 facet normal 0.293953598 0.0682961568 -0.953376651
  outer loop
  vertex 0.0129681267 -0.000914189673 -0.0150118135
  vertex 0.024803903 0.00288371486 -0.0110904351
  vertex 0.0141236782 -0.0050764312 -0.0149536906
  endloop
 endfacet

 facet normal 0.266569912 0.0605745502 -0.961910307
  outer loop
  vertex 0.0129681267 -0.000914189673 -0.0150118135
  vertex 0.0141236782 -0.0050764312 -0.0149536906
  vertex 0.0130716087 -0.00183107436 -0.0150408754
  endloop
 endfacet

 facet normal 0.259218723 0.0581335127 -0.964067459
  outer loop
  vertex 0.0130716087 -0.00183107436 -0.0150408754
  vertex 0.0141236782 -0.0050764312 -0.0149536906
  vertex 0.0142228482 -0.00593633391 -0.0149788782
  endloop
 endfacet

 facet normal 0.24976939 0.0554436222 -0.966716766
  outer loop
  vertex 0.0130716087 -0.00183107436 -0.0150408754
  vertex 0.0142228482 -0.00593633391 -0.0149788782
  vertex 0.0135329673 -0.00593633391 -0.0151571222
  endloop
 endfacet

 facet normal -0.0345338657 -0.99939096 0.0050123632
  outer loop
  vertex -0.00607691146 -0.00593633391 -0.0171333104
  vertex -0.00597342709 -0.00593633391 -0.0164203327
  vertex -0.00521024596 -0.00587935233 0.00019903043
  endloop
 endfacet

 facet normal -0.341560215 -0.939643383 0.0201681089
  outer loop
  vertex -0.00607691146 -0.00593633391 -0.0171333104
  vertex -0.00521024596 -0.00587935233 0.00019903043
  vertex -0.00829315465 -0.00475871563 0.00019903043
  endloop
 endfacet

 facet normal -0.46922946 -0.88307631 0
  outer loop
  vertex -0.00607691146 -0.00593633391 -0.0171333104
  vertex -0.00829315465 -0.00475871563 0.00019903043
  vertex -0.00829315465 -0.00475871563 -0.00881006755
  endloop
 endfacet

 facet normal 0 0 1
  outer loop
  vertex -0.00829315465 0.00288371486 0.00019903043
  vertex -0.00829315465 -0.00475871563 0.00019903043
  vertex -0.00521024596 -0.00587935233 0.00019903043
  endloop
 endfacet

 facet normal 0 0 1
  outer loop
  vertex -0.00829315465 0.00288371486 0.00019903043
  vertex -0.00521024596 -0.00587935233 0.00019903043
  vertex 0.0321382023 -0.00593547057 0.00019903043
  endloop
 endfacet

 facet normal 0 0 1
  outer loop
  vertex -0.00829315465 0.00288371486 0.00019903043
  vertex 0.0321382023 -0.00593547057 0.00019903043
  vertex 0.0357557684 -0.00593547057 0.00019903043
  endloop
 endfacet

 facet normal 0 0 1
  outer loop
  vertex -0.00829315465 0.00288371486 0.00019903043
  vertex 0.0357557684 -0.00593547057 0.00019903043
  vertex 0.0347985588 0.00288371486 0.00019903043
  endloop
 endfacet

 facet normal -0.000839827233 0.999852657 -0.0171415824
  outer loop
  vertex 0.0165943149 0.00288371486 -0.0123827076
  vertex 0.00409883959 0.00288198818 -0.0118712233
  vertex 0.00271476549 0.00288198818 -0.0118034119
  endloop
 endfacet

 facet normal -0.000241562782 0.999996066 -0.00280713057
  outer loop
  vertex 0.0165943149 0.00288371486 -0.0123827076
  vertex 0.00271476549 0.00288198818 -0.0118034119
  vertex -0.00145039312 0.00288198818 -0.0114449868
  endloop
 endfacet

 facet normal 0.097702831 0.624101877 -0.775210321
  outer loop
  vertex 0.0179827008 0.00288371486 -0.0123672085
  vertex 0.0190433934 0.00288371486 -0.0122335246
  vertex 0.0138089191 0.0014747174 -0.0140275937
  endloop
 endfacet

 facet normal 0.133149952 0.552781284 -0.822620153
  outer loop
  vertex 0.0138089191 0.0014747174 -0.0140275937
  vertex 0.0190433934 0.00288371486 -0.0122335246
  vertex 0.015201617 0.00139874208 -0.013853224
  endloop
 endfacet

 facet normal 0.159163058 0.510146499 -0.845232368
  outer loop
  vertex 0.015201617 0.00139874208 -0.013853224
  vertex 0.0190433934 0.00288371486 -0.0122335246
  vertex 0.0235189982 0.00288371486 -0.0113907373
  endloop
 endfacet

 facet normal 0.409299225 0.0435954146 -0.911358118
  outer loop
  vertex 0.024803903 0.00288371486 -0.0110904351
  vertex 0.0332377031 0.00288371486 -0.00730273919
  vertex 0.0353720225 -0.00593547057 -0.00676606782
  endloop
 endfacet

 facet normal 0.386723876 0.0112629151 -0.92212677
  outer loop
  vertex 0.024803903 0.00288371486 -0.0110904351
  vertex 0.0353720225 -0.00593547057 -0.00676606782
  vertex 0.0346605815 -0.00593547057 -0.0070644333
  endloop
 endfacet

 facet normal 0.380162418 0.00265629357 -0.924915969
  outer loop
  vertex 0.024803903 0.00288371486 -0.0110904351
  vertex 0.0346605815 -0.00593547057 -0.0070644333
  vertex 0.0341043659 -0.00593547057 -0.00729305157
  endloop
 endfacet

 facet normal 0.367466539 -0.0128988279 -0.929947317
  outer loop
  vertex 0.024803903 0.00288371486 -0.0110904351
  vertex 0.0341043659 -0.00593547057 -0.00729305157
  vertex 0.0332463272 -0.00593547057 -0.00763210328
  endloop
 endfacet

 facet normal 0.363428414 -0.0173577908 -0.931460381
  outer loop
  vertex 0.024803903 0.00288371486 -0.0110904351
  vertex 0.0332463272 -0.00593547057 -0.00763210328
  vertex 0.0252566375 -0.00593547057 -0.0107494453
  endloop
 endfacet

 facet normal 0.363129944 -0.0173775982 -0.931576431
  outer loop
  vertex 0.024803903 0.00288371486 -0.0110904351
  vertex 0.0252566375 -0.00593547057 -0.0107494453
  vertex 0.0235319342 -0.00593547057 -0.0114217373
  endloop
 endfacet

 facet normal 0.363091707 -0.0173715148 -0.93159157
  outer loop
  vertex 0.024803903 0.00288371486 -0.0110904351
  vertex 0.0235319342 -0.00593547057 -0.0114217373
  vertex 0.0207680967 -0.00593547057 -0.0124989543
  endloop
 endfacet

 facet normal 0.36269781 -0.0171661712 -0.931748748
  outer loop
  vertex 0.024803903 0.00288371486 -0.0110904351
  vertex 0.0207680967 -0.00593547057 -0.0124989543
  vertex 0.0160596576 -0.00593633391 -0.0143317729
  endloop
 endfacet

 facet normal 0.350978017 -0.00384660927 -0.936375916
  outer loop
  vertex 0.024803903 0.00288371486 -0.0110904351
  vertex 0.0160596576 -0.00593633391 -0.0143317729
  vertex 0.015201617 -0.00593633391 -0.0146533884
  endloop
 endfacet

 facet normal 0.319159716 0.0351057276 -0.947050512
  outer loop
  vertex 0.024803903 0.00288371486 -0.0110904351
  vertex 0.015201617 -0.00593633391 -0.0146533884
  vertex 0.0147876889 -0.00593633391 -0.0147928838
  endloop
 endfacet

 facet normal 0.312470049 0.0434922129 -0.948931456
  outer loop
  vertex 0.024803903 0.00288371486 -0.0110904351
  vertex 0.0147876889 -0.00593633391 -0.0147928838
  vertex 0.0142228482 -0.00593633391 -0.0149788782
  endloop
 endfacet

 facet normal 0.298118114 0.0622807108 -0.952495039
  outer loop
  vertex 0.024803903 0.00288371486 -0.0110904351
  vertex 0.0142228482 -0.00593633391 -0.0149788782
  vertex 0.0141236782 -0.0050764312 -0.0149536906
  endloop
 endfacet

 facet normal -0.0130363842 -0.999906957 0.00402694289
  outer loop
  vertex -0.00597342709 -0.00593633391 -0.0164203327
  vertex -0.0055939937 -0.00593633391 -0.0151919955
  vertex -0.00521024596 -0.00587935233 0.00019903043
  endloop
 endfacet

 facet normal -0.0074610929 -0.999964654 0.00388814649
  outer loop
  vertex -0.00521024596 -0.00587935233 0.00019903043
  vertex -0.0055939937 -0.00593633391 -0.0151919955
  vertex -0.00522749266 -0.00593633391 -0.0144887054
  endloop
 endfacet

 facet normal -0.00150254869 -0.999991357 0.00388125307
  outer loop
  vertex -0.00521024596 -0.00587935233 0.00019903043
  vertex -0.00522749266 -0.00593633391 -0.0144887054
  vertex 0.0321382023 -0.00593547057 0.00019903043
  endloop
 endfacet

 facet normal 0.994161487 0.107903324 0
  outer loop
  vertex 0.0347985588 0.00288371486 0.00019903043
  vertex 0.0357557684 -0.00593547057 0.00019903043
  vertex 0.0357557684 -0.00593547057 -0.00464650802
  endloop
 endfacet

 facet normal 0.994161487 0.107903324 0
  outer loop
  vertex 0.0347985588 0.00288371486 0.00019903043
  vertex 0.0357557684 -0.00593547057 -0.00464650802
  vertex 0.0347985588 0.00288371486 -0.00325930072
  endloop
 endfacet

 facet normal 0.587794721 0.09367612 -0.803568363
  outer loop
  vertex 0.0332377031 0.00288371486 -0.00730273919
  vertex 0.0334231071 0.00288371486 -0.00716711767
  vertex 0.0353504643 -0.00563674932 -0.00675056828
  endloop
 endfacet

 facet normal 0.55113399 0.0828536898 -0.830293119
  outer loop
  vertex 0.0332377031 0.00288371486 -0.00730273919
  vertex 0.0353504643 -0.00563674932 -0.00675056828
  vertex 0.0353720225 -0.00593547057 -0.00676606782
  endloop
 endfacet

 facet normal 0.937330008 0.0851736367 -0.337872684
  outer loop
  vertex 0.0353720225 -0.00593547057 -0.00676606782
  vertex 0.0353504643 -0.00563674932 -0.00675056828
  vertex 0.0354711935 -0.00593547057 -0.0064909514
  endloop
 endfacet

 facet normal 5.29441459e-05 -1 -1.90844003e-05
  outer loop
  vertex 0.0353720225 -0.00593547057 -0.00676606782
  vertex 0.0354711935 -0.00593547057 -0.0064909514
  vertex 0.0163959749 -0.00593633391 -0.0141864643
  endloop
 endfacet

 facet normal 0.000479090348 -0.999999225 -0.00110886048
  outer loop
  vertex 0.0353720225 -0.00593547057 -0.00676606782
  vertex 0.0163959749 -0.00593633391 -0.0141864643
  vertex 0.0160596576 -0.00593633391 -0.0143317729
  endloop
 endfacet

 facet normal 0.000678363489 -0.99999851 -0.00161752931
  outer loop
  vertex 0.0353720225 -0.00593547057 -0.00676606782
  vertex 0.0160596576 -0.00593633391 -0.0143317729
  vertex 0.0346605815 -0.00593547057 -0.0070644333
  endloop
 endfacet

 facet normal 0.000938249053 -0.99999702 -0.00228271261
  outer loop
  vertex 0.0346605815 -0.00593547057 -0.0070644333
  vertex 0.0160596576 -0.00593633391 -0.0143317729
  vertex 0.0341043659 -0.00593547057 -0.00729305157
  endloop
 endfacet

 facet normal 0.00372272683 -0.99994868 -0.00942110177
  outer loop
  vertex 0.0341043659 -0.00593547057 -0.00729305157
  vertex 0.0160596576 -0.00593633391 -0.0143317729
  vertex 0.0332463272 -0.00593547057 -0.00763210328
  endloop
 endfacet

 facet normal 0.0548996255 -0.988528132 -0.140706748
  outer loop
  vertex 0.0332463272 -0.00593547057 -0.00763210328
  vertex 0.0160596576 -0.00593633391 -0.0143317729
  vertex 0.0252566375 -0.00593547057 -0.0107494453
  endloop
 endfacet

 facet normal 0.119046018 -0.944752812 -0.305401593
  outer loop
  vertex 0.0252566375 -0.00593547057 -0.0107494453
  vertex 0.0160596576 -0.00593633391 -0.0143317729
  vertex 0.0235319342 -0.00593547057 -0.0114217373
  endloop
 endfacet

 facet normal 0.134864926 -0.92848146 -0.346025646
  outer loop
  vertex 0.0235319342 -0.00593547057 -0.0114217373
  vertex 0.0160596576 -0.00593633391 -0.0143317729
  vertex 0.0207680967 -0.00593547057 -0.0124989543
  endloop
 endfacet

 facet normal -2.57589345e-05 -1 0.000124291269
  outer loop
  vertex -0.00522749266 -0.00593633391 -0.0144887054
  vertex -0.00417111348 -0.00593633391 -0.0142697738
  vertex 0.0321382023 -0.00593547057 0.00019903043
  endloop
 endfacet

 facet normal -2.03857107e-05 -1 0.000110807217
  outer loop
  vertex 0.0321382023 -0.00593547057 0.00019903043
  vertex -0.00417111348 -0.00593633391 -0.0142697738
  vertex 0.0163959749 -0.00593633391 -0.0104859527
  endloop
 endfacet

 facet normal 0 -1 8.0772872e-05
  outer loop
  vertex 0.0321382023 -0.00593547057 0.00019903043
  vertex 0.0163959749 -0.00593633391 -0.0104859527
  vertex 0.0357557684 -0.00593547057 0.00019903043
  endloop
 endfacet

 facet normal 4.45798614e-05 -1 0
  outer loop
  vertex 0.0357557684 -0.00593547057 0.00019903043
  vertex 0.0163959749 -0.00593633391 -0.0104859527
  vertex 0.0163959749 -0.00593633391 -0.0141864643
  endloop
 endfacet

 facet normal 4.45798614e-05 -1 0
  outer loop
  vertex 0.0357557684 -0.00593547057 0.00019903043
  vertex 0.0163959749 -0.00593633391 -0.0141864643
  vertex 0.0357557684 -0.00593547057 -0.00464650802
  endloop
 endfacet

 facet normal 0.994035304 0.108878396 -0.00628607906
  outer loop
  vertex 0.0347985588 0.00288371486 -0.00325930072
  vertex 0.0357557684 -0.00593547057 -0.00464650802
  vertex 0.0347899348 0.00288371486 -0.00462325895
  endloop
 endfacet

 facet normal 0.708504438 0.126322553 -0.6943084
  outer loop
  vertex 0.0334231071 0.00288371486 -0.00716711767
  vertex 0.0345527865 0.00288371486 -0.00601434102
  vertex 0.0353504643 -0.00563674932 -0.00675056828
  endloop
 endfacet

 facet normal 0.944730937 0.114973903 -0.307025373
  outer loop
  vertex 0.0353504643 -0.00563674932 -0.00675056828
  vertex 0.0345527865 0.00288371486 -0.00601434102
  vertex 0.0354711935 -0.00593547057 -0.0064909514
  endloop
 endfacet

 facet normal 0.966775298 0.113067061 -0.229262754
  outer loop
  vertex 0.0354711935 -0.00593547057 -0.0064909514
  vertex 0.0345527865 0.00288371486 -0.00601434102
  vertex 0.0355832987 -0.00593547057 -0.00601821579
  endloop
 endfacet

 facet normal 5.00314418e-05 -1 -1.18645421e-05
  outer loop
  vertex 0.0354711935 -0.00593547057 -0.0064909514
  vertex 0.0355832987 -0.00593547057 -0.00601821579
  vertex 0.0163959749 -0.00593633391 -0.0141864643
  endloop
 endfacet

 facet normal 4.78117399e-05 -1 -6.65044081e-06
  outer loop
  vertex 0.0163959749 -0.00593633391 -0.0141864643
  vertex 0.0355832987 -0.00593547057 -0.00601821579
  vertex 0.0356997177 -0.00593547057 -0.00518124131
  endloop
 endfacet

 facet normal 4.70079176e-05 -1 -4.92735808e-06
  outer loop
  vertex 0.0163959749 -0.00593633391 -0.0141864643
  vertex 0.0356997177 -0.00593547057 -0.00518124131
  vertex 0.0357557684 -0.00593547057 -0.00464650802
  endloop
 endfacet

 facet normal 0.988674641 0.108547941 -0.103632621
  outer loop
  vertex 0.0357557684 -0.00593547057 -0.00464650802
  vertex 0.0356997177 -0.00593547057 -0.00518124131
  vertex 0.0347899348 0.00288371486 -0.00462325895
  endloop
 endfacet

 facet normal 0.984430015 0.110216811 -0.136930659
  outer loop
  vertex 0.0347899348 0.00288371486 -0.00462325895
  vertex 0.0356997177 -0.00593547057 -0.00518124131
  vertex 0.0355832987 -0.00593547057 -0.00601821579
  endloop
 endfacet

 facet normal 0.979294658 0.114502564 -0.16694665
  outer loop
  vertex 0.0347899348 0.00288371486 -0.00462325895
  vertex 0.0355832987 -0.00593547057 -0.00601821579
  vertex 0.0345527865 0.00288371486 -0.00601434102
  endloop
 endfacet

endsolid AssimpScene
