solid AssimpScene
 facet normal 0 0 -1
  outer loop
  vertex -0.111025378 -0.0280351285 -0.00300000003
  vertex -0.111945301 -0.0278905705 -0.00300000003
  vertex -0.112115316 -0.0273801684 -0.00300000003
  endloop
 endfacet

 facet normal 0 0 -1
  outer loop
  vertex -0.111025378 -0.0280351285 -0.00300000003
  vertex -0.112115316 -0.0273801684 -0.00300000003
  vertex -0.113047384 -0.0244801026 -0.00300000003
  endloop
 endfacet

 facet normal 0 0 -1
  outer loop
  vertex -0.111025378 -0.0280351285 -0.00300000003
  vertex -0.113047384 -0.0244801026 -0.00300000003
  vertex -0.113047384 -0.0188000705 -0.00300000003
  endloop
 endfacet

 facet normal 0 0 -1
  outer loop
  vertex -0.111025378 -0.0280351285 -0.00300000003
  vertex -0.113047384 -0.0188000705 -0.00300000003
  vertex -0.105293326 -0.0187856145 -0.00300000003
  endloop
 endfacet

 facet normal 0 0 -1
  outer loop
  vertex -0.111025378 -0.0280351285 -0.00300000003
  vertex -0.105293326 -0.0187856145 -0.00300000003
  vertex -0.105293326 -0.0252429284 -0.00300000003
  endloop
 endfacet

 facet normal 0 0 -1
  outer loop
  vertex -0.111025378 -0.0280351285 -0.00300000003
  vertex -0.105293326 -0.0252429284 -0.00300000003
  vertex -0.106415145 -0.0278905705 -0.00300000003
  endloop
 endfacet

 facet normal 0 0 -1
  outer loop
  vertex -0.111025378 -0.0280351285 -0.00300000003
  vertex -0.106415145 -0.0278905705 -0.00300000003
  vertex -0.107334308 -0.0280351285 -0.00300000003
  endloop
 endfacet

 facet normal 0 -1 0
  outer loop
  vertex -0.111025378 -0.0280351285 -0.00300000003
  vertex -0.107334308 -0.0280351285 -0.00300000003
  vertex -0.107334308 -0.0280351285 0.0149999997
  endloop
 endfacet

 facet normal 0 -1 0
  outer loop
  vertex -0.111025378 -0.0280351285 -0.00300000003
  vertex -0.107334308 -0.0280351285 0.0149999997
  vertex -0.111025378 -0.0280351285 0.0149999997
  endloop
 endfacet

 facet normal -0.155236706 -0.987877429 0
  outer loop
  vertex -0.111025378 -0.0280351285 -0.00300000003
  vertex -0.111025378 -0.0280351285 0.0149999997
  vertex -0.111945301 -0.0278905705 0.0149999997
  endloop
 endfacet

 facet normal -0.155236706 -0.987877429 0
  outer loop
  vertex -0.111025378 -0.0280351285 -0.00300000003
  vertex -0.111945301 -0.0278905705 0.0149999997
  vertex -0.111945301 -0.0278905705 -0.00300000003
  endloop
 endfacet

 facet normal -0.948748291 -0.316032827 0
  outer loop
  vertex -0.111945301 -0.0278905705 -0.00300000003
  vertex -0.111945301 -0.0278905705 0.0149999997
  vertex -0.112115316 -0.0273801684 0.0149999997
  endloop
 endfacet

 facet normal -0.948748291 -0.316032827 0
  outer loop
  vertex -0.111945301 -0.0278905705 -0.00300000003
  vertex -0.112115316 -0.0273801684 0.0149999997
  vertex -0.112115316 -0.0273801684 -0.00300000003
  endloop
 endfacet

 facet normal 0.155361474 -0.987857759 0
  outer loop
  vertex -0.107334308 -0.0280351285 -0.00300000003
  vertex -0.106415145 -0.0278905705 -0.00300000003
  vertex -0.106415145 -0.0278905705 0.0149999997
  endloop
 endfacet

 facet normal 0.155361474 -0.987857759 0
  outer loop
  vertex -0.107334308 -0.0280351285 -0.00300000003
  vertex -0.106415145 -0.0278905705 0.0149999997
  vertex -0.107334308 -0.0280351285 0.0149999997
  endloop
 endfacet

 facet normal 0 0 1
  outer loop
  vertex -0.111025378 -0.0280351285 0.0149999997
  vertex -0.107334308 -0.0280351285 0.0149999997
  vertex -0.106415145 -0.0278905705 0.0149999997
  endloop
 endfacet

 facet normal 0 0 1
  outer loop
  vertex -0.111025378 -0.0280351285 0.0149999997
  vertex -0.106415145 -0.0278905705 0.0149999997
  vertex -0.105293326 -0.0252429284 0.0149999997
  endloop
 endfacet

 facet normal 0 0 1
  outer loop
  vertex -0.111025378 -0.0280351285 0.0149999997
  vertex -0.105293326 -0.0252429284 0.0149999997
  vertex -0.105293326 -0.0187099986 0.0149999997
  endloop
 endfacet

 facet normal 0 0 1
  outer loop
  vertex -0.111025378 -0.0280351285 0.0149999997
  vertex -0.105293326 -0.0187099986 0.0149999997
  vertex -0.113047384 -0.0187244546 0.0149999997
  endloop
 endfacet

 facet normal 0 0 1
  outer loop
  vertex -0.111025378 -0.0280351285 0.0149999997
  vertex -0.113047384 -0.0187244546 0.0149999997
  vertex -0.113047384 -0.0244801026 0.0149999997
  endloop
 endfacet

 facet normal 0 0 1
  outer loop
  vertex -0.111025378 -0.0280351285 0.0149999997
  vertex -0.113047384 -0.0244801026 0.0149999997
  vertex -0.112115316 -0.0273801684 0.0149999997
  endloop
 endfacet

 facet normal 0 0 1
  outer loop
  vertex -0.111025378 -0.0280351285 0.0149999997
  vertex -0.112115316 -0.0273801684 0.0149999997
  vertex -0.111945301 -0.0278905705 0.0149999997
  endloop
 endfacet

 facet normal -0.952037752 -0.305980772 0
  outer loop
  vertex -0.112115316 -0.0273801684 -0.00300000003
  vertex -0.112115316 -0.0273801684 0.0149999997
  vertex -0.113047384 -0.0244801026 0.0149999997
  endloop
 endfacet

 facet normal -0.952037752 -0.305980772 0
  outer loop
  vertex -0.112115316 -0.0273801684 -0.00300000003
  vertex -0.113047384 -0.0244801026 0.0149999997
  vertex -0.113047384 -0.0244801026 -0.00300000003
  endloop
 endfacet

 facet normal 0.920759797 -0.390130162 0
  outer loop
  vertex -0.106415145 -0.0278905705 -0.00300000003
  vertex -0.105293326 -0.0252429284 -0.00300000003
  vertex -0.105293326 -0.0252429284 0.0149999997
  endloop
 endfacet

 facet normal 0.920759797 -0.390130162 0
  outer loop
  vertex -0.106415145 -0.0278905705 -0.00300000003
  vertex -0.105293326 -0.0252429284 0.0149999997
  vertex -0.106415145 -0.0278905705 0.0149999997
  endloop
 endfacet

 facet normal -1 0 0
  outer loop
  vertex -0.113047384 -0.0244801026 -0.00300000003
  vertex -0.113047384 -0.0244801026 0.0149999997
  vertex -0.113047384 -0.0187244546 0.0149999997
  endloop
 endfacet

 facet normal -1 0 0
  outer loop
  vertex -0.113047384 -0.0244801026 -0.00300000003
  vertex -0.113047384 -0.0187244546 0.0149999997
  vertex -0.113047384 -0.0166984126 0.0099784648
  endloop
 endfacet

 facet normal -1 0 0
  outer loop
  vertex -0.113047384 -0.0244801026 -0.00300000003
  vertex -0.113047384 -0.0166984126 0.0099784648
  vertex -0.113047384 -0.0166984126 0.00695849629
  endloop
 endfacet

 facet normal -1 0 0
  outer loop
  vertex -0.113047384 -0.0244801026 -0.00300000003
  vertex -0.113047384 -0.0166984126 0.00695849629
  vertex -0.113047384 -0.0167862605 0.0059806183
  endloop
 endfacet

 facet normal -1 0 0
  outer loop
  vertex -0.113047384 -0.0244801026 -0.00300000003
  vertex -0.113047384 -0.0167862605 0.0059806183
  vertex -0.113047384 -0.0188000705 -0.00300000003
  endloop
 endfacet

 facet normal 1 0 0
  outer loop
  vertex -0.105293326 -0.0252429284 -0.00300000003
  vertex -0.105293326 -0.0187856145 -0.00300000003
  vertex -0.105293326 -0.0167651325 0.0059806183
  endloop
 endfacet

 facet normal 1 0 0
  outer loop
  vertex -0.105293326 -0.0252429284 -0.00300000003
  vertex -0.105293326 -0.0167651325 0.0059806183
  vertex -0.105293326 -0.0166761726 0.00695849629
  endloop
 endfacet

 facet normal 1 0 0
  outer loop
  vertex -0.105293326 -0.0252429284 -0.00300000003
  vertex -0.105293326 -0.0166761726 0.00695849629
  vertex -0.105293326 -0.0166761726 0.0099784648
  endloop
 endfacet

 facet normal 1 0 0
  outer loop
  vertex -0.105293326 -0.0252429284 -0.00300000003
  vertex -0.105293326 -0.0166761726 0.0099784648
  vertex -0.105293326 -0.0187099986 0.0149999997
  endloop
 endfacet

 facet normal 1 0 0
  outer loop
  vertex -0.105293326 -0.0252429284 -0.00300000003
  vertex -0.105293326 -0.0187099986 0.0149999997
  vertex -0.105293326 -0.0252429284 0.0149999997
  endloop
 endfacet

 facet normal -0.00265867612 0.97576493 -0.218805104
  outer loop
  vertex -0.113047384 -0.0188000705 -0.00300000003
  vertex -0.113047384 -0.0167862605 0.0059806183
  vertex -0.105293326 -0.0167651325 0.0059806183
  endloop
 endfacet

 facet normal -0.00181882246 0.975611866 -0.219495565
  outer loop
  vertex -0.113047384 -0.0188000705 -0.00300000003
  vertex -0.105293326 -0.0167651325 0.0059806183
  vertex -0.105293326 -0.0187856145 -0.00300000003
  endloop
 endfacet

 facet normal -0.00285664224 0.995985031 -0.0894738361
  outer loop
  vertex -0.113047384 -0.0167862605 0.0059806183
  vertex -0.113047384 -0.0166984126 0.00695849629
  vertex -0.105293326 -0.0166761726 0.00695849629
  endloop
 endfacet

 facet normal -0.00271349493 0.995884001 -0.0905975476
  outer loop
  vertex -0.113047384 -0.0167862605 0.0059806183
  vertex -0.105293326 -0.0166761726 0.00695849629
  vertex -0.105293326 -0.0167651325 0.0059806183
  endloop
 endfacet

 facet normal -0.00172800047 0.926862001 0.375398338
  outer loop
  vertex -0.113047384 -0.0187244546 0.0149999997
  vertex -0.105293326 -0.0187099986 0.0149999997
  vertex -0.105293326 -0.0166761726 0.0099784648
  endloop
 endfacet

 facet normal -0.0026598128 0.927359343 0.374162346
  outer loop
  vertex -0.113047384 -0.0187244546 0.0149999997
  vertex -0.105293326 -0.0166761726 0.0099784648
  vertex -0.113047384 -0.0166984126 0.0099784648
  endloop
 endfacet

 facet normal -0.0028681457 0.999995887 0
  outer loop
  vertex -0.113047384 -0.0166984126 0.00695849629
  vertex -0.113047384 -0.0166984126 0.0099784648
  vertex -0.105293326 -0.0166761726 0.0099784648
  endloop
 endfacet

 facet normal -0.0028681457 0.999995887 0
  outer loop
  vertex -0.113047384 -0.0166984126 0.00695849629
  vertex -0.105293326 -0.0166761726 0.0099784648
  vertex -0.105293326 -0.0166761726 0.00695849629
  endloop
 endfacet

endsolid AssimpScene
