solid AssimpScene
 facet normal -0.0666508004 -0.291553825 -0.954229653
  outer loop
  vertex -0.00743374648 0.0101900594 -0.0565400869
  vertex -0.00743374648 0.00601283042 -0.0552637801
  vertex -0.00882556383 0.0101900594 -0.0564428717
  endloop
 endfacet

 facet normal -0.0681484044 0.208380505 -0.975670755
  outer loop
  vertex -0.00743374648 0.0101900594 -0.0565400869
  vertex -0.00882556383 0.0101900594 -0.0564428717
  vertex -0.00882556383 0.0111958329 -0.0562280603
  endloop
 endfacet

 facet normal -0.0469510034 0.236136302 -0.970585048
  outer loop
  vertex -0.00743374648 0.0101900594 -0.0565400869
  vertex -0.00882556383 0.0111958329 -0.0562280603
  vertex -0.00743374648 0.0112534389 -0.0562813729
  endloop
 endfacet

 facet normal 0 0.236396998 -0.971656561
  outer loop
  vertex -0.00743374648 0.0101900594 -0.0565400869
  vertex -0.00743374648 0.0112534389 -0.0562813729
  vertex 0.00787815731 0.0112534389 -0.0562813729
  endloop
 endfacet

 facet normal 0 0.236396998 -0.971656561
  outer loop
  vertex -0.00743374648 0.0101900594 -0.0565400869
  vertex 0.00787815731 0.0112534389 -0.0562813729
  vertex 0.00787815731 0.0101900594 -0.0565400869
  endloop
 endfacet

 facet normal 0 -0.292203575 -0.956356168
  outer loop
  vertex -0.00743374648 0.0101900594 -0.0565400869
  vertex 0.00787815731 0.0101900594 -0.0565400869
  vertex 0.00787815731 0.00601283042 -0.0552637801
  endloop
 endfacet

 facet normal 0 -0.292203575 -0.956356168
  outer loop
  vertex -0.00743374648 0.0101900594 -0.0565400869
  vertex 0.00787815731 0.00601283042 -0.0552637801
  vertex -0.00743374648 0.00601283042 -0.0552637801
  endloop
 endfacet

 facet normal -0.0462430641 -0.368259043 -0.928572536
  outer loop
  vertex -0.00743374648 0.00601283042 -0.0552637801
  vertex -0.00743374648 0.00500861416 -0.0548655242
  vertex -0.00882556383 0.00505687809 -0.054815352
  endloop
 endfacet

 facet normal -0.0752192289 -0.331623405 -0.940408409
  outer loop
  vertex -0.00743374648 0.00601283042 -0.0552637801
  vertex -0.00882556383 0.00505687809 -0.054815352
  vertex -0.00882556383 0.00601283042 -0.0551524572
  endloop
 endfacet

 facet normal -0.0762001127 -0.294295847 -0.952671766
  outer loop
  vertex -0.00743374648 0.00601283042 -0.0552637801
  vertex -0.00882556383 0.00601283042 -0.0551524572
  vertex -0.00882556383 0.0101900594 -0.0564428717
  endloop
 endfacet

 facet normal 0 -0.368653417 -0.929566979
  outer loop
  vertex -0.00743374648 0.00601283042 -0.0552637801
  vertex 0.00787815731 0.00601283042 -0.0552637801
  vertex 0.00787815731 0.00500861416 -0.0548655242
  endloop
 endfacet

 facet normal 0 -0.368653417 -0.929566979
  outer loop
  vertex -0.00743374648 0.00601283042 -0.0552637801
  vertex 0.00787815731 0.00500861416 -0.0548655242
  vertex -0.00743374648 0.00500861416 -0.0548655242
  endloop
 endfacet

 facet normal -0.167411178 -0.290988535 -0.94196558
  outer loop
  vertex -0.00882556383 0.0101900594 -0.0564428717
  vertex -0.00882556383 0.00601283042 -0.0551524572
  vertex -0.00961706508 0.00938668661 -0.0560540259
  endloop
 endfacet

 facet normal -0.328833133 -0.128850043 -0.935556829
  outer loop
  vertex -0.00882556383 0.0101900594 -0.0564428717
  vertex -0.00961706508 0.00938668661 -0.0560540259
  vertex -0.00968206767 0.0101900594 -0.0561418235
  endloop
 endfacet

 facet normal -0.330884814 0.0655180365 -0.941394031
  outer loop
  vertex -0.00882556383 0.0101900594 -0.0564428717
  vertex -0.00968206767 0.0101900594 -0.0561418235
  vertex -0.00964000728 0.0110557098 -0.0560963601
  endloop
 endfacet

 facet normal -0.190519556 0.205040351 -0.960031629
  outer loop
  vertex -0.00882556383 0.0101900594 -0.0564428717
  vertex -0.00964000728 0.0110557098 -0.0560963601
  vertex -0.00882556383 0.0111958329 -0.0562280603
  endloop
 endfacet

 facet normal -0.172336265 0.499523878 -0.848985374
  outer loop
  vertex -0.00882556383 0.0111958329 -0.0562280603
  vertex -0.00897086412 0.0127979089 -0.0552559383
  vertex -0.00743374648 0.0127979089 -0.0555679612
  endloop
 endfacet

 facet normal -0.0520591699 0.418770403 -0.906598747
  outer loop
  vertex -0.00882556383 0.0111958329 -0.0562280603
  vertex -0.00743374648 0.0127979089 -0.0555679612
  vertex -0.00743374648 0.0112534389 -0.0562813729
  endloop
 endfacet

 facet normal -0.220767468 0.491244525 -0.842579722
  outer loop
  vertex -0.00882556383 0.0111958329 -0.0562280603
  vertex -0.00964000728 0.0110557098 -0.0560963601
  vertex -0.00897086412 0.0127979089 -0.0552559383
  endloop
 endfacet

 facet normal -0.00102714705 0.419338822 -0.907829285
  outer loop
  vertex -0.00743374648 0.0112534389 -0.0562813729
  vertex -0.00743374648 0.0127979089 -0.0555679612
  vertex -0.00604766468 0.0127979089 -0.0555695295
  endloop
 endfacet

 facet normal 0 0.418578833 -0.908180475
  outer loop
  vertex -0.00743374648 0.0112534389 -0.0562813729
  vertex -0.00604766468 0.0127979089 -0.0555695295
  vertex 0.00648633949 0.0127979089 -0.0555695295
  endloop
 endfacet

 facet normal 0 0.418578833 -0.908180475
  outer loop
  vertex -0.00743374648 0.0112534389 -0.0562813729
  vertex 0.00648633949 0.0127979089 -0.0555695295
  vertex 0.00787815731 0.0112534389 -0.0562813729
  endloop
 endfacet

 facet normal 0.139994323 0.234069064 -0.962088048
  outer loop
  vertex 0.00787815731 0.0101900594 -0.0565400869
  vertex 0.00787815731 0.0112534389 -0.0562813729
  vertex 0.00887040049 0.0111304419 -0.0561669134
  endloop
 endfacet

 facet normal 0.260533333 0.105910346 -0.959638238
  outer loop
  vertex 0.00787815731 0.0101900594 -0.0565400869
  vertex 0.00887040049 0.0111304419 -0.0561669134
  vertex 0.00898702256 0.0101900594 -0.0562390387
  endloop
 endfacet

 facet normal 0.257355064 -0.187601253 -0.947931528
  outer loop
  vertex 0.00787815731 0.0101900594 -0.0565400869
  vertex 0.00898702256 0.0101900594 -0.0562390387
  vertex 0.00882834103 0.00933063682 -0.0561120324
  endloop
 endfacet

 facet normal 0.164276987 -0.288233757 -0.943363369
  outer loop
  vertex 0.00787815731 0.0101900594 -0.0565400869
  vertex 0.00882834103 0.00933063682 -0.0561120324
  vertex 0.00787815731 0.00601283042 -0.0552637801
  endloop
 endfacet

 facet normal -0.0494921766 -0.587888062 -0.807426929
  outer loop
  vertex -0.00743374648 0.00500861416 -0.0548655242
  vertex -0.00743374648 0.00183871493 -0.0525575168
  vertex -0.00882556383 0.00505687809 -0.054815352
  endloop
 endfacet

 facet normal 0 -0.588609338 -0.808417678
  outer loop
  vertex -0.00743374648 0.00500861416 -0.0548655242
  vertex 0.00787815731 0.00500861416 -0.0548655242
  vertex 0.00648633949 0.00183871493 -0.0525575168
  endloop
 endfacet

 facet normal 0 -0.588609338 -0.808417678
  outer loop
  vertex -0.00743374648 0.00500861416 -0.0548655242
  vertex 0.00648633949 0.00183871493 -0.0525575168
  vertex -0.00743374648 0.00183871493 -0.0525575168
  endloop
 endfacet

 facet normal -0.06067013 -0.590729117 -0.804585814
  outer loop
  vertex -0.00882556383 0.00505687809 -0.054815352
  vertex -0.00743374648 0.00183871493 -0.0525575168
  vertex -0.00882556383 0.00106336654 -0.0518833026
  endloop
 endfacet

 facet normal -0.111736104 -0.588113248 -0.801023006
  outer loop
  vertex -0.00882556383 0.00505687809 -0.054815352
  vertex -0.00882556383 0.00106336654 -0.0518833026
  vertex -0.00955779757 0.00110851717 -0.051814314
  endloop
 endfacet

 facet normal -0.204750657 -0.567949474 -0.797189176
  outer loop
  vertex -0.00882556383 0.00505687809 -0.054815352
  vertex -0.00955779757 0.00110851717 -0.051814314
  vertex -0.00963427126 0.00517676165 -0.0546930507
  endloop
 endfacet

 facet normal -0.188480139 -0.326604962 -0.926177382
  outer loop
  vertex -0.00882556383 0.00505687809 -0.054815352
  vertex -0.00963427126 0.00517676165 -0.0546930507
  vertex -0.00882556383 0.00601283042 -0.0551524572
  endloop
 endfacet

 facet normal -0.218142122 -0.299387872 -0.928860068
  outer loop
  vertex -0.00882556383 0.00601283042 -0.0551524572
  vertex -0.00963427126 0.00517676165 -0.0546930507
  vertex -0.00961706508 0.00938668661 -0.0560540259
  endloop
 endfacet

 facet normal 0.206157327 -0.297382772 -0.93223536
  outer loop
  vertex 0.00787815731 0.00601283042 -0.0552637801
  vertex 0.00882834103 0.00933063682 -0.0561120324
  vertex 0.00886084139 0.0051113707 -0.0547589026
  endloop
 endfacet

 facet normal 0.138071448 -0.365122557 -0.920663774
  outer loop
  vertex 0.00787815731 0.00601283042 -0.0552637801
  vertex 0.00886084139 0.0051113707 -0.0547589026
  vertex 0.00787815731 0.00500861416 -0.0548655242
  endloop
 endfacet

 facet normal -0.923226237 -0.11477723 -0.366714597
  outer loop
  vertex -0.00961706508 0.00938668661 -0.0560540259
  vertex -0.00963427126 0.00517676165 -0.0546930507
  vertex -0.00968206767 0.0101900594 -0.0561418235
  endloop
 endfacet

 facet normal -0.976592302 -0.0627603382 -0.205739245
  outer loop
  vertex -0.00968206767 0.0101900594 -0.0561418235
  vertex -0.00969736185 0.00601283042 -0.0547949672
  vertex -0.00987133943 0.0101900594 -0.055243399
  endloop
 endfacet

 facet normal -0.976858556 0.0582723543 -0.205795333
  outer loop
  vertex -0.00968206767 0.0101900594 -0.0561418235
  vertex -0.00987133943 0.0101900594 -0.055243399
  vertex -0.00964000728 0.0110557098 -0.0560963601
  endloop
 endfacet

 facet normal -0.924123406 -0.114184514 -0.364633977
  outer loop
  vertex -0.00968206767 0.0101900594 -0.0561418235
  vertex -0.00963427126 0.00517676165 -0.0546930507
  vertex -0.00969736185 0.00601283042 -0.0547949672
  endloop
 endfacet

 facet normal -0.98216331 0.119101219 -0.145500258
  outer loop
  vertex -0.00964000728 0.0110557098 -0.0560963601
  vertex -0.00987133943 0.0101900594 -0.055243399
  vertex -0.00974324625 0.0127979089 -0.0539733656
  endloop
 endfacet

 facet normal -0.962992609 0.183499798 -0.19741562
  outer loop
  vertex -0.00964000728 0.0110557098 -0.0560963601
  vertex -0.00974324625 0.0127979089 -0.0539733656
  vertex -0.00955970958 0.0127979089 -0.0548686609
  endloop
 endfacet

 facet normal -0.468257546 0.52329433 -0.711967587
  outer loop
  vertex -0.00964000728 0.0110557098 -0.0560963601
  vertex -0.00955970958 0.0127979089 -0.0548686609
  vertex -0.00897086412 0.0127979089 -0.0552559383
  endloop
 endfacet

 facet normal 0 1 0
  outer loop
  vertex -0.00897086412 0.0127979089 -0.0552559383
  vertex -0.00955970958 0.0127979089 -0.0548686609
  vertex -0.00974324625 0.0127979089 -0.0539733656
  endloop
 endfacet

 facet normal 0 1 0
  outer loop
  vertex -0.00897086412 0.0127979089 -0.0552559383
  vertex -0.00974324625 0.0127979089 -0.0539733656
  vertex -0.00989236962 0.0127979089 -0.0524587333
  endloop
 endfacet

 facet normal 0 1 0
  outer loop
  vertex -0.00897086412 0.0127979089 -0.0552559383
  vertex -0.00989236962 0.0127979089 -0.0524587333
  vertex -0.00990001671 0.0127979089 -0.0510679707
  endloop
 endfacet

 facet normal 0 1 0
  outer loop
  vertex -0.00897086412 0.0127979089 -0.0552559383
  vertex -0.00990001671 0.0127979089 -0.0510679707
  vertex -0.00990001671 0.0127979089 -0.0496756434
  endloop
 endfacet

 facet normal 0 1 0
  outer loop
  vertex -0.00897086412 0.0127979089 -0.0552559383
  vertex -0.00990001671 0.0127979089 -0.0496756434
  vertex -0.0098751625 0.0127979089 -0.0484620556
  endloop
 endfacet

 facet normal 0 1 0
  outer loop
  vertex -0.00897086412 0.0127979089 -0.0552559383
  vertex -0.0098751625 0.0127979089 -0.0484620556
  vertex -0.00987133943 0.0127979089 -0.0482848808
  endloop
 endfacet

 facet normal 0 1 0
  outer loop
  vertex -0.00897086412 0.0127979089 -0.0552559383
  vertex -0.00987133943 0.0127979089 -0.0482848808
  vertex -0.00968206767 0.0127979089 -0.0474052653
  endloop
 endfacet

 facet normal 0 1 0
  outer loop
  vertex -0.00897086412 0.0127979089 -0.0552559383
  vertex -0.00968206767 0.0127979089 -0.0474052653
  vertex -0.00893262774 0.0127979089 -0.0471606702
  endloop
 endfacet

 facet normal 0 1 0
  outer loop
  vertex -0.00897086412 0.0127979089 -0.0552559383
  vertex -0.00893262774 0.0127979089 -0.0471606702
  vertex -0.00882556383 0.0127979089 -0.0471261702
  endloop
 endfacet

 facet normal 0 1 0
  outer loop
  vertex -0.00897086412 0.0127979089 -0.0552559383
  vertex -0.00882556383 0.0127979089 -0.0471261702
  vertex 0.00091715809 0.0127979089 -0.0454719961
  endloop
 endfacet

 facet normal 0 1 0
  outer loop
  vertex -0.00897086412 0.0127979089 -0.0552559383
  vertex 0.00091715809 0.0127979089 -0.0454719961
  vertex 0.00213308656 0.0127979089 -0.0454469062
  endloop
 endfacet

 facet normal 0 1 0
  outer loop
  vertex -0.00897086412 0.0127979089 -0.0552559383
  vertex 0.00213308656 0.0127979089 -0.0454469062
  vertex 0.00230897567 0.0127979089 -0.0454437695
  endloop
 endfacet

 facet normal 0 1 0
  outer loop
  vertex -0.00897086412 0.0127979089 -0.0552559383
  vertex 0.00230897567 0.0127979089 -0.0454437695
  vertex 0.00370270503 0.0127979089 -0.0456413329
  endloop
 endfacet

 facet normal 0 1 0
  outer loop
  vertex -0.00897086412 0.0127979089 -0.0552559383
  vertex 0.00370270503 0.0127979089 -0.0456413329
  vertex 0.00900996476 0.0127979089 -0.0472813994
  endloop
 endfacet

 facet normal 0 1 0
  outer loop
  vertex -0.00897086412 0.0127979089 -0.0552559383
  vertex 0.00900996476 0.0127979089 -0.0472813994
  vertex 0.00953763165 0.0127979089 -0.0482848808
  endloop
 endfacet

 facet normal 0 1 0
  outer loop
  vertex -0.00897086412 0.0127979089 -0.0552559383
  vertex 0.00953763165 0.0127979089 -0.0482848808
  vertex 0.00963131152 0.0127979089 -0.0496756434
  endloop
 endfacet

 facet normal 0 1 0
  outer loop
  vertex -0.00897086412 0.0127979089 -0.0552559383
  vertex 0.00963131152 0.0127979089 -0.0496756434
  vertex 0.00963131152 0.0127979089 -0.0510679707
  endloop
 endfacet

 facet normal 0 1 0
  outer loop
  vertex -0.00897086412 0.0127979089 -0.0552559383
  vertex 0.00963131152 0.0127979089 -0.0510679707
  vertex 0.00961028133 0.0127979089 -0.0524587333
  endloop
 endfacet

 facet normal 0 1 0
  outer loop
  vertex -0.00897086412 0.0127979089 -0.0552559383
  vertex 0.00961028133 0.0127979089 -0.0524587333
  vertex 0.00943630468 0.0127979089 -0.053851068
  endloop
 endfacet

 facet normal 0 1 0
  outer loop
  vertex -0.00897086412 0.0127979089 -0.0552559383
  vertex 0.00943630468 0.0127979089 -0.053851068
  vertex 0.00893922616 0.0127979089 -0.0551963598
  endloop
 endfacet

 facet normal 0 1 0
  outer loop
  vertex -0.00897086412 0.0127979089 -0.0552559383
  vertex 0.00893922616 0.0127979089 -0.0551963598
  vertex 0.00789536349 0.0127979089 -0.0555146523
  endloop
 endfacet

 facet normal 0 1 0
  outer loop
  vertex -0.00897086412 0.0127979089 -0.0552559383
  vertex 0.00789536349 0.0127979089 -0.0555146523
  vertex 0.00787815731 0.0127979089 -0.0555193536
  endloop
 endfacet

 facet normal 0 1 0
  outer loop
  vertex -0.00897086412 0.0127979089 -0.0552559383
  vertex 0.00787815731 0.0127979089 -0.0555193536
  vertex 0.00648633949 0.0127979089 -0.0555695295
  endloop
 endfacet

 facet normal 0 1 0
  outer loop
  vertex -0.00897086412 0.0127979089 -0.0552559383
  vertex 0.00648633949 0.0127979089 -0.0555695295
  vertex -0.00604766468 0.0127979089 -0.0555695295
  endloop
 endfacet

 facet normal 0 1 0
  outer loop
  vertex -0.00897086412 0.0127979089 -0.0552559383
  vertex -0.00604766468 0.0127979089 -0.0555695295
  vertex -0.00743374648 0.0127979089 -0.0555679612
  endloop
 endfacet

 facet normal 0.0323128775 0.442231029 -0.896318913
  outer loop
  vertex 0.00787815731 0.0112534389 -0.0562813729
  vertex 0.00648633949 0.0127979089 -0.0555695295
  vertex 0.00787815731 0.0127979089 -0.0555193536
  endloop
 endfacet

 facet normal 0.156347141 0.437020719 -0.885758638
  outer loop
  vertex 0.00787815731 0.0112534389 -0.0562813729
  vertex 0.00787815731 0.0127979089 -0.0555193536
  vertex 0.00887040049 0.0111304419 -0.0561669134
  endloop
 endfacet

 facet normal 0.896630168 0.194513172 -0.397767514
  outer loop
  vertex 0.00887040049 0.0111304419 -0.0561669134
  vertex 0.00893922616 0.0127979089 -0.0551963598
  vertex 0.00948410016 0.0101900594 -0.055243399
  endloop
 endfacet

 facet normal 0.885407209 0.143707454 -0.442043245
  outer loop
  vertex 0.00887040049 0.0111304419 -0.0561669134
  vertex 0.00948410016 0.0101900594 -0.055243399
  vertex 0.00898702256 0.0101900594 -0.0562390387
  endloop
 endfacet

 facet normal 0.232713938 0.469287217 -0.851829648
  outer loop
  vertex 0.00887040049 0.0111304419 -0.0561669134
  vertex 0.00787815731 0.0127979089 -0.0555193536
  vertex 0.00789536349 0.0127979089 -0.0555146523
  endloop
 endfacet

 facet normal 0.256128967 0.478347301 -0.839989185
  outer loop
  vertex 0.00887040049 0.0111304419 -0.0561669134
  vertex 0.00789536349 0.0127979089 -0.0555146523
  vertex 0.00893922616 0.0127979089 -0.0551963598
  endloop
 endfacet

 facet normal 0.886585832 -0.134323955 -0.442631602
  outer loop
  vertex 0.00898702256 0.0101900594 -0.0562390387
  vertex 0.00948410016 0.0101900594 -0.055243399
  vertex 0.00901952386 0.00601283042 -0.05490629
  endloop
 endfacet

 facet normal 0.647505462 -0.227055475 -0.727449298
  outer loop
  vertex 0.00898702256 0.0101900594 -0.0562390387
  vertex 0.00901952386 0.00601283042 -0.05490629
  vertex 0.00882834103 0.00933063682 -0.0561120324
  endloop
 endfacet

 facet normal 0.63236475 -0.232150257 -0.739067733
  outer loop
  vertex 0.00882834103 0.00933063682 -0.0561120324
  vertex 0.00901952386 0.00601283042 -0.05490629
  vertex 0.00886084139 0.0051113707 -0.0547589026
  endloop
 endfacet

 facet normal -0.0379093401 -0.616089284 -0.786763668
  outer loop
  vertex -0.00743374648 0.00183871493 -0.0525575168
  vertex -0.00743374648 0.00103378482 -0.0519272014
  vertex -0.00882556383 0.00106336654 -0.0518833026
  endloop
 endfacet

 facet normal 0 -0.616532445 -0.787329555
  outer loop
  vertex -0.00743374648 0.00183871493 -0.0525575168
  vertex 0.00648633949 0.00183871493 -0.0525575168
  vertex 0.00787815731 0.00103378482 -0.0519272014
  endloop
 endfacet

 facet normal 0 -0.616532445 -0.787329555
  outer loop
  vertex -0.00743374648 0.00183871493 -0.0525575168
  vertex 0.00787815731 0.00103378482 -0.0519272014
  vertex -0.00743374648 0.00103378482 -0.0519272014
  endloop
 endfacet

 facet normal 0.147525698 -0.578193128 -0.802451789
  outer loop
  vertex 0.00787815731 0.00500861416 -0.0548655242
  vertex 0.00886084139 0.0051113707 -0.0547589026
  vertex 0.00872127712 0.00106959417 -0.0518723279
  endloop
 endfacet

 facet normal 0.115471646 -0.585190892 -0.802631855
  outer loop
  vertex 0.00787815731 0.00500861416 -0.0548655242
  vertex 0.00872127712 0.00106959417 -0.0518723279
  vertex 0.00787815731 0.00183871493 -0.0525543801
  endloop
 endfacet

 facet normal 0.00182093901 -0.589130759 -0.808035731
  outer loop
  vertex 0.00787815731 0.00500861416 -0.0548655242
  vertex 0.00787815731 0.00183871493 -0.0525543801
  vertex 0.00648633949 0.00183871493 -0.0525575168
  endloop
 endfacet

 facet normal -0.102766328 -0.830804527 -0.546994448
  outer loop
  vertex -0.00882556383 0.00106336654 -0.0518833026
  vertex -0.00886953622 -0.00135920825 -0.0481955074
  vertex -0.00955779757 0.00110851717 -0.051814314
  endloop
 endfacet

 facet normal -0.0353482366 -0.824032724 -0.565438509
  outer loop
  vertex -0.00882556383 0.00106336654 -0.0518833026
  vertex -0.00743374648 0.00103378482 -0.0519272014
  vertex -0.00743374648 -0.00137944834 -0.0484103151
  endloop
 endfacet

 facet normal -0.0936220437 -0.831608713 -0.547413707
  outer loop
  vertex -0.00882556383 0.00106336654 -0.0518833026
  vertex -0.00743374648 -0.00137944834 -0.0484103151
  vertex -0.00886953622 -0.00135920825 -0.0481955074
  endloop
 endfacet

 facet normal -0.956977785 -0.240883797 -0.161766812
  outer loop
  vertex -0.00955779757 0.00110851717 -0.051814314
  vertex -0.00962471217 -0.000454635156 -0.0490908027
  vertex -0.00969353784 -0.000722426455 -0.0482848808
  endloop
 endfacet

 facet normal -0.982659817 -0.146424189 -0.113752268
  outer loop
  vertex -0.00955779757 0.00110851717 -0.051814314
  vertex -0.00969353784 -0.000722426455 -0.0482848808
  vertex -0.00964191835 0.00183871493 -0.0520275533
  endloop
 endfacet

 facet normal -0.959022284 -0.175450489 -0.222470999
  outer loop
  vertex -0.00955779757 0.00110851717 -0.051814314
  vertex -0.00964191835 0.00183871493 -0.0520275533
  vertex -0.00963427126 0.00517676165 -0.0546930507
  endloop
 endfacet

 facet normal -0.397890538 -0.79143548 -0.464018315
  outer loop
  vertex -0.00955779757 0.00110851717 -0.051814314
  vertex -0.00886953622 -0.00135920825 -0.0481955074
  vertex -0.00962471217 -0.000454635156 -0.0490908027
  endloop
 endfacet

 facet normal -0.978156686 -0.128335238 -0.163522705
  outer loop
  vertex -0.00963427126 0.00517676165 -0.0546930507
  vertex -0.00964191835 0.00183871493 -0.0520275533
  vertex -0.00988472253 0.00601283042 -0.053851068
  endloop
 endfacet

 facet normal -0.976210654 -0.0972874016 -0.193773597
  outer loop
  vertex -0.00963427126 0.00517676165 -0.0546930507
  vertex -0.00988472253 0.00601283042 -0.053851068
  vertex -0.00969736185 0.00601283042 -0.0547949672
  endloop
 endfacet

 facet normal 0.883113027 -0.222945377 -0.41280362
  outer loop
  vertex 0.00886084139 0.0051113707 -0.0547589026
  vertex 0.00901952386 0.00601283042 -0.05490629
  vertex 0.00951277744 0.00601283042 -0.053851068
  endloop
 endfacet

 facet normal 0.888875186 -0.270308226 -0.369911313
  outer loop
  vertex 0.00886084139 0.0051113707 -0.0547589026
  vertex 0.00951277744 0.00601283042 -0.053851068
  vertex 0.00894878618 0.00183871493 -0.0521561243
  endloop
 endfacet

 facet normal 0.724790752 -0.416816533 -0.548582196
  outer loop
  vertex 0.00886084139 0.0051113707 -0.0547589026
  vertex 0.00894878618 0.00183871493 -0.0521561243
  vertex 0.00872127712 0.00106959417 -0.0518723279
  endloop
 endfacet

 facet normal -0.978998601 -0.0616354309 -0.194326982
  outer loop
  vertex -0.00969736185 0.00601283042 -0.0547949672
  vertex -0.00988472253 0.00601283042 -0.053851068
  vertex -0.00987133943 0.0101900594 -0.055243399
  endloop
 endfacet

 facet normal -0.999781311 -0.00366063486 -0.0205924325
  outer loop
  vertex -0.00987133943 0.0101900594 -0.055243399
  vertex -0.00988472253 0.00601283042 -0.053851068
  vertex -0.00990001671 0.0101900594 -0.053851068
  endloop
 endfacet

 facet normal -0.99969101 0.0139248548 -0.0205905735
  outer loop
  vertex -0.00987133943 0.0101900594 -0.055243399
  vertex -0.00990001671 0.0101900594 -0.053851068
  vertex -0.00989236962 0.0127979089 -0.0524587333
  endloop
 endfacet

 facet normal -0.990577221 0.0961515605 -0.0975273997
  outer loop
  vertex -0.00987133943 0.0101900594 -0.055243399
  vertex -0.00989236962 0.0127979089 -0.0524587333
  vertex -0.00974324625 0.0127979089 -0.0539733656
  endloop
 endfacet

 facet normal 0.919402599 0.198224038 -0.339714766
  outer loop
  vertex 0.00893922616 0.0127979089 -0.0551963598
  vertex 0.00943630468 0.0127979089 -0.053851068
  vertex 0.00948410016 0.0101900594 -0.055243399
  endloop
 endfacet

 facet normal 0.897778749 -0.133714885 -0.419659019
  outer loop
  vertex 0.00948410016 0.0101900594 -0.055243399
  vertex 0.00951277744 0.00601283042 -0.053851068
  vertex 0.00901952386 0.00601283042 -0.05490629
  endloop
 endfacet

 facet normal 0.988769472 0.0840851292 -0.123550147
  outer loop
  vertex 0.00948410016 0.0101900594 -0.055243399
  vertex 0.00943630468 0.0127979089 -0.053851068
  vertex 0.00961028133 0.0127979089 -0.0524587333
  endloop
 endfacet

 facet normal 0.996338069 0.0350607745 -0.0779815987
  outer loop
  vertex 0.00948410016 0.0101900594 -0.055243399
  vertex 0.00961028133 0.0127979089 -0.0524587333
  vertex 0.00959307514 0.0101900594 -0.053851068
  endloop
 endfacet

 facet normal 0.996767998 -0.0191605352 -0.0780152529
  outer loop
  vertex 0.00948410016 0.0101900594 -0.055243399
  vertex 0.00959307514 0.0101900594 -0.053851068
  vertex 0.00951277744 0.00601283042 -0.053851068
  endloop
 endfacet

 facet normal 0 -0.824548006 -0.565792024
  outer loop
  vertex -0.00743374648 0.00103378482 -0.0519272014
  vertex 0.00787815731 0.00103378482 -0.0519272014
  vertex 0.00787815731 -0.00137944834 -0.0484103151
  endloop
 endfacet

 facet normal 0 -0.824548006 -0.565792024
  outer loop
  vertex -0.00743374648 0.00103378482 -0.0519272014
  vertex 0.00787815731 -0.00137944834 -0.0484103151
  vertex -0.00743374648 -0.00137944834 -0.0484103151
  endloop
 endfacet

 facet normal 0.00177763146 -0.614624202 -0.788818061
  outer loop
  vertex 0.00648633949 0.00183871493 -0.0525575168
  vertex 0.00787815731 0.00183871493 -0.0525543801
  vertex 0.00787815731 0.00103378482 -0.0519272014
  endloop
 endfacet

 facet normal 0.894290864 -0.361735046 -0.263422966
  outer loop
  vertex 0.00872127712 0.00106959417 -0.0518723279
  vertex 0.00894878618 0.00183871493 -0.0521561243
  vertex 0.00897555146 -0.000979318749 -0.0481955074
  endloop
 endfacet

 facet normal 0.752729833 -0.551560998 -0.359413952
  outer loop
  vertex 0.00872127712 0.00106959417 -0.0518723279
  vertex 0.00897555146 -0.000979318749 -0.0481955074
  vertex 0.00884172227 -0.000538709108 -0.0491519533
  endloop
 endfacet

 facet normal 0.601427257 -0.675779641 -0.426153839
  outer loop
  vertex 0.00872127712 0.00106959417 -0.0518723279
  vertex 0.00884172227 -0.000538709108 -0.0491519533
  vertex 0.00862568617 -0.00166436599 -0.0476718172
  endloop
 endfacet

 facet normal 0.21039407 -0.821534991 -0.529919505
  outer loop
  vertex 0.00872127712 0.00106959417 -0.0518723279
  vertex 0.00862568617 -0.00166436599 -0.0476718172
  vertex 0.00787815731 -0.00137944834 -0.0484103151
  endloop
 endfacet

 facet normal 0.0716618001 -0.822428107 -0.564337373
  outer loop
  vertex 0.00872127712 0.00106959417 -0.0518723279
  vertex 0.00787815731 -0.00137944834 -0.0484103151
  vertex 0.00787815731 0.00103378482 -0.0519272014
  endloop
 endfacet

 facet normal 0.0772156566 -0.612790227 -0.786464214
  outer loop
  vertex 0.00872127712 0.00106959417 -0.0518723279
  vertex 0.00787815731 0.00103378482 -0.0519272014
  vertex 0.00787815731 0.00183871493 -0.0525543801
  endloop
 endfacet

 facet normal -0.51708138 -0.780164599 -0.352094024
  outer loop
  vertex -0.00886953622 -0.00135920825 -0.0481955074
  vertex -0.00953485537 -0.00304535823 -0.0434822813
  vertex -0.00962471217 -0.000454635156 -0.0490908027
  endloop
 endfacet

 facet normal -0.0800448656 -0.88878721 -0.451276243
  outer loop
  vertex -0.00886953622 -0.00135920825 -0.0481955074
  vertex -0.00743374648 -0.00137944834 -0.0484103151
  vertex -0.00843363721 -0.00166436599 -0.0476718172
  endloop
 endfacet

 facet normal -0.21043703 -0.910679042 -0.355499446
  outer loop
  vertex -0.00886953622 -0.00135920825 -0.0481955074
  vertex -0.00843363721 -0.00166436599 -0.0476718172
  vertex -0.00953485537 -0.00304535823 -0.0434822813
  endloop
 endfacet

 facet normal -0.0280760117 -0.919252276 -0.392666578
  outer loop
  vertex -0.00743374648 -0.00137944834 -0.0484103151
  vertex -0.00743374648 -0.00167682127 -0.0477141514
  vertex -0.00843363721 -0.00166436599 -0.0476718172
  endloop
 endfacet

 facet normal 0 -0.919614792 -0.392821431
  outer loop
  vertex -0.00743374648 -0.00137944834 -0.0484103151
  vertex 0.00787815731 -0.00137944834 -0.0484103151
  vertex 0.00787815731 -0.00167682127 -0.0477141514
  endloop
 endfacet

 facet normal 0 -0.919614792 -0.392821431
  outer loop
  vertex -0.00743374648 -0.00137944834 -0.0484103151
  vertex 0.00787815731 -0.00167682127 -0.0477141514
  vertex -0.00743374648 -0.00167682127 -0.0477141514
  endloop
 endfacet

 facet normal -0.7600137 -0.594552219 -0.262462765
  outer loop
  vertex -0.00962471217 -0.000454635156 -0.0490908027
  vertex -0.00953485537 -0.00304535823 -0.0434822813
  vertex -0.00969353784 -0.000722426455 -0.0482848808
  endloop
 endfacet

 facet normal -0.955138206 -0.277752161 -0.102785133
  outer loop
  vertex -0.00969353784 -0.000722426455 -0.0482848808
  vertex -0.00953485537 -0.00304535823 -0.0434822813
  vertex -0.00967250764 -0.00237588049 -0.0440122448
  endloop
 endfacet

 facet normal -0.986797452 -0.152619407 -0.0542045683
  outer loop
  vertex -0.00969353784 -0.000722426455 -0.0482848808
  vertex -0.00967250764 -0.00237588049 -0.0440122448
  vertex -0.00988854561 -0.000945066568 -0.0441078916
  endloop
 endfacet

 facet normal -0.990571856 -0.126335129 -0.0529797897
  outer loop
  vertex -0.00969353784 -0.000722426455 -0.0482848808
  vertex -0.00988854561 -0.000945066568 -0.0441078916
  vertex -0.00984266121 0.000446824211 -0.0482848808
  endloop
 endfacet

 facet normal -0.987017095 -0.125881761 -0.0997550189
  outer loop
  vertex -0.00969353784 -0.000722426455 -0.0482848808
  vertex -0.00984266121 0.000446824211 -0.0482848808
  vertex -0.00964191835 0.00183871493 -0.0520275533
  endloop
 endfacet

 facet normal -0.989103734 -0.11254546 -0.0949072093
  outer loop
  vertex -0.00964191835 0.00183871493 -0.0520275533
  vertex -0.00984266121 0.000446824211 -0.0482848808
  vertex -0.00989236962 0.00323060574 -0.0510679707
  endloop
 endfacet

 facet normal -0.9887923 -0.104219101 -0.106903456
  outer loop
  vertex -0.00964191835 0.00183871493 -0.0520275533
  vertex -0.00989236962 0.00323060574 -0.0510679707
  vertex -0.00988472253 0.00601283042 -0.053851068
  endloop
 endfacet

 facet normal -0.999972701 -0.00366133545 -0.0064078914
  outer loop
  vertex -0.00988472253 0.00601283042 -0.053851068
  vertex -0.00989236962 0.00323060574 -0.0510679707
  vertex -0.00990001671 0.0101900594 -0.053851068
  endloop
 endfacet

 facet normal 0.941268563 -0.228228375 -0.248848081
  outer loop
  vertex 0.00951277744 0.00601283042 -0.053851068
  vertex 0.00957395695 0.00323060574 -0.0510679707
  vertex 0.00894878618 0.00183871493 -0.0521561243
  endloop
 endfacet

 facet normal 0.997995794 -0.0191841349 -0.0603032783
  outer loop
  vertex 0.00951277744 0.00601283042 -0.053851068
  vertex 0.00959307514 0.0101900594 -0.053851068
  vertex 0.00962366443 0.00740472088 -0.0524587333
  endloop
 endfacet

 facet normal 0.998297632 -0.0287893638 -0.0507251434
  outer loop
  vertex 0.00951277744 0.00601283042 -0.053851068
  vertex 0.00962366443 0.00740472088 -0.0524587333
  vertex 0.00957395695 0.00323060574 -0.0510679707
  endloop
 endfacet

 facet normal 0.942483187 -0.24891749 -0.223081797
  outer loop
  vertex 0.00894878618 0.00183871493 -0.0521561243
  vertex 0.00957395695 0.00323060574 -0.0510679707
  vertex 0.00949748326 0.000446824211 -0.0482848808
  endloop
 endfacet

 facet normal 0.903412461 -0.346456736 -0.252613902
  outer loop
  vertex 0.00894878618 0.00183871493 -0.0521561243
  vertex 0.00949748326 0.000446824211 -0.0482848808
  vertex 0.00897555146 -0.000979318749 -0.0481955074
  endloop
 endfacet

 facet normal -0.999967694 0.00586797809 -0.00549848238
  outer loop
  vertex -0.00990001671 0.0101900594 -0.053851068
  vertex -0.00990001671 0.0127979089 -0.0510679707
  vertex -0.00989236962 0.0127979089 -0.0524587333
  endloop
 endfacet

 facet normal -0.999992311 -0.0023541355 -0.00313903205
  outer loop
  vertex -0.00990001671 0.0101900594 -0.053851068
  vertex -0.00989236962 0.00323060574 -0.0510679707
  vertex -0.00990001671 0.00462249666 -0.0496756434
  endloop
 endfacet

 facet normal -1 0 0
  outer loop
  vertex -0.00990001671 0.0101900594 -0.053851068
  vertex -0.00990001671 0.00462249666 -0.0496756434
  vertex -0.00990001671 0.00183871493 -0.0468925498
  endloop
 endfacet

 facet normal -1 0 0
  outer loop
  vertex -0.00990001671 0.0101900594 -0.053851068
  vertex -0.00990001671 0.00183871493 -0.0468925498
  vertex -0.00990001671 0.00183871493 -0.0405235775
  endloop
 endfacet

 facet normal -1 0 0
  outer loop
  vertex -0.00990001671 0.0101900594 -0.053851068
  vertex -0.00990001671 0.00183871493 -0.0405235775
  vertex -0.00990001671 0.00462249666 -0.0405235775
  endloop
 endfacet

 facet normal -1 0 0
  outer loop
  vertex -0.00990001671 0.0101900594 -0.053851068
  vertex -0.00990001671 0.00462249666 -0.0405235775
  vertex -0.00990001671 0.0127979089 -0.0496756434
  endloop
 endfacet

 facet normal -1 0 0
  outer loop
  vertex -0.00990001671 0.0101900594 -0.053851068
  vertex -0.00990001671 0.0127979089 -0.0496756434
  vertex -0.00990001671 0.0127979089 -0.0510679707
  endloop
 endfacet

 facet normal 0.999854803 0.00786005892 -0.0151193086
  outer loop
  vertex 0.00961028133 0.0127979089 -0.0524587333
  vertex 0.00963131152 0.0127979089 -0.0510679707
  vertex 0.00961984042 0.011581949 -0.0524587333
  endloop
 endfacet

 facet normal 0.999602675 0.00785807706 -0.0270711388
  outer loop
  vertex 0.00961028133 0.0127979089 -0.0524587333
  vertex 0.00961984042 0.011581949 -0.0524587333
  vertex 0.00959307514 0.0101900594 -0.053851068
  endloop
 endfacet

 facet normal 0.999755025 0.00274680066 -0.0219644215
  outer loop
  vertex 0.00959307514 0.0101900594 -0.053851068
  vertex 0.00961984042 0.011581949 -0.0524587333
  vertex 0.00962366443 0.0101900594 -0.0524587333
  endloop
 endfacet

 facet normal 0.99975872 0 -0.0219645016
  outer loop
  vertex 0.00959307514 0.0101900594 -0.053851068
  vertex 0.00962366443 0.0101900594 -0.0524587333
  vertex 0.00962366443 0.00740472088 -0.0524587333
  endloop
 endfacet

 facet normal 0.927803695 -0.347981155 -0.134497255
  outer loop
  vertex 0.00897555146 -0.000979318749 -0.0481955074
  vertex 0.00949748326 0.000446824211 -0.0482848808
  vertex 0.00901952386 -0.00243348652 -0.044129841
  endloop
 endfacet

 facet normal 0.798281074 -0.564312875 -0.210471854
  outer loop
  vertex 0.00897555146 -0.000979318749 -0.0481955074
  vertex 0.00901952386 -0.00243348652 -0.044129841
  vertex 0.00867921673 -0.00308272406 -0.0436798409
  endloop
 endfacet

 facet normal 0.794768512 -0.568447411 -0.21262823
  outer loop
  vertex 0.00897555146 -0.000979318749 -0.0481955074
  vertex 0.00867921673 -0.00308272406 -0.0436798409
  vertex 0.00862568617 -0.00166436599 -0.0476718172
  endloop
 endfacet

 facet normal 0.667482376 -0.636416435 -0.386576593
  outer loop
  vertex 0.00897555146 -0.000979318749 -0.0481955074
  vertex 0.00862568617 -0.00166436599 -0.0476718172
  vertex 0.00884172227 -0.000538709108 -0.0491519533
  endloop
 endfacet

 facet normal 0.158119082 -0.929765224 -0.332467973
  outer loop
  vertex 0.00862568617 -0.00166436599 -0.0476718172
  vertex 0.00867921673 -0.00308272406 -0.0436798409
  vertex 0.00787815731 -0.00292236102 -0.0445092805
  endloop
 endfacet

 facet normal 0.0360218734 -0.931478202 -0.362009466
  outer loop
  vertex 0.00862568617 -0.00166436599 -0.0476718172
  vertex 0.00787815731 -0.00292236102 -0.0445092805
  vertex 0.00787815731 -0.00167682127 -0.0477141514
  endloop
 endfacet

 facet normal 0.0375426933 -0.918966472 -0.392544508
  outer loop
  vertex 0.00862568617 -0.00166436599 -0.0476718172
  vertex 0.00787815731 -0.00167682127 -0.0477141514
  vertex 0.00787815731 -0.00137944834 -0.0484103151
  endloop
 endfacet

 facet normal -0.183119684 -0.918353081 -0.350848675
  outer loop
  vertex -0.00953485537 -0.00304535823 -0.0434822813
  vertex -0.00843363721 -0.00166436599 -0.0476718172
  vertex -0.00882556383 -0.00285074254 -0.0443618931
  endloop
 endfacet

 facet normal -0.125646532 -0.942451417 -0.30983603
  outer loop
  vertex -0.00953485537 -0.00304535823 -0.0434822813
  vertex -0.00882556383 -0.00285074254 -0.0443618931
  vertex -0.00882556383 -0.00307961041 -0.0436657295
  endloop
 endfacet

 facet normal -0.0482344925 -0.99883604 0
  outer loop
  vertex -0.00953485537 -0.00304535823 -0.0434822813
  vertex -0.00882556383 -0.00307961041 -0.0436657295
  vertex -0.00882556383 -0.00307961041 -0.043344304
  endloop
 endfacet

 facet normal -0.0482344925 -0.99883604 0
  outer loop
  vertex -0.00953485537 -0.00304535823 -0.0434822813
  vertex -0.00882556383 -0.00307961041 -0.043344304
  vertex -0.00953485537 -0.00304535823 -0.0433944762
  endloop
 endfacet

 facet normal -0.979509652 -0.201397836 0
  outer loop
  vertex -0.00953485537 -0.00304535823 -0.0434822813
  vertex -0.00953485537 -0.00304535823 -0.0433944762
  vertex -0.00967250764 -0.00237588049 -0.0440122448
  endloop
 endfacet

 facet normal -0.0269380119 -0.931744814 -0.362113059
  outer loop
  vertex -0.00843363721 -0.00166436599 -0.0476718172
  vertex -0.00743374648 -0.00167682127 -0.0477141514
  vertex -0.00743374648 -0.00292236102 -0.0445092805
  endloop
 endfacet

 facet normal -0.0846404955 -0.934754074 -0.345066428
  outer loop
  vertex -0.00843363721 -0.00166436599 -0.0476718172
  vertex -0.00743374648 -0.00292236102 -0.0445092805
  vertex -0.00882556383 -0.00285074254 -0.0443618931
  endloop
 endfacet

 facet normal 0 -0.932083189 -0.362244576
  outer loop
  vertex -0.00743374648 -0.00167682127 -0.0477141514
  vertex 0.00787815731 -0.00167682127 -0.0477141514
  vertex 0.00787815731 -0.00292236102 -0.0445092805
  endloop
 endfacet

 facet normal 0 -0.932083189 -0.362244576
  outer loop
  vertex -0.00743374648 -0.00167682127 -0.0477141514
  vertex 0.00787815731 -0.00292236102 -0.0445092805
  vertex -0.00743374648 -0.00292236102 -0.0445092805
  endloop
 endfacet

 facet normal -0.987752318 -0.154774219 0.0197575819
  outer loop
  vertex -0.00967250764 -0.00237588049 -0.0440122448
  vertex -0.00964956544 -0.00207695086 -0.0405235775
  vertex -0.00974324625 -0.0014790917 -0.0405235775
  endloop
 endfacet

 facet normal -0.98880899 -0.148095131 0.0180192478
  outer loop
  vertex -0.00967250764 -0.00237588049 -0.0440122448
  vertex -0.00974324625 -0.0014790917 -0.0405235775
  vertex -0.00988854561 -0.000945066568 -0.0441078916
  endloop
 endfacet

 facet normal -0.983089566 -0.181794211 0.0220421553
  outer loop
  vertex -0.00967250764 -0.00237588049 -0.0440122448
  vertex -0.00953485537 -0.00304535823 -0.0433944762
  vertex -0.00964956544 -0.00207695086 -0.0405235775
  endloop
 endfacet

 facet normal -0.999960899 -0.00824135076 0.00320035103
  outer loop
  vertex -0.00988854561 -0.000945066568 -0.0441078916
  vertex -0.00988854561 0.000446824211 -0.0405235775
  vertex -0.00990001671 0.00183871493 -0.0405235775
  endloop
 endfacet

 facet normal -0.999974191 -0.00686813286 0.00213378854
  outer loop
  vertex -0.00988854561 -0.000945066568 -0.0441078916
  vertex -0.00990001671 0.00183871493 -0.0405235775
  vertex -0.00989810564 0.000446824211 -0.0441078916
  endloop
 endfacet

 facet normal -0.999972701 -0.00686812168 -0.00274653081
  outer loop
  vertex -0.00988854561 -0.000945066568 -0.0441078916
  vertex -0.00989810564 0.000446824211 -0.0441078916
  vertex -0.00990001671 0.00183871493 -0.0468925498
  endloop
 endfacet

 facet normal -0.999948502 -0.00893060397 -0.00480846222
  outer loop
  vertex -0.00988854561 -0.000945066568 -0.0441078916
  vertex -0.00990001671 0.00183871493 -0.0468925498
  vertex -0.00989236962 0.00323060574 -0.0510679707
  endloop
 endfacet

 facet normal -0.998744845 -0.0431913659 -0.0253637265
  outer loop
  vertex -0.00988854561 -0.000945066568 -0.0441078916
  vertex -0.00989236962 0.00323060574 -0.0510679707
  vertex -0.00984266121 0.000446824211 -0.0482848808
  endloop
 endfacet

 facet normal -0.989275455 -0.144883007 0.0185167287
  outer loop
  vertex -0.00988854561 -0.000945066568 -0.0441078916
  vertex -0.00974324625 -0.0014790917 -0.0405235775
  vertex -0.00981780794 -0.000969977176 -0.0405235775
  endloop
 endfacet

 facet normal -0.998568833 -0.0498561636 0.0193605646
  outer loop
  vertex -0.00988854561 -0.000945066568 -0.0441078916
  vertex -0.00981780794 -0.000969977176 -0.0405235775
  vertex -0.00988854561 0.000446824211 -0.0405235775
  endloop
 endfacet

 facet normal -0.99999249 -0.00274630589 -0.00274698669
  outer loop
  vertex -0.00989236962 0.00323060574 -0.0510679707
  vertex -0.00990001671 0.00183871493 -0.0468925498
  vertex -0.00990001671 0.00462249666 -0.0496756434
  endloop
 endfacet

 facet normal 0.997031212 -0.0663863495 -0.0390065685
  outer loop
  vertex 0.00957395695 0.00323060574 -0.0510679707
  vertex 0.00956822094 -0.000945066568 -0.0441078916
  vertex 0.00949748326 0.000446824211 -0.0482848808
  endloop
 endfacet

 facet normal 0.999303043 -0.0219585858 -0.0301878862
  outer loop
  vertex 0.00957395695 0.00323060574 -0.0510679707
  vertex 0.00962366443 0.00740472088 -0.0524587333
  vertex 0.00961601734 0.00323060574 -0.0496756434
  endloop
 endfacet

 facet normal 0.998210788 -0.0516338423 -0.0301548894
  outer loop
  vertex 0.00957395695 0.00323060574 -0.0510679707
  vertex 0.00961601734 0.00323060574 -0.0496756434
  vertex 0.00956822094 -0.000945066568 -0.0441078916
  endloop
 endfacet

 facet normal 0.99998492 0 -0.00549857784
  outer loop
  vertex 0.00962366443 0.00740472088 -0.0524587333
  vertex 0.00962366443 0.0101900594 -0.0524587333
  vertex 0.00963131152 0.0127979089 -0.0510679707
  endloop
 endfacet

 facet normal 0.99998492 0 -0.00549857784
  outer loop
  vertex 0.00962366443 0.00740472088 -0.0524587333
  vertex 0.00963131152 0.0127979089 -0.0510679707
  vertex 0.00963131152 0.00740472088 -0.0510679707
  endloop
 endfacet

 facet normal 0.99996984 -0.0054981499 -0.00549849449
  outer loop
  vertex 0.00962366443 0.00740472088 -0.0524587333
  vertex 0.00963131152 0.00740472088 -0.0510679707
  vertex 0.00961601734 0.00323060574 -0.0496756434
  endloop
 endfacet

 facet normal 0.930993378 -0.341295242 -0.129495606
  outer loop
  vertex 0.00949748326 0.000446824211 -0.0482848808
  vertex 0.00956822094 -0.000945066568 -0.0441078916
  vertex 0.00901952386 -0.00243348652 -0.044129841
  endloop
 endfacet

 facet normal 1 0 0
  outer loop
  vertex 0.00963131152 0.0127979089 -0.0510679707
  vertex 0.00963131152 0.0127979089 -0.0496756434
  vertex 0.00963131152 0.00323060574 -0.0405235775
  endloop
 endfacet

 facet normal 1 0 0
  outer loop
  vertex 0.00963131152 0.0127979089 -0.0510679707
  vertex 0.00963131152 0.00323060574 -0.0405235775
  vertex 0.00963131152 0.00183871493 -0.0405235775
  endloop
 endfacet

 facet normal 1 0 0
  outer loop
  vertex 0.00963131152 0.0127979089 -0.0510679707
  vertex 0.00963131152 0.00183871493 -0.0405235775
  vertex 0.00963131152 0.00183871493 -0.0427155606
  endloop
 endfacet

 facet normal 1 0 0
  outer loop
  vertex 0.00963131152 0.0127979089 -0.0510679707
  vertex 0.00963131152 0.00183871493 -0.0427155606
  vertex 0.00963131152 0.00323060574 -0.0455002189
  endloop
 endfacet

 facet normal 1 0 0
  outer loop
  vertex 0.00963131152 0.0127979089 -0.0510679707
  vertex 0.00963131152 0.00323060574 -0.0455002189
  vertex 0.00963131152 0.00740472088 -0.0510679707
  endloop
 endfacet

 facet normal 0.999939561 0.002747308 -0.0106498692
  outer loop
  vertex 0.00963131152 0.0127979089 -0.0510679707
  vertex 0.00962366443 0.0101900594 -0.0524587333
  vertex 0.00961984042 0.011581949 -0.0524587333
  endloop
 endfacet

 facet normal 0.93787992 -0.346103162 0.0243715271
  outer loop
  vertex 0.00901952386 -0.00243348652 -0.044129841
  vertex 0.00956822094 -0.000945066568 -0.0441078916
  vertex 0.00916482415 -0.0017858058 -0.0405235775
  endloop
 endfacet

 facet normal 0.9041695 -0.425301433 0.0399536677
  outer loop
  vertex 0.00901952386 -0.00243348652 -0.044129841
  vertex 0.00916482415 -0.0017858058 -0.0405235775
  vertex 0.00867921673 -0.00308272406 -0.0433395989
  endloop
 endfacet

 facet normal 0.885702729 -0.464252889 0
  outer loop
  vertex 0.00901952386 -0.00243348652 -0.044129841
  vertex 0.00867921673 -0.00308272406 -0.0433395989
  vertex 0.00867921673 -0.00308272406 -0.0436798409
  endloop
 endfacet

 facet normal 0.0310820304 -0.999516904 0
  outer loop
  vertex 0.00867921673 -0.00308272406 -0.0436798409
  vertex 0.00867921673 -0.00308272406 -0.0433395989
  vertex 0.00787815731 -0.00310763484 -0.0433035381
  endloop
 endfacet

 facet normal 0.0310820304 -0.999516904 0
  outer loop
  vertex 0.00867921673 -0.00308272406 -0.0436798409
  vertex 0.00787815731 -0.00310763484 -0.0433035381
  vertex 0.00787815731 -0.00310763484 -0.0438131168
  endloop
 endfacet

 facet normal 0.0726475418 -0.963809431 -0.256503165
  outer loop
  vertex 0.00867921673 -0.00308272406 -0.0436798409
  vertex 0.00787815731 -0.00310763484 -0.0438131168
  vertex 0.00787815731 -0.00292236102 -0.0445092805
  endloop
 endfacet

 facet normal 0 -0.966362834 -0.257182688
  outer loop
  vertex 0.00787815731 -0.00292236102 -0.0445092805
  vertex 0.00787815731 -0.00310763484 -0.0438131168
  vertex -0.00743374648 -0.00310763484 -0.0438131168
  endloop
 endfacet

 facet normal 0 -0.966362834 -0.257182688
  outer loop
  vertex 0.00787815731 -0.00292236102 -0.0445092805
  vertex -0.00743374648 -0.00310763484 -0.0438131168
  vertex -0.00743374648 -0.00292236102 -0.0445092805
  endloop
 endfacet

 facet normal -0.081681475 -0.946805596 -0.311267436
  outer loop
  vertex -0.00882556383 -0.00285074254 -0.0443618931
  vertex -0.00743374648 -0.00292236102 -0.0445092805
  vertex -0.00882556383 -0.00307961041 -0.0436657295
  endloop
 endfacet

 facet normal -0.0466414019 -0.96531117 -0.256902814
  outer loop
  vertex -0.00882556383 -0.00307961041 -0.0436657295
  vertex -0.00743374648 -0.00292236102 -0.0445092805
  vertex -0.00743374648 -0.00310763484 -0.0438131168
  endloop
 endfacet

 facet normal -0.0201309547 -0.999797463 0
  outer loop
  vertex -0.00882556383 -0.00307961041 -0.0436657295
  vertex -0.00743374648 -0.00310763484 -0.0438131168
  vertex -0.00743374648 -0.00310763484 -0.0433035381
  endloop
 endfacet

 facet normal -0.0201309547 -0.999797463 0
  outer loop
  vertex -0.00882556383 -0.00307961041 -0.0436657295
  vertex -0.00743374648 -0.00310763484 -0.0433035381
  vertex -0.00882556383 -0.00307961041 -0.043344304
  endloop
 endfacet

 facet normal -0.478558421 -0.842940807 0.245830327
  outer loop
  vertex -0.00953485537 -0.00304535823 -0.0433944762
  vertex -0.00883894693 -0.00260319118 -0.0405235775
  vertex -0.00917351898 -0.00241324655 -0.0405235775
  endloop
 endfacet

 facet normal -0.559432268 -0.791910172 0.244773373
  outer loop
  vertex -0.00953485537 -0.00304535823 -0.0433944762
  vertex -0.00917351898 -0.00241324655 -0.0405235775
  vertex -0.00964956544 -0.00207695086 -0.0405235775
  endloop
 endfacet

 facet normal -0.0570522659 -0.989758372 0.130856559
  outer loop
  vertex -0.00953485537 -0.00304535823 -0.0433944762
  vertex -0.00882556383 -0.00307961041 -0.043344304
  vertex -0.00743374648 -0.00278690853 -0.0405235775
  endloop
 endfacet

 facet normal -0.127494231 -0.975166261 0.181096926
  outer loop
  vertex -0.00953485537 -0.00304535823 -0.0433944762
  vertex -0.00743374648 -0.00278690853 -0.0405235775
  vertex -0.00883894693 -0.00260319118 -0.0405235775
  endloop
 endfacet

 facet normal 0 0 1
  outer loop
  vertex -0.00964956544 -0.00207695086 -0.0405235775
  vertex -0.00917351898 -0.00241324655 -0.0405235775
  vertex -0.00883894693 -0.00260319118 -0.0405235775
  endloop
 endfacet

 facet normal 0 0 1
  outer loop
  vertex -0.00964956544 -0.00207695086 -0.0405235775
  vertex -0.00883894693 -0.00260319118 -0.0405235775
  vertex -0.00743374648 -0.00278690853 -0.0405235775
  endloop
 endfacet

 facet normal 0 0 1
  outer loop
  vertex -0.00964956544 -0.00207695086 -0.0405235775
  vertex -0.00743374648 -0.00278690853 -0.0405235775
  vertex -0.00604001712 -0.00278846547 -0.0405235775
  endloop
 endfacet

 facet normal 0 0 1
  outer loop
  vertex -0.00964956544 -0.00207695086 -0.0405235775
  vertex -0.00604001712 -0.00278846547 -0.0405235775
  vertex 0.00648633949 -0.00278846547 -0.0405235775
  endloop
 endfacet

 facet normal 0 0 1
  outer loop
  vertex -0.00964956544 -0.00207695086 -0.0405235775
  vertex 0.00648633949 -0.00278846547 -0.0405235775
  vertex 0.00755123282 -0.00276666856 -0.0405235775
  endloop
 endfacet

 facet normal 0 0 1
  outer loop
  vertex -0.00964956544 -0.00207695086 -0.0405235775
  vertex 0.00755123282 -0.00276666856 -0.0405235775
  vertex 0.00787815731 -0.00275421329 -0.0405235775
  endloop
 endfacet

 facet normal 0 0 1
  outer loop
  vertex -0.00964956544 -0.00207695086 -0.0405235775
  vertex 0.00787815731 -0.00275421329 -0.0405235775
  vertex 0.00894687325 -0.00221396005 -0.0405235775
  endloop
 endfacet

 facet normal 0 0 1
  outer loop
  vertex -0.00964956544 -0.00207695086 -0.0405235775
  vertex 0.00894687325 -0.00221396005 -0.0405235775
  vertex 0.00916482415 -0.0017858058 -0.0405235775
  endloop
 endfacet

 facet normal 0 0 1
  outer loop
  vertex -0.00964956544 -0.00207695086 -0.0405235775
  vertex 0.00916482415 -0.0017858058 -0.0405235775
  vertex 0.00947262999 -0.000945066568 -0.0405235775
  endloop
 endfacet

 facet normal 0 0 1
  outer loop
  vertex -0.00964956544 -0.00207695086 -0.0405235775
  vertex 0.00947262999 -0.000945066568 -0.0405235775
  vertex 0.00958160404 -0.000354992255 -0.0405235775
  endloop
 endfacet

 facet normal 0 0 1
  outer loop
  vertex -0.00964956544 -0.00207695086 -0.0405235775
  vertex 0.00958160404 -0.000354992255 -0.0405235775
  vertex 0.00961984042 0.000446824211 -0.0405235775
  endloop
 endfacet

 facet normal 0 0 1
  outer loop
  vertex -0.00964956544 -0.00207695086 -0.0405235775
  vertex 0.00961984042 0.000446824211 -0.0405235775
  vertex 0.00962557644 0.00103689882 -0.0405235775
  endloop
 endfacet

 facet normal 0 0 1
  outer loop
  vertex -0.00964956544 -0.00207695086 -0.0405235775
  vertex 0.00962557644 0.00103689882 -0.0405235775
  vertex 0.00963131152 0.00183871493 -0.0405235775
  endloop
 endfacet

 facet normal 0 0 1
  outer loop
  vertex -0.00964956544 -0.00207695086 -0.0405235775
  vertex 0.00963131152 0.00183871493 -0.0405235775
  vertex 0.00963131152 0.00323060574 -0.0405235775
  endloop
 endfacet

 facet normal 0 0 1
  outer loop
  vertex -0.00964956544 -0.00207695086 -0.0405235775
  vertex 0.00963131152 0.00323060574 -0.0405235775
  vertex 0.00962940045 0.00462249666 -0.0405235775
  endloop
 endfacet

 facet normal 0 0 1
  outer loop
  vertex -0.00964956544 -0.00207695086 -0.0405235775
  vertex 0.00962940045 0.00462249666 -0.0405235775
  vertex 0.00940571539 0.00514250901 -0.0405235775
  endloop
 endfacet

 facet normal 0 0 1
  outer loop
  vertex -0.00964956544 -0.00207695086 -0.0405235775
  vertex 0.00940571539 0.00514250901 -0.0405235775
  vertex 0.00904629007 0.00597390719 -0.0405235775
  endloop
 endfacet

 facet normal 0 0 1
  outer loop
  vertex -0.00964956544 -0.00207695086 -0.0405235775
  vertex 0.00904629007 0.00597390719 -0.0405235775
  vertex 0.00787815731 0.00647990778 -0.0405235775
  endloop
 endfacet

 facet normal 0 0 1
  outer loop
  vertex -0.00964956544 -0.00207695086 -0.0405235775
  vertex 0.00787815731 0.00647990778 -0.0405235775
  vertex 0.00377726671 0.00786245707 -0.0405235775
  endloop
 endfacet

 facet normal 0 0 1
  outer loop
  vertex -0.00964956544 -0.00207695086 -0.0405235775
  vertex 0.00377726671 0.00786245707 -0.0405235775
  vertex 0.00230897567 0.00797766913 -0.0405235775
  endloop
 endfacet

 facet normal 0 0 1
  outer loop
  vertex -0.00964956544 -0.00207695086 -0.0405235775
  vertex 0.00230897567 0.00797766913 -0.0405235775
  vertex 0.00125937723 0.00796210021 -0.0405235775
  endloop
 endfacet

 facet normal 0 0 1
  outer loop
  vertex -0.00964956544 -0.00207695086 -0.0405235775
  vertex 0.00125937723 0.00796210021 -0.0405235775
  vertex 0.00091715809 0.00795431528 -0.0405235775
  endloop
 endfacet

 facet normal 0 0 1
  outer loop
  vertex -0.00964956544 -0.00207695086 -0.0405235775
  vertex 0.00091715809 0.00795431528 -0.0405235775
  vertex -0.00882556383 0.00624169782 -0.0405235775
  endloop
 endfacet

 facet normal 0 0 1
  outer loop
  vertex -0.00964956544 -0.00207695086 -0.0405235775
  vertex -0.00882556383 0.00624169782 -0.0405235775
  vertex -0.00971074495 0.00568899 -0.0405235775
  endloop
 endfacet

 facet normal 0 0 1
  outer loop
  vertex -0.00964956544 -0.00207695086 -0.0405235775
  vertex -0.00971074495 0.00568899 -0.0405235775
  vertex -0.00979104172 0.00525772152 -0.0405235775
  endloop
 endfacet

 facet normal 0 0 1
  outer loop
  vertex -0.00964956544 -0.00207695086 -0.0405235775
  vertex -0.00979104172 0.00525772152 -0.0405235775
  vertex -0.00990001671 0.00462249666 -0.0405235775
  endloop
 endfacet

 facet normal 0 0 1
  outer loop
  vertex -0.00964956544 -0.00207695086 -0.0405235775
  vertex -0.00990001671 0.00462249666 -0.0405235775
  vertex -0.00990001671 0.00183871493 -0.0405235775
  endloop
 endfacet

 facet normal 0 0 1
  outer loop
  vertex -0.00964956544 -0.00207695086 -0.0405235775
  vertex -0.00990001671 0.00183871493 -0.0405235775
  vertex -0.00988854561 0.000446824211 -0.0405235775
  endloop
 endfacet

 facet normal 0 0 1
  outer loop
  vertex -0.00964956544 -0.00207695086 -0.0405235775
  vertex -0.00988854561 0.000446824211 -0.0405235775
  vertex -0.00981780794 -0.000969977176 -0.0405235775
  endloop
 endfacet

 facet normal 0 0 1
  outer loop
  vertex -0.00964956544 -0.00207695086 -0.0405235775
  vertex -0.00981780794 -0.000969977176 -0.0405235775
  vertex -0.00974324625 -0.0014790917 -0.0405235775
  endloop
 endfacet

 facet normal -0.999999046 -0.00137336249 0
  outer loop
  vertex -0.00990001671 0.00183871493 -0.0405235775
  vertex -0.00990001671 0.00183871493 -0.0468925498
  vertex -0.00989810564 0.000446824211 -0.0441078916
  endloop
 endfacet

 facet normal 0.938749909 -0.343688667 0.0250357874
  outer loop
  vertex 0.00956822094 -0.000945066568 -0.0441078916
  vertex 0.00947262999 -0.000945066568 -0.0405235775
  vertex 0.00916482415 -0.0017858058 -0.0405235775
  endloop
 endfacet

 facet normal 0.999327123 -0.0329437666 -0.0161282271
  outer loop
  vertex 0.00956822094 -0.000945066568 -0.0441078916
  vertex 0.00961601734 0.00323060574 -0.0496756434
  vertex 0.00961410534 0.000446824211 -0.0441078916
  endloop
 endfacet

 facet normal 0.999423206 -0.0329469368 -0.00823357608
  outer loop
  vertex 0.00956822094 -0.000945066568 -0.0441078916
  vertex 0.00961410534 0.000446824211 -0.0441078916
  vertex 0.00962557644 0.000446824211 -0.0427155606
  endloop
 endfacet

 facet normal 0.999037802 -0.0437822305 0.00261417846
  outer loop
  vertex 0.00956822094 -0.000945066568 -0.0441078916
  vertex 0.00962557644 0.000446824211 -0.0427155606
  vertex 0.00961984042 0.000446824211 -0.0405235775
  endloop
 endfacet

 facet normal 0.998856485 -0.0476329885 0.00411214679
  outer loop
  vertex 0.00956822094 -0.000945066568 -0.0441078916
  vertex 0.00961984042 0.000446824211 -0.0405235775
  vertex 0.00958160404 -0.000354992255 -0.0405235775
  endloop
 endfacet

 facet normal 0.983033121 -0.181545272 0.0262167882
  outer loop
  vertex 0.00956822094 -0.000945066568 -0.0441078916
  vertex 0.00958160404 -0.000354992255 -0.0405235775
  vertex 0.00947262999 -0.000945066568 -0.0405235775
  endloop
 endfacet

 facet normal 0.999981344 -0.00488592405 -0.00366295199
  outer loop
  vertex 0.00961601734 0.00323060574 -0.0496756434
  vertex 0.00963131152 0.00740472088 -0.0510679707
  vertex 0.00963131152 0.00323060574 -0.0455002189
  endloop
 endfacet

 facet normal 0.999978185 -0.00549408002 -0.00366293988
  outer loop
  vertex 0.00961601734 0.00323060574 -0.0496756434
  vertex 0.00963131152 0.00323060574 -0.0455002189
  vertex 0.00962366443 0.00183871493 -0.0455002189
  endloop
 endfacet

 facet normal 0.999967813 -0.00687738135 -0.00412404863
  outer loop
  vertex 0.00961601734 0.00323060574 -0.0496756434
  vertex 0.00962366443 0.00183871493 -0.0455002189
  vertex 0.00962557644 0.000446824211 -0.0427155606
  endloop
 endfacet

 facet normal 0.999818921 -0.0171607882 -0.00823683664
  outer loop
  vertex 0.00961601734 0.00323060574 -0.0496756434
  vertex 0.00962557644 0.000446824211 -0.0427155606
  vertex 0.00961410534 0.000446824211 -0.0441078916
  endloop
 endfacet

 facet normal -0.999527812 0.0229160842 0.0204706155
  outer loop
  vertex -0.00990001671 0.0127979089 -0.0496756434
  vertex -0.00990001671 0.00462249666 -0.0405235775
  vertex -0.0098751625 0.0127979089 -0.0484620556
  endloop
 endfacet

 facet normal 0.999998033 0.00137336121 0.0014356717
  outer loop
  vertex 0.00963131152 0.0127979089 -0.0496756434
  vertex 0.00962940045 0.00462249666 -0.0405235775
  vertex 0.00963131152 0.00323060574 -0.0405235775
  endloop
 endfacet

 facet normal 0.994944632 0.0747921839 0.0670186281
  outer loop
  vertex 0.00963131152 0.0127979089 -0.0496756434
  vertex 0.00953763165 0.0127979089 -0.0482848808
  vertex 0.00962940045 0.00462249666 -0.0405235775
  endloop
 endfacet

 facet normal 0.889822125 -0.452960581 0.0551662259
  outer loop
  vertex 0.00916482415 -0.0017858058 -0.0405235775
  vertex 0.00894687325 -0.00221396005 -0.0405235775
  vertex 0.00867921673 -0.00308272406 -0.0433395989
  endloop
 endfacet

 facet normal 0.0377655141 -0.991262615 0.126381516
  outer loop
  vertex 0.00867921673 -0.00308272406 -0.0433395989
  vertex 0.00787815731 -0.00275421329 -0.0405235775
  vertex 0.00755123282 -0.00276666856 -0.0405235775
  endloop
 endfacet

 facet normal 0.0364958197 -0.99137336 0.125885367
  outer loop
  vertex 0.00867921673 -0.00308272406 -0.0433395989
  vertex 0.00755123282 -0.00276666856 -0.0405235775
  vertex 0.00787815731 -0.00310763484 -0.0433035381
  endloop
 endfacet

 facet normal 0.439431965 -0.869274259 0.226410717
  outer loop
  vertex 0.00867921673 -0.00308272406 -0.0433395989
  vertex 0.00894687325 -0.00221396005 -0.0405235775
  vertex 0.00787815731 -0.00275421329 -0.0405235775
  endloop
 endfacet

 facet normal 0 -1 0
  outer loop
  vertex 0.00787815731 -0.00310763484 -0.0438131168
  vertex 0.00787815731 -0.00310763484 -0.0433035381
  vertex -0.00743374648 -0.00310763484 -0.0433035381
  endloop
 endfacet

 facet normal 0 -1 0
  outer loop
  vertex 0.00787815731 -0.00310763484 -0.0438131168
  vertex -0.00743374648 -0.00310763484 -0.0433035381
  vertex -0.00743374648 -0.00310763484 -0.0438131168
  endloop
 endfacet

 facet normal -0.0233529322 -0.993139625 0.11457932
  outer loop
  vertex -0.00882556383 -0.00307961041 -0.043344304
  vertex -0.00743374648 -0.00310763484 -0.0433035381
  vertex -0.00743374648 -0.00278690853 -0.0405235775
  endloop
 endfacet

 facet normal -0.0011096762 -0.993409872 0.114610508
  outer loop
  vertex -0.00743374648 -0.00278690853 -0.0405235775
  vertex -0.00743374648 -0.00310763484 -0.0433035381
  vertex -0.00604001712 -0.00278846547 -0.0405235775
  endloop
 endfacet

 facet normal -0.97093606 0.166567668 0.171867415
  outer loop
  vertex -0.00990001671 0.00462249666 -0.0405235775
  vertex -0.00979104172 0.00525772152 -0.0405235775
  vertex -0.00987133943 0.0127979089 -0.0482848808
  endloop
 endfacet

 facet normal -0.999479711 0.0239805859 0.0215670411
  outer loop
  vertex -0.00990001671 0.00462249666 -0.0405235775
  vertex -0.00987133943 0.0127979089 -0.0482848808
  vertex -0.0098751625 0.0127979089 -0.0484620556
  endloop
 endfacet

 facet normal 0.999979019 -0.00549408561 -0.00343262684
  outer loop
  vertex 0.00962557644 0.000446824211 -0.0427155606
  vertex 0.00962366443 0.00183871493 -0.0455002189
  vertex 0.00963131152 0.00323060574 -0.0455002189
  endloop
 endfacet

 facet normal 0.99998945 -0.00412079319 -0.00205974677
  outer loop
  vertex 0.00962557644 0.000446824211 -0.0427155606
  vertex 0.00963131152 0.00323060574 -0.0455002189
  vertex 0.00963131152 0.00183871493 -0.0427155606
  endloop
 endfacet

 facet normal 0.999991536 -0.00412080111 0
  outer loop
  vertex 0.00962557644 0.000446824211 -0.0427155606
  vertex 0.00963131152 0.00183871493 -0.0427155606
  vertex 0.00963131152 0.00183871493 -0.0405235775
  endloop
 endfacet

 facet normal 0.999972522 -0.00715325586 0.00192563259
  outer loop
  vertex 0.00962557644 0.000446824211 -0.0427155606
  vertex 0.00963131152 0.00183871493 -0.0405235775
  vertex 0.00962557644 0.00103689882 -0.0405235775
  endloop
 endfacet

 facet normal 0.999949336 -0.00971989706 0.00261656358
  outer loop
  vertex 0.00962557644 0.000446824211 -0.0427155606
  vertex 0.00962557644 0.00103689882 -0.0405235775
  vertex 0.00961984042 0.000446824211 -0.0405235775
  endloop
 endfacet

 facet normal 0.851330519 0.366202623 0.375675529
  outer loop
  vertex 0.00962940045 0.00462249666 -0.0405235775
  vertex 0.00953763165 0.0127979089 -0.0482848808
  vertex 0.00940571539 0.00514250901 -0.0405235775
  endloop
 endfacet

 facet normal 0.802380562 0.422100037 0.421920627
  outer loop
  vertex 0.00953763165 0.0127979089 -0.0482848808
  vertex 0.00900996476 0.0127979089 -0.0472813994
  vertex 0.00904629007 0.00597390719 -0.0405235775
  endloop
 endfacet

 facet normal 0.850176036 0.36754334 0.376978338
  outer loop
  vertex 0.00953763165 0.0127979089 -0.0482848808
  vertex 0.00904629007 0.00597390719 -0.0405235775
  vertex 0.00940571539 0.00514250901 -0.0405235775
  endloop
 endfacet

 facet normal 0.0203062333 -0.992066085 0.124066427
  outer loop
  vertex 0.00755123282 -0.00276666856 -0.0405235775
  vertex 0.00648633949 -0.00278846547 -0.0405235775
  vertex 0.00787815731 -0.00310763484 -0.0433035381
  endloop
 endfacet

 facet normal 0 -0.993473709 0.114061497
  outer loop
  vertex 0.00787815731 -0.00310763484 -0.0433035381
  vertex 0.00648633949 -0.00278846547 -0.0405235775
  vertex -0.00604001712 -0.00278846547 -0.0405235775
  endloop
 endfacet

 facet normal 0 -0.993473709 0.114061497
  outer loop
  vertex 0.00787815731 -0.00310763484 -0.0433035381
  vertex -0.00604001712 -0.00278846547 -0.0405235775
  vertex -0.00743374648 -0.00310763484 -0.0433035381
  endloop
 endfacet

 facet normal -0.966179788 0.179889694 0.184760675
  outer loop
  vertex -0.00979104172 0.00525772152 -0.0405235775
  vertex -0.00971074495 0.00568899 -0.0405235775
  vertex -0.00987133943 0.0127979089 -0.0482848808
  endloop
 endfacet

 facet normal -0.95721823 0.203248069 0.205970213
  outer loop
  vertex -0.00987133943 0.0127979089 -0.0482848808
  vertex -0.00971074495 0.00568899 -0.0405235775
  vertex -0.00968206767 0.0127979089 -0.0474052653
  endloop
 endfacet

 facet normal 0.291869581 0.673798561 0.67882818
  outer loop
  vertex 0.00900996476 0.0127979089 -0.0472813994
  vertex 0.00787815731 0.00647990778 -0.0405235775
  vertex 0.00904629007 0.00597390719 -0.0405235775
  endloop
 endfacet

 facet normal 0.209275633 0.70539391 0.677217185
  outer loop
  vertex 0.00900996476 0.0127979089 -0.0472813994
  vertex 0.00370270503 0.0127979089 -0.0456413329
  vertex 0.00377726671 0.00786245707 -0.0405235775
  endloop
 endfacet

 facet normal 0.232838914 0.690642297 0.684689224
  outer loop
  vertex 0.00900996476 0.0127979089 -0.0472813994
  vertex 0.00377726671 0.00786245707 -0.0405235775
  vertex 0.00787815731 0.00647990778 -0.0405235775
  endloop
 endfacet

 facet normal -0.398781866 0.638663411 0.658089757
  outer loop
  vertex -0.00971074495 0.00568899 -0.0405235775
  vertex -0.00882556383 0.00624169782 -0.0405235775
  vertex -0.00968206767 0.0127979089 -0.0474052653
  endloop
 endfacet

 facet normal -0.224124238 0.691520095 0.686708391
  outer loop
  vertex -0.00968206767 0.0127979089 -0.0474052653
  vertex -0.00882556383 0.00624169782 -0.0405235775
  vertex -0.00893262774 0.0127979089 -0.0471606702
  endloop
 endfacet

 facet normal 0.0978228748 0.71707058 0.690101802
  outer loop
  vertex 0.00370270503 0.0127979089 -0.0456413329
  vertex 0.00230897567 0.0127979089 -0.0454437695
  vertex 0.00377726671 0.00786245707 -0.0405235775
  endloop
 endfacet

 facet normal 0.0559631549 0.713205993 0.698716998
  outer loop
  vertex 0.00377726671 0.00786245707 -0.0405235775
  vertex 0.00230897567 0.0127979089 -0.0454437695
  vertex 0.00230897567 0.00797766913 -0.0405235775
  endloop
 endfacet

 facet normal -0.221401498 0.691984653 0.687123477
  outer loop
  vertex -0.00882556383 0.00624169782 -0.0405235775
  vertex -0.00882556383 0.0127979089 -0.0471261702
  vertex -0.00893262774 0.0127979089 -0.0471606702
  endloop
 endfacet

 facet normal -0.123776428 0.70413816 0.69919157
  outer loop
  vertex -0.00882556383 0.00624169782 -0.0405235775
  vertex 0.00091715809 0.00795431528 -0.0405235775
  vertex -0.00882556383 0.0127979089 -0.0471261702
  endloop
 endfacet

 facet normal -0.0124747045 0.71446991 0.69955492
  outer loop
  vertex 0.00230897567 0.0127979089 -0.0454437695
  vertex 0.00213308656 0.0127979089 -0.0454469062
  vertex 0.00125937723 0.00796210021 -0.0405235775
  endloop
 endfacet

 facet normal -0.0105951987 0.714285314 0.699774444
  outer loop
  vertex 0.00230897567 0.0127979089 -0.0454437695
  vertex 0.00125937723 0.00796210021 -0.0405235775
  vertex 0.00230897567 0.00797766913 -0.0405235775
  endloop
 endfacet

 facet normal -0.117935762 0.709648311 0.694615304
  outer loop
  vertex -0.00882556383 0.0127979089 -0.0471261702
  vertex 0.00091715809 0.00795431528 -0.0405235775
  vertex 0.00091715809 0.0127979089 -0.0454719961
  endloop
 endfacet

 facet normal -0.0162542891 0.714541197 0.699404597
  outer loop
  vertex 0.00091715809 0.00795431528 -0.0405235775
  vertex 0.00125937723 0.00796210021 -0.0405235775
  vertex 0.00091715809 0.0127979089 -0.0454719961
  endloop
 endfacet

 facet normal -0.0144297183 0.714624345 0.699359596
  outer loop
  vertex 0.00213308656 0.0127979089 -0.0454469062
  vertex 0.00091715809 0.0127979089 -0.0454719961
  vertex 0.00125937723 0.00796210021 -0.0405235775
  endloop
 endfacet

endsolid AssimpScene
