solid AssimpScene
 facet normal -0.0071723694 -0.1669873 -0.985933006
  outer loop
  vertex -0.00845394749 0.00426346064 -0.0569665022
  vertex -0.0071447459 0.000335725752 -0.0563107878
  vertex -0.00845394749 0.000335725752 -0.0563012622
  endloop
 endfacet

 facet normal -0.279261529 -0.160347849 -0.946732044
  outer loop
  vertex -0.00845394749 0.00426346064 -0.0569665022
  vertex -0.00845394749 0.000335725752 -0.0563012622
  vertex -0.00939588621 0.00426346064 -0.0566886552
  endloop
 endfacet

 facet normal -0.282663435 0.0427721515 -0.958265066
  outer loop
  vertex -0.00845394749 0.00426346064 -0.0569665022
  vertex -0.00939588621 0.00426346064 -0.0566886552
  vertex -0.00852815993 0.00434225239 -0.0569410957
  endloop
 endfacet

 facet normal -0.16663602 0.156952709 -0.973446608
  outer loop
  vertex -0.00845394749 0.00426346064 -0.0569665022
  vertex -0.00852815993 0.00434225239 -0.0569410957
  vertex -0.00845394749 0.00434225239 -0.056953799
  endloop
 endfacet

 facet normal 0 0.159178257 -0.987249851
  outer loop
  vertex -0.00845394749 0.00426346064 -0.0569665022
  vertex -0.00845394749 0.00434225239 -0.056953799
  vertex 0.00725456188 0.00434225239 -0.056953799
  endloop
 endfacet

 facet normal 0 0.159178257 -0.987249851
  outer loop
  vertex -0.00845394749 0.00426346064 -0.0569665022
  vertex 0.00725456188 0.00434225239 -0.056953799
  vertex 0.00725456188 0.00426346064 -0.0569665022
  endloop
 endfacet

 facet normal 0 -0.164666116 -0.986349344
  outer loop
  vertex -0.00845394749 0.00426346064 -0.0569665022
  vertex 0.00725456188 0.00426346064 -0.0569665022
  vertex 0.00594536029 0.000335725752 -0.0563107878
  endloop
 endfacet

 facet normal 0 -0.164666116 -0.986349344
  outer loop
  vertex -0.00845394749 0.00426346064 -0.0569665022
  vertex 0.00594536029 0.000335725752 -0.0563107878
  vertex -0.0071447459 0.000335725752 -0.0563107878
  endloop
 endfacet

 facet normal -0.00662855711 -0.411957115 -0.911179185
  outer loop
  vertex -0.0071447459 0.000335725752 -0.0563107878
  vertex -0.00845394749 -0.00458063185 -0.0540785082
  vertex -0.00845394749 0.000335725752 -0.0563012622
  endloop
 endfacet

 facet normal 0 -0.413430184 -0.910535932
  outer loop
  vertex -0.0071447459 0.000335725752 -0.0563107878
  vertex 0.00594536029 0.000335725752 -0.0563107878
  vertex 0.00725456188 -0.00458063185 -0.0540785082
  endloop
 endfacet

 facet normal 0 -0.413430184 -0.910535932
  outer loop
  vertex -0.0071447459 0.000335725752 -0.0563107878
  vertex 0.00725456188 -0.00458063185 -0.0540785082
  vertex -0.00845394749 -0.00458063185 -0.0540785082
  endloop
 endfacet

 facet normal -0.154182285 -0.40704006 -0.900303483
  outer loop
  vertex -0.00845394749 0.000335725752 -0.0563012622
  vertex -0.00845394749 -0.00458063185 -0.0540785082
  vertex -0.00930454675 -0.00446913298 -0.0539832488
  endloop
 endfacet

 facet normal -0.40569061 -0.3378914 -0.849261224
  outer loop
  vertex -0.00845394749 0.000335725752 -0.0563012622
  vertex -0.00930454675 -0.00446913298 -0.0539832488
  vertex -0.00935021695 -0.00059937808 -0.0555010699
  endloop
 endfacet

 facet normal -0.495690286 -0.23931919 -0.834875762
  outer loop
  vertex -0.00845394749 0.000335725752 -0.0563012622
  vertex -0.00935021695 -0.00059937808 -0.0555010699
  vertex -0.00947009958 0.000335725752 -0.055697944
  endloop
 endfacet

 facet normal -0.499903381 -0.202929139 -0.841971755
  outer loop
  vertex -0.00845394749 0.000335725752 -0.0563012622
  vertex -0.00947009958 0.000335725752 -0.055697944
  vertex -0.00939588621 0.00426346064 -0.0566886552
  endloop
 endfacet

 facet normal -0.930453956 -0.0729882866 -0.359065711
  outer loop
  vertex -0.00939588621 0.00426346064 -0.0566886552
  vertex -0.00947009958 0.000335725752 -0.055697944
  vertex -0.00975553691 0.00426346064 -0.0557566881
  endloop
 endfacet

 facet normal -0.931290865 0.0594731979 -0.359388679
  outer loop
  vertex -0.00939588621 0.00426346064 -0.0566886552
  vertex -0.00975553691 0.00426346064 -0.0557566881
  vertex -0.00939208083 0.00434225239 -0.0566854812
  endloop
 endfacet

 facet normal -0.283332467 0.0522858463 -0.957595348
  outer loop
  vertex -0.00939588621 0.00426346064 -0.0566886552
  vertex -0.00939208083 0.00434225239 -0.0566854812
  vertex -0.00852815993 0.00434225239 -0.0569410957
  endloop
 endfacet

 facet normal 0 1 0
  outer loop
  vertex -0.00852815993 0.00434225239 -0.0569410957
  vertex -0.00939208083 0.00434225239 -0.0566854812
  vertex -0.00974031352 0.00434225239 -0.0557551011
  endloop
 endfacet

 facet normal 0 1 0
  outer loop
  vertex -0.00852815993 0.00434225239 -0.0569410957
  vertex -0.00974031352 0.00434225239 -0.0557551011
  vertex -0.0097517306 0.00434225239 -0.0556788929
  endloop
 endfacet

 facet normal 0 1 0
  outer loop
  vertex -0.00852815993 0.00434225239 -0.0569410957
  vertex -0.0097517306 0.00434225239 -0.0556788929
  vertex -0.00982974935 0.00434225239 -0.0543690547
  endloop
 endfacet

 facet normal 0 1 0
  outer loop
  vertex -0.00852815993 0.00434225239 -0.0569410957
  vertex -0.00982974935 0.00434225239 -0.0543690547
  vertex -0.00984307006 0.00434225239 -0.0530592166
  endloop
 endfacet

 facet normal 0 1 0
  outer loop
  vertex -0.00852815993 0.00434225239 -0.0569410957
  vertex -0.00984307006 0.00434225239 -0.0530592166
  vertex -0.00985258445 0.00434225239 -0.0518287607
  endloop
 endfacet

 facet normal 0 1 0
  outer loop
  vertex -0.00852815993 0.00434225239 -0.0569410957
  vertex -0.00985258445 0.00434225239 -0.0518287607
  vertex -0.00985639077 0.00434225239 -0.0505205132
  endloop
 endfacet

 facet normal 0 1 0
  outer loop
  vertex -0.00852815993 0.00434225239 -0.0569410957
  vertex -0.00985639077 0.00434225239 -0.0505205132
  vertex -0.00985639077 0.00434225239 -0.0492106713
  endloop
 endfacet

 facet normal 0 1 0
  outer loop
  vertex -0.00852815993 0.00434225239 -0.0569410957
  vertex -0.00985639077 0.00434225239 -0.0492106713
  vertex -0.00983355567 0.00434225239 -0.0491408184
  endloop
 endfacet

 facet normal 0 1 0
  outer loop
  vertex -0.00852815993 0.00434225239 -0.0569410957
  vertex -0.00983355567 0.00434225239 -0.0491408184
  vertex -0.0094815176 0.00434225239 -0.0480850078
  endloop
 endfacet

 facet normal 0 1 0
  outer loop
  vertex -0.00852815993 0.00434225239 -0.0569410957
  vertex -0.0094815176 0.00434225239 -0.0480850078
  vertex -0.009420624 0.00434225239 -0.0480516665
  endloop
 endfacet

 facet normal 0 1 0
  outer loop
  vertex -0.00852815993 0.00434225239 -0.0569410957
  vertex -0.009420624 0.00434225239 -0.0480516665
  vertex -0.00845394749 0.00434225239 -0.047575362
  endloop
 endfacet

 facet normal 0 1 0
  outer loop
  vertex -0.00852815993 0.00434225239 -0.0569410957
  vertex -0.00845394749 0.00434225239 -0.047575362
  vertex 0.000739003299 0.00434225239 -0.0460003801
  endloop
 endfacet

 facet normal 0 1 0
  outer loop
  vertex -0.00852815993 0.00434225239 -0.0569410957
  vertex 0.000739003299 0.00434225239 -0.0460003801
  vertex 0.00191690389 0.00434225239 -0.0459718034
  endloop
 endfacet

 facet normal 0 1 0
  outer loop
  vertex -0.00852815993 0.00434225239 -0.0569410957
  vertex 0.00191690389 0.00434225239 -0.0459718034
  vertex 0.00201775786 0.00434225239 -0.0459702127
  endloop
 endfacet

 facet normal 0 1 0
  outer loop
  vertex -0.00852815993 0.00434225239 -0.0569410957
  vertex 0.00201775786 0.00434225239 -0.0459702127
  vertex 0.0033003178 0.00434225239 -0.0459924415
  endloop
 endfacet

 facet normal 0 1 0
  outer loop
  vertex -0.00852815993 0.00434225239 -0.0569410957
  vertex 0.0033003178 0.00434225239 -0.0459924415
  vertex 0.00332695874 0.00434225239 -0.0459940284
  endloop
 endfacet

 facet normal 0 1 0
  outer loop
  vertex -0.00852815993 0.00434225239 -0.0569410957
  vertex 0.00332695874 0.00434225239 -0.0459940284
  vertex 0.00856376253 0.00434225239 -0.0476547442
  endloop
 endfacet

 facet normal 0 1 0
  outer loop
  vertex -0.00852815993 0.00434225239 -0.0569410957
  vertex 0.00856376253 0.00434225239 -0.0476547442
  vertex 0.00940104201 0.00434225239 -0.0481945574
  endloop
 endfacet

 facet normal 0 1 0
  outer loop
  vertex -0.00852815993 0.00434225239 -0.0569410957
  vertex 0.00940104201 0.00434225239 -0.0481945574
  vertex 0.00958372187 0.00434225239 -0.0492106713
  endloop
 endfacet

 facet normal 0 1 0
  outer loop
  vertex -0.00852815993 0.00434225239 -0.0569410957
  vertex 0.00958372187 0.00434225239 -0.0492106713
  vertex 0.00958372187 0.00434225239 -0.0518287607
  endloop
 endfacet

 facet normal 0 1 0
  outer loop
  vertex -0.00852815993 0.00434225239 -0.0569410957
  vertex 0.00958372187 0.00434225239 -0.0518287607
  vertex 0.00957991555 0.00434225239 -0.0531385988
  endloop
 endfacet

 facet normal 0 1 0
  outer loop
  vertex -0.00852815993 0.00434225239 -0.0569410957
  vertex 0.00957991555 0.00434225239 -0.0531385988
  vertex 0.00957610924 0.00434225239 -0.05444685
  endloop
 endfacet

 facet normal 0 1 0
  outer loop
  vertex -0.00852815993 0.00434225239 -0.0569410957
  vertex 0.00957610924 0.00434225239 -0.05444685
  vertex 0.00952663366 0.00434225239 -0.0557503365
  endloop
 endfacet

 facet normal 0 1 0
  outer loop
  vertex -0.00852815993 0.00434225239 -0.0569410957
  vertex 0.00952663366 0.00434225239 -0.0557503365
  vertex 0.00951902289 0.00434225239 -0.0558313094
  endloop
 endfacet

 facet normal 0 1 0
  outer loop
  vertex -0.00852815993 0.00434225239 -0.0569410957
  vertex 0.00951902289 0.00434225239 -0.0558313094
  vertex 0.00935347006 0.00434225239 -0.0565886311
  endloop
 endfacet

 facet normal 0 1 0
  outer loop
  vertex -0.00852815993 0.00434225239 -0.0569410957
  vertex 0.00935347006 0.00434225239 -0.0565886311
  vertex 0.00856376253 0.00434225239 -0.0568569526
  endloop
 endfacet

 facet normal 0 1 0
  outer loop
  vertex -0.00852815993 0.00434225239 -0.0569410957
  vertex 0.00856376253 0.00434225239 -0.0568569526
  vertex 0.00725456188 0.00434225239 -0.056953799
  endloop
 endfacet

 facet normal 0 1 0
  outer loop
  vertex -0.00852815993 0.00434225239 -0.0569410957
  vertex 0.00725456188 0.00434225239 -0.056953799
  vertex -0.00845394749 0.00434225239 -0.056953799
  endloop
 endfacet

 facet normal 0.0728377178 0.158755437 -0.984627485
  outer loop
  vertex 0.00725456188 0.00426346064 -0.0569665022
  vertex 0.00725456188 0.00434225239 -0.056953799
  vertex 0.00856376253 0.00434225239 -0.0568569526
  endloop
 endfacet

 facet normal 0.07424853 0.13926284 -0.987467945
  outer loop
  vertex 0.00725456188 0.00426346064 -0.0569665022
  vertex 0.00856376253 0.00434225239 -0.0568569526
  vertex 0.00856376253 0.00426346064 -0.0568680651
  endloop
 endfacet

 facet normal 0.0739564523 -0.164602026 -0.98358357
  outer loop
  vertex 0.00725456188 0.00426346064 -0.0569665022
  vertex 0.00856376253 0.00426346064 -0.0568680651
  vertex 0.00725456188 0.000335725752 -0.0563092008
  endloop
 endfacet

 facet normal 0.00119630957 -0.165053919 -0.986283779
  outer loop
  vertex 0.00725456188 0.00426346064 -0.0569665022
  vertex 0.00725456188 0.000335725752 -0.0563092008
  vertex 0.00594536029 0.000335725752 -0.0563107878
  endloop
 endfacet

 facet normal -0.169716686 -0.718094051 -0.674934983
  outer loop
  vertex -0.00845394749 -0.00458063185 -0.0540785082
  vertex -0.00845394749 -0.00774571439 -0.050711032
  vertex -0.00930454675 -0.00446913298 -0.0539832488
  endloop
 endfacet

 facet normal 0 -0.728664875 -0.684870422
  outer loop
  vertex -0.00845394749 -0.00458063185 -0.0540785082
  vertex 0.00725456188 -0.00458063185 -0.0540785082
  vertex 0.00725456188 -0.00774571439 -0.050711032
  endloop
 endfacet

 facet normal 0 -0.728664875 -0.684870422
  outer loop
  vertex -0.00845394749 -0.00458063185 -0.0540785082
  vertex 0.00725456188 -0.00774571439 -0.050711032
  vertex -0.00845394749 -0.00774571439 -0.050711032
  endloop
 endfacet

 facet normal 0.0011045651 -0.413186014 -0.910645962
  outer loop
  vertex 0.00594536029 0.000335725752 -0.0563107878
  vertex 0.00725456188 0.000335725752 -0.0563092008
  vertex 0.00725456188 -0.00458063185 -0.0540785082
  endloop
 endfacet

 facet normal -0.180155143 -0.718095243 -0.672222733
  outer loop
  vertex -0.00930454675 -0.00446913298 -0.0539832488
  vertex -0.00845394749 -0.00774571439 -0.050711032
  vertex -0.00919988658 -0.00823184941 -0.0499918126
  endloop
 endfacet

 facet normal -0.806059837 -0.441050619 -0.394641489
  outer loop
  vertex -0.00930454675 -0.00446913298 -0.0539832488
  vertex -0.00919988658 -0.00823184941 -0.0499918126
  vertex -0.00938066281 -0.00747811655 -0.0504649431
  endloop
 endfacet

 facet normal -0.936883211 -0.255448639 -0.238738045
  outer loop
  vertex -0.00930454675 -0.00446913298 -0.0539832488
  vertex -0.00938066281 -0.00747811655 -0.0504649431
  vertex -0.00975934137 -0.00359052187 -0.0531385988
  endloop
 endfacet

 facet normal -0.927812755 -0.153330773 -0.340078205
  outer loop
  vertex -0.00930454675 -0.00446913298 -0.0539832488
  vertex -0.00975934137 -0.00359052187 -0.0531385988
  vertex -0.00947009958 0.000335725752 -0.055697944
  endloop
 endfacet

 facet normal -0.822095096 -0.21627754 -0.526672304
  outer loop
  vertex -0.00930454675 -0.00446913298 -0.0539832488
  vertex -0.00947009958 0.000335725752 -0.055697944
  vertex -0.00935021695 -0.00059937808 -0.0555010699
  endloop
 endfacet

 facet normal -0.953452706 -0.112206958 -0.279888421
  outer loop
  vertex -0.00947009958 0.000335725752 -0.055697944
  vertex -0.00975934137 -0.00359052187 -0.0531385988
  vertex -0.00983736105 0.000335725752 -0.05444685
  endloop
 endfacet

 facet normal -0.956899822 -0.0737411007 -0.280900359
  outer loop
  vertex -0.00947009958 0.000335725752 -0.055697944
  vertex -0.00983736105 0.000335725752 -0.05444685
  vertex -0.00975553691 0.00426346064 -0.0557566881
  endloop
 endfacet

 facet normal -0.97085011 0.190510318 -0.145451054
  outer loop
  vertex -0.00975553691 0.00426346064 -0.0557566881
  vertex -0.0097517306 0.00434225239 -0.0556788929
  vertex -0.00974031352 0.00434225239 -0.0557551011
  endloop
 endfacet

 facet normal -0.920420289 0.184778497 -0.344504774
  outer loop
  vertex -0.00975553691 0.00426346064 -0.0557566881
  vertex -0.00974031352 0.00434225239 -0.0557551011
  vertex -0.00939208083 0.00434225239 -0.0566854812
  endloop
 endfacet

 facet normal -0.998314798 0.00145085342 -0.0580134168
  outer loop
  vertex -0.00975553691 0.00426346064 -0.0557566881
  vertex -0.00983736105 0.000335725752 -0.05444685
  vertex -0.00983165298 0.00426346064 -0.05444685
  endloop
 endfacet

 facet normal -0.995025456 0.0811241791 -0.0578222647
  outer loop
  vertex -0.00975553691 0.00426346064 -0.0557566881
  vertex -0.00983165298 0.00426346064 -0.05444685
  vertex -0.00982974935 0.00434225239 -0.0543690547
  endloop
 endfacet

 facet normal -0.992572546 0.106321588 -0.0591218248
  outer loop
  vertex -0.00975553691 0.00426346064 -0.0557566881
  vertex -0.00982974935 0.00434225239 -0.0543690547
  vertex -0.0097517306 0.00434225239 -0.0556788929
  endloop
 endfacet

 facet normal 0.318878353 0.132358059 -0.938508391
  outer loop
  vertex 0.00856376253 0.00434225239 -0.0568569526
  vertex 0.00935347006 0.00434225239 -0.0565886311
  vertex 0.00856376253 0.00426346064 -0.0568680651
  endloop
 endfacet

 facet normal 0.324042857 -0.164931357 -0.931554556
  outer loop
  vertex 0.00856376253 0.00426346064 -0.0568680651
  vertex 0.00927925669 0.00354392081 -0.0564917848
  vertex 0.00856376253 0.000335725752 -0.0561726578
  endloop
 endfacet

 facet normal 0.102158204 -0.173426136 -0.979534209
  outer loop
  vertex 0.00856376253 0.00426346064 -0.0568680651
  vertex 0.00856376253 0.000335725752 -0.0561726578
  vertex 0.00725456188 0.000335725752 -0.0563092008
  endloop
 endfacet

 facet normal 0.331053644 0.0270525925 -0.943224072
  outer loop
  vertex 0.00856376253 0.00426346064 -0.0568680651
  vertex 0.00935347006 0.00434225239 -0.0565886311
  vertex 0.00935537275 0.00426346064 -0.0565902218
  endloop
 endfacet

 facet normal 0.326802701 -0.161955759 -0.931112409
  outer loop
  vertex 0.00856376253 0.00426346064 -0.0568680651
  vertex 0.00935537275 0.00426346064 -0.0565902218
  vertex 0.00927925669 0.00354392081 -0.0564917848
  endloop
 endfacet

 facet normal 0.0950613469 -0.400194257 -0.911486626
  outer loop
  vertex 0.00725456188 0.000335725752 -0.0563092008
  vertex 0.00856376253 0.000335725752 -0.0561726578
  vertex 0.00856376253 -0.00453157257 -0.0540356413
  endloop
 endfacet

 facet normal 0.0452547185 -0.41276294 -0.909713507
  outer loop
  vertex 0.00725456188 0.000335725752 -0.0563092008
  vertex 0.00856376253 -0.00453157257 -0.0540356413
  vertex 0.00725456188 -0.00458063185 -0.0540785082
  endloop
 endfacet

 facet normal -0.0836751908 -0.783174217 -0.616146564
  outer loop
  vertex -0.00845394749 -0.00774571439 -0.050711032
  vertex -0.00845394749 -0.00826158188 -0.0500553213
  vertex -0.00919988658 -0.00823184941 -0.0499918126
  endloop
 endfacet

 facet normal 0 -0.785930514 -0.618314981
  outer loop
  vertex -0.00845394749 -0.00774571439 -0.050711032
  vertex 0.00725456188 -0.00774571439 -0.050711032
  vertex 0.00725456188 -0.00826158188 -0.0500553213
  endloop
 endfacet

 facet normal 0 -0.785930514 -0.618314981
  outer loop
  vertex -0.00845394749 -0.00774571439 -0.050711032
  vertex 0.00725456188 -0.00826158188 -0.0500553213
  vertex -0.00845394749 -0.00826158188 -0.0500553213
  endloop
 endfacet

 facet normal 0.0496689156 -0.727765501 -0.684025168
  outer loop
  vertex 0.00725456188 -0.00458063185 -0.0540785082
  vertex 0.00856376253 -0.00453157257 -0.0540356413
  vertex 0.00725456188 -0.00774571439 -0.050711032
  endloop
 endfacet

 facet normal -0.07312534 -0.895098448 -0.439831078
  outer loop
  vertex -0.00919988658 -0.00823184941 -0.0499918126
  vertex -0.00845394749 -0.00826158188 -0.0500553213
  vertex -0.00845394749 -0.00996231195 -0.0465941727
  endloop
 endfacet

 facet normal -0.116048872 -0.895134807 -0.430425853
  outer loop
  vertex -0.00919988658 -0.00823184941 -0.0499918126
  vertex -0.00845394749 -0.00996231195 -0.0465941727
  vertex -0.00917134341 -0.00953415688 -0.0472911671
  endloop
 endfacet

 facet normal -0.605277359 -0.719487309 -0.340554416
  outer loop
  vertex -0.00919988658 -0.00823184941 -0.0499918126
  vertex -0.00917134341 -0.00953415688 -0.0472911671
  vertex -0.00934260525 -0.0097199874 -0.0465941727
  endloop
 endfacet

 facet normal -0.92216444 -0.338574976 -0.187028795
  outer loop
  vertex -0.00919988658 -0.00823184941 -0.0499918126
  vertex -0.00934260525 -0.0097199874 -0.0465941727
  vertex -0.00938066281 -0.00747811655 -0.0504649431
  endloop
 endfacet

 facet normal -0.932551622 -0.3163203 -0.174037203
  outer loop
  vertex -0.00938066281 -0.00747811655 -0.0504649431
  vertex -0.00934260525 -0.0097199874 -0.0465941727
  vertex -0.00964516681 -0.00882799644 -0.0465941727
  endloop
 endfacet

 facet normal -0.967908561 -0.209278822 -0.139123961
  outer loop
  vertex -0.00938066281 -0.00747811655 -0.0504649431
  vertex -0.00964516681 -0.00882799644 -0.0465941727
  vertex -0.00983545836 -0.00620851573 -0.0492106713
  endloop
 endfacet

 facet normal -0.968536615 -0.19801864 -0.150749505
  outer loop
  vertex -0.00938066281 -0.00747811655 -0.0504649431
  vertex -0.00983545836 -0.00620851573 -0.0492106713
  vertex -0.00975934137 -0.00359052187 -0.0531385988
  endloop
 endfacet

 facet normal -0.99855113 -0.0337955132 -0.0418751352
  outer loop
  vertex -0.00975934137 -0.00359052187 -0.0531385988
  vertex -0.00983545836 -0.00620851573 -0.0492106713
  vertex -0.00983736105 0.000335725752 -0.05444685
  endloop
 endfacet

 facet normal -0.999949634 -0.0064418586 -0.00768768974
  outer loop
  vertex -0.00983736105 0.000335725752 -0.05444685
  vertex -0.00983545836 -0.00620851573 -0.0492106713
  vertex -0.00985068176 -0.00228226813 -0.0505205132
  endloop
 endfacet

 facet normal -0.999956608 -0.00581982639 -0.00727295689
  outer loop
  vertex -0.00983736105 0.000335725752 -0.05444685
  vertex -0.00985068176 -0.00228226813 -0.0505205132
  vertex -0.00984687638 0.000335725752 -0.0531385988
  endloop
 endfacet

 facet normal -0.999973059 0.000953077513 -0.0072730761
  outer loop
  vertex -0.00983736105 0.000335725752 -0.05444685
  vertex -0.00984687638 0.000335725752 -0.0531385988
  vertex -0.00985258445 0.00434225239 -0.0518287607
  endloop
 endfacet

 facet normal -0.999969363 0.00125304214 -0.00773209799
  outer loop
  vertex -0.00983736105 0.000335725752 -0.05444685
  vertex -0.00985258445 0.00434225239 -0.0518287607
  vertex -0.00984307006 0.00434225239 -0.0530592166
  endloop
 endfacet

 facet normal -0.999964416 0.00145325088 -0.00831014104
  outer loop
  vertex -0.00983736105 0.000335725752 -0.05444685
  vertex -0.00984307006 0.00434225239 -0.0530592166
  vertex -0.00983165298 0.00426346064 -0.05444685
  endloop
 endfacet

 facet normal -0.999364316 0.0341721289 -0.0101630269
  outer loop
  vertex -0.00983165298 0.00426346064 -0.05444685
  vertex -0.00984307006 0.00434225239 -0.0530592166
  vertex -0.00982974935 0.00434225239 -0.0543690547
  endloop
 endfacet

 facet normal 0.976376474 0.0336618796 -0.213438541
  outer loop
  vertex 0.00935347006 0.00434225239 -0.0565886311
  vertex 0.00951902289 0.00434225239 -0.0558313094
  vertex 0.00953805167 0.00426346064 -0.0557566881
  endloop
 endfacet

 facet normal 0.976435661 0.0279073082 -0.213996679
  outer loop
  vertex 0.00935347006 0.00434225239 -0.0565886311
  vertex 0.00953805167 0.00426346064 -0.0557566881
  vertex 0.00935537275 0.00426346064 -0.0565902218
  endloop
 endfacet

 facet normal 0.713293731 -0.168527335 -0.680301845
  outer loop
  vertex 0.00927925669 0.00354392081 -0.0564917848
  vertex 0.00935537275 0.00426346064 -0.0565902218
  vertex 0.00940104201 0.000335725752 -0.0555693433
  endloop
 endfacet

 facet normal 0.687224746 -0.176523775 -0.704671264
  outer loop
  vertex 0.00927925669 0.00354392081 -0.0564917848
  vertex 0.00940104201 0.000335725752 -0.0555693433
  vertex 0.00934014935 -0.000516125583 -0.055415336
  endloop
 endfacet

 facet normal 0.559168339 -0.20462203 -0.803405702
  outer loop
  vertex 0.00927925669 0.00354392081 -0.0564917848
  vertex 0.00934014935 -0.000516125583 -0.055415336
  vertex 0.00856376253 0.000335725752 -0.0561726578
  endloop
 endfacet

 facet normal 0.457740158 -0.320197642 -0.829425991
  outer loop
  vertex 0.00856376253 0.000335725752 -0.0561726578
  vertex 0.00934014935 -0.000516125583 -0.055415336
  vertex 0.00931921788 -0.00440372061 -0.0539260916
  endloop
 endfacet

 facet normal 0.196881384 -0.394146323 -0.897711873
  outer loop
  vertex 0.00856376253 0.000335725752 -0.0561726578
  vertex 0.00931921788 -0.00440372061 -0.0539260916
  vertex 0.00856376253 -0.00453157257 -0.0540356413
  endloop
 endfacet

 facet normal 0.975859642 -0.0442415439 -0.213870406
  outer loop
  vertex 0.00935537275 0.00426346064 -0.0565902218
  vertex 0.00953805167 0.00426346064 -0.0557566881
  vertex 0.00940104201 0.000335725752 -0.0555693433
  endloop
 endfacet

 facet normal 0.217301771 -0.710645854 -0.669150531
  outer loop
  vertex 0.00856376253 -0.00453157257 -0.0540356413
  vertex 0.00931921788 -0.00440372061 -0.0539260916
  vertex 0.00924690627 -0.00819765683 -0.0499203689
  endloop
 endfacet

 facet normal 0.196258903 -0.715754032 -0.670207918
  outer loop
  vertex 0.00856376253 -0.00453157257 -0.0540356413
  vertex 0.00924690627 -0.00819765683 -0.0499203689
  vertex 0.00856376253 -0.00769516779 -0.0506570525
  endloop
 endfacet

 facet normal 0.0562746897 -0.728793263 -0.682417452
  outer loop
  vertex 0.00856376253 -0.00453157257 -0.0540356413
  vertex 0.00856376253 -0.00769516779 -0.0506570525
  vertex 0.00725456188 -0.00774571439 -0.050711032
  endloop
 endfacet

 facet normal -0.00305788941 -0.897497177 -0.44100976
  outer loop
  vertex -0.00845394749 -0.00826158188 -0.0500553213
  vertex -0.0071447459 -0.00996677205 -0.0465941727
  vertex -0.00845394749 -0.00996231195 -0.0465941727
  endloop
 endfacet

 facet normal 0 -0.897043228 -0.441942781
  outer loop
  vertex -0.00845394749 -0.00826158188 -0.0500553213
  vertex 0.00725456188 -0.00826158188 -0.0500553213
  vertex 0.00725456188 -0.00996677205 -0.0465941727
  endloop
 endfacet

 facet normal 0 -0.897043228 -0.441942781
  outer loop
  vertex -0.00845394749 -0.00826158188 -0.0500553213
  vertex 0.00725456188 -0.00996677205 -0.0465941727
  vertex -0.0071447459 -0.00996677205 -0.0465941727
  endloop
 endfacet

 facet normal 0.0559425801 -0.769304872 -0.63642782
  outer loop
  vertex 0.00725456188 -0.00774571439 -0.050711032
  vertex 0.00856376253 -0.00769516779 -0.0506570525
  vertex 0.00856376253 -0.00823630951 -0.0500029288
  endloop
 endfacet

 facet normal 0.039884042 -0.785305142 -0.617823005
  outer loop
  vertex 0.00725456188 -0.00774571439 -0.050711032
  vertex 0.00856376253 -0.00823630951 -0.0500029288
  vertex 0.00725456188 -0.00826158188 -0.0500553213
  endloop
 endfacet

 facet normal -0.00334293442 -0.981158555 -0.193175972
  outer loop
  vertex -0.00845394749 -0.00996231195 -0.0465941727
  vertex -0.0071447459 -0.00996677205 -0.0465941727
  vertex -0.00845394749 -0.0108453836 -0.0421089716
  endloop
 endfacet

 facet normal -0.0331946984 -0.980623186 -0.193070576
  outer loop
  vertex -0.00845394749 -0.00996231195 -0.0465941727
  vertex -0.00845394749 -0.0108453836 -0.0421089716
  vertex -0.0091656344 -0.0108275441 -0.0420772173
  endloop
 endfacet

 facet normal -0.256593883 -0.940989554 -0.220677242
  outer loop
  vertex -0.00845394749 -0.00996231195 -0.0465941727
  vertex -0.0091656344 -0.0108275441 -0.0420772173
  vertex -0.00934260525 -0.0097199874 -0.0465941727
  endloop
 endfacet

 facet normal -0.250427127 -0.918374598 -0.30638957
  outer loop
  vertex -0.00845394749 -0.00996231195 -0.0465941727
  vertex -0.00934260525 -0.0097199874 -0.0465941727
  vertex -0.00917134341 -0.00953415688 -0.0472911671
  endloop
 endfacet

 facet normal -0.946004152 -0.320883363 -0.0459349565
  outer loop
  vertex -0.00934260525 -0.0097199874 -0.0465941727
  vertex -0.00942252763 -0.0102373427 -0.041334182
  vertex -0.00964516681 -0.00882799644 -0.0465941727
  endloop
 endfacet

 facet normal -0.936678827 -0.346836388 -0.048345916
  outer loop
  vertex -0.00934260525 -0.0097199874 -0.0465941727
  vertex -0.0091656344 -0.0108275441 -0.0420772173
  vertex -0.00942252763 -0.0102373427 -0.041334182
  endloop
 endfacet

 facet normal -0.960722327 -0.275523603 -0.033158429
  outer loop
  vertex -0.00964516681 -0.00882799644 -0.0465941727
  vertex -0.00942252763 -0.0102373427 -0.041334182
  vertex -0.00982594397 -0.00882799644 -0.0413564108
  endloop
 endfacet

 facet normal -0.992183447 -0.119997256 -0.034244284
  outer loop
  vertex -0.00964516681 -0.00882799644 -0.0465941727
  vertex -0.00982594397 -0.00882799644 -0.0413564108
  vertex -0.00984877814 -0.00751825655 -0.0452843383
  endloop
 endfacet

 facet normal -0.992721021 -0.113196753 -0.041127868
  outer loop
  vertex -0.00964516681 -0.00882799644 -0.0465941727
  vertex -0.00984877814 -0.00751825655 -0.0452843383
  vertex -0.00983545836 -0.00620851573 -0.0492106713
  endloop
 endfacet

 facet normal -0.999970198 -0.00563623896 -0.00527260592
  outer loop
  vertex -0.00983545836 -0.00620851573 -0.0492106713
  vertex -0.00984877814 -0.00751825655 -0.0452843383
  vertex -0.00985068176 -0.00228226813 -0.0505205132
  endloop
 endfacet

 facet normal -0.99997592 -0.00508538168 -0.00472176541
  outer loop
  vertex -0.00985068176 -0.00228226813 -0.0505205132
  vertex -0.00984877814 -0.00751825655 -0.0452843383
  vertex -0.00985639077 -0.00359052187 -0.0479024239
  endloop
 endfacet

 facet normal -0.999981046 -0.00435857009 -0.00435858965
  outer loop
  vertex -0.00985068176 -0.00228226813 -0.0505205132
  vertex -0.00985639077 -0.00359052187 -0.0479024239
  vertex -0.00985639077 -0.00228226813 -0.0492106713
  endloop
 endfacet

 facet normal -0.999986291 -0.00290533481 -0.00435861247
  outer loop
  vertex -0.00985068176 -0.00228226813 -0.0505205132
  vertex -0.00985639077 -0.00228226813 -0.0492106713
  vertex -0.00984687638 0.000335725752 -0.0531385988
  endloop
 endfacet

 facet normal -0.999994636 -0.00103912945 -0.00311479252
  outer loop
  vertex -0.00984687638 0.000335725752 -0.0531385988
  vertex -0.00985639077 -0.00228226813 -0.0492106713
  vertex -0.00985639077 0.00164397934 -0.0505205132
  endloop
 endfacet

 facet normal -0.999993801 -0.000289666961 -0.00348929456
  outer loop
  vertex -0.00984687638 0.000335725752 -0.0531385988
  vertex -0.00985639077 0.00164397934 -0.0505205132
  vertex -0.00985258445 0.00426346064 -0.0518287607
  endloop
 endfacet

 facet normal -0.999990463 0 -0.00435788603
  outer loop
  vertex -0.00984687638 0.000335725752 -0.0531385988
  vertex -0.00985258445 0.00426346064 -0.0518287607
  vertex -0.00985258445 0.00434225239 -0.0518287607
  endloop
 endfacet

 facet normal -0.999995708 0 -0.00290930504
  outer loop
  vertex -0.00985258445 0.00434225239 -0.0518287607
  vertex -0.00985258445 0.00426346064 -0.0518287607
  vertex -0.00985639077 0.00164397934 -0.0505205132
  endloop
 endfacet

 facet normal -0.999995708 0 -0.00290930504
  outer loop
  vertex -0.00985258445 0.00434225239 -0.0518287607
  vertex -0.00985639077 0.00164397934 -0.0505205132
  vertex -0.00985639077 0.00434225239 -0.0505205132
  endloop
 endfacet

 facet normal 0.984332681 0.150093988 -0.0925257429
  outer loop
  vertex 0.00951902289 0.00434225239 -0.0558313094
  vertex 0.00952663366 0.00434225239 -0.0557503365
  vertex 0.00953805167 0.00426346064 -0.0557566881
  endloop
 endfacet

 facet normal 0.988533139 0.146268323 -0.0375211202
  outer loop
  vertex 0.00953805167 0.00426346064 -0.0557566881
  vertex 0.00952663366 0.00434225239 -0.0557503365
  vertex 0.00957610924 0.00434225239 -0.05444685
  endloop
 endfacet

 facet normal 0.994766653 0.0961060673 -0.034684781
  outer loop
  vertex 0.00953805167 0.00426346064 -0.0557566881
  vertex 0.00957610924 0.00434225239 -0.05444685
  vertex 0.00958372187 0.00426346064 -0.05444685
  endloop
 endfacet

 facet normal 0.999392807 0 -0.0348460786
  outer loop
  vertex 0.00953805167 0.00426346064 -0.0557566881
  vertex 0.00958372187 0.00426346064 -0.05444685
  vertex 0.00958372187 0.000335725752 -0.05444685
  endloop
 endfacet

 facet normal 0.986141324 -0.0420540348 -0.160489216
  outer loop
  vertex 0.00953805167 0.00426346064 -0.0557566881
  vertex 0.00958372187 0.000335725752 -0.05444685
  vertex 0.00940104201 0.000335725752 -0.0555693433
  endloop
 endfacet

 facet normal 0.98502624 -0.0634411722 -0.160307765
  outer loop
  vertex 0.00940104201 0.000335725752 -0.0555693433
  vertex 0.00958372187 0.000335725752 -0.05444685
  vertex 0.00954376068 -0.00359052187 -0.0531385988
  endloop
 endfacet

 facet normal 0.977738202 -0.0836070701 -0.192452729
  outer loop
  vertex 0.00940104201 0.000335725752 -0.0555693433
  vertex 0.00954376068 -0.00359052187 -0.0531385988
  vertex 0.00931921788 -0.00440372061 -0.0539260916
  endloop
 endfacet

 facet normal 0.943304241 -0.123156831 -0.308236301
  outer loop
  vertex 0.00940104201 0.000335725752 -0.0555693433
  vertex 0.00931921788 -0.00440372061 -0.0539260916
  vertex 0.00934014935 -0.000516125583 -0.055415336
  endloop
 endfacet

 facet normal 0.980860651 -0.145065308 -0.129878581
  outer loop
  vertex 0.00931921788 -0.00440372061 -0.0539260916
  vertex 0.00954376068 -0.00359052187 -0.0531385988
  vertex 0.00933444034 -0.00743797701 -0.0504220761
  endloop
 endfacet

 facet normal 0.938547492 -0.258892417 -0.228261873
  outer loop
  vertex 0.00931921788 -0.00440372061 -0.0539260916
  vertex 0.00933444034 -0.00743797701 -0.0504220761
  vertex 0.00924690627 -0.00819765683 -0.0499203689
  endloop
 endfacet

 facet normal 0.979747236 -0.175980881 -0.0955301151
  outer loop
  vertex 0.00924690627 -0.00819765683 -0.0499203689
  vertex 0.00933444034 -0.00743797701 -0.0504220761
  vertex 0.00931541156 -0.00962186884 -0.0465941727
  endloop
 endfacet

 facet normal 0.878663421 -0.432085812 -0.203107402
  outer loop
  vertex 0.00924690627 -0.00819765683 -0.0499203689
  vertex 0.00931541156 -0.00962186884 -0.0465941727
  vertex 0.00922597479 -0.00949253049 -0.0472562388
  endloop
 endfacet

 facet normal 0.10310401 -0.894918084 -0.434155762
  outer loop
  vertex 0.00924690627 -0.00819765683 -0.0499203689
  vertex 0.00922597479 -0.00949253049 -0.0472562388
  vertex 0.00856376253 -0.00823630951 -0.0500029288
  endloop
 endfacet

 facet normal 0.119762614 -0.764965713 -0.632838309
  outer loop
  vertex 0.00924690627 -0.00819765683 -0.0499203689
  vertex 0.00856376253 -0.00823630951 -0.0500029288
  vertex 0.00856376253 -0.00769516779 -0.0506570525
  endloop
 endfacet

 facet normal 0 -0.981348455 -0.192237377
  outer loop
  vertex -0.0071447459 -0.00996677205 -0.0465941727
  vertex 0.00725456188 -0.00996677205 -0.0465941727
  vertex 0.00725456188 -0.0108453836 -0.0421089716
  endloop
 endfacet

 facet normal 0 -0.981348455 -0.192237377
  outer loop
  vertex -0.0071447459 -0.00996677205 -0.0465941727
  vertex 0.00725456188 -0.0108453836 -0.0421089716
  vertex -0.00845394749 -0.0108453836 -0.0421089716
  endloop
 endfacet

 facet normal 0.034981221 -0.896494269 -0.441672295
  outer loop
  vertex 0.00725456188 -0.00826158188 -0.0500553213
  vertex 0.00856376253 -0.00823630951 -0.0500029288
  vertex 0.00725456188 -0.00996677205 -0.0465941727
  endloop
 endfacet

 facet normal 0.0753960833 -0.899811924 -0.429713786
  outer loop
  vertex 0.00856376253 -0.00823630951 -0.0500029288
  vertex 0.00922597479 -0.00949253049 -0.0472562388
  vertex 0.00856376253 -0.00986419246 -0.0465941727
  endloop
 endfacet

 facet normal 0.0705279931 -0.900133312 -0.429867238
  outer loop
  vertex 0.00856376253 -0.00823630951 -0.0500029288
  vertex 0.00856376253 -0.00986419246 -0.0465941727
  vertex 0.00725456188 -0.00996677205 -0.0465941727
  endloop
 endfacet

 facet normal -0.02505867 -0.999686003 0
  outer loop
  vertex -0.00845394749 -0.0108453836 -0.0421089716
  vertex -0.00845394749 -0.0108453836 -0.0416263156
  vertex -0.0091656344 -0.0108275441 -0.04175492
  endloop
 endfacet

 facet normal -0.02505867 -0.999686003 0
  outer loop
  vertex -0.00845394749 -0.0108453836 -0.0421089716
  vertex -0.0091656344 -0.0108275441 -0.04175492
  vertex -0.0091656344 -0.0108275441 -0.0420772173
  endloop
 endfacet

 facet normal 0 -1 0
  outer loop
  vertex -0.00845394749 -0.0108453836 -0.0421089716
  vertex 0.00725456188 -0.0108453836 -0.0421089716
  vertex 0.00725456188 -0.0108453836 -0.0416263156
  endloop
 endfacet

 facet normal 0 -1 0
  outer loop
  vertex -0.00845394749 -0.0108453836 -0.0421089716
  vertex 0.00725456188 -0.0108453836 -0.0416263156
  vertex -0.00845394749 -0.0108453836 -0.0416263156
  endloop
 endfacet

 facet normal -0.916909039 -0.399096549 0
  outer loop
  vertex -0.0091656344 -0.0108275441 -0.0420772173
  vertex -0.0091656344 -0.0108275441 -0.04175492
  vertex -0.00942252763 -0.0102373427 -0.041334182
  endloop
 endfacet

 facet normal -0.755772531 -0.564974189 0.331077039
  outer loop
  vertex -0.00942252763 -0.0102373427 -0.041334182
  vertex -0.0091656344 -0.0108275441 -0.04175492
  vertex -0.00935592502 -0.00998312514 -0.0407483317
  endloop
 endfacet

 facet normal -0.938381076 -0.265108764 0.221716911
  outer loop
  vertex -0.00942252763 -0.0102373427 -0.041334182
  vertex -0.00935592502 -0.00998312514 -0.0407483317
  vertex -0.00982594397 -0.00882799644 -0.0413564108
  endloop
 endfacet

 facet normal -0.999744773 -0.0159781873 0.0159771554
  outer loop
  vertex -0.00982594397 -0.00882799644 -0.0413564108
  vertex -0.00984687638 -0.0069102156 -0.0407483317
  vertex -0.00984687638 -0.00751825655 -0.0413564108
  endloop
 endfacet

 facet normal -0.999872208 -0.0159802251 0.000484183052
  outer loop
  vertex -0.00982594397 -0.00882799644 -0.0413564108
  vertex -0.00984687638 -0.00751825655 -0.0413564108
  vertex -0.00984877814 -0.00751825655 -0.0452843383
  endloop
 endfacet

 facet normal -0.931350887 -0.230637342 0.281765878
  outer loop
  vertex -0.00982594397 -0.00882799644 -0.0413564108
  vertex -0.00935592502 -0.00998312514 -0.0407483317
  vertex -0.00964897312 -0.00879975036 -0.0407483317
  endloop
 endfacet

 facet normal -0.935025811 -0.214816183 0.282100469
  outer loop
  vertex -0.00982594397 -0.00882799644 -0.0413564108
  vertex -0.00964897312 -0.00879975036 -0.0407483317
  vertex -0.0097821774 -0.00821995642 -0.0407483317
  endloop
 endfacet

 facet normal -0.991523623 -0.0489795916 0.120340995
  outer loop
  vertex -0.00982594397 -0.00882799644 -0.0413564108
  vertex -0.0097821774 -0.00821995642 -0.0407483317
  vertex -0.00984687638 -0.0069102156 -0.0407483317
  endloop
 endfacet

 facet normal -0.999990404 -0.00435821619 0.000484240241
  outer loop
  vertex -0.00984877814 -0.00751825655 -0.0452843383
  vertex -0.00984687638 -0.00751825655 -0.0413564108
  vertex -0.00985258445 -0.00620851573 -0.0413564108
  endloop
 endfacet

 facet normal -0.999994755 -0.00324176904 0.000111964298
  outer loop
  vertex -0.00984877814 -0.00751825655 -0.0452843383
  vertex -0.00985258445 -0.00620851573 -0.0413564108
  vertex -0.00985448714 -0.00560047524 -0.0407483317
  endloop
 endfacet

 facet normal -0.999995708 -0.00290763984 -2.93036173e-05
  outer loop
  vertex -0.00984877814 -0.00751825655 -0.0452843383
  vertex -0.00985448714 -0.00560047524 -0.0407483317
  vertex -0.00985639077 -0.00490026223 -0.0452843383
  endloop
 endfacet

 facet normal -0.999994695 -0.00290763704 -0.00145459222
  outer loop
  vertex -0.00984877814 -0.00751825655 -0.0452843383
  vertex -0.00985639077 -0.00490026223 -0.0452843383
  vertex -0.00985639077 -0.00359052187 -0.0479024239
  endloop
 endfacet

 facet normal -1 0 0
  outer loop
  vertex -0.00985639077 -0.00359052187 -0.0479024239
  vertex -0.00985639077 -0.00490026223 -0.0452843383
  vertex -0.00985639077 -0.00490026223 -0.0407483317
  endloop
 endfacet

 facet normal -1 0 0
  outer loop
  vertex -0.00985639077 -0.00359052187 -0.0479024239
  vertex -0.00985639077 -0.00490026223 -0.0407483317
  vertex -0.00985639077 -0.00359052187 -0.0407483317
  endloop
 endfacet

 facet normal -1 0 0
  outer loop
  vertex -0.00985639077 -0.00359052187 -0.0479024239
  vertex -0.00985639077 -0.00359052187 -0.0407483317
  vertex -0.00985639077 0.00434225239 -0.0492106713
  endloop
 endfacet

 facet normal -1 0 0
  outer loop
  vertex -0.00985639077 -0.00359052187 -0.0479024239
  vertex -0.00985639077 0.00434225239 -0.0492106713
  vertex -0.00985639077 0.00434225239 -0.0505205132
  endloop
 endfacet

 facet normal -1 0 0
  outer loop
  vertex -0.00985639077 -0.00359052187 -0.0479024239
  vertex -0.00985639077 0.00434225239 -0.0505205132
  vertex -0.00985639077 0.00164397934 -0.0505205132
  endloop
 endfacet

 facet normal -1 0 0
  outer loop
  vertex -0.00985639077 -0.00359052187 -0.0479024239
  vertex -0.00985639077 0.00164397934 -0.0505205132
  vertex -0.00985639077 -0.00228226813 -0.0492106713
  endloop
 endfacet

 facet normal 0.995361328 0.0961635113 -0.0028958139
  outer loop
  vertex 0.00957610924 0.00434225239 -0.05444685
  vertex 0.00957991555 0.00434225239 -0.0531385988
  vertex 0.00958372187 0.00426346064 -0.05444685
  endloop
 endfacet

 facet normal 0.995366931 0.0961057544 -0.00289231911
  outer loop
  vertex 0.00958372187 0.00426346064 -0.05444685
  vertex 0.00957991555 0.00434225239 -0.0531385988
  vertex 0.00958372187 0.00434225239 -0.0518287607
  endloop
 endfacet

 facet normal 1 0 0
  outer loop
  vertex 0.00958372187 0.00426346064 -0.05444685
  vertex 0.00958372187 0.00434225239 -0.0518287607
  vertex 0.00958372187 0.00434225239 -0.0492106713
  endloop
 endfacet

 facet normal 1 0 0
  outer loop
  vertex 0.00958372187 0.00426346064 -0.05444685
  vertex 0.00958372187 0.00434225239 -0.0492106713
  vertex 0.00958372187 -0.00359052187 -0.0407483317
  endloop
 endfacet

 facet normal 1 0 0
  outer loop
  vertex 0.00958372187 0.00426346064 -0.05444685
  vertex 0.00958372187 -0.00359052187 -0.0407483317
  vertex 0.00958372187 -0.00620851573 -0.0407483317
  endloop
 endfacet

 facet normal 1 0 0
  outer loop
  vertex 0.00958372187 0.00426346064 -0.05444685
  vertex 0.00958372187 -0.00620851573 -0.0407483317
  vertex 0.00958372187 -0.00751825655 -0.0413564108
  endloop
 endfacet

 facet normal 1 0 0
  outer loop
  vertex 0.00958372187 0.00426346064 -0.05444685
  vertex 0.00958372187 -0.00751825655 -0.0413564108
  vertex 0.00958372187 -0.00751825655 -0.0452843383
  endloop
 endfacet

 facet normal 1 0 0
  outer loop
  vertex 0.00958372187 0.00426346064 -0.05444685
  vertex 0.00958372187 -0.00751825655 -0.0452843383
  vertex 0.00958372187 0.000335725752 -0.05444685
  endloop
 endfacet

 facet normal 0.999999225 -0.000925672008 -0.000793473446
  outer loop
  vertex 0.00958372187 0.000335725752 -0.05444685
  vertex 0.00958372187 -0.00751825655 -0.0452843383
  vertex 0.00958181825 -0.00620851573 -0.0492106713
  endloop
 endfacet

 facet normal 0.999627471 -0.0172273908 -0.0211677011
  outer loop
  vertex 0.00958372187 0.000335725752 -0.05444685
  vertex 0.00958181825 -0.00620851573 -0.0492106713
  vertex 0.00954376068 -0.00359052187 -0.0531385988
  endloop
 endfacet

 facet normal 0.989702761 -0.114496499 -0.0859021619
  outer loop
  vertex 0.00954376068 -0.00359052187 -0.0531385988
  vertex 0.00958181825 -0.00620851573 -0.0492106713
  vertex 0.00933444034 -0.00743797701 -0.0504220761
  endloop
 endfacet

 facet normal 0.989313722 -0.124834269 -0.075330846
  outer loop
  vertex 0.00933444034 -0.00743797701 -0.0504220761
  vertex 0.00958181825 -0.00620851573 -0.0492106713
  vertex 0.00945051759 -0.00882799644 -0.0465941727
  endloop
 endfacet

 facet normal 0.981784999 -0.167086333 -0.0904454589
  outer loop
  vertex 0.00933444034 -0.00743797701 -0.0504220761
  vertex 0.00945051759 -0.00882799644 -0.0465941727
  vertex 0.00931541156 -0.00962186884 -0.0465941727
  endloop
 endfacet

 facet normal 0.355825871 -0.90699935 -0.225255892
  outer loop
  vertex 0.00931541156 -0.00962186884 -0.0465941727
  vertex 0.00922216848 -0.010794837 -0.0420184731
  vertex 0.00922597479 -0.00949253049 -0.0472562388
  endloop
 endfacet

 facet normal 0.98535341 -0.1676936 -0.0309445914
  outer loop
  vertex 0.00931541156 -0.00962186884 -0.0465941727
  vertex 0.00945051759 -0.00882799644 -0.0465941727
  vertex 0.00934014935 -0.00965903513 -0.0456050485
  endloop
 endfacet

 facet normal 0.978645027 -0.203034878 -0.0321047753
  outer loop
  vertex 0.00931541156 -0.00962186884 -0.0465941727
  vertex 0.00934014935 -0.00965903513 -0.0456050485
  vertex 0.00922216848 -0.010794837 -0.0420184731
  endloop
 endfacet

 facet normal 0.290558994 -0.928634048 -0.230682477
  outer loop
  vertex 0.00922597479 -0.00949253049 -0.0472562388
  vertex 0.00922216848 -0.010794837 -0.0420184731
  vertex 0.00856376253 -0.00986419246 -0.0465941727
  endloop
 endfacet

 facet normal 0.0763838589 -0.974870384 -0.209268376
  outer loop
  vertex 0.00725456188 -0.00996677205 -0.0465941727
  vertex 0.00856376253 -0.00986419246 -0.0465941727
  vertex 0.00922216848 -0.010794837 -0.0420184731
  endloop
 endfacet

 facet normal 0.054252848 -0.978219509 -0.200357839
  outer loop
  vertex 0.00725456188 -0.00996677205 -0.0465941727
  vertex 0.00922216848 -0.010794837 -0.0420184731
  vertex 0.00856376253 -0.0108215967 -0.0420661084
  endloop
 endfacet

 facet normal 0.0241169631 -0.981063068 -0.192181468
  outer loop
  vertex 0.00725456188 -0.00996677205 -0.0465941727
  vertex 0.00856376253 -0.0108215967 -0.0420661084
  vertex 0.00725456188 -0.0108453836 -0.0421089716
  endloop
 endfacet

 facet normal -0.0594569407 -0.97936058 0.193177775
  outer loop
  vertex -0.00845394749 -0.0108453836 -0.0416263156
  vertex -0.00845394749 -0.0107160453 -0.0409706011
  vertex -0.0091656344 -0.0108275441 -0.04175492
  endloop
 endfacet

 facet normal 0 -0.981096268 0.193520114
  outer loop
  vertex -0.00845394749 -0.0108453836 -0.0416263156
  vertex 0.00725456188 -0.0108453836 -0.0416263156
  vertex 0.00725456188 -0.0107160453 -0.0409706011
  endloop
 endfacet

 facet normal 0 -0.981096268 0.193520114
  outer loop
  vertex -0.00845394749 -0.0108453836 -0.0416263156
  vertex 0.00725456188 -0.0107160453 -0.0409706011
  vertex -0.00845394749 -0.0107160453 -0.0409706011
  endloop
 endfacet

 facet normal 0.0181658827 -0.999835014 0
  outer loop
  vertex 0.00725456188 -0.0108453836 -0.0421089716
  vertex 0.00856376253 -0.0108215967 -0.0420661084
  vertex 0.00856376253 -0.0108215967 -0.0417962
  endloop
 endfacet

 facet normal 0.0181658827 -0.999835014 0
  outer loop
  vertex 0.00725456188 -0.0108453836 -0.0421089716
  vertex 0.00856376253 -0.0108215967 -0.0417962
  vertex 0.00725456188 -0.0108453836 -0.0416263156
  endloop
 endfacet

 facet normal -0.458544314 -0.721610188 0.51866734
  outer loop
  vertex -0.0091656344 -0.0108275441 -0.04175492
  vertex -0.00845394749 -0.0107160453 -0.0409706011
  vertex -0.00935592502 -0.00998312514 -0.0407483317
  endloop
 endfacet

 facet normal -0.345076263 -0.634436607 0.691673756
  outer loop
  vertex -0.00935592502 -0.00998312514 -0.0407483317
  vertex -0.00845394749 -0.0107160453 -0.0409706011
  vertex -0.00845394749 -0.0104737198 -0.0407483317
  endloop
 endfacet

 facet normal 0 0 1
  outer loop
  vertex -0.00935592502 -0.00998312514 -0.0407483317
  vertex -0.00845394749 -0.0104737198 -0.0407483317
  vertex 0.00725456188 -0.0104737198 -0.0407483317
  endloop
 endfacet

 facet normal 0 0 1
  outer loop
  vertex -0.00935592502 -0.00998312514 -0.0407483317
  vertex 0.00725456188 -0.0104737198 -0.0407483317
  vertex 0.00778356986 -0.0104246615 -0.0407483317
  endloop
 endfacet

 facet normal 0 0 1
  outer loop
  vertex -0.00935592502 -0.00998312514 -0.0407483317
  vertex 0.00778356986 -0.0104246615 -0.0407483317
  vertex 0.00856376253 -0.0102953212 -0.0407483317
  endloop
 endfacet

 facet normal 0 0 1
  outer loop
  vertex -0.00935592502 -0.00998312514 -0.0407483317
  vertex 0.00856376253 -0.0102953212 -0.0407483317
  vertex 0.00907183904 -0.0100767845 -0.0407483317
  endloop
 endfacet

 facet normal 0 0 1
  outer loop
  vertex -0.00935592502 -0.00998312514 -0.0407483317
  vertex 0.00907183904 -0.0100767845 -0.0407483317
  vertex 0.00933824573 -0.00987013988 -0.0407483317
  endloop
 endfacet

 facet normal 0 0 1
  outer loop
  vertex -0.00935592502 -0.00998312514 -0.0407483317
  vertex 0.00933824573 -0.00987013988 -0.0407483317
  vertex 0.00939343125 -0.00954456255 -0.0407483317
  endloop
 endfacet

 facet normal 0 0 1
  outer loop
  vertex -0.00935592502 -0.00998312514 -0.0407483317
  vertex 0.00939343125 -0.00954456255 -0.0407483317
  vertex 0.00947715808 -0.00877299067 -0.0407483317
  endloop
 endfacet

 facet normal 0 0 1
  outer loop
  vertex -0.00935592502 -0.00998312514 -0.0407483317
  vertex 0.00947715808 -0.00877299067 -0.0407483317
  vertex 0.00954566337 -0.00751825655 -0.0407483317
  endloop
 endfacet

 facet normal 0 0 1
  outer loop
  vertex -0.00935592502 -0.00998312514 -0.0407483317
  vertex 0.00954566337 -0.00751825655 -0.0407483317
  vertex 0.00958372187 -0.00620851573 -0.0407483317
  endloop
 endfacet

 facet normal 0 0 1
  outer loop
  vertex -0.00935592502 -0.00998312514 -0.0407483317
  vertex 0.00958372187 -0.00620851573 -0.0407483317
  vertex 0.00958372187 -0.00359052187 -0.0407483317
  endloop
 endfacet

 facet normal 0 0 1
  outer loop
  vertex -0.00935592502 -0.00998312514 -0.0407483317
  vertex 0.00958372187 -0.00359052187 -0.0407483317
  vertex 0.00953805167 -0.00228226813 -0.0407483317
  endloop
 endfacet

 facet normal 0 0 1
  outer loop
  vertex -0.00935592502 -0.00998312514 -0.0407483317
  vertex 0.00953805167 -0.00228226813 -0.0407483317
  vertex 0.00935727544 -0.00146758289 -0.0407483317
  endloop
 endfacet

 facet normal 0 0 1
  outer loop
  vertex -0.00935592502 -0.00998312514 -0.0407483317
  vertex 0.00935727544 -0.00146758289 -0.0407483317
  vertex 0.00897859596 -0.0013248641 -0.0407483317
  endloop
 endfacet

 facet normal 0 0 1
  outer loop
  vertex -0.00935592502 -0.00998312514 -0.0407483317
  vertex 0.00897859596 -0.0013248641 -0.0407483317
  vertex 0.00332695874 0.000396679068 -0.0407483317
  endloop
 endfacet

 facet normal 0 0 1
  outer loop
  vertex -0.00935592502 -0.00998312514 -0.0407483317
  vertex 0.00332695874 0.000396679068 -0.0407483317
  vertex 0.00271802815 0.000418978278 -0.0407483317
  endloop
 endfacet

 facet normal 0 0 1
  outer loop
  vertex -0.00935592502 -0.00998312514 -0.0407483317
  vertex 0.00271802815 0.000418978278 -0.0407483317
  vertex 0.00201775786 0.000430871616 -0.0407483317
  endloop
 endfacet

 facet normal 0 0 1
  outer loop
  vertex -0.00935592502 -0.00998312514 -0.0407483317
  vertex 0.00201775786 0.000430871616 -0.0407483317
  vertex 0.000708556909 0.000393705501 -0.0407483317
  endloop
 endfacet

 facet normal 0 0 1
  outer loop
  vertex -0.00935592502 -0.00998312514 -0.0407483317
  vertex 0.000708556909 0.000393705501 -0.0407483317
  vertex -0.00845394749 -0.00119701214 -0.0407483317
  endloop
 endfacet

 facet normal 0 0 1
  outer loop
  vertex -0.00935592502 -0.00998312514 -0.0407483317
  vertex -0.00845394749 -0.00119701214 -0.0407483317
  vertex -0.00936353672 -0.00141406327 -0.0407483317
  endloop
 endfacet

 facet normal 0 0 1
  outer loop
  vertex -0.00935592502 -0.00998312514 -0.0407483317
  vertex -0.00936353672 -0.00141406327 -0.0407483317
  vertex -0.00956334267 -0.00185113901 -0.0407483317
  endloop
 endfacet

 facet normal 0 0 1
  outer loop
  vertex -0.00935592502 -0.00998312514 -0.0407483317
  vertex -0.00956334267 -0.00185113901 -0.0407483317
  vertex -0.0097365072 -0.00228226813 -0.0407483317
  endloop
 endfacet

 facet normal 0 0 1
  outer loop
  vertex -0.00935592502 -0.00998312514 -0.0407483317
  vertex -0.0097365072 -0.00228226813 -0.0407483317
  vertex -0.00982023589 -0.00298396777 -0.0407483317
  endloop
 endfacet

 facet normal 0 0 1
  outer loop
  vertex -0.00935592502 -0.00998312514 -0.0407483317
  vertex -0.00982023589 -0.00298396777 -0.0407483317
  vertex -0.00985639077 -0.00359052187 -0.0407483317
  endloop
 endfacet

 facet normal 0 0 1
  outer loop
  vertex -0.00935592502 -0.00998312514 -0.0407483317
  vertex -0.00985639077 -0.00359052187 -0.0407483317
  vertex -0.00985639077 -0.00490026223 -0.0407483317
  endloop
 endfacet

 facet normal 0 0 1
  outer loop
  vertex -0.00935592502 -0.00998312514 -0.0407483317
  vertex -0.00985639077 -0.00490026223 -0.0407483317
  vertex -0.00985448714 -0.00560047524 -0.0407483317
  endloop
 endfacet

 facet normal 0 0 1
  outer loop
  vertex -0.00935592502 -0.00998312514 -0.0407483317
  vertex -0.00985448714 -0.00560047524 -0.0407483317
  vertex -0.00984687638 -0.0069102156 -0.0407483317
  endloop
 endfacet

 facet normal 0 0 1
  outer loop
  vertex -0.00935592502 -0.00998312514 -0.0407483317
  vertex -0.00984687638 -0.0069102156 -0.0407483317
  vertex -0.0097821774 -0.00821995642 -0.0407483317
  endloop
 endfacet

 facet normal 0 0 1
  outer loop
  vertex -0.00935592502 -0.00998312514 -0.0407483317
  vertex -0.0097821774 -0.00821995642 -0.0407483317
  vertex -0.00964897312 -0.00879975036 -0.0407483317
  endloop
 endfacet

 facet normal -0.999966145 -0.00581106264 0.00581068778
  outer loop
  vertex -0.00984687638 -0.0069102156 -0.0407483317
  vertex -0.00985448714 -0.00560047524 -0.0407483317
  vertex -0.00984687638 -0.00751825655 -0.0413564108
  endloop
 endfacet

 facet normal -0.999989748 -0.00435821339 0.00122835243
  outer loop
  vertex -0.00984687638 -0.00751825655 -0.0413564108
  vertex -0.00985448714 -0.00560047524 -0.0407483317
  vertex -0.00985258445 -0.00620851573 -0.0413564108
  endloop
 endfacet

 facet normal -0.999996305 -0.00271781115 0
  outer loop
  vertex -0.00985448714 -0.00560047524 -0.0407483317
  vertex -0.00985639077 -0.00490026223 -0.0407483317
  vertex -0.00985639077 -0.00490026223 -0.0452843383
  endloop
 endfacet

 facet normal -0.996679008 0.0594094358 0.0556916296
  outer loop
  vertex -0.00985639077 0.00434225239 -0.0492106713
  vertex -0.00985639077 -0.00359052187 -0.0407483317
  vertex -0.00982023589 -0.00298396777 -0.0407483317
  endloop
 endfacet

 facet normal -0.987339556 0.117811777 0.106213182
  outer loop
  vertex -0.00985639077 0.00434225239 -0.0492106713
  vertex -0.00982023589 -0.00298396777 -0.0407483317
  vertex -0.0097365072 -0.00228226813 -0.0407483317
  endloop
 endfacet

 facet normal -0.888606548 0.354972839 0.290469736
  outer loop
  vertex -0.00985639077 0.00434225239 -0.0492106713
  vertex -0.0097365072 -0.00228226813 -0.0407483317
  vertex -0.00983355567 0.00434225239 -0.0491408184
  endloop
 endfacet

 facet normal 0.999983072 -0.00581190595 0
  outer loop
  vertex 0.00958372187 -0.00751825655 -0.0452843383
  vertex 0.00958372187 -0.00751825655 -0.0413564108
  vertex 0.00957610924 -0.00882799644 -0.0413564108
  endloop
 endfacet

 facet normal 0.996708393 -0.0774668977 -0.0238992162
  outer loop
  vertex 0.00958372187 -0.00751825655 -0.0452843383
  vertex 0.00957610924 -0.00882799644 -0.0413564108
  vertex 0.00945051759 -0.00882799644 -0.0465941727
  endloop
 endfacet

 facet normal 0.99680227 -0.0756553933 -0.02572014
  outer loop
  vertex 0.00958372187 -0.00751825655 -0.0452843383
  vertex 0.00945051759 -0.00882799644 -0.0465941727
  vertex 0.00958181825 -0.00620851573 -0.0492106713
  endloop
 endfacet

 facet normal 0.986542225 -0.161489829 -0.0255996697
  outer loop
  vertex 0.00945051759 -0.00882799644 -0.0465941727
  vertex 0.00936108083 -0.010186797 -0.0414691344
  vertex 0.00934014935 -0.00965903513 -0.0456050485
  endloop
 endfacet

 facet normal 0.987733483 -0.154342875 -0.0236840136
  outer loop
  vertex 0.00945051759 -0.00882799644 -0.0465941727
  vertex 0.00957610924 -0.00882799644 -0.0413564108
  vertex 0.00936108083 -0.010186797 -0.0414691344
  endloop
 endfacet

 facet normal 0.0406098031 -0.999175191 0
  outer loop
  vertex 0.00922216848 -0.010794837 -0.0420184731
  vertex 0.00922216848 -0.010794837 -0.0419803709
  vertex 0.00856376253 -0.0108215967 -0.0417962
  endloop
 endfacet

 facet normal 0.0406098031 -0.999175191 0
  outer loop
  vertex 0.00922216848 -0.010794837 -0.0420184731
  vertex 0.00856376253 -0.0108215967 -0.0417962
  vertex 0.00856376253 -0.0108215967 -0.0420661084
  endloop
 endfacet

 facet normal 0.979997098 -0.196728349 -0.030063143
  outer loop
  vertex 0.00922216848 -0.010794837 -0.0420184731
  vertex 0.00934014935 -0.00965903513 -0.0456050485
  vertex 0.00936108083 -0.010186797 -0.0414691344
  endloop
 endfacet

 facet normal 0.974882305 -0.222720683 0
  outer loop
  vertex 0.00922216848 -0.010794837 -0.0420184731
  vertex 0.00936108083 -0.010186797 -0.0414691344
  vertex 0.00922216848 -0.010794837 -0.0419803709
  endloop
 endfacet

 facet normal 0 -0.675957561 0.736940563
  outer loop
  vertex -0.00845394749 -0.0107160453 -0.0409706011
  vertex 0.00725456188 -0.0107160453 -0.0409706011
  vertex 0.00725456188 -0.0104737198 -0.0407483317
  endloop
 endfacet

 facet normal 0 -0.675957561 0.736940563
  outer loop
  vertex -0.00845394749 -0.0107160453 -0.0409706011
  vertex 0.00725456188 -0.0104737198 -0.0407483317
  vertex -0.00845394749 -0.0104737198 -0.0407483317
  endloop
 endfacet

 facet normal 0.042897366 -0.980193138 0.193342
  outer loop
  vertex 0.00725456188 -0.0108453836 -0.0416263156
  vertex 0.00856376253 -0.0108215967 -0.0417962
  vertex 0.00725456188 -0.0107160453 -0.0409706011
  endloop
 endfacet

 facet normal -0.887599111 0.356506795 0.291668922
  outer loop
  vertex -0.0097365072 -0.00228226813 -0.0407483317
  vertex -0.00956334267 -0.00185113901 -0.0407483317
  vertex -0.00983355567 0.00434225239 -0.0491408184
  endloop
 endfacet

 facet normal -0.884644985 0.361105889 0.294967741
  outer loop
  vertex -0.00983355567 0.00434225239 -0.0491408184
  vertex -0.00956334267 -0.00185113901 -0.0407483317
  vertex -0.0094815176 0.00434225239 -0.0480850078
  endloop
 endfacet

 facet normal 0.961360693 0.214274108 0.172835544
  outer loop
  vertex 0.00958372187 0.00434225239 -0.0492106713
  vertex 0.00940104201 0.00434225239 -0.0481945574
  vertex 0.00935727544 -0.00146758289 -0.0407483317
  endloop
 endfacet

 facet normal 0.961664915 0.213389754 0.172236532
  outer loop
  vertex 0.00958372187 0.00434225239 -0.0492106713
  vertex 0.00935727544 -0.00146758289 -0.0407483317
  vertex 0.00953805167 -0.00228226813 -0.0407483317
  endloop
 endfacet

 facet normal 0.9988572 0.0348695181 0.032687407
  outer loop
  vertex 0.00958372187 0.00434225239 -0.0492106713
  vertex 0.00953805167 -0.00228226813 -0.0407483317
  vertex 0.00958372187 -0.00359052187 -0.0407483317
  endloop
 endfacet

 facet normal 0.999904752 -0.00581145007 0.0125172539
  outer loop
  vertex 0.00958372187 -0.00751825655 -0.0413564108
  vertex 0.00958372187 -0.00620851573 -0.0407483317
  vertex 0.00957610924 -0.00882799644 -0.0413564108
  endloop
 endfacet

 facet normal 0.99330008 -0.0288630985 0.111901604
  outer loop
  vertex 0.00957610924 -0.00882799644 -0.0413564108
  vertex 0.00958372187 -0.00620851573 -0.0407483317
  vertex 0.00954566337 -0.00751825655 -0.0407483317
  endloop
 endfacet

 facet normal 0.984807014 -0.053767778 0.165118426
  outer loop
  vertex 0.00957610924 -0.00882799644 -0.0413564108
  vertex 0.00954566337 -0.00751825655 -0.0407483317
  vertex 0.00947715808 -0.00877299067 -0.0407483317
  endloop
 endfacet

 facet normal 0.979852319 -0.106329218 0.169066817
  outer loop
  vertex 0.00957610924 -0.00882799644 -0.0413564108
  vertex 0.00947715808 -0.00877299067 -0.0407483317
  vertex 0.00939343125 -0.00954456255 -0.0407483317
  endloop
 endfacet

 facet normal 0.98123461 -0.163727984 0.101842992
  outer loop
  vertex 0.00957610924 -0.00882799644 -0.0413564108
  vertex 0.00939343125 -0.00954456255 -0.0407483317
  vertex 0.00936108083 -0.010186797 -0.0414691344
  endloop
 endfacet

 facet normal 0.980582714 -0.166206673 0.104080774
  outer loop
  vertex 0.00936108083 -0.010186797 -0.0414691344
  vertex 0.00939343125 -0.00954456255 -0.0407483317
  vertex 0.00933824573 -0.00987013988 -0.0407483317
  endloop
 endfacet

 facet normal 0.910043418 -0.368119776 0.190548748
  outer loop
  vertex 0.00936108083 -0.010186797 -0.0414691344
  vertex 0.00933824573 -0.00987013988 -0.0407483317
  vertex 0.00922216848 -0.010794837 -0.0419803709
  endloop
 endfacet

 facet normal 0.461963266 -0.740579009 0.487988442
  outer loop
  vertex 0.00922216848 -0.010794837 -0.0419803709
  vertex 0.00907183904 -0.0100767845 -0.0407483317
  vertex 0.00856376253 -0.0106521184 -0.0411404856
  endloop
 endfacet

 facet normal 0.108700663 -0.962446749 0.248758167
  outer loop
  vertex 0.00922216848 -0.010794837 -0.0419803709
  vertex 0.00856376253 -0.0106521184 -0.0411404856
  vertex 0.00856376253 -0.0108215967 -0.0417962
  endloop
 endfacet

 facet normal 0.540355325 -0.696627915 0.471938193
  outer loop
  vertex 0.00922216848 -0.010794837 -0.0419803709
  vertex 0.00933824573 -0.00987013988 -0.0407483317
  vertex 0.00907183904 -0.0100767845 -0.0407483317
  endloop
 endfacet

 facet normal 0.0794943199 -0.9651196 0.249449
  outer loop
  vertex 0.00856376253 -0.0108215967 -0.0417962
  vertex 0.00856376253 -0.0106521184 -0.0411404856
  vertex 0.00725456188 -0.0107160453 -0.0409706011
  endloop
 endfacet

 facet normal 0.122513071 -0.734094501 0.667904079
  outer loop
  vertex 0.00725456188 -0.0107160453 -0.0409706011
  vertex 0.00856376253 -0.0106521184 -0.0411404856
  vertex 0.00856376253 -0.0102953212 -0.0407483317
  endloop
 endfacet

 facet normal 0.121319227 -0.731813908 0.67061919
  outer loop
  vertex 0.00725456188 -0.0107160453 -0.0409706011
  vertex 0.00856376253 -0.0102953212 -0.0407483317
  vertex 0.00778356986 -0.0104246615 -0.0407483317
  endloop
 endfacet

 facet normal 0.0625639558 -0.674633324 0.735496938
  outer loop
  vertex 0.00725456188 -0.0107160453 -0.0409706011
  vertex 0.00778356986 -0.0104246615 -0.0407483317
  vertex 0.00725456188 -0.0104737198 -0.0407483317
  endloop
 endfacet

 facet normal -0.860848188 0.393530607 0.322605103
  outer loop
  vertex -0.00956334267 -0.00185113901 -0.0407483317
  vertex -0.00936353672 -0.00141406327 -0.0407483317
  vertex -0.0094815176 0.00434225239 -0.0480850078
  endloop
 endfacet

 facet normal -0.321783692 0.742381871 0.587643087
  outer loop
  vertex -0.0094815176 0.00434225239 -0.0480850078
  vertex -0.00936353672 -0.00141406327 -0.0407483317
  vertex -0.009420624 0.00434225239 -0.0480516665
  endloop
 endfacet

 facet normal 0.369415432 0.731587946 0.572984695
  outer loop
  vertex 0.00940104201 0.00434225239 -0.0481945574
  vertex 0.00856376253 0.00434225239 -0.0476547442
  vertex 0.00935727544 -0.00146758289 -0.0407483317
  endloop
 endfacet

 facet normal 0.282589257 0.749801338 0.598282039
  outer loop
  vertex 0.00935727544 -0.00146758289 -0.0407483317
  vertex 0.00856376253 0.00434225239 -0.0476547442
  vertex 0.00897859596 -0.0013248641 -0.0407483317
  endloop
 endfacet

 facet normal 0.303176254 -0.704853714 0.641299844
  outer loop
  vertex 0.00907183904 -0.0100767845 -0.0407483317
  vertex 0.00856376253 -0.0102953212 -0.0407483317
  vertex 0.00856376253 -0.0106521184 -0.0411404856
  endloop
 endfacet

 facet normal -0.182200909 0.763544023 0.619518638
  outer loop
  vertex -0.00936353672 -0.00141406327 -0.0407483317
  vertex -0.00845394749 -0.00119701214 -0.0407483317
  vertex -0.00845394749 0.00434225239 -0.047575362
  endloop
 endfacet

 facet normal -0.292370439 0.74994868 0.593377233
  outer loop
  vertex -0.00936353672 -0.00141406327 -0.0407483317
  vertex -0.00845394749 0.00434225239 -0.047575362
  vertex -0.009420624 0.00434225239 -0.0480516665
  endloop
 endfacet

 facet normal 0.187251776 0.78503722 0.590468824
  outer loop
  vertex 0.00856376253 0.00434225239 -0.0476547442
  vertex 0.00332695874 0.00434225239 -0.0459940284
  vertex 0.00332695874 0.000396679068 -0.0407483317
  endloop
 endfacet

 facet normal 0.231162459 0.758881032 0.608821511
  outer loop
  vertex 0.00856376253 0.00434225239 -0.0476547442
  vertex 0.00332695874 0.000396679068 -0.0407483317
  vertex 0.00897859596 -0.0013248641 -0.0407483317
  endloop
 endfacet

 facet normal -0.133608088 0.769580066 0.624416053
  outer loop
  vertex -0.00845394749 -0.00119701214 -0.0407483317
  vertex 0.000708556909 0.000393705501 -0.0407483317
  vertex -0.00845394749 0.00434225239 -0.047575362
  endloop
 endfacet

 facet normal -0.102347836 0.795392334 0.59739095
  outer loop
  vertex -0.00845394749 0.00434225239 -0.047575362
  vertex 0.000708556909 0.000393705501 -0.0407483317
  vertex 0.000739003299 0.00434225239 -0.0460003801
  endloop
 endfacet

 facet normal 0.0358071588 0.798660457 0.600715756
  outer loop
  vertex 0.00332695874 0.00434225239 -0.0459940284
  vertex 0.0033003178 0.00434225239 -0.0459924415
  vertex 0.00332695874 0.000396679068 -0.0407483317
  endloop
 endfacet

 facet normal 0.0292528085 0.798814952 0.600865245
  outer loop
  vertex 0.00332695874 0.000396679068 -0.0407483317
  vertex 0.0033003178 0.00434225239 -0.0459924415
  vertex 0.00271802815 0.000418978278 -0.0407483317
  endloop
 endfacet

 facet normal -0.0226869434 0.799162269 0.600687146
  outer loop
  vertex 0.000708556909 0.000393705501 -0.0407483317
  vertex 0.00201775786 0.000430871616 -0.0407483317
  vertex 0.000739003299 0.00434225239 -0.0460003801
  endloop
 endfacet

 facet normal -0.0145460991 0.800238073 0.59950614
  outer loop
  vertex 0.000739003299 0.00434225239 -0.0460003801
  vertex 0.00201775786 0.000430871616 -0.0407483317
  vertex 0.00191690389 0.00434225239 -0.0459718034
  endloop
 endfacet

 facet normal 0.0103894547 0.800326824 0.599474072
  outer loop
  vertex 0.0033003178 0.00434225239 -0.0459924415
  vertex 0.00201775786 0.00434225239 -0.0459702127
  vertex 0.00201775786 0.000430871616 -0.0407483317
  endloop
 endfacet

 facet normal 0.0135858087 0.799920261 0.599952579
  outer loop
  vertex 0.0033003178 0.00434225239 -0.0459924415
  vertex 0.00201775786 0.000430871616 -0.0407483317
  vertex 0.00271802815 0.000418978278 -0.0407483317
  endloop
 endfacet

 facet normal -0.00943907257 0.800334394 0.599479675
  outer loop
  vertex 0.00201775786 0.000430871616 -0.0407483317
  vertex 0.00201775786 0.00434225239 -0.0459702127
  vertex 0.00191690389 0.00434225239 -0.0459718034
  endloop
 endfacet

endsolid AssimpScene
