solid AssimpScene
 facet normal 1 0 0
  outer loop
  vertex 0.009582242 -0.00672674179 -0.0327270217
  vertex 0.009582242 -0.00689944066 -0.0327270217
  vertex 0.009582242 -0.0173629895 -0.0401959568
  endloop
 endfacet

 facet normal 1 0 0
  outer loop
  vertex 0.009582242 -0.00672674179 -0.0327270217
  vertex 0.009582242 -0.0173629895 -0.0401959568
  vertex 0.009582242 -0.0147471009 -0.0419325233
  endloop
 endfacet

 facet normal 1 0 0
  outer loop
  vertex 0.009582242 -0.00672674179 -0.0327270217
  vertex 0.009582242 -0.0147471009 -0.0419325233
  vertex 0.009582242 -0.0121324845 -0.0419325233
  endloop
 endfacet

 facet normal 1 0 0
  outer loop
  vertex 0.009582242 -0.00672674179 -0.0327270217
  vertex 0.009582242 -0.0121324845 -0.0419325233
  vertex 0.009582242 -0.00672674179 -0.0336561315
  endloop
 endfacet

 facet normal 0 1 0
  outer loop
  vertex 0.009582242 -0.00672674179 -0.0327270217
  vertex 0.009582242 -0.00672674179 -0.0336561315
  vertex 0.00957653392 -0.00672674179 -0.0349637382
  endloop
 endfacet

 facet normal 0 1 0
  outer loop
  vertex 0.009582242 -0.00672674179 -0.0327270217
  vertex 0.00957653392 -0.00672674179 -0.0349637382
  vertex 0.00939006079 -0.00672674179 -0.0359478183
  endloop
 endfacet

 facet normal 0 1 0
  outer loop
  vertex 0.009582242 -0.00672674179 -0.0327270217
  vertex 0.00939006079 -0.00672674179 -0.0359478183
  vertex 0.0085528316 -0.00672674179 -0.0364011116
  endloop
 endfacet

 facet normal 0 1 0
  outer loop
  vertex 0.009582242 -0.00672674179 -0.0327270217
  vertex 0.0085528316 -0.00672674179 -0.0364011116
  vertex 0.00348379486 -0.00672674179 -0.0380944163
  endloop
 endfacet

 facet normal 0 1 0
  outer loop
  vertex 0.009582242 -0.00672674179 -0.0327270217
  vertex 0.00348379486 -0.00672674179 -0.0380944163
  vertex 0.0033201545 -0.00672674179 -0.0381331667
  endloop
 endfacet

 facet normal 0 1 0
  outer loop
  vertex 0.009582242 -0.00672674179 -0.0327270217
  vertex 0.0033201545 -0.00672674179 -0.0381331667
  vertex 0.00237066159 -0.00672674179 -0.0381665118
  endloop
 endfacet

 facet normal 0 1 0
  outer loop
  vertex 0.009582242 -0.00672674179 -0.0327270217
  vertex 0.00237066159 -0.00672674179 -0.0381665118
  vertex 0.00201293686 -0.00672674179 -0.0381764248
  endloop
 endfacet

 facet normal 0 1 0
  outer loop
  vertex 0.009582242 -0.00672674179 -0.0327270217
  vertex 0.00201293686 -0.00672674179 -0.0381764248
  vertex 0.000705719169 -0.00672674179 -0.0381097384
  endloop
 endfacet

 facet normal 0 1 0
  outer loop
  vertex 0.009582242 -0.00672674179 -0.0327270217
  vertex 0.000705719169 -0.00672674179 -0.0381097384
  vertex -0.00845051371 -0.00672674179 -0.0364470705
  endloop
 endfacet

 facet normal 0 1 0
  outer loop
  vertex 0.009582242 -0.00672674179 -0.0327270217
  vertex -0.00845051371 -0.00672674179 -0.0364470705
  vertex -0.0085760979 -0.00672674179 -0.0364137292
  endloop
 endfacet

 facet normal 0 1 0
  outer loop
  vertex 0.009582242 -0.00672674179 -0.0327270217
  vertex -0.0085760979 -0.00672674179 -0.0364137292
  vertex -0.00945138186 -0.00672674179 -0.0360235199
  endloop
 endfacet

 facet normal 0 1 0
  outer loop
  vertex 0.009582242 -0.00672674179 -0.0327270217
  vertex -0.00945138186 -0.00672674179 -0.0360235199
  vertex -0.00950085465 -0.00672674179 -0.0359036587
  endloop
 endfacet

 facet normal 0 1 0
  outer loop
  vertex 0.009582242 -0.00672674179 -0.0327270217
  vertex -0.00950085465 -0.00672674179 -0.0359036587
  vertex -0.00982623175 -0.00672674179 -0.0349637382
  endloop
 endfacet

 facet normal 0 1 0
  outer loop
  vertex 0.009582242 -0.00672674179 -0.0327270217
  vertex -0.00982623175 -0.00672674179 -0.0349637382
  vertex -0.00983764976 -0.00672674179 -0.0347907133
  endloop
 endfacet

 facet normal 0 1 0
  outer loop
  vertex 0.009582242 -0.00672674179 -0.0327270217
  vertex -0.00983764976 -0.00672674179 -0.0347907133
  vertex -0.00985667668 -0.00672674179 -0.0336561315
  endloop
 endfacet

 facet normal 0 1 0
  outer loop
  vertex 0.009582242 -0.00672674179 -0.0327270217
  vertex -0.00985667668 -0.00672674179 -0.0336561315
  vertex -0.00985667668 -0.00672674179 -0.0327270217
  endloop
 endfacet

 facet normal 0 0 1
  outer loop
  vertex 0.009582242 -0.00672674179 -0.0327270217
  vertex -0.00985667668 -0.00672674179 -0.0327270217
  vertex -0.00985667668 -0.00689944066 -0.0327270217
  endloop
 endfacet

 facet normal 0 0 1
  outer loop
  vertex 0.009582242 -0.00672674179 -0.0327270217
  vertex -0.00985667668 -0.00689944066 -0.0327270217
  vertex -0.00982813537 -0.00727785565 -0.0327270217
  endloop
 endfacet

 facet normal 0 0 1
  outer loop
  vertex 0.009582242 -0.00672674179 -0.0327270217
  vertex -0.00982813537 -0.00727785565 -0.0327270217
  vertex -0.0095579382 -0.0082530994 -0.0327270217
  endloop
 endfacet

 facet normal 0 0 1
  outer loop
  vertex 0.009582242 -0.00672674179 -0.0327270217
  vertex -0.0095579382 -0.0082530994 -0.0327270217
  vertex -0.00944947917 -0.00851849653 -0.0327270217
  endloop
 endfacet

 facet normal 0 0 1
  outer loop
  vertex 0.009582242 -0.00672674179 -0.0327270217
  vertex -0.00944947917 -0.00851849653 -0.0327270217
  vertex -0.00926300604 -0.00885119755 -0.0327270217
  endloop
 endfacet

 facet normal 0 0 1
  outer loop
  vertex 0.009582242 -0.00672674179 -0.0327270217
  vertex -0.00926300604 -0.00885119755 -0.0327270217
  vertex -0.00915835239 -0.00892992783 -0.0327270217
  endloop
 endfacet

 facet normal 0 0 1
  outer loop
  vertex 0.009582242 -0.00672674179 -0.0327270217
  vertex -0.00915835239 -0.00892992783 -0.0327270217
  vertex -0.00874734949 -0.00897945184 -0.0327270217
  endloop
 endfacet

 facet normal 0 0 1
  outer loop
  vertex 0.009582242 -0.00672674179 -0.0327270217
  vertex -0.00874734949 -0.00897945184 -0.0327270217
  vertex -0.00845051371 -0.00901373755 -0.0327270217
  endloop
 endfacet

 facet normal 0 0 1
  outer loop
  vertex 0.009582242 -0.00672674179 -0.0327270217
  vertex -0.00845051371 -0.00901373755 -0.0327270217
  vertex 0.00724561373 -0.00901373755 -0.0327270217
  endloop
 endfacet

 facet normal 0 0 1
  outer loop
  vertex 0.009582242 -0.00672674179 -0.0327270217
  vertex 0.00724561373 -0.00901373755 -0.0327270217
  vertex 0.00809425954 -0.00897818152 -0.0327270217
  endloop
 endfacet

 facet normal 0 0 1
  outer loop
  vertex 0.009582242 -0.00672674179 -0.0327270217
  vertex 0.00809425954 -0.00897818152 -0.0327270217
  vertex 0.0085528316 -0.00895659439 -0.0327270217
  endloop
 endfacet

 facet normal 0 0 1
  outer loop
  vertex 0.009582242 -0.00672674179 -0.0327270217
  vertex 0.0085528316 -0.00895659439 -0.0327270217
  vertex 0.00929872598 -0.00869627669 -0.0327270217
  endloop
 endfacet

 facet normal 0 0 1
  outer loop
  vertex 0.009582242 -0.00672674179 -0.0327270217
  vertex 0.00929872598 -0.00869627669 -0.0327270217
  vertex 0.00942431018 -0.00821500365 -0.0327270217
  endloop
 endfacet

 facet normal 0 0 1
  outer loop
  vertex 0.009582242 -0.00672674179 -0.0327270217
  vertex 0.00942431018 -0.00821500365 -0.0327270217
  vertex 0.009582242 -0.00689944066 -0.0327270217
  endloop
 endfacet

 facet normal 0.975374818 -0.11709249 0.186904788
  outer loop
  vertex 0.009582242 -0.00689944066 -0.0327270217
  vertex 0.00942431018 -0.00821500365 -0.0327270217
  vertex 0.00935961585 -0.0185642652 -0.0388730317
  endloop
 endfacet

 facet normal 0.992223203 -0.072315231 0.101309463
  outer loop
  vertex 0.009582242 -0.00689944066 -0.0327270217
  vertex 0.00935961585 -0.0185642652 -0.0388730317
  vertex 0.009582242 -0.0173629895 -0.0401959568
  endloop
 endfacet

 facet normal 0.999994457 0.00279209181 -0.00182366034
  outer loop
  vertex 0.009582242 -0.00672674179 -0.0336561315
  vertex 0.009582242 -0.0121324845 -0.0419325233
  vertex 0.00958033931 -0.00689944066 -0.0349637382
  endloop
 endfacet

 facet normal 0.999747694 0.0220320579 -0.0043643727
  outer loop
  vertex 0.009582242 -0.00672674179 -0.0336561315
  vertex 0.00958033931 -0.00689944066 -0.0349637382
  vertex 0.00957653392 -0.00672674179 -0.0349637382
  endloop
 endfacet

 facet normal -1 0 0
  outer loop
  vertex -0.00985667668 -0.00672674179 -0.0327270217
  vertex -0.00985667668 -0.00672674179 -0.0336561315
  vertex -0.00985667668 -0.0121324845 -0.0419325233
  endloop
 endfacet

 facet normal -1 0 0
  outer loop
  vertex -0.00985667668 -0.00672674179 -0.0327270217
  vertex -0.00985667668 -0.0121324845 -0.0419325233
  vertex -0.00985667668 -0.0147471009 -0.0419325233
  endloop
 endfacet

 facet normal -1 0 0
  outer loop
  vertex -0.00985667668 -0.00672674179 -0.0327270217
  vertex -0.00985667668 -0.0147471009 -0.0419325233
  vertex -0.00985667668 -0.0147471009 -0.0401959568
  endloop
 endfacet

 facet normal -1 0 0
  outer loop
  vertex -0.00985667668 -0.00672674179 -0.0327270217
  vertex -0.00985667668 -0.0147471009 -0.0401959568
  vertex -0.00985667668 -0.00689944066 -0.0327270217
  endloop
 endfacet

 facet normal 0.990828514 -0.10019429 -0.0906636044
  outer loop
  vertex 0.009582242 -0.0173629895 -0.0401959568
  vertex 0.00942811649 -0.0187852178 -0.0403086022
  vertex 0.00955560338 -0.0160550456 -0.0419325233
  endloop
 endfacet

 facet normal 0.999239087 -0.0222157314 -0.0320608728
  outer loop
  vertex 0.009582242 -0.0173629895 -0.0401959568
  vertex 0.00955560338 -0.0160550456 -0.0419325233
  vertex 0.00956511684 -0.0156271067 -0.0419325233
  endloop
 endfacet

 facet normal 0.999381661 -0.0194480326 -0.0292956717
  outer loop
  vertex 0.009582242 -0.0173629895 -0.0401959568
  vertex 0.00956511684 -0.0156271067 -0.0419325233
  vertex 0.009582242 -0.0147471009 -0.0419325233
  endloop
 endfacet

 facet normal 0.992326736 -0.0817073211 0.0927984342
  outer loop
  vertex 0.009582242 -0.0173629895 -0.0401959568
  vertex 0.00935961585 -0.0185642652 -0.0388730317
  vertex 0.00932536554 -0.0194633193 -0.0392983854
  endloop
 endfacet

 facet normal 0.993573785 -0.109837376 0.0273304991
  outer loop
  vertex 0.009582242 -0.0173629895 -0.0401959568
  vertex 0.00932536554 -0.0194633193 -0.0392983854
  vertex 0.00942811649 -0.0187852178 -0.0403086022
  endloop
 endfacet

 facet normal 0.892867923 -0.232986301 0.385362625
  outer loop
  vertex 0.00942431018 -0.00821500365 -0.0327270217
  vertex 0.00929872598 -0.00869627669 -0.0327270217
  vertex 0.00932536554 -0.0194633193 -0.0392983854
  endloop
 endfacet

 facet normal 0.955166936 -0.155566171 0.251903266
  outer loop
  vertex 0.00942431018 -0.00821500365 -0.0327270217
  vertex 0.00932536554 -0.0194633193 -0.0392983854
  vertex 0.00935961585 -0.0185642652 -0.0388730317
  endloop
 endfacet

 facet normal 0 0 -1
  outer loop
  vertex 0.009582242 -0.0121324845 -0.0419325233
  vertex 0.009582242 -0.0147471009 -0.0419325233
  vertex 0.00956511684 -0.0156271067 -0.0419325233
  endloop
 endfacet

 facet normal 0 0 -1
  outer loop
  vertex 0.009582242 -0.0121324845 -0.0419325233
  vertex 0.00956511684 -0.0156271067 -0.0419325233
  vertex 0.00955560338 -0.0160550456 -0.0419325233
  endloop
 endfacet

 facet normal 0 0 -1
  outer loop
  vertex 0.009582242 -0.0121324845 -0.0419325233
  vertex 0.00955560338 -0.0160550456 -0.0419325233
  vertex 0.00945285242 -0.0170467962 -0.0419325233
  endloop
 endfacet

 facet normal 0 0 -1
  outer loop
  vertex 0.009582242 -0.0121324845 -0.0419325233
  vertex 0.00945285242 -0.0170467962 -0.0419325233
  vertex 0.0094109904 -0.0174328294 -0.0419325233
  endloop
 endfacet

 facet normal 0 0 -1
  outer loop
  vertex 0.009582242 -0.0121324845 -0.0419325233
  vertex 0.0094109904 -0.0174328294 -0.0419325233
  vertex 0.00915030763 -0.0180042628 -0.0419325233
  endloop
 endfacet

 facet normal 0 0 -1
  outer loop
  vertex 0.009582242 -0.0121324845 -0.0419325233
  vertex 0.00915030763 -0.0180042628 -0.0419325233
  vertex 0.00865938794 -0.0186810922 -0.0419325233
  endloop
 endfacet

 facet normal 0 0 -1
  outer loop
  vertex 0.009582242 -0.0121324845 -0.0419325233
  vertex 0.00865938794 -0.0186810922 -0.0419325233
  vertex 0.00808474515 -0.01878649 -0.0419325233
  endloop
 endfacet

 facet normal 0 0 -1
  outer loop
  vertex 0.009582242 -0.0121324845 -0.0419325233
  vertex 0.00808474515 -0.01878649 -0.0419325233
  vertex 0.00724561373 -0.0188728385 -0.0419325233
  endloop
 endfacet

 facet normal 0 0 -1
  outer loop
  vertex 0.009582242 -0.0121324845 -0.0419325233
  vertex 0.00724561373 -0.0188728385 -0.0419325233
  vertex 0.00593649363 -0.0188741088 -0.0419325233
  endloop
 endfacet

 facet normal 0 0 -1
  outer loop
  vertex 0.009582242 -0.0121324845 -0.0419325233
  vertex 0.00593649363 -0.0188741088 -0.0419325233
  vertex -0.00714139361 -0.0188741088 -0.0419325233
  endloop
 endfacet

 facet normal 0 0 -1
  outer loop
  vertex 0.009582242 -0.0121324845 -0.0419325233
  vertex -0.00714139361 -0.0188741088 -0.0419325233
  vertex -0.00845051371 -0.0188080762 -0.0419325233
  endloop
 endfacet

 facet normal 0 0 -1
  outer loop
  vertex 0.009582242 -0.0121324845 -0.0419325233
  vertex -0.00845051371 -0.0188080762 -0.0419325233
  vertex -0.00871119648 -0.0187407732 -0.0419325233
  endloop
 endfacet

 facet normal 0 0 -1
  outer loop
  vertex 0.009582242 -0.0121324845 -0.0419325233
  vertex -0.00871119648 -0.0187407732 -0.0419325233
  vertex -0.00932770129 -0.0185680762 -0.0419325233
  endloop
 endfacet

 facet normal 0 0 -1
  outer loop
  vertex 0.009582242 -0.0121324845 -0.0419325233
  vertex -0.00932770129 -0.0185680762 -0.0419325233
  vertex -0.00956554897 -0.0177515633 -0.0419325233
  endloop
 endfacet

 facet normal 0 0 -1
  outer loop
  vertex 0.009582242 -0.0121324845 -0.0419325233
  vertex -0.00956554897 -0.0177515633 -0.0419325233
  vertex -0.00964927301 -0.0173629895 -0.0419325233
  endloop
 endfacet

 facet normal 0 0 -1
  outer loop
  vertex 0.009582242 -0.0121324845 -0.0419325233
  vertex -0.00964927301 -0.0173629895 -0.0419325233
  vertex -0.00975963473 -0.0164829828 -0.0419325233
  endloop
 endfacet

 facet normal 0 0 -1
  outer loop
  vertex 0.009582242 -0.0121324845 -0.0419325233
  vertex -0.00975963473 -0.0164829828 -0.0419325233
  vertex -0.0098129129 -0.0160550456 -0.0419325233
  endloop
 endfacet

 facet normal 0 0 -1
  outer loop
  vertex 0.009582242 -0.0121324845 -0.0419325233
  vertex -0.0098129129 -0.0160550456 -0.0419325233
  vertex -0.00985667668 -0.0147471009 -0.0419325233
  endloop
 endfacet

 facet normal 0 0 -1
  outer loop
  vertex 0.009582242 -0.0121324845 -0.0419325233
  vertex -0.00985667668 -0.0147471009 -0.0419325233
  vertex -0.00985667668 -0.0121324845 -0.0419325233
  endloop
 endfacet

 facet normal 0 0 -1
  outer loop
  vertex 0.009582242 -0.0121324845 -0.0419325233
  vertex -0.00985667668 -0.0121324845 -0.0419325233
  vertex -0.00947992411 -0.0110150184 -0.0419325233
  endloop
 endfacet

 facet normal 0 0 -1
  outer loop
  vertex 0.009582242 -0.0121324845 -0.0419325233
  vertex -0.00947992411 -0.0110150184 -0.0419325233
  vertex -0.00914312992 -0.0108461278 -0.0419325233
  endloop
 endfacet

 facet normal 0 0 -1
  outer loop
  vertex 0.009582242 -0.0121324845 -0.0419325233
  vertex -0.00914312992 -0.0108461278 -0.0419325233
  vertex -0.00845051371 -0.0105185071 -0.0419325233
  endloop
 endfacet

 facet normal 0 0 -1
  outer loop
  vertex 0.009582242 -0.0121324845 -0.0419325233
  vertex -0.00845051371 -0.0105185071 -0.0419325233
  vertex 0.000758997281 -0.00894897524 -0.0419325233
  endloop
 endfacet

 facet normal 0 0 -1
  outer loop
  vertex 0.009582242 -0.0121324845 -0.0419325233
  vertex 0.000758997281 -0.00894897524 -0.0419325233
  vertex 0.00201293686 -0.00892611779 -0.0419325233
  endloop
 endfacet

 facet normal 0 0 -1
  outer loop
  vertex 0.009582242 -0.0121324845 -0.0419325233
  vertex 0.00201293686 -0.00892611779 -0.0419325233
  vertex 0.00329732127 -0.00894389581 -0.0419325233
  endloop
 endfacet

 facet normal 0 0 -1
  outer loop
  vertex 0.009582242 -0.0121324845 -0.0419325233
  vertex 0.00329732127 -0.00894389581 -0.0419325233
  vertex 0.0085528316 -0.0105921589 -0.0419325233
  endloop
 endfacet

 facet normal 0 0 -1
  outer loop
  vertex 0.009582242 -0.0121324845 -0.0419325233
  vertex 0.0085528316 -0.0105921589 -0.0419325233
  vertex 0.00939386524 -0.011119145 -0.0419325233
  endloop
 endfacet

 facet normal 0 0 -1
  outer loop
  vertex 0.009582242 -0.0121324845 -0.0419325233
  vertex 0.00939386524 -0.011119145 -0.0419325233
  vertex 0.00951944944 -0.0117934356 -0.0419325233
  endloop
 endfacet

 facet normal 0.973721445 0.180334985 -0.139089659
  outer loop
  vertex 0.009582242 -0.0121324845 -0.0419325233
  vertex 0.00951944944 -0.0117934356 -0.0419325233
  vertex 0.00957653392 -0.00672674179 -0.0349637382
  endloop
 endfacet

 facet normal 0.999625027 0.0220293552 -0.0162695255
  outer loop
  vertex 0.009582242 -0.0121324845 -0.0419325233
  vertex 0.00957653392 -0.00672674179 -0.0349637382
  vertex 0.00958033931 -0.00689944066 -0.0349637382
  endloop
 endfacet

 facet normal 0.973442018 0.181300148 -0.139789119
  outer loop
  vertex 0.00957653392 -0.00672674179 -0.0349637382
  vertex 0.00951944944 -0.0117934356 -0.0419325233
  vertex 0.00939386524 -0.011119145 -0.0419325233
  endloop
 endfacet

 facet normal 0.952159762 0.24665539 -0.180424437
  outer loop
  vertex 0.00957653392 -0.00672674179 -0.0349637382
  vertex 0.00939386524 -0.011119145 -0.0419325233
  vertex 0.00939006079 -0.00672674179 -0.0359478183
  endloop
 endfacet

 facet normal -0.999530017 0.025664093 -0.0167625528
  outer loop
  vertex -0.00985667668 -0.00672674179 -0.0336561315
  vertex -0.00983764976 -0.00672674179 -0.0347907133
  vertex -0.00985667668 -0.0121324845 -0.0419325233
  endloop
 endfacet

 facet normal -0.999986053 -0.00363703119 0.00382145261
  outer loop
  vertex -0.00985667668 -0.00689944066 -0.0327270217
  vertex -0.00985667668 -0.0147471009 -0.0401959568
  vertex -0.00984716229 -0.0173629895 -0.0401959568
  endloop
 endfacet

 facet normal -0.991808712 -0.0748063028 0.10353592
  outer loop
  vertex -0.00985667668 -0.00689944066 -0.0327270217
  vertex -0.00984716229 -0.0173629895 -0.0401959568
  vertex -0.00982813537 -0.00727785565 -0.0327270217
  endloop
 endfacet

 facet normal 0.989211559 -0.107270643 -0.0997664556
  outer loop
  vertex 0.00942811649 -0.0187852178 -0.0403086022
  vertex 0.0094109904 -0.0174328294 -0.0419325233
  vertex 0.00945285242 -0.0170467962 -0.0419325233
  endloop
 endfacet

 facet normal 0.990201652 -0.102590248 -0.0947409645
  outer loop
  vertex 0.00942811649 -0.0187852178 -0.0403086022
  vertex 0.00945285242 -0.0170467962 -0.0419325233
  vertex 0.00955560338 -0.0160550456 -0.0419325233
  endloop
 endfacet

 facet normal 0.988713741 -0.149817213 0
  outer loop
  vertex 0.00942811649 -0.0187852178 -0.0403086022
  vertex 0.00932536554 -0.0194633193 -0.0392983854
  vertex 0.00932536554 -0.0194633193 -0.0399481356
  endloop
 endfacet

 facet normal 0.947612464 -0.249568328 -0.199364692
  outer loop
  vertex 0.00942811649 -0.0187852178 -0.0403086022
  vertex 0.00932536554 -0.0194633193 -0.0399481356
  vertex 0.0093329763 -0.0184258521 -0.0412106812
  endloop
 endfacet

 facet normal 0.960116565 -0.209789455 -0.184836492
  outer loop
  vertex 0.00942811649 -0.0187852178 -0.0403086022
  vertex 0.0093329763 -0.0184258521 -0.0412106812
  vertex 0.0094109904 -0.0174328294 -0.0419325233
  endloop
 endfacet

 facet normal 0.874434471 -0.251162112 0.415068597
  outer loop
  vertex 0.00932536554 -0.0194633193 -0.0392983854
  vertex 0.00929872598 -0.00869627669 -0.0327270217
  vertex 0.00921880919 -0.0180575959 -0.0382232852
  endloop
 endfacet

 facet normal 0.354316771 -0.550994217 0.755556047
  outer loop
  vertex 0.00932536554 -0.0194633193 -0.0392983854
  vertex 0.00921880919 -0.0180575959 -0.0382232852
  vertex 0.0085528316 -0.0188195053 -0.0384666026
  endloop
 endfacet

 facet normal 0.261054784 -0.630802929 0.730710626
  outer loop
  vertex 0.00932536554 -0.0194633193 -0.0392983854
  vertex 0.0085528316 -0.0188195053 -0.0384666026
  vertex 0.0085528316 -0.0195763353 -0.0391199552
  endloop
 endfacet

 facet normal 0.144752368 -0.989467859 0
  outer loop
  vertex 0.00932536554 -0.0194633193 -0.0392983854
  vertex 0.0085528316 -0.0195763353 -0.0391199552
  vertex 0.00932536554 -0.0194633193 -0.0399481356
  endloop
 endfacet

 facet normal 0.172893316 -0.495395124 0.851288199
  outer loop
  vertex 0.00929872598 -0.00869627669 -0.0327270217
  vertex 0.0085528316 -0.00895659439 -0.0327270217
  vertex 0.0085528316 -0.0188195053 -0.0384666026
  endloop
 endfacet

 facet normal 0.257488251 -0.490870237 0.832313776
  outer loop
  vertex 0.00929872598 -0.00869627669 -0.0327270217
  vertex 0.0085528316 -0.0188195053 -0.0384666026
  vertex 0.00921880919 -0.0180575959 -0.0382232852
  endloop
 endfacet

 facet normal 0.450950116 0.719685256 -0.527917743
  outer loop
  vertex 0.00939386524 -0.011119145 -0.0419325233
  vertex 0.0085528316 -0.0105921589 -0.0419325233
  vertex 0.00939006079 -0.00672674179 -0.0359478183
  endloop
 endfacet

 facet normal 0.296212852 0.782903075 -0.547102153
  outer loop
  vertex 0.00939006079 -0.00672674179 -0.0359478183
  vertex 0.0085528316 -0.0105921589 -0.0419325233
  vertex 0.0085528316 -0.00672674179 -0.0364011116
  endloop
 endfacet

 facet normal -0.993768215 0.0901349932 -0.0655768737
  outer loop
  vertex -0.00983764976 -0.00672674179 -0.0347907133
  vertex -0.00982623175 -0.00672674179 -0.0349637382
  vertex -0.00985667668 -0.0121324845 -0.0419325233
  endloop
 endfacet

 facet normal -0.92065239 0.31039685 -0.236755162
  outer loop
  vertex -0.00985667668 -0.0121324845 -0.0419325233
  vertex -0.00982623175 -0.00672674179 -0.0349637382
  vertex -0.00947992411 -0.0110150184 -0.0419325233
  endloop
 endfacet

 facet normal -0.999993324 -0.0036370575 0
  outer loop
  vertex -0.00985667668 -0.0147471009 -0.0401959568
  vertex -0.00985667668 -0.0147471009 -0.0419325233
  vertex -0.00984716229 -0.0173629895 -0.0401959568
  endloop
 endfacet

 facet normal -0.975414157 -0.134807497 0.174339458
  outer loop
  vertex -0.00984716229 -0.0173629895 -0.0401959568
  vertex -0.00966639724 -0.0186709333 -0.0401959568
  vertex -0.00942664593 -0.0186353773 -0.0388270728
  endloop
 endfacet

 facet normal -0.975277424 -0.130326971 0.178462103
  outer loop
  vertex -0.00984716229 -0.0173629895 -0.0401959568
  vertex -0.00942664593 -0.0186353773 -0.0388270728
  vertex -0.00982813537 -0.00727785565 -0.0327270217
  endloop
 endfacet

 facet normal -0.998434722 -0.0334078856 -0.0448540188
  outer loop
  vertex -0.00984716229 -0.0173629895 -0.0401959568
  vertex -0.00985667668 -0.0147471009 -0.0419325233
  vertex -0.0098129129 -0.0160550456 -0.0419325233
  endloop
 endfacet

 facet normal -0.986104488 -0.122770101 -0.111916512
  outer loop
  vertex -0.00984716229 -0.0173629895 -0.0401959568
  vertex -0.0098129129 -0.0160550456 -0.0419325233
  vertex -0.00975963473 -0.0164829828 -0.0419325233
  endloop
 endfacet

 facet normal -0.985945225 -0.123647444 -0.112353072
  outer loop
  vertex -0.00984716229 -0.0173629895 -0.0401959568
  vertex -0.00975963473 -0.0164829828 -0.0419325233
  vertex -0.00964927301 -0.0173629895 -0.0419325233
  endloop
 endfacet

 facet normal -0.984332919 -0.136040092 -0.112169348
  outer loop
  vertex -0.00984716229 -0.0173629895 -0.0401959568
  vertex -0.00964927301 -0.0173629895 -0.0419325233
  vertex -0.00966639724 -0.0186709333 -0.0401959568
  endloop
 endfacet

 facet normal -0.884131432 -0.244953558 0.39788115
  outer loop
  vertex -0.00982813537 -0.00727785565 -0.0327270217
  vertex -0.00942664593 -0.0186353773 -0.0388270728
  vertex -0.0095579382 -0.0082530994 -0.0327270217
  endloop
 endfacet

 facet normal 0.822555184 -0.375242144 -0.427312851
  outer loop
  vertex 0.0094109904 -0.0174328294 -0.0419325233
  vertex 0.0093329763 -0.0184258521 -0.0412106812
  vertex 0.00915030763 -0.0180042628 -0.0419325233
  endloop
 endfacet

 facet normal 0.138314635 -0.990369439 -0.00612819754
  outer loop
  vertex 0.00932536554 -0.0194633193 -0.0399481356
  vertex 0.0085528316 -0.0195763353 -0.0391199552
  vertex 0.0086365547 -0.0195572879 -0.0403086022
  endloop
 endfacet

 facet normal 0.250911772 -0.939141214 -0.234642431
  outer loop
  vertex 0.00932536554 -0.0194633193 -0.0399481356
  vertex 0.0086365547 -0.0195572879 -0.0403086022
  vertex 0.00912747439 -0.0192982387 -0.0408204719
  endloop
 endfacet

 facet normal 0.904062212 -0.332872897 -0.268080801
  outer loop
  vertex 0.00932536554 -0.0194633193 -0.0399481356
  vertex 0.00912747439 -0.0192982387 -0.0408204719
  vertex 0.0093329763 -0.0184258521 -0.0412106812
  endloop
 endfacet

 facet normal 0.815828741 -0.385133862 -0.431387901
  outer loop
  vertex 0.0093329763 -0.0184258521 -0.0412106812
  vertex 0.00912747439 -0.0192982387 -0.0408204719
  vertex 0.00915030763 -0.0180042628 -0.0419325233
  endloop
 endfacet

 facet normal 0.0716609135 -0.501676381 0.862082005
  outer loop
  vertex 0.0085528316 -0.0188195053 -0.0384666026
  vertex 0.0085528316 -0.00895659439 -0.0327270217
  vertex 0.00724561373 -0.018907126 -0.0384089276
  endloop
 endfacet

 facet normal 0.0769678205 -0.651524007 0.754713476
  outer loop
  vertex 0.0085528316 -0.0188195053 -0.0384666026
  vertex 0.00724561373 -0.018907126 -0.0384089276
  vertex 0.0085528316 -0.0195763353 -0.0391199552
  endloop
 endfacet

 facet normal 0.054906033 -0.674743652 0.736007094
  outer loop
  vertex 0.0085528316 -0.0195763353 -0.0391199552
  vertex 0.00724561373 -0.018907126 -0.0384089276
  vertex 0.00724561373 -0.0196207799 -0.0390631817
  endloop
 endfacet

 facet normal 0.0368121602 -0.997069478 0.067062065
  outer loop
  vertex 0.0085528316 -0.0195763353 -0.0391199552
  vertex 0.00724561373 -0.0196207799 -0.0390631817
  vertex 0.00724561373 -0.0196969695 -0.0401959568
  endloop
 endfacet

 facet normal 0.0991977677 -0.995027483 -0.00895806961
  outer loop
  vertex 0.0085528316 -0.0195763353 -0.0391199552
  vertex 0.00724561373 -0.0196969695 -0.0401959568
  vertex 0.0086365547 -0.0195572879 -0.0403086022
  endloop
 endfacet

 facet normal 0.023446342 -0.498053253 0.866829395
  outer loop
  vertex 0.0085528316 -0.00895659439 -0.0327270217
  vertex 0.00809425954 -0.00897818152 -0.0327270217
  vertex 0.00724561373 -0.018907126 -0.0384089276
  endloop
 endfacet

 facet normal 0.248979911 0.793876052 -0.554770112
  outer loop
  vertex 0.0085528316 -0.0105921589 -0.0419325233
  vertex 0.00329732127 -0.00894389581 -0.0419325233
  vertex 0.0085528316 -0.00672674179 -0.0364011116
  endloop
 endfacet

 facet normal 0.166778505 0.850247264 -0.499264091
  outer loop
  vertex 0.0085528316 -0.00672674179 -0.0364011116
  vertex 0.00329732127 -0.00894389581 -0.0419325233
  vertex 0.00348379486 -0.00672674179 -0.0380944163
  endloop
 endfacet

 facet normal -0.860035121 0.414368272 -0.297722161
  outer loop
  vertex -0.00982623175 -0.00672674179 -0.0349637382
  vertex -0.00950085465 -0.00672674179 -0.0359036587
  vertex -0.00947992411 -0.0110150184 -0.0419325233
  endloop
 endfacet

 facet normal -0.376431316 0.75066638 -0.542954504
  outer loop
  vertex -0.00947992411 -0.0110150184 -0.0419325233
  vertex -0.00945138186 -0.00672674179 -0.0360235199
  vertex -0.00914312992 -0.0108461278 -0.0419325233
  endloop
 endfacet

 facet normal -0.816096783 0.469593167 -0.336850613
  outer loop
  vertex -0.00947992411 -0.0110150184 -0.0419325233
  vertex -0.00950085465 -0.00672674179 -0.0359036587
  vertex -0.00945138186 -0.00672674179 -0.0360235199
  endloop
 endfacet

 facet normal -0.966653883 -0.187728226 0.174179733
  outer loop
  vertex -0.00966639724 -0.0186709333 -0.0401959568
  vertex -0.00932579767 -0.0195217319 -0.0392226912
  vertex -0.00942664593 -0.0186353773 -0.0388270728
  endloop
 endfacet

 facet normal -0.964011371 -0.207709253 -0.1659486
  outer loop
  vertex -0.00966639724 -0.0186709333 -0.0401959568
  vertex -0.00964927301 -0.0173629895 -0.0419325233
  vertex -0.00956554897 -0.0177515633 -0.0419325233
  endloop
 endfacet

 facet normal -0.9407534 -0.274038881 -0.199714065
  outer loop
  vertex -0.00966639724 -0.0186709333 -0.0401959568
  vertex -0.00956554897 -0.0177515633 -0.0419325233
  vertex -0.00932770129 -0.0185680762 -0.0419325233
  endloop
 endfacet

 facet normal -0.893764257 -0.402394533 -0.198151931
  outer loop
  vertex -0.00966639724 -0.0186709333 -0.0401959568
  vertex -0.00932770129 -0.0185680762 -0.0419325233
  vertex -0.00929535367 -0.0194950644 -0.0401959568
  endloop
 endfacet

 facet normal -0.911124587 -0.41021058 -0.0397399813
  outer loop
  vertex -0.00966639724 -0.0186709333 -0.0401959568
  vertex -0.00929535367 -0.0194950644 -0.0401959568
  vertex -0.00932579767 -0.0195217319 -0.0392226912
  endloop
 endfacet

 facet normal -0.768476486 -0.331676662 0.547206044
  outer loop
  vertex -0.00942664593 -0.0186353773 -0.0388270728
  vertex -0.00932579767 -0.0195217319 -0.0392226912
  vertex -0.00944947917 -0.00851849653 -0.0327270217
  endloop
 endfacet

 facet normal -0.785354257 -0.320948035 0.529349625
  outer loop
  vertex -0.00942664593 -0.0186353773 -0.0388270728
  vertex -0.00944947917 -0.00851849653 -0.0327270217
  vertex -0.0095579382 -0.0082530994 -0.0327270217
  endloop
 endfacet

 facet normal 0.6735636 -0.488550782 -0.554644167
  outer loop
  vertex 0.00915030763 -0.0180042628 -0.0419325233
  vertex 0.00912747439 -0.0192982387 -0.0408204719
  vertex 0.00865938794 -0.0186810922 -0.0419325233
  endloop
 endfacet

 facet normal 0.0686094761 -0.943843603 -0.323190391
  outer loop
  vertex 0.0086365547 -0.0195572879 -0.0403086022
  vertex 0.00724561373 -0.0196969695 -0.0401959568
  vertex 0.00825599674 -0.0193769671 -0.0409159958
  endloop
 endfacet

 facet normal 0.122428358 -0.927892387 -0.352174759
  outer loop
  vertex 0.0086365547 -0.0195572879 -0.0403086022
  vertex 0.00825599674 -0.0193769671 -0.0409159958
  vertex 0.00912747439 -0.0192982387 -0.0408204719
  endloop
 endfacet

 facet normal 0.132923335 -0.847138882 -0.514477491
  outer loop
  vertex 0.00912747439 -0.0192982387 -0.0408204719
  vertex 0.00825599674 -0.0193769671 -0.0409159958
  vertex 0.00808474515 -0.01878649 -0.0419325233
  endloop
 endfacet

 facet normal 0.153202325 -0.835287094 -0.528038383
  outer loop
  vertex 0.00912747439 -0.0192982387 -0.0408204719
  vertex 0.00808474515 -0.01878649 -0.0419325233
  vertex 0.00865938794 -0.0186810922 -0.0419325233
  endloop
 endfacet

 facet normal 0.0208612941 -0.497915387 0.866974711
  outer loop
  vertex 0.00724561373 -0.018907126 -0.0384089276
  vertex 0.00809425954 -0.00897818152 -0.0327270217
  vertex 0.00724561373 -0.00901373755 -0.0327270217
  endloop
 endfacet

 facet normal 0 -0.498023808 0.86716336
  outer loop
  vertex 0.00724561373 -0.018907126 -0.0384089276
  vertex 0.00724561373 -0.00901373755 -0.0327270217
  vertex -0.00845051371 -0.00901373755 -0.0327270217
  endloop
 endfacet

 facet normal 0 -0.498023808 0.86716336
  outer loop
  vertex 0.00724561373 -0.018907126 -0.0384089276
  vertex -0.00845051371 -0.00901373755 -0.0327270217
  vertex -0.00845051371 -0.018907126 -0.0384089276
  endloop
 endfacet

 facet normal 0 -0.675763011 0.737118959
  outer loop
  vertex 0.00724561373 -0.018907126 -0.0384089276
  vertex -0.00845051371 -0.018907126 -0.0384089276
  vertex -0.00845051371 -0.0196207799 -0.0390631817
  endloop
 endfacet

 facet normal 0 -0.675763011 0.737118959
  outer loop
  vertex 0.00724561373 -0.018907126 -0.0384089276
  vertex -0.00845051371 -0.0196207799 -0.0390631817
  vertex 0.00724561373 -0.0196207799 -0.0390631817
  endloop
 endfacet

 facet normal 0.000968614768 -0.997745275 0.0671075284
  outer loop
  vertex 0.00724561373 -0.0196207799 -0.0390631817
  vertex 0.00593649363 -0.0196982399 -0.0401959568
  vertex 0.00724561373 -0.0196969695 -0.0401959568
  endloop
 endfacet

 facet normal 0 -0.997670174 0.0682218
  outer loop
  vertex 0.00724561373 -0.0196207799 -0.0390631817
  vertex -0.00845051371 -0.0196207799 -0.0390631817
  vertex -0.00714139361 -0.0196982399 -0.0401959568
  endloop
 endfacet

 facet normal 0 -0.997670174 0.0682218
  outer loop
  vertex 0.00724561373 -0.0196207799 -0.0390631817
  vertex -0.00714139361 -0.0196982399 -0.0401959568
  vertex 0.00593649363 -0.0196982399 -0.0401959568
  endloop
 endfacet

 facet normal 0.0354057029 -0.93074131 -0.363960087
  outer loop
  vertex 0.00724561373 -0.0196969695 -0.0401959568
  vertex 0.00724561373 -0.0194023643 -0.0409493409
  vertex 0.00825599674 -0.0193769671 -0.0409159958
  endloop
 endfacet

 facet normal 0.00090413366 -0.931324899 -0.364188313
  outer loop
  vertex 0.00724561373 -0.0196969695 -0.0401959568
  vertex 0.00593649363 -0.0196982399 -0.0401959568
  vertex 0.00724561373 -0.0194023643 -0.0409493409
  endloop
 endfacet

 facet normal 0.0119437184 0.862884402 -0.505260229
  outer loop
  vertex 0.00329732127 -0.00894389581 -0.0419325233
  vertex 0.00201293686 -0.00892611779 -0.0419325233
  vertex 0.00201293686 -0.00672674179 -0.0381764248
  endloop
 endfacet

 facet normal 0.013987734 0.863165557 -0.504727244
  outer loop
  vertex 0.00329732127 -0.00894389581 -0.0419325233
  vertex 0.00201293686 -0.00672674179 -0.0381764248
  vertex 0.00237066159 -0.00672674179 -0.0381665118
  endloop
 endfacet

 facet normal 0.0176997036 0.86351192 -0.50401783
  outer loop
  vertex 0.00329732127 -0.00894389581 -0.0419325233
  vertex 0.00237066159 -0.00672674179 -0.0381665118
  vertex 0.0033201545 -0.00672674179 -0.0381331667
  endloop
 endfacet

 facet normal 0.118636414 0.857283354 -0.500989676
  outer loop
  vertex 0.00329732127 -0.00894389581 -0.0419325233
  vertex 0.0033201545 -0.00672674179 -0.0381331667
  vertex 0.00348379486 -0.00672674179 -0.0380944163
  endloop
 endfacet

 facet normal -0.246367961 0.796178818 -0.552631974
  outer loop
  vertex -0.00945138186 -0.00672674179 -0.0360235199
  vertex -0.0085760979 -0.00672674179 -0.0364137292
  vertex -0.00845051371 -0.0105185071 -0.0419325233
  endloop
 endfacet

 facet normal -0.358105868 0.757062912 -0.546457767
  outer loop
  vertex -0.00945138186 -0.00672674179 -0.0360235199
  vertex -0.00845051371 -0.0105185071 -0.0419325233
  vertex -0.00914312992 -0.0108461278 -0.0419325233
  endloop
 endfacet

 facet normal -0.121681675 -0.991194427 0.0522221737
  outer loop
  vertex -0.00932579767 -0.0195217319 -0.0392226912
  vertex -0.00845051371 -0.0196804609 -0.0401959568
  vertex -0.00845051371 -0.0196207799 -0.0390631817
  endloop
 endfacet

 facet normal -0.206267759 -0.66123116 0.721267641
  outer loop
  vertex -0.00932579767 -0.0195217319 -0.0392226912
  vertex -0.00845051371 -0.0196207799 -0.0390631817
  vertex -0.00845051371 -0.018907126 -0.0384089276
  endloop
 endfacet

 facet normal -0.328976989 -0.548910022 0.768421769
  outer loop
  vertex -0.00932579767 -0.0195217319 -0.0392226912
  vertex -0.00845051371 -0.018907126 -0.0384089276
  vertex -0.00916786585 -0.018174421 -0.0381926484
  endloop
 endfacet

 facet normal -0.757351875 -0.33825931 0.558568597
  outer loop
  vertex -0.00932579767 -0.0195217319 -0.0392226912
  vertex -0.00916786585 -0.018174421 -0.0381926484
  vertex -0.00944947917 -0.00851849653 -0.0327270217
  endloop
 endfacet

 facet normal -0.214226246 -0.97621119 -0.0334491655
  outer loop
  vertex -0.00932579767 -0.0195217319 -0.0392226912
  vertex -0.00929535367 -0.0194950644 -0.0401959568
  vertex -0.00845051371 -0.0196804609 -0.0401959568
  endloop
 endfacet

 facet normal -0.223518893 -0.797927499 -0.559777737
  outer loop
  vertex -0.00932770129 -0.0185680762 -0.0419325233
  vertex -0.00871119648 -0.0187407732 -0.0419325233
  vertex -0.00913742092 -0.0193541106 -0.0408880599
  endloop
 endfacet

 facet normal -0.766140819 -0.572773039 -0.291478127
  outer loop
  vertex -0.00932770129 -0.0185680762 -0.0419325233
  vertex -0.00913742092 -0.0193541106 -0.0408880599
  vertex -0.00929535367 -0.0194950644 -0.0401959568
  endloop
 endfacet

 facet normal -0.208051756 -0.94807452 -0.240559846
  outer loop
  vertex -0.00929535367 -0.0194950644 -0.0401959568
  vertex -0.00913742092 -0.0193541106 -0.0408880599
  vertex -0.00845051371 -0.0196804609 -0.0401959568
  endloop
 endfacet

 facet normal -0.674932361 -0.378288448 0.63353312
  outer loop
  vertex -0.00944947917 -0.00851849653 -0.0327270217
  vertex -0.00916786585 -0.018174421 -0.0381926484
  vertex -0.00926300604 -0.00885119755 -0.0327270217
  endloop
 endfacet

 facet normal 0.0377515256 -0.879799008 -0.473844588
  outer loop
  vertex 0.00825599674 -0.0193769671 -0.0409159958
  vertex 0.00724561373 -0.0194023643 -0.0409493409
  vertex 0.00724561373 -0.0188728385 -0.0419325233
  endloop
 endfacet

 facet normal 0.0879656449 -0.854841828 -0.51137799
  outer loop
  vertex 0.00825599674 -0.0193769671 -0.0409159958
  vertex 0.00724561373 -0.0188728385 -0.0419325233
  vertex 0.00808474515 -0.01878649 -0.0419325233
  endloop
 endfacet

 facet normal -0.0574292801 -0.49720186 0.865732193
  outer loop
  vertex -0.00845051371 -0.018907126 -0.0384089276
  vertex -0.00845051371 -0.00901373755 -0.0327270217
  vertex -0.00874734949 -0.00897945184 -0.0327270217
  endloop
 endfacet

 facet normal -0.0599088296 -0.49718523 0.865573645
  outer loop
  vertex -0.00845051371 -0.018907126 -0.0384089276
  vertex -0.00874734949 -0.00897945184 -0.0327270217
  vertex -0.00915835239 -0.00892992783 -0.0327270217
  endloop
 endfacet

 facet normal -0.251682758 -0.492359608 0.833209395
  outer loop
  vertex -0.00845051371 -0.018907126 -0.0384089276
  vertex -0.00915835239 -0.00892992783 -0.0327270217
  vertex -0.00916786585 -0.018174421 -0.0381926484
  endloop
 endfacet

 facet normal 0.000251201971 -0.930940211 -0.36517182
  outer loop
  vertex 0.00593649363 -0.0196982399 -0.0401959568
  vertex 0.00593649363 -0.0194023643 -0.0409502387
  vertex 0.00724561373 -0.0194023643 -0.0409493409
  endloop
 endfacet

 facet normal 0 -0.930940151 -0.36517179
  outer loop
  vertex 0.00593649363 -0.0196982399 -0.0401959568
  vertex -0.00714139361 -0.0196982399 -0.0401959568
  vertex -0.00714139361 -0.0194023643 -0.0409502387
  endloop
 endfacet

 facet normal 0 -0.930940151 -0.36517179
  outer loop
  vertex 0.00593649363 -0.0196982399 -0.0401959568
  vertex -0.00714139361 -0.0194023643 -0.0409502387
  vertex 0.00593649363 -0.0194023643 -0.0409502387
  endloop
 endfacet

 facet normal -0.0135607719 -0.998523176 0.0526082925
  outer loop
  vertex -0.00845051371 -0.0196207799 -0.0390631817
  vertex -0.00845051371 -0.0196804609 -0.0401959568
  vertex -0.00714139361 -0.0196982399 -0.0401959568
  endloop
 endfacet

 facet normal 0.000325814763 -0.880720496 -0.47363627
  outer loop
  vertex 0.00724561373 -0.0194023643 -0.0409493409
  vertex 0.00593649363 -0.0194023643 -0.0409502387
  vertex 0.00593649363 -0.0188741088 -0.0419325233
  endloop
 endfacet

 facet normal 0.000854721002 -0.880426288 -0.474182427
  outer loop
  vertex 0.00724561373 -0.0194023643 -0.0409493409
  vertex 0.00593649363 -0.0188741088 -0.0419325233
  vertex 0.00724561373 -0.0188728385 -0.0419325233
  endloop
 endfacet

 facet normal -0.0157284196 0.862839222 -0.505233824
  outer loop
  vertex 0.00201293686 -0.00892611779 -0.0419325233
  vertex 0.000758997281 -0.00894897524 -0.0419325233
  vertex 0.00201293686 -0.00672674179 -0.0381764248
  endloop
 endfacet

 facet normal -0.0256434195 0.864098668 -0.502668858
  outer loop
  vertex 0.00201293686 -0.00672674179 -0.0381764248
  vertex 0.000758997281 -0.00894897524 -0.0419325233
  vertex 0.000705719169 -0.00672674179 -0.0381097384
  endloop
 endfacet

 facet normal -0.149280354 0.813385665 -0.562244833
  outer loop
  vertex -0.0085760979 -0.00672674179 -0.0364137292
  vertex -0.00845051371 -0.00672674179 -0.0364470705
  vertex -0.00845051371 -0.0105185071 -0.0419325233
  endloop
 endfacet

 facet normal -0.138834491 0.814636528 -0.563109457
  outer loop
  vertex -0.00845051371 -0.0105185071 -0.0419325233
  vertex -0.00845051371 -0.00672674179 -0.0364470705
  vertex 0.000758997281 -0.00894897524 -0.0419325233
  endloop
 endfacet

 facet normal -0.0178605169 -0.927653193 -0.373015493
  outer loop
  vertex -0.00845051371 -0.0196804609 -0.0401959568
  vertex -0.00845051371 -0.0193858556 -0.0409286097
  vertex -0.00714139361 -0.0194023643 -0.0409502387
  endloop
 endfacet

 facet normal -0.0126419282 -0.930865765 -0.365142643
  outer loop
  vertex -0.00845051371 -0.0196804609 -0.0401959568
  vertex -0.00714139361 -0.0194023643 -0.0409502387
  vertex -0.00714139361 -0.0196982399 -0.0401959568
  endloop
 endfacet

 facet normal -0.0647663623 -0.925853252 -0.372291684
  outer loop
  vertex -0.00845051371 -0.0196804609 -0.0401959568
  vertex -0.00913742092 -0.0193541106 -0.0408880599
  vertex -0.00845051371 -0.0193858556 -0.0409286097
  endloop
 endfacet

 facet normal -0.357377142 -0.475051761 0.804119051
  outer loop
  vertex -0.00916786585 -0.018174421 -0.0381926484
  vertex -0.00915835239 -0.00892992783 -0.0327270217
  vertex -0.00926300604 -0.00885119755 -0.0327270217
  endloop
 endfacet

 facet normal -0.207621306 -0.804171741 -0.556957126
  outer loop
  vertex -0.00871119648 -0.0187407732 -0.0419325233
  vertex -0.00845051371 -0.0188080762 -0.0419325233
  vertex -0.00913742092 -0.0193541106 -0.0408880599
  endloop
 endfacet

 facet normal -0.0693350881 -0.864622831 -0.497614324
  outer loop
  vertex -0.00913742092 -0.0193541106 -0.0408880599
  vertex -0.00845051371 -0.0188080762 -0.0419325233
  vertex -0.00845051371 -0.0193858556 -0.0409286097
  endloop
 endfacet

 facet normal 0 -0.880720556 -0.473636329
  outer loop
  vertex 0.00593649363 -0.0194023643 -0.0409502387
  vertex -0.00714139361 -0.0194023643 -0.0409502387
  vertex -0.00714139361 -0.0188741088 -0.0419325233
  endloop
 endfacet

 facet normal 0 -0.880720556 -0.473636329
  outer loop
  vertex 0.00593649363 -0.0194023643 -0.0409502387
  vertex -0.00714139361 -0.0188741088 -0.0419325233
  vertex 0.00593649363 -0.0188741088 -0.0419325233
  endloop
 endfacet

 facet normal -0.0910535008 0.860395133 -0.501427591
  outer loop
  vertex 0.000758997281 -0.00894897524 -0.0419325233
  vertex -0.00845051371 -0.00672674179 -0.0364470705
  vertex 0.000705719169 -0.00672674179 -0.0381097384
  endloop
 endfacet

 facet normal -0.0436751544 -0.865881622 -0.498338789
  outer loop
  vertex -0.00845051371 -0.0193858556 -0.0409286097
  vertex -0.00845051371 -0.0188080762 -0.0419325233
  vertex -0.00714139361 -0.0188741088 -0.0419325233
  endloop
 endfacet

 facet normal -0.018927712 -0.880562782 -0.473551452
  outer loop
  vertex -0.00845051371 -0.0193858556 -0.0409286097
  vertex -0.00714139361 -0.0188741088 -0.0419325233
  vertex -0.00714139361 -0.0194023643 -0.0409502387
  endloop
 endfacet

endsolid AssimpScene
