solid AssimpScene
 facet normal -0.0614815019 -0.319240183 -0.9456774
  outer loop
  vertex 0.0143931545 0.0102542778 -0.0245472714
  vertex 0.00543472916 0.0102542778 -0.0239648558
  vertex 0.0143931545 0.0108161271 -0.024736939
  endloop
 endfacet

 facet normal 1 0 0
  outer loop
  vertex 0.0143931545 0.0102542778 -0.0245472714
  vertex 0.0143931545 0.0108161271 -0.024736939
  vertex 0.0143931545 0.0110677658 -0.0248039942
  endloop
 endfacet

 facet normal 1 0 0
  outer loop
  vertex 0.0143931545 0.0102542778 -0.0245472714
  vertex 0.0143931545 0.0110677658 -0.0248039942
  vertex 0.0143931545 0.0114463093 -0.0248614717
  endloop
 endfacet

 facet normal 1 0 0
  outer loop
  vertex 0.0143931545 0.0102542778 -0.0245472714
  vertex 0.0143931545 0.0114463093 -0.0248614717
  vertex 0.0143931545 0.0127652446 -0.0249649249
  endloop
 endfacet

 facet normal 1 0 0
  outer loop
  vertex 0.0143931545 0.0102542778 -0.0245472714
  vertex 0.0143931545 0.0127652446 -0.0249649249
  vertex 0.0143931545 0.0133129936 -0.0249170288
  endloop
 endfacet

 facet normal 1 0 0
  outer loop
  vertex 0.0143931545 0.0102542778 -0.0245472714
  vertex 0.0143931545 0.0133129936 -0.0249170288
  vertex 0.0143931545 0.013959446 -0.0248423126
  endloop
 endfacet

 facet normal 1 0 0
  outer loop
  vertex 0.0143931545 0.0102542778 -0.0245472714
  vertex 0.0143931545 0.013959446 -0.0248423126
  vertex 0.0143931545 0.0213350728 -0.0239418633
  endloop
 endfacet

 facet normal 1 0 0
  outer loop
  vertex 0.0143931545 0.0102542778 -0.0245472714
  vertex 0.0143931545 0.0213350728 -0.0239418633
  vertex 0.0143931545 0.0213350728 -0.00604404928
  endloop
 endfacet

 facet normal 1 0 0
  outer loop
  vertex 0.0143931545 0.0102542778 -0.0245472714
  vertex 0.0143931545 0.0213350728 -0.00604404928
  vertex 0.0143931545 0.0102542778 -0.0139124217
  endloop
 endfacet

 facet normal 0 -1 0
  outer loop
  vertex 0.0143931545 0.0102542778 -0.0245472714
  vertex 0.0143931545 0.0102542778 -0.0139124217
  vertex 0.00543472916 0.0102542778 -0.0136997625
  endloop
 endfacet

 facet normal 0 -1 0
  outer loop
  vertex 0.0143931545 0.0102542778 -0.0245472714
  vertex 0.00543472916 0.0102542778 -0.0136997625
  vertex 0.00543472916 0.0102542778 -0.0239648558
  endloop
 endfacet

 facet normal -0.0720843226 -0.211607158 -0.974692941
  outer loop
  vertex 0.00543472916 0.0102542778 -0.0239648558
  vertex 0.00543472916 0.013890028 -0.0247541815
  vertex 0.0143931545 0.0110677658 -0.0248039942
  endloop
 endfacet

 facet normal -0.066979751 -0.25690639 -0.964112461
  outer loop
  vertex 0.00543472916 0.0102542778 -0.0239648558
  vertex 0.0143931545 0.0110677658 -0.0248039942
  vertex 0.0143931545 0.0108161271 -0.024736939
  endloop
 endfacet

 facet normal -1 0 0
  outer loop
  vertex 0.00543472916 0.0102542778 -0.0239648558
  vertex 0.00543472916 0.0102542778 -0.0136997625
  vertex 0.00543472916 0.0194716416 -0.00539266225
  endloop
 endfacet

 facet normal -1 0 0
  outer loop
  vertex 0.00543472916 0.0102542778 -0.0239648558
  vertex 0.00543472916 0.0194716416 -0.00539266225
  vertex 0.00543472916 0.0213350728 -0.00539266225
  endloop
 endfacet

 facet normal -1 0 0
  outer loop
  vertex 0.00543472916 0.0102542778 -0.0239648558
  vertex 0.00543472916 0.0213350728 -0.00539266225
  vertex 0.00543472916 0.0213350728 -0.0238096714
  endloop
 endfacet

 facet normal -1 0 0
  outer loop
  vertex 0.00543472916 0.0102542778 -0.0239648558
  vertex 0.00543472916 0.0213350728 -0.0238096714
  vertex 0.00543472916 0.0166472103 -0.0248097442
  endloop
 endfacet

 facet normal -1 0 0
  outer loop
  vertex 0.00543472916 0.0102542778 -0.0239648558
  vertex 0.00543472916 0.0166472103 -0.0248097442
  vertex 0.00543472916 0.0158662628 -0.0249381028
  endloop
 endfacet

 facet normal -1 0 0
  outer loop
  vertex 0.00543472916 0.0102542778 -0.0239648558
  vertex 0.00543472916 0.0158662628 -0.0249381028
  vertex 0.00543472916 0.0145527497 -0.0248767976
  endloop
 endfacet

 facet normal -1 0 0
  outer loop
  vertex 0.00543472916 0.0102542778 -0.0239648558
  vertex 0.00543472916 0.0145527497 -0.0248767976
  vertex 0.00543472916 0.013890028 -0.0247541815
  endloop
 endfacet

 facet normal 0.177066848 -0.569822788 0.802464604
  outer loop
  vertex 0.0143931545 0.0102542778 -0.0139124217
  vertex 0.0143931545 0.0213350728 -0.00604404928
  vertex 0.00722799357 0.0200258978 -0.00539266225
  endloop
 endfacet

 facet normal 0.176261291 -0.570283055 0.802314937
  outer loop
  vertex 0.0143931545 0.0102542778 -0.0139124217
  vertex 0.00722799357 0.0200258978 -0.00539266225
  vertex 0.00543472916 0.0194716416 -0.00539266225
  endloop
 endfacet

 facet normal 0.0176309459 -0.669371367 0.742718816
  outer loop
  vertex 0.0143931545 0.0102542778 -0.0139124217
  vertex 0.00543472916 0.0194716416 -0.00539266225
  vertex 0.00543472916 0.0102542778 -0.0136997625
  endloop
 endfacet

 facet normal -0.0626596436 -0.181573361 -0.981379032
  outer loop
  vertex 0.00543472916 0.013890028 -0.0247541815
  vertex 0.00543472916 0.0145527497 -0.0248767976
  vertex 0.0143931545 0.0110677658 -0.0248039942
  endloop
 endfacet

 facet normal -0.0502996147 -0.149927065 -0.987416744
  outer loop
  vertex 0.0143931545 0.0110677658 -0.0248039942
  vertex 0.00543472916 0.0145527497 -0.0248767976
  vertex 0.0143931545 0.0114463093 -0.0248614717
  endloop
 endfacet

 facet normal 0.106958836 -0.0880862847 0.990353882
  outer loop
  vertex 0.0143931545 0.0213350728 -0.00604404928
  vertex 0.00836182572 0.0213350728 -0.00539266225
  vertex 0.0074524791 0.0202308968 -0.00539266225
  endloop
 endfacet

 facet normal 0.112069011 -0.122721635 0.986093223
  outer loop
  vertex 0.0143931545 0.0213350728 -0.00604404928
  vertex 0.0074524791 0.0202308968 -0.00539266225
  vertex 0.00722799357 0.0200258978 -0.00539266225
  endloop
 endfacet

 facet normal 0 1 0
  outer loop
  vertex 0.0143931545 0.0213350728 -0.00604404928
  vertex 0.0143931545 0.0213350728 -0.0239418633
  vertex 0.00746475626 0.0213350728 -0.0239648558
  endloop
 endfacet

 facet normal 0 1 0
  outer loop
  vertex 0.0143931545 0.0213350728 -0.00604404928
  vertex 0.00746475626 0.0213350728 -0.0239648558
  vertex 0.00709821004 0.0213350728 -0.0239648558
  endloop
 endfacet

 facet normal 0 1 0
  outer loop
  vertex 0.0143931545 0.0213350728 -0.00604404928
  vertex 0.00709821004 0.0213350728 -0.0239648558
  vertex 0.00618886389 0.0213350728 -0.0239610225
  endloop
 endfacet

 facet normal 0 1 0
  outer loop
  vertex 0.0143931545 0.0213350728 -0.00604404928
  vertex 0.00618886389 0.0213350728 -0.0239610225
  vertex 0.00577408914 0.0213350728 -0.0238958839
  endloop
 endfacet

 facet normal 0 1 0
  outer loop
  vertex 0.0143931545 0.0213350728 -0.00604404928
  vertex 0.00577408914 0.0213350728 -0.0238958839
  vertex 0.00543472916 0.0213350728 -0.0238096714
  endloop
 endfacet

 facet normal 0 1 0
  outer loop
  vertex 0.0143931545 0.0213350728 -0.00604404928
  vertex 0.00543472916 0.0213350728 -0.0238096714
  vertex 0.00543472916 0.0213350728 -0.00539266225
  endloop
 endfacet

 facet normal 0 1 0
  outer loop
  vertex 0.0143931545 0.0213350728 -0.00604404928
  vertex 0.00543472916 0.0213350728 -0.00539266225
  vertex 0.00836182572 0.0213350728 -0.00539266225
  endloop
 endfacet

 facet normal 0 0 1
  outer loop
  vertex 0.00722799357 0.0200258978 -0.00539266225
  vertex 0.0074524791 0.0202308968 -0.00539266225
  vertex 0.00836182572 0.0213350728 -0.00539266225
  endloop
 endfacet

 facet normal 0 0 1
  outer loop
  vertex 0.00722799357 0.0200258978 -0.00539266225
  vertex 0.00836182572 0.0213350728 -0.00539266225
  vertex 0.00543472916 0.0213350728 -0.00539266225
  endloop
 endfacet

 facet normal 0 0 1
  outer loop
  vertex 0.00722799357 0.0200258978 -0.00539266225
  vertex 0.00543472916 0.0213350728 -0.00539266225
  vertex 0.00543472916 0.0194716416 -0.00539266225
  endloop
 endfacet

 facet normal -0.0253678672 -0.0466061607 -0.998591185
  outer loop
  vertex 0.00543472916 0.0145527497 -0.0248767976
  vertex 0.00543472916 0.0158662628 -0.0249381028
  vertex 0.00618886389 0.0158662628 -0.0249572601
  endloop
 endfacet

 facet normal -0.0197643004 -0.0498216152 -0.998562574
  outer loop
  vertex 0.00543472916 0.0145527497 -0.0248767976
  vertex 0.00618886389 0.0158662628 -0.0249572601
  vertex 0.0143931545 0.0127652446 -0.0249649249
  endloop
 endfacet

 facet normal -0.0254020598 -0.0781722963 -0.996616244
  outer loop
  vertex 0.00543472916 0.0145527497 -0.0248767976
  vertex 0.0143931545 0.0127652446 -0.0249649249
  vertex 0.0143931545 0.0114463093 -0.0248614717
  endloop
 endfacet

 facet normal 0.0878427327 0.120716296 -0.988792837
  outer loop
  vertex 0.0143931545 0.0213350728 -0.0239418633
  vertex 0.0143931545 0.013959446 -0.0248423126
  vertex 0.0137503864 0.0145527497 -0.024826983
  endloop
 endfacet

 facet normal 0.083954446 0.121122383 -0.989080906
  outer loop
  vertex 0.0143931545 0.0213350728 -0.0239418633
  vertex 0.0137503864 0.0145527497 -0.024826983
  vertex 0.0125639383 0.0145928813 -0.0249227751
  endloop
 endfacet

 facet normal 0.048601009 0.130877852 -0.99020648
  outer loop
  vertex 0.0143931545 0.0213350728 -0.0239418633
  vertex 0.0125639383 0.0145928813 -0.0249227751
  vertex 0.00874152407 0.0158673469 -0.0249419361
  endloop
 endfacet

 facet normal 0.0188072007 0.161044806 -0.986767948
  outer loop
  vertex 0.0143931545 0.0213350728 -0.0239418633
  vertex 0.00874152407 0.0158673469 -0.0249419361
  vertex 0.0083855018 0.0166602265 -0.0248193201
  endloop
 endfacet

 facet normal 0.0176247768 0.162522942 -0.986547351
  outer loop
  vertex 0.0143931545 0.0213350728 -0.0239418633
  vertex 0.0083855018 0.0166602265 -0.0248193201
  vertex 0.00746475626 0.0166786648 -0.024832733
  endloop
 endfacet

 facet normal 0.00326237036 0.183226973 -0.983065248
  outer loop
  vertex 0.0143931545 0.0213350728 -0.0239418633
  vertex 0.00746475626 0.0166786648 -0.024832733
  vertex 0.00746475626 0.0213350728 -0.0239648558
  endloop
 endfacet

 facet normal -0.030884264 0.162108466 -0.986289501
  outer loop
  vertex 0.00543472916 0.0158662628 -0.0249381028
  vertex 0.00543472916 0.0166472103 -0.0248097442
  vertex 0.00618886389 0.0166743267 -0.0248289015
  endloop
 endfacet

 facet normal -0.0250812098 0.156830221 -0.987307072
  outer loop
  vertex 0.00543472916 0.0158662628 -0.0249381028
  vertex 0.00618886389 0.0166743267 -0.0248289015
  vertex 0.00618886389 0.0158662628 -0.0249572601
  endloop
 endfacet

 facet normal -0.00300536398 -0.00547937583 -0.99998045
  outer loop
  vertex 0.00618886389 0.0158662628 -0.0249572601
  vertex 0.00746475626 0.0158662628 -0.0249610953
  vertex 0.0143931545 0.0127652446 -0.0249649249
  endloop
 endfacet

 facet normal -0.00349870836 0.15687862 -0.987611711
  outer loop
  vertex 0.00618886389 0.0158662628 -0.0249572601
  vertex 0.00618886389 0.0166743267 -0.0248289015
  vertex 0.00746475626 0.0166786648 -0.024832733
  endloop
 endfacet

 facet normal -0.00296858279 0.156066045 -0.987742186
  outer loop
  vertex 0.00618886389 0.0158662628 -0.0249572601
  vertex 0.00746475626 0.0166786648 -0.024832733
  vertex 0.00746475626 0.0158662628 -0.0249610953
  endloop
 endfacet

 facet normal -0.00230582501 -0.00391643029 -0.999989688
  outer loop
  vertex 0.0143931545 0.0127652446 -0.0249649249
  vertex 0.00746475626 0.0158662628 -0.0249610953
  vertex 0.0112889232 0.0145928813 -0.0249649249
  endloop
 endfacet

 facet normal 0.00993897207 0.0168812852 -0.999808073
  outer loop
  vertex 0.0143931545 0.0127652446 -0.0249649249
  vertex 0.0112889232 0.0145928813 -0.0249649249
  vertex 0.0138389524 0.0133184167 -0.0249610953
  endloop
 endfacet

 facet normal 0.0798065513 0.0868319198 -0.99302119
  outer loop
  vertex 0.0143931545 0.0127652446 -0.0249649249
  vertex 0.0138389524 0.0133184167 -0.0249610953
  vertex 0.0143931545 0.0133129936 -0.0249170288
  endloop
 endfacet

 facet normal 0 0.183227941 -0.983070493
  outer loop
  vertex 0.00746475626 0.0213350728 -0.0239648558
  vertex 0.00746475626 0.0166786648 -0.024832733
  vertex 0.00709821004 0.0213350728 -0.0239648558
  endloop
 endfacet

 facet normal 0.0831657797 0.114416085 -0.98994565
  outer loop
  vertex 0.0143931545 0.013959446 -0.0248423126
  vertex 0.0143931545 0.0133129936 -0.0249170288
  vertex 0.0125639383 0.0145928813 -0.0249227751
  endloop
 endfacet

 facet normal 0.0838413462 0.116403624 -0.989656925
  outer loop
  vertex 0.0143931545 0.013959446 -0.0248423126
  vertex 0.0125639383 0.0145928813 -0.0249227751
  vertex 0.0137503864 0.0145527497 -0.024826983
  endloop
 endfacet

 facet normal 0.0798498914 0.109673373 -0.9907552
  outer loop
  vertex 0.0125639383 0.0145928813 -0.0249227751
  vertex 0.0143931545 0.0133129936 -0.0249170288
  vertex 0.0138389524 0.0133184167 -0.0249610953
  endloop
 endfacet

 facet normal 0.0329749249 0.0629800856 -0.997469902
  outer loop
  vertex 0.0125639383 0.0145928813 -0.0249227751
  vertex 0.0138389524 0.0133184167 -0.0249610953
  vertex 0.0112889232 0.0145928813 -0.0249649249
  endloop
 endfacet

 facet normal 0.0329243727 0.0837737992 -0.995940685
  outer loop
  vertex 0.0125639383 0.0145928813 -0.0249227751
  vertex 0.0112889232 0.0145928813 -0.0249649249
  vertex 0.00874152407 0.0158673469 -0.0249419361
  endloop
 endfacet

 facet normal 0.0161174946 0.0502283387 -0.998607755
  outer loop
  vertex 0.00874152407 0.0158673469 -0.0249419361
  vertex 0.0112889232 0.0145928813 -0.0249649249
  vertex 0.0083855018 0.0158673469 -0.0249476824
  endloop
 endfacet

 facet normal 0.0159352347 0.157970741 -0.987315297
  outer loop
  vertex 0.00874152407 0.0158673469 -0.0249419361
  vertex 0.0083855018 0.0158673469 -0.0249476824
  vertex 0.00746475626 0.0166786648 -0.024832733
  endloop
 endfacet

 facet normal 0.0175893568 0.160514787 -0.986876667
  outer loop
  vertex 0.00874152407 0.0158673469 -0.0249419361
  vertex 0.00746475626 0.0166786648 -0.024832733
  vertex 0.0083855018 0.0166602265 -0.0248193201
  endloop
 endfacet

 facet normal -0.0035738782 0.182954878 -0.983114839
  outer loop
  vertex 0.00746475626 0.0166786648 -0.024832733
  vertex 0.00618886389 0.0166743267 -0.0248289015
  vertex 0.00709821004 0.0213350728 -0.0239648558
  endloop
 endfacet

 facet normal 0.0142022353 0.15605101 -0.987646937
  outer loop
  vertex 0.00746475626 0.0166786648 -0.024832733
  vertex 0.0083855018 0.0158673469 -0.0249476824
  vertex 0.00746475626 0.0158662628 -0.0249610953
  endloop
 endfacet

 facet normal -0.241126448 0.202481568 -0.949136138
  outer loop
  vertex 0.00543472916 0.0213350728 -0.0238096714
  vertex 0.00577408914 0.0213350728 -0.0238958839
  vertex 0.00543472916 0.0166472103 -0.0248097442
  endloop
 endfacet

 facet normal -0.152019173 0.199706703 -0.967991471
  outer loop
  vertex 0.00543472916 0.0166472103 -0.0248097442
  vertex 0.00577408914 0.0213350728 -0.0238958839
  vertex 0.00618886389 0.0213350728 -0.0239610225
  endloop
 endfacet

 facet normal -0.031541042 0.182972401 -0.982612014
  outer loop
  vertex 0.00543472916 0.0166472103 -0.0248097442
  vertex 0.00618886389 0.0213350728 -0.0239610225
  vertex 0.00618886389 0.0166743267 -0.0248289015
  endloop
 endfacet

 facet normal -0.00414352026 0.183061928 -0.983092666
  outer loop
  vertex 0.00618886389 0.0166743267 -0.0248289015
  vertex 0.00618886389 0.0213350728 -0.0239610225
  vertex 0.00709821004 0.0213350728 -0.0239648558
  endloop
 endfacet

 facet normal 0.014493878 0.0465322584 -0.998811662
  outer loop
  vertex 0.00746475626 0.0158662628 -0.0249610953
  vertex 0.0083855018 0.0158673469 -0.0249476824
  vertex 0.0112889232 0.0145928813 -0.0249649249
  endloop
 endfacet

endsolid AssimpScene
