solid AssimpScene
 facet normal 0 -1 0
  outer loop
  vertex 0.00747374306 0.0068010008 0.0334807746
  vertex 0.00747374306 0.0068010008 0.0370699018
  vertex 0.000149146188 0.0068010008 0.0370699018
  endloop
 endfacet

 facet normal 0 -1 0
  outer loop
  vertex 0.00747374306 0.0068010008 0.0334807746
  vertex 0.000149146188 0.0068010008 0.0370699018
  vertex 0.000149146188 0.0068010008 0.0335426219
  endloop
 endfacet

 facet normal -0.00572943641 -0.734560132 -0.678519368
  outer loop
  vertex 0.00747374306 0.0068010008 0.0334807746
  vertex 0.000149146188 0.0068010008 0.0335426219
  vertex 0.000149146188 0.0205383208 0.0186706986
  endloop
 endfacet

 facet normal 0 -0.733161092 -0.680055082
  outer loop
  vertex 0.00747374306 0.0068010008 0.0334807746
  vertex 0.000149146188 0.0205383208 0.0186706986
  vertex 0.00747374306 0.0205383208 0.0186706986
  endloop
 endfacet

 facet normal 1 0 0
  outer loop
  vertex 0.00747374306 0.0068010008 0.0334807746
  vertex 0.00747374306 0.0205383208 0.0186706986
  vertex 0.00747374306 0.0242811292 0.0186706986
  endloop
 endfacet

 facet normal 1 0 0
  outer loop
  vertex 0.00747374306 0.0068010008 0.0334807746
  vertex 0.00747374306 0.0242811292 0.0186706986
  vertex 0.00747374306 0.0239867717 0.0196471661
  endloop
 endfacet

 facet normal 1 0 0
  outer loop
  vertex 0.00747374306 0.0068010008 0.0334807746
  vertex 0.00747374306 0.0239867717 0.0196471661
  vertex 0.00747374306 0.0236616079 0.0203012694
  endloop
 endfacet

 facet normal 1 0 0
  outer loop
  vertex 0.00747374306 0.0068010008 0.0334807746
  vertex 0.00747374306 0.0236616079 0.0203012694
  vertex 0.00747374306 0.0231430549 0.0211146809
  endloop
 endfacet

 facet normal 1 0 0
  outer loop
  vertex 0.00747374306 0.0068010008 0.0334807746
  vertex 0.00747374306 0.0231430549 0.0211146809
  vertex 0.00747374306 0.0230335277 0.021285234
  endloop
 endfacet

 facet normal 1 0 0
  outer loop
  vertex 0.00747374306 0.0068010008 0.0334807746
  vertex 0.00747374306 0.0230335277 0.021285234
  vertex 0.00747374306 0.0225577615 0.0219768211
  endloop
 endfacet

 facet normal 1 0 0
  outer loop
  vertex 0.00747374306 0.0068010008 0.0334807746
  vertex 0.00747374306 0.0225577615 0.0219768211
  vertex 0.00747374306 0.0221863892 0.0225165952
  endloop
 endfacet

 facet normal 1 0 0
  outer loop
  vertex 0.00747374306 0.0068010008 0.0334807746
  vertex 0.00747374306 0.0221863892 0.0225165952
  vertex 0.00747374306 0.0214539133 0.0235811509
  endloop
 endfacet

 facet normal 1 0 0
  outer loop
  vertex 0.00747374306 0.0068010008 0.0334807746
  vertex 0.00747374306 0.0214539133 0.0235811509
  vertex 0.00747374306 0.0210038181 0.0242352542
  endloop
 endfacet

 facet normal 1 0 0
  outer loop
  vertex 0.00747374306 0.0068010008 0.0334807746
  vertex 0.00747374306 0.0210038181 0.0242352542
  vertex 0.00747374306 0.0131074693 0.0357073471
  endloop
 endfacet

 facet normal 1 0 0
  outer loop
  vertex 0.00747374306 0.0068010008 0.0334807746
  vertex 0.00747374306 0.0131074693 0.0357073471
  vertex 0.00747374306 0.0123749953 0.0367700271
  endloop
 endfacet

 facet normal 1 0 0
  outer loop
  vertex 0.00747374306 0.0068010008 0.0334807746
  vertex 0.00747374306 0.0123749953 0.0367700271
  vertex 0.00747374306 0.011892383 0.0373098031
  endloop
 endfacet

 facet normal 1 0 0
  outer loop
  vertex 0.00747374306 0.0068010008 0.0334807746
  vertex 0.00747374306 0.011892383 0.0373098031
  vertex 0.00747374306 0.0117897 0.0374241285
  endloop
 endfacet

 facet normal 1 0 0
  outer loop
  vertex 0.00747374306 0.0068010008 0.0334807746
  vertex 0.00747374306 0.0117897 0.0374241285
  vertex 0.00747374306 0.0112506123 0.0377352498
  endloop
 endfacet

 facet normal 1 0 0
  outer loop
  vertex 0.00747374306 0.0068010008 0.0334807746
  vertex 0.00747374306 0.0112506123 0.0377352498
  vertex 0.00747374306 0.0111359488 0.0378008485
  endloop
 endfacet

 facet normal 1 0 0
  outer loop
  vertex 0.00747374306 0.0068010008 0.0334807746
  vertex 0.00747374306 0.0111359488 0.0378008485
  vertex 0.00747374306 0.0101074046 0.0378177166
  endloop
 endfacet

 facet normal 1 0 0
  outer loop
  vertex 0.00747374306 0.0068010008 0.0334807746
  vertex 0.00747374306 0.0101074046 0.0378177166
  vertex 0.00747374306 0.0068010008 0.0370699018
  endloop
 endfacet

 facet normal 0 -0.220599279 0.975364625
  outer loop
  vertex 0.00747374306 0.0068010008 0.0370699018
  vertex 0.00747374306 0.0101074046 0.0378177166
  vertex 0.000149146188 0.0101074046 0.0378177166
  endloop
 endfacet

 facet normal 0 -0.220599279 0.975364625
  outer loop
  vertex 0.00747374306 0.0068010008 0.0370699018
  vertex 0.000149146188 0.0101074046 0.0378177166
  vertex 0.000149146188 0.0068010008 0.0370699018
  endloop
 endfacet

 facet normal -1 0 0
  outer loop
  vertex 0.000149146188 0.0068010008 0.0335426219
  vertex 0.000149146188 0.0068010008 0.0370699018
  vertex 0.000149146188 0.0101074046 0.0378177166
  endloop
 endfacet

 facet normal -1 0 0
  outer loop
  vertex 0.000149146188 0.0068010008 0.0335426219
  vertex 0.000149146188 0.0101074046 0.0378177166
  vertex 0.000149146188 0.0111359488 0.0378008485
  endloop
 endfacet

 facet normal -1 0 0
  outer loop
  vertex 0.000149146188 0.0068010008 0.0335426219
  vertex 0.000149146188 0.0111359488 0.0378008485
  vertex 0.000149146188 0.0117897 0.0374241285
  endloop
 endfacet

 facet normal -1 0 0
  outer loop
  vertex 0.000149146188 0.0068010008 0.0335426219
  vertex 0.000149146188 0.0117897 0.0374241285
  vertex 0.000149146188 0.0121251317 0.0370492861
  endloop
 endfacet

 facet normal -1 0 0
  outer loop
  vertex 0.000149146188 0.0068010008 0.0335426219
  vertex 0.000149146188 0.0121251317 0.0370492861
  vertex 0.000149146188 0.0123749953 0.0367700271
  endloop
 endfacet

 facet normal -1 0 0
  outer loop
  vertex 0.000149146188 0.0068010008 0.0335426219
  vertex 0.000149146188 0.0123749953 0.0367700271
  vertex 0.000149146188 0.0143482275 0.0339043476
  endloop
 endfacet

 facet normal -1 0 0
  outer loop
  vertex 0.000149146188 0.0068010008 0.0335426219
  vertex 0.000149146188 0.0143482275 0.0339043476
  vertex 0.000149146188 0.0210038181 0.0242352542
  endloop
 endfacet

 facet normal -1 0 0
  outer loop
  vertex 0.000149146188 0.0068010008 0.0335426219
  vertex 0.000149146188 0.0210038181 0.0242352542
  vertex 0.000149146188 0.0228315834 0.0215794854
  endloop
 endfacet

 facet normal -1 0 0
  outer loop
  vertex 0.000149146188 0.0068010008 0.0335426219
  vertex 0.000149146188 0.0228315834 0.0215794854
  vertex 0.000149146188 0.0230335277 0.021285234
  endloop
 endfacet

 facet normal -1 0 0
  outer loop
  vertex 0.000149146188 0.0068010008 0.0335426219
  vertex 0.000149146188 0.0230335277 0.021285234
  vertex 0.000149146188 0.0236616079 0.0203012694
  endloop
 endfacet

 facet normal -1 0 0
  outer loop
  vertex 0.000149146188 0.0068010008 0.0335426219
  vertex 0.000149146188 0.0236616079 0.0203012694
  vertex 0.000149146188 0.0238498598 0.0199245512
  endloop
 endfacet

 facet normal -1 0 0
  outer loop
  vertex 0.000149146188 0.0068010008 0.0335426219
  vertex 0.000149146188 0.0238498598 0.0199245512
  vertex 0.000149146188 0.0239867717 0.0196471661
  endloop
 endfacet

 facet normal -1 0 0
  outer loop
  vertex 0.000149146188 0.0068010008 0.0335426219
  vertex 0.000149146188 0.0239867717 0.0196471661
  vertex 0.000149146188 0.0241579115 0.0190849006
  endloop
 endfacet

 facet normal -1 0 0
  outer loop
  vertex 0.000149146188 0.0068010008 0.0335426219
  vertex 0.000149146188 0.0241579115 0.0190849006
  vertex 0.000149146188 0.0242811292 0.0186706986
  endloop
 endfacet

 facet normal -1 0 0
  outer loop
  vertex 0.000149146188 0.0068010008 0.0335426219
  vertex 0.000149146188 0.0242811292 0.0186706986
  vertex 0.000149146188 0.0205383208 0.0186706986
  endloop
 endfacet

 facet normal 0 0 -1
  outer loop
  vertex 0.000149146188 0.0205383208 0.0186706986
  vertex 0.000149146188 0.0242811292 0.0186706986
  vertex 0.00747374306 0.0242811292 0.0186706986
  endloop
 endfacet

 facet normal 0 0 -1
  outer loop
  vertex 0.000149146188 0.0205383208 0.0186706986
  vertex 0.00747374306 0.0242811292 0.0186706986
  vertex 0.00747374306 0.0205383208 0.0186706986
  endloop
 endfacet

 facet normal 0 0.016396394 0.999865532
  outer loop
  vertex 0.00747374306 0.0101074046 0.0378177166
  vertex 0.00747374306 0.0111359488 0.0378008485
  vertex 0.000149146188 0.0111359488 0.0378008485
  endloop
 endfacet

 facet normal 0 0.016396394 0.999865532
  outer loop
  vertex 0.00747374306 0.0101074046 0.0378177166
  vertex 0.000149146188 0.0111359488 0.0378008485
  vertex 0.000149146188 0.0101074046 0.0378177166
  endloop
 endfacet

 facet normal 0 0.958487272 0.285135239
  outer loop
  vertex 0.000149146188 0.0242811292 0.0186706986
  vertex 0.000149146188 0.0241579115 0.0190849006
  vertex 0.00747374306 0.0242811292 0.0186706986
  endloop
 endfacet

 facet normal 0.000214762898 0.957442999 0.288622379
  outer loop
  vertex 0.00747374306 0.0242811292 0.0186706986
  vertex 0.000149146188 0.0241579115 0.0190849006
  vertex 0.00747374306 0.0239867717 0.0196471661
  endloop
 endfacet

 facet normal 0 0.49658221 0.867989719
  outer loop
  vertex 0.00747374306 0.0111359488 0.0378008485
  vertex 0.00747374306 0.0112506123 0.0377352498
  vertex 0.000149146188 0.0111359488 0.0378008485
  endloop
 endfacet

 facet normal 0 0.956667066 0.291183889
  outer loop
  vertex 0.000149146188 0.0241579115 0.0190849006
  vertex 0.000149146188 0.0239867717 0.0196471661
  vertex 0.00747374306 0.0239867717 0.0196471661
  endloop
 endfacet

 facet normal 0.000119831151 0.895457745 0.445146501
  outer loop
  vertex 0.00747374306 0.0239867717 0.0196471661
  vertex 0.000149146188 0.0238498598 0.0199245512
  vertex 0.00747374306 0.0236616079 0.0203012694
  endloop
 endfacet

 facet normal 0 0.89671725 0.442603886
  outer loop
  vertex 0.00747374306 0.0239867717 0.0196471661
  vertex 0.000149146188 0.0239867717 0.0196471661
  vertex 0.000149146188 0.0238498598 0.0199245512
  endloop
 endfacet

 facet normal -5.61289417e-05 0.499281138 0.866440058
  outer loop
  vertex 0.000149146188 0.0111359488 0.0378008485
  vertex 0.00747374306 0.0112506123 0.0377352498
  vertex 0.000149146188 0.0117897 0.0374241285
  endloop
 endfacet

 facet normal 0 0.499853313 0.866110086
  outer loop
  vertex 0.00747374306 0.0112506123 0.0377352498
  vertex 0.00747374306 0.0117897 0.0374241285
  vertex 0.000149146188 0.0117897 0.0374241285
  endloop
 endfacet

 facet normal 0 0.894528091 0.447011799
  outer loop
  vertex 0.000149146188 0.0238498598 0.0199245512
  vertex 0.000149146188 0.0236616079 0.0203012694
  vertex 0.00747374306 0.0236616079 0.0203012694
  endloop
 endfacet

 facet normal 0 0.843226075 0.537559092
  outer loop
  vertex 0.00747374306 0.0236616079 0.0203012694
  vertex 0.000149146188 0.0236616079 0.0203012694
  vertex 0.00747374306 0.0231430549 0.0211146809
  endloop
 endfacet

 facet normal 0 0.743975282 0.668207109
  outer loop
  vertex 0.000149146188 0.0117897 0.0374241285
  vertex 0.00747374306 0.0117897 0.0374241285
  vertex 0.00747374306 0.011892383 0.0373098031
  endloop
 endfacet

 facet normal -3.83586084e-05 0.745195746 0.666845798
  outer loop
  vertex 0.000149146188 0.0117897 0.0374241285
  vertex 0.00747374306 0.011892383 0.0373098031
  vertex 0.000149146188 0.0121251317 0.0370492861
  endloop
 endfacet

 facet normal -7.59865434e-05 0.842915773 0.538045526
  outer loop
  vertex 0.000149146188 0.0236616079 0.0203012694
  vertex 0.000149146188 0.0230335277 0.021285234
  vertex 0.00747374306 0.0231430549 0.0211146809
  endloop
 endfacet

 facet normal 0 0.841435313 0.540358067
  outer loop
  vertex 0.00747374306 0.0231430549 0.0211146809
  vertex 0.000149146188 0.0230335277 0.021285234
  vertex 0.00747374306 0.0230335277 0.021285234
  endloop
 endfacet

 facet normal -3.51225608e-05 0.745241046 0.666795254
  outer loop
  vertex 0.00747374306 0.011892383 0.0373098031
  vertex 0.000149146188 0.0123749953 0.0367700271
  vertex 0.000149146188 0.0121251317 0.0370492861
  endloop
 endfacet

 facet normal 0 0.745477855 0.66653049
  outer loop
  vertex 0.00747374306 0.011892383 0.0373098031
  vertex 0.00747374306 0.0123749953 0.0367700271
  vertex 0.000149146188 0.0123749953 0.0367700271
  endloop
 endfacet

 facet normal 0 0.824504793 0.565855086
  outer loop
  vertex 0.000149146188 0.0230335277 0.021285234
  vertex 0.000149146188 0.0228315834 0.0215794854
  vertex 0.00747374306 0.0230335277 0.021285234
  endloop
 endfacet

 facet normal 5.41873451e-05 0.82387495 0.566771626
  outer loop
  vertex 0.00747374306 0.0230335277 0.021285234
  vertex 0.000149146188 0.0228315834 0.0215794854
  vertex 0.00747374306 0.0225577615 0.0219768211
  endloop
 endfacet

 facet normal 0 0.823361099 0.567517817
  outer loop
  vertex 0.000149146188 0.0123749953 0.0367700271
  vertex 0.00747374306 0.0123749953 0.0367700271
  vertex 0.00747374306 0.0131074693 0.0357073471
  endloop
 endfacet

 facet normal -8.31422731e-05 0.823628843 0.567129314
  outer loop
  vertex 0.000149146188 0.0123749953 0.0367700271
  vertex 0.00747374306 0.0131074693 0.0357073471
  vertex 0.000149146188 0.0143482275 0.0339043476
  endloop
 endfacet

 facet normal 4.5884939e-05 0.823827267 0.566840887
  outer loop
  vertex 0.000149146188 0.0228315834 0.0215794854
  vertex 0.00747374306 0.0214539133 0.0235811509
  vertex 0.00747374306 0.0221863892 0.0225165952
  endloop
 endfacet

 facet normal 5.06814213e-05 0.82384479 0.566815495
  outer loop
  vertex 0.000149146188 0.0228315834 0.0215794854
  vertex 0.00747374306 0.0221863892 0.0225165952
  vertex 0.00747374306 0.0225577615 0.0219768211
  endloop
 endfacet

 facet normal 0 0.823763251 0.566934049
  outer loop
  vertex 0.000149146188 0.0228315834 0.0215794854
  vertex 0.000149146188 0.0210038181 0.0242352542
  vertex 0.00747374306 0.0210038181 0.0242352542
  endloop
 endfacet

 facet normal 3.3983375e-05 0.823806942 0.566870451
  outer loop
  vertex 0.000149146188 0.0228315834 0.0215794854
  vertex 0.00747374306 0.0210038181 0.0242352542
  vertex 0.00747374306 0.0214539133 0.0235811509
  endloop
 endfacet

 facet normal -3.50533446e-05 0.823720098 0.566996634
  outer loop
  vertex 0.00747374306 0.0131074693 0.0357073471
  vertex 0.000149146188 0.0210038181 0.0242352542
  vertex 0.000149146188 0.0143482275 0.0339043476
  endloop
 endfacet

 facet normal 0 0.823730588 0.566981494
  outer loop
  vertex 0.00747374306 0.0131074693 0.0357073471
  vertex 0.00747374306 0.0210038181 0.0242352542
  vertex 0.000149146188 0.0210038181 0.0242352542
  endloop
 endfacet

endsolid AssimpScene
