solid AssimpScene
 facet normal -1 0 0
  outer loop
  vertex -0.0341307297 -0.0126897907 -0.00300000003
  vertex -0.0341307297 -0.0126897907 0.0149999997
  vertex -0.0341307297 -0.00609714817 0.0149999997
  endloop
 endfacet

 facet normal -1 0 0
  outer loop
  vertex -0.0341307297 -0.0126897907 -0.00300000003
  vertex -0.0341307297 -0.00609714817 0.0149999997
  vertex -0.0341307297 -0.00609714817 -0.00300000003
  endloop
 endfacet

 facet normal 0 0 -1
  outer loop
  vertex -0.0341307297 -0.0126897907 -0.00300000003
  vertex -0.0341307297 -0.00609714817 -0.00300000003
  vertex -0.0248118825 -0.00304694986 -0.00300000003
  endloop
 endfacet

 facet normal 0 0 -1
  outer loop
  vertex -0.0341307297 -0.0126897907 -0.00300000003
  vertex -0.0248118825 -0.00304694986 -0.00300000003
  vertex -0.0139950849 -0.00171838002 -0.00300000003
  endloop
 endfacet

 facet normal 0 0 -1
  outer loop
  vertex -0.0341307297 -0.0126897907 -0.00300000003
  vertex -0.0139950849 -0.00171838002 -0.00300000003
  vertex -0.0139950849 -0.012469383 -0.00300000003
  endloop
 endfacet

 facet normal 0 0 -1
  outer loop
  vertex -0.0341307297 -0.0126897907 -0.00300000003
  vertex -0.0139950849 -0.012469383 -0.00300000003
  vertex -0.0264182426 -0.0141310124 -0.00300000003
  endloop
 endfacet

 facet normal 0 0 -1
  outer loop
  vertex -0.0341307297 -0.0126897907 -0.00300000003
  vertex -0.0264182426 -0.0141310124 -0.00300000003
  vertex -0.0273643173 -0.0142203998 -0.00300000003
  endloop
 endfacet

 facet normal 0 0 -1
  outer loop
  vertex -0.0341307297 -0.0126897907 -0.00300000003
  vertex -0.0273643173 -0.0142203998 -0.00300000003
  vertex -0.0283123627 -0.014227747 -0.00300000003
  endloop
 endfacet

 facet normal 0 0 -1
  outer loop
  vertex -0.0341307297 -0.0126897907 -0.00300000003
  vertex -0.0283123627 -0.014227747 -0.00300000003
  vertex -0.0292584393 -0.0141530531 -0.00300000003
  endloop
 endfacet

 facet normal 0 0 -1
  outer loop
  vertex -0.0341307297 -0.0126897907 -0.00300000003
  vertex -0.0292584393 -0.0141530531 -0.00300000003
  vertex -0.0301946606 -0.0139963189 -0.00300000003
  endloop
 endfacet

 facet normal 0 0 -1
  outer loop
  vertex -0.0341307297 -0.0126897907 -0.00300000003
  vertex -0.0301946606 -0.0139963189 -0.00300000003
  vertex -0.0311131421 -0.013759993 -0.00300000003
  endloop
 endfacet

 facet normal 0 0 -1
  outer loop
  vertex -0.0341307297 -0.0126897907 -0.00300000003
  vertex -0.0311131421 -0.013759993 -0.00300000003
  vertex -0.0320079699 -0.0134465238 -0.00300000003
  endloop
 endfacet

 facet normal -0.335787565 -0.941937685 0
  outer loop
  vertex -0.0341307297 -0.0126897907 -0.00300000003
  vertex -0.0320079699 -0.0134465238 -0.00300000003
  vertex -0.0320079699 -0.0134465238 0.0149999997
  endloop
 endfacet

 facet normal -0.335787565 -0.941937685 0
  outer loop
  vertex -0.0341307297 -0.0126897907 -0.00300000003
  vertex -0.0320079699 -0.0134465238 0.0149999997
  vertex -0.0341307297 -0.0126897907 0.0149999997
  endloop
 endfacet

 facet normal 0 0 1
  outer loop
  vertex -0.0341307297 -0.0126897907 0.0149999997
  vertex -0.0320079699 -0.0134465238 0.0149999997
  vertex -0.0311131421 -0.013759993 0.0149999997
  endloop
 endfacet

 facet normal 0 0 1
  outer loop
  vertex -0.0341307297 -0.0126897907 0.0149999997
  vertex -0.0311131421 -0.013759993 0.0149999997
  vertex -0.0301946606 -0.0139963189 0.0149999997
  endloop
 endfacet

 facet normal 0 0 1
  outer loop
  vertex -0.0341307297 -0.0126897907 0.0149999997
  vertex -0.0301946606 -0.0139963189 0.0149999997
  vertex -0.0292584393 -0.0141530531 0.0149999997
  endloop
 endfacet

 facet normal 0 0 1
  outer loop
  vertex -0.0341307297 -0.0126897907 0.0149999997
  vertex -0.0292584393 -0.0141530531 0.0149999997
  vertex -0.0283123627 -0.014227747 0.0149999997
  endloop
 endfacet

 facet normal 0 0 1
  outer loop
  vertex -0.0341307297 -0.0126897907 0.0149999997
  vertex -0.0283123627 -0.014227747 0.0149999997
  vertex -0.0273643173 -0.0142203998 0.0149999997
  endloop
 endfacet

 facet normal 0 0 1
  outer loop
  vertex -0.0341307297 -0.0126897907 0.0149999997
  vertex -0.0273643173 -0.0142203998 0.0149999997
  vertex -0.0264182426 -0.0141310124 0.0149999997
  endloop
 endfacet

 facet normal 0 0 1
  outer loop
  vertex -0.0341307297 -0.0126897907 0.0149999997
  vertex -0.0264182426 -0.0141310124 0.0149999997
  vertex -0.0139950849 -0.012469383 0.0149999997
  endloop
 endfacet

 facet normal 0 0 1
  outer loop
  vertex -0.0341307297 -0.0126897907 0.0149999997
  vertex -0.0139950849 -0.012469383 0.0149999997
  vertex -0.0139950849 -0.00171838002 0.0149999997
  endloop
 endfacet

 facet normal 0 0 1
  outer loop
  vertex -0.0341307297 -0.0126897907 0.0149999997
  vertex -0.0139950849 -0.00171838002 0.0149999997
  vertex -0.0248118825 -0.00304694986 0.0149999997
  endloop
 endfacet

 facet normal 0 0 1
  outer loop
  vertex -0.0341307297 -0.0126897907 0.0149999997
  vertex -0.0248118825 -0.00304694986 0.0149999997
  vertex -0.0341307297 -0.00609714817 0.0149999997
  endloop
 endfacet

 facet normal -0.311075389 0.950385273 0
  outer loop
  vertex -0.0341307297 -0.00609714817 -0.00300000003
  vertex -0.0341307297 -0.00609714817 0.0149999997
  vertex -0.0248118825 -0.00304694986 0.0149999997
  endloop
 endfacet

 facet normal -0.311075389 0.950385273 0
  outer loop
  vertex -0.0341307297 -0.00609714817 -0.00300000003
  vertex -0.0248118825 -0.00304694986 0.0149999997
  vertex -0.0248118825 -0.00304694986 -0.00300000003
  endloop
 endfacet

 facet normal -0.330612808 -0.943766534 0
  outer loop
  vertex -0.0320079699 -0.0134465238 -0.00300000003
  vertex -0.0311131421 -0.013759993 -0.00300000003
  vertex -0.0311131421 -0.013759993 0.0149999997
  endloop
 endfacet

 facet normal -0.330612808 -0.943766534 0
  outer loop
  vertex -0.0320079699 -0.0134465238 -0.00300000003
  vertex -0.0311131421 -0.013759993 0.0149999997
  vertex -0.0320079699 -0.0134465238 0.0149999997
  endloop
 endfacet

 facet normal -0.121908568 0.992541313 0
  outer loop
  vertex -0.0248118825 -0.00304694986 -0.00300000003
  vertex -0.0248118825 -0.00304694986 0.0149999997
  vertex -0.0139950849 -0.00171838002 0.0149999997
  endloop
 endfacet

 facet normal -0.121908568 0.992541313 0
  outer loop
  vertex -0.0248118825 -0.00304694986 -0.00300000003
  vertex -0.0139950849 -0.00171838002 0.0149999997
  vertex -0.0139950849 -0.00171838002 -0.00300000003
  endloop
 endfacet

 facet normal -0.249184221 -0.968456149 0
  outer loop
  vertex -0.0311131421 -0.013759993 -0.00300000003
  vertex -0.0301946606 -0.0139963189 -0.00300000003
  vertex -0.0301946606 -0.0139963189 0.0149999997
  endloop
 endfacet

 facet normal -0.249184221 -0.968456149 0
  outer loop
  vertex -0.0311131421 -0.013759993 -0.00300000003
  vertex -0.0301946606 -0.0139963189 0.0149999997
  vertex -0.0311131421 -0.013759993 0.0149999997
  endloop
 endfacet

 facet normal 1 0 0
  outer loop
  vertex -0.0139950849 -0.00171838002 -0.00300000003
  vertex -0.0139950849 -0.00171838002 0.0149999997
  vertex -0.0139950849 -0.012469383 0.0149999997
  endloop
 endfacet

 facet normal 1 0 0
  outer loop
  vertex -0.0139950849 -0.00171838002 -0.00300000003
  vertex -0.0139950849 -0.012469383 0.0149999997
  vertex -0.0139950849 -0.012469383 -0.00300000003
  endloop
 endfacet

 facet normal -0.165113971 -0.9862746 0
  outer loop
  vertex -0.0301946606 -0.0139963189 -0.00300000003
  vertex -0.0292584393 -0.0141530531 -0.00300000003
  vertex -0.0292584393 -0.0141530531 0.0149999997
  endloop
 endfacet

 facet normal -0.165113971 -0.9862746 0
  outer loop
  vertex -0.0301946606 -0.0139963189 -0.00300000003
  vertex -0.0292584393 -0.0141530531 0.0149999997
  vertex -0.0301946606 -0.0139963189 0.0149999997
  endloop
 endfacet

 facet normal 0.13257204 -0.991173387 0
  outer loop
  vertex -0.0139950849 -0.012469383 -0.00300000003
  vertex -0.0139950849 -0.012469383 0.0149999997
  vertex -0.0264182426 -0.0141310124 0.0149999997
  endloop
 endfacet

 facet normal 0.13257204 -0.991173387 0
  outer loop
  vertex -0.0139950849 -0.012469383 -0.00300000003
  vertex -0.0264182426 -0.0141310124 0.0149999997
  vertex -0.0264182426 -0.0141310124 -0.00300000003
  endloop
 endfacet

 facet normal -0.0787059069 -0.996897876 0
  outer loop
  vertex -0.0292584393 -0.0141530531 -0.00300000003
  vertex -0.0283123627 -0.014227747 -0.00300000003
  vertex -0.0283123627 -0.014227747 0.0149999997
  endloop
 endfacet

 facet normal -0.0787059069 -0.996897876 0
  outer loop
  vertex -0.0292584393 -0.0141530531 -0.00300000003
  vertex -0.0283123627 -0.014227747 0.0149999997
  vertex -0.0292584393 -0.0141530531 0.0149999997
  endloop
 endfacet

 facet normal 0.0940636322 -0.99556613 0
  outer loop
  vertex -0.0264182426 -0.0141310124 -0.00300000003
  vertex -0.0264182426 -0.0141310124 0.0149999997
  vertex -0.0273643173 -0.0142203998 0.0149999997
  endloop
 endfacet

 facet normal 0.0940636322 -0.99556613 0
  outer loop
  vertex -0.0264182426 -0.0141310124 -0.00300000003
  vertex -0.0273643173 -0.0142203998 0.0149999997
  vertex -0.0273643173 -0.0142203998 -0.00300000003
  endloop
 endfacet

 facet normal 0.00774896098 -0.999969959 0
  outer loop
  vertex -0.0283123627 -0.014227747 -0.00300000003
  vertex -0.0273643173 -0.0142203998 -0.00300000003
  vertex -0.0273643173 -0.0142203998 0.0149999997
  endloop
 endfacet

 facet normal 0.00774896098 -0.999969959 0
  outer loop
  vertex -0.0283123627 -0.014227747 -0.00300000003
  vertex -0.0273643173 -0.0142203998 0.0149999997
  vertex -0.0283123627 -0.014227747 0.0149999997
  endloop
 endfacet

endsolid AssimpScene
