solid AssimpScene
 facet normal 0 0 -1
  outer loop
  vertex -0.121089481 0.0122087216 -0.00299999979
  vertex -0.121879712 0.0122327758 -0.00299999979
  vertex -0.122077599 0.0122538228 -0.00299999979
  endloop
 endfacet

 facet normal 0 0 -1
  outer loop
  vertex -0.121089481 0.0122087216 -0.00299999979
  vertex -0.122077599 0.0122538228 -0.00299999979
  vertex -0.122316867 0.0122974217 -0.00299999979
  endloop
 endfacet

 facet normal 0 0 -1
  outer loop
  vertex -0.121089481 0.0122087216 -0.00299999979
  vertex -0.122316867 0.0122974217 -0.00299999979
  vertex -0.122627266 0.0123786051 -0.00299999979
  endloop
 endfacet

 facet normal 0 0 -1
  outer loop
  vertex -0.121089481 0.0122087216 -0.00299999979
  vertex -0.122627266 0.0123786051 -0.00299999979
  vertex -0.123003632 0.0125063928 -0.00299999979
  endloop
 endfacet

 facet normal 0 0 -1
  outer loop
  vertex -0.121089481 0.0122087216 -0.00299999979
  vertex -0.123003632 0.0125063928 -0.00299999979
  vertex -0.123442076 0.0126928138 -0.00299999979
  endloop
 endfacet

 facet normal 0 0 -1
  outer loop
  vertex -0.121089481 0.0122087216 -0.00299999979
  vertex -0.123442076 0.0126928138 -0.00299999979
  vertex -0.123918034 0.0129408725 -0.00299999979
  endloop
 endfacet

 facet normal 0 0 -1
  outer loop
  vertex -0.121089481 0.0122087216 -0.00299999979
  vertex -0.123918034 0.0129408725 -0.00299999979
  vertex -0.123918034 0.0138714714 -0.00299999979
  endloop
 endfacet

 facet normal 0 0 -1
  outer loop
  vertex -0.121089481 0.0122087216 -0.00299999979
  vertex -0.123918034 0.0138714714 -0.00299999979
  vertex -0.123341195 0.0175186936 -0.00299999979
  endloop
 endfacet

 facet normal 0 0 -1
  outer loop
  vertex -0.121089481 0.0122087216 -0.00299999979
  vertex -0.123341195 0.0175186936 -0.00299999979
  vertex -0.123052783 0.0184041914 -0.00299999979
  endloop
 endfacet

 facet normal 0 0 -1
  outer loop
  vertex -0.121089481 0.0122087216 -0.00299999979
  vertex -0.123052783 0.0184041914 -0.00299999979
  vertex -0.121377893 0.0216921046 -0.00299999979
  endloop
 endfacet

 facet normal 0 0 -1
  outer loop
  vertex -0.121089481 0.0122087216 -0.00299999979
  vertex -0.121377893 0.0216921046 -0.00299999979
  vertex -0.120829508 0.0224453025 -0.00299999979
  endloop
 endfacet

 facet normal 0 0 -1
  outer loop
  vertex -0.121089481 0.0122087216 -0.00299999979
  vertex -0.120829508 0.0224453025 -0.00299999979
  vertex -0.118219532 0.0250551868 -0.00299999979
  endloop
 endfacet

 facet normal 0 0 -1
  outer loop
  vertex -0.121089481 0.0122087216 -0.00299999979
  vertex -0.118219532 0.0250551868 -0.00299999979
  vertex -0.1174668 0.0256024208 -0.00299999979
  endloop
 endfacet

 facet normal 0 0 -1
  outer loop
  vertex -0.121089481 0.0122087216 -0.00299999979
  vertex -0.1174668 0.0256024208 -0.00299999979
  vertex -0.114177816 0.0272787008 -0.00299999979
  endloop
 endfacet

 facet normal 0 0 -1
  outer loop
  vertex -0.121089481 0.0122087216 -0.00299999979
  vertex -0.114177816 0.0272787008 -0.00299999979
  vertex -0.113293163 0.0275673512 -0.00299999979
  endloop
 endfacet

 facet normal 0 0 -1
  outer loop
  vertex -0.121089481 0.0122087216 -0.00299999979
  vertex -0.113293163 0.0275673512 -0.00299999979
  vertex -0.110706463 0.0250416566 -0.00299999979
  endloop
 endfacet

 facet normal 0 0 -1
  outer loop
  vertex -0.121089481 0.0122087216 -0.00299999979
  vertex -0.110706463 0.0250416566 -0.00299999979
  vertex -0.110706463 0.0198624786 -0.00299999979
  endloop
 endfacet

 facet normal 0 0 -1
  outer loop
  vertex -0.121089481 0.0122087216 -0.00299999979
  vertex -0.110706463 0.0198624786 -0.00299999979
  vertex -0.11571043 0.0122087216 -0.00299999979
  endloop
 endfacet

 facet normal 0 -1 0
  outer loop
  vertex -0.121089481 0.0122087216 -0.00299999979
  vertex -0.11571043 0.0122087216 -0.00299999979
  vertex -0.11417523 0.0122087216 0.0059806183
  endloop
 endfacet

 facet normal 0 -1 0
  outer loop
  vertex -0.121089481 0.0122087216 -0.00299999979
  vertex -0.11417523 0.0122087216 0.0059806183
  vertex -0.114113145 0.0122087216 0.00695849629
  endloop
 endfacet

 facet normal 0 -1 0
  outer loop
  vertex -0.121089481 0.0122087216 -0.00299999979
  vertex -0.114113145 0.0122087216 0.00695849629
  vertex -0.114113145 0.0122087216 0.0099784648
  endloop
 endfacet

 facet normal 0 -1 0
  outer loop
  vertex -0.121089481 0.0122087216 -0.00299999979
  vertex -0.114113145 0.0122087216 0.0099784648
  vertex -0.115650937 0.0122087216 0.0149999997
  endloop
 endfacet

 facet normal 0 -1 0
  outer loop
  vertex -0.121089481 0.0122087216 -0.00299999979
  vertex -0.115650937 0.0122087216 0.0149999997
  vertex -0.121089481 0.0122087216 0.0149999997
  endloop
 endfacet

 facet normal -0.0304251537 -0.999536991 0
  outer loop
  vertex -0.121089481 0.0122087216 -0.00299999979
  vertex -0.121089481 0.0122087216 0.0149999997
  vertex -0.121879712 0.0122327758 0.0149999997
  endloop
 endfacet

 facet normal -0.0304251537 -0.999536991 0
  outer loop
  vertex -0.121089481 0.0122087216 -0.00299999979
  vertex -0.121879712 0.0122327758 0.0149999997
  vertex -0.121879712 0.0122327758 -0.00299999979
  endloop
 endfacet

 facet normal -0.105764717 -0.994391203 0
  outer loop
  vertex -0.121879712 0.0122327758 -0.00299999979
  vertex -0.121879712 0.0122327758 0.0149999997
  vertex -0.122077599 0.0122538228 0.0149999997
  endloop
 endfacet

 facet normal -0.105764717 -0.994391203 0
  outer loop
  vertex -0.121879712 0.0122327758 -0.00299999979
  vertex -0.122077599 0.0122538228 0.0149999997
  vertex -0.122077599 0.0122538228 -0.00299999979
  endloop
 endfacet

 facet normal 0.828552186 -0.541700959 -0.14163813
  outer loop
  vertex -0.11571043 0.0122087216 -0.00299999979
  vertex -0.110706463 0.0198624786 -0.00299999979
  vertex -0.11417523 0.0122087216 0.0059806183
  endloop
 endfacet

 facet normal 0 0 1
  outer loop
  vertex -0.121089481 0.0122087216 0.0149999997
  vertex -0.115650937 0.0122087216 0.0149999997
  vertex -0.110706463 0.0198008399 0.0149999997
  endloop
 endfacet

 facet normal 0 0 1
  outer loop
  vertex -0.121089481 0.0122087216 0.0149999997
  vertex -0.110706463 0.0198008399 0.0149999997
  vertex -0.110706463 0.0250416566 0.0149999997
  endloop
 endfacet

 facet normal 0 0 1
  outer loop
  vertex -0.121089481 0.0122087216 0.0149999997
  vertex -0.110706463 0.0250416566 0.0149999997
  vertex -0.113293163 0.0275673512 0.0149999997
  endloop
 endfacet

 facet normal 0 0 1
  outer loop
  vertex -0.121089481 0.0122087216 0.0149999997
  vertex -0.113293163 0.0275673512 0.0149999997
  vertex -0.114177816 0.0272787008 0.0149999997
  endloop
 endfacet

 facet normal 0 0 1
  outer loop
  vertex -0.121089481 0.0122087216 0.0149999997
  vertex -0.114177816 0.0272787008 0.0149999997
  vertex -0.1174668 0.0256024208 0.0149999997
  endloop
 endfacet

 facet normal 0 0 1
  outer loop
  vertex -0.121089481 0.0122087216 0.0149999997
  vertex -0.1174668 0.0256024208 0.0149999997
  vertex -0.118219532 0.0250551868 0.0149999997
  endloop
 endfacet

 facet normal 0 0 1
  outer loop
  vertex -0.121089481 0.0122087216 0.0149999997
  vertex -0.118219532 0.0250551868 0.0149999997
  vertex -0.120829508 0.0224453025 0.0149999997
  endloop
 endfacet

 facet normal 0 0 1
  outer loop
  vertex -0.121089481 0.0122087216 0.0149999997
  vertex -0.120829508 0.0224453025 0.0149999997
  vertex -0.121377893 0.0216921046 0.0149999997
  endloop
 endfacet

 facet normal 0 0 1
  outer loop
  vertex -0.121089481 0.0122087216 0.0149999997
  vertex -0.121377893 0.0216921046 0.0149999997
  vertex -0.123052783 0.0184041914 0.0149999997
  endloop
 endfacet

 facet normal 0 0 1
  outer loop
  vertex -0.121089481 0.0122087216 0.0149999997
  vertex -0.123052783 0.0184041914 0.0149999997
  vertex -0.123341195 0.0175186936 0.0149999997
  endloop
 endfacet

 facet normal 0 0 1
  outer loop
  vertex -0.121089481 0.0122087216 0.0149999997
  vertex -0.123341195 0.0175186936 0.0149999997
  vertex -0.123918034 0.0138714714 0.0149999997
  endloop
 endfacet

 facet normal 0 0 1
  outer loop
  vertex -0.121089481 0.0122087216 0.0149999997
  vertex -0.123918034 0.0138714714 0.0149999997
  vertex -0.123918034 0.0129408725 0.0149999997
  endloop
 endfacet

 facet normal 0 0 1
  outer loop
  vertex -0.121089481 0.0122087216 0.0149999997
  vertex -0.123918034 0.0129408725 0.0149999997
  vertex -0.123442076 0.0126928138 0.0149999997
  endloop
 endfacet

 facet normal 0 0 1
  outer loop
  vertex -0.121089481 0.0122087216 0.0149999997
  vertex -0.123442076 0.0126928138 0.0149999997
  vertex -0.123003632 0.0125063928 0.0149999997
  endloop
 endfacet

 facet normal 0 0 1
  outer loop
  vertex -0.121089481 0.0122087216 0.0149999997
  vertex -0.123003632 0.0125063928 0.0149999997
  vertex -0.122627266 0.0123786051 0.0149999997
  endloop
 endfacet

 facet normal 0 0 1
  outer loop
  vertex -0.121089481 0.0122087216 0.0149999997
  vertex -0.122627266 0.0123786051 0.0149999997
  vertex -0.122316867 0.0122974217 0.0149999997
  endloop
 endfacet

 facet normal 0 0 1
  outer loop
  vertex -0.121089481 0.0122087216 0.0149999997
  vertex -0.122316867 0.0122974217 0.0149999997
  vertex -0.122077599 0.0122538228 0.0149999997
  endloop
 endfacet

 facet normal 0 0 1
  outer loop
  vertex -0.121089481 0.0122087216 0.0149999997
  vertex -0.122077599 0.0122538228 0.0149999997
  vertex -0.121879712 0.0122327758 0.0149999997
  endloop
 endfacet

 facet normal -0.179263294 -0.983801126 0
  outer loop
  vertex -0.122077599 0.0122538228 -0.00299999979
  vertex -0.122077599 0.0122538228 0.0149999997
  vertex -0.122316867 0.0122974217 0.0149999997
  endloop
 endfacet

 facet normal -0.179263294 -0.983801126 0
  outer loop
  vertex -0.122077599 0.0122538228 -0.00299999979
  vertex -0.122316867 0.0122974217 0.0149999997
  vertex -0.122316867 0.0122974217 -0.00299999979
  endloop
 endfacet

 facet normal 1 0 0
  outer loop
  vertex -0.110706463 0.0198624786 -0.00299999979
  vertex -0.110706463 0.0250416566 -0.00299999979
  vertex -0.110706463 0.0250416566 0.0149999997
  endloop
 endfacet

 facet normal 1 0 0
  outer loop
  vertex -0.110706463 0.0198624786 -0.00299999979
  vertex -0.110706463 0.0250416566 0.0149999997
  vertex -0.110706463 0.0198008399 0.0149999997
  endloop
 endfacet

 facet normal 1 0 0
  outer loop
  vertex -0.110706463 0.0198624786 -0.00299999979
  vertex -0.110706463 0.0198008399 0.0149999997
  vertex -0.110706463 0.0182463359 0.0099784648
  endloop
 endfacet

 facet normal 1 0 0
  outer loop
  vertex -0.110706463 0.0198624786 -0.00299999979
  vertex -0.110706463 0.0182463359 0.0099784648
  vertex -0.110706463 0.0182463359 0.00695849629
  endloop
 endfacet

 facet normal 1 0 0
  outer loop
  vertex -0.110706463 0.0198624786 -0.00299999979
  vertex -0.110706463 0.0182463359 0.00695849629
  vertex -0.110706463 0.0183094777 0.0059806183
  endloop
 endfacet

 facet normal 0.866150081 -0.492474735 -0.0851627514
  outer loop
  vertex -0.110706463 0.0198624786 -0.00299999979
  vertex -0.110706463 0.0183094777 0.0059806183
  vertex -0.11417523 0.0122087216 0.0059806183
  endloop
 endfacet

 facet normal 0.867987394 -0.493519366 -0.0551046282
  outer loop
  vertex -0.11417523 0.0122087216 0.0059806183
  vertex -0.110706463 0.0183094777 0.0059806183
  vertex -0.114113145 0.0122087216 0.00695849629
  endloop
 endfacet

 facet normal 0.811660707 -0.528605402 0.248562723
  outer loop
  vertex -0.115650937 0.0122087216 0.0149999997
  vertex -0.114113145 0.0122087216 0.0099784648
  vertex -0.110706463 0.0198008399 0.0149999997
  endloop
 endfacet

 facet normal -0.253031254 -0.967458129 0
  outer loop
  vertex -0.122316867 0.0122974217 -0.00299999979
  vertex -0.122316867 0.0122974217 0.0149999997
  vertex -0.122627266 0.0123786051 0.0149999997
  endloop
 endfacet

 facet normal -0.253031254 -0.967458129 0
  outer loop
  vertex -0.122316867 0.0122974217 -0.00299999979
  vertex -0.122627266 0.0123786051 0.0149999997
  vertex -0.122627266 0.0123786051 -0.00299999979
  endloop
 endfacet

 facet normal 0.698619783 0.715493143 0
  outer loop
  vertex -0.110706463 0.0250416566 -0.00299999979
  vertex -0.113293163 0.0275673512 -0.00299999979
  vertex -0.113293163 0.0275673512 0.0149999997
  endloop
 endfacet

 facet normal 0.698619783 0.715493143 0
  outer loop
  vertex -0.110706463 0.0250416566 -0.00299999979
  vertex -0.113293163 0.0275673512 0.0149999997
  vertex -0.110706463 0.0250416566 0.0149999997
  endloop
 endfacet

 facet normal 0.870488107 -0.491166681 -0.031714838
  outer loop
  vertex -0.110706463 0.0183094777 0.0059806183
  vertex -0.110706463 0.0182463359 0.00695849629
  vertex -0.114113145 0.0122087216 0.00695849629
  endloop
 endfacet

 facet normal 0.870926261 -0.491413832 0
  outer loop
  vertex -0.114113145 0.0122087216 0.00695849629
  vertex -0.110706463 0.0182463359 0.00695849629
  vertex -0.110706463 0.0182463359 0.0099784648
  endloop
 endfacet

 facet normal 0.870926261 -0.491413832 0
  outer loop
  vertex -0.114113145 0.0122087216 0.00695849629
  vertex -0.110706463 0.0182463359 0.0099784648
  vertex -0.114113145 0.0122087216 0.0099784648
  endloop
 endfacet

 facet normal 0.861020267 -0.485824436 0.150395542
  outer loop
  vertex -0.114113145 0.0122087216 0.0099784648
  vertex -0.110706463 0.0182463359 0.0099784648
  vertex -0.110706463 0.0198008399 0.0149999997
  endloop
 endfacet

 facet normal -0.321504682 -0.946907997 0
  outer loop
  vertex -0.122627266 0.0123786051 -0.00299999979
  vertex -0.122627266 0.0123786051 0.0149999997
  vertex -0.123003632 0.0125063928 0.0149999997
  endloop
 endfacet

 facet normal -0.321504682 -0.946907997 0
  outer loop
  vertex -0.122627266 0.0123786051 -0.00299999979
  vertex -0.123003632 0.0125063928 0.0149999997
  vertex -0.123003632 0.0125063928 -0.00299999979
  endloop
 endfacet

 facet normal -0.310192078 0.950673938 0
  outer loop
  vertex -0.113293163 0.0275673512 -0.00299999979
  vertex -0.114177816 0.0272787008 -0.00299999979
  vertex -0.114177816 0.0272787008 0.0149999997
  endloop
 endfacet

 facet normal -0.310192078 0.950673938 0
  outer loop
  vertex -0.113293163 0.0275673512 -0.00299999979
  vertex -0.114177816 0.0272787008 0.0149999997
  vertex -0.113293163 0.0275673512 0.0149999997
  endloop
 endfacet

 facet normal -0.391284347 -0.920269847 0
  outer loop
  vertex -0.123003632 0.0125063928 -0.00299999979
  vertex -0.123003632 0.0125063928 0.0149999997
  vertex -0.123442076 0.0126928138 0.0149999997
  endloop
 endfacet

 facet normal -0.391284347 -0.920269847 0
  outer loop
  vertex -0.123003632 0.0125063928 -0.00299999979
  vertex -0.123442076 0.0126928138 0.0149999997
  vertex -0.123442076 0.0126928138 -0.00299999979
  endloop
 endfacet

 facet normal -0.454088748 0.890956521 0
  outer loop
  vertex -0.114177816 0.0272787008 -0.00299999979
  vertex -0.1174668 0.0256024208 -0.00299999979
  vertex -0.1174668 0.0256024208 0.0149999997
  endloop
 endfacet

 facet normal -0.454088748 0.890956521 0
  outer loop
  vertex -0.114177816 0.0272787008 -0.00299999979
  vertex -0.1174668 0.0256024208 0.0149999997
  vertex -0.114177816 0.0272787008 0.0149999997
  endloop
 endfacet

 facet normal -0.462180018 -0.886786163 0
  outer loop
  vertex -0.123442076 0.0126928138 -0.00299999979
  vertex -0.123442076 0.0126928138 0.0149999997
  vertex -0.123918034 0.0129408725 0.0149999997
  endloop
 endfacet

 facet normal -0.462180018 -0.886786163 0
  outer loop
  vertex -0.123442076 0.0126928138 -0.00299999979
  vertex -0.123918034 0.0129408725 0.0149999997
  vertex -0.123918034 0.0129408725 -0.00299999979
  endloop
 endfacet

 facet normal -0.588028789 0.808840036 0
  outer loop
  vertex -0.1174668 0.0256024208 -0.00299999979
  vertex -0.118219532 0.0250551868 -0.00299999979
  vertex -0.118219532 0.0250551868 0.0149999997
  endloop
 endfacet

 facet normal -0.588028789 0.808840036 0
  outer loop
  vertex -0.1174668 0.0256024208 -0.00299999979
  vertex -0.118219532 0.0250551868 0.0149999997
  vertex -0.1174668 0.0256024208 0.0149999997
  endloop
 endfacet

 facet normal -1 0 0
  outer loop
  vertex -0.123918034 0.0129408725 -0.00299999979
  vertex -0.123918034 0.0129408725 0.0149999997
  vertex -0.123918034 0.0138714714 0.0149999997
  endloop
 endfacet

 facet normal -1 0 0
  outer loop
  vertex -0.123918034 0.0129408725 -0.00299999979
  vertex -0.123918034 0.0138714714 0.0149999997
  vertex -0.123918034 0.0138714714 -0.00299999979
  endloop
 endfacet

 facet normal -0.707093775 0.707119882 0
  outer loop
  vertex -0.118219532 0.0250551868 -0.00299999979
  vertex -0.120829508 0.0224453025 -0.00299999979
  vertex -0.120829508 0.0224453025 0.0149999997
  endloop
 endfacet

 facet normal -0.707093775 0.707119882 0
  outer loop
  vertex -0.118219532 0.0250551868 -0.00299999979
  vertex -0.120829508 0.0224453025 0.0149999997
  vertex -0.118219532 0.0250551868 0.0149999997
  endloop
 endfacet

 facet normal -0.987723053 0.156215459 0
  outer loop
  vertex -0.123918034 0.0138714714 -0.00299999979
  vertex -0.123918034 0.0138714714 0.0149999997
  vertex -0.123341195 0.0175186936 0.0149999997
  endloop
 endfacet

 facet normal -0.987723053 0.156215459 0
  outer loop
  vertex -0.123918034 0.0138714714 -0.00299999979
  vertex -0.123341195 0.0175186936 0.0149999997
  vertex -0.123341195 0.0175186936 -0.00299999979
  endloop
 endfacet

 facet normal -0.808428168 0.588594913 0
  outer loop
  vertex -0.120829508 0.0224453025 -0.00299999979
  vertex -0.121377893 0.0216921046 -0.00299999979
  vertex -0.121377893 0.0216921046 0.0149999997
  endloop
 endfacet

 facet normal -0.808428168 0.588594913 0
  outer loop
  vertex -0.120829508 0.0224453025 -0.00299999979
  vertex -0.121377893 0.0216921046 0.0149999997
  vertex -0.120829508 0.0224453025 0.0149999997
  endloop
 endfacet

 facet normal -0.950834692 0.309698731 0
  outer loop
  vertex -0.123341195 0.0175186936 -0.00299999979
  vertex -0.123341195 0.0175186936 0.0149999997
  vertex -0.123052783 0.0184041914 0.0149999997
  endloop
 endfacet

 facet normal -0.950834692 0.309698731 0
  outer loop
  vertex -0.123341195 0.0175186936 -0.00299999979
  vertex -0.123052783 0.0184041914 0.0149999997
  vertex -0.123052783 0.0184041914 -0.00299999979
  endloop
 endfacet

 facet normal -0.891049325 0.453906476 0
  outer loop
  vertex -0.121377893 0.0216921046 -0.00299999979
  vertex -0.123052783 0.0184041914 -0.00299999979
  vertex -0.123052783 0.0184041914 0.0149999997
  endloop
 endfacet

 facet normal -0.891049325 0.453906476 0
  outer loop
  vertex -0.121377893 0.0216921046 -0.00299999979
  vertex -0.123052783 0.0184041914 0.0149999997
  vertex -0.121377893 0.0216921046 0.0149999997
  endloop
 endfacet

endsolid AssimpScene
