solid AssimpScene
 facet normal 0.999765813 -0.0145783192 0.0159911904
  outer loop
  vertex 0.00958372187 0.0160468873 0.0699218139
  vertex 0.00958181825 0.0173556227 0.0712338984
  vertex 0.00956088677 0.0173556227 0.0725425407
  endloop
 endfacet

 facet normal 0.998757601 -0.0405567884 0.0289555155
  outer loop
  vertex 0.00958372187 0.0160468873 0.0699218139
  vertex 0.00956088677 0.0173556227 0.0725425407
  vertex 0.00956849847 0.014737688 0.0686131716
  endloop
 endfacet

 facet normal 0.999915779 -0.0129130436 0.00128650828
  outer loop
  vertex 0.00958372187 0.0160468873 0.0699218139
  vertex 0.00956849847 0.014737688 0.0686131716
  vertex 0.00958372187 0.0139604965 0.0489801206
  endloop
 endfacet

 facet normal 1 0 0
  outer loop
  vertex 0.00958372187 0.0160468873 0.0699218139
  vertex 0.00958372187 0.0139604965 0.0489801206
  vertex 0.00958372187 0.0139604965 0.0476714782
  endloop
 endfacet

 facet normal 1 0 0
  outer loop
  vertex 0.00958372187 0.0160468873 0.0699218139
  vertex 0.00958372187 0.0139604965 0.0476714782
  vertex 0.00958372187 0.014737688 0.0476714782
  endloop
 endfacet

 facet normal 1 0 0
  outer loop
  vertex 0.00958372187 0.0160468873 0.0699218139
  vertex 0.00958372187 0.014737688 0.0476714782
  vertex 0.00958372187 0.0160468873 0.058140602
  endloop
 endfacet

 facet normal 0.999998987 0.00145411538 0
  outer loop
  vertex 0.00958372187 0.0160468873 0.0699218139
  vertex 0.00958372187 0.0160468873 0.058140602
  vertex 0.00958181825 0.0173556227 0.0686131716
  endloop
 endfacet

 facet normal 0.999998987 0.00145411538 0
  outer loop
  vertex 0.00958372187 0.0160468873 0.0699218139
  vertex 0.00958181825 0.0173556227 0.0686131716
  vertex 0.00958181825 0.0173556227 0.0712338984
  endloop
 endfacet

 facet normal 0.97922647 0.202769801 0
  outer loop
  vertex 0.00958181825 0.0173556227 0.0712338984
  vertex 0.00958181825 0.0173556227 0.0686131716
  vertex 0.00939913932 0.0182378292 0.0686131716
  endloop
 endfacet

 facet normal 0.97922647 0.202769801 0
  outer loop
  vertex 0.00958181825 0.0173556227 0.0712338984
  vertex 0.00939913932 0.0182378292 0.0686131716
  vertex 0.00939913932 0.0182378292 0.0738511831
  endloop
 endfacet

 facet normal 0.987376153 0.157603398 0.0157930199
  outer loop
  vertex 0.00958181825 0.0173556227 0.0712338984
  vertex 0.00939913932 0.0182378292 0.0738511831
  vertex 0.00956088677 0.0173556227 0.0725425407
  endloop
 endfacet

 facet normal 0.994762361 0.0630904734 0.0804207474
  outer loop
  vertex 0.00956088677 0.0173556227 0.0725425407
  vertex 0.00939913932 0.0182378292 0.0738511831
  vertex 0.00933824573 0.0181619599 0.0746639147
  endloop
 endfacet

 facet normal 0.994537711 0 0.104377948
  outer loop
  vertex 0.00956088677 0.0173556227 0.0725425407
  vertex 0.00933824573 0.0181619599 0.0746639147
  vertex 0.00933824573 0.0177960321 0.0746639147
  endloop
 endfacet

 facet normal 0.993787587 -0.0225624815 0.108983308
  outer loop
  vertex 0.00956088677 0.0173556227 0.0725425407
  vertex 0.00933824573 0.0177960321 0.0746639147
  vertex 0.00942007173 0.0173579361 0.073827073
  endloop
 endfacet

 facet normal 0.981904984 -0.155614376 0.107920341
  outer loop
  vertex 0.00956088677 0.0173556227 0.0725425407
  vertex 0.00942007173 0.0173579361 0.073827073
  vertex 0.00942958612 0.0147191845 0.06993559
  endloop
 endfacet

 facet normal 0.9836272 -0.14909257 0.101238027
  outer loop
  vertex 0.00956088677 0.0173556227 0.0725425407
  vertex 0.00942958612 0.0147191845 0.06993559
  vertex 0.00956849847 0.014737688 0.0686131716
  endloop
 endfacet

 facet normal 0.983248711 -0.151617691 0.101162933
  outer loop
  vertex 0.00956849847 0.014737688 0.0686131716
  vertex 0.00942958612 0.0147191845 0.06993559
  vertex 0.00945432391 0.0139604965 0.0685580745
  endloop
 endfacet

 facet normal 0.988804281 -0.147056073 0.0253086369
  outer loop
  vertex 0.00956849847 0.014737688 0.0686131716
  vertex 0.00945432391 0.0139604965 0.0685580745
  vertex 0.00948667247 0.0139604965 0.0672942027
  endloop
 endfacet

 facet normal 0.993519902 -0.113536201 0.00526480423
  outer loop
  vertex 0.00956849847 0.014737688 0.0686131716
  vertex 0.00948667247 0.0139604965 0.0672942027
  vertex 0.00958372187 0.0139604965 0.0489801206
  endloop
 endfacet

 facet normal 0 -1 0
  outer loop
  vertex 0.00958372187 0.0139604965 0.0489801206
  vertex 0.00948667247 0.0139604965 0.0672942027
  vertex 0.00945432391 0.0139604965 0.0685580745
  endloop
 endfacet

 facet normal 0 -1 0
  outer loop
  vertex 0.00958372187 0.0139604965 0.0489801206
  vertex 0.00945432391 0.0139604965 0.0685580745
  vertex 0.00933253765 0.0139604965 0.0695223361
  endloop
 endfacet

 facet normal 0 -1 0
  outer loop
  vertex 0.00958372187 0.0139604965 0.0489801206
  vertex 0.00933253765 0.0139604965 0.0695223361
  vertex 0.00856376253 0.0139604965 0.0698977038
  endloop
 endfacet

 facet normal 0 -1 0
  outer loop
  vertex 0.00958372187 0.0139604965 0.0489801206
  vertex 0.00856376253 0.0139604965 0.0698977038
  vertex 0.00725456188 0.0139604965 0.0700388998
  endloop
 endfacet

 facet normal 0 -1 0
  outer loop
  vertex 0.00958372187 0.0139604965 0.0489801206
  vertex 0.00725456188 0.0139604965 0.0700388998
  vertex -0.0078583369 0.0139604965 0.0700388998
  endloop
 endfacet

 facet normal 0 -1 0
  outer loop
  vertex 0.00958372187 0.0139604965 0.0489801206
  vertex -0.0078583369 0.0139604965 0.0700388998
  vertex -0.00845394749 0.0139604965 0.0700354576
  endloop
 endfacet

 facet normal 0 -1 0
  outer loop
  vertex 0.00958372187 0.0139604965 0.0489801206
  vertex -0.00845394749 0.0139604965 0.0700354576
  vertex -0.00908190664 0.0139604965 0.0698081702
  endloop
 endfacet

 facet normal 0 -1 0
  outer loop
  vertex 0.00958372187 0.0139604965 0.0489801206
  vertex -0.00908190664 0.0139604965 0.0698081702
  vertex -0.00934641156 0.0139604965 0.0696325302
  endloop
 endfacet

 facet normal 0 -1 0
  outer loop
  vertex 0.00958372187 0.0139604965 0.0489801206
  vertex -0.00934641156 0.0139604965 0.0696325302
  vertex -0.00948722661 0.0139604965 0.0691745058
  endloop
 endfacet

 facet normal 0 -1 0
  outer loop
  vertex 0.00958372187 0.0139604965 0.0489801206
  vertex -0.00948722661 0.0139604965 0.0691745058
  vertex -0.00976885669 0.0139604965 0.0678383186
  endloop
 endfacet

 facet normal 0 -1 0
  outer loop
  vertex 0.00958372187 0.0139604965 0.0489801206
  vertex -0.00976885669 0.0139604965 0.0678383186
  vertex -0.00985639077 0.0139604965 0.0476714782
  endloop
 endfacet

 facet normal 0 -1 0
  outer loop
  vertex 0.00958372187 0.0139604965 0.0489801206
  vertex -0.00985639077 0.0139604965 0.0476714782
  vertex -0.00985639077 0.0139604965 0.0468931794
  endloop
 endfacet

 facet normal 0 -1 0
  outer loop
  vertex 0.00958372187 0.0139604965 0.0489801206
  vertex -0.00985639077 0.0139604965 0.0468931794
  vertex -0.00984877814 0.0139604965 0.0455845445
  endloop
 endfacet

 facet normal 0 -1 0
  outer loop
  vertex 0.00958372187 0.0139604965 0.0489801206
  vertex -0.00984877814 0.0139604965 0.0455845445
  vertex -0.00983165298 0.0139604965 0.0442759022
  endloop
 endfacet

 facet normal 0 -1 0
  outer loop
  vertex 0.00958372187 0.0139604965 0.0489801206
  vertex -0.00983165298 0.0139604965 0.0442759022
  vertex -0.00980501249 0.0139604965 0.0429672599
  endloop
 endfacet

 facet normal 0 -1 0
  outer loop
  vertex 0.00958372187 0.0139604965 0.0489801206
  vertex -0.00980501249 0.0139604965 0.0429672599
  vertex -0.00965087675 0.0139604965 0.0416172929
  endloop
 endfacet

 facet normal 0 -1 0
  outer loop
  vertex 0.00958372187 0.0139604965 0.0489801206
  vertex -0.00965087675 0.0139604965 0.0416172929
  vertex -0.00942443032 0.0139604965 0.0405083932
  endloop
 endfacet

 facet normal 0 -1 0
  outer loop
  vertex 0.00958372187 0.0139604965 0.0489801206
  vertex -0.00942443032 0.0139604965 0.0405083932
  vertex -0.00929503236 0.0139604965 0.0401640162
  endloop
 endfacet

 facet normal 0 -1 0
  outer loop
  vertex 0.00958372187 0.0139604965 0.0489801206
  vertex -0.00929503236 0.0139604965 0.0401640162
  vertex -0.0086556552 0.0139604965 0.0397507586
  endloop
 endfacet

 facet normal 0 -1 0
  outer loop
  vertex 0.00958372187 0.0139604965 0.0489801206
  vertex -0.0086556552 0.0139604965 0.0397507586
  vertex -0.00845394749 0.0139604965 0.0397025459
  endloop
 endfacet

 facet normal 0 -1 0
  outer loop
  vertex 0.00958372187 0.0139604965 0.0489801206
  vertex -0.00845394749 0.0139604965 0.0397025459
  vertex -0.00740354182 0.0139604965 0.0396784395
  endloop
 endfacet

 facet normal 0 -1 0
  outer loop
  vertex 0.00958372187 0.0139604965 0.0489801206
  vertex -0.00740354182 0.0139604965 0.0396784395
  vertex 0.00725456188 0.0139604965 0.0396784395
  endloop
 endfacet

 facet normal 0 -1 0
  outer loop
  vertex 0.00958372187 0.0139604965 0.0489801206
  vertex 0.00725456188 0.0139604965 0.0396784395
  vertex 0.00856376253 0.0139604965 0.0398712941
  endloop
 endfacet

 facet normal 0 -1 0
  outer loop
  vertex 0.00958372187 0.0139604965 0.0489801206
  vertex 0.00856376253 0.0139604965 0.0398712941
  vertex 0.00929067377 0.0139604965 0.0402638838
  endloop
 endfacet

 facet normal 0 -1 0
  outer loop
  vertex 0.00958372187 0.0139604965 0.0489801206
  vertex 0.00929067377 0.0139604965 0.0402638838
  vertex 0.0094124591 0.0139604965 0.0411248319
  endloop
 endfacet

 facet normal 0 -1 0
  outer loop
  vertex 0.00958372187 0.0139604965 0.0489801206
  vertex 0.0094124591 0.0139604965 0.0411248319
  vertex 0.00951141026 0.0139604965 0.0424438082
  endloop
 endfacet

 facet normal 0 -1 0
  outer loop
  vertex 0.00958372187 0.0139604965 0.0489801206
  vertex 0.00951141026 0.0139604965 0.0424438082
  vertex 0.00955708046 0.0139604965 0.0437421128
  endloop
 endfacet

 facet normal 0 -1 0
  outer loop
  vertex 0.00958372187 0.0139604965 0.0489801206
  vertex 0.00955708046 0.0139604965 0.0437421128
  vertex 0.00957420748 0.0139604965 0.0450507551
  endloop
 endfacet

 facet normal 0 -1 0
  outer loop
  vertex 0.00958372187 0.0139604965 0.0489801206
  vertex 0.00957420748 0.0139604965 0.0450507551
  vertex 0.00958181825 0.0139604965 0.0463628396
  endloop
 endfacet

 facet normal 0 -1 0
  outer loop
  vertex 0.00958372187 0.0139604965 0.0489801206
  vertex 0.00958181825 0.0139604965 0.0463628396
  vertex 0.00958372187 0.0139604965 0.0476714782
  endloop
 endfacet

 facet normal 0.999725461 0.0232512038 -0.00290764286
  outer loop
  vertex 0.00958372187 0.0160468873 0.058140602
  vertex 0.00958372187 0.014737688 0.0476714782
  vertex 0.00957991555 0.014737688 0.0463628396
  endloop
 endfacet

 facet normal 0.999327123 0.0364190601 -0.00437123468
  outer loop
  vertex 0.00958372187 0.0160468873 0.058140602
  vertex 0.00957991555 0.014737688 0.0463628396
  vertex 0.00957801286 0.0160468873 0.0568354055
  endloop
 endfacet

 facet normal 0.999327064 0.0364204869 -0.00437123422
  outer loop
  vertex 0.00958372187 0.0160468873 0.058140602
  vertex 0.00957801286 0.0160468873 0.0568354055
  vertex 0.00957610924 0.0173556227 0.0673045367
  endloop
 endfacet

 facet normal 0.999329984 0.0363401026 -0.00435975194
  outer loop
  vertex 0.00958372187 0.0160468873 0.058140602
  vertex 0.00957610924 0.0173556227 0.0673045367
  vertex 0.00958181825 0.0173556227 0.0686131716
  endloop
 endfacet

 facet normal 0.979217529 0.202767938 -0.00427200785
  outer loop
  vertex 0.00958181825 0.0173556227 0.0686131716
  vertex 0.00957610924 0.0173556227 0.0673045367
  vertex 0.00939913932 0.0182378292 0.0686131716
  endloop
 endfacet

 facet normal 0.372353226 0.921077728 0.113880709
  outer loop
  vertex 0.00939913932 0.0182378292 0.0738511831
  vertex 0.00856376253 0.0185755361 0.0738511831
  vertex 0.00933824573 0.0181619599 0.0746639147
  endloop
 endfacet

 facet normal 0.374791503 0.927109182 0
  outer loop
  vertex 0.00939913932 0.0182378292 0.0738511831
  vertex 0.00939913932 0.0182378292 0.0686131716
  vertex 0.00856376253 0.0185755361 0.0686131716
  endloop
 endfacet

 facet normal 0.374791503 0.927109182 0
  outer loop
  vertex 0.00939913932 0.0182378292 0.0738511831
  vertex 0.00856376253 0.0185755361 0.0686131716
  vertex 0.00856376253 0.0185755361 0.0738511831
  endloop
 endfacet

 facet normal 0.206995875 0.937477469 0.279801428
  outer loop
  vertex 0.00933824573 0.0181619599 0.0746639147
  vertex 0.00856376253 0.0185755361 0.0738511831
  vertex 0.00856376253 0.0182928797 0.0747982264
  endloop
 endfacet

 facet normal 0.170871109 0 0.985293388
  outer loop
  vertex 0.00933824573 0.0181619599 0.0746639147
  vertex 0.00856376253 0.0182928797 0.0747982264
  vertex 0.00856376253 0.0176267158 0.0747982264
  endloop
 endfacet

 facet normal 0.170871109 0 0.985293388
  outer loop
  vertex 0.00933824573 0.0181619599 0.0746639147
  vertex 0.00856376253 0.0176267158 0.0747982264
  vertex 0.00933824573 0.0177960321 0.0746639147
  endloop
 endfacet

 facet normal 0.26636529 -0.664683104 0.698029995
  outer loop
  vertex 0.00933824573 0.0177960321 0.0746639147
  vertex 0.00856376253 0.0176267158 0.0747982264
  vertex 0.00856376253 0.0169721153 0.0741748959
  endloop
 endfacet

 facet normal 0.326925337 -0.690362453 0.645383239
  outer loop
  vertex 0.00933824573 0.0177960321 0.0746639147
  vertex 0.00856376253 0.0169721153 0.0741748959
  vertex 0.00931160524 0.016579356 0.0733759403
  endloop
 endfacet

 facet normal 0.93692553 -0.263554782 0.22958532
  outer loop
  vertex 0.00933824573 0.0177960321 0.0746639147
  vertex 0.00931160524 0.016579356 0.0733759403
  vertex 0.00942007173 0.0173579361 0.073827073
  endloop
 endfacet

 facet normal 0.96114248 -0.225864261 0.158715352
  outer loop
  vertex 0.00942007173 0.0173579361 0.073827073
  vertex 0.00931160524 0.016579356 0.0733759403
  vertex 0.00933253765 0.0139604965 0.0695223361
  endloop
 endfacet

 facet normal 0.970370948 -0.198871374 0.137224048
  outer loop
  vertex 0.00942007173 0.0173579361 0.073827073
  vertex 0.00933253765 0.0139604965 0.0695223361
  vertex 0.00942958612 0.0147191845 0.06993559
  endloop
 endfacet

 facet normal 0.973747909 -0.191546649 0.122983739
  outer loop
  vertex 0.00942958612 0.0147191845 0.06993559
  vertex 0.00933253765 0.0139604965 0.0695223361
  vertex 0.00945432391 0.0139604965 0.0685580745
  endloop
 endfacet

 facet normal 0.999998987 0 -0.00145421934
  outer loop
  vertex 0.00958372187 0.0139604965 0.0476714782
  vertex 0.00958181825 0.0139604965 0.0463628396
  vertex 0.00958372187 0.014737688 0.0476714782
  endloop
 endfacet

 facet normal 0.999992728 0.00244861236 -0.00290842028
  outer loop
  vertex 0.00958372187 0.014737688 0.0476714782
  vertex 0.00958181825 0.0139604965 0.0463628396
  vertex 0.00957991555 0.014737688 0.0463628396
  endloop
 endfacet

 facet normal 0.999980152 0.00244858162 -0.00580076827
  outer loop
  vertex 0.00957991555 0.014737688 0.0463628396
  vertex 0.00958181825 0.0139604965 0.0463628396
  vertex 0.00957420748 0.0139604965 0.0450507551
  endloop
 endfacet

 facet normal 0.999807 0.0146889454 -0.013050396
  outer loop
  vertex 0.00957991555 0.014737688 0.0463628396
  vertex 0.00957420748 0.0139604965 0.0450507551
  vertex 0.00956278853 0.014737688 0.0450507551
  endloop
 endfacet

 facet normal 0.994359016 0.105269477 -0.0129792858
  outer loop
  vertex 0.00957991555 0.014737688 0.0463628396
  vertex 0.00956278853 0.014737688 0.0450507551
  vertex 0.00957801286 0.0160468873 0.0568354055
  endloop
 endfacet

 facet normal 0.994355917 0.105298057 -0.012982456
  outer loop
  vertex 0.00957801286 0.0160468873 0.0568354055
  vertex 0.00956278853 0.014737688 0.0450507551
  vertex 0.00957610924 0.0173556227 0.0673045367
  endloop
 endfacet

 facet normal 0.978391826 0.206053376 -0.0170721151
  outer loop
  vertex 0.00957610924 0.0173556227 0.0673045367
  vertex 0.00955327507 0.0173556227 0.0659958944
  vertex 0.00939343125 0.0182230249 0.0673045367
  endloop
 endfacet

 facet normal 0.978513181 0.206078947 -0.00659932941
  outer loop
  vertex 0.00957610924 0.0173556227 0.0673045367
  vertex 0.00939343125 0.0182230249 0.0673045367
  vertex 0.00939913932 0.0182378292 0.0686131716
  endloop
 endfacet

 facet normal 0.989748895 0.141770199 -0.0172702838
  outer loop
  vertex 0.00957610924 0.0173556227 0.0673045367
  vertex 0.00956278853 0.014737688 0.0450507551
  vertex 0.00955327507 0.0173556227 0.0659958944
  endloop
 endfacet

 facet normal 0.374763906 0.927041054 -0.0121211959
  outer loop
  vertex 0.00939913932 0.0182378292 0.0686131716
  vertex 0.00939343125 0.0182230249 0.0673045367
  vertex 0.00856376253 0.0185755361 0.0686131716
  endloop
 endfacet

 facet normal 0.0806606859 0.955108643 0.285063684
  outer loop
  vertex 0.00856376253 0.0185755361 0.0738511831
  vertex 0.00725456188 0.0186861008 0.0738511831
  vertex 0.00856376253 0.0182928797 0.0747982264
  endloop
 endfacet

 facet normal 0.0841522887 0.996452928 0
  outer loop
  vertex 0.00856376253 0.0185755361 0.0738511831
  vertex 0.00856376253 0.0185755361 0.0686131716
  vertex 0.00725456188 0.0186861008 0.0686131716
  endloop
 endfacet

 facet normal 0.0841522887 0.996452928 0
  outer loop
  vertex 0.00856376253 0.0185755361 0.0738511831
  vertex 0.00725456188 0.0186861008 0.0686131716
  vertex 0.00725456188 0.0186861008 0.0738511831
  endloop
 endfacet

 facet normal 0.0446705148 0 0.999001861
  outer loop
  vertex 0.00856376253 0.0182928797 0.0747982264
  vertex 0.00725456188 0.0183479302 0.0748567656
  vertex 0.00725456188 0.0175642632 0.0748567656
  endloop
 endfacet

 facet normal 0.0446705148 0 0.999001861
  outer loop
  vertex 0.00856376253 0.0182928797 0.0747982264
  vertex 0.00725456188 0.0175642632 0.0748567656
  vertex 0.00856376253 0.0176267158 0.0747982264
  endloop
 endfacet

 facet normal 0.0540299341 0.946454227 0.318284839
  outer loop
  vertex 0.00856376253 0.0182928797 0.0747982264
  vertex 0.00725456188 0.0186861008 0.0738511831
  vertex 0.00725456188 0.0183479302 0.0748567656
  endloop
 endfacet

 facet normal 0.0651394948 -0.688132226 0.722655535
  outer loop
  vertex 0.00856376253 0.0176267158 0.0747982264
  vertex 0.00725456188 0.0175642632 0.0748567656
  vertex 0.00856376253 0.0169721153 0.0741748959
  endloop
 endfacet

 facet normal 0.0632625222 -0.690200269 0.720847785
  outer loop
  vertex 0.00856376253 0.0169721153 0.0741748959
  vertex 0.00725456188 0.0175642632 0.0748567656
  vertex 0.00725456188 0.0169096626 0.0742299929
  endloop
 endfacet

 facet normal 0.0633073598 -0.79590416 0.602103591
  outer loop
  vertex 0.00856376253 0.0169721153 0.0741748959
  vertex 0.00725456188 0.0169096626 0.0742299929
  vertex 0.00856376253 0.0164771192 0.073520571
  endloop
 endfacet

 facet normal 0.160279423 -0.787193537 0.59551394
  outer loop
  vertex 0.00856376253 0.0169721153 0.0741748959
  vertex 0.00856376253 0.0164771192 0.073520571
  vertex 0.00922597479 0.0153848864 0.0718985498
  endloop
 endfacet

 facet normal 0.242699489 -0.761212766 0.601375222
  outer loop
  vertex 0.00856376253 0.0169721153 0.0741748959
  vertex 0.00922597479 0.0153848864 0.0718985498
  vertex 0.00931160524 0.016579356 0.0733759403
  endloop
 endfacet

 facet normal 0.858393848 -0.422107756 0.291521817
  outer loop
  vertex 0.00931160524 0.016579356 0.0733759403
  vertex 0.00922597479 0.0153848864 0.0718985498
  vertex 0.00933253765 0.0139604965 0.0695223361
  endloop
 endfacet

 facet normal 0.247218043 -0.826153994 0.506312966
  outer loop
  vertex 0.00933253765 0.0139604965 0.0695223361
  vertex 0.00922597479 0.0153848864 0.0718985498
  vertex 0.00856376253 0.0139604965 0.0698977038
  endloop
 endfacet

 facet normal 0.999806523 0.014688937 -0.0130847078
  outer loop
  vertex 0.00957420748 0.0139604965 0.0450507551
  vertex 0.00955708046 0.0139604965 0.0437421128
  vertex 0.00956278853 0.014737688 0.0450507551
  endloop
 endfacet

 facet normal 0.998410106 0.0464462452 -0.0319390111
  outer loop
  vertex 0.00956278853 0.014737688 0.0450507551
  vertex 0.00955708046 0.0139604965 0.0437421128
  vertex 0.00952092558 0.014737688 0.0437421128
  endloop
 endfacet

 facet normal 0.976663828 0.212489054 -0.0312433541
  outer loop
  vertex 0.00956278853 0.014737688 0.0450507551
  vertex 0.00952092558 0.014737688 0.0437421128
  vertex 0.00938011054 0.015577334 0.0450507551
  endloop
 endfacet

 facet normal 0.976807535 0.212520331 -0.0261192285
  outer loop
  vertex 0.00956278853 0.014737688 0.0450507551
  vertex 0.00938011054 0.015577334 0.0450507551
  vertex 0.00955327507 0.0173556227 0.0659958944
  endloop
 endfacet

 facet normal 0.975949228 0.216630459 -0.0243812352
  outer loop
  vertex 0.00955327507 0.0173556227 0.0659958944
  vertex 0.00937059615 0.0181786139 0.0659958944
  vertex 0.00939343125 0.0182230249 0.0673045367
  endloop
 endfacet

 facet normal 0.97589767 0.216618985 -0.026459692
  outer loop
  vertex 0.00955327507 0.0173556227 0.0659958944
  vertex 0.00938011054 0.015577334 0.0450507551
  vertex 0.00937059615 0.0181786139 0.0659958944
  endloop
 endfacet

 facet normal 0.352909476 0.934890211 -0.0378851444
  outer loop
  vertex 0.00939343125 0.0182230249 0.0673045367
  vertex 0.00937059615 0.0181786139 0.0659958944
  vertex 0.00856376253 0.0185362156 0.0673045367
  endloop
 endfacet

 facet normal 0.353023529 0.935192347 -0.0281002186
  outer loop
  vertex 0.00939343125 0.0182230249 0.0673045367
  vertex 0.00856376253 0.0185362156 0.0673045367
  vertex 0.00856376253 0.0185755361 0.0686131716
  endloop
 endfacet

 facet normal 0.0841145962 0.996006608 -0.0299275331
  outer loop
  vertex 0.00856376253 0.0185755361 0.0686131716
  vertex 0.00856376253 0.0185362156 0.0673045367
  vertex 0.00725456188 0.0186861008 0.0686131716
  endloop
 endfacet

 facet normal 0 0.947838724 0.318750471
  outer loop
  vertex 0.00725456188 0.0186861008 0.0738511831
  vertex -0.00845394749 0.0186861008 0.0738511831
  vertex -0.00845394749 0.0183479302 0.0748567656
  endloop
 endfacet

 facet normal 0 0.947838724 0.318750471
  outer loop
  vertex 0.00725456188 0.0186861008 0.0738511831
  vertex -0.00845394749 0.0183479302 0.0748567656
  vertex 0.00725456188 0.0183479302 0.0748567656
  endloop
 endfacet

 facet normal 0 1 0
  outer loop
  vertex 0.00725456188 0.0186861008 0.0738511831
  vertex 0.00725456188 0.0186861008 0.0686131716
  vertex -0.00845394749 0.0186861008 0.0686131716
  endloop
 endfacet

 facet normal 0 1 0
  outer loop
  vertex 0.00725456188 0.0186861008 0.0738511831
  vertex -0.00845394749 0.0186861008 0.0686131716
  vertex -0.00845394749 0.0186861008 0.0738511831
  endloop
 endfacet

 facet normal 0 0 1
  outer loop
  vertex 0.00725456188 0.0183479302 0.0748567656
  vertex -0.00845394749 0.0183479302 0.0748567656
  vertex -0.00845394749 0.0175642632 0.0748567656
  endloop
 endfacet

 facet normal 0 0 1
  outer loop
  vertex 0.00725456188 0.0183479302 0.0748567656
  vertex -0.00845394749 0.0175642632 0.0748567656
  vertex 0.00725456188 0.0175642632 0.0748567656
  endloop
 endfacet

 facet normal 0 -0.69158566 0.722294509
  outer loop
  vertex 0.00725456188 0.0175642632 0.0748567656
  vertex -0.00845394749 0.0175642632 0.0748567656
  vertex -0.00845394749 0.0169096626 0.0742299929
  endloop
 endfacet

 facet normal 0 -0.69158566 0.722294509
  outer loop
  vertex 0.00725456188 0.0175642632 0.0748567656
  vertex -0.00845394749 0.0169096626 0.0742299929
  vertex 0.00725456188 0.0169096626 0.0742299929
  endloop
 endfacet

 facet normal 0 -0.809730768 0.586801648
  outer loop
  vertex 0.00725456188 0.0169096626 0.0742299929
  vertex -0.00845394749 0.0169096626 0.0742299929
  vertex -0.00845394749 0.0164354835 0.0735756755
  endloop
 endfacet

 facet normal 0 -0.809730768 0.586801648
  outer loop
  vertex 0.00725456188 0.0169096626 0.0742299929
  vertex -0.00845394749 0.0164354835 0.0735756755
  vertex 0.00725456188 0.0164354835 0.0735756755
  endloop
 endfacet

 facet normal 0.0503833741 -0.808702409 0.586056411
  outer loop
  vertex 0.00725456188 0.0169096626 0.0742299929
  vertex 0.00725456188 0.0164354835 0.0735756755
  vertex 0.00856376253 0.0164771192 0.073520571
  endloop
 endfacet

 facet normal 0.0502668098 -0.813078046 0.579980433
  outer loop
  vertex 0.00856376253 0.0164771192 0.073520571
  vertex 0.00725456188 0.0164354835 0.0735756755
  vertex 0.00856376253 0.0153520396 0.0719433203
  endloop
 endfacet

 facet normal 0.0793878287 -0.811537743 0.578881741
  outer loop
  vertex 0.00856376253 0.0164771192 0.073520571
  vertex 0.00856376253 0.0153520396 0.0719433203
  vertex 0.00922597479 0.0153848864 0.0718985498
  endloop
 endfacet

 facet normal 0.0787900314 -0.824257314 0.560706735
  outer loop
  vertex 0.00922597479 0.0153848864 0.0718985498
  vertex 0.00856376253 0.0153520396 0.0719433203
  vertex 0.00856376253 0.0139604965 0.0698977038
  endloop
 endfacet

 facet normal 0.0605483912 -0.825310707 0.561423302
  outer loop
  vertex 0.00856376253 0.0139604965 0.0698977038
  vertex 0.00856376253 0.0153520396 0.0719433203
  vertex 0.00725456188 0.0139604965 0.0700388998
  endloop
 endfacet

 facet normal 0.998303592 0.0464412943 -0.0351172164
  outer loop
  vertex 0.00955708046 0.0139604965 0.0437421128
  vertex 0.00951141026 0.0139604965 0.0424438082
  vertex 0.00952092558 0.014737688 0.0437421128
  endloop
 endfacet

 facet normal 0.990917623 0.112053558 -0.0743398592
  outer loop
  vertex 0.00952092558 0.014737688 0.0437421128
  vertex 0.00951141026 0.0139604965 0.0424438082
  vertex 0.0094124591 0.0139604965 0.0411248319
  endloop
 endfacet

 facet normal 0.982591689 0.163005039 -0.0891246572
  outer loop
  vertex 0.00952092558 0.014737688 0.0437421128
  vertex 0.0094124591 0.0139604965 0.0411248319
  vertex 0.00940104201 0.0147598945 0.0424610227
  endloop
 endfacet

 facet normal 0.970528483 0.224763572 -0.0869252682
  outer loop
  vertex 0.00952092558 0.014737688 0.0437421128
  vertex 0.00940104201 0.0147598945 0.0424610227
  vertex 0.00928115938 0.0154533535 0.042915605
  endloop
 endfacet

 facet normal 0.970113039 0.227484077 -0.0844490975
  outer loop
  vertex 0.00952092558 0.014737688 0.0437421128
  vertex 0.00928115938 0.0154533535 0.042915605
  vertex 0.00933824573 0.015516731 0.0437421128
  endloop
 endfacet

 facet normal 0.972744882 0.228101239 -0.0416820757
  outer loop
  vertex 0.00952092558 0.014737688 0.0437421128
  vertex 0.00933824573 0.015516731 0.0437421128
  vertex 0.00938011054 0.015577334 0.0450507551
  endloop
 endfacet

 facet normal 0.922074735 0.384112298 -0.0472859666
  outer loop
  vertex 0.00938011054 0.015577334 0.0450507551
  vertex 0.00933824573 0.015516731 0.0437421128
  vertex 0.00937059615 0.0181786139 0.0659958944
  endloop
 endfacet

 facet normal 0.325516641 0.943803966 -0.0572097898
  outer loop
  vertex 0.00937059615 0.0181786139 0.0659958944
  vertex 0.00932302233 0.0181156974 0.064687252
  vertex 0.00856376253 0.0185362156 0.0673045367
  endloop
 endfacet

 facet normal 0.897455394 0.437827408 -0.0536753051
  outer loop
  vertex 0.00937059615 0.0181786139 0.0659958944
  vertex 0.00933824573 0.015516731 0.0437421128
  vertex 0.00932302233 0.0181156974 0.064687252
  endloop
 endfacet

 facet normal 0.301668346 0.951173246 -0.0653120503
  outer loop
  vertex 0.00856376253 0.0185362156 0.0673045367
  vertex 0.00932302233 0.0181156974 0.064687252
  vertex 0.00926974136 0.0180578735 0.0635990128
  endloop
 endfacet

 facet normal 0.277860343 0.958013952 -0.0707310364
  outer loop
  vertex 0.00856376253 0.0185362156 0.0673045367
  vertex 0.00926974136 0.0180578735 0.0635990128
  vertex 0.00921455771 0.0180092957 0.0627242923
  endloop
 endfacet

 facet normal 0.21415326 0.973389804 -0.0815518647
  outer loop
  vertex 0.00856376253 0.0185362156 0.0673045367
  vertex 0.00921455771 0.0180092957 0.0627242923
  vertex 0.00856376253 0.0184265748 0.0659958944
  endloop
 endfacet

 facet normal 0.0758392811 0.993638873 -0.0832483619
  outer loop
  vertex 0.00856376253 0.0185362156 0.0673045367
  vertex 0.00856376253 0.0184265748 0.0659958944
  vertex 0.00725456188 0.0186361391 0.0673045367
  endloop
 endfacet

 facet normal 0.0760483593 0.996378183 -0.0380397923
  outer loop
  vertex 0.00856376253 0.0185362156 0.0673045367
  vertex 0.00725456188 0.0186361391 0.0673045367
  vertex 0.00725456188 0.0186861008 0.0686131716
  endloop
 endfacet

 facet normal 0 0.999272048 -0.0381502733
  outer loop
  vertex 0.00725456188 0.0186861008 0.0686131716
  vertex 0.00725456188 0.0186361391 0.0673045367
  vertex -0.00845394749 0.0186361391 0.0673045367
  endloop
 endfacet

 facet normal 0 0.999272048 -0.0381502733
  outer loop
  vertex 0.00725456188 0.0186861008 0.0686131716
  vertex -0.00845394749 0.0186361391 0.0673045367
  vertex -0.00845394749 0.0186861008 0.0686131716
  endloop
 endfacet

 facet normal -0.312720984 0.936162353 0.160641551
  outer loop
  vertex -0.00845394749 0.0186861008 0.0738511831
  vertex -0.0094662942 0.0183479302 0.0738511831
  vertex -0.00934641156 0.0182355158 0.0747396722
  endloop
 endfacet

 facet normal -0.159155577 0.935757101 0.31468749
  outer loop
  vertex -0.00845394749 0.0186861008 0.0738511831
  vertex -0.00934641156 0.0182355158 0.0747396722
  vertex -0.00845394749 0.0183479302 0.0748567656
  endloop
 endfacet

 facet normal -0.316835791 0.948480368 0
  outer loop
  vertex -0.00845394749 0.0186861008 0.0738511831
  vertex -0.00845394749 0.0186861008 0.0686131716
  vertex -0.0094662942 0.0183479302 0.0686131716
  endloop
 endfacet

 facet normal -0.316835791 0.948480368 0
  outer loop
  vertex -0.00845394749 0.0186861008 0.0738511831
  vertex -0.0094662942 0.0183479302 0.0686131716
  vertex -0.0094662942 0.0183479302 0.0738511831
  endloop
 endfacet

 facet normal -0.13008377 0 0.991503
  outer loop
  vertex -0.00845394749 0.0183479302 0.0748567656
  vertex -0.00934641156 0.0182355158 0.0747396722
  vertex -0.00934641156 0.0177127607 0.0747396722
  endloop
 endfacet

 facet normal -0.13008377 0 0.991503
  outer loop
  vertex -0.00845394749 0.0183479302 0.0748567656
  vertex -0.00934641156 0.0177127607 0.0747396722
  vertex -0.00845394749 0.0175642632 0.0748567656
  endloop
 endfacet

 facet normal -0.205365539 -0.676844716 0.706899047
  outer loop
  vertex -0.00845394749 0.0175642632 0.0748567656
  vertex -0.00934641156 0.0177127607 0.0747396722
  vertex -0.00845394749 0.0169096626 0.0742299929
  endloop
 endfacet

 facet normal -0.273281157 -0.713286936 0.645398438
  outer loop
  vertex -0.00845394749 0.0169096626 0.0742299929
  vertex -0.00934641156 0.0177127607 0.0747396722
  vertex -0.00929312967 0.0165238418 0.0734482557
  endloop
 endfacet

 facet normal -0.198103696 -0.777765453 0.596519828
  outer loop
  vertex -0.00845394749 0.0169096626 0.0742299929
  vertex -0.00929312967 0.0165238418 0.0734482557
  vertex -0.00916944072 0.0153460251 0.0719536468
  endloop
 endfacet

 facet normal -0.0968703777 -0.805922627 0.584041774
  outer loop
  vertex -0.00845394749 0.0169096626 0.0742299929
  vertex -0.00916944072 0.0153460251 0.0719536468
  vertex -0.00845394749 0.0164354835 0.0735756755
  endloop
 endfacet

 facet normal 0 -0.819112897 0.573632419
  outer loop
  vertex 0.00725456188 0.0164354835 0.0735756755
  vertex -0.00845394749 0.0164354835 0.0735756755
  vertex -0.0071447459 0.0147955148 0.0712338984
  endloop
 endfacet

 facet normal 0 -0.819112897 0.573632419
  outer loop
  vertex 0.00725456188 0.0164354835 0.0735756755
  vertex -0.0071447459 0.0147955148 0.0712338984
  vertex 0.00725456188 0.0147955148 0.0712338984
  endloop
 endfacet

 facet normal 0.0373316966 -0.818541944 0.573232591
  outer loop
  vertex 0.00725456188 0.0164354835 0.0735756755
  vertex 0.00725456188 0.0147955148 0.0712338984
  vertex 0.00856376253 0.0153520396 0.0719433203
  endloop
 endfacet

 facet normal 0.0377935767 -0.818913341 0.572671533
  outer loop
  vertex 0.00856376253 0.0153520396 0.0719433203
  vertex 0.00725456188 0.0147955148 0.0712338984
  vertex 0.00725456188 0.014210307 0.0703970566
  endloop
 endfacet

 facet normal 0.0395826995 -0.819555521 0.571630955
  outer loop
  vertex 0.00856376253 0.0153520396 0.0719433203
  vertex 0.00725456188 0.014210307 0.0703970566
  vertex 0.00725456188 0.0139604965 0.0700388998
  endloop
 endfacet

 facet normal 0 -0.820198298 0.572079301
  outer loop
  vertex 0.00725456188 0.0139604965 0.0700388998
  vertex 0.00725456188 0.014210307 0.0703970566
  vertex -0.0071447459 0.014210307 0.0703970566
  endloop
 endfacet

 facet normal 0 -0.820198298 0.572079301
  outer loop
  vertex 0.00725456188 0.0139604965 0.0700388998
  vertex -0.0071447459 0.014210307 0.0703970566
  vertex -0.0078583369 0.0139604965 0.0700388998
  endloop
 endfacet

 facet normal 0.97276938 0.20246546 -0.112816475
  outer loop
  vertex 0.0094124591 0.0139604965 0.0411248319
  vertex 0.00934014935 0.0143079199 0.0411248319
  vertex 0.00940104201 0.0147598945 0.0424610227
  endloop
 endfacet

 facet normal 0.969764233 0.201839998 -0.137178168
  outer loop
  vertex 0.0094124591 0.0139604965 0.0411248319
  vertex 0.00929067377 0.0139604965 0.0402638838
  vertex 0.00934014935 0.0143079199 0.0411248319
  endloop
 endfacet

 facet normal 0.959702253 0.250018328 -0.128306076
  outer loop
  vertex 0.00940104201 0.0147598945 0.0424610227
  vertex 0.00934014935 0.0143079199 0.0411248319
  vertex 0.00928115938 0.0154533535 0.042915605
  endloop
 endfacet

 facet normal 0.928609312 0.325715184 -0.177748397
  outer loop
  vertex 0.00928115938 0.0154533535 0.042915605
  vertex 0.00934014935 0.0143079199 0.0411248319
  vertex 0.00926022697 0.0141279614 0.0403775312
  endloop
 endfacet

 facet normal 0.204044223 0.867075622 -0.454473138
  outer loop
  vertex 0.00928115938 0.0154533535 0.042915605
  vertex 0.00926022697 0.0141279614 0.0403775312
  vertex 0.00856376253 0.0151979895 0.0421063155
  endloop
 endfacet

 facet normal 0.166956589 0.888110876 -0.428234279
  outer loop
  vertex 0.00928115938 0.0154533535 0.042915605
  vertex 0.00856376253 0.0151979895 0.0421063155
  vertex 0.00856376253 0.0155134927 0.0427606329
  endloop
 endfacet

 facet normal 0.123150252 0.973582923 -0.192276761
  outer loop
  vertex 0.00928115938 0.0154533535 0.042915605
  vertex 0.00856376253 0.0155134927 0.0427606329
  vertex 0.00856376253 0.0157073289 0.0437421128
  endloop
 endfacet

 facet normal 0.194063038 0.972293079 -0.130329221
  outer loop
  vertex 0.00928115938 0.0154533535 0.042915605
  vertex 0.00856376253 0.0157073289 0.0437421128
  vertex 0.00922597479 0.0167079624 0.052193176
  endloop
 endfacet

 facet normal 0.612030327 0.784176171 -0.102403946
  outer loop
  vertex 0.00928115938 0.0154533535 0.042915605
  vertex 0.00922597479 0.0167079624 0.052193176
  vertex 0.00933824573 0.015516731 0.0437421128
  endloop
 endfacet

 facet normal 0.765890121 0.638005674 -0.0797562599
  outer loop
  vertex 0.00933824573 0.015516731 0.0437421128
  vertex 0.00922597479 0.0167079624 0.052193176
  vertex 0.00926783867 0.0167468209 0.0529060438
  endloop
 endfacet

 facet normal 0.822812259 0.564060867 -0.0693931803
  outer loop
  vertex 0.00933824573 0.015516731 0.0437421128
  vertex 0.00926783867 0.0167468209 0.0529060438
  vertex 0.00932302233 0.0181156974 0.064687252
  endloop
 endfacet

 facet normal 0.816352844 0.573243141 -0.0704298243
  outer loop
  vertex 0.00932302233 0.0181156974 0.064687252
  vertex 0.00926783867 0.0167468209 0.0529060438
  vertex 0.00926974136 0.0180578735 0.0635990128
  endloop
 endfacet

 facet normal 0.755851984 0.649859786 -0.079812929
  outer loop
  vertex 0.00926974136 0.0180578735 0.0635990128
  vertex 0.00926783867 0.0167468209 0.0529060438
  vertex 0.00922597479 0.0167079624 0.052193176
  endloop
 endfacet

 facet normal 0.724919438 0.683729351 -0.0837027878
  outer loop
  vertex 0.00926974136 0.0180578735 0.0635990128
  vertex 0.00922597479 0.0167079624 0.052193176
  vertex 0.00921455771 0.0180092957 0.0627242923
  endloop
 endfacet

 facet normal 0.0705250353 0.990612388 -0.117104173
  outer loop
  vertex 0.00921455771 0.0180092957 0.0627242923
  vertex 0.00834302511 0.0180412177 0.0624694489
  vertex 0.00869316049 0.0181082971 0.0632477477
  endloop
 endfacet

 facet normal 0.0739634484 0.990757406 -0.11370673
  outer loop
  vertex 0.00921455771 0.0180092957 0.0627242923
  vertex 0.00869316049 0.0181082971 0.0632477477
  vertex 0.00856376253 0.0182831641 0.064687252
  endloop
 endfacet

 facet normal 0.0893808827 0.990070105 -0.108499378
  outer loop
  vertex 0.00921455771 0.0180092957 0.0627242923
  vertex 0.00856376253 0.0182831641 0.064687252
  vertex 0.00856376253 0.0184265748 0.0659958944
  endloop
 endfacet

 facet normal 0.0820535198 0.989115834 -0.122136489
  outer loop
  vertex 0.00921455771 0.0180092957 0.0627242923
  vertex 0.00922597479 0.0167079624 0.052193176
  vertex 0.00856376253 0.0167352576 0.0519693308
  endloop
 endfacet

 facet normal 0.0718218833 0.989974976 -0.121619135
  outer loop
  vertex 0.00921455771 0.0180092957 0.0627242923
  vertex 0.00856376253 0.0167352576 0.0519693308
  vertex 0.00834302511 0.0180412177 0.0624694489
  endloop
 endfacet

 facet normal 0.0599562079 0.992260575 -0.108739406
  outer loop
  vertex 0.00856376253 0.0184265748 0.0659958944
  vertex 0.00856376253 0.0182831641 0.064687252
  vertex 0.00725456188 0.0185056832 0.0659958944
  endloop
 endfacet

 facet normal 0.0600174591 0.993274093 -0.0990185365
  outer loop
  vertex 0.00856376253 0.0184265748 0.0659958944
  vertex 0.00725456188 0.0185056832 0.0659958944
  vertex 0.00725456188 0.0186361391 0.0673045367
  endloop
 endfacet

 facet normal 0 0.995067775 -0.0991973504
  outer loop
  vertex 0.00725456188 0.0186361391 0.0673045367
  vertex 0.00725456188 0.0185056832 0.0659958944
  vertex -0.00845394749 0.0185056832 0.0659958944
  endloop
 endfacet

 facet normal 0 0.995067775 -0.0991973504
  outer loop
  vertex 0.00725456188 0.0186361391 0.0673045367
  vertex -0.00845394749 0.0185056832 0.0659958944
  vertex -0.00845394749 0.0186361391 0.0673045367
  endloop
 endfacet

 facet normal -0.299460411 0.953414142 -0.0363995098
  outer loop
  vertex -0.00845394749 0.0186861008 0.0686131716
  vertex -0.00845394749 0.0186361391 0.0673045367
  vertex -0.00945107173 0.0183229502 0.0673045367
  endloop
 endfacet

 facet normal -0.3167606 0.948255301 -0.0217859354
  outer loop
  vertex -0.00845394749 0.0186861008 0.0686131716
  vertex -0.00945107173 0.0183229502 0.0673045367
  vertex -0.0094662942 0.0183479302 0.0686131716
  endloop
 endfacet

 facet normal -0.981101274 0.12449114 0.148128882
  outer loop
  vertex -0.0094662942 0.0183479302 0.0738511831
  vertex -0.00978978816 0.0173556227 0.0725425407
  vertex -0.00934641156 0.0182355158 0.0747396722
  endloop
 endfacet

 facet normal -0.936063766 0.351830423 0
  outer loop
  vertex -0.0094662942 0.0183479302 0.0738511831
  vertex -0.0094662942 0.0183479302 0.0686131716
  vertex -0.00983926374 0.0173556227 0.0712338984
  endloop
 endfacet

 facet normal -0.963283539 0.266004473 0.0364186242
  outer loop
  vertex -0.0094662942 0.0183479302 0.0738511831
  vertex -0.00983926374 0.0173556227 0.0712338984
  vertex -0.00978978816 0.0173556227 0.0725425407
  endloop
 endfacet

 facet normal -0.980240405 0 0.197810397
  outer loop
  vertex -0.00934641156 0.0182355158 0.0747396722
  vertex -0.00978978816 0.0173556227 0.0725425407
  vertex -0.00934641156 0.0177127607 0.0747396722
  endloop
 endfacet

 facet normal -0.976199389 -0.0636146069 0.207335293
  outer loop
  vertex -0.00934641156 0.0177127607 0.0747396722
  vertex -0.00978978816 0.0173556227 0.0725425407
  vertex -0.00950435176 0.0173079744 0.0738718435
  endloop
 endfacet

 facet normal -0.841929197 -0.413838387 0.34625572
  outer loop
  vertex -0.00934641156 0.0177127607 0.0747396722
  vertex -0.00950435176 0.0173079744 0.0738718435
  vertex -0.00929312967 0.0165238418 0.0734482557
  endloop
 endfacet

 facet normal -0.876183212 -0.394330353 0.277139962
  outer loop
  vertex -0.00929312967 0.0165238418 0.0734482557
  vertex -0.0094054006 0.0160714053 0.0724495575
  vertex -0.00934641156 0.0139604965 0.0696325302
  endloop
 endfacet

 facet normal -0.703552246 -0.585307717 0.403025091
  outer loop
  vertex -0.00929312967 0.0165238418 0.0734482557
  vertex -0.00934641156 0.0139604965 0.0696325302
  vertex -0.00916944072 0.0153460251 0.0719536468
  endloop
 endfacet

 facet normal -0.881347537 -0.385199249 0.273583889
  outer loop
  vertex -0.00929312967 0.0165238418 0.0734482557
  vertex -0.00950435176 0.0173079744 0.0738718435
  vertex -0.0094054006 0.0160714053 0.0724495575
  endloop
 endfacet

 facet normal -0.0512495302 -0.818428814 0.572317898
  outer loop
  vertex -0.00916944072 0.0153460251 0.0719536468
  vertex -0.00845394749 0.0153228967 0.0719846487
  vertex -0.00845394749 0.0164354835 0.0735756755
  endloop
 endfacet

 facet normal -0.333242238 -0.798177838 0.501858413
  outer loop
  vertex -0.00916944072 0.0153460251 0.0719536468
  vertex -0.00934641156 0.0139604965 0.0696325302
  vertex -0.00908190664 0.0139604965 0.0698081702
  endloop
 endfacet

 facet normal -0.190759182 -0.828158975 0.527033091
  outer loop
  vertex -0.00916944072 0.0153460251 0.0719536468
  vertex -0.00908190664 0.0139604965 0.0698081702
  vertex -0.00845394749 0.0139604965 0.0700354576
  endloop
 endfacet

 facet normal -0.0512457713 -0.81855619 0.572136045
  outer loop
  vertex -0.00916944072 0.0153460251 0.0719536468
  vertex -0.00845394749 0.0139604965 0.0700354576
  vertex -0.00845394749 0.0153228967 0.0719846487
  endloop
 endfacet

 facet normal -0.00242316118 -0.819503307 0.573069334
  outer loop
  vertex -0.00845394749 0.0164354835 0.0735756755
  vertex -0.00845394749 0.0153228967 0.0719846487
  vertex -0.0078583369 0.0139604965 0.0700388998
  endloop
 endfacet

 facet normal -0.00109670334 -0.819400311 0.573220611
  outer loop
  vertex -0.00845394749 0.0164354835 0.0735756755
  vertex -0.0078583369 0.0139604965 0.0700388998
  vertex -0.0071447459 0.0147955148 0.0712338984
  endloop
 endfacet

 facet normal 0 -0.819498777 0.573080957
  outer loop
  vertex 0.00725456188 0.0147955148 0.0712338984
  vertex -0.0071447459 0.0147955148 0.0712338984
  vertex -0.0071447459 0.014210307 0.0703970566
  endloop
 endfacet

 facet normal 0 -0.819498777 0.573080957
  outer loop
  vertex 0.00725456188 0.0147955148 0.0712338984
  vertex -0.0071447459 0.014210307 0.0703970566
  vertex 0.00725456188 0.014210307 0.0703970566
  endloop
 endfacet

 facet normal -0.000747654471 -0.819498539 0.573080778
  outer loop
  vertex -0.0078583369 0.0139604965 0.0700388998
  vertex -0.0071447459 0.014210307 0.0703970566
  vertex -0.0071447459 0.0147955148 0.0712338984
  endloop
 endfacet

 facet normal -0.00330999959 -0.819628656 0.572885633
  outer loop
  vertex -0.0078583369 0.0139604965 0.0700388998
  vertex -0.00845394749 0.0153228967 0.0719846487
  vertex -0.00845394749 0.0139604965 0.0700354576
  endloop
 endfacet

 facet normal 0.942838967 0.286700726 -0.169875145
  outer loop
  vertex 0.00934014935 0.0143079199 0.0411248319
  vertex 0.00929067377 0.0139604965 0.0402638838
  vertex 0.00926022697 0.0141279614 0.0403775312
  endloop
 endfacet

 facet normal 0.392317951 0.564288616 -0.726405561
  outer loop
  vertex 0.00929067377 0.0139604965 0.0402638838
  vertex 0.00856376253 0.0139604965 0.0398712941
  vertex 0.00926022697 0.0141279614 0.0403775312
  endloop
 endfacet

 facet normal 0.14745231 0.860561788 -0.487535983
  outer loop
  vertex 0.00926022697 0.0141279614 0.0403775312
  vertex 0.00856376253 0.0139604965 0.0398712941
  vertex 0.00856376253 0.0141848642 0.0402673297
  endloop
 endfacet

 facet normal 0.146320254 0.86645025 -0.477340937
  outer loop
  vertex 0.00926022697 0.0141279614 0.0403775312
  vertex 0.00856376253 0.0141848642 0.0402673297
  vertex 0.00856376253 0.0151979895 0.0421063155
  endloop
 endfacet

 facet normal 0.0781786665 0.897996783 -0.433001101
  outer loop
  vertex 0.00856376253 0.0151979895 0.0421063155
  vertex 0.00725456188 0.0152770961 0.0420339964
  vertex 0.00856376253 0.0155134927 0.0427606329
  endloop
 endfacet

 facet normal 0.0793274641 0.873116851 -0.481013715
  outer loop
  vertex 0.00856376253 0.0151979895 0.0421063155
  vertex 0.00856376253 0.0141848642 0.0402673297
  vertex 0.00725456188 0.0152770961 0.0420339964
  endloop
 endfacet

 facet normal 0.0335478149 0.976287127 -0.213864535
  outer loop
  vertex 0.00856376253 0.0155134927 0.0427606329
  vertex 0.00725456188 0.0155426376 0.0426883139
  vertex 0.00725456188 0.0157734826 0.0437421128
  endloop
 endfacet

 facet normal 0.0495112464 0.979847431 -0.19351396
  outer loop
  vertex 0.00856376253 0.0155134927 0.0427606329
  vertex 0.00725456188 0.0157734826 0.0437421128
  vertex 0.00856376253 0.0157073289 0.0437421128
  endloop
 endfacet

 facet normal 0.0413647294 0.925809443 -0.37572071
  outer loop
  vertex 0.00856376253 0.0155134927 0.0427606329
  vertex 0.00725456188 0.0152770961 0.0420339964
  vertex 0.00725456188 0.0155426376 0.0426883139
  endloop
 endfacet

 facet normal 0.0500768051 0.991039991 -0.12382289
  outer loop
  vertex 0.00856376253 0.0157073289 0.0437421128
  vertex 0.00725456188 0.0157734826 0.0437421128
  vertex 0.00856376253 0.0167352576 0.0519693308
  endloop
 endfacet

 facet normal 0.0825243145 0.988900304 -0.123555556
  outer loop
  vertex 0.00856376253 0.0157073289 0.0437421128
  vertex 0.00856376253 0.0167352576 0.0519693308
  vertex 0.00922597479 0.0167079624 0.052193176
  endloop
 endfacet

 facet normal 0.0291586276 0.992141724 -0.121673971
  outer loop
  vertex 0.00834302511 0.0180412177 0.0624694489
  vertex 0.00725456188 0.0179769136 0.061684262
  vertex 0.00725456188 0.0185056832 0.0659958944
  endloop
 endfacet

 facet normal 0.0549625307 0.991994798 -0.113690048
  outer loop
  vertex 0.00834302511 0.0180412177 0.0624694489
  vertex 0.00725456188 0.0185056832 0.0659958944
  vertex 0.00856376253 0.0182831641 0.064687252
  endloop
 endfacet

 facet normal 0.0648153871 0.991295695 -0.114594445
  outer loop
  vertex 0.00834302511 0.0180412177 0.0624694489
  vertex 0.00856376253 0.0182831641 0.064687252
  vertex 0.00869316049 0.0181082971 0.0632477477
  endloop
 endfacet

 facet normal 0.041140873 0.991619408 -0.122468658
  outer loop
  vertex 0.00834302511 0.0180412177 0.0624694489
  vertex 0.00856376253 0.0167352576 0.0519693308
  vertex 0.00725456188 0.0157734826 0.0437421128
  endloop
 endfacet

 facet normal 0.0329119787 0.991980195 -0.122034065
  outer loop
  vertex 0.00834302511 0.0180412177 0.0624694489
  vertex 0.00725456188 0.0157734826 0.0437421128
  vertex 0.00725456188 0.0159344729 0.0450507551
  endloop
 endfacet

 facet normal 0.0292675979 0.992120326 -0.121823289
  outer loop
  vertex 0.00834302511 0.0180412177 0.0624694489
  vertex 0.00725456188 0.0159344729 0.0450507551
  vertex 0.00725456188 0.0179769136 0.061684262
  endloop
 endfacet

 facet normal 0 0.992563844 -0.121725731
  outer loop
  vertex 0.00725456188 0.0185056832 0.0659958944
  vertex 0.00725456188 0.0179769136 0.061684262
  vertex -0.0071447459 0.0179769136 0.061684262
  endloop
 endfacet

 facet normal 0 0.992563844 -0.121725731
  outer loop
  vertex 0.00725456188 0.0185056832 0.0659958944
  vertex -0.0071447459 0.0179769136 0.061684262
  vertex -0.00845394749 0.0185056832 0.0659958944
  endloop
 endfacet

 facet normal -0.157176346 0.982699633 -0.0979643762
  outer loop
  vertex -0.00845394749 0.0186361391 0.0673045367
  vertex -0.00845394749 0.0185056832 0.0659958944
  vertex -0.00915992539 0.0180412177 0.0624694489
  endloop
 endfacet

 facet normal -0.255467743 0.963398576 -0.0812378228
  outer loop
  vertex -0.00845394749 0.0186361391 0.0673045367
  vertex -0.00915992539 0.0180412177 0.0624694489
  vertex -0.00923794508 0.0180971939 0.0633786097
  endloop
 endfacet

 facet normal -0.265825421 0.96079433 -0.0788119212
  outer loop
  vertex -0.00845394749 0.0186361391 0.0673045367
  vertex -0.00923794508 0.0180971939 0.0633786097
  vertex -0.00933499355 0.0181776881 0.064687252
  endloop
 endfacet

 facet normal -0.278730929 0.957522094 -0.0738944188
  outer loop
  vertex -0.00845394749 0.0186361391 0.0673045367
  vertex -0.00933499355 0.0181776881 0.064687252
  vertex -0.0094054006 0.0182581842 0.0659958944
  endloop
 endfacet

 facet normal -0.299161851 0.952463567 -0.0575790405
  outer loop
  vertex -0.00845394749 0.0186361391 0.0673045367
  vertex -0.0094054006 0.0182581842 0.0659958944
  vertex -0.00945107173 0.0183229502 0.0673045367
  endloop
 endfacet

 facet normal -0.934912086 0.353115022 -0.0353459939
  outer loop
  vertex -0.00945107173 0.0183229502 0.0673045367
  vertex -0.009766954 0.0173556227 0.0659958944
  vertex -0.00981642958 0.0173556227 0.0673045367
  endloop
 endfacet

 facet normal -0.935351312 0.353280932 -0.0176240895
  outer loop
  vertex -0.00945107173 0.0183229502 0.0673045367
  vertex -0.00981642958 0.0173556227 0.0673045367
  vertex -0.0094662942 0.0183479302 0.0686131716
  endloop
 endfacet

 facet normal -0.895759761 0.441355109 -0.0531043783
  outer loop
  vertex -0.00945107173 0.0183229502 0.0673045367
  vertex -0.0094054006 0.0182581842 0.0659958944
  vertex -0.00946248882 0.0170401204 0.0568354055
  endloop
 endfacet

 facet normal -0.93087852 0.362737983 -0.0434327573
  outer loop
  vertex -0.00945107173 0.0183229502 0.0673045367
  vertex -0.00946248882 0.0170401204 0.0568354055
  vertex -0.009766954 0.0173556227 0.0659958944
  endloop
 endfacet

 facet normal -0.937240064 0.348682374 -0.00135937938
  outer loop
  vertex -0.0094662942 0.0183479302 0.0686131716
  vertex -0.00983736105 0.0173556227 0.0699218139
  vertex -0.00983926374 0.0173556227 0.0712338984
  endloop
 endfacet

 facet normal -0.937758029 0.34707281 -0.0122727025
  outer loop
  vertex -0.0094662942 0.0183479302 0.0686131716
  vertex -0.00981642958 0.0173556227 0.0673045367
  vertex -0.00983355567 0.0173556227 0.0686131716
  endloop
 endfacet

 facet normal -0.937825084 0.347097635 -0.00272691017
  outer loop
  vertex -0.0094662942 0.0183479302 0.0686131716
  vertex -0.00983355567 0.0173556227 0.0686131716
  vertex -0.00983736105 0.0173556227 0.0699218139
  endloop
 endfacet

 facet normal -0.998902917 -0.027694976 0.0377652794
  outer loop
  vertex -0.00978978816 0.0173556227 0.0725425407
  vertex -0.00983926374 0.0173556227 0.0712338984
  vertex -0.00985258445 0.0160468873 0.0699218139
  endloop
 endfacet

 facet normal -0.989391923 -0.119098559 0.0831824243
  outer loop
  vertex -0.00978978816 0.0173556227 0.0725425407
  vertex -0.00985258445 0.0160468873 0.0699218139
  vertex -0.00980501249 0.014737688 0.0686131716
  endloop
 endfacet

 facet normal -0.983753562 -0.147620484 0.102163278
  outer loop
  vertex -0.00978978816 0.0173556227 0.0725425407
  vertex -0.00980501249 0.014737688 0.0686131716
  vertex -0.00976885669 0.0139604965 0.0678383186
  endloop
 endfacet

 facet normal -0.973392785 -0.187839657 0.13123633
  outer loop
  vertex -0.00978978816 0.0173556227 0.0725425407
  vertex -0.00976885669 0.0139604965 0.0678383186
  vertex -0.0097136721 0.0160468873 0.0712338984
  endloop
 endfacet

 facet normal -0.948501945 -0.249862894 0.194711775
  outer loop
  vertex -0.00978978816 0.0173556227 0.0725425407
  vertex -0.0097136721 0.0160468873 0.0712338984
  vertex -0.00950435176 0.0173079744 0.0738718435
  endloop
 endfacet

 facet normal -0.999694288 0.0246811714 -0.00144996331
  outer loop
  vertex -0.00983926374 0.0173556227 0.0712338984
  vertex -0.00983736105 0.0173556227 0.0699218139
  vertex -0.00985258445 0.0160468873 0.058140602
  endloop
 endfacet

 facet normal -0.999948204 0.0101775443 0
  outer loop
  vertex -0.00983926374 0.0173556227 0.0712338984
  vertex -0.00985258445 0.0160468873 0.058140602
  vertex -0.00985258445 0.0160468873 0.0699218139
  endloop
 endfacet

 facet normal -0.917884231 -0.324755281 0.228084981
  outer loop
  vertex -0.00950435176 0.0173079744 0.0738718435
  vertex -0.0097136721 0.0160468873 0.0712338984
  vertex -0.00948722661 0.0139604965 0.0691745058
  endloop
 endfacet

 facet normal -0.889313936 -0.373935103 0.263236344
  outer loop
  vertex -0.00950435176 0.0173079744 0.0738718435
  vertex -0.00948722661 0.0139604965 0.0691745058
  vertex -0.0094054006 0.0160714053 0.0724495575
  endloop
 endfacet

 facet normal -0.881626368 -0.386352271 0.271047682
  outer loop
  vertex -0.0094054006 0.0160714053 0.0724495575
  vertex -0.00948722661 0.0139604965 0.0691745058
  vertex -0.00934641156 0.0139604965 0.0696325302
  endloop
 endfacet

 facet normal 0.0724200457 0.867787778 -0.49162969
  outer loop
  vertex 0.00856376253 0.0139604965 0.0398712941
  vertex 0.00725456188 0.0139604965 0.0396784395
  vertex 0.00856376253 0.0141848642 0.0402673297
  endloop
 endfacet

 facet normal 0.0696935281 0.87078011 -0.486708254
  outer loop
  vertex 0.00856376253 0.0141848642 0.0402673297
  vertex 0.00725456188 0.0139604965 0.0396784395
  vertex 0.00725456188 0.0152770961 0.0420339964
  endloop
 endfacet

 facet normal 0.00131031766 0.926601708 -0.376042247
  outer loop
  vertex 0.00725456188 0.0152770961 0.0420339964
  vertex 0.00594536029 0.0152789475 0.0420339964
  vertex 0.00725456188 0.0155426376 0.0426883139
  endloop
 endfacet

 facet normal 0.00123438041 0.872901917 -0.487894267
  outer loop
  vertex 0.00725456188 0.0152770961 0.0420339964
  vertex 0.00725456188 0.0139604965 0.0396784395
  vertex 0.00594536029 0.0152789475 0.0420339964
  endloop
 endfacet

 facet normal 0 0.927514076 -0.373788208
  outer loop
  vertex 0.00725456188 0.0155426376 0.0426883139
  vertex 0.00594536029 0.0152789475 0.0420339964
  vertex -0.00583554525 0.0152789475 0.0420339964
  endloop
 endfacet

 facet normal 0 0.927514076 -0.373788208
  outer loop
  vertex 0.00725456188 0.0155426376 0.0426883139
  vertex -0.00583554525 0.0152789475 0.0420339964
  vertex -0.00845394749 0.0155426376 0.0426883139
  endloop
 endfacet

 facet normal 0 0.97683692 -0.213984951
  outer loop
  vertex 0.00725456188 0.0155426376 0.0426883139
  vertex -0.00845394749 0.0155426376 0.0426883139
  vertex -0.00845394749 0.0157734826 0.0437421128
  endloop
 endfacet

 facet normal 0 0.97683692 -0.213984951
  outer loop
  vertex 0.00725456188 0.0155426376 0.0426883139
  vertex -0.00845394749 0.0157734826 0.0437421128
  vertex 0.00725456188 0.0157734826 0.0437421128
  endloop
 endfacet

 facet normal 0 0.992517829 -0.122100197
  outer loop
  vertex 0.00725456188 0.0157734826 0.0437421128
  vertex -0.00845394749 0.0157734826 0.0437421128
  vertex -0.00845394749 0.0159344729 0.0450507551
  endloop
 endfacet

 facet normal 0 0.992517829 -0.122100197
  outer loop
  vertex 0.00725456188 0.0157734826 0.0437421128
  vertex -0.00845394749 0.0159344729 0.0450507551
  vertex 0.00725456188 0.0159344729 0.0450507551
  endloop
 endfacet

 facet normal 0 0.992545485 -0.12187548
  outer loop
  vertex 0.00725456188 0.0179769136 0.061684262
  vertex 0.00725456188 0.0159344729 0.0450507551
  vertex -0.00845394749 0.0159344729 0.0450507551
  endloop
 endfacet

 facet normal 0 0.992545485 -0.12187548
  outer loop
  vertex 0.00725456188 0.0179769136 0.061684262
  vertex -0.00845394749 0.0159344729 0.0450507551
  vertex -0.0071447459 0.0179769136 0.061684262
  endloop
 endfacet

 facet normal -9.75674338e-05 0.992560267 -0.121754915
  outer loop
  vertex -0.00845394749 0.0185056832 0.0659958944
  vertex -0.0071447459 0.0179769136 0.061684262
  vertex -0.00845394749 0.0181846265 0.0633786097
  endloop
 endfacet

 facet normal -0.0447821729 0.991564393 -0.12163277
  outer loop
  vertex -0.00845394749 0.0185056832 0.0659958944
  vertex -0.00845394749 0.0181846265 0.0633786097
  vertex -0.00915992539 0.0180412177 0.0624694489
  endloop
 endfacet

 facet normal -0.0446479693 0.991557837 -0.121735953
  outer loop
  vertex -0.00915992539 0.0180412177 0.0624694489
  vertex -0.00845394749 0.0181846265 0.0633786097
  vertex -0.00845394749 0.0159344729 0.0450507551
  endloop
 endfacet

 facet normal -0.0507052019 0.991241097 -0.121943131
  outer loop
  vertex -0.00915992539 0.0180412177 0.0624694489
  vertex -0.00845394749 0.0159344729 0.0450507551
  vertex -0.00845394749 0.0157734826 0.0437421128
  endloop
 endfacet

 facet normal -0.0622669123 0.990538716 -0.122293934
  outer loop
  vertex -0.00915992539 0.0180412177 0.0624694489
  vertex -0.00845394749 0.0157734826 0.0437421128
  vertex -0.00917134341 0.0167398825 0.0519348904
  endloop
 endfacet

 facet normal -0.576645672 0.810907006 -0.0995464697
  outer loop
  vertex -0.00915992539 0.0180412177 0.0624694489
  vertex -0.00917134341 0.0167398825 0.0519348904
  vertex -0.00925507117 0.0167995617 0.0529060438
  endloop
 endfacet

 facet normal -0.577590346 0.810246229 -0.0994512886
  outer loop
  vertex -0.00915992539 0.0180412177 0.0624694489
  vertex -0.00925507117 0.0167995617 0.0529060438
  vertex -0.00923794508 0.0180971939 0.0633786097
  endloop
 endfacet

 facet normal -0.632748187 0.768606365 -0.0942015722
  outer loop
  vertex -0.00923794508 0.0180971939 0.0633786097
  vertex -0.00925507117 0.0167995617 0.0529060438
  vertex -0.00933499355 0.0181776881 0.064687252
  endloop
 endfacet

 facet normal -0.656742275 0.748480976 -0.0920101404
  outer loop
  vertex -0.00933499355 0.0181776881 0.064687252
  vertex -0.00925507117 0.0167995617 0.0529060438
  vertex -0.00935782865 0.0155828837 0.0437421128
  endloop
 endfacet

 facet normal -0.748248279 0.658484817 -0.0807611346
  outer loop
  vertex -0.00933499355 0.0181776881 0.064687252
  vertex -0.00935782865 0.0155828837 0.0437421128
  vertex -0.0094054006 0.0182581842 0.0659958944
  endloop
 endfacet

 facet normal -0.772236824 0.630595207 -0.0774595961
  outer loop
  vertex -0.0094054006 0.0182581842 0.0659958944
  vertex -0.00935782865 0.0155828837 0.0437421128
  vertex -0.009414915 0.0169605501 0.0555267669
  endloop
 endfacet

 facet normal -0.85956955 0.507232785 -0.062089622
  outer loop
  vertex -0.0094054006 0.0182581842 0.0659958944
  vertex -0.009414915 0.0169605501 0.0555267669
  vertex -0.00946248882 0.0170401204 0.0568354055
  endloop
 endfacet

 facet normal -0.931071639 0.362243235 -0.0434221402
  outer loop
  vertex -0.009766954 0.0173556227 0.0659958944
  vertex -0.00946248882 0.0170401204 0.0568354055
  vertex -0.00978788547 0.0160468873 0.0555267669
  endloop
 endfacet

 facet normal -0.952241004 0.303218156 -0.0360011421
  outer loop
  vertex -0.009766954 0.0173556227 0.0659958944
  vertex -0.00978788547 0.0160468873 0.0555267669
  vertex -0.00981642958 0.0173556227 0.0673045367
  endloop
 endfacet

 facet normal -0.955831707 0.291853487 -0.034747012
  outer loop
  vertex -0.00981642958 0.0173556227 0.0673045367
  vertex -0.00978788547 0.0160468873 0.0555267669
  vertex -0.00983545836 0.0160468873 0.0568354055
  endloop
 endfacet

 facet normal -0.992850482 0.118651956 -0.0130279716
  outer loop
  vertex -0.00981642958 0.0173556227 0.0673045367
  vertex -0.00983545836 0.0160468873 0.0568354055
  vertex -0.00985258445 0.0160468873 0.058140602
  endloop
 endfacet

 facet normal -0.992879212 0.118415512 -0.0129940882
  outer loop
  vertex -0.00981642958 0.0173556227 0.0673045367
  vertex -0.00985258445 0.0160468873 0.058140602
  vertex -0.00983355567 0.0173556227 0.0686131716
  endloop
 endfacet

 facet normal -0.860216498 0.506140172 -0.062046703
  outer loop
  vertex -0.00946248882 0.0170401204 0.0568354055
  vertex -0.009414915 0.0169605501 0.0555267669
  vertex -0.00942252763 0.0156633798 0.0450507551
  endloop
 endfacet

 facet normal -0.886831999 0.458614558 -0.0565847866
  outer loop
  vertex -0.00946248882 0.0170401204 0.0568354055
  vertex -0.00942252763 0.0156633798 0.0450507551
  vertex -0.0094662942 0.0157406349 0.0463628396
  endloop
 endfacet

 facet normal -0.930315077 0.364011407 -0.0448301919
  outer loop
  vertex -0.00946248882 0.0170401204 0.0568354055
  vertex -0.0094662942 0.0157406349 0.0463628396
  vertex -0.0097954981 0.014737688 0.0450507551
  endloop
 endfacet

 facet normal -0.93039006 0.363824099 -0.0447914787
  outer loop
  vertex -0.00946248882 0.0170401204 0.0568354055
  vertex -0.0097954981 0.014737688 0.0450507551
  vertex -0.00978788547 0.0160468873 0.0555267669
  endloop
 endfacet

 facet normal -0.999281824 0.0377800539 -0.00290560769
  outer loop
  vertex -0.00983736105 0.0173556227 0.0699218139
  vertex -0.00983355567 0.0173556227 0.0686131716
  vertex -0.00985258445 0.0160468873 0.058140602
  endloop
 endfacet

 facet normal -0.999995708 0.00290718977 0
  outer loop
  vertex -0.00985258445 0.0160468873 0.0699218139
  vertex -0.00985258445 0.0160468873 0.058140602
  vertex -0.00985639077 0.014737688 0.0476714782
  endloop
 endfacet

 facet normal -1 0 0.000171058491
  outer loop
  vertex -0.00985258445 0.0160468873 0.0699218139
  vertex -0.00985639077 0.014737688 0.0476714782
  vertex -0.00985639077 0.0139604965 0.0476714782
  endloop
 endfacet

 facet normal -0.999181867 -0.0402508304 0.00394519791
  outer loop
  vertex -0.00985258445 0.0160468873 0.0699218139
  vertex -0.00985639077 0.0139604965 0.0476714782
  vertex -0.00980501249 0.014737688 0.0686131716
  endloop
 endfacet

 facet normal -0.9987005 -0.0507815555 0.00433483487
  outer loop
  vertex -0.00980501249 0.014737688 0.0686131716
  vertex -0.00985639077 0.0139604965 0.0476714782
  vertex -0.00976885669 0.0139604965 0.0678383186
  endloop
 endfacet

 facet normal -0.934683204 -0.295899957 0.197004169
  outer loop
  vertex -0.00976885669 0.0139604965 0.0678383186
  vertex -0.00948722661 0.0139604965 0.0691745058
  vertex -0.0097136721 0.0160468873 0.0712338984
  endloop
 endfacet

 facet normal -0.994147658 0.107239865 -0.0130449934
  outer loop
  vertex -0.00985258445 0.0160468873 0.058140602
  vertex -0.00983545836 0.0160468873 0.0568354055
  vertex -0.00983926374 0.014737688 0.0463628396
  endloop
 endfacet

 facet normal -0.994180918 0.106934503 -0.0130110858
  outer loop
  vertex -0.00985258445 0.0160468873 0.058140602
  vertex -0.00983926374 0.014737688 0.0463628396
  vertex -0.00985639077 0.014737688 0.0476714782
  endloop
 endfacet

 facet normal 0 0.872610331 -0.488417089
  outer loop
  vertex 0.00725456188 0.0139604965 0.0396784395
  vertex -0.00740354182 0.0139604965 0.0396784395
  vertex -0.00583554525 0.0152789475 0.0420339964
  endloop
 endfacet

 facet normal 0 0.872610331 -0.488417089
  outer loop
  vertex 0.00725456188 0.0139604965 0.0396784395
  vertex -0.00583554525 0.0152789475 0.0420339964
  vertex 0.00594536029 0.0152789475 0.0420339964
  endloop
 endfacet

 facet normal -0.000327396032 0.927059114 -0.374914944
  outer loop
  vertex -0.00845394749 0.0155426376 0.0426883139
  vertex -0.00583554525 0.0152789475 0.0420339964
  vertex -0.0071447459 0.0152784847 0.0420339964
  endloop
 endfacet

 facet normal -0.00716909254 0.922201574 -0.386643261
  outer loop
  vertex -0.00845394749 0.0155426376 0.0426883139
  vertex -0.0071447459 0.0152784847 0.0420339964
  vertex -0.00845394749 0.0152683072 0.0420339964
  endloop
 endfacet

 facet normal -0.122291371 0.91530323 -0.383751005
  outer loop
  vertex -0.00845394749 0.0155426376 0.0426883139
  vertex -0.00845394749 0.0152683072 0.0420339964
  vertex -0.00924936216 0.0154926749 0.0428226218
  endloop
 endfacet

 facet normal -0.0970310196 0.972227693 -0.212975249
  outer loop
  vertex -0.00845394749 0.0155426376 0.0426883139
  vertex -0.00924936216 0.0154926749 0.0428226218
  vertex -0.00845394749 0.0157734826 0.0437421128
  endloop
 endfacet

 facet normal -0.191380501 0.972668171 -0.13149175
  outer loop
  vertex -0.00845394749 0.0157734826 0.0437421128
  vertex -0.00924936216 0.0154926749 0.0428226218
  vertex -0.00917134341 0.0167398825 0.0519348904
  endloop
 endfacet

 facet normal -0.000232277831 0.992547512 -0.121857457
  outer loop
  vertex -0.0071447459 0.0179769136 0.061684262
  vertex -0.00845394749 0.0159344729 0.0450507551
  vertex -0.00845394749 0.0181846265 0.0633786097
  endloop
 endfacet

 facet normal -0.290545404 0.948353589 -0.127314731
  outer loop
  vertex -0.00917134341 0.0167398825 0.0519348904
  vertex -0.00924936216 0.0154926749 0.0428226218
  vertex -0.00935782865 0.0155828837 0.0437421128
  endloop
 endfacet

 facet normal -0.587701082 0.80287385 -0.100005955
  outer loop
  vertex -0.00917134341 0.0167398825 0.0519348904
  vertex -0.00935782865 0.0155828837 0.0437421128
  vertex -0.00925507117 0.0167995617 0.0529060438
  endloop
 endfacet

 facet normal -0.899830103 0.410919487 -0.146461546
  outer loop
  vertex -0.00935782865 0.0155828837 0.0437421128
  vertex -0.00924936216 0.0154926749 0.0428226218
  vertex -0.00949103199 0.0148149459 0.042405922
  endloop
 endfacet

 facet normal -0.905942917 0.399776906 -0.139448315
  outer loop
  vertex -0.00935782865 0.0155828837 0.0437421128
  vertex -0.00949103199 0.0148149459 0.042405922
  vertex -0.00973079912 0.014737688 0.0437421128
  endloop
 endfacet

 facet normal -0.912644565 0.40273422 -0.0698935613
  outer loop
  vertex -0.00935782865 0.0155828837 0.0437421128
  vertex -0.00973079912 0.014737688 0.0437421128
  vertex -0.00942252763 0.0156633798 0.0450507551
  endloop
 endfacet

 facet normal -0.776628673 0.625252843 -0.07685633
  outer loop
  vertex -0.00935782865 0.0155828837 0.0437421128
  vertex -0.00942252763 0.0156633798 0.0450507551
  vertex -0.009414915 0.0169605501 0.0555267669
  endloop
 endfacet

 facet normal -0.958110392 0.284273863 -0.0348298475
  outer loop
  vertex -0.00978788547 0.0160468873 0.0555267669
  vertex -0.0097954981 0.014737688 0.0450507551
  vertex -0.00983545836 0.0160468873 0.0568354055
  endloop
 endfacet

 facet normal -0.964993894 0.260289758 -0.0321887061
  outer loop
  vertex -0.00983545836 0.0160468873 0.0568354055
  vertex -0.0097954981 0.014737688 0.0450507551
  vertex -0.00983926374 0.014737688 0.0463628396
  endloop
 endfacet

 facet normal -0.922410905 0.38251549 -0.053290844
  outer loop
  vertex -0.00942252763 0.0156633798 0.0450507551
  vertex -0.00973079912 0.014737688 0.0437421128
  vertex -0.0094662942 0.0157406349 0.0463628396
  endloop
 endfacet

 facet normal -0.929749429 0.365312457 -0.0459666103
  outer loop
  vertex -0.0094662942 0.0157406349 0.0463628396
  vertex -0.00973079912 0.014737688 0.0437421128
  vertex -0.0097954981 0.014737688 0.0450507551
  endloop
 endfacet

 facet normal -0.988498688 0.143115014 -0.0488711558
  outer loop
  vertex -0.0097954981 0.014737688 0.0450507551
  vertex -0.00973079912 0.014737688 0.0437421128
  vertex -0.00980501249 0.0139604965 0.0429672599
  endloop
 endfacet

 facet normal -0.994324744 0.10108678 -0.0331670716
  outer loop
  vertex -0.0097954981 0.014737688 0.0450507551
  vertex -0.00980501249 0.0139604965 0.0429672599
  vertex -0.00983926374 0.014737688 0.0463628396
  endloop
 endfacet

 facet normal -0.999593377 0.0253386777 -0.0130819194
  outer loop
  vertex -0.00985639077 0.014737688 0.0476714782
  vertex -0.00983926374 0.014737688 0.0463628396
  vertex -0.00983165298 0.0139604965 0.0442759022
  endloop
 endfacet

 facet normal -0.999593377 0.0253354218 -0.0130811743
  outer loop
  vertex -0.00985639077 0.014737688 0.0476714782
  vertex -0.00983165298 0.0139604965 0.0442759022
  vertex -0.00984877814 0.0139604965 0.0455845445
  endloop
 endfacet

 facet normal -0.999966145 0.00582499709 -0.0058167032
  outer loop
  vertex -0.00985639077 0.014737688 0.0476714782
  vertex -0.00984877814 0.0139604965 0.0455845445
  vertex -0.00985639077 0.0139604965 0.0468931794
  endloop
 endfacet

 facet normal -1 0 0
  outer loop
  vertex -0.00985639077 0.014737688 0.0476714782
  vertex -0.00985639077 0.0139604965 0.0468931794
  vertex -0.00985639077 0.0139604965 0.0476714782
  endloop
 endfacet

 facet normal -0.998788297 0.0448172055 -0.0203329343
  outer loop
  vertex -0.00983926374 0.014737688 0.0463628396
  vertex -0.00980501249 0.0139604965 0.0429672599
  vertex -0.00983165298 0.0139604965 0.0442759022
  endloop
 endfacet

 facet normal -0.0112270406 0.872100115 -0.489198744
  outer loop
  vertex -0.00740354182 0.0139604965 0.0396784395
  vertex -0.00845394749 0.0139604965 0.0397025459
  vertex -0.00845394749 0.0152683072 0.0420339964
  endloop
 endfacet

 facet normal -0.00678645447 0.872980773 -0.487707496
  outer loop
  vertex -0.00740354182 0.0139604965 0.0396784395
  vertex -0.00845394749 0.0152683072 0.0420339964
  vertex -0.0071447459 0.0152784847 0.0420339964
  endloop
 endfacet

 facet normal -0.000308197981 0.872697711 -0.488260865
  outer loop
  vertex -0.00740354182 0.0139604965 0.0396784395
  vertex -0.0071447459 0.0152784847 0.0420339964
  vertex -0.00583554525 0.0152789475 0.0420339964
  endloop
 endfacet

 facet normal -0.116146713 0.866252363 -0.485918492
  outer loop
  vertex -0.00845394749 0.0152683072 0.0420339964
  vertex -0.00845394749 0.0139604965 0.0397025459
  vertex -0.0086556552 0.0139604965 0.0397507586
  endloop
 endfacet

 facet normal -0.150300056 0.863545775 -0.481350958
  outer loop
  vertex -0.00845394749 0.0152683072 0.0420339964
  vertex -0.0086556552 0.0139604965 0.0397507586
  vertex -0.0092189163 0.0141695989 0.0403017662
  endloop
 endfacet

 facet normal -0.208608791 0.864932239 -0.456480682
  outer loop
  vertex -0.00845394749 0.0152683072 0.0420339964
  vertex -0.0092189163 0.0141695989 0.0403017662
  vertex -0.00924936216 0.0154926749 0.0428226218
  endloop
 endfacet

 facet normal -0.750123739 0.581776023 -0.314405859
  outer loop
  vertex -0.00924936216 0.0154926749 0.0428226218
  vertex -0.0092189163 0.0141695989 0.0403017662
  vertex -0.00937876012 0.0144083062 0.0411248319
  endloop
 endfacet

 facet normal -0.869609118 0.443505287 -0.216986522
  outer loop
  vertex -0.00924936216 0.0154926749 0.0428226218
  vertex -0.00937876012 0.0144083062 0.0411248319
  vertex -0.00949103199 0.0148149459 0.042405922
  endloop
 endfacet

 facet normal -0.937518656 0.313903183 -0.150079414
  outer loop
  vertex -0.00949103199 0.0148149459 0.042405922
  vertex -0.00965087675 0.0139604965 0.0416172929
  vertex -0.00973079912 0.014737688 0.0437421128
  endloop
 endfacet

 facet normal -0.912202239 0.360673368 -0.194426998
  outer loop
  vertex -0.00949103199 0.0148149459 0.042405922
  vertex -0.00937876012 0.0144083062 0.0411248319
  vertex -0.00942443032 0.0139604965 0.0405083932
  endloop
 endfacet

 facet normal -0.919508159 0.345321596 -0.18777059
  outer loop
  vertex -0.00949103199 0.0148149459 0.042405922
  vertex -0.00942443032 0.0139604965 0.0405083932
  vertex -0.00965087675 0.0139604965 0.0416172929
  endloop
 endfacet

 facet normal -0.972731054 0.203615248 -0.111064069
  outer loop
  vertex -0.00973079912 0.014737688 0.0437421128
  vertex -0.00965087675 0.0139604965 0.0416172929
  vertex -0.00980501249 0.0139604965 0.0429672599
  endloop
 endfacet

 facet normal -0.434079111 0.600444019 -0.671596885
  outer loop
  vertex -0.0086556552 0.0139604965 0.0397507586
  vertex -0.00929503236 0.0139604965 0.0401640162
  vertex -0.0092189163 0.0141695989 0.0403017662
  endloop
 endfacet

 facet normal -0.812398851 0.496819049 -0.305252463
  outer loop
  vertex -0.0092189163 0.0141695989 0.0403017662
  vertex -0.00929503236 0.0139604965 0.0401640162
  vertex -0.00942443032 0.0139604965 0.0405083932
  endloop
 endfacet

 facet normal -0.811995864 0.499176443 -0.302466005
  outer loop
  vertex -0.0092189163 0.0141695989 0.0403017662
  vertex -0.00942443032 0.0139604965 0.0405083932
  vertex -0.00937876012 0.0144083062 0.0411248319
  endloop
 endfacet

endsolid AssimpScene
