solid AssimpScene
 facet normal 0.999995172 0.00310262572 -0.000386149128
  outer loop
  vertex 0.00963760819 0.0036864467 -0.0319685191
  vertex 0.00962684583 0.0064614648 -0.037542019
  vertex 0.00962899812 0.0064614648 -0.0319685191
  endloop
 endfacet

 facet normal 0.996198833 0.00309084682 0.0870540291
  outer loop
  vertex 0.00963760819 0.0036864467 -0.0319685191
  vertex 0.00962899812 0.0064614648 -0.0319685191
  vertex 0.00745510962 0.00543563906 -0.00705530215
  endloop
 endfacet

 facet normal 0.996184766 0 0.0872698128
  outer loop
  vertex 0.00963760819 0.0036864467 -0.0319685191
  vertex 0.00745510962 0.00543563906 -0.00705530215
  vertex 0.00745510962 -0.00414578756 -0.00705530215
  endloop
 endfacet

 facet normal 0.996219039 -0.00128817547 0.0868678316
  outer loop
  vertex 0.00963760819 0.0036864467 -0.0319685191
  vertex 0.00745510962 -0.00414578756 -0.00705530215
  vertex 0.00962684583 -0.00463649165 -0.0319685191
  endloop
 endfacet

 facet normal 0.999998331 -0.00129306247 0.00127689005
  outer loop
  vertex 0.00963760819 0.0036864467 -0.0319685191
  vertex 0.00962684583 -0.00463649165 -0.0319685191
  vertex 0.00962684583 -0.00602400163 -0.0333736055
  endloop
 endfacet

 facet normal 0.999999404 -0.00110829994 0
  outer loop
  vertex 0.00963760819 0.0036864467 -0.0319685191
  vertex 0.00962684583 -0.00602400163 -0.0333736055
  vertex 0.00962684583 -0.00602400163 -0.034764275
  endloop
 endfacet

 facet normal 0.999999225 -0.000847638294 -0.000905351597
  outer loop
  vertex 0.00963760819 0.0036864467 -0.0319685191
  vertex 0.00962684583 -0.00602400163 -0.034764275
  vertex 0.00962684583 0.00368856173 -0.0438576937
  endloop
 endfacet

 facet normal 0.999999523 0 -0.000905201014
  outer loop
  vertex 0.00963760819 0.0036864467 -0.0319685191
  vertex 0.00962684583 0.00368856173 -0.0438576937
  vertex 0.00962684583 0.00507607078 -0.0438576937
  endloop
 endfacet

 facet normal 0.999996305 0.00269212225 -0.000590538781
  outer loop
  vertex 0.00963760819 0.0036864467 -0.0319685191
  vertex 0.00962684583 0.00507607078 -0.0438576937
  vertex 0.00962684583 0.0064614648 -0.037542019
  endloop
 endfacet

 facet normal 0.999995828 0.00282650045 -0.000620015722
  outer loop
  vertex 0.00962684583 0.0064614648 -0.037542019
  vertex 0.00962684583 0.00507607078 -0.0438576937
  vertex 0.00962469354 0.00583750848 -0.0438576937
  endloop
 endfacet

 facet normal 0.99997586 0.00687512709 -0.00101999275
  outer loop
  vertex 0.00962684583 0.0064614648 -0.037542019
  vertex 0.00962469354 0.00583750848 -0.0438576937
  vertex 0.00962038897 0.00646357983 -0.0438576937
  endloop
 endfacet

 facet normal 0.999855697 0.0169579741 -0.0010164933
  outer loop
  vertex 0.00962684583 0.0064614648 -0.037542019
  vertex 0.00962038897 0.00646357983 -0.0438576937
  vertex 0.00960747525 0.00722501799 -0.0438576937
  endloop
 endfacet

 facet normal 0.99975425 0.0221700165 -0.000386056083
  outer loop
  vertex 0.00962684583 0.0064614648 -0.037542019
  vertex 0.00960747525 0.00722501799 -0.0438576937
  vertex 0.00962899812 0.0064614648 -0.0319685191
  endloop
 endfacet

 facet normal 0.994954228 0.0468016043 0.0887452513
  outer loop
  vertex 0.00962899812 0.0064614648 -0.0319685191
  vertex 0.00956442766 0.00783416815 -0.0319685191
  vertex 0.00745510962 0.00543563906 -0.00705530215
  endloop
 endfacet

 facet normal 0.999536932 0.0304302555 0.000144830905
  outer loop
  vertex 0.00962899812 0.0064614648 -0.0319685191
  vertex 0.00960747525 0.00722501799 -0.0438576937
  vertex 0.00958810281 0.00785108842 -0.041706834
  endloop
 endfacet

 facet normal 0.998892426 0.0469868481 0.00251010666
  outer loop
  vertex 0.00962899812 0.0064614648 -0.0319685191
  vertex 0.00958810281 0.00785108842 -0.041706834
  vertex 0.00956442766 0.00783416815 -0.0319685191
  endloop
 endfacet

 facet normal 0.98491621 0.143169224 0.0971731991
  outer loop
  vertex 0.00745510962 0.00543563906 -0.00705530215
  vertex 0.00956442766 0.00783416815 -0.0319685191
  vertex 0.00956227537 0.00784897339 -0.0319685191
  endloop
 endfacet

 facet normal 0.878945291 0.46181801 0.119077556
  outer loop
  vertex 0.00745510962 0.00543563906 -0.00705530215
  vertex 0.00956227537 0.00784897339 -0.0319685191
  vertex 0.00901772641 0.00888537522 -0.0319685191
  endloop
 endfacet

 facet normal 0.717398047 0.68255198 0.139509976
  outer loop
  vertex 0.00745510962 0.00543563906 -0.00705530215
  vertex 0.00901772641 0.00888537522 -0.0319685191
  vertex 0.00745510962 0.00911169127 -0.0250403732
  endloop
 endfacet

 facet normal -0.0250010844 0.979437709 0.200191841
  outer loop
  vertex 0.00745510962 0.00543563906 -0.00705530215
  vertex 0.00745510962 0.00911169127 -0.0250403732
  vertex -0.0101942867 0.00498512108 -0.00705530215
  endloop
 endfacet

 facet normal 0 0 1
  outer loop
  vertex 0.00745510962 0.00543563906 -0.00705530215
  vertex -0.0101942867 0.00498512108 -0.00705530215
  vertex -0.0114103733 0.00477361074 -0.00705530215
  endloop
 endfacet

 facet normal 0 0 1
  outer loop
  vertex 0.00745510962 0.00543563906 -0.00705530215
  vertex -0.0114103733 0.00477361074 -0.00705530215
  vertex -0.0114663346 0.00476092007 -0.00705530215
  endloop
 endfacet

 facet normal 0 0 1
  outer loop
  vertex 0.00745510962 0.00543563906 -0.00705530215
  vertex -0.0114663346 0.00476092007 -0.00705530215
  vertex -0.0122390343 0.00401428808 -0.00705530215
  endloop
 endfacet

 facet normal 0 0 1
  outer loop
  vertex 0.00745510962 0.00543563906 -0.00705530215
  vertex -0.0122390343 0.00401428808 -0.00705530215
  vertex -0.0123509578 0.0036864467 -0.00705530215
  endloop
 endfacet

 facet normal 0 0 1
  outer loop
  vertex 0.00745510962 0.00543563906 -0.00705530215
  vertex -0.0123509578 0.0036864467 -0.00705530215
  vertex -0.0118903508 -0.000473965047 -0.00705530215
  endloop
 endfacet

 facet normal 0 0 1
  outer loop
  vertex 0.00745510962 0.00543563906 -0.00705530215
  vertex -0.0118903508 -0.000473965047 -0.00705530215
  vertex -0.0113845449 -0.00172399241 -0.00705530215
  endloop
 endfacet

 facet normal 0 0 1
  outer loop
  vertex 0.00745510962 0.00543563906 -0.00705530215
  vertex -0.0113845449 -0.00172399241 -0.00705530215
  vertex -0.00955503434 -0.00399138546 -0.00705530215
  endloop
 endfacet

 facet normal 0 0 1
  outer loop
  vertex 0.00745510962 0.00543563906 -0.00705530215
  vertex -0.00955503434 -0.00399138546 -0.00705530215
  vertex -0.0088275345 -0.00409079529 -0.00705530215
  endloop
 endfacet

 facet normal 0 0 1
  outer loop
  vertex 0.00745510962 0.00543563906 -0.00705530215
  vertex -0.0088275345 -0.00409079529 -0.00705530215
  vertex -0.00880385935 -0.00409291033 -0.00705530215
  endloop
 endfacet

 facet normal 0 0 1
  outer loop
  vertex 0.00745510962 0.00543563906 -0.00705530215
  vertex -0.00880385935 -0.00409291033 -0.00705530215
  vertex -0.00741558336 -0.00414578756 -0.00705530215
  endloop
 endfacet

 facet normal 0 0 1
  outer loop
  vertex 0.00745510962 0.00543563906 -0.00705530215
  vertex -0.00741558336 -0.00414578756 -0.00705530215
  vertex -0.00607250724 -0.00414790306 -0.00705530215
  endloop
 endfacet

 facet normal 0 0 1
  outer loop
  vertex 0.00745510962 0.00543563906 -0.00705530215
  vertex -0.00607250724 -0.00414790306 -0.00705530215
  vertex 0.00645641144 -0.00414790306 -0.00705530215
  endloop
 endfacet

 facet normal 0 0 1
  outer loop
  vertex 0.00745510962 0.00543563906 -0.00705530215
  vertex 0.00645641144 -0.00414790306 -0.00705530215
  vertex 0.00745510962 -0.00414578756 -0.00705530215
  endloop
 endfacet

 facet normal 0.00206804625 -0.976296782 0.2164267
  outer loop
  vertex 0.00745510962 -0.00414578756 -0.00705530215
  vertex 0.00645641144 -0.00414790306 -0.00705530215
  vertex 0.00784683973 -0.0110558365 -0.0382301509
  endloop
 endfacet

 facet normal 0.0769834593 -0.973202109 0.216682106
  outer loop
  vertex 0.00745510962 -0.00414578756 -0.00705530215
  vertex 0.00784683973 -0.0110558365 -0.0382301509
  vertex 0.0085420534 -0.0110008428 -0.0382301509
  endloop
 endfacet

 facet normal 0.28551203 -0.93387717 0.215305477
  outer loop
  vertex 0.00745510962 -0.00414578756 -0.00705530215
  vertex 0.0085420534 -0.0110008428 -0.0382301509
  vertex 0.00863891002 -0.0109712314 -0.0382301509
  endloop
 endfacet

 facet normal 0.841866374 -0.519636035 0.145737633
  outer loop
  vertex 0.00745510962 -0.00414578756 -0.00705530215
  vertex 0.00863891002 -0.0109712314 -0.0382301509
  vertex 0.00911673531 -0.010197103 -0.0382301509
  endloop
 endfacet

 facet normal 0.932496905 -0.342012823 0.116090022
  outer loop
  vertex 0.00745510962 -0.00414578756 -0.00705530215
  vertex 0.00911673531 -0.010197103 -0.0382301509
  vertex 0.00937071443 -0.00879901927 -0.0361513458
  endloop
 endfacet

 facet normal 0.951876581 -0.286630303 0.108508788
  outer loop
  vertex 0.00745510962 -0.00414578756 -0.00705530215
  vertex 0.00937071443 -0.00879901927 -0.0361513458
  vertex 0.00947187562 -0.00741150929 -0.0333736055
  endloop
 endfacet

 facet normal 0.973139286 -0.207226515 0.100285277
  outer loop
  vertex 0.00745510962 -0.00414578756 -0.00705530215
  vertex 0.00947187562 -0.00741150929 -0.0333736055
  vertex 0.00962254126 -0.00602400163 -0.0319685191
  endloop
 endfacet

 facet normal 0.996212125 -0.0030905148 0.0869027302
  outer loop
  vertex 0.00745510962 -0.00414578756 -0.00705530215
  vertex 0.00962254126 -0.00602400163 -0.0319685191
  vertex 0.00962684583 -0.00463649165 -0.0319685191
  endloop
 endfacet

 facet normal 0.999990463 -0.00310223619 0.00306343636
  outer loop
  vertex 0.00962684583 -0.00463649165 -0.0319685191
  vertex 0.00962254126 -0.00602400163 -0.0319685191
  vertex 0.00962684583 -0.00602400163 -0.0333736055
  endloop
 endfacet

 facet normal 0.999902606 -0.0139596034 0
  outer loop
  vertex 0.00962684583 -0.00602400163 -0.0333736055
  vertex 0.00960747525 -0.00741150929 -0.034764275
  vertex 0.00962684583 -0.00602400163 -0.034764275
  endloop
 endfacet

 facet normal 0.999850273 -0.0170288626 0.00306300679
  outer loop
  vertex 0.00962684583 -0.00602400163 -0.0333736055
  vertex 0.00962254126 -0.00602400163 -0.0319685191
  vertex 0.00960747525 -0.00741150929 -0.034764275
  endloop
 endfacet

 facet normal 0.999891698 -0.0139594516 -0.00465511158
  outer loop
  vertex 0.00962684583 -0.00602400163 -0.034764275
  vertex 0.00960747525 -0.00741150929 -0.034764275
  vertex 0.00960101746 -0.00741150929 -0.0361513458
  endloop
 endfacet

 facet normal 0.999913216 -0.00900180731 -0.00961471442
  outer loop
  vertex 0.00962684583 -0.00602400163 -0.034764275
  vertex 0.00960101746 -0.00741150929 -0.0361513458
  vertex 0.00962684583 0.00368856173 -0.0438576937
  endloop
 endfacet

 facet normal 0 0 -1
  outer loop
  vertex 0.00962684583 0.00368856173 -0.0438576937
  vertex 0.00943528581 0.00230105268 -0.0438576937
  vertex 0.00889289007 0.00139578781 -0.0438576937
  endloop
 endfacet

 facet normal 0 0 -1
  outer loop
  vertex 0.00962684583 0.00368856173 -0.0438576937
  vertex 0.00889289007 0.00139578781 -0.0438576937
  vertex 0.00403715298 -0.000114397175 -0.0438576937
  endloop
 endfacet

 facet normal 0 0 -1
  outer loop
  vertex 0.00962684583 0.00368856173 -0.0438576937
  vertex 0.00403715298 -0.000114397175 -0.0438576937
  vertex 0.0036820129 -0.000215922439 -0.0438576937
  endloop
 endfacet

 facet normal 0 0 -1
  outer loop
  vertex 0.00962684583 0.00368856173 -0.0438576937
  vertex 0.0036820129 -0.000215922439 -0.0438576937
  vertex 0.00292007532 -0.000311102252 -0.0438576937
  endloop
 endfacet

 facet normal 0 0 -1
  outer loop
  vertex 0.00962684583 0.00368856173 -0.0438576937
  vertex 0.00292007532 -0.000311102252 -0.0438576937
  vertex 0.00229373714 -0.000376670272 -0.0438576937
  endloop
 endfacet

 facet normal 0 0 -1
  outer loop
  vertex 0.00962684583 0.00368856173 -0.0438576937
  vertex 0.00229373714 -0.000376670272 -0.0438576937
  vertex 0.000905461318 -0.000344944012 -0.0438576937
  endloop
 endfacet

 facet normal 0 0 -1
  outer loop
  vertex 0.00962684583 0.00368856173 -0.0438576937
  vertex 0.000905461318 -0.000344944012 -0.0438576937
  vertex -0.00880601164 0.00130906841 -0.0438576937
  endloop
 endfacet

 facet normal 0 0 -1
  outer loop
  vertex 0.00962684583 0.00368856173 -0.0438576937
  vertex -0.00880601164 0.00130906841 -0.0438576937
  vertex -0.00960669108 0.00149308261 -0.0438576937
  endloop
 endfacet

 facet normal 0 0 -1
  outer loop
  vertex 0.00962684583 0.00368856173 -0.0438576937
  vertex -0.00960669108 0.00149308261 -0.0438576937
  vertex -0.00969709083 0.00183995976 -0.0438576937
  endloop
 endfacet

 facet normal 0 0 -1
  outer loop
  vertex 0.00962684583 0.00368856173 -0.0438576937
  vertex -0.00969709083 0.00183995976 -0.0438576937
  vertex -0.00980686117 0.00230105268 -0.0438576937
  endloop
 endfacet

 facet normal 0 0 -1
  outer loop
  vertex 0.00962684583 0.00368856173 -0.0438576937
  vertex -0.00980686117 0.00230105268 -0.0438576937
  vertex -0.00985851791 0.002925009 -0.0438576937
  endloop
 endfacet

 facet normal 0 0 -1
  outer loop
  vertex 0.00962684583 0.00368856173 -0.0438576937
  vertex -0.00985851791 0.002925009 -0.0438576937
  vertex -0.00989726093 0.00368856173 -0.0438576937
  endloop
 endfacet

 facet normal 0 0 -1
  outer loop
  vertex 0.00962684583 0.00368856173 -0.0438576937
  vertex -0.00989726093 0.00368856173 -0.0438576937
  vertex -0.00989726093 0.00646357983 -0.0438576937
  endloop
 endfacet

 facet normal 0 0 -1
  outer loop
  vertex 0.00962684583 0.00368856173 -0.0438576937
  vertex -0.00989726093 0.00646357983 -0.0438576937
  vertex -0.00988219399 0.00785108842 -0.0438576937
  endloop
 endfacet

 facet normal 0 0 -1
  outer loop
  vertex 0.00962684583 0.00368856173 -0.0438576937
  vertex -0.00988219399 0.00785108842 -0.0438576937
  vertex -0.00971000455 0.00921744667 -0.0438576937
  endloop
 endfacet

 facet normal 0 0 -1
  outer loop
  vertex 0.00962684583 0.00368856173 -0.0438576937
  vertex -0.00971000455 0.00921744667 -0.0438576937
  vertex -0.00936993118 0.00983928703 -0.0438576937
  endloop
 endfacet

 facet normal 0 0 -1
  outer loop
  vertex 0.00962684583 0.00368856173 -0.0438576937
  vertex -0.00936993118 0.00983928703 -0.0438576937
  vertex -0.00936347432 0.00984774809 -0.0438576937
  endloop
 endfacet

 facet normal 0 0 -1
  outer loop
  vertex 0.00962684583 0.00368856173 -0.0438576937
  vertex -0.00936347432 0.00984774809 -0.0438576937
  vertex -0.00869408809 0.0101840496 -0.0438576937
  endloop
 endfacet

 facet normal 0 0 -1
  outer loop
  vertex 0.00962684583 0.00368856173 -0.0438576937
  vertex -0.00869408809 0.0101840496 -0.0438576937
  vertex -0.00788479857 0.0103046112 -0.0438576937
  endloop
 endfacet

 facet normal 0 0 -1
  outer loop
  vertex 0.00962684583 0.00368856173 -0.0438576937
  vertex -0.00788479857 0.0103046112 -0.0438576937
  vertex -0.00741773564 0.0103447977 -0.0438576937
  endloop
 endfacet

 facet normal 0 0 -1
  outer loop
  vertex 0.00962684583 0.00368856173 -0.0438576937
  vertex -0.00741773564 0.0103447977 -0.0438576937
  vertex 0.00645856373 0.0103447977 -0.0438576937
  endloop
 endfacet

 facet normal 0 0 -1
  outer loop
  vertex 0.00962684583 0.00368856173 -0.0438576937
  vertex 0.00645856373 0.0103447977 -0.0438576937
  vertex 0.00722050061 0.0103321075 -0.0438576937
  endloop
 endfacet

 facet normal 0 0 -1
  outer loop
  vertex 0.00962684583 0.00368856173 -0.0438576937
  vertex 0.00722050061 0.0103321075 -0.0438576937
  vertex 0.00784468651 0.0103109553 -0.0438576937
  endloop
 endfacet

 facet normal 0 0 -1
  outer loop
  vertex 0.00962684583 0.00368856173 -0.0438576937
  vertex 0.00784468651 0.0103109553 -0.0438576937
  vertex 0.00874652807 0.0101057915 -0.0438576937
  endloop
 endfacet

 facet normal 0 0 -1
  outer loop
  vertex 0.00962684583 0.00368856173 -0.0438576937
  vertex 0.00874652807 0.0101057915 -0.0438576937
  vertex 0.00896391645 0.00977372006 -0.0438576937
  endloop
 endfacet

 facet normal 0 0 -1
  outer loop
  vertex 0.00962684583 0.00368856173 -0.0438576937
  vertex 0.00896391645 0.00977372006 -0.0438576937
  vertex 0.00924802944 0.00923859794 -0.0438576937
  endloop
 endfacet

 facet normal 0 0 -1
  outer loop
  vertex 0.00962684583 0.00368856173 -0.0438576937
  vertex 0.00924802944 0.00923859794 -0.0438576937
  vertex 0.00946326647 0.00861464255 -0.0438576937
  endloop
 endfacet

 facet normal 0 0 -1
  outer loop
  vertex 0.00962684583 0.00368856173 -0.0438576937
  vertex 0.00946326647 0.00861464255 -0.0438576937
  vertex 0.00958164595 0.00785108842 -0.0438576937
  endloop
 endfacet

 facet normal 0 0 -1
  outer loop
  vertex 0.00962684583 0.00368856173 -0.0438576937
  vertex 0.00958164595 0.00785108842 -0.0438576937
  vertex 0.00960747525 0.00722501799 -0.0438576937
  endloop
 endfacet

 facet normal 0 0 -1
  outer loop
  vertex 0.00962684583 0.00368856173 -0.0438576937
  vertex 0.00960747525 0.00722501799 -0.0438576937
  vertex 0.00962038897 0.00646357983 -0.0438576937
  endloop
 endfacet

 facet normal 0 0 -1
  outer loop
  vertex 0.00962684583 0.00368856173 -0.0438576937
  vertex 0.00962038897 0.00646357983 -0.0438576937
  vertex 0.00962469354 0.00583750848 -0.0438576937
  endloop
 endfacet

 facet normal 0 0 -1
  outer loop
  vertex 0.00962684583 0.00368856173 -0.0438576937
  vertex 0.00962469354 0.00583750848 -0.0438576937
  vertex 0.00962684583 0.00507607078 -0.0438576937
  endloop
 endfacet

 facet normal 0.99646771 -0.0494442657 -0.0678787753
  outer loop
  vertex 0.00962684583 0.00368856173 -0.0438576937
  vertex 0.00960101746 -0.00741150929 -0.0361513458
  vertex 0.0094374381 -0.00879901927 -0.037542019
  endloop
 endfacet

 facet normal 0.970650375 -0.120101504 -0.208359167
  outer loop
  vertex 0.00962684583 0.00368856173 -0.0438576937
  vertex 0.0094374381 -0.00879901927 -0.037542019
  vertex 0.00911673531 -0.010197103 -0.0382301509
  endloop
 endfacet

 facet normal 0.961553276 -0.132752627 -0.240399718
  outer loop
  vertex 0.00962684583 0.00368856173 -0.0438576937
  vertex 0.00911673531 -0.010197103 -0.0382301509
  vertex 0.00943528581 0.00230105268 -0.0438576937
  endloop
 endfacet

 facet normal 0.999145627 0.0412198491 -0.00299932179
  outer loop
  vertex 0.00960747525 0.00722501799 -0.0438576937
  vertex 0.00958164595 0.00785108842 -0.0438576937
  vertex 0.00958810281 0.00785108842 -0.041706834
  endloop
 endfacet

 facet normal 0.991359234 0.131148174 0.00263802754
  outer loop
  vertex 0.00956442766 0.00783416815 -0.0319685191
  vertex 0.00958810281 0.00785108842 -0.041706834
  vertex 0.00940084737 0.00923859794 -0.0403161608
  endloop
 endfacet

 facet normal 0.989588141 0.14384833 0.00480944663
  outer loop
  vertex 0.00956442766 0.00783416815 -0.0319685191
  vertex 0.00940084737 0.00923859794 -0.0403161608
  vertex 0.00956227537 0.00784897339 -0.0319685191
  endloop
 endfacet

 facet normal 0.99061197 0.136671856 -0.0029737053
  outer loop
  vertex 0.00958810281 0.00785108842 -0.041706834
  vertex 0.00958164595 0.00785108842 -0.0438576937
  vertex 0.00940084737 0.00923859794 -0.0403161608
  endloop
 endfacet

 facet normal 0.892493725 0.447415531 0.0572216325
  outer loop
  vertex 0.00956227537 0.00784897339 -0.0319685191
  vertex 0.00940084737 0.00923859794 -0.0403161608
  vertex 0.00889719371 0.0102432724 -0.0403161608
  endloop
 endfacet

 facet normal 0.883498907 0.46421057 0.0627554879
  outer loop
  vertex 0.00956227537 0.00784897339 -0.0319685191
  vertex 0.00889719371 0.0102432724 -0.0403161608
  vertex 0.00901772641 0.00888537522 -0.0319685191
  endloop
 endfacet

 facet normal 0.658265054 0.742467344 0.124215558
  outer loop
  vertex 0.00901772641 0.00888537522 -0.0319685191
  vertex 0.00745510962 0.00934435241 -0.0264310483
  vertex 0.00745510962 0.00911169127 -0.0250403732
  endloop
 endfacet

 facet normal 0.633418679 0.765167654 0.115322635
  outer loop
  vertex 0.00901772641 0.00888537522 -0.0319685191
  vertex 0.00889719371 0.0102432724 -0.0403161608
  vertex 0.00745510962 0.00934435241 -0.0264310483
  endloop
 endfacet

 facet normal -0.0310709141 0.985816121 0.164928049
  outer loop
  vertex 0.00745510962 0.00911169127 -0.0250403732
  vertex 0.00745510962 0.00934435241 -0.0264310483
  vertex -0.0101942867 0.00878807995 -0.0264310483
  endloop
 endfacet

 facet normal -0.0331498161 0.980738163 0.192493588
  outer loop
  vertex 0.00745510962 0.00911169127 -0.0250403732
  vertex -0.0101942867 0.00878807995 -0.0264310483
  vertex -0.0101942867 0.00498512108 -0.00705530215
  endloop
 endfacet

 facet normal -0.0813528746 0.9780249 0.191961035
  outer loop
  vertex -0.0101942867 0.00498512108 -0.00705530215
  vertex -0.0101942867 0.00878807995 -0.0264310483
  vertex -0.0109260911 0.00857022405 -0.0256312322
  endloop
 endfacet

 facet normal -0.168126732 0.966650605 0.193184301
  outer loop
  vertex -0.0101942867 0.00498512108 -0.00705530215
  vertex -0.0109260911 0.00857022405 -0.0256312322
  vertex -0.0114103733 0.00477361074 -0.00705530215
  endloop
 endfacet

 facet normal 0 -0.9763183 0.216339231
  outer loop
  vertex 0.00645641144 -0.00414790306 -0.00705530215
  vertex -0.00607250724 -0.00414790306 -0.00705530215
  vertex -0.00741558336 -0.0110558365 -0.0382301509
  endloop
 endfacet

 facet normal 0 -0.9763183 0.216339231
  outer loop
  vertex 0.00645641144 -0.00414790306 -0.00705530215
  vertex -0.00741558336 -0.0110558365 -0.0382301509
  vertex 0.00784683973 -0.0110558365 -0.0382301509
  endloop
 endfacet

 facet normal 0 -0.466195911 -0.884681463
  outer loop
  vertex 0.00784683973 -0.0110558365 -0.0382301509
  vertex -0.00741558336 -0.0110558365 -0.0382301509
  vertex 0.00229373714 -0.000376670272 -0.0438576937
  endloop
 endfacet

 facet normal 0.0356998369 -0.45130676 -0.891654491
  outer loop
  vertex 0.00784683973 -0.0110558365 -0.0382301509
  vertex 0.00229373714 -0.000376670272 -0.0438576937
  vertex 0.0085420534 -0.0110008428 -0.0382301509
  endloop
 endfacet

 facet normal 0.0466883928 -0.445990741 -0.893819094
  outer loop
  vertex 0.0085420534 -0.0110008428 -0.0382301509
  vertex 0.00229373714 -0.000376670272 -0.0438576937
  vertex 0.00292007532 -0.000311102252 -0.0438576937
  endloop
 endfacet

 facet normal 0.0552414432 -0.442221135 -0.895203292
  outer loop
  vertex 0.0085420534 -0.0110008428 -0.0382301509
  vertex 0.00292007532 -0.000311102252 -0.0438576937
  vertex 0.0036820129 -0.000215922439 -0.0438576937
  endloop
 endfacet

 facet normal 0.119095884 -0.416603267 -0.901253581
  outer loop
  vertex 0.0085420534 -0.0110008428 -0.0382301509
  vertex 0.0036820129 -0.000215922439 -0.0438576937
  vertex 0.00403715298 -0.000114397175 -0.0438576937
  endloop
 endfacet

 facet normal 0.126483724 -0.413713813 -0.90157795
  outer loop
  vertex 0.0085420534 -0.0110008428 -0.0382301509
  vertex 0.00403715298 -0.000114397175 -0.0438576937
  vertex 0.00863891002 -0.0109712314 -0.0382301509
  endloop
 endfacet

 facet normal 0.128426597 -0.412933379 -0.901661038
  outer loop
  vertex 0.00863891002 -0.0109712314 -0.0382301509
  vertex 0.00403715298 -0.000114397175 -0.0438576937
  vertex 0.00889289007 0.00139578781 -0.0438576937
  endloop
 endfacet

 facet normal 0.567913055 -0.35054034 -0.744712234
  outer loop
  vertex 0.00863891002 -0.0109712314 -0.0382301509
  vertex 0.00889289007 0.00139578781 -0.0438576937
  vertex 0.00911673531 -0.010197103 -0.0382301509
  endloop
 endfacet

 facet normal 0.968406796 -0.245009154 0.0464635901
  outer loop
  vertex 0.00911673531 -0.010197103 -0.0382301509
  vertex 0.0094374381 -0.00879901927 -0.037542019
  vertex 0.00937071443 -0.00879901927 -0.0361513458
  endloop
 endfacet

 facet normal 0.579069972 -0.346953809 -0.737767637
  outer loop
  vertex 0.00911673531 -0.010197103 -0.0382301509
  vertex 0.00889289007 0.00139578781 -0.0438576937
  vertex 0.00943528581 0.00230105268 -0.0438576937
  endloop
 endfacet

 facet normal 0.96163094 -0.257825941 0.0937654823
  outer loop
  vertex 0.00937071443 -0.00879901927 -0.0361513458
  vertex 0.00960747525 -0.00741150929 -0.034764275
  vertex 0.00947187562 -0.00741150929 -0.0333736055
  endloop
 endfacet

 facet normal 0.975858986 -0.213324293 0.0468211435
  outer loop
  vertex 0.00937071443 -0.00879901927 -0.0361513458
  vertex 0.0094374381 -0.00879901927 -0.037542019
  vertex 0.00960747525 -0.00741150929 -0.034764275
  endloop
 endfacet

 facet normal 0.974743545 -0.202093109 0.0950440466
  outer loop
  vertex 0.00947187562 -0.00741150929 -0.0333736055
  vertex 0.00960747525 -0.00741150929 -0.034764275
  vertex 0.00962254126 -0.00602400163 -0.0319685191
  endloop
 endfacet

 facet normal 0.993640065 -0.112507939 -0.00462600635
  outer loop
  vertex 0.00960747525 -0.00741150929 -0.034764275
  vertex 0.0094374381 -0.00879901927 -0.037542019
  vertex 0.00960101746 -0.00741150929 -0.0361513458
  endloop
 endfacet

 facet normal 0.988148808 0.153200805 -0.0095751984
  outer loop
  vertex 0.00958164595 0.00785108842 -0.0438576937
  vertex 0.00946326647 0.00861464255 -0.0438576937
  vertex 0.00940084737 0.00923859794 -0.0403161608
  endloop
 endfacet

 facet normal 0.944550216 0.325827628 -0.0407573991
  outer loop
  vertex 0.00940084737 0.00923859794 -0.0403161608
  vertex 0.00946326647 0.00861464255 -0.0438576937
  vertex 0.00924802944 0.00923859794 -0.0438576937
  endloop
 endfacet

 facet normal 0.893294215 0.447816819 -0.0385457017
  outer loop
  vertex 0.00940084737 0.00923859794 -0.0403161608
  vertex 0.00924802944 0.00923859794 -0.0438576937
  vertex 0.00889719371 0.0102432724 -0.0403161608
  endloop
 endfacet

 facet normal 0.882318377 0.468449891 -0.0454862565
  outer loop
  vertex 0.00889719371 0.0102432724 -0.0403161608
  vertex 0.00924802944 0.00923859794 -0.0438576937
  vertex 0.00896391645 0.00977372006 -0.0438576937
  endloop
 endfacet

 facet normal 0.835314393 0.54683435 -0.0567643754
  outer loop
  vertex 0.00889719371 0.0102432724 -0.0403161608
  vertex 0.00896391645 0.00977372006 -0.0438576937
  vertex 0.00874652807 0.0101057915 -0.0438576937
  endloop
 endfacet

 facet normal 0.281192034 0.95839113 -0.0491670184
  outer loop
  vertex 0.00889719371 0.0102432724 -0.0403161608
  vertex 0.00874652807 0.0101057915 -0.0438576937
  vertex 0.00784468651 0.0105520776 -0.0403161608
  endloop
 endfacet

 facet normal 0.280364931 0.955572009 0.0909817964
  outer loop
  vertex 0.00889719371 0.0102432724 -0.0403161608
  vertex 0.00784468651 0.0105520776 -0.0403161608
  vertex 0.00745510962 0.00934435241 -0.0264310483
  endloop
 endfacet

 facet normal -0.0312365051 0.991070032 0.129631966
  outer loop
  vertex 0.00745510962 0.00934435241 -0.0264310483
  vertex -0.0101942867 0.00896997936 -0.0278217196
  vertex -0.0101942867 0.00878807995 -0.0264310483
  endloop
 endfacet

 facet normal 0 0.996238589 0.0866527185
  outer loop
  vertex 0.00745510962 0.00934435241 -0.0264310483
  vertex 0.00784468651 0.0105520776 -0.0403161608
  vertex -0.00741773564 0.0105520776 -0.0403161608
  endloop
 endfacet

 facet normal -0.0304204635 0.992439389 0.118906707
  outer loop
  vertex 0.00745510962 0.00934435241 -0.0264310483
  vertex -0.00741773564 0.0105520776 -0.0403161608
  vertex -0.0101942867 0.00896997936 -0.0278217196
  endloop
 endfacet

 facet normal -0.147340283 0.980731964 0.128279731
  outer loop
  vertex -0.0101942867 0.00878807995 -0.0264310483
  vertex -0.0101942867 0.00896997936 -0.0278217196
  vertex -0.0110530816 0.00865905918 -0.0264310483
  endloop
 endfacet

 facet normal -0.147262737 0.980215788 0.132252499
  outer loop
  vertex -0.0101942867 0.00878807995 -0.0264310483
  vertex -0.0110530816 0.00865905918 -0.0264310483
  vertex -0.0109260911 0.00857022405 -0.0256312322
  endloop
 endfacet

 facet normal -0.441123068 0.881590307 0.167955622
  outer loop
  vertex -0.0109260911 0.00857022405 -0.0256312322
  vertex -0.0110530816 0.00865905918 -0.0264310483
  vertex -0.0114663346 0.00476092007 -0.00705530215
  endloop
 endfacet

 facet normal -0.217124671 0.957468331 0.190030202
  outer loop
  vertex -0.0109260911 0.00857022405 -0.0256312322
  vertex -0.0114663346 0.00476092007 -0.00705530215
  vertex -0.0114103733 0.00477361074 -0.00705530215
  endloop
 endfacet

 facet normal -0.00153778854 -0.97630322 0.216402113
  outer loop
  vertex -0.00607250724 -0.00414790306 -0.00705530215
  vertex -0.00741558336 -0.00414578756 -0.00705530215
  vertex -0.00741558336 -0.0110558365 -0.0382301509
  endloop
 endfacet

 facet normal -0.0371604674 -0.975629926 0.216252863
  outer loop
  vertex -0.00741558336 -0.0110558365 -0.0382301509
  vertex -0.00741558336 -0.00414578756 -0.00705530215
  vertex -0.00880385935 -0.00409291033 -0.00705530215
  endloop
 endfacet

 facet normal -0.0515215173 -0.975142658 0.215504527
  outer loop
  vertex -0.00741558336 -0.0110558365 -0.0382301509
  vertex -0.00880385935 -0.00409291033 -0.00705530215
  vertex -0.00761575298 -0.0110452613 -0.0382301509
  endloop
 endfacet

 facet normal -0.0237984657 -0.450431228 -0.892493904
  outer loop
  vertex -0.00741558336 -0.0110558365 -0.0382301509
  vertex -0.00761575298 -0.0110452613 -0.0382301509
  vertex 0.000905461318 -0.000344944012 -0.0438576937
  endloop
 endfacet

 facet normal -0.010482545 -0.458694547 -0.888532162
  outer loop
  vertex -0.00741558336 -0.0110558365 -0.0382301509
  vertex 0.000905461318 -0.000344944012 -0.0438576937
  vertex 0.00229373714 -0.000376670272 -0.0438576937
  endloop
 endfacet

 facet normal 0.22134012 0.972944379 -0.0662420616
  outer loop
  vertex 0.00874652807 0.0101057915 -0.0438576937
  vertex 0.00784468651 0.0103109553 -0.0438576937
  vertex 0.00784468651 0.0105520776 -0.0403161608
  endloop
 endfacet

 facet normal 0.033789549 0.997120559 -0.0678880736
  outer loop
  vertex 0.00784468651 0.0105520776 -0.0403161608
  vertex 0.00784468651 0.0103109553 -0.0438576937
  vertex 0.00722050061 0.0103321075 -0.0438576937
  endloop
 endfacet

 facet normal 0.0166173503 0.997753322 -0.0649008304
  outer loop
  vertex 0.00784468651 0.0105520776 -0.0403161608
  vertex 0.00722050061 0.0103321075 -0.0438576937
  vertex 0.00645856373 0.0103447977 -0.0438576937
  endloop
 endfacet

 facet normal 0 0.998291612 -0.0584284514
  outer loop
  vertex 0.00784468651 0.0105520776 -0.0403161608
  vertex 0.00645856373 0.0103447977 -0.0438576937
  vertex -0.00741773564 0.0103447977 -0.0438576937
  endloop
 endfacet

 facet normal 0 0.998291612 -0.0584284514
  outer loop
  vertex 0.00784468651 0.0105520776 -0.0403161608
  vertex -0.00741773564 0.0103447977 -0.0438576937
  vertex -0.00741773564 0.0105520776 -0.0403161608
  endloop
 endfacet

 facet normal -0.0890274644 0.990412652 0.10562627
  outer loop
  vertex -0.0101942867 0.00896997936 -0.0278217196
  vertex -0.00741773564 0.0105520776 -0.0403161608
  vertex -0.00880601164 0.0104272868 -0.0403161608
  endloop
 endfacet

 facet normal -0.20575498 0.974383235 0.0907868892
  outer loop
  vertex -0.0101942867 0.00896997936 -0.0278217196
  vertex -0.00880601164 0.0104272868 -0.0403161608
  vertex -0.0110530816 0.00865905918 -0.0264310483
  endloop
 endfacet

 facet normal -0.085579142 0.994629264 -0.0582141057
  outer loop
  vertex -0.00741773564 0.0105520776 -0.0403161608
  vertex -0.00741773564 0.0103447977 -0.0438576937
  vertex -0.00788479857 0.0103046112 -0.0438576937
  endloop
 endfacet

 facet normal -0.0893791839 0.994325519 -0.0576917268
  outer loop
  vertex -0.00741773564 0.0105520776 -0.0403161608
  vertex -0.00788479857 0.0103046112 -0.0438576937
  vertex -0.00880601164 0.0104272868 -0.0403161608
  endloop
 endfacet

 facet normal -0.689087033 0.71314472 0.128777951
  outer loop
  vertex -0.0110530816 0.00865905918 -0.0264310483
  vertex -0.0122390343 0.00401428808 -0.00705530215
  vertex -0.0114663346 0.00476092007 -0.00705530215
  endloop
 endfacet

 facet normal -0.271947086 0.959134996 0.0781329945
  outer loop
  vertex -0.0110530816 0.00865905918 -0.0264310483
  vertex -0.00880601164 0.0104272868 -0.0403161608
  vertex -0.0111542419 0.00874366332 -0.0278217196
  endloop
 endfacet

 facet normal -0.796891928 0.59672147 0.0942703485
  outer loop
  vertex -0.0110530816 0.00865905918 -0.0264310483
  vertex -0.0111542419 0.00874366332 -0.0278217196
  vertex -0.0122390343 0.00401428808 -0.00705530215
  endloop
 endfacet

 facet normal -0.0869000405 -0.972791851 0.214765757
  outer loop
  vertex -0.00880385935 -0.00409291033 -0.00705530215
  vertex -0.0088275345 -0.00409079529 -0.00705530215
  vertex -0.00880385935 -0.0109754615 -0.0382301509
  endloop
 endfacet

 facet normal -0.0572729856 -0.974883139 0.21522747
  outer loop
  vertex -0.00880385935 -0.00409291033 -0.00705530215
  vertex -0.00880385935 -0.0109754615 -0.0382301509
  vertex -0.00761575298 -0.0110452613 -0.0382301509
  endloop
 endfacet

 facet normal -0.0263654776 -0.448785037 -0.893250704
  outer loop
  vertex -0.00761575298 -0.0110452613 -0.0382301509
  vertex -0.00880385935 -0.0109754615 -0.0382301509
  vertex 0.000905461318 -0.000344944012 -0.0438576937
  endloop
 endfacet

 facet normal -0.0531624332 -0.428843081 -0.901813388
  outer loop
  vertex 0.000905461318 -0.000344944012 -0.0438576937
  vertex -0.00880385935 -0.0109754615 -0.0382301509
  vertex -0.0095033776 -0.0108887441 -0.0382301509
  endloop
 endfacet

 facet normal -0.0706035048 -0.414545864 -0.907285452
  outer loop
  vertex 0.000905461318 -0.000344944012 -0.0438576937
  vertex -0.0095033776 -0.0108887441 -0.0382301509
  vertex -0.00880601164 0.00130906841 -0.0438576937
  endloop
 endfacet

 facet normal -0.146958843 0.986489534 -0.0723977238
  outer loop
  vertex -0.00880601164 0.0104272868 -0.0403161608
  vertex -0.00788479857 0.0103046112 -0.0438576937
  vertex -0.00869408809 0.0101840496 -0.0438576937
  endloop
 endfacet

 facet normal -0.240213081 0.967890382 -0.0740674138
  outer loop
  vertex -0.00880601164 0.0104272868 -0.0403161608
  vertex -0.00869408809 0.0101840496 -0.0438576937
  vertex -0.00963251945 0.010143863 -0.041339349
  endloop
 endfacet

 facet normal -0.354720443 0.93456316 0.0276604146
  outer loop
  vertex -0.00880601164 0.0104272868 -0.0403161608
  vertex -0.00963251945 0.010143863 -0.041339349
  vertex -0.00961960573 0.0101184808 -0.0403161608
  endloop
 endfacet

 facet normal -0.354234189 0.933282077 0.0591841154
  outer loop
  vertex -0.00880601164 0.0104272868 -0.0403161608
  vertex -0.00961960573 0.0101184808 -0.0403161608
  vertex -0.0111542419 0.00874366332 -0.0278217196
  endloop
 endfacet

 facet normal -0.865742683 0.495888114 0.0677097887
  outer loop
  vertex -0.0122390343 0.00401428808 -0.00705530215
  vertex -0.0111542419 0.00874366332 -0.0278217196
  vertex -0.0115567343 0.00785108842 -0.0264310483
  endloop
 endfacet

 facet normal -0.896440506 0.43967554 0.0554975346
  outer loop
  vertex -0.0122390343 0.00401428808 -0.00705530215
  vertex -0.0115567343 0.00785108842 -0.0264310483
  vertex -0.0116428286 0.00785108842 -0.0278217196
  endloop
 endfacet

 facet normal -0.945869625 0.322914928 0.0325057432
  outer loop
  vertex -0.0122390343 0.00401428808 -0.00705530215
  vertex -0.0116428286 0.00785108842 -0.0278217196
  vertex -0.0123509578 0.0036864467 -0.00705530215
  endloop
 endfacet

 facet normal -0.875889897 0.479454339 0.0542252623
  outer loop
  vertex -0.0111542419 0.00874366332 -0.0278217196
  vertex -0.0116428286 0.00785108842 -0.0278217196
  vertex -0.0115567343 0.00785108842 -0.0264310483
  endloop
 endfacet

 facet normal -0.5323686 0.846059084 0.0277071372
  outer loop
  vertex -0.0111542419 0.00874366332 -0.0278217196
  vertex -0.00961960573 0.0101184808 -0.0403161608
  vertex -0.00963251945 0.010143863 -0.041339349
  endloop
 endfacet

 facet normal -0.876128852 0.479585171 -0.0489515737
  outer loop
  vertex -0.0111542419 0.00874366332 -0.0278217196
  vertex -0.00963251945 0.010143863 -0.041339349
  vertex -0.0116428286 0.00785108842 -0.0278217196
  endloop
 endfacet

 facet normal -0.132253706 -0.967857718 0.213917002
  outer loop
  vertex -0.0088275345 -0.00409079529 -0.00705530215
  vertex -0.00955503434 -0.00399138546 -0.00705530215
  vertex -0.0095033776 -0.0108887441 -0.0382301509
  endloop
 endfacet

 facet normal -0.120175496 -0.969414413 0.213994607
  outer loop
  vertex -0.0088275345 -0.00409079529 -0.00705530215
  vertex -0.0095033776 -0.0108887441 -0.0382301509
  vertex -0.00880385935 -0.0109754615 -0.0382301509
  endloop
 endfacet

 facet normal -0.0948156044 -0.412560374 -0.905982256
  outer loop
  vertex -0.00880601164 0.00130906841 -0.0438576937
  vertex -0.0095033776 -0.0108887441 -0.0382301509
  vertex -0.00960669108 0.00149308261 -0.0438576937
  endloop
 endfacet

 facet normal -0.770981669 -0.622088432 0.136358023
  outer loop
  vertex -0.0095033776 -0.0108887441 -0.0382301509
  vertex -0.00955503434 -0.00399138546 -0.00705530215
  vertex -0.0113845449 -0.00172399241 -0.00705530215
  endloop
 endfacet

 facet normal -0.863853574 -0.495009363 0.09339533
  outer loop
  vertex -0.0095033776 -0.0108887441 -0.0382301509
  vertex -0.0113845449 -0.00172399241 -0.00705530215
  vertex -0.00962821487 -0.0106708873 -0.0382301509
  endloop
 endfacet

 facet normal -0.590079188 -0.338129938 -0.73312676
  outer loop
  vertex -0.0095033776 -0.0108887441 -0.0382301509
  vertex -0.00962821487 -0.0106708873 -0.0382301509
  vertex -0.00960669108 0.00149308261 -0.0438576937
  endloop
 endfacet

 facet normal -0.443764806 0.883284032 -0.151268736
  outer loop
  vertex -0.00869408809 0.0101840496 -0.0438576937
  vertex -0.00936347432 0.00984774809 -0.0438576937
  vertex -0.00963251945 0.010143863 -0.041339349
  endloop
 endfacet

 facet normal -0.785414994 0.599405706 -0.154389396
  outer loop
  vertex -0.00963251945 0.010143863 -0.041339349
  vertex -0.00936347432 0.00984774809 -0.0438576937
  vertex -0.00936993118 0.00983928703 -0.0438576937
  endloop
 endfacet

 facet normal -0.867723465 0.47454235 -0.147870407
  outer loop
  vertex -0.00963251945 0.010143863 -0.041339349
  vertex -0.00936993118 0.00983928703 -0.0438576937
  vertex -0.00971000455 0.00921744667 -0.0438576937
  endloop
 endfacet

 facet normal -0.944914043 0.315543413 -0.0870048553
  outer loop
  vertex -0.00963251945 0.010143863 -0.041339349
  vertex -0.00971000455 0.00921744667 -0.0438576937
  vertex -0.0116428286 0.00785108842 -0.0278217196
  endloop
 endfacet

 facet normal -0.986180782 0.164967746 -0.0152636766
  outer loop
  vertex -0.0116428286 0.00785108842 -0.0278217196
  vertex -0.0118752839 0.0064614648 -0.0278217196
  vertex -0.0118968086 0.0064614648 -0.0264310483
  endloop
 endfacet

 facet normal -0.983431876 0.181272283 0.00153062528
  outer loop
  vertex -0.0116428286 0.00785108842 -0.0278217196
  vertex -0.0118968086 0.0064614648 -0.0264310483
  vertex -0.0118946554 0.0064614648 -0.0250475798
  endloop
 endfacet

 facet normal -0.982653558 0.185414284 0.00367608247
  outer loop
  vertex -0.0116428286 0.00785108842 -0.0278217196
  vertex -0.0118946554 0.0064614648 -0.0250475798
  vertex -0.0123509578 0.0036864467 -0.00705530215
  endloop
 endfacet

 facet normal -0.980921626 0.164087996 -0.104249738
  outer loop
  vertex -0.0116428286 0.00785108842 -0.0278217196
  vertex -0.00971000455 0.00921744667 -0.0438576937
  vertex -0.0118752839 0.0064614648 -0.0278217196
  endloop
 endfacet

 facet normal -0.985108972 0.171924517 0.00153323542
  outer loop
  vertex -0.0123509578 0.0036864467 -0.00705530215
  vertex -0.0118946554 0.0064614648 -0.0250475798
  vertex -0.0118968086 0.0064614648 -0.0264310483
  endloop
 endfacet

 facet normal -0.998339355 0.0554963313 -0.0154518615
  outer loop
  vertex -0.0123509578 0.0036864467 -0.00705530215
  vertex -0.0118968086 0.0064614648 -0.0264310483
  vertex -0.0118752839 0.0064614648 -0.0278217196
  endloop
 endfacet

 facet normal -0.999662817 0.0155075965 -0.0208258759
  outer loop
  vertex -0.0123509578 0.0036864467 -0.00705530215
  vertex -0.0118752839 0.0064614648 -0.0278217196
  vertex -0.0118968086 0.00507395528 -0.0278217196
  endloop
 endfacet

 facet normal -0.998596907 -0.0467037335 -0.0249592178
  outer loop
  vertex -0.0123509578 0.0036864467 -0.00705530215
  vertex -0.0118968086 0.00507395528 -0.0278217196
  vertex -0.0118666748 0.0036864467 -0.0264310483
  endloop
 endfacet

 facet normal -0.993620634 -0.110005513 -0.0248348396
  outer loop
  vertex -0.0123509578 0.0036864467 -0.00705530215
  vertex -0.0118666748 0.0036864467 -0.0264310483
  vertex -0.0118903508 -0.000473965047 -0.00705530215
  endloop
 endfacet

 facet normal -0.848323464 -0.221081495 -0.481113553
  outer loop
  vertex -0.00960669108 0.00149308261 -0.0438576937
  vertex -0.00962821487 -0.0106708873 -0.0382301509
  vertex -0.00969709083 0.00183995976 -0.0438576937
  endloop
 endfacet

 facet normal -0.925566912 -0.374517739 0.0553385243
  outer loop
  vertex -0.0113845449 -0.00172399241 -0.00705530215
  vertex -0.0118903508 -0.000473965047 -0.00705530215
  vertex -0.00962821487 -0.0106708873 -0.0382301509
  endloop
 endfacet

 facet normal -0.990803957 -0.132238895 -0.0286418013
  outer loop
  vertex -0.00962821487 -0.0106708873 -0.0382301509
  vertex -0.0118903508 -0.000473965047 -0.00705530215
  vertex -0.0118516078 -0.000473965047 -0.00839553401
  endloop
 endfacet

 facet normal -0.991021633 -0.130459175 -0.0292662904
  outer loop
  vertex -0.00962821487 -0.0106708873 -0.0382301509
  vertex -0.0118516078 -0.000473965047 -0.00839553401
  vertex -0.0118666748 0.0036864467 -0.0264310483
  endloop
 endfacet

 facet normal -0.991895199 -0.119755432 -0.0424565151
  outer loop
  vertex -0.00962821487 -0.0106708873 -0.0382301509
  vertex -0.0118666748 0.0036864467 -0.0264310483
  vertex -0.00968848076 -0.0101717236 -0.0382301509
  endloop
 endfacet

 facet normal -0.964321256 -0.116426326 -0.237759575
  outer loop
  vertex -0.00962821487 -0.0106708873 -0.0382301509
  vertex -0.00968848076 -0.0101717236 -0.0382301509
  vertex -0.00980686117 0.00230105268 -0.0438576937
  endloop
 endfacet

 facet normal -0.869078577 -0.206898153 -0.449327916
  outer loop
  vertex -0.00962821487 -0.0106708873 -0.0382301509
  vertex -0.00980686117 0.00230105268 -0.0438576937
  vertex -0.00969709083 0.00183995976 -0.0438576937
  endloop
 endfacet

 facet normal -0.985935628 0.124248311 -0.111773722
  outer loop
  vertex -0.00971000455 0.00921744667 -0.0438576937
  vertex -0.00988219399 0.00785108842 -0.0438576937
  vertex -0.0118752839 0.0064614648 -0.0278217196
  endloop
 endfacet

 facet normal -0.992409348 0.0153950714 -0.12201117
  outer loop
  vertex -0.0118752839 0.0064614648 -0.0278217196
  vertex -0.00988219399 0.00785108842 -0.0438576937
  vertex -0.0118968086 0.00507395528 -0.0278217196
  endloop
 endfacet

 facet normal -0.994619012 -0.0833164603 -0.0615748987
  outer loop
  vertex -0.0118968086 0.00507395528 -0.0278217196
  vertex -0.0117805805 0.0036864467 -0.0278217196
  vertex -0.0118666748 0.0036864467 -0.0264310483
  endloop
 endfacet

 facet normal -0.992372155 0.0107758548 -0.12280646
  outer loop
  vertex -0.0118968086 0.00507395528 -0.0278217196
  vertex -0.00988219399 0.00785108842 -0.0438576937
  vertex -0.00989726093 0.00646357983 -0.0438576937
  endloop
 endfacet

 facet normal -0.992315531 0 -0.123733208
  outer loop
  vertex -0.0118968086 0.00507395528 -0.0278217196
  vertex -0.00989726093 0.00646357983 -0.0438576937
  vertex -0.00989726093 0.00368856173 -0.0438576937
  endloop
 endfacet

 facet normal -0.991583228 -0.0503125899 -0.119295254
  outer loop
  vertex -0.0118968086 0.00507395528 -0.0278217196
  vertex -0.00989726093 0.00368856173 -0.0438576937
  vertex -0.00985851791 0.002925009 -0.0438576937
  endloop
 endfacet

 facet normal -0.991177082 -0.0606382154 -0.117859922
  outer loop
  vertex -0.0118968086 0.00507395528 -0.0278217196
  vertex -0.00985851791 0.002925009 -0.0438576937
  vertex -0.00976811815 -0.00949065853 -0.0382301509
  endloop
 endfacet

 facet normal -0.992760301 -0.0831607506 -0.0866676942
  outer loop
  vertex -0.0118968086 0.00507395528 -0.0278217196
  vertex -0.00976811815 -0.00949065853 -0.0382301509
  vertex -0.0117805805 0.0036864467 -0.0278217196
  endloop
 endfacet

 facet normal -0.991382539 -0.127825812 -0.0286585279
  outer loop
  vertex -0.0118666748 0.0036864467 -0.0264310483
  vertex -0.0118516078 -0.000473965047 -0.00839553401
  vertex -0.0118903508 -0.000473965047 -0.00705530215
  endloop
 endfacet

 facet normal -0.992773175 -0.103073463 -0.0614606254
  outer loop
  vertex -0.0118666748 0.0036864467 -0.0264310483
  vertex -0.0117805805 0.0036864467 -0.0278217196
  vertex -0.00976811815 -0.00949065853 -0.0382301509
  endloop
 endfacet

 facet normal -0.992139995 -0.116011821 -0.0468986183
  outer loop
  vertex -0.0118666748 0.0036864467 -0.0264310483
  vertex -0.00976811815 -0.00949065853 -0.0382301509
  vertex -0.00968848076 -0.0101717236 -0.0382301509
  endloop
 endfacet

 facet normal -0.966566026 -0.113021426 -0.230165839
  outer loop
  vertex -0.00968848076 -0.0101717236 -0.0382301509
  vertex -0.00976811815 -0.00949065853 -0.0382301509
  vertex -0.00980686117 0.00230105268 -0.0438576937
  endloop
 endfacet

 facet normal -0.983133733 -0.0813926682 -0.163778245
  outer loop
  vertex -0.00980686117 0.00230105268 -0.0438576937
  vertex -0.00976811815 -0.00949065853 -0.0382301509
  vertex -0.00985851791 0.002925009 -0.0438576937
  endloop
 endfacet

endsolid AssimpScene
