solid AssimpScene
 facet normal 0 -1 0
  outer loop
  vertex 0.0147278244 -0.0276794713 -0.00313554751
  vertex 0.0189397894 -0.0276794713 -0.00313554751
  vertex 0.0189397894 -0.0276794713 0.0109636085
  endloop
 endfacet

 facet normal 0 -1 0
  outer loop
  vertex 0.0147278244 -0.0276794713 -0.00313554751
  vertex 0.0189397894 -0.0276794713 0.0109636085
  vertex 0.0143742003 -0.0276794713 0.0141495112
  endloop
 endfacet

 facet normal 0 -1 0
  outer loop
  vertex 0.0147278244 -0.0276794713 -0.00313554751
  vertex 0.0143742003 -0.0276794713 0.0141495112
  vertex 0.00676442729 -0.0276794713 0.0141495112
  endloop
 endfacet

 facet normal 0 -1 0
  outer loop
  vertex 0.0147278244 -0.0276794713 -0.00313554751
  vertex 0.00676442729 -0.0276794713 0.0141495112
  vertex 0.00676442729 -0.0276794713 0.0109636085
  endloop
 endfacet

 facet normal -0.000164170197 -1 -9.27255824e-05
  outer loop
  vertex 0.0147278244 -0.0276794713 -0.00313554751
  vertex 0.00676442729 -0.0276794713 0.0109636085
  vertex 0.00978667941 -0.0276769567 -0.0215195902
  endloop
 endfacet

 facet normal 0 -1 -0.000136850198
  outer loop
  vertex 0.0147278244 -0.0276794713 -0.00313554751
  vertex 0.00978667941 -0.0276769567 -0.0215195902
  vertex 0.0189384185 -0.0276769567 -0.0215195902
  endloop
 endfacet

 facet normal 0 -1 -0.000136850198
  outer loop
  vertex 0.0147278244 -0.0276794713 -0.00313554751
  vertex 0.0189384185 -0.0276769567 -0.0215195902
  vertex 0.0189397894 -0.0276794713 -0.00313554751
  endloop
 endfacet

 facet normal 0.325009078 -0.945710897 0
  outer loop
  vertex 0.0189397894 -0.0276794713 -0.00313554751
  vertex 0.0195181984 -0.0274806917 0.0109636085
  vertex 0.0189397894 -0.0276794713 0.0109636085
  endloop
 endfacet

 facet normal 0.323497057 -0.946229279 -0.000153616464
  outer loop
  vertex 0.0189397894 -0.0276794713 -0.00313554751
  vertex 0.0189384185 -0.0276769567 -0.0215195902
  vertex 0.0201528035 -0.0272617824 -0.0215195902
  endloop
 endfacet

 facet normal 0.325360656 -0.945590019 -1.6127764e-05
  outer loop
  vertex 0.0189397894 -0.0276794713 -0.00313554751
  vertex 0.0201528035 -0.0272617824 -0.0215195902
  vertex 0.0195181984 -0.0274806917 0.0109636085
  endloop
 endfacet

 facet normal -1 0 0
  outer loop
  vertex 0.00676442729 -0.0276794713 0.0109636085
  vertex 0.00676442729 -0.0276794713 0.0141495112
  vertex 0.00676442729 -0.0163465124 0.0141495112
  endloop
 endfacet

 facet normal -1 0 0
  outer loop
  vertex 0.00676442729 -0.0276794713 0.0109636085
  vertex 0.00676442729 -0.0163465124 0.0141495112
  vertex 0.00676442729 -0.00962574501 0.0121430047
  endloop
 endfacet

 facet normal -1 0 0
  outer loop
  vertex 0.00676442729 -0.0276794713 0.0109636085
  vertex 0.00676442729 -0.00962574501 0.0121430047
  vertex 0.00676442729 -0.00962574501 0.0109636085
  endloop
 endfacet

 facet normal -0.996276975 0 -0.0862102732
  outer loop
  vertex 0.00676442729 -0.0276794713 0.0109636085
  vertex 0.00676442729 -0.00962574501 0.0109636085
  vertex 0.00978667941 -0.0147386612 -0.0239626262
  endloop
 endfacet

 facet normal -0.996276975 0 -0.0862102732
  outer loop
  vertex 0.00676442729 -0.0276794713 0.0109636085
  vertex 0.00978667941 -0.0147386612 -0.0239626262
  vertex 0.00978667941 -0.0262100119 -0.0239626262
  endloop
 endfacet

 facet normal -0.995915711 -0.0235302821 -0.0871690214
  outer loop
  vertex 0.00676442729 -0.0276794713 0.0109636085
  vertex 0.00978667941 -0.0262100119 -0.0239626262
  vertex 0.00978667941 -0.0271888152 -0.02369841
  endloop
 endfacet

 facet normal -0.977558672 -0.191428572 -0.0879451036
  outer loop
  vertex 0.00676442729 -0.0276794713 0.0109636085
  vertex 0.00978667941 -0.0271888152 -0.02369841
  vertex 0.00978667941 -0.0276039839 -0.0227947179
  endloop
 endfacet

 facet normal -0.522769332 -0.851081729 -0.0487046316
  outer loop
  vertex 0.00676442729 -0.0276794713 0.0109636085
  vertex 0.00978667941 -0.0276039839 -0.0227947179
  vertex 0.00978667941 -0.0276769567 -0.0215195902
  endloop
 endfacet

 facet normal 0 -0.998366654 -0.0571332648
  outer loop
  vertex 0.00978667941 -0.0276769567 -0.0215195902
  vertex 0.00978667941 -0.0276039839 -0.0227947179
  vertex 0.0189384185 -0.0276039839 -0.0227947179
  endloop
 endfacet

 facet normal 0 -0.998366654 -0.0571332648
  outer loop
  vertex 0.00978667941 -0.0276769567 -0.0215195902
  vertex 0.0189384185 -0.0276039839 -0.0227947179
  vertex 0.0189384185 -0.0276769567 -0.0215195902
  endloop
 endfacet

 facet normal 0.326098531 -0.945335925 0
  outer loop
  vertex 0.0195181984 -0.0274806917 0.0109636085
  vertex 0.0201528035 -0.0272617824 -0.0215195902
  vertex 0.0201528035 -0.0272617824 -0.00313554751
  endloop
 endfacet

 facet normal 0.328808665 -0.944396615 0.0001365676
  outer loop
  vertex 0.0195181984 -0.0274806917 0.0109636085
  vertex 0.0201528035 -0.0272617824 -0.00313554751
  vertex 0.0201541726 -0.027259266 0.0109636085
  endloop
 endfacet

 facet normal 0.297353238 -0.854051054 0.42682299
  outer loop
  vertex 0.0195181984 -0.0274806917 0.0109636085
  vertex 0.0201541726 -0.027259266 0.0109636085
  vertex 0.0143742003 -0.0276794713 0.0141495112
  endloop
 endfacet

 facet normal 0.294620305 -0.857285678 0.422208548
  outer loop
  vertex 0.0195181984 -0.0274806917 0.0109636085
  vertex 0.0143742003 -0.0276794713 0.0141495112
  vertex 0.0189397894 -0.0276794713 0.0109636085
  endloop
 endfacet

 facet normal 0.303135812 -0.951390862 -0.0544449911
  outer loop
  vertex 0.0189384185 -0.0276769567 -0.0215195902
  vertex 0.0189384185 -0.0276039839 -0.0227947179
  vertex 0.0201308727 -0.0272240415 -0.0227947179
  endloop
 endfacet

 facet normal 0.323314875 -0.945696473 -0.0335515961
  outer loop
  vertex 0.0189384185 -0.0276769567 -0.0215195902
  vertex 0.0201308727 -0.0272240415 -0.0227947179
  vertex 0.0201528035 -0.0272617824 -0.0215195902
  endloop
 endfacet

 facet normal 0.870049417 -0.492079556 -0.0295282397
  outer loop
  vertex 0.0201528035 -0.0272617824 -0.0215195902
  vertex 0.0201308727 -0.0272240415 -0.0227947179
  vertex 0.0207476597 -0.0262100119 -0.0215195902
  endloop
 endfacet

 facet normal 0.87042892 -0.492294163 -0.000132237881
  outer loop
  vertex 0.0201528035 -0.0272617824 -0.0215195902
  vertex 0.0207476597 -0.0262100119 -0.0215195902
  vertex 0.0207490288 -0.0262125283 -0.00313554751
  endloop
 endfacet

 facet normal 0.870079875 -0.492910832 -8.57211635e-05
  outer loop
  vertex 0.0201528035 -0.0272617824 -0.0215195902
  vertex 0.0207490288 -0.0262125283 -0.00313554751
  vertex 0.020499574 -0.0266528651 -0.00313554751
  endloop
 endfacet

 facet normal 0.868969142 -0.494866312 0
  outer loop
  vertex 0.0201528035 -0.0272617824 -0.0215195902
  vertex 0.020499574 -0.0266528651 -0.00313554751
  vertex 0.0201528035 -0.0272617824 -0.00313554751
  endloop
 endfacet

 facet normal 0 0 1
  outer loop
  vertex 0.00676442729 -0.0276794713 0.0141495112
  vertex 0.0143742003 -0.0276794713 0.0141495112
  vertex 0.0143742003 -0.0158004984 0.0141495112
  endloop
 endfacet

 facet normal 0 0 1
  outer loop
  vertex 0.00676442729 -0.0276794713 0.0141495112
  vertex 0.0143742003 -0.0158004984 0.0141495112
  vertex 0.00676442729 -0.0163465124 0.0141495112
  endloop
 endfacet

 facet normal -0.993712425 0.111962423 0
  outer loop
  vertex 0.00676442729 -0.00962574501 0.0109636085
  vertex 0.00676442729 -0.00962574501 0.0121430047
  vertex 0.00762655772 -0.00197398383 0.0109636085
  endloop
 endfacet

 facet normal -0.989556491 0.111494154 -0.0913615376
  outer loop
  vertex 0.00676442729 -0.00962574501 0.0109636085
  vertex 0.00762655772 -0.00197398383 0.0109636085
  vertex 0.00978667941 -0.0105869323 -0.0229440555
  endloop
 endfacet

 facet normal -0.995671391 0.0252069812 -0.0894605741
  outer loop
  vertex 0.00676442729 -0.00962574501 0.0109636085
  vertex 0.00978667941 -0.0105869323 -0.0229440555
  vertex 0.00978667941 -0.0132641681 -0.02369841
  endloop
 endfacet

 facet normal -0.995893478 0.0180029031 -0.088723734
  outer loop
  vertex 0.00676442729 -0.00962574501 0.0109636085
  vertex 0.00978667941 -0.0132641681 -0.02369841
  vertex 0.00978667941 -0.0145096881 -0.0239511393
  endloop
 endfacet

 facet normal -0.996212482 0.00435726251 -0.0868425593
  outer loop
  vertex 0.00676442729 -0.00962574501 0.0109636085
  vertex 0.00978667941 -0.0145096881 -0.0239511393
  vertex 0.00978667941 -0.0147386612 -0.0239626262
  endloop
 endfacet

 facet normal -0.0742816851 -0.0261667427 -0.996893883
  outer loop
  vertex 0.00978667941 -0.0262100119 -0.0239626262
  vertex 0.0147524951 -0.00325221149 -0.0249352474
  vertex 0.0151157137 -0.00326227699 -0.024962049
  endloop
 endfacet

 facet normal 0 -0.0435108356 -0.999053061
  outer loop
  vertex 0.00978667941 -0.0262100119 -0.0239626262
  vertex 0.0151157137 -0.00326227699 -0.024962049
  vertex 0.0189384185 -0.0262100119 -0.0239626262
  endloop
 endfacet

 facet normal 0 -0.26061064 -0.965444028
  outer loop
  vertex 0.00978667941 -0.0262100119 -0.0239626262
  vertex 0.0189384185 -0.0262100119 -0.0239626262
  vertex 0.0189384185 -0.0271888152 -0.02369841
  endloop
 endfacet

 facet normal 0 -0.26061064 -0.965444028
  outer loop
  vertex 0.00978667941 -0.0262100119 -0.0239626262
  vertex 0.0189384185 -0.0271888152 -0.02369841
  vertex 0.00978667941 -0.0271888152 -0.02369841
  endloop
 endfacet

 facet normal -0.192211196 0 -0.981353641
  outer loop
  vertex 0.00978667941 -0.0262100119 -0.0239626262
  vertex 0.00978667941 -0.0147386612 -0.0239626262
  vertex 0.0147524951 -0.00325221149 -0.0249352474
  endloop
 endfacet

 facet normal 0 -0.9086923 -0.41746664
  outer loop
  vertex 0.00978667941 -0.0271888152 -0.02369841
  vertex 0.0189384185 -0.0271888152 -0.02369841
  vertex 0.0189384185 -0.0276039839 -0.0227947179
  endloop
 endfacet

 facet normal 0 -0.9086923 -0.41746664
  outer loop
  vertex 0.00978667941 -0.0271888152 -0.02369841
  vertex 0.0189384185 -0.0276039839 -0.0227947179
  vertex 0.00978667941 -0.0276039839 -0.0227947179
  endloop
 endfacet

 facet normal 0.868969142 -0.494866312 3.86480951e-06
  outer loop
  vertex 0.0201528035 -0.0272617824 -0.00313554751
  vertex 0.020499574 -0.0266528651 -0.00313554751
  vertex 0.0201541726 -0.027259266 0.0109636085
  endloop
 endfacet

 facet normal 0.86941421 -0.494083971 4.84165321e-05
  outer loop
  vertex 0.0201541726 -0.027259266 0.0109636085
  vertex 0.020499574 -0.0266528651 -0.00313554751
  vertex 0.0207490288 -0.0262125283 0.0109636085
  endloop
 endfacet

 facet normal 0.479570925 -0.272537887 0.83410728
  outer loop
  vertex 0.0201541726 -0.027259266 0.0109636085
  vertex 0.0207490288 -0.0262125283 0.0109636085
  vertex 0.0143742003 -0.0276794713 0.0141495112
  endloop
 endfacet

 facet normal 0.448187411 -0.00625992846 0.893917739
  outer loop
  vertex 0.0143742003 -0.0276794713 0.0141495112
  vertex 0.0207490288 -0.0262125283 0.0109636085
  vertex 0.0207668468 -0.0249368157 0.0109636085
  endloop
 endfacet

 facet normal 0.446046084 0 0.895010114
  outer loop
  vertex 0.0143742003 -0.0276794713 0.0141495112
  vertex 0.0207668468 -0.0249368157 0.0109636085
  vertex 0.0207668468 -0.00207463163 0.0109636085
  endloop
 endfacet

 facet normal 0.446046084 0 0.895010114
  outer loop
  vertex 0.0143742003 -0.0276794713 0.0141495112
  vertex 0.0207668468 -0.00207463163 0.0109636085
  vertex 0.0143742003 -0.0158004984 0.0141495112
  endloop
 endfacet

 facet normal 0.139362022 -0.899824798 -0.413392752
  outer loop
  vertex 0.0189384185 -0.0276039839 -0.0227947179
  vertex 0.0189384185 -0.0271888152 -0.02369841
  vertex 0.0199307594 -0.027075585 -0.0236103386
  endloop
 endfacet

 facet normal 0.294666171 -0.924808919 -0.240625098
  outer loop
  vertex 0.0189384185 -0.0276039839 -0.0227947179
  vertex 0.0199307594 -0.027075585 -0.0236103386
  vertex 0.0201308727 -0.0272240415 -0.0227947179
  endloop
 endfacet

 facet normal 0.873577356 -0.485305399 -0.0366217718
  outer loop
  vertex 0.0201308727 -0.0272240415 -0.0227947179
  vertex 0.0206942037 -0.0262100119 -0.0227947179
  vertex 0.0207476597 -0.0262100119 -0.0215195902
  endloop
 endfacet

 facet normal 0.836633623 -0.464781731 -0.289865792
  outer loop
  vertex 0.0201308727 -0.0272240415 -0.0227947179
  vertex 0.0199307594 -0.027075585 -0.0236103386
  vertex 0.0206942037 -0.0262100119 -0.0227947179
  endloop
 endfacet

 facet normal 0.999995351 -0.00215086387 -0.00214801496
  outer loop
  vertex 0.0207476597 -0.0262100119 -0.0215195902
  vertex 0.0207641069 -0.0185632855 -0.0215195902
  vertex 0.0207641069 -0.0249343012 -0.0151401246
  endloop
 endfacet

 facet normal 0.999931037 -0.0117375897 -0.000230776466
  outer loop
  vertex 0.0207476597 -0.0262100119 -0.0215195902
  vertex 0.0207641069 -0.0249343012 -0.0151401246
  vertex 0.0207668468 -0.0249368157 -0.00313554751
  endloop
 endfacet

 facet normal 0.999902427 -0.0139658488 -7.64273645e-05
  outer loop
  vertex 0.0207476597 -0.0262100119 -0.0215195902
  vertex 0.0207668468 -0.0249368157 -0.00313554751
  vertex 0.0207490288 -0.0262125283 -0.00313554751
  endloop
 endfacet

 facet normal 0.999101818 -0.00644010119 -0.0418839604
  outer loop
  vertex 0.0207476597 -0.0262100119 -0.0215195902
  vertex 0.0206942037 -0.0262100119 -0.0227947179
  vertex 0.0207024273 -0.0249343012 -0.0227947179
  endloop
 endfacet

 facet normal 0.999290645 -0.00214934861 -0.0375979394
  outer loop
  vertex 0.0207476597 -0.0262100119 -0.0215195902
  vertex 0.0207024273 -0.0249343012 -0.0227947179
  vertex 0.0207641069 -0.0185632855 -0.0215195902
  endloop
 endfacet

 facet normal 0.999902427 -0.0139658488 0
  outer loop
  vertex 0.0207490288 -0.0262125283 -0.00313554751
  vertex 0.0207668468 -0.0249368157 -0.00313554751
  vertex 0.0207668468 -0.0249368157 0.0109636085
  endloop
 endfacet

 facet normal 0.999902427 -0.0139658488 0
  outer loop
  vertex 0.0207490288 -0.0262125283 -0.00313554751
  vertex 0.0207668468 -0.0249368157 0.0109636085
  vertex 0.0207490288 -0.0262125283 0.0109636085
  endloop
 endfacet

 facet normal 0.870079875 -0.492910832 0
  outer loop
  vertex 0.0207490288 -0.0262125283 -0.00313554751
  vertex 0.0207490288 -0.0262125283 0.0109636085
  vertex 0.020499574 -0.0266528651 -0.00313554751
  endloop
 endfacet

 facet normal -0.0116370879 0.162185654 0.986691773
  outer loop
  vertex 0.00676442729 -0.0163465124 0.0141495112
  vertex 0.0143742003 -0.0158004984 0.0141495112
  vertex 0.00762655772 -0.00326227699 0.0120089827
  endloop
 endfacet

 facet normal -0.89100498 0.129876509 0.435019702
  outer loop
  vertex 0.00676442729 -0.0163465124 0.0141495112
  vertex 0.00762655772 -0.00326227699 0.0120089827
  vertex 0.00676442729 -0.00962574501 0.0121430047
  endloop
 endfacet

 facet normal -0.914914727 0.131987751 0.381458223
  outer loop
  vertex 0.00676442729 -0.00962574501 0.0121430047
  vertex 0.00762655772 -0.00326227699 0.0120089827
  vertex 0.00762655772 -0.00201172545 0.0115762809
  endloop
 endfacet

 facet normal -0.99356842 0.11301931 0.00696218526
  outer loop
  vertex 0.00676442729 -0.00962574501 0.0121430047
  vertex 0.00762655772 -0.00201172545 0.0115762809
  vertex 0.00762655772 -0.00197398383 0.0109636085
  endloop
 endfacet

 facet normal -0.000144549515 0.999996185 -0.00276818778
  outer loop
  vertex 0.00762655772 -0.00197398383 0.0109636085
  vertex 0.0163876638 -0.0020721138 -0.0249429028
  vertex 0.0150677413 -0.0020721138 -0.0248739775
  endloop
 endfacet

 facet normal -0.000310425705 0.999996066 -0.00280262949
  outer loop
  vertex 0.00762655772 -0.00197398383 0.0109636085
  vertex 0.0150677413 -0.0020721138 -0.0248739775
  vertex 0.0147566069 -0.0020721138 -0.0248395167
  endloop
 endfacet

 facet normal -0.693618476 0.706593394 -0.14006798
  outer loop
  vertex 0.00762655772 -0.00197398383 0.0109636085
  vertex 0.0147566069 -0.0020721138 -0.0248395167
  vertex 0.0147524951 -0.00207463163 -0.0248318538
  endloop
 endfacet

 facet normal -0.86690402 0.467160791 -0.173891366
  outer loop
  vertex 0.00762655772 -0.00197398383 0.0109636085
  vertex 0.0147524951 -0.00207463163 -0.0248318538
  vertex 0.00978667941 -0.0105869323 -0.0229440555
  endloop
 endfacet

 facet normal 0.00764475716 0.998078763 0.0614833795
  outer loop
  vertex 0.00762655772 -0.00197398383 0.0109636085
  vertex 0.00762655772 -0.00201172545 0.0115762809
  vertex 0.0207668468 -0.00207463163 0.0109636085
  endloop
 endfacet

 facet normal 0.00765924715 0.999970615 0.000177080932
  outer loop
  vertex 0.00762655772 -0.00197398383 0.0109636085
  vertex 0.0207668468 -0.00207463163 0.0109636085
  vertex 0.0207641069 -0.0020721138 -0.00313554751
  endloop
 endfacet

 facet normal 0.00746921636 0.999972105 0
  outer loop
  vertex 0.00762655772 -0.00197398383 0.0109636085
  vertex 0.0207641069 -0.0020721138 -0.00313554751
  vertex 0.0207641069 -0.0020721138 -0.0215195902
  endloop
 endfacet

 facet normal 0.00668882765 0.999977589 -0.000315637997
  outer loop
  vertex 0.00762655772 -0.00197398383 0.0109636085
  vertex 0.0207641069 -0.0020721138 -0.0215195902
  vertex 0.020707909 -0.0020721138 -0.0227104742
  endloop
 endfacet

 facet normal 0.00666418253 0.999977767 -0.000325212226
  outer loop
  vertex 0.00762655772 -0.00197398383 0.0109636085
  vertex 0.020707909 -0.0020721138 -0.0227104742
  vertex 0.0207037982 -0.0020721138 -0.0227947179
  endloop
 endfacet

 facet normal 0.00278737745 0.999994457 -0.00182705082
  outer loop
  vertex 0.00762655772 -0.00197398383 0.0109636085
  vertex 0.0207037982 -0.0020721138 -0.0227947179
  vertex 0.0201089419 -0.0020721138 -0.0237022396
  endloop
 endfacet

 facet normal 0.000989075634 0.999996424 -0.00247458415
  outer loop
  vertex 0.00762655772 -0.00197398383 0.0109636085
  vertex 0.0201089419 -0.0020721138 -0.0237022396
  vertex 0.0173114743 -0.0020721138 -0.0248203706
  endloop
 endfacet

 facet normal 0.000351125549 0.999996424 -0.00264724507
  outer loop
  vertex 0.00762655772 -0.00197398383 0.0109636085
  vertex 0.0173114743 -0.0020721138 -0.0248203706
  vertex 0.0163876638 -0.0020721138 -0.0249429028
  endloop
 endfacet

 facet normal -0.848397672 0.42491433 -0.315704614
  outer loop
  vertex 0.00978667941 -0.0105869323 -0.0229440555
  vertex 0.0147524951 -0.00207463163 -0.0248318538
  vertex 0.0147566069 -0.0020721138 -0.0248395167
  endloop
 endfacet

 facet normal -0.639461696 0.208509535 -0.740008533
  outer loop
  vertex 0.00978667941 -0.0105869323 -0.0229440555
  vertex 0.0147566069 -0.0020721138 -0.0248395167
  vertex 0.00978667941 -0.0132641681 -0.02369841
  endloop
 endfacet

 facet normal -0.558237851 0.164988071 -0.813110948
  outer loop
  vertex 0.00978667941 -0.0132641681 -0.02369841
  vertex 0.0147566069 -0.0020721138 -0.0248395167
  vertex 0.00978667941 -0.0145096881 -0.0239511393
  endloop
 endfacet

 facet normal -0.358331621 0.076727435 -0.930436134
  outer loop
  vertex 0.00978667941 -0.0145096881 -0.0239511393
  vertex 0.0147566069 -0.0020721138 -0.0248395167
  vertex 0.0147524951 -0.00325221149 -0.0249352474
  endloop
 endfacet

 facet normal -0.297430992 0.0478433669 -0.953543842
  outer loop
  vertex 0.00978667941 -0.0145096881 -0.0239511393
  vertex 0.0147524951 -0.00325221149 -0.0249352474
  vertex 0.00978667941 -0.0147386612 -0.0239626262
  endloop
 endfacet

 facet normal -0.0714514256 0.0707434788 -0.994932294
  outer loop
  vertex 0.0147524951 -0.00325221149 -0.0249352474
  vertex 0.0150677413 -0.0020721138 -0.0248739775
  vertex 0.0151157137 -0.00326227699 -0.024962049
  endloop
 endfacet

 facet normal -0.109729588 0.0807479843 -0.990676224
  outer loop
  vertex 0.0147524951 -0.00325221149 -0.0249352474
  vertex 0.0147566069 -0.0020721138 -0.0248395167
  vertex 0.0150677413 -0.0020721138 -0.0248739775
  endloop
 endfacet

 facet normal 0.0481925718 -0.0354459994 -0.99820894
  outer loop
  vertex 0.0151157137 -0.00326227699 -0.024962049
  vertex 0.0163876638 -0.0020721138 -0.0249429028
  vertex 0.0189384185 -0.0262100119 -0.0239626262
  endloop
 endfacet

 facet normal -0.0520131811 0.0716115907 -0.996075571
  outer loop
  vertex 0.0151157137 -0.00326227699 -0.024962049
  vertex 0.0150677413 -0.0020721138 -0.0248739775
  vertex 0.0163876638 -0.0020721138 -0.0249429028
  endloop
 endfacet

 facet normal 0.218172058 -0.142796636 -0.965406775
  outer loop
  vertex 0.0189384185 -0.0262100119 -0.0239626262
  vertex 0.020107571 -0.0262100119 -0.02369841
  vertex 0.0199307594 -0.027075585 -0.0236103386
  endloop
 endfacet

 facet normal 0.114660285 -0.258891851 -0.959076762
  outer loop
  vertex 0.0189384185 -0.0262100119 -0.0239626262
  vertex 0.0199307594 -0.027075585 -0.0236103386
  vertex 0.0189384185 -0.0271888152 -0.02369841
  endloop
 endfacet

 facet normal 0.131440848 -0.0263549648 -0.990973651
  outer loop
  vertex 0.0189384185 -0.0262100119 -0.0239626262
  vertex 0.0163876638 -0.0020721138 -0.0249429028
  vertex 0.0173114743 -0.0020721138 -0.0248203706
  endloop
 endfacet

 facet normal 0.220387816 -0.0197996385 -0.975211382
  outer loop
  vertex 0.0189384185 -0.0262100119 -0.0239626262
  vertex 0.0173114743 -0.0020721138 -0.0248203706
  vertex 0.020107571 -0.0262100119 -0.02369841
  endloop
 endfacet

 facet normal -0.00795364939 0.164119571 0.986408412
  outer loop
  vertex 0.0143742003 -0.0158004984 0.0141495112
  vertex 0.0143742003 -0.00355667248 0.0121123716
  vertex 0.00762655772 -0.00326227699 0.0120089827
  endloop
 endfacet

 facet normal 0.137884319 0.162557095 0.977017522
  outer loop
  vertex 0.0143742003 -0.0158004984 0.0141495112
  vertex 0.0207668468 -0.00207463163 0.0109636085
  vertex 0.0143742003 -0.00355667248 0.0121123716
  endloop
 endfacet

 facet normal 1 0 0
  outer loop
  vertex 0.0207668468 -0.0249368157 0.0109636085
  vertex 0.0207668468 -0.0249368157 -0.00313554751
  vertex 0.0207668468 -0.00207463163 -0.00313554751
  endloop
 endfacet

 facet normal 1 0 0
  outer loop
  vertex 0.0207668468 -0.0249368157 0.0109636085
  vertex 0.0207668468 -0.00207463163 -0.00313554751
  vertex 0.0207668468 -0.00207463163 0.0109636085
  endloop
 endfacet

 facet normal 0.818005919 -0.221125707 -0.531008363
  outer loop
  vertex 0.0199307594 -0.027075585 -0.0236103386
  vertex 0.020107571 -0.0262100119 -0.02369841
  vertex 0.0206942037 -0.0262100119 -0.0227947179
  endloop
 endfacet

 facet normal 0.838757038 -0.0054065357 -0.544478953
  outer loop
  vertex 0.0206942037 -0.0262100119 -0.0227947179
  vertex 0.020107571 -0.0262100119 -0.02369841
  vertex 0.0207024273 -0.0249343012 -0.0227947179
  endloop
 endfacet

 facet normal 0.998855174 -9.55137584e-05 -0.0478386134
  outer loop
  vertex 0.0207641069 -0.0185632855 -0.0215195902
  vertex 0.0207024273 -0.0249343012 -0.0227947179
  vertex 0.0207037982 -0.0105869323 -0.0227947179
  endloop
 endfacet

 facet normal 0.998867691 -5.32513586e-05 -0.0475748405
  outer loop
  vertex 0.0207641069 -0.0185632855 -0.0215195902
  vertex 0.0207037982 -0.0105869323 -0.0227947179
  vertex 0.0207490288 -0.0105869323 -0.0218450725
  endloop
 endfacet

 facet normal 0.998928785 0 -0.0462726764
  outer loop
  vertex 0.0207641069 -0.0185632855 -0.0215195902
  vertex 0.0207490288 -0.0105869323 -0.0218450725
  vertex 0.0207641069 -0.0020721138 -0.0215195902
  endloop
 endfacet

 facet normal 1 0 -0.000149098487
  outer loop
  vertex 0.0207641069 -0.0185632855 -0.0215195902
  vertex 0.0207641069 -0.0020721138 -0.0215195902
  vertex 0.0207668468 -0.00207463163 -0.00313554751
  endloop
 endfacet

 facet normal 1 0 -0.000149098487
  outer loop
  vertex 0.0207641069 -0.0185632855 -0.0215195902
  vertex 0.0207668468 -0.00207463163 -0.00313554751
  vertex 0.0207668468 -0.0249368157 -0.00313554751
  endloop
 endfacet

 facet normal 1 -0.000228683188 -0.000228380275
  outer loop
  vertex 0.0207641069 -0.0185632855 -0.0215195902
  vertex 0.0207668468 -0.0249368157 -0.00313554751
  vertex 0.0207641069 -0.0249343012 -0.0151401246
  endloop
 endfacet

 facet normal 0.835368395 -0.000134642629 -0.549690485
  outer loop
  vertex 0.0207024273 -0.0249343012 -0.0227947179
  vertex 0.020107571 -0.0262100119 -0.02369841
  vertex 0.0201089419 -0.0020721138 -0.0237022396
  endloop
 endfacet

 facet normal 0.836001813 -7.99411937e-05 -0.548726678
  outer loop
  vertex 0.0207024273 -0.0249343012 -0.0227947179
  vertex 0.0201089419 -0.0020721138 -0.0237022396
  vertex 0.0207037982 -0.0105869323 -0.0227947179
  endloop
 endfacet

 facet normal -0.00440717768 0.239918381 0.970783114
  outer loop
  vertex 0.00762655772 -0.00326227699 0.0120089827
  vertex 0.0143742003 -0.00355667248 0.0121123716
  vertex 0.0143742003 -0.00326227699 0.0120396158
  endloop
 endfacet

 facet normal -0.00429021707 0.326984793 0.945019841
  outer loop
  vertex 0.00762655772 -0.00326227699 0.0120089827
  vertex 0.0143742003 -0.00326227699 0.0120396158
  vertex 0.00762655772 -0.00201172545 0.0115762809
  endloop
 endfacet

 facet normal 0.0383417904 0.621143341 0.782758474
  outer loop
  vertex 0.00762655772 -0.00201172545 0.0115762809
  vertex 0.0143742003 -0.0026357423 0.0117409388
  vertex 0.0143742003 -0.00228347629 0.0114614051
  endloop
 endfacet

 facet normal 0.0388414785 0.640071511 0.767332971
  outer loop
  vertex 0.00762655772 -0.00201172545 0.0115762809
  vertex 0.0143742003 -0.00228347629 0.0114614051
  vertex 0.0207668468 -0.00207463163 0.0109636085
  endloop
 endfacet

 facet normal 0.0177652501 0.430249512 0.9025352
  outer loop
  vertex 0.00762655772 -0.00201172545 0.0115762809
  vertex 0.0143742003 -0.00326227699 0.0120396158
  vertex 0.0143742003 -0.0026357423 0.0117409388
  endloop
 endfacet

 facet normal 0.0406573117 0.621086478 0.78268683
  outer loop
  vertex 0.0207668468 -0.00207463163 0.0109636085
  vertex 0.0143742003 -0.00228347629 0.0114614051
  vertex 0.0143742003 -0.0026357423 0.0117409388
  endloop
 endfacet

 facet normal 0.0718067139 0.42920655 0.900347471
  outer loop
  vertex 0.0207668468 -0.00207463163 0.0109636085
  vertex 0.0143742003 -0.0026357423 0.0117409388
  vertex 0.0143742003 -0.00326227699 0.0120396158
  endloop
 endfacet

 facet normal 0.117999882 0.238244519 0.964010179
  outer loop
  vertex 0.0207668468 -0.00207463163 0.0109636085
  vertex 0.0143742003 -0.00326227699 0.0120396158
  vertex 0.0143742003 -0.00355667248 0.0121123716
  endloop
 endfacet

 facet normal 0.676475704 0.736464977 0
  outer loop
  vertex 0.0207668468 -0.00207463163 0.0109636085
  vertex 0.0207668468 -0.00207463163 -0.00313554751
  vertex 0.0207641069 -0.0020721138 -0.0215195902
  endloop
 endfacet

 facet normal 0.676475704 0.736464977 0
  outer loop
  vertex 0.0207668468 -0.00207463163 0.0109636085
  vertex 0.0207641069 -0.0020721138 -0.0215195902
  vertex 0.0207641069 -0.0020721138 -0.00313554751
  endloop
 endfacet

 facet normal 0.998888552 3.30870935e-05 -0.0471363924
  outer loop
  vertex 0.0207641069 -0.0020721138 -0.0215195902
  vertex 0.0207490288 -0.0105869323 -0.0218450725
  vertex 0.020707909 -0.0020721138 -0.0227104742
  endloop
 endfacet

 facet normal 0.998867691 -1.15749226e-05 -0.0475748405
  outer loop
  vertex 0.020707909 -0.0020721138 -0.0227104742
  vertex 0.0207490288 -0.0105869323 -0.0218450725
  vertex 0.0207037982 -0.0105869323 -0.0227947179
  endloop
 endfacet

 facet normal 0.998811424 0 -0.0487420186
  outer loop
  vertex 0.020707909 -0.0020721138 -0.0227104742
  vertex 0.0207037982 -0.0105869323 -0.0227947179
  vertex 0.0207037982 -0.0020721138 -0.0227947179
  endloop
 endfacet

 facet normal 0.836345851 0 -0.548202157
  outer loop
  vertex 0.0207037982 -0.0020721138 -0.0227947179
  vertex 0.0207037982 -0.0105869323 -0.0227947179
  vertex 0.0201089419 -0.0020721138 -0.0237022396
  endloop
 endfacet

 facet normal 0.371145427 -0.000168376413 -0.928574741
  outer loop
  vertex 0.0201089419 -0.0020721138 -0.0237022396
  vertex 0.020107571 -0.0262100119 -0.02369841
  vertex 0.0173114743 -0.0020721138 -0.0248203706
  endloop
 endfacet

endsolid AssimpScene
