solid AssimpScene
 facet normal 0.979381561 0.201460794 0.0150080761
  outer loop
  vertex 0.0134592941 0.0027671787 0.0221242197
  vertex 0.0131987166 0.00369149051 0.0267211925
  vertex 0.0134490756 0.0027671787 0.0227910522
  endloop
 endfacet

 facet normal 0 -1 0
  outer loop
  vertex 0.0134592941 0.0027671787 0.0221242197
  vertex 0.0134490756 0.0027671787 0.0227910522
  vertex 0.0133775445 0.0027671787 0.0254083686
  endloop
 endfacet

 facet normal 0 -1 0
  outer loop
  vertex 0.0134592941 0.0027671787 0.0221242197
  vertex 0.0133775445 0.0027671787 0.0254083686
  vertex 0.0133085679 0.0027671787 0.0267211925
  endloop
 endfacet

 facet normal 0 -1 0
  outer loop
  vertex 0.0134592941 0.0027671787 0.0221242197
  vertex 0.0133085679 0.0027671787 0.0267211925
  vertex 0.013196161 0.0027671787 0.0281007029
  endloop
 endfacet

 facet normal 0 -1 0
  outer loop
  vertex 0.0134592941 0.0027671787 0.0221242197
  vertex 0.013196161 0.0027671787 0.0281007029
  vertex 0.0131808333 0.0027671787 0.0282674115
  endloop
 endfacet

 facet normal 0 -1 0
  outer loop
  vertex 0.0134592941 0.0027671787 0.0221242197
  vertex 0.0131808333 0.0027671787 0.0282674115
  vertex 0.0131041929 0.0027671787 0.0290884487
  endloop
 endfacet

 facet normal 0 -1 0
  outer loop
  vertex 0.0134592941 0.0027671787 0.0221242197
  vertex 0.0131041929 0.0027671787 0.0290884487
  vertex 0.0130888643 0.0027671787 0.0292468201
  endloop
 endfacet

 facet normal 0 -1 0
  outer loop
  vertex 0.0134592941 0.0027671787 0.0221242197
  vertex 0.0130888643 0.0027671787 0.0292468201
  vertex 0.0128052942 0.0027671787 0.032143373
  endloop
 endfacet

 facet normal 0 -1 0
  outer loop
  vertex 0.0134592941 0.0027671787 0.0221242197
  vertex 0.0128052942 0.0027671787 0.032143373
  vertex 0.0126954429 0.0027671787 0.0332644843
  endloop
 endfacet

 facet normal 0 -1 0
  outer loop
  vertex 0.0134592941 0.0027671787 0.0221242197
  vertex 0.0126954429 0.0027671787 0.0332644843
  vertex 0.0126443496 0.0027671787 0.0334520303
  endloop
 endfacet

 facet normal 0 -1 0
  outer loop
  vertex 0.0134592941 0.0027671787 0.0221242197
  vertex 0.0126443496 0.0027671787 0.0334520303
  vertex 0.012166624 0.0027671787 0.0346314907
  endloop
 endfacet

 facet normal 0 -1 0
  outer loop
  vertex 0.0134592941 0.0027671787 0.0221242197
  vertex 0.012166624 0.0027671787 0.0346314907
  vertex 0.0121436315 0.0027671787 0.0346731693
  endloop
 endfacet

 facet normal 0 -1 0
  outer loop
  vertex 0.0134592941 0.0027671787 0.0221242197
  vertex 0.0121436315 0.0027671787 0.0346731693
  vertex 0.0121180844 0.0027671787 0.0347065106
  endloop
 endfacet

 facet normal 0 -1 0
  outer loop
  vertex 0.0134592941 0.0027671787 0.0221242197
  vertex 0.0121180844 0.0027671787 0.0347065106
  vertex 0.0102225086 0.0027671787 0.0355525538
  endloop
 endfacet

 facet normal 0 -1 0
  outer loop
  vertex 0.0134592941 0.0027671787 0.0221242197
  vertex 0.0102225086 0.0027671787 0.0355525538
  vertex 0.00984697044 0.0027671787 0.0356400721
  endloop
 endfacet

 facet normal 0 -1 0
  outer loop
  vertex 0.0134592941 0.0027671787 0.0221242197
  vertex 0.00984697044 0.0027671787 0.0356400721
  vertex 0.00856451876 0.0027671787 0.0358734652
  endloop
 endfacet

 facet normal 0 -1 0
  outer loop
  vertex 0.0134592941 0.0027671787 0.0221242197
  vertex 0.00856451876 0.0027671787 0.0358734652
  vertex 0.0072539649 0.0027671787 0.0358901359
  endloop
 endfacet

 facet normal 0 -1 0
  outer loop
  vertex 0.0134592941 0.0027671787 0.0221242197
  vertex 0.0072539649 0.0027671787 0.0358901359
  vertex -0.00452568568 0.0027671787 0.0358901359
  endloop
 endfacet

 facet normal 0 -1 0
  outer loop
  vertex 0.0134592941 0.0027671787 0.0221242197
  vertex -0.00452568568 0.0027671787 0.0358901359
  vertex -0.00582091091 0.0027671787 0.0357942767
  endloop
 endfacet

 facet normal 0 -1 0
  outer loop
  vertex 0.0134592941 0.0027671787 0.0221242197
  vertex -0.00582091091 0.0027671787 0.0357942767
  vertex -0.00584645756 0.0027671787 0.0357692726
  endloop
 endfacet

 facet normal 0 -1 0
  outer loop
  vertex 0.0134592941 0.0027671787 0.0221242197
  vertex -0.00584645756 0.0027671787 0.0357692726
  vertex -0.00694752717 0.0027671787 0.0346773341
  endloop
 endfacet

 facet normal 0 -1 0
  outer loop
  vertex 0.0134592941 0.0027671787 0.0221242197
  vertex -0.00694752717 0.0027671787 0.0346773341
  vertex -0.00957629737 0.0027671787 0.0291634668
  endloop
 endfacet

 facet normal 0 -1 0
  outer loop
  vertex 0.0134592941 0.0027671787 0.0221242197
  vertex -0.00957629737 0.0027671787 0.0291634668
  vertex -0.00964782853 0.0027671787 0.0289884247
  endloop
 endfacet

 facet normal 0 -1 0
  outer loop
  vertex 0.0134592941 0.0027671787 0.0221242197
  vertex -0.00964782853 0.0027671787 0.0289884247
  vertex -0.0110477963 0.0027671787 0.0254208725
  endloop
 endfacet

 facet normal 0 -1 0
  outer loop
  vertex 0.0134592941 0.0027671787 0.0221242197
  vertex -0.0110477963 0.0027671787 0.0254208725
  vertex -0.0114207799 0.0027671787 0.0240371954
  endloop
 endfacet

 facet normal 0 -1 0
  outer loop
  vertex 0.0134592941 0.0027671787 0.0221242197
  vertex -0.0114207799 0.0027671787 0.0240371954
  vertex -0.011829529 0.0027671787 0.0224492997
  endloop
 endfacet

 facet normal 0 -1 0
  outer loop
  vertex 0.0134592941 0.0027671787 0.0221242197
  vertex -0.011829529 0.0027671787 0.0224492997
  vertex -0.01258827 0.0027671787 0.0187067054
  endloop
 endfacet

 facet normal 0 -1 0
  outer loop
  vertex 0.0134592941 0.0027671787 0.0221242197
  vertex -0.01258827 0.0027671787 0.0187067054
  vertex -0.0126393642 0.0027671787 0.0176064316
  endloop
 endfacet

 facet normal 0 -1 0
  outer loop
  vertex 0.0134592941 0.0027671787 0.0221242197
  vertex -0.0126393642 0.0027671787 0.0176064316
  vertex -0.0126393642 0.0027671787 0.0175564196
  endloop
 endfacet

 facet normal 0 -1 0
  outer loop
  vertex 0.0134592941 0.0027671787 0.0221242197
  vertex -0.0126393642 0.0027671787 0.0175564196
  vertex -0.0117937643 0.0027671787 0.000889784249
  endloop
 endfacet

 facet normal 0 -1 0
  outer loop
  vertex 0.0134592941 0.0027671787 0.0221242197
  vertex -0.0117937643 0.0027671787 0.000889784249
  vertex -0.0117401155 0.0027671787 0.000539696892
  endloop
 endfacet

 facet normal 0 -1 0
  outer loop
  vertex 0.0134592941 0.0027671787 0.0221242197
  vertex -0.0117401155 0.0027671787 0.000539696892
  vertex -0.0107948817 0.0027671787 -0.00464075385
  endloop
 endfacet

 facet normal 0 -1 0
  outer loop
  vertex 0.0134592941 0.0027671787 0.0221242197
  vertex -0.0107948817 0.0027671787 -0.00464075385
  vertex -0.0105445227 0.0027671787 -0.00551180262
  endloop
 endfacet

 facet normal 0 -1 0
  outer loop
  vertex 0.0134592941 0.0027671787 0.0221242197
  vertex -0.0105445227 0.0027671787 -0.00551180262
  vertex -0.0103784679 0.0027671787 -0.00591607112
  endloop
 endfacet

 facet normal 0 -1 0
  outer loop
  vertex 0.0134592941 0.0027671787 0.0221242197
  vertex -0.0103784679 0.0027671787 -0.00591607112
  vertex 0.0101995161 0.0027671787 -0.00591607112
  endloop
 endfacet

 facet normal 0 -1 0
  outer loop
  vertex 0.0134592941 0.0027671787 0.0221242197
  vertex 0.0101995161 0.0027671787 -0.00591607112
  vertex 0.0107692108 0.0027671787 -0.00308620161
  endloop
 endfacet

 facet normal 0 -1 0
  outer loop
  vertex 0.0134592941 0.0027671787 0.0221242197
  vertex 0.0107692108 0.0027671787 -0.00308620161
  vertex 0.0109838042 0.0027671787 -0.00199843105
  endloop
 endfacet

 facet normal 0 -1 0
  outer loop
  vertex 0.0134592941 0.0027671787 0.0221242197
  vertex 0.0109838042 0.0027671787 -0.00199843105
  vertex 0.0110297892 0.0027671787 -0.00163584214
  endloop
 endfacet

 facet normal 0 -1 0
  outer loop
  vertex 0.0134592941 0.0027671787 0.0221242197
  vertex 0.0110297892 0.0027671787 -0.00163584214
  vertex 0.0114308745 0.0027671787 0.00184835587
  endloop
 endfacet

 facet normal 0 -1 0
  outer loop
  vertex 0.0134592941 0.0027671787 0.0221242197
  vertex 0.0114308745 0.0027671787 0.00184835587
  vertex 0.0134490756 0.0027671787 0.0215699151
  endloop
 endfacet

 facet normal 0.95284605 0.302945167 -0.0175656192
  outer loop
  vertex 0.0134592941 0.0027671787 0.0221242197
  vertex 0.0134490756 0.0027671787 0.0215699151
  vertex 0.011499851 0.00950022973 0.031955827
  endloop
 endfacet

 facet normal 0.959184587 0.282769948 -0.00248557678
  outer loop
  vertex 0.0134592941 0.0027671787 0.0221242197
  vertex 0.011499851 0.00950022973 0.031955827
  vertex 0.0131987166 0.00369149051 0.0267211925
  endloop
 endfacet

 facet normal 0.986161947 0.163526237 0.0272720903
  outer loop
  vertex 0.0131987166 0.00369149051 0.0267211925
  vertex 0.0131757241 0.00366263883 0.0277256109
  vertex 0.0133571075 0.00295524648 0.0254083686
  endloop
 endfacet

 facet normal 0.984806418 0.172227204 0.0222289618
  outer loop
  vertex 0.0131987166 0.00369149051 0.0267211925
  vertex 0.0133571075 0.00295524648 0.0254083686
  vertex 0.0134490756 0.0027671787 0.0227910522
  endloop
 endfacet

 facet normal 0.966220021 0.256027848 0.0294726696
  outer loop
  vertex 0.0131987166 0.00369149051 0.0267211925
  vertex 0.011499851 0.00950022973 0.031955827
  vertex 0.0131757241 0.00366263883 0.0277256109
  endloop
 endfacet

 facet normal 0.993780613 0.107992969 0.0271598604
  outer loop
  vertex 0.0134490756 0.0027671787 0.0227910522
  vertex 0.0133571075 0.00295524648 0.0254083686
  vertex 0.0133775445 0.0027671787 0.0254083686
  endloop
 endfacet

 facet normal 0.919156551 0.385669887 -0.0800623
  outer loop
  vertex 0.0134490756 0.0027671787 0.0215699151
  vertex 0.00931304134 0.0128779756 0.0227910522
  vertex 0.00938712619 0.0129730776 0.0240997095
  endloop
 endfacet

 facet normal 0.919641912 0.385121644 -0.0770712867
  outer loop
  vertex 0.0134490756 0.0027671787 0.0215699151
  vertex 0.00938712619 0.0129730776 0.0240997095
  vertex 0.011499851 0.00950022973 0.031955827
  endloop
 endfacet

 facet normal 0.985844374 0.133913174 -0.100886144
  outer loop
  vertex 0.0134490756 0.0027671787 0.0215699151
  vertex 0.0114308745 0.0027671787 0.00184835587
  vertex 0.0114053274 0.00295524648 0.00184835587
  endloop
 endfacet

 facet normal 0.917759597 0.386470407 -0.0914220959
  outer loop
  vertex 0.0134490756 0.0027671787 0.0215699151
  vertex 0.0114053274 0.00295524648 0.00184835587
  vertex 0.00931304134 0.0128779756 0.0227910522
  endloop
 endfacet

 facet normal 0.877932787 0.469976038 0.0914139971
  outer loop
  vertex 0.011499851 0.00950022973 0.031955827
  vertex 0.0109735858 0.0104833124 0.031955827
  vertex 0.00924406387 0.0127988998 0.036661163
  endloop
 endfacet

 facet normal 0.928529382 0.266985357 0.257976949
  outer loop
  vertex 0.011499851 0.00950022973 0.031955827
  vertex 0.00924406387 0.0127988998 0.036661163
  vertex 0.012641795 0.00426424295 0.0332644843
  endloop
 endfacet

 facet normal 0.971008241 0.228951424 0.0687344447
  outer loop
  vertex 0.011499851 0.00950022973 0.031955827
  vertex 0.012641795 0.00426424295 0.0332644843
  vertex 0.0131757241 0.00366263883 0.0277256109
  endloop
 endfacet

 facet normal 0.881267309 0.471761137 -0.0284517761
  outer loop
  vertex 0.011499851 0.00950022973 0.031955827
  vertex 0.00938712619 0.0129730776 0.0240997095
  vertex 0.0109735858 0.0104833124 0.031955827
  endloop
 endfacet

 facet normal 0.994951606 0.0689946413 0.0728773698
  outer loop
  vertex 0.0131757241 0.00366263883 0.0277256109
  vertex 0.0131374039 0.00329077709 0.0286008269
  vertex 0.0132983485 0.00295524648 0.0267211925
  endloop
 endfacet

 facet normal 0.993044019 0.109033152 0.0444460772
  outer loop
  vertex 0.0131757241 0.00366263883 0.0277256109
  vertex 0.0132983485 0.00295524648 0.0267211925
  vertex 0.0133571075 0.00295524648 0.0254083686
  endloop
 endfacet

 facet normal 0.991573811 0.0977880284 0.0849631876
  outer loop
  vertex 0.0131757241 0.00366263883 0.0277256109
  vertex 0.012641795 0.00426424295 0.0332644843
  vertex 0.0131374039 0.00329077709 0.0286008269
  endloop
 endfacet

 facet normal 0.993164659 0.107926026 0.0444514789
  outer loop
  vertex 0.0133571075 0.00295524648 0.0254083686
  vertex 0.0132983485 0.00295524648 0.0267211925
  vertex 0.0133775445 0.0027671787 0.0254083686
  endloop
 endfacet

 facet normal 0.997155607 0.0541850328 0.052390866
  outer loop
  vertex 0.0133775445 0.0027671787 0.0254083686
  vertex 0.0132983485 0.00295524648 0.0267211925
  vertex 0.0133085679 0.0027671787 0.0267211925
  endloop
 endfacet

 facet normal 0.257072747 0.956484437 -0.13802591
  outer loop
  vertex 0.00931304134 0.0128779756 0.0227910522
  vertex 0.00924150925 0.0127967643 0.0220950469
  vertex 0.00856451876 0.0132680014 0.0240997095
  endloop
 endfacet

 facet normal 0.329579353 0.939679146 -0.0915452391
  outer loop
  vertex 0.00931304134 0.0128779756 0.0227910522
  vertex 0.00856451876 0.0132680014 0.0240997095
  vertex 0.00856451876 0.0135233914 0.0267211925
  endloop
 endfacet

 facet normal 0.346127719 0.93410027 -0.087477304
  outer loop
  vertex 0.00931304134 0.0128779756 0.0227910522
  vertex 0.00856451876 0.0135233914 0.0267211925
  vertex 0.00938712619 0.0129730776 0.0240997095
  endloop
 endfacet

 facet normal 0.890545487 0.439040035 -0.119048625
  outer loop
  vertex 0.00931304134 0.0128779756 0.0227910522
  vertex 0.0114053274 0.00295524648 0.00184835587
  vertex 0.0109838042 0.0027671787 -0.00199843105
  endloop
 endfacet

 facet normal 0.854116619 0.499160856 -0.146025151
  outer loop
  vertex 0.00931304134 0.0128779756 0.0227910522
  vertex 0.0109838042 0.0027671787 -0.00199843105
  vertex 0.00924150925 0.0127967643 0.0220950469
  endloop
 endfacet

 facet normal 0.473312408 0.880148888 -0.0362417102
  outer loop
  vertex 0.00938712619 0.0129730776 0.0240997095
  vertex 0.00856451876 0.0135233914 0.0267211925
  vertex 0.00939990021 0.0130200954 0.0254083686
  endloop
 endfacet

 facet normal 0.877901435 0.478148788 -0.025747668
  outer loop
  vertex 0.00938712619 0.0129730776 0.0240997095
  vertex 0.00939990021 0.0130200954 0.0254083686
  vertex 0.0109735858 0.0104833124 0.031955827
  endloop
 endfacet

 facet normal 0.984515667 0.133732691 -0.113332957
  outer loop
  vertex 0.0114308745 0.0027671787 0.00184835587
  vertex 0.0110297892 0.0027671787 -0.00163584214
  vertex 0.0114053274 0.00295524648 0.00184835587
  endloop
 endfacet

 facet normal 0.936380625 0.330285788 -0.118754223
  outer loop
  vertex 0.0114053274 0.00295524648 0.00184835587
  vertex 0.0110297892 0.0027671787 -0.00163584214
  vertex 0.0109838042 0.0027671787 -0.00199843105
  endloop
 endfacet

 facet normal 0.86984241 0.492999166 -0.0180569775
  outer loop
  vertex 0.0109735858 0.0104833124 0.031955827
  vertex 0.00939990021 0.0130200954 0.0254083686
  vertex 0.00939990021 0.0130681796 0.0267211925
  endloop
 endfacet

 facet normal 0.849059045 0.528268218 0.00560701452
  outer loop
  vertex 0.0109735858 0.0104833124 0.031955827
  vertex 0.00939990021 0.0130681796 0.0267211925
  vertex 0.00939990021 0.0130542899 0.0280298535
  endloop
 endfacet

 facet normal 0.830383301 0.556304097 0.0314526781
  outer loop
  vertex 0.0109735858 0.0104833124 0.031955827
  vertex 0.00939990021 0.0130542899 0.0280298535
  vertex 0.00924406387 0.0127988998 0.036661163
  endloop
 endfacet

 facet normal 0 0 1
  outer loop
  vertex 0.00924406387 0.0127988998 0.036661163
  vertex 0.00906523596 0.0128352325 0.036661163
  vertex 0.00856451876 0.0128865242 0.036661163
  endloop
 endfacet

 facet normal 0 0 1
  outer loop
  vertex 0.00924406387 0.0127988998 0.036661163
  vertex 0.00856451876 0.0128865242 0.036661163
  vertex 0.00804591738 0.0129121682 0.036661163
  endloop
 endfacet

 facet normal 0 0 1
  outer loop
  vertex 0.00924406387 0.0127988998 0.036661163
  vertex 0.00804591738 0.0129121682 0.036661163
  vertex 0.0072539649 0.0129485009 0.036661163
  endloop
 endfacet

 facet normal 0 0 1
  outer loop
  vertex 0.00924406387 0.0127988998 0.036661163
  vertex 0.0072539649 0.0129485009 0.036661163
  vertex -0.00777779892 0.0129485009 0.036661163
  endloop
 endfacet

 facet normal 0 0 1
  outer loop
  vertex 0.00924406387 0.0127988998 0.036661163
  vertex -0.00777779892 0.0129485009 0.036661163
  vertex -0.00845479034 0.0129474318 0.036661163
  endloop
 endfacet

 facet normal 0 0 1
  outer loop
  vertex 0.00924406387 0.0127988998 0.036661163
  vertex -0.00845479034 0.0129474318 0.036661163
  vertex -0.00922375079 0.0128566027 0.036661163
  endloop
 endfacet

 facet normal 0 0 1
  outer loop
  vertex 0.00924406387 0.0127988998 0.036661163
  vertex -0.00922375079 0.0128566027 0.036661163
  vertex -0.00935404003 0.0126375472 0.036661163
  endloop
 endfacet

 facet normal 0 0 1
  outer loop
  vertex 0.00924406387 0.0127988998 0.036661163
  vertex -0.00935404003 0.0126375472 0.036661163
  vertex -0.00957629737 0.0121588279 0.036661163
  endloop
 endfacet

 facet normal 0 0 1
  outer loop
  vertex 0.00924406387 0.0127988998 0.036661163
  vertex -0.00957629737 0.0121588279 0.036661163
  vertex -0.00974235218 0.0115839383 0.036661163
  endloop
 endfacet

 facet normal 0 0 1
  outer loop
  vertex 0.00924406387 0.0127988998 0.036661163
  vertex -0.00974235218 0.0115839383 0.036661163
  vertex -0.00985220354 0.0108092269 0.036661163
  endloop
 endfacet

 facet normal 0 0 1
  outer loop
  vertex 0.00924406387 0.0127988998 0.036661163
  vertex -0.00985220354 0.0108092269 0.036661163
  vertex -0.00985986739 0.0076580178 0.036661163
  endloop
 endfacet

 facet normal 0 0 1
  outer loop
  vertex 0.00924406387 0.0127988998 0.036661163
  vertex -0.00985986739 0.0076580178 0.036661163
  vertex -0.00985986739 0.0068822368 0.036661163
  endloop
 endfacet

 facet normal 0 0 1
  outer loop
  vertex 0.00924406387 0.0127988998 0.036661163
  vertex -0.00985986739 0.0068822368 0.036661163
  vertex -0.00985731278 0.00557323964 0.036661163
  endloop
 endfacet

 facet normal 0 0 1
  outer loop
  vertex 0.00924406387 0.0127988998 0.036661163
  vertex -0.00985731278 0.00557323964 0.036661163
  vertex -0.00959673431 0.00423645973 0.036661163
  endloop
 endfacet

 facet normal 0 0 1
  outer loop
  vertex 0.00924406387 0.0127988998 0.036661163
  vertex -0.00959673431 0.00423645973 0.036661163
  vertex -0.00924418867 0.00351090217 0.036661163
  endloop
 endfacet

 facet normal 0 0 1
  outer loop
  vertex 0.00924406387 0.0127988998 0.036661163
  vertex -0.00924418867 0.00351090217 0.036661163
  vertex -0.00892485306 0.00345106237 0.036661163
  endloop
 endfacet

 facet normal 0 0 1
  outer loop
  vertex 0.00924406387 0.0127988998 0.036661163
  vertex -0.00892485306 0.00345106237 0.036661163
  vertex -0.00582857523 0.00308133778 0.036661163
  endloop
 endfacet

 facet normal 0 0 1
  outer loop
  vertex 0.00924406387 0.0127988998 0.036661163
  vertex -0.00582857523 0.00308133778 0.036661163
  vertex -0.00502129458 0.00308026932 0.036661163
  endloop
 endfacet

 facet normal 0 0 1
  outer loop
  vertex 0.00924406387 0.0127988998 0.036661163
  vertex -0.00502129458 0.00308026932 0.036661163
  vertex -0.00501107564 0.00308026932 0.036661163
  endloop
 endfacet

 facet normal 0 0 1
  outer loop
  vertex 0.00924406387 0.0127988998 0.036661163
  vertex -0.00501107564 0.00308026932 0.036661163
  vertex 0.0072539649 0.00309522939 0.036661163
  endloop
 endfacet

 facet normal 0 0 1
  outer loop
  vertex 0.00924406387 0.0127988998 0.036661163
  vertex 0.0072539649 0.00309522939 0.036661163
  vertex 0.00856451876 0.00314758904 0.036661163
  endloop
 endfacet

 facet normal 0 0 1
  outer loop
  vertex 0.00924406387 0.0127988998 0.036661163
  vertex 0.00856451876 0.00314758904 0.036661163
  vertex 0.0094995331 0.00331001147 0.036661163
  endloop
 endfacet

 facet normal 0 0 1
  outer loop
  vertex 0.00924406387 0.0127988998 0.036661163
  vertex 0.0094995331 0.00331001147 0.036661163
  vertex 0.00959916506 0.00426424295 0.036661163
  endloop
 endfacet

 facet normal 0 0 1
  outer loop
  vertex 0.00924406387 0.0127988998 0.036661163
  vertex 0.00959916506 0.00426424295 0.036661163
  vertex 0.00961960386 0.00557323964 0.036661163
  endloop
 endfacet

 facet normal 0 0 1
  outer loop
  vertex 0.00924406387 0.0127988998 0.036661163
  vertex 0.00961960386 0.00557323964 0.036661163
  vertex 0.00958383735 0.0108092269 0.036661163
  endloop
 endfacet

 facet normal 0 0 1
  outer loop
  vertex 0.00924406387 0.0127988998 0.036661163
  vertex 0.00958383735 0.0108092269 0.036661163
  vertex 0.00943055656 0.0121406624 0.036661163
  endloop
 endfacet

 facet normal 0.927095354 0.262665242 0.267397404
  outer loop
  vertex 0.00924406387 0.0127988998 0.036661163
  vertex 0.00943055656 0.0121406624 0.036661163
  vertex 0.012641795 0.00426424295 0.0332644843
  endloop
 endfacet

 facet normal 0.449785829 0.89246881 0.0345277935
  outer loop
  vertex 0.00924406387 0.0127988998 0.036661163
  vertex 0.00939990021 0.0130542899 0.0280298535
  vertex 0.00856451876 0.0134753045 0.0280298535
  endloop
 endfacet

 facet normal 0.1987326 0.97815311 0.0610080473
  outer loop
  vertex 0.00924406387 0.0127988998 0.036661163
  vertex 0.00856451876 0.0134753045 0.0280298535
  vertex 0.00906523596 0.0128352325 0.036661163
  endloop
 endfacet

 facet normal 0.919888496 0.241929799 0.308666646
  outer loop
  vertex 0.012641795 0.00426424295 0.0332644843
  vertex 0.00943055656 0.0121406624 0.036661163
  vertex 0.0120797651 0.00525801163 0.0341605395
  endloop
 endfacet

 facet normal 0.912259042 0.187611222 0.364123076
  outer loop
  vertex 0.012641795 0.00426424295 0.0332644843
  vertex 0.0120797651 0.00525801163 0.0341605395
  vertex 0.012212608 0.00426424295 0.034339752
  endloop
 endfacet

 facet normal 0.927681208 0.0479702391 0.370278746
  outer loop
  vertex 0.012641795 0.00426424295 0.0332644843
  vertex 0.012212608 0.00426424295 0.034339752
  vertex 0.0126443496 0.0027671787 0.0334520303
  endloop
 endfacet

 facet normal 0.957695127 0.0373814777 0.285346806
  outer loop
  vertex 0.012641795 0.00426424295 0.0332644843
  vertex 0.0126443496 0.0027671787 0.0334520303
  vertex 0.0126928883 0.00295524648 0.0332644843
  endloop
 endfacet

 facet normal 0.994470358 0.0388169214 0.0975803062
  outer loop
  vertex 0.012641795 0.00426424295 0.0332644843
  vertex 0.0126928883 0.00295524648 0.0332644843
  vertex 0.0131374039 0.00329077709 0.0286008269
  endloop
 endfacet

 facet normal 0.995398998 0.0233963914 0.092916064
  outer loop
  vertex 0.0131374039 0.00329077709 0.0286008269
  vertex 0.0131041929 0.0027671787 0.0290884487
  vertex 0.0131808333 0.0027671787 0.0282674115
  endloop
 endfacet

 facet normal 0.995505989 0.0242872387 0.0915310085
  outer loop
  vertex 0.0131374039 0.00329077709 0.0286008269
  vertex 0.0131808333 0.0027671787 0.0282674115
  vertex 0.013196161 0.0027671787 0.0281007029
  endloop
 endfacet

 facet normal 0.996111751 0.0342551135 0.0811664313
  outer loop
  vertex 0.0131374039 0.00329077709 0.0286008269
  vertex 0.013196161 0.0027671787 0.0281007029
  vertex 0.0133085679 0.0027671787 0.0267211925
  endloop
 endfacet

 facet normal 0.995669663 0.0541042835 0.0755969062
  outer loop
  vertex 0.0131374039 0.00329077709 0.0286008269
  vertex 0.0133085679 0.0027671787 0.0267211925
  vertex 0.0132983485 0.00295524648 0.0267211925
  endloop
 endfacet

 facet normal 0.994770169 0.0316968188 0.0970966145
  outer loop
  vertex 0.0131374039 0.00329077709 0.0286008269
  vertex 0.0126928883 0.00295524648 0.0332644843
  vertex 0.0129483575 0.00295524648 0.0306471679
  endloop
 endfacet

 facet normal 0.99500078 0.0265486669 0.0962738022
  outer loop
  vertex 0.0131374039 0.00329077709 0.0286008269
  vertex 0.0129483575 0.00295524648 0.0306471679
  vertex 0.0131041929 0.0027671787 0.0290884487
  endloop
 endfacet

 facet normal 0.0841642916 0.959527612 -0.268743932
  outer loop
  vertex 0.00924150925 0.0127967643 0.0220950469
  vertex 0.00856451876 0.0128363017 0.0220241956
  vertex 0.00856451876 0.0130510824 0.0227910522
  endloop
 endfacet

 facet normal 0.198457569 0.966916323 -0.160272986
  outer loop
  vertex 0.00924150925 0.0127967643 0.0220950469
  vertex 0.00856451876 0.0130510824 0.0227910522
  vertex 0.00856451876 0.0132680014 0.0240997095
  endloop
 endfacet

 facet normal 0.828077495 0.536284089 -0.163361698
  outer loop
  vertex 0.00924150925 0.0127967643 0.0220950469
  vertex 0.0109838042 0.0027671787 -0.00199843105
  vertex 0.0107692108 0.0027671787 -0.00308620161
  endloop
 endfacet

 facet normal 0.823896468 0.541926324 -0.165862635
  outer loop
  vertex 0.00924150925 0.0127967643 0.0220950469
  vertex 0.0107692108 0.0027671787 -0.00308620161
  vertex 0.0101995161 0.0027671787 -0.00591607112
  endloop
 endfacet

 facet normal 0.781637311 0.595231354 -0.18639417
  outer loop
  vertex 0.00924150925 0.0127967643 0.0220950469
  vertex 0.0101995161 0.0027671787 -0.00591607112
  vertex 0.00944843888 0.00375346746 -0.00591607112
  endloop
 endfacet

 facet normal 0.728679419 0.653287292 -0.205528587
  outer loop
  vertex 0.00924150925 0.0127967643 0.0220950469
  vertex 0.00944843888 0.00375346746 -0.00591607112
  vertex 0.00940245483 0.00380475889 -0.00591607112
  endloop
 endfacet

 facet normal 0.329245806 0.899604559 -0.286895335
  outer loop
  vertex 0.00924150925 0.0127967643 0.0220950469
  vertex 0.00940245483 0.00380475889 -0.00591607112
  vertex 0.00934114214 0.00382719841 -0.00591607112
  endloop
 endfacet

 facet normal 0.304640055 0.9074108 -0.289482534
  outer loop
  vertex 0.00924150925 0.0127967643 0.0220950469
  vertex 0.00934114214 0.00382719841 -0.00591607112
  vertex 0.00856451876 0.00408793008 -0.00591607112
  endloop
 endfacet

 facet normal 0.086678423 0.950722396 -0.297680527
  outer loop
  vertex 0.00924150925 0.0127967643 0.0220950469
  vertex 0.00856451876 0.00408793008 -0.00591607112
  vertex 0.00856451876 0.0128363017 0.0220241956
  endloop
 endfacet

 facet normal 0.070609495 0.984076738 -0.163117439
  outer loop
  vertex 0.00856451876 0.0132680014 0.0240997095
  vertex 0.00856451876 0.0130510824 0.0227910522
  vertex 0.0072539649 0.0133620361 0.0240997095
  endloop
 endfacet

 facet normal 0.0710398704 0.990074813 -0.121265218
  outer loop
  vertex 0.00856451876 0.0132680014 0.0240997095
  vertex 0.0072539649 0.0133620361 0.0240997095
  vertex 0.0072539649 0.0135223223 0.0254083686
  endloop
 endfacet

 facet normal 0.0714254007 0.990093827 -0.120882802
  outer loop
  vertex 0.00856451876 0.0132680014 0.0240997095
  vertex 0.0072539649 0.0135223223 0.0254083686
  vertex 0.0072539649 0.0136826076 0.0267211925
  endloop
 endfacet

 facet normal 0.120041296 0.988090992 -0.0962616056
  outer loop
  vertex 0.00856451876 0.0132680014 0.0240997095
  vertex 0.0072539649 0.0136826076 0.0267211925
  vertex 0.00856451876 0.0135233914 0.0267211925
  endloop
 endfacet

 facet normal 0.120521203 0.99204123 0.0364524089
  outer loop
  vertex 0.00856451876 0.0135233914 0.0267211925
  vertex 0.0072539649 0.0136826076 0.0267211925
  vertex 0.00856451876 0.0134753045 0.0280298535
  endloop
 endfacet

 facet normal 0.449812114 0.892520905 0.0327955559
  outer loop
  vertex 0.00856451876 0.0135233914 0.0267211925
  vertex 0.00856451876 0.0134753045 0.0280298535
  vertex 0.00939990021 0.0130542899 0.0280298535
  endloop
 endfacet

 facet normal 0.478465796 0.878056705 0.00931965467
  outer loop
  vertex 0.00856451876 0.0135233914 0.0267211925
  vertex 0.00939990021 0.0130542899 0.0280298535
  vertex 0.00939990021 0.0130681796 0.0267211925
  endloop
 endfacet

 facet normal 0.478239298 0.877641082 -0.0321451798
  outer loop
  vertex 0.00856451876 0.0135233914 0.0267211925
  vertex 0.00939990021 0.0130681796 0.0267211925
  vertex 0.00939990021 0.0130200954 0.0254083686
  endloop
 endfacet

 facet normal 0.108365677 0.991832852 0.0672648475
  outer loop
  vertex 0.00906523596 0.0128352325 0.036661163
  vertex 0.00856451876 0.0134753045 0.0280298535
  vertex 0.0072539649 0.0136184935 0.0280298535
  endloop
 endfacet

 facet normal 0.101662248 0.99244225 0.06872686
  outer loop
  vertex 0.00906523596 0.0128352325 0.036661163
  vertex 0.0072539649 0.0136184935 0.0280298535
  vertex 0.00856451876 0.0128865242 0.036661163
  endloop
 endfacet

 facet normal 0.769150078 0.0885482207 0.632903874
  outer loop
  vertex 0.00943055656 0.0121406624 0.036661163
  vertex 0.00958383735 0.0108092269 0.036661163
  vertex 0.0121180844 0.0027671787 0.0347065106
  endloop
 endfacet

 facet normal 0.787879467 0.0991542637 0.607794702
  outer loop
  vertex 0.00943055656 0.0121406624 0.036661163
  vertex 0.0121180844 0.0027671787 0.0347065106
  vertex 0.012212608 0.00426424295 0.034339752
  endloop
 endfacet

 facet normal 0.890641212 0.19328019 0.411583513
  outer loop
  vertex 0.00943055656 0.0121406624 0.036661163
  vertex 0.012212608 0.00426424295 0.034339752
  vertex 0.0120797651 0.00525801163 0.0341605395
  endloop
 endfacet

 facet normal 0.108483091 0.992907405 0.0486451611
  outer loop
  vertex 0.00856451876 0.0134753045 0.0280298535
  vertex 0.0072539649 0.0136826076 0.0267211925
  vertex 0.0072539649 0.0136184935 0.0280298535
  endloop
 endfacet

 facet normal 0.789924264 0.0984035358 0.605257332
  outer loop
  vertex 0.012212608 0.00426424295 0.034339752
  vertex 0.0121180844 0.0027671787 0.0347065106
  vertex 0.0121436315 0.0027671787 0.0346731693
  endloop
 endfacet

 facet normal 0.873631954 0.0670826286 0.481941134
  outer loop
  vertex 0.012212608 0.00426424295 0.034339752
  vertex 0.0121436315 0.0027671787 0.0346731693
  vertex 0.012166624 0.0027671787 0.0346314907
  endloop
 endfacet

 facet normal 0.92593354 0.0446436815 0.375038713
  outer loop
  vertex 0.012212608 0.00426424295 0.034339752
  vertex 0.012166624 0.0027671787 0.0346314907
  vertex 0.0126443496 0.0027671787 0.0334520303
  endloop
 endfacet

 facet normal 0.96475333 0.0131048253 0.262829483
  outer loop
  vertex 0.0126443496 0.0027671787 0.0334520303
  vertex 0.0126954429 0.0027671787 0.0332644843
  vertex 0.0126928883 0.00295524648 0.0332644843
  endloop
 endfacet

 facet normal 0.995142996 0.0135176256 0.0975085199
  outer loop
  vertex 0.0126928883 0.00295524648 0.0332644843
  vertex 0.0126954429 0.0027671787 0.0332644843
  vertex 0.0128052942 0.0027671787 0.032143373
  endloop
 endfacet

 facet normal 0.995144129 0.0140245073 0.0974236056
  outer loop
  vertex 0.0126928883 0.00295524648 0.0332644843
  vertex 0.0128052942 0.0027671787 0.032143373
  vertex 0.0130888643 0.0027671787 0.0292468201
  endloop
 endfacet

 facet normal 0.995066583 0.0202285964 0.09712556
  outer loop
  vertex 0.0126928883 0.00295524648 0.0332644843
  vertex 0.0130888643 0.0027671787 0.0292468201
  vertex 0.0129483575 0.00295524648 0.0306471679
  endloop
 endfacet

 facet normal 0.995004654 0.0262817796 0.0963063911
  outer loop
  vertex 0.0131041929 0.0027671787 0.0290884487
  vertex 0.0129483575 0.00295524648 0.0306471679
  vertex 0.0130888643 0.0027671787 0.0292468201
  endloop
 endfacet

 facet normal 0.0315686651 0.954320669 -0.29711172
  outer loop
  vertex 0.00856451876 0.0128363017 0.0220241956
  vertex 0.0072539649 0.012864084 0.0219741818
  vertex 0.0072539649 0.013118403 0.0227910522
  endloop
 endfacet

 facet normal 0.0494036749 0.96176827 -0.26937148
  outer loop
  vertex 0.00856451876 0.0128363017 0.0220241956
  vertex 0.0072539649 0.013118403 0.0227910522
  vertex 0.00856451876 0.0130510824 0.0227910522
  endloop
 endfacet

 facet normal 0.0752995834 0.951604903 -0.297956854
  outer loop
  vertex 0.00856451876 0.0128363017 0.0220241956
  vertex 0.00856451876 0.00408793008 -0.00591607112
  vertex 0.00846999511 0.00409540953 -0.00591607112
  endloop
 endfacet

 facet normal 0.0644373447 0.952341437 -0.29815051
  outer loop
  vertex 0.00856451876 0.0128363017 0.0220241956
  vertex 0.00846999511 0.00409540953 -0.00591607112
  vertex 0.0072539649 0.00417768862 -0.00591607112
  endloop
 endfacet

 facet normal 0.0315718465 0.954289317 -0.297212571
  outer loop
  vertex 0.00856451876 0.0128363017 0.0220241956
  vertex 0.0072539649 0.00417768862 -0.00591607112
  vertex 0.0072539649 0.012864084 0.0219741818
  endloop
 endfacet

 facet normal 0.0504355803 0.981856823 -0.182793096
  outer loop
  vertex 0.00856451876 0.0130510824 0.0227910522
  vertex 0.0072539649 0.013118403 0.0227910522
  vertex 0.0072539649 0.0133620361 0.0240997095
  endloop
 endfacet

 facet normal 0 0 -1
  outer loop
  vertex 0.0101995161 0.0027671787 -0.00591607112
  vertex -0.0103784679 0.0027671787 -0.00591607112
  vertex -0.00943578966 0.00389344967 -0.00591607112
  endloop
 endfacet

 facet normal 0 0 -1
  outer loop
  vertex 0.0101995161 0.0027671787 -0.00591607112
  vertex -0.00943578966 0.00389344967 -0.00591607112
  vertex -0.00845479034 0.00417768862 -0.00591607112
  endloop
 endfacet

 facet normal 0 0 -1
  outer loop
  vertex 0.0101995161 0.0027671787 -0.00591607112
  vertex -0.00845479034 0.00417768862 -0.00591607112
  vertex 0.0072539649 0.00417768862 -0.00591607112
  endloop
 endfacet

 facet normal 0 0 -1
  outer loop
  vertex 0.0101995161 0.0027671787 -0.00591607112
  vertex 0.0072539649 0.00417768862 -0.00591607112
  vertex 0.00846999511 0.00409540953 -0.00591607112
  endloop
 endfacet

 facet normal 0 0 -1
  outer loop
  vertex 0.0101995161 0.0027671787 -0.00591607112
  vertex 0.00846999511 0.00409540953 -0.00591607112
  vertex 0.00856451876 0.00408793008 -0.00591607112
  endloop
 endfacet

 facet normal 0 0 -1
  outer loop
  vertex 0.0101995161 0.0027671787 -0.00591607112
  vertex 0.00856451876 0.00408793008 -0.00591607112
  vertex 0.00934114214 0.00382719841 -0.00591607112
  endloop
 endfacet

 facet normal 0 0 -1
  outer loop
  vertex 0.0101995161 0.0027671787 -0.00591607112
  vertex 0.00934114214 0.00382719841 -0.00591607112
  vertex 0.00940245483 0.00380475889 -0.00591607112
  endloop
 endfacet

 facet normal 0 0 -1
  outer loop
  vertex 0.0101995161 0.0027671787 -0.00591607112
  vertex 0.00940245483 0.00380475889 -0.00591607112
  vertex 0.00944843888 0.00375346746 -0.00591607112
  endloop
 endfacet

 facet normal 0 0.983108044 -0.183026046
  outer loop
  vertex 0.0072539649 0.0133620361 0.0240997095
  vertex 0.0072539649 0.013118403 0.0227910522
  vertex -0.00845479034 0.013118403 0.0227910522
  endloop
 endfacet

 facet normal 0 0.983108044 -0.183026046
  outer loop
  vertex 0.0072539649 0.0133620361 0.0240997095
  vertex -0.00845479034 0.013118403 0.0227910522
  vertex -0.00845479034 0.0133620361 0.0240997095
  endloop
 endfacet

 facet normal 0 0.99258256 -0.121572368
  outer loop
  vertex 0.0072539649 0.0133620361 0.0240997095
  vertex -0.00845479034 0.0133620361 0.0240997095
  vertex -0.0071442374 0.0135223223 0.0254083686
  endloop
 endfacet

 facet normal 0 0.99258256 -0.121572368
  outer loop
  vertex 0.0072539649 0.0133620361 0.0240997095
  vertex -0.0071442374 0.0135223223 0.0254083686
  vertex 0.0072539649 0.0135223223 0.0254083686
  endloop
 endfacet

 facet normal 0 0.992629051 -0.121192351
  outer loop
  vertex 0.0072539649 0.0135223223 0.0254083686
  vertex -0.0071442374 0.0135223223 0.0254083686
  vertex -0.0071442374 0.0136826076 0.0267211925
  endloop
 endfacet

 facet normal 0 0.992629051 -0.121192351
  outer loop
  vertex 0.0072539649 0.0135223223 0.0254083686
  vertex -0.0071442374 0.0136826076 0.0267211925
  vertex 0.0072539649 0.0136826076 0.0267211925
  endloop
 endfacet

 facet normal 0 0.998880386 0.0473072752
  outer loop
  vertex 0.0072539649 0.0136826076 0.0267211925
  vertex -0.0071442374 0.0136826076 0.0267211925
  vertex -0.0071442374 0.013620629 0.0280298535
  endloop
 endfacet

 facet normal 0 0.998880386 0.0473072752
  outer loop
  vertex 0.0072539649 0.0136826076 0.0267211925
  vertex -0.0071442374 0.013620629 0.0280298535
  vertex 0.00594596704 0.013620629 0.0280298535
  endloop
 endfacet

 facet normal 0.00163120939 0.998800695 0.048933886
  outer loop
  vertex 0.0072539649 0.0136826076 0.0267211925
  vertex 0.00594596704 0.013620629 0.0280298535
  vertex 0.0072539649 0.0136184935 0.0280298535
  endloop
 endfacet

 facet normal 0.0492413789 0.995816588 0.0769724473
  outer loop
  vertex 0.00856451876 0.0128865242 0.036661163
  vertex 0.0072539649 0.0136184935 0.0280298535
  vertex 0.00804591738 0.0129121682 0.036661163
  endloop
 endfacet

 facet normal 0.00162826804 0.996999621 0.077390559
  outer loop
  vertex 0.0072539649 0.0136184935 0.0280298535
  vertex 0.00594596704 0.013620629 0.0280298535
  vertex 0.0072539649 0.0129485009 0.036661163
  endloop
 endfacet

 facet normal 0.0456919223 0.99595964 0.077309832
  outer loop
  vertex 0.0072539649 0.0136184935 0.0280298535
  vertex 0.0072539649 0.0129485009 0.036661163
  vertex 0.00804591738 0.0129121682 0.036661163
  endloop
 endfacet

 facet normal 0.619111776 0.00422902033 0.785291612
  outer loop
  vertex 0.00958383735 0.0108092269 0.036661163
  vertex 0.00961960386 0.00557323964 0.036661163
  vertex 0.0121180844 0.0027671787 0.0347065106
  endloop
 endfacet

 facet normal 0.609495461 -0.00951638259 0.792732418
  outer loop
  vertex 0.0121180844 0.0027671787 0.0347065106
  vertex 0.00961960386 0.00557323964 0.036661163
  vertex 0.00959916506 0.00426424295 0.036661163
  endloop
 endfacet

 facet normal 0.588836908 -0.0614814088 0.80591011
  outer loop
  vertex 0.0121180844 0.0027671787 0.0347065106
  vertex 0.00959916506 0.00426424295 0.036661163
  vertex 0.0094995331 0.00331001147 0.036661163
  endloop
 endfacet

 facet normal 0.245865062 -0.797557294 0.550865591
  outer loop
  vertex 0.0121180844 0.0027671787 0.0347065106
  vertex 0.0094995331 0.00331001147 0.036661163
  vertex 0.0102225086 0.0027671787 0.0355525538
  endloop
 endfacet

 facet normal 0 0.954796672 -0.297259897
  outer loop
  vertex 0.0072539649 0.012864084 0.0219741818
  vertex -0.00845479034 0.012864084 0.0219741818
  vertex -0.00845479034 0.013118403 0.0227910522
  endloop
 endfacet

 facet normal 0 0.954796672 -0.297259897
  outer loop
  vertex 0.0072539649 0.012864084 0.0219741818
  vertex -0.00845479034 0.013118403 0.0227910522
  vertex 0.0072539649 0.013118403 0.0227910522
  endloop
 endfacet

 facet normal 0 0.95476526 -0.297360808
  outer loop
  vertex 0.0072539649 0.012864084 0.0219741818
  vertex 0.0072539649 0.00417768862 -0.00591607112
  vertex -0.00845479034 0.00417768862 -0.00591607112
  endloop
 endfacet

 facet normal 0 0.95476526 -0.297360808
  outer loop
  vertex 0.0072539649 0.012864084 0.0219741818
  vertex -0.00845479034 0.00417768862 -0.00591607112
  vertex -0.00845479034 0.012864084 0.0219741818
  endloop
 endfacet

 facet normal -0.731414855 0.612187743 -0.300430447
  outer loop
  vertex -0.0103784679 0.0027671787 -0.00591607112
  vertex -0.0105445227 0.0027671787 -0.00551180262
  vertex -0.00943578966 0.00389344967 -0.00591607112
  endloop
 endfacet

 facet normal -0.186105534 0.965932965 -0.179828554
  outer loop
  vertex -0.00845479034 0.0133620361 0.0240997095
  vertex -0.00845479034 0.013118403 0.0227910522
  vertex -0.00919309445 0.0128341634 0.0220283642
  endloop
 endfacet

 facet normal -0.199572816 0.964204192 -0.174587741
  outer loop
  vertex -0.00845479034 0.0133620361 0.0240997095
  vertex -0.00919309445 0.0128341634 0.0220283642
  vertex -0.00932338368 0.0129452962 0.0227910522
  endloop
 endfacet

 facet normal -0.285361469 0.951657534 -0.113651954
  outer loop
  vertex -0.00845479034 0.0133620361 0.0240997095
  vertex -0.00932338368 0.0129452962 0.0227910522
  vertex -0.00943834428 0.0130671104 0.0240997095
  endloop
 endfacet

 facet normal -0.28544265 0.951928377 -0.111152321
  outer loop
  vertex -0.00845479034 0.0133620361 0.0240997095
  vertex -0.00943834428 0.0130671104 0.0240997095
  vertex -0.00845479034 0.0135148428 0.0254083686
  endloop
 endfacet

 facet normal -0.0109680807 0.993192136 -0.115970515
  outer loop
  vertex -0.00845479034 0.0133620361 0.0240997095
  vertex -0.00845479034 0.0135148428 0.0254083686
  vertex -0.0071442374 0.0136826076 0.0267211925
  endloop
 endfacet

 facet normal -0.000385160994 0.992629111 -0.121192351
  outer loop
  vertex -0.00845479034 0.0133620361 0.0240997095
  vertex -0.0071442374 0.0136826076 0.0267211925
  vertex -0.0071442374 0.0135223223 0.0254083686
  endloop
 endfacet

 facet normal -0.0187315121 0.998854041 0.0440435931
  outer loop
  vertex -0.0071442374 0.0136826076 0.0267211925
  vertex -0.00845479034 0.0136580309 0.0267211925
  vertex -0.00845479034 0.0136003271 0.0280298535
  endloop
 endfacet

 facet normal -0.0154723506 0.998760879 0.0473016128
  outer loop
  vertex -0.0071442374 0.0136826076 0.0267211925
  vertex -0.00845479034 0.0136003271 0.0280298535
  vertex -0.0071442374 0.013620629 0.0280298535
  endloop
 endfacet

 facet normal -0.018639205 0.99393177 -0.10840717
  outer loop
  vertex -0.0071442374 0.0136826076 0.0267211925
  vertex -0.00845479034 0.0135148428 0.0254083686
  vertex -0.00845479034 0.0136580309 0.0267211925
  endloop
 endfacet

 facet normal 0 0.9969818 0.077635929
  outer loop
  vertex 0.00594596704 0.013620629 0.0280298535
  vertex -0.0071442374 0.013620629 0.0280298535
  vertex -0.00777779892 0.0129485009 0.036661163
  endloop
 endfacet

 facet normal 0 0.9969818 0.077635929
  outer loop
  vertex 0.00594596704 0.013620629 0.0280298535
  vertex -0.00777779892 0.0129485009 0.036661163
  vertex 0.0072539649 0.0129485009 0.036661163
  endloop
 endfacet

 facet normal 0.147143736 -0.847059667 0.51072377
  outer loop
  vertex 0.0094995331 0.00331001147 0.036661163
  vertex 0.00856451876 0.00314758904 0.036661163
  vertex 0.0102225086 0.0027671787 0.0355525538
  endloop
 endfacet

 facet normal 0.107976668 -0.879593253 0.463310719
  outer loop
  vertex 0.0102225086 0.0027671787 0.0355525538
  vertex 0.00856451876 0.00314758904 0.036661163
  vertex 0.00984697044 0.0027671787 0.0356400721
  endloop
 endfacet

 facet normal -0.0603978187 0.953053474 -0.296717197
  outer loop
  vertex -0.00845479034 0.012864084 0.0219741818
  vertex -0.00919309445 0.0128341634 0.0220283642
  vertex -0.00845479034 0.013118403 0.0227910522
  endloop
 endfacet

 facet normal -0.0604039207 0.953021765 -0.296817809
  outer loop
  vertex -0.00845479034 0.012864084 0.0219741818
  vertex -0.00845479034 0.00417768862 -0.00591607112
  vertex -0.00919309445 0.0128341634 0.0220283642
  endloop
 endfacet

 facet normal -0.266200244 0.918741584 -0.291635871
  outer loop
  vertex -0.00845479034 0.00417768862 -0.00591607112
  vertex -0.00943578966 0.00389344967 -0.00591607112
  vertex -0.00919309445 0.0128341634 0.0220283642
  endloop
 endfacet

 facet normal -0.733387351 0.646304607 -0.210792363
  outer loop
  vertex -0.0105445227 0.0027671787 -0.00551180262
  vertex -0.0107948817 0.0027671787 -0.00464075385
  vertex -0.00943578966 0.00389344967 -0.00591607112
  endloop
 endfacet

 facet normal -0.730579078 0.652036607 -0.202737615
  outer loop
  vertex -0.00943578966 0.00389344967 -0.00591607112
  vertex -0.0107948817 0.0027671787 -0.00464075385
  vertex -0.00932338368 0.0129452962 0.0227910522
  endloop
 endfacet

 facet normal -0.679704845 0.700293243 -0.21815297
  outer loop
  vertex -0.00943578966 0.00389344967 -0.00591607112
  vertex -0.00932338368 0.0129452962 0.0227910522
  vertex -0.00919309445 0.0128341634 0.0220283642
  endloop
 endfacet

 facet normal -0.756716728 0.625113189 -0.191346034
  outer loop
  vertex -0.00932338368 0.0129452962 0.0227910522
  vertex -0.0107948817 0.0027671787 -0.00464075385
  vertex -0.0116864676 0.00351090217 0.00131489011
  endloop
 endfacet

 facet normal -0.803385973 0.572665989 -0.163171038
  outer loop
  vertex -0.00932338368 0.0129452962 0.0227910522
  vertex -0.0116864676 0.00351090217 0.00131489011
  vertex -0.0117605524 0.00365515891 0.00218593958
  endloop
 endfacet

 facet normal -0.860047817 0.495492905 -0.121674411
  outer loop
  vertex -0.00932338368 0.0129452962 0.0227910522
  vertex -0.0117605524 0.00365515891 0.00218593958
  vertex -0.00943834428 0.0130671104 0.0240997095
  endloop
 endfacet

 facet normal -0.879999399 0.463841885 -0.102233663
  outer loop
  vertex -0.00943834428 0.0130671104 0.0240997095
  vertex -0.0117324507 0.00885160826 0.0247206986
  vertex -0.0117579978 0.0101947999 0.0310347639
  endloop
 endfacet

 facet normal -0.83422631 0.548997581 -0.0516541563
  outer loop
  vertex -0.00943834428 0.0130671104 0.0240997095
  vertex -0.0117579978 0.0101947999 0.0310347639
  vertex -0.00947155524 0.0131397741 0.0254083686
  endloop
 endfacet

 facet normal -0.389730662 0.918912292 -0.0609132238
  outer loop
  vertex -0.00943834428 0.0130671104 0.0240997095
  vertex -0.00947155524 0.0131397741 0.0254083686
  vertex -0.00845479034 0.0136580309 0.0267211925
  endloop
 endfacet

 facet normal -0.294589728 0.949990094 -0.103614494
  outer loop
  vertex -0.00943834428 0.0130671104 0.0240997095
  vertex -0.00845479034 0.0136580309 0.0267211925
  vertex -0.00845479034 0.0135148428 0.0254083686
  endloop
 endfacet

 facet normal -0.875709057 0.470327199 -0.109206103
  outer loop
  vertex -0.00943834428 0.0130671104 0.0240997095
  vertex -0.0117605524 0.00365515891 0.00218593958
  vertex -0.0117452247 0.00494171539 0.0076039508
  endloop
 endfacet

 facet normal -0.879907131 0.463356882 -0.105185598
  outer loop
  vertex -0.00943834428 0.0130671104 0.0240997095
  vertex -0.0117452247 0.00494171539 0.0076039508
  vertex -0.0117324507 0.00885160826 0.0247206986
  endloop
 endfacet

 facet normal -0.405130357 0.913997412 0.0218659416
  outer loop
  vertex -0.00845479034 0.0136580309 0.0267211925
  vertex -0.00948177371 0.01320282 0.0267211925
  vertex -0.00946900062 0.0131771741 0.0280298535
  endloop
 endfacet

 facet normal -0.384735435 0.922130942 0.0406605527
  outer loop
  vertex -0.00845479034 0.0136580309 0.0267211925
  vertex -0.00946900062 0.0131771741 0.0280298535
  vertex -0.00845479034 0.0136003271 0.0280298535
  endloop
 endfacet

 facet normal -0.404779285 0.913205385 -0.0470054112
  outer loop
  vertex -0.00845479034 0.0136580309 0.0267211925
  vertex -0.00947155524 0.0131397741 0.0254083686
  vertex -0.00948177371 0.01320282 0.0267211925
  endloop
 endfacet

 facet normal -0.38466081 0.921952128 0.0451715514
  outer loop
  vertex -0.00845479034 0.0136003271 0.0280298535
  vertex -0.00946900062 0.0131771741 0.0280298535
  vertex -0.00922375079 0.0128566027 0.036661163
  endloop
 endfacet

 facet normal -0.116975039 0.990305662 0.0749093145
  outer loop
  vertex -0.00845479034 0.0136003271 0.0280298535
  vertex -0.00922375079 0.0128566027 0.036661163
  vertex -0.00845479034 0.0129474318 0.036661163
  endloop
 endfacet

 facet normal -0.0154455742 0.997032464 0.0754181519
  outer loop
  vertex -0.00845479034 0.0136003271 0.0280298535
  vertex -0.00845479034 0.0129474318 0.036661163
  vertex -0.0071442374 0.013620629 0.0280298535
  endloop
 endfacet

 facet normal -0.00157438754 0.996989489 0.0775209591
  outer loop
  vertex -0.0071442374 0.013620629 0.0280298535
  vertex -0.00845479034 0.0129474318 0.036661163
  vertex -0.00777779892 0.0129485009 0.036661163
  endloop
 endfacet

 facet normal 0.035953436 -0.899905443 0.434600562
  outer loop
  vertex 0.00856451876 0.00314758904 0.036661163
  vertex 0.0072539649 0.00309522939 0.036661163
  vertex 0.00856451876 0.0027671787 0.0358734652
  endloop
 endfacet

 facet normal 0.0788969025 -0.89768064 0.433526039
  outer loop
  vertex 0.00856451876 0.00314758904 0.036661163
  vertex 0.00856451876 0.0027671787 0.0358734652
  vertex 0.00984697044 0.0027671787 0.0356400721
  endloop
 endfacet

 facet normal -0.952552736 0.249870881 -0.173804358
  outer loop
  vertex -0.0107948817 0.0027671787 -0.00464075385
  vertex -0.0117401155 0.0027671787 0.000539696892
  vertex -0.0116864676 0.00351090217 0.00131489011
  endloop
 endfacet

 facet normal -0.96348089 0.223394543 -0.147646531
  outer loop
  vertex -0.0116864676 0.00351090217 0.00131489011
  vertex -0.0117401155 0.0027671787 0.000539696892
  vertex -0.0117937643 0.0027671787 0.000889784249
  endloop
 endfacet

 facet normal -0.971344113 0.206948236 -0.116889015
  outer loop
  vertex -0.0116864676 0.00351090217 0.00131489011
  vertex -0.0117937643 0.0027671787 0.000889784249
  vertex -0.0117605524 0.00365515891 0.00218593958
  endloop
 endfacet

 facet normal -0.992584705 0.110632211 -0.0503598563
  outer loop
  vertex -0.0117605524 0.00365515891 0.00218593958
  vertex -0.0117937643 0.0027671787 0.000889784249
  vertex -0.0126393642 0.0027671787 0.0175564196
  endloop
 endfacet

 facet normal -0.9793576 0.197152734 -0.0446051471
  outer loop
  vertex -0.0117605524 0.00365515891 0.00218593958
  vertex -0.0126393642 0.0027671787 0.0175564196
  vertex -0.0117579978 0.0101947999 0.0310347639
  endloop
 endfacet

 facet normal -0.978983045 0.19891426 -0.0450044982
  outer loop
  vertex -0.0117605524 0.00365515891 0.00218593958
  vertex -0.0117579978 0.0101947999 0.0310347639
  vertex -0.0117528886 0.00756932609 0.0193193574
  endloop
 endfacet

 facet normal -0.965150356 0.255216539 -0.0578730628
  outer loop
  vertex -0.0117605524 0.00365515891 0.00218593958
  vertex -0.0117528886 0.00756932609 0.0193193574
  vertex -0.0117452247 0.00494171539 0.0076039508
  endloop
 endfacet

 facet normal -0.944746017 0.319724262 -0.0723279417
  outer loop
  vertex -0.0117324507 0.00885160826 0.0247206986
  vertex -0.0117452247 0.00494171539 0.0076039508
  vertex -0.0117528886 0.00756932609 0.0193193574
  endloop
 endfacet

 facet normal -0.950936556 0.301808804 -0.0680513754
  outer loop
  vertex -0.0117324507 0.00885160826 0.0247206986
  vertex -0.0117528886 0.00756932609 0.0193193574
  vertex -0.0117579978 0.0101947999 0.0310347639
  endloop
 endfacet

 facet normal -0.831111848 0.554052114 -0.0477428846
  outer loop
  vertex -0.0117579978 0.0101947999 0.0310347639
  vertex -0.0117809903 0.0102396784 0.031955827
  vertex -0.00947155524 0.0131397741 0.0254083686
  endloop
 endfacet

 facet normal -0.983665586 0.176922694 -0.0331751108
  outer loop
  vertex -0.0117579978 0.0101947999 0.0310347639
  vertex -0.0126393642 0.0027671787 0.0175564196
  vertex -0.0117809903 0.0102396784 0.031955827
  endloop
 endfacet

 facet normal -0.817765653 0.574548841 -0.0339566842
  outer loop
  vertex -0.00947155524 0.0131397741 0.0254083686
  vertex -0.0117809903 0.0102396784 0.031955827
  vertex -0.00948177371 0.01320282 0.0267211925
  endloop
 endfacet

 facet normal -0.772497118 0.634703815 0.019978296
  outer loop
  vertex -0.00948177371 0.01320282 0.0267211925
  vertex -0.0117809903 0.0102396784 0.031955827
  vertex -0.00946900062 0.0131771741 0.0280298535
  endloop
 endfacet

 facet normal -0.769996703 0.637610316 0.0236255396
  outer loop
  vertex -0.00946900062 0.0131771741 0.0280298535
  vertex -0.0117809903 0.0102396784 0.031955827
  vertex -0.0117682163 0.0102279251 0.0326893441
  endloop
 endfacet

 facet normal -0.75145936 0.658187985 0.04579743
  outer loop
  vertex -0.00946900062 0.0131771741 0.0280298535
  vertex -0.0117682163 0.0102279251 0.0326893441
  vertex -0.00922375079 0.0128566027 0.036661163
  endloop
 endfacet

 facet normal -0.840732753 0.500050545 0.207649022
  outer loop
  vertex -0.00922375079 0.0128566027 0.036661163
  vertex -0.0117682163 0.0102279251 0.0326893441
  vertex -0.00935404003 0.0126375472 0.036661163
  endloop
 endfacet

 facet normal 0.00112236734 -0.920173407 0.391509384
  outer loop
  vertex 0.0072539649 0.00309522939 0.036661163
  vertex -0.00501107564 0.00308026932 0.036661163
  vertex 0.0072539649 0.0027671787 0.0358901359
  endloop
 endfacet

 facet normal 0.00498045515 -0.920162618 0.391504765
  outer loop
  vertex 0.0072539649 0.00309522939 0.036661163
  vertex 0.0072539649 0.0027671787 0.0358901359
  vertex 0.00856451876 0.0027671787 0.0358734652
  endloop
 endfacet

 facet normal -0.993466973 0.114120595 0
  outer loop
  vertex -0.0126393642 0.0027671787 0.0175564196
  vertex -0.0126393642 0.0027671787 0.0176064316
  vertex -0.0117809903 0.0102396784 0.031955827
  endloop
 endfacet

 facet normal -0.996116042 0.0860367939 0.0187246762
  outer loop
  vertex -0.0117809903 0.0102396784 0.031955827
  vertex -0.0118448576 0.00950022973 0.031955827
  vertex -0.0117682163 0.0102279251 0.0326893441
  endloop
 endfacet

 facet normal -0.996181726 0.0860424787 0.0147841834
  outer loop
  vertex -0.0117809903 0.0102396784 0.031955827
  vertex -0.0126393642 0.0027671787 0.0176064316
  vertex -0.0118448576 0.00950022973 0.031955827
  endloop
 endfacet

 facet normal -0.997063458 0.0379785709 0.0665005594
  outer loop
  vertex -0.0117682163 0.0102279251 0.0326893441
  vertex -0.0118448576 0.00950022973 0.031955827
  vertex -0.0117912097 0.00950022973 0.0327601954
  endloop
 endfacet

 facet normal -0.985586643 0.0469648428 0.162521169
  outer loop
  vertex -0.0117682163 0.0102279251 0.0326893441
  vertex -0.0117912097 0.00950022973 0.0327601954
  vertex -0.0117452247 0.006369323 0.0339438207
  endloop
 endfacet

 facet normal -0.90051192 0.129580006 0.415075123
  outer loop
  vertex -0.0117682163 0.0102279251 0.0326893441
  vertex -0.0117452247 0.006369323 0.0339438207
  vertex -0.00974235218 0.0115839383 0.036661163
  endloop
 endfacet

 facet normal -0.893455982 0.258070707 0.367608368
  outer loop
  vertex -0.0117682163 0.0102279251 0.0326893441
  vertex -0.00974235218 0.0115839383 0.036661163
  vertex -0.00957629737 0.0121588279 0.036661163
  endloop
 endfacet

 facet normal -0.869752109 0.403804362 0.283678353
  outer loop
  vertex -0.0117682163 0.0102279251 0.0326893441
  vertex -0.00957629737 0.0121588279 0.036661163
  vertex -0.00935404003 0.0126375472 0.036661163
  endloop
 endfacet

 facet normal 0 -0.92652458 0.376234412
  outer loop
  vertex -0.00501107564 0.00308026932 0.036661163
  vertex -0.00502129458 0.00308026932 0.036661163
  vertex -0.00452568568 0.0027671787 0.0358901359
  endloop
 endfacet

 facet normal 0 -0.92652458 0.376234412
  outer loop
  vertex -0.00501107564 0.00308026932 0.036661163
  vertex -0.00452568568 0.0027671787 0.0358901359
  vertex 0.0072539649 0.0027671787 0.0358901359
  endloop
 endfacet

 facet normal -0.998743117 0.0190103706 0.0463789366
  outer loop
  vertex -0.0126393642 0.0027671787 0.0176064316
  vertex -0.01258827 0.0027671787 0.0187067054
  vertex -0.0118448576 0.00950022973 0.031955827
  endloop
 endfacet

 facet normal -0.998264074 0.00779921748 0.0583777279
  outer loop
  vertex -0.0118448576 0.00950022973 0.031955827
  vertex -0.0118550761 0.00819230173 0.031955827
  vertex -0.0117886541 0.00683628721 0.0332728215
  endloop
 endfacet

 facet normal -0.997713089 0.0118480092 0.0665438846
  outer loop
  vertex -0.0118448576 0.00950022973 0.031955827
  vertex -0.0117886541 0.00683628721 0.0332728215
  vertex -0.0117912097 0.00950022973 0.0327601954
  endloop
 endfacet

 facet normal -0.998613179 0.00780194486 0.0520676374
  outer loop
  vertex -0.0118448576 0.00950022973 0.031955827
  vertex -0.01258827 0.0027671787 0.0187067054
  vertex -0.0118550761 0.00819230173 0.031955827
  endloop
 endfacet

 facet normal -0.997188807 0.0132355159 0.0737516582
  outer loop
  vertex -0.0117912097 0.00950022973 0.0327601954
  vertex -0.0117886541 0.00683628721 0.0332728215
  vertex -0.0117452247 0.006369323 0.0339438207
  endloop
 endfacet

 facet normal -0.822050929 0.00199927296 0.569410563
  outer loop
  vertex -0.0117452247 0.006369323 0.0339438207
  vertex -0.00985986739 0.0076580178 0.036661163
  vertex -0.00985220354 0.0108092269 0.036661163
  endloop
 endfacet

 facet normal -0.899371088 0.127527639 0.418172807
  outer loop
  vertex -0.0117452247 0.006369323 0.0339438207
  vertex -0.00985220354 0.0108092269 0.036661163
  vertex -0.00974235218 0.0115839383 0.036661163
  endloop
 endfacet

 facet normal -0.997912049 0 0.0645875484
  outer loop
  vertex -0.0117452247 0.006369323 0.0339438207
  vertex -0.0117886541 0.00683628721 0.0332728215
  vertex -0.0117452247 0.00614599278 0.0339438207
  endloop
 endfacet

 facet normal -0.821608722 0 0.570051908
  outer loop
  vertex -0.0117452247 0.006369323 0.0339438207
  vertex -0.0117452247 0.00614599278 0.0339438207
  vertex -0.00985986739 0.0068822368 0.036661163
  endloop
 endfacet

 facet normal -0.821608722 0 0.570051908
  outer loop
  vertex -0.0117452247 0.006369323 0.0339438207
  vertex -0.00985986739 0.0068822368 0.036661163
  vertex -0.00985986739 0.0076580178 0.036661163
  endloop
 endfacet

 facet normal -0.00122678082 -0.926798522 0.375557035
  outer loop
  vertex -0.00502129458 0.00308026932 0.036661163
  vertex -0.00582857523 0.00308133778 0.036661163
  vertex -0.00452568568 0.0027671787 0.0358901359
  endloop
 endfacet

 facet normal -0.0251936819 -0.939938962 0.340411603
  outer loop
  vertex -0.00452568568 0.0027671787 0.0358901359
  vertex -0.00582857523 0.00308133778 0.036661163
  vertex -0.00582091091 0.0027671787 0.0357942767
  endloop
 endfacet

 facet normal -0.998542488 0.0034027684 0.0538650565
  outer loop
  vertex -0.01258827 0.0027671787 0.0187067054
  vertex -0.0117886541 0.00683628721 0.0332728215
  vertex -0.0118550761 0.00819230173 0.031955827
  endloop
 endfacet

 facet normal -0.761063695 -0.630060673 0.154291436
  outer loop
  vertex -0.01258827 0.0027671787 0.0187067054
  vertex -0.011829529 0.0027671787 0.0224492997
  vertex -0.0117477793 0.00488721859 0.0315098837
  endloop
 endfacet

 facet normal -0.979175985 -0.179903924 0.0940697491
  outer loop
  vertex -0.01258827 0.0027671787 0.0187067054
  vertex -0.0117477793 0.00488721859 0.0315098837
  vertex -0.0117452247 0.00614599278 0.0339438207
  endloop
 endfacet

 facet normal -0.998351693 -0.00750000868 0.0569003224
  outer loop
  vertex -0.01258827 0.0027671787 0.0187067054
  vertex -0.0117452247 0.00614599278 0.0339438207
  vertex -0.0117886541 0.00683628721 0.0332728215
  endloop
 endfacet

 facet normal -0.961858988 -0.24256143 0.126456559
  outer loop
  vertex -0.0117452247 0.00614599278 0.0339438207
  vertex -0.0117477793 0.00488721859 0.0315098837
  vertex -0.0116788028 0.00506780669 0.0323809311
  endloop
 endfacet

 facet normal -0.869016588 -0.423764825 0.255408853
  outer loop
  vertex -0.0117452247 0.00614599278 0.0339438207
  vertex -0.0116788028 0.00506780669 0.0323809311
  vertex -0.0115306312 0.00529648038 0.0332644843
  endloop
 endfacet

 facet normal -0.829089522 -0.461658567 0.315407693
  outer loop
  vertex -0.0117452247 0.00614599278 0.0339438207
  vertex -0.0115306312 0.00529648038 0.0332644843
  vertex -0.00924418867 0.00351090217 0.036661163
  endloop
 endfacet

 facet normal -0.833946168 -0.405211508 0.374616295
  outer loop
  vertex -0.0117452247 0.00614599278 0.0339438207
  vertex -0.00924418867 0.00351090217 0.036661163
  vertex -0.00959673431 0.00423645973 0.036661163
  endloop
 endfacet

 facet normal -0.826110065 -0.161033303 0.540009677
  outer loop
  vertex -0.0117452247 0.00614599278 0.0339438207
  vertex -0.00959673431 0.00423645973 0.036661163
  vertex -0.00985731278 0.00557323964 0.036661163
  endloop
 endfacet

 facet normal -0.821404159 -0.00160305225 0.570344329
  outer loop
  vertex -0.0117452247 0.00614599278 0.0339438207
  vertex -0.00985731278 0.00557323964 0.036661163
  vertex -0.00985986739 0.0068822368 0.036661163
  endloop
 endfacet

 facet normal -0.111601025 -0.934608638 0.337715924
  outer loop
  vertex -0.00582857523 0.00308133778 0.036661163
  vertex -0.00892485306 0.00345106237 0.036661163
  vertex -0.00582091091 0.0027671787 0.0357942767
  endloop
 endfacet

 facet normal -0.166491359 -0.97126168 0.170092508
  outer loop
  vertex -0.00582091091 0.0027671787 0.0357942767
  vertex -0.00892485306 0.00345106237 0.036661163
  vertex -0.00584645756 0.0027671787 0.0357692726
  endloop
 endfacet

 facet normal -0.563630879 -0.813185036 0.145087436
  outer loop
  vertex -0.011829529 0.0027671787 0.0224492997
  vertex -0.0114207799 0.0027671787 0.0240371954
  vertex -0.00924418867 0.00351090217 0.036661163
  endloop
 endfacet

 facet normal -0.714367449 -0.679910123 0.165534139
  outer loop
  vertex -0.011829529 0.0027671787 0.0224492997
  vertex -0.00924418867 0.00351090217 0.036661163
  vertex -0.0117477793 0.00488721859 0.0315098837
  endloop
 endfacet

 facet normal -0.745126963 -0.638851583 0.191453665
  outer loop
  vertex -0.0117477793 0.00488721859 0.0315098837
  vertex -0.00924418867 0.00351090217 0.036661163
  vertex -0.0116788028 0.00506780669 0.0323809311
  endloop
 endfacet

 facet normal -0.809255481 -0.521394134 0.270654559
  outer loop
  vertex -0.0116788028 0.00506780669 0.0323809311
  vertex -0.00924418867 0.00351090217 0.036661163
  vertex -0.0115306312 0.00529648038 0.0332644843
  endloop
 endfacet

 facet normal -0.182002485 -0.971256435 0.153414652
  outer loop
  vertex -0.00924418867 0.00351090217 0.036661163
  vertex -0.00694752717 0.0027671787 0.0346773341
  vertex -0.00892485306 0.00345106237 0.036661163
  endloop
 endfacet

 facet normal -0.513562024 -0.846811414 0.138435736
  outer loop
  vertex -0.00924418867 0.00351090217 0.036661163
  vertex -0.0114207799 0.0027671787 0.0240371954
  vertex -0.0110477963 0.0027671787 0.0254208725
  endloop
 endfacet

 facet normal -0.272732466 -0.956118584 0.107024834
  outer loop
  vertex -0.00924418867 0.00351090217 0.036661163
  vertex -0.0110477963 0.0027671787 0.0254208725
  vertex -0.00964782853 0.0027671787 0.0289884247
  endloop
 endfacet

 facet normal -0.261183292 -0.959370315 0.106732458
  outer loop
  vertex -0.00924418867 0.00351090217 0.036661163
  vertex -0.00964782853 0.0027671787 0.0289884247
  vertex -0.00957629737 0.0027671787 0.0291634668
  endloop
 endfacet

 facet normal -0.222305208 -0.969199419 0.105985358
  outer loop
  vertex -0.00924418867 0.00351090217 0.036661163
  vertex -0.00957629737 0.0027671787 0.0291634668
  vertex -0.00694752717 0.0027671787 0.0346773341
  endloop
 endfacet

 facet normal -0.167021126 -0.971462488 0.168417931
  outer loop
  vertex -0.00892485306 0.00345106237 0.036661163
  vertex -0.00694752717 0.0027671787 0.0346773341
  vertex -0.00584645756 0.0027671787 0.0357692726
  endloop
 endfacet

endsolid AssimpScene
