solid AssimpScene
 facet normal 0.959878683 0.279189885 -0.0261906348
  outer loop
  vertex 0.0132979322 0.00281289872 0.0223517399
  vertex 0.0114771416 0.00972374342 0.0292893071
  vertex 0.0114796525 0.00984549616 0.0306792054
  endloop
 endfacet

 facet normal 0.969235301 0.246106982 0.00379103934
  outer loop
  vertex 0.0132979322 0.00281289872 0.0223517399
  vertex 0.0114796525 0.00984549616 0.0306792054
  vertex 0.0131748719 0.00323349913 0.0265095085
  endloop
 endfacet

 facet normal 0.988969207 0.147424221 0.0143578779
  outer loop
  vertex 0.0132979322 0.00281289872 0.0223517399
  vertex 0.0131748719 0.00323349913 0.0265095085
  vertex 0.0132577484 0.00281289872 0.0251196083
  endloop
 endfacet

 facet normal 0 -1 0
  outer loop
  vertex 0.0132979322 0.00281289872 0.0223517399
  vertex 0.0132577484 0.00281289872 0.0251196083
  vertex 0.0132150557 0.00281289872 0.0265095085
  endloop
 endfacet

 facet normal 0 -1 0
  outer loop
  vertex 0.0132979322 0.00281289872 0.0223517399
  vertex 0.0132150557 0.00281289872 0.0265095085
  vertex 0.0131321764 0.00281289872 0.0278994069
  endloop
 endfacet

 facet normal 0 -1 0
  outer loop
  vertex 0.0132979322 0.00281289872 0.0223517399
  vertex 0.0131321764 0.00281289872 0.0278994069
  vertex 0.0130141396 0.00281289872 0.0292893071
  endloop
 endfacet

 facet normal 0 -1 0
  outer loop
  vertex 0.0132979322 0.00281289872 0.0223517399
  vertex 0.0130141396 0.00281289872 0.0292893071
  vertex 0.0129739577 0.00281289872 0.0297128372
  endloop
 endfacet

 facet normal 0 -1 0
  outer loop
  vertex 0.0132979322 0.00281289872 0.0223517399
  vertex 0.0129739577 0.00281289872 0.0297128372
  vertex 0.0128810331 0.00281289872 0.0306792054
  endloop
 endfacet

 facet normal 0 -1 0
  outer loop
  vertex 0.0132979322 0.00281289872 0.0223517399
  vertex 0.0128810331 0.00281289872 0.0306792054
  vertex 0.0128433621 0.00281289872 0.0310669467
  endloop
 endfacet

 facet normal 0 -1 0
  outer loop
  vertex 0.0132979322 0.00281289872 0.0223517399
  vertex 0.0128433621 0.00281289872 0.0310669467
  vertex 0.0127454167 0.00281289872 0.0320691057
  endloop
 endfacet

 facet normal 0 -1 0
  outer loop
  vertex 0.0132979322 0.00281289872 0.0223517399
  vertex 0.0127454167 0.00281289872 0.0320691057
  vertex 0.0126926759 0.00281289872 0.0325522907
  endloop
 endfacet

 facet normal 0 -1 0
  outer loop
  vertex 0.0132979322 0.00281289872 0.0223517399
  vertex 0.0126926759 0.00281289872 0.0325522907
  vertex 0.0124716703 0.00281289872 0.0328505524
  endloop
 endfacet

 facet normal 0 -1 0
  outer loop
  vertex 0.0132979322 0.00281289872 0.0223517399
  vertex 0.0124716703 0.00281289872 0.0328505524
  vertex 0.0119995186 0.00281289872 0.0334172472
  endloop
 endfacet

 facet normal 0 -1 0
  outer loop
  vertex 0.0132979322 0.00281289872 0.0223517399
  vertex 0.0119995186 0.00281289872 0.0334172472
  vertex 0.0114821633 0.00281289872 0.0337453373
  endloop
 endfacet

 facet normal 0 -1 0
  outer loop
  vertex 0.0132979322 0.00281289872 0.0223517399
  vertex 0.0114821633 0.00281289872 0.0337453373
  vertex 0.0107664056 0.00281289872 0.0340435989
  endloop
 endfacet

 facet normal 0 -1 0
  outer loop
  vertex 0.0132979322 0.00281289872 0.0223517399
  vertex 0.0107664056 0.00281289872 0.0340435989
  vertex 0.00930474885 0.00281289872 0.0346222259
  endloop
 endfacet

 facet normal 0 -1 0
  outer loop
  vertex 0.0132979322 0.00281289872 0.0223517399
  vertex 0.00930474885 0.00281289872 0.0346222259
  vertex 0.00785564911 0.00281289872 0.0350457579
  endloop
 endfacet

 facet normal 0 -1 0
  outer loop
  vertex 0.0132979322 0.00281289872 0.0223517399
  vertex 0.00785564911 0.00281289872 0.0350457579
  vertex -0.00331772934 0.00281289872 0.0350457579
  endloop
 endfacet

 facet normal 0 -1 0
  outer loop
  vertex 0.0132979322 0.00281289872 0.0223517399
  vertex -0.00331772934 0.00281289872 0.0350457579
  vertex -0.00464376714 0.00281289872 0.0350338258
  endloop
 endfacet

 facet normal 0 -1 0
  outer loop
  vertex 0.0132979322 0.00281289872 0.0223517399
  vertex -0.00464376714 0.00281289872 0.0350338258
  vertex -0.00469901925 0.00281289872 0.0350278616
  endloop
 endfacet

 facet normal 0 -1 0
  outer loop
  vertex 0.0132979322 0.00281289872 0.0223517399
  vertex -0.00469901925 0.00281289872 0.0350278616
  vertex -0.00603761477 0.00281289872 0.0347713567
  endloop
 endfacet

 facet normal 0 -1 0
  outer loop
  vertex 0.0132979322 0.00281289872 0.0223517399
  vertex -0.00603761477 0.00281289872 0.0347713567
  vertex -0.00606524013 0.00281289872 0.0347594246
  endloop
 endfacet

 facet normal 0 -1 0
  outer loop
  vertex 0.0132979322 0.00281289872 0.0223517399
  vertex -0.00606524013 0.00281289872 0.0347594246
  vertex -0.00730337854 0.00281289872 0.0334351473
  endloop
 endfacet

 facet normal 0 -1 0
  outer loop
  vertex 0.0132979322 0.00281289872 0.0223517399
  vertex -0.00730337854 0.00281289872 0.0334351473
  vertex -0.010013218 0.00281289872 0.0275474582
  endloop
 endfacet

 facet normal 0 -1 0
  outer loop
  vertex 0.0132979322 0.00281289872 0.0223517399
  vertex -0.010013218 0.00281289872 0.0275474582
  vertex -0.0112538682 0.00281289872 0.0246602856
  endloop
 endfacet

 facet normal 0 -1 0
  outer loop
  vertex 0.0132979322 0.00281289872 0.0223517399
  vertex -0.0112538682 0.00281289872 0.0246602856
  vertex -0.0115502179 0.00281289872 0.0233121421
  endloop
 endfacet

 facet normal 0 -1 0
  outer loop
  vertex 0.0132979322 0.00281289872 0.0223517399
  vertex -0.0115502179 0.00281289872 0.0233121421
  vertex -0.0122559294 0.00281289872 0.0191901661
  endloop
 endfacet

 facet normal 0 -1 0
  outer loop
  vertex 0.0132979322 0.00281289872 0.0223517399
  vertex -0.0122559294 0.00281289872 0.0191901661
  vertex -0.0123588983 0.00281289872 0.0181820411
  endloop
 endfacet

 facet normal 0 -1 0
  outer loop
  vertex 0.0132979322 0.00281289872 0.0223517399
  vertex -0.0123588983 0.00281289872 0.0181820411
  vertex -0.0118616354 0.00281289872 0.00387144415
  endloop
 endfacet

 facet normal 0 -1 0
  outer loop
  vertex 0.0132979322 0.00281289872 0.0223517399
  vertex -0.0118616354 0.00281289872 0.00387144415
  vertex -0.0117862914 0.00281289872 0.00248154649
  endloop
 endfacet

 facet normal 0 -1 0
  outer loop
  vertex 0.0132979322 0.00281289872 0.0223517399
  vertex -0.0117862914 0.00281289872 0.00248154649
  vertex -0.0114397136 0.00281289872 -0.00149130076
  endloop
 endfacet

 facet normal 0 -1 0
  outer loop
  vertex 0.0132979322 0.00281289872 0.0223517399
  vertex -0.0114397136 0.00281289872 -0.00149130076
  vertex -0.0113141416 0.00281289872 -0.00265452079
  endloop
 endfacet

 facet normal 0 -1 0
  outer loop
  vertex 0.0132979322 0.00281289872 0.0223517399
  vertex -0.0113141416 0.00281289872 -0.00265452079
  vertex -0.0113066072 0.00281289872 -0.00271417387
  endloop
 endfacet

 facet normal 0 -1 0
  outer loop
  vertex 0.0132979322 0.00281289872 0.0223517399
  vertex -0.0113066072 0.00281289872 -0.00271417387
  vertex -0.0112488437 0.00281289872 -0.00302436599
  endloop
 endfacet

 facet normal 0 -1 0
  outer loop
  vertex 0.0132979322 0.00281289872 0.0223517399
  vertex -0.0112488437 0.00281289872 -0.00302436599
  vertex -0.0101940418 0.00281289872 -0.0078144474
  endloop
 endfacet

 facet normal 0 -1 0
  outer loop
  vertex 0.0132979322 0.00281289872 0.0223517399
  vertex -0.0101940418 0.00281289872 -0.0078144474
  vertex 0.00957347173 0.00281289872 -0.0078144474
  endloop
 endfacet

 facet normal 0 -1 0
  outer loop
  vertex 0.0132979322 0.00281289872 0.0223517399
  vertex 0.00957347173 0.00281289872 -0.0078144474
  vertex 0.0105730249 0.00281289872 -0.00531501463
  endloop
 endfacet

 facet normal 0 -1 0
  outer loop
  vertex 0.0132979322 0.00281289872 0.0223517399
  vertex 0.0105730249 0.00281289872 -0.00531501463
  vertex 0.0109095564 0.00281289872 -0.00428899424
  endloop
 endfacet

 facet normal 0 -1 0
  outer loop
  vertex 0.0132979322 0.00281289872 0.0223517399
  vertex 0.0109095564 0.00281289872 -0.00428899424
  vertex 0.0110024791 0.00281289872 -0.00399073353
  endloop
 endfacet

 facet normal 0 -1 0
  outer loop
  vertex 0.0132979322 0.00281289872 0.0223517399
  vertex 0.0110024791 0.00281289872 -0.00399073353
  vertex 0.0111330748 0.00281289872 -0.0033703493
  endloop
 endfacet

 facet normal 0 -1 0
  outer loop
  vertex 0.0132979322 0.00281289872 0.0223517399
  vertex 0.0111330748 0.00281289872 -0.0033703493
  vertex 0.0112636685 0.00281289872 -0.00265452079
  endloop
 endfacet

 facet normal 0 -1 0
  outer loop
  vertex 0.0132979322 0.00281289872 0.0223517399
  vertex 0.0112636685 0.00281289872 -0.00265452079
  vertex 0.0113013396 0.00281289872 -0.0023980157
  endloop
 endfacet

 facet normal 0 -1 0
  outer loop
  vertex 0.0132979322 0.00281289872 0.0223517399
  vertex 0.0113013396 0.00281289872 -0.0023980157
  vertex 0.0114545384 0.00281289872 -0.00122286379
  endloop
 endfacet

 facet normal 0 -1 0
  outer loop
  vertex 0.0132979322 0.00281289872 0.0223517399
  vertex 0.0114545384 0.00281289872 -0.00122286379
  vertex 0.0114796525 0.00281289872 -0.00101408176
  endloop
 endfacet

 facet normal 0 -1 0
  outer loop
  vertex 0.0132979322 0.00281289872 0.0223517399
  vertex 0.0114796525 0.00281289872 -0.00101408176
  vertex 0.0132552376 0.00281289872 0.0209618397
  endloop
 endfacet

 facet normal 0.958900452 0.282209694 -0.0294555463
  outer loop
  vertex 0.0132979322 0.00281289872 0.0223517399
  vertex 0.0132552376 0.00281289872 0.0209618397
  vertex 0.0114771416 0.00972374342 0.0292893071
  endloop
 endfacet

 facet normal 0.955107689 0.293585807 -0.0397062562
  outer loop
  vertex 0.0114771416 0.00972374342 0.0292893071
  vertex 0.0132552376 0.00281289872 0.0209618397
  vertex 0.0114470031 0.00963381119 0.0278994069
  endloop
 endfacet

 facet normal 0.872400761 0.486188501 -0.0503749959
  outer loop
  vertex 0.0114771416 0.00972374342 0.0292893071
  vertex 0.0114470031 0.00963381119 0.0278994069
  vertex 0.00949059427 0.0157352779 0.0529056676
  endloop
 endfacet

 facet normal 0.888378978 0.457217276 -0.0416563377
  outer loop
  vertex 0.0114771416 0.00972374342 0.0292893071
  vertex 0.00949059427 0.0157352779 0.0529056676
  vertex 0.0114796525 0.00984549616 0.0306792054
  endloop
 endfacet

 facet normal 0.9057917 0.422593415 -0.0309230909
  outer loop
  vertex 0.0114796525 0.00984549616 0.0306792054
  vertex 0.00949059427 0.0157352779 0.0529056676
  vertex 0.0094981296 0.0157352779 0.0531263798
  endloop
 endfacet

 facet normal 0.971982896 0.233775333 0.0244627967
  outer loop
  vertex 0.0114796525 0.00984549616 0.0306792054
  vertex 0.0094981296 0.0157352779 0.0531263798
  vertex 0.0131748719 0.00323349913 0.0265095085
  endloop
 endfacet

 facet normal 0.99454087 0.0950180441 0.0431289151
  outer loop
  vertex 0.0131748719 0.00323349913 0.0265095085
  vertex 0.0131145976 0.00323349913 0.0278994069
  vertex 0.0132150557 0.00281289872 0.0265095085
  endloop
 endfacet

 facet normal 0.995002151 0.0950621217 0.0305630155
  outer loop
  vertex 0.0131748719 0.00323349913 0.0265095085
  vertex 0.0132150557 0.00281289872 0.0265095085
  vertex 0.0132577484 0.00281289872 0.0251196083
  endloop
 endfacet

 facet normal 0.979361236 0.197605714 0.0424706377
  outer loop
  vertex 0.0131748719 0.00323349913 0.0265095085
  vertex 0.0094981296 0.0157352779 0.0531263798
  vertex 0.0131145976 0.00323349913 0.0278994069
  endloop
 endfacet

 facet normal 0.943005145 0.324594468 -0.0733480081
  outer loop
  vertex 0.0132552376 0.00281289872 0.0209618397
  vertex 0.0114369579 0.00683903601 0.0154022416
  vertex 0.0114470031 0.00963381119 0.0278994069
  endloop
 endfacet

 facet normal 0.954987645 0.286435068 -0.0771599859
  outer loop
  vertex 0.0132552376 0.00281289872 0.0209618397
  vertex 0.0114796525 0.00281289872 -0.00101408176
  vertex 0.0114269117 0.00404287735 0.00289911265
  endloop
 endfacet

 facet normal 0.943005323 0.324593544 -0.0733487234
  outer loop
  vertex 0.0132552376 0.00281289872 0.0209618397
  vertex 0.0114269117 0.00404287735 0.00289911265
  vertex 0.0114369579 0.00683903601 0.0154022416
  endloop
 endfacet

 facet normal 0.858947039 0.504333258 -0.088645786
  outer loop
  vertex 0.0114470031 0.00963381119 0.0278994069
  vertex 0.0113892406 0.00955079868 0.0268674213
  vertex 0.00906616263 0.012713599 0.0223517399
  endloop
 endfacet

 facet normal 0.843739271 0.532629013 -0.0664108098
  outer loop
  vertex 0.0114470031 0.00963381119 0.0278994069
  vertex 0.00906616263 0.012713599 0.0223517399
  vertex 0.00902095623 0.0153824715 0.0431823358
  endloop
 endfacet

 facet normal 0.846889734 0.527887762 -0.0641272813
  outer loop
  vertex 0.0114470031 0.00963381119 0.0278994069
  vertex 0.00902095623 0.0153824715 0.0431823358
  vertex 0.00896068197 0.0166871622 0.0531263798
  endloop
 endfacet

 facet normal 0.867239833 0.495067775 -0.0529452935
  outer loop
  vertex 0.0114470031 0.00963381119 0.0278994069
  vertex 0.00896068197 0.0166871622 0.0531263798
  vertex 0.00949059427 0.0157352779 0.0529056676
  endloop
 endfacet

 facet normal 0.930082142 0.358336836 -0.0808835104
  outer loop
  vertex 0.0114470031 0.00963381119 0.0278994069
  vertex 0.0114369579 0.00683903601 0.0154022416
  vertex 0.0113892406 0.00955079868 0.0268674213
  endloop
 endfacet

 facet normal 0.870403051 0.491442293 -0.0297149476
  outer loop
  vertex 0.00949059427 0.0157352779 0.0529056676
  vertex 0.00896068197 0.0166871622 0.0531263798
  vertex 0.0094981296 0.0157352779 0.0531263798
  endloop
 endfacet

 facet normal 0 0 1
  outer loop
  vertex 0.0094981296 0.0157352779 0.0531263798
  vertex 0.00896068197 0.0166871622 0.0531263798
  vertex 0.00877985824 0.0167383533 0.0531263798
  endloop
 endfacet

 facet normal 0 0 1
  outer loop
  vertex 0.0094981296 0.0157352779 0.0531263798
  vertex 0.00877985824 0.0167383533 0.0531263798
  vertex 0.00785564911 0.0169458855 0.0531263798
  endloop
 endfacet

 facet normal 0 0 1
  outer loop
  vertex 0.0094981296 0.0157352779 0.0531263798
  vertex 0.00785564911 0.0169458855 0.0531263798
  vertex -0.00742141576 0.0169458855 0.0531263798
  endloop
 endfacet

 facet normal 0 0 1
  outer loop
  vertex 0.0094981296 0.0157352779 0.0531263798
  vertex -0.00742141576 0.0169458855 0.0531263798
  vertex -0.00881275069 0.016862873 0.0531263798
  endloop
 endfacet

 facet normal 0 0 1
  outer loop
  vertex 0.0094981296 0.0157352779 0.0531263798
  vertex -0.00881275069 0.016862873 0.0531263798
  vertex -0.00966664031 0.0166055299 0.0531263798
  endloop
 endfacet

 facet normal 0 0 1
  outer loop
  vertex 0.0094981296 0.0157352779 0.0531263798
  vertex -0.00966664031 0.0166055299 0.0531263798
  vertex -0.00982988253 0.0158791672 0.0531263798
  endloop
 endfacet

 facet normal 0 0 1
  outer loop
  vertex 0.0094981296 0.0157352779 0.0531263798
  vertex -0.00982988253 0.0158791672 0.0531263798
  vertex -0.00986002013 0.0157352779 0.0531263798
  endloop
 endfacet

 facet normal 0 0 1
  outer loop
  vertex 0.0094981296 0.0157352779 0.0531263798
  vertex -0.00986002013 0.0157352779 0.0531263798
  vertex -0.00988262333 0.00601167185 0.0531263798
  endloop
 endfacet

 facet normal 0 0 1
  outer loop
  vertex 0.0094981296 0.0157352779 0.0531263798
  vertex -0.00988262333 0.00601167185 0.0531263798
  vertex -0.00969928782 0.0049836929 0.0531263798
  endloop
 endfacet

 facet normal 0 0 1
  outer loop
  vertex 0.0094981296 0.0157352779 0.0531263798
  vertex -0.00969928782 0.0049836929 0.0531263798
  vertex -0.00956115965 0.00488684373 0.0531263798
  endloop
 endfacet

 facet normal 0 0 1
  outer loop
  vertex 0.0094981296 0.0157352779 0.0531263798
  vertex -0.00956115965 0.00488684373 0.0531263798
  vertex -0.00881275069 0.00449944986 0.0531263798
  endloop
 endfacet

 facet normal 0 0 1
  outer loop
  vertex 0.0094981296 0.0157352779 0.0531263798
  vertex -0.00881275069 0.00449944986 0.0531263798
  vertex -0.00859425589 0.0044745449 0.0531263798
  endloop
 endfacet

 facet normal 0 0 1
  outer loop
  vertex 0.0094981296 0.0157352779 0.0531263798
  vertex -0.00859425589 0.0044745449 0.0531263798
  vertex -0.00742141576 0.00435002474 0.0531263798
  endloop
 endfacet

 facet normal 0 0 1
  outer loop
  vertex 0.0094981296 0.0157352779 0.0531263798
  vertex -0.00742141576 0.00435002474 0.0531263798
  vertex 0.00646682596 0.00435002474 0.0531263798
  endloop
 endfacet

 facet normal 0 0 1
  outer loop
  vertex 0.0094981296 0.0157352779 0.0531263798
  vertex 0.00646682596 0.00435002474 0.0531263798
  vertex 0.00785564911 0.00435140962 0.0531263798
  endloop
 endfacet

 facet normal 0 0 1
  outer loop
  vertex 0.0094981296 0.0157352779 0.0531263798
  vertex 0.00785564911 0.00435140962 0.0531263798
  vertex 0.00906365085 0.00483426964 0.0531263798
  endloop
 endfacet

 facet normal 0 0 1
  outer loop
  vertex 0.0094981296 0.0157352779 0.0531263798
  vertex 0.00906365085 0.00483426964 0.0531263798
  vertex 0.00947803818 0.00580690568 0.0531263798
  endloop
 endfacet

 facet normal 0 0 1
  outer loop
  vertex 0.0094981296 0.0157352779 0.0531263798
  vertex 0.00947803818 0.00580690568 0.0531263798
  vertex 0.00953831151 0.00601167185 0.0531263798
  endloop
 endfacet

 facet normal 0.988536835 0.00408503879 0.150924712
  outer loop
  vertex 0.0094981296 0.0157352779 0.0531263798
  vertex 0.00953831151 0.00601167185 0.0531263798
  vertex 0.0126926759 0.00281289872 0.0325522907
  endloop
 endfacet

 facet normal 0.990250051 0.027322311 0.136595607
  outer loop
  vertex 0.0094981296 0.0157352779 0.0531263798
  vertex 0.0126926759 0.00281289872 0.0325522907
  vertex 0.0126876542 0.00323349913 0.032504566
  endloop
 endfacet

 facet normal 0.991352797 0.0634637848 0.114855751
  outer loop
  vertex 0.0094981296 0.0157352779 0.0531263798
  vertex 0.0126876542 0.00323349913 0.032504566
  vertex 0.0127403932 0.00402904162 0.0316097848
  endloop
 endfacet

 facet normal 0.986509442 0.149132103 0.0675175339
  outer loop
  vertex 0.0094981296 0.0157352779 0.0531263798
  vertex 0.0127403932 0.00402904162 0.0316097848
  vertex 0.0131145976 0.00323349913 0.0278994069
  endloop
 endfacet

 facet normal 0.991980016 0.0987702161 0.0788673684
  outer loop
  vertex 0.0131145976 0.00323349913 0.0278994069
  vertex 0.0127403932 0.00402904162 0.0316097848
  vertex 0.0130040934 0.00323349913 0.0292893071
  endloop
 endfacet

 facet normal 0.995990396 0.0416273028 0.079186216
  outer loop
  vertex 0.0131145976 0.00323349913 0.0278994069
  vertex 0.0130040934 0.00323349913 0.0292893071
  vertex 0.0131321764 0.00281289872 0.0278994069
  endloop
 endfacet

 facet normal 0.997359216 0.0416845158 0.059471976
  outer loop
  vertex 0.0131145976 0.00323349913 0.0278994069
  vertex 0.0131321764 0.00281289872 0.0278994069
  vertex 0.0132150557 0.00281289872 0.0265095085
  endloop
 endfacet

 facet normal 0.930053115 0.358408332 -0.0809005424
  outer loop
  vertex 0.0114369579 0.00683903601 0.0154022416
  vertex 0.0114269117 0.00404287735 0.00289911265
  vertex 0.0113892406 0.00955079868 0.0268674213
  endloop
 endfacet

 facet normal 0.918544412 0.379563212 -0.110489808
  outer loop
  vertex 0.0114796525 0.00281289872 -0.00101408176
  vertex 0.0114545384 0.00281289872 -0.00122286379
  vertex 0.0113666374 0.00396678178 0.00201029121
  endloop
 endfacet

 facet normal 0.938235998 0.333491653 -0.0921763778
  outer loop
  vertex 0.0114796525 0.00281289872 -0.00101408176
  vertex 0.0113666374 0.00396678178 0.00201029121
  vertex 0.0114269117 0.00404287735 0.00289911265
  endloop
 endfacet

 facet normal 0.897104859 0.430874407 -0.0977244526
  outer loop
  vertex 0.0114269117 0.00404287735 0.00289911265
  vertex 0.0113666374 0.00396678178 0.00201029121
  vertex 0.0113791944 0.00676017394 0.0144418394
  endloop
 endfacet

 facet normal 0.905675113 0.413511127 -0.0936014876
  outer loop
  vertex 0.0114269117 0.00404287735 0.00289911265
  vertex 0.0113791944 0.00676017394 0.0144418394
  vertex 0.0113892406 0.00955079868 0.0268674213
  endloop
 endfacet

 facet normal 0.86903882 0.48256883 -0.109081343
  outer loop
  vertex 0.0113892406 0.00955079868 0.0268674213
  vertex 0.0113791944 0.00676017394 0.0144418394
  vertex 0.00906616263 0.012713599 0.0223517399
  endloop
 endfacet

 facet normal 0.868824422 0.482886434 -0.109383076
  outer loop
  vertex 0.00906616263 0.012713599 0.0223517399
  vertex 0.0113791944 0.00676017394 0.0144418394
  vertex 0.0113666374 0.00396678178 0.00201029121
  endloop
 endfacet

 facet normal 0.798900008 0.580047727 -0.159070373
  outer loop
  vertex 0.00906616263 0.012713599 0.0223517399
  vertex 0.0113666374 0.00396678178 0.00201029121
  vertex 0.0111330748 0.00281289872 -0.0033703493
  endloop
 endfacet

 facet normal 0.78680563 0.594561994 -0.16562894
  outer loop
  vertex 0.00906616263 0.012713599 0.0223517399
  vertex 0.0111330748 0.00281289872 -0.0033703493
  vertex 0.0110024791 0.00281289872 -0.00399073353
  endloop
 endfacet

 facet normal 0.720543146 0.664860666 -0.196921021
  outer loop
  vertex 0.00906616263 0.012713599 0.0223517399
  vertex 0.0110024791 0.00281289872 -0.00399073353
  vertex 0.0088778045 0.0125060659 0.0209618397
  endloop
 endfacet

 facet normal 0.344106585 0.92070353 -0.184107855
  outer loop
  vertex 0.00906616263 0.012713599 0.0223517399
  vertex 0.0088778045 0.0125060659 0.0209618397
  vertex 0.00785564911 0.0131660197 0.0223517399
  endloop
 endfacet

 facet normal 0.347429872 0.929595411 -0.123065159
  outer loop
  vertex 0.00906616263 0.012713599 0.0223517399
  vertex 0.00785564911 0.0131660197 0.0223517399
  vertex 0.00859903451 0.0164505746 0.0492609106
  endloop
 endfacet

 facet normal 0.478256166 0.870965362 -0.112651907
  outer loop
  vertex 0.00906616263 0.012713599 0.0223517399
  vertex 0.00859903451 0.0164505746 0.0492609106
  vertex 0.00870702788 0.0165031496 0.0501258709
  endloop
 endfacet

 facet normal 0.538683116 0.835679054 -0.107056044
  outer loop
  vertex 0.00906616263 0.012713599 0.0223517399
  vertex 0.00870702788 0.0165031496 0.0501258709
  vertex 0.00885017868 0.0165889282 0.0515157655
  endloop
 endfacet

 facet normal 0.663172424 0.742570579 -0.0937617868
  outer loop
  vertex 0.00906616263 0.012713599 0.0223517399
  vertex 0.00885017868 0.0165889282 0.0515157655
  vertex 0.00895063672 0.0166747104 0.0529056676
  endloop
 endfacet

 facet normal 0.683560371 0.724161506 -0.0912980884
  outer loop
  vertex 0.00906616263 0.012713599 0.0223517399
  vertex 0.00895063672 0.0166747104 0.0529056676
  vertex 0.00902095623 0.0153824715 0.0431823358
  endloop
 endfacet

 facet normal 0.821238697 0.566357136 -0.069330059
  outer loop
  vertex 0.00902095623 0.0153824715 0.0431823358
  vertex 0.00895063672 0.0166747104 0.0529056676
  vertex 0.00896068197 0.0166871622 0.0531263798
  endloop
 endfacet

 facet normal 0.271797836 0.960051894 -0.0665317327
  outer loop
  vertex 0.00896068197 0.0166871622 0.0531263798
  vertex 0.00895063672 0.0166747104 0.0529056676
  vertex 0.00877985824 0.0167383533 0.0531263798
  endloop
 endfacet

 facet normal 0.942273736 -0.277362883 0.187590092
  outer loop
  vertex 0.00953831151 0.00601167185 0.0531263798
  vertex 0.00947803818 0.00580690568 0.0531263798
  vertex 0.0126926759 0.00281289872 0.0325522907
  endloop
 endfacet

 facet normal 0.993805051 0.0241742451 0.108476549
  outer loop
  vertex 0.0126926759 0.00281289872 0.0325522907
  vertex 0.0127454167 0.00281289872 0.0320691057
  vertex 0.0126876542 0.00323349913 0.032504566
  endloop
 endfacet

 facet normal 0.901982903 -0.384285152 0.196854442
  outer loop
  vertex 0.0126926759 0.00281289872 0.0325522907
  vertex 0.00947803818 0.00580690568 0.0531263798
  vertex 0.00906365085 0.00483426964 0.0531263798
  endloop
 endfacet

 facet normal 0.366690248 -0.917372525 0.154810145
  outer loop
  vertex 0.0126926759 0.00281289872 0.0325522907
  vertex 0.00906365085 0.00483426964 0.0531263798
  vertex 0.00785564911 0.00435140962 0.0531263798
  endloop
 endfacet

 facet normal 0.145381302 -0.983493686 0.107724272
  outer loop
  vertex 0.0126926759 0.00281289872 0.0325522907
  vertex 0.00785564911 0.00435140962 0.0531263798
  vertex 0.0124716703 0.00281289872 0.0328505524
  endloop
 endfacet

 facet normal 0.99411124 0.0281965192 0.104632169
  outer loop
  vertex 0.0126876542 0.00323349913 0.032504566
  vertex 0.0127454167 0.00281289872 0.0320691057
  vertex 0.0127604846 0.00323349913 0.0318126008
  endloop
 endfacet

 facet normal 0.993174911 0.0517332181 0.104533635
  outer loop
  vertex 0.0126876542 0.00323349913 0.032504566
  vertex 0.0127604846 0.00323349913 0.0318126008
  vertex 0.0127403932 0.00402904162 0.0316097848
  endloop
 endfacet

 facet normal 0.994045019 0.04981355 0.0969175622
  outer loop
  vertex 0.0127403932 0.00402904162 0.0316097848
  vertex 0.0127604846 0.00323349913 0.0318126008
  vertex 0.0128709888 0.00323349913 0.0306792054
  endloop
 endfacet

 facet normal 0.994107723 0.0518311486 0.0952015445
  outer loop
  vertex 0.0127403932 0.00402904162 0.0316097848
  vertex 0.0128709888 0.00323349913 0.0306792054
  vertex 0.0130040934 0.00323349913 0.0292893071
  endloop
 endfacet

 facet normal 0.995142937 0.0246629529 0.0953006968
  outer loop
  vertex 0.0130040934 0.00323349913 0.0292893071
  vertex 0.0128709888 0.00323349913 0.0306792054
  vertex 0.0129739577 0.00281289872 0.0297128372
  endloop
 endfacet

 facet normal 0.995248318 0.0237714108 0.0944228098
  outer loop
  vertex 0.0130040934 0.00323349913 0.0292893071
  vertex 0.0129739577 0.00281289872 0.0297128372
  vertex 0.0130141396 0.00281289872 0.0292893071
  endloop
 endfacet

 facet normal 0.996131301 0.023792496 0.0845962316
  outer loop
  vertex 0.0130040934 0.00323349913 0.0292893071
  vertex 0.0130141396 0.00281289872 0.0292893071
  vertex 0.0131321764 0.00281289872 0.0278994069
  endloop
 endfacet

 facet normal 0.908385217 0.401014566 -0.1184218
  outer loop
  vertex 0.0114545384 0.00281289872 -0.00122286379
  vertex 0.0113013396 0.00281289872 -0.0023980157
  vertex 0.0113666374 0.00396678178 0.00201029121
  endloop
 endfacet

 facet normal 0.885242462 0.446591109 -0.130008742
  outer loop
  vertex 0.0113666374 0.00396678178 0.00201029121
  vertex 0.0113013396 0.00281289872 -0.0023980157
  vertex 0.0112636685 0.00281289872 -0.00265452079
  endloop
 endfacet

 facet normal 0.829431176 0.537723362 -0.151319161
  outer loop
  vertex 0.0113666374 0.00396678178 0.00201029121
  vertex 0.0112636685 0.00281289872 -0.00265452079
  vertex 0.0111330748 0.00281289872 -0.0033703493
  endloop
 endfacet

 facet normal 0.70079124 0.679134011 -0.218331218
  outer loop
  vertex 0.0110024791 0.00281289872 -0.00399073353
  vertex 0.0109095564 0.00281289872 -0.00428899424
  vertex 0.00867688935 0.003983384 -0.0078144474
  endloop
 endfacet

 facet normal 0.692035913 0.690814853 -0.209430605
  outer loop
  vertex 0.0110024791 0.00281289872 -0.00399073353
  vertex 0.00867688935 0.003983384 -0.0078144474
  vertex 0.0088778045 0.0125060659 0.0209618397
  endloop
 endfacet

 facet normal 0.224728376 0.93387717 -0.278155744
  outer loop
  vertex 0.0088778045 0.0125060659 0.0209618397
  vertex 0.00867688935 0.003983384 -0.0078144474
  vertex 0.00785564911 0.0131660197 0.0223517399
  endloop
 endfacet

 facet normal 0.165752515 0.944674611 -0.283048034
  outer loop
  vertex 0.00785564911 0.0131660197 0.0223517399
  vertex 0.00867688935 0.003983384 -0.0078144474
  vertex 0.00785564911 0.0127495714 0.0209618397
  endloop
 endfacet

 facet normal 0 0.957925081 -0.28701821
  outer loop
  vertex 0.00785564911 0.0131660197 0.0223517399
  vertex 0.00785564911 0.0127495714 0.0209618397
  vertex -0.00742141576 0.0127495714 0.0209618397
  endloop
 endfacet

 facet normal 0 0.957925081 -0.28701821
  outer loop
  vertex 0.00785564911 0.0131660197 0.0223517399
  vertex -0.00742141576 0.0127495714 0.0209618397
  vertex -0.00742141576 0.0131660197 0.0223517399
  endloop
 endfacet

 facet normal 0 0.992524326 -0.122047186
  outer loop
  vertex 0.00785564911 0.0131660197 0.0223517399
  vertex -0.00742141576 0.0131660197 0.0223517399
  vertex -0.00742141576 0.0135063743 0.0251196083
  endloop
 endfacet

 facet normal 0 0.992524326 -0.122047186
  outer loop
  vertex 0.00785564911 0.0131660197 0.0223517399
  vertex -0.00742141576 0.0135063743 0.0251196083
  vertex 0.00646682596 0.0135063743 0.0251196083
  endloop
 endfacet

 facet normal 0.00024540638 0.992539167 -0.121925876
  outer loop
  vertex 0.00785564911 0.0131660197 0.0223517399
  vertex 0.00646682596 0.0135063743 0.0251196083
  vertex 0.00785564911 0.0165778603 0.0501258709
  endloop
 endfacet

 facet normal 0.028069919 0.992148101 -0.121877834
  outer loop
  vertex 0.00785564911 0.0131660197 0.0223517399
  vertex 0.00785564911 0.0165778603 0.0501258709
  vertex 0.00859903451 0.0164505746 0.0492609106
  endloop
 endfacet

 facet normal 0.0282874759 0.992164612 -0.121693283
  outer loop
  vertex 0.00859903451 0.0164505746 0.0492609106
  vertex 0.00785564911 0.0165778603 0.0501258709
  vertex 0.00785564911 0.0169458855 0.0531263798
  endloop
 endfacet

 facet normal 0.20697543 0.974639356 -0.0850834027
  outer loop
  vertex 0.00859903451 0.0164505746 0.0492609106
  vertex 0.00785564911 0.0169458855 0.0531263798
  vertex 0.00870702788 0.0165031496 0.0501258709
  endloop
 endfacet

 facet normal 0.215944275 0.97293222 -0.082286641
  outer loop
  vertex 0.00870702788 0.0165031496 0.0501258709
  vertex 0.00785564911 0.0169458855 0.0531263798
  vertex 0.00885017868 0.0165889282 0.0515157655
  endloop
 endfacet

 facet normal 0.218380421 0.972521961 -0.0806914419
  outer loop
  vertex 0.00885017868 0.0165889282 0.0515157655
  vertex 0.00785564911 0.0169458855 0.0531263798
  vertex 0.00877985824 0.0167383533 0.0531263798
  endloop
 endfacet

 facet normal 0.257970273 0.962992787 -0.078078866
  outer loop
  vertex 0.00885017868 0.0165889282 0.0515157655
  vertex 0.00877985824 0.0167383533 0.0531263798
  vertex 0.00895063672 0.0166747104 0.0529056676
  endloop
 endfacet

 facet normal 0.132829472 -0.985558927 0.105023429
  outer loop
  vertex 0.0124716703 0.00281289872 0.0328505524
  vertex 0.00785564911 0.00435140962 0.0531263798
  vertex 0.00785564911 0.00299552758 0.0404025353
  endloop
 endfacet

 facet normal 0.12962018 -0.986191511 0.103077099
  outer loop
  vertex 0.0124716703 0.00281289872 0.0328505524
  vertex 0.00785564911 0.00299552758 0.0404025353
  vertex 0.00785564911 0.002850255 0.039012637
  endloop
 endfacet

 facet normal 0.0717976242 -0.995623767 0.059819378
  outer loop
  vertex 0.0124716703 0.00281289872 0.0328505524
  vertex 0.00785564911 0.002850255 0.039012637
  vertex 0.0119995186 0.00281289872 0.0334172472
  endloop
 endfacet

 facet normal 0.994979382 0.0236591827 0.0972431526
  outer loop
  vertex 0.0127454167 0.00281289872 0.0320691057
  vertex 0.0128433621 0.00281289872 0.0310669467
  vertex 0.0127604846 0.00323349913 0.0318126008
  endloop
 endfacet

 facet normal 0.000991538865 -0.994369686 0.105962321
  outer loop
  vertex 0.00785564911 0.00435140962 0.0531263798
  vertex 0.00646682596 0.00435002474 0.0531263798
  vertex 0.00785564911 0.00299552758 0.0404025353
  endloop
 endfacet

 facet normal 0.994992197 0.0240751933 0.0970099196
  outer loop
  vertex 0.0127604846 0.00323349913 0.0318126008
  vertex 0.0128433621 0.00281289872 0.0310669467
  vertex 0.0128709888 0.00323349913 0.0306792054
  endloop
 endfacet

 facet normal 0.995032549 0.0237613562 0.0966723487
  outer loop
  vertex 0.0128709888 0.00323349913 0.0306792054
  vertex 0.0128433621 0.00281289872 0.0310669467
  vertex 0.0128810331 0.00281289872 0.0306792054
  endloop
 endfacet

 facet normal 0.995127439 0.0237636231 0.0956904516
  outer loop
  vertex 0.0128709888 0.00323349913 0.0306792054
  vertex 0.0128810331 0.00281289872 0.0306792054
  vertex 0.0129739577 0.00281289872 0.0297128372
  endloop
 endfacet

 facet normal 0.718142867 0.654818892 -0.235548615
  outer loop
  vertex 0.0109095564 0.00281289872 -0.00428899424
  vertex 0.0105730249 0.00281289872 -0.00531501463
  vertex 0.0089004077 0.00374818034 -0.0078144474
  endloop
 endfacet

 facet normal 0.706385493 0.671288967 -0.224478662
  outer loop
  vertex 0.0109095564 0.00281289872 -0.00428899424
  vertex 0.0089004077 0.00374818034 -0.0078144474
  vertex 0.00867688935 0.003983384 -0.0078144474
  endloop
 endfacet

 facet normal 0 0 -1
  outer loop
  vertex 0.00867688935 0.003983384 -0.0078144474
  vertex 0.0089004077 0.00374818034 -0.0078144474
  vertex 0.00930474885 0.00322243036 -0.0078144474
  endloop
 endfacet

 facet normal 0 0 -1
  outer loop
  vertex 0.00867688935 0.003983384 -0.0078144474
  vertex 0.00930474885 0.00322243036 -0.0078144474
  vertex 0.00957347173 0.00281289872 -0.0078144474
  endloop
 endfacet

 facet normal 0 0 -1
  outer loop
  vertex 0.00867688935 0.003983384 -0.0078144474
  vertex 0.00957347173 0.00281289872 -0.0078144474
  vertex -0.0101940418 0.00281289872 -0.0078144474
  endloop
 endfacet

 facet normal 0 0 -1
  outer loop
  vertex 0.00867688935 0.003983384 -0.0078144474
  vertex -0.0101940418 0.00281289872 -0.0078144474
  vertex -0.00950841978 0.00393219246 -0.0078144474
  endloop
 endfacet

 facet normal 0 0 -1
  outer loop
  vertex 0.00867688935 0.003983384 -0.0078144474
  vertex -0.00950841978 0.00393219246 -0.0078144474
  vertex -0.00944312196 0.00393772684 -0.0078144474
  endloop
 endfacet

 facet normal 0 0 -1
  outer loop
  vertex 0.00867688935 0.003983384 -0.0078144474
  vertex -0.00944312196 0.00393772684 -0.0078144474
  vertex -0.00888056029 0.00398476748 -0.0078144474
  endloop
 endfacet

 facet normal 0 0 -1
  outer loop
  vertex 0.00867688935 0.003983384 -0.0078144474
  vertex -0.00888056029 0.00398476748 -0.0078144474
  vertex -0.00742141576 0.00403872598 -0.0078144474
  endloop
 endfacet

 facet normal 0 0 -1
  outer loop
  vertex 0.00867688935 0.003983384 -0.0078144474
  vertex -0.00742141576 0.00403872598 -0.0078144474
  vertex 0.00785564911 0.00403872598 -0.0078144474
  endloop
 endfacet

 facet normal 0 0 -1
  outer loop
  vertex 0.00867688935 0.003983384 -0.0078144474
  vertex 0.00785564911 0.00403872598 -0.0078144474
  vertex 0.00843076874 0.00400275365 -0.0078144474
  endloop
 endfacet

 facet normal 0.0751178265 0.9544909 -0.288625002
  outer loop
  vertex 0.00867688935 0.003983384 -0.0078144474
  vertex 0.00843076874 0.00400275365 -0.0078144474
  vertex 0.00785564911 0.0127495714 0.0209618397
  endloop
 endfacet

 facet normal 0.059758123 0.955399215 -0.289208114
  outer loop
  vertex 0.00785564911 0.0127495714 0.0209618397
  vertex 0.00843076874 0.00400275365 -0.0078144474
  vertex 0.00785564911 0.00403872598 -0.0078144474
  endloop
 endfacet

 facet normal 0 0.95710969 -0.28972584
  outer loop
  vertex 0.00785564911 0.0127495714 0.0209618397
  vertex 0.00785564911 0.00403872598 -0.0078144474
  vertex -0.00742141576 0.00403872598 -0.0078144474
  endloop
 endfacet

 facet normal 0 0.95710969 -0.28972584
  outer loop
  vertex 0.00785564911 0.0127495714 0.0209618397
  vertex -0.00742141576 0.00403872598 -0.0078144474
  vertex -0.00742141576 0.0127495714 0.0209618397
  endloop
 endfacet

 facet normal -0.111755595 0.98583287 -0.125077099
  outer loop
  vertex -0.00742141576 0.0131660197 0.0223517399
  vertex -0.00881275069 0.0130082956 0.0223517399
  vertex -0.0093527101 0.0163952317 0.0495293476
  endloop
 endfacet

 facet normal -0.103826717 0.986756802 -0.124623433
  outer loop
  vertex -0.00742141576 0.0131660197 0.0223517399
  vertex -0.0093527101 0.0163952317 0.0495293476
  vertex -0.00885795709 0.0165128335 0.0500483178
  endloop
 endfacet

 facet normal -0.0831508636 0.988817334 -0.123800017
  outer loop
  vertex -0.00742141576 0.0131660197 0.0223517399
  vertex -0.00885795709 0.0165128335 0.0500483178
  vertex -0.00842599012 0.0164505746 0.0492609106
  endloop
 endfacet

 facet normal -0.0240709968 0.992236733 -0.122011811
  outer loop
  vertex -0.00742141576 0.0131660197 0.0223517399
  vertex -0.00842599012 0.0164505746 0.0492609106
  vertex -0.00742141576 0.0135063743 0.0251196083
  endloop
 endfacet

 facet normal -0.0684238002 0.955680192 -0.286345571
  outer loop
  vertex -0.00742141576 0.0131660197 0.0223517399
  vertex -0.00742141576 0.0127495714 0.0209618397
  vertex -0.00881275069 0.0126499562 0.0209618397
  endloop
 endfacet

 facet normal -0.109116599 0.962553382 -0.248162687
  outer loop
  vertex -0.00742141576 0.0131660197 0.0223517399
  vertex -0.00881275069 0.0126499562 0.0209618397
  vertex -0.00881275069 0.0130082956 0.0223517399
  endloop
 endfacet

 facet normal 0 0.992540836 -0.12191245
  outer loop
  vertex 0.00646682596 0.0135063743 0.0251196083
  vertex -0.00742141576 0.0135063743 0.0251196083
  vertex -0.00742141576 0.0165778603 0.0501258709
  endloop
 endfacet

 facet normal 0 0.992540836 -0.12191245
  outer loop
  vertex 0.00646682596 0.0135063743 0.0251196083
  vertex -0.00742141576 0.0165778603 0.0501258709
  vertex 0.00785564911 0.0165778603 0.0501258709
  endloop
 endfacet

 facet normal 0 0.992561758 -0.121742003
  outer loop
  vertex 0.00785564911 0.0165778603 0.0501258709
  vertex -0.00742141576 0.0165778603 0.0501258709
  vertex -0.00742141576 0.0169458855 0.0531263798
  endloop
 endfacet

 facet normal 0 0.992561758 -0.121742003
  outer loop
  vertex 0.00785564911 0.0165778603 0.0501258709
  vertex -0.00742141576 0.0169458855 0.0531263798
  vertex 0.00785564911 0.0169458855 0.0531263798
  endloop
 endfacet

 facet normal 0.00798225868 -0.999889016 0.0125870705
  outer loop
  vertex 0.0119995186 0.00281289872 0.0334172472
  vertex 0.00785564911 0.002850255 0.039012637
  vertex 0.0114821633 0.00281289872 0.0337453373
  endloop
 endfacet

 facet normal 0 -0.994479299 0.10493347
  outer loop
  vertex 0.00785564911 0.00299552758 0.0404025353
  vertex -0.00742141576 0.00299552758 0.0404025353
  vertex -0.00742141576 0.00284887129 0.039012637
  endloop
 endfacet

 facet normal 0 -0.994479299 0.10493347
  outer loop
  vertex 0.00785564911 0.00299552758 0.0404025353
  vertex -0.00742141576 0.00284887129 0.039012637
  vertex 0.00646682596 0.00284887129 0.039012637
  endloop
 endfacet

 facet normal 0.000991009059 -0.99458164 0.10395404
  outer loop
  vertex 0.00785564911 0.00299552758 0.0404025353
  vertex 0.00646682596 0.00284887129 0.039012637
  vertex 0.00785564911 0.002850255 0.039012637
  endloop
 endfacet

 facet normal 0 -0.994381547 0.105855338
  outer loop
  vertex 0.00785564911 0.00299552758 0.0404025353
  vertex 0.00646682596 0.00435002474 0.0531263798
  vertex -0.00742141576 0.00435002474 0.0531263798
  endloop
 endfacet

 facet normal 0 -0.994381547 0.105855338
  outer loop
  vertex 0.00785564911 0.00299552758 0.0404025353
  vertex -0.00742141576 0.00435002474 0.0531263798
  vertex -0.00742141576 0.00299552758 0.0404025353
  endloop
 endfacet

 facet normal 0.000996363233 -0.999955177 0.00941662025
  outer loop
  vertex 0.00785564911 0.002850255 0.039012637
  vertex 0.00646682596 0.00284887129 0.039012637
  vertex 0.00785564911 0.00281289872 0.0350457579
  endloop
 endfacet

 facet normal 0.00275221071 -0.999951839 0.00941658858
  outer loop
  vertex 0.00785564911 0.002850255 0.039012637
  vertex 0.00785564911 0.00281289872 0.0350457579
  vertex 0.00930474885 0.00281289872 0.0346222259
  endloop
 endfacet

 facet normal 0.00387434755 -0.999944568 0.00978689827
  outer loop
  vertex 0.00785564911 0.002850255 0.039012637
  vertex 0.00930474885 0.00281289872 0.0346222259
  vertex 0.0107664056 0.00281289872 0.0340435989
  endloop
 endfacet

 facet normal 0.00414412748 -0.999942005 0.00994491018
  outer loop
  vertex 0.00785564911 0.002850255 0.039012637
  vertex 0.0107664056 0.00281289872 0.0340435989
  vertex 0.0114821633 0.00281289872 0.0337453373
  endloop
 endfacet

 facet normal 0.792929649 0.52029711 -0.317101985
  outer loop
  vertex 0.0105730249 0.00281289872 -0.00531501463
  vertex 0.00957347173 0.00281289872 -0.0078144474
  vertex 0.00930474885 0.00322243036 -0.0078144474
  endloop
 endfacet

 facet normal 0.758762717 0.583546042 -0.289401501
  outer loop
  vertex 0.0105730249 0.00281289872 -0.00531501463
  vertex 0.00930474885 0.00322243036 -0.0078144474
  vertex 0.0089004077 0.00374818034 -0.0078144474
  endloop
 endfacet

 facet normal -0.0353714563 0.956510842 -0.289544582
  outer loop
  vertex -0.00742141576 0.0127495714 0.0209618397
  vertex -0.00742141576 0.00403872598 -0.0078144474
  vertex -0.00888056029 0.00398476748 -0.0078144474
  endloop
 endfacet

 facet normal -0.0683988631 0.955331981 -0.287510812
  outer loop
  vertex -0.00742141576 0.0127495714 0.0209618397
  vertex -0.00888056029 0.00398476748 -0.0078144474
  vertex -0.00881275069 0.0126499562 0.0209618397
  endloop
 endfacet

 facet normal -0.250845194 0.937374949 -0.241671264
  outer loop
  vertex -0.00881275069 0.0130082956 0.0223517399
  vertex -0.00881275069 0.0126499562 0.0209618397
  vertex -0.00951846503 0.0122750131 0.0202400461
  endloop
 endfacet

 facet normal -0.326270819 0.921441972 -0.210931838
  outer loop
  vertex -0.00881275069 0.0130082956 0.0223517399
  vertex -0.00951846503 0.0122750131 0.0202400461
  vertex -0.00961389951 0.0124064507 0.0209618397
  endloop
 endfacet

 facet normal -0.448918343 0.884871006 -0.124401145
  outer loop
  vertex -0.00881275069 0.0130082956 0.0223517399
  vertex -0.00961389951 0.0124064507 0.0209618397
  vertex -0.00970180053 0.0125572579 0.0223517399
  endloop
 endfacet

 facet normal -0.449118376 0.88526535 -0.120822094
  outer loop
  vertex -0.00881275069 0.0130082956 0.0223517399
  vertex -0.00970180053 0.0125572579 0.0223517399
  vertex -0.00955111347 0.0164699443 0.0504599214
  endloop
 endfacet

 facet normal -0.221766144 0.967064559 -0.12492381
  outer loop
  vertex -0.00881275069 0.0130082956 0.0223517399
  vertex -0.00955111347 0.0164699443 0.0504599214
  vertex -0.0093527101 0.0163952317 0.0495293476
  endloop
 endfacet

 facet normal -0.136345744 0.984742343 -0.108131073
  outer loop
  vertex -0.0093527101 0.0163952317 0.0495293476
  vertex -0.00955111347 0.0164699443 0.0504599214
  vertex -0.00881275069 0.0168407355 0.0529056676
  endloop
 endfacet

 facet normal -0.126143828 0.985903859 -0.109915882
  outer loop
  vertex -0.0093527101 0.0163952317 0.0495293476
  vertex -0.00881275069 0.0168407355 0.0529056676
  vertex -0.00881275069 0.0166857783 0.0515157655
  endloop
 endfacet

 facet normal -0.116327599 0.986794472 -0.112714455
  outer loop
  vertex -0.0093527101 0.0163952317 0.0495293476
  vertex -0.00881275069 0.0166857783 0.0515157655
  vertex -0.00885795709 0.0165128335 0.0500483178
  endloop
 endfacet

 facet normal -0.0663511157 0.991173744 -0.114770137
  outer loop
  vertex -0.00885795709 0.0165128335 0.0500483178
  vertex -0.00881275069 0.0166857783 0.0515157655
  vertex -0.00842599012 0.0164505746 0.0492609106
  endloop
 endfacet

 facet normal -0.0547950938 0.992096066 -0.112884194
  outer loop
  vertex -0.00842599012 0.0164505746 0.0492609106
  vertex -0.00881275069 0.0166857783 0.0515157655
  vertex -0.00742141576 0.0169458855 0.0531263798
  endloop
 endfacet

 facet normal -0.0209365152 0.99234426 -0.121715322
  outer loop
  vertex -0.00842599012 0.0164505746 0.0492609106
  vertex -0.00742141576 0.0169458855 0.0531263798
  vertex -0.00742141576 0.0165778603 0.0501258709
  endloop
 endfacet

 facet normal -0.0207871962 0.992326379 -0.121886104
  outer loop
  vertex -0.00842599012 0.0164505746 0.0492609106
  vertex -0.00742141576 0.0165778603 0.0501258709
  vertex -0.00742141576 0.0135063743 0.0251196083
  endloop
 endfacet

 facet normal -0.0798159763 0.95452702 -0.287241518
  outer loop
  vertex -0.00881275069 0.0126499562 0.0209618397
  vertex -0.00888056029 0.00398476748 -0.0078144474
  vertex -0.00944312196 0.00393772684 -0.0078144474
  endloop
 endfacet

 facet normal -0.0808953568 0.95445025 -0.28719461
  outer loop
  vertex -0.00881275069 0.0126499562 0.0209618397
  vertex -0.00944312196 0.00393772684 -0.0078144474
  vertex -0.00950841978 0.00393219246 -0.0078144474
  endloop
 endfacet

 facet normal -0.212655172 0.936570346 -0.278592587
  outer loop
  vertex -0.00881275069 0.0126499562 0.0209618397
  vertex -0.00950841978 0.00393219246 -0.0078144474
  vertex -0.00951846503 0.0122750131 0.0202400461
  endloop
 endfacet

 facet normal -0.0574382059 0.992201805 -0.110618018
  outer loop
  vertex -0.00742141576 0.0169458855 0.0531263798
  vertex -0.00881275069 0.0166857783 0.0515157655
  vertex -0.00881275069 0.0168407355 0.0529056676
  endloop
 endfacet

 facet normal -0.0592624322 0.993258953 -0.0996221453
  outer loop
  vertex -0.00742141576 0.0169458855 0.0531263798
  vertex -0.00881275069 0.0168407355 0.0529056676
  vertex -0.00881275069 0.016862873 0.0531263798
  endloop
 endfacet

 facet normal -0.112997249 -0.988109946 0.104261398
  outer loop
  vertex -0.00742141576 0.00299552758 0.0404025353
  vertex -0.00881275069 0.00315463659 0.0404025353
  vertex -0.00742141576 0.00284887129 0.039012637
  endloop
 endfacet

 facet normal -0.104989827 -0.98888588 0.105270319
  outer loop
  vertex -0.00742141576 0.00299552758 0.0404025353
  vertex -0.00742141576 0.00435002474 0.0531263798
  vertex -0.00859425589 0.0044745449 0.0531263798
  endloop
 endfacet

 facet normal -0.112630785 -0.98812896 0.104478016
  outer loop
  vertex -0.00742141576 0.00299552758 0.0404025353
  vertex -0.00859425589 0.0044745449 0.0531263798
  vertex -0.00881275069 0.00449944986 0.0531263798
  endloop
 endfacet

 facet normal -0.112995192 -0.988091946 0.104433797
  outer loop
  vertex -0.00742141576 0.00299552758 0.0404025353
  vertex -0.00881275069 0.00449944986 0.0531263798
  vertex -0.00881275069 0.00315463659 0.0404025353
  endloop
 endfacet

 facet normal 0 -0.999958932 0.00906782318
  outer loop
  vertex 0.00646682596 0.00284887129 0.039012637
  vertex -0.00742141576 0.00284887129 0.039012637
  vertex -0.00331772934 0.00281289872 0.0350457579
  endloop
 endfacet

 facet normal 0 -0.999958932 0.00906782318
  outer loop
  vertex 0.00646682596 0.00284887129 0.039012637
  vertex -0.00331772934 0.00281289872 0.0350457579
  vertex 0.00785564911 0.00281289872 0.0350457579
  endloop
 endfacet

 facet normal -0.642260671 0.734625757 -0.218692347
  outer loop
  vertex -0.00951846503 0.0122750131 0.0202400461
  vertex -0.00950841978 0.00393219246 -0.0078144474
  vertex -0.00961389951 0.0124064507 0.0209618397
  endloop
 endfacet

 facet normal -0.815014482 0.555023372 -0.166434914
  outer loop
  vertex -0.00961389951 0.0124064507 0.0209618397
  vertex -0.00950841978 0.00393219246 -0.0078144474
  vertex -0.0112488437 0.00281289872 -0.00302436599
  endloop
 endfacet

 facet normal -0.833569944 0.53015703 -0.155224562
  outer loop
  vertex -0.00961389951 0.0124064507 0.0209618397
  vertex -0.0112488437 0.00281289872 -0.00302436599
  vertex -0.0113066072 0.00281289872 -0.00271417387
  endloop
 endfacet

 facet normal -0.892903566 0.435892761 -0.112786517
  outer loop
  vertex -0.00961389951 0.0124064507 0.0209618397
  vertex -0.0113066072 0.00281289872 -0.00271417387
  vertex -0.0113141416 0.00281289872 -0.00265452079
  endloop
 endfacet

 facet normal -0.905730724 0.411417186 -0.101920456
  outer loop
  vertex -0.00961389951 0.0124064507 0.0209618397
  vertex -0.0113141416 0.00281289872 -0.00265452079
  vertex -0.00970180053 0.0125572579 0.0223517399
  endloop
 endfacet

 facet normal -0.908261478 0.406332463 -0.0997758806
  outer loop
  vertex -0.00970180053 0.0125572579 0.0223517399
  vertex -0.0113141416 0.00281289872 -0.00265452079
  vertex -0.0117360633 0.00323349913 0.00289911265
  endloop
 endfacet

 facet normal -0.920546412 0.380973071 -0.0863362774
  outer loop
  vertex -0.00970180053 0.0125572579 0.0223517399
  vertex -0.0117360633 0.00323349913 0.00289911265
  vertex -0.0117812697 0.00878984574 0.0278994069
  endloop
 endfacet

 facet normal -0.910642028 0.40818733 -0.0641426146
  outer loop
  vertex -0.00970180053 0.0125572579 0.0223517399
  vertex -0.0117812697 0.00878984574 0.0278994069
  vertex -0.0113693941 0.00992712472 0.0292893071
  endloop
 endfacet

 facet normal -0.90878576 0.412629426 -0.0620123781
  outer loop
  vertex -0.00970180053 0.0125572579 0.0223517399
  vertex -0.0113693941 0.00992712472 0.0292893071
  vertex -0.011397019 0.010075165 0.0306792054
  endloop
 endfacet

 facet normal -0.901535273 0.429115891 -0.0556224138
  outer loop
  vertex -0.00970180053 0.0125572579 0.0223517399
  vertex -0.011397019 0.010075165 0.0306792054
  vertex -0.0096942652 0.0152731705 0.0431823358
  endloop
 endfacet

 facet normal -0.889891386 0.452385128 -0.0586604886
  outer loop
  vertex -0.00970180053 0.0125572579 0.0223517399
  vertex -0.0096942652 0.0152731705 0.0431823358
  vertex -0.00960636511 0.0165266693 0.0515157655
  endloop
 endfacet

 facet normal -0.82664752 0.557934403 -0.0732333809
  outer loop
  vertex -0.00970180053 0.0125572579 0.0223517399
  vertex -0.00960636511 0.0165266693 0.0515157655
  vertex -0.00955111347 0.0164699443 0.0504599214
  endloop
 endfacet

 facet normal -0.272956043 0.959770322 -0.0658477768
  outer loop
  vertex -0.00955111347 0.0164699443 0.0504599214
  vertex -0.00960636511 0.0165266693 0.0515157655
  vertex -0.00881275069 0.016862873 0.0531263798
  endloop
 endfacet

 facet normal -0.166737542 0.981078982 -0.0984005034
  outer loop
  vertex -0.00955111347 0.0164699443 0.0504599214
  vertex -0.00881275069 0.016862873 0.0531263798
  vertex -0.00881275069 0.0168407355 0.0529056676
  endloop
 endfacet

 facet normal -0.838088274 0.513370037 -0.184551641
  outer loop
  vertex -0.00950841978 0.00393219246 -0.0078144474
  vertex -0.0101940418 0.00281289872 -0.0078144474
  vertex -0.0112488437 0.00281289872 -0.00302436599
  endloop
 endfacet

 facet normal -0.285566628 0.956543446 -0.0589604676
  outer loop
  vertex -0.00881275069 0.016862873 0.0531263798
  vertex -0.00960636511 0.0165266693 0.0515157655
  vertex -0.00966161676 0.016595846 0.0529056676
  endloop
 endfacet

 facet normal -0.288216323 0.956335425 -0.0485180728
  outer loop
  vertex -0.00881275069 0.016862873 0.0531263798
  vertex -0.00966161676 0.016595846 0.0529056676
  vertex -0.00966664031 0.0166055299 0.0531263798
  endloop
 endfacet

 facet normal -0.129646003 -0.98769182 0.087503463
  outer loop
  vertex -0.00881275069 0.00315463659 0.0404025353
  vertex -0.00881275069 0.00303150015 0.039012637
  vertex -0.00742141576 0.00284887129 0.039012637
  endloop
 endfacet

 facet normal -0.4431853 -0.891464591 0.0942210108
  outer loop
  vertex -0.00881275069 0.00315463659 0.0404025353
  vertex -0.00881275069 0.00449944986 0.0531263798
  vertex -0.00966664031 0.00372604327 0.0417924374
  endloop
 endfacet

 facet normal -0.448946297 -0.889046371 0.0896875784
  outer loop
  vertex -0.00881275069 0.00315463659 0.0404025353
  vertex -0.00966664031 0.00372604327 0.0417924374
  vertex -0.0115502179 0.00281289872 0.0233121421
  endloop
 endfacet

 facet normal -0.392383814 -0.916213036 0.0811708793
  outer loop
  vertex -0.00881275069 0.00315463659 0.0404025353
  vertex -0.0115502179 0.00281289872 0.0233121421
  vertex -0.00881275069 0.00303150015 0.039012637
  endloop
 endfacet

 facet normal -0.00674531143 -0.999957442 0.00630654674
  outer loop
  vertex -0.00742141576 0.00284887129 0.039012637
  vertex -0.00730337854 0.00281289872 0.0334351473
  vertex -0.00606524013 0.00281289872 0.0347594246
  endloop
 endfacet

 facet normal -0.0032107064 -0.999967277 0.00743367104
  outer loop
  vertex -0.00742141576 0.00284887129 0.039012637
  vertex -0.00606524013 0.00281289872 0.0347594246
  vertex -0.00603761477 0.00281289872 0.0347713567
  endloop
 endfacet

 facet normal -0.00152956531 -0.999967039 0.00798217487
  outer loop
  vertex -0.00742141576 0.00284887129 0.039012637
  vertex -0.00603761477 0.00281289872 0.0347713567
  vertex -0.00469901925 0.00281289872 0.0350278616
  endloop
 endfacet

 facet normal -0.000907754933 -0.999964237 0.00840696972
  outer loop
  vertex -0.00742141576 0.00284887129 0.039012637
  vertex -0.00469901925 0.00281289872 0.0350278616
  vertex -0.00464376714 0.00281289872 0.0350338258
  endloop
 endfacet

 facet normal -8.08268305e-05 -0.999959648 0.00898421463
  outer loop
  vertex -0.00742141576 0.00284887129 0.039012637
  vertex -0.00464376714 0.00281289872 0.0350338258
  vertex -0.00331772934 0.00281289872 0.0350457579
  endloop
 endfacet

 facet normal -0.130055055 -0.990808189 0.0372114293
  outer loop
  vertex -0.00742141576 0.00284887129 0.039012637
  vertex -0.00881275069 0.00303150015 0.039012637
  vertex -0.0112538682 0.00281289872 0.0246602856
  endloop
 endfacet

 facet normal -0.0154041825 -0.999859512 0.0066193454
  outer loop
  vertex -0.00742141576 0.00284887129 0.039012637
  vertex -0.0112538682 0.00281289872 0.0246602856
  vertex -0.010013218 0.00281289872 0.0275474582
  endloop
 endfacet

 facet normal -0.0133955656 -0.999891281 0.00616538059
  outer loop
  vertex -0.00742141576 0.00284887129 0.039012637
  vertex -0.010013218 0.00281289872 0.0275474582
  vertex -0.00730337854 0.00281289872 0.0334351473
  endloop
 endfacet

 facet normal -0.457620442 -0.88407892 0.0948045626
  outer loop
  vertex -0.00881275069 0.00449944986 0.0531263798
  vertex -0.00956115965 0.00488684373 0.0531263798
  vertex -0.00966664031 0.00372604327 0.0417924374
  endloop
 endfacet

 facet normal -0.916714072 0.387094438 -0.0989610553
  outer loop
  vertex -0.0113141416 0.00281289872 -0.00265452079
  vertex -0.0114397136 0.00281289872 -0.00149130076
  vertex -0.0117360633 0.00323349913 0.00289911265
  endloop
 endfacet

 facet normal -0.97587347 0.201056123 -0.0851318687
  outer loop
  vertex -0.0117360633 0.00323349913 0.00289911265
  vertex -0.0114397136 0.00281289872 -0.00149130076
  vertex -0.0117862914 0.00281289872 0.00248154649
  endloop
 endfacet

 facet normal -0.977451563 0.195631593 -0.0794780776
  outer loop
  vertex -0.0117360633 0.00323349913 0.00289911265
  vertex -0.0117862914 0.00281289872 0.00248154649
  vertex -0.0118490783 0.00323349913 0.0042890124
  endloop
 endfacet

 facet normal -0.940343559 0.331523478 -0.0764607713
  outer loop
  vertex -0.0117360633 0.00323349913 0.00289911265
  vertex -0.0118490783 0.00323349913 0.0042890124
  vertex -0.0118114073 0.00462258514 0.00984860957
  endloop
 endfacet

 facet normal -0.923916459 0.373124212 -0.0845979601
  outer loop
  vertex -0.0117360633 0.00323349913 0.00289911265
  vertex -0.0118114073 0.00462258514 0.00984860957
  vertex -0.0117812697 0.00878984574 0.0278994069
  endloop
 endfacet

 facet normal -0.959901333 0.27368623 -0.0607067309
  outer loop
  vertex -0.0117812697 0.00878984574 0.0278994069
  vertex -0.0118264752 0.0074007581 0.0223517399
  vertex -0.0118691698 0.00878984574 0.0292893071
  endloop
 endfacet

 facet normal -0.915215194 0.398786873 -0.0578806624
  outer loop
  vertex -0.0117812697 0.00878984574 0.0278994069
  vertex -0.0118691698 0.00878984574 0.0292893071
  vertex -0.011397019 0.010075165 0.0306792054
  endloop
 endfacet

 facet normal -0.912148595 0.405250698 -0.0612932891
  outer loop
  vertex -0.0117812697 0.00878984574 0.0278994069
  vertex -0.011397019 0.010075165 0.0306792054
  vertex -0.0113693941 0.00992712472 0.0292893071
  endloop
 endfacet

 facet normal -0.946734965 0.314104289 -0.0709343404
  outer loop
  vertex -0.0117812697 0.00878984574 0.0278994069
  vertex -0.0118114073 0.00462258514 0.00984860957
  vertex -0.0118264752 0.0074007581 0.0223517399
  endloop
 endfacet

 facet normal -0.923084915 0.382495493 -0.0401417352
  outer loop
  vertex -0.011397019 0.010075165 0.0306792054
  vertex -0.0118691698 0.00878984574 0.0292893071
  vertex -0.00966161676 0.016595846 0.0529056676
  endloop
 endfacet

 facet normal -0.901937842 0.428319156 -0.0552363545
  outer loop
  vertex -0.011397019 0.010075165 0.0306792054
  vertex -0.00966161676 0.016595846 0.0529056676
  vertex -0.0096942652 0.0152731705 0.0431823358
  endloop
 endfacet

 facet normal -0.893018246 0.4463045 -0.0577128679
  outer loop
  vertex -0.0096942652 0.0152731705 0.0431823358
  vertex -0.00966161676 0.016595846 0.0529056676
  vertex -0.00960636511 0.0165266693 0.0515157655
  endloop
 endfacet

 facet normal -0.926062703 0.375496805 -0.0375500843
  outer loop
  vertex -0.00966664031 0.0166055299 0.0531263798
  vertex -0.00966161676 0.016595846 0.0529056676
  vertex -0.0118691698 0.00878984574 0.0292893071
  endloop
 endfacet

 facet normal -0.94590342 0.323903114 -0.0188003052
  outer loop
  vertex -0.00966664031 0.0166055299 0.0531263798
  vertex -0.0118691698 0.00878984574 0.0292893071
  vertex -0.0118967956 0.00878984574 0.0306792054
  endloop
 endfacet

 facet normal -0.975457489 0.219224259 0.0205831453
  outer loop
  vertex -0.00966664031 0.0166055299 0.0531263798
  vertex -0.0118967956 0.00878984574 0.0306792054
  vertex -0.00982988253 0.0158791672 0.0531263798
  endloop
 endfacet

 facet normal -0.292210728 -0.954194307 0.0642339662
  outer loop
  vertex -0.00881275069 0.00303150015 0.039012637
  vertex -0.0115502179 0.00281289872 0.0233121421
  vertex -0.0112538682 0.00281289872 0.0246602856
  endloop
 endfacet

 facet normal -0.494562626 -0.86414063 0.093106322
  outer loop
  vertex -0.00966664031 0.00372604327 0.0417924374
  vertex -0.00956115965 0.00488684373 0.0531263798
  vertex -0.0115502179 0.00281289872 0.0233121421
  endloop
 endfacet

 facet normal -0.551675498 -0.828693569 0.0944508463
  outer loop
  vertex -0.0115502179 0.00281289872 0.0233121421
  vertex -0.00956115965 0.00488684373 0.0531263798
  vertex -0.0122559294 0.00281289872 0.0191901661
  endloop
 endfacet

 facet normal -0.571486115 -0.815072 0.0951914787
  outer loop
  vertex -0.00956115965 0.00488684373 0.0531263798
  vertex -0.00969928782 0.0049836929 0.0531263798
  vertex -0.0122559294 0.00281289872 0.0191901661
  endloop
 endfacet

 facet normal -0.995066881 0.0832596049 -0.0539408475
  outer loop
  vertex -0.0117862914 0.00281289872 0.00248154649
  vertex -0.0118616354 0.00281289872 0.00387144415
  vertex -0.0118490783 0.00323349913 0.0042890124
  endloop
 endfacet

 facet normal -0.987136066 0.155904442 -0.0354432836
  outer loop
  vertex -0.0118490783 0.00323349913 0.0042890124
  vertex -0.0118792141 0.00462258514 0.0112385089
  vertex -0.0118691698 0.00878984574 0.0292893071
  endloop
 endfacet

 facet normal -0.97036165 0.235735208 -0.0531722903
  outer loop
  vertex -0.0118490783 0.00323349913 0.0042890124
  vertex -0.0118691698 0.00878984574 0.0292893071
  vertex -0.0118264752 0.0074007581 0.0223517399
  endloop
 endfacet

 facet normal -0.95890516 0.276725203 -0.0626434535
  outer loop
  vertex -0.0118490783 0.00323349913 0.0042890124
  vertex -0.0118264752 0.0074007581 0.0223517399
  vertex -0.0118114073 0.00462258514 0.00984860957
  endloop
 endfacet

 facet normal -0.997336328 0.0641808957 -0.0346553549
  outer loop
  vertex -0.0118490783 0.00323349913 0.0042890124
  vertex -0.0118616354 0.00281289872 0.00387144415
  vertex -0.0123588983 0.00281289872 0.0181820411
  endloop
 endfacet

 facet normal -0.989749789 0.139157116 -0.0321071148
  outer loop
  vertex -0.0118490783 0.00323349913 0.0042890124
  vertex -0.0123588983 0.00281289872 0.0181820411
  vertex -0.0118792141 0.00462258514 0.0112385089
  endloop
 endfacet

 facet normal -0.992815435 0.118017845 -0.0197327081
  outer loop
  vertex -0.0118691698 0.00878984574 0.0292893071
  vertex -0.0123588983 0.00281289872 0.0181820411
  vertex -0.0118967956 0.00878984574 0.0306792054
  endloop
 endfacet

 facet normal -0.989609122 0.140218824 -0.0318206847
  outer loop
  vertex -0.0118691698 0.00878984574 0.0292893071
  vertex -0.0118792141 0.00462258514 0.0112385089
  vertex -0.0123588983 0.00281289872 0.0181820411
  endloop
 endfacet

 facet normal -0.978447616 0.204930648 0.0253727175
  outer loop
  vertex -0.00982988253 0.0158791672 0.0531263798
  vertex -0.0118967956 0.00878984574 0.0306792054
  vertex -0.00986002013 0.0157352779 0.0531263798
  endloop
 endfacet

 facet normal -0.995970249 0.00231517921 0.0896543786
  outer loop
  vertex -0.0118967956 0.00878984574 0.0306792054
  vertex -0.00988262333 0.00601167185 0.0531263798
  vertex -0.00986002013 0.0157352779 0.0531263798
  endloop
 endfacet

 facet normal -0.99931711 0 0.036951419
  outer loop
  vertex -0.0118967956 0.00878984574 0.0306792054
  vertex -0.0123588983 0.00281289872 0.0181820411
  vertex -0.0118967956 0.0074007581 0.0306792054
  endloop
 endfacet

 facet normal -0.995998502 0 0.0893703848
  outer loop
  vertex -0.0118967956 0.00878984574 0.0306792054
  vertex -0.0118967956 0.0074007581 0.0306792054
  vertex -0.00988262333 0.00601167185 0.0531263798
  endloop
 endfacet

 facet normal -0.918244362 -0.384748042 0.0937886089
  outer loop
  vertex -0.0122559294 0.00281289872 0.0191901661
  vertex -0.00969928782 0.0049836929 0.0531263798
  vertex -0.0123588983 0.00281289872 0.0181820411
  endloop
 endfacet

 facet normal -0.980656981 -0.174895152 0.0878840908
  outer loop
  vertex -0.00969928782 0.0049836929 0.0531263798
  vertex -0.00988262333 0.00601167185 0.0531263798
  vertex -0.0118942838 0.00601167185 0.0306792054
  endloop
 endfacet

 facet normal -0.976743281 -0.196178243 0.0865267217
  outer loop
  vertex -0.00969928782 0.0049836929 0.0531263798
  vertex -0.0118942838 0.00601167185 0.0306792054
  vertex -0.0123588983 0.00281289872 0.0181820411
  endloop
 endfacet

 facet normal -0.999290705 -0.00180636789 0.0376135781
  outer loop
  vertex -0.0123588983 0.00281289872 0.0181820411
  vertex -0.0118942838 0.00601167185 0.0306792054
  vertex -0.0118967956 0.0074007581 0.0306792054
  endloop
 endfacet

 facet normal -0.996006727 -0.0018004314 0.089259699
  outer loop
  vertex -0.00988262333 0.00601167185 0.0531263798
  vertex -0.0118967956 0.0074007581 0.0306792054
  vertex -0.0118942838 0.00601167185 0.0306792054
  endloop
 endfacet

endsolid AssimpScene
