solid AssimpScene
 facet normal 0 0 1
  outer loop
  vertex -0.103643611 0.00306470599 0.0149999997
  vertex -0.103822418 0.00803138688 0.0149999997
  vertex -0.119603895 0.00803138688 0.0149999997
  endloop
 endfacet

 facet normal 0 0 1
  outer loop
  vertex -0.103643611 0.00306470599 0.0149999997
  vertex -0.119603895 0.00803138688 0.0149999997
  vertex -0.120891966 0.0060073128 0.0149999997
  endloop
 endfacet

 facet normal 0 0 1
  outer loop
  vertex -0.103643611 0.00306470599 0.0149999997
  vertex -0.120891966 0.0060073128 0.0149999997
  vertex -0.121136732 0.00559846498 0.0149999997
  endloop
 endfacet

 facet normal 0 0 1
  outer loop
  vertex -0.103643611 0.00306470599 0.0149999997
  vertex -0.121136732 0.00559846498 0.0149999997
  vertex -0.121376291 0.00511811394 0.0149999997
  endloop
 endfacet

 facet normal 0 0 1
  outer loop
  vertex -0.103643611 0.00306470599 0.0149999997
  vertex -0.121376291 0.00511811394 0.0149999997
  vertex -0.12082947 0.00436458644 0.0149999997
  endloop
 endfacet

 facet normal 0 0 1
  outer loop
  vertex -0.103643611 0.00306470599 0.0149999997
  vertex -0.12082947 0.00436458644 0.0149999997
  vertex -0.118218608 0.00175565761 0.0149999997
  endloop
 endfacet

 facet normal 0 0 1
  outer loop
  vertex -0.103643611 0.00306470599 0.0149999997
  vertex -0.118218608 0.00175565761 0.0149999997
  vertex -0.117466941 0.00120838766 0.0149999997
  endloop
 endfacet

 facet normal 0 0 1
  outer loop
  vertex -0.103643611 0.00306470599 0.0149999997
  vertex -0.117466941 0.00120838766 0.0149999997
  vertex -0.114177331 -0.000468256738 0.0149999997
  endloop
 endfacet

 facet normal 0 0 1
  outer loop
  vertex -0.103643611 0.00306470599 0.0149999997
  vertex -0.114177331 -0.000468256738 0.0149999997
  vertex -0.113290258 -0.000755183515 0.0149999997
  endloop
 endfacet

 facet normal 0 0 1
  outer loop
  vertex -0.103643611 0.00306470599 0.0149999997
  vertex -0.113290258 -0.000755183515 0.0149999997
  vertex -0.109646514 -0.00133362121 0.0149999997
  endloop
 endfacet

 facet normal 0 0 1
  outer loop
  vertex -0.103643611 0.00306470599 0.0149999997
  vertex -0.109646514 -0.00133362121 0.0149999997
  vertex -0.108716048 -0.00133362121 0.0149999997
  endloop
 endfacet

 facet normal 0 0 1
  outer loop
  vertex -0.103643611 0.00306470599 0.0149999997
  vertex -0.108716048 -0.00133362121 0.0149999997
  vertex -0.105068825 -0.000755183515 0.0149999997
  endloop
 endfacet

 facet normal 0 0 1
  outer loop
  vertex -0.103643611 0.00306470599 0.0149999997
  vertex -0.105068825 -0.000755183515 0.0149999997
  vertex -0.104183488 -0.000468256738 0.0149999997
  endloop
 endfacet

 facet normal 0 0 1
  outer loop
  vertex -0.103643611 0.00306470599 0.0149999997
  vertex -0.104183488 -0.000468256738 0.0149999997
  vertex -0.10409496 6.15956087e-05 0.0149999997
  endloop
 endfacet

 facet normal 0.988893986 -0.148622796 0
  outer loop
  vertex -0.103643611 0.00306470599 0.0149999997
  vertex -0.10409496 6.15956087e-05 0.0149999997
  vertex -0.10409496 6.15956087e-05 -0.00299999979
  endloop
 endfacet

 facet normal 0.988893986 -0.148622796 0
  outer loop
  vertex -0.103643611 0.00306470599 0.0149999997
  vertex -0.10409496 6.15956087e-05 -0.00299999979
  vertex -0.103643611 0.00306470599 -0.00299999979
  endloop
 endfacet

 facet normal 0.999352634 0.0359764509 0
  outer loop
  vertex -0.103643611 0.00306470599 0.0149999997
  vertex -0.103643611 0.00306470599 -0.00299999979
  vertex -0.103822418 0.00803138688 -0.00299999979
  endloop
 endfacet

 facet normal 0.999352634 0.0359764509 0
  outer loop
  vertex -0.103643611 0.00306470599 0.0149999997
  vertex -0.103822418 0.00803138688 -0.00299999979
  vertex -0.103822418 0.00803138688 0.0149999997
  endloop
 endfacet

 facet normal 0 1 0
  outer loop
  vertex -0.103822418 0.00803138688 0.0149999997
  vertex -0.103822418 0.00803138688 -0.00299999979
  vertex -0.119603895 0.00803138688 -0.00299999979
  endloop
 endfacet

 facet normal 0 1 0
  outer loop
  vertex -0.103822418 0.00803138688 0.0149999997
  vertex -0.119603895 0.00803138688 -0.00299999979
  vertex -0.119603895 0.00803138688 0.0149999997
  endloop
 endfacet

 facet normal 0.986326396 -0.164803892 0
  outer loop
  vertex -0.10409496 6.15956087e-05 0.0149999997
  vertex -0.104183488 -0.000468256738 0.0149999997
  vertex -0.104183488 -0.000468256738 -0.00299999979
  endloop
 endfacet

 facet normal 0.986326396 -0.164803892 0
  outer loop
  vertex -0.10409496 6.15956087e-05 0.0149999997
  vertex -0.104183488 -0.000468256738 -0.00299999979
  vertex -0.10409496 6.15956087e-05 -0.00299999979
  endloop
 endfacet

 facet normal 0 0 -1
  outer loop
  vertex -0.103643611 0.00306470599 -0.00299999979
  vertex -0.10409496 6.15956087e-05 -0.00299999979
  vertex -0.104183488 -0.000468256738 -0.00299999979
  endloop
 endfacet

 facet normal 0 0 -1
  outer loop
  vertex -0.103643611 0.00306470599 -0.00299999979
  vertex -0.104183488 -0.000468256738 -0.00299999979
  vertex -0.105068825 -0.000755183515 -0.00299999979
  endloop
 endfacet

 facet normal 0 0 -1
  outer loop
  vertex -0.103643611 0.00306470599 -0.00299999979
  vertex -0.105068825 -0.000755183515 -0.00299999979
  vertex -0.108716048 -0.00133362121 -0.00299999979
  endloop
 endfacet

 facet normal 0 0 -1
  outer loop
  vertex -0.103643611 0.00306470599 -0.00299999979
  vertex -0.108716048 -0.00133362121 -0.00299999979
  vertex -0.109646514 -0.00133362121 -0.00299999979
  endloop
 endfacet

 facet normal 0 0 -1
  outer loop
  vertex -0.103643611 0.00306470599 -0.00299999979
  vertex -0.109646514 -0.00133362121 -0.00299999979
  vertex -0.113290258 -0.000755183515 -0.00299999979
  endloop
 endfacet

 facet normal 0 0 -1
  outer loop
  vertex -0.103643611 0.00306470599 -0.00299999979
  vertex -0.113290258 -0.000755183515 -0.00299999979
  vertex -0.114177331 -0.000468256738 -0.00299999979
  endloop
 endfacet

 facet normal 0 0 -1
  outer loop
  vertex -0.103643611 0.00306470599 -0.00299999979
  vertex -0.114177331 -0.000468256738 -0.00299999979
  vertex -0.117466941 0.00120838766 -0.00299999979
  endloop
 endfacet

 facet normal 0 0 -1
  outer loop
  vertex -0.103643611 0.00306470599 -0.00299999979
  vertex -0.117466941 0.00120838766 -0.00299999979
  vertex -0.118218608 0.00175565761 -0.00299999979
  endloop
 endfacet

 facet normal 0 0 -1
  outer loop
  vertex -0.103643611 0.00306470599 -0.00299999979
  vertex -0.118218608 0.00175565761 -0.00299999979
  vertex -0.12082947 0.00436458644 -0.00299999979
  endloop
 endfacet

 facet normal 0 0 -1
  outer loop
  vertex -0.103643611 0.00306470599 -0.00299999979
  vertex -0.12082947 0.00436458644 -0.00299999979
  vertex -0.121376291 0.00511811394 -0.00299999979
  endloop
 endfacet

 facet normal 0 0 -1
  outer loop
  vertex -0.103643611 0.00306470599 -0.00299999979
  vertex -0.121376291 0.00511811394 -0.00299999979
  vertex -0.121136732 0.00559846498 -0.00299999979
  endloop
 endfacet

 facet normal 0 0 -1
  outer loop
  vertex -0.103643611 0.00306470599 -0.00299999979
  vertex -0.121136732 0.00559846498 -0.00299999979
  vertex -0.120891966 0.0060073128 -0.00299999979
  endloop
 endfacet

 facet normal 0 0 -1
  outer loop
  vertex -0.103643611 0.00306470599 -0.00299999979
  vertex -0.120891966 0.0060073128 -0.00299999979
  vertex -0.119603895 0.00803138688 -0.00299999979
  endloop
 endfacet

 facet normal 0 0 -1
  outer loop
  vertex -0.103643611 0.00306470599 -0.00299999979
  vertex -0.119603895 0.00803138688 -0.00299999979
  vertex -0.103822418 0.00803138688 -0.00299999979
  endloop
 endfacet

 facet normal -0.843657255 0.536882162 0
  outer loop
  vertex -0.119603895 0.00803138688 0.0149999997
  vertex -0.119603895 0.00803138688 -0.00299999979
  vertex -0.120891966 0.0060073128 -0.00299999979
  endloop
 endfacet

 facet normal -0.843657255 0.536882162 0
  outer loop
  vertex -0.119603895 0.00803138688 0.0149999997
  vertex -0.120891966 0.0060073128 -0.00299999979
  vertex -0.120891966 0.0060073128 0.0149999997
  endloop
 endfacet

 facet normal 0.308301508 -0.9512887 0
  outer loop
  vertex -0.104183488 -0.000468256738 0.0149999997
  vertex -0.105068825 -0.000755183515 0.0149999997
  vertex -0.105068825 -0.000755183515 -0.00299999979
  endloop
 endfacet

 facet normal 0.308301508 -0.9512887 0
  outer loop
  vertex -0.104183488 -0.000468256738 0.0149999997
  vertex -0.105068825 -0.000755183515 -0.00299999979
  vertex -0.104183488 -0.000468256738 -0.00299999979
  endloop
 endfacet

 facet normal -0.857993305 0.513660848 0
  outer loop
  vertex -0.120891966 0.0060073128 0.0149999997
  vertex -0.120891966 0.0060073128 -0.00299999979
  vertex -0.121136732 0.00559846498 -0.00299999979
  endloop
 endfacet

 facet normal -0.857993305 0.513660848 0
  outer loop
  vertex -0.120891966 0.0060073128 0.0149999997
  vertex -0.121136732 0.00559846498 -0.00299999979
  vertex -0.121136732 0.00559846498 0.0149999997
  endloop
 endfacet

 facet normal 0.156639099 -0.987655878 0
  outer loop
  vertex -0.105068825 -0.000755183515 0.0149999997
  vertex -0.108716048 -0.00133362121 0.0149999997
  vertex -0.108716048 -0.00133362121 -0.00299999979
  endloop
 endfacet

 facet normal 0.156639099 -0.987655878 0
  outer loop
  vertex -0.105068825 -0.000755183515 0.0149999997
  vertex -0.108716048 -0.00133362121 -0.00299999979
  vertex -0.105068825 -0.000755183515 -0.00299999979
  endloop
 endfacet

 facet normal -0.894885659 0.4462955 0
  outer loop
  vertex -0.121136732 0.00559846498 0.0149999997
  vertex -0.121136732 0.00559846498 -0.00299999979
  vertex -0.121376291 0.00511811394 -0.00299999979
  endloop
 endfacet

 facet normal -0.894885659 0.4462955 0
  outer loop
  vertex -0.121136732 0.00559846498 0.0149999997
  vertex -0.121376291 0.00511811394 -0.00299999979
  vertex -0.121376291 0.00511811394 0.0149999997
  endloop
 endfacet

 facet normal 0 -1 0
  outer loop
  vertex -0.108716048 -0.00133362121 0.0149999997
  vertex -0.109646514 -0.00133362121 0.0149999997
  vertex -0.109646514 -0.00133362121 -0.00299999979
  endloop
 endfacet

 facet normal 0 -1 0
  outer loop
  vertex -0.108716048 -0.00133362121 0.0149999997
  vertex -0.109646514 -0.00133362121 -0.00299999979
  vertex -0.108716048 -0.00133362121 -0.00299999979
  endloop
 endfacet

 facet normal -0.809347391 -0.587330341 0
  outer loop
  vertex -0.121376291 0.00511811394 0.0149999997
  vertex -0.121376291 0.00511811394 -0.00299999979
  vertex -0.12082947 0.00436458644 -0.00299999979
  endloop
 endfacet

 facet normal -0.809347391 -0.587330341 0
  outer loop
  vertex -0.121376291 0.00511811394 0.0149999997
  vertex -0.12082947 0.00436458644 -0.00299999979
  vertex -0.12082947 0.00436458644 0.0149999997
  endloop
 endfacet

 facet normal -0.156784743 -0.987632751 0
  outer loop
  vertex -0.109646514 -0.00133362121 0.0149999997
  vertex -0.113290258 -0.000755183515 0.0149999997
  vertex -0.113290258 -0.000755183515 -0.00299999979
  endloop
 endfacet

 facet normal -0.156784743 -0.987632751 0
  outer loop
  vertex -0.109646514 -0.00133362121 0.0149999997
  vertex -0.113290258 -0.000755183515 -0.00299999979
  vertex -0.109646514 -0.00133362121 -0.00299999979
  endloop
 endfacet

 facet normal -0.706844807 -0.707368731 0
  outer loop
  vertex -0.12082947 0.00436458644 0.0149999997
  vertex -0.12082947 0.00436458644 -0.00299999979
  vertex -0.118218608 0.00175565761 -0.00299999979
  endloop
 endfacet

 facet normal -0.706844807 -0.707368731 0
  outer loop
  vertex -0.12082947 0.00436458644 0.0149999997
  vertex -0.118218608 0.00175565761 -0.00299999979
  vertex -0.118218608 0.00175565761 0.0149999997
  endloop
 endfacet

 facet normal -0.307755738 -0.951465368 0
  outer loop
  vertex -0.113290258 -0.000755183515 0.0149999997
  vertex -0.114177331 -0.000468256738 0.0149999997
  vertex -0.114177331 -0.000468256738 -0.00299999979
  endloop
 endfacet

 facet normal -0.307755738 -0.951465368 0
  outer loop
  vertex -0.113290258 -0.000755183515 0.0149999997
  vertex -0.114177331 -0.000468256738 -0.00299999979
  vertex -0.113290258 -0.000755183515 -0.00299999979
  endloop
 endfacet

 facet normal -0.588597655 -0.808426142 0
  outer loop
  vertex -0.118218608 0.00175565761 0.0149999997
  vertex -0.118218608 0.00175565761 -0.00299999979
  vertex -0.117466941 0.00120838766 -0.00299999979
  endloop
 endfacet

 facet normal -0.588597655 -0.808426142 0
  outer loop
  vertex -0.118218608 0.00175565761 0.0149999997
  vertex -0.117466941 0.00120838766 -0.00299999979
  vertex -0.117466941 0.00120838766 0.0149999997
  endloop
 endfacet

 facet normal -0.454098552 -0.890951514 0
  outer loop
  vertex -0.114177331 -0.000468256738 0.0149999997
  vertex -0.117466941 0.00120838766 0.0149999997
  vertex -0.117466941 0.00120838766 -0.00299999979
  endloop
 endfacet

 facet normal -0.454098552 -0.890951514 0
  outer loop
  vertex -0.114177331 -0.000468256738 0.0149999997
  vertex -0.117466941 0.00120838766 -0.00299999979
  vertex -0.114177331 -0.000468256738 -0.00299999979
  endloop
 endfacet

endsolid AssimpScene
