solid AssimpScene
 facet normal 0.0747415647 -0.986405373 0.146349356
  outer loop
  vertex 0.00796216261 -0.0281400364 0.00184792664
  vertex 0.00856578723 -0.0280942991 0.00184792664
  vertex 0.00856578723 -0.0279155094 0.00305298134
  endloop
 endfacet

 facet normal 0.0708275884 -0.986401498 0.148309216
  outer loop
  vertex 0.00796216261 -0.0281400364 0.00184792664
  vertex 0.00856578723 -0.0279155094 0.00305298134
  vertex 0.00796216261 -0.0280423257 0.00249779574
  endloop
 endfacet

 facet normal -0.999997377 -0.00225105183 0.000338454178
  outer loop
  vertex 0.00796216261 -0.0281400364 0.00184792664
  vertex 0.00796216261 -0.0280423257 0.00249779574
  vertex 0.00796152093 -0.0271275863 0.00668536127
  endloop
 endfacet

 facet normal -0.999999881 -0.000400690973 -4.88171827e-05
  outer loop
  vertex 0.00796216261 -0.0281400364 0.00184792664
  vertex 0.00796152093 -0.0271275863 0.00668536127
  vertex 0.00796216261 -0.0280215368 0.000875275757
  endloop
 endfacet

 facet normal 0.0640556291 -0.990621507 -0.120689891
  outer loop
  vertex 0.00796216261 -0.0281400364 0.00184792664
  vertex 0.00796216261 -0.0280215368 0.000875275757
  vertex 0.00856578723 -0.0279882718 0.000922617037
  endloop
 endfacet

 facet normal 0.0750666633 -0.990695894 -0.113519043
  outer loop
  vertex 0.00796216261 -0.0281400364 0.00184792664
  vertex 0.00856578723 -0.0279882718 0.000922617037
  vertex 0.00856578723 -0.0280942991 0.00184792664
  endloop
 endfacet

 facet normal 0.243306011 -0.968610525 0.0509492718
  outer loop
  vertex 0.00856578723 -0.0280942991 0.00184792664
  vertex 0.00932721421 -0.0279030353 0.00184792664
  vertex 0.00929193385 -0.0278593767 0.00284640095
  endloop
 endfacet

 facet normal 0.117397994 -0.982331991 0.145745009
  outer loop
  vertex 0.00856578723 -0.0280942991 0.00184792664
  vertex 0.00929193385 -0.0278593767 0.00284640095
  vertex 0.00856578723 -0.0279155094 0.00305298134
  endloop
 endfacet

 facet normal 0.167763978 -0.979418397 -0.112226799
  outer loop
  vertex 0.00856578723 -0.0280942991 0.00184792664
  vertex 0.00856578723 -0.0279882718 0.000922617037
  vertex 0.00929129217 -0.0278822482 0.0010818562
  endloop
 endfacet

 facet normal 0.243449062 -0.969180107 -0.0377155058
  outer loop
  vertex 0.00856578723 -0.0280942991 0.00184792664
  vertex 0.00929129217 -0.0278822482 0.0010818562
  vertex 0.00932721421 -0.0279030353 0.00184792664
  endloop
 endfacet

 facet normal 0.126236036 -0.975792289 0.178588375
  outer loop
  vertex 0.00856578723 -0.0279155094 0.00305298134
  vertex 0.00929193385 -0.0278593767 0.00284640095
  vertex 0.0105921971 -0.026530927 0.00918584969
  endloop
 endfacet

 facet normal 0.107409045 -0.976842523 0.185046241
  outer loop
  vertex 0.00856578723 -0.0279155094 0.00305298134
  vertex 0.0105921971 -0.026530927 0.00918584969
  vertex 0.00856578723 -0.0277907718 0.00371145853
  endloop
 endfacet

 facet normal 0.0352123007 -0.981917262 0.186007574
  outer loop
  vertex 0.00856578723 -0.0279155094 0.00305298134
  vertex 0.00856578723 -0.0277907718 0.00371145853
  vertex 0.00796216261 -0.0280423257 0.00249779574
  endloop
 endfacet

 facet normal 0.0188382436 -0.98083508 0.193927035
  outer loop
  vertex 0.00796216261 -0.0280423257 0.00249779574
  vertex 0.00856578723 -0.0277907718 0.00371145853
  vertex 0.00796216261 -0.0278593767 0.00342310523
  endloop
 endfacet

 facet normal -0.999971688 -0.00739499135 0.0014621102
  outer loop
  vertex 0.00796216261 -0.0280423257 0.00249779574
  vertex 0.00796216261 -0.0278593767 0.00342310523
  vertex 0.00796152093 -0.0271275863 0.00668536127
  endloop
 endfacet

 facet normal -1 -2.24734085e-05 -9.4702933e-05
  outer loop
  vertex 0.00796152093 -0.0271275863 0.00668536127
  vertex 0.00796216261 -0.0219177306 -0.00132825365
  vertex 0.00796216261 -0.0232960768 -0.0010011663
  endloop
 endfacet

 facet normal -1 -3.19546161e-05 -9.94290385e-05
  outer loop
  vertex 0.00796152093 -0.0271275863 0.00668536127
  vertex 0.00796216261 -0.0232960768 -0.0010011663
  vertex 0.00796216261 -0.0262689777 -4.57316928e-05
  endloop
 endfacet

 facet normal -1 -3.78858531e-05 -0.000100185614
  outer loop
  vertex 0.00796152093 -0.0271275863 0.00668536127
  vertex 0.00796216261 -0.0262689777 -4.57316928e-05
  vertex 0.00796216261 -0.027156692 0.000289962773
  endloop
 endfacet

 facet normal -1 -6.52117014e-05 -0.000100061261
  outer loop
  vertex 0.00796152093 -0.0271275863 0.00668536127
  vertex 0.00796216261 -0.027156692 0.000289962773
  vertex 0.00796216261 -0.0276057459 0.000582619512
  endloop
 endfacet

 facet normal -1 -7.0155962e-05 -9.96738672e-05
  outer loop
  vertex 0.00796152093 -0.0271275863 0.00668536127
  vertex 0.00796216261 -0.0276057459 0.000582619512
  vertex 0.00796216261 -0.0280215368 0.000875275757
  endloop
 endfacet

 facet normal -0.999102235 -0.0413799658 0.00908580981
  outer loop
  vertex 0.00796152093 -0.0271275863 0.00668536127
  vertex 0.00796216261 -0.0278593767 0.00342310523
  vertex 0.00796216261 -0.0277034566 0.00413322728
  endloop
 endfacet

 facet normal -0.995456219 -0.0929382294 0.0207204539
  outer loop
  vertex 0.00796152093 -0.0271275863 0.00668536127
  vertex 0.00796216261 -0.0277034566 0.00413322728
  vertex 0.00796216261 -0.0276286136 0.00446892064
  endloop
 endfacet

 facet normal -0.991006494 -0.130582109 0.0292311497
  outer loop
  vertex 0.00796152093 -0.0271275863 0.00668536127
  vertex 0.00796216261 -0.0276286136 0.00446892064
  vertex 0.00796216261 -0.0274706148 0.00517473929
  endloop
 endfacet

 facet normal -0.957125127 -0.282570958 0.0637587309
  outer loop
  vertex 0.00796152093 -0.0271275863 0.00668536127
  vertex 0.00796216261 -0.0274706148 0.00517473929
  vertex 0.00796216261 -0.0271754023 0.00648308452
  endloop
 endfacet

 facet normal -0.954166055 -0.291914642 0.0659768358
  outer loop
  vertex 0.00796152093 -0.0271275863 0.00668536127
  vertex 0.00796216261 -0.0271754023 0.00648308452
  vertex 0.00796152093 -0.0250527915 0.0158652961
  endloop
 endfacet

 facet normal -1 0 0
  outer loop
  vertex 0.00796152093 -0.0271275863 0.00668536127
  vertex 0.00796152093 -0.0250527915 0.0158652961
  vertex 0.00796152093 -0.024961317 0.0162569396
  endloop
 endfacet

 facet normal -1 0 0
  outer loop
  vertex 0.00796152093 -0.0271275863 0.00668536127
  vertex 0.00796152093 -0.024961317 0.0162569396
  vertex 0.00796152093 -0.021412544 0.0162569396
  endloop
 endfacet

 facet normal -1 0 0
  outer loop
  vertex 0.00796152093 -0.0271275863 0.00668536127
  vertex 0.00796152093 -0.021412544 0.0162569396
  vertex 0.00796152093 -0.0208616219 0.00668536127
  endloop
 endfacet

 facet normal -1 0 -8.00923954e-05
  outer loop
  vertex 0.00796152093 -0.0271275863 0.00668536127
  vertex 0.00796152093 -0.0208616219 0.00668536127
  vertex 0.00796216261 -0.0219177306 -0.00132825365
  endloop
 endfacet

 facet normal -0.997032404 -0.0443096273 -0.0629527718
  outer loop
  vertex 0.00796216261 -0.0280215368 0.000875275757
  vertex 0.00796216261 -0.0276057459 0.000582619512
  vertex 0.0081738485 -0.0231359974 -0.00591606926
  endloop
 endfacet

 facet normal -0.992343903 -0.0835013017 -0.0910002217
  outer loop
  vertex 0.00796216261 -0.0280215368 0.000875275757
  vertex 0.0081738485 -0.0231359974 -0.00591606926
  vertex 0.00818154495 -0.02322747 -0.00591606926
  endloop
 endfacet

 facet normal -0.859666944 -0.403851867 -0.312852383
  outer loop
  vertex 0.00796216261 -0.0280215368 0.000875275757
  vertex 0.00818154495 -0.02322747 -0.00591606926
  vertex 0.00868061092 -0.0242898166 -0.00591606926
  endloop
 endfacet

 facet normal -0.816846013 -0.464714229 -0.341765136
  outer loop
  vertex 0.00796216261 -0.0280215368 0.000875275757
  vertex 0.00868061092 -0.0242898166 -0.00591606926
  vertex 0.008718458 -0.024356341 -0.00591606926
  endloop
 endfacet

 facet normal -0.336160034 -0.812654614 -0.47601372
  outer loop
  vertex 0.00796216261 -0.0280215368 0.000875275757
  vertex 0.008718458 -0.024356341 -0.00591606926
  vertex 0.00987439044 -0.0248345006 -0.00591606926
  endloop
 endfacet

 facet normal 0.0819139108 -0.910904825 -0.404404104
  outer loop
  vertex 0.00796216261 -0.0280215368 0.000875275757
  vertex 0.00987439044 -0.0248345006 -0.00591606926
  vertex 0.00856578723 -0.0279882718 0.000922617037
  endloop
 endfacet

 facet normal 0.214116901 -0.901965082 -0.374983966
  outer loop
  vertex 0.00856578723 -0.0279882718 0.000922617037
  vertex 0.00987439044 -0.0248345006 -0.00591606926
  vertex 0.00929129217 -0.0278822482 0.0010818562
  endloop
 endfacet

 facet normal 0.758338869 -0.649686933 -0.0531894788
  outer loop
  vertex 0.00932721421 -0.0279030353 0.00184792664
  vertex 0.00929129217 -0.0278822482 0.0010818562
  vertex 0.0106640421 -0.0266639814 0.0057729627
  endloop
 endfacet

 facet normal 0.742119074 -0.668977439 -0.0415755473
  outer loop
  vertex 0.00932721421 -0.0279030353 0.00184792664
  vertex 0.0106640421 -0.0266639814 0.0057729627
  vertex 0.0107076615 -0.0266722944 0.00668536127
  endloop
 endfacet

 facet normal 0.739684343 -0.671753883 -0.0401743613
  outer loop
  vertex 0.00932721421 -0.0279030353 0.00184792664
  vertex 0.0107076615 -0.0266722944 0.00668536127
  vertex 0.010725623 -0.0266764536 0.00708561158
  endloop
 endfacet

 facet normal 0.532198787 -0.844782352 0.0557426661
  outer loop
  vertex 0.00932721421 -0.0279030353 0.00184792664
  vertex 0.010725623 -0.0266764536 0.00708561158
  vertex 0.00929193385 -0.0278593767 0.00284640095
  endloop
 endfacet

 facet normal 0.359005332 -0.925548017 0.120317034
  outer loop
  vertex 0.00929193385 -0.0278593767 0.00284640095
  vertex 0.0106807202 -0.026599532 0.00839395728
  vertex 0.0105921971 -0.026530927 0.00918584969
  endloop
 endfacet

 facet normal 0.525768936 -0.84858048 0.05897706
  outer loop
  vertex 0.00929193385 -0.0278593767 0.00284640095
  vertex 0.010725623 -0.0266764536 0.00708561158
  vertex 0.0135314213 -0.0241193399 0.0188650228
  endloop
 endfacet

 facet normal 0.404845327 -0.90834415 0.104934357
  outer loop
  vertex 0.00929193385 -0.0278593767 0.00284640095
  vertex 0.0135314213 -0.0241193399 0.0188650228
  vertex 0.0106807202 -0.026599532 0.00839395728
  endloop
 endfacet

 facet normal 0.291871727 -0.885566354 -0.361363053
  outer loop
  vertex 0.00929129217 -0.0278822482 0.0010818562
  vertex 0.00987439044 -0.0248345006 -0.00591606926
  vertex 0.00995008368 -0.0248095542 -0.00591606926
  endloop
 endfacet

 facet normal 0.366076767 -0.86426115 -0.345022529
  outer loop
  vertex 0.00929129217 -0.0278822482 0.0010818562
  vertex 0.00995008368 -0.0248095542 -0.00591606926
  vertex 0.0110200597 -0.024356341 -0.00591606926
  endloop
 endfacet

 facet normal 0.813397825 -0.574901998 -0.0887226909
  outer loop
  vertex 0.00929129217 -0.0278822482 0.0010818562
  vertex 0.0110200597 -0.024356341 -0.00591606926
  vertex 0.0106640421 -0.0266639814 0.0057729627
  endloop
 endfacet

 facet normal 0.154127508 -0.970211923 0.18690531
  outer loop
  vertex 0.0105921971 -0.026530927 0.00918584969
  vertex 0.0119912466 -0.0252648443 0.0146042937
  vertex 0.0124909543 -0.0243646577 0.0188650228
  endloop
 endfacet

 facet normal 0.0428323373 -0.97672081 0.210194752
  outer loop
  vertex 0.0105921971 -0.026530927 0.00918584969
  vertex 0.0124909543 -0.0243646577 0.0188650228
  vertex 0.00987503119 -0.0265475586 0.00925470982
  endloop
 endfacet

 facet normal 0.0427255556 -0.976977468 0.209020659
  outer loop
  vertex 0.0105921971 -0.026530927 0.00918584969
  vertex 0.00987503119 -0.0265475586 0.00925470982
  vertex 0.00856578723 -0.0277907718 0.00371145853
  endloop
 endfacet

 facet normal 0.361644596 -0.924493432 0.120520696
  outer loop
  vertex 0.0105921971 -0.026530927 0.00918584969
  vertex 0.0106807202 -0.026599532 0.00839395728
  vertex 0.0135314213 -0.0241193399 0.0188650228
  endloop
 endfacet

 facet normal 0.319493771 -0.937689722 0.136608317
  outer loop
  vertex 0.0105921971 -0.026530927 0.00918584969
  vertex 0.0135314213 -0.0241193399 0.0188650228
  vertex 0.0119912466 -0.0252648443 0.0146042937
  endloop
 endfacet

 facet normal 0.00856198464 -0.97669673 0.214453042
  outer loop
  vertex 0.00856578723 -0.0277907718 0.00371145853
  vertex 0.00856578723 -0.0276244562 0.00446892064
  vertex 0.00796216261 -0.0277034566 0.00413322728
  endloop
 endfacet

 facet normal 0.00856233947 -0.97669667 0.214453548
  outer loop
  vertex 0.00856578723 -0.0277907718 0.00371145853
  vertex 0.00796216261 -0.0277034566 0.00413322728
  vertex 0.00796216261 -0.0278593767 0.00342310523
  endloop
 endfacet

 facet normal 0.0194556378 -0.976547658 0.214420304
  outer loop
  vertex 0.00856578723 -0.0277907718 0.00371145853
  vertex 0.00987503119 -0.0265475586 0.00925470982
  vertex 0.00856578723 -0.0276244562 0.00446892064
  endloop
 endfacet

 facet normal -1 3.0477544e-05 -8.41090077e-05
  outer loop
  vertex 0.00796216261 -0.0219177306 -0.00132825365
  vertex 0.00796152093 -0.0208616219 0.00668536127
  vertex 0.00796216261 -0.0205518585 -0.000833319093
  endloop
 endfacet

 facet normal -0.9999578 0.0031307335 -0.00863989815
  outer loop
  vertex 0.00796216261 -0.0219177306 -0.00132825365
  vertex 0.00796216261 -0.0205518585 -0.000833319093
  vertex 0.00802695099 -0.00690145139 -0.00338545418
  endloop
 endfacet

 facet normal -0.999772489 0.00139703555 -0.0212889742
  outer loop
  vertex 0.00796216261 -0.0219177306 -0.00132825365
  vertex 0.00802695099 -0.00690145139 -0.00338545418
  vertex 0.00803272426 -0.00690145139 -0.00365659106
  endloop
 endfacet

 facet normal -0.99936223 -0.000839227228 -0.035698995
  outer loop
  vertex 0.00796216261 -0.0219177306 -0.00132825365
  vertex 0.00803272426 -0.00690145139 -0.00365659106
  vertex 0.00806992967 -0.00690145139 -0.00469810283
  endloop
 endfacet

 facet normal -0.999211133 -0.00173320831 -0.0396778025
  outer loop
  vertex 0.00796216261 -0.0219177306 -0.00132825365
  vertex 0.00806992967 -0.00690145139 -0.00469810283
  vertex 0.00814434048 -0.0219177306 -0.00591606926
  endloop
 endfacet

 facet normal -0.999168158 -0.00941530708 -0.0396760963
  outer loop
  vertex 0.00796216261 -0.0219177306 -0.00132825365
  vertex 0.00814434048 -0.0219177306 -0.00591606926
  vertex 0.00796216261 -0.0232960768 -0.0010011663
  endloop
 endfacet

 facet normal -0.999085784 -0.0130805066 -0.0407009199
  outer loop
  vertex 0.00796216261 -0.0232960768 -0.0010011663
  vertex 0.00814434048 -0.0219177306 -0.00591606926
  vertex 0.00796216261 -0.0262689777 -4.57316928e-05
  endloop
 endfacet

 facet normal -0.998939037 -0.0162889175 -0.0430745259
  outer loop
  vertex 0.00796216261 -0.0262689777 -4.57316928e-05
  vertex 0.00814434048 -0.0219177306 -0.00591606926
  vertex 0.00796216261 -0.027156692 0.000289962773
  endloop
 endfacet

 facet normal -0.998470068 -0.0241838954 -0.0497254841
  outer loop
  vertex 0.00796216261 -0.027156692 0.000289962773
  vertex 0.00814434048 -0.0219177306 -0.00591606926
  vertex 0.0081738485 -0.0231359974 -0.00591606926
  endloop
 endfacet

 facet normal -0.997526407 -0.0383799784 -0.058890488
  outer loop
  vertex 0.00796216261 -0.027156692 0.000289962773
  vertex 0.0081738485 -0.0231359974 -0.00591606926
  vertex 0.00796216261 -0.0276057459 0.000582619512
  endloop
 endfacet

 facet normal 0.0067219669 -0.976014733 0.217601165
  outer loop
  vertex 0.00796216261 -0.0277034566 0.00413322728
  vertex 0.00856578723 -0.0276244562 0.00446892064
  vertex 0.00796216261 -0.0276286136 0.00446892064
  endloop
 endfacet

 facet normal 0.00672169914 -0.975975871 0.217775255
  outer loop
  vertex 0.00796216261 -0.0276286136 0.00446892064
  vertex 0.00856578723 -0.0276244562 0.00446892064
  vertex 0.00987503119 -0.0265475586 0.00925470982
  endloop
 endfacet

 facet normal 0.00497085741 -0.975836933 0.218443677
  outer loop
  vertex 0.00796216261 -0.0276286136 0.00446892064
  vertex 0.00987503119 -0.0265475586 0.00925470982
  vertex 0.00796216261 -0.0274706148 0.00517473929
  endloop
 endfacet

 facet normal 0.00125450105 -0.97547555 0.220104307
  outer loop
  vertex 0.00796216261 -0.0274706148 0.00517473929
  vertex 0.00987503119 -0.0265475586 0.00925470982
  vertex 0.00796216261 -0.0271754023 0.00648308452
  endloop
 endfacet

 facet normal 0.000686401036 -0.975391865 0.220477432
  outer loop
  vertex 0.00796216261 -0.0271754023 0.00648308452
  vertex 0.00987503119 -0.0265475586 0.00925470982
  vertex 0.0111842761 -0.0251525808 0.0154220089
  endloop
 endfacet

 facet normal 0.000150882144 -0.975350559 0.220661134
  outer loop
  vertex 0.00796216261 -0.0271754023 0.00648308452
  vertex 0.0111842761 -0.0251525808 0.0154220089
  vertex 0.00796152093 -0.0250527915 0.0158652961
  endloop
 endfacet

 facet normal 0.000176937188 -0.975309789 0.220841378
  outer loop
  vertex 0.00796152093 -0.0250527915 0.0158652961
  vertex 0.0111842761 -0.0251525808 0.0154220089
  vertex 0.0111829937 -0.0243729725 0.0188650228
  endloop
 endfacet

 facet normal 0 -0.975268781 0.221022099
  outer loop
  vertex 0.00796152093 -0.0250527915 0.0158652961
  vertex 0.0111829937 -0.0243729725 0.0188650228
  vertex 0.00796216261 -0.0243729725 0.0188650228
  endloop
 endfacet

 facet normal -0.999498785 -0.0308306795 0.00720091583
  outer loop
  vertex 0.00796152093 -0.0250527915 0.0158652961
  vertex 0.00796216261 -0.0243729725 0.0188650228
  vertex 0.00796152093 -0.024961317 0.0162569396
  endloop
 endfacet

 facet normal -1 0.000193584521 -7.73891079e-05
  outer loop
  vertex 0.00796152093 -0.0208616219 0.00668536127
  vertex 0.00796216261 -0.0200030152 0.000539581815
  vertex 0.00796216261 -0.0205518585 -0.000833319093
  endloop
 endfacet

 facet normal -1 4.08206215e-05 2.34955814e-06
  outer loop
  vertex 0.00796152093 -0.0208616219 0.00668536127
  vertex 0.00796152093 -0.021412544 0.0162569396
  vertex 0.00796216261 -0.00690145139 0.0373152755
  endloop
 endfacet

 facet normal -1 4.59757721e-05 0
  outer loop
  vertex 0.00796152093 -0.0208616219 0.00668536127
  vertex 0.00796216261 -0.00690145139 0.0373152755
  vertex 0.00796216261 -0.00690145139 0.0335623883
  endloop
 endfacet

 facet normal -1 0.00019467657 -7.72365456e-05
  outer loop
  vertex 0.00796152093 -0.0208616219 0.00668536127
  vertex 0.00796216261 -0.00690145139 0.0335623883
  vertex 0.00796216261 -0.0200030152 0.000539581815
  endloop
 endfacet

 facet normal 0 0 -1
  outer loop
  vertex 0.0081738485 -0.0231359974 -0.00591606926
  vertex 0.00814434048 -0.0219177306 -0.00591606926
  vertex 0.00814434048 -0.0113545693 -0.00591606926
  endloop
 endfacet

 facet normal 0 0 -1
  outer loop
  vertex 0.0081738485 -0.0231359974 -0.00591606926
  vertex 0.00814434048 -0.0113545693 -0.00591606926
  vertex 0.00819116831 -0.00690145139 -0.00591606926
  endloop
 endfacet

 facet normal 0 0 -1
  outer loop
  vertex 0.0081738485 -0.0231359974 -0.00591606926
  vertex 0.00819116831 -0.00690145139 -0.00591606926
  vertex 0.0114998799 -0.00690145139 -0.00591606926
  endloop
 endfacet

 facet normal 0 0 -1
  outer loop
  vertex 0.0081738485 -0.0231359974 -0.00591606926
  vertex 0.0114998799 -0.00690145139 -0.00591606926
  vertex 0.011567235 -0.0101383813 -0.00591606926
  endloop
 endfacet

 facet normal 0 0 -1
  outer loop
  vertex 0.0081738485 -0.0231359974 -0.00591606926
  vertex 0.011567235 -0.0101383813 -0.00591606926
  vertex 0.0115832714 -0.0114481226 -0.00591606926
  endloop
 endfacet

 facet normal 0 0 -1
  outer loop
  vertex 0.0081738485 -0.0231359974 -0.00591606926
  vertex 0.0115832714 -0.0114481226 -0.00591606926
  vertex 0.0115832714 -0.0219177306 -0.00591606926
  endloop
 endfacet

 facet normal 0 0 -1
  outer loop
  vertex 0.0081738485 -0.0231359974 -0.00591606926
  vertex 0.0115832714 -0.0219177306 -0.00591606926
  vertex 0.0115467077 -0.02322747 -0.00591606926
  endloop
 endfacet

 facet normal 0 0 -1
  outer loop
  vertex 0.0081738485 -0.0231359974 -0.00591606926
  vertex 0.0115467077 -0.02322747 -0.00591606926
  vertex 0.0110200597 -0.024356341 -0.00591606926
  endloop
 endfacet

 facet normal 0 0 -1
  outer loop
  vertex 0.0081738485 -0.0231359974 -0.00591606926
  vertex 0.0110200597 -0.024356341 -0.00591606926
  vertex 0.00995008368 -0.0248095542 -0.00591606926
  endloop
 endfacet

 facet normal 0 0 -1
  outer loop
  vertex 0.0081738485 -0.0231359974 -0.00591606926
  vertex 0.00995008368 -0.0248095542 -0.00591606926
  vertex 0.00987439044 -0.0248345006 -0.00591606926
  endloop
 endfacet

 facet normal 0 0 -1
  outer loop
  vertex 0.0081738485 -0.0231359974 -0.00591606926
  vertex 0.00987439044 -0.0248345006 -0.00591606926
  vertex 0.008718458 -0.024356341 -0.00591606926
  endloop
 endfacet

 facet normal 0 0 -1
  outer loop
  vertex 0.0081738485 -0.0231359974 -0.00591606926
  vertex 0.008718458 -0.024356341 -0.00591606926
  vertex 0.00868061092 -0.0242898166 -0.00591606926
  endloop
 endfacet

 facet normal 0 0 -1
  outer loop
  vertex 0.0081738485 -0.0231359974 -0.00591606926
  vertex 0.00868061092 -0.0242898166 -0.00591606926
  vertex 0.00818154495 -0.02322747 -0.00591606926
  endloop
 endfacet

 facet normal 0.824842095 -0.558904171 -0.0852158517
  outer loop
  vertex 0.0106640421 -0.0266639814 0.0057729627
  vertex 0.0110200597 -0.024356341 -0.00591606926
  vertex 0.0120348679 -0.0254394747 0.0110106478
  endloop
 endfacet

 facet normal 0.811098218 -0.579856575 -0.0767203346
  outer loop
  vertex 0.0106640421 -0.0266639814 0.0057729627
  vertex 0.0120348679 -0.0254394747 0.0110106478
  vertex 0.0134005612 -0.0242232885 0.0162569396
  endloop
 endfacet

 facet normal 0.7796368 -0.623507857 -0.0583462045
  outer loop
  vertex 0.0106640421 -0.0266639814 0.0057729627
  vertex 0.0134005612 -0.0242232885 0.0162569396
  vertex 0.01350448 -0.0242149737 0.0175566785
  endloop
 endfacet

 facet normal 0.750407636 -0.65952158 -0.0438158549
  outer loop
  vertex 0.0106640421 -0.0266639814 0.0057729627
  vertex 0.01350448 -0.0242149737 0.0175566785
  vertex 0.0121169761 -0.0254457146 0.012318993
  endloop
 endfacet

 facet normal 0.745583653 -0.665105641 -0.0417058989
  outer loop
  vertex 0.0106640421 -0.0266639814 0.0057729627
  vertex 0.0121169761 -0.0254457146 0.012318993
  vertex 0.0107076615 -0.0266722944 0.00668536127
  endloop
 endfacet

 facet normal 0.742722511 -0.668387115 -0.040275719
  outer loop
  vertex 0.0107076615 -0.0266722944 0.00668536127
  vertex 0.0121169761 -0.0254457146 0.012318993
  vertex 0.010725623 -0.0266764536 0.00708561158
  endloop
 endfacet

 facet normal 0.546497881 -0.835888803 0.0512843877
  outer loop
  vertex 0.010725623 -0.0266764536 0.00708561158
  vertex 0.0121169761 -0.0254457146 0.012318993
  vertex 0.0135314213 -0.0241193399 0.0188650228
  endloop
 endfacet

 facet normal 0.813610017 -0.580842614 0.0257025715
  outer loop
  vertex 0.0135314213 -0.0241193399 0.0188650228
  vertex 0.01350448 -0.0242149737 0.0175566785
  vertex 0.0141998352 -0.0231817327 0.0188951492
  endloop
 endfacet

 facet normal 0.813335061 -0.580873072 0.0327504948
  outer loop
  vertex 0.0135314213 -0.0241193399 0.0188650228
  vertex 0.0141998352 -0.0231817327 0.0188951492
  vertex 0.0144949127 -0.0227139704 0.0198634975
  endloop
 endfacet

 facet normal 0.738399386 -0.64532125 0.195772693
  outer loop
  vertex 0.0135314213 -0.0241193399 0.0188650228
  vertex 0.0144949127 -0.0227139704 0.0198634975
  vertex 0.013396712 -0.0239966828 0.0197774228
  endloop
 endfacet

 facet normal 0.251755446 -0.953559101 0.165360957
  outer loop
  vertex 0.0135314213 -0.0241193399 0.0188650228
  vertex 0.013396712 -0.0239966828 0.0197774228
  vertex 0.0119912466 -0.0252648443 0.0146042937
  endloop
 endfacet

 facet normal 0.551673651 -0.832590103 0.0494976416
  outer loop
  vertex 0.0135314213 -0.0241193399 0.0188650228
  vertex 0.0121169761 -0.0254457146 0.012318993
  vertex 0.01350448 -0.0242149737 0.0175566785
  endloop
 endfacet

 facet normal 0.901986837 -0.420800984 -0.0966756716
  outer loop
  vertex 0.0110200597 -0.024356341 -0.00591606926
  vertex 0.0115467077 -0.02322747 -0.00591606926
  vertex 0.0144949127 -0.0227139704 0.0193556529
  endloop
 endfacet

 facet normal 0.886680067 -0.453041852 -0.0924757123
  outer loop
  vertex 0.0110200597 -0.024356341 -0.00591606926
  vertex 0.0144949127 -0.0227139704 0.0193556529
  vertex 0.0134005612 -0.0242232885 0.0162569396
  endloop
 endfacet

 facet normal 0.824937463 -0.558763862 -0.0852126032
  outer loop
  vertex 0.0110200597 -0.024356341 -0.00591606926
  vertex 0.0134005612 -0.0242232885 0.0162569396
  vertex 0.0120348679 -0.0254394747 0.0110106478
  endloop
 endfacet

 facet normal 0.212277099 -0.960883141 0.17788212
  outer loop
  vertex 0.0119912466 -0.0252648443 0.0146042937
  vertex 0.013396712 -0.0239966828 0.0197774228
  vertex 0.0124909543 -0.0246078949 0.0175566785
  endloop
 endfacet

 facet normal 0.207973689 -0.961656749 0.178782627
  outer loop
  vertex 0.0119912466 -0.0252648443 0.0146042937
  vertex 0.0124909543 -0.0246078949 0.0175566785
  vertex 0.0124909543 -0.0243646577 0.0188650228
  endloop
 endfacet

 facet normal 0.098540388 -0.952992201 0.286523521
  outer loop
  vertex 0.0124909543 -0.0243646577 0.0188650228
  vertex 0.013396712 -0.0239966828 0.0197774228
  vertex 0.0124909543 -0.0240528155 0.0199022312
  endloop
 endfacet

 facet normal 0.00608755182 -0.957635283 0.287919462
  outer loop
  vertex 0.0124909543 -0.0243646577 0.0188650228
  vertex 0.0124909543 -0.0240528155 0.0199022312
  vertex 0.0111829937 -0.0243729725 0.0188650228
  endloop
 endfacet

 facet normal 0.00619978365 -0.975290537 0.220839247
  outer loop
  vertex 0.0124909543 -0.0243646577 0.0188650228
  vertex 0.0111829937 -0.0243729725 0.0188650228
  vertex 0.0111842761 -0.0251525808 0.0154220089
  endloop
 endfacet

 facet normal 0.00825142302 -0.975443363 0.220095575
  outer loop
  vertex 0.0124909543 -0.0243646577 0.0188650228
  vertex 0.0111842761 -0.0251525808 0.0154220089
  vertex 0.0111842761 -0.0253001861 0.0147678368
  endloop
 endfacet

 facet normal 0.024927225 -0.976301789 0.21497333
  outer loop
  vertex 0.0124909543 -0.0243646577 0.0188650228
  vertex 0.0111842761 -0.0253001861 0.0147678368
  vertex 0.00987503119 -0.0265475586 0.00925470982
  endloop
 endfacet

 facet normal 0.210475966 -0.961130381 0.178684771
  outer loop
  vertex 0.0124909543 -0.0243646577 0.0188650228
  vertex 0.0124909543 -0.0246078949 0.0175566785
  vertex 0.013396712 -0.0239966828 0.0197774228
  endloop
 endfacet

 facet normal 0.00254004123 -0.975473523 0.2201024
  outer loop
  vertex 0.00987503119 -0.0265475586 0.00925470982
  vertex 0.0111842761 -0.0253001861 0.0147678368
  vertex 0.0111842761 -0.0251525808 0.0154220089
  endloop
 endfacet

 facet normal -0.999988735 0.00441615563 -0.00176544278
  outer loop
  vertex 0.00796216261 -0.0205518585 -0.000833319093
  vertex 0.00796216261 -0.0200030152 0.000539581815
  vertex 0.00802695099 -0.00690145139 -0.00338545418
  endloop
 endfacet

 facet normal -0.999988735 0.00441973424 -0.0017534981
  outer loop
  vertex 0.00802695099 -0.00690145139 -0.00338545418
  vertex 0.00796216261 -0.0200030152 0.000539581815
  vertex 0.00796216261 -0.00690145139 0.0335623883
  endloop
 endfacet

 facet normal 0 1 0
  outer loop
  vertex 0.00802695099 -0.00690145139 -0.00338545418
  vertex 0.00796216261 -0.00690145139 0.0335623883
  vertex 0.00796216261 -0.00690145139 0.0373152755
  endloop
 endfacet

 facet normal 0 1 0
  outer loop
  vertex 0.00802695099 -0.00690145139 -0.00338545418
  vertex 0.00796216261 -0.00690145139 0.0373152755
  vertex 0.0104914866 -0.00690145139 0.0373152755
  endloop
 endfacet

 facet normal 0 1 0
  outer loop
  vertex 0.00802695099 -0.00690145139 -0.00338545418
  vertex 0.0104914866 -0.00690145139 0.0373152755
  vertex 0.0111829937 -0.00690145139 0.0373066664
  endloop
 endfacet

 facet normal 0 1 0
  outer loop
  vertex 0.00802695099 -0.00690145139 -0.00338545418
  vertex 0.0111829937 -0.00690145139 0.0373066664
  vertex 0.0116474181 -0.00690145139 0.037160337
  endloop
 endfacet

 facet normal 0 1 0
  outer loop
  vertex 0.00802695099 -0.00690145139 -0.00338545418
  vertex 0.0116474181 -0.00690145139 0.037160337
  vertex 0.0121958777 -0.00690145139 0.0369193293
  endloop
 endfacet

 facet normal 0 1 0
  outer loop
  vertex 0.00802695099 -0.00690145139 -0.00338545418
  vertex 0.0121958777 -0.00690145139 0.0369193293
  vertex 0.0124005061 -0.00690145139 0.0364631265
  endloop
 endfacet

 facet normal 0 1 0
  outer loop
  vertex 0.00802695099 -0.00690145139 -0.00338545418
  vertex 0.0124005061 -0.00690145139 0.0364631265
  vertex 0.0126365684 -0.00690145139 0.0358821191
  endloop
 endfacet

 facet normal 0 1 0
  outer loop
  vertex 0.00802695099 -0.00690145139 -0.00338545418
  vertex 0.0126365684 -0.00690145139 0.0358821191
  vertex 0.0127141858 -0.00690145139 0.0352666825
  endloop
 endfacet

 facet normal 0 1 0
  outer loop
  vertex 0.00802695099 -0.00690145139 -0.00338545418
  vertex 0.0127141858 -0.00690145139 0.0352666825
  vertex 0.0129098352 -0.00690145139 0.0332654305
  endloop
 endfacet

 facet normal 0 1 0
  outer loop
  vertex 0.00802695099 -0.00690145139 -0.00338545418
  vertex 0.0129098352 -0.00690145139 0.0332654305
  vertex 0.0144172944 -0.00690145139 0.0178192072
  endloop
 endfacet

 facet normal 0 1 0
  outer loop
  vertex 0.00802695099 -0.00690145139 -0.00338545418
  vertex 0.0144172944 -0.00690145139 0.0178192072
  vertex 0.0144801587 -0.00690145139 0.0171607304
  endloop
 endfacet

 facet normal 0 1 0
  outer loop
  vertex 0.00802695099 -0.00690145139 -0.00338545418
  vertex 0.0144801587 -0.00690145139 0.0171607304
  vertex 0.0144961951 -0.00690145139 0.0167690888
  endloop
 endfacet

 facet normal 0 1 0
  outer loop
  vertex 0.00802695099 -0.00690145139 -0.00338545418
  vertex 0.0144961951 -0.00690145139 0.0167690888
  vertex 0.0144961951 -0.00690145139 0.0162225105
  endloop
 endfacet

 facet normal 0 1 0
  outer loop
  vertex 0.00802695099 -0.00690145139 -0.00338545418
  vertex 0.0144961951 -0.00690145139 0.0162225105
  vertex 0.014487857 -0.00690145139 0.0158609934
  endloop
 endfacet

 facet normal 0 1 0
  outer loop
  vertex 0.00802695099 -0.00690145139 -0.00338545418
  vertex 0.014487857 -0.00690145139 0.0158609934
  vertex 0.0144692538 -0.00690145139 0.0155339073
  endloop
 endfacet

 facet normal 0 1 0
  outer loop
  vertex 0.00802695099 -0.00690145139 -0.00338545418
  vertex 0.0144692538 -0.00690145139 0.0155339073
  vertex 0.0114998799 -0.00690145139 -0.00591606926
  endloop
 endfacet

 facet normal 0 1 0
  outer loop
  vertex 0.00802695099 -0.00690145139 -0.00338545418
  vertex 0.0114998799 -0.00690145139 -0.00591606926
  vertex 0.00819116831 -0.00690145139 -0.00591606926
  endloop
 endfacet

 facet normal 0 1 0
  outer loop
  vertex 0.00802695099 -0.00690145139 -0.00338545418
  vertex 0.00819116831 -0.00690145139 -0.00591606926
  vertex 0.00806992967 -0.00690145139 -0.00469810283
  endloop
 endfacet

 facet normal 0 1 0
  outer loop
  vertex 0.00802695099 -0.00690145139 -0.00338545418
  vertex 0.00806992967 -0.00690145139 -0.00469810283
  vertex 0.00803272426 -0.00690145139 -0.00365659106
  endloop
 endfacet

 facet normal -0.995027781 0.0104633188 -0.0990468115
  outer loop
  vertex 0.00806992967 -0.00690145139 -0.00469810283
  vertex 0.00819116831 -0.00690145139 -0.00591606926
  vertex 0.00814434048 -0.0113545693 -0.00591606926
  endloop
 endfacet

 facet normal -0.998138905 0 -0.0609809868
  outer loop
  vertex 0.00806992967 -0.00690145139 -0.00469810283
  vertex 0.00814434048 -0.0113545693 -0.00591606926
  vertex 0.00814434048 -0.0219177306 -0.00591606926
  endloop
 endfacet

 facet normal -0.999995172 -0.00296182442 0.000914235134
  outer loop
  vertex 0.00796152093 -0.024961317 0.0162569396
  vertex 0.00796216261 -0.0243729725 0.0188650228
  vertex 0.00796216261 -0.0240528155 0.0199022312
  endloop
 endfacet

 facet normal -0.999999642 -0.000773888838 0.000368944427
  outer loop
  vertex 0.00796152093 -0.024961317 0.0162569396
  vertex 0.00796216261 -0.0240528155 0.0199022312
  vertex 0.00796216261 -0.0237388927 0.0205607079
  endloop
 endfacet

 facet normal -0.999999881 -0.000415944814 0.000267275376
  outer loop
  vertex 0.00796152093 -0.024961317 0.0162569396
  vertex 0.00796216261 -0.0237388927 0.0205607079
  vertex 0.00796216261 -0.0231443122 0.0214860179
  endloop
 endfacet

 facet normal -0.99999994 -0.000360155915 0.00024788981
  outer loop
  vertex 0.00796152093 -0.024961317 0.0162569396
  vertex 0.00796216261 -0.0231443122 0.0214860179
  vertex 0.00796216261 -0.0141362082 0.0345737748
  endloop
 endfacet

 facet normal -0.99999994 -0.000358892023 0.00024714286
  outer loop
  vertex 0.00796152093 -0.024961317 0.0162569396
  vertex 0.00796216261 -0.0141362082 0.0345737748
  vertex 0.00796216261 -0.0124439411 0.0370312259
  endloop
 endfacet

 facet normal -1 -0.000115183517 0.000100298283
  outer loop
  vertex 0.00796152093 -0.024961317 0.0162569396
  vertex 0.00796216261 -0.0124439411 0.0370312259
  vertex 0.00796216261 -0.0118743079 0.037685398
  endloop
 endfacet

 facet normal -1 -2.24703163e-05 4.36755181e-05
  outer loop
  vertex 0.00796152093 -0.024961317 0.0162569396
  vertex 0.00796216261 -0.0118743079 0.037685398
  vertex 0.00796216261 -0.0115229646 0.0378661565
  endloop
 endfacet

 facet normal -1 -2.22120343e-05 4.35148941e-05
  outer loop
  vertex 0.00796152093 -0.024961317 0.0162569396
  vertex 0.00796216261 -0.0115229646 0.0378661565
  vertex 0.00796216261 -0.0112194372 0.0380210914
  endloop
 endfacet

 facet normal -1 -8.38197479e-07 3.0019457e-05
  outer loop
  vertex 0.00796152093 -0.024961317 0.0162569396
  vertex 0.00796216261 -0.0112194372 0.0380210914
  vertex 0.00796216261 -0.0101404609 0.0380512178
  endloop
 endfacet

 facet normal -1 0 2.94494566e-05
  outer loop
  vertex 0.00796152093 -0.024961317 0.0162569396
  vertex 0.00796216261 -0.0101404609 0.0380512178
  vertex 0.00796152093 -0.021412544 0.0162569396
  endloop
 endfacet

 facet normal 0 -0.955515265 0.294941723
  outer loop
  vertex 0.0111829937 -0.0243729725 0.0188650228
  vertex 0.0124909543 -0.0240528155 0.0199022312
  vertex 0.00796216261 -0.0240528155 0.0199022312
  endloop
 endfacet

 facet normal 0 -0.955515265 0.294941723
  outer loop
  vertex 0.0111829937 -0.0243729725 0.0188650228
  vertex 0.00796216261 -0.0240528155 0.0199022312
  vertex 0.00796216261 -0.0243729725 0.0188650228
  endloop
 endfacet

 facet normal -1 5.98765291e-06 2.63526199e-05
  outer loop
  vertex 0.00796152093 -0.021412544 0.0162569396
  vertex 0.00796216261 -0.0101404609 0.0380512178
  vertex 0.00796216261 -0.00690145139 0.0373152755
  endloop
 endfacet

 facet normal 0 0.221565545 0.975145459
  outer loop
  vertex 0.00796216261 -0.00690145139 0.0373152755
  vertex 0.00796216261 -0.0101404609 0.0380512178
  vertex 0.00987439044 -0.0101404609 0.0380512178
  endloop
 endfacet

 facet normal 0 0.221565545 0.975145459
  outer loop
  vertex 0.00796216261 -0.00690145139 0.0373152755
  vertex 0.00987439044 -0.0101404609 0.0380512178
  vertex 0.0104914866 -0.00690145139 0.0373152755
  endloop
 endfacet

 facet normal 0.875805378 -0.476444572 -0.077236183
  outer loop
  vertex 0.0134005612 -0.0242232885 0.0162569396
  vertex 0.0144949127 -0.0227139704 0.0193556529
  vertex 0.0141998352 -0.0231817327 0.0188951492
  endloop
 endfacet

 facet normal 0.865325868 -0.496844143 -0.0660076365
  outer loop
  vertex 0.0134005612 -0.0242232885 0.0162569396
  vertex 0.0141998352 -0.0231817327 0.0188951492
  vertex 0.01350448 -0.0242149737 0.0175566785
  endloop
 endfacet

 facet normal 0.845775783 -0.53353852 0
  outer loop
  vertex 0.0141998352 -0.0231817327 0.0188951492
  vertex 0.0144949127 -0.0227139704 0.0193556529
  vertex 0.0144949127 -0.0227139704 0.0198634975
  endloop
 endfacet

 facet normal 0.992417812 -0.0508171692 0.11191269
  outer loop
  vertex 0.0144949127 -0.0227139704 0.0198634975
  vertex 0.0145128742 -0.0219177306 0.0200657751
  vertex 0.0144391051 -0.0219177306 0.0207199454
  endloop
 endfacet

 facet normal 0.959422231 -0.172595322 0.222979665
  outer loop
  vertex 0.0144949127 -0.0227139704 0.0198634975
  vertex 0.0144391051 -0.0219177306 0.0207199454
  vertex 0.0131882336 -0.0149095794 0.0315267071
  endloop
 endfacet

 facet normal 0.954919219 -0.185950935 0.231412038
  outer loop
  vertex 0.0144949127 -0.0227139704 0.0198634975
  vertex 0.0131882336 -0.0149095794 0.0315267071
  vertex 0.0132369855 -0.0162338726 0.0302613992
  endloop
 endfacet

 facet normal 0.894776225 -0.322250575 0.309079587
  outer loop
  vertex 0.0144949127 -0.0227139704 0.0198634975
  vertex 0.0132369855 -0.0162338726 0.0302613992
  vertex 0.0132530229 -0.0174978748 0.0288971048
  endloop
 endfacet

 facet normal 0.815308928 -0.445806324 0.36949715
  outer loop
  vertex 0.0144949127 -0.0227139704 0.0198634975
  vertex 0.0132530229 -0.0174978748 0.0288971048
  vertex 0.01322095 -0.018726537 0.0274854675
  endloop
 endfacet

 facet normal 0.75997299 -0.515031755 0.396463424
  outer loop
  vertex 0.0144949127 -0.0227139704 0.0198634975
  vertex 0.01322095 -0.018726537 0.0274854675
  vertex 0.0134012019 -0.0202462506 0.0251657385
  endloop
 endfacet

 facet normal 0.756530285 -0.519152761 0.397671223
  outer loop
  vertex 0.0144949127 -0.0227139704 0.0198634975
  vertex 0.0134012019 -0.0202462506 0.0251657385
  vertex 0.0133588659 -0.0214354116 0.0236938503
  endloop
 endfacet

 facet normal 0.754637659 -0.521683872 0.397954792
  outer loop
  vertex 0.0144949127 -0.0227139704 0.0198634975
  vertex 0.0133588659 -0.0214354116 0.0236938503
  vertex 0.0139175886 -0.0232503377 0.020255141
  endloop
 endfacet

 facet normal 0.736936986 -0.644590199 0.203537509
  outer loop
  vertex 0.0144949127 -0.0227139704 0.0198634975
  vertex 0.0139175886 -0.0232503377 0.020255141
  vertex 0.013396712 -0.0239966828 0.0197774228
  endloop
 endfacet

 facet normal 0.999745607 -0.0225521438 0
  outer loop
  vertex 0.0144949127 -0.0227139704 0.0198634975
  vertex 0.0144949127 -0.0227139704 0.0193556529
  vertex 0.0145128742 -0.0219177306 0.0192437544
  endloop
 endfacet

 facet normal 0.999745607 -0.0225521438 0
  outer loop
  vertex 0.0144949127 -0.0227139704 0.0198634975
  vertex 0.0145128742 -0.0219177306 0.0192437544
  vertex 0.0145128742 -0.0219177306 0.0200657751
  endloop
 endfacet

 facet normal 0.600329459 -0.684114873 0.414236128
  outer loop
  vertex 0.013396712 -0.0239966828 0.0197774228
  vertex 0.0139175886 -0.0232503377 0.020255141
  vertex 0.0135160265 -0.0228574164 0.0214860179
  endloop
 endfacet

 facet normal 0.488167256 -0.741483212 0.46032095
  outer loop
  vertex 0.013396712 -0.0239966828 0.0197774228
  vertex 0.0135160265 -0.0228574164 0.0214860179
  vertex 0.013219025 -0.0226121005 0.0221961383
  endloop
 endfacet

 facet normal 0.190088689 -0.845953166 0.498226404
  outer loop
  vertex 0.013396712 -0.0239966828 0.0197774228
  vertex 0.013219025 -0.0226121005 0.0221961383
  vertex 0.0124909543 -0.0237388927 0.0205607079
  endloop
 endfacet

 facet normal 0.114480935 -0.896732986 0.427509248
  outer loop
  vertex 0.013396712 -0.0239966828 0.0197774228
  vertex 0.0124909543 -0.0237388927 0.0205607079
  vertex 0.0124909543 -0.0240528155 0.0199022312
  endloop
 endfacet

 facet normal 0.992907405 -0.0277188383 -0.11561387
  outer loop
  vertex 0.0115467077 -0.02322747 -0.00591606926
  vertex 0.0115832714 -0.0219177306 -0.00591606926
  vertex 0.0145128742 -0.0219177306 0.0192437544
  endloop
 endfacet

 facet normal 0.992615223 -0.0385547355 -0.11501535
  outer loop
  vertex 0.0115467077 -0.02322747 -0.00591606926
  vertex 0.0145128742 -0.0219177306 0.0192437544
  vertex 0.0144949127 -0.0227139704 0.0193556529
  endloop
 endfacet

 facet normal 0 -0.902667642 0.430338502
  outer loop
  vertex 0.0124909543 -0.0240528155 0.0199022312
  vertex 0.0124909543 -0.0237388927 0.0205607079
  vertex 0.00796216261 -0.0237388927 0.0205607079
  endloop
 endfacet

 facet normal 0 -0.902667642 0.430338502
  outer loop
  vertex 0.0124909543 -0.0240528155 0.0199022312
  vertex 0.00796216261 -0.0237388927 0.0205607079
  vertex 0.00796216261 -0.0240528155 0.0199022312
  endloop
 endfacet

 facet normal 0 -0.841286778 0.540589213
  outer loop
  vertex 0.00796216261 -0.0237388927 0.0205607079
  vertex 0.0124909543 -0.0237388927 0.0205607079
  vertex 0.0124909543 -0.0231443122 0.0214860179
  endloop
 endfacet

 facet normal 0 -0.841286778 0.540589213
  outer loop
  vertex 0.00796216261 -0.0237388927 0.0205607079
  vertex 0.0124909543 -0.0231443122 0.0214860179
  vertex 0.00796216261 -0.0231443122 0.0214860179
  endloop
 endfacet

 facet normal 0 -0.823744893 0.566960633
  outer loop
  vertex 0.00796216261 -0.0231443122 0.0214860179
  vertex 0.0124909543 -0.0231443122 0.0214860179
  vertex 0.0111829937 -0.0151050007 0.0331664421
  endloop
 endfacet

 facet normal -3.76787029e-05 -0.823740125 0.566967726
  outer loop
  vertex 0.00796216261 -0.0231443122 0.0214860179
  vertex 0.0111829937 -0.0151050007 0.0331664421
  vertex 0.00796216261 -0.0141362082 0.0345737748
  endloop
 endfacet

 facet normal 0 -0.823699772 0.567026198
  outer loop
  vertex 0.00796216261 -0.0141362082 0.0345737748
  vertex 0.0111829937 -0.0151050007 0.0331664421
  vertex 0.00987439044 -0.0141362082 0.0345737748
  endloop
 endfacet

 facet normal 0 -0.823608279 0.567159176
  outer loop
  vertex 0.00796216261 -0.0141362082 0.0345737748
  vertex 0.00987439044 -0.0141362082 0.0345737748
  vertex 0.00987439044 -0.0124439411 0.0370312259
  endloop
 endfacet

 facet normal 0 -0.823608279 0.567159176
  outer loop
  vertex 0.00796216261 -0.0141362082 0.0345737748
  vertex 0.00987439044 -0.0124439411 0.0370312259
  vertex 0.00796216261 -0.0124439411 0.0370312259
  endloop
 endfacet

 facet normal 0 -0.754155636 0.656695724
  outer loop
  vertex 0.00796216261 -0.0124439411 0.0370312259
  vertex 0.00987439044 -0.0124439411 0.0370312259
  vertex 0.00987439044 -0.0118743079 0.037685398
  endloop
 endfacet

 facet normal 0 -0.754155636 0.656695724
  outer loop
  vertex 0.00796216261 -0.0124439411 0.0370312259
  vertex 0.00987439044 -0.0118743079 0.037685398
  vertex 0.00796216261 -0.0118743079 0.037685398
  endloop
 endfacet

 facet normal 0 -0.457486868 0.889216423
  outer loop
  vertex 0.00796216261 -0.0118743079 0.037685398
  vertex 0.00987439044 -0.0118743079 0.037685398
  vertex 0.00796216261 -0.0115229646 0.0378661565
  endloop
 endfacet

 facet normal 0.000305893132 -0.456169933 0.889892697
  outer loop
  vertex 0.00796216261 -0.0115229646 0.0378661565
  vertex 0.00987439044 -0.0118743079 0.037685398
  vertex 0.00987439044 -0.0112194372 0.0380210914
  endloop
 endfacet

 facet normal 0 -0.454641819 0.890674472
  outer loop
  vertex 0.00796216261 -0.0115229646 0.0378661565
  vertex 0.00987439044 -0.0112194372 0.0380210914
  vertex 0.00796216261 -0.0112194372 0.0380210914
  endloop
 endfacet

 facet normal 0 -0.0279109292 0.999610424
  outer loop
  vertex 0.00796216261 -0.0112194372 0.0380210914
  vertex 0.00987439044 -0.0112194372 0.0380210914
  vertex 0.00987439044 -0.0101404609 0.0380512178
  endloop
 endfacet

 facet normal 0 -0.0279109292 0.999610424
  outer loop
  vertex 0.00796216261 -0.0112194372 0.0380210914
  vertex 0.00987439044 -0.0101404609 0.0380512178
  vertex 0.00796216261 -0.0101404609 0.0380512178
  endloop
 endfacet

 facet normal 0.000616932462 0.221453756 0.975170732
  outer loop
  vertex 0.0104914866 -0.00690145139 0.0373152755
  vertex 0.00987439044 -0.0101404609 0.0380512178
  vertex 0.0111829937 -0.00936709065 0.0378747657
  endloop
 endfacet

 facet normal 0.0121282674 0.224506676 0.974397123
  outer loop
  vertex 0.0104914866 -0.00690145139 0.0373152755
  vertex 0.0111829937 -0.00936709065 0.0378747657
  vertex 0.0111829937 -0.00690145139 0.0373066664
  endloop
 endfacet

 facet normal 1 -0.00018372589 0
  outer loop
  vertex 0.0145128742 -0.0219177306 0.0200657751
  vertex 0.0145128742 -0.0219177306 0.0192437544
  vertex 0.0145147983 -0.0114481226 0.0175566785
  endloop
 endfacet

 facet normal 0.999866426 0.00363492221 0.0159338228
  outer loop
  vertex 0.0145128742 -0.0219177306 0.0200657751
  vertex 0.0145147983 -0.0114481226 0.0175566785
  vertex 0.0145096658 -0.0153752649 0.0187746435
  endloop
 endfacet

 facet normal 0.999333858 0.00753662921 0.0357060321
  outer loop
  vertex 0.0145128742 -0.0219177306 0.0200657751
  vertex 0.0145096658 -0.0153752649 0.0187746435
  vertex 0.0145045351 -0.0206079893 0.0200227369
  endloop
 endfacet

 facet normal 0.99521035 0.00953400973 0.0972901955
  outer loop
  vertex 0.0145128742 -0.0219177306 0.0200657751
  vertex 0.0145045351 -0.0206079893 0.0200227369
  vertex 0.0143614868 -0.0206079893 0.0214860179
  endloop
 endfacet

 facet normal 0.993679762 -0.00665339734 0.112054989
  outer loop
  vertex 0.0145128742 -0.0219177306 0.0200657751
  vertex 0.0143614868 -0.0206079893 0.0214860179
  vertex 0.0144391051 -0.0219177306 0.0207199454
  endloop
 endfacet

 facet normal 0.992873788 -0.0105875628 0.118699506
  outer loop
  vertex 0.0144391051 -0.0219177306 0.0207199454
  vertex 0.0143614868 -0.0206079893 0.0214860179
  vertex 0.0139201535 -0.0179905873 0.0254110526
  endloop
 endfacet

 facet normal 0.992559671 -0.0134002883 0.121019423
  outer loop
  vertex 0.0144391051 -0.0219177306 0.0207199454
  vertex 0.0139201535 -0.0179905873 0.0254110526
  vertex 0.0134768961 -0.0153752649 0.0293360893
  endloop
 endfacet

 facet normal 0.992357731 -0.015302645 0.122441381
  outer loop
  vertex 0.0144391051 -0.0219177306 0.0207199454
  vertex 0.0134768961 -0.0153752649 0.0293360893
  vertex 0.0132023459 -0.0140676033 0.0317246802
  endloop
 endfacet

 facet normal 0.987723529 -0.0512523502 0.147564977
  outer loop
  vertex 0.0144391051 -0.0219177306 0.0207199454
  vertex 0.0132023459 -0.0140676033 0.0317246802
  vertex 0.0131882336 -0.0149095794 0.0315267071
  endloop
 endfacet

 facet normal 0.986552238 -0.0528984442 0.154649228
  outer loop
  vertex 0.0131882336 -0.0149095794 0.0315267071
  vertex 0.0132023459 -0.0140676033 0.0317246802
  vertex 0.0126910927 -0.0114481226 0.0358821191
  endloop
 endfacet

 facet normal 0.911885977 -0.264229208 0.314081311
  outer loop
  vertex 0.0131882336 -0.0149095794 0.0315267071
  vertex 0.0126910927 -0.0114481226 0.0358821191
  vertex 0.0122196116 -0.0114689115 0.0372335017
  endloop
 endfacet

 facet normal 0.909638822 -0.268973589 0.316560328
  outer loop
  vertex 0.0131882336 -0.0149095794 0.0315267071
  vertex 0.0122196116 -0.0114689115 0.0372335017
  vertex 0.0132369855 -0.0162338726 0.0302613992
  endloop
 endfacet

 facet normal 0.854714632 -0.361954063 0.372091621
  outer loop
  vertex 0.0132369855 -0.0162338726 0.0302613992
  vertex 0.0122196116 -0.0114689115 0.0372335017
  vertex 0.0120419245 -0.012308809 0.0368246436
  endloop
 endfacet

 facet normal 0.813465059 -0.421847314 0.400399089
  outer loop
  vertex 0.0132369855 -0.0162338726 0.0302613992
  vertex 0.0120419245 -0.012308809 0.0368246436
  vertex 0.0132530229 -0.0174978748 0.0288971048
  endloop
 endfacet

 facet normal 0.685115457 -0.557096004 0.469319671
  outer loop
  vertex 0.0132530229 -0.0174978748 0.0288971048
  vertex 0.0120419245 -0.012308809 0.0368246436
  vertex 0.01322095 -0.018726537 0.0274854675
  endloop
 endfacet

 facet normal 0.455166459 -0.705980301 0.542600513
  outer loop
  vertex 0.01322095 -0.018726537 0.0274854675
  vertex 0.0120419245 -0.012308809 0.0368246436
  vertex 0.0119572496 -0.0134979691 0.0353484526
  endloop
 endfacet

 facet normal 0.329066455 -0.761089444 0.55897963
  outer loop
  vertex 0.01322095 -0.018726537 0.0274854675
  vertex 0.0119572496 -0.0134979691 0.0353484526
  vertex 0.013219025 -0.0226121005 0.0221961383
  endloop
 endfacet

 facet normal 0.404600888 -0.737075388 0.541311324
  outer loop
  vertex 0.01322095 -0.018726537 0.0274854675
  vertex 0.013219025 -0.0226121005 0.0221961383
  vertex 0.0133588659 -0.0214354116 0.0236938503
  endloop
 endfacet

 facet normal 0.751446486 -0.523624122 0.401429951
  outer loop
  vertex 0.01322095 -0.018726537 0.0274854675
  vertex 0.0133588659 -0.0214354116 0.0236938503
  vertex 0.0134012019 -0.0202462506 0.0251657385
  endloop
 endfacet

 facet normal 0.575176895 -0.668480575 0.471492708
  outer loop
  vertex 0.0133588659 -0.0214354116 0.0236938503
  vertex 0.013219025 -0.0226121005 0.0221961383
  vertex 0.0135160265 -0.0228574164 0.0214860179
  endloop
 endfacet

 facet normal 0.716252029 -0.562367201 0.413190246
  outer loop
  vertex 0.0133588659 -0.0214354116 0.0236938503
  vertex 0.0135160265 -0.0228574164 0.0214860179
  vertex 0.0139175886 -0.0232503377 0.020255141
  endloop
 endfacet

 facet normal 0.101195604 -0.813147545 0.573193371
  outer loop
  vertex 0.013219025 -0.0226121005 0.0221961383
  vertex 0.0119572496 -0.0134979691 0.0353484526
  vertex 0.0111829937 -0.013545786 0.0354173109
  endloop
 endfacet

 facet normal 0.0485904738 -0.820238233 0.569954634
  outer loop
  vertex 0.013219025 -0.0226121005 0.0221961383
  vertex 0.0111829937 -0.013545786 0.0354173109
  vertex 0.0124909543 -0.0215248074 0.0238229632
  endloop
 endfacet

 facet normal 0.0469971895 -0.820639789 0.569509983
  outer loop
  vertex 0.013219025 -0.0226121005 0.0221961383
  vertex 0.0124909543 -0.0215248074 0.0238229632
  vertex 0.0124909543 -0.0226328894 0.0222262647
  endloop
 endfacet

 facet normal 0.046960067 -0.821833551 0.567788959
  outer loop
  vertex 0.013219025 -0.0226121005 0.0221961383
  vertex 0.0124909543 -0.0226328894 0.0222262647
  vertex 0.0124909543 -0.0231443122 0.0214860179
  endloop
 endfacet

 facet normal 0.0873739421 -0.838069379 0.538521767
  outer loop
  vertex 0.013219025 -0.0226121005 0.0221961383
  vertex 0.0124909543 -0.0231443122 0.0214860179
  vertex 0.0124909543 -0.0237388927 0.0205607079
  endloop
 endfacet

 facet normal 0.991069913 0 -0.13334325
  outer loop
  vertex 0.0115832714 -0.0219177306 -0.00591606926
  vertex 0.0115832714 -0.0114481226 -0.00591606926
  vertex 0.0144692538 -0.00690145139 0.0155339073
  endloop
 endfacet

 facet normal 0.992814481 -0.0230870061 -0.117415689
  outer loop
  vertex 0.0115832714 -0.0219177306 -0.00591606926
  vertex 0.0144692538 -0.00690145139 0.0155339073
  vertex 0.0145019693 -0.0114481226 0.0167045314
  endloop
 endfacet

 facet normal 0.992914319 -0.0265379176 -0.11583136
  outer loop
  vertex 0.0115832714 -0.0219177306 -0.00591606926
  vertex 0.0145019693 -0.0114481226 0.0167045314
  vertex 0.0145096658 -0.0166829266 0.0179698393
  endloop
 endfacet

 facet normal 0.99291271 -0.027526645 -0.115614496
  outer loop
  vertex 0.0115832714 -0.0219177306 -0.00591606926
  vertex 0.0145096658 -0.0166829266 0.0179698393
  vertex 0.0145128742 -0.0219177306 0.0192437544
  endloop
 endfacet

 facet normal 0.999398351 -0.00762156211 -0.0338363312
  outer loop
  vertex 0.0145128742 -0.0219177306 0.0192437544
  vertex 0.0145096658 -0.0166829266 0.0179698393
  vertex 0.0145135149 -0.0101404609 0.0166098494
  endloop
 endfacet

 facet normal 0.999997735 -0.000517320004 -0.00207021111
  outer loop
  vertex 0.0145128742 -0.0219177306 0.0192437544
  vertex 0.0145135149 -0.0101404609 0.0166098494
  vertex 0.0145147983 -0.0114481226 0.0175566785
  endloop
 endfacet

 facet normal 0.990343451 0.0206073727 -0.13709572
  outer loop
  vertex 0.0114998799 -0.00690145139 -0.00591606926
  vertex 0.0144692538 -0.00690145139 0.0155339073
  vertex 0.011567235 -0.0101383813 -0.00591606926
  endloop
 endfacet

 facet normal 0.0196794923 -0.822581947 0.568305969
  outer loop
  vertex 0.0124909543 -0.0231443122 0.0214860179
  vertex 0.0124909543 -0.0226328894 0.0222262647
  vertex 0.0111829937 -0.014653868 0.0338206142
  endloop
 endfacet

 facet normal 0.00993691292 -0.823184192 0.567687452
  outer loop
  vertex 0.0124909543 -0.0231443122 0.0214860179
  vertex 0.0111829937 -0.014653868 0.0338206142
  vertex 0.0111829937 -0.0151050007 0.0331664421
  endloop
 endfacet

 facet normal 0.00263340492 -0.823222041 0.567713499
  outer loop
  vertex 0.0111829937 -0.0151050007 0.0331664421
  vertex 0.0111829937 -0.014653868 0.0338206142
  vertex 0.00987439044 -0.0124439411 0.0370312259
  endloop
 endfacet

 facet normal 0.000210757993 -0.823608279 0.567159116
  outer loop
  vertex 0.0111829937 -0.0151050007 0.0331664421
  vertex 0.00987439044 -0.0124439411 0.0370312259
  vertex 0.00987439044 -0.0141362082 0.0345737748
  endloop
 endfacet

 facet normal 0.011415679 -0.821493626 0.570103407
  outer loop
  vertex 0.00987439044 -0.0124439411 0.0370312259
  vertex 0.0111829937 -0.014653868 0.0338206142
  vertex 0.0111829937 -0.013545786 0.0354173109
  endloop
 endfacet

 facet normal 0.0236549526 -0.816615582 0.576696992
  outer loop
  vertex 0.00987439044 -0.0124439411 0.0370312259
  vertex 0.0111829937 -0.013545786 0.0354173109
  vertex 0.0111829937 -0.0124273086 0.0370010994
  endloop
 endfacet

 facet normal 0.0246952008 -0.753925681 0.656495452
  outer loop
  vertex 0.00987439044 -0.0124439411 0.0370312259
  vertex 0.0111829937 -0.0124273086 0.0370010994
  vertex 0.00987439044 -0.0118743079 0.037685398
  endloop
 endfacet

 facet normal 0.0283167865 -0.750299871 0.66049093
  outer loop
  vertex 0.00987439044 -0.0118743079 0.037685398
  vertex 0.0111829937 -0.0124273086 0.0370010994
  vertex 0.0111829937 -0.0118514393 0.0376552716
  endloop
 endfacet

 facet normal 0.0286083333 -0.48748225 0.872664154
  outer loop
  vertex 0.00987439044 -0.0118743079 0.037685398
  vertex 0.0111829937 -0.0118514393 0.0376552716
  vertex 0.0111829937 -0.0111965686 0.0380210914
  endloop
 endfacet

 facet normal 0.00797149725 -0.456155509 0.889864445
  outer loop
  vertex 0.00987439044 -0.0118743079 0.037685398
  vertex 0.0111829937 -0.0111965686 0.0380210914
  vertex 0.00987439044 -0.0112194372 0.0380210914
  endloop
 endfacet

 facet normal 0.0004877545 -0.0279109292 0.999610364
  outer loop
  vertex 0.00987439044 -0.0112194372 0.0380210914
  vertex 0.0111829937 -0.0111965686 0.0380210914
  vertex 0.00987439044 -0.0101404609 0.0380512178
  endloop
 endfacet

 facet normal 0.00328767905 -0.0244440343 0.999695778
  outer loop
  vertex 0.00987439044 -0.0101404609 0.0380512178
  vertex 0.0111829937 -0.0111965686 0.0380210914
  vertex 0.0111829937 -0.0101404609 0.0380469151
  endloop
 endfacet

 facet normal 0.00321009383 0.217278942 0.976104259
  outer loop
  vertex 0.00987439044 -0.0101404609 0.0380512178
  vertex 0.0111829937 -0.0101404609 0.0380469151
  vertex 0.0111829937 -0.00936709065 0.0378747657
  endloop
 endfacet

 facet normal 0.0314144418 0.224412367 0.973987818
  outer loop
  vertex 0.0111829937 -0.00690145139 0.0373066664
  vertex 0.0111829937 -0.00936709065 0.0378747657
  vertex 0.011865519 -0.00940659083 0.0378618501
  endloop
 endfacet

 facet normal 0.288369268 0.281399339 0.915236413
  outer loop
  vertex 0.0111829937 -0.00690145139 0.0373066664
  vertex 0.011865519 -0.00940659083 0.0378618501
  vertex 0.0116474181 -0.00690145139 0.037160337
  endloop
 endfacet

 facet normal 0.0310268588 0.217175469 0.975639462
  outer loop
  vertex 0.0111829937 -0.00936709065 0.0378747657
  vertex 0.0111829937 -0.0101404609 0.0380469151
  vertex 0.011865519 -0.00940659083 0.0378618501
  endloop
 endfacet

 facet normal 0.999971151 0.00506948913 0.00564574404
  outer loop
  vertex 0.0145147983 -0.0114481226 0.0175566785
  vertex 0.0145135149 -0.0101404609 0.0166098494
  vertex 0.0144961951 -0.00690145139 0.0167690888
  endloop
 endfacet

 facet normal 0.999933422 0.00581832603 0.00996959023
  outer loop
  vertex 0.0145147983 -0.0114481226 0.0175566785
  vertex 0.0144961951 -0.00690145139 0.0167690888
  vertex 0.0145013276 -0.00883072056 0.0173802227
  endloop
 endfacet

 facet normal 0.999622762 0.00693638762 0.0265778527
  outer loop
  vertex 0.0145147983 -0.0114481226 0.0175566785
  vertex 0.0145013276 -0.00883072056 0.0173802227
  vertex 0.0145096658 -0.0153752649 0.0187746435
  endloop
 endfacet

 facet normal 0.995898724 0.0200658254 0.0882215351
  outer loop
  vertex 0.0145096658 -0.0153752649 0.0187746435
  vertex 0.0145013276 -0.00883072056 0.0173802227
  vertex 0.0145045351 -0.0206079893 0.0200227369
  endloop
 endfacet

 facet normal 0.995026171 0.0214768965 0.0972721875
  outer loop
  vertex 0.0145045351 -0.0206079893 0.0200227369
  vertex 0.0143332621 -0.0193003286 0.0214860179
  vertex 0.0143614868 -0.0206079893 0.0214860179
  endloop
 endfacet

 facet normal 0.995621383 0.020723179 0.0911516175
  outer loop
  vertex 0.0145045351 -0.0206079893 0.0200227369
  vertex 0.0145013276 -0.00883072056 0.0173802227
  vertex 0.014487857 -0.00752097974 0.0172295924
  endloop
 endfacet

 facet normal 0.995124519 0.0217974819 0.0961881131
  outer loop
  vertex 0.0145045351 -0.0206079893 0.0200227369
  vertex 0.014487857 -0.00752097974 0.0172295924
  vertex 0.0144172944 -0.00690145139 0.0178192072
  endloop
 endfacet

 facet normal 0.995054007 0.0219096635 0.0968886986
  outer loop
  vertex 0.0145045351 -0.0206079893 0.0200227369
  vertex 0.0144172944 -0.00690145139 0.0178192072
  vertex 0.0143332621 -0.0193003286 0.0214860179
  endloop
 endfacet

 facet normal 0.995010734 0.0214765631 0.0974293873
  outer loop
  vertex 0.0143614868 -0.0206079893 0.0214860179
  vertex 0.0143332621 -0.0193003286 0.0214860179
  vertex 0.0128822522 -0.0114481226 0.0345737748
  endloop
 endfacet

 facet normal 0.994818687 0.0175827872 0.100132868
  outer loop
  vertex 0.0143614868 -0.0206079893 0.0214860179
  vertex 0.0128822522 -0.0114481226 0.0345737748
  vertex 0.0139201535 -0.0179905873 0.0254110526
  endloop
 endfacet

 facet normal 0.99417901 0.00715979468 0.107502744
  outer loop
  vertex 0.0139201535 -0.0179905873 0.0254110526
  vertex 0.0128822522 -0.0114481226 0.0345737748
  vertex 0.0134768961 -0.0153752649 0.0293360893
  endloop
 endfacet

 facet normal 0.992998242 -0.00692155119 0.11792668
  outer loop
  vertex 0.0134768961 -0.0153752649 0.0293360893
  vertex 0.0128822522 -0.0114481226 0.0345737748
  vertex 0.0132023459 -0.0140676033 0.0317246802
  endloop
 endfacet

 facet normal 0.992992103 -0.0069751991 0.117975317
  outer loop
  vertex 0.0132023459 -0.0140676033 0.0317246802
  vertex 0.0128822522 -0.0114481226 0.0345737748
  vertex 0.0130285081 -0.0127557842 0.0332654305
  endloop
 endfacet

 facet normal 0.987652183 -0.0452716053 0.149979025
  outer loop
  vertex 0.0132023459 -0.0140676033 0.0317246802
  vertex 0.0130285081 -0.0127557842 0.0332654305
  vertex 0.0126910927 -0.0114481226 0.0358821191
  endloop
 endfacet

 facet normal 0.98892355 -0.0339578204 0.144489035
  outer loop
  vertex 0.0126910927 -0.0114481226 0.0358821191
  vertex 0.0130285081 -0.0127557842 0.0332654305
  vertex 0.0128822522 -0.0114481226 0.0345737748
  endloop
 endfacet

 facet normal 0.989154458 -0.0262029376 0.144522756
  outer loop
  vertex 0.0126910927 -0.0114481226 0.0358821191
  vertex 0.0128822522 -0.0114481226 0.0345737748
  vertex 0.0127257332 -0.0101404609 0.0358821191
  endloop
 endfacet

 facet normal 0.96765399 -0.0256333854 0.250975311
  outer loop
  vertex 0.0126910927 -0.0114481226 0.0358821191
  vertex 0.0127257332 -0.0101404609 0.0358821191
  vertex 0.0123863947 -0.0101404609 0.0371904634
  endloop
 endfacet

 facet normal 0.939240932 -0.107356273 0.32603842
  outer loop
  vertex 0.0126910927 -0.0114481226 0.0358821191
  vertex 0.0123863947 -0.0101404609 0.0371904634
  vertex 0.0122196116 -0.0114689115 0.0372335017
  endloop
 endfacet

 facet normal 0.929424644 -0.105228007 0.353690565
  outer loop
  vertex 0.0122196116 -0.0114689115 0.0372335017
  vertex 0.0123863947 -0.0101404609 0.0371904634
  vertex 0.0119906059 -0.0110468846 0.0379608385
  endloop
 endfacet

 facet normal 0.783152223 -0.398185194 0.477620363
  outer loop
  vertex 0.0122196116 -0.0114689115 0.0372335017
  vertex 0.0119906059 -0.0110468846 0.0379608385
  vertex 0.0120419245 -0.012308809 0.0368246436
  endloop
 endfacet

 facet normal 0.350419134 -0.618778229 0.703078926
  outer loop
  vertex 0.0120419245 -0.012308809 0.0368246436
  vertex 0.0119906059 -0.0110468846 0.0379608385
  vertex 0.0111829937 -0.0118514393 0.0376552716
  endloop
 endfacet

 facet normal 0.232726306 -0.729991078 0.642613053
  outer loop
  vertex 0.0120419245 -0.012308809 0.0368246436
  vertex 0.0111829937 -0.0118514393 0.0376552716
  vertex 0.0111829937 -0.0124273086 0.0370010994
  endloop
 endfacet

 facet normal 0.229255468 -0.764393806 0.602614343
  outer loop
  vertex 0.0120419245 -0.012308809 0.0368246436
  vertex 0.0111829937 -0.0124273086 0.0370010994
  vertex 0.0119572496 -0.0134979691 0.0353484526
  endloop
 endfacet

 facet normal 0.101227187 -0.812648296 0.573895335
  outer loop
  vertex 0.0119572496 -0.0134979691 0.0353484526
  vertex 0.0111829937 -0.0124273086 0.0370010994
  vertex 0.0111829937 -0.013545786 0.0354173109
  endloop
 endfacet

 facet normal 0.0422165655 -0.820814729 0.569632232
  outer loop
  vertex 0.0111829937 -0.013545786 0.0354173109
  vertex 0.0111829937 -0.014653868 0.0338206142
  vertex 0.0124909543 -0.0226328894 0.0222262647
  endloop
 endfacet

 facet normal 0.0422080383 -0.820815444 0.569631934
  outer loop
  vertex 0.0111829937 -0.013545786 0.0354173109
  vertex 0.0124909543 -0.0226328894 0.0222262647
  vertex 0.0124909543 -0.0215248074 0.0238229632
  endloop
 endfacet

 facet normal 0.990653992 0.0121299438 -0.135858446
  outer loop
  vertex 0.0115832714 -0.0114481226 -0.00591606926
  vertex 0.011567235 -0.0101383813 -0.00591606926
  vertex 0.0144692538 -0.00690145139 0.0155339073
  endloop
 endfacet

 facet normal 0.998372912 -0.00521969935 -0.0567832813
  outer loop
  vertex 0.0144692538 -0.00690145139 0.0155339073
  vertex 0.014487857 -0.00690145139 0.0158609934
  vertex 0.0145135149 -0.0101404609 0.0166098494
  endloop
 endfacet

 facet normal 0.996159494 -0.0150404153 -0.0862564519
  outer loop
  vertex 0.0144692538 -0.00690145139 0.0155339073
  vertex 0.0145135149 -0.0101404609 0.0166098494
  vertex 0.0145019693 -0.0114481226 0.0167045314
  endloop
 endfacet

 facet normal 0.998067856 -0.0132078156 -0.0607137196
  outer loop
  vertex 0.0145019693 -0.0114481226 0.0167045314
  vertex 0.0145135149 -0.0101404609 0.0166098494
  vertex 0.0145096658 -0.0166829266 0.0179698393
  endloop
 endfacet

 facet normal 0.999730885 0.0025884097 -0.023057567
  outer loop
  vertex 0.0145135149 -0.0101404609 0.0166098494
  vertex 0.014487857 -0.00690145139 0.0158609934
  vertex 0.0144961951 -0.00690145139 0.0162225105
  endloop
 endfacet

 facet normal 0.999985695 0.00534712803 0
  outer loop
  vertex 0.0145135149 -0.0101404609 0.0166098494
  vertex 0.0144961951 -0.00690145139 0.0162225105
  vertex 0.0144961951 -0.00690145139 0.0167690888
  endloop
 endfacet

 facet normal 0.153672606 -0.481889099 0.862651527
  outer loop
  vertex 0.0111829937 -0.0118514393 0.0376552716
  vertex 0.0119906059 -0.0110468846 0.0379608385
  vertex 0.0111829937 -0.0111965686 0.0380210914
  endloop
 endfacet

 facet normal 0.0788668841 -0.0243680254 0.996587276
  outer loop
  vertex 0.0111829937 -0.0111965686 0.0380210914
  vertex 0.0119906059 -0.0110468846 0.0379608385
  vertex 0.0111829937 -0.0101404609 0.0380469151
  endloop
 endfacet

 facet normal 0.124167867 0.016418336 0.992125452
  outer loop
  vertex 0.0111829937 -0.0101404609 0.0380469151
  vertex 0.0119906059 -0.0110468846 0.0379608385
  vertex 0.0119739277 -0.0101404609 0.0379479267
  endloop
 endfacet

 facet normal 0.123072654 0.133520216 0.983374536
  outer loop
  vertex 0.0111829937 -0.0101404609 0.0380469151
  vertex 0.0119739277 -0.0101404609 0.0379479267
  vertex 0.011865519 -0.00940659083 0.0378618501
  endloop
 endfacet

 facet normal 0.386238426 0.27975893 0.878951013
  outer loop
  vertex 0.0116474181 -0.00690145139 0.037160337
  vertex 0.011865519 -0.00940659083 0.0378618501
  vertex 0.0121958777 -0.00690145139 0.0369193293
  endloop
 endfacet

 facet normal 0.667987585 0.18327181 0.721251726
  outer loop
  vertex 0.011865519 -0.00940659083 0.0378618501
  vertex 0.0119739277 -0.0101404609 0.0379479267
  vertex 0.0121958777 -0.00690145139 0.0369193293
  endloop
 endfacet

 facet normal 0.999019027 0.0169600975 0.0409052633
  outer loop
  vertex 0.0144961951 -0.00690145139 0.0167690888
  vertex 0.0144801587 -0.00690145139 0.0171607304
  vertex 0.014487857 -0.00752097974 0.0172295924
  endloop
 endfacet

 facet normal 0.999179959 0.0146191232 0.0377587937
  outer loop
  vertex 0.0144961951 -0.00690145139 0.0167690888
  vertex 0.014487857 -0.00752097974 0.0172295924
  vertex 0.0145013276 -0.00883072056 0.0173802227
  endloop
 endfacet

 facet normal 0.995031118 0.0219750144 0.0971091539
  outer loop
  vertex 0.0143332621 -0.0193003286 0.0214860179
  vertex 0.0144172944 -0.00690145139 0.0178192072
  vertex 0.0129098352 -0.00690145139 0.0332654305
  endloop
 endfacet

 facet normal 0.99502784 0.0219328254 0.097153157
  outer loop
  vertex 0.0143332621 -0.0193003286 0.0214860179
  vertex 0.0129098352 -0.00690145139 0.0332654305
  vertex 0.0126680005 -0.00752097974 0.0358821191
  endloop
 endfacet

 facet normal 0.995027542 0.0219300725 0.0971553773
  outer loop
  vertex 0.0143332621 -0.0193003286 0.0214860179
  vertex 0.0126680005 -0.00752097974 0.0358821191
  vertex 0.0127257332 -0.0101404609 0.0358821191
  endloop
 endfacet

 facet normal 0.995023429 0.021825742 0.0972213
  outer loop
  vertex 0.0143332621 -0.0193003286 0.0214860179
  vertex 0.0127257332 -0.0101404609 0.0358821191
  vertex 0.0128822522 -0.0114481226 0.0345737748
  endloop
 endfacet

 facet normal 0.995212078 0.0229267608 0.095012024
  outer loop
  vertex 0.014487857 -0.00752097974 0.0172295924
  vertex 0.0144801587 -0.00690145139 0.0171607304
  vertex 0.0144172944 -0.00690145139 0.0178192072
  endloop
 endfacet

 facet normal 0.96775192 0.0213289279 0.251000732
  outer loop
  vertex 0.0127257332 -0.0101404609 0.0358821191
  vertex 0.0126680005 -0.00752097974 0.0358821191
  vertex 0.0123863947 -0.0101404609 0.0371904634
  endloop
 endfacet

 facet normal 0.874565125 0.0913070142 0.476234168
  outer loop
  vertex 0.0123863947 -0.0101404609 0.0371904634
  vertex 0.0121958777 -0.00690145139 0.0369193293
  vertex 0.0119739277 -0.0101404609 0.0379479267
  endloop
 endfacet

 facet normal 0.878002048 0.0229667909 0.478105664
  outer loop
  vertex 0.0123863947 -0.0101404609 0.0371904634
  vertex 0.0119739277 -0.0101404609 0.0379479267
  vertex 0.0119906059 -0.0110468846 0.0379608385
  endloop
 endfacet

 facet normal 0.952187717 0.048309736 0.301669896
  outer loop
  vertex 0.0123863947 -0.0101404609 0.0371904634
  vertex 0.0126680005 -0.00752097974 0.0358821191
  vertex 0.0126365684 -0.00690145139 0.0358821191
  endloop
 endfacet

 facet normal 0.923464417 0.0802304 0.37520209
  outer loop
  vertex 0.0123863947 -0.0101404609 0.0371904634
  vertex 0.0126365684 -0.00690145139 0.0358821191
  vertex 0.0124005061 -0.00690145139 0.0364631265
  endloop
 endfacet

 facet normal 0.908909321 0.0875893831 0.407691002
  outer loop
  vertex 0.0123863947 -0.0101404609 0.0371904634
  vertex 0.0124005061 -0.00690145139 0.0364631265
  vertex 0.0121958777 -0.00690145139 0.0369193293
  endloop
 endfacet

 facet normal 0.995004177 0.0224557668 0.0972747952
  outer loop
  vertex 0.0129098352 -0.00690145139 0.0332654305
  vertex 0.0127141858 -0.00690145139 0.0352666825
  vertex 0.0126680005 -0.00752097974 0.0358821191
  endloop
 endfacet

 facet normal 0.99088639 0.0502731279 0.124967985
  outer loop
  vertex 0.0126680005 -0.00752097974 0.0358821191
  vertex 0.0127141858 -0.00690145139 0.0352666825
  vertex 0.0126365684 -0.00690145139 0.0358821191
  endloop
 endfacet

endsolid AssimpScene
