solid AssimpScene
 facet normal -1 0 0
  outer loop
  vertex -0.0139950849 -0.00322933961 -0.00300000003
  vertex -0.0139950849 -0.00322933961 0.0149999997
  vertex -0.0139950849 -0.00171828596 0.0149999997
  endloop
 endfacet

 facet normal -1 0 0
  outer loop
  vertex -0.0139950849 -0.00322933961 -0.00300000003
  vertex -0.0139950849 -0.00171828596 0.0149999997
  vertex -0.0139950849 -0.00171828596 -0.00300000003
  endloop
 endfacet

 facet normal 0 0 -1
  outer loop
  vertex -0.0139950849 -0.00322933961 -0.00300000003
  vertex -0.0139950849 -0.00171828596 -0.00300000003
  vertex 9.51407841e-08 -3.15785371e-07 -0.00300000003
  endloop
 endfacet

 facet normal 0 0 -1
  outer loop
  vertex -0.0139950849 -0.00322933961 -0.00300000003
  vertex 9.51407841e-08 -3.15785371e-07 -0.00300000003
  vertex 0.0149999997 -3.15785371e-07 -0.00300000003
  endloop
 endfacet

 facet normal 0 0 -1
  outer loop
  vertex -0.0139950849 -0.00322933961 -0.00300000003
  vertex 0.0149999997 -3.15785371e-07 -0.00300000003
  vertex 0.0103822434 -0.00323218782 -0.00300000003
  endloop
 endfacet

 facet normal 0 0 -1
  outer loop
  vertex -0.0139950849 -0.00322933961 -0.00300000003
  vertex 0.0103822434 -0.00323218782 -0.00300000003
  vertex 0.00776825985 -0.00323218782 -0.00300000003
  endloop
 endfacet

 facet normal -0.000130873377 -1 0
  outer loop
  vertex -0.0139950849 -0.00322933961 -0.00300000003
  vertex 0.00776825985 -0.00323218782 -0.00300000003
  vertex 0.00776825985 -0.00323218782 0.0149999997
  endloop
 endfacet

 facet normal -0.000130873377 -1 0
  outer loop
  vertex -0.0139950849 -0.00322933961 -0.00300000003
  vertex 0.00776825985 -0.00323218782 0.0149999997
  vertex -0.0139950849 -0.00322933961 0.0149999997
  endloop
 endfacet

 facet normal 0 0 1
  outer loop
  vertex -0.0139950849 -0.00322933961 0.0149999997
  vertex 0.00776825985 -0.00323218782 0.0149999997
  vertex 0.0103822434 -0.00323218782 0.0149999997
  endloop
 endfacet

 facet normal 0 0 1
  outer loop
  vertex -0.0139950849 -0.00322933961 0.0149999997
  vertex 0.0103822434 -0.00323218782 0.0149999997
  vertex 0.0149999997 -3.15785371e-07 0.0149999997
  endloop
 endfacet

 facet normal 0 0 1
  outer loop
  vertex -0.0139950849 -0.00322933961 0.0149999997
  vertex 0.0149999997 -3.15785371e-07 0.0149999997
  vertex 9.51407841e-08 -3.15785371e-07 0.0149999997
  endloop
 endfacet

 facet normal 0 0 1
  outer loop
  vertex -0.0139950849 -0.00322933961 0.0149999997
  vertex 9.51407841e-08 -3.15785371e-07 0.0149999997
  vertex -0.0139950849 -0.00171828596 0.0149999997
  endloop
 endfacet

 facet normal -0.121839866 0.992549777 0
  outer loop
  vertex -0.0139950849 -0.00171828596 -0.00300000003
  vertex -0.0139950849 -0.00171828596 0.0149999997
  vertex 9.51407841e-08 -3.15785371e-07 0.0149999997
  endloop
 endfacet

 facet normal -0.121839866 0.992549777 0
  outer loop
  vertex -0.0139950849 -0.00171828596 -0.00300000003
  vertex 9.51407841e-08 -3.15785371e-07 0.0149999997
  vertex 9.51407841e-08 -3.15785371e-07 -0.00300000003
  endloop
 endfacet

 facet normal 0 -1 0
  outer loop
  vertex 0.00776825985 -0.00323218782 -0.00300000003
  vertex 0.0103822434 -0.00323218782 -0.00300000003
  vertex 0.0103822434 -0.00323218782 0.0149999997
  endloop
 endfacet

 facet normal 0 -1 0
  outer loop
  vertex 0.00776825985 -0.00323218782 -0.00300000003
  vertex 0.0103822434 -0.00323218782 0.0149999997
  vertex 0.00776825985 -0.00323218782 0.0149999997
  endloop
 endfacet

 facet normal 0 1 0
  outer loop
  vertex 9.51407841e-08 -3.15785371e-07 -0.00300000003
  vertex 9.51407841e-08 -3.15785371e-07 0.0149999997
  vertex 0.0149999997 -3.15785371e-07 0.0149999997
  endloop
 endfacet

 facet normal 0 1 0
  outer loop
  vertex 9.51407841e-08 -3.15785371e-07 -0.00300000003
  vertex 0.0149999997 -3.15785371e-07 0.0149999997
  vertex 0.0149999997 -3.15785371e-07 -0.00300000003
  endloop
 endfacet

 facet normal 0.573395967 -0.819278419 0
  outer loop
  vertex 0.0103822434 -0.00323218782 -0.00300000003
  vertex 0.0149999997 -3.15785371e-07 -0.00300000003
  vertex 0.0149999997 -3.15785371e-07 0.0149999997
  endloop
 endfacet

 facet normal 0.573395967 -0.819278419 0
  outer loop
  vertex 0.0103822434 -0.00323218782 -0.00300000003
  vertex 0.0149999997 -3.15785371e-07 0.0149999997
  vertex 0.0103822434 -0.00323218782 0.0149999997
  endloop
 endfacet

endsolid AssimpScene
