solid AssimpScene
 facet normal 0 0 -1
  outer loop
  vertex -0.120909207 -0.0131159602 -0.00300000003
  vertex -0.122622855 -0.0123160295 -0.00300000003
  vertex -0.122974515 -0.012130742 -0.00300000003
  endloop
 endfacet

 facet normal 0 0 -1
  outer loop
  vertex -0.120909207 -0.0131159602 -0.00300000003
  vertex -0.122974515 -0.012130742 -0.00300000003
  vertex -0.123378649 -0.0118777286 -0.00300000003
  endloop
 endfacet

 facet normal 0 0 -1
  outer loop
  vertex -0.120909207 -0.0131159602 -0.00300000003
  vertex -0.123378649 -0.0118777286 -0.00300000003
  vertex -0.123810694 -0.011559546 -0.00300000003
  endloop
 endfacet

 facet normal 0 0 -1
  outer loop
  vertex -0.120909207 -0.0131159602 -0.00300000003
  vertex -0.123810694 -0.011559546 -0.00300000003
  vertex -0.123664446 -0.010639498 -0.00300000003
  endloop
 endfacet

 facet normal 0 0 -1
  outer loop
  vertex -0.120909207 -0.0131159602 -0.00300000003
  vertex -0.123664446 -0.010639498 -0.00300000003
  vertex -0.122523502 -0.00712798163 -0.00300000003
  endloop
 endfacet

 facet normal 0 0 -1
  outer loop
  vertex -0.120909207 -0.0131159602 -0.00300000003
  vertex -0.122523502 -0.00712798163 -0.00300000003
  vertex -0.12210039 -0.00629993854 -0.00300000003
  endloop
 endfacet

 facet normal 0 0 -1
  outer loop
  vertex -0.120909207 -0.0131159602 -0.00300000003
  vertex -0.12210039 -0.00629993854 -0.00300000003
  vertex -0.119931251 -0.00331361732 -0.00300000003
  endloop
 endfacet

 facet normal 0 0 -1
  outer loop
  vertex -0.120909207 -0.0131159602 -0.00300000003
  vertex -0.119931251 -0.00331361732 -0.00300000003
  vertex -0.119272582 -0.00265424908 -0.00300000003
  endloop
 endfacet

 facet normal 0 0 -1
  outer loop
  vertex -0.120909207 -0.0131159602 -0.00300000003
  vertex -0.119272582 -0.00265424908 -0.00300000003
  vertex -0.116287358 -0.000484469463 -0.00300000003
  endloop
 endfacet

 facet normal 0 0 -1
  outer loop
  vertex -0.120909207 -0.0131159602 -0.00300000003
  vertex -0.116287358 -0.000484469463 -0.00300000003
  vertex -0.115456775 -6.15033568e-05 -0.00300000003
  endloop
 endfacet

 facet normal 0 0 -1
  outer loop
  vertex -0.120909207 -0.0131159602 -0.00300000003
  vertex -0.115456775 -6.15033568e-05 -0.00300000003
  vertex -0.112405688 -0.00208944175 -0.00300000003
  endloop
 endfacet

 facet normal 0 0 -1
  outer loop
  vertex -0.120909207 -0.0131159602 -0.00300000003
  vertex -0.112405688 -0.00208944175 -0.00300000003
  vertex -0.112405688 -0.0076058954 -0.00300000003
  endloop
 endfacet

 facet normal 0 0 -1
  outer loop
  vertex -0.120909207 -0.0131159602 -0.00300000003
  vertex -0.112405688 -0.0076058954 -0.00300000003
  vertex -0.115808427 -0.0131159602 -0.00300000003
  endloop
 endfacet

 facet normal 0 -1 0
  outer loop
  vertex -0.120909207 -0.0131159602 -0.00300000003
  vertex -0.115808427 -0.0131159602 -0.00300000003
  vertex -0.114308007 -0.0131159602 0.0059806183
  endloop
 endfacet

 facet normal 0 -1 0
  outer loop
  vertex -0.120909207 -0.0131159602 -0.00300000003
  vertex -0.114308007 -0.0131159602 0.0059806183
  vertex -0.114247724 -0.0131159602 0.00695849629
  endloop
 endfacet

 facet normal 0 -1 0
  outer loop
  vertex -0.120909207 -0.0131159602 -0.00300000003
  vertex -0.114247724 -0.0131159602 0.00695849629
  vertex -0.114247724 -0.0131159602 0.0099784648
  endloop
 endfacet

 facet normal 0 -1 0
  outer loop
  vertex -0.120909207 -0.0131159602 -0.00300000003
  vertex -0.114247724 -0.0131159602 0.0099784648
  vertex -0.115748145 -0.0131159602 0.0149999997
  endloop
 endfacet

 facet normal 0 -1 0
  outer loop
  vertex -0.120909207 -0.0131159602 -0.00300000003
  vertex -0.115748145 -0.0131159602 0.0149999997
  vertex -0.120909207 -0.0131159602 0.0149999997
  endloop
 endfacet

 facet normal -0.422983229 -0.906137466 0
  outer loop
  vertex -0.120909207 -0.0131159602 -0.00300000003
  vertex -0.120909207 -0.0131159602 0.0149999997
  vertex -0.122622855 -0.0123160295 0.0149999997
  endloop
 endfacet

 facet normal -0.422983229 -0.906137466 0
  outer loop
  vertex -0.120909207 -0.0131159602 -0.00300000003
  vertex -0.122622855 -0.0123160295 0.0149999997
  vertex -0.122622855 -0.0123160295 -0.00300000003
  endloop
 endfacet

 facet normal -0.46614784 -0.884706914 0
  outer loop
  vertex -0.122622855 -0.0123160295 -0.00300000003
  vertex -0.122622855 -0.0123160295 0.0149999997
  vertex -0.122974515 -0.012130742 0.0149999997
  endloop
 endfacet

 facet normal -0.46614784 -0.884706914 0
  outer loop
  vertex -0.122622855 -0.0123160295 -0.00300000003
  vertex -0.122974515 -0.012130742 0.0149999997
  vertex -0.122974515 -0.012130742 -0.00300000003
  endloop
 endfacet

 facet normal 0.842366219 -0.520204186 -0.140736952
  outer loop
  vertex -0.115808427 -0.0131159602 -0.00300000003
  vertex -0.112405688 -0.0076058954 -0.00300000003
  vertex -0.114308007 -0.0131159602 0.0059806183
  endloop
 endfacet

 facet normal 0 0 1
  outer loop
  vertex -0.120909207 -0.0131159602 0.0149999997
  vertex -0.115748145 -0.0131159602 0.0149999997
  vertex -0.112405688 -0.00767362164 0.0149999997
  endloop
 endfacet

 facet normal 0 0 1
  outer loop
  vertex -0.120909207 -0.0131159602 0.0149999997
  vertex -0.112405688 -0.00767362164 0.0149999997
  vertex -0.112405688 -0.00208944175 0.0149999997
  endloop
 endfacet

 facet normal 0 0 1
  outer loop
  vertex -0.120909207 -0.0131159602 0.0149999997
  vertex -0.112405688 -0.00208944175 0.0149999997
  vertex -0.115456775 -6.15033568e-05 0.0149999997
  endloop
 endfacet

 facet normal 0 0 1
  outer loop
  vertex -0.120909207 -0.0131159602 0.0149999997
  vertex -0.115456775 -6.15033568e-05 0.0149999997
  vertex -0.116287358 -0.000484469463 0.0149999997
  endloop
 endfacet

 facet normal 0 0 1
  outer loop
  vertex -0.120909207 -0.0131159602 0.0149999997
  vertex -0.116287358 -0.000484469463 0.0149999997
  vertex -0.119272582 -0.00265424908 0.0149999997
  endloop
 endfacet

 facet normal 0 0 1
  outer loop
  vertex -0.120909207 -0.0131159602 0.0149999997
  vertex -0.119272582 -0.00265424908 0.0149999997
  vertex -0.119931251 -0.00331361732 0.0149999997
  endloop
 endfacet

 facet normal 0 0 1
  outer loop
  vertex -0.120909207 -0.0131159602 0.0149999997
  vertex -0.119931251 -0.00331361732 0.0149999997
  vertex -0.12210039 -0.00629993854 0.0149999997
  endloop
 endfacet

 facet normal 0 0 1
  outer loop
  vertex -0.120909207 -0.0131159602 0.0149999997
  vertex -0.12210039 -0.00629993854 0.0149999997
  vertex -0.122523502 -0.00712798163 0.0149999997
  endloop
 endfacet

 facet normal 0 0 1
  outer loop
  vertex -0.120909207 -0.0131159602 0.0149999997
  vertex -0.122523502 -0.00712798163 0.0149999997
  vertex -0.123664446 -0.010639498 0.0149999997
  endloop
 endfacet

 facet normal 0 0 1
  outer loop
  vertex -0.120909207 -0.0131159602 0.0149999997
  vertex -0.123664446 -0.010639498 0.0149999997
  vertex -0.123810694 -0.011559546 0.0149999997
  endloop
 endfacet

 facet normal 0 0 1
  outer loop
  vertex -0.120909207 -0.0131159602 0.0149999997
  vertex -0.123810694 -0.011559546 0.0149999997
  vertex -0.123378649 -0.0118777286 0.0149999997
  endloop
 endfacet

 facet normal 0 0 1
  outer loop
  vertex -0.120909207 -0.0131159602 0.0149999997
  vertex -0.123378649 -0.0118777286 0.0149999997
  vertex -0.122974515 -0.012130742 0.0149999997
  endloop
 endfacet

 facet normal 0 0 1
  outer loop
  vertex -0.120909207 -0.0131159602 0.0149999997
  vertex -0.122974515 -0.012130742 0.0149999997
  vertex -0.122622855 -0.0123160295 0.0149999997
  endloop
 endfacet

 facet normal -0.53064841 -0.847592056 0
  outer loop
  vertex -0.122974515 -0.012130742 -0.00300000003
  vertex -0.122974515 -0.012130742 0.0149999997
  vertex -0.123378649 -0.0118777286 0.0149999997
  endloop
 endfacet

 facet normal -0.53064841 -0.847592056 0
  outer loop
  vertex -0.122974515 -0.012130742 -0.00300000003
  vertex -0.123378649 -0.0118777286 0.0149999997
  vertex -0.123378649 -0.0118777286 -0.00300000003
  endloop
 endfacet

 facet normal 1 0 0
  outer loop
  vertex -0.112405688 -0.0076058954 -0.00300000003
  vertex -0.112405688 -0.00208944175 -0.00300000003
  vertex -0.112405688 -0.00208944175 0.0149999997
  endloop
 endfacet

 facet normal 1 0 0
  outer loop
  vertex -0.112405688 -0.0076058954 -0.00300000003
  vertex -0.112405688 -0.00208944175 0.0149999997
  vertex -0.112405688 -0.00767362164 0.0149999997
  endloop
 endfacet

 facet normal 1 0 0
  outer loop
  vertex -0.112405688 -0.0076058954 -0.00300000003
  vertex -0.112405688 -0.00767362164 0.0149999997
  vertex -0.112405688 -0.00948304869 0.0099784648
  endloop
 endfacet

 facet normal 1 0 0
  outer loop
  vertex -0.112405688 -0.0076058954 -0.00300000003
  vertex -0.112405688 -0.00948304869 0.0099784648
  vertex -0.112405688 -0.00948304869 0.00695849629
  endloop
 endfacet

 facet normal 1 0 0
  outer loop
  vertex -0.112405688 -0.0076058954 -0.00300000003
  vertex -0.112405688 -0.00948304869 0.00695849629
  vertex -0.112405688 -0.00940765627 0.0059806183
  endloop
 endfacet

 facet normal 0.886048734 -0.454534471 -0.0911922008
  outer loop
  vertex -0.112405688 -0.0076058954 -0.00300000003
  vertex -0.112405688 -0.00940765627 0.0059806183
  vertex -0.114308007 -0.0131159602 0.0059806183
  endloop
 endfacet

 facet normal 0.888420522 -0.455751181 -0.0547716767
  outer loop
  vertex -0.114308007 -0.0131159602 0.0059806183
  vertex -0.112405688 -0.00940765627 0.0059806183
  vertex -0.114247724 -0.0131159602 0.00695849629
  endloop
 endfacet

 facet normal 0.82577759 -0.507159054 0.246740922
  outer loop
  vertex -0.115748145 -0.0131159602 0.0149999997
  vertex -0.114247724 -0.0131159602 0.0099784648
  vertex -0.112405688 -0.00767362164 0.0149999997
  endloop
 endfacet

 facet normal -0.593000054 -0.805202484 0
  outer loop
  vertex -0.123378649 -0.0118777286 -0.00300000003
  vertex -0.123378649 -0.0118777286 0.0149999997
  vertex -0.123810694 -0.011559546 0.0149999997
  endloop
 endfacet

 facet normal -0.593000054 -0.805202484 0
  outer loop
  vertex -0.123378649 -0.0118777286 -0.00300000003
  vertex -0.123810694 -0.011559546 0.0149999997
  vertex -0.123810694 -0.011559546 -0.00300000003
  endloop
 endfacet

 facet normal 0.553543389 0.832820415 0
  outer loop
  vertex -0.112405688 -0.00208944175 -0.00300000003
  vertex -0.115456775 -6.15033568e-05 -0.00300000003
  vertex -0.115456775 -6.15033568e-05 0.0149999997
  endloop
 endfacet

 facet normal 0.553543389 0.832820415 0
  outer loop
  vertex -0.112405688 -0.00208944175 -0.00300000003
  vertex -0.115456775 -6.15033568e-05 0.0149999997
  vertex -0.112405688 -0.00208944175 0.0149999997
  endloop
 endfacet

 facet normal 0.89135927 -0.451956332 -0.0348451212
  outer loop
  vertex -0.112405688 -0.00940765627 0.0059806183
  vertex -0.112405688 -0.00948304869 0.00695849629
  vertex -0.114247724 -0.0131159602 0.00695849629
  endloop
 endfacet

 facet normal 0.891900897 -0.45223093 0
  outer loop
  vertex -0.114247724 -0.0131159602 0.00695849629
  vertex -0.112405688 -0.00948304869 0.00695849629
  vertex -0.112405688 -0.00948304869 0.0099784648
  endloop
 endfacet

 facet normal 0.891900897 -0.45223093 0
  outer loop
  vertex -0.114247724 -0.0131159602 0.00695849629
  vertex -0.112405688 -0.00948304869 0.0099784648
  vertex -0.114247724 -0.0131159602 0.0099784648
  endloop
 endfacet

 facet normal 0.880289912 -0.44634366 0.160832614
  outer loop
  vertex -0.114247724 -0.0131159602 0.0099784648
  vertex -0.112405688 -0.00948304869 0.0099784648
  vertex -0.112405688 -0.00767362164 0.0149999997
  endloop
 endfacet

 facet normal -0.987600982 0.156985015 0
  outer loop
  vertex -0.123810694 -0.011559546 -0.00300000003
  vertex -0.123810694 -0.011559546 0.0149999997
  vertex -0.123664446 -0.010639498 0.0149999997
  endloop
 endfacet

 facet normal -0.987600982 0.156985015 0
  outer loop
  vertex -0.123810694 -0.011559546 -0.00300000003
  vertex -0.123664446 -0.010639498 0.0149999997
  vertex -0.123664446 -0.010639498 -0.00300000003
  endloop
 endfacet

 facet normal -0.45378527 0.891111076 0
  outer loop
  vertex -0.115456775 -6.15033568e-05 -0.00300000003
  vertex -0.116287358 -0.000484469463 -0.00300000003
  vertex -0.116287358 -0.000484469463 0.0149999997
  endloop
 endfacet

 facet normal -0.45378527 0.891111076 0
  outer loop
  vertex -0.115456775 -6.15033568e-05 -0.00300000003
  vertex -0.116287358 -0.000484469463 0.0149999997
  vertex -0.115456775 -6.15033568e-05 0.0149999997
  endloop
 endfacet

 facet normal -0.951057613 0.309013784 0
  outer loop
  vertex -0.123664446 -0.010639498 -0.00300000003
  vertex -0.123664446 -0.010639498 0.0149999997
  vertex -0.122523502 -0.00712798163 0.0149999997
  endloop
 endfacet

 facet normal -0.951057613 0.309013784 0
  outer loop
  vertex -0.123664446 -0.010639498 -0.00300000003
  vertex -0.122523502 -0.00712798163 0.0149999997
  vertex -0.122523502 -0.00712798163 -0.00300000003
  endloop
 endfacet

 facet normal -0.587943316 0.808902144 0
  outer loop
  vertex -0.116287358 -0.000484469463 -0.00300000003
  vertex -0.119272582 -0.00265424908 -0.00300000003
  vertex -0.119272582 -0.00265424908 0.0149999997
  endloop
 endfacet

 facet normal -0.587943316 0.808902144 0
  outer loop
  vertex -0.116287358 -0.000484469463 -0.00300000003
  vertex -0.119272582 -0.00265424908 0.0149999997
  vertex -0.116287358 -0.000484469463 0.0149999997
  endloop
 endfacet

 facet normal -0.890482664 0.45501706 0
  outer loop
  vertex -0.122523502 -0.00712798163 -0.00300000003
  vertex -0.122523502 -0.00712798163 0.0149999997
  vertex -0.12210039 -0.00629993854 0.0149999997
  endloop
 endfacet

 facet normal -0.890482664 0.45501706 0
  outer loop
  vertex -0.122523502 -0.00712798163 -0.00300000003
  vertex -0.12210039 -0.00629993854 0.0149999997
  vertex -0.12210039 -0.00629993854 -0.00300000003
  endloop
 endfacet

 facet normal -0.707481265 0.706732154 0
  outer loop
  vertex -0.119272582 -0.00265424908 -0.00300000003
  vertex -0.119931251 -0.00331361732 -0.00300000003
  vertex -0.119931251 -0.00331361732 0.0149999997
  endloop
 endfacet

 facet normal -0.707481265 0.706732154 0
  outer loop
  vertex -0.119272582 -0.00265424908 -0.00300000003
  vertex -0.119931251 -0.00331361732 0.0149999997
  vertex -0.119272582 -0.00265424908 0.0149999997
  endloop
 endfacet

 facet normal -0.80908823 0.587687194 0
  outer loop
  vertex -0.12210039 -0.00629993854 -0.00300000003
  vertex -0.12210039 -0.00629993854 0.0149999997
  vertex -0.119931251 -0.00331361732 0.0149999997
  endloop
 endfacet

 facet normal -0.80908823 0.587687194 0
  outer loop
  vertex -0.12210039 -0.00629993854 -0.00300000003
  vertex -0.119931251 -0.00331361732 0.0149999997
  vertex -0.119931251 -0.00331361732 -0.00300000003
  endloop
 endfacet

endsolid AssimpScene
