solid AssimpScene
 facet normal 0 -1 0
  outer loop
  vertex 0.0303511061 -0.0115460027 0.0131828059
  vertex 0.0303511061 -0.0115460027 0.00884386525
  vertex 0.03094583 -0.0115460027 0.00019903043
  endloop
 endfacet

 facet normal 0 -1 0
  outer loop
  vertex 0.0303511061 -0.0115460027 0.0131828059
  vertex 0.03094583 -0.0115460027 0.00019903043
  vertex 0.0367800742 -0.0115460027 0.00019903043
  endloop
 endfacet

 facet normal 0 -1 0
  outer loop
  vertex 0.0303511061 -0.0115460027 0.0131828059
  vertex 0.0367800742 -0.0115460027 0.00019903043
  vertex 0.0367800742 -0.0115460027 0.010624432
  endloop
 endfacet

 facet normal 0 -1 0
  outer loop
  vertex 0.0303511061 -0.0115460027 0.0131828059
  vertex 0.0367800742 -0.0115460027 0.010624432
  vertex 0.0366950221 -0.0115460027 0.0113730077
  endloop
 endfacet

 facet normal 0 -1 0
  outer loop
  vertex 0.0303511061 -0.0115460027 0.0131828059
  vertex 0.0366950221 -0.0115460027 0.0113730077
  vertex 0.0365401544 -0.0115460027 0.0116081284
  endloop
 endfacet

 facet normal 0 -1 0
  outer loop
  vertex 0.0303511061 -0.0115460027 0.0131828059
  vertex 0.0365401544 -0.0115460027 0.0116081284
  vertex 0.0352586769 -0.0115460027 0.012619786
  endloop
 endfacet

 facet normal 0 -1 0
  outer loop
  vertex 0.0303511061 -0.0115460027 0.0131828059
  vertex 0.0352586769 -0.0115460027 0.012619786
  vertex 0.0350435115 -0.0115460027 0.0127290851
  endloop
 endfacet

 facet normal 0 -1 0
  outer loop
  vertex 0.0303511061 -0.0115460027 0.0131828059
  vertex 0.0350435115 -0.0115460027 0.0127290851
  vertex 0.0337740928 -0.0115460027 0.0128638037
  endloop
 endfacet

 facet normal 0 -1 0
  outer loop
  vertex 0.0303511061 -0.0115460027 0.0131828059
  vertex 0.0337740928 -0.0115460027 0.0128638037
  vertex 0.0323345736 -0.0115460027 0.0130125014
  endloop
 endfacet

 facet normal 0 -1 0
  outer loop
  vertex 0.0303511061 -0.0115460027 0.0131828059
  vertex 0.0323345736 -0.0115460027 0.0130125014
  vertex 0.031862352 -0.0115460027 0.0130595267
  endloop
 endfacet

 facet normal 0 -1 0
  outer loop
  vertex 0.0303511061 -0.0115460027 0.0131828059
  vertex 0.031862352 -0.0115460027 0.0130595267
  vertex 0.0309464652 -0.0115460027 0.0131484903
  endloop
 endfacet

 facet normal 0.05753389 0.0174788777 0.998190522
  outer loop
  vertex 0.0303511061 -0.0115460027 0.0131828059
  vertex 0.0309464652 -0.0115460027 0.0131484903
  vertex 0.0303511061 -0.00646537496 0.0130938403
  endloop
 endfacet

 facet normal -1 0 0
  outer loop
  vertex 0.0303511061 -0.0115460027 0.0131828059
  vertex 0.0303511061 -0.00646537496 0.0130938403
  vertex 0.0303511061 0.0027933172 0.0128904935
  endloop
 endfacet

 facet normal -1 0 0
  outer loop
  vertex 0.0303511061 -0.0115460027 0.0131828059
  vertex 0.0303511061 0.0027933172 0.0128904935
  vertex 0.0303511061 0.00288371532 0.012887951
  endloop
 endfacet

 facet normal -1 0 0
  outer loop
  vertex 0.0303511061 -0.0115460027 0.0131828059
  vertex 0.0303511061 0.00288371532 0.012887951
  vertex 0.0303511061 0.00288371532 0.00019903043
  endloop
 endfacet

 facet normal -1 0 0
  outer loop
  vertex 0.0303511061 -0.0115460027 0.0131828059
  vertex 0.0303511061 0.00288371532 0.00019903043
  vertex 0.0303511061 0.00102491432 0.00019903043
  endloop
 endfacet

 facet normal -1 0 0
  outer loop
  vertex 0.0303511061 -0.0115460027 0.0131828059
  vertex 0.0303511061 0.00102491432 0.00019903043
  vertex 0.0303511061 -0.0115460027 0.00884386525
  endloop
 endfacet

 facet normal -0.996532738 -0.0471455008 -0.068556793
  outer loop
  vertex 0.0303511061 -0.0115460027 0.00884386525
  vertex 0.0303511061 0.00102491432 0.00019903043
  vertex 0.03094583 -0.0115460027 0.00019903043
  endloop
 endfacet

 facet normal 0.0966558829 0.0218981989 0.995076895
  outer loop
  vertex 0.0309464652 -0.0115460027 0.0131484903
  vertex 0.031862352 -0.0115460027 0.0130595267
  vertex 0.03047424 -0.000914396776 0.0129603939
  endloop
 endfacet

 facet normal 0.0962928757 0.0218827017 0.995112419
  outer loop
  vertex 0.0309464652 -0.0115460027 0.0131484903
  vertex 0.03047424 -0.000914396776 0.0129603939
  vertex 0.03047424 -0.00230143499 0.0129908957
  endloop
 endfacet

 facet normal 0.0960913152 0.021872744 0.995132148
  outer loop
  vertex 0.0309464652 -0.0115460027 0.0131484903
  vertex 0.03047424 -0.00230143499 0.0129908957
  vertex 0.03047424 -0.00507692387 0.0130519001
  endloop
 endfacet

 facet normal 0.0959403142 0.0218619443 0.99514699
  outer loop
  vertex 0.0309464652 -0.0115460027 0.0131484903
  vertex 0.03047424 -0.00507692387 0.0130519001
  vertex 0.03047424 -0.00646537496 0.0130824018
  endloop
 endfacet

 facet normal 0.092474632 0.0215441771 0.995481908
  outer loop
  vertex 0.0309464652 -0.0115460027 0.0131484903
  vertex 0.03047424 -0.00646537496 0.0130824018
  vertex 0.0303511061 -0.00646537496 0.0130938403
  endloop
 endfacet

 facet normal 0.0924739987 0.0218634792 0.995474994
  outer loop
  vertex 0.0303511061 -0.00646537496 0.0130938403
  vertex 0.03047424 -0.00646537496 0.0130824018
  vertex 0.0303511061 0.0027933172 0.0128904935
  endloop
 endfacet

 facet normal 0 0 -1
  outer loop
  vertex 0.03094583 -0.0115460027 0.00019903043
  vertex 0.0303511061 0.00102491432 0.00019903043
  vertex 0.0303511061 0.00288371532 0.00019903043
  endloop
 endfacet

 facet normal 0 0 -1
  outer loop
  vertex 0.03094583 -0.0115460027 0.00019903043
  vertex 0.0303511061 0.00288371532 0.00019903043
  vertex 0.0347991474 0.00288371532 0.00019903043
  endloop
 endfacet

 facet normal 0 0 -1
  outer loop
  vertex 0.03094583 -0.0115460027 0.00019903043
  vertex 0.0347991474 0.00288371532 0.00019903043
  vertex 0.0368346609 -0.010763498 0.00019903043
  endloop
 endfacet

 facet normal 0 0 -1
  outer loop
  vertex 0.03094583 -0.0115460027 0.00019903043
  vertex 0.0368346609 -0.010763498 0.00019903043
  vertex 0.0368346609 -0.0114937415 0.00019903043
  endloop
 endfacet

 facet normal 0 0 -1
  outer loop
  vertex 0.03094583 -0.0115460027 0.00019903043
  vertex 0.0368346609 -0.0114937415 0.00019903043
  vertex 0.0368067324 -0.0115205785 0.00019903043
  endloop
 endfacet

 facet normal 0 0 -1
  outer loop
  vertex 0.03094583 -0.0115460027 0.00019903043
  vertex 0.0368067324 -0.0115205785 0.00019903043
  vertex 0.0367800742 -0.0115460027 0.00019903043
  endloop
 endfacet

 facet normal 0.0990858823 0.0111338785 0.995016694
  outer loop
  vertex 0.031862352 -0.0115460027 0.0130595267
  vertex 0.0323345736 -0.0115460027 0.0130125014
  vertex 0.035343729 -0.0111801745 0.0127087496
  endloop
 endfacet

 facet normal 0.0982673615 0.0188889503 0.994980872
  outer loop
  vertex 0.031862352 -0.0115460027 0.0130595267
  vertex 0.035343729 -0.0111801745 0.0127087496
  vertex 0.034733139 -0.0106815761 0.0127595877
  endloop
 endfacet

 facet normal 0.0974263772 0.0216907337 0.995006323
  outer loop
  vertex 0.031862352 -0.0115460027 0.0130595267
  vertex 0.034733139 -0.0106815761 0.0127595877
  vertex 0.0344513282 -0.00924086384 0.0127557749
  endloop
 endfacet

 facet normal 0.0972023606 0.0219444856 0.995022714
  outer loop
  vertex 0.031862352 -0.0115460027 0.0130595267
  vertex 0.0344513282 -0.00924086384 0.0127557749
  vertex 0.031862352 -0.00924086384 0.0130086886
  endloop
 endfacet

 facet normal 0.0970160291 0.0219448861 0.995040834
  outer loop
  vertex 0.031862352 -0.0115460027 0.0130595267
  vertex 0.031862352 -0.00924086384 0.0130086886
  vertex 0.03047424 -0.000914396776 0.0129603939
  endloop
 endfacet

 facet normal 0.0970931575 0.0219753403 0.995032728
  outer loop
  vertex 0.03047424 -0.000914396776 0.0129603939
  vertex 0.0317246169 0.00288371532 0.0127545036
  vertex 0.03047424 0.00288371532 0.0128765125
  endloop
 endfacet

 facet normal 0.0968447328 0.021975873 0.995056868
  outer loop
  vertex 0.03047424 -0.000914396776 0.0129603939
  vertex 0.03047424 0.00288371532 0.0128765125
  vertex 0.0303511061 0.0027933172 0.0128904935
  endloop
 endfacet

 facet normal 0.0940281674 0.0218874626 0.995328903
  outer loop
  vertex 0.03047424 -0.000914396776 0.0129603939
  vertex 0.0303511061 0.0027933172 0.0128904935
  vertex 0.03047424 -0.00230143499 0.0129908957
  endloop
 endfacet

 facet normal 0.0971284062 0.0219635535 0.995029449
  outer loop
  vertex 0.03047424 -0.000914396776 0.0129603939
  vertex 0.031862352 -0.00924086384 0.0130086886
  vertex 0.0317246169 0.00288371532 0.0127545036
  endloop
 endfacet

 facet normal 0.0936018303 0.0218779575 0.995369375
  outer loop
  vertex 0.03047424 -0.00230143499 0.0129908957
  vertex 0.0303511061 0.0027933172 0.0128904935
  vertex 0.03047424 -0.00507692387 0.0130519001
  endloop
 endfacet

 facet normal 0.0928966627 0.0218682811 0.995435596
  outer loop
  vertex 0.03047424 -0.00507692387 0.0130519001
  vertex 0.0303511061 0.0027933172 0.0128904935
  vertex 0.03047424 -0.00646537496 0.0130824018
  endloop
 endfacet

 facet normal 0.0924598724 0.0279897936 0.995322943
  outer loop
  vertex 0.0303511061 0.0027933172 0.0128904935
  vertex 0.03047424 0.00288371532 0.0128765125
  vertex 0.0303511061 0.00288371532 0.012887951
  endloop
 endfacet

 facet normal 0.690169215 -0.723648012 0
  outer loop
  vertex 0.0367800742 -0.0115460027 0.00019903043
  vertex 0.0368067324 -0.0115205785 0.00019903043
  vertex 0.0367800742 -0.0115460027 0.010624432
  endloop
 endfacet

 facet normal 0 1 0
  outer loop
  vertex 0.0303511061 0.00288371532 0.00019903043
  vertex 0.0303511061 0.00288371532 0.012887951
  vertex 0.03047424 0.00288371532 0.0128765125
  endloop
 endfacet

 facet normal 0 1 0
  outer loop
  vertex 0.0303511061 0.00288371532 0.00019903043
  vertex 0.03047424 0.00288371532 0.0128765125
  vertex 0.0317246169 0.00288371532 0.0127545036
  endloop
 endfacet

 facet normal 0 1 0
  outer loop
  vertex 0.0303511061 0.00288371532 0.00019903043
  vertex 0.0317246169 0.00288371532 0.0127545036
  vertex 0.0323866196 0.00288371532 0.0126858726
  endloop
 endfacet

 facet normal 0 1 0
  outer loop
  vertex 0.0303511061 0.00288371532 0.00019903043
  vertex 0.0323866196 0.00288371532 0.0126858726
  vertex 0.0331495404 0.00288371532 0.0120173674
  endloop
 endfacet

 facet normal 0 1 0
  outer loop
  vertex 0.0303511061 0.00288371532 0.00019903043
  vertex 0.0331495404 0.00288371532 0.0120173674
  vertex 0.0338026546 0.00288371532 0.010624432
  endloop
 endfacet

 facet normal 0 1 0
  outer loop
  vertex 0.0303511061 0.00288371532 0.00019903043
  vertex 0.0338026546 0.00288371532 0.010624432
  vertex 0.0344297476 0.00288371532 0.00923531037
  endloop
 endfacet

 facet normal 0 1 0
  outer loop
  vertex 0.0303511061 0.00288371532 0.00019903043
  vertex 0.0344297476 0.00288371532 0.00923531037
  vertex 0.0347953402 0.00288371532 0.00787796266
  endloop
 endfacet

 facet normal 0 1 0
  outer loop
  vertex 0.0303511061 0.00288371532 0.00019903043
  vertex 0.0347953402 0.00288371532 0.00787796266
  vertex 0.0347991474 0.00288371532 0.00784746092
  endloop
 endfacet

 facet normal 0 1 0
  outer loop
  vertex 0.0303511061 0.00288371532 0.00019903043
  vertex 0.0347991474 0.00288371532 0.00784746092
  vertex 0.0347991474 0.00288371532 0.00019903043
  endloop
 endfacet

 facet normal 0.102693573 -0.0332471095 0.994157255
  outer loop
  vertex 0.0323345736 -0.0115460027 0.0130125014
  vertex 0.0337740928 -0.0115460027 0.0128638037
  vertex 0.035343729 -0.0113341333 0.0127087496
  endloop
 endfacet

 facet normal 0.100432098 0 0.994943976
  outer loop
  vertex 0.0323345736 -0.0115460027 0.0130125014
  vertex 0.035343729 -0.0113341333 0.0127087496
  vertex 0.035343729 -0.0111801745 0.0127087496
  endloop
 endfacet

 facet normal 0.639541984 0 0.76875627
  outer loop
  vertex 0.035343729 -0.0111801745 0.0127087496
  vertex 0.035343729 -0.0113341333 0.0127087496
  vertex 0.0367965773 -0.0114372438 0.0115000997
  endloop
 endfacet

 facet normal 0.639541984 0 0.76875627
  outer loop
  vertex 0.035343729 -0.0111801745 0.0127087496
  vertex 0.0367965773 -0.0114372438 0.0115000997
  vertex 0.0367965773 -0.0109499432 0.0115000997
  endloop
 endfacet

 facet normal 0.631984234 0.0657175109 0.772189856
  outer loop
  vertex 0.035343729 -0.0111801745 0.0127087496
  vertex 0.0367965773 -0.0109499432 0.0115000997
  vertex 0.0352599472 -0.0102550117 0.0126985833
  endloop
 endfacet

 facet normal 0.099089399 0.0199059602 0.994879544
  outer loop
  vertex 0.035343729 -0.0111801745 0.0127087496
  vertex 0.0352599472 -0.0102550117 0.0126985833
  vertex 0.034733139 -0.0106815761 0.0127595877
  endloop
 endfacet

 facet normal 0.0976251289 0.0217295624 0.994985998
  outer loop
  vertex 0.034733139 -0.0106815761 0.0127595877
  vertex 0.0352599472 -0.0102550117 0.0126985833
  vertex 0.0344513282 -0.00924086384 0.0127557749
  endloop
 endfacet

 facet normal 0.0980108529 0.0220396314 0.994941235
  outer loop
  vertex 0.0344513282 -0.00924086384 0.0127557749
  vertex 0.0352599472 -0.0102550117 0.0126985833
  vertex 0.0339156352 -0.00450628903 0.0127036665
  endloop
 endfacet

 facet normal 0.0972023383 0.0219490472 0.995022535
  outer loop
  vertex 0.0344513282 -0.00924086384 0.0127557749
  vertex 0.0339156352 -0.00450628903 0.0127036665
  vertex 0.031862352 -0.00924086384 0.0130086886
  endloop
 endfacet

 facet normal 0.0971684903 0.0219639279 0.995025575
  outer loop
  vertex 0.031862352 -0.00924086384 0.0130086886
  vertex 0.0339156352 -0.00450628903 0.0127036665
  vertex 0.0317246169 0.00288371532 0.0127545036
  endloop
 endfacet

 facet normal 0.103080049 0.0274675768 0.99429369
  outer loop
  vertex 0.0317246169 0.00288371532 0.0127545036
  vertex 0.0324678607 0.00216477131 0.0126973111
  vertex 0.0323866196 0.00288371532 0.0126858726
  endloop
 endfacet

 facet normal 0.0980624557 0.0222296193 0.994931936
  outer loop
  vertex 0.0317246169 0.00288371532 0.0127545036
  vertex 0.0339156352 -0.00450628903 0.0127036665
  vertex 0.0324678607 0.00216477131 0.0126973111
  endloop
 endfacet

 facet normal 0.692874432 -0.721058249 0
  outer loop
  vertex 0.0368067324 -0.0115205785 0.00019903043
  vertex 0.0368346609 -0.0114937415 0.00019903043
  vertex 0.0368346609 -0.0114937415 0.010624432
  endloop
 endfacet

 facet normal 0.691556931 -0.722321987 6.78231936e-06
  outer loop
  vertex 0.0368067324 -0.0115205785 0.00019903043
  vertex 0.0368346609 -0.0114937415 0.010624432
  vertex 0.0367800742 -0.0115460027 0.010624432
  endloop
 endfacet

 facet normal 0.689532697 -0.720207691 0.0764568821
  outer loop
  vertex 0.0367800742 -0.0115460027 0.010624432
  vertex 0.0368346609 -0.0114937415 0.010624432
  vertex 0.0367965773 -0.0114372438 0.0115000997
  endloop
 endfacet

 facet normal 0.681942821 -0.727290154 0.0774795637
  outer loop
  vertex 0.0367800742 -0.0115460027 0.010624432
  vertex 0.0367965773 -0.0114372438 0.0115000997
  vertex 0.0366950221 -0.0115460027 0.0113730077
  endloop
 endfacet

 facet normal 0.989058971 0.147520393 0
  outer loop
  vertex 0.0347991474 0.00288371532 0.00019903043
  vertex 0.0347991474 0.00288371532 0.00784746092
  vertex 0.0368346609 -0.010763498 0.010624432
  endloop
 endfacet

 facet normal 0.989058971 0.147520393 0
  outer loop
  vertex 0.0347991474 0.00288371532 0.00019903043
  vertex 0.0368346609 -0.010763498 0.010624432
  vertex 0.0368346609 -0.010763498 0.00019903043
  endloop
 endfacet

 facet normal 0.105379485 -0.0540190861 0.992963791
  outer loop
  vertex 0.0337740928 -0.0115460027 0.0128638037
  vertex 0.0350435115 -0.0115460027 0.0127290851
  vertex 0.035343729 -0.0113341333 0.0127087496
  endloop
 endfacet

 facet normal 0.395795166 -0.486055464 0.779163837
  outer loop
  vertex 0.035343729 -0.0113341333 0.0127087496
  vertex 0.0350435115 -0.0115460027 0.0127290851
  vertex 0.0352586769 -0.0115460027 0.012619786
  endloop
 endfacet

 facet normal 0.532443881 -0.500410438 0.682710052
  outer loop
  vertex 0.035343729 -0.0113341333 0.0127087496
  vertex 0.0352586769 -0.0115460027 0.012619786
  vertex 0.0367965773 -0.0114372438 0.0115000997
  endloop
 endfacet

 facet normal 0.683338404 0.121963188 0.719842792
  outer loop
  vertex 0.0367965773 -0.0109499432 0.0115000997
  vertex 0.0356052294 -0.00646537496 0.0118712103
  vertex 0.0357620008 -0.00785382558 0.0119576333
  endloop
 endfacet

 facet normal 0.663451135 0.112378627 0.739732206
  outer loop
  vertex 0.0367965773 -0.0109499432 0.0115000997
  vertex 0.0357620008 -0.00785382558 0.0119576333
  vertex 0.0349882916 -0.00785382558 0.012651559
  endloop
 endfacet

 facet normal 0.639788628 0.0897984952 0.763286829
  outer loop
  vertex 0.0367965773 -0.0109499432 0.0115000997
  vertex 0.0349882916 -0.00785382558 0.012651559
  vertex 0.0351450667 -0.00924086384 0.012683332
  endloop
 endfacet

 facet normal 0.636082053 0.0835904106 0.767080426
  outer loop
  vertex 0.0367965773 -0.0109499432 0.0115000997
  vertex 0.0351450667 -0.00924086384 0.012683332
  vertex 0.0352599472 -0.0102550117 0.0126985833
  endloop
 endfacet

 facet normal 0.999055684 0 0.0434504412
  outer loop
  vertex 0.0367965773 -0.0109499432 0.0115000997
  vertex 0.0367965773 -0.0114372438 0.0115000997
  vertex 0.0368346609 -0.0114937415 0.010624432
  endloop
 endfacet

 facet normal 0.999055684 0 0.0434504412
  outer loop
  vertex 0.0367965773 -0.0109499432 0.0115000997
  vertex 0.0368346609 -0.0114937415 0.010624432
  vertex 0.0368346609 -0.010763498 0.010624432
  endloop
 endfacet

 facet normal 0.983676612 0.162461579 0.0773725063
  outer loop
  vertex 0.0367965773 -0.0109499432 0.0115000997
  vertex 0.0368346609 -0.010763498 0.010624432
  vertex 0.0347991474 0.00288371532 0.00784746092
  endloop
 endfacet

 facet normal 0.97727865 0.173322961 0.12200658
  outer loop
  vertex 0.0367965773 -0.0109499432 0.0115000997
  vertex 0.0347991474 0.00288371532 0.00784746092
  vertex 0.0347953402 0.00288371532 0.00787796266
  endloop
 endfacet

 facet normal 0.945395947 0.203437746 0.254636168
  outer loop
  vertex 0.0367965773 -0.0109499432 0.0115000997
  vertex 0.0347953402 0.00288371532 0.00787796266
  vertex 0.0344297476 0.00288371532 0.00923531037
  endloop
 endfacet

 facet normal 0.937780321 0.206186399 0.279383987
  outer loop
  vertex 0.0367965773 -0.0109499432 0.0115000997
  vertex 0.0344297476 0.00288371532 0.00923531037
  vertex 0.035357058 -0.00427182019 0.0114035103
  endloop
 endfacet

 facet normal 0.912552297 0.201851755 0.355674416
  outer loop
  vertex 0.0367965773 -0.0109499432 0.0115000997
  vertex 0.035357058 -0.00427182019 0.0114035103
  vertex 0.0354484543 -0.00507692387 0.0116259214
  endloop
 endfacet

 facet normal 0.84705174 0.183751509 0.498737216
  outer loop
  vertex 0.0367965773 -0.0109499432 0.0115000997
  vertex 0.0354484543 -0.00507692387 0.0116259214
  vertex 0.0356052294 -0.00646537496 0.0118712103
  endloop
 endfacet

 facet normal 0.132677421 0.0299286079 0.990707338
  outer loop
  vertex 0.0352599472 -0.0102550117 0.0126985833
  vertex 0.0351450667 -0.00924086384 0.012683332
  vertex 0.0324678607 0.00216477131 0.0126973111
  endloop
 endfacet

 facet normal 0.108513758 0.0244967025 0.99379313
  outer loop
  vertex 0.0352599472 -0.0102550117 0.0126985833
  vertex 0.0324678607 0.00216477131 0.0126973111
  vertex 0.0339156352 -0.00450628903 0.0127036665
  endloop
 endfacet

 facet normal 0.139331669 0.0314917192 0.989744902
  outer loop
  vertex 0.0324678607 0.00216477131 0.0126973111
  vertex 0.0351450667 -0.00924086384 0.012683332
  vertex 0.0323866196 0.00288371532 0.0126858726
  endloop
 endfacet

 facet normal 0.312809587 0.0739446282 0.94693315
  outer loop
  vertex 0.0323866196 0.00288371532 0.0126858726
  vertex 0.0336661935 -0.00230143499 0.0126680806
  vertex 0.0334998965 -0.000914396776 0.0126147019
  endloop
 endfacet

 facet normal 0.605366111 0.162841648 0.779111326
  outer loop
  vertex 0.0323866196 0.00288371532 0.0126858726
  vertex 0.0334998965 -0.000914396776 0.0126147019
  vertex 0.0333374143 0.000474053988 0.0124507518
  endloop
 endfacet

 facet normal 0.647846818 0.183483839 0.739343107
  outer loop
  vertex 0.0323866196 0.00288371532 0.0126858726
  vertex 0.0333374143 0.000474053988 0.0124507518
  vertex 0.0331495404 0.00288371532 0.0120173674
  endloop
 endfacet

 facet normal 0.164812088 0.0372895896 0.985619903
  outer loop
  vertex 0.0323866196 0.00288371532 0.0126858726
  vertex 0.0351450667 -0.00924086384 0.012683332
  vertex 0.0336661935 -0.00230143499 0.0126680806
  endloop
 endfacet

 facet normal 1 0 0
  outer loop
  vertex 0.0368346609 -0.0114937415 0.00019903043
  vertex 0.0368346609 -0.010763498 0.00019903043
  vertex 0.0368346609 -0.010763498 0.010624432
  endloop
 endfacet

 facet normal 1 0 0
  outer loop
  vertex 0.0368346609 -0.0114937415 0.00019903043
  vertex 0.0368346609 -0.010763498 0.010624432
  vertex 0.0368346609 -0.0114937415 0.010624432
  endloop
 endfacet

 facet normal 0.480259776 -0.818095148 0.316339672
  outer loop
  vertex 0.0366950221 -0.0115460027 0.0113730077
  vertex 0.0367965773 -0.0114372438 0.0115000997
  vertex 0.0365401544 -0.0115460027 0.0116081284
  endloop
 endfacet

 facet normal 0.512082636 -0.563037217 0.648660481
  outer loop
  vertex 0.0367965773 -0.0114372438 0.0115000997
  vertex 0.0352586769 -0.0115460027 0.012619786
  vertex 0.0365401544 -0.0115460027 0.0116081284
  endloop
 endfacet

 facet normal 0.654731274 0.127781034 0.7449826
  outer loop
  vertex 0.0356052294 -0.00646537496 0.0118712103
  vertex 0.0348156504 -0.00646537496 0.012565136
  vertex 0.0349882916 -0.00785382558 0.012651559
  endloop
 endfacet

 facet normal 0.662788272 0.120834813 0.738993049
  outer loop
  vertex 0.0356052294 -0.00646537496 0.0118712103
  vertex 0.0349882916 -0.00785382558 0.012651559
  vertex 0.0357620008 -0.00785382558 0.0119576333
  endloop
 endfacet

 facet normal 0.832981706 0.186106831 0.521062076
  outer loop
  vertex 0.0356052294 -0.00646537496 0.0118712103
  vertex 0.0354484543 -0.00507692387 0.0116259214
  vertex 0.0341263562 0.000474053988 0.0117568262
  endloop
 endfacet

 facet normal 0.704230249 0.161475539 0.691365004
  outer loop
  vertex 0.0356052294 -0.00646537496 0.0118712103
  vertex 0.0341263562 0.000474053988 0.0117568262
  vertex 0.0342837647 -0.000914396776 0.0119207762
  endloop
 endfacet

 facet normal 0.655403912 0.14941451 0.740351975
  outer loop
  vertex 0.0356052294 -0.00646537496 0.0118712103
  vertex 0.0342837647 -0.000914396776 0.0119207762
  vertex 0.0334998965 -0.000914396776 0.0126147019
  endloop
 endfacet

 facet normal 0.652861536 0.148115009 0.742855132
  outer loop
  vertex 0.0356052294 -0.00646537496 0.0118712103
  vertex 0.0334998965 -0.000914396776 0.0126147019
  vertex 0.0348156504 -0.00646537496 0.012565136
  endloop
 endfacet

 facet normal 0.530256689 0.11819043 0.839558721
  outer loop
  vertex 0.0349882916 -0.00785382558 0.012651559
  vertex 0.0348156504 -0.00646537496 0.012565136
  vertex 0.0334998965 -0.000914396776 0.0126147019
  endloop
 endfacet

 facet normal 0.329978466 0.0757724941 0.940942585
  outer loop
  vertex 0.0349882916 -0.00785382558 0.012651559
  vertex 0.0334998965 -0.000914396776 0.0126147019
  vertex 0.0336661935 -0.00230143499 0.0126680806
  endloop
 endfacet

 facet normal 0.202420294 0.0452881418 0.97825098
  outer loop
  vertex 0.0349882916 -0.00785382558 0.012651559
  vertex 0.0336661935 -0.00230143499 0.0126680806
  vertex 0.0351450667 -0.00924086384 0.012683332
  endloop
 endfacet

 facet normal 0.846235633 0.3714149 0.382016271
  outer loop
  vertex 0.0344297476 0.00288371532 0.00923531037
  vertex 0.0338026546 0.00288371532 0.010624432
  vertex 0.0340133794 0.00147549005 0.0115267895
  endloop
 endfacet

 facet normal 0.930637002 0.211165458 0.2988711
  outer loop
  vertex 0.0344297476 0.00288371532 0.00923531037
  vertex 0.0340133794 0.00147549005 0.0115267895
  vertex 0.035357058 -0.00427182019 0.0114035103
  endloop
 endfacet

 facet normal 0.907632113 0.204332665 0.366676986
  outer loop
  vertex 0.035357058 -0.00427182019 0.0114035103
  vertex 0.0340133794 0.00147549005 0.0115267895
  vertex 0.0354484543 -0.00507692387 0.0116259214
  endloop
 endfacet

 facet normal 0.878326416 0.198943406 0.434700131
  outer loop
  vertex 0.0354484543 -0.00507692387 0.0116259214
  vertex 0.0340133794 0.00147549005 0.0115267895
  vertex 0.0341263562 0.000474053988 0.0117568262
  endloop
 endfacet

 facet normal 0.654152393 0.161415741 0.738938272
  outer loop
  vertex 0.0334998965 -0.000914396776 0.0126147019
  vertex 0.0342837647 -0.000914396776 0.0119207762
  vertex 0.0341263562 0.000474053988 0.0117568262
  endloop
 endfacet

 facet normal 0.65153265 0.163713962 0.740744829
  outer loop
  vertex 0.0334998965 -0.000914396776 0.0126147019
  vertex 0.0341263562 0.000474053988 0.0117568262
  vertex 0.0333374143 0.000474053988 0.0124507518
  endloop
 endfacet

 facet normal 0.649244189 0.183376938 0.738142908
  outer loop
  vertex 0.0333374143 0.000474053988 0.0124507518
  vertex 0.0341263562 0.000474053988 0.0117568262
  vertex 0.0331495404 0.00288371532 0.0120173674
  endloop
 endfacet

 facet normal 0.735786617 0.22937499 0.637185335
  outer loop
  vertex 0.0331495404 0.00288371532 0.0120173674
  vertex 0.0341263562 0.000474053988 0.0117568262
  vertex 0.0340133794 0.00147549005 0.0115267895
  endloop
 endfacet

 facet normal 0.838467062 0.377379298 0.393138498
  outer loop
  vertex 0.0331495404 0.00288371532 0.0120173674
  vertex 0.0340133794 0.00147549005 0.0115267895
  vertex 0.0338026546 0.00288371532 0.010624432
  endloop
 endfacet

endsolid AssimpScene
