solid AssimpScene
 facet normal 0.99500072 0.0228027757 0.0972300395
  outer loop
  vertex 0.0129068838 0.00276717823 0.03110791
  vertex 0.012695781 0.00276717823 0.0332682319
  vertex 0.0129326293 0.00164377748 0.03110791
  endloop
 endfacet

 facet normal 0 0 -1
  outer loop
  vertex 0.0129068838 0.00276717823 0.03110791
  vertex 0.0129326293 0.00164377748 0.03110791
  vertex 0.0131059764 -0.00620961795 0.03110791
  endloop
 endfacet

 facet normal 0 0 -1
  outer loop
  vertex 0.0129068838 0.00276717823 0.03110791
  vertex 0.0131059764 -0.00620961795 0.03110791
  vertex 0.01310426 -0.0062891175 0.03110791
  endloop
 endfacet

 facet normal 0 0 -1
  outer loop
  vertex 0.0129068838 0.00276717823 0.03110791
  vertex 0.01310426 -0.0062891175 0.03110791
  vertex 0.0131025426 -0.00636009872 0.03110791
  endloop
 endfacet

 facet normal 0 0 -1
  outer loop
  vertex 0.0129068838 0.00276717823 0.03110791
  vertex 0.0131025426 -0.00636009872 0.03110791
  vertex 0.012954941 -0.00690145139 0.03110791
  endloop
 endfacet

 facet normal 0 0 -1
  outer loop
  vertex 0.0129068838 0.00276717823 0.03110791
  vertex 0.012954941 -0.00690145139 0.03110791
  vertex 0.00983470958 -0.00690145139 0.03110791
  endloop
 endfacet

 facet normal 0 0 -1
  outer loop
  vertex 0.0129068838 0.00276717823 0.03110791
  vertex 0.00983470958 -0.00690145139 0.03110791
  vertex 0.00153811707 0.00156333169 0.03110791
  endloop
 endfacet

 facet normal 0 0 -1
  outer loop
  vertex 0.0129068838 0.00276717823 0.03110791
  vertex 0.00153811707 0.00156333169 0.03110791
  vertex 0.00153811707 0.00276717823 0.03110791
  endloop
 endfacet

 facet normal 0 1 0
  outer loop
  vertex 0.0129068838 0.00276717823 0.03110791
  vertex 0.00153811707 0.00276717823 0.03110791
  vertex 0.00153811707 0.00276717823 0.035891261
  endloop
 endfacet

 facet normal 0 1 0
  outer loop
  vertex 0.0129068838 0.00276717823 0.03110791
  vertex 0.00153811707 0.00276717823 0.035891261
  vertex 0.00725510996 0.00276717823 0.035891261
  endloop
 endfacet

 facet normal 0 1 0
  outer loop
  vertex 0.0129068838 0.00276717823 0.03110791
  vertex 0.00725510996 0.00276717823 0.035891261
  vertex 0.00856293086 0.00276717823 0.0358748436
  endloop
 endfacet

 facet normal 0 1 0
  outer loop
  vertex 0.0129068838 0.00276717823 0.03110791
  vertex 0.00856293086 0.00276717823 0.0358748436
  vertex 0.00984843913 0.00276717823 0.0356401466
  endloop
 endfacet

 facet normal 0 1 0
  outer loop
  vertex 0.0129068838 0.00276717823 0.03110791
  vertex 0.00984843913 0.00276717823 0.0356401466
  vertex 0.0102225924 0.00276717823 0.0355525911
  endloop
 endfacet

 facet normal 0 1 0
  outer loop
  vertex 0.0129068838 0.00276717823 0.03110791
  vertex 0.0102225924 0.00276717823 0.0355525911
  vertex 0.0111802872 0.00276717823 0.035126362
  endloop
 endfacet

 facet normal 0 1 0
  outer loop
  vertex 0.0129068838 0.00276717823 0.03110791
  vertex 0.0111802872 0.00276717823 0.035126362
  vertex 0.0121156704 0.00276717823 0.0347098634
  endloop
 endfacet

 facet normal 0 1 0
  outer loop
  vertex 0.0129068838 0.00276717823 0.03110791
  vertex 0.0121156704 0.00276717823 0.0347098634
  vertex 0.0121431313 0.00276717823 0.0346727744
  endloop
 endfacet

 facet normal 0 1 0
  outer loop
  vertex 0.0129068838 0.00276717823 0.03110791
  vertex 0.0121431313 0.00276717823 0.0346727744
  vertex 0.0121671595 0.00276717823 0.03463386
  endloop
 endfacet

 facet normal 0 1 0
  outer loop
  vertex 0.0129068838 0.00276717823 0.03110791
  vertex 0.0121671595 0.00276717823 0.03463386
  vertex 0.0126425754 0.00276717823 0.0334561095
  endloop
 endfacet

 facet normal 0 1 0
  outer loop
  vertex 0.0129068838 0.00276717823 0.03110791
  vertex 0.0126425754 0.00276717823 0.0334561095
  vertex 0.012695781 0.00276717823 0.0332682319
  endloop
 endfacet

 facet normal 0.99452877 0.0230173673 0.10189572
  outer loop
  vertex 0.012695781 0.00276717823 0.0332682319
  vertex 0.0126786176 -0.00228102761 0.0345760994
  vertex 0.0127146589 -0.00690145139 0.0352680311
  endloop
 endfacet

 facet normal 0.994981706 0.0221256316 0.0975800902
  outer loop
  vertex 0.012695781 0.00276717823 0.0332682319
  vertex 0.0127146589 -0.00690145139 0.0352680311
  vertex 0.0129326293 0.00164377748 0.03110791
  endloop
 endfacet

 facet normal 0.958996654 0.081066072 0.271576464
  outer loop
  vertex 0.012695781 0.00276717823 0.0332682319
  vertex 0.0126425754 0.00276717823 0.0334561095
  vertex 0.012531016 0.000334878103 0.0345760994
  endloop
 endfacet

 facet normal 0.962753296 0.0745357126 0.259904921
  outer loop
  vertex 0.012695781 0.00276717823 0.0332682319
  vertex 0.012531016 0.000334878103 0.0345760994
  vertex 0.0126322769 -0.000973074581 0.0345760994
  endloop
 endfacet

 facet normal 0.98834765 0.0350169428 0.148131475
  outer loop
  vertex 0.012695781 0.00276717823 0.0332682319
  vertex 0.0126322769 -0.000973074581 0.0345760994
  vertex 0.0126786176 -0.00228102761 0.0345760994
  endloop
 endfacet

 facet normal 0.995017946 0.0219628643 0.0972476453
  outer loop
  vertex 0.0129326293 0.00164377748 0.03110791
  vertex 0.0127146589 -0.00690145139 0.0352680311
  vertex 0.0131059764 -0.00620961795 0.03110791
  endloop
 endfacet

 facet normal -0.0966726542 0 -0.995316327
  outer loop
  vertex 0.00153811707 0.00276717823 0.03110791
  vertex 0.00153811707 0.00156333169 0.03110791
  vertex -0.00442774035 -0.00146615971 0.0316873603
  endloop
 endfacet

 facet normal -0.578701854 0.815539241 0
  outer loop
  vertex 0.00153811707 0.00276717823 0.03110791
  vertex -0.00442774035 -0.00146615971 0.0316873603
  vertex -0.00442774035 -0.00146615971 0.0360894762
  endloop
 endfacet

 facet normal -0.578701854 0.815539241 0
  outer loop
  vertex 0.00153811707 0.00276717823 0.03110791
  vertex -0.00442774035 -0.00146615971 0.0360894762
  vertex 0.00153811707 0.00276717823 0.035891261
  endloop
 endfacet

 facet normal 0.987169147 0.0349751897 0.155801192
  outer loop
  vertex 0.0126786176 -0.00228102761 0.0345760994
  vertex 0.0126322769 -0.000973074581 0.0345760994
  vertex 0.0126357106 -0.00690145139 0.0358851813
  endloop
 endfacet

 facet normal 0.991562128 0.0267306976 0.12684615
  outer loop
  vertex 0.0126786176 -0.00228102761 0.0345760994
  vertex 0.0126357106 -0.00690145139 0.0358851813
  vertex 0.0127146589 -0.00690145139 0.0352680311
  endloop
 endfacet

 facet normal 0.995161891 0.017954994 0.0965946615
  outer loop
  vertex 0.0127146589 -0.00690145139 0.0352680311
  vertex 0.0129686715 -0.00690145139 0.0326510817
  vertex 0.0131059764 -0.00620961795 0.03110791
  endloop
 endfacet

 facet normal 0 -1 0
  outer loop
  vertex 0.0127146589 -0.00690145139 0.0352680311
  vertex 0.0126357106 -0.00690145139 0.0358851813
  vertex 0.0123988595 -0.00690145139 0.0364652388
  endloop
 endfacet

 facet normal 0 -1 0
  outer loop
  vertex 0.0127146589 -0.00690145139 0.0352680311
  vertex 0.0123988595 -0.00690145139 0.0364652388
  vertex 0.0121963369 -0.00690145139 0.0369206518
  endloop
 endfacet

 facet normal 0 -1 0
  outer loop
  vertex 0.0127146589 -0.00690145139 0.0352680311
  vertex 0.0121963369 -0.00690145139 0.0369206518
  vertex 0.011647121 -0.00690145139 0.0371632539
  endloop
 endfacet

 facet normal 0 -1 0
  outer loop
  vertex 0.0127146589 -0.00690145139 0.0352680311
  vertex 0.011647121 -0.00690145139 0.0371632539
  vertex 0.0111802872 -0.00690145139 0.0373097882
  endloop
 endfacet

 facet normal 0 -1 0
  outer loop
  vertex 0.0127146589 -0.00690145139 0.0352680311
  vertex 0.0111802872 -0.00690145139 0.0373097882
  vertex 0.0104903355 -0.00690145139 0.0373183005
  endloop
 endfacet

 facet normal 0 -1 0
  outer loop
  vertex 0.0127146589 -0.00690145139 0.0352680311
  vertex 0.0104903355 -0.00690145139 0.0373183005
  vertex 0.00153811707 -0.00690145139 0.0373195186
  endloop
 endfacet

 facet normal 0 -1 0
  outer loop
  vertex 0.0127146589 -0.00690145139 0.0352680311
  vertex 0.00153811707 -0.00690145139 0.0373195186
  vertex -0.00442774035 -0.00690145139 0.0373195186
  endloop
 endfacet

 facet normal 0 -1 0
  outer loop
  vertex 0.0127146589 -0.00690145139 0.0352680311
  vertex -0.00442774035 -0.00690145139 0.0373195186
  vertex -0.00442774035 -0.00690145139 0.0329046324
  endloop
 endfacet

 facet normal 0 -1 0
  outer loop
  vertex 0.0127146589 -0.00690145139 0.0352680311
  vertex -0.00442774035 -0.00690145139 0.0329046324
  vertex 0.00983470958 -0.00690145139 0.03110791
  endloop
 endfacet

 facet normal 0 -1 0
  outer loop
  vertex 0.0127146589 -0.00690145139 0.0352680311
  vertex 0.00983470958 -0.00690145139 0.03110791
  vertex 0.012954941 -0.00690145139 0.03110791
  endloop
 endfacet

 facet normal 0 -1 0
  outer loop
  vertex 0.0127146589 -0.00690145139 0.0352680311
  vertex 0.012954941 -0.00690145139 0.03110791
  vertex 0.0130613521 -0.00690145139 0.0315055586
  endloop
 endfacet

 facet normal 0 -1 0
  outer loop
  vertex 0.0127146589 -0.00690145139 0.0352680311
  vertex 0.0130613521 -0.00690145139 0.0315055586
  vertex 0.0129686715 -0.00690145139 0.0326510817
  endloop
 endfacet

 facet normal 0.91894269 0.133955777 0.370945036
  outer loop
  vertex 0.0126425754 0.00276717823 0.0334561095
  vertex 0.0121671595 0.00276717823 0.03463386
  vertex 0.0123542361 0.00164377748 0.0345760994
  endloop
 endfacet

 facet normal 0.923463762 0.124723181 0.362848222
  outer loop
  vertex 0.0126425754 0.00276717823 0.0334561095
  vertex 0.0123542361 0.00164377748 0.0345760994
  vertex 0.012531016 0.000334878103 0.0345760994
  endloop
 endfacet

 facet normal 0.946147203 0.0732500777 0.315340787
  outer loop
  vertex 0.012531016 0.000334878103 0.0345760994
  vertex 0.012601383 -0.00620961795 0.0358851813
  vertex 0.0126322769 -0.000973074581 0.0345760994
  endloop
 endfacet

 facet normal 0.894396484 0.120797336 0.430654109
  outer loop
  vertex 0.012531016 0.000334878103 0.0345760994
  vertex 0.0123542361 0.00164377748 0.0345760994
  vertex 0.0121070892 0.000334878103 0.0354565233
  endloop
 endfacet

 facet normal 0.89607805 0.104322337 0.431463808
  outer loop
  vertex 0.012531016 0.000334878103 0.0345760994
  vertex 0.0121070892 0.000334878103 0.0354565233
  vertex 0.012192904 -0.000973074581 0.0355945453
  endloop
 endfacet

 facet normal 0.900251627 0.0976482555 0.42427814
  outer loop
  vertex 0.012531016 0.000334878103 0.0345760994
  vertex 0.012192904 -0.000973074581 0.0355945453
  vertex 0.0121688759 -0.00620961795 0.0368507281
  endloop
 endfacet

 facet normal 0.908820271 0.0912025124 0.407096773
  outer loop
  vertex 0.012531016 0.000334878103 0.0345760994
  vertex 0.0121688759 -0.00620961795 0.0368507281
  vertex 0.012601383 -0.00620961795 0.0358851813
  endloop
 endfacet

 facet normal 0.975073576 0.0483808741 0.216542587
  outer loop
  vertex 0.0126322769 -0.000973074581 0.0345760994
  vertex 0.012601383 -0.00620961795 0.0358851813
  vertex 0.0126357106 -0.00690145139 0.0358851813
  endloop
 endfacet

 facet normal 0.996582687 -0.0179357119 0.0806306154
  outer loop
  vertex 0.0131059764 -0.00620961795 0.03110791
  vertex 0.0129686715 -0.00690145139 0.0326510817
  vertex 0.0130613521 -0.00690145139 0.0315055586
  endloop
 endfacet

 facet normal 0.996994257 -0.0215295218 0.0744242594
  outer loop
  vertex 0.0131059764 -0.00620961795 0.03110791
  vertex 0.0130613521 -0.00690145139 0.0315055586
  vertex 0.01310426 -0.0062891175 0.03110791
  endloop
 endfacet

 facet normal -0.0645847768 -0.0633015037 -0.995902479
  outer loop
  vertex 0.00153811707 0.00156333169 0.03110791
  vertex 0.00983470958 -0.00690145139 0.03110791
  vertex -0.00442774035 -0.00146615971 0.0316873603
  endloop
 endfacet

 facet normal -1 0 0
  outer loop
  vertex -0.00442774035 -0.00146615971 0.0316873603
  vertex -0.00442774035 -0.00690145139 0.0329046324
  vertex -0.00442774035 -0.00690145139 0.0373195186
  endloop
 endfacet

 facet normal -1 0 0
  outer loop
  vertex -0.00442774035 -0.00146615971 0.0316873603
  vertex -0.00442774035 -0.00690145139 0.0373195186
  vertex -0.00442774035 -0.00312712742 0.036465846
  endloop
 endfacet

 facet normal -1 0 0
  outer loop
  vertex -0.00442774035 -0.00146615971 0.0316873603
  vertex -0.00442774035 -0.00312712742 0.036465846
  vertex -0.00442774035 -0.00146615971 0.0360894762
  endloop
 endfacet

 facet normal -0.122011989 -0.216910571 -0.968536496
  outer loop
  vertex -0.00442774035 -0.00146615971 0.0316873603
  vertex 0.00983470958 -0.00690145139 0.03110791
  vertex -0.00442774035 -0.00690145139 0.0329046324
  endloop
 endfacet

 facet normal -0.123460695 0.21930334 0.967813849
  outer loop
  vertex 0.00153811707 0.00276717823 0.035891261
  vertex -0.00442774035 -0.00146615971 0.0360894762
  vertex -0.00442774035 -0.00312712742 0.036465846
  endloop
 endfacet

 facet normal -0.123077735 0.218928754 0.967947364
  outer loop
  vertex 0.00153811707 0.00276717823 0.035891261
  vertex -0.00442774035 -0.00312712742 0.036465846
  vertex -0.00442774035 -0.00690145139 0.0373195186
  endloop
 endfacet

 facet normal 0 0.146134824 0.989264667
  outer loop
  vertex 0.00153811707 0.00276717823 0.035891261
  vertex -0.00442774035 -0.00690145139 0.0373195186
  vertex 0.00153811707 -0.00690145139 0.0373195186
  endloop
 endfacet

 facet normal 0 0.146134824 0.989264667
  outer loop
  vertex 0.00153811707 0.00276717823 0.035891261
  vertex 0.00153811707 -0.00690145139 0.0373195186
  vertex 0.00725510996 0.00276717823 0.035891261
  endloop
 endfacet

 facet normal 0.92482084 0.0458874516 0.377625227
  outer loop
  vertex 0.0126357106 -0.00690145139 0.0358851813
  vertex 0.012601383 -0.00620961795 0.0358851813
  vertex 0.0123988595 -0.00690145139 0.0364652388
  endloop
 endfacet

 facet normal 0.840613067 0.154793382 0.519046009
  outer loop
  vertex 0.0121671595 0.00276717823 0.03463386
  vertex 0.0121431313 0.00276717823 0.0346727744
  vertex 0.0121070892 0.000334878103 0.0354565233
  endloop
 endfacet

 facet normal 0.890582025 0.125832975 0.437069654
  outer loop
  vertex 0.0121671595 0.00276717823 0.03463386
  vertex 0.0121070892 0.000334878103 0.0354565233
  vertex 0.0123542361 0.00164377748 0.0345760994
  endloop
 endfacet

 facet normal 0.90989244 0.0773097128 0.407577038
  outer loop
  vertex 0.012601383 -0.00620961795 0.0358851813
  vertex 0.0121688759 -0.00620961795 0.0368507281
  vertex 0.0121963369 -0.00690145139 0.0369206518
  endloop
 endfacet

 facet normal 0.911285639 0.0730115101 0.405250281
  outer loop
  vertex 0.012601383 -0.00620961795 0.0358851813
  vertex 0.0121963369 -0.00690145139 0.0369206518
  vertex 0.0123988595 -0.00690145139 0.0364652388
  endloop
 endfacet

 facet normal 0.66659683 0.165421054 0.726831853
  outer loop
  vertex 0.0121070892 0.000334878103 0.0354565233
  vertex 0.0119440407 0.00164377748 0.0353081636
  vertex 0.0120470189 -0.00489977282 0.0367029794
  endloop
 endfacet

 facet normal 0.760184407 0.142229974 0.633948267
  outer loop
  vertex 0.0121070892 0.000334878103 0.0354565233
  vertex 0.0120470189 -0.00489977282 0.0367029794
  vertex 0.0121688759 -0.00620961795 0.0368507281
  endloop
 endfacet

 facet normal 0.881290674 0.106409699 0.46043855
  outer loop
  vertex 0.0121070892 0.000334878103 0.0354565233
  vertex 0.0121688759 -0.00620961795 0.0368507281
  vertex 0.012192904 -0.000973074581 0.0355945453
  endloop
 endfacet

 facet normal 0.820502698 0.164270103 0.547531486
  outer loop
  vertex 0.0121070892 0.000334878103 0.0354565233
  vertex 0.0121431313 0.00276717823 0.0346727744
  vertex 0.0119440407 0.00164377748 0.0353081636
  endloop
 endfacet

 facet normal 0.367895216 0.13795343 0.919577062
  outer loop
  vertex 0.0121688759 -0.00620961795 0.0368507281
  vertex 0.0120470189 -0.00489977282 0.0367029794
  vertex 0.011647121 -0.00690145139 0.0371632539
  endloop
 endfacet

 facet normal 0.401704997 0.107855976 0.909395576
  outer loop
  vertex 0.0121688759 -0.00620961795 0.0368507281
  vertex 0.011647121 -0.00690145139 0.0371632539
  vertex 0.0121963369 -0.00690145139 0.0369206518
  endloop
 endfacet

 facet normal 0.99722296 -0.0241187923 0.0704617649
  outer loop
  vertex 0.01310426 -0.0062891175 0.03110791
  vertex 0.0130613521 -0.00690145139 0.0315055586
  vertex 0.0131025426 -0.00636009872 0.03110791
  endloop
 endfacet

 facet normal 0.934151411 -0.254699051 -0.249979019
  outer loop
  vertex 0.0130613521 -0.00690145139 0.0315055586
  vertex 0.012954941 -0.00690145139 0.03110791
  vertex 0.0131025426 -0.00636009872 0.03110791
  endloop
 endfacet

 facet normal 0.000134307033 0.146057084 0.989276111
  outer loop
  vertex 0.00725510996 0.00276717823 0.035891261
  vertex 0.00153811707 -0.00690145139 0.0373195186
  vertex 0.0104903355 -0.00690145139 0.0373183005
  endloop
 endfacet

 facet normal 0.0121987462 0.149995863 0.9886114
  outer loop
  vertex 0.00725510996 0.00276717823 0.035891261
  vertex 0.0104903355 -0.00690145139 0.0373183005
  vertex 0.0111802872 -0.00690145139 0.0373097882
  endloop
 endfacet

 facet normal 0.0124093425 0.150079131 0.988596141
  outer loop
  vertex 0.00725510996 0.00276717823 0.035891261
  vertex 0.0111802872 -0.00690145139 0.0373097882
  vertex 0.00856293086 0.00276717823 0.0358748436
  endloop
 endfacet

 facet normal 0.788732886 0.192014784 0.583978415
  outer loop
  vertex 0.0121431313 0.00276717823 0.0346727744
  vertex 0.0121156704 0.00276717823 0.0347098634
  vertex 0.011839346 0.00231005717 0.0352333747
  endloop
 endfacet

 facet normal 0.790199161 0.189582437 0.58278966
  outer loop
  vertex 0.0121431313 0.00276717823 0.0346727744
  vertex 0.011839346 0.00231005717 0.0352333747
  vertex 0.0119440407 0.00164377748 0.0353081636
  endloop
 endfacet

 facet normal 0.639030695 0.169961661 0.750168502
  outer loop
  vertex 0.0119440407 0.00164377748 0.0353081636
  vertex 0.0119251618 -0.00398269109 0.0365990028
  vertex 0.0120470189 -0.00489977282 0.0367029794
  endloop
 endfacet

 facet normal 0.580011725 0.180307984 0.794402599
  outer loop
  vertex 0.0119440407 0.00164377748 0.0353081636
  vertex 0.011839346 0.00231005717 0.0352333747
  vertex 0.0119251618 -0.00398269109 0.0365990028
  endloop
 endfacet

 facet normal 0.327000022 0.149247929 0.933164656
  outer loop
  vertex 0.0120470189 -0.00489977282 0.0367029794
  vertex 0.0119251618 -0.00398269109 0.0365990028
  vertex 0.011647121 -0.00690145139 0.0371632539
  endloop
 endfacet

 facet normal 0.295907468 0.154055461 0.942711949
  outer loop
  vertex 0.011647121 -0.00690145139 0.0371632539
  vertex 0.0119251618 -0.00398269109 0.0365990028
  vertex 0.0111802872 -0.00690145139 0.0373097882
  endloop
 endfacet

 facet normal 0.174698442 0.190656275 0.965986907
  outer loop
  vertex 0.00856293086 0.00276717823 0.0358748436
  vertex 0.0111802872 -0.00690145139 0.0373097882
  vertex 0.0119251618 -0.00398269109 0.0365990028
  endloop
 endfacet

 facet normal 0.176283538 0.191399187 0.965551972
  outer loop
  vertex 0.00856293086 0.00276717823 0.0358748436
  vertex 0.0119251618 -0.00398269109 0.0365990028
  vertex 0.00984843913 0.00276717823 0.0356401466
  endloop
 endfacet

 facet normal 0.317582905 0.6248492 0.713235319
  outer loop
  vertex 0.0121156704 0.00276717823 0.0347098634
  vertex 0.0111802872 0.00276717823 0.035126362
  vertex 0.011839346 0.00231005717 0.0352333747
  endloop
 endfacet

 facet normal 0.317488849 0.624744773 0.713368654
  outer loop
  vertex 0.011839346 0.00231005717 0.0352333747
  vertex 0.0111802872 0.00276717823 0.035126362
  vertex 0.0102225924 0.00276717823 0.0355525911
  endloop
 endfacet

 facet normal 0.245913684 0.208768547 0.946542203
  outer loop
  vertex 0.011839346 0.00231005717 0.0352333747
  vertex 0.0102225924 0.00276717823 0.0355525911
  vertex 0.0119251618 -0.00398269109 0.0365990028
  endloop
 endfacet

 facet normal 0.223062083 0.204038411 0.953211248
  outer loop
  vertex 0.0119251618 -0.00398269109 0.0365990028
  vertex 0.0102225924 0.00276717823 0.0355525911
  vertex 0.00984843913 0.00276717823 0.0356401466
  endloop
 endfacet

endsolid AssimpScene
