solid AssimpScene
 facet normal 0.153315455 -0.988177299 0
  outer loop
  vertex -0.0312870592 -0.00787017774 0.00745929219
  vertex -0.00678467611 -0.0040686396 0.00745929219
  vertex -0.00678467611 -0.0040686396 0.0078577185
  endloop
 endfacet

 facet normal 0.153170303 -0.988160849 0.00876900274
  outer loop
  vertex -0.0312870592 -0.00787017774 0.00745929219
  vertex -0.00678467611 -0.0040686396 0.0078577185
  vertex -0.0312870592 -0.00786664244 0.0078577185
  endloop
 endfacet

 facet normal -1 0 0
  outer loop
  vertex -0.0312870592 -0.00787017774 0.00745929219
  vertex -0.0312870592 -0.00786664244 0.0078577185
  vertex -0.0312870592 -0.00778530538 0.00809122249
  endloop
 endfacet

 facet normal -1 0 0
  outer loop
  vertex -0.0312870592 -0.00787017774 0.00745929219
  vertex -0.0312870592 -0.00778530538 0.00809122249
  vertex -0.0312870592 -0.00733973179 0.00906401966
  endloop
 endfacet

 facet normal -1 0 0
  outer loop
  vertex -0.0312870592 -0.00787017774 0.00745929219
  vertex -0.0312870592 -0.00733973179 0.00906401966
  vertex -0.0312870592 -0.00690122787 0.00927670393
  endloop
 endfacet

 facet normal -1 0 0
  outer loop
  vertex -0.0312870592 -0.00787017774 0.00745929219
  vertex -0.0312870592 -0.00690122787 0.00927670393
  vertex -0.0312870592 -0.0060100765 0.00960491598
  endloop
 endfacet

 facet normal -1 0 0
  outer loop
  vertex -0.0312870592 -0.00787017774 0.00745929219
  vertex -0.0312870592 -0.0060100765 0.00960491598
  vertex -0.0312870592 -0.00546548422 0.0096273683
  endloop
 endfacet

 facet normal -1 0 0
  outer loop
  vertex -0.0312870592 -0.00787017774 0.00745929219
  vertex -0.0312870592 -0.00546548422 0.0096273683
  vertex -0.0312870592 0.00312068732 0.00972126052
  endloop
 endfacet

 facet normal -1 0 0
  outer loop
  vertex -0.0312870592 -0.00787017774 0.00745929219
  vertex -0.0312870592 0.00312068732 0.00972126052
  vertex -0.0312870592 0.00371478801 0.00972207636
  endloop
 endfacet

 facet normal -1 0 0
  outer loop
  vertex -0.0312870592 -0.00787017774 0.00745929219
  vertex -0.0312870592 0.00371478801 0.00972207636
  vertex -0.0312870592 0.00510455947 0.00971513614
  endloop
 endfacet

 facet normal -1 0 0
  outer loop
  vertex -0.0312870592 -0.00787017774 0.00745929219
  vertex -0.0312870592 0.00510455947 0.00971513614
  vertex -0.0312870592 0.00649433071 0.0096828863
  endloop
 endfacet

 facet normal -1 0 0
  outer loop
  vertex -0.0312870592 -0.00787017774 0.00745929219
  vertex -0.0312870592 0.00649433071 0.0096828863
  vertex -0.0312870592 0.00788410287 0.00958409719
  endloop
 endfacet

 facet normal -1 0 0
  outer loop
  vertex -0.0312870592 -0.00787017774 0.00745929219
  vertex -0.0312870592 0.00788410287 0.00958409719
  vertex -0.0312870592 0.0089414604 0.00903911795
  endloop
 endfacet

 facet normal -1 0 0
  outer loop
  vertex -0.0312870592 -0.00787017774 0.00745929219
  vertex -0.0312870592 0.0089414604 0.00903911795
  vertex -0.0312870592 0.00908644963 0.00857537612
  endloop
 endfacet

 facet normal -1 0 0
  outer loop
  vertex -0.0312870592 -0.00787017774 0.00745929219
  vertex -0.0312870592 0.00908644963 0.00857537612
  vertex -0.0312870592 0.00930570066 0.0078577185
  endloop
 endfacet

 facet normal -1 0 0
  outer loop
  vertex -0.0312870592 -0.00787017774 0.00745929219
  vertex -0.0312870592 0.00930570066 0.0078577185
  vertex -0.0312870592 0.00930570066 0.00745929219
  endloop
 endfacet

 facet normal 0 0 -1
  outer loop
  vertex -0.0312870592 -0.00787017774 0.00745929219
  vertex -0.0312870592 0.00930570066 0.00745929219
  vertex -0.0289773699 0.00942947157 0.00745929219
  endloop
 endfacet

 facet normal 0 0 -1
  outer loop
  vertex -0.0312870592 -0.00787017774 0.00745929219
  vertex -0.0289773699 0.00942947157 0.00745929219
  vertex -0.0276630279 0.00945776235 0.00745929219
  endloop
 endfacet

 facet normal 0 0 -1
  outer loop
  vertex -0.0312870592 -0.00787017774 0.00745929219
  vertex -0.0276630279 0.00945776235 0.00745929219
  vertex -0.0262743365 0.00940471701 0.00745929219
  endloop
 endfacet

 facet normal 0 0 -1
  outer loop
  vertex -0.0312870592 -0.00787017774 0.00745929219
  vertex -0.0262743365 0.00940471701 0.00745929219
  vertex -0.0247777123 0.00916778482 0.00745929219
  endloop
 endfacet

 facet normal 0 0 -1
  outer loop
  vertex -0.0312870592 -0.00787017774 0.00745929219
  vertex -0.0247777123 0.00916778482 0.00745929219
  vertex -0.00678467611 0.00549001759 0.00745929219
  endloop
 endfacet

 facet normal 0 0 -1
  outer loop
  vertex -0.0312870592 -0.00787017774 0.00745929219
  vertex -0.00678467611 0.00549001759 0.00745929219
  vertex -0.00678467611 -0.0040686396 0.00745929219
  endloop
 endfacet

 facet normal 1 0 0
  outer loop
  vertex -0.00678467611 -0.0040686396 0.00745929219
  vertex -0.00678467611 0.00549001759 0.00745929219
  vertex -0.00678467611 0.0231185444 0.00811163429
  endloop
 endfacet

 facet normal 1 0 0
  outer loop
  vertex -0.00678467611 -0.0040686396 0.00745929219
  vertex -0.00678467611 0.0231185444 0.00811163429
  vertex -0.00678467611 0.023160981 0.00811326597
  endloop
 endfacet

 facet normal 1 0 0
  outer loop
  vertex -0.00678467611 -0.0040686396 0.00745929219
  vertex -0.00678467611 0.023160981 0.00811326597
  vertex -0.00678467611 0.0241723657 0.00833166577
  endloop
 endfacet

 facet normal 1 0 0
  outer loop
  vertex -0.00678467611 -0.0040686396 0.00745929219
  vertex -0.00678467611 0.0241723657 0.00833166577
  vertex -0.00678467611 0.0242006555 0.00833860599
  endloop
 endfacet

 facet normal 1 0 0
  outer loop
  vertex -0.00678467611 -0.0040686396 0.00745929219
  vertex -0.00678467611 0.0242006555 0.00833860599
  vertex -0.00678467611 0.0247629285 0.00922077801
  endloop
 endfacet

 facet normal 1 0 0
  outer loop
  vertex -0.00678467611 -0.0040686396 0.00745929219
  vertex -0.00678467611 0.0247629285 0.00922077801
  vertex -0.00678467611 0.02477354 0.0092469044
  endloop
 endfacet

 facet normal 1 0 0
  outer loop
  vertex -0.00678467611 -0.0040686396 0.00745929219
  vertex -0.00678467611 0.02477354 0.0092469044
  vertex -0.00678467611 0.0246780589 0.0105936341
  endloop
 endfacet

 facet normal 1 0 0
  outer loop
  vertex -0.00678467611 -0.0040686396 0.00745929219
  vertex -0.00678467611 0.0246780589 0.0105936341
  vertex -0.00678467611 0.0246745218 0.0106356815
  endloop
 endfacet

 facet normal 1 0 0
  outer loop
  vertex -0.00678467611 -0.0040686396 0.00745929219
  vertex -0.00678467611 0.0246745218 0.0106356815
  vertex -0.00678467611 0.024101641 0.0114692738
  endloop
 endfacet

 facet normal 1 0 0
  outer loop
  vertex -0.00678467611 -0.0040686396 0.00745929219
  vertex -0.00678467611 0.024101641 0.0114692738
  vertex -0.00678467611 0.023160981 0.011618684
  endloop
 endfacet

 facet normal 1 0 0
  outer loop
  vertex -0.00678467611 -0.0040686396 0.00745929219
  vertex -0.00678467611 0.023160981 0.011618684
  vertex -0.00678467611 0.0217712093 0.0116297062
  endloop
 endfacet

 facet normal 1 0 0
  outer loop
  vertex -0.00678467611 -0.0040686396 0.00745929219
  vertex -0.00678467611 0.0217712093 0.0116297062
  vertex -0.00678467611 -0.000454526366 0.0116297062
  endloop
 endfacet

 facet normal 1 0 0
  outer loop
  vertex -0.00678467611 -0.0040686396 0.00745929219
  vertex -0.00678467611 -0.000454526366 0.0116297062
  vertex -0.00678467611 -0.0014446947 0.0114798872
  endloop
 endfacet

 facet normal 1 0 0
  outer loop
  vertex -0.00678467611 -0.0040686396 0.00745929219
  vertex -0.00678467611 -0.0014446947 0.0114798872
  vertex -0.00678467611 -0.00398376817 0.00873050094
  endloop
 endfacet

 facet normal 1 0 0
  outer loop
  vertex -0.00678467611 -0.0040686396 0.00745929219
  vertex -0.00678467611 -0.00398376817 0.00873050094
  vertex -0.00678467611 -0.00399791403 0.00870968122
  endloop
 endfacet

 facet normal 1 0 0
  outer loop
  vertex -0.00678467611 -0.0040686396 0.00745929219
  vertex -0.00678467611 -0.00399791403 0.00870968122
  vertex -0.00678467611 -0.0040686396 0.0078577185
  endloop
 endfacet

 facet normal 0.15266338 -0.984890401 0.0817606151
  outer loop
  vertex -0.00678467611 -0.0040686396 0.0078577185
  vertex -0.00678467611 -0.00399791403 0.00870968122
  vertex -0.0312870592 -0.00786664244 0.0078577185
  endloop
 endfacet

 facet normal 0.136381045 -0.93552506 0.325873107
  outer loop
  vertex -0.0312870592 -0.00786664244 0.0078577185
  vertex -0.00678467611 -0.00399791403 0.00870968122
  vertex -0.0312870592 -0.00778530538 0.00809122249
  endloop
 endfacet

 facet normal -0.937174082 0.348861992 0
  outer loop
  vertex -0.0312870592 0.00930570066 0.00745929219
  vertex -0.0312870592 0.00930570066 0.0078577185
  vertex -0.0242812391 0.0281259641 0.0102421539
  endloop
 endfacet

 facet normal -0.937174082 0.348861992 0
  outer loop
  vertex -0.0312870592 0.00930570066 0.00745929219
  vertex -0.0242812391 0.0281259641 0.0102421539
  vertex -0.0242812391 0.0281259641 0.00953511056
  endloop
 endfacet

 facet normal -0.906100392 0.361529678 -0.219723746
  outer loop
  vertex -0.0312870592 0.00930570066 0.00745929219
  vertex -0.0242812391 0.0281259641 0.00953511056
  vertex -0.0241229404 0.0279597584 0.00860884972
  endloop
 endfacet

 facet normal -0.393124282 0.206200108 -0.896066308
  outer loop
  vertex -0.0312870592 0.00930570066 0.00745929219
  vertex -0.0241229404 0.0279597584 0.00860884972
  vertex -0.0242860373 0.0270332433 0.00846719649
  endloop
 endfacet

 facet normal -0.223072469 0.142920285 -0.96426785
  outer loop
  vertex -0.0312870592 0.00930570066 0.00745929219
  vertex -0.0242860373 0.0270332433 0.00846719649
  vertex -0.0235928893 0.0274293106 0.00836554822
  endloop
 endfacet

 facet normal -0.169765517 0.120977625 -0.978030682
  outer loop
  vertex -0.0312870592 0.00930570066 0.00745929219
  vertex -0.0235928893 0.0274293106 0.00836554822
  vertex -0.0234945547 0.0259369891 0.00816388614
  endloop
 endfacet

 facet normal -0.0445487946 0.0631121024 -0.997011662
  outer loop
  vertex -0.0312870592 0.00930570066 0.00745929219
  vertex -0.0234945547 0.0259369891 0.00816388614
  vertex -0.0221058615 0.0259369891 0.00810183678
  endloop
 endfacet

 facet normal -0.00213176222 0.0397808217 -0.999206185
  outer loop
  vertex -0.0312870592 0.00930570066 0.00745929219
  vertex -0.0221058615 0.0259369891 0.00810183678
  vertex -0.0289773699 0.00942947157 0.00745929219
  endloop
 endfacet

 facet normal 0.00742303347 0.0363163091 -0.999312818
  outer loop
  vertex -0.00678467611 0.00549001759 0.00745929219
  vertex -0.0247777123 0.00916778482 0.00745929219
  vertex -0.0193284769 0.0259369891 0.00810918398
  endloop
 endfacet

 facet normal 0.00814521126 0.0367586501 -0.999290943
  outer loop
  vertex -0.00678467611 0.00549001759 0.00745929219
  vertex -0.0193284769 0.0259369891 0.00810918398
  vertex -0.0137737067 0.0245507527 0.00810346846
  endloop
 endfacet

 facet normal 0.00862330478 0.0369336009 -0.999280572
  outer loop
  vertex -0.00678467611 0.00549001759 0.00745929219
  vertex -0.0137737067 0.0245507527 0.00810346846
  vertex -0.00682784896 0.023160981 0.00811204221
  endloop
 endfacet

 facet normal 0.0268993713 0.0369662121 -0.998954475
  outer loop
  vertex -0.00678467611 0.00549001759 0.00745929219
  vertex -0.00682784896 0.023160981 0.00811204221
  vertex -0.00678467611 0.0231185444 0.00811163429
  endloop
 endfacet

 facet normal 0.120063961 -0.821157157 0.557929635
  outer loop
  vertex -0.00678467611 -0.00399791403 0.00870968122
  vertex -0.00678467611 -0.00398376817 0.00873050094
  vertex -0.0312870592 -0.00733973179 0.00906401966
  endloop
 endfacet

 facet normal 0.128935963 -0.901579082 0.412953675
  outer loop
  vertex -0.00678467611 -0.00399791403 0.00870968122
  vertex -0.0312870592 -0.00733973179 0.00906401966
  vertex -0.0312870592 -0.00778530538 0.00809122249
  endloop
 endfacet

 facet normal -0.000844762661 0.0392459929 -0.999229312
  outer loop
  vertex -0.0289773699 0.00942947157 0.00745929219
  vertex -0.0221058615 0.0259369891 0.00810183678
  vertex -0.0276630279 0.00945776235 0.00745929219
  endloop
 endfacet

 facet normal -0.936412573 0.335589021 0.102525726
  outer loop
  vertex -0.0312870592 0.00930570066 0.0078577185
  vertex -0.0312870592 0.00908644963 0.00857537612
  vertex -0.0242812391 0.0281259641 0.0102421539
  endloop
 endfacet

 facet normal -0.186740667 0.982409239 0
  outer loop
  vertex -0.0242812391 0.0281259641 0.00953511056
  vertex -0.0242812391 0.0281259641 0.0102421539
  vertex -0.0235928893 0.0282568075 0.00914199091
  endloop
 endfacet

 facet normal -0.300982684 0.928372741 -0.21802187
  outer loop
  vertex -0.0242812391 0.0281259641 0.00953511056
  vertex -0.0235928893 0.0282568075 0.00914199091
  vertex -0.0241229404 0.0279597584 0.00860884972
  endloop
 endfacet

 facet normal -0.191642493 0.925958395 -0.325383246
  outer loop
  vertex -0.0241229404 0.0279597584 0.00860884972
  vertex -0.0235928893 0.0282568075 0.00914199091
  vertex -0.023197148 0.0281047467 0.00847617816
  endloop
 endfacet

 facet normal -0.176647067 0.259029418 -0.949578702
  outer loop
  vertex -0.0241229404 0.0279597584 0.00860884972
  vertex -0.023197148 0.0281047467 0.00847617816
  vertex -0.0235928893 0.0274293106 0.00836554822
  endloop
 endfacet

 facet normal -0.247265682 0.188826889 -0.950370491
  outer loop
  vertex -0.0241229404 0.0279597584 0.00860884972
  vertex -0.0235928893 0.0274293106 0.00836554822
  vertex -0.0242860373 0.0270332433 0.00846719649
  endloop
 endfacet

 facet normal -0.0270690881 0.177002147 -0.983838081
  outer loop
  vertex -0.0235928893 0.0274293106 0.00836554822
  vertex -0.023197148 0.0281047467 0.00847617816
  vertex -0.0219835415 0.0274576023 0.00832635909
  endloop
 endfacet

 facet normal -0.0266775042 0.148116931 -0.988610089
  outer loop
  vertex -0.0235928893 0.0274293106 0.00836554822
  vertex -0.0219835415 0.0274576023 0.00832635909
  vertex -0.0221058615 0.0259369891 0.00810183678
  endloop
 endfacet

 facet normal -0.0442535765 0.130920321 -0.990404725
  outer loop
  vertex -0.0235928893 0.0274293106 0.00836554822
  vertex -0.0221058615 0.0259369891 0.00810183678
  vertex -0.0234945547 0.0259369891 0.00816388614
  endloop
 endfacet

 facet normal 0 0.146069095 -0.989274442
  outer loop
  vertex -0.0221058615 0.0259369891 0.00810183678
  vertex -0.0219835415 0.0274576023 0.00832635909
  vertex -0.0207171682 0.0259369891 0.00810183678
  endloop
 endfacet

 facet normal 0 0.038961567 -0.999240756
  outer loop
  vertex -0.0221058615 0.0259369891 0.00810183678
  vertex -0.0207171682 0.0259369891 0.00810183678
  vertex -0.0276630279 0.00945776235 0.00745929219
  endloop
 endfacet

 facet normal 0.00583113078 0.0368332751 -0.999304414
  outer loop
  vertex -0.0247777123 0.00916778482 0.00745929219
  vertex -0.0262743365 0.00940471701 0.00745929219
  vertex -0.0193284769 0.0259369891 0.00810918398
  endloop
 endfacet

 facet normal 0.026011996 0.119183265 -0.992531598
  outer loop
  vertex -0.0193284769 0.0259369891 0.00810918398
  vertex -0.0179421827 0.0259369891 0.00814551581
  vertex -0.0123850163 0.0245507527 0.00812469702
  endloop
 endfacet

 facet normal 0.0200071558 0.0890690088 -0.995824516
  outer loop
  vertex -0.0193284769 0.0259369891 0.00810918398
  vertex -0.0123850163 0.0245507527 0.00812469702
  vertex -0.00682784896 0.023160981 0.00811204221
  endloop
 endfacet

 facet normal 0.0103763808 0.0456975326 -0.998901486
  outer loop
  vertex -0.0193284769 0.0259369891 0.00810918398
  vertex -0.00682784896 0.023160981 0.00811204221
  vertex -0.0137737067 0.0245507527 0.00810346846
  endloop
 endfacet

 facet normal 0.00528737158 0.0370615236 -0.999299109
  outer loop
  vertex -0.0193284769 0.0259369891 0.00810918398
  vertex -0.0262743365 0.00940471701 0.00745929219
  vertex -0.0207171682 0.0259369891 0.00810183678
  endloop
 endfacet

 facet normal 0.00523087941 0.150329053 -0.988622189
  outer loop
  vertex -0.0193284769 0.0259369891 0.00810918398
  vertex -0.0207171682 0.0259369891 0.00810183678
  vertex -0.0219835415 0.0274576023 0.00832635909
  endloop
 endfacet

 facet normal 0.0257452559 0.18525286 -0.982353628
  outer loop
  vertex -0.0193284769 0.0259369891 0.00810918398
  vertex -0.0219835415 0.0274576023 0.00832635909
  vertex -0.0179421827 0.0259369891 0.00814551581
  endloop
 endfacet

 facet normal 0.0281395242 0.121554121 -0.992185831
  outer loop
  vertex -0.00682784896 0.023160981 0.00811204221
  vertex -0.0123850163 0.0245507527 0.00812469702
  vertex -0.00678467611 0.023160981 0.00811326597
  endloop
 endfacet

 facet normal 0.0283288173 0.0384195708 -0.99886018
  outer loop
  vertex -0.00682784896 0.023160981 0.00811204221
  vertex -0.00678467611 0.023160981 0.00811326597
  vertex -0.00678467611 0.0231185444 0.00811163429
  endloop
 endfacet

 facet normal 0.109198593 -0.730253339 0.674392939
  outer loop
  vertex -0.00678467611 -0.00398376817 0.00873050094
  vertex -0.00678467611 -0.0014446947 0.0114798872
  vertex -0.0312870592 -0.00733973179 0.00906401966
  endloop
 endfacet

 facet normal 0.0162783526 -0.436342329 0.899633527
  outer loop
  vertex -0.0312870592 -0.00733973179 0.00906401966
  vertex -0.00678467611 -0.0014446947 0.0114798872
  vertex -0.0312870592 -0.00690122787 0.00927670393
  endloop
 endfacet

 facet normal 0.00146470731 0.0383450948 -0.999263585
  outer loop
  vertex -0.0276630279 0.00945776235 0.00745929219
  vertex -0.0207171682 0.0259369891 0.00810183678
  vertex -0.0262743365 0.00940471701 0.00745929219
  endloop
 endfacet

 facet normal -0.936250329 0.335326672 0.104839966
  outer loop
  vertex -0.0312870592 0.00908644963 0.00857537612
  vertex -0.0312870592 0.0089414604 0.00903911795
  vertex -0.0242812391 0.0281259641 0.0102421539
  endloop
 endfacet

 facet normal -0.825128436 0.356249541 0.438462585
  outer loop
  vertex -0.0242812391 0.0281259641 0.0102421539
  vertex -0.0244011618 0.0273126122 0.01067732
  vertex -0.0242380649 0.0268387478 0.0113692591
  endloop
 endfacet

 facet normal -0.793598533 0.385537833 0.470703691
  outer loop
  vertex -0.0242812391 0.0281259641 0.0102421539
  vertex -0.0242380649 0.0268387478 0.0113692591
  vertex -0.023907084 0.027765261 0.0111684129
  endloop
 endfacet

 facet normal -0.353108436 0.814737439 0.459910095
  outer loop
  vertex -0.0242812391 0.0281259641 0.0102421539
  vertex -0.023907084 0.027765261 0.0111684129
  vertex -0.0229788888 0.0280587748 0.0113610951
  endloop
 endfacet

 facet normal -0.334923863 0.833277166 0.439858168
  outer loop
  vertex -0.0242812391 0.0281259641 0.0102421539
  vertex -0.0229788888 0.0280587748 0.0113610951
  vertex -0.023463374 0.0282249842 0.01067732
  endloop
 endfacet

 facet normal -0.136932895 0.990060985 0.0320736878
  outer loop
  vertex -0.0242812391 0.0281259641 0.0102421539
  vertex -0.023463374 0.0282249842 0.01067732
  vertex -0.0235928893 0.0282568075 0.00914199091
  endloop
 endfacet

 facet normal -0.894466996 0.306210309 0.325828224
  outer loop
  vertex -0.0242812391 0.0281259641 0.0102421539
  vertex -0.0312870592 0.0089414604 0.00903911795
  vertex -0.0244011618 0.0273126122 0.01067732
  endloop
 endfacet

 facet normal 0.00132375339 0.975424051 -0.220331848
  outer loop
  vertex -0.0235928893 0.0282568075 0.00914199091
  vertex -0.0219835415 0.0282497369 0.00912035443
  vertex -0.0223648921 0.0281047467 0.00847617816
  endloop
 endfacet

 facet normal 0 0.974897742 -0.222653121
  outer loop
  vertex -0.0235928893 0.0282568075 0.00914199091
  vertex -0.0223648921 0.0281047467 0.00847617816
  vertex -0.023197148 0.0281047467 0.00847617816
  endloop
 endfacet

 facet normal 0.00239519775 0.999786556 0.0205220282
  outer loop
  vertex -0.0235928893 0.0282568075 0.00914199091
  vertex -0.023463374 0.0282249842 0.01067732
  vertex -0.0221274476 0.028221447 0.0106936488
  endloop
 endfacet

 facet normal 0.0046405131 0.999819934 0.0184022319
  outer loop
  vertex -0.0235928893 0.0282568075 0.00914199091
  vertex -0.0221274476 0.028221447 0.0106936488
  vertex -0.0219835415 0.0282497369 0.00912035443
  endloop
 endfacet

 facet normal 0 0.225542039 -0.974233508
  outer loop
  vertex -0.023197148 0.0281047467 0.00847617816
  vertex -0.0223648921 0.0281047467 0.00847617816
  vertex -0.0219835415 0.0274576023 0.00832635909
  endloop
 endfacet

 facet normal 0.0455685705 0.250717223 -0.966987312
  outer loop
  vertex -0.0219835415 0.0274576023 0.00832635909
  vertex -0.0223648921 0.0281047467 0.00847617816
  vertex -0.0193284769 0.0270049516 0.00833411608
  endloop
 endfacet

 facet normal 0.0412858389 0.225487038 -0.973371089
  outer loop
  vertex -0.0219835415 0.0274576023 0.00832635909
  vertex -0.0193284769 0.0270049516 0.00833411608
  vertex -0.0179421827 0.0259369891 0.00814551581
  endloop
 endfacet

 facet normal 0.047779806 0.233528882 -0.971175194
  outer loop
  vertex -0.0179421827 0.0259369891 0.00814551581
  vertex -0.0193284769 0.0270049516 0.00833411608
  vertex -0.0179421827 0.0268741101 0.00837085582
  endloop
 endfacet

 facet normal 0.0523600355 0.233475223 -0.970952094
  outer loop
  vertex -0.0179421827 0.0259369891 0.00814551581
  vertex -0.0179421827 0.0268741101 0.00837085582
  vertex -0.0109963231 0.0245507527 0.00818674732
  endloop
 endfacet

 facet normal 0.0438212082 0.19039987 -0.98072809
  outer loop
  vertex -0.0179421827 0.0259369891 0.00814551581
  vertex -0.0109963231 0.0245507527 0.00818674732
  vertex -0.0123850163 0.0245507527 0.00812469702
  endloop
 endfacet

 facet normal 0.0438685231 0.184851468 -0.981787026
  outer loop
  vertex -0.0123850163 0.0245507527 0.00812469702
  vertex -0.0109963231 0.0245507527 0.00818674732
  vertex -0.00678467611 0.023160981 0.00811326597
  endloop
 endfacet

 facet normal 0.0525248013 0.210784405 -0.976120532
  outer loop
  vertex -0.00678467611 0.023160981 0.00811326597
  vertex -0.0109963231 0.0245507527 0.00818674732
  vertex -0.00678467611 0.0241723657 0.00833166577
  endloop
 endfacet

 facet normal 0 -0.149603277 0.988746107
  outer loop
  vertex -0.00678467611 -0.0014446947 0.0114798872
  vertex -0.00678467611 -0.000454526366 0.0116297062
  vertex -0.00682784896 -0.000454526366 0.0116297062
  endloop
 endfacet

 facet normal -0.00726568978 -0.149909034 0.988673151
  outer loop
  vertex -0.00678467611 -0.0014446947 0.0114798872
  vertex -0.00682784896 -0.000454526366 0.0116297062
  vertex -0.00821654033 -0.000454526366 0.0116195008
  endloop
 endfacet

 facet normal -0.0129371304 -0.157926112 0.987366199
  outer loop
  vertex -0.00678467611 -0.0014446947 0.0114798872
  vertex -0.00821654033 -0.000454526366 0.0116195008
  vertex -0.00682784896 -0.00144115801 0.0114798872
  endloop
 endfacet

 facet normal -0.022466911 -0.274258047 0.961393595
  outer loop
  vertex -0.00678467611 -0.0014446947 0.0114798872
  vertex -0.00682784896 -0.00144115801 0.0114798872
  vertex -0.0312870592 -0.0060100765 0.00960491598
  endloop
 endfacet

 facet normal -0.00741173979 -0.34559685 0.938353896
  outer loop
  vertex -0.00678467611 -0.0014446947 0.0114798872
  vertex -0.0312870592 -0.0060100765 0.00960491598
  vertex -0.0312870592 -0.00690122787 0.00927670393
  endloop
 endfacet

 facet normal -0.82449615 0.259248018 0.502987742
  outer loop
  vertex -0.0312870592 0.0089414604 0.00903911795
  vertex -0.0312870592 0.00788410287 0.00958409719
  vertex -0.0242380649 0.0268387478 0.0113692591
  endloop
 endfacet

 facet normal -0.868242025 0.289506495 0.402916729
  outer loop
  vertex -0.0312870592 0.0089414604 0.00903911795
  vertex -0.0242380649 0.0268387478 0.0113692591
  vertex -0.0244011618 0.0273126122 0.01067732
  endloop
 endfacet

 facet normal -0.178688318 0.0729843304 0.981195092
  outer loop
  vertex -0.0242380649 0.0268387478 0.0113692591
  vertex -0.0243172161 0.0259369891 0.0114219207
  vertex -0.0234945547 0.0259369891 0.0115717379
  endloop
 endfacet

 facet normal -0.142969295 0.103140883 0.984338343
  outer loop
  vertex -0.0242380649 0.0268387478 0.0113692591
  vertex -0.0234945547 0.0259369891 0.0115717379
  vertex -0.023463374 0.0273126122 0.0114321262
  endloop
 endfacet

 facet normal -0.219094798 0.232466549 0.947605789
  outer loop
  vertex -0.0242380649 0.0268387478 0.0113692591
  vertex -0.023463374 0.0273126122 0.0114321262
  vertex -0.0229788888 0.0280587748 0.0113610951
  endloop
 endfacet

 facet normal -0.283650696 0.298850119 0.911170125
  outer loop
  vertex -0.0242380649 0.0268387478 0.0113692591
  vertex -0.0229788888 0.0280587748 0.0113610951
  vertex -0.023907084 0.027765261 0.0111684129
  endloop
 endfacet

 facet normal -0.55143255 0.127425417 0.824430108
  outer loop
  vertex -0.0242380649 0.0268387478 0.0113692591
  vertex -0.0312870592 0.00788410287 0.00958409719
  vertex -0.0255931802 0.0211488176 0.0113423169
  endloop
 endfacet

 facet normal -0.400316417 0.091021657 0.911845326
  outer loop
  vertex -0.0242380649 0.0268387478 0.0113692591
  vertex -0.0255931802 0.0211488176 0.0113423169
  vertex -0.0256579388 0.0203814376 0.0113904867
  endloop
 endfacet

 facet normal -0.383525312 0.0873543248 0.919389844
  outer loop
  vertex -0.0242380649 0.0268387478 0.0113692591
  vertex -0.0256579388 0.0203814376 0.0113904867
  vertex -0.0243172161 0.0259369891 0.0114219207
  endloop
 endfacet

 facet normal -0.0337752774 0.116423592 0.992625177
  outer loop
  vertex -0.0229788888 0.0280587748 0.0113610951
  vertex -0.023463374 0.0273126122 0.0114321262
  vertex -0.0221274476 0.0273904111 0.011468458
  endloop
 endfacet

 facet normal 0 0.158602148 0.987342596
  outer loop
  vertex -0.0229788888 0.0280587748 0.0113610951
  vertex -0.0221274476 0.0273904111 0.011468458
  vertex -0.0226047356 0.0280587748 0.0113610951
  endloop
 endfacet

 facet normal 0 0.971559942 0.236793801
  outer loop
  vertex -0.0229788888 0.0280587748 0.0113610951
  vertex -0.0226047356 0.0280587748 0.0113610951
  vertex -0.0221274476 0.028221447 0.0106936488
  endloop
 endfacet

 facet normal -0.00031800248 0.971653163 0.236410841
  outer loop
  vertex -0.0229788888 0.0280587748 0.0113610951
  vertex -0.0221274476 0.028221447 0.0106936488
  vertex -0.023463374 0.0282249842 0.01067732
  endloop
 endfacet

 facet normal 0.206837937 0.954754293 -0.21368745
  outer loop
  vertex -0.0219835415 0.0282497369 0.00912035443
  vertex -0.0209881924 0.0281188935 0.00949918665
  vertex -0.0214390978 0.0280092657 0.00857292581
  endloop
 endfacet

 facet normal 0.128069833 0.948622465 -0.289332658
  outer loop
  vertex -0.0219835415 0.0282497369 0.00912035443
  vertex -0.0214390978 0.0280092657 0.00857292581
  vertex -0.0223648921 0.0281047467 0.00847617816
  endloop
 endfacet

 facet normal 0.0995887145 0.994662464 0.026994234
  outer loop
  vertex -0.0219835415 0.0282497369 0.00912035443
  vertex -0.0221274476 0.028221447 0.0106936488
  vertex -0.0209881924 0.0281188935 0.010269504
  endloop
 endfacet

 facet normal 0.130334467 0.991470098 0
  outer loop
  vertex -0.0219835415 0.0282497369 0.00912035443
  vertex -0.0209881924 0.0281188935 0.010269504
  vertex -0.0209881924 0.0281188935 0.00949918665
  endloop
 endfacet

 facet normal 0.144986257 0.64946717 -0.746439159
  outer loop
  vertex -0.0223648921 0.0281047467 0.00847617816
  vertex -0.0214390978 0.0280092657 0.00857292581
  vertex -0.0156948529 0.0266654678 0.00851944927
  endloop
 endfacet

 facet normal 0.120542079 0.53345722 -0.837193608
  outer loop
  vertex -0.0223648921 0.0281047467 0.00847617816
  vertex -0.0156948529 0.0266654678 0.00851944927
  vertex -0.00994341262 0.0253145956 0.00848679058
  endloop
 endfacet

 facet normal 0.110737905 0.489704818 -0.864827335
  outer loop
  vertex -0.0223648921 0.0281047467 0.00847617816
  vertex -0.00994341262 0.0253145956 0.00848679058
  vertex -0.0165510923 0.0267468039 0.00845168345
  endloop
 endfacet

 facet normal 0.0921424106 0.4108527 -0.907033563
  outer loop
  vertex -0.0223648921 0.0281047467 0.00847617816
  vertex -0.0165510923 0.0267468039 0.00845168345
  vertex -0.0109963231 0.0254136119 0.0084120864
  endloop
 endfacet

 facet normal 0.0893740058 0.399286956 -0.912459493
  outer loop
  vertex -0.0223648921 0.0281047467 0.00847617816
  vertex -0.0109963231 0.0254136119 0.0084120864
  vertex -0.0179421827 0.0268741101 0.00837085582
  endloop
 endfacet

 facet normal 0.0504105948 0.263610691 -0.963311136
  outer loop
  vertex -0.0223648921 0.0281047467 0.00847617816
  vertex -0.0179421827 0.0268741101 0.00837085582
  vertex -0.0193284769 0.0270049516 0.00833411608
  endloop
 endfacet

 facet normal 0.201763958 0.908589721 0.365726769
  outer loop
  vertex -0.0221274476 0.028221447 0.0106936488
  vertex -0.0226047356 0.0280587748 0.0113610951
  vertex -0.0159227047 0.0265982766 0.0113031268
  endloop
 endfacet

 facet normal 0.207501739 0.919036269 0.335135043
  outer loop
  vertex -0.0221274476 0.028221447 0.0106936488
  vertex -0.0159227047 0.0265982766 0.0113031268
  vertex -0.0209881924 0.0281188935 0.010269504
  endloop
 endfacet

 facet normal 0.0707657114 0.309781224 -0.948170781
  outer loop
  vertex -0.0179421827 0.0268741101 0.00837085582
  vertex -0.0109963231 0.0254136119 0.0084120864
  vertex -0.0123850163 0.02554092 0.00835003704
  endloop
 endfacet

 facet normal 0.0524081141 0.233616069 -0.970915616
  outer loop
  vertex -0.0179421827 0.0268741101 0.00837085582
  vertex -0.0123850163 0.02554092 0.00835003704
  vertex -0.0109963231 0.0245507527 0.00818674732
  endloop
 endfacet

 facet normal 0.0546360426 0.236601159 -0.970069528
  outer loop
  vertex -0.0109963231 0.0245507527 0.00818674732
  vertex -0.0123850163 0.02554092 0.00835003704
  vertex -0.00678467611 0.0241723657 0.00833166577
  endloop
 endfacet

 facet normal 0.054952696 0.237892494 -0.969735742
  outer loop
  vertex -0.00678467611 0.0241723657 0.00833166577
  vertex -0.0123850163 0.02554092 0.00835003704
  vertex -0.00678467611 0.0242006555 0.00833860599
  endloop
 endfacet

 facet normal 0 0 1
  outer loop
  vertex -0.00678467611 -0.000454526366 0.0116297062
  vertex -0.00678467611 0.0217712093 0.0116297062
  vertex -0.00821654033 0.023160981 0.0116297062
  endloop
 endfacet

 facet normal 0 0 1
  outer loop
  vertex -0.00678467611 -0.000454526366 0.0116297062
  vertex -0.00821654033 0.023160981 0.0116297062
  vertex -0.0207171682 0.0259369891 0.0116297062
  endloop
 endfacet

 facet normal 0 0 1
  outer loop
  vertex -0.00678467611 -0.000454526366 0.0116297062
  vertex -0.0207171682 0.0259369891 0.0116297062
  vertex -0.0221058615 0.0259369891 0.0116297062
  endloop
 endfacet

 facet normal 0 0 1
  outer loop
  vertex -0.00678467611 -0.000454526366 0.0116297062
  vertex -0.0221058615 0.0259369891 0.0116297062
  vertex -0.024885647 0.0162156597 0.0116297062
  endloop
 endfacet

 facet normal 0 0 1
  outer loop
  vertex -0.00678467611 -0.000454526366 0.0116297062
  vertex -0.024885647 0.0162156597 0.0116297062
  vertex -0.0262743365 0.00927033834 0.0116297062
  endloop
 endfacet

 facet normal 0 0 1
  outer loop
  vertex -0.00678467611 -0.000454526366 0.0116297062
  vertex -0.0262743365 0.00927033834 0.0116297062
  vertex -0.0262743365 0.00510455947 0.0116297062
  endloop
 endfacet

 facet normal 0 0 1
  outer loop
  vertex -0.00678467611 -0.000454526366 0.0116297062
  vertex -0.0262743365 0.00510455947 0.0116297062
  vertex -0.024885647 0.00371478801 0.0116297062
  endloop
 endfacet

 facet normal 0 0 1
  outer loop
  vertex -0.00678467611 -0.000454526366 0.0116297062
  vertex -0.024885647 0.00371478801 0.0116297062
  vertex -0.0193284769 0.00232501654 0.0116297062
  endloop
 endfacet

 facet normal 0 0 1
  outer loop
  vertex -0.00678467611 -0.000454526366 0.0116297062
  vertex -0.0193284769 0.00232501654 0.0116297062
  vertex -0.00682784896 -0.000454526366 0.0116297062
  endloop
 endfacet

 facet normal -0.00234657479 -0.0105534112 0.999941528
  outer loop
  vertex -0.00682784896 -0.000454526366 0.0116297062
  vertex -0.0193284769 0.00232501654 0.0116297062
  vertex -0.0137737067 0.000935245131 0.0116280736
  endloop
 endfacet

 facet normal -0.00734409038 -0.0355309062 0.999341607
  outer loop
  vertex -0.00682784896 -0.000454526366 0.0116297062
  vertex -0.0137737067 0.000935245131 0.0116280736
  vertex -0.00821654033 -0.000454526366 0.0116195008
  endloop
 endfacet

 facet normal -0.0191099383 -0.16640304 0.985872626
  outer loop
  vertex -0.00821654033 -0.000454526366 0.0116195008
  vertex -0.00821654033 -0.00134214188 0.0114696817
  vertex -0.00682784896 -0.00144115801 0.0114798872
  endloop
 endfacet

 facet normal -0.0141065661 -0.0625628382 0.997941375
  outer loop
  vertex -0.00821654033 -0.000454526366 0.0116195008
  vertex -0.0137737067 0.000935245131 0.0116280736
  vertex -0.0262743365 0.00371478801 0.0116256233
  endloop
 endfacet

 facet normal -0.0193607099 -0.0853165537 0.996165752
  outer loop
  vertex -0.00821654033 -0.000454526366 0.0116195008
  vertex -0.0262743365 0.00371478801 0.0116256233
  vertex -0.0207171682 0.00232501654 0.0116146021
  endloop
 endfacet

 facet normal -0.0302296318 -0.134208098 0.990491986
  outer loop
  vertex -0.00821654033 -0.000454526366 0.0116195008
  vertex -0.0207171682 0.00232501654 0.0116146021
  vertex -0.0151624 0.000935245131 0.0115958229
  endloop
 endfacet

 facet normal -0.0366377346 -0.166321695 0.985390663
  outer loop
  vertex -0.00821654033 -0.000454526366 0.0116195008
  vertex -0.0151624 0.000935245131 0.0115958229
  vertex -0.00821654033 -0.00134214188 0.0114696817
  endloop
 endfacet

 facet normal -0.0255808644 -0.259260118 0.965468645
  outer loop
  vertex -0.00682784896 -0.00144115801 0.0114798872
  vertex -0.00821654033 -0.00134214188 0.0114696817
  vertex -0.0312870592 -0.0060100765 0.00960491598
  endloop
 endfacet

 facet normal -0.0417893268 -0.185647562 0.981727481
  outer loop
  vertex -0.0312870592 -0.0060100765 0.00960491598
  vertex -0.00821654033 -0.00134214188 0.0114696817
  vertex -0.0207171682 0.00144801021 0.0114651918
  endloop
 endfacet

 facet normal -0.0425132625 -0.184660241 0.981882513
  outer loop
  vertex -0.0312870592 -0.0060100765 0.00960491598
  vertex -0.0207171682 0.00144801021 0.0114651918
  vertex -0.0276630279 0.0028908269 0.0114357993
  endloop
 endfacet

 facet normal -0.0587783791 -0.178114042 0.982252896
  outer loop
  vertex -0.0312870592 -0.0060100765 0.00960491598
  vertex -0.0276630279 0.0028908269 0.0114357993
  vertex -0.0276630279 0.00371478801 0.0115852095
  endloop
 endfacet

 facet normal -0.102990359 -0.161482185 0.981486917
  outer loop
  vertex -0.0312870592 -0.0060100765 0.00960491598
  vertex -0.0276630279 0.00371478801 0.0115852095
  vertex -0.0284904893 0.0029721621 0.0113761993
  endloop
 endfacet

 facet normal -0.20713447 -0.126804098 0.970059931
  outer loop
  vertex -0.0312870592 -0.0060100765 0.00960491598
  vertex -0.0284904893 0.0029721621 0.0113761993
  vertex -0.0286487825 0.00371478801 0.0114394734
  endloop
 endfacet

 facet normal -0.453887761 -0.0447465852 0.889934659
  outer loop
  vertex -0.0312870592 -0.0060100765 0.00960491598
  vertex -0.0286487825 0.00371478801 0.0114394734
  vertex -0.0293443296 0.00371478801 0.0110847279
  endloop
 endfacet

 facet normal -0.485180944 -0.0360204503 0.873671532
  outer loop
  vertex -0.0312870592 -0.0060100765 0.00960491598
  vertex -0.0293443296 0.00371478801 0.0110847279
  vertex -0.0312870592 -0.00546548422 0.0096273683
  endloop
 endfacet

 facet normal -0.545904994 0.0594069622 0.835738361
  outer loop
  vertex -0.0312870592 0.00788410287 0.00958409719
  vertex -0.0312870592 0.00649433071 0.0096828863
  vertex -0.0285672378 0.00649433071 0.0114594763
  endloop
 endfacet

 facet normal -0.538632929 0.077942431 0.838927686
  outer loop
  vertex -0.0312870592 0.00788410287 0.00958409719
  vertex -0.0285672378 0.00649433071 0.0114594763
  vertex -0.0284545105 0.00788410287 0.0114027336
  endloop
 endfacet

 facet normal -0.537821949 0.0952133089 0.837664604
  outer loop
  vertex -0.0312870592 0.00788410287 0.00958409719
  vertex -0.0284545105 0.00788410287 0.0114027336
  vertex -0.0283849575 0.00871513598 0.0113529302
  endloop
 endfacet

 facet normal -0.541852593 0.122373849 0.831516981
  outer loop
  vertex -0.0312870592 0.00788410287 0.00958409719
  vertex -0.0283849575 0.00871513598 0.0113529302
  vertex -0.0255931802 0.0211488176 0.0113423169
  endloop
 endfacet

 facet normal -0.178973421 0.0463678688 0.982760668
  outer loop
  vertex -0.0243172161 0.0259369891 0.0114219207
  vertex -0.0244275425 0.0245507527 0.0114672333
  vertex -0.0234945547 0.0259369891 0.0115717379
  endloop
 endfacet

 facet normal -0.352523655 0.0797991008 0.932394266
  outer loop
  vertex -0.0243172161 0.0259369891 0.0114219207
  vertex -0.0256579388 0.0203814376 0.0113904867
  vertex -0.0284545105 0.00788410287 0.0114027336
  endloop
 endfacet

 facet normal -0.319200546 0.0721488968 0.944936752
  outer loop
  vertex -0.0243172161 0.0259369891 0.0114219207
  vertex -0.0284545105 0.00788410287 0.0114027336
  vertex -0.0271137878 0.0134361163 0.0114317173
  endloop
 endfacet

 facet normal -0.250460893 0.0567880124 0.96645987
  outer loop
  vertex -0.0243172161 0.0259369891 0.0114219207
  vertex -0.0271137878 0.0134361163 0.0114317173
  vertex -0.0257706661 0.0189916659 0.0114533538
  endloop
 endfacet

 facet normal -0.211958393 0.0487740338 0.976060927
  outer loop
  vertex -0.0243172161 0.0259369891 0.0114219207
  vertex -0.0257706661 0.0189916659 0.0114533538
  vertex -0.0244275425 0.0245507527 0.0114672333
  endloop
 endfacet

 facet normal -0.0416842066 0.0326416418 0.998597503
  outer loop
  vertex -0.0234945547 0.0259369891 0.0115717379
  vertex -0.0234945547 0.0245507527 0.0116170505
  vertex -0.0221058615 0.0259369891 0.0116297062
  endloop
 endfacet

 facet normal -0.0414896943 0.101815037 0.993937731
  outer loop
  vertex -0.0234945547 0.0259369891 0.0115717379
  vertex -0.0221058615 0.0259369891 0.0116297062
  vertex -0.023463374 0.0273126122 0.0114321262
  endloop
 endfacet

 facet normal -0.166557372 0.037819501 0.985306323
  outer loop
  vertex -0.0234945547 0.0259369891 0.0115717379
  vertex -0.0244275425 0.0245507527 0.0114672333
  vertex -0.024885647 0.0189916659 0.0116031719
  endloop
 endfacet

 facet normal -0.139160261 0.0323521495 0.989741266
  outer loop
  vertex -0.0234945547 0.0259369891 0.0115717379
  vertex -0.024885647 0.0189916659 0.0116031719
  vertex -0.0234945547 0.0245507527 0.0116170505
  endloop
 endfacet

 facet normal -0.0334057435 0.109715551 0.993401527
  outer loop
  vertex -0.023463374 0.0273126122 0.0114321262
  vertex -0.0221058615 0.0259369891 0.0116297062
  vertex -0.0221274476 0.0273904111 0.011468458
  endloop
 endfacet

 facet normal -0.401698112 0.0910996199 0.91122973
  outer loop
  vertex -0.0255931802 0.0211488176 0.0113423169
  vertex -0.0270274449 0.014465183 0.0113782398
  vertex -0.0256579388 0.0203814376 0.0113904867
  endloop
 endfacet

 facet normal -0.412233353 0.0933338329 0.906284988
  outer loop
  vertex -0.0255931802 0.0211488176 0.0113423169
  vertex -0.0283849575 0.00871513598 0.0113529302
  vertex -0.0270274449 0.014465183 0.0113782398
  endloop
 endfacet

 facet normal -0.366637766 0.0829518437 0.926658392
  outer loop
  vertex -0.0256579388 0.0203814376 0.0113904867
  vertex -0.0270274449 0.014465183 0.0113782398
  vertex -0.0284545105 0.00788410287 0.0114027336
  endloop
 endfacet

 facet normal 0.0294934735 0.179030746 0.983401299
  outer loop
  vertex -0.0221274476 0.0273904111 0.011468458
  vertex -0.0193284769 0.0269024018 0.0114733567
  vertex -0.0226047356 0.0280587748 0.0113610951
  endloop
 endfacet

 facet normal 0 0.110267237 0.993902087
  outer loop
  vertex -0.0221274476 0.0273904111 0.011468458
  vertex -0.0221058615 0.0259369891 0.0116297062
  vertex -0.0207171682 0.0259369891 0.0116297062
  endloop
 endfacet

 facet normal 0.00496419054 0.11502286 0.993350446
  outer loop
  vertex -0.0221274476 0.0273904111 0.011468458
  vertex -0.0207171682 0.0259369891 0.0116297062
  vertex -0.0193284769 0.0259369891 0.011622766
  endloop
 endfacet

 facet normal 0.024152182 0.151425049 0.988173664
  outer loop
  vertex -0.0221274476 0.0273904111 0.011468458
  vertex -0.0193284769 0.0259369891 0.011622766
  vertex -0.0179421827 0.0259369891 0.0115888836
  endloop
 endfacet

 facet normal 0.025183849 0.154356107 0.987694263
  outer loop
  vertex -0.0221274476 0.0273904111 0.011468458
  vertex -0.0179421827 0.0259369891 0.0115888836
  vertex -0.0193284769 0.0269024018 0.0114733567
  endloop
 endfacet

 facet normal 0.04043952 0.20942083 0.976988971
  outer loop
  vertex -0.0226047356 0.0280587748 0.0113610951
  vertex -0.0193284769 0.0269024018 0.0114733567
  vertex -0.0179421827 0.0267927758 0.0114394734
  endloop
 endfacet

 facet normal 0.0737350285 0.329826653 0.941157579
  outer loop
  vertex -0.0226047356 0.0280587748 0.0113610951
  vertex -0.0179421827 0.0267927758 0.0114394734
  vertex -0.016848499 0.0267043673 0.0113847712
  endloop
 endfacet

 facet normal 0.0932952464 0.412347257 0.906237125
  outer loop
  vertex -0.0226047356 0.0280587748 0.0113610951
  vertex -0.016848499 0.0267043673 0.0113847712
  vertex -0.0101736607 0.0252686236 0.0113508888
  endloop
 endfacet

 facet normal 0.177325889 0.787890375 0.589732289
  outer loop
  vertex -0.0226047356 0.0280587748 0.0113610951
  vertex -0.0101736607 0.0252686236 0.0113508888
  vertex -0.0159227047 0.0265982766 0.0113031268
  endloop
 endfacet

 facet normal 0.215169162 0.952065587 -0.21742487
  outer loop
  vertex -0.0209881924 0.0281188935 0.00949918665
  vertex -0.0143133551 0.0266690031 0.0097559588
  vertex -0.0214390978 0.0280092657 0.00857292581
  endloop
 endfacet

 facet normal 0.212267265 0.977211654 0
  outer loop
  vertex -0.0209881924 0.0281188935 0.00949918665
  vertex -0.0209881924 0.0281188935 0.010269504
  vertex -0.0143133551 0.0266690031 0.0100772306
  endloop
 endfacet

 facet normal 0.212267265 0.977211654 0
  outer loop
  vertex -0.0209881924 0.0281188935 0.00949918665
  vertex -0.0143133551 0.0266690031 0.0100772306
  vertex -0.0143133551 0.0266690031 0.0097559588
  endloop
 endfacet

 facet normal 0.21543926 0.951477885 -0.219717592
  outer loop
  vertex -0.0214390978 0.0280092657 0.00857292581
  vertex -0.0143133551 0.0266690031 0.0097559588
  vertex -0.00856191479 0.025321668 0.0095608281
  endloop
 endfacet

 facet normal 0.215619564 0.949838817 -0.22652702
  outer loop
  vertex -0.0214390978 0.0280092657 0.00857292581
  vertex -0.00856191479 0.025321668 0.0095608281
  vertex -0.00953088235 0.0254454408 0.00915750209
  endloop
 endfacet

 facet normal 0.215588421 0.947507858 -0.236115515
  outer loop
  vertex -0.0214390978 0.0280092657 0.00857292581
  vertex -0.00953088235 0.0254454408 0.00915750209
  vertex -0.00901521835 0.025197899 0.00863497611
  endloop
 endfacet

 facet normal 0.197899729 0.864346027 -0.462322146
  outer loop
  vertex -0.0214390978 0.0280092657 0.00857292581
  vertex -0.00901521835 0.025197899 0.00863497611
  vertex -0.0156948529 0.0266654678 0.00851944927
  endloop
 endfacet

 facet normal 0.207655847 0.919192731 0.334610105
  outer loop
  vertex -0.0209881924 0.0281188935 0.010269504
  vertex -0.0159227047 0.0265982766 0.0113031268
  vertex -0.00966759119 0.0254171491 0.0106658898
  endloop
 endfacet

 facet normal 0.209007785 0.923117816 0.322752655
  outer loop
  vertex -0.0209881924 0.0281188935 0.010269504
  vertex -0.00966759119 0.0254171491 0.0106658898
  vertex -0.00856191479 0.025321668 0.0102229668
  endloop
 endfacet

 facet normal 0.210985184 0.93238914 0.293489158
  outer loop
  vertex -0.0209881924 0.0281188935 0.010269504
  vertex -0.00856191479 0.025321668 0.0102229668
  vertex -0.0143133551 0.0266690031 0.0100772306
  endloop
 endfacet

 facet normal 0.18939127 0.819427133 -0.540989935
  outer loop
  vertex -0.0156948529 0.0266654678 0.00851944927
  vertex -0.00901521835 0.025197899 0.00863497611
  vertex -0.00994341262 0.0253145956 0.00848679058
  endloop
 endfacet

 facet normal 0.198653817 0.659726501 -0.724774241
  outer loop
  vertex -0.00994341262 0.0253145956 0.00848679058
  vertex -0.00901521835 0.025197899 0.00863497611
  vertex -0.00678467611 0.0242006555 0.00833860599
  endloop
 endfacet

 facet normal 0.103009604 0.412503809 -0.905113101
  outer loop
  vertex -0.00994341262 0.0253145956 0.00848679058
  vertex -0.00678467611 0.0242006555 0.00833860599
  vertex -0.0109963231 0.0254136119 0.0084120864
  endloop
 endfacet

 facet normal 0.106311403 0.468989551 -0.87678206
  outer loop
  vertex -0.00994341262 0.0253145956 0.00848679058
  vertex -0.0109963231 0.0254136119 0.0084120864
  vertex -0.0165510923 0.0267468039 0.00845168345
  endloop
 endfacet

 facet normal 0.0700869635 0.300972253 -0.951053858
  outer loop
  vertex -0.0109963231 0.0254136119 0.0084120864
  vertex -0.00678467611 0.0242006555 0.00833860599
  vertex -0.0123850163 0.02554092 0.00835003704
  endloop
 endfacet

 facet normal 0.208165497 0.912681222 0.351682007
  outer loop
  vertex -0.0159227047 0.0265982766 0.0113031268
  vertex -0.0101736607 0.0252686236 0.0113508888
  vertex -0.00966759119 0.0254171491 0.0106658898
  endloop
 endfacet

 facet normal 0.292258501 0.80645746 -0.514014959
  outer loop
  vertex -0.00678467611 0.0242006555 0.00833860599
  vertex -0.00901521835 0.025197899 0.00863497611
  vertex -0.00678467611 0.0247629285 0.00922077801
  endloop
 endfacet

 facet normal 0.0283488519 0.00792737864 0.999566674
  outer loop
  vertex -0.00678467611 0.0217712093 0.0116297062
  vertex -0.00678467611 0.023160981 0.011618684
  vertex -0.00682784896 0.023160981 0.0116199087
  endloop
 endfacet

 facet normal 0.0070549096 0.00726857921 0.9999488
  outer loop
  vertex -0.00678467611 0.0217712093 0.0116297062
  vertex -0.00682784896 0.023160981 0.0116199087
  vertex -0.00821654033 0.023160981 0.0116297062
  endloop
 endfacet

 facet normal -0.00293935579 -0.0117533701 0.999926567
  outer loop
  vertex -0.0193284769 0.00232501654 0.0116297062
  vertex -0.024885647 0.00371478801 0.0116297062
  vertex -0.0262743365 0.00371478801 0.0116256233
  endloop
 endfacet

 facet normal -0.00410718611 -0.0175902657 0.999836862
  outer loop
  vertex -0.0193284769 0.00232501654 0.0116297062
  vertex -0.0262743365 0.00371478801 0.0116256233
  vertex -0.0137737067 0.000935245131 0.0116280736
  endloop
 endfacet

 facet normal -0.0392094329 -0.174085364 0.983949661
  outer loop
  vertex -0.00821654033 -0.00134214188 0.0114696817
  vertex -0.0151624 0.000935245131 0.0115958229
  vertex -0.0207171682 0.00144801021 0.0114651918
  endloop
 endfacet

 facet normal -0.00293952692 -0.00470003299 0.999984682
  outer loop
  vertex -0.0262743365 0.00371478801 0.0116256233
  vertex -0.024885647 0.00371478801 0.0116297062
  vertex -0.0276630279 0.00510455947 0.0116280736
  endloop
 endfacet

 facet normal -0.0290759318 -0.0308145583 0.999102116
  outer loop
  vertex -0.0262743365 0.00371478801 0.0116256233
  vertex -0.0276630279 0.00510455947 0.0116280736
  vertex -0.0276630279 0.00371478801 0.0115852095
  endloop
 endfacet

 facet normal -0.0288677774 -0.123298258 0.991949677
  outer loop
  vertex -0.0262743365 0.00371478801 0.0116256233
  vertex -0.0276630279 0.00371478801 0.0115852095
  vertex -0.0207171682 0.00232501654 0.0116146021
  endloop
 endfacet

 facet normal -0.0342148393 -0.150103927 0.988078058
  outer loop
  vertex -0.0207171682 0.00232501654 0.0116146021
  vertex -0.0276630279 0.00371478801 0.0115852095
  vertex -0.0151624 0.000935245131 0.0115958229
  endloop
 endfacet

 facet normal -0.0389898606 -0.171592996 0.9843961
  outer loop
  vertex -0.0151624 0.000935245131 0.0115958229
  vertex -0.0276630279 0.00371478801 0.0115852095
  vertex -0.0207171682 0.00144801021 0.0114651918
  endloop
 endfacet

 facet normal -0.572606325 -0.00896449015 0.819781482
  outer loop
  vertex -0.0312870592 -0.00546548422 0.0096273683
  vertex -0.0293443296 0.00371478801 0.0110847279
  vertex -0.0312870592 0.00312068732 0.00972126052
  endloop
 endfacet

 facet normal -0.0411913134 -0.1782711 0.983118951
  outer loop
  vertex -0.0207171682 0.00144801021 0.0114651918
  vertex -0.0276630279 0.00371478801 0.0115852095
  vertex -0.0276630279 0.0028908269 0.0114357993
  endloop
 endfacet

 facet normal -0.144959569 -0.0305019822 0.988967359
  outer loop
  vertex -0.0276630279 0.00371478801 0.0115852095
  vertex -0.0276630279 0.00510455947 0.0116280736
  vertex -0.0286823623 0.00510455947 0.0114786634
  endloop
 endfacet

 facet normal -0.1461806 -0.0314135216 0.988759041
  outer loop
  vertex -0.0276630279 0.00371478801 0.0115852095
  vertex -0.0286823623 0.00510455947 0.0114786634
  vertex -0.0286487825 0.00371478801 0.0114394734
  endloop
 endfacet

 facet normal -0.145287544 -0.114699773 0.982718527
  outer loop
  vertex -0.0276630279 0.00371478801 0.0115852095
  vertex -0.0286487825 0.00371478801 0.0114394734
  vertex -0.0284904893 0.0029721621 0.0113761993
  endloop
 endfacet

 facet normal -0.454047084 -0.0360744968 0.890247047
  outer loop
  vertex -0.0286487825 0.00371478801 0.0114394734
  vertex -0.0286823623 0.00510455947 0.0114786634
  vertex -0.0293443296 0.00371478801 0.0110847279
  endloop
 endfacet

 facet normal -0.556553006 0.0297485702 0.83027935
  outer loop
  vertex -0.0293443296 0.00371478801 0.0110847279
  vertex -0.0286823623 0.00510455947 0.0114786634
  vertex -0.0312870592 0.00649433071 0.0096828863
  endloop
 endfacet

 facet normal -0.566919029 0.0191104077 0.823551834
  outer loop
  vertex -0.0293443296 0.00371478801 0.0110847279
  vertex -0.0312870592 0.00649433071 0.0096828863
  vertex -0.0312870592 0.00510455947 0.00971513614
  endloop
 endfacet

 facet normal -0.574232519 0.00408811867 0.818682134
  outer loop
  vertex -0.0293443296 0.00371478801 0.0110847279
  vertex -0.0312870592 0.00510455947 0.00971513614
  vertex -0.0312870592 0.00371478801 0.00972207636
  endloop
 endfacet

 facet normal -0.57423681 -0.00112392532 0.818688452
  outer loop
  vertex -0.0293443296 0.00371478801 0.0110847279
  vertex -0.0312870592 0.00371478801 0.00972207636
  vertex -0.0312870592 0.00312068732 0.00972126052
  endloop
 endfacet

 facet normal -0.545989037 0.0567674898 0.835866928
  outer loop
  vertex -0.0312870592 0.00649433071 0.0096828863
  vertex -0.0286823623 0.00510455947 0.0114786634
  vertex -0.0285672378 0.00649433071 0.0114594763
  endloop
 endfacet

 facet normal -0.162967175 0.0271153804 0.986258864
  outer loop
  vertex -0.0285672378 0.00649433071 0.0114594763
  vertex -0.0286823623 0.00510455947 0.0114786634
  vertex -0.0276630279 0.00649433071 0.0116088865
  endloop
 endfacet

 facet normal -0.162917584 0.0366499424 0.985958755
  outer loop
  vertex -0.0285672378 0.00649433071 0.0114594763
  vertex -0.0276630279 0.00649433071 0.0116088865
  vertex -0.0262743365 0.0134361163 0.0115803108
  endloop
 endfacet

 facet normal -0.163117632 0.0367166363 0.985923231
  outer loop
  vertex -0.0285672378 0.00649433071 0.0114594763
  vertex -0.0262743365 0.0134361163 0.0115803108
  vertex -0.024885647 0.0189916659 0.0116031719
  endloop
 endfacet

 facet normal -0.166788518 0.0378055796 0.985267639
  outer loop
  vertex -0.0285672378 0.00649433071 0.0114594763
  vertex -0.024885647 0.0189916659 0.0116031719
  vertex -0.0257706661 0.0189916659 0.0114533538
  endloop
 endfacet

 facet normal -0.236467421 0.0533904731 0.970171392
  outer loop
  vertex -0.0285672378 0.00649433071 0.0114594763
  vertex -0.0257706661 0.0189916659 0.0114533538
  vertex -0.0271137878 0.0134361163 0.0114317173
  endloop
 endfacet

 facet normal -0.275467783 0.0615129396 0.959340215
  outer loop
  vertex -0.0285672378 0.00649433071 0.0114594763
  vertex -0.0271137878 0.0134361163 0.0114317173
  vertex -0.0284545105 0.00788410287 0.0114027336
  endloop
 endfacet

 facet normal -0.387416363 0.0874244049 0.917750299
  outer loop
  vertex -0.0284545105 0.00788410287 0.0114027336
  vertex -0.0270274449 0.014465183 0.0113782398
  vertex -0.0283849575 0.00871513598 0.0113529302
  endloop
 endfacet

 facet normal -0.16678831 0.0378375575 0.985266447
  outer loop
  vertex -0.0244275425 0.0245507527 0.0114672333
  vertex -0.0257706661 0.0189916659 0.0114533538
  vertex -0.024885647 0.0189916659 0.0116031719
  endloop
 endfacet

 facet normal -0.104883663 0.0237637274 0.994200587
  outer loop
  vertex -0.0234945547 0.0245507527 0.0116170505
  vertex -0.024885647 0.0189916659 0.0116031719
  vertex -0.0276630279 0.00649433071 0.0116088865
  endloop
 endfacet

 facet normal -0.0616388135 0.0137785776 0.998003423
  outer loop
  vertex -0.0234945547 0.0245507527 0.0116170505
  vertex -0.0276630279 0.00649433071 0.0116088865
  vertex -0.0276630279 0.00510455947 0.0116280736
  endloop
 endfacet

 facet normal -0.0593918376 0.0132969972 0.998146236
  outer loop
  vertex -0.0234945547 0.0245507527 0.0116170505
  vertex -0.0276630279 0.00510455947 0.0116280736
  vertex -0.024885647 0.0176018942 0.011626848
  endloop
 endfacet

 facet normal -0.0131467683 0.00404167548 0.999905467
  outer loop
  vertex -0.0234945547 0.0245507527 0.0116170505
  vertex -0.024885647 0.0176018942 0.011626848
  vertex -0.0221058615 0.0259369891 0.0116297062
  endloop
 endfacet

 facet normal -0.0072091585 0.00206143758 0.999971867
  outer loop
  vertex -0.0221058615 0.0259369891 0.0116297062
  vertex -0.024885647 0.0176018942 0.011626848
  vertex -0.024885647 0.0162156597 0.0116297062
  endloop
 endfacet

 facet normal -0.162595376 0.0365857147 0.986014426
  outer loop
  vertex -0.024885647 0.0189916659 0.0116031719
  vertex -0.0262743365 0.0134361163 0.0115803108
  vertex -0.0276630279 0.00649433071 0.0116088865
  endloop
 endfacet

 facet normal 0.0376507379 0.171863973 0.984401047
  outer loop
  vertex -0.0193284769 0.0269024018 0.0114733567
  vertex -0.0179421827 0.0259369891 0.0115888836
  vertex -0.0179421827 0.0267927758 0.0114394734
  endloop
 endfacet

 facet normal 0.00232795556 0.0104830088 0.999942303
  outer loop
  vertex -0.0207171682 0.0259369891 0.0116297062
  vertex -0.00821654033 0.023160981 0.0116297062
  vertex -0.0137737067 0.0245507527 0.0116280736
  endloop
 endfacet

 facet normal 0.00499593746 0.0238468386 0.999703169
  outer loop
  vertex -0.0207171682 0.0259369891 0.0116297062
  vertex -0.0137737067 0.0245507527 0.0116280736
  vertex -0.0193284769 0.0259369891 0.011622766
  endloop
 endfacet

 facet normal 0.00978515483 0.0430350564 0.999025702
  outer loop
  vertex -0.0193284769 0.0259369891 0.011622766
  vertex -0.0137737067 0.0245507527 0.0116280736
  vertex -0.00682784896 0.023160981 0.0116199087
  endloop
 endfacet

 facet normal 0.0188547205 0.083878994 0.996297657
  outer loop
  vertex -0.0193284769 0.0259369891 0.011622766
  vertex -0.00682784896 0.023160981 0.0116199087
  vertex -0.0123850163 0.0245507527 0.0116080707
  endloop
 endfacet

 facet normal 0.0242826827 0.111096404 0.993512988
  outer loop
  vertex -0.0193284769 0.0259369891 0.011622766
  vertex -0.0123850163 0.0245507527 0.0116080707
  vertex -0.0179421827 0.0259369891 0.0115888836
  endloop
 endfacet

 facet normal 0.0374988541 0.163970217 0.985752285
  outer loop
  vertex -0.0179421827 0.0259369891 0.0115888836
  vertex -0.0123850163 0.0245507527 0.0116080707
  vertex -0.0123850163 0.0254489761 0.0114586595
  endloop
 endfacet

 facet normal 0.0381596535 0.171860635 0.984382033
  outer loop
  vertex -0.0179421827 0.0259369891 0.0115888836
  vertex -0.0123850163 0.0254489761 0.0114586595
  vertex -0.0179421827 0.0267927758 0.0114394734
  endloop
 endfacet

 facet normal 0.0612158738 0.266884953 0.961782336
  outer loop
  vertex -0.0179421827 0.0267927758 0.0114394734
  vertex -0.0123850163 0.0254489761 0.0114586595
  vertex -0.0109963231 0.0253393501 0.0114006922
  endloop
 endfacet

 facet normal 0.0734999478 0.326105297 0.942471862
  outer loop
  vertex -0.0179421827 0.0267927758 0.0114394734
  vertex -0.0109963231 0.0253393501 0.0114006922
  vertex -0.016848499 0.0267043673 0.0113847712
  endloop
 endfacet

 facet normal 0.089198038 0.39308846 0.915163994
  outer loop
  vertex -0.016848499 0.0267043673 0.0113847712
  vertex -0.0109963231 0.0253393501 0.0114006922
  vertex -0.0101736607 0.0252686236 0.0113508888
  endloop
 endfacet

 facet normal 0.086262159 0.345312774 0.934514761
  outer loop
  vertex -0.0101736607 0.0252686236 0.0113508888
  vertex -0.0109963231 0.0253393501 0.0114006922
  vertex -0.00678467611 0.024101641 0.0114692738
  endloop
 endfacet

 facet normal 0.255258739 0.796839595 0.547621906
  outer loop
  vertex -0.0101736607 0.0252686236 0.0113508888
  vertex -0.00678467611 0.024101641 0.0114692738
  vertex -0.00678467611 0.0246745218 0.0106356815
  endloop
 endfacet

 facet normal 0.237035722 0.893782616 0.380745023
  outer loop
  vertex -0.0101736607 0.0252686236 0.0113508888
  vertex -0.00678467611 0.0246745218 0.0106356815
  vertex -0.00856191479 0.025321668 0.0102229668
  endloop
 endfacet

 facet normal 0.222795099 0.905580997 0.360950679
  outer loop
  vertex -0.0101736607 0.0252686236 0.0113508888
  vertex -0.00856191479 0.025321668 0.0102229668
  vertex -0.00966759119 0.0254171491 0.0106658898
  endloop
 endfacet

 facet normal 0.228085667 0.973641098 0
  outer loop
  vertex -0.0143133551 0.0266690031 0.0097559588
  vertex -0.0143133551 0.0266690031 0.0100772306
  vertex -0.00856191479 0.025321668 0.0102229668
  endloop
 endfacet

 facet normal 0.228085667 0.973641098 0
  outer loop
  vertex -0.0143133551 0.0266690031 0.0097559588
  vertex -0.00856191479 0.025321668 0.0102229668
  vertex -0.00856191479 0.025321668 0.0095608281
  endloop
 endfacet

 facet normal 0.294716537 0.955584764 0
  outer loop
  vertex -0.00856191479 0.025321668 0.0095608281
  vertex -0.00856191479 0.025321668 0.0102229668
  vertex -0.00678467611 0.02477354 0.0092469044
  endloop
 endfacet

 facet normal 0.245793134 0.937668324 -0.245690629
  outer loop
  vertex -0.00856191479 0.025321668 0.0095608281
  vertex -0.00678467611 0.02477354 0.0092469044
  vertex -0.00901521835 0.025197899 0.00863497611
  endloop
 endfacet

 facet normal 0.218237028 0.947544932 -0.233519256
  outer loop
  vertex -0.00856191479 0.025321668 0.0095608281
  vertex -0.00901521835 0.025197899 0.00863497611
  vertex -0.00953088235 0.0254454408 0.00915750209
  endloop
 endfacet

 facet normal 0.269182175 0.892301679 -0.362406939
  outer loop
  vertex -0.00901521835 0.025197899 0.00863497611
  vertex -0.00678467611 0.02477354 0.0092469044
  vertex -0.00678467611 0.0247629285 0.00922077801
  endloop
 endfacet

 facet normal 0.324765235 0.94246459 0.0792965665
  outer loop
  vertex -0.00856191479 0.025321668 0.0102229668
  vertex -0.00678467611 0.0246745218 0.0106356815
  vertex -0.00678467611 0.0246780589 0.0105936341
  endloop
 endfacet

 facet normal 0.327388108 0.942524076 0.066823788
  outer loop
  vertex -0.00856191479 0.025321668 0.0102229668
  vertex -0.00678467611 0.0246780589 0.0105936341
  vertex -0.00678467611 0.02477354 0.0092469044
  endloop
 endfacet

 facet normal 0.0408226922 0.156737715 0.98679626
  outer loop
  vertex -0.00678467611 0.023160981 0.011618684
  vertex -0.00678467611 0.024101641 0.0114692738
  vertex -0.00682784896 0.0241051763 0.0114704985
  endloop
 endfacet

 facet normal 0.0369886719 0.156589806 0.986970842
  outer loop
  vertex -0.00678467611 0.023160981 0.011618684
  vertex -0.00682784896 0.0241051763 0.0114704985
  vertex -0.0123850163 0.0245507527 0.0116080707
  endloop
 endfacet

 facet normal 0.0281415209 0.120978944 0.992256224
  outer loop
  vertex -0.00678467611 0.023160981 0.011618684
  vertex -0.0123850163 0.0245507527 0.0116080707
  vertex -0.00682784896 0.023160981 0.0116199087
  endloop
 endfacet

 facet normal 0.0070520509 0.0293723997 0.999543667
  outer loop
  vertex -0.00682784896 0.023160981 0.0116199087
  vertex -0.0137737067 0.0245507527 0.0116280736
  vertex -0.00821654033 0.023160981 0.0116297062
  endloop
 endfacet

 facet normal -0.00117537996 -0.00117446587 0.999998569
  outer loop
  vertex -0.024885647 0.00371478801 0.0116297062
  vertex -0.0262743365 0.00510455947 0.0116297062
  vertex -0.0276630279 0.00510455947 0.0116280736
  endloop
 endfacet

 facet normal -0.145013526 0.0136589063 0.989335477
  outer loop
  vertex -0.0276630279 0.00510455947 0.0116280736
  vertex -0.0276630279 0.00649433071 0.0116088865
  vertex -0.0286823623 0.00510455947 0.0114786634
  endloop
 endfacet

 facet normal -0.00117538078 0 0.999999285
  outer loop
  vertex -0.0276630279 0.00510455947 0.0116280736
  vertex -0.0262743365 0.00510455947 0.0116297062
  vertex -0.0262743365 0.00927033834 0.0116297062
  endloop
 endfacet

 facet normal -0.00293694506 0.00058723113 0.99999547
  outer loop
  vertex -0.0276630279 0.00510455947 0.0116280736
  vertex -0.0262743365 0.00927033834 0.0116297062
  vertex -0.024885647 0.0162156597 0.0116297062
  endloop
 endfacet

 facet normal -0.00883447565 0.00206141057 0.999958873
  outer loop
  vertex -0.0276630279 0.00510455947 0.0116280736
  vertex -0.024885647 0.0162156597 0.0116297062
  vertex -0.024885647 0.0176018942 0.011626848
  endloop
 endfacet

 facet normal 0.0375501998 0.163969919 0.985750496
  outer loop
  vertex -0.0123850163 0.0245507527 0.0116080707
  vertex -0.00682784896 0.0241051763 0.0114704985
  vertex -0.0123850163 0.0254489761 0.0114586595
  endloop
 endfacet

 facet normal 0.0431574658 0.187119842 0.981388688
  outer loop
  vertex -0.0123850163 0.0254489761 0.0114586595
  vertex -0.00682784896 0.0241051763 0.0114704985
  vertex -0.00678467611 0.024101641 0.0114692738
  endloop
 endfacet

 facet normal 0.0607629791 0.260159254 0.963651896
  outer loop
  vertex -0.0123850163 0.0254489761 0.0114586595
  vertex -0.00678467611 0.024101641 0.0114692738
  vertex -0.0109963231 0.0253393501 0.0114006922
  endloop
 endfacet

endsolid AssimpScene
