solid AssimpScene
 facet normal 0.0109842028 0.0347247235 -0.9993366
  outer loop
  vertex -0.0185796637 0.00692367833 -0.00686964486
  vertex -0.0185796637 0.0133258784 -0.00664718263
  vertex -0.0171518773 0.0237675812 -0.00626866333
  endloop
 endfacet

 facet normal 0.0519392863 0.0312112346 -0.998162389
  outer loop
  vertex -0.0185796637 0.00692367833 -0.00686964486
  vertex -0.0171518773 0.0237675812 -0.00626866333
  vertex -0.0177501496 0.00692367833 -0.00682648132
  endloop
 endfacet

 facet normal 0 -1 0
  outer loop
  vertex -0.0185796637 0.00692367833 -0.00686964486
  vertex -0.0177501496 0.00692367833 -0.00682648132
  vertex -0.0171863157 0.00692367833 -0.00678995717
  endloop
 endfacet

 facet normal 0 -1 0
  outer loop
  vertex -0.0185796637 0.00692367833 -0.00686964486
  vertex -0.0171863157 0.00692367833 -0.00678995717
  vertex -0.0166529864 0.00692367833 -0.00649444619
  endloop
 endfacet

 facet normal 0 -1 0
  outer loop
  vertex -0.0185796637 0.00692367833 -0.00686964486
  vertex -0.0166529864 0.00692367833 -0.00649444619
  vertex -0.016319409 0.00692367833 -0.00630518747
  endloop
 endfacet

 facet normal 0 -1 0
  outer loop
  vertex -0.0185796637 0.00692367833 -0.00686964486
  vertex -0.016319409 0.00692367833 -0.00630518747
  vertex -0.0160980094 0.00692367833 -0.00575401308
  endloop
 endfacet

 facet normal 0 -1 0
  outer loop
  vertex -0.0185796637 0.00692367833 -0.00686964486
  vertex -0.0160980094 0.00692367833 -0.00575401308
  vertex -0.0159730408 0.00692367833 -0.0054020579
  endloop
 endfacet

 facet normal 0 -1 0
  outer loop
  vertex -0.0185796637 0.00692367833 -0.00686964486
  vertex -0.0159730408 0.00692367833 -0.0054020579
  vertex -0.00956127699 0.00692367833 0.0182088353
  endloop
 endfacet

 facet normal 0 -1 0
  outer loop
  vertex -0.0185796637 0.00692367833 -0.00686964486
  vertex -0.00956127699 0.00692367833 0.0182088353
  vertex -0.00956127699 0.00692367833 0.0251616128
  endloop
 endfacet

 facet normal 0 -1 0
  outer loop
  vertex -0.0185796637 0.00692367833 -0.00686964486
  vertex -0.00956127699 0.00692367833 0.0251616128
  vertex -0.00986041408 0.00692367833 0.0250022374
  endloop
 endfacet

 facet normal 0 -1 0
  outer loop
  vertex -0.0185796637 0.00692367833 -0.00686964486
  vertex -0.00986041408 0.00692367833 0.0250022374
  vertex -0.0102992794 0.00692367833 0.0243879762
  endloop
 endfacet

 facet normal 0 -1 0
  outer loop
  vertex -0.0185796637 0.00692367833 -0.00686964486
  vertex -0.0102992794 0.00692367833 0.0243879762
  vertex -0.010851305 0.00692367833 0.0233354289
  endloop
 endfacet

 facet normal 0 -1 0
  outer loop
  vertex -0.0185796637 0.00692367833 -0.00686964486
  vertex -0.010851305 0.00692367833 0.0233354289
  vertex -0.0109280571 0.00692367833 0.0231694113
  endloop
 endfacet

 facet normal 0 -1 0
  outer loop
  vertex -0.0185796637 0.00692367833 -0.00686964486
  vertex -0.0109280571 0.00692367833 0.0231694113
  vertex -0.0117713474 0.00692367833 0.0210609995
  endloop
 endfacet

 facet normal 0 -1 0
  outer loop
  vertex -0.0185796637 0.00692367833 -0.00686964486
  vertex -0.0117713474 0.00692367833 0.0210609995
  vertex -0.0145541085 0.00692367833 0.0140949413
  endloop
 endfacet

 facet normal 0 -1 0
  outer loop
  vertex -0.0185796637 0.00692367833 -0.00686964486
  vertex -0.0145541085 0.00692367833 0.0140949413
  vertex -0.014800109 0.00692367833 0.0133810695
  endloop
 endfacet

 facet normal 0 -1 0
  outer loop
  vertex -0.0185796637 0.00692367833 -0.00686964486
  vertex -0.014800109 0.00692367833 0.0133810695
  vertex -0.0149634536 0.00692367833 0.0129062617
  endloop
 endfacet

 facet normal 0 -1 0
  outer loop
  vertex -0.0185796637 0.00692367833 -0.00686964486
  vertex -0.0149634536 0.00692367833 0.0129062617
  vertex -0.0150756296 0.00692367833 0.0124912197
  endloop
 endfacet

 facet normal 0 -1 0
  outer loop
  vertex -0.0185796637 0.00692367833 -0.00686964486
  vertex -0.0150756296 0.00692367833 0.0124912197
  vertex -0.0151504138 0.00692367833 0.0122089917
  endloop
 endfacet

 facet normal 0 -1 0
  outer loop
  vertex -0.0185796637 0.00692367833 -0.00686964486
  vertex -0.0151504138 0.00692367833 0.0122089917
  vertex -0.0152871897 0.00692367833 0.0116810584
  endloop
 endfacet

 facet normal 0 -1 0
  outer loop
  vertex -0.0185796637 0.00692367833 -0.00686964486
  vertex -0.0152871897 0.00692367833 0.0116810584
  vertex -0.0171794295 0.00692367833 0.00434976164
  endloop
 endfacet

 facet normal 0 -1 0
  outer loop
  vertex -0.0185796637 0.00692367833 -0.00686964486
  vertex -0.0171794295 0.00692367833 0.00434976164
  vertex -0.0191208664 0.00692367833 -0.00317411381
  endloop
 endfacet

 facet normal 0 -1 0
  outer loop
  vertex -0.0185796637 0.00692367833 -0.00686964486
  vertex -0.0191208664 0.00692367833 -0.00317411381
  vertex -0.0193954036 0.00692367833 -0.00423994148
  endloop
 endfacet

 facet normal 0 -1 0
  outer loop
  vertex -0.0185796637 0.00692367833 -0.00686964486
  vertex -0.0193954036 0.00692367833 -0.00423994148
  vertex -0.0195262749 0.00692367833 -0.00492392993
  endloop
 endfacet

 facet normal 0 -1 0
  outer loop
  vertex -0.0185796637 0.00692367833 -0.00686964486
  vertex -0.0195262749 0.00692367833 -0.00492392993
  vertex -0.0196128674 0.00692367833 -0.0054020579
  endloop
 endfacet

 facet normal 0 -1 0
  outer loop
  vertex -0.0185796637 0.00692367833 -0.00686964486
  vertex -0.0196128674 0.00692367833 -0.0054020579
  vertex -0.0195430033 0.00692367833 -0.00599307707
  endloop
 endfacet

 facet normal 0 -1 0
  outer loop
  vertex -0.0185796637 0.00692367833 -0.00686964486
  vertex -0.0195430033 0.00692367833 -0.00599307707
  vertex -0.019492818 0.00692367833 -0.00638487749
  endloop
 endfacet

 facet normal 0 -1 0
  outer loop
  vertex -0.0185796637 0.00692367833 -0.00686964486
  vertex -0.019492818 0.00692367833 -0.00638487749
  vertex -0.0189466979 0.00692367833 -0.00668038614
  endloop
 endfacet

 facet normal -0.458218813 0.0190904886 -0.888634384
  outer loop
  vertex -0.0185796637 0.00692367833 -0.00686964486
  vertex -0.0189466979 0.00692367833 -0.00668038614
  vertex -0.0194268916 0.0147174457 -0.00626534456
  endloop
 endfacet

 facet normal -0.452012122 0.0200096648 -0.89178741
  outer loop
  vertex -0.0185796637 0.00692367833 -0.00686964486
  vertex -0.0194268916 0.0147174457 -0.00626534456
  vertex -0.0194111466 0.0161090139 -0.00624210155
  endloop
 endfacet

 facet normal -0.449412405 0.0203341991 -0.89309299
  outer loop
  vertex -0.0185796637 0.00692367833 -0.00686964486
  vertex -0.0194111466 0.0161090139 -0.00624210155
  vertex -0.0193540752 0.0202870127 -0.00617569452
  endloop
 endfacet

 facet normal -0.429004371 0.0220330711 -0.903033674
  outer loop
  vertex -0.0185796637 0.00692367833 -0.00686964486
  vertex -0.0193540752 0.0202870127 -0.00617569452
  vertex -0.0193088111 0.023073446 -0.00612921175
  endloop
 endfacet

 facet normal -0.394694984 0.0242907982 -0.918491185
  outer loop
  vertex -0.0185796637 0.00692367833 -0.00686964486
  vertex -0.0193088111 0.023073446 -0.00612921175
  vertex -0.0192970019 0.0237675812 -0.00611592876
  endloop
 endfacet

 facet normal -0.235857517 0.0334144197 -0.971212983
  outer loop
  vertex -0.0185796637 0.00692367833 -0.00686964486
  vertex -0.0192970019 0.0237675812 -0.00611592876
  vertex -0.0190372262 0.0237675812 -0.00617901515
  endloop
 endfacet

 facet normal -0.224226445 0.0338425711 -0.973949313
  outer loop
  vertex -0.0185796637 0.00692367833 -0.00686964486
  vertex -0.0190372262 0.0237675812 -0.00617901515
  vertex -0.0185796637 0.0133258784 -0.00664718263
  endloop
 endfacet

 facet normal -0.215212405 0.0343278944 -0.975963771
  outer loop
  vertex -0.0185796637 0.0133258784 -0.00664718263
  vertex -0.0190372262 0.0237675812 -0.00617901515
  vertex -0.0185796637 0.0188954454 -0.00645128265
  endloop
 endfacet

 facet normal 0.00787422992 0.0351505056 -0.999351025
  outer loop
  vertex -0.0185796637 0.0133258784 -0.00664718263
  vertex -0.0185796637 0.0188954454 -0.00645128265
  vertex -0.0171518773 0.0237675812 -0.00626866333
  endloop
 endfacet

 facet normal -0.00222604722 0.0523474477 -0.998626471
  outer loop
  vertex -0.0171518773 0.0237675812 -0.00626866333
  vertex -0.0185796637 0.023073446 -0.00630186684
  vertex -0.0186406728 0.0237675812 -0.00626534456
  endloop
 endfacet

 facet normal 0 1 0
  outer loop
  vertex -0.0171518773 0.0237675812 -0.00626866333
  vertex -0.0186406728 0.0237675812 -0.00626534456
  vertex -0.0190372262 0.0237675812 -0.00617901515
  endloop
 endfacet

 facet normal 0 1 0
  outer loop
  vertex -0.0171518773 0.0237675812 -0.00626866333
  vertex -0.0190372262 0.0237675812 -0.00617901515
  vertex -0.0192970019 0.0237675812 -0.00611592876
  endloop
 endfacet

 facet normal 0 1 0
  outer loop
  vertex -0.0171518773 0.0237675812 -0.00626866333
  vertex -0.0192970019 0.0237675812 -0.00611592876
  vertex -0.0193747394 0.0237675812 -0.00585030299
  endloop
 endfacet

 facet normal 0 1 0
  outer loop
  vertex -0.0171518773 0.0237675812 -0.00626866333
  vertex -0.0193747394 0.0237675812 -0.00585030299
  vertex -0.0194800273 0.0237675812 -0.00546514383
  endloop
 endfacet

 facet normal 0 1 0
  outer loop
  vertex -0.0171518773 0.0237675812 -0.00626866333
  vertex -0.0194800273 0.0237675812 -0.00546514383
  vertex -0.019508563 0.0237675812 -0.0047081071
  endloop
 endfacet

 facet normal 0 1 0
  outer loop
  vertex -0.0171518773 0.0237675812 -0.00626866333
  vertex -0.019508563 0.0237675812 -0.0047081071
  vertex -0.0195016749 0.0237675812 -0.00400751783
  endloop
 endfacet

 facet normal 0 1 0
  outer loop
  vertex -0.0171518773 0.0237675812 -0.00626866333
  vertex -0.0195016749 0.0237675812 -0.00400751783
  vertex -0.0193993393 0.0237675812 -0.003609078
  endloop
 endfacet

 facet normal 0 1 0
  outer loop
  vertex -0.0171518773 0.0237675812 -0.00626866333
  vertex -0.0193993393 0.0237675812 -0.003609078
  vertex -0.019119883 0.0237675812 -0.00252332888
  endloop
 endfacet

 facet normal 0 1 0
  outer loop
  vertex -0.0171518773 0.0237675812 -0.00626866333
  vertex -0.019119883 0.0237675812 -0.00252332888
  vertex -0.018605249 0.0237675812 -0.000527808385
  endloop
 endfacet

 facet normal 0 1 0
  outer loop
  vertex -0.0171518773 0.0237675812 -0.00626866333
  vertex -0.018605249 0.0237675812 -0.000527808385
  vertex -0.0175592527 0.0237675812 0.00352631998
  endloop
 endfacet

 facet normal 0 1 0
  outer loop
  vertex -0.0171518773 0.0237675812 -0.00626866333
  vertex -0.0175592527 0.0237675812 0.00352631998
  vertex -0.0168173164 0.0237675812 0.00640172791
  endloop
 endfacet

 facet normal 0 1 0
  outer loop
  vertex -0.0171518773 0.0237675812 -0.00626866333
  vertex -0.0168173164 0.0237675812 0.00640172791
  vertex -0.0159090795 0.0237675812 0.0099212816
  endloop
 endfacet

 facet normal 0 1 0
  outer loop
  vertex -0.0171518773 0.0237675812 -0.00626866333
  vertex -0.0159090795 0.0237675812 0.0099212816
  vertex -0.0150539819 0.0237675812 0.0132316547
  endloop
 endfacet

 facet normal 0 1 0
  outer loop
  vertex -0.0171518773 0.0237675812 -0.00626866333
  vertex -0.0150539819 0.0237675812 0.0132316547
  vertex -0.0147725567 0.0237675812 0.0140949413
  endloop
 endfacet

 facet normal 0 1 0
  outer loop
  vertex -0.0171518773 0.0237675812 -0.00626866333
  vertex -0.0147725567 0.0237675812 0.0140949413
  vertex -0.0145167168 0.0237675812 0.0147888912
  endloop
 endfacet

 facet normal 0 1 0
  outer loop
  vertex -0.0171518773 0.0237675812 -0.00626866333
  vertex -0.0145167168 0.0237675812 0.0147888912
  vertex -0.0142559558 0.0237675812 0.0154894814
  endloop
 endfacet

 facet normal 0 1 0
  outer loop
  vertex -0.0171518773 0.0237675812 -0.00626866333
  vertex -0.0142559558 0.0237675812 0.0154894814
  vertex -0.0138416905 0.0237675812 0.0165088233
  endloop
 endfacet

 facet normal 0 1 0
  outer loop
  vertex -0.0171518773 0.0237675812 -0.00626866333
  vertex -0.0138416905 0.0237675812 0.0165088233
  vertex -0.0125241103 0.0237675812 0.0194340367
  endloop
 endfacet

 facet normal 0 1 0
  outer loop
  vertex -0.0171518773 0.0237675812 -0.00626866333
  vertex -0.0125241103 0.0237675812 0.0194340367
  vertex -0.0113925068 0.0237675812 0.0209182259
  endloop
 endfacet

 facet normal 0 1 0
  outer loop
  vertex -0.0171518773 0.0237675812 -0.00626866333
  vertex -0.0113925068 0.0237675812 0.0209182259
  vertex -0.0106800878 0.0237675812 0.0217217468
  endloop
 endfacet

 facet normal 0 1 0
  outer loop
  vertex -0.0171518773 0.0237675812 -0.00626866333
  vertex -0.0106800878 0.0237675812 0.0217217468
  vertex -0.0102707427 0.0237675812 0.0217549503
  endloop
 endfacet

 facet normal 0 1 0
  outer loop
  vertex -0.0171518773 0.0237675812 -0.00626866333
  vertex -0.0102707427 0.0237675812 0.0217549503
  vertex -0.00978070963 0.0237675812 0.0217914749
  endloop
 endfacet

 facet normal 0 1 0
  outer loop
  vertex -0.0171518773 0.0237675812 -0.00626866333
  vertex -0.00978070963 0.0237675812 0.0217914749
  vertex -0.00956127699 0.0237675812 0.0217947941
  endloop
 endfacet

 facet normal 0 1 0
  outer loop
  vertex -0.0171518773 0.0237675812 -0.00626866333
  vertex -0.00956127699 0.0237675812 0.0217947941
  vertex -0.00956127699 0.0237675812 0.0121824285
  endloop
 endfacet

 facet normal 0 1 0
  outer loop
  vertex -0.0171518773 0.0237675812 -0.00626866333
  vertex -0.00956127699 0.0237675812 0.0121824285
  vertex -0.00956324488 0.0237675812 0.012062897
  endloop
 endfacet

 facet normal 0 1 0
  outer loop
  vertex -0.0171518773 0.0237675812 -0.00626866333
  vertex -0.00956324488 0.0237675812 0.012062897
  vertex -0.0145363966 0.0237675812 -0.00223777932
  endloop
 endfacet

 facet normal 0 1 0
  outer loop
  vertex -0.0171518773 0.0237675812 -0.00626866333
  vertex -0.0145363966 0.0237675812 -0.00223777932
  vertex -0.0159248244 0.0237675812 -0.00546846492
  endloop
 endfacet

 facet normal 0 1 0
  outer loop
  vertex -0.0171518773 0.0237675812 -0.00626866333
  vertex -0.0159248244 0.0237675812 -0.00546846492
  vertex -0.016524082 0.0237675812 -0.00607940461
  endloop
 endfacet

 facet normal 0.288513571 0.029028926 -0.957035661
  outer loop
  vertex -0.0171518773 0.0237675812 -0.00626866333
  vertex -0.016524082 0.0237675812 -0.00607940461
  vertex -0.0171863157 0.00692367833 -0.00678995717
  endloop
 endfacet

 facet normal 0.064612411 0.0307370853 -0.99743706
  outer loop
  vertex -0.0171518773 0.0237675812 -0.00626866333
  vertex -0.0171863157 0.00692367833 -0.00678995717
  vertex -0.0177501496 0.00692367833 -0.00682648132
  endloop
 endfacet

 facet normal 0.00586500345 0.0357390419 -0.999343872
  outer loop
  vertex -0.0171518773 0.0237675812 -0.00626866333
  vertex -0.0185796637 0.0188954454 -0.00645128265
  vertex -0.0185796637 0.023073446 -0.00630186684
  endloop
 endfacet

 facet normal -0.475838065 0.0162974074 -0.879381895
  outer loop
  vertex -0.0189466979 0.00692367833 -0.00668038614
  vertex -0.019492818 0.00692367833 -0.00638487749
  vertex -0.0194780584 0.00914622936 -0.00635167398
  endloop
 endfacet

 facet normal -0.472091049 0.0174881984 -0.881376266
  outer loop
  vertex -0.0189466979 0.00692367833 -0.00668038614
  vertex -0.0194780584 0.00914622936 -0.00635167398
  vertex -0.0194554273 0.0119326627 -0.00630850857
  endloop
 endfacet

 facet normal -0.465014756 0.0184840895 -0.885110021
  outer loop
  vertex -0.0189466979 0.00692367833 -0.00668038614
  vertex -0.0194554273 0.0119326627 -0.00630850857
  vertex -0.0194268916 0.0147174457 -0.00626534456
  endloop
 endfacet

 facet normal -0.956705272 0.0143092936 -0.290706605
  outer loop
  vertex -0.0194268916 0.0147174457 -0.00626534456
  vertex -0.0194554273 0.0119326627 -0.00630850857
  vertex -0.0194416512 0.0133258784 -0.00628526695
  endloop
 endfacet

 facet normal -0.974957585 0.01351895 -0.221979603
  outer loop
  vertex -0.0194268916 0.0147174457 -0.00626534456
  vertex -0.0194416512 0.0133258784 -0.00628526695
  vertex -0.0195075795 0.023073446 -0.0054020579
  endloop
 endfacet

 facet normal -0.971808314 0.0149255041 -0.235299677
  outer loop
  vertex -0.0194268916 0.0147174457 -0.00626534456
  vertex -0.0195075795 0.023073446 -0.0054020579
  vertex -0.0194111466 0.0161090139 -0.00624210155
  endloop
 endfacet

 facet normal -0.639172971 0.0209504068 -0.768777609
  outer loop
  vertex -0.0194111466 0.0161090139 -0.00624210155
  vertex -0.0193934347 0.0175022297 -0.00621885993
  vertex -0.0193540752 0.0202870127 -0.00617569452
  endloop
 endfacet

 facet normal -0.969296396 0.0161740929 -0.245362848
  outer loop
  vertex -0.0194111466 0.0161090139 -0.00624210155
  vertex -0.0195075795 0.023073446 -0.0054020579
  vertex -0.0194800273 0.0237675812 -0.00546514383
  endloop
 endfacet

 facet normal -0.968610287 0.0164517872 -0.248039275
  outer loop
  vertex -0.0194111466 0.0161090139 -0.00624210155
  vertex -0.0194800273 0.0237675812 -0.00546514383
  vertex -0.0193934347 0.0175022297 -0.00621885993
  endloop
 endfacet

 facet normal -0.966065168 0.0176485255 -0.2576949
  outer loop
  vertex -0.0193540752 0.0202870127 -0.00617569452
  vertex -0.0193934347 0.0175022297 -0.00621885993
  vertex -0.0194800273 0.0237675812 -0.00546514383
  endloop
 endfacet

 facet normal -0.964434803 0.0189217757 -0.263642788
  outer loop
  vertex -0.0193540752 0.0202870127 -0.00617569452
  vertex -0.0194800273 0.0237675812 -0.00546514383
  vertex -0.0193747394 0.0237675812 -0.00585030299
  endloop
 endfacet

 facet normal -0.960541606 0.0202309694 -0.277399451
  outer loop
  vertex -0.0193540752 0.0202870127 -0.00617569452
  vertex -0.0193747394 0.0237675812 -0.00585030299
  vertex -0.0193088111 0.023073446 -0.00612921175
  endloop
 endfacet

 facet normal -0.959519506 0.0216966011 -0.280805439
  outer loop
  vertex -0.0193088111 0.023073446 -0.00612921175
  vertex -0.0193747394 0.0237675812 -0.00585030299
  vertex -0.0192970019 0.0237675812 -0.00611592876
  endloop
 endfacet

 facet normal -0.212589949 0.034605749 -0.976528585
  outer loop
  vertex -0.0190372262 0.0237675812 -0.00617901515
  vertex -0.0186406728 0.0237675812 -0.00626534456
  vertex -0.0185796637 0.0188954454 -0.00645128265
  endloop
 endfacet

 facet normal -0.188199326 0.0351010226 -0.981503427
  outer loop
  vertex -0.0185796637 0.0188954454 -0.00645128265
  vertex -0.0186406728 0.0237675812 -0.00626534456
  vertex -0.0185796637 0.023073446 -0.00630186684
  endloop
 endfacet

 facet normal 0.493392915 0.0176521409 -0.869627476
  outer loop
  vertex -0.016524082 0.0237675812 -0.00607940461
  vertex -0.016319409 0.00692367833 -0.00630518747
  vertex -0.0166529864 0.00692367833 -0.00649444619
  endloop
 endfacet

 facet normal 0.484583765 0.0178411696 -0.874562979
  outer loop
  vertex -0.016524082 0.0237675812 -0.00607940461
  vertex -0.0166529864 0.00692367833 -0.00649444619
  vertex -0.0171863157 0.00692367833 -0.00678995717
  endloop
 endfacet

 facet normal 0.713783324 0.0180581603 -0.700133741
  outer loop
  vertex -0.016524082 0.0237675812 -0.00607940461
  vertex -0.0159248244 0.0237675812 -0.00546846492
  vertex -0.016319409 0.00692367833 -0.00630518747
  endloop
 endfacet

 facet normal -0.823367536 0.0139435679 -0.567337096
  outer loop
  vertex -0.019492818 0.00692367833 -0.00638487749
  vertex -0.0194878988 0.00775466207 -0.0063715945
  vertex -0.0194780584 0.00914622936 -0.00635167398
  endloop
 endfacet

 facet normal -0.991889596 0.00368938548 -0.127049476
  outer loop
  vertex -0.019492818 0.00692367833 -0.00638487749
  vertex -0.0195430033 0.00692367833 -0.00599307707
  vertex -0.0196000747 0.0119326627 -0.0054020579
  endloop
 endfacet

 facet normal -0.991086125 0.00490025245 -0.133133024
  outer loop
  vertex -0.019492818 0.00692367833 -0.00638487749
  vertex -0.0196000747 0.0119326627 -0.0054020579
  vertex -0.0195931867 0.0133258784 -0.0054020579
  endloop
 endfacet

 facet normal -0.990465879 0.00560246268 -0.137643948
  outer loop
  vertex -0.019492818 0.00692367833 -0.00638487749
  vertex -0.0195931867 0.0133258784 -0.0054020579
  vertex -0.0195853151 0.0147174457 -0.0054020579
  endloop
 endfacet

 facet normal -0.988889456 0.00698871538 -0.148488581
  outer loop
  vertex -0.019492818 0.00692367833 -0.00638487749
  vertex -0.0195853151 0.0147174457 -0.0054020579
  vertex -0.0195656344 0.0175022297 -0.0054020579
  endloop
 endfacet

 facet normal -0.986392677 0.0084645506 -0.164188713
  outer loop
  vertex -0.019492818 0.00692367833 -0.00638487749
  vertex -0.0195656344 0.0175022297 -0.0054020579
  vertex -0.0194878988 0.00775466207 -0.0063715945
  endloop
 endfacet

 facet normal -0.958820581 0.0121834669 -0.283750981
  outer loop
  vertex -0.0194780584 0.00914622936 -0.00635167398
  vertex -0.0194672346 0.010539446 -0.00632843096
  vertex -0.0194554273 0.0119326627 -0.00630850857
  endloop
 endfacet

 facet normal -0.984453738 0.00947183743 -0.175389126
  outer loop
  vertex -0.0194780584 0.00914622936 -0.00635167398
  vertex -0.0194878988 0.00775466207 -0.0063715945
  vertex -0.019540051 0.0202870127 -0.0054020579
  endloop
 endfacet

 facet normal -0.981547534 0.010811206 -0.190912724
  outer loop
  vertex -0.0194780584 0.00914622936 -0.00635167398
  vertex -0.019540051 0.0202870127 -0.0054020579
  vertex -0.0194672346 0.010539446 -0.00632843096
  endloop
 endfacet

 facet normal -0.980989933 0.0110842511 -0.193741962
  outer loop
  vertex -0.0194554273 0.0119326627 -0.00630850857
  vertex -0.0194672346 0.010539446 -0.00632843096
  vertex -0.019540051 0.0202870127 -0.0054020579
  endloop
 endfacet

 facet normal -0.980988026 0.0110852998 -0.193751439
  outer loop
  vertex -0.0194554273 0.0119326627 -0.00630850857
  vertex -0.019540051 0.0202870127 -0.0054020579
  vertex -0.0195243079 0.0216802303 -0.0054020579
  endloop
 endfacet

 facet normal -0.979538918 0.0117613254 -0.200911015
  outer loop
  vertex -0.0194554273 0.0119326627 -0.00630850857
  vertex -0.0195243079 0.0216802303 -0.0054020579
  vertex -0.0195075795 0.023073446 -0.0054020579
  endloop
 endfacet

 facet normal -0.975472391 0.0133106746 -0.219719395
  outer loop
  vertex -0.0194554273 0.0119326627 -0.00630850857
  vertex -0.0195075795 0.023073446 -0.0054020579
  vertex -0.0194416512 0.0133258784 -0.00628526695
  endloop
 endfacet

 facet normal -0.999837816 0.0120050553 -0.0134256659
  outer loop
  vertex -0.0195075795 0.023073446 -0.0054020579
  vertex -0.0195243079 0.0216802303 -0.0054020579
  vertex -0.019508563 0.0237675812 -0.0047081071
  endloop
 endfacet

 facet normal -0.998634756 0.0362171903 -0.0376425385
  outer loop
  vertex -0.0195075795 0.023073446 -0.0054020579
  vertex -0.019508563 0.0237675812 -0.0047081071
  vertex -0.0194800273 0.0237675812 -0.00546514383
  endloop
 endfacet

 facet normal 0.918746591 -0.00190864876 -0.394843131
  outer loop
  vertex -0.016319409 0.00692367833 -0.00630518747
  vertex -0.0159248244 0.0237675812 -0.00546846492
  vertex -0.0145363966 0.0237675812 -0.00223777932
  endloop
 endfacet

 facet normal 0.92790401 -0.00821813382 -0.372728676
  outer loop
  vertex -0.016319409 0.00692367833 -0.00630518747
  vertex -0.0145363966 0.0237675812 -0.00223777932
  vertex -0.0160980094 0.00692367833 -0.00575401308
  endloop
 endfacet

 facet normal -0.985408306 0.00904706959 -0.169966325
  outer loop
  vertex -0.0194878988 0.00775466207 -0.0063715945
  vertex -0.0195656344 0.0175022297 -0.0054020579
  vertex -0.0195528436 0.0188954454 -0.0054020579
  endloop
 endfacet

 facet normal -0.985386252 0.00905832835 -0.170094222
  outer loop
  vertex -0.0194878988 0.00775466207 -0.0063715945
  vertex -0.0195528436 0.0188954454 -0.0054020579
  vertex -0.019540051 0.0202870127 -0.0054020579
  endloop
 endfacet

 facet normal -0.993085086 0.00117692386 -0.117391422
  outer loop
  vertex -0.0195430033 0.00692367833 -0.00599307707
  vertex -0.0196128674 0.00692367833 -0.0054020579
  vertex -0.019611882 0.00775466207 -0.0054020579
  endloop
 endfacet

 facet normal -0.992930472 0.00210587424 -0.118679531
  outer loop
  vertex -0.0195430033 0.00692367833 -0.00599307707
  vertex -0.019611882 0.00775466207 -0.0054020579
  vertex -0.0196089316 0.00914622936 -0.0054020579
  endloop
 endfacet

 facet normal -0.992615461 0.00280435802 -0.121271059
  outer loop
  vertex -0.0195430033 0.00692367833 -0.00599307707
  vertex -0.0196089316 0.00914622936 -0.0054020579
  vertex -0.0196049958 0.010539446 -0.0054020579
  endloop
 endfacet

 facet normal -0.992088437 0.0035034013 -0.125492424
  outer loop
  vertex -0.0195430033 0.00692367833 -0.00599307707
  vertex -0.0196049958 0.010539446 -0.0054020579
  vertex -0.0196000747 0.0119326627 -0.0054020579
  endloop
 endfacet

 facet normal -0.999171078 0.0035284122 0.0405585133
  outer loop
  vertex -0.0196000747 0.0119326627 -0.0054020579
  vertex -0.0196049958 0.010539446 -0.0054020579
  vertex -0.0195016749 0.0237675812 -0.00400751783
  endloop
 endfacet

 facet normal -0.999579072 0.00494224438 0.0285886507
  outer loop
  vertex -0.0196000747 0.0119326627 -0.0054020579
  vertex -0.0195016749 0.0237675812 -0.00400751783
  vertex -0.0195931867 0.0133258784 -0.0054020579
  endloop
 endfacet

 facet normal -0.999713361 0.00565476948 0.0232623909
  outer loop
  vertex -0.0195931867 0.0133258784 -0.0054020579
  vertex -0.0195016749 0.0237675812 -0.00400751783
  vertex -0.0195853151 0.0147174457 -0.0054020579
  endloop
 endfacet

 facet normal -0.999875486 0.00706635695 0.0141113494
  outer loop
  vertex -0.0195853151 0.0147174457 -0.0054020579
  vertex -0.0195016749 0.0237675812 -0.00400751783
  vertex -0.0195656344 0.0175022297 -0.0054020579
  endloop
 endfacet

 facet normal -0.999919534 0.00801937561 0.00983166508
  outer loop
  vertex -0.0195656344 0.0175022297 -0.0054020579
  vertex -0.0195016749 0.0237675812 -0.00400751783
  vertex -0.019508563 0.0237675812 -0.0047081071
  endloop
 endfacet

 facet normal -0.999957681 0.00918064825 -0.000649762573
  outer loop
  vertex -0.0195656344 0.0175022297 -0.0054020579
  vertex -0.019508563 0.0237675812 -0.0047081071
  vertex -0.0195528436 0.0188954454 -0.0054020579
  endloop
 endfacet

 facet normal -0.999957502 0.00919227675 -0.000731424778
  outer loop
  vertex -0.019540051 0.0202870127 -0.0054020579
  vertex -0.0195528436 0.0188954454 -0.0054020579
  vertex -0.019508563 0.0237675812 -0.0047081071
  endloop
 endfacet

 facet normal -0.999872327 0.0112986946 -0.0113002071
  outer loop
  vertex -0.019540051 0.0202870127 -0.0054020579
  vertex -0.019508563 0.0237675812 -0.0047081071
  vertex -0.0195243079 0.0216802303 -0.0054020579
  endloop
 endfacet

 facet normal 0.942214608 -0.0175144617 -0.334551781
  outer loop
  vertex -0.0145363966 0.0237675812 -0.00223777932
  vertex -0.0159730408 0.00692367833 -0.0054020579
  vertex -0.0160980094 0.00692367833 -0.00575401308
  endloop
 endfacet

 facet normal 0.856156826 0.422314972 -0.297734022
  outer loop
  vertex -0.0145363966 0.0237675812 -0.00223777932
  vertex -0.00956324488 0.0237675812 0.012062897
  vertex -0.00956127699 0.0237659328 0.0120662171
  endloop
 endfacet

 facet normal 0.944332242 -0.0188407172 -0.328453392
  outer loop
  vertex -0.0145363966 0.0237675812 -0.00223777932
  vertex -0.00956127699 0.0237659328 0.0120662171
  vertex -0.0159730408 0.00692367833 -0.0054020579
  endloop
 endfacet

 facet normal -0.983959377 -0.00825817324 0.178201422
  outer loop
  vertex -0.0196128674 0.00692367833 -0.0054020579
  vertex -0.0195262749 0.00692367833 -0.00492392993
  vertex -0.0195016749 0.0237675812 -0.00400751783
  endloop
 endfacet

 facet normal -0.997866273 0.00118259026 0.0652803257
  outer loop
  vertex -0.0196128674 0.00692367833 -0.0054020579
  vertex -0.0195016749 0.0237675812 -0.00400751783
  vertex -0.019611882 0.00775466207 -0.0054020579
  endloop
 endfacet

 facet normal -0.998506486 0.00211770041 0.0545934513
  outer loop
  vertex -0.019611882 0.00775466207 -0.0054020579
  vertex -0.0195016749 0.0237675812 -0.00400751783
  vertex -0.0196089316 0.00914622936 -0.0054020579
  endloop
 endfacet

 facet normal -0.998879671 0.00282205571 0.0472371839
  outer loop
  vertex -0.0196089316 0.00914622936 -0.0054020579
  vertex -0.0195016749 0.0237675812 -0.00400751783
  vertex -0.0196049958 0.010539446 -0.0054020579
  endloop
 endfacet

 facet normal -0.982144833 -0.00878961757 0.187920809
  outer loop
  vertex -0.0195016749 0.0237675812 -0.00400751783
  vertex -0.0195262749 0.00692367833 -0.00492392993
  vertex -0.0193954036 0.00692367833 -0.00423994148
  endloop
 endfacet

 facet normal -0.975353897 -0.00919569656 0.220454752
  outer loop
  vertex -0.0195016749 0.0237675812 -0.00400751783
  vertex -0.0193954036 0.00692367833 -0.00423994148
  vertex -0.0194819961 0.0216802303 -0.00400751783
  endloop
 endfacet

 facet normal -0.968523026 -0.00913129468 0.24875617
  outer loop
  vertex -0.0195016749 0.0237675812 -0.00400751783
  vertex -0.0194819961 0.0216802303 -0.00400751783
  vertex -0.0193993393 0.0237675812 -0.003609078
  endloop
 endfacet

 facet normal 0.959938288 -0.0903326198 -0.265251815
  outer loop
  vertex -0.0159730408 0.00692367833 -0.0054020579
  vertex -0.00956127699 0.0237659328 0.0120662171
  vertex -0.00956127699 0.00857575331 0.0172392968
  endloop
 endfacet

 facet normal 0.954086363 -0.150051847 -0.259237081
  outer loop
  vertex -0.0159730408 0.00692367833 -0.0054020579
  vertex -0.00956127699 0.00857575331 0.0172392968
  vertex -0.00956127699 0.00830040686 0.0173986722
  endloop
 endfacet

 facet normal 0.953774035 -0.152417123 -0.259006441
  outer loop
  vertex -0.0159730408 0.00692367833 -0.0054020579
  vertex -0.00956127699 0.00830040686 0.0173986722
  vertex -0.00956127699 0.00692367833 0.0182088353
  endloop
 endfacet

 facet normal 0.652647376 0.757585704 -0.010742886
  outer loop
  vertex -0.00956324488 0.0237675812 0.012062897
  vertex -0.00956127699 0.0237675812 0.0121824285
  vertex -0.00956127699 0.0237659328 0.0120662171
  endloop
 endfacet

 facet normal 1 0 0
  outer loop
  vertex -0.00956127699 0.0237659328 0.0120662171
  vertex -0.00956127699 0.0237675812 0.0121824285
  vertex -0.00956127699 0.0237675812 0.0217947941
  endloop
 endfacet

 facet normal 1 0 0
  outer loop
  vertex -0.00956127699 0.0237659328 0.0120662171
  vertex -0.00956127699 0.0237675812 0.0217947941
  vertex -0.00956127699 0.0224370193 0.0246602427
  endloop
 endfacet

 facet normal 1 0 0
  outer loop
  vertex -0.00956127699 0.0237659328 0.0120662171
  vertex -0.00956127699 0.0224370193 0.0246602427
  vertex -0.00956127699 0.021223519 0.0262838844
  endloop
 endfacet

 facet normal 1 0 0
  outer loop
  vertex -0.00956127699 0.0237659328 0.0120662171
  vertex -0.00956127699 0.021223519 0.0262838844
  vertex -0.00956127699 0.0202870127 0.026798537
  endloop
 endfacet

 facet normal 1 0 0
  outer loop
  vertex -0.00956127699 0.0237659328 0.0120662171
  vertex -0.00956127699 0.0202870127 0.026798537
  vertex -0.00956127699 0.0188954454 0.0270508826
  endloop
 endfacet

 facet normal 1 0 0
  outer loop
  vertex -0.00956127699 0.0237659328 0.0120662171
  vertex -0.00956127699 0.0188954454 0.0270508826
  vertex -0.00956127699 0.00982882269 0.0267022476
  endloop
 endfacet

 facet normal 1 0 0
  outer loop
  vertex -0.00956127699 0.0237659328 0.0120662171
  vertex -0.00956127699 0.00982882269 0.0267022476
  vertex -0.00956127699 0.00914622936 0.0266756844
  endloop
 endfacet

 facet normal 1 0 0
  outer loop
  vertex -0.00956127699 0.0237659328 0.0120662171
  vertex -0.00956127699 0.00914622936 0.0266756844
  vertex -0.00956127699 0.00854937267 0.0264797863
  endloop
 endfacet

 facet normal 1 0 0
  outer loop
  vertex -0.00956127699 0.0237659328 0.0120662171
  vertex -0.00956127699 0.00854937267 0.0264797863
  vertex -0.00956127699 0.00819818303 0.0262407213
  endloop
 endfacet

 facet normal 1 0 0
  outer loop
  vertex -0.00956127699 0.0237659328 0.0120662171
  vertex -0.00956127699 0.00819818303 0.0262407213
  vertex -0.00956127699 0.00692367833 0.0251616128
  endloop
 endfacet

 facet normal 1 0 0
  outer loop
  vertex -0.00956127699 0.0237659328 0.0120662171
  vertex -0.00956127699 0.00692367833 0.0251616128
  vertex -0.00956127699 0.00692367833 0.0182088353
  endloop
 endfacet

 facet normal 1 0 0
  outer loop
  vertex -0.00956127699 0.0237659328 0.0120662171
  vertex -0.00956127699 0.00692367833 0.0182088353
  vertex -0.00956127699 0.00830040686 0.0173986722
  endloop
 endfacet

 facet normal 1 0 0
  outer loop
  vertex -0.00956127699 0.0237659328 0.0120662171
  vertex -0.00956127699 0.00830040686 0.0173986722
  vertex -0.00956127699 0.00857575331 0.0172392968
  endloop
 endfacet

 facet normal -0.96889627 -0.00958035048 0.247282177
  outer loop
  vertex -0.0193954036 0.00692367833 -0.00423994148
  vertex -0.01946822 0.0202870127 -0.00400751783
  vertex -0.0194819961 0.0216802303 -0.00400751783
  endloop
 endfacet

 facet normal -0.968345761 -0.00961466227 0.249427497
  outer loop
  vertex -0.0193954036 0.00692367833 -0.00423994148
  vertex -0.0191208664 0.00692367833 -0.00317411381
  vertex -0.01946822 0.0202870127 -0.00400751783
  endloop
 endfacet

 facet normal -0.968274593 -0.00957420189 0.249704987
  outer loop
  vertex -0.0194819961 0.0216802303 -0.00400751783
  vertex -0.01946822 0.0202870127 -0.00400751783
  vertex -0.019119883 0.0237675812 -0.00252332888
  endloop
 endfacet

 facet normal -0.968394756 -0.00923092943 0.249251515
  outer loop
  vertex -0.0194819961 0.0216802303 -0.00400751783
  vertex -0.019119883 0.0237675812 -0.00252332888
  vertex -0.0193993393 0.0237675812 -0.003609078
  endloop
 endfacet

 facet normal -0.968340337 -0.00961321406 0.249448508
  outer loop
  vertex -0.01946822 0.0202870127 -0.00400751783
  vertex -0.0191208664 0.00692367833 -0.00317411381
  vertex -0.0192546919 0.0147174457 -0.00339325634
  endloop
 endfacet

 facet normal -0.968271852 -0.00958113093 0.249715567
  outer loop
  vertex -0.01946822 0.0202870127 -0.00400751783
  vertex -0.0192546919 0.0147174457 -0.00339325634
  vertex -0.018605249 0.0237675812 -0.000527808385
  endloop
 endfacet

 facet normal -0.968272805 -0.0095774224 0.24971211
  outer loop
  vertex -0.01946822 0.0202870127 -0.00400751783
  vertex -0.018605249 0.0237675812 -0.000527808385
  vertex -0.019119883 0.0237675812 -0.00252332888
  endloop
 endfacet

 facet normal -0.968255341 -0.00960245635 0.249779195
  outer loop
  vertex -0.0191208664 0.00692367833 -0.00317411381
  vertex -0.018605249 0.0237675812 -0.000527808385
  vertex -0.0192546919 0.0147174457 -0.00339325634
  endloop
 endfacet

 facet normal -0.968237758 -0.00975720398 0.249841079
  outer loop
  vertex -0.0191208664 0.00692367833 -0.00317411381
  vertex -0.0171794295 0.00692367833 0.00434976164
  vertex -0.0157782082 0.010539446 0.0099212816
  endloop
 endfacet

 facet normal -0.968249202 -0.00960627943 0.249802336
  outer loop
  vertex -0.0191208664 0.00692367833 -0.00317411381
  vertex -0.0157782082 0.010539446 0.0099212816
  vertex -0.018605249 0.0237675812 -0.000527808385
  endloop
 endfacet

 facet normal -0.376667142 -0.598587751 0.706975639
  outer loop
  vertex -0.00956127699 0.00692367833 0.0251616128
  vertex -0.00956127699 0.00819818303 0.0262407213
  vertex -0.00986041408 0.00692367833 0.0250022374
  endloop
 endfacet

 facet normal -0.00637341803 0.906969309 0.421148479
  outer loop
  vertex -0.00956127699 0.0237675812 0.0217947941
  vertex -0.00978070963 0.0237675812 0.0217914749
  vertex -0.00956127699 0.0224370193 0.0246602427
  endloop
 endfacet

 facet normal -0.96824795 -0.00960172061 0.24980779
  outer loop
  vertex -0.018605249 0.0237675812 -0.000527808385
  vertex -0.0157782082 0.010539446 0.0099212816
  vertex -0.0164522491 0.0202870127 0.00768337678
  endloop
 endfacet

 facet normal -0.968246222 -0.00958415866 0.249814779
  outer loop
  vertex -0.018605249 0.0237675812 -0.000527808385
  vertex -0.0164522491 0.0202870127 0.00768337678
  vertex -0.0175592527 0.0237675812 0.00352631998
  endloop
 endfacet

 facet normal -0.968220949 -0.00985740218 0.249901876
  outer loop
  vertex -0.0171794295 0.00692367833 0.00434976164
  vertex -0.0152871897 0.00692367833 0.0116810584
  vertex -0.0157782082 0.010539446 0.0099212816
  endloop
 endfacet

 facet normal -0.968115389 -0.00963981543 0.250319511
  outer loop
  vertex -0.0157782082 0.010539446 0.0099212816
  vertex -0.0152871897 0.00692367833 0.0116810584
  vertex -0.0150539819 0.0237675812 0.0132316547
  endloop
 endfacet

 facet normal -0.968175769 -0.00957863498 0.250088245
  outer loop
  vertex -0.0157782082 0.010539446 0.0099212816
  vertex -0.0150539819 0.0237675812 0.0132316547
  vertex -0.0159090795 0.0237675812 0.0099212816
  endloop
 endfacet

 facet normal -0.968224585 -0.00957911834 0.249899194
  outer loop
  vertex -0.0157782082 0.010539446 0.0099212816
  vertex -0.0159090795 0.0237675812 0.0099212816
  vertex -0.0164522491 0.0202870127 0.00768337678
  endloop
 endfacet

 facet normal -0.66801089 -0.418750525 0.615149975
  outer loop
  vertex -0.00956127699 0.00819818303 0.0262407213
  vertex -0.00956127699 0.00854937267 0.0264797863
  vertex -0.00963310897 0.0082542412 0.0262008775
  endloop
 endfacet

 facet normal -0.670741737 -0.429890037 0.604400635
  outer loop
  vertex -0.00956127699 0.00819818303 0.0262407213
  vertex -0.00963310897 0.0082542412 0.0262008775
  vertex -0.00986041408 0.00692367833 0.0250022374
  endloop
 endfacet

 facet normal -0.759412229 -0.359041899 0.542569935
  outer loop
  vertex -0.00986041408 0.00692367833 0.0250022374
  vertex -0.00963310897 0.0082542412 0.0262008775
  vertex -0.0102992794 0.00692367833 0.0243879762
  endloop
 endfacet

 facet normal -0.0314919502 0.905802369 0.422528595
  outer loop
  vertex -0.00978070963 0.0237675812 0.0217914749
  vertex -0.0102707427 0.0237675812 0.0217549503
  vertex -0.00956127699 0.0224370193 0.0246602427
  endloop
 endfacet

 facet normal -0.0342881195 0.905456066 0.423052788
  outer loop
  vertex -0.00956127699 0.0224370193 0.0246602427
  vertex -0.0102707427 0.0237675812 0.0217549503
  vertex -0.0106958328 0.0237576906 0.0217416696
  endloop
 endfacet

 facet normal -0.0804129466 0.896003366 0.436705798
  outer loop
  vertex -0.00956127699 0.0224370193 0.0246602427
  vertex -0.0106958328 0.0237576906 0.0217416696
  vertex -0.00963409338 0.0224337224 0.0246536005
  endloop
 endfacet

 facet normal -0.0905092359 0.797713161 0.596206188
  outer loop
  vertex -0.00956127699 0.0224370193 0.0246602427
  vertex -0.00963409338 0.0224337224 0.0246536005
  vertex -0.00956127699 0.021223519 0.0262838844
  endloop
 endfacet

 facet normal -0.968236029 -0.00955096632 0.249855891
  outer loop
  vertex -0.0164522491 0.0202870127 0.00768337678
  vertex -0.0164660271 0.023073446 0.00773650222
  vertex -0.0168173164 0.0237675812 0.00640172791
  endloop
 endfacet

 facet normal -0.968241572 -0.00955956336 0.249834135
  outer loop
  vertex -0.0164522491 0.0202870127 0.00768337678
  vertex -0.0168173164 0.0237675812 0.00640172791
  vertex -0.0175592527 0.0237675812 0.00352631998
  endloop
 endfacet

 facet normal -0.968235373 -0.00955100544 0.249858081
  outer loop
  vertex -0.0164522491 0.0202870127 0.00768337678
  vertex -0.0159090795 0.0237675812 0.0099212816
  vertex -0.0164660271 0.023073446 0.00773650222
  endloop
 endfacet

 facet normal -0.967993975 -0.00968447886 0.250786424
  outer loop
  vertex -0.0152871897 0.00692367833 0.0116810584
  vertex -0.0151504138 0.00692367833 0.0122089917
  vertex -0.0150539819 0.0237675812 0.0132316547
  endloop
 endfacet

 facet normal -0.967646003 -0.00976761244 0.252122879
  outer loop
  vertex -0.0150539819 0.0237675812 0.0132316547
  vertex -0.0151504138 0.00692367833 0.0122089917
  vertex -0.0150156058 0.0161090139 0.0130822398
  endloop
 endfacet

 facet normal -0.950700641 -0.0108103324 0.309921861
  outer loop
  vertex -0.0150539819 0.0237675812 0.0132316547
  vertex -0.0150156058 0.0161090139 0.0130822398
  vertex -0.0147725567 0.0237675812 0.0140949413
  endloop
 endfacet

 facet normal -0.968235672 -0.00954816118 0.249857232
  outer loop
  vertex -0.0159090795 0.0237675812 0.0099212816
  vertex -0.0168173164 0.0237675812 0.00640172791
  vertex -0.0164660271 0.023073446 0.00773650222
  endloop
 endfacet

 facet normal -0.88719821 -0.143884182 0.438379735
  outer loop
  vertex -0.00956127699 0.00854937267 0.0264797863
  vertex -0.00956127699 0.00914622936 0.0266756844
  vertex -0.010851305 0.00692367833 0.0233354289
  endloop
 endfacet

 facet normal -0.869120598 -0.191971228 0.455825031
  outer loop
  vertex -0.00956127699 0.00854937267 0.0264797863
  vertex -0.010851305 0.00692367833 0.0233354289
  vertex -0.0102992794 0.00692367833 0.0243879762
  endloop
 endfacet

 facet normal -0.817936182 -0.277289927 0.504074097
  outer loop
  vertex -0.00956127699 0.00854937267 0.0264797863
  vertex -0.0102992794 0.00692367833 0.0243879762
  vertex -0.00963310897 0.0082542412 0.0262008775
  endloop
 endfacet

 facet normal -0.0342789777 0.905665994 0.422603905
  outer loop
  vertex -0.0102707427 0.0237675812 0.0217549503
  vertex -0.0106800878 0.0237675812 0.0217217468
  vertex -0.0106958328 0.0237576906 0.0217416696
  endloop
 endfacet

 facet normal -0.506991208 0.699905038 0.503083289
  outer loop
  vertex -0.0106958328 0.0237576906 0.0217416696
  vertex -0.0109802093 0.0224633981 0.0232557412
  vertex -0.00963409338 0.0224337224 0.0246536005
  endloop
 endfacet

 facet normal -0.275321603 0.92984432 0.244105682
  outer loop
  vertex -0.0106958328 0.0237576906 0.0217416696
  vertex -0.0106800878 0.0237675812 0.0217217468
  vertex -0.0113925068 0.0237675812 0.0209182259
  endloop
 endfacet

 facet normal -0.555070162 0.680887699 0.477796257
  outer loop
  vertex -0.0106958328 0.0237576906 0.0217416696
  vertex -0.0113925068 0.0237675812 0.0209182259
  vertex -0.0109802093 0.0224633981 0.0232557412
  endloop
 endfacet

 facet normal -0.426867425 0.71688813 0.551231027
  outer loop
  vertex -0.00963409338 0.0224337224 0.0246536005
  vertex -0.00968427677 0.0211987868 0.0262207985
  vertex -0.00956127699 0.021223519 0.0262838844
  endloop
 endfacet

 facet normal -0.52234304 0.677832484 0.517398238
  outer loop
  vertex -0.00963409338 0.0224337224 0.0246536005
  vertex -0.0109802093 0.0224633981 0.0232557412
  vertex -0.00968427677 0.0211987868 0.0262207985
  endloop
 endfacet

 facet normal -0.479444593 0.42264992 0.769090295
  outer loop
  vertex -0.00956127699 0.021223519 0.0262838844
  vertex -0.00968427677 0.0211987868 0.0262207985
  vertex -0.00956127699 0.0202870127 0.026798537
  endloop
 endfacet

 facet normal -0.96658963 -0.0101958886 0.256126255
  outer loop
  vertex -0.0151504138 0.00692367833 0.0122089917
  vertex -0.0150756296 0.00692367833 0.0124912197
  vertex -0.0149929738 0.0119326627 0.0130025512
  endloop
 endfacet

 facet normal -0.966715991 -0.0101167625 0.255651891
  outer loop
  vertex -0.0151504138 0.00692367833 0.0122089917
  vertex -0.0149929738 0.0119326627 0.0130025512
  vertex -0.0150156058 0.0161090139 0.0130822398
  endloop
 endfacet

 facet normal -0.950031281 -0.0111006927 0.311957091
  outer loop
  vertex -0.0150156058 0.0161090139 0.0130822398
  vertex -0.0149929738 0.0119326627 0.0130025512
  vertex -0.0147725567 0.0237675812 0.0140949413
  endloop
 endfacet

 facet normal -0.949156523 -0.0113608819 0.314599454
  outer loop
  vertex -0.0147725567 0.0237675812 0.0140949413
  vertex -0.0149929738 0.0119326627 0.0130025512
  vertex -0.0149772298 0.00914622936 0.0129494257
  endloop
 endfacet

 facet normal -0.949087024 -0.0113782417 0.314808667
  outer loop
  vertex -0.0147725567 0.0237675812 0.0140949413
  vertex -0.0149772298 0.00914622936 0.0129494257
  vertex -0.0149693573 0.00775466207 0.0129228635
  endloop
 endfacet

 facet normal -0.946216822 -0.0120357173 0.323309124
  outer loop
  vertex -0.0147725567 0.0237675812 0.0140949413
  vertex -0.0149693573 0.00775466207 0.0129228635
  vertex -0.0146751413 0.0161090139 0.0140949413
  endloop
 endfacet

 facet normal -0.938199878 -0.011933743 0.345888227
  outer loop
  vertex -0.0147725567 0.0237675812 0.0140949413
  vertex -0.0146751413 0.0161090139 0.0140949413
  vertex -0.0145167168 0.0237675812 0.0147888912
  endloop
 endfacet

 facet normal -0.92844975 -0.0144442897 0.371177107
  outer loop
  vertex -0.00956127699 0.00914622936 0.0266756844
  vertex -0.00956127699 0.00982882269 0.0267022476
  vertex -0.0117713474 0.00692367833 0.0210609995
  endloop
 endfacet

 facet normal -0.928385258 -0.0148730539 0.371321499
  outer loop
  vertex -0.00956127699 0.00914622936 0.0266756844
  vertex -0.0117713474 0.00692367833 0.0210609995
  vertex -0.0109280571 0.00692367833 0.0231694113
  endloop
 endfacet

 facet normal -0.902838409 -0.103268251 0.417394876
  outer loop
  vertex -0.00956127699 0.00914622936 0.0266756844
  vertex -0.0109280571 0.00692367833 0.0231694113
  vertex -0.010851305 0.00692367833 0.0233354289
  endloop
 endfacet

 facet normal -0.901037931 0.11369732 0.418573439
  outer loop
  vertex -0.0109802093 0.0224633981 0.0232557412
  vertex -0.0110235047 0.0216802303 0.0233752746
  vertex -0.00976791698 0.0202870127 0.0264565423
  endloop
 endfacet

 facet normal -0.864059865 0.198833317 0.462456346
  outer loop
  vertex -0.0109802093 0.0224633981 0.0232557412
  vertex -0.00976791698 0.0202870127 0.0264565423
  vertex -0.00968427677 0.0211987868 0.0262207985
  endloop
 endfacet

 facet normal -0.61031723 0.641078115 0.465329707
  outer loop
  vertex -0.0109802093 0.0224633981 0.0232557412
  vertex -0.0113925068 0.0237675812 0.0209182259
  vertex -0.0125241103 0.0237675812 0.0194340367
  endloop
 endfacet

 facet normal -0.891595602 0.17201376 0.418889701
  outer loop
  vertex -0.0109802093 0.0224633981 0.0232557412
  vertex -0.0125241103 0.0237675812 0.0194340367
  vertex -0.0125831505 0.023073446 0.0195934121
  endloop
 endfacet

 facet normal -0.903153837 0.113137841 0.414141387
  outer loop
  vertex -0.0109802093 0.0224633981 0.0232557412
  vertex -0.0125831505 0.023073446 0.0195934121
  vertex -0.0110235047 0.0216802303 0.0233752746
  endloop
 endfacet

 facet normal -0.837248325 0.207601711 0.505882084
  outer loop
  vertex -0.00968427677 0.0211987868 0.0262207985
  vertex -0.00976791698 0.0202870127 0.0264565423
  vertex -0.00956127699 0.0202870127 0.026798537
  endloop
 endfacet

 facet normal -0.852156401 0.0933694839 0.514889836
  outer loop
  vertex -0.00956127699 0.0202870127 0.026798537
  vertex -0.00976791698 0.0202870127 0.0264565423
  vertex -0.00956127699 0.0188954454 0.0270508826
  endloop
 endfacet

 facet normal -0.965291917 -0.0120701492 0.260894418
  outer loop
  vertex -0.0150756296 0.00692367833 0.0124912197
  vertex -0.0149634536 0.00692367833 0.0129062617
  vertex -0.0149693573 0.00775466207 0.0129228635
  endloop
 endfacet

 facet normal -0.966126382 -0.0103876032 0.25786069
  outer loop
  vertex -0.0150756296 0.00692367833 0.0124912197
  vertex -0.0149693573 0.00775466207 0.0129228635
  vertex -0.0149772298 0.00914622936 0.0129494257
  endloop
 endfacet

 facet normal -0.96614325 -0.0103738885 0.257797778
  outer loop
  vertex -0.0150756296 0.00692367833 0.0124912197
  vertex -0.0149772298 0.00914622936 0.0129494257
  vertex -0.0149929738 0.0119326627 0.0130025512
  endloop
 endfacet

 facet normal -0.945524335 -0.0132160988 0.325283229
  outer loop
  vertex -0.0149693573 0.00775466207 0.0129228635
  vertex -0.0149634536 0.00692367833 0.0129062617
  vertex -0.014800109 0.00692367833 0.0133810695
  endloop
 endfacet

 facet normal -0.945471227 -0.0131180352 0.32544148
  outer loop
  vertex -0.0149693573 0.00775466207 0.0129228635
  vertex -0.014800109 0.00692367833 0.0133810695
  vertex -0.0145659158 0.00775466207 0.0140949413
  endloop
 endfacet

 facet normal -0.945476353 -0.0127033181 0.325443238
  outer loop
  vertex -0.0149693573 0.00775466207 0.0129228635
  vertex -0.0145659158 0.00775466207 0.0140949413
  vertex -0.014584613 0.00914622936 0.0140949413
  endloop
 endfacet

 facet normal -0.945630968 -0.0122948345 0.325009048
  outer loop
  vertex -0.0149693573 0.00775466207 0.0129228635
  vertex -0.014584613 0.00914622936 0.0140949413
  vertex -0.0146751413 0.0161090139 0.0140949413
  endloop
 endfacet

 facet normal -0.937247157 -0.0121858297 0.348452806
  outer loop
  vertex -0.0146751413 0.0161090139 0.0140949413
  vertex -0.014584613 0.00914622936 0.0140949413
  vertex -0.0145167168 0.0237675812 0.0147888912
  endloop
 endfacet

 facet normal -0.937118709 -0.0122027826 0.348797411
  outer loop
  vertex -0.0145167168 0.0237675812 0.0147888912
  vertex -0.014584613 0.00914622936 0.0140949413
  vertex -0.0142559558 0.0237675812 0.0154894814
  endloop
 endfacet

 facet normal -0.928467035 -0.0142712994 0.371140569
  outer loop
  vertex -0.00956127699 0.00982882269 0.0267022476
  vertex -0.00956127699 0.0188954454 0.0270508826
  vertex -0.0118057877 0.00914622936 0.0210609995
  endloop
 endfacet

 facet normal -0.928460598 -0.0143873598 0.371152103
  outer loop
  vertex -0.00956127699 0.00982882269 0.0267022476
  vertex -0.0118057877 0.00914622936 0.0210609995
  vertex -0.0117713474 0.00692367833 0.0210609995
  endloop
 endfacet

 facet normal -0.928484559 -0.0143877296 0.37109229
  outer loop
  vertex -0.0117713474 0.00692367833 0.0210609995
  vertex -0.0118057877 0.00914622936 0.0210609995
  vertex -0.0140325865 0.00914622936 0.0154894814
  endloop
 endfacet

 facet normal -0.928542554 -0.0148566393 0.370928764
  outer loop
  vertex -0.0117713474 0.00692367833 0.0210609995
  vertex -0.0140325865 0.00914622936 0.0154894814
  vertex -0.0145541085 0.00692367833 0.0140949413
  endloop
 endfacet

 facet normal -0.916008174 0.0537062697 0.397548288
  outer loop
  vertex -0.0110235047 0.0216802303 0.0233752746
  vertex -0.0125831505 0.023073446 0.0195934121
  vertex -0.00976791698 0.0202870127 0.0264565423
  endloop
 endfacet

 facet normal -0.916935265 0.0336614586 0.397613972
  outer loop
  vertex -0.00976791698 0.0202870127 0.0264565423
  vertex -0.0102963271 0.0202870127 0.0252379794
  vertex -0.00956127699 0.0188954454 0.0270508826
  endloop
 endfacet

 facet normal -0.916171074 0.0528873466 0.3972826
  outer loop
  vertex -0.00976791698 0.0202870127 0.0264565423
  vertex -0.0125831505 0.023073446 0.0195934121
  vertex -0.0102963271 0.0202870127 0.0252379794
  endloop
 endfacet

 facet normal -0.898605585 0.169363841 0.404751629
  outer loop
  vertex -0.0125241103 0.0237675812 0.0194340367
  vertex -0.0138416905 0.0237675812 0.0165088233
  vertex -0.0125831505 0.023073446 0.0195934121
  endloop
 endfacet

 facet normal -0.922907948 0.0213223007 0.384429902
  outer loop
  vertex -0.0125831505 0.023073446 0.0195934121
  vertex -0.0131322239 0.023073446 0.0182752404
  vertex -0.0102963271 0.0202870127 0.0252379794
  endloop
 endfacet

 facet normal -0.922552764 0.0349824093 0.384281963
  outer loop
  vertex -0.0125831505 0.023073446 0.0195934121
  vertex -0.0138416905 0.0237675812 0.0165088233
  vertex -0.0131322239 0.023073446 0.0182752404
  endloop
 endfacet

 facet normal -0.925468564 0.00463855267 0.37879616
  outer loop
  vertex -0.00956127699 0.0188954454 0.0270508826
  vertex -0.0102963271 0.0202870127 0.0252379794
  vertex -0.0131322239 0.023073446 0.0182752404
  endloop
 endfacet

 facet normal -0.928422093 -0.0136831431 0.371275157
  outer loop
  vertex -0.00956127699 0.0188954454 0.0270508826
  vertex -0.0131322239 0.023073446 0.0182752404
  vertex -0.0119976681 0.0216802303 0.0210609995
  endloop
 endfacet

 facet normal -0.928435981 -0.0137773883 0.37123701
  outer loop
  vertex -0.00956127699 0.0188954454 0.0270508826
  vertex -0.0119976681 0.0216802303 0.0210609995
  vertex -0.0131115597 0.0216802303 0.0182752404
  endloop
 endfacet

 facet normal -0.928481102 -0.0142469695 0.371106267
  outer loop
  vertex -0.00956127699 0.0188954454 0.0270508826
  vertex -0.0131115597 0.0216802303 0.0182752404
  vertex -0.0118057877 0.00914622936 0.0210609995
  endloop
 endfacet

 facet normal -0.945353985 -0.0134324767 0.325769037
  outer loop
  vertex -0.014800109 0.00692367833 0.0133810695
  vertex -0.0145541085 0.00692367833 0.0140949413
  vertex -0.0145659158 0.00775466207 0.0140949413
  endloop
 endfacet

 facet normal -0.9330163 -0.013257172 0.359589875
  outer loop
  vertex -0.0145659158 0.00775466207 0.0140949413
  vertex -0.0145541085 0.00692367833 0.0140949413
  vertex -0.0142461155 0.023073446 0.0154894814
  endloop
 endfacet

 facet normal -0.93313098 -0.0132277682 0.359293163
  outer loop
  vertex -0.0145659158 0.00775466207 0.0140949413
  vertex -0.0142461155 0.023073446 0.0154894814
  vertex -0.0142559558 0.0237675812 0.0154894814
  endloop
 endfacet

 facet normal -0.935778797 -0.0125730224 0.352363467
  outer loop
  vertex -0.0145659158 0.00775466207 0.0140949413
  vertex -0.0142559558 0.0237675812 0.0154894814
  vertex -0.014584613 0.00914622936 0.0140949413
  endloop
 endfacet

 facet normal -0.92844367 -0.0131613221 0.37124002
  outer loop
  vertex -0.0142559558 0.0237675812 0.0154894814
  vertex -0.0142461155 0.023073446 0.0154894814
  vertex -0.0131322239 0.023073446 0.0182752404
  endloop
 endfacet

 facet normal -0.926358223 0.0112289768 0.376476228
  outer loop
  vertex -0.0142559558 0.0237675812 0.0154894814
  vertex -0.0131322239 0.023073446 0.0182752404
  vertex -0.0138416905 0.0237675812 0.0165088233
  endloop
 endfacet

 facet normal -0.928486347 -0.0142504629 0.371093005
  outer loop
  vertex -0.0118057877 0.00914622936 0.0210609995
  vertex -0.0131115597 0.0216802303 0.0182752404
  vertex -0.0140325865 0.00914622936 0.0154894814
  endloop
 endfacet

 facet normal -0.928886116 -0.0142505718 0.370091319
  outer loop
  vertex -0.0140325865 0.00914622936 0.0154894814
  vertex -0.014182155 0.0188954454 0.0154894814
  vertex -0.0145541085 0.00692367833 0.0140949413
  endloop
 endfacet

 facet normal -0.928495824 -0.0142445853 0.3710697
  outer loop
  vertex -0.0140325865 0.00914622936 0.0154894814
  vertex -0.0131115597 0.0216802303 0.0182752404
  vertex -0.014182155 0.0188954454 0.0154894814
  endloop
 endfacet

 facet normal -0.928975701 -0.0142216999 0.369867384
  outer loop
  vertex -0.0145541085 0.00692367833 0.0140949413
  vertex -0.014182155 0.0188954454 0.0154894814
  vertex -0.0142461155 0.023073446 0.0154894814
  endloop
 endfacet

 facet normal -0.928436041 -0.0137707694 0.37123698
  outer loop
  vertex -0.0131322239 0.023073446 0.0182752404
  vertex -0.0142461155 0.023073446 0.0154894814
  vertex -0.0131115597 0.0216802303 0.0182752404
  endloop
 endfacet

 facet normal -0.928436041 -0.0137707694 0.37123704
  outer loop
  vertex -0.0131322239 0.023073446 0.0182752404
  vertex -0.0131115597 0.0216802303 0.0182752404
  vertex -0.0119976681 0.0216802303 0.0210609995
  endloop
 endfacet

 facet normal -0.928506672 -0.0142145194 0.371043801
  outer loop
  vertex -0.0131115597 0.0216802303 0.0182752404
  vertex -0.0142461155 0.023073446 0.0154894814
  vertex -0.014182155 0.0188954454 0.0154894814
  endloop
 endfacet

endsolid AssimpScene
