solid AssimpScene
 facet normal -0.0910909548 -0.995842576 0
  outer loop
  vertex -0.105293326 -0.0101339705 0.00993089285
  vertex -0.105293326 -0.0101339705 0.0099784648
  vertex -0.112404987 -0.00948345847 0.0099784648
  endloop
 endfacet

 facet normal -0.0910909548 -0.995842576 0
  outer loop
  vertex -0.105293326 -0.0101339705 0.00993089285
  vertex -0.112404987 -0.00948345847 0.0099784648
  vertex -0.112404987 -0.00948345847 0.00695849629
  endloop
 endfacet

 facet normal -0.0909365714 -0.995856702 -0.00037248747
  outer loop
  vertex -0.105293326 -0.0101339705 0.00993089285
  vertex -0.112404987 -0.00948345847 0.00695849629
  vertex -0.105293326 -0.0101328595 0.00695849629
  endloop
 endfacet

 facet normal 1 0 0
  outer loop
  vertex -0.105293326 -0.0101339705 0.00993089285
  vertex -0.105293326 -0.0101328595 0.00695849629
  vertex -0.105293326 -0.0100461235 0.0059806183
  endloop
 endfacet

 facet normal 1 0 0
  outer loop
  vertex -0.105293326 -0.0101339705 0.00993089285
  vertex -0.105293326 -0.0100461235 0.0059806183
  vertex -0.105293326 -0.00802564248 -0.00300000003
  endloop
 endfacet

 facet normal 1 0 0
  outer loop
  vertex -0.105293326 -0.0101339705 0.00993089285
  vertex -0.105293326 -0.00802564248 -0.00300000003
  vertex -0.105293326 -0.00725837005 -0.00300000003
  endloop
 endfacet

 facet normal 1 0 0
  outer loop
  vertex -0.105293326 -0.0101339705 0.00993089285
  vertex -0.105293326 -0.00725837005 -0.00300000003
  vertex -0.105293326 -0.00725837005 0.0149999997
  endloop
 endfacet

 facet normal 1 0 0
  outer loop
  vertex -0.105293326 -0.0101339705 0.00993089285
  vertex -0.105293326 -0.00725837005 0.0149999997
  vertex -0.105293326 -0.0081012575 0.0149999997
  endloop
 endfacet

 facet normal 1 0 0
  outer loop
  vertex -0.105293326 -0.0101339705 0.00993089285
  vertex -0.105293326 -0.0081012575 0.0149999997
  vertex -0.105293326 -0.0101339705 0.0099784648
  endloop
 endfacet

 facet normal -0.0557139479 -0.925495088 0.37463972
  outer loop
  vertex -0.105293326 -0.0101339705 0.0099784648
  vertex -0.105293326 -0.0081012575 0.0149999997
  vertex -0.112404987 -0.00767314201 0.0149999997
  endloop
 endfacet

 facet normal -0.0857333168 -0.937270582 0.33789596
  outer loop
  vertex -0.105293326 -0.0101339705 0.0099784648
  vertex -0.112404987 -0.00767314201 0.0149999997
  vertex -0.112404987 -0.00948345847 0.0099784648
  endloop
 endfacet

 facet normal -0.0906681418 -0.99291718 -0.076778397
  outer loop
  vertex -0.112404987 -0.00948345847 0.00695849629
  vertex -0.112404987 -0.00940784253 0.0059806183
  vertex -0.105293326 -0.0101328595 0.00695849629
  endloop
 endfacet

 facet normal -1 0 0
  outer loop
  vertex -0.112404987 -0.00948345847 0.00695849629
  vertex -0.112404987 -0.00948345847 0.0099784648
  vertex -0.112404987 -0.00767314201 0.0149999997
  endloop
 endfacet

 facet normal -1 0 0
  outer loop
  vertex -0.112404987 -0.00948345847 0.00695849629
  vertex -0.112404987 -0.00767314201 0.0149999997
  vertex -0.112404987 -0.00208873837 0.0149999997
  endloop
 endfacet

 facet normal -1 0 0
  outer loop
  vertex -0.112404987 -0.00948345847 0.00695849629
  vertex -0.112404987 -0.00208873837 0.0149999997
  vertex -0.112404987 -0.00208873837 -0.00300000003
  endloop
 endfacet

 facet normal -1 0 0
  outer loop
  vertex -0.112404987 -0.00948345847 0.00695849629
  vertex -0.112404987 -0.00208873837 -0.00300000003
  vertex -0.112404987 -0.00760531053 -0.00300000003
  endloop
 endfacet

 facet normal -1 0 0
  outer loop
  vertex -0.112404987 -0.00948345847 0.00695849629
  vertex -0.112404987 -0.00760531053 -0.00300000003
  vertex -0.112404987 -0.00940784253 0.0059806183
  endloop
 endfacet

 facet normal -0.0890451968 -0.992132604 -0.0879997686
  outer loop
  vertex -0.105293326 -0.0101328595 0.00695849629
  vertex -0.112404987 -0.00940784253 0.0059806183
  vertex -0.105293326 -0.0100461235 0.0059806183
  endloop
 endfacet

 facet normal 0 0 1
  outer loop
  vertex -0.105293326 -0.0081012575 0.0149999997
  vertex -0.105293326 -0.00725837005 0.0149999997
  vertex -0.105330221 -0.00232559256 0.0149999997
  endloop
 endfacet

 facet normal 0 0 1
  outer loop
  vertex -0.105293326 -0.0081012575 0.0149999997
  vertex -0.105330221 -0.00232559256 0.0149999997
  vertex -0.106245026 0.000568911782 0.0149999997
  endloop
 endfacet

 facet normal 0 0 1
  outer loop
  vertex -0.105293326 -0.0081012575 0.0149999997
  vertex -0.106245026 0.000568911782 0.0149999997
  vertex -0.106414899 0.00107931497 0.0149999997
  endloop
 endfacet

 facet normal 0 0 1
  outer loop
  vertex -0.105293326 -0.0081012575 0.0149999997
  vertex -0.106414899 0.00107931497 0.0149999997
  vertex -0.107334584 0.00122498593 0.0149999997
  endloop
 endfacet

 facet normal 0 0 1
  outer loop
  vertex -0.105293326 -0.0081012575 0.0149999997
  vertex -0.107334584 0.00122498593 0.0149999997
  vertex -0.111025818 0.00122498593 0.0149999997
  endloop
 endfacet

 facet normal 0 0 1
  outer loop
  vertex -0.105293326 -0.0081012575 0.0149999997
  vertex -0.111025818 0.00122498593 0.0149999997
  vertex -0.111945495 0.00107931497 0.0149999997
  endloop
 endfacet

 facet normal 0 0 1
  outer loop
  vertex -0.105293326 -0.0081012575 0.0149999997
  vertex -0.111945495 0.00107931497 0.0149999997
  vertex -0.112115368 0.000568911782 0.0149999997
  endloop
 endfacet

 facet normal 0 0 1
  outer loop
  vertex -0.105293326 -0.0081012575 0.0149999997
  vertex -0.112115368 0.000568911782 0.0149999997
  vertex -0.112230942 0.000107437554 0.0149999997
  endloop
 endfacet

 facet normal 0 0 1
  outer loop
  vertex -0.105293326 -0.0081012575 0.0149999997
  vertex -0.112230942 0.000107437554 0.0149999997
  vertex -0.112298474 -0.00028398275 0.0149999997
  endloop
 endfacet

 facet normal 0 0 1
  outer loop
  vertex -0.105293326 -0.0081012575 0.0149999997
  vertex -0.112298474 -0.00028398275 0.0149999997
  vertex -0.112329803 -0.000603122462 0.0149999997
  endloop
 endfacet

 facet normal 0 0 1
  outer loop
  vertex -0.105293326 -0.0081012575 0.0149999997
  vertex -0.112329803 -0.000603122462 0.0149999997
  vertex -0.112404987 -0.00208873837 0.0149999997
  endloop
 endfacet

 facet normal 0 0 1
  outer loop
  vertex -0.105293326 -0.0081012575 0.0149999997
  vertex -0.112404987 -0.00208873837 0.0149999997
  vertex -0.112404987 -0.00767314201 0.0149999997
  endloop
 endfacet

 facet normal -0.0876575559 -0.976671815 -0.196031287
  outer loop
  vertex -0.112404987 -0.00940784253 0.0059806183
  vertex -0.112404987 -0.00760531053 -0.00300000003
  vertex -0.105293326 -0.0100461235 0.0059806183
  endloop
 endfacet

 facet normal -0.0575675443 -0.973995566 -0.219131932
  outer loop
  vertex -0.105293326 -0.0100461235 0.0059806183
  vertex -0.112404987 -0.00760531053 -0.00300000003
  vertex -0.105293326 -0.00802564248 -0.00300000003
  endloop
 endfacet

 facet normal 0.999972045 0.00747972308 0
  outer loop
  vertex -0.105293326 -0.00725837005 0.0149999997
  vertex -0.105293326 -0.00725837005 -0.00300000003
  vertex -0.105330221 -0.00232559256 -0.00300000003
  endloop
 endfacet

 facet normal 0.999972045 0.00747972308 0
  outer loop
  vertex -0.105293326 -0.00725837005 0.0149999997
  vertex -0.105330221 -0.00232559256 -0.00300000003
  vertex -0.105330221 -0.00232559256 0.0149999997
  endloop
 endfacet

 facet normal -0.998721778 0.050545834 0
  outer loop
  vertex -0.112404987 -0.00208873837 0.0149999997
  vertex -0.112329803 -0.000603122462 0.0149999997
  vertex -0.112329803 -0.000603122462 -0.00300000003
  endloop
 endfacet

 facet normal -0.998721778 0.050545834 0
  outer loop
  vertex -0.112404987 -0.00208873837 0.0149999997
  vertex -0.112329803 -0.000603122462 -0.00300000003
  vertex -0.112404987 -0.00208873837 -0.00300000003
  endloop
 endfacet

 facet normal 0 0 -1
  outer loop
  vertex -0.112404987 -0.00760531053 -0.00300000003
  vertex -0.112404987 -0.00208873837 -0.00300000003
  vertex -0.112329803 -0.000603122462 -0.00300000003
  endloop
 endfacet

 facet normal 0 0 -1
  outer loop
  vertex -0.112404987 -0.00760531053 -0.00300000003
  vertex -0.112329803 -0.000603122462 -0.00300000003
  vertex -0.112298474 -0.00028398275 -0.00300000003
  endloop
 endfacet

 facet normal 0 0 -1
  outer loop
  vertex -0.112404987 -0.00760531053 -0.00300000003
  vertex -0.112298474 -0.00028398275 -0.00300000003
  vertex -0.112230942 0.000107437554 -0.00300000003
  endloop
 endfacet

 facet normal 0 0 -1
  outer loop
  vertex -0.112404987 -0.00760531053 -0.00300000003
  vertex -0.112230942 0.000107437554 -0.00300000003
  vertex -0.112115368 0.000568911782 -0.00300000003
  endloop
 endfacet

 facet normal 0 0 -1
  outer loop
  vertex -0.112404987 -0.00760531053 -0.00300000003
  vertex -0.112115368 0.000568911782 -0.00300000003
  vertex -0.111945495 0.00107931497 -0.00300000003
  endloop
 endfacet

 facet normal 0 0 -1
  outer loop
  vertex -0.112404987 -0.00760531053 -0.00300000003
  vertex -0.111945495 0.00107931497 -0.00300000003
  vertex -0.111025818 0.00122498593 -0.00300000003
  endloop
 endfacet

 facet normal 0 0 -1
  outer loop
  vertex -0.112404987 -0.00760531053 -0.00300000003
  vertex -0.111025818 0.00122498593 -0.00300000003
  vertex -0.107334584 0.00122498593 -0.00300000003
  endloop
 endfacet

 facet normal 0 0 -1
  outer loop
  vertex -0.112404987 -0.00760531053 -0.00300000003
  vertex -0.107334584 0.00122498593 -0.00300000003
  vertex -0.106414899 0.00107931497 -0.00300000003
  endloop
 endfacet

 facet normal 0 0 -1
  outer loop
  vertex -0.112404987 -0.00760531053 -0.00300000003
  vertex -0.106414899 0.00107931497 -0.00300000003
  vertex -0.106245026 0.000568911782 -0.00300000003
  endloop
 endfacet

 facet normal 0 0 -1
  outer loop
  vertex -0.112404987 -0.00760531053 -0.00300000003
  vertex -0.106245026 0.000568911782 -0.00300000003
  vertex -0.105330221 -0.00232559256 -0.00300000003
  endloop
 endfacet

 facet normal 0 0 -1
  outer loop
  vertex -0.112404987 -0.00760531053 -0.00300000003
  vertex -0.105330221 -0.00232559256 -0.00300000003
  vertex -0.105293326 -0.00725837005 -0.00300000003
  endloop
 endfacet

 facet normal 0 0 -1
  outer loop
  vertex -0.112404987 -0.00760531053 -0.00300000003
  vertex -0.105293326 -0.00725837005 -0.00300000003
  vertex -0.105293326 -0.00802564248 -0.00300000003
  endloop
 endfacet

 facet normal 0.953511655 0.301356405 0
  outer loop
  vertex -0.105330221 -0.00232559256 0.0149999997
  vertex -0.105330221 -0.00232559256 -0.00300000003
  vertex -0.106245026 0.000568911782 -0.00300000003
  endloop
 endfacet

 facet normal 0.953511655 0.301356405 0
  outer loop
  vertex -0.105330221 -0.00232559256 0.0149999997
  vertex -0.106245026 0.000568911782 -0.00300000003
  vertex -0.106245026 0.000568911782 0.0149999997
  endloop
 endfacet

 facet normal -0.99521631 0.0976962 0
  outer loop
  vertex -0.112329803 -0.000603122462 0.0149999997
  vertex -0.112298474 -0.00028398275 0.0149999997
  vertex -0.112298474 -0.00028398275 -0.00300000003
  endloop
 endfacet

 facet normal -0.99521631 0.0976962 0
  outer loop
  vertex -0.112329803 -0.000603122462 0.0149999997
  vertex -0.112298474 -0.00028398275 -0.00300000003
  vertex -0.112329803 -0.000603122462 -0.00300000003
  endloop
 endfacet

 facet normal 0.948829234 0.315790027 0
  outer loop
  vertex -0.106245026 0.000568911782 0.0149999997
  vertex -0.106245026 0.000568911782 -0.00300000003
  vertex -0.106414899 0.00107931497 -0.00300000003
  endloop
 endfacet

 facet normal 0.948829234 0.315790027 0
  outer loop
  vertex -0.106245026 0.000568911782 0.0149999997
  vertex -0.106414899 0.00107931497 -0.00300000003
  vertex -0.106414899 0.00107931497 0.0149999997
  endloop
 endfacet

 facet normal -0.985441446 0.170014933 0
  outer loop
  vertex -0.112298474 -0.00028398275 0.0149999997
  vertex -0.112230942 0.000107437554 0.0149999997
  vertex -0.112230942 0.000107437554 -0.00300000003
  endloop
 endfacet

 facet normal -0.985441446 0.170014933 0
  outer loop
  vertex -0.112298474 -0.00028398275 0.0149999997
  vertex -0.112230942 0.000107437554 -0.00300000003
  vertex -0.112298474 -0.00028398275 -0.00300000003
  endloop
 endfacet

 facet normal 0.156443089 0.987686992 0
  outer loop
  vertex -0.106414899 0.00107931497 0.0149999997
  vertex -0.106414899 0.00107931497 -0.00300000003
  vertex -0.107334584 0.00122498593 -0.00300000003
  endloop
 endfacet

 facet normal 0.156443089 0.987686992 0
  outer loop
  vertex -0.106414899 0.00107931497 0.0149999997
  vertex -0.107334584 0.00122498593 -0.00300000003
  vertex -0.107334584 0.00122498593 0.0149999997
  endloop
 endfacet

 facet normal -0.970041752 0.242938191 0
  outer loop
  vertex -0.112230942 0.000107437554 0.0149999997
  vertex -0.112115368 0.000568911782 0.0149999997
  vertex -0.112115368 0.000568911782 -0.00300000003
  endloop
 endfacet

 facet normal -0.970041752 0.242938191 0
  outer loop
  vertex -0.112230942 0.000107437554 0.0149999997
  vertex -0.112115368 0.000568911782 -0.00300000003
  vertex -0.112230942 0.000107437554 -0.00300000003
  endloop
 endfacet

 facet normal 0 1 0
  outer loop
  vertex -0.107334584 0.00122498593 0.0149999997
  vertex -0.107334584 0.00122498593 -0.00300000003
  vertex -0.111025818 0.00122498593 -0.00300000003
  endloop
 endfacet

 facet normal 0 1 0
  outer loop
  vertex -0.107334584 0.00122498593 0.0149999997
  vertex -0.111025818 0.00122498593 -0.00300000003
  vertex -0.111025818 0.00122498593 0.0149999997
  endloop
 endfacet

 facet normal -0.948829234 0.315790027 0
  outer loop
  vertex -0.112115368 0.000568911782 0.0149999997
  vertex -0.111945495 0.00107931497 0.0149999997
  vertex -0.111945495 0.00107931497 -0.00300000003
  endloop
 endfacet

 facet normal -0.948829234 0.315790027 0
  outer loop
  vertex -0.112115368 0.000568911782 0.0149999997
  vertex -0.111945495 0.00107931497 -0.00300000003
  vertex -0.112115368 0.000568911782 -0.00300000003
  endloop
 endfacet

 facet normal -0.156443089 0.987686992 0
  outer loop
  vertex -0.111025818 0.00122498593 0.0149999997
  vertex -0.111025818 0.00122498593 -0.00300000003
  vertex -0.111945495 0.00107931497 -0.00300000003
  endloop
 endfacet

 facet normal -0.156443089 0.987686992 0
  outer loop
  vertex -0.111025818 0.00122498593 0.0149999997
  vertex -0.111945495 0.00107931497 -0.00300000003
  vertex -0.111945495 0.00107931497 0.0149999997
  endloop
 endfacet

endsolid AssimpScene
