solid AssimpScene
 facet normal -0.000642040453 0.000672173512 -0.999999523
  outer loop
  vertex 0.000912258518 -0.0123779755 0.0125701958
  vertex -0.000191679384 -0.0134324245 0.0125701958
  vertex -0.000191679384 -0.0123779755 0.0125709046
  endloop
 endfacet

 facet normal 0 1 0
  outer loop
  vertex 0.000912258518 -0.0123779755 0.0125701958
  vertex -0.000191679384 -0.0123779755 0.0125709046
  vertex -0.000191679384 -0.0123779755 0.0127808033
  endloop
 endfacet

 facet normal 0.0102198739 0.998511791 0.0535694025
  outer loop
  vertex 0.000912258518 -0.0123779755 0.0125701958
  vertex -0.000191679384 -0.0123779755 0.0127808033
  vertex 0.006765767 -0.0124378866 0.0125701958
  endloop
 endfacet

 facet normal 0 0 -1
  outer loop
  vertex 0.000912258518 -0.0123779755 0.0125701958
  vertex 0.006765767 -0.0124378866 0.0125701958
  vertex 0.006765767 -0.0276794713 0.0125701958
  endloop
 endfacet

 facet normal 0 0 -1
  outer loop
  vertex 0.000912258518 -0.0123779755 0.0125701958
  vertex 0.006765767 -0.0276794713 0.0125701958
  vertex -0.000191679384 -0.0276794713 0.0125701958
  endloop
 endfacet

 facet normal 0 0 -1
  outer loop
  vertex 0.000912258518 -0.0123779755 0.0125701958
  vertex -0.000191679384 -0.0276794713 0.0125701958
  vertex -0.000191679384 -0.0134324245 0.0125701958
  endloop
 endfacet

 facet normal -0.993250549 0 -0.115988776
  outer loop
  vertex -0.000191679384 -0.0134324245 0.0125701958
  vertex -0.000191679384 -0.0276794713 0.0125701958
  vertex -0.00103632419 -0.0256724246 0.0198031701
  endloop
 endfacet

 facet normal -0.993250549 0 -0.115988776
  outer loop
  vertex -0.000191679384 -0.0134324245 0.0125701958
  vertex -0.00103632419 -0.0256724246 0.0198031701
  vertex -0.00103632419 -0.0235904865 0.0198031701
  endloop
 endfacet

 facet normal -0.993263185 7.78920876e-05 -0.115880862
  outer loop
  vertex -0.000191679384 -0.0134324245 0.0125701958
  vertex -0.00103632419 -0.0235904865 0.0198031701
  vertex -0.000191679384 -0.0123779755 0.0125709046
  endloop
 endfacet

 facet normal -0.99717468 0.0751177371 0
  outer loop
  vertex -0.000191679384 -0.0123779755 0.0125709046
  vertex -0.00103632419 -0.0235904865 0.0198031701
  vertex -0.000191679384 -0.0123779755 0.0127808033
  endloop
 endfacet

 facet normal -0.569707811 0.46662578 0.67653048
  outer loop
  vertex -0.000191679384 -0.0123779755 0.0127808033
  vertex -0.00103632419 -0.0235904865 0.0198031701
  vertex -0.000191679384 -0.0214396492 0.0190309435
  endloop
 endfacet

 facet normal -0.0084255226 0.567756593 0.823153436
  outer loop
  vertex -0.000191679384 -0.0123779755 0.0127808033
  vertex -0.000191679384 -0.0214396492 0.0190309435
  vertex 0.0143753299 -0.0213273149 0.0191025659
  endloop
 endfacet

 facet normal 0.0292517059 0.608042479 0.793365479
  outer loop
  vertex -0.000191679384 -0.0123779755 0.0127808033
  vertex 0.0143753299 -0.0213273149 0.0191025659
  vertex 0.006765767 -0.0124378866 0.0125701958
  endloop
 endfacet

 facet normal 0.138206467 0.660573959 0.737930238
  outer loop
  vertex 0.006765767 -0.0124378866 0.0125701958
  vertex 0.0143753299 -0.0213273149 0.0191025659
  vertex 0.0143753299 -0.0158004407 0.0141550684
  endloop
 endfacet

 facet normal 0.203898355 0 -0.978992105
  outer loop
  vertex 0.006765767 -0.0124378866 0.0125701958
  vertex 0.0143753299 -0.0158004407 0.0141550684
  vertex 0.0143753299 -0.0276794713 0.0141550684
  endloop
 endfacet

 facet normal 0.203898355 0 -0.978992105
  outer loop
  vertex 0.006765767 -0.0124378866 0.0125701958
  vertex 0.0143753299 -0.0276794713 0.0141550684
  vertex 0.006765767 -0.0276794713 0.0125701958
  endloop
 endfacet

 facet normal -0.921705663 -0.387890041 0
  outer loop
  vertex -0.000191679384 -0.0276794713 0.0125701958
  vertex -0.000191679384 -0.0276794713 0.018000599
  vertex -0.00103632419 -0.0256724246 0.0198031701
  endloop
 endfacet

 facet normal 0 -1 0
  outer loop
  vertex -0.000191679384 -0.0276794713 0.0125701958
  vertex 0.006765767 -0.0276794713 0.0125701958
  vertex 0.0143753299 -0.0276794713 0.0141550684
  endloop
 endfacet

 facet normal 0 -1 0
  outer loop
  vertex -0.000191679384 -0.0276794713 0.0125701958
  vertex 0.0143753299 -0.0276794713 0.0141550684
  vertex 0.0143753299 -0.0276794713 0.0180069823
  endloop
 endfacet

 facet normal 0 -1 0
  outer loop
  vertex -0.000191679384 -0.0276794713 0.0125701958
  vertex 0.0143753299 -0.0276794713 0.0180069823
  vertex -0.000185469544 -0.0276794713 0.0180069823
  endloop
 endfacet

 facet normal 0 -1 0
  outer loop
  vertex -0.000191679384 -0.0276794713 0.0125701958
  vertex -0.000185469544 -0.0276794713 0.0180069823
  vertex -0.000191679384 -0.0276794713 0.018000599
  endloop
 endfacet

 facet normal -1 0 0
  outer loop
  vertex -0.00103632419 -0.0235904865 0.0198031701
  vertex -0.00103632419 -0.0256724246 0.0198031701
  vertex -0.00103632419 -0.0249370057 0.0198145173
  endloop
 endfacet

 facet normal -1 0 0
  outer loop
  vertex -0.00103632419 -0.0235904865 0.0198031701
  vertex -0.00103632419 -0.0249370057 0.0198145173
  vertex -0.00103632419 -0.0236623809 0.0198145173
  endloop
 endfacet

 facet normal -0.00207554456 0.155883148 0.987773359
  outer loop
  vertex -0.00103632419 -0.0235904865 0.0198031701
  vertex -0.00103632419 -0.0236623809 0.0198145173
  vertex 0.0143753299 -0.0231246706 0.0197620429
  endloop
 endfacet

 facet normal -0.002078583 0.155982286 0.987757683
  outer loop
  vertex -0.00103632419 -0.0235904865 0.0198031701
  vertex 0.0143753299 -0.0231246706 0.0197620429
  vertex -0.000191679384 -0.0223937463 0.019615965
  endloop
 endfacet

 facet normal -0.483046889 0.457695454 0.746445358
  outer loop
  vertex -0.00103632419 -0.0235904865 0.0198031701
  vertex -0.000191679384 -0.0223937463 0.019615965
  vertex -0.000191679384 -0.0214396492 0.0190309435
  endloop
 endfacet

 facet normal -0.421300888 0.474070638 0.773151159
  outer loop
  vertex -0.000191679384 -0.0214396492 0.0190309435
  vertex -0.000191679384 -0.0223937463 0.019615965
  vertex -0.000185469544 -0.0223847572 0.0196138378
  endloop
 endfacet

 facet normal -0.008961441 0.524874628 0.851132393
  outer loop
  vertex -0.000191679384 -0.0214396492 0.0190309435
  vertex -0.000185469544 -0.0223847572 0.0196138378
  vertex 0.0143753299 -0.0218590312 0.0194429401
  endloop
 endfacet

 facet normal -0.00829827972 0.539121509 0.842187166
  outer loop
  vertex -0.000191679384 -0.0214396492 0.0190309435
  vertex 0.0143753299 -0.0218590312 0.0194429401
  vertex 0.0143753299 -0.0213273149 0.0191025659
  endloop
 endfacet

 facet normal 0.905105472 0.283589005 0.316798627
  outer loop
  vertex 0.0143753299 -0.0213273149 0.0191025659
  vertex 0.0148256011 -0.0235470515 0.0198031701
  vertex 0.0143753299 -0.0158004407 0.0141550684
  endloop
 endfacet

 facet normal 0.803004861 0.321312636 0.501937747
  outer loop
  vertex 0.0143753299 -0.0213273149 0.0191025659
  vertex 0.0143753299 -0.0218590312 0.0194429401
  vertex 0.0148256011 -0.0235470515 0.0198031701
  endloop
 endfacet

 facet normal 0.996837378 0 -0.0794685334
  outer loop
  vertex 0.0143753299 -0.0158004407 0.0141550684
  vertex 0.0148256011 -0.0235470515 0.0198031701
  vertex 0.0148256011 -0.0256724246 0.0198031701
  endloop
 endfacet

 facet normal 0.996837378 0 -0.0794685334
  outer loop
  vertex 0.0143753299 -0.0158004407 0.0141550684
  vertex 0.0148256011 -0.0256724246 0.0198031701
  vertex 0.0143753299 -0.0276794713 0.0141550684
  endloop
 endfacet

 facet normal -0.840842366 -0.511884272 0.175950497
  outer loop
  vertex -0.000191679384 -0.0276794713 0.018000599
  vertex -0.000191679384 -0.0272660814 0.0192032605
  vertex -0.00103632419 -0.0256724246 0.0198031701
  endloop
 endfacet

 facet normal -0.316852808 -0.896965146 0.308314741
  outer loop
  vertex -0.000191679384 -0.0276794713 0.018000599
  vertex -0.000185469544 -0.0276794713 0.0180069823
  vertex -0.000191679384 -0.0272660814 0.0192032605
  endloop
 endfacet

 facet normal -0.541094482 -0.531966329 0.651328325
  outer loop
  vertex -0.00103632419 -0.0256724246 0.0198031701
  vertex -0.000191679384 -0.0272660814 0.0192032605
  vertex -0.000185469544 -0.0272645839 0.019209642
  endloop
 endfacet

 facet normal -0.287718832 -0.465721607 0.836852014
  outer loop
  vertex -0.00103632419 -0.0256724246 0.0198031701
  vertex -0.000185469544 -0.0272645839 0.019209642
  vertex -0.000191679384 -0.0262146257 0.0197918247
  endloop
 endfacet

 facet normal -0.278427333 -0.451474994 0.847731352
  outer loop
  vertex -0.00103632419 -0.0256724246 0.0198031701
  vertex -0.000191679384 -0.0262146257 0.0197918247
  vertex -0.000185469544 -0.0262131281 0.0197946616
  endloop
 endfacet

 facet normal 0 -0.0157350712 0.999876201
  outer loop
  vertex -0.00103632419 -0.0256724246 0.0198031701
  vertex -0.000185469544 -0.0262131281 0.0197946616
  vertex 0.0143753299 -0.0262131281 0.0197946616
  endloop
 endfacet

 facet normal 0 -0.0157350712 0.999876201
  outer loop
  vertex -0.00103632419 -0.0256724246 0.0198031701
  vertex 0.0143753299 -0.0262131281 0.0197946616
  vertex 0.0148256011 -0.0256724246 0.0198031701
  endloop
 endfacet

 facet normal 0 -0.0154262278 0.99988097
  outer loop
  vertex -0.00103632419 -0.0256724246 0.0198031701
  vertex 0.0148256011 -0.0256724246 0.0198031701
  vertex 0.0148256011 -0.0249370057 0.0198145173
  endloop
 endfacet

 facet normal 0 -0.0154262278 0.99988097
  outer loop
  vertex -0.00103632419 -0.0256724246 0.0198031701
  vertex 0.0148256011 -0.0249370057 0.0198145173
  vertex -0.00103632419 -0.0249370057 0.0198145173
  endloop
 endfacet

 facet normal 0 0 1
  outer loop
  vertex -0.00103632419 -0.0236623809 0.0198145173
  vertex -0.00103632419 -0.0249370057 0.0198145173
  vertex 0.0148256011 -0.0249370057 0.0198145173
  endloop
 endfacet

 facet normal 0 0 1
  outer loop
  vertex -0.00103632419 -0.0236623809 0.0198145173
  vertex 0.0148256011 -0.0249370057 0.0198145173
  vertex 0.0148256011 -0.0236623809 0.0198145173
  endloop
 endfacet

 facet normal 0 0.0966630727 0.995317161
  outer loop
  vertex -0.00103632419 -0.0236623809 0.0198145173
  vertex 0.0148256011 -0.0236623809 0.0198145173
  vertex 0.0143753299 -0.0235455539 0.0198031701
  endloop
 endfacet

 facet normal 0 0.0966630727 0.995317161
  outer loop
  vertex -0.00103632419 -0.0236623809 0.0198145173
  vertex 0.0143753299 -0.0235455539 0.0198031701
  vertex 0.0139530078 -0.0235455539 0.0198031701
  endloop
 endfacet

 facet normal -4.6938253e-06 0.097259663 0.995259047
  outer loop
  vertex -0.00103632419 -0.0236623809 0.0198145173
  vertex 0.0139530078 -0.0235455539 0.0198031701
  vertex 0.0143753299 -0.0231246706 0.0197620429
  endloop
 endfacet

 facet normal 0 0.0972549841 0.995259464
  outer loop
  vertex 0.0143753299 -0.0231246706 0.0197620429
  vertex 0.0139530078 -0.0235455539 0.0198031701
  vertex 0.0143753299 -0.0235455539 0.0198031701
  endloop
 endfacet

 facet normal 0.000155033704 0.0972550064 0.995259583
  outer loop
  vertex 0.0143753299 -0.0231246706 0.0197620429
  vertex 0.0143753299 -0.0235455539 0.0198031701
  vertex 0.0148256011 -0.0236623809 0.0198145173
  endloop
 endfacet

 facet normal 0.000940033875 0.097906068 0.99519527
  outer loop
  vertex 0.0143753299 -0.0231246706 0.0197620429
  vertex 0.0148256011 -0.0236623809 0.0198145173
  vertex 0.0148256011 -0.0235470515 0.0198031701
  endloop
 endfacet

 facet normal 0.0614534169 0.161419749 0.984970689
  outer loop
  vertex 0.0143753299 -0.0231246706 0.0197620429
  vertex 0.0148256011 -0.0235470515 0.0198031701
  vertex 0.0143753299 -0.0223847572 0.0196407828
  endloop
 endfacet

 facet normal -0.00178116316 0.161725163 0.986834228
  outer loop
  vertex 0.0143753299 -0.0231246706 0.0197620429
  vertex 0.0143753299 -0.0223847572 0.0196407828
  vertex -0.000191679384 -0.0223937463 0.019615965
  endloop
 endfacet

 facet normal -0.00180035853 0.231495067 0.972834468
  outer loop
  vertex -0.000191679384 -0.0223937463 0.019615965
  vertex 0.0143753299 -0.0223847572 0.0196407828
  vertex -0.000185469544 -0.0223847572 0.0196138378
  endloop
 endfacet

 facet normal -0.00173204427 0.352207392 0.935920417
  outer loop
  vertex -0.000185469544 -0.0223847572 0.0196138378
  vertex 0.0143753299 -0.0223847572 0.0196407828
  vertex 0.0143753299 -0.0218590312 0.0194429401
  endloop
 endfacet

 facet normal 0.496269584 0.305775821 0.812537849
  outer loop
  vertex 0.0143753299 -0.0218590312 0.0194429401
  vertex 0.0143753299 -0.0223847572 0.0196407828
  vertex 0.0148256011 -0.0235470515 0.0198031701
  endloop
 endfacet

 facet normal 1 0 0
  outer loop
  vertex 0.0148256011 -0.0235470515 0.0198031701
  vertex 0.0148256011 -0.0236623809 0.0198145173
  vertex 0.0148256011 -0.0249370057 0.0198145173
  endloop
 endfacet

 facet normal 1 0 0
  outer loop
  vertex 0.0148256011 -0.0235470515 0.0198031701
  vertex 0.0148256011 -0.0249370057 0.0198145173
  vertex 0.0148256011 -0.0256724246 0.0198031701
  endloop
 endfacet

 facet normal 0.975746572 -0.218903527 0
  outer loop
  vertex 0.0143753299 -0.0276794713 0.0141550684
  vertex 0.0148256011 -0.0256724246 0.0198031701
  vertex 0.0143753299 -0.0276794713 0.0180069823
  endloop
 endfacet

 facet normal -0.106592767 -0.939943969 0.324258149
  outer loop
  vertex -0.000191679384 -0.0272660814 0.0192032605
  vertex -0.000185469544 -0.0276794713 0.0180069823
  vertex -0.000185469544 -0.0272645839 0.019209642
  endloop
 endfacet

 facet normal 0 -0.945329666 0.326116115
  outer loop
  vertex -0.000185469544 -0.0276794713 0.0180069823
  vertex 0.0143753299 -0.0276794713 0.0180069823
  vertex 0.006765767 -0.0272645839 0.019209642
  endloop
 endfacet

 facet normal 0 -0.945329666 0.326116115
  outer loop
  vertex -0.000185469544 -0.0276794713 0.0180069823
  vertex 0.006765767 -0.0272645839 0.019209642
  vertex -0.000185469544 -0.0272645839 0.019209642
  endloop
 endfacet

 facet normal -0.271401227 -0.467951953 0.841048419
  outer loop
  vertex -0.000185469544 -0.0272645839 0.019209642
  vertex -0.000185469544 -0.0262131281 0.0197946616
  vertex -0.000191679384 -0.0262146257 0.0197918247
  endloop
 endfacet

 facet normal 0 -0.486200809 0.873847127
  outer loop
  vertex -0.000185469544 -0.0272645839 0.019209642
  vertex 0.006765767 -0.0272645839 0.019209642
  vertex 0.0143753299 -0.0262131281 0.0197946616
  endloop
 endfacet

 facet normal 0 -0.486200809 0.873847127
  outer loop
  vertex -0.000185469544 -0.0272645839 0.019209642
  vertex 0.0143753299 -0.0262131281 0.0197946616
  vertex -0.000185469544 -0.0262131281 0.0197946616
  endloop
 endfacet

 facet normal 0.493875921 -0.423227519 0.759582222
  outer loop
  vertex 0.0148256011 -0.0256724246 0.0198031701
  vertex 0.0143753299 -0.0262131281 0.0197946616
  vertex 0.0143753299 -0.0272630863 0.019209642
  endloop
 endfacet

 facet normal 0.945614934 -0.307386577 0.106423706
  outer loop
  vertex 0.0148256011 -0.0256724246 0.0198031701
  vertex 0.0143753299 -0.0272630863 0.019209642
  vertex 0.0143753299 -0.0276794713 0.0180069823
  endloop
 endfacet

 facet normal 0.000185943602 -0.944966435 0.327167302
  outer loop
  vertex 0.0143753299 -0.0276794713 0.0180069823
  vertex 0.0143753299 -0.0272630863 0.019209642
  vertex 0.006765767 -0.0272645839 0.019209642
  endloop
 endfacet

 facet normal 9.57751981e-05 -0.486730039 0.873552501
  outer loop
  vertex 0.006765767 -0.0272645839 0.019209642
  vertex 0.0143753299 -0.0272630863 0.019209642
  vertex 0.0143753299 -0.0262131281 0.0197946616
  endloop
 endfacet

endsolid AssimpScene
