solid AssimpScene
 facet normal 0.994552314 0.0997987613 0.0301004052
  outer loop
  vertex 0.00963131152 0.00183809735 0.0783967003
  vertex 0.00957586803 0.00322984625 0.0756142512
  vertex 0.00953380857 0.00322984625 0.0770039558
  endloop
 endfacet

 facet normal 0.994015574 0.103776418 0.0341127776
  outer loop
  vertex 0.00963131152 0.00183809735 0.0783967003
  vertex 0.00953380857 0.00322984625 0.0770039558
  vertex 0.00958351512 0.00183809735 0.0797894523
  endloop
 endfacet

 facet normal 0.991117656 -0.128564566 0.0340133235
  outer loop
  vertex 0.00963131152 0.00183809735 0.0783967003
  vertex 0.00958351512 0.00183809735 0.0797894523
  vertex 0.00956822094 0.000983251608 0.0770039558
  endloop
 endfacet

 facet normal 0.998753309 -0.0471882187 -0.016279975
  outer loop
  vertex 0.00963131152 0.00183809735 0.0783967003
  vertex 0.00956822094 0.000983251608 0.0770039558
  vertex 0.00940762646 0.00601394428 0.0525700636
  endloop
 endfacet

 facet normal 0.998944879 -0.0431819484 -0.0156338681
  outer loop
  vertex 0.00963131152 0.00183809735 0.0783967003
  vertex 0.00940762646 0.00601394428 0.0525700636
  vertex 0.00953380857 0.00462159514 0.0644783527
  endloop
 endfacet

 facet normal 0.999341786 -0.0335862562 -0.013717629
  outer loop
  vertex 0.00963131152 0.00183809735 0.0783967003
  vertex 0.00953380857 0.00462159514 0.0644783527
  vertex 0.00955292583 0.00462159514 0.0658710971
  endloop
 endfacet

 facet normal 0.99997896 0.00345246191 -0.00549069932
  outer loop
  vertex 0.00963131152 0.00183809735 0.0783967003
  vertex 0.00955292583 0.00462159514 0.0658710971
  vertex 0.00956057385 0.00462159514 0.0672638491
  endloop
 endfacet

 facet normal 0.999333799 0.0363923609 0.00274921744
  outer loop
  vertex 0.00963131152 0.00183809735 0.0783967003
  vertex 0.00956057385 0.00462159514 0.0672638491
  vertex 0.00955674984 0.00462159514 0.0686535537
  endloop
 endfacet

 facet normal 0.998329341 0.0571236685 0.0086795846
  outer loop
  vertex 0.00963131152 0.00183809735 0.0783967003
  vertex 0.00955674984 0.00462159514 0.0686535537
  vertex 0.00957586803 0.00322984625 0.0756142512
  endloop
 endfacet

 facet normal 0.986203074 0.162827417 0.029847715
  outer loop
  vertex 0.00957586803 0.00322984625 0.0756142512
  vertex 0.00955674984 0.00462159514 0.0686535537
  vertex 0.00953380857 0.00322984625 0.0770039558
  endloop
 endfacet

 facet normal 0.977909803 0.193441674 0.0792006254
  outer loop
  vertex 0.00953380857 0.00322984625 0.0770039558
  vertex 0.00942100957 0.00322984625 0.0783967003
  vertex 0.00958351512 0.00183809735 0.0797894523
  endloop
 endfacet

 facet normal 0.977040291 0.209704101 0.0376354083
  outer loop
  vertex 0.00953380857 0.00322984625 0.0770039558
  vertex 0.00955674984 0.00462159514 0.0686535537
  vertex 0.00950321928 0.00462159514 0.0700432584
  endloop
 endfacet

 facet normal 0.917113543 0.391644955 0.0742767602
  outer loop
  vertex 0.00953380857 0.00322984625 0.0770039558
  vertex 0.00950321928 0.00462159514 0.0700432584
  vertex 0.00942100957 0.00322984625 0.0783967003
  endloop
 endfacet

 facet normal 0.90468204 -0.408704877 0.120460622
  outer loop
  vertex 0.00958351512 0.00183809735 0.0797894523
  vertex 0.00919732451 0.000983251608 0.0797894523
  vertex 0.00956822094 0.000983251608 0.0770039558
  endloop
 endfacet

 facet normal 0.974231839 0.205898568 0.0920777023
  outer loop
  vertex 0.00958351512 0.00183809735 0.0797894523
  vertex 0.00942100957 0.00322984625 0.0783967003
  vertex 0.00907305535 0.00300908601 0.0825719014
  endloop
 endfacet

 facet normal 0.982715309 -0.0107520241 0.184810922
  outer loop
  vertex 0.00958351512 0.00183809735 0.0797894523
  vertex 0.00907305535 0.00300908601 0.0825719014
  vertex 0.00932159368 0.00183809735 0.0811821967
  endloop
 endfacet

 facet normal 0.898222089 -0.405786484 0.168921024
  outer loop
  vertex 0.00958351512 0.00183809735 0.0797894523
  vertex 0.00932159368 0.00183809735 0.0811821967
  vertex 0.00919732451 0.000983251608 0.0797894523
  endloop
 endfacet

 facet normal 0 -1 0
  outer loop
  vertex 0.00956822094 0.000983251608 0.0770039558
  vertex 0.00919732451 0.000983251608 0.0797894523
  vertex 0.0087939268 0.000983251608 0.0811791569
  endloop
 endfacet

 facet normal 0 -1 0
  outer loop
  vertex 0.00956822094 0.000983251608 0.0770039558
  vertex 0.0087939268 0.000983251608 0.0811791569
  vertex 0.00879010372 0.000983251608 0.0811882764
  endloop
 endfacet

 facet normal 0 -1 0
  outer loop
  vertex 0.00956822094 0.000983251608 0.0770039558
  vertex 0.00879010372 0.000983251608 0.0811882764
  vertex 0.00823375862 0.000983251608 0.0815349445
  endloop
 endfacet

 facet normal 0 -1 0
  outer loop
  vertex 0.00956822094 0.000983251608 0.0770039558
  vertex 0.00823375862 0.000983251608 0.0815349445
  vertex 0.00787815731 0.000983251608 0.0815379843
  endloop
 endfacet

 facet normal 0 -1 0
  outer loop
  vertex 0.00956822094 0.000983251608 0.0770039558
  vertex 0.00787815731 0.000983251608 0.0815379843
  vertex -0.00743374648 0.000983251608 0.0815379843
  endloop
 endfacet

 facet normal 0 -1 0
  outer loop
  vertex 0.00956822094 0.000983251608 0.0770039558
  vertex -0.00743374648 0.000983251608 0.0815379843
  vertex -0.00855025928 0.000983251608 0.0814254731
  endloop
 endfacet

 facet normal 0 -1 0
  outer loop
  vertex 0.00956822094 0.000983251608 0.0770039558
  vertex -0.00855025928 0.000983251608 0.0814254731
  vertex -0.00876629725 0.000983251608 0.0813585743
  endloop
 endfacet

 facet normal 0 -1 0
  outer loop
  vertex 0.00956822094 0.000983251608 0.0770039558
  vertex -0.00876629725 0.000983251608 0.0813585743
  vertex -0.00945647061 0.000983251608 0.0809298009
  endloop
 endfacet

 facet normal 0 -1 0
  outer loop
  vertex 0.00956822094 0.000983251608 0.0770039558
  vertex -0.00945647061 0.000983251608 0.0809298009
  vertex -0.00964000728 0.000983251608 0.0807777494
  endloop
 endfacet

 facet normal 0 -1 0
  outer loop
  vertex 0.00956822094 0.000983251608 0.0770039558
  vertex -0.00964000728 0.000983251608 0.0807777494
  vertex -0.00970883295 0.000983251608 0.0800692141
  endloop
 endfacet

 facet normal 0 -1 0
  outer loop
  vertex 0.00956822094 0.000983251608 0.0770039558
  vertex -0.00970883295 0.000983251608 0.0800692141
  vertex -0.00973368715 0.000983251608 0.0797894523
  endloop
 endfacet

 facet normal 0 -1 0
  outer loop
  vertex 0.00956822094 0.000983251608 0.0770039558
  vertex -0.00973368715 0.000983251608 0.0797894523
  vertex -0.00979486573 0.000983251608 0.0789775178
  endloop
 endfacet

 facet normal 0 -1 0
  outer loop
  vertex 0.00956822094 0.000983251608 0.0770039558
  vertex -0.00979486573 0.000983251608 0.0789775178
  vertex -0.00988472253 0.000983251608 0.0775422007
  endloop
 endfacet

 facet normal 0 -1 0
  outer loop
  vertex 0.00956822094 0.000983251608 0.0770039558
  vertex -0.00988472253 0.000983251608 0.0775422007
  vertex -0.00988472253 0.000983251608 0.0770039558
  endloop
 endfacet

 facet normal 0 -1 0
  outer loop
  vertex 0.00956822094 0.000983251608 0.0770039558
  vertex -0.00988472253 0.000983251608 0.0770039558
  vertex -0.00985413324 0.000983251608 0.0761494562
  endloop
 endfacet

 facet normal 0 -1 0
  outer loop
  vertex 0.00956822094 0.000983251608 0.0770039558
  vertex -0.00985413324 0.000983251608 0.0761494562
  vertex -0.00982354395 0.000983251608 0.0756142512
  endloop
 endfacet

 facet normal 0 -1 0
  outer loop
  vertex 0.00956822094 0.000983251608 0.0770039558
  vertex -0.00982354395 0.000983251608 0.0756142512
  vertex -0.00974133424 0.000983251608 0.07483273
  endloop
 endfacet

 facet normal 0 -1 0
  outer loop
  vertex 0.00956822094 0.000983251608 0.0770039558
  vertex -0.00974133424 0.000983251608 0.07483273
  vertex -0.00967824366 0.000983251608 0.074324891
  endloop
 endfacet

 facet normal 0 -1 0
  outer loop
  vertex 0.00956822094 0.000983251608 0.0770039558
  vertex -0.00967824366 0.000983251608 0.074324891
  vertex -0.00882556383 0.000983251608 0.0739660636
  endloop
 endfacet

 facet normal 0 -1 0
  outer loop
  vertex 0.00956822094 0.000983251608 0.0770039558
  vertex -0.00882556383 0.000983251608 0.0739660636
  vertex -0.0076019885 0.000983251608 0.0737653598
  endloop
 endfacet

 facet normal 0 -1 0
  outer loop
  vertex 0.00956822094 0.000983251608 0.0770039558
  vertex -0.0076019885 0.000983251608 0.0737653598
  vertex -0.00743374648 0.000983251608 0.0737379938
  endloop
 endfacet

 facet normal 0 -1 0
  outer loop
  vertex 0.00956822094 0.000983251608 0.0770039558
  vertex -0.00743374648 0.000983251608 0.0737379938
  vertex -0.00604001712 0.000983251608 0.0736802146
  endloop
 endfacet

 facet normal 0 -1 0
  outer loop
  vertex 0.00956822094 0.000983251608 0.0770039558
  vertex -0.00604001712 0.000983251608 0.0736802146
  vertex 0.00648633949 0.000983251608 0.0736802146
  endloop
 endfacet

 facet normal 0 -1 0
  outer loop
  vertex 0.00956822094 0.000983251608 0.0770039558
  vertex 0.00648633949 0.000983251608 0.0736802146
  vertex 0.00787815731 0.000983251608 0.0737805665
  endloop
 endfacet

 facet normal 0 -1 0
  outer loop
  vertex 0.00956822094 0.000983251608 0.0770039558
  vertex 0.00787815731 0.000983251608 0.0737805665
  vertex 0.00845744368 0.000983251608 0.0739903897
  endloop
 endfacet

 facet normal 0 -1 0
  outer loop
  vertex 0.00956822094 0.000983251608 0.0770039558
  vertex 0.00845744368 0.000983251608 0.0739903897
  vertex 0.00908834953 0.000983251608 0.0742245391
  endloop
 endfacet

 facet normal 0 -1 0
  outer loop
  vertex 0.00956822094 0.000983251608 0.0770039558
  vertex 0.00908834953 0.000983251608 0.0742245391
  vertex 0.00949748326 0.000983251608 0.0756142512
  endloop
 endfacet

 facet normal 0.976390302 -0.210218966 -0.0496993884
  outer loop
  vertex 0.00956822094 0.000983251608 0.0770039558
  vertex 0.00949748326 0.000983251608 0.0756142512
  vertex 0.00940762646 0.00601394428 0.0525700636
  endloop
 endfacet

 facet normal 0 0 -1
  outer loop
  vertex 0.00940762646 0.00601394428 0.0525700636
  vertex 0.00926423911 0.00542425085 0.0525700636
  vertex 0.00905011315 0.00459759962 0.0525700636
  endloop
 endfacet

 facet normal 0 0 -1
  outer loop
  vertex 0.00940762646 0.00601394428 0.0525700636
  vertex 0.00905011315 0.00459759962 0.0525700636
  vertex 0.00787815731 0.00401090551 0.0525700636
  endloop
 endfacet

 facet normal 0 0 -1
  outer loop
  vertex 0.00940762646 0.00601394428 0.0525700636
  vertex 0.00787815731 0.00401090551 0.0525700636
  vertex 0.00648633949 0.00396291399 0.0525700636
  endloop
 endfacet

 facet normal 0 0 -1
  outer loop
  vertex 0.00940762646 0.00601394428 0.0525700636
  vertex 0.00648633949 0.00396291399 0.0525700636
  vertex -0.00607634243 0.00396291399 0.0525700636
  endloop
 endfacet

 facet normal 0 0 -1
  outer loop
  vertex 0.00940762646 0.00601394428 0.0525700636
  vertex -0.00607634243 0.00396291399 0.0525700636
  vertex -0.00743374648 0.00396651356 0.0525700636
  endloop
 endfacet

 facet normal 0 0 -1
  outer loop
  vertex 0.00940762646 0.00601394428 0.0525700636
  vertex -0.00743374648 0.00396651356 0.0525700636
  vertex -0.00833804533 0.00407929299 0.0525700636
  endloop
 endfacet

 facet normal 0 0 -1
  outer loop
  vertex 0.00940762646 0.00601394428 0.0525700636
  vertex -0.00833804533 0.00407929299 0.0525700636
  vertex -0.00889056642 0.00415187981 0.0525700636
  endloop
 endfacet

 facet normal 0 0 -1
  outer loop
  vertex 0.00940762646 0.00601394428 0.0525700636
  vertex -0.00889056642 0.00415187981 0.0525700636
  vertex -0.00971074495 0.0048441547 0.0525700636
  endloop
 endfacet

 facet normal 0 0 -1
  outer loop
  vertex 0.00940762646 0.00601394428 0.0525700636
  vertex -0.00971074495 0.0048441547 0.0525700636
  vertex -0.00983501412 0.00601394428 0.0525700636
  endloop
 endfacet

 facet normal 0 0 -1
  outer loop
  vertex 0.00940762646 0.00601394428 0.0525700636
  vertex -0.00983501412 0.00601394428 0.0525700636
  vertex -0.00964574236 0.00683759572 0.0525700636
  endloop
 endfacet

 facet normal 0 0 -1
  outer loop
  vertex 0.00940762646 0.00601394428 0.0525700636
  vertex -0.00964574236 0.00683759572 0.0525700636
  vertex -0.00918498915 0.0069593736 0.0525700636
  endloop
 endfacet

 facet normal 0 0 -1
  outer loop
  vertex 0.00940762646 0.00601394428 0.0525700636
  vertex -0.00918498915 0.0069593736 0.0525700636
  vertex -0.00882556383 0.0070385593 0.0525700636
  endloop
 endfacet

 facet normal 0 0 -1
  outer loop
  vertex 0.00940762646 0.00601394428 0.0525700636
  vertex -0.00882556383 0.0070385593 0.0525700636
  vertex -0.0080550937 0.00708115147 0.0525700636
  endloop
 endfacet

 facet normal 0 0 -1
  outer loop
  vertex 0.00940762646 0.00601394428 0.0525700636
  vertex -0.0080550937 0.00708115147 0.0525700636
  vertex -0.00743374648 0.00711174589 0.0525700636
  endloop
 endfacet

 facet normal 0 0 -1
  outer loop
  vertex 0.00940762646 0.00601394428 0.0525700636
  vertex -0.00743374648 0.00711174589 0.0525700636
  vertex 0.00787815731 0.00711174589 0.0525700636
  endloop
 endfacet

 facet normal 0 0 -1
  outer loop
  vertex 0.00940762646 0.00601394428 0.0525700636
  vertex 0.00787815731 0.00711174589 0.0525700636
  vertex 0.00892201997 0.00691078184 0.0525700636
  endloop
 endfacet

 facet normal 0 0 -1
  outer loop
  vertex 0.00940762646 0.00601394428 0.0525700636
  vertex 0.00892201997 0.00691078184 0.0525700636
  vertex 0.00914570503 0.00652085245 0.0525700636
  endloop
 endfacet

 facet normal 0.888306856 0.458992362 0.0153914448
  outer loop
  vertex 0.00940762646 0.00601394428 0.0525700636
  vertex 0.00914570503 0.00652085245 0.0525700636
  vertex 0.00939424336 0.00601394428 0.0533424579
  endloop
 endfacet

 facet normal 0.955767095 0.293658227 0.0165603086
  outer loop
  vertex 0.00940762646 0.00601394428 0.0525700636
  vertex 0.00939424336 0.00601394428 0.0533424579
  vertex 0.00955674984 0.00462159514 0.0686535537
  endloop
 endfacet

 facet normal 0.990489721 0.137559503 0.00272488664
  outer loop
  vertex 0.00940762646 0.00601394428 0.0525700636
  vertex 0.00955674984 0.00462159514 0.0686535537
  vertex 0.00956057385 0.00462159514 0.0672638491
  endloop
 endfacet

 facet normal 0.998640776 0.0518314354 -0.00548335165
  outer loop
  vertex 0.00940762646 0.00601394428 0.0525700636
  vertex 0.00956057385 0.00462159514 0.0672638491
  vertex 0.00955292583 0.00462159514 0.0658710971
  endloop
 endfacet

 facet normal 0.99954766 -0.0267625488 -0.0137204556
  outer loop
  vertex 0.00940762646 0.00601394428 0.0525700636
  vertex 0.00955292583 0.00462159514 0.0658710971
  vertex 0.00953380857 0.00462159514 0.0644783527
  endloop
 endfacet

 facet normal 0.970201015 -0.235910341 -0.0552838445
  outer loop
  vertex 0.00940762646 0.00601394428 0.0525700636
  vertex 0.00949748326 0.000983251608 0.0756142512
  vertex 0.00926423911 0.00542425085 0.0525700636
  endloop
 endfacet

 facet normal 0.941214681 0.337175906 0.0206721388
  outer loop
  vertex 0.00955674984 0.00462159514 0.0686535537
  vertex 0.00939424336 0.00601394428 0.0533424579
  vertex 0.00936365407 0.00601394428 0.0547352061
  endloop
 endfacet

 facet normal 0.908397675 0.417091668 0.029121954
  outer loop
  vertex 0.00955674984 0.00462159514 0.0686535537
  vertex 0.00936365407 0.00601394428 0.0547352061
  vertex 0.00907879043 0.00575959031 0.0672638491
  endloop
 endfacet

 facet normal 0.905501783 0.422906727 0.034879759
  outer loop
  vertex 0.00955674984 0.00462159514 0.0686535537
  vertex 0.00907879043 0.00575959031 0.0672638491
  vertex 0.00950321928 0.00462159514 0.0700432584
  endloop
 endfacet

 facet normal 0.8690359 0.484933019 0.0980645269
  outer loop
  vertex 0.00942100957 0.00322984625 0.0783967003
  vertex 0.00901378784 0.00424126396 0.0770039558
  vertex 0.00907305535 0.00300908601 0.0825719014
  endloop
 endfacet

 facet normal 0.876499832 0.473384321 0.087495476
  outer loop
  vertex 0.00942100957 0.00322984625 0.0783967003
  vertex 0.00950321928 0.00462159514 0.0700432584
  vertex 0.00901378784 0.00424126396 0.0770039558
  endloop
 endfacet

 facet normal 0.902802944 0.428412199 0.0375460275
  outer loop
  vertex 0.00950321928 0.00462159514 0.0700432584
  vertex 0.00907879043 0.00575959031 0.0672638491
  vertex 0.00905202422 0.00569420168 0.0686535537
  endloop
 endfacet

 facet normal 0.874665856 0.477317184 0.0844272152
  outer loop
  vertex 0.00950321928 0.00462159514 0.0700432584
  vertex 0.00905202422 0.00569420168 0.0686535537
  vertex 0.0089774644 0.00558502134 0.0700432584
  endloop
 endfacet

 facet normal 0.874428689 0.477187842 0.0875576809
  outer loop
  vertex 0.00950321928 0.00462159514 0.0700432584
  vertex 0.0089774644 0.00558502134 0.0700432584
  vertex 0.00901378784 0.00424126396 0.0770039558
  endloop
 endfacet

 facet normal 0.839418054 -0.493380606 0.227931768
  outer loop
  vertex 0.00919732451 0.000983251608 0.0797894523
  vertex 0.00932159368 0.00183809735 0.0811821967
  vertex 0.00897363946 0.00182489969 0.0824350566
  endloop
 endfacet

 facet normal 0.815831423 -0.527576685 0.236816347
  outer loop
  vertex 0.00919732451 0.000983251608 0.0797894523
  vertex 0.00897363946 0.00182489969 0.0824350566
  vertex 0.0087939268 0.000983251608 0.0811791569
  endloop
 endfacet

 facet normal 0.356716871 0.893746495 0.271975219
  outer loop
  vertex 0.00907305535 0.00300908601 0.0825719014
  vertex 0.00787815731 0.003486 0.0825719014
  vertex 0.00888569467 0.00279792421 0.0835115463
  endloop
 endfacet

 facet normal 0.980694711 0 0.195545524
  outer loop
  vertex 0.00907305535 0.00300908601 0.0825719014
  vertex 0.00888569467 0.00279792421 0.0835115463
  vertex 0.00888569467 0.00227961759 0.0835115463
  endloop
 endfacet

 facet normal 0.982430935 -0.0124720111 0.186209366
  outer loop
  vertex 0.00907305535 0.00300908601 0.0825719014
  vertex 0.00888569467 0.00227961759 0.0835115463
  vertex 0.00932159368 0.00183809735 0.0811821967
  endloop
 endfacet

 facet normal 0.79105401 0.599017978 0.12414138
  outer loop
  vertex 0.00907305535 0.00300908601 0.0825719014
  vertex 0.00901378784 0.00424126396 0.0770039558
  vertex 0.00889334269 0.00411168719 0.0783967003
  endloop
 endfacet

 facet normal 0.673756838 0.721104622 0.161431238
  outer loop
  vertex 0.00907305535 0.00300908601 0.0825719014
  vertex 0.00889334269 0.00411168719 0.0783967003
  vertex 0.00873466022 0.00400670618 0.0795279294
  endloop
 endfacet

 facet normal 0.358483404 0.898172379 0.254511327
  outer loop
  vertex 0.00907305535 0.00300908601 0.0825719014
  vertex 0.00873466022 0.00400670618 0.0795279294
  vertex 0.00787815731 0.003486 0.0825719014
  endloop
 endfacet

 facet normal 0.884048581 -0.4002859 0.241307527
  outer loop
  vertex 0.00932159368 0.00183809735 0.0811821967
  vertex 0.00888569467 0.00227961759 0.0835115463
  vertex 0.00897363946 0.00182489969 0.0824350566
  endloop
 endfacet

 facet normal 0.490255058 -0.85954535 -0.144332334
  outer loop
  vertex 0.00949748326 0.000983251608 0.0756142512
  vertex 0.00908834953 0.000983251608 0.0742245391
  vertex 0.00905011315 0.00459759962 0.0525700636
  endloop
 endfacet

 facet normal 0.966420174 -0.250330269 -0.0580245368
  outer loop
  vertex 0.00949748326 0.000983251608 0.0756142512
  vertex 0.00905011315 0.00459759962 0.0525700636
  vertex 0.00926423911 0.00542425085 0.0525700636
  endloop
 endfacet

 facet normal 0.867040873 0.497382283 0.0291694403
  outer loop
  vertex 0.00914570503 0.00652085245 0.0525700636
  vertex 0.00892201997 0.00691078184 0.0525700636
  vertex 0.00936365407 0.00601394428 0.0547352061
  endloop
 endfacet

 facet normal 0.88567847 0.463891447 0.0194523856
  outer loop
  vertex 0.00914570503 0.00652085245 0.0525700636
  vertex 0.00936365407 0.00601394428 0.0547352061
  vertex 0.00939424336 0.00601394428 0.0533424579
  endloop
 endfacet

 facet normal 0.866320312 0.49859798 0.0298199691
  outer loop
  vertex 0.00936365407 0.00601394428 0.0547352061
  vertex 0.00892201997 0.00691078184 0.0525700636
  vertex 0.00907879043 0.00575959031 0.0672638491
  endloop
 endfacet

 facet normal 0.721900403 0.690440297 0.046390783
  outer loop
  vertex 0.00907879043 0.00575959031 0.0672638491
  vertex 0.00892201997 0.00691078184 0.0525700636
  vertex 0.00905202422 0.00569420168 0.0686535537
  endloop
 endfacet

 facet normal 0.731240273 0.670454025 0.125614852
  outer loop
  vertex 0.00901378784 0.00424126396 0.0770039558
  vertex 0.0089774644 0.00558502134 0.0700432584
  vertex 0.00889334269 0.00411168719 0.0783967003
  endloop
 endfacet

 facet normal 0.721071303 0.691301346 0.0464626215
  outer loop
  vertex 0.00905202422 0.00569420168 0.0686535537
  vertex 0.00892201997 0.00691078184 0.0525700636
  vertex 0.00889525469 0.00688678678 0.0533424579
  endloop
 endfacet

 facet normal 0.653513491 0.755117953 0.0521250293
  outer loop
  vertex 0.00905202422 0.00569420168 0.0686535537
  vertex 0.00889525469 0.00688678678 0.0533424579
  vertex 0.00883407518 0.00684359437 0.0547352061
  endloop
 endfacet

 facet normal 0.611007094 0.78966707 0.0556437597
  outer loop
  vertex 0.00905202422 0.00569420168 0.0686535537
  vertex 0.00883407518 0.00684359437 0.0547352061
  vertex 0.00876333751 0.00680040242 0.0561249107
  endloop
 endfacet

 facet normal 0.564955115 0.822963059 0.059644714
  outer loop
  vertex 0.00905202422 0.00569420168 0.0686535537
  vertex 0.00876333751 0.00680040242 0.0561249107
  vertex 0.00867921673 0.00675721001 0.0575176589
  endloop
 endfacet

 facet normal 0.543445468 0.837172389 0.0617212169
  outer loop
  vertex 0.00905202422 0.00569420168 0.0686535537
  vertex 0.00867921673 0.00675721001 0.0575176589
  vertex 0.00861421414 0.00672721537 0.0584968366
  endloop
 endfacet

 facet normal 0.311193496 0.946726084 0.0828749761
  outer loop
  vertex 0.00905202422 0.00569420168 0.0686535537
  vertex 0.00861421414 0.00672721537 0.0584968366
  vertex 0.00787815731 0.00620171009 0.0672638491
  endloop
 endfacet

 facet normal 0.30391103 0.948471665 0.0896638259
  outer loop
  vertex 0.00905202422 0.00569420168 0.0686535537
  vertex 0.00787815731 0.00620171009 0.0672638491
  vertex 0.00787815731 0.00607033446 0.0686535537
  endloop
 endfacet

 facet normal 0.303879291 0.948372602 0.0908110216
  outer loop
  vertex 0.00905202422 0.00569420168 0.0686535537
  vertex 0.00787815731 0.00607033446 0.0686535537
  vertex 0.0089774644 0.00558502134 0.0700432584
  endloop
 endfacet

 facet normal 0.271993667 0.954994142 0.118346028
  outer loop
  vertex 0.0089774644 0.00558502134 0.0700432584
  vertex 0.00787815731 0.00607033446 0.0686535537
  vertex 0.00882642809 0.00545544457 0.0714360103
  endloop
 endfacet

 facet normal 0.64004463 0.755530417 0.139701754
  outer loop
  vertex 0.0089774644 0.00558502134 0.0700432584
  vertex 0.00882642809 0.00545544457 0.0714360103
  vertex 0.00889334269 0.00411168719 0.0783967003
  endloop
 endfacet

 facet normal 0.729470134 -0.611905694 0.305687487
  outer loop
  vertex 0.00897363946 0.00182489969 0.0824350566
  vertex 0.00879010372 0.000983251608 0.0811882764
  vertex 0.0087939268 0.000983251608 0.0811791569
  endloop
 endfacet

 facet normal 0.700734317 -0.63487792 0.325425208
  outer loop
  vertex 0.00897363946 0.00182489969 0.0824350566
  vertex 0.00888569467 0.00227961759 0.0835115463
  vertex 0.00879010372 0.000983251608 0.0811882764
  endloop
 endfacet

 facet normal 0.132052451 0.970208108 0.203121513
  outer loop
  vertex 0.00787815731 0.003486 0.0825719014
  vertex 0.00873466022 0.00400670618 0.0795279294
  vertex 0.00787815731 0.0037769475 0.0811821967
  endloop
 endfacet

 facet normal 0.0021094312 0.978777409 0.204915568
  outer loop
  vertex 0.00787815731 0.003486 0.0825719014
  vertex 0.00787815731 0.0037769475 0.0811821967
  vertex 0.00648633949 0.00377994706 0.0811821967
  endloop
 endfacet

 facet normal 0.00168732682 0.978693366 0.205320522
  outer loop
  vertex 0.00787815731 0.003486 0.0825719014
  vertex 0.00648633949 0.00377994706 0.0811821967
  vertex 0.00648633949 0.00348839955 0.0825719014
  endloop
 endfacet

 facet normal 0.00152805296 0.886310279 0.463089347
  outer loop
  vertex 0.00787815731 0.003486 0.0825719014
  vertex 0.00648633949 0.00348839955 0.0825719014
  vertex 0.00787815731 0.00292990031 0.0836362317
  endloop
 endfacet

 facet normal 0.170853466 0.873279452 0.456280828
  outer loop
  vertex 0.00787815731 0.003486 0.0825719014
  vertex 0.00787815731 0.00292990031 0.0836362317
  vertex 0.00888569467 0.00279792421 0.0835115463
  endloop
 endfacet

 facet normal 0.122811042 0 0.992430091
  outer loop
  vertex 0.00888569467 0.00279792421 0.0835115463
  vertex 0.00787815731 0.00292990031 0.0836362317
  vertex 0.00787815731 0.0021524406 0.0836362317
  endloop
 endfacet

 facet normal 0.122811042 0 0.992430091
  outer loop
  vertex 0.00888569467 0.00279792421 0.0835115463
  vertex 0.00787815731 0.0021524406 0.0836362317
  vertex 0.00888569467 0.00227961759 0.0835115463
  endloop
 endfacet

 facet normal 0.170925528 -0.822907269 0.54185611
  outer loop
  vertex 0.00888569467 0.00227961759 0.0835115463
  vertex 0.00787815731 0.0021524406 0.0836362317
  vertex 0.00857788976 0.00114042324 0.0818785653
  endloop
 endfacet

 facet normal 0.643666267 -0.679269433 0.352543354
  outer loop
  vertex 0.00888569467 0.00227961759 0.0835115463
  vertex 0.00857788976 0.00114042324 0.0818785653
  vertex 0.00879010372 0.000983251608 0.0811882764
  endloop
 endfacet

 facet normal 0.54936403 0.821402073 0.153290004
  outer loop
  vertex 0.00889334269 0.00411168719 0.0783967003
  vertex 0.00882642809 0.00545544457 0.0714360103
  vertex 0.00873466022 0.00400670618 0.0795279294
  endloop
 endfacet

 facet normal 0.504242361 0.849035978 0.157725707
  outer loop
  vertex 0.00873466022 0.00400670618 0.0795279294
  vertex 0.00882642809 0.00545544457 0.0714360103
  vertex 0.00867730472 0.00536606088 0.0723939016
  endloop
 endfacet

 facet normal 0.0960760117 0.977923632 0.185566157
  outer loop
  vertex 0.00873466022 0.00400670618 0.0795279294
  vertex 0.00867730472 0.00536606088 0.0723939016
  vertex 0.00787815731 0.0037769475 0.0811821967
  endloop
 endfacet

 facet normal 0.0523859225 -0.988601267 -0.141150445
  outer loop
  vertex 0.00908834953 0.000983251608 0.0742245391
  vertex 0.00845744368 0.000983251608 0.0739903897
  vertex 0.00787815731 0.00401090551 0.0525700636
  endloop
 endfacet

 facet normal 0.44269526 -0.884309709 -0.148381785
  outer loop
  vertex 0.00908834953 0.000983251608 0.0742245391
  vertex 0.00787815731 0.00401090551 0.0525700636
  vertex 0.00905011315 0.00459759962 0.0525700636
  endloop
 endfacet

 facet normal 0.188918397 0.981294334 0.0370313376
  outer loop
  vertex 0.00892201997 0.00691078184 0.0525700636
  vertex 0.00787815731 0.00711174589 0.0525700636
  vertex 0.00889525469 0.00688678678 0.0533424579
  endloop
 endfacet

 facet normal 0.187701866 0.981464088 0.0386827253
  outer loop
  vertex 0.00889525469 0.00688678678 0.0533424579
  vertex 0.00787815731 0.00711174589 0.0525700636
  vertex 0.00883407518 0.00684359437 0.0547352061
  endloop
 endfacet

 facet normal 0.184996054 0.981927574 0.0399347469
  outer loop
  vertex 0.00883407518 0.00684359437 0.0547352061
  vertex 0.00787815731 0.00711174589 0.0525700636
  vertex 0.00876333751 0.00680040242 0.0561249107
  endloop
 endfacet

 facet normal 0.179700837 0.982852578 0.0413343012
  outer loop
  vertex 0.00876333751 0.00680040242 0.0561249107
  vertex 0.00787815731 0.00711174589 0.0525700636
  vertex 0.00867921673 0.00675721001 0.0575176589
  endloop
 endfacet

 facet normal 0.176718161 0.983371198 0.0418543927
  outer loop
  vertex 0.00867921673 0.00675721001 0.0575176589
  vertex 0.00787815731 0.00711174589 0.0525700636
  vertex 0.00861421414 0.00672721537 0.0584968366
  endloop
 endfacet

 facet normal 0.0237528495 0.997806668 0.0617880076
  outer loop
  vertex 0.00861421414 0.00672721537 0.0584968366
  vertex 0.00787815731 0.00711174589 0.0525700636
  vertex 0.00787815731 0.00628809491 0.0658710971
  endloop
 endfacet

 facet normal 0.0247602798 0.997775972 0.0618867353
  outer loop
  vertex 0.00861421414 0.00672721537 0.0584968366
  vertex 0.00787815731 0.00628809491 0.0658710971
  vertex 0.00787815731 0.00620171009 0.0672638491
  endloop
 endfacet

 facet normal -3.71894146e-07 0.998082042 0.0619057231
  outer loop
  vertex 0.00787815731 0.00620171009 0.0672638491
  vertex 0.00787815731 0.00628809491 0.0658710971
  vertex 0.00648633949 0.00637447927 0.0644783527
  endloop
 endfacet

 facet normal 0 0.998082042 0.0619055331
  outer loop
  vertex 0.00787815731 0.00620171009 0.0672638491
  vertex 0.00648633949 0.00637447927 0.0644783527
  vertex -0.00743374648 0.00637447927 0.0644783527
  endloop
 endfacet

 facet normal 0 0.998082042 0.0619055331
  outer loop
  vertex 0.00787815731 0.00620171009 0.0672638491
  vertex -0.00743374648 0.00637447927 0.0644783527
  vertex -0.00743374648 0.00620171009 0.0672638491
  endloop
 endfacet

 facet normal 0 0.995561302 0.0941154584
  outer loop
  vertex 0.00787815731 0.00620171009 0.0672638491
  vertex -0.00743374648 0.00620171009 0.0672638491
  vertex -0.00743374648 0.00607033446 0.0686535537
  endloop
 endfacet

 facet normal 0 0.995561302 0.0941154584
  outer loop
  vertex 0.00787815731 0.00620171009 0.0672638491
  vertex -0.00743374648 0.00607033446 0.0686535537
  vertex 0.00787815731 0.00607033446 0.0686535537
  endloop
 endfacet

 facet normal 0 0.987879574 0.155222878
  outer loop
  vertex 0.00787815731 0.00607033446 0.0686535537
  vertex -0.00743374648 0.00607033446 0.0686535537
  vertex -0.00743374648 0.00585197331 0.0700432584
  endloop
 endfacet

 facet normal 0 0.987879574 0.155222878
  outer loop
  vertex 0.00787815731 0.00607033446 0.0686535537
  vertex -0.00743374648 0.00585197331 0.0700432584
  vertex 0.00787815731 0.00585197331 0.0700432584
  endloop
 endfacet

 facet normal 0.14261803 0.977781236 0.153636158
  outer loop
  vertex 0.00787815731 0.00607033446 0.0686535537
  vertex 0.00787815731 0.00585197331 0.0700432584
  vertex 0.00867730472 0.00536606088 0.0723939016
  endloop
 endfacet

 facet normal 0.247005209 0.960512221 0.12808162
  outer loop
  vertex 0.00787815731 0.00607033446 0.0686535537
  vertex 0.00867730472 0.00536606088 0.0723939016
  vertex 0.00882642809 0.00545544457 0.0714360103
  endloop
 endfacet

 facet normal 0.166563675 -0.949106574 0.267307609
  outer loop
  vertex 0.00879010372 0.000983251608 0.0811882764
  vertex 0.00857788976 0.00114042324 0.0818785653
  vertex 0.00823375862 0.000983251608 0.0815349445
  endloop
 endfacet

 facet normal 0.0813977048 0.979454458 0.184508234
  outer loop
  vertex 0.00787815731 0.0037769475 0.0811821967
  vertex 0.00867730472 0.00536606088 0.0723939016
  vertex 0.00787815731 0.00391672226 0.0804402083
  endloop
 endfacet

 facet normal 0.00211791345 0.982713342 0.185122117
  outer loop
  vertex 0.00787815731 0.0037769475 0.0811821967
  vertex 0.00787815731 0.00391672226 0.0804402083
  vertex 0.00648633949 0.00377994706 0.0811821967
  endloop
 endfacet

 facet normal 0.0018133095 0.98281765 0.184569985
  outer loop
  vertex 0.00648633949 0.00377994706 0.0811821967
  vertex 0.00787815731 0.00391672226 0.0804402083
  vertex 0.00787815731 0.00404749904 0.0797438323
  endloop
 endfacet

 facet normal 7.64998986e-05 0.983122945 0.18294616
  outer loop
  vertex 0.00648633949 0.00377994706 0.0811821967
  vertex 0.00787815731 0.00404749904 0.0797438323
  vertex 0.00787815731 0.00481595984 0.0756142512
  endloop
 endfacet

 facet normal 4.71947897e-06 0.983126163 0.18292883
  outer loop
  vertex 0.00648633949 0.00377994706 0.0811821967
  vertex 0.00787815731 0.00481595984 0.0756142512
  vertex 0.00648633949 0.00507511338 0.0742214993
  endloop
 endfacet

 facet normal 0 0.983126163 0.18292883
  outer loop
  vertex 0.00648633949 0.00377994706 0.0811821967
  vertex 0.00648633949 0.00507511338 0.0742214993
  vertex -0.00743374648 0.00507511338 0.0742214993
  endloop
 endfacet

 facet normal 0 0.983126163 0.18292883
  outer loop
  vertex 0.00648633949 0.00377994706 0.0811821967
  vertex -0.00743374648 0.00507511338 0.0742214993
  vertex -0.00743374648 0.00377994706 0.0811821967
  endloop
 endfacet

 facet normal 0 0.978694677 0.20532079
  outer loop
  vertex 0.00648633949 0.00377994706 0.0811821967
  vertex -0.00743374648 0.00377994706 0.0811821967
  vertex -0.00743374648 0.00348839955 0.0825719014
  endloop
 endfacet

 facet normal 0 0.978694677 0.20532079
  outer loop
  vertex 0.00648633949 0.00377994706 0.0811821967
  vertex -0.00743374648 0.00348839955 0.0825719014
  vertex 0.00648633949 0.00348839955 0.0825719014
  endloop
 endfacet

 facet normal 0 0.885490537 0.464657396
  outer loop
  vertex 0.00648633949 0.00348839955 0.0825719014
  vertex -0.00743374648 0.00348839955 0.0825719014
  vertex -0.00743374648 0.00292990031 0.0836362317
  endloop
 endfacet

 facet normal 0 0.885490537 0.464657396
  outer loop
  vertex 0.00648633949 0.00348839955 0.0825719014
  vertex -0.00743374648 0.00292990031 0.0836362317
  vertex 0.00787815731 0.00292990031 0.0836362317
  endloop
 endfacet

 facet normal 0 0 1
  outer loop
  vertex 0.00787815731 0.00292990031 0.0836362317
  vertex -0.00743374648 0.00292990031 0.0836362317
  vertex -0.00743374648 0.0021524406 0.0836362317
  endloop
 endfacet

 facet normal 0 0 1
  outer loop
  vertex 0.00787815731 0.00292990031 0.0836362317
  vertex -0.00743374648 0.0021524406 0.0836362317
  vertex 0.00787815731 0.0021524406 0.0836362317
  endloop
 endfacet

 facet normal 0 -0.835539341 0.549430728
  outer loop
  vertex 0.00787815731 0.0021524406 0.0836362317
  vertex -0.00743374648 0.0021524406 0.0836362317
  vertex -0.00743374648 0.00145656615 0.0825779885
  endloop
 endfacet

 facet normal 0 -0.835539341 0.549430728
  outer loop
  vertex 0.00787815731 0.0021524406 0.0836362317
  vertex -0.00743374648 0.00145656615 0.0825779885
  vertex 0.00787815731 0.00145656615 0.0825779885
  endloop
 endfacet

 facet normal 0.169206798 -0.823491335 0.541508257
  outer loop
  vertex 0.00787815731 0.0021524406 0.0836362317
  vertex 0.00787815731 0.00145656615 0.0825779885
  vertex 0.00857788976 0.00114042324 0.0818785653
  endloop
 endfacet

 facet normal 0.00352735119 -0.910713315 0.413024127
  outer loop
  vertex 0.00857788976 0.00114042324 0.0818785653
  vertex 0.00787815731 0.000983251608 0.0815379843
  vertex 0.00823375862 0.000983251608 0.0815349445
  endloop
 endfacet

 facet normal 0.00282015651 -0.910169601 0.414226174
  outer loop
  vertex 0.00857788976 0.00114042324 0.0818785653
  vertex 0.00787815731 0.00145656615 0.0825779885
  vertex 0.00787815731 0.000983251608 0.0815379843
  endloop
 endfacet

 facet normal 0.0600580387 0.981379509 0.18244794
  outer loop
  vertex 0.00867730472 0.00536606088 0.0723939016
  vertex 0.00787815731 0.00585197331 0.0700432584
  vertex 0.00787815731 0.00539065665 0.0725246668
  endloop
 endfacet

 facet normal 0.0600731485 0.981360793 0.182543784
  outer loop
  vertex 0.00867730472 0.00536606088 0.0723939016
  vertex 0.00787815731 0.00539065665 0.0725246668
  vertex 0.00787815731 0.00481595984 0.0756142512
  endloop
 endfacet

 facet normal 0.0603713356 0.981329679 0.182612464
  outer loop
  vertex 0.00867730472 0.00536606088 0.0723939016
  vertex 0.00787815731 0.00481595984 0.0756142512
  vertex 0.00787815731 0.00404749904 0.0797438323
  endloop
 endfacet

 facet normal 0.0757022947 0.979999065 0.184040666
  outer loop
  vertex 0.00867730472 0.00536606088 0.0723939016
  vertex 0.00787815731 0.00404749904 0.0797438323
  vertex 0.00787815731 0.00391672226 0.0804402083
  endloop
 endfacet

 facet normal 0.0511171333 -0.988671064 -0.141126007
  outer loop
  vertex 0.00845744368 0.000983251608 0.0739903897
  vertex 0.00787815731 0.000983251608 0.0737805665
  vertex 0.00787815731 0.00401090551 0.0525700636
  endloop
 endfacet

 facet normal 0.0341151543 -0.989389062 -0.141228467
  outer loop
  vertex 0.00787815731 0.00401090551 0.0525700636
  vertex 0.00787815731 0.000983251608 0.0737805665
  vertex 0.00648633949 0.00396291399 0.0525700636
  endloop
 endfacet

 facet normal 0 0.998089433 0.0617862716
  outer loop
  vertex 0.00787815731 0.00711174589 0.0525700636
  vertex -0.00743374648 0.00711174589 0.0525700636
  vertex -0.00743374648 0.00663303258 0.0603031553
  endloop
 endfacet

 facet normal 0 0.998089433 0.0617862716
  outer loop
  vertex 0.00787815731 0.00711174589 0.0525700636
  vertex -0.00743374648 0.00663303258 0.0603031553
  vertex 0.00648633949 0.00663303258 0.0603031553
  endloop
 endfacet

 facet normal 0.000106923355 0.9980883 0.0618054532
  outer loop
  vertex 0.00787815731 0.00711174589 0.0525700636
  vertex 0.00648633949 0.00663303258 0.0603031553
  vertex 0.00787815731 0.00628809491 0.0658710971
  endloop
 endfacet

 facet normal 9.81651538e-05 0.998088181 0.0618076287
  outer loop
  vertex 0.00787815731 0.00628809491 0.0658710971
  vertex 0.00648633949 0.00663303258 0.0603031553
  vertex 0.00648633949 0.00637447927 0.0644783527
  endloop
 endfacet

 facet normal -0.0193759799 0.997894645 0.0618939176
  outer loop
  vertex -0.00743374648 0.00620171009 0.0672638491
  vertex -0.00743374648 0.00637447927 0.0644783527
  vertex -0.00837437063 0.00672721537 0.0584968366
  endloop
 endfacet

 facet normal -0.097179994 0.992806613 0.0699366257
  outer loop
  vertex -0.00743374648 0.00620171009 0.0672638491
  vertex -0.00837437063 0.00672721537 0.0584968366
  vertex -0.0095329443 0.00671941694 0.0569976568
  endloop
 endfacet

 facet normal -0.113552272 0.990832925 0.0731848404
  outer loop
  vertex -0.00743374648 0.00620171009 0.0672638491
  vertex -0.0095329443 0.00671941694 0.0569976568
  vertex -0.00882556383 0.00593955768 0.0686535537
  endloop
 endfacet

 facet normal -0.093137458 0.991233826 0.0937063619
  outer loop
  vertex -0.00743374648 0.00620171009 0.0672638491
  vertex -0.00882556383 0.00593955768 0.0686535537
  vertex -0.00743374648 0.00607033446 0.0686535537
  endloop
 endfacet

 facet normal -0.0927961841 0.987601757 0.126615673
  outer loop
  vertex -0.00743374648 0.00607033446 0.0686535537
  vertex -0.00882556383 0.00593955768 0.0686535537
  vertex -0.00882556383 0.00576138962 0.0700432584
  endloop
 endfacet

 facet normal -0.0641615242 0.985844016 0.154903039
  outer loop
  vertex -0.00743374648 0.00607033446 0.0686535537
  vertex -0.00882556383 0.00576138962 0.0700432584
  vertex -0.00743374648 0.00585197331 0.0700432584
  endloop
 endfacet

 facet normal 0 0.983154237 0.182777852
  outer loop
  vertex 0.00787815731 0.00585197331 0.0700432584
  vertex -0.00743374648 0.00585197331 0.0700432584
  vertex -0.00743374648 0.00539065665 0.0725246668
  endloop
 endfacet

 facet normal 0 0.983154237 0.182777852
  outer loop
  vertex 0.00787815731 0.00585197331 0.0700432584
  vertex -0.00743374648 0.00539065665 0.0725246668
  vertex 0.00787815731 0.00539065665 0.0725246668
  endloop
 endfacet

 facet normal 6.1420782e-05 0.983136356 0.182874054
  outer loop
  vertex 0.00787815731 0.00481595984 0.0756142512
  vertex 0.00787815731 0.00539065665 0.0725246668
  vertex 0.00648633949 0.00507511338 0.0742214993
  endloop
 endfacet

 facet normal 0 0.983145416 0.182825372
  outer loop
  vertex 0.00648633949 0.00507511338 0.0742214993
  vertex 0.00787815731 0.00539065665 0.0725246668
  vertex -0.00743374648 0.00539065665 0.0725246668
  endloop
 endfacet

 facet normal 0 0.983145416 0.182825372
  outer loop
  vertex 0.00648633949 0.00507511338 0.0742214993
  vertex -0.00743374648 0.00539065665 0.0725246668
  vertex -0.00743374648 0.00507511338 0.0742214993
  endloop
 endfacet

 facet normal -0.0673916489 0.976469755 0.204854056
  outer loop
  vertex -0.00743374648 0.00377994706 0.0811821967
  vertex -0.00882556383 0.00401690416 0.0795948282
  vertex -0.00743374648 0.00348839955 0.0825719014
  endloop
 endfacet

 facet normal -0.0387781076 0.982386708 0.182791218
  outer loop
  vertex -0.00743374648 0.00377994706 0.0811821967
  vertex -0.00743374648 0.00507511338 0.0742214993
  vertex -0.00882556383 0.00536306156 0.072378695
  endloop
 endfacet

 facet normal -0.0417505912 0.982184112 0.183224738
  outer loop
  vertex -0.00743374648 0.00377994706 0.0811821967
  vertex -0.00882556383 0.00536306156 0.072378695
  vertex -0.00882556383 0.00401690416 0.0795948282
  endloop
 endfacet

 facet normal -0.103200488 0.903535128 0.415901363
  outer loop
  vertex -0.00743374648 0.00348839955 0.0825719014
  vertex -0.00882556383 0.00332942815 0.0825719014
  vertex -0.00882556383 0.00286751171 0.0835754052
  endloop
 endfacet

 facet normal -0.0598899275 0.88390106 0.463823408
  outer loop
  vertex -0.00743374648 0.00348839955 0.0825719014
  vertex -0.00882556383 0.00286751171 0.0835754052
  vertex -0.00743374648 0.00292990031 0.0836362317
  endloop
 endfacet

 facet normal -0.110606954 0.968379855 0.223621547
  outer loop
  vertex -0.00743374648 0.00348839955 0.0825719014
  vertex -0.00882556383 0.00401690416 0.0795948282
  vertex -0.00882556383 0.00332942815 0.0825719014
  endloop
 endfacet

 facet normal -0.0436578915 0 0.999046564
  outer loop
  vertex -0.00743374648 0.00292990031 0.0836362317
  vertex -0.00882556383 0.00286751171 0.0835754052
  vertex -0.00882556383 0.00221422943 0.0835754052
  endloop
 endfacet

 facet normal -0.0436578915 0 0.999046564
  outer loop
  vertex -0.00743374648 0.00292990031 0.0836362317
  vertex -0.00882556383 0.00221422943 0.0835754052
  vertex -0.00743374648 0.0021524406 0.0836362317
  endloop
 endfacet

 facet normal -0.0609894618 -0.833983898 0.548407912
  outer loop
  vertex -0.00743374648 0.0021524406 0.0836362317
  vertex -0.00882556383 0.00221422943 0.0835754052
  vertex -0.00743374648 0.00145656615 0.0825779885
  endloop
 endfacet

 facet normal 0 -0.910173297 0.414227813
  outer loop
  vertex 0.00787815731 0.00145656615 0.0825779885
  vertex -0.00743374648 0.00145656615 0.0825779885
  vertex -0.00743374648 0.000983251608 0.0815379843
  endloop
 endfacet

 facet normal 0 -0.910173297 0.414227813
  outer loop
  vertex 0.00787815731 0.00145656615 0.0825779885
  vertex -0.00743374648 0.000983251608 0.0815379843
  vertex 0.00787815731 0.000983251608 0.0815379843
  endloop
 endfacet

 facet normal 0.0100765778 -0.990134835 -0.13975586
  outer loop
  vertex 0.00787815731 0.000983251608 0.0737805665
  vertex 0.00648633949 0.000983251608 0.0736802146
  vertex 0.00648633949 0.00396291399 0.0525700636
  endloop
 endfacet

 facet normal 0 -0.990184963 -0.139762923
  outer loop
  vertex 0.00648633949 0.00396291399 0.0525700636
  vertex 0.00648633949 0.000983251608 0.0736802146
  vertex -0.00604001712 0.000983251608 0.0736802146
  endloop
 endfacet

 facet normal 0 -0.990184963 -0.139762923
  outer loop
  vertex 0.00648633949 0.00396291399 0.0525700636
  vertex -0.00604001712 0.000983251608 0.0736802146
  vertex -0.00607634243 0.00396291399 0.0525700636
  endloop
 endfacet

 facet normal -0.0490997098 0.9971717 0.0569042228
  outer loop
  vertex -0.00743374648 0.00711174589 0.0525700636
  vertex -0.0080550937 0.00708115147 0.0525700636
  vertex -0.00837437063 0.00672721537 0.0584968366
  endloop
 endfacet

 facet normal -0.0187103208 0.997914732 0.0617754646
  outer loop
  vertex -0.00743374648 0.00711174589 0.0525700636
  vertex -0.00837437063 0.00672721537 0.0584968366
  vertex -0.00743374648 0.00663303258 0.0603031553
  endloop
 endfacet

 facet normal 0 0.998088181 0.0618076287
  outer loop
  vertex 0.00648633949 0.00663303258 0.0603031553
  vertex -0.00743374648 0.00663303258 0.0603031553
  vertex -0.00743374648 0.00637447927 0.0644783527
  endloop
 endfacet

 facet normal 0 0.998088181 0.0618076287
  outer loop
  vertex 0.00648633949 0.00663303258 0.0603031553
  vertex -0.00743374648 0.00637447927 0.0644783527
  vertex 0.00648633949 0.00637447927 0.0644783527
  endloop
 endfacet

 facet normal -0.018751435 0.997912705 0.0617967658
  outer loop
  vertex -0.00743374648 0.00637447927 0.0644783527
  vertex -0.00743374648 0.00663303258 0.0603031553
  vertex -0.00837437063 0.00672721537 0.0584968366
  endloop
 endfacet

 facet normal -0.0542437285 0.996921539 0.056612175
  outer loop
  vertex -0.00837437063 0.00672721537 0.0584968366
  vertex -0.0080550937 0.00708115147 0.0525700636
  vertex -0.00882556383 0.00699536735 0.0533424579
  endloop
 endfacet

 facet normal -0.0599145107 0.996569574 0.0570902638
  outer loop
  vertex -0.00837437063 0.00672721537 0.0584968366
  vertex -0.00882556383 0.00699536735 0.0533424579
  vertex -0.00882556383 0.00691558095 0.0547352061
  endloop
 endfacet

 facet normal -0.0680862442 0.99598974 0.0580413975
  outer loop
  vertex -0.00837437063 0.00672721537 0.0584968366
  vertex -0.00882556383 0.00691558095 0.0547352061
  vertex -0.00882556383 0.00683459593 0.0561249107
  endloop
 endfacet

 facet normal -0.072732076 0.995610416 0.0589079671
  outer loop
  vertex -0.00837437063 0.00672721537 0.0584968366
  vertex -0.00882556383 0.00683459593 0.0561249107
  vertex -0.00883321092 0.00675361091 0.0574842095
  endloop
 endfacet

 facet normal -0.0971061587 0.992817938 0.069879517
  outer loop
  vertex -0.00837437063 0.00672721537 0.0584968366
  vertex -0.00883321092 0.00675361091 0.0574842095
  vertex -0.0095329443 0.00671941694 0.0569976568
  endloop
 endfacet

 facet normal -0.0894264802 0.994260192 0.0587335974
  outer loop
  vertex -0.0095329443 0.00671941694 0.0569976568
  vertex -0.00883321092 0.00675361091 0.0574842095
  vertex -0.00882556383 0.00683459593 0.0561249107
  endloop
 endfacet

 facet normal -0.0904010907 0.994218767 0.0579381958
  outer loop
  vertex -0.0095329443 0.00671941694 0.0569976568
  vertex -0.00882556383 0.00683459593 0.0561249107
  vertex -0.00882556383 0.00691558095 0.0547352061
  endloop
 endfacet

 facet normal -0.093522042 0.99398762 0.0569423512
  outer loop
  vertex -0.0095329443 0.00671941694 0.0569976568
  vertex -0.00882556383 0.00691558095 0.0547352061
  vertex -0.00882556383 0.00699536735 0.0533424579
  endloop
 endfacet

 facet normal -0.100484401 0.993386805 0.0555495881
  outer loop
  vertex -0.0095329443 0.00671941694 0.0569976568
  vertex -0.00882556383 0.00699536735 0.0533424579
  vertex -0.00882556383 0.0070385593 0.0525700636
  endloop
 endfacet

 facet normal -0.21501255 0.975947738 0.0359948426
  outer loop
  vertex -0.0095329443 0.00671941694 0.0569976568
  vertex -0.00882556383 0.0070385593 0.0525700636
  vertex -0.00918498915 0.0069593736 0.0525700636
  endloop
 endfacet

 facet normal -0.231486723 0.972226143 0.0344984755
  outer loop
  vertex -0.0095329443 0.00671941694 0.0569976568
  vertex -0.00918498915 0.0069593736 0.0525700636
  vertex -0.00955970958 0.0067440127 0.0561249107
  endloop
 endfacet

 facet normal -0.840894461 0.539644301 0.0409965478
  outer loop
  vertex -0.0095329443 0.00671941694 0.0569976568
  vertex -0.00955970958 0.0067440127 0.0561249107
  vertex -0.00970692094 0.00556282559 0.0686535537
  endloop
 endfacet

 facet normal -0.790369928 0.610683203 0.0487997346
  outer loop
  vertex -0.0095329443 0.00671941694 0.0569976568
  vertex -0.00970692094 0.00556282559 0.0686535537
  vertex -0.00967442058 0.00549383787 0.0700432584
  endloop
 endfacet

 facet normal -0.352331966 0.932120502 0.0837477893
  outer loop
  vertex -0.0095329443 0.00671941694 0.0569976568
  vertex -0.00967442058 0.00549383787 0.0700432584
  vertex -0.00882556383 0.00593955768 0.0686535537
  endloop
 endfacet

 facet normal -0.345321178 0.93428129 0.0887231454
  outer loop
  vertex -0.00882556383 0.00593955768 0.0686535537
  vertex -0.00967442058 0.00549383787 0.0700432584
  vertex -0.00959412288 0.00539125595 0.0714360103
  endloop
 endfacet

 facet normal -0.310172439 0.945341527 0.100611299
  outer loop
  vertex -0.00882556383 0.00593955768 0.0686535537
  vertex -0.00959412288 0.00539125595 0.0714360103
  vertex -0.00953485537 0.00532946782 0.072199285
  endloop
 endfacet

 facet normal -0.21249871 0.969228387 0.124260113
  outer loop
  vertex -0.00882556383 0.00593955768 0.0686535537
  vertex -0.00953485537 0.00532946782 0.072199285
  vertex -0.00882556383 0.00576138962 0.0700432584
  endloop
 endfacet

 facet normal -0.0640607104 0.98429513 0.164497182
  outer loop
  vertex -0.00882556383 0.00576138962 0.0700432584
  vertex -0.00882556383 0.00552863162 0.0714360103
  vertex -0.00743374648 0.00585197331 0.0700432584
  endloop
 endfacet

 facet normal -0.0990802795 0.981467724 0.164024666
  outer loop
  vertex -0.00882556383 0.00576138962 0.0700432584
  vertex -0.00953485537 0.00532946782 0.072199285
  vertex -0.00882556383 0.00552863162 0.0714360103
  endloop
 endfacet

 facet normal -0.0556241348 0.983399093 0.172720119
  outer loop
  vertex -0.00743374648 0.00585197331 0.0700432584
  vertex -0.00882556383 0.00552863162 0.0714360103
  vertex -0.00882556383 0.00536306156 0.072378695
  endloop
 endfacet

 facet normal -0.0386326611 0.982420325 0.182641417
  outer loop
  vertex -0.00743374648 0.00585197331 0.0700432584
  vertex -0.00882556383 0.00536306156 0.072378695
  vertex -0.00743374648 0.00539065665 0.0725246668
  endloop
 endfacet

 facet normal -0.0386374593 0.982411325 0.182688847
  outer loop
  vertex -0.00743374648 0.00507511338 0.0742214993
  vertex -0.00743374648 0.00539065665 0.0725246668
  vertex -0.00882556383 0.00536306156 0.072378695
  endloop
 endfacet

 facet normal -0.145626456 0.963971317 0.2226035
  outer loop
  vertex -0.00882556383 0.00401690416 0.0795948282
  vertex -0.00956353359 0.00396651356 0.0793302655
  vertex -0.00882556383 0.00332942815 0.0825719014
  endloop
 endfacet

 facet normal -0.0925469995 0.97882241 0.182597607
  outer loop
  vertex -0.00882556383 0.00401690416 0.0795948282
  vertex -0.00882556383 0.00536306156 0.072378695
  vertex -0.00953485537 0.00532946782 0.072199285
  endloop
 endfacet

 facet normal -0.132999435 0.973592699 0.185549185
  outer loop
  vertex -0.00882556383 0.00401690416 0.0795948282
  vertex -0.00953485537 0.00532946782 0.072199285
  vertex -0.00956353359 0.00396651356 0.0793302655
  endloop
 endfacet

 facet normal -0.0900380835 0.980923533 0.172285348
  outer loop
  vertex -0.00882556383 0.00536306156 0.072378695
  vertex -0.00882556383 0.00552863162 0.0714360103
  vertex -0.00953485537 0.00532946782 0.072199285
  endloop
 endfacet

 facet normal -0.235472411 0.882842541 0.406376451
  outer loop
  vertex -0.00882556383 0.00332942815 0.0825719014
  vertex -0.00964574236 0.00271453918 0.0834324881
  vertex -0.00882556383 0.00286751171 0.0835754052
  endloop
 endfacet

 facet normal -0.387710005 0.883776605 0.261953801
  outer loop
  vertex -0.00882556383 0.00332942815 0.0825719014
  vertex -0.00956353359 0.00396651356 0.0793302655
  vertex -0.00964574236 0.00271453918 0.0834324881
  endloop
 endfacet

 facet normal -0.171666503 0 0.985155106
  outer loop
  vertex -0.00882556383 0.00286751171 0.0835754052
  vertex -0.00964574236 0.00271453918 0.0834324881
  vertex -0.00964574236 0.00236180285 0.0834324881
  endloop
 endfacet

 facet normal -0.171666503 0 0.985155106
  outer loop
  vertex -0.00882556383 0.00286751171 0.0835754052
  vertex -0.00964574236 0.00236180285 0.0834324881
  vertex -0.00882556383 0.00221422943 0.0835754052
  endloop
 endfacet

 facet normal -0.236886963 -0.834072292 0.498204887
  outer loop
  vertex -0.00882556383 0.00221422943 0.0835754052
  vertex -0.00964574236 0.00236180285 0.0834324881
  vertex -0.00869555958 0.00149615901 0.0824350566
  endloop
 endfacet

 facet normal -0.0859285295 -0.847466111 0.523848891
  outer loop
  vertex -0.00882556383 0.00221422943 0.0835754052
  vertex -0.00869555958 0.00149615901 0.0824350566
  vertex -0.00743374648 0.00145656615 0.0825779885
  endloop
 endfacet

 facet normal -0.0816078708 -0.874432504 0.478234321
  outer loop
  vertex -0.00743374648 0.00145656615 0.0825779885
  vertex -0.00869555958 0.00149615901 0.0824350566
  vertex -0.00814494956 0.00114042324 0.0818785653
  endloop
 endfacet

 facet normal -0.00277466862 -0.91016978 0.414226234
  outer loop
  vertex -0.00743374648 0.00145656615 0.0825779885
  vertex -0.00814494956 0.00114042324 0.0818785653
  vertex -0.00743374648 0.000983251608 0.0815379843
  endloop
 endfacet

 facet normal -0.0358752869 -0.933793962 0.356008232
  outer loop
  vertex -0.00743374648 0.000983251608 0.0815379843
  vertex -0.00814494956 0.00114042324 0.0818785653
  vertex -0.00855025928 0.000983251608 0.0814254731
  endloop
 endfacet

 facet normal -0.00262562209 -0.990182161 -0.139758021
  outer loop
  vertex -0.00607634243 0.00396291399 0.0525700636
  vertex -0.00604001712 0.000983251608 0.0736802146
  vertex -0.00743374648 0.00396651356 0.0525700636
  endloop
 endfacet

 facet normal -0.0551108867 0.996922731 0.0557473116
  outer loop
  vertex -0.0080550937 0.00708115147 0.0525700636
  vertex -0.00882556383 0.0070385593 0.0525700636
  vertex -0.00882556383 0.00699536735 0.0533424579
  endloop
 endfacet

 facet normal -0.255419463 0.966392994 0.0290758237
  outer loop
  vertex -0.00918498915 0.0069593736 0.0525700636
  vertex -0.00964574236 0.00683759572 0.0525700636
  vertex -0.00963044818 0.00681839883 0.0533424579
  endloop
 endfacet

 facet normal -0.251851887 0.967259824 0.0312915556
  outer loop
  vertex -0.00918498915 0.0069593736 0.0525700636
  vertex -0.00963044818 0.00681839883 0.0533424579
  vertex -0.00959794596 0.00678180531 0.0547352061
  endloop
 endfacet

 facet normal -0.243475169 0.969343543 0.0330601297
  outer loop
  vertex -0.00918498915 0.0069593736 0.0525700636
  vertex -0.00959794596 0.00678180531 0.0547352061
  vertex -0.00955970958 0.0067440127 0.0561249107
  endloop
 endfacet

 facet normal -0.862434089 0.504781604 0.0374566428
  outer loop
  vertex -0.00955970958 0.0067440127 0.0561249107
  vertex -0.00959794596 0.00678180531 0.0547352061
  vertex -0.00970692094 0.00556282559 0.0686535537
  endloop
 endfacet

 facet normal -0.980117202 0.197091281 0.0229218435
  outer loop
  vertex -0.00970692094 0.00556282559 0.0686535537
  vertex -0.0098961927 0.00462159514 0.0686535537
  vertex -0.00986369234 0.00462159514 0.0700432584
  endloop
 endfacet

 facet normal -0.976712823 0.211940944 0.0333633758
  outer loop
  vertex -0.00970692094 0.00556282559 0.0686535537
  vertex -0.00986369234 0.00462159514 0.0700432584
  vertex -0.00967442058 0.00549383787 0.0700432584
  endloop
 endfacet

 facet normal -0.890947342 0.452928394 0.0326920524
  outer loop
  vertex -0.00970692094 0.00556282559 0.0686535537
  vertex -0.00959794596 0.00678180531 0.0547352061
  vertex -0.00963044818 0.00681839883 0.0533424579
  endloop
 endfacet

 facet normal -0.917013943 0.397868127 0.0280466862
  outer loop
  vertex -0.00970692094 0.00556282559 0.0686535537
  vertex -0.00963044818 0.00681839883 0.0533424579
  vertex -0.00964574236 0.00683759572 0.0525700636
  endloop
 endfacet

 facet normal -0.974502563 0.223936602 0.0140422825
  outer loop
  vertex -0.00970692094 0.00556282559 0.0686535537
  vertex -0.00964574236 0.00683759572 0.0525700636
  vertex -0.00983501412 0.00601394428 0.0525700636
  endloop
 endfacet

 facet normal -0.980287552 0.197125554 0.0133363437
  outer loop
  vertex -0.00970692094 0.00556282559 0.0686535537
  vertex -0.00983501412 0.00601394428 0.0525700636
  vertex -0.0098961927 0.00462159514 0.0686535537
  endloop
 endfacet

 facet normal -0.976513863 0.21189779 0.0389859639
  outer loop
  vertex -0.00967442058 0.00549383787 0.0700432584
  vertex -0.00986369234 0.00462159514 0.0700432584
  vertex -0.00969162676 0.0041338834 0.0770039558
  endloop
 endfacet

 facet normal -0.938365459 0.339660019 0.0640419722
  outer loop
  vertex -0.00967442058 0.00549383787 0.0700432584
  vertex -0.00969162676 0.0041338834 0.0770039558
  vertex -0.00963044818 0.00404029991 0.0783967003
  endloop
 endfacet

 facet normal -0.883263946 0.461127847 0.084887892
  outer loop
  vertex -0.00967442058 0.00549383787 0.0700432584
  vertex -0.00963044818 0.00404029991 0.0783967003
  vertex -0.00959412288 0.00539125595 0.0714360103
  endloop
 endfacet

 facet normal -0.826972723 0.552734375 0.102960974
  outer loop
  vertex -0.00959412288 0.00539125595 0.0714360103
  vertex -0.00963044818 0.00404029991 0.0783967003
  vertex -0.00956353359 0.00396651356 0.0793302655
  endloop
 endfacet

 facet normal -0.798496842 0.591879427 0.109915465
  outer loop
  vertex -0.00959412288 0.00539125595 0.0714360103
  vertex -0.00956353359 0.00396651356 0.0793302655
  vertex -0.00953485537 0.00532946782 0.072199285
  endloop
 endfacet

 facet normal -0.910913587 0.401036114 0.0969876871
  outer loop
  vertex -0.00956353359 0.00396651356 0.0793302655
  vertex -0.00963044818 0.00404029991 0.0783967003
  vertex -0.00970883295 0.00285251415 0.0825719014
  endloop
 endfacet

 facet normal -0.831476927 0.535797 0.146859288
  outer loop
  vertex -0.00956353359 0.00396651356 0.0793302655
  vertex -0.00970883295 0.00285251415 0.0825719014
  vertex -0.00964574236 0.00271453918 0.0834324881
  endloop
 endfacet

 facet normal -0.997323513 0 0.0731147677
  outer loop
  vertex -0.00964574236 0.00271453918 0.0834324881
  vertex -0.00970883295 0.00285251415 0.0825719014
  vertex -0.00970883295 0.00212364574 0.0825719014
  endloop
 endfacet

 facet normal -0.997323513 0 0.0731147677
  outer loop
  vertex -0.00964574236 0.00271453918 0.0834324881
  vertex -0.00970883295 0.00212364574 0.0825719014
  vertex -0.00964574236 0.00236180285 0.0834324881
  endloop
 endfacet

 facet normal -0.945574284 -0.28911823 0.149331287
  outer loop
  vertex -0.00964574236 0.00236180285 0.0834324881
  vertex -0.00970883295 0.00212364574 0.0825719014
  vertex -0.00963618327 0.000997049036 0.0808507353
  endloop
 endfacet

 facet normal -0.372185349 -0.821134031 0.432685822
  outer loop
  vertex -0.00964574236 0.00236180285 0.0834324881
  vertex -0.00963618327 0.000997049036 0.0808507353
  vertex -0.00907410402 0.00123100693 0.0817782134
  endloop
 endfacet

 facet normal -0.254155397 -0.837116957 0.484396815
  outer loop
  vertex -0.00964574236 0.00236180285 0.0834324881
  vertex -0.00907410402 0.00123100693 0.0817782134
  vertex -0.00869555958 0.00149615901 0.0824350566
  endloop
 endfacet

 facet normal -0.133869588 -0.889772117 0.436330736
  outer loop
  vertex -0.00869555958 0.00149615901 0.0824350566
  vertex -0.00907410402 0.00123100693 0.0817782134
  vertex -0.00814494956 0.00114042324 0.0818785653
  endloop
 endfacet

 facet normal -0.133457392 -0.893181443 0.429436892
  outer loop
  vertex -0.00814494956 0.00114042324 0.0818785653
  vertex -0.00907410402 0.00123100693 0.0817782134
  vertex -0.00876629725 0.000983251608 0.0813585743
  endloop
 endfacet

 facet normal -0.132768363 -0.893616378 0.428745091
  outer loop
  vertex -0.00814494956 0.00114042324 0.0818785653
  vertex -0.00876629725 0.000983251608 0.0813585743
  vertex -0.00855025928 0.000983251608 0.0814254731
  endloop
 endfacet

 facet normal -0.00578506803 -0.990197897 -0.139551669
  outer loop
  vertex -0.00604001712 0.000983251608 0.0736802146
  vertex -0.00743374648 0.000983251608 0.0737379938
  vertex -0.00743374648 0.00396651356 0.0525700636
  endloop
 endfacet

 facet normal -0.0226969384 -0.989959419 -0.139518052
  outer loop
  vertex -0.00743374648 0.00396651356 0.0525700636
  vertex -0.00743374648 0.000983251608 0.0737379938
  vertex -0.0076019885 0.000983251608 0.0737653598
  endloop
 endfacet

 facet normal -0.022885358 -0.989954889 -0.139518902
  outer loop
  vertex -0.00743374648 0.00396651356 0.0525700636
  vertex -0.0076019885 0.000983251608 0.0737653598
  vertex -0.00882556383 0.000983251608 0.0739660636
  endloop
 endfacet

 facet normal -0.0596105829 -0.988120079 -0.141652077
  outer loop
  vertex -0.00743374648 0.00396651356 0.0525700636
  vertex -0.00882556383 0.000983251608 0.0739660636
  vertex -0.00967824366 0.000983251608 0.074324891
  endloop
 endfacet

 facet normal -0.122407719 -0.981499791 -0.147223145
  outer loop
  vertex -0.00743374648 0.00396651356 0.0525700636
  vertex -0.00967824366 0.000983251608 0.074324891
  vertex -0.00833804533 0.00407929299 0.0525700636
  endloop
 endfacet

 facet normal -0.998428285 0.0549573861 0.0109883957
  outer loop
  vertex -0.0098961927 0.00462159514 0.0686535537
  vertex -0.0098961927 0.00322984625 0.0756142512
  vertex -0.00988089852 0.00322984625 0.0770039558
  endloop
 endfacet

 facet normal -0.991473675 0.128227249 0.023187438
  outer loop
  vertex -0.0098961927 0.00462159514 0.0686535537
  vertex -0.00988089852 0.00322984625 0.0770039558
  vertex -0.00986369234 0.00462159514 0.0700432584
  endloop
 endfacet

 facet normal -0.998213649 0.0597300157 0.00137381291
  outer loop
  vertex -0.0098961927 0.00462159514 0.0686535537
  vertex -0.00983501412 0.00601394428 0.0525700636
  vertex -0.00989810564 0.00462159514 0.0672638491
  endloop
 endfacet

 facet normal -0.999975383 0.00688311737 0.00137623749
  outer loop
  vertex -0.0098961927 0.00462159514 0.0686535537
  vertex -0.00989810564 0.00462159514 0.0672638491
  vertex -0.0098961927 0.00322984625 0.0756142512
  endloop
 endfacet

 facet normal -0.978052258 0.204767615 0.0385244042
  outer loop
  vertex -0.00986369234 0.00462159514 0.0700432584
  vertex -0.00988089852 0.00322984625 0.0770039558
  vertex -0.00969162676 0.0041338834 0.0770039558
  endloop
 endfacet

 facet normal -0.99986285 0.0163336918 -0.00274540298
  outer loop
  vertex -0.00983501412 0.00601394428 0.0525700636
  vertex -0.00989428163 0.00462159514 0.0658710971
  vertex -0.00989810564 0.00462159514 0.0672638491
  endloop
 endfacet

 facet normal -0.994123995 -0.105607539 -0.0237659737
  outer loop
  vertex -0.00983501412 0.00601394428 0.0525700636
  vertex -0.00971074495 0.0048441547 0.0525700636
  vertex -0.00988472253 0.000983251608 0.0770039558
  endloop
 endfacet

 facet normal -0.999689758 -0.0239173099 -0.00695809629
  outer loop
  vertex -0.00983501412 0.00601394428 0.0525700636
  vertex -0.00988472253 0.000983251608 0.0770039558
  vertex -0.00989428163 0.00462159514 0.0658710971
  endloop
 endfacet

 facet normal -0.977875412 0.2047306 0.0429546647
  outer loop
  vertex -0.00969162676 0.0041338834 0.0770039558
  vertex -0.00988089852 0.00322984625 0.0770039558
  vertex -0.00981971994 0.00322984625 0.0783967003
  endloop
 endfacet

 facet normal -0.977252662 0.207316428 0.0446904115
  outer loop
  vertex -0.00969162676 0.0041338834 0.0770039558
  vertex -0.00981971994 0.00322984625 0.0783967003
  vertex -0.00970883295 0.00285251415 0.0825719014
  endloop
 endfacet

 facet normal -0.95902741 0.27673018 0.0607211255
  outer loop
  vertex -0.00969162676 0.0041338834 0.0770039558
  vertex -0.00970883295 0.00285251415 0.0825719014
  vertex -0.00963044818 0.00404029991 0.0783967003
  endloop
 endfacet

 facet normal -0.981117547 0.188550293 0.0430970751
  outer loop
  vertex -0.00970883295 0.00285251415 0.0825719014
  vertex -0.00981971994 0.00322984625 0.0783967003
  vertex -0.00988089852 0.00322984625 0.0770039558
  endloop
 endfacet

 facet normal -0.996202886 0.0792004317 0.0361527726
  outer loop
  vertex -0.00970883295 0.00285251415 0.0825719014
  vertex -0.00988089852 0.00322984625 0.0770039558
  vertex -0.00989045762 0.00183809735 0.0797894523
  endloop
 endfacet

 facet normal -0.997876346 0 0.0651366264
  outer loop
  vertex -0.00970883295 0.00285251415 0.0825719014
  vertex -0.00989045762 0.00183809735 0.0797894523
  vertex -0.00970883295 0.00212364574 0.0825719014
  endloop
 endfacet

 facet normal -0.980248868 -0.179768488 0.082434684
  outer loop
  vertex -0.00970883295 0.00212364574 0.0825719014
  vertex -0.00989045762 0.00183809735 0.0797894523
  vertex -0.00973368715 0.000983251608 0.0797894523
  endloop
 endfacet

 facet normal -0.977808237 -0.190642938 0.0868698061
  outer loop
  vertex -0.00970883295 0.00212364574 0.0825719014
  vertex -0.00973368715 0.000983251608 0.0797894523
  vertex -0.00970883295 0.000983251608 0.0800692141
  endloop
 endfacet

 facet normal -0.973865092 -0.206681967 0.0941782743
  outer loop
  vertex -0.00970883295 0.00212364574 0.0825719014
  vertex -0.00970883295 0.000983251608 0.0800692141
  vertex -0.00963618327 0.000997049036 0.0808507353
  endloop
 endfacet

 facet normal -0.968787551 -0.22933571 0.0941062123
  outer loop
  vertex -0.00963618327 0.000997049036 0.0808507353
  vertex -0.00970883295 0.000983251608 0.0800692141
  vertex -0.00964000728 0.000983251608 0.0807777494
  endloop
 endfacet

 facet normal -0.158582538 -0.96861124 0.19142583
  outer loop
  vertex -0.00963618327 0.000997049036 0.0808507353
  vertex -0.00964000728 0.000983251608 0.0807777494
  vertex -0.00945647061 0.000983251608 0.0809298009
  endloop
 endfacet

 facet normal -0.230693847 -0.90111506 0.367113322
  outer loop
  vertex -0.00963618327 0.000997049036 0.0808507353
  vertex -0.00945647061 0.000983251608 0.0809298009
  vertex -0.00907410402 0.00123100693 0.0817782134
  endloop
 endfacet

 facet normal -0.227376878 -0.902411222 0.365996957
  outer loop
  vertex -0.00907410402 0.00123100693 0.0817782134
  vertex -0.00945647061 0.000983251608 0.0809298009
  vertex -0.00876629725 0.000983251608 0.0813585743
  endloop
 endfacet

 facet normal -0.128830016 -0.980636477 -0.147495925
  outer loop
  vertex -0.00833804533 0.00407929299 0.0525700636
  vertex -0.00967824366 0.000983251608 0.074324891
  vertex -0.00889056642 0.00415187981 0.0525700636
  endloop
 endfacet

 facet normal -0.81182301 -0.575127363 -0.10085693
  outer loop
  vertex -0.00967824366 0.000983251608 0.074324891
  vertex -0.00974133424 0.000983251608 0.07483273
  vertex -0.00971074495 0.0048441547 0.0525700636
  endloop
 endfacet

 facet normal -0.688297451 -0.714443445 -0.125766367
  outer loop
  vertex -0.00967824366 0.000983251608 0.074324891
  vertex -0.00971074495 0.0048441547 0.0525700636
  vertex -0.0095233852 0.00392332114 0.0567756705
  endloop
 endfacet

 facet normal -0.618530869 -0.77405262 -0.13513723
  outer loop
  vertex -0.00967824366 0.000983251608 0.074324891
  vertex -0.0095233852 0.00392332114 0.0567756705
  vertex -0.00889056642 0.00415187981 0.0525700636
  endloop
 endfacet

 facet normal -0.99998796 0.00480757002 0.00103031215
  outer loop
  vertex -0.0098961927 0.00322984625 0.0756142512
  vertex -0.00989810564 0.00462159514 0.0672638491
  vertex -0.00990001671 0.00183809735 0.0783967003
  endloop
 endfacet

 facet normal -0.999840915 0.0164666437 0.00686223991
  outer loop
  vertex -0.0098961927 0.00322984625 0.0756142512
  vertex -0.00990001671 0.00183809735 0.0783967003
  vertex -0.00989045762 0.00183809735 0.0797894523
  endloop
 endfacet

 facet normal -0.999522328 0.0288824104 0.0110004358
  outer loop
  vertex -0.0098961927 0.00322984625 0.0756142512
  vertex -0.00989045762 0.00183809735 0.0797894523
  vertex -0.00988089852 0.00322984625 0.0770039558
  endloop
 endfacet

 facet normal -0.999950111 -0.00960763916 -0.00274564279
  outer loop
  vertex -0.00989810564 0.00462159514 0.0672638491
  vertex -0.00989428163 0.00462159514 0.0658710971
  vertex -0.00989810564 0.00183809735 0.0770039558
  endloop
 endfacet

 facet normal -0.999987483 -0.00480269594 -0.00137250021
  outer loop
  vertex -0.00989810564 0.00462159514 0.0672638491
  vertex -0.00989810564 0.00183809735 0.0770039558
  vertex -0.00990001671 0.00183809735 0.0783967003
  endloop
 endfacet

 facet normal -0.999868512 -0.0156534929 -0.00425723242
  outer loop
  vertex -0.00989428163 0.00462159514 0.0658710971
  vertex -0.00988472253 0.000983251608 0.0770039558
  vertex -0.00989810564 0.00183809735 0.0770039558
  endloop
 endfacet

 facet normal -0.638900459 -0.756942809 -0.137272388
  outer loop
  vertex -0.00971074495 0.0048441547 0.0525700636
  vertex -0.00889056642 0.00415187981 0.0525700636
  vertex -0.0095233852 0.00392332114 0.0567756705
  endloop
 endfacet

 facet normal -0.854537845 -0.511551559 -0.0898899883
  outer loop
  vertex -0.00971074495 0.0048441547 0.0525700636
  vertex -0.00974133424 0.000983251608 0.07483273
  vertex -0.00982354395 0.000983251608 0.0756142512
  endloop
 endfacet

 facet normal -0.953220367 -0.297326028 -0.0544809252
  outer loop
  vertex -0.00971074495 0.0048441547 0.0525700636
  vertex -0.00982354395 0.000983251608 0.0756142512
  vertex -0.00985413324 0.000983251608 0.0761494562
  endloop
 endfacet

 facet normal -0.983317494 -0.178459451 -0.0352006629
  outer loop
  vertex -0.00971074495 0.0048441547 0.0525700636
  vertex -0.00985413324 0.000983251608 0.0761494562
  vertex -0.00988472253 0.000983251608 0.0770039558
  endloop
 endfacet

 facet normal -0.999840081 -0.0178888515 0
  outer loop
  vertex -0.00988472253 0.000983251608 0.0770039558
  vertex -0.00988472253 0.000983251608 0.0775422007
  vertex -0.00990001671 0.00183809735 0.0783967003
  endloop
 endfacet

 facet normal -0.999876499 -0.0156536158 -0.00137234794
  outer loop
  vertex -0.00988472253 0.000983251608 0.0770039558
  vertex -0.00990001671 0.00183809735 0.0783967003
  vertex -0.00989810564 0.00183809735 0.0770039558
  endloop
 endfacet

 facet normal -0.999670267 -0.0247441493 0.00686106971
  outer loop
  vertex -0.00989045762 0.00183809735 0.0797894523
  vertex -0.00990001671 0.00183809735 0.0783967003
  vertex -0.00988472253 0.000983251608 0.0775422007
  endloop
 endfacet

 facet normal -0.983774781 -0.168505758 0.0615879409
  outer loop
  vertex -0.00989045762 0.00183809735 0.0797894523
  vertex -0.00988472253 0.000983251608 0.0775422007
  vertex -0.00979486573 0.000983251608 0.0789775178
  endloop
 endfacet

 facet normal -0.980906367 -0.179889053 0.0739105567
  outer loop
  vertex -0.00989045762 0.00183809735 0.0797894523
  vertex -0.00979486573 0.000983251608 0.0789775178
  vertex -0.00973368715 0.000983251608 0.0797894523
  endloop
 endfacet

endsolid AssimpScene
