solid AssimpScene
 facet normal 0 1 0
  outer loop
  vertex -0.150764748 0.0294097252 0.0059799999
  vertex -0.150764748 0.0294097252 -0.00704000005
  vertex -0.154200539 0.0294097252 -0.00704000005
  endloop
 endfacet

 facet normal 0 1 0
  outer loop
  vertex -0.150764748 0.0294097252 0.0059799999
  vertex -0.154200539 0.0294097252 -0.00704000005
  vertex -0.155366078 0.0294097252 -0.00403989432
  endloop
 endfacet

 facet normal 0 1 0
  outer loop
  vertex -0.150764748 0.0294097252 0.0059799999
  vertex -0.155366078 0.0294097252 -0.00403989432
  vertex -0.155366078 0.0294097252 0.0059799999
  endloop
 endfacet

 facet normal 0 0 1
  outer loop
  vertex -0.150764748 0.0294097252 0.0059799999
  vertex -0.155366078 0.0294097252 0.0059799999
  vertex -0.155366525 0.0254111309 0.0059799999
  endloop
 endfacet

 facet normal 0 0 1
  outer loop
  vertex -0.150764748 0.0294097252 0.0059799999
  vertex -0.155366525 0.0254111309 0.0059799999
  vertex -0.155366525 0.0200930033 0.0059799999
  endloop
 endfacet

 facet normal 0 0 1
  outer loop
  vertex -0.150764748 0.0294097252 0.0059799999
  vertex -0.155366525 0.0200930033 0.0059799999
  vertex -0.155364275 -0.015978748 0.0059799999
  endloop
 endfacet

 facet normal 0 0 1
  outer loop
  vertex -0.150764748 0.0294097252 0.0059799999
  vertex -0.155364275 -0.015978748 0.0059799999
  vertex -0.150764748 -0.015978748 0.0059799999
  endloop
 endfacet

 facet normal 0 0 1
  outer loop
  vertex -0.150764748 0.0294097252 0.0059799999
  vertex -0.150764748 -0.015978748 0.0059799999
  vertex -0.150764301 -0.0146281123 0.0059799999
  endloop
 endfacet

 facet normal 1 1.02161157e-05 0
  outer loop
  vertex -0.150764748 0.0294097252 0.0059799999
  vertex -0.150764301 -0.0146281123 0.0059799999
  vertex -0.150764301 -0.0146281123 -0.00211671693
  endloop
 endfacet

 facet normal 1 1.02161157e-05 0
  outer loop
  vertex -0.150764748 0.0294097252 0.0059799999
  vertex -0.150764301 -0.0146281123 -0.00211671693
  vertex -0.150764748 0.0294097252 -0.00704000005
  endloop
 endfacet

 facet normal 1 0 -9.13812182e-05
  outer loop
  vertex -0.150764748 0.0294097252 -0.00704000005
  vertex -0.150764301 -0.0146281123 -0.00211671693
  vertex -0.150764301 -0.015978748 -0.00211671693
  endloop
 endfacet

 facet normal 1 0 -9.13812182e-05
  outer loop
  vertex -0.150764748 0.0294097252 -0.00704000005
  vertex -0.150764301 -0.015978748 -0.00211671693
  vertex -0.150764748 -0.0146236708 -0.00704000005
  endloop
 endfacet

 facet normal 0 0 -1
  outer loop
  vertex -0.150764748 0.0294097252 -0.00704000005
  vertex -0.150764748 -0.0146236708 -0.00704000005
  vertex -0.155366078 -0.0146236708 -0.00704000005
  endloop
 endfacet

 facet normal 0 0 -1
  outer loop
  vertex -0.150764748 0.0294097252 -0.00704000005
  vertex -0.155366078 -0.0146236708 -0.00704000005
  vertex -0.155366525 0.00421414571 -0.00704000005
  endloop
 endfacet

 facet normal 0 0 -1
  outer loop
  vertex -0.150764748 0.0294097252 -0.00704000005
  vertex -0.155366525 0.00421414571 -0.00704000005
  vertex -0.155366525 0.0241626818 -0.00704000005
  endloop
 endfacet

 facet normal 0 0 -1
  outer loop
  vertex -0.150764748 0.0294097252 -0.00704000005
  vertex -0.155366525 0.0241626818 -0.00704000005
  vertex -0.154200539 0.0294097252 -0.00704000005
  endloop
 endfacet

 facet normal -1 0.00011251348 0
  outer loop
  vertex -0.155366078 0.0294097252 0.0059799999
  vertex -0.155366078 0.0294097252 -0.00403989432
  vertex -0.155366525 0.0254111309 -0.00403989432
  endloop
 endfacet

 facet normal -1 0.00011251348 0
  outer loop
  vertex -0.155366078 0.0294097252 0.0059799999
  vertex -0.155366525 0.0254111309 -0.00403989432
  vertex -0.155366525 0.0254111309 0.0059799999
  endloop
 endfacet

 facet normal 0.999027848 -0.000332775147 0.0440840535
  outer loop
  vertex -0.150764301 -0.0146281123 0.0059799999
  vertex -0.150764748 -0.015978748 0.0059799999
  vertex -0.150764301 -0.015978748 0.00596980425
  endloop
 endfacet

 facet normal 1 0 0
  outer loop
  vertex -0.150764301 -0.0146281123 0.0059799999
  vertex -0.150764301 -0.015978748 0.00596980425
  vertex -0.150764301 -0.015978748 -0.00211671693
  endloop
 endfacet

 facet normal 1 0 0
  outer loop
  vertex -0.150764301 -0.0146281123 0.0059799999
  vertex -0.150764301 -0.015978748 -0.00211671693
  vertex -0.150764301 -0.0146281123 -0.00211671693
  endloop
 endfacet

 facet normal -0.912752151 0.202829987 -0.354603142
  outer loop
  vertex -0.154200539 0.0294097252 -0.00704000005
  vertex -0.155366525 0.0241626818 -0.00704000005
  vertex -0.155366078 0.0294097252 -0.00403989432
  endloop
 endfacet

 facet normal 0 -0.964146554 -0.265370488
  outer loop
  vertex -0.150764748 -0.0146236708 -0.00704000005
  vertex -0.150764301 -0.015978748 -0.00211671693
  vertex -0.155364275 -0.015978748 -0.00211671693
  endloop
 endfacet

 facet normal 0 -0.964146554 -0.265370488
  outer loop
  vertex -0.150764748 -0.0146236708 -0.00704000005
  vertex -0.155364275 -0.015978748 -0.00211671693
  vertex -0.155366078 -0.0146236708 -0.00704000005
  endloop
 endfacet

 facet normal -1 0.00011251348 -4.68208091e-05
  outer loop
  vertex -0.155366078 0.0294097252 -0.00403989432
  vertex -0.155366525 0.0241626818 -0.00704000005
  vertex -0.155366525 0.0254111309 -0.00403989432
  endloop
 endfacet

 facet normal -1 0 0
  outer loop
  vertex -0.155366525 0.0254111309 0.0059799999
  vertex -0.155366525 0.0254111309 -0.00403989432
  vertex -0.155366525 0.0241626818 -0.00704000005
  endloop
 endfacet

 facet normal -1 0 0
  outer loop
  vertex -0.155366525 0.0254111309 0.0059799999
  vertex -0.155366525 0.0241626818 -0.00704000005
  vertex -0.155366525 0.00421414571 -0.00704000005
  endloop
 endfacet

 facet normal -1 0 0
  outer loop
  vertex -0.155366525 0.0254111309 0.0059799999
  vertex -0.155366525 0.00421414571 -0.00704000005
  vertex -0.155366525 0.00421414571 -0.00535642356
  endloop
 endfacet

 facet normal -1 0 0
  outer loop
  vertex -0.155366525 0.0254111309 0.0059799999
  vertex -0.155366525 0.00421414571 -0.00535642356
  vertex -0.155366525 0.0200930033 0.0059799999
  endloop
 endfacet

 facet normal 0 -1 0
  outer loop
  vertex -0.150764748 -0.015978748 0.0059799999
  vertex -0.155364275 -0.015978748 0.0059799999
  vertex -0.155364275 -0.015978748 -0.00211671693
  endloop
 endfacet

 facet normal 0 -1 0
  outer loop
  vertex -0.150764748 -0.015978748 0.0059799999
  vertex -0.155364275 -0.015978748 -0.00211671693
  vertex -0.150764301 -0.015978748 -0.00211671693
  endloop
 endfacet

 facet normal 0 -1 0
  outer loop
  vertex -0.150764748 -0.015978748 0.0059799999
  vertex -0.150764301 -0.015978748 -0.00211671693
  vertex -0.150764301 -0.015978748 0.00596980425
  endloop
 endfacet

 facet normal -1 -2.38825778e-05 0
  outer loop
  vertex -0.155366078 -0.0146236708 -0.00704000005
  vertex -0.155366078 -0.0146236708 -0.00211926596
  vertex -0.155366525 0.00421414571 -0.00535642356
  endloop
 endfacet

 facet normal -1 -2.38825778e-05 0
  outer loop
  vertex -0.155366078 -0.0146236708 -0.00704000005
  vertex -0.155366525 0.00421414571 -0.00535642356
  vertex -0.155366525 0.00421414571 -0.00704000005
  endloop
 endfacet

 facet normal -0.999999046 -0.00133074855 0
  outer loop
  vertex -0.155366078 -0.0146236708 -0.00704000005
  vertex -0.155364275 -0.015978748 -0.00211671693
  vertex -0.155364275 -0.015978748 0.0059799999
  endloop
 endfacet

 facet normal -0.999999046 -0.00133074855 0
  outer loop
  vertex -0.155366078 -0.0146236708 -0.00704000005
  vertex -0.155364275 -0.015978748 0.0059799999
  vertex -0.155366078 -0.0146236708 -0.00211926596
  endloop
 endfacet

 facet normal -1 -1.92492735e-05 2.69623379e-05
  outer loop
  vertex -0.155366525 0.0200930033 0.0059799999
  vertex -0.155366525 0.00421414571 -0.00535642356
  vertex -0.155366078 -0.0146236708 -0.00211926596
  endloop
 endfacet

 facet normal -1 -6.24634413e-05 0.000212195431
  outer loop
  vertex -0.155366525 0.0200930033 0.0059799999
  vertex -0.155366078 -0.0146236708 -0.00211926596
  vertex -0.155364275 -0.015978748 0.0059799999
  endloop
 endfacet

endsolid AssimpScene
