solid AssimpScene
 facet normal -0.998780251 0.0493763648 0
  outer loop
  vertex -0.115680076 -0.0134046748 -0.00302872178
  vertex -0.115680076 -0.0134046748 0.0019591758
  vertex -0.115652084 -0.0128384335 0.0019591758
  endloop
 endfacet

 facet normal -0.998780251 0.0493763648 0
  outer loop
  vertex -0.115680076 -0.0134046748 -0.00302872178
  vertex -0.115652084 -0.0128384335 0.0019591758
  vertex -0.115652084 -0.0128384335 -0.00302872178
  endloop
 endfacet

 facet normal -0.00135431404 6.69527653e-05 -0.999999046
  outer loop
  vertex -0.115680076 -0.0134046748 -0.00302872178
  vertex -0.115652084 -0.0128384335 -0.00302872178
  vertex -0.115149491 -0.0159597564 -0.00302961143
  endloop
 endfacet

 facet normal -0.00223232433 -0.000115374314 -0.999997556
  outer loop
  vertex -0.115680076 -0.0134046748 -0.00302872178
  vertex -0.115149491 -0.0159597564 -0.00302961143
  vertex -0.11565081 -0.0139709162 -0.00302872178
  endloop
 endfacet

 facet normal -0.998667121 -0.0516146049 0
  outer loop
  vertex -0.115680076 -0.0134046748 -0.00302872178
  vertex -0.11565081 -0.0139709162 -0.00302872178
  vertex -0.11565081 -0.0139709162 0.0019591758
  endloop
 endfacet

 facet normal -0.998667121 -0.0516146049 0
  outer loop
  vertex -0.115680076 -0.0134046748 -0.00302872178
  vertex -0.11565081 -0.0139709162 0.0019591758
  vertex -0.115680076 -0.0134046748 0.0019591758
  endloop
 endfacet

 facet normal -0.938187301 -0.0484887958 0.342714787
  outer loop
  vertex -0.115680076 -0.0134046748 0.0019591758
  vertex -0.11565081 -0.0139709162 0.0019591758
  vertex -0.114159577 -0.013839853 0.00606000004
  endloop
 endfacet

 facet normal -0.9382447 -0.0412690863 0.343502223
  outer loop
  vertex -0.115680076 -0.0134046748 0.0019591758
  vertex -0.114159577 -0.013839853 0.00606000004
  vertex -0.114178658 -0.013405947 0.00606000004
  endloop
 endfacet

 facet normal -0.938025713 0.0463728607 0.343449205
  outer loop
  vertex -0.115680076 -0.0134046748 0.0019591758
  vertex -0.114178658 -0.013405947 0.00606000004
  vertex -0.115652084 -0.0128384335 0.0019591758
  endloop
 endfacet

 facet normal -0.991501093 0.130098581 0
  outer loop
  vertex -0.115652084 -0.0128384335 -0.00302872178
  vertex -0.115652084 -0.0128384335 0.0019591758
  vertex -0.115578286 -0.0122760106 0.0019591758
  endloop
 endfacet

 facet normal -0.991501093 0.130098581 0
  outer loop
  vertex -0.115652084 -0.0128384335 -0.00302872178
  vertex -0.115578286 -0.0122760106 0.0019591758
  vertex -0.115578286 -0.0122760106 -0.00302872178
  endloop
 endfacet

 facet normal -0.000975329429 0.000127976629 -0.999999523
  outer loop
  vertex -0.115652084 -0.0128384335 -0.00302872178
  vertex -0.115578286 -0.0122760106 -0.00302872178
  vertex -0.115149491 -0.0159597564 -0.00302961143
  endloop
 endfacet

 facet normal -0.922904193 -0.385029763 0
  outer loop
  vertex -0.115149491 -0.0159597564 -0.00302961143
  vertex -0.11506933 -0.0161518976 -0.00302961143
  vertex -0.11506933 -0.0161518976 0.0019591758
  endloop
 endfacet

 facet normal -0.922904193 -0.385029763 0
  outer loop
  vertex -0.115149491 -0.0159597564 -0.00302961143
  vertex -0.11506933 -0.0161518976 0.0019591758
  vertex -0.115149491 -0.0159597564 0.0019591758
  endloop
 endfacet

 facet normal -0.92823869 -0.371985435 0
  outer loop
  vertex -0.115149491 -0.0159597564 -0.00302961143
  vertex -0.115149491 -0.0159597564 0.0019591758
  vertex -0.115283087 -0.0156263746 0.0019591758
  endloop
 endfacet

 facet normal -0.92823869 -0.371985435 0
  outer loop
  vertex -0.115149491 -0.0159597564 -0.00302961143
  vertex -0.115283087 -0.0156263746 0.0019591758
  vertex -0.115283087 -0.0156263746 -0.00302872178
  endloop
 endfacet

 facet normal -0.0323811248 -0.0103094978 -0.999422491
  outer loop
  vertex -0.115149491 -0.0159597564 -0.00302961143
  vertex -0.115283087 -0.0156263746 -0.00302872178
  vertex -0.11545486 -0.0150868548 -0.00302872178
  endloop
 endfacet

 facet normal -0.00800151192 -0.00178006839 -0.999966383
  outer loop
  vertex -0.115149491 -0.0159597564 -0.00302961143
  vertex -0.11545486 -0.0150868548 -0.00302872178
  vertex -0.115578286 -0.0145320669 -0.00302872178
  endloop
 endfacet

 facet normal -0.00364198792 -0.000470705214 -0.999993265
  outer loop
  vertex -0.115149491 -0.0159597564 -0.00302961143
  vertex -0.115578286 -0.0145320669 -0.00302872178
  vertex -0.11565081 -0.0139709162 -0.00302872178
  endloop
 endfacet

 facet normal -0.000711613218 0.000158673705 -0.999999702
  outer loop
  vertex -0.115149491 -0.0159597564 -0.00302961143
  vertex -0.115578286 -0.0122760106 -0.00302872178
  vertex -0.11545486 -0.0117224939 -0.00302872178
  endloop
 endfacet

 facet normal -0.000536702049 0.000171279346 -0.999999881
  outer loop
  vertex -0.115149491 -0.0159597564 -0.00302961143
  vertex -0.11545486 -0.0117224939 -0.00302872178
  vertex -0.115283087 -0.0111842463 -0.00302872178
  endloop
 endfacet

 facet normal -0.000425185659 0.000174399174 -0.99999994
  outer loop
  vertex -0.115149491 -0.0159597564 -0.00302961143
  vertex -0.115283087 -0.0111842463 -0.00302872178
  vertex -0.115068056 -0.0106599964 -0.00302872178
  endloop
 endfacet

 facet normal -0.000331668271 0.000172962245 -0.99999994
  outer loop
  vertex -0.115149491 -0.0159597564 -0.00302961143
  vertex -0.115068056 -0.0106599964 -0.00302872178
  vertex -0.114805944 -0.0101573784 -0.00302872178
  endloop
 endfacet

 facet normal -0.000266005751 0.000169074541 -0.99999994
  outer loop
  vertex -0.115149491 -0.0159597564 -0.00302961143
  vertex -0.114805944 -0.0101573784 -0.00302872178
  vertex -0.114501849 -0.00967893656 -0.00302872178
  endloop
 endfacet

 facet normal -0.000211342092 0.000163437944 -0.99999994
  outer loop
  vertex -0.115149491 -0.0159597564 -0.00302961143
  vertex -0.114501849 -0.00967893656 -0.00302872178
  vertex -0.114154488 -0.00922976155 -0.00302872178
  endloop
 endfacet

 facet normal -0.000172349231 0.000157672956 -0.99999994
  outer loop
  vertex -0.115149491 -0.0159597564 -0.00302961143
  vertex -0.114154488 -0.00922976155 -0.00302872178
  vertex -0.113771498 -0.0088111246 -0.00302872178
  endloop
 endfacet

 facet normal -0.000139275071 0.000151297485 -1
  outer loop
  vertex -0.115149491 -0.0159597564 -0.00302961143
  vertex -0.113771498 -0.0088111246 -0.00302872178
  vertex -0.113355428 -0.00842811726 -0.00302872178
  endloop
 endfacet

 facet normal -0.00011060101 0.000144467253 -1
  outer loop
  vertex -0.115149491 -0.0159597564 -0.00302961143
  vertex -0.113355428 -0.00842811726 -0.00302872178
  vertex -0.112905003 -0.00808328204 -0.00302872178
  endloop
 endfacet

 facet normal -8.73976387e-05 0.000137855182 -1
  outer loop
  vertex -0.115149491 -0.0159597564 -0.00302961143
  vertex -0.112905003 -0.00808328204 -0.00302872178
  vertex -0.112425312 -0.0077791675 -0.00302872178
  endloop
 endfacet

 facet normal -6.86400454e-05 0.000131608831 -1
  outer loop
  vertex -0.115149491 -0.0159597564 -0.00302961143
  vertex -0.112425312 -0.0077791675 -0.00302872178
  vertex -0.111922719 -0.00751704257 -0.00302872178
  endloop
 endfacet

 facet normal -5.17730296e-05 0.000125162303 -1
  outer loop
  vertex -0.115149491 -0.0159597564 -0.00302961143
  vertex -0.111922719 -0.00751704257 -0.00302872178
  vertex -0.11139977 -0.00730072567 -0.00302872178
  endloop
 endfacet

 facet normal -3.79470657e-05 0.000119175093 -1
  outer loop
  vertex -0.115149491 -0.0159597564 -0.00302961143
  vertex -0.11139977 -0.00730072567 -0.00302872178
  vertex -0.110860281 -0.00712894369 -0.00302872178
  endloop
 endfacet

 facet normal -2.48398483e-05 0.000112808797 -1
  outer loop
  vertex -0.115149491 -0.0159597564 -0.00302961143
  vertex -0.110860281 -0.00712894369 -0.00302872178
  vertex -0.110305518 -0.00700678863 -0.00302872178
  endloop
 endfacet

 facet normal -1.40710017e-05 0.000106982348 -1
  outer loop
  vertex -0.115149491 -0.0159597564 -0.00302961143
  vertex -0.110305518 -0.00700678863 -0.00302872178
  vertex -0.1097444 -0.00693298643 -0.00302872178
  endloop
 endfacet

 facet normal -4.8087868e-06 0.000101436279 -1
  outer loop
  vertex -0.115149491 -0.0159597564 -0.00302961143
  vertex -0.1097444 -0.00693298643 -0.00302872178
  vertex -0.109180734 -0.00690626493 -0.00302872178
  endloop
 endfacet

 facet normal 0 9.82659622e-05 -1
  outer loop
  vertex -0.115149491 -0.0159597564 -0.00302961143
  vertex -0.109180734 -0.00690626493 -0.00302872178
  vertex -0.103210695 -0.0159597564 -0.00302961143
  endloop
 endfacet

 facet normal 0 0 -1
  outer loop
  vertex -0.115149491 -0.0159597564 -0.00302961143
  vertex -0.103210695 -0.0159597564 -0.00302961143
  vertex -0.103290856 -0.0161518976 -0.00302961143
  endloop
 endfacet

 facet normal 0 0 -1
  outer loop
  vertex -0.115149491 -0.0159597564 -0.00302961143
  vertex -0.103290856 -0.0161518976 -0.00302961143
  vertex -0.103552967 -0.0166545156 -0.00302961143
  endloop
 endfacet

 facet normal 0 0 -1
  outer loop
  vertex -0.115149491 -0.0159597564 -0.00302961143
  vertex -0.103552967 -0.0166545156 -0.00302961143
  vertex -0.10385707 -0.0171329584 -0.00302961143
  endloop
 endfacet

 facet normal 0 0 -1
  outer loop
  vertex -0.115149491 -0.0159597564 -0.00302961143
  vertex -0.10385707 -0.0171329584 -0.00302961143
  vertex -0.104201891 -0.0175834056 -0.00302961143
  endloop
 endfacet

 facet normal 0 0 -1
  outer loop
  vertex -0.115149491 -0.0159597564 -0.00302961143
  vertex -0.104201891 -0.0175834056 -0.00302961143
  vertex -0.104584873 -0.0180007704 -0.00302961143
  endloop
 endfacet

 facet normal 0 0 -1
  outer loop
  vertex -0.115149491 -0.0159597564 -0.00302961143
  vertex -0.104584873 -0.0180007704 -0.00302961143
  vertex -0.105003491 -0.0183837768 -0.00302961143
  endloop
 endfacet

 facet normal 0 0 -1
  outer loop
  vertex -0.115149491 -0.0159597564 -0.00302961143
  vertex -0.105003491 -0.0183837768 -0.00302961143
  vertex -0.105452642 -0.018728612 -0.00302961143
  endloop
 endfacet

 facet normal 0 0 -1
  outer loop
  vertex -0.115149491 -0.0159597564 -0.00302961143
  vertex -0.105452642 -0.018728612 -0.00302961143
  vertex -0.105931059 -0.0190340001 -0.00302961143
  endloop
 endfacet

 facet normal 0 0 -1
  outer loop
  vertex -0.115149491 -0.0159597564 -0.00302961143
  vertex -0.105931059 -0.0190340001 -0.00302961143
  vertex -0.106433652 -0.0192961246 -0.00302961143
  endloop
 endfacet

 facet normal 0 0 -1
  outer loop
  vertex -0.115149491 -0.0159597564 -0.00302961143
  vertex -0.106433652 -0.0192961246 -0.00302961143
  vertex -0.106959149 -0.0195124429 -0.00302961143
  endloop
 endfacet

 facet normal 0 0 -1
  outer loop
  vertex -0.115149491 -0.0159597564 -0.00302961143
  vertex -0.106959149 -0.0195124429 -0.00302961143
  vertex -0.107498638 -0.0196829494 -0.00302961143
  endloop
 endfacet

 facet normal 0 0 -1
  outer loop
  vertex -0.115149491 -0.0159597564 -0.00302961143
  vertex -0.107498638 -0.0196829494 -0.00302961143
  vertex -0.108052127 -0.0198063776 -0.00302961143
  endloop
 endfacet

 facet normal 0 0 -1
  outer loop
  vertex -0.115149491 -0.0159597564 -0.00302961143
  vertex -0.108052127 -0.0198063776 -0.00302961143
  vertex -0.108614519 -0.0198801812 -0.00302961143
  endloop
 endfacet

 facet normal 0 0 -1
  outer loop
  vertex -0.115149491 -0.0159597564 -0.00302961143
  vertex -0.108614519 -0.0198801812 -0.00302961143
  vertex -0.109180734 -0.0199056286 -0.00302961143
  endloop
 endfacet

 facet normal 0 0 -1
  outer loop
  vertex -0.115149491 -0.0159597564 -0.00302961143
  vertex -0.109180734 -0.0199056286 -0.00302961143
  vertex -0.109745674 -0.0198801812 -0.00302961143
  endloop
 endfacet

 facet normal 0 0 -1
  outer loop
  vertex -0.115149491 -0.0159597564 -0.00302961143
  vertex -0.109745674 -0.0198801812 -0.00302961143
  vertex -0.110306792 -0.0198063776 -0.00302961143
  endloop
 endfacet

 facet normal 0 0 -1
  outer loop
  vertex -0.115149491 -0.0159597564 -0.00302961143
  vertex -0.110306792 -0.0198063776 -0.00302961143
  vertex -0.110861555 -0.0196829494 -0.00302961143
  endloop
 endfacet

 facet normal 0 0 -1
  outer loop
  vertex -0.115149491 -0.0159597564 -0.00302961143
  vertex -0.110861555 -0.0196829494 -0.00302961143
  vertex -0.111401044 -0.0195124429 -0.00302961143
  endloop
 endfacet

 facet normal 0 0 -1
  outer loop
  vertex -0.115149491 -0.0159597564 -0.00302961143
  vertex -0.111401044 -0.0195124429 -0.00302961143
  vertex -0.111926541 -0.0192961246 -0.00302961143
  endloop
 endfacet

 facet normal 0 0 -1
  outer loop
  vertex -0.115149491 -0.0159597564 -0.00302961143
  vertex -0.111926541 -0.0192961246 -0.00302961143
  vertex -0.112429127 -0.0190340001 -0.00302961143
  endloop
 endfacet

 facet normal 0 0 -1
  outer loop
  vertex -0.115149491 -0.0159597564 -0.00302961143
  vertex -0.112429127 -0.0190340001 -0.00302961143
  vertex -0.112907544 -0.018728612 -0.00302961143
  endloop
 endfacet

 facet normal 0 0 -1
  outer loop
  vertex -0.115149491 -0.0159597564 -0.00302961143
  vertex -0.112907544 -0.018728612 -0.00302961143
  vertex -0.113356702 -0.0183837768 -0.00302961143
  endloop
 endfacet

 facet normal 0 0 -1
  outer loop
  vertex -0.115149491 -0.0159597564 -0.00302961143
  vertex -0.113356702 -0.0183837768 -0.00302961143
  vertex -0.113775313 -0.0180007704 -0.00302961143
  endloop
 endfacet

 facet normal 0 0 -1
  outer loop
  vertex -0.115149491 -0.0159597564 -0.00302961143
  vertex -0.113775313 -0.0180007704 -0.00302961143
  vertex -0.114157028 -0.0175834056 -0.00302961143
  endloop
 endfacet

 facet normal 0 0 -1
  outer loop
  vertex -0.115149491 -0.0159597564 -0.00302961143
  vertex -0.114157028 -0.0175834056 -0.00302961143
  vertex -0.114503115 -0.0171329584 -0.00302961143
  endloop
 endfacet

 facet normal 0 0 -1
  outer loop
  vertex -0.115149491 -0.0159597564 -0.00302961143
  vertex -0.114503115 -0.0171329584 -0.00302961143
  vertex -0.114807218 -0.0166545156 -0.00302961143
  endloop
 endfacet

 facet normal 0 0 -1
  outer loop
  vertex -0.115149491 -0.0159597564 -0.00302961143
  vertex -0.114807218 -0.0166545156 -0.00302961143
  vertex -0.11506933 -0.0161518976 -0.00302961143
  endloop
 endfacet

 facet normal -0.991751194 -0.128177926 0
  outer loop
  vertex -0.11565081 -0.0139709162 -0.00302872178
  vertex -0.115578286 -0.0145320669 -0.00302872178
  vertex -0.115578286 -0.0145320669 0.0019591758
  endloop
 endfacet

 facet normal -0.991751194 -0.128177926 0
  outer loop
  vertex -0.11565081 -0.0139709162 -0.00302872178
  vertex -0.115578286 -0.0145320669 0.0019591758
  vertex -0.11565081 -0.0139709162 0.0019591758
  endloop
 endfacet

 facet normal -0.93171066 -0.120418057 0.34265849
  outer loop
  vertex -0.11565081 -0.0139709162 0.0019591758
  vertex -0.115578286 -0.0145320669 0.0019591758
  vertex -0.114159577 -0.013839853 0.00606000004
  endloop
 endfacet

 facet normal -0.931226909 -0.123244554 0.342968225
  outer loop
  vertex -0.114159577 -0.013839853 0.00606000004
  vertex -0.115578286 -0.0145320669 0.0019591758
  vertex -0.114102319 -0.0142724868 0.00606000004
  endloop
 endfacet

 facet normal 0 0 1
  outer loop
  vertex -0.114159577 -0.013839853 0.00606000004
  vertex -0.114102319 -0.0142724868 0.00606000004
  vertex -0.114008158 -0.0146974847 0.00606000004
  endloop
 endfacet

 facet normal 0 0 1
  outer loop
  vertex -0.114159577 -0.013839853 0.00606000004
  vertex -0.114008158 -0.0146974847 0.00606000004
  vertex -0.113875836 -0.0151148494 0.00606000004
  endloop
 endfacet

 facet normal 0 0 1
  outer loop
  vertex -0.114159577 -0.013839853 0.00606000004
  vertex -0.113875836 -0.0151148494 0.00606000004
  vertex -0.113710426 -0.0155169442 0.00606000004
  endloop
 endfacet

 facet normal 0 0 1
  outer loop
  vertex -0.114159577 -0.013839853 0.00606000004
  vertex -0.113710426 -0.0155169442 0.00606000004
  vertex -0.113509387 -0.0159037691 0.00606000004
  endloop
 endfacet

 facet normal 0 0 1
  outer loop
  vertex -0.114159577 -0.013839853 0.00606000004
  vertex -0.113509387 -0.0159037691 0.00606000004
  vertex -0.113275267 -0.0162727796 0.00606000004
  endloop
 endfacet

 facet normal 0 0 1
  outer loop
  vertex -0.114159577 -0.013839853 0.00606000004
  vertex -0.113275267 -0.0162727796 0.00606000004
  vertex -0.113008067 -0.016618887 0.00606000004
  endloop
 endfacet

 facet normal 0 0 1
  outer loop
  vertex -0.114159577 -0.013839853 0.00606000004
  vertex -0.113008067 -0.016618887 0.00606000004
  vertex -0.112714142 -0.0169408172 0.00606000004
  endloop
 endfacet

 facet normal 0 0 1
  outer loop
  vertex -0.114159577 -0.013839853 0.00606000004
  vertex -0.112714142 -0.0169408172 0.00606000004
  vertex -0.112392232 -0.017236026 0.00606000004
  endloop
 endfacet

 facet normal 0 0 1
  outer loop
  vertex -0.114159577 -0.013839853 0.00606000004
  vertex -0.112392232 -0.017236026 0.00606000004
  vertex -0.112046145 -0.0175006967 0.00606000004
  endloop
 endfacet

 facet normal 0 0 1
  outer loop
  vertex -0.114159577 -0.013839853 0.00606000004
  vertex -0.112046145 -0.0175006967 0.00606000004
  vertex -0.111678421 -0.0177348275 0.00606000004
  endloop
 endfacet

 facet normal 0 0 1
  outer loop
  vertex -0.114159577 -0.013839853 0.00606000004
  vertex -0.111678421 -0.0177348275 0.00606000004
  vertex -0.111291617 -0.0179358739 0.00606000004
  endloop
 endfacet

 facet normal 0 0 1
  outer loop
  vertex -0.114159577 -0.013839853 0.00606000004
  vertex -0.111291617 -0.0179358739 0.00606000004
  vertex -0.110889547 -0.0181025658 0.00606000004
  endloop
 endfacet

 facet normal 0 0 1
  outer loop
  vertex -0.114159577 -0.013839853 0.00606000004
  vertex -0.110889547 -0.0181025658 0.00606000004
  vertex -0.110473476 -0.0182349011 0.00606000004
  endloop
 endfacet

 facet normal 0 0 1
  outer loop
  vertex -0.114159577 -0.013839853 0.00606000004
  vertex -0.110473476 -0.0182349011 0.00606000004
  vertex -0.110047229 -0.0183290616 0.00606000004
  endloop
 endfacet

 facet normal 0 0 1
  outer loop
  vertex -0.114159577 -0.013839853 0.00606000004
  vertex -0.110047229 -0.0183290616 0.00606000004
  vertex -0.109614611 -0.018386323 0.00606000004
  endloop
 endfacet

 facet normal 0 0 1
  outer loop
  vertex -0.114159577 -0.013839853 0.00606000004
  vertex -0.109614611 -0.018386323 0.00606000004
  vertex -0.109180734 -0.0184041355 0.00606000004
  endloop
 endfacet

 facet normal 0 0 1
  outer loop
  vertex -0.114159577 -0.013839853 0.00606000004
  vertex -0.109180734 -0.0184041355 0.00606000004
  vertex -0.108745575 -0.018386323 0.00606000004
  endloop
 endfacet

 facet normal 0 0 1
  outer loop
  vertex -0.114159577 -0.013839853 0.00606000004
  vertex -0.108745575 -0.018386323 0.00606000004
  vertex -0.108312964 -0.0183290616 0.00606000004
  endloop
 endfacet

 facet normal 0 0 1
  outer loop
  vertex -0.114159577 -0.013839853 0.00606000004
  vertex -0.108312964 -0.0183290616 0.00606000004
  vertex -0.107886717 -0.0182349011 0.00606000004
  endloop
 endfacet

 facet normal 0 0 1
  outer loop
  vertex -0.114159577 -0.013839853 0.00606000004
  vertex -0.107886717 -0.0182349011 0.00606000004
  vertex -0.107470647 -0.0181025658 0.00606000004
  endloop
 endfacet

 facet normal 0 0 1
  outer loop
  vertex -0.114159577 -0.013839853 0.00606000004
  vertex -0.107470647 -0.0181025658 0.00606000004
  vertex -0.107068568 -0.0179358739 0.00606000004
  endloop
 endfacet

 facet normal 0 0 1
  outer loop
  vertex -0.114159577 -0.013839853 0.00606000004
  vertex -0.107068568 -0.0179358739 0.00606000004
  vertex -0.106681764 -0.0177348275 0.00606000004
  endloop
 endfacet

 facet normal 0 0 1
  outer loop
  vertex -0.114159577 -0.013839853 0.00606000004
  vertex -0.106681764 -0.0177348275 0.00606000004
  vertex -0.106314048 -0.0175006967 0.00606000004
  endloop
 endfacet

 facet normal 0 0 1
  outer loop
  vertex -0.114159577 -0.013839853 0.00606000004
  vertex -0.106314048 -0.0175006967 0.00606000004
  vertex -0.105967961 -0.017236026 0.00606000004
  endloop
 endfacet

 facet normal 0 0 1
  outer loop
  vertex -0.114159577 -0.013839853 0.00606000004
  vertex -0.105967961 -0.017236026 0.00606000004
  vertex -0.105646044 -0.0169408172 0.00606000004
  endloop
 endfacet

 facet normal 0 0 1
  outer loop
  vertex -0.114159577 -0.013839853 0.00606000004
  vertex -0.105646044 -0.0169408172 0.00606000004
  vertex -0.105352126 -0.016618887 0.00606000004
  endloop
 endfacet

 facet normal 0 0 1
  outer loop
  vertex -0.114159577 -0.013839853 0.00606000004
  vertex -0.105352126 -0.016618887 0.00606000004
  vertex -0.105084918 -0.0162727796 0.00606000004
  endloop
 endfacet

 facet normal 0 0 1
  outer loop
  vertex -0.114159577 -0.013839853 0.00606000004
  vertex -0.105084918 -0.0162727796 0.00606000004
  vertex -0.104886428 -0.0159597564 0.00606000004
  endloop
 endfacet

 facet normal 0 0 1
  outer loop
  vertex -0.114159577 -0.013839853 0.00606000004
  vertex -0.104886428 -0.0159597564 0.00606000004
  vertex -0.104852073 -0.0159037691 0.00606000004
  endloop
 endfacet

 facet normal 0 0 1
  outer loop
  vertex -0.114159577 -0.013839853 0.00606000004
  vertex -0.104852073 -0.0159037691 0.00606000004
  vertex -0.104649767 -0.0155169442 0.00606000004
  endloop
 endfacet

 facet normal 0 0 1
  outer loop
  vertex -0.114159577 -0.013839853 0.00606000004
  vertex -0.104649767 -0.0155169442 0.00606000004
  vertex -0.104483083 -0.0151148494 0.00606000004
  endloop
 endfacet

 facet normal 0 0 1
  outer loop
  vertex -0.114159577 -0.013839853 0.00606000004
  vertex -0.104483083 -0.0151148494 0.00606000004
  vertex -0.104352027 -0.0146974847 0.00606000004
  endloop
 endfacet

 facet normal 0 0 1
  outer loop
  vertex -0.114159577 -0.013839853 0.00606000004
  vertex -0.104352027 -0.0146974847 0.00606000004
  vertex -0.104257874 -0.0142724868 0.00606000004
  endloop
 endfacet

 facet normal 0 0 1
  outer loop
  vertex -0.114159577 -0.013839853 0.00606000004
  vertex -0.104257874 -0.0142724868 0.00606000004
  vertex -0.104203157 -0.013839853 0.00606000004
  endloop
 endfacet

 facet normal 0 0 1
  outer loop
  vertex -0.114159577 -0.013839853 0.00606000004
  vertex -0.104203157 -0.013839853 0.00606000004
  vertex -0.104180254 -0.013405947 0.00606000004
  endloop
 endfacet

 facet normal 0 0 1
  outer loop
  vertex -0.114159577 -0.013839853 0.00606000004
  vertex -0.104180254 -0.013405947 0.00606000004
  vertex -0.104203157 -0.0129694957 0.00606000004
  endloop
 endfacet

 facet normal 0 0 1
  outer loop
  vertex -0.114159577 -0.013839853 0.00606000004
  vertex -0.104203157 -0.0129694957 0.00606000004
  vertex -0.104257874 -0.0125368629 0.00606000004
  endloop
 endfacet

 facet normal 0 0 1
  outer loop
  vertex -0.114159577 -0.013839853 0.00606000004
  vertex -0.104257874 -0.0125368629 0.00606000004
  vertex -0.104353301 -0.0121118641 0.00606000004
  endloop
 endfacet

 facet normal 0 0 1
  outer loop
  vertex -0.114159577 -0.013839853 0.00606000004
  vertex -0.104353301 -0.0121118641 0.00606000004
  vertex -0.104484357 -0.0116957724 0.00606000004
  endloop
 endfacet

 facet normal 0 0 1
  outer loop
  vertex -0.114159577 -0.013839853 0.00606000004
  vertex -0.104484357 -0.0116957724 0.00606000004
  vertex -0.104651041 -0.0112936776 0.00606000004
  endloop
 endfacet

 facet normal 0 0 1
  outer loop
  vertex -0.114159577 -0.013839853 0.00606000004
  vertex -0.104651041 -0.0112936776 0.00606000004
  vertex -0.104852073 -0.0109068528 0.00606000004
  endloop
 endfacet

 facet normal 0 0 1
  outer loop
  vertex -0.114159577 -0.013839853 0.00606000004
  vertex -0.104852073 -0.0109068528 0.00606000004
  vertex -0.105086192 -0.0105391135 0.00606000004
  endloop
 endfacet

 facet normal 0 0 1
  outer loop
  vertex -0.114159577 -0.013839853 0.00606000004
  vertex -0.105086192 -0.0105391135 0.00606000004
  vertex -0.105352126 -0.0101942802 0.00606000004
  endloop
 endfacet

 facet normal 0 0 1
  outer loop
  vertex -0.114159577 -0.013839853 0.00606000004
  vertex -0.105352126 -0.0101942802 0.00606000004
  vertex -0.105648592 -0.00987234898 0.00606000004
  endloop
 endfacet

 facet normal 0 0 1
  outer loop
  vertex -0.114159577 -0.013839853 0.00606000004
  vertex -0.105648592 -0.00987234898 0.00606000004
  vertex -0.105969228 -0.00957714021 0.00606000004
  endloop
 endfacet

 facet normal 0 0 1
  outer loop
  vertex -0.114159577 -0.013839853 0.00606000004
  vertex -0.105969228 -0.00957714021 0.00606000004
  vertex -0.106314048 -0.00931119826 0.00606000004
  endloop
 endfacet

 facet normal 0 0 1
  outer loop
  vertex -0.114159577 -0.013839853 0.00606000004
  vertex -0.106314048 -0.00931119826 0.00606000004
  vertex -0.106681764 -0.00907706749 0.00606000004
  endloop
 endfacet

 facet normal 0 0 1
  outer loop
  vertex -0.114159577 -0.013839853 0.00606000004
  vertex -0.106681764 -0.00907706749 0.00606000004
  vertex -0.107069843 -0.00887602009 0.00606000004
  endloop
 endfacet

 facet normal 0 0 1
  outer loop
  vertex -0.114159577 -0.013839853 0.00606000004
  vertex -0.107069843 -0.00887602009 0.00606000004
  vertex -0.107471913 -0.00870805606 0.00606000004
  endloop
 endfacet

 facet normal 0 0 1
  outer loop
  vertex -0.114159577 -0.013839853 0.00606000004
  vertex -0.107471913 -0.00870805606 0.00606000004
  vertex -0.107887983 -0.00857826695 0.00606000004
  endloop
 endfacet

 facet normal 0 0 1
  outer loop
  vertex -0.114159577 -0.013839853 0.00606000004
  vertex -0.107887983 -0.00857826695 0.00606000004
  vertex -0.108312964 -0.00848410465 0.00606000004
  endloop
 endfacet

 facet normal 0 0 1
  outer loop
  vertex -0.114159577 -0.013839853 0.00606000004
  vertex -0.108312964 -0.00848410465 0.00606000004
  vertex -0.108745575 -0.00842684507 0.00606000004
  endloop
 endfacet

 facet normal 0 0 1
  outer loop
  vertex -0.114159577 -0.013839853 0.00606000004
  vertex -0.108745575 -0.00842684507 0.00606000004
  vertex -0.109180734 -0.00840775855 0.00606000004
  endloop
 endfacet

 facet normal 0 0 1
  outer loop
  vertex -0.114159577 -0.013839853 0.00606000004
  vertex -0.109180734 -0.00840775855 0.00606000004
  vertex -0.109614611 -0.00842684507 0.00606000004
  endloop
 endfacet

 facet normal 0 0 1
  outer loop
  vertex -0.114159577 -0.013839853 0.00606000004
  vertex -0.109614611 -0.00842684507 0.00606000004
  vertex -0.110047229 -0.00848410465 0.00606000004
  endloop
 endfacet

 facet normal 0 0 1
  outer loop
  vertex -0.114159577 -0.013839853 0.00606000004
  vertex -0.110047229 -0.00848410465 0.00606000004
  vertex -0.110473476 -0.00857826695 0.00606000004
  endloop
 endfacet

 facet normal 0 0 1
  outer loop
  vertex -0.114159577 -0.013839853 0.00606000004
  vertex -0.110473476 -0.00857826695 0.00606000004
  vertex -0.110889547 -0.00870805606 0.00606000004
  endloop
 endfacet

 facet normal 0 0 1
  outer loop
  vertex -0.114159577 -0.013839853 0.00606000004
  vertex -0.110889547 -0.00870805606 0.00606000004
  vertex -0.111291617 -0.00887602009 0.00606000004
  endloop
 endfacet

 facet normal 0 0 1
  outer loop
  vertex -0.114159577 -0.013839853 0.00606000004
  vertex -0.111291617 -0.00887602009 0.00606000004
  vertex -0.111678421 -0.00907706749 0.00606000004
  endloop
 endfacet

 facet normal 0 0 1
  outer loop
  vertex -0.114159577 -0.013839853 0.00606000004
  vertex -0.111678421 -0.00907706749 0.00606000004
  vertex -0.112046145 -0.00931119826 0.00606000004
  endloop
 endfacet

 facet normal 0 0 1
  outer loop
  vertex -0.114159577 -0.013839853 0.00606000004
  vertex -0.112046145 -0.00931119826 0.00606000004
  vertex -0.112392232 -0.00957714021 0.00606000004
  endloop
 endfacet

 facet normal 0 0 1
  outer loop
  vertex -0.114159577 -0.013839853 0.00606000004
  vertex -0.112392232 -0.00957714021 0.00606000004
  vertex -0.112712875 -0.00987234898 0.00606000004
  endloop
 endfacet

 facet normal 0 0 1
  outer loop
  vertex -0.114159577 -0.013839853 0.00606000004
  vertex -0.112712875 -0.00987234898 0.00606000004
  vertex -0.113009341 -0.0101942802 0.00606000004
  endloop
 endfacet

 facet normal 0 0 1
  outer loop
  vertex -0.114159577 -0.013839853 0.00606000004
  vertex -0.113009341 -0.0101942802 0.00606000004
  vertex -0.113275267 -0.0105391135 0.00606000004
  endloop
 endfacet

 facet normal 0 0 1
  outer loop
  vertex -0.114159577 -0.013839853 0.00606000004
  vertex -0.113275267 -0.0105391135 0.00606000004
  vertex -0.113506839 -0.0109068528 0.00606000004
  endloop
 endfacet

 facet normal 0 0 1
  outer loop
  vertex -0.114159577 -0.013839853 0.00606000004
  vertex -0.113506839 -0.0109068528 0.00606000004
  vertex -0.113707878 -0.0112936776 0.00606000004
  endloop
 endfacet

 facet normal 0 0 1
  outer loop
  vertex -0.114159577 -0.013839853 0.00606000004
  vertex -0.113707878 -0.0112936776 0.00606000004
  vertex -0.113875836 -0.0116957724 0.00606000004
  endloop
 endfacet

 facet normal 0 0 1
  outer loop
  vertex -0.114159577 -0.013839853 0.00606000004
  vertex -0.113875836 -0.0116957724 0.00606000004
  vertex -0.114005618 -0.0121118641 0.00606000004
  endloop
 endfacet

 facet normal 0 0 1
  outer loop
  vertex -0.114159577 -0.013839853 0.00606000004
  vertex -0.114005618 -0.0121118641 0.00606000004
  vertex -0.114102319 -0.0125368629 0.00606000004
  endloop
 endfacet

 facet normal 0 0 1
  outer loop
  vertex -0.114159577 -0.013839853 0.00606000004
  vertex -0.114102319 -0.0125368629 0.00606000004
  vertex -0.114157028 -0.0129694957 0.00606000004
  endloop
 endfacet

 facet normal 0 0 1
  outer loop
  vertex -0.114159577 -0.013839853 0.00606000004
  vertex -0.114157028 -0.0129694957 0.00606000004
  vertex -0.114178658 -0.013405947 0.00606000004
  endloop
 endfacet

 facet normal -0.938015401 0.0464889407 0.343461603
  outer loop
  vertex -0.114178658 -0.013405947 0.00606000004
  vertex -0.114157028 -0.0129694957 0.00606000004
  vertex -0.115652084 -0.0128384335 0.0019591758
  endloop
 endfacet

 facet normal -0.931356788 0.122206807 0.34298715
  outer loop
  vertex -0.115652084 -0.0128384335 0.0019591758
  vertex -0.114102319 -0.0125368629 0.00606000004
  vertex -0.115578286 -0.0122760106 0.0019591758
  endloop
 endfacet

 facet normal -0.931747377 0.117831722 0.343456566
  outer loop
  vertex -0.115652084 -0.0128384335 0.0019591758
  vertex -0.114157028 -0.0129694957 0.00606000004
  vertex -0.114102319 -0.0125368629 0.00606000004
  endloop
 endfacet

 facet normal -0.976030767 0.217632875 0
  outer loop
  vertex -0.115578286 -0.0122760106 -0.00302872178
  vertex -0.115578286 -0.0122760106 0.0019591758
  vertex -0.11545486 -0.0117224939 0.0019591758
  endloop
 endfacet

 facet normal -0.976030767 0.217632875 0
  outer loop
  vertex -0.115578286 -0.0122760106 -0.00302872178
  vertex -0.11545486 -0.0117224939 0.0019591758
  vertex -0.11545486 -0.0117224939 -0.00302872178
  endloop
 endfacet

 facet normal -0.886674821 -0.462393522 0
  outer loop
  vertex -0.11506933 -0.0161518976 -0.00302961143
  vertex -0.114807218 -0.0166545156 -0.00302961143
  vertex -0.114807218 -0.0166545156 0.0019591758
  endloop
 endfacet

 facet normal -0.886674821 -0.462393522 0
  outer loop
  vertex -0.11506933 -0.0161518976 -0.00302961143
  vertex -0.114807218 -0.0166545156 0.0019591758
  vertex -0.11506933 -0.0161518976 0.0019591758
  endloop
 endfacet

 facet normal -0.866835296 -0.361638159 0.343241215
  outer loop
  vertex -0.115149491 -0.0159597564 0.0019591758
  vertex -0.11506933 -0.0161518976 0.0019591758
  vertex -0.113710426 -0.0155169442 0.00606000004
  endloop
 endfacet

 facet normal -0.868574023 -0.357305229 0.343383521
  outer loop
  vertex -0.115149491 -0.0159597564 0.0019591758
  vertex -0.113710426 -0.0155169442 0.00606000004
  vertex -0.113875836 -0.0151148494 0.00606000004
  endloop
 endfacet

 facet normal -0.871987104 -0.349443048 0.342823684
  outer loop
  vertex -0.115149491 -0.0159597564 0.0019591758
  vertex -0.113875836 -0.0151148494 0.00606000004
  vertex -0.115283087 -0.0156263746 0.0019591758
  endloop
 endfacet

 facet normal -0.952871203 -0.303375036 0
  outer loop
  vertex -0.115283087 -0.0156263746 -0.00302872178
  vertex -0.115283087 -0.0156263746 0.0019591758
  vertex -0.11545486 -0.0150868548 0.0019591758
  endloop
 endfacet

 facet normal -0.952871203 -0.303375036 0
  outer loop
  vertex -0.115283087 -0.0156263746 -0.00302872178
  vertex -0.11545486 -0.0150868548 0.0019591758
  vertex -0.11545486 -0.0150868548 -0.00302872178
  endloop
 endfacet

 facet normal -0.976136565 -0.217157692 0
  outer loop
  vertex -0.11545486 -0.0150868548 -0.00302872178
  vertex -0.11545486 -0.0150868548 0.0019591758
  vertex -0.115578286 -0.0145320669 0.0019591758
  endloop
 endfacet

 facet normal -0.976136565 -0.217157692 0
  outer loop
  vertex -0.11545486 -0.0150868548 -0.00302872178
  vertex -0.115578286 -0.0145320669 0.0019591758
  vertex -0.115578286 -0.0145320669 -0.00302872178
  endloop
 endfacet

 facet normal -0.95266372 0.304026395 0
  outer loop
  vertex -0.11545486 -0.0117224939 -0.00302872178
  vertex -0.11545486 -0.0117224939 0.0019591758
  vertex -0.115283087 -0.0111842463 0.0019591758
  endloop
 endfacet

 facet normal -0.95266372 0.304026395 0
  outer loop
  vertex -0.11545486 -0.0117224939 -0.00302872178
  vertex -0.115283087 -0.0111842463 0.0019591758
  vertex -0.115283087 -0.0111842463 -0.00302872178
  endloop
 endfacet

 facet normal -0.925196111 0.379489362 0
  outer loop
  vertex -0.115283087 -0.0111842463 -0.00302872178
  vertex -0.115283087 -0.0111842463 0.0019591758
  vertex -0.115068056 -0.0106599964 0.0019591758
  endloop
 endfacet

 facet normal -0.925196111 0.379489362 0
  outer loop
  vertex -0.115283087 -0.0111842463 -0.00302872178
  vertex -0.115068056 -0.0106599964 0.0019591758
  vertex -0.115068056 -0.0106599964 -0.00302872178
  endloop
 endfacet

 facet normal -0.886674821 0.462393522 0
  outer loop
  vertex -0.115068056 -0.0106599964 -0.00302872178
  vertex -0.115068056 -0.0106599964 0.0019591758
  vertex -0.114805944 -0.0101573784 0.0019591758
  endloop
 endfacet

 facet normal -0.886674821 0.462393522 0
  outer loop
  vertex -0.115068056 -0.0106599964 -0.00302872178
  vertex -0.114805944 -0.0101573784 0.0019591758
  vertex -0.114805944 -0.0101573784 -0.00302872178
  endloop
 endfacet

 facet normal -0.843951464 0.53641957 0
  outer loop
  vertex -0.114805944 -0.0101573784 -0.00302872178
  vertex -0.114805944 -0.0101573784 0.0019591758
  vertex -0.114501849 -0.00967893656 0.0019591758
  endloop
 endfacet

 facet normal -0.843951464 0.53641957 0
  outer loop
  vertex -0.114805944 -0.0101573784 -0.00302872178
  vertex -0.114501849 -0.00967893656 0.0019591758
  vertex -0.114501849 -0.00967893656 -0.00302872178
  endloop
 endfacet

 facet normal -0.791052938 0.611747682 0
  outer loop
  vertex -0.114501849 -0.00967893656 -0.00302872178
  vertex -0.114501849 -0.00967893656 0.0019591758
  vertex -0.114154488 -0.00922976155 0.0019591758
  endloop
 endfacet

 facet normal -0.791052938 0.611747682 0
  outer loop
  vertex -0.114501849 -0.00967893656 -0.00302872178
  vertex -0.114154488 -0.00922976155 0.0019591758
  vertex -0.114154488 -0.00922976155 -0.00302872178
  endloop
 endfacet

 facet normal -0.73782295 0.674994349 0
  outer loop
  vertex -0.114154488 -0.00922976155 -0.00302872178
  vertex -0.114154488 -0.00922976155 0.0019591758
  vertex -0.113771498 -0.0088111246 0.0019591758
  endloop
 endfacet

 facet normal -0.73782295 0.674994349 0
  outer loop
  vertex -0.114154488 -0.00922976155 -0.00302872178
  vertex -0.113771498 -0.0088111246 0.0019591758
  vertex -0.113771498 -0.0088111246 -0.00302872178
  endloop
 endfacet

 facet normal -0.67727083 0.735733867 0
  outer loop
  vertex -0.113771498 -0.0088111246 -0.00302872178
  vertex -0.113771498 -0.0088111246 0.0019591758
  vertex -0.113355428 -0.00842811726 0.0019591758
  endloop
 endfacet

 facet normal -0.67727083 0.735733867 0
  outer loop
  vertex -0.113771498 -0.0088111246 -0.00302872178
  vertex -0.113355428 -0.00842811726 0.0019591758
  vertex -0.113355428 -0.00842811726 -0.00302872178
  endloop
 endfacet

 facet normal -0.607887268 0.794023395 0
  outer loop
  vertex -0.113355428 -0.00842811726 -0.00302872178
  vertex -0.113355428 -0.00842811726 0.0019591758
  vertex -0.112905003 -0.00808328204 0.0019591758
  endloop
 endfacet

 facet normal -0.607887268 0.794023395 0
  outer loop
  vertex -0.113355428 -0.00842811726 -0.00302872178
  vertex -0.112905003 -0.00808328204 0.0019591758
  vertex -0.112905003 -0.00808328204 -0.00302872178
  endloop
 endfacet

 facet normal -0.53544277 0.844571531 0
  outer loop
  vertex -0.112905003 -0.00808328204 -0.00302872178
  vertex -0.112905003 -0.00808328204 0.0019591758
  vertex -0.112425312 -0.0077791675 0.0019591758
  endloop
 endfacet

 facet normal -0.53544277 0.844571531 0
  outer loop
  vertex -0.112905003 -0.00808328204 -0.00302872178
  vertex -0.112425312 -0.0077791675 0.0019591758
  vertex -0.112425312 -0.0077791675 -0.00302872178
  endloop
 endfacet

 facet normal -0.462431371 0.886655092 0
  outer loop
  vertex -0.112425312 -0.0077791675 -0.00302872178
  vertex -0.112425312 -0.0077791675 0.0019591758
  vertex -0.111922719 -0.00751704257 0.0019591758
  endloop
 endfacet

 facet normal -0.462431371 0.886655092 0
  outer loop
  vertex -0.112425312 -0.0077791675 -0.00302872178
  vertex -0.111922719 -0.00751704257 0.0019591758
  vertex -0.111922719 -0.00751704257 -0.00302872178
  endloop
 endfacet

 facet normal -0.3822366 0.924064517 0
  outer loop
  vertex -0.111922719 -0.00751704257 -0.00302872178
  vertex -0.111922719 -0.00751704257 0.0019591758
  vertex -0.11139977 -0.00730072567 0.0019591758
  endloop
 endfacet

 facet normal -0.3822366 0.924064517 0
  outer loop
  vertex -0.111922719 -0.00751704257 -0.00302872178
  vertex -0.11139977 -0.00730072567 0.0019591758
  vertex -0.11139977 -0.00730072567 -0.00302872178
  endloop
 endfacet

 facet normal -0.303404897 0.952861845 0
  outer loop
  vertex -0.11139977 -0.00730072567 -0.00302872178
  vertex -0.11139977 -0.00730072567 0.0019591758
  vertex -0.110860281 -0.00712894369 0.0019591758
  endloop
 endfacet

 facet normal -0.303404897 0.952861845 0
  outer loop
  vertex -0.11139977 -0.00730072567 -0.00302872178
  vertex -0.110860281 -0.00712894369 0.0019591758
  vertex -0.110860281 -0.00712894369 -0.00302872178
  endloop
 endfacet

 facet normal -0.21504274 0.97660476 0
  outer loop
  vertex -0.110860281 -0.00712894369 -0.00302872178
  vertex -0.110860281 -0.00712894369 0.0019591758
  vertex -0.110305518 -0.00700678863 0.0019591758
  endloop
 endfacet

 facet normal -0.21504274 0.97660476 0
  outer loop
  vertex -0.110860281 -0.00712894369 -0.00302872178
  vertex -0.110305518 -0.00700678863 0.0019591758
  vertex -0.110305518 -0.00700678863 -0.00302872178
  endloop
 endfacet

 facet normal -0.130403265 0.991461039 0
  outer loop
  vertex -0.110305518 -0.00700678863 -0.00302872178
  vertex -0.110305518 -0.00700678863 0.0019591758
  vertex -0.1097444 -0.00693298643 0.0019591758
  endloop
 endfacet

 facet normal -0.130403265 0.991461039 0
  outer loop
  vertex -0.110305518 -0.00700678863 -0.00302872178
  vertex -0.1097444 -0.00693298643 0.0019591758
  vertex -0.1097444 -0.00693298643 -0.00302872178
  endloop
 endfacet

 facet normal -0.0473537855 0.998878181 0
  outer loop
  vertex -0.1097444 -0.00693298643 -0.00302872178
  vertex -0.1097444 -0.00693298643 0.0019591758
  vertex -0.109180734 -0.00690626493 0.0019591758
  endloop
 endfacet

 facet normal -0.0473537855 0.998878181 0
  outer loop
  vertex -0.1097444 -0.00693298643 -0.00302872178
  vertex -0.109180734 -0.00690626493 0.0019591758
  vertex -0.109180734 -0.00690626493 -0.00302872178
  endloop
 endfacet

 facet normal 0.0471414626 0.998888314 0
  outer loop
  vertex -0.109180734 -0.00690626493 -0.00302872178
  vertex -0.109180734 -0.00690626493 0.0019591758
  vertex -0.108614519 -0.00693298643 0.0019591758
  endloop
 endfacet

 facet normal 0.0471414626 0.998888314 0
  outer loop
  vertex -0.109180734 -0.00690626493 -0.00302872178
  vertex -0.108614519 -0.00693298643 0.0019591758
  vertex -0.108614519 -0.00693298643 -0.00302872178
  endloop
 endfacet

 facet normal 4.78651509e-06 0.000101422273 -1
  outer loop
  vertex -0.109180734 -0.00690626493 -0.00302872178
  vertex -0.108614519 -0.00693298643 -0.00302872178
  vertex -0.103210695 -0.0159597564 -0.00302961143
  endloop
 endfacet

 facet normal 0.00800147466 -0.00178004662 -0.999966383
  outer loop
  vertex -0.103210695 -0.0159597564 -0.00302961143
  vertex -0.102781907 -0.0145320669 -0.00302872178
  vertex -0.102905326 -0.0150868548 -0.00302872178
  endloop
 endfacet

 facet normal 0.0281627532 -0.00883358531 -0.99956435
  outer loop
  vertex -0.103210695 -0.0159597564 -0.00302961143
  vertex -0.102905326 -0.0150868548 -0.00302872178
  vertex -0.103074551 -0.0156263746 -0.00302872178
  endloop
 endfacet

 facet normal 0.925778925 -0.378065586 0
  outer loop
  vertex -0.103210695 -0.0159597564 -0.00302961143
  vertex -0.103074551 -0.0156263746 -0.00302872178
  vertex -0.103074551 -0.0156263746 0.0019591758
  endloop
 endfacet

 facet normal 0.925778925 -0.378065586 0
  outer loop
  vertex -0.103210695 -0.0159597564 -0.00302961143
  vertex -0.103074551 -0.0156263746 0.0019591758
  vertex -0.103210695 -0.0159597564 0.0019591758
  endloop
 endfacet

 facet normal 0.922899425 -0.385041088 0
  outer loop
  vertex -0.103210695 -0.0159597564 -0.00302961143
  vertex -0.103210695 -0.0159597564 0.0019591758
  vertex -0.103290856 -0.0161518976 0.0019591758
  endloop
 endfacet

 facet normal 0.922899425 -0.385041088 0
  outer loop
  vertex -0.103210695 -0.0159597564 -0.00302961143
  vertex -0.103290856 -0.0161518976 0.0019591758
  vertex -0.103290856 -0.0161518976 -0.00302961143
  endloop
 endfacet

 facet normal 1.41054325e-05 0.000107000982 -1
  outer loop
  vertex -0.103210695 -0.0159597564 -0.00302961143
  vertex -0.108614519 -0.00693298643 -0.00302872178
  vertex -0.108054668 -0.00700678863 -0.00302872178
  endloop
 endfacet

 facet normal 2.48398483e-05 0.000112808797 -1
  outer loop
  vertex -0.103210695 -0.0159597564 -0.00302961143
  vertex -0.108054668 -0.00700678863 -0.00302872178
  vertex -0.107499912 -0.00712894369 -0.00302872178
  endloop
 endfacet

 facet normal 3.78415061e-05 0.000119123833 -1
  outer loop
  vertex -0.103210695 -0.0159597564 -0.00302961143
  vertex -0.107499912 -0.00712894369 -0.00302872178
  vertex -0.106959149 -0.00730072567 -0.00302872178
  endloop
 endfacet

 facet normal 5.16160144e-05 0.00012508675 -1
  outer loop
  vertex -0.103210695 -0.0159597564 -0.00302961143
  vertex -0.106959149 -0.00730072567 -0.00302872178
  vertex -0.106434919 -0.00751704257 -0.00302872178
  endloop
 endfacet

 facet normal 6.84103288e-05 0.000131500405 -1
  outer loop
  vertex -0.103210695 -0.0159597564 -0.00302961143
  vertex -0.106434919 -0.00751704257 -0.00302872178
  vertex -0.105931059 -0.0077791675 -0.00302872178
  endloop
 endfacet

 facet normal 8.79565123e-05 0.000138000265 -1
  outer loop
  vertex -0.103210695 -0.0159597564 -0.00302961143
  vertex -0.105931059 -0.0077791675 -0.00302872178
  vertex -0.105453916 -0.00808328204 -0.00302872178
  endloop
 endfacet

 facet normal 0.000110583256 0.000144444333 -1
  outer loop
  vertex -0.103210695 -0.0159597564 -0.00302961143
  vertex -0.105453916 -0.00808328204 -0.00302872178
  vertex -0.105003491 -0.00842811726 -0.00302872178
  endloop
 endfacet

 facet normal 0.000138703821 0.000151138025 -1
  outer loop
  vertex -0.103210695 -0.0159597564 -0.00302961143
  vertex -0.105003491 -0.00842811726 -0.00302872178
  vertex -0.104586147 -0.0088111246 -0.00302872178
  endloop
 endfacet

 facet normal 0.000172993081 0.0001577355 -0.99999994
  outer loop
  vertex -0.103210695 -0.0159597564 -0.00302961143
  vertex -0.104586147 -0.0088111246 -0.00302872178
  vertex -0.104204431 -0.00922976155 -0.00302872178
  endloop
 endfacet

 facet normal 0.000211278355 0.000163388613 -0.99999994
  outer loop
  vertex -0.103210695 -0.0159597564 -0.00302961143
  vertex -0.104204431 -0.00922976155 -0.00302872178
  vertex -0.10385707 -0.00967893656 -0.00302872178
  endloop
 endfacet

 facet normal 0.00026590476 0.000169010338 -0.99999994
  outer loop
  vertex -0.103210695 -0.0159597564 -0.00302961143
  vertex -0.10385707 -0.00967893656 -0.00302872178
  vertex -0.103552967 -0.0101573784 -0.00302872178
  endloop
 endfacet

 facet normal 0.00033333688 0.000172988046 -0.99999994
  outer loop
  vertex -0.103210695 -0.0159597564 -0.00302961143
  vertex -0.103552967 -0.0101573784 -0.00302872178
  vertex -0.10329213 -0.0106599964 -0.00302872178
  endloop
 endfacet

 facet normal 0.00042001711 0.000174319954 -0.99999994
  outer loop
  vertex -0.103210695 -0.0159597564 -0.00302961143
  vertex -0.10329213 -0.0106599964 -0.00302872178
  vertex -0.103074551 -0.0111842463 -0.00302872178
  endloop
 endfacet

 facet normal 0.000539550674 0.000170912157 -0.999999881
  outer loop
  vertex -0.103210695 -0.0159597564 -0.00302961143
  vertex -0.103074551 -0.0111842463 -0.00302872178
  vertex -0.102904052 -0.0117224939 -0.00302872178
  endloop
 endfacet

 facet normal 0.000710894295 0.000158512223 -0.999999702
  outer loop
  vertex -0.103210695 -0.0159597564 -0.00302961143
  vertex -0.102904052 -0.0117224939 -0.00302872178
  vertex -0.102780633 -0.0122760106 -0.00302872178
  endloop
 endfacet

 facet normal 0.000973960094 0.000127800144 -0.999999523
  outer loop
  vertex -0.103210695 -0.0159597564 -0.00302961143
  vertex -0.102780633 -0.0122760106 -0.00302872178
  vertex -0.102706835 -0.0128384335 -0.00302872178
  endloop
 endfacet

 facet normal 0.00138182542 6.19596904e-05 -0.999999046
  outer loop
  vertex -0.103210695 -0.0159597564 -0.00302961143
  vertex -0.102706835 -0.0128384335 -0.00302872178
  vertex -0.102681383 -0.013405947 -0.00302872178
  endloop
 endfacet

 facet normal 0.00220879517 -0.000109441367 -0.999997556
  outer loop
  vertex -0.103210695 -0.0159597564 -0.00302961143
  vertex -0.102681383 -0.013405947 -0.00302872178
  vertex -0.102709375 -0.0139709162 -0.00302872178
  endloop
 endfacet

 facet normal 0.00364201562 -0.000470708765 -0.999993265
  outer loop
  vertex -0.103210695 -0.0159597564 -0.00302961143
  vertex -0.102709375 -0.0139709162 -0.00302872178
  vertex -0.102781907 -0.0145320669 -0.00302872178
  endloop
 endfacet

 facet normal -0.916969299 -0.20399496 0.34286055
  outer loop
  vertex -0.115578286 -0.0145320669 0.0019591758
  vertex -0.11545486 -0.0150868548 0.0019591758
  vertex -0.114008158 -0.0146974847 0.00606000004
  endloop
 endfacet

 facet normal -0.917116344 -0.203182727 0.342949599
  outer loop
  vertex -0.115578286 -0.0145320669 0.0019591758
  vertex -0.114008158 -0.0146974847 0.00606000004
  vertex -0.114102319 -0.0142724868 0.00606000004
  endloop
 endfacet

 facet normal -0.915774465 0.208369762 0.34342283
  outer loop
  vertex -0.114102319 -0.0125368629 0.00606000004
  vertex -0.114005618 -0.0121118641 0.00606000004
  vertex -0.11545486 -0.0117224939 0.0019591758
  endloop
 endfacet

 facet normal -0.916824877 0.20443128 0.34298718
  outer loop
  vertex -0.114102319 -0.0125368629 0.00606000004
  vertex -0.11545486 -0.0117224939 0.0019591758
  vertex -0.115578286 -0.0122760106 0.0019591758
  endloop
 endfacet

 facet normal -0.832854152 -0.4343265 0.343095511
  outer loop
  vertex -0.11506933 -0.0161518976 0.0019591758
  vertex -0.114807218 -0.0166545156 0.0019591758
  vertex -0.113509387 -0.0159037691 0.00606000004
  endloop
 endfacet

 facet normal -0.833416224 -0.433134615 0.343237251
  outer loop
  vertex -0.11506933 -0.0161518976 0.0019591758
  vertex -0.113509387 -0.0159037691 0.00606000004
  vertex -0.113710426 -0.0155169442 0.00606000004
  endloop
 endfacet

 facet normal -0.843951464 -0.53641957 0
  outer loop
  vertex -0.114807218 -0.0166545156 -0.00302961143
  vertex -0.114503115 -0.0171329584 -0.00302961143
  vertex -0.114503115 -0.0171329584 0.0019591758
  endloop
 endfacet

 facet normal -0.843951464 -0.53641957 0
  outer loop
  vertex -0.114807218 -0.0166545156 -0.00302961143
  vertex -0.114503115 -0.0171329584 0.0019591758
  vertex -0.114807218 -0.0166545156 0.0019591758
  endloop
 endfacet

 facet normal -0.895456672 -0.283910513 0.342859149
  outer loop
  vertex -0.113875836 -0.0151148494 0.00606000004
  vertex -0.114008158 -0.0146974847 0.00606000004
  vertex -0.11545486 -0.0150868548 0.0019591758
  endloop
 endfacet

 facet normal -0.895157337 -0.285000086 0.342736483
  outer loop
  vertex -0.113875836 -0.0151148494 0.00606000004
  vertex -0.11545486 -0.0150868548 0.0019591758
  vertex -0.115283087 -0.0156263746 0.0019591758
  endloop
 endfacet

 facet normal -0.89658469 0.279653192 0.343409389
  outer loop
  vertex -0.11545486 -0.0117224939 0.0019591758
  vertex -0.114005618 -0.0121118641 0.00606000004
  vertex -0.113875836 -0.0116957724 0.00606000004
  endloop
 endfacet

 facet normal -0.89495945 0.285611093 0.342744797
  outer loop
  vertex -0.11545486 -0.0117224939 0.0019591758
  vertex -0.113875836 -0.0116957724 0.00606000004
  vertex -0.115283087 -0.0111842463 0.0019591758
  endloop
 endfacet

 facet normal -0.869159222 0.356504619 0.342734158
  outer loop
  vertex -0.115283087 -0.0111842463 0.0019591758
  vertex -0.113875836 -0.0116957724 0.00606000004
  vertex -0.115068056 -0.0106599964 0.0019591758
  endloop
 endfacet

 facet normal -0.866630673 0.361991942 0.343384951
  outer loop
  vertex -0.115068056 -0.0106599964 0.0019591758
  vertex -0.113875836 -0.0116957724 0.00606000004
  vertex -0.113707878 -0.0112936776 0.00606000004
  endloop
 endfacet

 facet normal -0.83338064 0.433116138 0.343346953
  outer loop
  vertex -0.115068056 -0.0106599964 0.0019591758
  vertex -0.113707878 -0.0112936776 0.00606000004
  vertex -0.113506839 -0.0109068528 0.00606000004
  endloop
 endfacet

 facet normal -0.832818747 0.434308022 0.343204796
  outer loop
  vertex -0.115068056 -0.0106599964 0.0019591758
  vertex -0.113506839 -0.0109068528 0.00606000004
  vertex -0.114805944 -0.0101573784 0.0019591758
  endloop
 endfacet

 facet normal -0.794785023 0.500494361 0.343252361
  outer loop
  vertex -0.114805944 -0.0101573784 0.0019591758
  vertex -0.113506839 -0.0109068528 0.00606000004
  vertex -0.113275267 -0.0105391135 0.00606000004
  endloop
 endfacet

 facet normal -0.792805433 0.503910959 0.342831492
  outer loop
  vertex -0.114805944 -0.0101573784 0.0019591758
  vertex -0.113275267 -0.0105391135 0.00606000004
  vertex -0.114501849 -0.00967893656 0.0019591758
  endloop
 endfacet

 facet normal -0.743887126 0.573670566 0.342832327
  outer loop
  vertex -0.114501849 -0.00967893656 0.0019591758
  vertex -0.113275267 -0.0105391135 0.00606000004
  vertex -0.113009341 -0.0101942802 0.00606000004
  endloop
 endfacet

 facet normal -0.743152082 0.574704468 0.34269473
  outer loop
  vertex -0.114501849 -0.00967893656 0.0019591758
  vertex -0.113009341 -0.0101942802 0.00606000004
  vertex -0.114154488 -0.00922976155 0.0019591758
  endloop
 endfacet

 facet normal -0.693142891 0.634118915 0.342704147
  outer loop
  vertex -0.114154488 -0.00922976155 0.0019591758
  vertex -0.113009341 -0.0101942802 0.00606000004
  vertex -0.113771498 -0.0088111246 0.0019591758
  endloop
 endfacet

 facet normal -0.690965295 0.636310816 0.343038738
  outer loop
  vertex -0.113771498 -0.0088111246 0.0019591758
  vertex -0.113009341 -0.0101942802 0.00606000004
  vertex -0.112712875 -0.00987234898 0.00606000004
  endloop
 endfacet

 facet normal -0.636222363 0.69103235 0.343067884
  outer loop
  vertex -0.113771498 -0.0088111246 0.0019591758
  vertex -0.112712875 -0.00987234898 0.00606000004
  vertex -0.112392232 -0.00957714021 0.00606000004
  endloop
 endfacet

 facet normal -0.636169672 0.691084802 0.343059987
  outer loop
  vertex -0.113771498 -0.0088111246 0.0019591758
  vertex -0.112392232 -0.00957714021 0.00606000004
  vertex -0.113355428 -0.00842811726 0.0019591758
  endloop
 endfacet

 facet normal -0.572319686 0.744797707 0.343113005
  outer loop
  vertex -0.113355428 -0.00842811726 0.0019591758
  vertex -0.112392232 -0.00957714021 0.00606000004
  vertex -0.112046145 -0.00931119826 0.00606000004
  endloop
 endfacet

 facet normal -0.571025252 0.745874107 0.342931479
  outer loop
  vertex -0.113355428 -0.00842811726 0.0019591758
  vertex -0.112046145 -0.00931119826 0.00606000004
  vertex -0.112905003 -0.00808328204 0.0019591758
  endloop
 endfacet

 facet normal -0.504516244 0.792379022 0.342927098
  outer loop
  vertex -0.112905003 -0.00808328204 0.0019591758
  vertex -0.112046145 -0.00931119826 0.00606000004
  vertex -0.111678421 -0.00907706749 0.00606000004
  endloop
 endfacet

 facet normal -0.503013134 0.793419302 0.342729658
  outer loop
  vertex -0.112905003 -0.00808328204 0.0019591758
  vertex -0.111678421 -0.00907706749 0.00606000004
  vertex -0.112425312 -0.0077791675 0.0019591758
  endloop
 endfacet

 facet normal -0.434420764 0.832948208 0.342747629
  outer loop
  vertex -0.112425312 -0.0077791675 0.0019591758
  vertex -0.111678421 -0.00907706749 0.00606000004
  vertex -0.111922719 -0.00751704257 0.0019591758
  endloop
 endfacet

 facet normal -0.433228105 0.833510399 0.342890441
  outer loop
  vertex -0.111922719 -0.00751704257 0.0019591758
  vertex -0.111678421 -0.00907706749 0.00606000004
  vertex -0.111291617 -0.00887602009 0.00606000004
  endloop
 endfacet

 facet normal -0.36208424 0.866760254 0.342960358
  outer loop
  vertex -0.111922719 -0.00751704257 0.0019591758
  vertex -0.111291617 -0.00887602009 0.00606000004
  vertex -0.110889547 -0.00870805606 0.00606000004
  endloop
 endfacet

 facet normal -0.359102875 0.868138254 0.342609495
  outer loop
  vertex -0.111922719 -0.00751704257 0.0019591758
  vertex -0.110889547 -0.00870805606 0.00606000004
  vertex -0.11139977 -0.00730072567 0.0019591758
  endloop
 endfacet

 facet normal -0.285035372 0.895171165 0.342671186
  outer loop
  vertex -0.11139977 -0.00730072567 0.0019591758
  vertex -0.110889547 -0.00870805606 0.00606000004
  vertex -0.110860281 -0.00712894369 0.0019591758
  endloop
 endfacet

 facet normal -0.279694051 0.896625519 0.343269289
  outer loop
  vertex -0.110860281 -0.00712894369 0.0019591758
  vertex -0.110889547 -0.00870805606 0.00606000004
  vertex -0.110473476 -0.00857826695 0.00606000004
  endloop
 endfacet

 facet normal -0.202602565 0.917133927 0.343245834
  outer loop
  vertex -0.110860281 -0.00712894369 0.0019591758
  vertex -0.110473476 -0.00857826695 0.00606000004
  vertex -0.110047229 -0.00848410465 0.00606000004
  endloop
 endfacet

 facet normal -0.201983362 0.91729629 0.343176782
  outer loop
  vertex -0.110860281 -0.00712894369 0.0019591758
  vertex -0.110047229 -0.00848410465 0.00606000004
  vertex -0.110305518 -0.00700678863 0.0019591758
  endloop
 endfacet

 facet normal -0.123245284 0.931139827 0.343204468
  outer loop
  vertex -0.110305518 -0.00700678863 0.0019591758
  vertex -0.110047229 -0.00848410465 0.00606000004
  vertex -0.109614611 -0.00842684507 0.00606000004
  endloop
 endfacet

 facet normal -0.122486629 0.931270421 0.343121886
  outer loop
  vertex -0.110305518 -0.00700678863 0.0019591758
  vertex -0.109614611 -0.00842684507 0.00606000004
  vertex -0.1097444 -0.00693298643 0.0019591758
  endloop
 endfacet

 facet normal -0.0444779247 0.938214958 0.343182862
  outer loop
  vertex -0.1097444 -0.00693298643 0.0019591758
  vertex -0.109614611 -0.00842684507 0.00606000004
  vertex -0.109180734 -0.00690626493 0.0019591758
  endloop
 endfacet

 facet normal -0.0412727371 0.938234687 0.343529284
  outer loop
  vertex -0.109180734 -0.00690626493 0.0019591758
  vertex -0.109614611 -0.00842684507 0.00606000004
  vertex -0.109180734 -0.00840775855 0.00606000004
  endloop
 endfacet

 facet normal 0.0411522798 0.938239396 0.343531013
  outer loop
  vertex -0.109180734 -0.00690626493 0.0019591758
  vertex -0.109180734 -0.00840775855 0.00606000004
  vertex -0.108745575 -0.00842684507 0.00606000004
  endloop
 endfacet

 facet normal 0.0442783348 0.938220918 0.343192458
  outer loop
  vertex -0.109180734 -0.00690626493 0.0019591758
  vertex -0.108745575 -0.00842684507 0.00606000004
  vertex -0.108614519 -0.00693298643 0.0019591758
  endloop
 endfacet

 facet normal 0.130694568 0.991422772 0
  outer loop
  vertex -0.108614519 -0.00693298643 -0.00302872178
  vertex -0.108614519 -0.00693298643 0.0019591758
  vertex -0.108054668 -0.00700678863 0.0019591758
  endloop
 endfacet

 facet normal 0.130694568 0.991422772 0
  outer loop
  vertex -0.108614519 -0.00693298643 -0.00302872178
  vertex -0.108054668 -0.00700678863 0.0019591758
  vertex -0.108054668 -0.00700678863 -0.00302872178
  endloop
 endfacet

 facet normal 0.976136982 -0.217156157 0
  outer loop
  vertex -0.102781907 -0.0145320669 -0.00302872178
  vertex -0.102781907 -0.0145320669 0.0019591758
  vertex -0.102905326 -0.0150868548 0.0019591758
  endloop
 endfacet

 facet normal 0.976136982 -0.217156157 0
  outer loop
  vertex -0.102781907 -0.0145320669 -0.00302872178
  vertex -0.102905326 -0.0150868548 0.0019591758
  vertex -0.102905326 -0.0150868548 -0.00302872178
  endloop
 endfacet

 facet normal 0.991751194 -0.128177926 0
  outer loop
  vertex -0.102781907 -0.0145320669 -0.00302872178
  vertex -0.102709375 -0.0139709162 -0.00302872178
  vertex -0.102709375 -0.0139709162 0.0019591758
  endloop
 endfacet

 facet normal 0.991751194 -0.128177926 0
  outer loop
  vertex -0.102781907 -0.0145320669 -0.00302872178
  vertex -0.102709375 -0.0139709162 0.0019591758
  vertex -0.102781907 -0.0145320669 0.0019591758
  endloop
 endfacet

 facet normal 0.95416379 -0.299284905 0
  outer loop
  vertex -0.102905326 -0.0150868548 -0.00302872178
  vertex -0.102905326 -0.0150868548 0.0019591758
  vertex -0.103074551 -0.0156263746 0.0019591758
  endloop
 endfacet

 facet normal 0.95416379 -0.299284905 0
  outer loop
  vertex -0.102905326 -0.0150868548 -0.00302872178
  vertex -0.103074551 -0.0156263746 0.0019591758
  vertex -0.103074551 -0.0156263746 -0.00302872178
  endloop
 endfacet

 facet normal 0.869619846 -0.355131596 0.342990935
  outer loop
  vertex -0.103210695 -0.0159597564 0.0019591758
  vertex -0.103074551 -0.0156263746 0.0019591758
  vertex -0.104483083 -0.0151148494 0.00606000004
  endloop
 endfacet

 facet normal 0.867630005 -0.359664142 0.343307346
  outer loop
  vertex -0.103210695 -0.0159597564 0.0019591758
  vertex -0.104483083 -0.0151148494 0.00606000004
  vertex -0.104649767 -0.0155169442 0.00606000004
  endloop
 endfacet

 facet normal 0.866830826 -0.361648828 0.343241245
  outer loop
  vertex -0.103210695 -0.0159597564 0.0019591758
  vertex -0.104649767 -0.0155169442 0.00606000004
  vertex -0.103290856 -0.0161518976 0.0019591758
  endloop
 endfacet

 facet normal 0.886675477 -0.462392211 0
  outer loop
  vertex -0.103290856 -0.0161518976 -0.00302961143
  vertex -0.103290856 -0.0161518976 0.0019591758
  vertex -0.103552967 -0.0166545156 0.0019591758
  endloop
 endfacet

 facet normal 0.886675477 -0.462392211 0
  outer loop
  vertex -0.103290856 -0.0161518976 -0.00302961143
  vertex -0.103552967 -0.0166545156 0.0019591758
  vertex -0.103552967 -0.0166545156 -0.00302961143
  endloop
 endfacet

 facet normal 0.21504274 0.97660476 0
  outer loop
  vertex -0.108054668 -0.00700678863 -0.00302872178
  vertex -0.108054668 -0.00700678863 0.0019591758
  vertex -0.107499912 -0.00712894369 0.0019591758
  endloop
 endfacet

 facet normal 0.21504274 0.97660476 0
  outer loop
  vertex -0.108054668 -0.00700678863 -0.00302872178
  vertex -0.107499912 -0.00712894369 0.0019591758
  vertex -0.107499912 -0.00712894369 -0.00302872178
  endloop
 endfacet

 facet normal 0.302756518 0.953067899 0
  outer loop
  vertex -0.107499912 -0.00712894369 -0.00302872178
  vertex -0.107499912 -0.00712894369 0.0019591758
  vertex -0.106959149 -0.00730072567 0.0019591758
  endloop
 endfacet

 facet normal 0.302756518 0.953067899 0
  outer loop
  vertex -0.107499912 -0.00712894369 -0.00302872178
  vertex -0.106959149 -0.00730072567 0.0019591758
  vertex -0.106959149 -0.00730072567 -0.00302872178
  endloop
 endfacet

 facet normal 0.381442904 0.924392402 0
  outer loop
  vertex -0.106959149 -0.00730072567 -0.00302872178
  vertex -0.106959149 -0.00730072567 0.0019591758
  vertex -0.106434919 -0.00751704257 0.0019591758
  endloop
 endfacet

 facet normal 0.381442904 0.924392402 0
  outer loop
  vertex -0.106959149 -0.00730072567 -0.00302872178
  vertex -0.106434919 -0.00751704257 0.0019591758
  vertex -0.106434919 -0.00751704257 -0.00302872178
  endloop
 endfacet

 facet normal 0.461512685 0.887133598 0
  outer loop
  vertex -0.106434919 -0.00751704257 -0.00302872178
  vertex -0.106434919 -0.00751704257 0.0019591758
  vertex -0.105931059 -0.0077791675 0.0019591758
  endloop
 endfacet

 facet normal 0.461512685 0.887133598 0
  outer loop
  vertex -0.106434919 -0.00751704257 -0.00302872178
  vertex -0.105931059 -0.0077791675 0.0019591758
  vertex -0.105931059 -0.0077791675 -0.00302872178
  endloop
 endfacet

 facet normal 0.537476301 0.843278885 0
  outer loop
  vertex -0.105931059 -0.0077791675 -0.00302872178
  vertex -0.105931059 -0.0077791675 0.0019591758
  vertex -0.105453916 -0.00808328204 0.0019591758
  endloop
 endfacet

 facet normal 0.537476301 0.843278885 0
  outer loop
  vertex -0.105931059 -0.0077791675 -0.00302872178
  vertex -0.105453916 -0.00808328204 0.0019591758
  vertex -0.105453916 -0.00808328204 -0.00302872178
  endloop
 endfacet

 facet normal 0.607886434 0.794023991 0
  outer loop
  vertex -0.105453916 -0.00808328204 -0.00302872178
  vertex -0.105453916 -0.00808328204 0.0019591758
  vertex -0.105003491 -0.00842811726 0.0019591758
  endloop
 endfacet

 facet normal 0.607886434 0.794023991 0
  outer loop
  vertex -0.105453916 -0.00808328204 -0.00302872178
  vertex -0.105003491 -0.00842811726 0.0019591758
  vertex -0.105003491 -0.00842811726 -0.00302872178
  endloop
 endfacet

 facet normal 0.676150084 0.736763954 0
  outer loop
  vertex -0.105003491 -0.00842811726 -0.00302872178
  vertex -0.105003491 -0.00842811726 0.0019591758
  vertex -0.104586147 -0.0088111246 0.0019591758
  endloop
 endfacet

 facet normal 0.676150084 0.736763954 0
  outer loop
  vertex -0.105003491 -0.00842811726 -0.00302872178
  vertex -0.104586147 -0.0088111246 0.0019591758
  vertex -0.104586147 -0.0088111246 -0.00302872178
  endloop
 endfacet

 facet normal 0.738942027 0.673769116 0
  outer loop
  vertex -0.104586147 -0.0088111246 -0.00302872178
  vertex -0.104586147 -0.0088111246 0.0019591758
  vertex -0.104204431 -0.00922976155 0.0019591758
  endloop
 endfacet

 facet normal 0.738942027 0.673769116 0
  outer loop
  vertex -0.104586147 -0.0088111246 -0.00302872178
  vertex -0.104204431 -0.00922976155 0.0019591758
  vertex -0.104204431 -0.00922976155 -0.00302872178
  endloop
 endfacet

 facet normal 0.791052938 0.611747682 0
  outer loop
  vertex -0.104204431 -0.00922976155 -0.00302872178
  vertex -0.104204431 -0.00922976155 0.0019591758
  vertex -0.10385707 -0.00967893656 0.0019591758
  endloop
 endfacet

 facet normal 0.791052938 0.611747682 0
  outer loop
  vertex -0.104204431 -0.00922976155 -0.00302872178
  vertex -0.10385707 -0.00967893656 0.0019591758
  vertex -0.10385707 -0.00967893656 -0.00302872178
  endloop
 endfacet

 facet normal 0.843951464 0.53641957 0
  outer loop
  vertex -0.10385707 -0.00967893656 -0.00302872178
  vertex -0.10385707 -0.00967893656 0.0019591758
  vertex -0.103552967 -0.0101573784 0.0019591758
  endloop
 endfacet

 facet normal 0.843951464 0.53641957 0
  outer loop
  vertex -0.10385707 -0.00967893656 -0.00302872178
  vertex -0.103552967 -0.0101573784 0.0019591758
  vertex -0.103552967 -0.0101573784 -0.00302872178
  endloop
 endfacet

 facet normal 0.887594879 0.460625023 0
  outer loop
  vertex -0.103552967 -0.0101573784 -0.00302872178
  vertex -0.103552967 -0.0101573784 0.0019591758
  vertex -0.10329213 -0.0106599964 0.0019591758
  endloop
 endfacet

 facet normal 0.887594879 0.460625023 0
  outer loop
  vertex -0.103552967 -0.0101573784 -0.00302872178
  vertex -0.10329213 -0.0106599964 0.0019591758
  vertex -0.10329213 -0.0106599964 -0.00302872178
  endloop
 endfacet

 facet normal 0.923612535 0.383327544 0
  outer loop
  vertex -0.10329213 -0.0106599964 -0.00302872178
  vertex -0.10329213 -0.0106599964 0.0019591758
  vertex -0.103074551 -0.0111842463 0.0019591758
  endloop
 endfacet

 facet normal 0.923612535 0.383327544 0
  outer loop
  vertex -0.10329213 -0.0106599964 -0.00302872178
  vertex -0.103074551 -0.0111842463 0.0019591758
  vertex -0.103074551 -0.0111842463 -0.00302872178
  endloop
 endfacet

 facet normal 0.953314543 0.301979125 0
  outer loop
  vertex -0.103074551 -0.0111842463 -0.00302872178
  vertex -0.103074551 -0.0111842463 0.0019591758
  vertex -0.102904052 -0.0117224939 0.0019591758
  endloop
 endfacet

 facet normal 0.953314543 0.301979125 0
  outer loop
  vertex -0.103074551 -0.0111842463 -0.00302872178
  vertex -0.102904052 -0.0117224939 0.0019591758
  vertex -0.102904052 -0.0117224939 -0.00302872178
  endloop
 endfacet

 facet normal 0.976031065 0.21763131 0
  outer loop
  vertex -0.102904052 -0.0117224939 -0.00302872178
  vertex -0.102904052 -0.0117224939 0.0019591758
  vertex -0.102780633 -0.0122760106 0.0019591758
  endloop
 endfacet

 facet normal 0.976031065 0.21763131 0
  outer loop
  vertex -0.102904052 -0.0117224939 -0.00302872178
  vertex -0.102780633 -0.0122760106 0.0019591758
  vertex -0.102780633 -0.0122760106 -0.00302872178
  endloop
 endfacet

 facet normal 0.991500735 0.130101785 0
  outer loop
  vertex -0.102780633 -0.0122760106 -0.00302872178
  vertex -0.102780633 -0.0122760106 0.0019591758
  vertex -0.102706835 -0.0128384335 0.0019591758
  endloop
 endfacet

 facet normal 0.991500735 0.130101785 0
  outer loop
  vertex -0.102780633 -0.0122760106 -0.00302872178
  vertex -0.102706835 -0.0128384335 0.0019591758
  vertex -0.102706835 -0.0128384335 -0.00302872178
  endloop
 endfacet

 facet normal 0.998996198 0.0447940007 -1.14254517e-05
  outer loop
  vertex -0.102706835 -0.0128384335 -0.00302872178
  vertex -0.102681383 -0.0134046748 0.0019591758
  vertex -0.102681383 -0.013405947 -0.00302872178
  endloop
 endfacet

 facet normal 0.998991728 0.0448944494 0
  outer loop
  vertex -0.102706835 -0.0128384335 -0.00302872178
  vertex -0.102706835 -0.0128384335 0.0019591758
  vertex -0.102681383 -0.0134046748 0.0019591758
  endloop
 endfacet

 facet normal 1 0 0
  outer loop
  vertex -0.102681383 -0.013405947 -0.00302872178
  vertex -0.102681383 -0.0134046748 0.0019591758
  vertex -0.102681383 -0.013405947 0.0019591758
  endloop
 endfacet

 facet normal 0.998774707 -0.0494872816 0
  outer loop
  vertex -0.102681383 -0.013405947 -0.00302872178
  vertex -0.102681383 -0.013405947 0.0019591758
  vertex -0.102709375 -0.0139709162 0.0019591758
  endloop
 endfacet

 facet normal 0.998774707 -0.0494872816 0
  outer loop
  vertex -0.102681383 -0.013405947 -0.00302872178
  vertex -0.102709375 -0.0139709162 0.0019591758
  vertex -0.102709375 -0.0139709162 -0.00302872178
  endloop
 endfacet

 facet normal -0.792738497 -0.503868401 0.343048602
  outer loop
  vertex -0.114807218 -0.0166545156 0.0019591758
  vertex -0.114503115 -0.0171329584 0.0019591758
  vertex -0.113275267 -0.0162727796 0.00606000004
  endloop
 endfacet

 facet normal -0.793126941 -0.503200412 0.343131483
  outer loop
  vertex -0.114807218 -0.0166545156 0.0019591758
  vertex -0.113275267 -0.0162727796 0.00606000004
  vertex -0.113509387 -0.0159037691 0.00606000004
  endloop
 endfacet

 facet normal -0.792971015 -0.609259367 0
  outer loop
  vertex -0.114503115 -0.0171329584 -0.00302961143
  vertex -0.114157028 -0.0175834056 -0.00302961143
  vertex -0.114157028 -0.0175834056 0.0019591758
  endloop
 endfacet

 facet normal -0.792971015 -0.609259367 0
  outer loop
  vertex -0.114503115 -0.0171329584 -0.00302961143
  vertex -0.114157028 -0.0175834056 0.0019591758
  vertex -0.114503115 -0.0171329584 0.0019591758
  endloop
 endfacet

 facet normal 0.123245284 0.931139827 0.343204468
  outer loop
  vertex -0.108745575 -0.00842684507 0.00606000004
  vertex -0.108312964 -0.00848410465 0.00606000004
  vertex -0.108054668 -0.00700678863 0.0019591758
  endloop
 endfacet

 facet normal 0.122758791 0.931223571 0.34315154
  outer loop
  vertex -0.108745575 -0.00842684507 0.00606000004
  vertex -0.108054668 -0.00700678863 0.0019591758
  vertex -0.108614519 -0.00693298643 0.0019591758
  endloop
 endfacet

 facet normal 0.917116761 -0.203180805 0.342949599
  outer loop
  vertex -0.102781907 -0.0145320669 0.0019591758
  vertex -0.104257874 -0.0142724868 0.00606000004
  vertex -0.104352027 -0.0146974847 0.00606000004
  endloop
 endfacet

 facet normal 0.916969657 -0.203993499 0.34286055
  outer loop
  vertex -0.102781907 -0.0145320669 0.0019591758
  vertex -0.104352027 -0.0146974847 0.00606000004
  vertex -0.102905326 -0.0150868548 0.0019591758
  endloop
 endfacet

 facet normal 0.931613207 -0.120405458 0.342927545
  outer loop
  vertex -0.102781907 -0.0145320669 0.0019591758
  vertex -0.102709375 -0.0139709162 0.0019591758
  vertex -0.104257874 -0.0142724868 0.00606000004
  endloop
 endfacet

 facet normal 0.896315038 -0.28113994 0.342898935
  outer loop
  vertex -0.102905326 -0.0150868548 0.0019591758
  vertex -0.104352027 -0.0146974847 0.00606000004
  vertex -0.103074551 -0.0156263746 0.0019591758
  endloop
 endfacet

 facet normal 0.896215141 -0.281419098 0.342931032
  outer loop
  vertex -0.103074551 -0.0156263746 0.0019591758
  vertex -0.104352027 -0.0146974847 0.00606000004
  vertex -0.104483083 -0.0151148494 0.00606000004
  endloop
 endfacet

 facet normal 0.832260489 -0.435271204 0.343338817
  outer loop
  vertex -0.104649767 -0.0155169442 0.00606000004
  vertex -0.104852073 -0.0159037691 0.00606000004
  vertex -0.103552967 -0.0166545156 0.0019591758
  endloop
 endfacet

 facet normal 0.832814813 -0.434304446 0.343218893
  outer loop
  vertex -0.104649767 -0.0155169442 0.00606000004
  vertex -0.103552967 -0.0166545156 0.0019591758
  vertex -0.103290856 -0.0161518976 0.0019591758
  endloop
 endfacet

 facet normal 0.843951464 -0.53641957 0
  outer loop
  vertex -0.103552967 -0.0166545156 -0.00302961143
  vertex -0.103552967 -0.0166545156 0.0019591758
  vertex -0.10385707 -0.0171329584 0.0019591758
  endloop
 endfacet

 facet normal 0.843951464 -0.53641957 0
  outer loop
  vertex -0.103552967 -0.0166545156 -0.00302961143
  vertex -0.10385707 -0.0171329584 0.0019591758
  vertex -0.10385707 -0.0171329584 -0.00302961143
  endloop
 endfacet

 facet normal 0.201983362 0.91729629 0.343176782
  outer loop
  vertex -0.108054668 -0.00700678863 0.0019591758
  vertex -0.108312964 -0.00848410465 0.00606000004
  vertex -0.107499912 -0.00712894369 0.0019591758
  endloop
 endfacet

 facet normal 0.203175709 0.916983128 0.3433097
  outer loop
  vertex -0.107499912 -0.00712894369 0.0019591758
  vertex -0.108312964 -0.00848410465 0.00606000004
  vertex -0.107887983 -0.00857826695 0.00606000004
  endloop
 endfacet

 facet normal 0.279685766 0.896598816 0.343345851
  outer loop
  vertex -0.107499912 -0.00712894369 0.0019591758
  vertex -0.107887983 -0.00857826695 0.00606000004
  vertex -0.107471913 -0.00870805606 0.00606000004
  endloop
 endfacet

 facet normal 0.28441 0.895313501 0.342818677
  outer loop
  vertex -0.107499912 -0.00712894369 0.0019591758
  vertex -0.107471913 -0.00870805606 0.00606000004
  vertex -0.106959149 -0.00730072567 0.0019591758
  endloop
 endfacet

 facet normal 0.358328283 0.868376255 0.342817068
  outer loop
  vertex -0.106959149 -0.00730072567 0.0019591758
  vertex -0.107471913 -0.00870805606 0.00606000004
  vertex -0.106434919 -0.00751704257 0.0019591758
  endloop
 endfacet

 facet normal 0.362042278 0.866659999 0.343257785
  outer loop
  vertex -0.106434919 -0.00751704257 0.0019591758
  vertex -0.107471913 -0.00870805606 0.00606000004
  vertex -0.107069843 -0.00887602009 0.00606000004
  endloop
 endfacet

 facet normal 0.432046115 0.833970308 0.343263239
  outer loop
  vertex -0.106434919 -0.00751704257 0.0019591758
  vertex -0.107069843 -0.00887602009 0.00606000004
  vertex -0.106681764 -0.00907706749 0.00606000004
  endloop
 endfacet

 facet normal 0.433499932 0.833286643 0.343090713
  outer loop
  vertex -0.106434919 -0.00751704257 0.0019591758
  vertex -0.106681764 -0.00907706749 0.00606000004
  vertex -0.105931059 -0.0077791675 0.0019591758
  endloop
 endfacet

 facet normal 0.504478693 0.792320013 0.343118399
  outer loop
  vertex -0.105931059 -0.0077791675 0.0019591758
  vertex -0.106681764 -0.00907706749 0.00606000004
  vertex -0.106314048 -0.00931119826 0.00606000004
  endloop
 endfacet

 facet normal 0.504856527 0.792099714 0.343071401
  outer loop
  vertex -0.105931059 -0.0077791675 0.0019591758
  vertex -0.106314048 -0.00931119826 0.00606000004
  vertex -0.105453916 -0.00808328204 0.0019591758
  endloop
 endfacet

 facet normal 0.570989788 0.745829344 0.343087792
  outer loop
  vertex -0.105453916 -0.00808328204 0.0019591758
  vertex -0.106314048 -0.00931119826 0.00606000004
  vertex -0.105003491 -0.00842811726 0.0019591758
  endloop
 endfacet

 facet normal 0.573569536 0.743680358 0.343449473
  outer loop
  vertex -0.105003491 -0.00842811726 0.0019591758
  vertex -0.106314048 -0.00931119826 0.00606000004
  vertex -0.105969228 -0.00957714021 0.00606000004
  endloop
 endfacet

 facet normal 0.63502574 0.691953063 0.343428731
  outer loop
  vertex -0.105003491 -0.00842811726 0.0019591758
  vertex -0.105969228 -0.00957714021 0.00606000004
  vertex -0.104586147 -0.0088111246 0.0019591758
  endloop
 endfacet

 facet normal 0.636092842 0.690891802 0.343590409
  outer loop
  vertex -0.104586147 -0.0088111246 0.0019591758
  vertex -0.105969228 -0.00957714021 0.00606000004
  vertex -0.105648592 -0.00987234898 0.00606000004
  endloop
 endfacet

 facet normal 0.690812707 0.636170328 0.343606204
  outer loop
  vertex -0.104586147 -0.0088111246 0.0019591758
  vertex -0.105648592 -0.00987234898 0.00606000004
  vertex -0.105352126 -0.0101942802 0.00606000004
  endloop
 endfacet

 facet normal 0.694086254 0.632869482 0.343104333
  outer loop
  vertex -0.104586147 -0.0088111246 0.0019591758
  vertex -0.105352126 -0.0101942802 0.00606000004
  vertex -0.104204431 -0.00922976155 0.0019591758
  endloop
 endfacet

 facet normal 0.74303472 0.574613571 0.343101621
  outer loop
  vertex -0.104204431 -0.00922976155 0.0019591758
  vertex -0.105352126 -0.0101942802 0.00606000004
  vertex -0.10385707 -0.00967893656 0.0019591758
  endloop
 endfacet

 facet normal 0.743769407 0.573579729 0.343239546
  outer loop
  vertex -0.10385707 -0.00967893656 0.0019591758
  vertex -0.105352126 -0.0101942802 0.00606000004
  vertex -0.105086192 -0.0105391135 0.00606000004
  endloop
 endfacet

 facet normal 0.792295396 0.504410625 0.343275368
  outer loop
  vertex -0.10385707 -0.00967893656 0.0019591758
  vertex -0.105086192 -0.0105391135 0.00606000004
  vertex -0.104852073 -0.0109068528 0.00606000004
  endloop
 endfacet

 facet normal 0.792691767 0.503838599 0.343200266
  outer loop
  vertex -0.10385707 -0.00967893656 0.0019591758
  vertex -0.104852073 -0.0109068528 0.00606000004
  vertex -0.103552967 -0.0101573784 0.0019591758
  endloop
 endfacet

 facet normal 0.833432794 0.433143198 0.3431862
  outer loop
  vertex -0.103552967 -0.0101573784 0.0019591758
  vertex -0.104852073 -0.0109068528 0.00606000004
  vertex -0.104651041 -0.0112936776 0.00606000004
  endloop
 endfacet

 facet normal 0.833708405 0.432660162 0.343126148
  outer loop
  vertex -0.103552967 -0.0101573784 0.0019591758
  vertex -0.104651041 -0.0112936776 0.00606000004
  vertex -0.10329213 -0.0106599964 0.0019591758
  endloop
 endfacet

 facet normal 0.867541909 0.36005646 0.343118578
  outer loop
  vertex -0.10329213 -0.0106599964 0.0019591758
  vertex -0.104651041 -0.0112936776 0.00606000004
  vertex -0.103074551 -0.0111842463 0.0019591758
  endloop
 endfacet

 facet normal 0.867679238 0.359684527 0.343161434
  outer loop
  vertex -0.103074551 -0.0111842463 0.0019591758
  vertex -0.104651041 -0.0112936776 0.00606000004
  vertex -0.104484357 -0.0116957724 0.00606000004
  endloop
 endfacet

 facet normal 0.895409465 0.283636689 0.34320873
  outer loop
  vertex -0.103074551 -0.0111842463 0.0019591758
  vertex -0.104484357 -0.0116957724 0.00606000004
  vertex -0.102904052 -0.0117224939 0.0019591758
  endloop
 endfacet

 facet normal 0.8958143 0.282153904 0.343374372
  outer loop
  vertex -0.102904052 -0.0117224939 0.0019591758
  vertex -0.104484357 -0.0116957724 0.00606000004
  vertex -0.104353301 -0.0121118641 0.00606000004
  endloop
 endfacet

 facet normal 0.916377485 0.205759794 0.343387932
  outer loop
  vertex -0.102904052 -0.0117224939 0.0019591758
  vertex -0.104353301 -0.0121118641 0.00606000004
  vertex -0.104257874 -0.0125368629 0.00606000004
  endloop
 endfacet

 facet normal 0.916735649 0.204409868 0.343238086
  outer loop
  vertex -0.102904052 -0.0117224939 0.0019591758
  vertex -0.104257874 -0.0125368629 0.00606000004
  vertex -0.102780633 -0.0122760106 0.0019591758
  endloop
 endfacet

 facet normal 0.931263924 0.122197688 0.343242079
  outer loop
  vertex -0.102780633 -0.0122760106 0.0019591758
  vertex -0.104257874 -0.0125368629 0.00606000004
  vertex -0.102706835 -0.0128384335 0.0019591758
  endloop
 endfacet

 facet normal 0.939228654 0 0.343292266
  outer loop
  vertex -0.102681383 -0.0134046748 0.0019591758
  vertex -0.104180254 -0.013405947 0.00606000004
  vertex -0.102681383 -0.013405947 0.0019591758
  endloop
 endfacet

 facet normal 0.938388824 0.0421709679 0.342998415
  outer loop
  vertex -0.102681383 -0.0134046748 0.0019591758
  vertex -0.102706835 -0.0128384335 0.0019591758
  vertex -0.104180254 -0.013405947 0.00606000004
  endloop
 endfacet

 facet normal 0.931654811 0.11782001 0.343711853
  outer loop
  vertex -0.102706835 -0.0128384335 0.0019591758
  vertex -0.104257874 -0.0125368629 0.00606000004
  vertex -0.104203157 -0.0129694957 0.00606000004
  endloop
 endfacet

 facet normal 0.937770545 0.0492123663 0.343750715
  outer loop
  vertex -0.102706835 -0.0128384335 0.0019591758
  vertex -0.104203157 -0.0129694957 0.00606000004
  vertex -0.104180254 -0.013405947 0.00606000004
  endloop
 endfacet

 facet normal 0.938213289 -0.0464865863 0.342921168
  outer loop
  vertex -0.102681383 -0.013405947 0.0019591758
  vertex -0.104180254 -0.013405947 0.00606000004
  vertex -0.102709375 -0.0139709162 0.0019591758
  endloop
 endfacet

 facet normal 0.93794179 -0.0495101027 0.34324035
  outer loop
  vertex -0.102709375 -0.0139709162 0.0019591758
  vertex -0.104180254 -0.013405947 0.00606000004
  vertex -0.104203157 -0.013839853 0.00606000004
  endloop
 endfacet

 facet normal 0.931839943 -0.117843173 0.343201578
  outer loop
  vertex -0.102709375 -0.0139709162 0.0019591758
  vertex -0.104203157 -0.013839853 0.00606000004
  vertex -0.104257874 -0.0142724868 0.00606000004
  endloop
 endfacet

 facet normal -0.744848251 -0.572285414 0.343060464
  outer loop
  vertex -0.114503115 -0.0171329584 0.0019591758
  vertex -0.114157028 -0.0175834056 0.0019591758
  vertex -0.113275267 -0.0162727796 0.00606000004
  endloop
 endfacet

 facet normal -0.74345243 -0.573957562 0.34329474
  outer loop
  vertex -0.113275267 -0.0162727796 0.00606000004
  vertex -0.114157028 -0.0175834056 0.0019591758
  vertex -0.113008067 -0.016618887 0.00606000004
  endloop
 endfacet

 facet normal -0.737919211 -0.674889088 0
  outer loop
  vertex -0.114157028 -0.0175834056 -0.00302961143
  vertex -0.113775313 -0.0180007704 -0.00302961143
  vertex -0.113775313 -0.0180007704 0.0019591758
  endloop
 endfacet

 facet normal -0.737919211 -0.674889088 0
  outer loop
  vertex -0.114157028 -0.0175834056 -0.00302961143
  vertex -0.113775313 -0.0180007704 0.0019591758
  vertex -0.114157028 -0.0175834056 0.0019591758
  endloop
 endfacet

 facet normal 0.800472915 -0.491171181 0.343502522
  outer loop
  vertex -0.104852073 -0.0159037691 0.00606000004
  vertex -0.104886428 -0.0159597564 0.00606000004
  vertex -0.103552967 -0.0166545156 0.0019591758
  endloop
 endfacet

 facet normal 0.793239713 -0.503006101 0.343155563
  outer loop
  vertex -0.103552967 -0.0166545156 0.0019591758
  vertex -0.104886428 -0.0159597564 0.00606000004
  vertex -0.105084918 -0.0162727796 0.00606000004
  endloop
 endfacet

 facet normal 0.792738497 -0.503868401 0.343048602
  outer loop
  vertex -0.103552967 -0.0166545156 0.0019591758
  vertex -0.105084918 -0.0162727796 0.00606000004
  vertex -0.10385707 -0.0171329584 0.0019591758
  endloop
 endfacet

 facet normal 0.794053257 -0.607848167 0
  outer loop
  vertex -0.10385707 -0.0171329584 -0.00302961143
  vertex -0.10385707 -0.0171329584 0.0019591758
  vertex -0.104201891 -0.0175834056 0.0019591758
  endloop
 endfacet

 facet normal 0.794053257 -0.607848167 0
  outer loop
  vertex -0.10385707 -0.0171329584 -0.00302961143
  vertex -0.104201891 -0.0175834056 0.0019591758
  vertex -0.104201891 -0.0175834056 -0.00302961143
  endloop
 endfacet

 facet normal -0.693099976 -0.633898199 0.343198985
  outer loop
  vertex -0.114157028 -0.0175834056 0.0019591758
  vertex -0.113775313 -0.0180007704 0.0019591758
  vertex -0.112714142 -0.0169408172 0.00606000004
  endloop
 endfacet

 facet normal -0.693623424 -0.633278251 0.343286008
  outer loop
  vertex -0.114157028 -0.0175834056 0.0019591758
  vertex -0.112714142 -0.0169408172 0.00606000004
  vertex -0.113008067 -0.016618887 0.00606000004
  endloop
 endfacet

 facet normal -0.675031364 -0.737789035 0
  outer loop
  vertex -0.113775313 -0.0180007704 -0.00302961143
  vertex -0.113356702 -0.0183837768 -0.00302961143
  vertex -0.113356702 -0.0183837768 0.0019591758
  endloop
 endfacet

 facet normal -0.675031364 -0.737789035 0
  outer loop
  vertex -0.113775313 -0.0180007704 -0.00302961143
  vertex -0.113356702 -0.0183837768 0.0019591758
  vertex -0.113775313 -0.0180007704 0.0019591758
  endloop
 endfacet

 facet normal 0.745858133 -0.5709548 0.343083739
  outer loop
  vertex -0.10385707 -0.0171329584 0.0019591758
  vertex -0.105084918 -0.0162727796 0.00606000004
  vertex -0.104201891 -0.0175834056 0.0019591758
  endloop
 endfacet

 facet normal 0.74339354 -0.573912084 0.3434982
  outer loop
  vertex -0.105084918 -0.0162727796 0.00606000004
  vertex -0.105352126 -0.016618887 0.00606000004
  vertex -0.104201891 -0.0175834056 0.0019591758
  endloop
 endfacet

 facet normal 0.736800432 -0.676110268 0
  outer loop
  vertex -0.104201891 -0.0175834056 -0.00302961143
  vertex -0.104201891 -0.0175834056 0.0019591758
  vertex -0.104584873 -0.0180007704 0.0019591758
  endloop
 endfacet

 facet normal 0.736800432 -0.676110268 0
  outer loop
  vertex -0.104201891 -0.0175834056 -0.00302961143
  vertex -0.104584873 -0.0180007704 0.0019591758
  vertex -0.104584873 -0.0180007704 -0.00302961143
  endloop
 endfacet

 facet normal -0.634824693 -0.692250192 0.343201518
  outer loop
  vertex -0.113775313 -0.0180007704 0.0019591758
  vertex -0.112392232 -0.017236026 0.00606000004
  vertex -0.112714142 -0.0169408172 0.00606000004
  endloop
 endfacet

 facet normal -0.634059966 -0.693008482 0.343085021
  outer loop
  vertex -0.113775313 -0.0180007704 0.0019591758
  vertex -0.113356702 -0.0183837768 0.0019591758
  vertex -0.112392232 -0.017236026 0.00606000004
  endloop
 endfacet

 facet normal -0.608972192 -0.793191612 0
  outer loop
  vertex -0.113356702 -0.0183837768 -0.00302961143
  vertex -0.112907544 -0.018728612 -0.00302961143
  vertex -0.112907544 -0.018728612 0.0019591758
  endloop
 endfacet

 facet normal -0.608972192 -0.793191612 0
  outer loop
  vertex -0.113356702 -0.0183837768 -0.00302961143
  vertex -0.112907544 -0.018728612 0.0019591758
  vertex -0.113356702 -0.0183837768 0.0019591758
  endloop
 endfacet

 facet normal 0.693572164 -0.633231521 0.343475819
  outer loop
  vertex -0.104201891 -0.0175834056 0.0019591758
  vertex -0.105352126 -0.016618887 0.00606000004
  vertex -0.105646044 -0.0169408172 0.00606000004
  endloop
 endfacet

 facet normal 0.692043304 -0.635039806 0.3432208
  outer loop
  vertex -0.104201891 -0.0175834056 0.0019591758
  vertex -0.105646044 -0.0169408172 0.00606000004
  vertex -0.104584873 -0.0180007704 0.0019591758
  endloop
 endfacet

 facet normal 0.675031364 -0.737789035 0
  outer loop
  vertex -0.104584873 -0.0180007704 -0.00302961143
  vertex -0.104584873 -0.0180007704 0.0019591758
  vertex -0.105003491 -0.0183837768 0.0019591758
  endloop
 endfacet

 facet normal 0.675031364 -0.737789035 0
  outer loop
  vertex -0.104584873 -0.0180007704 -0.00302961143
  vertex -0.105003491 -0.0183837768 0.0019591758
  vertex -0.105003491 -0.0183837768 -0.00302961143
  endloop
 endfacet

 facet normal -0.572015822 -0.745055616 0.343060017
  outer loop
  vertex -0.112392232 -0.017236026 0.00606000004
  vertex -0.113356702 -0.0183837768 0.0019591758
  vertex -0.112907544 -0.018728612 0.0019591758
  endloop
 endfacet

 facet normal -0.570563078 -0.746080995 0.343250632
  outer loop
  vertex -0.112392232 -0.017236026 0.00606000004
  vertex -0.112907544 -0.018728612 0.0019591758
  vertex -0.112046145 -0.0175006967 0.00606000004
  endloop
 endfacet

 facet normal -0.538055062 -0.842909694 0
  outer loop
  vertex -0.112907544 -0.018728612 -0.00302961143
  vertex -0.112429127 -0.0190340001 -0.00302961143
  vertex -0.112429127 -0.0190340001 0.0019591758
  endloop
 endfacet

 facet normal -0.538055062 -0.842909694 0
  outer loop
  vertex -0.112907544 -0.018728612 -0.00302961143
  vertex -0.112429127 -0.0190340001 0.0019591758
  vertex -0.112907544 -0.018728612 0.0019591758
  endloop
 endfacet

 facet normal 0.634824753 -0.692250192 0.343201667
  outer loop
  vertex -0.104584873 -0.0180007704 0.0019591758
  vertex -0.105646044 -0.0169408172 0.00606000004
  vertex -0.105967961 -0.017236026 0.00606000004
  endloop
 endfacet

 facet normal 0.634059906 -0.693008423 0.34308514
  outer loop
  vertex -0.104584873 -0.0180007704 0.0019591758
  vertex -0.105967961 -0.017236026 0.00606000004
  vertex -0.105003491 -0.0183837768 0.0019591758
  endloop
 endfacet

 facet normal 0.608971357 -0.793192267 0
  outer loop
  vertex -0.105003491 -0.0183837768 -0.00302961143
  vertex -0.105003491 -0.0183837768 0.0019591758
  vertex -0.105452642 -0.018728612 0.0019591758
  endloop
 endfacet

 facet normal 0.608971357 -0.793192267 0
  outer loop
  vertex -0.105003491 -0.0183837768 -0.00302961143
  vertex -0.105452642 -0.018728612 0.0019591758
  vertex -0.105452642 -0.018728612 -0.00302961143
  endloop
 endfacet

 facet normal -0.505371213 -0.791707635 0.343218744
  outer loop
  vertex -0.112907544 -0.018728612 0.0019591758
  vertex -0.112429127 -0.0190340001 0.0019591758
  vertex -0.112046145 -0.0175006967 0.00606000004
  endloop
 endfacet

 facet normal -0.504437566 -0.792252302 0.343335211
  outer loop
  vertex -0.112046145 -0.0175006967 0.00606000004
  vertex -0.112429127 -0.0190340001 0.0019591758
  vertex -0.111678421 -0.0177348275 0.00606000004
  endloop
 endfacet

 facet normal -0.462430209 -0.886655748 0
  outer loop
  vertex -0.112429127 -0.0190340001 -0.00302961143
  vertex -0.111926541 -0.0192961246 -0.00302961143
  vertex -0.111926541 -0.0192961246 0.0019591758
  endloop
 endfacet

 facet normal -0.462430209 -0.886655748 0
  outer loop
  vertex -0.112429127 -0.0190340001 -0.00302961143
  vertex -0.111926541 -0.0192961246 0.0019591758
  vertex -0.112429127 -0.0190340001 0.0019591758
  endloop
 endfacet

 facet normal 0.572015047 -0.745056152 0.343060136
  outer loop
  vertex -0.105003491 -0.0183837768 0.0019591758
  vertex -0.105967961 -0.017236026 0.00606000004
  vertex -0.105452642 -0.018728612 0.0019591758
  endloop
 endfacet

 facet normal 0.570563078 -0.746080995 0.343250632
  outer loop
  vertex -0.105967961 -0.017236026 0.00606000004
  vertex -0.106314048 -0.0175006967 0.00606000004
  vertex -0.105452642 -0.018728612 0.0019591758
  endloop
 endfacet

 facet normal 0.538056552 -0.8429088 0
  outer loop
  vertex -0.105452642 -0.018728612 -0.00302961143
  vertex -0.105452642 -0.018728612 0.0019591758
  vertex -0.105931059 -0.0190340001 0.0019591758
  endloop
 endfacet

 facet normal 0.538056552 -0.8429088 0
  outer loop
  vertex -0.105452642 -0.018728612 -0.00302961143
  vertex -0.105931059 -0.0190340001 0.0019591758
  vertex -0.105931059 -0.0190340001 -0.00302961143
  endloop
 endfacet

 facet normal -0.434320807 -0.83275944 0.34333244
  outer loop
  vertex -0.112429127 -0.0190340001 0.0019591758
  vertex -0.111926541 -0.0192961246 0.0019591758
  vertex -0.111678421 -0.0177348275 0.00606000004
  endloop
 endfacet

 facet normal -0.433128119 -0.833321929 0.343474448
  outer loop
  vertex -0.111678421 -0.0177348275 0.00606000004
  vertex -0.111926541 -0.0192961246 0.0019591758
  vertex -0.111291617 -0.0179358739 0.00606000004
  endloop
 endfacet

 facet normal -0.380656183 -0.924716771 0
  outer loop
  vertex -0.111926541 -0.0192961246 -0.00302961143
  vertex -0.111401044 -0.0195124429 -0.00302961143
  vertex -0.111401044 -0.0195124429 0.0019591758
  endloop
 endfacet

 facet normal -0.380656183 -0.924716771 0
  outer loop
  vertex -0.111926541 -0.0192961246 -0.00302961143
  vertex -0.111401044 -0.0195124429 0.0019591758
  vertex -0.111926541 -0.0192961246 0.0019591758
  endloop
 endfacet

 facet normal 0.505372524 -0.791706741 0.343218744
  outer loop
  vertex -0.105452642 -0.018728612 0.0019591758
  vertex -0.106314048 -0.0175006967 0.00606000004
  vertex -0.105931059 -0.0190340001 0.0019591758
  endloop
 endfacet

 facet normal 0.504437566 -0.792252243 0.34333539
  outer loop
  vertex -0.106314048 -0.0175006967 0.00606000004
  vertex -0.106681764 -0.0177348275 0.00606000004
  vertex -0.105931059 -0.0190340001 0.0019591758
  endloop
 endfacet

 facet normal 0.462428778 -0.886656404 0
  outer loop
  vertex -0.105931059 -0.0190340001 -0.00302961143
  vertex -0.105931059 -0.0190340001 0.0019591758
  vertex -0.106433652 -0.0192961246 0.0019591758
  endloop
 endfacet

 facet normal 0.462428778 -0.886656404 0
  outer loop
  vertex -0.105931059 -0.0190340001 -0.00302961143
  vertex -0.106433652 -0.0192961246 0.0019591758
  vertex -0.106433652 -0.0192961246 -0.00302961143
  endloop
 endfacet

 facet normal -0.357535183 -0.868549585 0.34320578
  outer loop
  vertex -0.111926541 -0.0192961246 0.0019591758
  vertex -0.111401044 -0.0195124429 0.0019591758
  vertex -0.110889547 -0.0181025658 0.00606000004
  endloop
 endfacet

 facet normal -0.359675169 -0.867564917 0.343460351
  outer loop
  vertex -0.111926541 -0.0192961246 0.0019591758
  vertex -0.110889547 -0.0181025658 0.00606000004
  vertex -0.111291617 -0.0179358739 0.00606000004
  endloop
 endfacet

 facet normal -0.301358193 -0.953511119 0
  outer loop
  vertex -0.111401044 -0.0195124429 -0.00302961143
  vertex -0.110861555 -0.0196829494 -0.00302961143
  vertex -0.110861555 -0.0196829494 0.0019591758
  endloop
 endfacet

 facet normal -0.301358193 -0.953511119 0
  outer loop
  vertex -0.111401044 -0.0195124429 -0.00302961143
  vertex -0.110861555 -0.0196829494 0.0019591758
  vertex -0.111401044 -0.0195124429 0.0019591758
  endloop
 endfacet

 facet normal 0.434319586 -0.832760036 0.343332618
  outer loop
  vertex -0.105931059 -0.0190340001 0.0019591758
  vertex -0.106681764 -0.0177348275 0.00606000004
  vertex -0.106433652 -0.0192961246 0.0019591758
  endloop
 endfacet

 facet normal 0.433128119 -0.833321929 0.343474448
  outer loop
  vertex -0.106681764 -0.0177348275 0.00606000004
  vertex -0.107068568 -0.0179358739 0.00606000004
  vertex -0.106433652 -0.0192961246 0.0019591758
  endloop
 endfacet

 facet normal 0.380656183 -0.924716771 0
  outer loop
  vertex -0.106433652 -0.0192961246 -0.00302961143
  vertex -0.106433652 -0.0192961246 0.0019591758
  vertex -0.106959149 -0.0195124429 0.0019591758
  endloop
 endfacet

 facet normal 0.380656183 -0.924716771 0
  outer loop
  vertex -0.106433652 -0.0192961246 -0.00302961143
  vertex -0.106959149 -0.0195124429 0.0019591758
  vertex -0.106959149 -0.0195124429 -0.00302961143
  endloop
 endfacet

 facet normal -0.283070624 -0.895648599 0.343051851
  outer loop
  vertex -0.111401044 -0.0195124429 0.0019591758
  vertex -0.110861555 -0.0196829494 0.0019591758
  vertex -0.110473476 -0.0182349011 0.00606000004
  endloop
 endfacet

 facet normal -0.284685433 -0.895066202 0.343235701
  outer loop
  vertex -0.111401044 -0.0195124429 0.0019591758
  vertex -0.110473476 -0.0182349011 0.00606000004
  vertex -0.110889547 -0.0181025658 0.00606000004
  endloop
 endfacet

 facet normal -0.217178807 -0.976131856 0
  outer loop
  vertex -0.110861555 -0.0196829494 -0.00302961143
  vertex -0.110306792 -0.0198063776 -0.00302961143
  vertex -0.110306792 -0.0198063776 0.0019591758
  endloop
 endfacet

 facet normal -0.217178807 -0.976131856 0
  outer loop
  vertex -0.110861555 -0.0196829494 -0.00302961143
  vertex -0.110306792 -0.0198063776 0.0019591758
  vertex -0.110861555 -0.0196829494 0.0019591758
  endloop
 endfacet

 facet normal 0.359675169 -0.867564917 0.343460351
  outer loop
  vertex -0.106433652 -0.0192961246 0.0019591758
  vertex -0.107068568 -0.0179358739 0.00606000004
  vertex -0.107470647 -0.0181025658 0.00606000004
  endloop
 endfacet

 facet normal 0.357535183 -0.868549585 0.34320578
  outer loop
  vertex -0.106433652 -0.0192961246 0.0019591758
  vertex -0.107470647 -0.0181025658 0.00606000004
  vertex -0.106959149 -0.0195124429 0.0019591758
  endloop
 endfacet

 facet normal 0.301358193 -0.953511119 0
  outer loop
  vertex -0.106959149 -0.0195124429 -0.00302961143
  vertex -0.106959149 -0.0195124429 0.0019591758
  vertex -0.107498638 -0.0196829494 0.0019591758
  endloop
 endfacet

 facet normal 0.301358193 -0.953511119 0
  outer loop
  vertex -0.106959149 -0.0195124429 -0.00302961143
  vertex -0.107498638 -0.0196829494 0.0019591758
  vertex -0.107498638 -0.0196829494 -0.00302961143
  endloop
 endfacet

 facet normal -0.203998238 -0.916890383 0.343069643
  outer loop
  vertex -0.110861555 -0.0196829494 0.0019591758
  vertex -0.110306792 -0.0198063776 0.0019591758
  vertex -0.110473476 -0.0182349011 0.00606000004
  endloop
 endfacet

 facet normal -0.202602476 -0.917142391 0.343222946
  outer loop
  vertex -0.110473476 -0.0182349011 0.00606000004
  vertex -0.110306792 -0.0198063776 0.0019591758
  vertex -0.110047229 -0.0183290616 0.00606000004
  endloop
 endfacet

 facet normal -0.13040489 -0.991460919 0
  outer loop
  vertex -0.110306792 -0.0198063776 -0.00302961143
  vertex -0.109745674 -0.0198801812 -0.00302961143
  vertex -0.109745674 -0.0198801812 0.0019591758
  endloop
 endfacet

 facet normal -0.13040489 -0.991460919 0
  outer loop
  vertex -0.110306792 -0.0198063776 -0.00302961143
  vertex -0.109745674 -0.0198801812 0.0019591758
  vertex -0.110306792 -0.0198063776 0.0019591758
  endloop
 endfacet

 facet normal 0.284685433 -0.895066202 0.343235701
  outer loop
  vertex -0.107470647 -0.0181025658 0.00606000004
  vertex -0.107886717 -0.0182349011 0.00606000004
  vertex -0.106959149 -0.0195124429 0.0019591758
  endloop
 endfacet

 facet normal 0.283070624 -0.895648599 0.343051851
  outer loop
  vertex -0.106959149 -0.0195124429 0.0019591758
  vertex -0.107886717 -0.0182349011 0.00606000004
  vertex -0.107498638 -0.0196829494 0.0019591758
  endloop
 endfacet

 facet normal 0.217654392 -0.976025939 0
  outer loop
  vertex -0.107498638 -0.0196829494 -0.00302961143
  vertex -0.107498638 -0.0196829494 0.0019591758
  vertex -0.108052127 -0.0198063776 0.0019591758
  endloop
 endfacet

 facet normal 0.217654392 -0.976025939 0
  outer loop
  vertex -0.107498638 -0.0196829494 -0.00302961143
  vertex -0.108052127 -0.0198063776 0.0019591758
  vertex -0.108052127 -0.0198063776 -0.00302961143
  endloop
 endfacet

 facet normal -0.122486524 -0.931258082 0.343155414
  outer loop
  vertex -0.110306792 -0.0198063776 0.0019591758
  vertex -0.109745674 -0.0198801812 0.0019591758
  vertex -0.109614611 -0.018386323 0.00606000004
  endloop
 endfacet

 facet normal -0.123243675 -0.931127667 0.343238056
  outer loop
  vertex -0.110306792 -0.0198063776 0.0019591758
  vertex -0.109614611 -0.018386323 0.00606000004
  vertex -0.110047229 -0.0183290616 0.00606000004
  endloop
 endfacet

 facet normal -0.0450009406 -0.998986959 0
  outer loop
  vertex -0.109745674 -0.0198801812 -0.00302961143
  vertex -0.109180734 -0.0199056286 -0.00302961143
  vertex -0.109180734 -0.0199056286 0.0019591758
  endloop
 endfacet

 facet normal -0.0450009406 -0.998986959 0
  outer loop
  vertex -0.109745674 -0.0198801812 -0.00302961143
  vertex -0.109180734 -0.0199056286 0.0019591758
  vertex -0.109745674 -0.0198801812 0.0019591758
  endloop
 endfacet

 facet normal 0.20259811 -0.917122602 0.343278438
  outer loop
  vertex -0.107886717 -0.0182349011 0.00606000004
  vertex -0.108312964 -0.0183290616 0.00606000004
  vertex -0.108052127 -0.0198063776 0.0019591758
  endloop
 endfacet

 facet normal 0.204444438 -0.916788578 0.343075931
  outer loop
  vertex -0.107886717 -0.0182349011 0.00606000004
  vertex -0.108052127 -0.0198063776 0.0019591758
  vertex -0.107498638 -0.0196829494 0.0019591758
  endloop
 endfacet

 facet normal 0.130114883 -0.991498947 0
  outer loop
  vertex -0.108052127 -0.0198063776 -0.00302961143
  vertex -0.108052127 -0.0198063776 0.0019591758
  vertex -0.108614519 -0.0198801812 0.0019591758
  endloop
 endfacet

 facet normal 0.130114883 -0.991498947 0
  outer loop
  vertex -0.108052127 -0.0198063776 -0.00302961143
  vertex -0.108614519 -0.0198801812 0.0019591758
  vertex -0.108614519 -0.0198801812 -0.00302961143
  endloop
 endfacet

 facet normal -0.0422682613 -0.938323438 0.343165547
  outer loop
  vertex -0.109745674 -0.0198801812 0.0019591758
  vertex -0.109180734 -0.0199056286 0.0019591758
  vertex -0.109614611 -0.018386323 0.00606000004
  endloop
 endfacet

 facet normal -0.038523864 -0.938337743 0.343567014
  outer loop
  vertex -0.109614611 -0.018386323 0.00606000004
  vertex -0.109180734 -0.0199056286 0.0019591758
  vertex -0.109180734 -0.0184041355 0.00606000004
  endloop
 endfacet

 facet normal 0.0449000299 -0.998991489 0
  outer loop
  vertex -0.109180734 -0.0199056286 -0.00302961143
  vertex -0.108614519 -0.0198801812 -0.00302961143
  vertex -0.108614519 -0.0198801812 0.0019591758
  endloop
 endfacet

 facet normal 0.0449000299 -0.998991489 0
  outer loop
  vertex -0.109180734 -0.0199056286 -0.00302961143
  vertex -0.108614519 -0.0198801812 0.0019591758
  vertex -0.109180734 -0.0199056286 0.0019591758
  endloop
 endfacet

 facet normal 0.12324205 -0.931115389 0.343271792
  outer loop
  vertex -0.108312964 -0.0183290616 0.00606000004
  vertex -0.108745575 -0.018386323 0.00606000004
  vertex -0.108052127 -0.0198063776 0.0019591758
  endloop
 endfacet

 facet normal 0.122213945 -0.931292415 0.343159199
  outer loop
  vertex -0.108052127 -0.0198063776 0.0019591758
  vertex -0.108745575 -0.018386323 0.00606000004
  vertex -0.108614519 -0.0198801812 0.0019591758
  endloop
 endfacet

 facet normal 0.0421735011 -0.938328207 0.343164295
  outer loop
  vertex -0.109180734 -0.0199056286 0.0019591758
  vertex -0.108614519 -0.0198801812 0.0019591758
  vertex -0.108745575 -0.018386323 0.00606000004
  endloop
 endfacet

 facet normal 0.0384113938 -0.938341796 0.343568504
  outer loop
  vertex -0.109180734 -0.0199056286 0.0019591758
  vertex -0.108745575 -0.018386323 0.00606000004
  vertex -0.109180734 -0.0184041355 0.00606000004
  endloop
 endfacet

endsolid AssimpScene
