solid AssimpScene
 facet normal 0 0 1
  outer loop
  vertex -0.15536429 -0.00895767566 0.0139800003
  vertex -0.159363911 -0.00895767566 0.0139800003
  vertex -0.159363911 -0.0120039256 0.0139800003
  endloop
 endfacet

 facet normal 0 0 1
  outer loop
  vertex -0.15536429 -0.00895767566 0.0139800003
  vertex -0.159363911 -0.0120039256 0.0139800003
  vertex -0.15536429 -0.0120039256 0.0139800003
  endloop
 endfacet

 facet normal 1 0 0
  outer loop
  vertex -0.15536429 -0.00895767566 0.0139800003
  vertex -0.15536429 -0.0120039256 0.0139800003
  vertex -0.15536429 -0.0120039256 0.00598000037
  endloop
 endfacet

 facet normal 1 0 0
  outer loop
  vertex -0.15536429 -0.00895767566 0.0139800003
  vertex -0.15536429 -0.0120039256 0.00598000037
  vertex -0.15536429 -0.0120018348 -0.00201999955
  endloop
 endfacet

 facet normal 1 0 0
  outer loop
  vertex -0.15536429 -0.00895767566 0.0139800003
  vertex -0.15536429 -0.0120018348 -0.00201999955
  vertex -0.15536429 -0.00895289704 -0.00201999955
  endloop
 endfacet

 facet normal 1 0 0
  outer loop
  vertex -0.15536429 -0.00895767566 0.0139800003
  vertex -0.15536429 -0.00895289704 -0.00201999955
  vertex -0.15536429 -0.00895289704 0.00597843435
  endloop
 endfacet

 facet normal 0 0.999999881 0.000597270555
  outer loop
  vertex -0.15536429 -0.00895767566 0.0139800003
  vertex -0.15536429 -0.00895289704 0.00597843435
  vertex -0.159363911 -0.00895289704 0.00597843435
  endloop
 endfacet

 facet normal 0 0.999999881 0.000597270555
  outer loop
  vertex -0.15536429 -0.00895767566 0.0139800003
  vertex -0.159363911 -0.00895289704 0.00597843435
  vertex -0.159363911 -0.00895767566 0.0139800003
  endloop
 endfacet

 facet normal -1.8701201e-05 0.999999881 0.000597270555
  outer loop
  vertex -0.159363911 -0.00895767566 0.0139800003
  vertex -0.159363911 -0.00895289704 0.00597843435
  vertex -0.1603643 -0.00895767566 0.0139486771
  endloop
 endfacet

 facet normal -0.0312957726 0 0.999510229
  outer loop
  vertex -0.159363911 -0.00895767566 0.0139800003
  vertex -0.1603643 -0.00895767566 0.0139486771
  vertex -0.159363911 -0.0120039256 0.0139800003
  endloop
 endfacet

 facet normal 0 -1 0
  outer loop
  vertex -0.15536429 -0.0120039256 0.0139800003
  vertex -0.159363911 -0.0120039256 0.0139800003
  vertex -0.159365863 -0.0120039256 0.00597843435
  endloop
 endfacet

 facet normal 0 -1 0
  outer loop
  vertex -0.15536429 -0.0120039256 0.0139800003
  vertex -0.159365863 -0.0120039256 0.00597843435
  vertex -0.156170383 -0.0120039256 0.00597843435
  endloop
 endfacet

 facet normal 0 -1 0
  outer loop
  vertex -0.15536429 -0.0120039256 0.0139800003
  vertex -0.156170383 -0.0120039256 0.00597843435
  vertex -0.15536429 -0.0120039256 0.00598000037
  endloop
 endfacet

 facet normal 0 1 0
  outer loop
  vertex -0.15536429 -0.00895289704 0.00597843435
  vertex -0.15536429 -0.00895289704 -0.00201999955
  vertex -0.159363911 -0.00895289704 -0.00201999955
  endloop
 endfacet

 facet normal 0 1 0
  outer loop
  vertex -0.15536429 -0.00895289704 0.00597843435
  vertex -0.159363911 -0.00895289704 -0.00201999955
  vertex -0.1603643 -0.00895289704 -0.00199494045
  endloop
 endfacet

 facet normal 0 1 0
  outer loop
  vertex -0.15536429 -0.00895289704 0.00597843435
  vertex -0.1603643 -0.00895289704 -0.00199494045
  vertex -0.1603643 -0.00895289704 0.00132690743
  endloop
 endfacet

 facet normal 0 1 0
  outer loop
  vertex -0.15536429 -0.00895289704 0.00597843435
  vertex -0.1603643 -0.00895289704 0.00132690743
  vertex -0.159363911 -0.00895289704 0.00597843435
  endloop
 endfacet

 facet normal -0.914972067 -0.297677159 0.272423506
  outer loop
  vertex -0.159363911 -0.0120039256 0.0139800003
  vertex -0.1603643 -0.00895767566 0.0139486771
  vertex -0.1603643 -0.00919273868 0.0136918249
  endloop
 endfacet

 facet normal -0.92331785 -0.304597139 0.233890682
  outer loop
  vertex -0.159363911 -0.0120039256 0.0139800003
  vertex -0.1603643 -0.00919273868 0.0136918249
  vertex -0.1603643 -0.00983012374 0.0128617538
  endloop
 endfacet

 facet normal -0.92493844 -0.320640028 0.204154059
  outer loop
  vertex -0.159363911 -0.0120039256 0.0139800003
  vertex -0.1603643 -0.00983012374 0.0128617538
  vertex -0.1603643 -0.0103925401 0.0119784344
  endloop
 endfacet

 facet normal -0.920327544 -0.346905291 0.18070434
  outer loop
  vertex -0.159363911 -0.0120039256 0.0139800003
  vertex -0.1603643 -0.0103925401 0.0119784344
  vertex -0.1603643 -0.0108755082 0.0110512609
  endloop
 endfacet

 facet normal -0.907591522 -0.387949169 0.160540149
  outer loop
  vertex -0.159363911 -0.0120039256 0.0139800003
  vertex -0.1603643 -0.0108755082 0.0110512609
  vertex -0.1603643 -0.0112760402 0.010083368
  endloop
 endfacet

 facet normal -0.881309927 -0.450674385 0.142075822
  outer loop
  vertex -0.159363911 -0.0120039256 0.0139800003
  vertex -0.1603643 -0.0112760402 0.010083368
  vertex -0.1603643 -0.0115905507 0.00908571668
  endloop
 endfacet

 facet normal -0.825423837 -0.551135778 0.122167632
  outer loop
  vertex -0.159363911 -0.0120039256 0.0139800003
  vertex -0.1603643 -0.0115905507 0.00908571668
  vertex -0.1603643 -0.0118172504 0.00806300715
  endloop
 endfacet

 facet normal -0.691604257 -0.716089189 0.0943384394
  outer loop
  vertex -0.159363911 -0.0120039256 0.0139800003
  vertex -0.1603643 -0.0118172504 0.00806300715
  vertex -0.1603643 -0.0119540459 0.00702463649
  endloop
 endfacet

 facet normal -0.333426863 -0.94187516 0.0412024148
  outer loop
  vertex -0.159363911 -0.0120039256 0.0139800003
  vertex -0.1603643 -0.0119540459 0.00702463649
  vertex -0.1603643 -0.011999744 0.00598000037
  endloop
 endfacet

 facet normal -0.00418837415 -0.999991179 1.02475462e-06
  outer loop
  vertex -0.159363911 -0.0120039256 0.0139800003
  vertex -0.1603643 -0.011999744 0.00598000037
  vertex -0.159365863 -0.0120039256 0.00597843435
  endloop
 endfacet

 facet normal -0.0017605559 0.99999845 0.000378638855
  outer loop
  vertex -0.159363911 -0.00895289704 0.00597843435
  vertex -0.1603643 -0.00895289704 0.00132690743
  vertex -0.1603643 -0.00895767566 0.0139486771
  endloop
 endfacet

 facet normal -1 0 0
  outer loop
  vertex -0.1603643 -0.00895767566 0.0139486771
  vertex -0.1603643 -0.00895289704 0.00132690743
  vertex -0.1603643 -0.00895289704 -0.00199494045
  endloop
 endfacet

 facet normal -1 0 0
  outer loop
  vertex -0.1603643 -0.00895767566 0.0139486771
  vertex -0.1603643 -0.00895289704 -0.00199494045
  vertex -0.1603643 -0.00919273868 -0.00173182355
  endloop
 endfacet

 facet normal -1 0 0
  outer loop
  vertex -0.1603643 -0.00895767566 0.0139486771
  vertex -0.1603643 -0.00919273868 -0.00173182355
  vertex -0.1603643 -0.00983012374 -0.000901753141
  endloop
 endfacet

 facet normal -1 0 0
  outer loop
  vertex -0.1603643 -0.00895767566 0.0139486771
  vertex -0.1603643 -0.00983012374 -0.000901753141
  vertex -0.1603643 -0.0103925401 -1.84331984e-05
  endloop
 endfacet

 facet normal -1 0 0
  outer loop
  vertex -0.1603643 -0.00895767566 0.0139486771
  vertex -0.1603643 -0.0103925401 -1.84331984e-05
  vertex -0.1603643 -0.0108752092 0.000910306117
  endloop
 endfacet

 facet normal -1 0 0
  outer loop
  vertex -0.1603643 -0.00895767566 0.0139486771
  vertex -0.1603643 -0.0108752092 0.000910306117
  vertex -0.1603643 -0.0112760402 0.00187663327
  endloop
 endfacet

 facet normal -1 0 0
  outer loop
  vertex -0.1603643 -0.00895767566 0.0139486771
  vertex -0.1603643 -0.0112760402 0.00187663327
  vertex -0.1603643 -0.0115908505 0.00287428405
  endloop
 endfacet

 facet normal -1 0 0
  outer loop
  vertex -0.1603643 -0.00895767566 0.0139486771
  vertex -0.1603643 -0.0115908505 0.00287428405
  vertex -0.1603643 -0.0118175484 0.00389699358
  endloop
 endfacet

 facet normal -1 0 0
  outer loop
  vertex -0.1603643 -0.00895767566 0.0139486771
  vertex -0.1603643 -0.0118175484 0.00389699358
  vertex -0.1603643 -0.0119540459 0.00493379869
  endloop
 endfacet

 facet normal -1 0 0
  outer loop
  vertex -0.1603643 -0.00895767566 0.0139486771
  vertex -0.1603643 -0.0119540459 0.00493379869
  vertex -0.1603643 -0.011999744 0.00597843435
  endloop
 endfacet

 facet normal -1 0 0
  outer loop
  vertex -0.1603643 -0.00895767566 0.0139486771
  vertex -0.1603643 -0.011999744 0.00597843435
  vertex -0.1603643 -0.011999744 0.00598000037
  endloop
 endfacet

 facet normal -1 0 0
  outer loop
  vertex -0.1603643 -0.00895767566 0.0139486771
  vertex -0.1603643 -0.011999744 0.00598000037
  vertex -0.1603643 -0.0119540459 0.00702463649
  endloop
 endfacet

 facet normal -1 0 0
  outer loop
  vertex -0.1603643 -0.00895767566 0.0139486771
  vertex -0.1603643 -0.0119540459 0.00702463649
  vertex -0.1603643 -0.0118172504 0.00806300715
  endloop
 endfacet

 facet normal -1 0 0
  outer loop
  vertex -0.1603643 -0.00895767566 0.0139486771
  vertex -0.1603643 -0.0118172504 0.00806300715
  vertex -0.1603643 -0.0115905507 0.00908571668
  endloop
 endfacet

 facet normal -1 0 0
  outer loop
  vertex -0.1603643 -0.00895767566 0.0139486771
  vertex -0.1603643 -0.0115905507 0.00908571668
  vertex -0.1603643 -0.0112760402 0.010083368
  endloop
 endfacet

 facet normal -1 0 0
  outer loop
  vertex -0.1603643 -0.00895767566 0.0139486771
  vertex -0.1603643 -0.0112760402 0.010083368
  vertex -0.1603643 -0.0108755082 0.0110512609
  endloop
 endfacet

 facet normal -1 0 0
  outer loop
  vertex -0.1603643 -0.00895767566 0.0139486771
  vertex -0.1603643 -0.0108755082 0.0110512609
  vertex -0.1603643 -0.0103925401 0.0119784344
  endloop
 endfacet

 facet normal -1 0 0
  outer loop
  vertex -0.1603643 -0.00895767566 0.0139486771
  vertex -0.1603643 -0.0103925401 0.0119784344
  vertex -0.1603643 -0.00983012374 0.0128617538
  endloop
 endfacet

 facet normal -1 0 0
  outer loop
  vertex -0.1603643 -0.00895767566 0.0139486771
  vertex -0.1603643 -0.00983012374 0.0128617538
  vertex -0.1603643 -0.00919273868 0.0136918249
  endloop
 endfacet

 facet normal 5.07814661e-07 -0.99999994 -0.000261366367
  outer loop
  vertex -0.15536429 -0.0120039256 0.00598000037
  vertex -0.156170383 -0.0120039256 0.00597843435
  vertex -0.15536429 -0.0120018348 -0.00201999955
  endloop
 endfacet

 facet normal 0 0 -1
  outer loop
  vertex -0.15536429 -0.00895289704 -0.00201999955
  vertex -0.15536429 -0.0120018348 -0.00201999955
  vertex -0.159363911 -0.0120018348 -0.00201999955
  endloop
 endfacet

 facet normal 0 0 -1
  outer loop
  vertex -0.15536429 -0.00895289704 -0.00201999955
  vertex -0.159363911 -0.0120018348 -0.00201999955
  vertex -0.159363911 -0.00895289704 -0.00201999955
  endloop
 endfacet

 facet normal -0.00418837601 -0.999991179 0
  outer loop
  vertex -0.1603643 -0.011999744 0.00598000037
  vertex -0.1603643 -0.011999744 0.00597843435
  vertex -0.159365863 -0.0120039256 0.00597843435
  endloop
 endfacet

 facet normal -0.00418837601 -0.999991119 -0.000262440357
  outer loop
  vertex -0.159365863 -0.0120039256 0.00597843435
  vertex -0.1603643 -0.011999744 0.00597843435
  vertex -0.159363911 -0.0120018348 -0.00201999955
  endloop
 endfacet

 facet normal 0 -0.99999994 -0.000261417532
  outer loop
  vertex -0.159365863 -0.0120039256 0.00597843435
  vertex -0.159363911 -0.0120018348 -0.00201999955
  vertex -0.15536429 -0.0120018348 -0.00201999955
  endloop
 endfacet

 facet normal 0 -0.99999994 -0.000261417532
  outer loop
  vertex -0.159365863 -0.0120039256 0.00597843435
  vertex -0.15536429 -0.0120018348 -0.00201999955
  vertex -0.156170383 -0.0120039256 0.00597843435
  endloop
 endfacet

 facet normal -0.025041271 0 -0.99968642
  outer loop
  vertex -0.159363911 -0.00895289704 -0.00201999955
  vertex -0.159363911 -0.0120018348 -0.00201999955
  vertex -0.1603643 -0.00895289704 -0.00199494045
  endloop
 endfacet

 facet normal -0.331617922 -0.942512393 -0.0412302874
  outer loop
  vertex -0.1603643 -0.011999744 0.00597843435
  vertex -0.1603643 -0.0119540459 0.00493379869
  vertex -0.159363911 -0.0120018348 -0.00201999955
  endloop
 endfacet

 facet normal -0.690518558 -0.717126608 -0.0944116935
  outer loop
  vertex -0.159363911 -0.0120018348 -0.00201999955
  vertex -0.1603643 -0.0119540459 0.00493379869
  vertex -0.1603643 -0.0118175484 0.00389699358
  endloop
 endfacet

 facet normal -0.825002611 -0.551736832 -0.122300223
  outer loop
  vertex -0.159363911 -0.0120018348 -0.00201999955
  vertex -0.1603643 -0.0118175484 0.00389699358
  vertex -0.1603643 -0.0115908505 0.00287428405
  endloop
 endfacet

 facet normal -0.881200075 -0.450830698 -0.142260328
  outer loop
  vertex -0.159363911 -0.0120018348 -0.00201999955
  vertex -0.1603643 -0.0115908505 0.00287428405
  vertex -0.1603643 -0.0112760402 0.00187663327
  endloop
 endfacet

 facet normal -0.907654226 -0.387689531 -0.160812795
  outer loop
  vertex -0.159363911 -0.0120018348 -0.00201999955
  vertex -0.1603643 -0.0112760402 0.00187663327
  vertex -0.1603643 -0.0108752092 0.000910306117
  endloop
 endfacet

 facet normal -0.920157909 -0.347429693 -0.180560336
  outer loop
  vertex -0.159363911 -0.0120018348 -0.00201999955
  vertex -0.1603643 -0.0108752092 0.000910306117
  vertex -0.1603643 -0.0103925401 -1.84331984e-05
  endloop
 endfacet

 facet normal -0.924841583 -0.320838869 -0.204280704
  outer loop
  vertex -0.159363911 -0.0120018348 -0.00201999955
  vertex -0.1603643 -0.0103925401 -1.84331984e-05
  vertex -0.1603643 -0.00983012374 -0.000901753141
  endloop
 endfacet

 facet normal -0.923223853 -0.304776251 -0.23402822
  outer loop
  vertex -0.159363911 -0.0120018348 -0.00201999955
  vertex -0.1603643 -0.00983012374 -0.000901753141
  vertex -0.1603643 -0.00919273868 -0.00173182355
  endloop
 endfacet

 facet normal -0.915088832 -0.298019081 -0.271655947
  outer loop
  vertex -0.159363911 -0.0120018348 -0.00201999955
  vertex -0.1603643 -0.00919273868 -0.00173182355
  vertex -0.1603643 -0.00895289704 -0.00199494045
  endloop
 endfacet

endsolid AssimpScene
