solid AssimpScene
 facet normal 0.00118756108 0.988244057 -0.152879953
  outer loop
  vertex -0.00255150697 -0.0063820323 -0.0256223306
  vertex -0.00192365632 -0.00638278667 -0.0256223306
  vertex -0.00255150697 -0.00685396371 -0.028672982
  endloop
 endfacet

 facet normal -0.0158533584 0.988120556 -0.15286085
  outer loop
  vertex -0.00255150697 -0.0063820323 -0.0256223306
  vertex -0.00255150697 -0.00685396371 -0.028672982
  vertex -0.00288092159 -0.00638731755 -0.0256223306
  endloop
 endfacet

 facet normal 0 0 1
  outer loop
  vertex -0.00255150697 -0.0063820323 -0.0256223306
  vertex -0.00288092159 -0.00638731755 -0.0256223306
  vertex -0.00349441636 -0.00641827658 -0.0256223306
  endloop
 endfacet

 facet normal 0 0 1
  outer loop
  vertex -0.00255150697 -0.0063820323 -0.0256223306
  vertex -0.00349441636 -0.00641827658 -0.0256223306
  vertex -0.00405275822 -0.0065541924 -0.0256223306
  endloop
 endfacet

 facet normal 0 0 1
  outer loop
  vertex -0.00255150697 -0.0063820323 -0.0256223306
  vertex -0.00405275822 -0.0065541924 -0.0256223306
  vertex -0.00477731833 -0.00709257182 -0.0256223306
  endloop
 endfacet

 facet normal 0 0 1
  outer loop
  vertex -0.00255150697 -0.0063820323 -0.0256223306
  vertex -0.00477731833 -0.00709257182 -0.0256223306
  vertex -0.00539005781 -0.00771929743 -0.0256223306
  endloop
 endfacet

 facet normal 0 0 1
  outer loop
  vertex -0.00255150697 -0.0063820323 -0.0256223306
  vertex -0.00539005781 -0.00771929743 -0.0256223306
  vertex -0.00592044415 -0.00845475588 -0.0256223306
  endloop
 endfacet

 facet normal 0 0 1
  outer loop
  vertex -0.00255150697 -0.0063820323 -0.0256223306
  vertex -0.00592044415 -0.00845475588 -0.0256223306
  vertex -0.00606248528 -0.00899917632 -0.0256223306
  endloop
 endfacet

 facet normal 0 0 1
  outer loop
  vertex -0.00255150697 -0.0063820323 -0.0256223306
  vertex -0.00606248528 -0.00899917632 -0.0256223306
  vertex -0.00609497307 -0.00961533003 -0.0256223306
  endloop
 endfacet

 facet normal 0 0 1
  outer loop
  vertex -0.00255150697 -0.0063820323 -0.0256223306
  vertex -0.00609497307 -0.00961533003 -0.0256223306
  vertex -0.00609875098 -0.00994001888 -0.0256223306
  endloop
 endfacet

 facet normal 0 0 1
  outer loop
  vertex -0.00255150697 -0.0063820323 -0.0256223306
  vertex -0.00609875098 -0.00994001888 -0.0256223306
  vertex -0.00609497307 -0.010566745 -0.0256223306
  endloop
 endfacet

 facet normal 0 0 1
  outer loop
  vertex -0.00255150697 -0.0063820323 -0.0256223306
  vertex -0.00609497307 -0.010566745 -0.0256223306
  vertex -0.00604888517 -0.0111964894 -0.0256223306
  endloop
 endfacet

 facet normal 0 0 1
  outer loop
  vertex -0.00255150697 -0.0063820323 -0.0256223306
  vertex -0.00604888517 -0.0111964894 -0.0256223306
  vertex -0.00588946743 -0.0117892362 -0.0256223306
  endloop
 endfacet

 facet normal 0 0 1
  outer loop
  vertex -0.00255150697 -0.0063820323 -0.0256223306
  vertex -0.00588946743 -0.0117892362 -0.0256223306
  vertex -0.00531828171 -0.0124469204 -0.0256223306
  endloop
 endfacet

 facet normal 0 0 1
  outer loop
  vertex -0.00255150697 -0.0063820323 -0.0256223306
  vertex -0.00531828171 -0.0124469204 -0.0256223306
  vertex -0.00505837658 -0.0127240382 -0.0256223306
  endloop
 endfacet

 facet normal 0 0 1
  outer loop
  vertex -0.00255150697 -0.0063820323 -0.0256223306
  vertex -0.00505837658 -0.0127240382 -0.0256223306
  vertex -0.00470554223 -0.0130736455 -0.0256223306
  endloop
 endfacet

 facet normal 0 0 1
  outer loop
  vertex -0.00255150697 -0.0063820323 -0.0256223306
  vertex -0.00470554223 -0.0130736455 -0.0256223306
  vertex -0.00442977063 -0.0133326417 -0.0256223306
  endloop
 endfacet

 facet normal 0 0 1
  outer loop
  vertex -0.00255150697 -0.0063820323 -0.0256223306
  vertex -0.00442977063 -0.0133326417 -0.0256223306
  vertex -0.00319446856 -0.0140431821 -0.0256223306
  endloop
 endfacet

 facet normal 0 0 1
  outer loop
  vertex -0.00255150697 -0.0063820323 -0.0256223306
  vertex -0.00319446856 -0.0140431821 -0.0256223306
  vertex -0.00255150697 -0.014095284 -0.0256223306
  endloop
 endfacet

 facet normal 0 0 1
  outer loop
  vertex -0.00255150697 -0.0063820323 -0.0256223306
  vertex -0.00255150697 -0.014095284 -0.0256223306
  vertex -0.00223342632 -0.014095284 -0.0256223306
  endloop
 endfacet

 facet normal 0 0 1
  outer loop
  vertex -0.00255150697 -0.0063820323 -0.0256223306
  vertex -0.00223342632 -0.014095284 -0.0256223306
  vertex -0.00192365632 -0.0140945287 -0.0256223306
  endloop
 endfacet

 facet normal 0 0 1
  outer loop
  vertex -0.00255150697 -0.0063820323 -0.0256223306
  vertex -0.00192365632 -0.0140945287 -0.0256223306
  vertex -0.00161010819 -0.0140907532 -0.0256223306
  endloop
 endfacet

 facet normal 0 0 1
  outer loop
  vertex -0.00255150697 -0.0063820323 -0.0256223306
  vertex -0.00161010819 -0.0140907532 -0.0256223306
  vertex -0.000960347708 -0.0140288351 -0.0256223306
  endloop
 endfacet

 facet normal 0 0 1
  outer loop
  vertex -0.00255150697 -0.0063820323 -0.0256223306
  vertex -0.000960347708 -0.0140288351 -0.0256223306
  vertex 0.000194867956 -0.0133137647 -0.0256223306
  endloop
 endfacet

 facet normal 0 0 1
  outer loop
  vertex -0.00255150697 -0.0063820323 -0.0256223306
  vertex 0.000194867956 -0.0133137647 -0.0256223306
  vertex 0.000823474431 -0.0126877939 -0.0256223306
  endloop
 endfacet

 facet normal 0 0 1
  outer loop
  vertex -0.00255150697 -0.0063820323 -0.0256223306
  vertex 0.000823474431 -0.0126877939 -0.0256223306
  vertex 0.00156767759 -0.0115725258 -0.0256223306
  endloop
 endfacet

 facet normal 0 0 1
  outer loop
  vertex -0.00255150697 -0.0063820323 -0.0256223306
  vertex 0.00156767759 -0.0115725258 -0.0256223306
  vertex 0.00160998758 -0.0108861476 -0.0256223306
  endloop
 endfacet

 facet normal 0 0 1
  outer loop
  vertex -0.00255150697 -0.0063820323 -0.0256223306
  vertex 0.00160998758 -0.0108861476 -0.0256223306
  vertex 0.00161527644 -0.010566745 -0.0256223306
  endloop
 endfacet

 facet normal 0 0 1
  outer loop
  vertex -0.00255150697 -0.0063820323 -0.0256223306
  vertex 0.00161527644 -0.010566745 -0.0256223306
  vertex 0.00161905447 -0.0102639524 -0.0256223306
  endloop
 endfacet

 facet normal 0 0 1
  outer loop
  vertex -0.00255150697 -0.0063820323 -0.0256223306
  vertex 0.00161905447 -0.0102639524 -0.0256223306
  vertex 0.00161980989 -0.00994001888 -0.0256223306
  endloop
 endfacet

 facet normal 0 0 1
  outer loop
  vertex -0.00255150697 -0.0063820323 -0.0256223306
  vertex 0.00161980989 -0.00994001888 -0.0256223306
  vertex 0.00158505503 -0.00931027345 -0.0256223306
  endloop
 endfacet

 facet normal 0 0 1
  outer loop
  vertex -0.00255150697 -0.0063820323 -0.0256223306
  vertex 0.00158505503 -0.00931027345 -0.0256223306
  vertex 0.00143168133 -0.00870695617 -0.0256223306
  endloop
 endfacet

 facet normal 0 0 1
  outer loop
  vertex -0.00255150697 -0.0063820323 -0.0256223306
  vertex 0.00143168133 -0.00870695617 -0.0256223306
  vertex 0.000902805943 -0.00804700702 -0.0256223306
  endloop
 endfacet

 facet normal 0 0 1
  outer loop
  vertex -0.00255150697 -0.0063820323 -0.0256223306
  vertex 0.000902805943 -0.00804700702 -0.0256223306
  vertex 0.000590769225 -0.00767021626 -0.0256223306
  endloop
 endfacet

 facet normal 0 0 1
  outer loop
  vertex -0.00255150697 -0.0063820323 -0.0256223306
  vertex 0.000590769225 -0.00767021626 -0.0256223306
  vertex 0.000355041819 -0.00742254732 -0.0256223306
  endloop
 endfacet

 facet normal 0 0 1
  outer loop
  vertex -0.00255150697 -0.0063820323 -0.0256223306
  vertex 0.000355041819 -0.00742254732 -0.0256223306
  vertex -3.02821682e-05 -0.0070880414 -0.0256223306
  endloop
 endfacet

 facet normal 0 0 1
  outer loop
  vertex -0.00255150697 -0.0063820323 -0.0256223306
  vertex -3.02821682e-05 -0.0070880414 -0.0256223306
  vertex -0.000680799072 -0.00655872328 -0.0256223306
  endloop
 endfacet

 facet normal 0 0 1
  outer loop
  vertex -0.00255150697 -0.0063820323 -0.0256223306
  vertex -0.000680799072 -0.00655872328 -0.0256223306
  vertex -0.00129505026 -0.00641374569 -0.0256223306
  endloop
 endfacet

 facet normal 0 0 1
  outer loop
  vertex -0.00255150697 -0.0063820323 -0.0256223306
  vertex -0.00129505026 -0.00641374569 -0.0256223306
  vertex -0.00192365632 -0.00638278667 -0.0256223306
  endloop
 endfacet

 facet normal 0.00475334749 0.988122463 -0.15359506
  outer loop
  vertex -0.00192365632 -0.00638278667 -0.0256223306
  vertex -0.00192365632 -0.00685698399 -0.028672982
  vertex -0.00255150697 -0.00685396371 -0.028672982
  endloop
 endfacet

 facet normal 0.0486083142 0.986965597 -0.153415218
  outer loop
  vertex -0.00192365632 -0.00638278667 -0.0256223306
  vertex -0.00129505026 -0.00641374569 -0.0256223306
  vertex -0.00192365632 -0.00685698399 -0.028672982
  endloop
 endfacet

 facet normal -0.123358861 0.961091578 -0.247155413
  outer loop
  vertex -0.00255150697 -0.00685396371 -0.028672982
  vertex -0.00255150697 -0.006981574 -0.0291692093
  vertex -0.00318011385 -0.00704273582 -0.0290932972
  endloop
 endfacet

 facet normal -0.164319426 0.968120813 -0.189053506
  outer loop
  vertex -0.00255150697 -0.00685396371 -0.028672982
  vertex -0.00318011385 -0.00704273582 -0.0290932972
  vertex -0.00349441636 -0.00641827658 -0.0256223306
  endloop
 endfacet

 facet normal -0.049780041 0.986459196 -0.156270191
  outer loop
  vertex -0.00255150697 -0.00685396371 -0.028672982
  vertex -0.00349441636 -0.00641827658 -0.0256223306
  vertex -0.00288092159 -0.00638731755 -0.0256223306
  endloop
 endfacet

 facet normal 0.00466139521 0.969007611 -0.246987164
  outer loop
  vertex -0.00255150697 -0.00685396371 -0.028672982
  vertex -0.00192365632 -0.00685698399 -0.028672982
  vertex -0.00192365632 -0.00698308414 -0.0291677136
  endloop
 endfacet

 facet normal 0.00292317243 0.968484521 -0.249056578
  outer loop
  vertex -0.00255150697 -0.00685396371 -0.028672982
  vertex -0.00192365632 -0.00698308414 -0.0291677136
  vertex -0.00255150697 -0.006981574 -0.0291692093
  endloop
 endfacet

 facet normal 0.17560488 0.968438089 -0.176891759
  outer loop
  vertex -0.00192365632 -0.00685698399 -0.028672982
  vertex -0.00129505026 -0.00641374569 -0.0256223306
  vertex -0.00129505026 -0.00704651186 -0.0290865675
  endloop
 endfacet

 facet normal 0.128583103 0.960973978 -0.244939536
  outer loop
  vertex -0.00192365632 -0.00685698399 -0.028672982
  vertex -0.00129505026 -0.00704651186 -0.0290865675
  vertex -0.00192365632 -0.00698308414 -0.0291677136
  endloop
 endfacet

 facet normal 0.226298496 0.958798409 -0.171739548
  outer loop
  vertex -0.00129505026 -0.00641374569 -0.0256223306
  vertex -0.000680799072 -0.00655872328 -0.0256223306
  vertex -0.000959592289 -0.00709936814 -0.0290080383
  endloop
 endfacet

 facet normal 0.193344161 0.965162516 -0.176293463
  outer loop
  vertex -0.00129505026 -0.00641374569 -0.0256223306
  vertex -0.000959592289 -0.00709936814 -0.0290080383
  vertex -0.00129505026 -0.00704651186 -0.0290865675
  endloop
 endfacet

 facet normal 0.00322067109 0.458854169 -0.888505697
  outer loop
  vertex -0.00255150697 -0.006981574 -0.0291692093
  vertex -0.00192365632 -0.00698308414 -0.0291677136
  vertex -0.00192365632 -0.007424057 -0.0293954462
  endloop
 endfacet

 facet normal 0.00211837119 0.45761773 -0.889146507
  outer loop
  vertex -0.00255150697 -0.006981574 -0.0291692093
  vertex -0.00192365632 -0.007424057 -0.0293954462
  vertex -0.00255150697 -0.007424057 -0.0293969419
  endloop
 endfacet

 facet normal -0.107281789 0.454977721 -0.884016991
  outer loop
  vertex -0.00255150697 -0.006981574 -0.0291692093
  vertex -0.00255150697 -0.007424057 -0.0293969419
  vertex -0.00318011385 -0.007424057 -0.0293206554
  endloop
 endfacet

 facet normal -0.151772425 0.506185532 -0.84896487
  outer loop
  vertex -0.00255150697 -0.006981574 -0.0291692093
  vertex -0.00318011385 -0.007424057 -0.0293206554
  vertex -0.00318011385 -0.00704273582 -0.0290932972
  endloop
 endfacet

 facet normal -0.2120184 0.500475526 -0.839388132
  outer loop
  vertex -0.00318011385 -0.00704273582 -0.0290932972
  vertex -0.00318011385 -0.007424057 -0.0293206554
  vertex -0.00376338814 -0.00742028188 -0.0291710775
  endloop
 endfacet

 facet normal -0.26450789 0.56904459 -0.778603792
  outer loop
  vertex -0.00318011385 -0.00704273582 -0.0290932972
  vertex -0.00376338814 -0.00742028188 -0.0291710775
  vertex -0.00352388225 -0.00709559256 -0.0290151425
  endloop
 endfacet

 facet normal -0.191365585 0.962844074 -0.190553248
  outer loop
  vertex -0.00318011385 -0.00704273582 -0.0290932972
  vertex -0.00352388225 -0.00709559256 -0.0290151425
  vertex -0.00349441636 -0.00641827658 -0.0256223306
  endloop
 endfacet

 facet normal -0.232282326 0.954212844 -0.188474819
  outer loop
  vertex -0.00349441636 -0.00641827658 -0.0256223306
  vertex -0.00352388225 -0.00709559256 -0.0290151425
  vertex -0.00405275822 -0.0065541924 -0.0256223306
  endloop
 endfacet

 facet normal 0.160529956 0.509191155 -0.845549822
  outer loop
  vertex -0.00192365632 -0.00698308414 -0.0291677136
  vertex -0.00129505026 -0.00704651186 -0.0290865675
  vertex -0.00129505026 -0.007424057 -0.0293139257
  endloop
 endfacet

 facet normal 0.114469916 0.455840409 -0.882669926
  outer loop
  vertex -0.00192365632 -0.00698308414 -0.0291677136
  vertex -0.00129505026 -0.007424057 -0.0293139257
  vertex -0.00192365632 -0.007424057 -0.0293954462
  endloop
 endfacet

 facet normal 0.271303594 0.573918462 -0.772665501
  outer loop
  vertex -0.00129505026 -0.00704651186 -0.0290865675
  vertex -0.000959592289 -0.00709936814 -0.0290080383
  vertex -0.000716309296 -0.0074248123 -0.0291643478
  endloop
 endfacet

 facet normal 0.216796681 0.50361228 -0.83628577
  outer loop
  vertex -0.00129505026 -0.00704651186 -0.0290865675
  vertex -0.000716309296 -0.0074248123 -0.0291643478
  vertex -0.00129505026 -0.007424057 -0.0293139257
  endloop
 endfacet

 facet normal 0.623939216 0.766803384 -0.150706306
  outer loop
  vertex -0.000680799072 -0.00655872328 -0.0256223306
  vertex -3.02821682e-05 -0.0070880414 -0.0256223306
  vertex -0.00016023418 -0.007581871 -0.028672982
  endloop
 endfacet

 facet normal 0.561596274 0.808613658 -0.175367206
  outer loop
  vertex -0.000680799072 -0.00655872328 -0.0256223306
  vertex -0.00016023418 -0.007581871 -0.028672982
  vertex -0.000959592289 -0.00709936814 -0.0290080383
  endloop
 endfacet

 facet normal 0.562103629 0.807712972 -0.177874863
  outer loop
  vertex -0.000959592289 -0.00709936814 -0.0290080383
  vertex -0.00016023418 -0.007581871 -0.028672982
  vertex -0.000223699113 -0.00763397245 -0.0291101243
  endloop
 endfacet

 facet normal 0.334533274 0.59935993 -0.72722429
  outer loop
  vertex -0.000959592289 -0.00709936814 -0.0290080383
  vertex -0.000223699113 -0.00763397245 -0.0291101243
  vertex -0.000716309296 -0.0074248123 -0.0291643478
  endloop
 endfacet

 facet normal 0.123276129 0.284977525 -0.95057404
  outer loop
  vertex -0.00192365632 -0.007424057 -0.0293954462
  vertex -0.00129505026 -0.007424057 -0.0293139257
  vertex -0.000665687898 -0.00805304758 -0.0294208732
  endloop
 endfacet

 facet normal 0.0342386365 0.10863924 -0.99349153
  outer loop
  vertex -0.00192365632 -0.007424057 -0.0293954462
  vertex -0.000665687898 -0.00805304758 -0.0294208732
  vertex -0.00129505026 -0.00805304758 -0.0294425637
  endloop
 endfacet

 facet normal 0.00237538596 0.0770600364 -0.997023582
  outer loop
  vertex -0.00192365632 -0.007424057 -0.0293954462
  vertex -0.00129505026 -0.00805304758 -0.0294425637
  vertex -0.00255150697 -0.007424057 -0.0293969419
  endloop
 endfacet

 facet normal -0.0295425598 0.101647966 -0.994381785
  outer loop
  vertex -0.00255150697 -0.007424057 -0.0293969419
  vertex -0.00318011385 -0.00805304758 -0.0294425637
  vertex -0.00380947534 -0.00805304758 -0.0294238646
  endloop
 endfacet

 facet normal -0.115907416 0.27269429 -0.955093324
  outer loop
  vertex -0.00255150697 -0.007424057 -0.0293969419
  vertex -0.00380947534 -0.00805304758 -0.0294238646
  vertex -0.00318011385 -0.007424057 -0.0293206554
  endloop
 endfacet

 facet normal 0 0.0723408759 -0.997379959
  outer loop
  vertex -0.00255150697 -0.007424057 -0.0293969419
  vertex -0.00129505026 -0.00805304758 -0.0294425637
  vertex -0.00318011385 -0.00805304758 -0.0294425637
  endloop
 endfacet

 facet normal -0.2279495 0.375492692 -0.898356438
  outer loop
  vertex -0.00318011385 -0.007424057 -0.0293206554
  vertex -0.00380947534 -0.00805304758 -0.0294238646
  vertex -0.00376338814 -0.00742028188 -0.0291710775
  endloop
 endfacet

 facet normal -0.25772047 0.374584436 -0.89065522
  outer loop
  vertex -0.00376338814 -0.00742028188 -0.0291710775
  vertex -0.00380947534 -0.00805304758 -0.0294238646
  vertex -0.00445772568 -0.00803492591 -0.0292286649
  endloop
 endfacet

 facet normal -0.257993072 0.374873579 -0.890454531
  outer loop
  vertex -0.00376338814 -0.00742028188 -0.0291710775
  vertex -0.00445772568 -0.00803492591 -0.0292286649
  vertex -0.00426128646 -0.00762793189 -0.0291142389
  endloop
 endfacet

 facet normal -0.332037657 0.596037984 -0.731088102
  outer loop
  vertex -0.00376338814 -0.00742028188 -0.0291710775
  vertex -0.00426128646 -0.00762793189 -0.0291142389
  vertex -0.00352388225 -0.00709559256 -0.0290151425
  endloop
 endfacet

 facet normal -0.55255425 0.805363655 -0.214646935
  outer loop
  vertex -0.00352388225 -0.00709559256 -0.0290151425
  vertex -0.00426128646 -0.00762793189 -0.0291142389
  vertex -0.00405275822 -0.0065541924 -0.0256223306
  endloop
 endfacet

 facet normal -0.583547711 0.785348058 -0.206641406
  outer loop
  vertex -0.00405275822 -0.0065541924 -0.0256223306
  vertex -0.00426128646 -0.00762793189 -0.0291142389
  vertex -0.00477731833 -0.00709257182 -0.0256223306
  endloop
 endfacet

 facet normal 0.231546998 0.383686781 -0.893963337
  outer loop
  vertex -0.00129505026 -0.007424057 -0.0293139257
  vertex -0.000716309296 -0.0074248123 -0.0291643478
  vertex -0.000665687898 -0.00805304758 -0.0294208732
  endloop
 endfacet

 facet normal 0.260148168 0.382903695 -0.886401534
  outer loop
  vertex -0.000716309296 -0.0074248123 -0.0291643478
  vertex -0.000223699113 -0.00763397245 -0.0291101243
  vertex -0.000665687898 -0.00805304758 -0.0294208732
  endloop
 endfacet

 facet normal 0.648286402 0.746774375 -0.148501232
  outer loop
  vertex -3.02821682e-05 -0.0070880414 -0.0256223306
  vertex 0.000355041819 -0.00742254732 -0.0256223306
  vertex -0.00016023418 -0.007581871 -0.028672982
  endloop
 endfacet

 facet normal 0.663758814 0.732673585 -0.150378183
  outer loop
  vertex -0.00016023418 -0.007581871 -0.028672982
  vertex 0.000355041819 -0.00742254732 -0.0256223306
  vertex 0.000154824244 -0.0078672953 -0.028672982
  endloop
 endfacet

 facet normal 0.660096049 0.728630722 -0.182676017
  outer loop
  vertex -0.00016023418 -0.007581871 -0.028672982
  vertex 0.000154824244 -0.0078672953 -0.028672982
  vertex -0.000223699113 -0.00763397245 -0.0291101243
  endloop
 endfacet

 facet normal 0.695506275 0.676919341 -0.24093847
  outer loop
  vertex -0.000223699113 -0.00763397245 -0.0291101243
  vertex 0.000154824244 -0.0078672953 -0.028672982
  vertex 0.000371663831 -0.00824408513 -0.0291056372
  endloop
 endfacet

 facet normal 0.456816524 0.440086216 -0.773073614
  outer loop
  vertex -0.000223699113 -0.00763397245 -0.0291101243
  vertex 0.000371663831 -0.00824408513 -0.0291056372
  vertex -2.27265846e-05 -0.00804096647 -0.0292230565
  endloop
 endfacet

 facet normal 0.265829206 0.377409339 -0.887072206
  outer loop
  vertex -0.000223699113 -0.00763397245 -0.0291101243
  vertex -2.27265846e-05 -0.00804096647 -0.0292230565
  vertex -0.000665687898 -0.00805304758 -0.0294208732
  endloop
 endfacet

 facet normal 0.278161407 0.273399651 -0.920803428
  outer loop
  vertex -0.000665687898 -0.00805304758 -0.0294208732
  vertex -2.27265846e-05 -0.00804096647 -0.0292230565
  vertex -3.6326448e-05 -0.0086820377 -0.0294175092
  endloop
 endfacet

 facet normal 0.0451213829 0.0398082994 -0.998188019
  outer loop
  vertex -0.000665687898 -0.00805304758 -0.0294208732
  vertex -3.6326448e-05 -0.0086820377 -0.0294175092
  vertex -3.6326448e-05 -0.00931027345 -0.0294425637
  endloop
 endfacet

 facet normal 0.0344220325 0.0344630405 -0.998813093
  outer loop
  vertex -0.000665687898 -0.00805304758 -0.0294208732
  vertex -3.6326448e-05 -0.00931027345 -0.0294425637
  vertex -0.00129505026 -0.00805304758 -0.0294425637
  endloop
 endfacet

 facet normal 0 0 -1
  outer loop
  vertex -0.00129505026 -0.00805304758 -0.0294425637
  vertex -3.6326448e-05 -0.00931027345 -0.0294425637
  vertex -3.6326448e-05 -0.0111964894 -0.0294425637
  endloop
 endfacet

 facet normal 0 0 -1
  outer loop
  vertex -0.00129505026 -0.00805304758 -0.0294425637
  vertex -3.6326448e-05 -0.0111964894 -0.0294425637
  vertex -0.000665687898 -0.0118254814 -0.0294425637
  endloop
 endfacet

 facet normal 0 0 -1
  outer loop
  vertex -0.00129505026 -0.00805304758 -0.0294425637
  vertex -0.000665687898 -0.0118254814 -0.0294425637
  vertex -0.00192365632 -0.0124537172 -0.0294425637
  endloop
 endfacet

 facet normal 0 0 -1
  outer loop
  vertex -0.00129505026 -0.00805304758 -0.0294425637
  vertex -0.00192365632 -0.0124537172 -0.0294425637
  vertex -0.00318011385 -0.0124537172 -0.0294425637
  endloop
 endfacet

 facet normal 0 0 -1
  outer loop
  vertex -0.00129505026 -0.00805304758 -0.0294425637
  vertex -0.00318011385 -0.0124537172 -0.0294425637
  vertex -0.00380947534 -0.0118254814 -0.0294425637
  endloop
 endfacet

 facet normal 0 0 -1
  outer loop
  vertex -0.00129505026 -0.00805304758 -0.0294425637
  vertex -0.00380947534 -0.0118254814 -0.0294425637
  vertex -0.00443808129 -0.0111964894 -0.0294425637
  endloop
 endfacet

 facet normal 0 0 -1
  outer loop
  vertex -0.00129505026 -0.00805304758 -0.0294425637
  vertex -0.00443808129 -0.0111964894 -0.0294425637
  vertex -0.00443808129 -0.00931027345 -0.0294425637
  endloop
 endfacet

 facet normal 0 0 -1
  outer loop
  vertex -0.00129505026 -0.00805304758 -0.0294425637
  vertex -0.00443808129 -0.00931027345 -0.0294425637
  vertex -0.00318011385 -0.00805304758 -0.0294425637
  endloop
 endfacet

 facet normal -0.0296832696 0.0297007747 -0.99911803
  outer loop
  vertex -0.00318011385 -0.00805304758 -0.0294425637
  vertex -0.00443808129 -0.00931027345 -0.0294425637
  vertex -0.00380947534 -0.00805304758 -0.0294238646
  endloop
 endfacet

 facet normal -0.0368784778 0.0332930908 -0.998765111
  outer loop
  vertex -0.00380947534 -0.00805304758 -0.0294238646
  vertex -0.00443808129 -0.00931027345 -0.0294425637
  vertex -0.00443808129 -0.0086820377 -0.0294216219
  endloop
 endfacet

 facet normal -0.270958811 0.267494529 -0.924677312
  outer loop
  vertex -0.00380947534 -0.00805304758 -0.0294238646
  vertex -0.00443808129 -0.0086820377 -0.0294216219
  vertex -0.00445772568 -0.00803492591 -0.0292286649
  endloop
 endfacet

 facet normal -0.386641353 0.252726048 -0.886926174
  outer loop
  vertex -0.00445772568 -0.00803492591 -0.0292286649
  vertex -0.00443808129 -0.0086820377 -0.0294216219
  vertex -0.00485589309 -0.00823200494 -0.0291112475
  endloop
 endfacet

 facet normal -0.446032047 0.435169101 -0.78210181
  outer loop
  vertex -0.00445772568 -0.00803492591 -0.0292286649
  vertex -0.00485589309 -0.00823200494 -0.0291112475
  vertex -0.00426128646 -0.00762793189 -0.0291142389
  endloop
 endfacet

 facet normal -0.689448297 0.677373588 -0.256565988
  outer loop
  vertex -0.00426128646 -0.00762793189 -0.0291142389
  vertex -0.00485589309 -0.00823200494 -0.0291112475
  vertex -0.00464434316 -0.00785068329 -0.028672982
  endloop
 endfacet

 facet normal -0.659733534 0.722083211 -0.208200723
  outer loop
  vertex -0.00426128646 -0.00762793189 -0.0291142389
  vertex -0.00464434316 -0.00785068329 -0.028672982
  vertex -0.00477731833 -0.00709257182 -0.0256223306
  endloop
 endfacet

 facet normal -0.700487316 0.684855223 -0.200725704
  outer loop
  vertex -0.00477731833 -0.00709257182 -0.0256223306
  vertex -0.00464434316 -0.00785068329 -0.028672982
  vertex -0.00539005781 -0.00771929743 -0.0256223306
  endloop
 endfacet

 facet normal 0.716543913 0.681994259 -0.146454096
  outer loop
  vertex 0.000355041819 -0.00742254732 -0.0256223306
  vertex 0.000590769225 -0.00767021626 -0.0256223306
  vertex 0.000154824244 -0.0078672953 -0.028672982
  endloop
 endfacet

 facet normal 0.756442547 0.636806965 -0.1492365
  outer loop
  vertex 0.000154824244 -0.0078672953 -0.028672982
  vertex 0.000590769225 -0.00767021626 -0.0256223306
  vertex 0.000419262651 -0.0081814127 -0.028672982
  endloop
 endfacet

 facet normal 0.753241897 0.634112477 -0.17472285
  outer loop
  vertex 0.000154824244 -0.0078672953 -0.028672982
  vertex 0.000419262651 -0.0081814127 -0.028672982
  vertex 0.000371663831 -0.00824408513 -0.0291056372
  endloop
 endfacet

 facet normal 0.807378054 0.564820528 -0.170641348
  outer loop
  vertex 0.000371663831 -0.00824408513 -0.0291056372
  vertex 0.000419262651 -0.0081814127 -0.028672982
  vertex 0.00143168133 -0.00870695617 -0.0256223306
  endloop
 endfacet

 facet normal 0.852996826 0.484013796 -0.195261568
  outer loop
  vertex 0.000371663831 -0.00824408513 -0.0291056372
  vertex 0.00143168133 -0.00870695617 -0.0256223306
  vertex 0.000719210366 -0.0086820377 -0.028672982
  endloop
 endfacet

 facet normal 0.866903186 0.414692998 -0.276601851
  outer loop
  vertex 0.000371663831 -0.00824408513 -0.0291056372
  vertex 0.000719210366 -0.0086820377 -0.028672982
  vertex 0.000892228214 -0.00904372707 -0.028672982
  endloop
 endfacet

 facet normal 0.86657685 0.410932869 -0.28315866
  outer loop
  vertex 0.000371663831 -0.00824408513 -0.0291056372
  vertex 0.000892228214 -0.00904372707 -0.028672982
  vertex 0.000953426468 -0.00944694504 -0.0290708598
  endloop
 endfacet

 facet normal 0.708426178 0.324509144 -0.626758456
  outer loop
  vertex 0.000371663831 -0.00824408513 -0.0291056372
  vertex 0.000953426468 -0.00944694504 -0.0290708598
  vertex 0.000497838308 -0.0086820377 -0.0291897766
  endloop
 endfacet

 facet normal 0.404884189 0.28364718 -0.869260073
  outer loop
  vertex 0.000371663831 -0.00824408513 -0.0291056372
  vertex 0.000497838308 -0.0086820377 -0.0291897766
  vertex -2.27265846e-05 -0.00804096647 -0.0292230565
  endloop
 endfacet

 facet normal 0.378555477 0.261298448 -0.887929559
  outer loop
  vertex -2.27265846e-05 -0.00804096647 -0.0292230565
  vertex 0.000497838308 -0.0086820377 -0.0291897766
  vertex -3.6326448e-05 -0.0086820377 -0.0294175092
  endloop
 endfacet

 facet normal 0.387912273 0.147135288 -0.909876525
  outer loop
  vertex -3.6326448e-05 -0.0086820377 -0.0294175092
  vertex 0.000497838308 -0.0086820377 -0.0291897766
  vertex 0.000592280529 -0.00993926451 -0.0293528177
  endloop
 endfacet

 facet normal 0.179563716 0.0392011926 -0.982964933
  outer loop
  vertex -3.6326448e-05 -0.0086820377 -0.0294175092
  vertex 0.000592280529 -0.00993926451 -0.0293528177
  vertex -3.6326448e-05 -0.00931027345 -0.0294425637
  endloop
 endfacet

 facet normal 0.141337454 0 -0.989961505
  outer loop
  vertex -3.6326448e-05 -0.00931027345 -0.0294425637
  vertex 0.000592280529 -0.00993926451 -0.0293528177
  vertex -3.6326448e-05 -0.0111964894 -0.0294425637
  endloop
 endfacet

 facet normal -0.116840556 0 -0.993150651
  outer loop
  vertex -0.00443808129 -0.00931027345 -0.0294425637
  vertex -0.00443808129 -0.0111964894 -0.0294425637
  vertex -0.00506744348 -0.00993926451 -0.0293685216
  endloop
 endfacet

 facet normal -0.149188668 0.0329429023 -0.988259912
  outer loop
  vertex -0.00443808129 -0.00931027345 -0.0294425637
  vertex -0.00506744348 -0.00993926451 -0.0293685216
  vertex -0.00443808129 -0.0086820377 -0.0294216219
  endloop
 endfacet

 facet normal -0.323236108 0.122176304 -0.938398302
  outer loop
  vertex -0.00443808129 -0.0086820377 -0.0294216219
  vertex -0.00506744348 -0.00993926451 -0.0293685216
  vertex -0.00506744348 -0.00931027345 -0.0292866286
  endloop
 endfacet

 facet normal -0.401222616 0.210381538 -0.891493082
  outer loop
  vertex -0.00443808129 -0.0086820377 -0.0294216219
  vertex -0.00506744348 -0.00931027345 -0.0292866286
  vertex -0.00506668817 -0.00874471013 -0.0291535035
  endloop
 endfacet

 facet normal -0.401040494 0.237793922 -0.884658515
  outer loop
  vertex -0.00443808129 -0.0086820377 -0.0294216219
  vertex -0.00506668817 -0.00874471013 -0.0291535035
  vertex -0.00485589309 -0.00823200494 -0.0291112475
  endloop
 endfacet

 facet normal -0.624366701 0.315592527 -0.714540184
  outer loop
  vertex -0.00485589309 -0.00823200494 -0.0291112475
  vertex -0.00506668817 -0.00874471013 -0.0291535035
  vertex -0.00538174715 -0.00899464544 -0.0289885923
  endloop
 endfacet

 facet normal -0.819694281 0.530415058 -0.216243684
  outer loop
  vertex -0.00485589309 -0.00823200494 -0.0291112475
  vertex -0.00538174715 -0.00899464544 -0.0289885923
  vertex -0.00592044415 -0.00845475588 -0.0256223306
  endloop
 endfacet

 facet normal -0.793750405 0.572424948 -0.205645397
  outer loop
  vertex -0.00485589309 -0.00823200494 -0.0291112475
  vertex -0.00592044415 -0.00845475588 -0.0256223306
  vertex -0.00539005781 -0.00771929743 -0.0256223306
  endloop
 endfacet

 facet normal -0.734661698 0.645953417 -0.207403988
  outer loop
  vertex -0.00485589309 -0.00823200494 -0.0291112475
  vertex -0.00539005781 -0.00771929743 -0.0256223306
  vertex -0.00464434316 -0.00785068329 -0.028672982
  endloop
 endfacet

 facet normal 0.761642158 0.630749464 -0.148513764
  outer loop
  vertex 0.000590769225 -0.00767021626 -0.0256223306
  vertex 0.000902805943 -0.00804700702 -0.0256223306
  vertex 0.000419262651 -0.0081814127 -0.028672982
  endloop
 endfacet

 facet normal 0.771565855 0.618323624 -0.149539262
  outer loop
  vertex 0.000419262651 -0.0081814127 -0.028672982
  vertex 0.000902805943 -0.00804700702 -0.0256223306
  vertex 0.00143168133 -0.00870695617 -0.0256223306
  endloop
 endfacet

 facet normal 0.952611685 0.242170393 -0.184076935
  outer loop
  vertex 0.00143168133 -0.00870695617 -0.0256223306
  vertex 0.00158505503 -0.00931027345 -0.0256223306
  vertex 0.000953426468 -0.00944694504 -0.0290708598
  endloop
 endfacet

 facet normal 0.920081794 0.336887747 -0.199890092
  outer loop
  vertex 0.00143168133 -0.00870695617 -0.0256223306
  vertex 0.000953426468 -0.00944694504 -0.0290708598
  vertex 0.000892228214 -0.00904372707 -0.028672982
  endloop
 endfacet

 facet normal 0.883343935 0.422557652 -0.202851027
  outer loop
  vertex 0.00143168133 -0.00870695617 -0.0256223306
  vertex 0.000892228214 -0.00904372707 -0.028672982
  vertex 0.000719210366 -0.0086820377 -0.028672982
  endloop
 endfacet

 facet normal 0.979064822 0.0893954113 -0.182867303
  outer loop
  vertex 0.000953426468 -0.00944694504 -0.0290708598
  vertex 0.00158505503 -0.00931027345 -0.0256223306
  vertex 0.000988181331 -0.00993926451 -0.0291254558
  endloop
 endfacet

 facet normal 0.495564044 0.13021633 -0.858754873
  outer loop
  vertex 0.000953426468 -0.00944694504 -0.0290708598
  vertex 0.000988181331 -0.00993926451 -0.0291254558
  vertex 0.000648945279 -0.00926723331 -0.0292193182
  endloop
 endfacet

 facet normal 0.512977839 0.174884364 -0.840398252
  outer loop
  vertex 0.000953426468 -0.00944694504 -0.0290708598
  vertex 0.000648945279 -0.00926723331 -0.0292193182
  vertex 0.000497838308 -0.0086820377 -0.0291897766
  endloop
 endfacet

 facet normal 0.392685592 0.147226125 -0.907811999
  outer loop
  vertex 0.000497838308 -0.0086820377 -0.0291897766
  vertex 0.000648945279 -0.00926723331 -0.0292193182
  vertex 0.000592280529 -0.00993926451 -0.0293528177
  endloop
 endfacet

 facet normal 0.493832707 0.12918137 -0.859907806
  outer loop
  vertex 0.000592280529 -0.00993926451 -0.0293528177
  vertex 0.000648945279 -0.00926723331 -0.0292193182
  vertex 0.000988181331 -0.00993926451 -0.0291254558
  endloop
 endfacet

 facet normal 0.497928888 -0.0175477453 -0.867040396
  outer loop
  vertex 0.000592280529 -0.00993926451 -0.0293528177
  vertex 0.000988181331 -0.00993926451 -0.0291254558
  vertex 0.000592280529 -0.0105674993 -0.0293401014
  endloop
 endfacet

 facet normal 0.180211306 -0.0199032463 -0.983426511
  outer loop
  vertex 0.000592280529 -0.00993926451 -0.0293528177
  vertex 0.000592280529 -0.0105674993 -0.0293401014
  vertex -3.6326448e-05 -0.0111964894 -0.0294425637
  endloop
 endfacet

 facet normal 0.0831940547 -0.0832430199 -0.993050635
  outer loop
  vertex -3.6326448e-05 -0.0111964894 -0.0294425637
  vertex -3.6326448e-05 -0.0118254814 -0.0293898378
  vertex -0.000665687898 -0.0118254814 -0.0294425637
  endloop
 endfacet

 facet normal 0.238888472 -0.0811140686 -0.967653275
  outer loop
  vertex -3.6326448e-05 -0.0111964894 -0.0294425637
  vertex 0.000592280529 -0.0105674993 -0.0293401014
  vertex -3.6326448e-05 -0.0118254814 -0.0293898378
  endloop
 endfacet

 facet normal -0.0721962079 -0.0721519887 -0.994777322
  outer loop
  vertex -0.00443808129 -0.0111964894 -0.0294425637
  vertex -0.00380947534 -0.0118254814 -0.0294425637
  vertex -0.00443808129 -0.0118254814 -0.0293969419
  endloop
 endfacet

 facet normal -0.203089669 -0.0708331913 -0.976594687
  outer loop
  vertex -0.00443808129 -0.0111964894 -0.0294425637
  vertex -0.00443808129 -0.0118254814 -0.0293969419
  vertex -0.00506744348 -0.0105674993 -0.0293573048
  endloop
 endfacet

 facet normal -0.151518911 -0.0176457092 -0.988296866
  outer loop
  vertex -0.00443808129 -0.0111964894 -0.0294425637
  vertex -0.00506744348 -0.0105674993 -0.0293573048
  vertex -0.00506744348 -0.00993926451 -0.0293685216
  endloop
 endfacet

 facet normal -0.485351533 -0.0156081868 -0.87417978
  outer loop
  vertex -0.00506744348 -0.00993926451 -0.0293685216
  vertex -0.00506744348 -0.0105674993 -0.0293573048
  vertex -0.00547694461 -0.00993926451 -0.0291411635
  endloop
 endfacet

 facet normal -0.482296169 0.11309877 -0.868676662
  outer loop
  vertex -0.00506744348 -0.00993926451 -0.0293685216
  vertex -0.00547694461 -0.00993926451 -0.0291411635
  vertex -0.00506744348 -0.00931027345 -0.0292866286
  endloop
 endfacet

 facet normal -0.531246722 0.153158873 -0.833258271
  outer loop
  vertex -0.00506744348 -0.00931027345 -0.0292866286
  vertex -0.00547694461 -0.00993926451 -0.0291411635
  vertex -0.00542405713 -0.00931027345 -0.0290592685
  endloop
 endfacet

 facet normal -0.527230978 0.195359528 -0.82695961
  outer loop
  vertex -0.00506744348 -0.00931027345 -0.0292866286
  vertex -0.00542405713 -0.00931027345 -0.0290592685
  vertex -0.00506668817 -0.00874471013 -0.0291535035
  endloop
 endfacet

 facet normal -0.597519398 0.250651777 -0.76167202
  outer loop
  vertex -0.00506668817 -0.00874471013 -0.0291535035
  vertex -0.00542405713 -0.00931027345 -0.0290592685
  vertex -0.00538174715 -0.00899464544 -0.0289885923
  endloop
 endfacet

 facet normal -0.96541214 0.17307739 -0.194996402
  outer loop
  vertex -0.00538174715 -0.00899464544 -0.0289885923
  vertex -0.00542405713 -0.00931027345 -0.0290592685
  vertex -0.00606248528 -0.00899917632 -0.0256223306
  endloop
 endfacet

 facet normal -0.949661672 0.247769758 -0.191710755
  outer loop
  vertex -0.00538174715 -0.00899464544 -0.0289885923
  vertex -0.00606248528 -0.00899917632 -0.0256223306
  vertex -0.00592044415 -0.00845475588 -0.0256223306
  endloop
 endfacet

 facet normal 0.982684791 0.0542330891 -0.177170619
  outer loop
  vertex 0.00158505503 -0.00931027345 -0.0256223306
  vertex 0.00161980989 -0.00994001888 -0.0256223306
  vertex 0.000988181331 -0.00993926451 -0.0291254558
  endloop
 endfacet

 facet normal 0.984128356 -0.00229500094 -0.177443072
  outer loop
  vertex 0.000988181331 -0.00993926451 -0.0291254558
  vertex 0.00161980989 -0.00994001888 -0.0256223306
  vertex 0.00161905447 -0.0102639524 -0.0256223306
  endloop
 endfacet

 facet normal 0.983894825 -0.0122763393 -0.178326175
  outer loop
  vertex 0.000988181331 -0.00993926451 -0.0291254558
  vertex 0.00161905447 -0.0102639524 -0.0256223306
  vertex 0.00161527644 -0.010566745 -0.0256223306
  endloop
 endfacet

 facet normal 0.983711958 -0.0162888784 -0.179012135
  outer loop
  vertex 0.000988181331 -0.00993926451 -0.0291254558
  vertex 0.00161527644 -0.010566745 -0.0256223306
  vertex 0.00160998758 -0.0108861476 -0.0256223306
  endloop
 endfacet

 facet normal 0.983689785 -0.0166368857 -0.179102272
  outer loop
  vertex 0.000988181331 -0.00993926451 -0.0291254558
  vertex 0.00160998758 -0.0108861476 -0.0256223306
  vertex 0.000979870791 -0.0105674993 -0.0291127432
  endloop
 endfacet

 facet normal 0.505820811 -0.0241404399 -0.862300813
  outer loop
  vertex 0.000988181331 -0.00993926451 -0.0291254558
  vertex 0.000979870791 -0.0105674993 -0.0291127432
  vertex 0.000592280529 -0.0105674993 -0.0293401014
  endloop
 endfacet

 facet normal 0.500786066 -0.142755836 -0.853717804
  outer loop
  vertex 0.000592280529 -0.0105674993 -0.0293401014
  vertex 0.000979870791 -0.0105674993 -0.0291127432
  vertex 0.000634590455 -0.0112017756 -0.0292092226
  endloop
 endfacet

 facet normal 0.393040419 -0.160604805 -0.905386865
  outer loop
  vertex 0.000592280529 -0.0105674993 -0.0293401014
  vertex 0.000634590455 -0.0112017756 -0.0292092226
  vertex -3.6326448e-05 -0.0118254814 -0.0293898378
  endloop
 endfacet

 facet normal 0.323502034 -0.33094275 -0.886466742
  outer loop
  vertex -3.6326448e-05 -0.0118254814 -0.0293898378
  vertex -6.12589865e-05 -0.012431819 -0.0291725732
  vertex -0.000665687898 -0.0124537172 -0.0293849763
  endloop
 endfacet

 facet normal 0.0900979117 -0.0979303047 -0.99110657
  outer loop
  vertex -3.6326448e-05 -0.0118254814 -0.0293898378
  vertex -0.000665687898 -0.0124537172 -0.0293849763
  vertex -0.00129505026 -0.0124537172 -0.0294421893
  endloop
 endfacet

 facet normal 0.0831892341 -0.0839309692 -0.992993057
  outer loop
  vertex -3.6326448e-05 -0.0118254814 -0.0293898378
  vertex -0.00129505026 -0.0124537172 -0.0294421893
  vertex -0.000665687898 -0.0118254814 -0.0294425637
  endloop
 endfacet

 facet normal 0.416171193 -0.190181077 -0.889175355
  outer loop
  vertex -3.6326448e-05 -0.0118254814 -0.0293898378
  vertex 0.000634590455 -0.0112017756 -0.0292092226
  vertex 0.000450239459 -0.0118254814 -0.0291621052
  endloop
 endfacet

 facet normal 0.401103616 -0.323568881 -0.856982589
  outer loop
  vertex -3.6326448e-05 -0.0118254814 -0.0293898378
  vertex 0.000450239459 -0.0118254814 -0.0291621052
  vertex -6.12589865e-05 -0.012431819 -0.0291725732
  endloop
 endfacet

 facet normal 0.000596393889 -0.00119420874 -0.999999046
  outer loop
  vertex -0.000665687898 -0.0118254814 -0.0294425637
  vertex -0.00129505026 -0.0124537172 -0.0294421893
  vertex -0.00192365632 -0.0124537172 -0.0294425637
  endloop
 endfacet

 facet normal -0.072195299 -0.0723246485 -0.994764745
  outer loop
  vertex -0.00380947534 -0.0118254814 -0.0294425637
  vertex -0.00318011385 -0.0124537172 -0.0294425637
  vertex -0.00443808129 -0.0118254814 -0.0293969419
  endloop
 endfacet

 facet normal -0.0808040053 -0.0897136256 -0.992684305
  outer loop
  vertex -0.00443808129 -0.0118254814 -0.0293969419
  vertex -0.00318011385 -0.0124537172 -0.0294425637
  vertex -0.00380947534 -0.0124537172 -0.0293913335
  endloop
 endfacet

 facet normal -0.313239932 -0.321402282 -0.893633783
  outer loop
  vertex -0.00443808129 -0.0118254814 -0.0293969419
  vertex -0.00380947534 -0.0124537172 -0.0293913335
  vertex -0.00441919407 -0.0124386139 -0.029183045
  endloop
 endfacet

 facet normal -0.392438531 -0.313720942 -0.864622056
  outer loop
  vertex -0.00443808129 -0.0118254814 -0.0293969419
  vertex -0.00441919407 -0.0124386139 -0.029183045
  vertex -0.00493900198 -0.0118254814 -0.0291695818
  endloop
 endfacet

 facet normal -0.405959308 -0.18768546 -0.894411087
  outer loop
  vertex -0.00443808129 -0.0118254814 -0.0293969419
  vertex -0.00493900198 -0.0118254814 -0.0291695818
  vertex -0.00511504244 -0.0112183876 -0.0292170737
  endloop
 endfacet

 facet normal -0.390015841 -0.166588053 -0.905613661
  outer loop
  vertex -0.00443808129 -0.0118254814 -0.0293969419
  vertex -0.00511504244 -0.0112183876 -0.0292170737
  vertex -0.00506744348 -0.0105674993 -0.0293573048
  endloop
 endfacet

 facet normal -0.487490237 -0.149676517 -0.860203683
  outer loop
  vertex -0.00506744348 -0.0105674993 -0.0293573048
  vertex -0.00511504244 -0.0112183876 -0.0292170737
  vertex -0.00546863349 -0.0105674993 -0.0291299447
  endloop
 endfacet

 facet normal -0.492924392 -0.0220537819 -0.86979264
  outer loop
  vertex -0.00506744348 -0.0105674993 -0.0293573048
  vertex -0.00546863349 -0.0105674993 -0.0291299447
  vertex -0.00547694461 -0.00993926451 -0.0291411635
  endloop
 endfacet

 facet normal -0.979503274 -0.0165435933 -0.200747877
  outer loop
  vertex -0.00547694461 -0.00993926451 -0.0291411635
  vertex -0.00546863349 -0.0105674993 -0.0291299447
  vertex -0.00557289785 -0.00993926451 -0.028672982
  endloop
 endfacet

 facet normal -0.973920226 0.107878774 -0.199603647
  outer loop
  vertex -0.00547694461 -0.00993926451 -0.0291411635
  vertex -0.00557289785 -0.00993926451 -0.028672982
  vertex -0.00542405713 -0.00931027345 -0.0290592685
  endloop
 endfacet

 facet normal -0.974972427 0.113195404 -0.19135198
  outer loop
  vertex -0.00542405713 -0.00931027345 -0.0290592685
  vertex -0.00557289785 -0.00993926451 -0.028672982
  vertex -0.00606248528 -0.00899917632 -0.0256223306
  endloop
 endfacet

 facet normal -0.983414471 0.0518520325 -0.173803255
  outer loop
  vertex -0.00606248528 -0.00899917632 -0.0256223306
  vertex -0.00557289785 -0.00993926451 -0.028672982
  vertex -0.00609497307 -0.00961533003 -0.0256223306
  endloop
 endfacet

 facet normal 0.981310546 -0.0604903214 -0.182676241
  outer loop
  vertex 0.00160998758 -0.0108861476 -0.0256223306
  vertex 0.00156767759 -0.0115725258 -0.0256223306
  vertex 0.000979870791 -0.0105674993 -0.0291127432
  endloop
 endfacet

 facet normal 0.974208713 -0.111509755 -0.196170732
  outer loop
  vertex 0.000979870791 -0.0105674993 -0.0291127432
  vertex 0.00156767759 -0.0115725258 -0.0256223306
  vertex 0.000942849205 -0.0109948814 -0.0290536601
  endloop
 endfacet

 facet normal 0.528653026 -0.161012024 -0.83342737
  outer loop
  vertex 0.000979870791 -0.0105674993 -0.0291127432
  vertex 0.000942849205 -0.0109948814 -0.0290536601
  vertex 0.000634590455 -0.0112017756 -0.0292092226
  endloop
 endfacet

 facet normal 0.554933906 -0.224536061 -0.801019371
  outer loop
  vertex 0.000634590455 -0.0112017756 -0.0292092226
  vertex 0.000942849205 -0.0109948814 -0.0290536601
  vertex 0.000450239459 -0.0118254814 -0.0291621052
  endloop
 endfacet

 facet normal 0.335183084 -0.433569044 -0.836462915
  outer loop
  vertex -6.12589865e-05 -0.012431819 -0.0291725732
  vertex -0.000287919946 -0.012818425 -0.0290630087
  vertex -0.000665687898 -0.0129286684 -0.0291572418
  endloop
 endfacet

 facet normal 0.315541983 -0.410266846 -0.855636954
  outer loop
  vertex -6.12589865e-05 -0.012431819 -0.0291725732
  vertex -0.000665687898 -0.0129286684 -0.0291572418
  vertex -0.000665687898 -0.0124537172 -0.0293849763
  endloop
 endfacet

 facet normal 0.412307441 -0.333176434 -0.847936332
  outer loop
  vertex -6.12589865e-05 -0.012431819 -0.0291725732
  vertex 0.000450239459 -0.0118254814 -0.0291621052
  vertex 0.000332375552 -0.0122083118 -0.0290689915
  endloop
 endfacet

 facet normal 0.469321907 -0.484394968 -0.738307893
  outer loop
  vertex -6.12589865e-05 -0.012431819 -0.0291725732
  vertex 0.000332375552 -0.0122083118 -0.0290689915
  vertex -0.000287919946 -0.012818425 -0.0290630087
  endloop
 endfacet

 facet normal 0.168276519 -0.426189721 -0.888844967
  outer loop
  vertex -0.000665687898 -0.0124537172 -0.0293849763
  vertex -0.000665687898 -0.0129286684 -0.0291572418
  vertex -0.00132149365 -0.0131181953 -0.0291905235
  endloop
 endfacet

 facet normal 0.135752261 -0.399316996 -0.90670681
  outer loop
  vertex -0.000665687898 -0.0124537172 -0.0293849763
  vertex -0.00132149365 -0.0131181953 -0.0291905235
  vertex -0.00192365632 -0.0130834617 -0.0292959772
  endloop
 endfacet

 facet normal 0.0861859694 -0.306150347 -0.948073924
  outer loop
  vertex -0.000665687898 -0.0124537172 -0.0293849763
  vertex -0.00192365632 -0.0130834617 -0.0292959772
  vertex -0.00129505026 -0.0124537172 -0.0294421893
  endloop
 endfacet

 facet normal 0.00463653915 -0.230547279 -0.973050058
  outer loop
  vertex -0.00129505026 -0.0124537172 -0.0294421893
  vertex -0.00192365632 -0.0130834617 -0.0292959772
  vertex -0.00255150697 -0.0130834617 -0.0292989686
  endloop
 endfacet

 facet normal 0.000581394648 -0.222865641 -0.974849105
  outer loop
  vertex -0.00129505026 -0.0124537172 -0.0294421893
  vertex -0.00255150697 -0.0130834617 -0.0292989686
  vertex -0.00192365632 -0.0124537172 -0.0294425637
  endloop
 endfacet

 facet normal 0.740093589 -0.365204215 -0.5647012
  outer loop
  vertex 0.000450239459 -0.0118254814 -0.0291621052
  vertex 0.000942849205 -0.0109948814 -0.0290536601
  vertex 0.000332375552 -0.0122083118 -0.0290689915
  endloop
 endfacet

 facet normal 0 -0.2223147 -0.97497499
  outer loop
  vertex -0.00192365632 -0.0124537172 -0.0294425637
  vertex -0.00255150697 -0.0130834617 -0.0292989686
  vertex -0.00318011385 -0.0124537172 -0.0294425637
  endloop
 endfacet

 facet normal -0.0775312036 -0.294575989 -0.952477813
  outer loop
  vertex -0.00318011385 -0.0124537172 -0.0294425637
  vertex -0.00255150697 -0.0130834617 -0.0292989686
  vertex -0.00380947534 -0.0124537172 -0.0293913335
  endloop
 endfacet

 facet normal -0.304284006 -0.407113612 -0.861202478
  outer loop
  vertex -0.00380947534 -0.0124537172 -0.0293913335
  vertex -0.00380947534 -0.0129354643 -0.029163599
  vertex -0.00441919407 -0.0124386139 -0.029183045
  endloop
 endfacet

 facet normal -0.13361524 -0.399903923 -0.90676558
  outer loop
  vertex -0.00380947534 -0.0124537172 -0.0293913335
  vertex -0.00255150697 -0.0130834617 -0.0292989686
  vertex -0.0031589584 -0.0131204613 -0.0291931406
  endloop
 endfacet

 facet normal -0.160488933 -0.421839535 -0.892353475
  outer loop
  vertex -0.00380947534 -0.0124537172 -0.0293913335
  vertex -0.0031589584 -0.0131204613 -0.0291931406
  vertex -0.00380947534 -0.0129354643 -0.029163599
  endloop
 endfacet

 facet normal -0.325672746 -0.432560027 -0.840731323
  outer loop
  vertex -0.00441919407 -0.0124386139 -0.029183045
  vertex -0.00380947534 -0.0129354643 -0.029163599
  vertex -0.00419630995 -0.0128244655 -0.0290708598
  endloop
 endfacet

 facet normal -0.463067383 -0.483466804 -0.742851615
  outer loop
  vertex -0.00441919407 -0.0124386139 -0.029183045
  vertex -0.00419630995 -0.0128244655 -0.0290708598
  vertex -0.00481736101 -0.012218128 -0.0290783402
  endloop
 endfacet

 facet normal -0.4043383 -0.324014246 -0.855292559
  outer loop
  vertex -0.00441919407 -0.0124386139 -0.029183045
  vertex -0.00481736101 -0.012218128 -0.0290783402
  vertex -0.00493900198 -0.0118254814 -0.0291695818
  endloop
 endfacet

 facet normal -0.717741132 -0.360752255 -0.595571578
  outer loop
  vertex -0.00493900198 -0.0118254814 -0.0291695818
  vertex -0.00481736101 -0.012218128 -0.0290783402
  vertex -0.00542707881 -0.0110235745 -0.0290671214
  endloop
 endfacet

 facet normal -0.529852509 -0.217763111 -0.819655776
  outer loop
  vertex -0.00493900198 -0.0118254814 -0.0291695818
  vertex -0.00542707881 -0.0110235745 -0.0290671214
  vertex -0.00511504244 -0.0112183876 -0.0292170737
  endloop
 endfacet

 facet normal -0.50808996 -0.162798196 -0.845778584
  outer loop
  vertex -0.00511504244 -0.0112183876 -0.0292170737
  vertex -0.00542707881 -0.0110235745 -0.0290671214
  vertex -0.00546863349 -0.0105674993 -0.0291299447
  endloop
 endfacet

 facet normal -0.976256013 -0.114297383 -0.184012115
  outer loop
  vertex -0.00546863349 -0.0105674993 -0.0291299447
  vertex -0.00542707881 -0.0110235745 -0.0290671214
  vertex -0.005554765 -0.0105674993 -0.028672982
  endloop
 endfacet

 facet normal -0.982300937 -0.0283523016 -0.185151517
  outer loop
  vertex -0.00546863349 -0.0105674993 -0.0291299447
  vertex -0.005554765 -0.0105674993 -0.028672982
  vertex -0.00557289785 -0.00993926451 -0.028672982
  endloop
 endfacet

 facet normal -0.985449135 -0.00594048016 -0.169867396
  outer loop
  vertex -0.00557289785 -0.00993926451 -0.028672982
  vertex -0.00609497307 -0.010566745 -0.0256223306
  vertex -0.00609875098 -0.00994001888 -0.0256223306
  endloop
 endfacet

 facet normal -0.985402346 0.0114659723 -0.169855043
  outer loop
  vertex -0.00557289785 -0.00993926451 -0.028672982
  vertex -0.00609875098 -0.00994001888 -0.0256223306
  vertex -0.00609497307 -0.00961533003 -0.0256223306
  endloop
 endfacet

 facet normal -0.98428452 -0.0284095518 -0.174289688
  outer loop
  vertex -0.00557289785 -0.00993926451 -0.028672982
  vertex -0.005554765 -0.0105674993 -0.028672982
  vertex -0.00609497307 -0.010566745 -0.0256223306
  endloop
 endfacet

 facet normal 0.816321373 -0.544719934 -0.192092642
  outer loop
  vertex 0.00156767759 -0.0115725258 -0.0256223306
  vertex 0.000823474431 -0.0126877939 -0.0256223306
  vertex 0.000332375552 -0.0122083118 -0.0290689915
  endloop
 endfacet

 facet normal 0.870187879 -0.434862107 -0.231663525
  outer loop
  vertex 0.00156767759 -0.0115725258 -0.0256223306
  vertex 0.000332375552 -0.0122083118 -0.0290689915
  vertex 0.000942849205 -0.0109948814 -0.0290536601
  endloop
 endfacet

 facet normal 0.410360038 -0.882385254 -0.230219334
  outer loop
  vertex -0.000287919946 -0.012818425 -0.0290630087
  vertex -0.000960347708 -0.0140288351 -0.0256223306
  vertex -0.00154815463 -0.0134149464 -0.0290229954
  endloop
 endfacet

 facet normal 0.355599552 -0.785253584 -0.506878436
  outer loop
  vertex -0.000287919946 -0.012818425 -0.0290630087
  vertex -0.00154815463 -0.0134149464 -0.0290229954
  vertex -0.000665687898 -0.0129286684 -0.0291572418
  endloop
 endfacet

 facet normal 0.686509669 -0.699899733 -0.197091013
  outer loop
  vertex -0.000287919946 -0.012818425 -0.0290630087
  vertex 0.000332375552 -0.0122083118 -0.0290689915
  vertex 0.000194867956 -0.0133137647 -0.0256223306
  endloop
 endfacet

 facet normal 0.516467988 -0.83436799 -0.192589968
  outer loop
  vertex -0.000287919946 -0.012818425 -0.0290630087
  vertex 0.000194867956 -0.0133137647 -0.0256223306
  vertex -0.000960347708 -0.0140288351 -0.0256223306
  endloop
 endfacet

 facet normal 0.212108538 -0.598248363 -0.772728205
  outer loop
  vertex -0.000665687898 -0.0129286684 -0.0291572418
  vertex -0.00154815463 -0.0134149464 -0.0290229954
  vertex -0.00132149365 -0.0131181953 -0.0291905235
  endloop
 endfacet

 facet normal 0.692034245 -0.694948435 -0.195282578
  outer loop
  vertex 0.000332375552 -0.0122083118 -0.0290689915
  vertex 0.000823474431 -0.0126877939 -0.0256223306
  vertex 0.000194867956 -0.0133137647 -0.0256223306
  endloop
 endfacet

 facet normal 0.13559027 -0.563584864 -0.814854205
  outer loop
  vertex -0.00132149365 -0.0131181953 -0.0291905235
  vertex -0.00154815463 -0.0134149464 -0.0290229954
  vertex -0.00192365632 -0.0134398649 -0.0290682428
  endloop
 endfacet

 facet normal 0.11572881 -0.534823358 -0.837001085
  outer loop
  vertex -0.00132149365 -0.0131181953 -0.0291905235
  vertex -0.00192365632 -0.0134398649 -0.0290682428
  vertex -0.00192365632 -0.0130834617 -0.0292959772
  endloop
 endfacet

 facet normal 0.00531005673 -0.538433671 -0.842651248
  outer loop
  vertex -0.00192365632 -0.0130834617 -0.0292959772
  vertex -0.00192365632 -0.0134398649 -0.0290682428
  vertex -0.00255150697 -0.0134413745 -0.029071236
  endloop
 endfacet

 facet normal 0.00402012793 -0.536821008 -0.843686581
  outer loop
  vertex -0.00192365632 -0.0130834617 -0.0292959772
  vertex -0.00255150697 -0.0134413745 -0.029071236
  vertex -0.00255150697 -0.0130834617 -0.0292989686
  endloop
 endfacet

 facet normal -0.113548115 -0.533353448 -0.838236809
  outer loop
  vertex -0.00255150697 -0.0130834617 -0.0292989686
  vertex -0.00255150697 -0.0134413745 -0.029071236
  vertex -0.0031589584 -0.0131204613 -0.0291931406
  endloop
 endfacet

 facet normal -0.203345761 -0.59029752 -0.781152666
  outer loop
  vertex -0.00380947534 -0.0129354643 -0.029163599
  vertex -0.0031589584 -0.0131204613 -0.0291931406
  vertex -0.00293532014 -0.0134172123 -0.02902711
  endloop
 endfacet

 facet normal -0.348449558 -0.779681861 -0.520268381
  outer loop
  vertex -0.00380947534 -0.0129354643 -0.029163599
  vertex -0.00293532014 -0.0134172123 -0.02902711
  vertex -0.00419630995 -0.0128244655 -0.0290708598
  endloop
 endfacet

 facet normal -0.129386276 -0.556639671 -0.820616484
  outer loop
  vertex -0.0031589584 -0.0131204613 -0.0291931406
  vertex -0.00255150697 -0.0134413745 -0.029071236
  vertex -0.00293532014 -0.0134172123 -0.02902711
  endloop
 endfacet

 facet normal -0.6766361 -0.720463216 -0.151974946
  outer loop
  vertex -0.00419630995 -0.0128244655 -0.0290708598
  vertex -0.00442977063 -0.0133326417 -0.0256223306
  vertex -0.00470554223 -0.0130736455 -0.0256223306
  endloop
 endfacet

 facet normal -0.685438573 -0.711947441 -0.152659461
  outer loop
  vertex -0.00419630995 -0.0128244655 -0.0290708598
  vertex -0.00470554223 -0.0130736455 -0.0256223306
  vertex -0.00454687933 -0.0125722652 -0.028672982
  endloop
 endfacet

 facet normal -0.688777089 -0.707444847 -0.158455014
  outer loop
  vertex -0.00419630995 -0.0128244655 -0.0290708598
  vertex -0.00454687933 -0.0125722652 -0.028672982
  vertex -0.00481736101 -0.012218128 -0.0290783402
  endloop
 endfacet

 facet normal -0.408366621 -0.885195673 -0.222857326
  outer loop
  vertex -0.00419630995 -0.0128244655 -0.0290708598
  vertex -0.00293532014 -0.0134172123 -0.02902711
  vertex -0.00380947534 -0.013103094 -0.028672982
  endloop
 endfacet

 facet normal -0.446070254 -0.876664162 -0.1802257
  outer loop
  vertex -0.00419630995 -0.0128244655 -0.0290708598
  vertex -0.00380947534 -0.013103094 -0.028672982
  vertex -0.00319446856 -0.0140431821 -0.0256223306
  endloop
 endfacet

 facet normal -0.492221683 -0.85574615 -0.159425646
  outer loop
  vertex -0.00419630995 -0.0128244655 -0.0290708598
  vertex -0.00319446856 -0.0140431821 -0.0256223306
  vertex -0.00442977063 -0.0133326417 -0.0256223306
  endloop
 endfacet

 facet normal -0.694013119 -0.703785121 -0.151763901
  outer loop
  vertex -0.00481736101 -0.012218128 -0.0290783402
  vertex -0.00454687933 -0.0125722652 -0.028672982
  vertex -0.00470554223 -0.0130736455 -0.0256223306
  endloop
 endfacet

 facet normal -0.695747375 -0.70216918 -0.151307791
  outer loop
  vertex -0.00481736101 -0.012218128 -0.0290783402
  vertex -0.00470554223 -0.0130736455 -0.0256223306
  vertex -0.00505837658 -0.0127240382 -0.0256223306
  endloop
 endfacet

 facet normal -0.721220613 -0.676421404 -0.149315119
  outer loop
  vertex -0.00481736101 -0.012218128 -0.0290783402
  vertex -0.00505837658 -0.0127240382 -0.0256223306
  vertex -0.00531828171 -0.0124469204 -0.0256223306
  endloop
 endfacet

 facet normal -0.746343613 -0.648185015 -0.151087224
  outer loop
  vertex -0.00481736101 -0.012218128 -0.0290783402
  vertex -0.00531828171 -0.0124469204 -0.0256223306
  vertex -0.00588946743 -0.0117892362 -0.0256223306
  endloop
 endfacet

 facet normal -0.861223459 -0.462941021 -0.209713548
  outer loop
  vertex -0.00481736101 -0.012218128 -0.0290783402
  vertex -0.00588946743 -0.0117892362 -0.0256223306
  vertex -0.00512713101 -0.0118254814 -0.028672982
  endloop
 endfacet

 facet normal -0.863907993 -0.45181796 -0.222539246
  outer loop
  vertex -0.00481736101 -0.012218128 -0.0290783402
  vertex -0.00512713101 -0.0118254814 -0.028672982
  vertex -0.00534472521 -0.0114094261 -0.028672982
  endloop
 endfacet

 facet normal -0.863622427 -0.438468993 -0.248799473
  outer loop
  vertex -0.00481736101 -0.012218128 -0.0290783402
  vertex -0.00534472521 -0.0114094261 -0.028672982
  vertex -0.00542707881 -0.0110235745 -0.0290671214
  endloop
 endfacet

 facet normal -0.949170411 -0.255276889 -0.184145227
  outer loop
  vertex -0.00542707881 -0.0110235745 -0.0290671214
  vertex -0.00588946743 -0.0117892362 -0.0256223306
  vertex -0.00604888517 -0.0111964894 -0.0256223306
  endloop
 endfacet

 facet normal -0.976416647 -0.116018094 -0.182073057
  outer loop
  vertex -0.00542707881 -0.0110235745 -0.0290671214
  vertex -0.00604888517 -0.0111964894 -0.0256223306
  vertex -0.005554765 -0.0105674993 -0.028672982
  endloop
 endfacet

 facet normal -0.890549421 -0.403872937 -0.209304571
  outer loop
  vertex -0.00542707881 -0.0110235745 -0.0290671214
  vertex -0.00534472521 -0.0114094261 -0.028672982
  vertex -0.00588946743 -0.0117892362 -0.0256223306
  endloop
 endfacet

 facet normal -0.982136905 -0.0718778595 -0.173898667
  outer loop
  vertex -0.005554765 -0.0105674993 -0.028672982
  vertex -0.00604888517 -0.0111964894 -0.0256223306
  vertex -0.00609497307 -0.010566745 -0.0256223306
  endloop
 endfacet

 facet normal 0.0930907652 -0.976883769 -0.192438036
  outer loop
  vertex -0.000960347708 -0.0140288351 -0.0256223306
  vertex -0.00161010819 -0.0140907532 -0.0256223306
  vertex -0.00154815463 -0.0134149464 -0.0290229954
  endloop
 endfacet

 facet normal 0.0880653486 -0.977314651 -0.192615211
  outer loop
  vertex -0.00154815463 -0.0134149464 -0.0290229954
  vertex -0.00161010819 -0.0140907532 -0.0256223306
  vertex -0.00192365632 -0.0134398649 -0.0290682428
  endloop
 endfacet

 facet normal 0.0118279029 -0.982358992 -0.186631069
  outer loop
  vertex -0.00192365632 -0.0134398649 -0.0290682428
  vertex -0.00161010819 -0.0140907532 -0.0256223306
  vertex -0.00192365632 -0.0140945287 -0.0256223306
  endloop
 endfacet

 facet normal 0.00325194327 -0.982422471 -0.186643124
  outer loop
  vertex -0.00192365632 -0.0134398649 -0.0290682428
  vertex -0.00192365632 -0.0140945287 -0.0256223306
  vertex -0.00255150697 -0.0134413745 -0.029071236
  endloop
 endfacet

 facet normal 0.00239585061 -0.982453346 -0.186493143
  outer loop
  vertex -0.00255150697 -0.0134413745 -0.029071236
  vertex -0.00192365632 -0.0140945287 -0.0256223306
  vertex -0.00223342632 -0.014095284 -0.0256223306
  endloop
 endfacet

 facet normal 0 -0.982496679 -0.186280414
  outer loop
  vertex -0.00255150697 -0.0134413745 -0.029071236
  vertex -0.00223342632 -0.014095284 -0.0256223306
  vertex -0.00255150697 -0.014095284 -0.0256223306
  endloop
 endfacet

 facet normal -0.0793638527 -0.979397655 -0.185692832
  outer loop
  vertex -0.00255150697 -0.0134413745 -0.029071236
  vertex -0.00255150697 -0.014095284 -0.0256223306
  vertex -0.00319446856 -0.0140431821 -0.0256223306
  endloop
 endfacet

 facet normal -0.0830505267 -0.978975356 -0.186306417
  outer loop
  vertex -0.00255150697 -0.0134413745 -0.029071236
  vertex -0.00319446856 -0.0140431821 -0.0256223306
  vertex -0.00293532014 -0.0134172123 -0.02902711
  endloop
 endfacet

 facet normal -0.40070793 -0.895196199 -0.195081502
  outer loop
  vertex -0.00293532014 -0.0134172123 -0.02902711
  vertex -0.00319446856 -0.0140431821 -0.0256223306
  vertex -0.00380947534 -0.013103094 -0.028672982
  endloop
 endfacet

 facet normal -0.866165757 -0.452998757 -0.211066693
  outer loop
  vertex -0.00588946743 -0.0117892362 -0.0256223306
  vertex -0.00534472521 -0.0114094261 -0.028672982
  vertex -0.00512713101 -0.0118254814 -0.028672982
  endloop
 endfacet

endsolid AssimpScene
