solid AssimpScene
 facet normal 0 1 0
  outer loop
  vertex -0.124682151 -0.0159605462 0.0059799999
  vertex -0.124682151 -0.0159605462 -0.00303369272
  vertex -0.125967965 -0.0159605462 -0.00303369272
  endloop
 endfacet

 facet normal 0 1 0
  outer loop
  vertex -0.124682151 -0.0159605462 0.0059799999
  vertex -0.125967965 -0.0159605462 -0.00303369272
  vertex -0.125967965 -0.0159605462 0.0059799999
  endloop
 endfacet

 facet normal 0 0 1
  outer loop
  vertex -0.124682151 -0.0159605462 0.0059799999
  vertex -0.125967965 -0.0159605462 0.0059799999
  vertex -0.14458254 -0.0159828216 0.0059799999
  endloop
 endfacet

 facet normal 0 0 1
  outer loop
  vertex -0.124682151 -0.0159605462 0.0059799999
  vertex -0.14458254 -0.0159828216 0.0059799999
  vertex -0.14458254 -0.0267808642 0.0059799999
  endloop
 endfacet

 facet normal 0 0 1
  outer loop
  vertex -0.124682151 -0.0159605462 0.0059799999
  vertex -0.14458254 -0.0267808642 0.0059799999
  vertex -0.116986185 -0.0267957132 0.0059799999
  endloop
 endfacet

 facet normal 0.815276504 0.579071939 0
  outer loop
  vertex -0.124682151 -0.0159605462 0.0059799999
  vertex -0.116986185 -0.0267957132 0.0059799999
  vertex -0.116986185 -0.0267957132 -0.00303369272
  endloop
 endfacet

 facet normal 0.815276504 0.579071939 0
  outer loop
  vertex -0.124682151 -0.0159605462 0.0059799999
  vertex -0.116986185 -0.0267957132 -0.00303369272
  vertex -0.124682151 -0.0159605462 -0.00303369272
  endloop
 endfacet

 facet normal 0 0 -1
  outer loop
  vertex -0.124682151 -0.0159605462 -0.00303369272
  vertex -0.116986185 -0.0267957132 -0.00303369272
  vertex -0.14458254 -0.0267808642 -0.00303369272
  endloop
 endfacet

 facet normal 0 0 -1
  outer loop
  vertex -0.124682151 -0.0159605462 -0.00303369272
  vertex -0.14458254 -0.0267808642 -0.00303369272
  vertex -0.14458254 -0.0159828216 -0.00303369272
  endloop
 endfacet

 facet normal 0 0 -1
  outer loop
  vertex -0.124682151 -0.0159605462 -0.00303369272
  vertex -0.14458254 -0.0159828216 -0.00303369272
  vertex -0.125967965 -0.0159605462 -0.00303369272
  endloop
 endfacet

 facet normal -0.00119666161 0.999999225 0
  outer loop
  vertex -0.125967965 -0.0159605462 0.0059799999
  vertex -0.125967965 -0.0159605462 -0.00303369272
  vertex -0.14458254 -0.0159828216 -0.00303369272
  endloop
 endfacet

 facet normal -0.00119666161 0.999999225 0
  outer loop
  vertex -0.125967965 -0.0159605462 0.0059799999
  vertex -0.14458254 -0.0159828216 -0.00303369272
  vertex -0.14458254 -0.0159828216 0.0059799999
  endloop
 endfacet

 facet normal -0.000538123248 -0.999999881 0
  outer loop
  vertex -0.116986185 -0.0267957132 0.0059799999
  vertex -0.14458254 -0.0267808642 0.0059799999
  vertex -0.14458254 -0.0267808642 -0.00303369272
  endloop
 endfacet

 facet normal -0.000538123248 -0.999999881 0
  outer loop
  vertex -0.116986185 -0.0267957132 0.0059799999
  vertex -0.14458254 -0.0267808642 -0.00303369272
  vertex -0.116986185 -0.0267957132 -0.00303369272
  endloop
 endfacet

 facet normal -1 0 0
  outer loop
  vertex -0.14458254 -0.0159828216 0.0059799999
  vertex -0.14458254 -0.0159828216 -0.00303369272
  vertex -0.14458254 -0.0267808642 -0.00303369272
  endloop
 endfacet

 facet normal -1 0 0
  outer loop
  vertex -0.14458254 -0.0159828216 0.0059799999
  vertex -0.14458254 -0.0267808642 -0.00303369272
  vertex -0.14458254 -0.0267808642 0.0059799999
  endloop
 endfacet

endsolid AssimpScene
