solid AssimpScene
 facet normal 0 0 1
  outer loop
  vertex -0.0408041514 0.0151435593 -0.00299600046
  vertex -0.0434901416 0.0151435593 -0.00299600046
  vertex -0.0410318337 0.014250081 -0.00299600046
  endloop
 endfacet

 facet normal 0 0 1
  outer loop
  vertex -0.0408041514 0.0151435593 -0.00299600046
  vertex -0.0410318337 0.014250081 -0.00299600046
  vertex -0.0410070866 0.0142449914 -0.00299600046
  endloop
 endfacet

 facet normal 0 0 1
  outer loop
  vertex -0.0408041514 0.0151435593 -0.00299600046
  vertex -0.0410070866 0.0142449914 -0.00299600046
  vertex -0.0409988388 0.0142813409 -0.00299600046
  endloop
 endfacet

 facet normal 0.000536606298 -0.000121163226 0.999999881
  outer loop
  vertex -0.0408041514 0.0151435593 -0.00299600046
  vertex -0.0409988388 0.0142813409 -0.00299600046
  vertex -0.0337031074 0.0125932554 -0.00300011993
  endloop
 endfacet

 facet normal 0.338006884 0.941143632 0
  outer loop
  vertex -0.0408041514 0.0151435593 -0.00299600046
  vertex -0.0337031074 0.0125932554 -0.00300011993
  vertex -0.0337031074 0.0125932554 -0.00449998118
  endloop
 endfacet

 facet normal 0.328749865 0.943234324 -0.0472523421
  outer loop
  vertex -0.0408041514 0.0151435593 -0.00299600046
  vertex -0.0337031074 0.0125932554 -0.00449998118
  vertex -0.0337031074 0.0125910742 -0.00454352889
  endloop
 endfacet

 facet normal 0.311849028 0.942137301 -0.122994639
  outer loop
  vertex -0.0408041514 0.0151435593 -0.00299600046
  vertex -0.0337031074 0.0125910742 -0.00454352889
  vertex -0.0337047577 0.0125859855 -0.00458668498
  endloop
 endfacet

 facet normal 0.287119836 0.932710111 -0.218206197
  outer loop
  vertex -0.0408041514 0.0151435593 -0.00299600046
  vertex -0.0337047577 0.0125859855 -0.00458668498
  vertex -0.0337064043 0.0125765344 -0.00462925248
  endloop
 endfacet

 facet normal 0.259923816 0.915002227 -0.3085621
  outer loop
  vertex -0.0408041514 0.0151435593 -0.00299600046
  vertex -0.0337064043 0.0125765344 -0.00462925248
  vertex -0.0337097049 0.0125634484 -0.00467083929
  endloop
 endfacet

 facet normal 0.237665102 0.896387696 -0.374171734
  outer loop
  vertex -0.0408041514 0.0151435593 -0.00299600046
  vertex -0.0337097049 0.0125634484 -0.00467083929
  vertex -0.0337130055 0.0125474548 -0.00471124891
  endloop
 endfacet

 facet normal 0.206188783 0.86519289 -0.457085848
  outer loop
  vertex -0.0408041514 0.0151435593 -0.00299600046
  vertex -0.0337130055 0.0125474548 -0.00471124891
  vertex -0.0337163061 0.0125278253 -0.00474989321
  endloop
 endfacet

 facet normal 0.192207858 0.849856734 -0.490713537
  outer loop
  vertex -0.0408041514 0.0151435593 -0.00299600046
  vertex -0.0337163061 0.0125278253 -0.00474989321
  vertex -0.045281902 0.0151435593 -0.00474989321
  endloop
 endfacet

 facet normal 0 1 0
  outer loop
  vertex -0.0408041514 0.0151435593 -0.00299600046
  vertex -0.045281902 0.0151435593 -0.00474989321
  vertex -0.0453874953 0.0151435593 -0.00478677126
  endloop
 endfacet

 facet normal 0 1 0
  outer loop
  vertex -0.0408041514 0.0151435593 -0.00299600046
  vertex -0.0453874953 0.0151435593 -0.00478677126
  vertex -0.0455079339 0.0151435593 -0.00482129632
  endloop
 endfacet

 facet normal 0 1 0
  outer loop
  vertex -0.0408041514 0.0151435593 -0.00299600046
  vertex -0.0455079339 0.0151435593 -0.00482129632
  vertex -0.0456151776 0.0151435593 -0.00484718941
  endloop
 endfacet

 facet normal 0 1 0
  outer loop
  vertex -0.0408041514 0.0151435593 -0.00299600046
  vertex -0.0456151776 0.0151435593 -0.00484718941
  vertex -0.045641575 0.0151435593 -0.00485346699
  endloop
 endfacet

 facet normal 0 1 0
  outer loop
  vertex -0.0408041514 0.0151435593 -0.00299600046
  vertex -0.045641575 0.0151435593 -0.00485346699
  vertex -0.0457587168 0.0151435593 -0.00487700617
  endloop
 endfacet

 facet normal 0 1 0
  outer loop
  vertex -0.0408041514 0.0151435593 -0.00299600046
  vertex -0.0457587168 0.0151435593 -0.00487700617
  vertex -0.0457884111 0.0151435593 -0.00488289166
  endloop
 endfacet

 facet normal 0 1 0
  outer loop
  vertex -0.0408041514 0.0151435593 -0.00299600046
  vertex -0.0457884111 0.0151435593 -0.00488289166
  vertex -0.0458692573 0.0151435593 -0.00489681866
  endloop
 endfacet

 facet normal 0 1 0
  outer loop
  vertex -0.0408041514 0.0151435593 -0.00299600046
  vertex -0.0458692573 0.0151435593 -0.00489681866
  vertex -0.0459451526 0.0151435593 -0.00490956847
  endloop
 endfacet

 facet normal 0 1 0
  outer loop
  vertex -0.0408041514 0.0151435593 -0.00299600046
  vertex -0.0459451526 0.0151435593 -0.00490956847
  vertex -0.0460325927 0.0151435593 -0.00492192712
  endloop
 endfacet

 facet normal 0 1 0
  outer loop
  vertex -0.0408041514 0.0151435593 -0.00299600046
  vertex -0.0460325927 0.0151435593 -0.00492192712
  vertex -0.0460771434 0.0151435593 -0.0049282047
  endloop
 endfacet

 facet normal 0 1 0
  outer loop
  vertex -0.0408041514 0.0151435593 -0.00299600046
  vertex -0.0460771434 0.0151435593 -0.0049282047
  vertex -0.0461117886 0.0151435593 -0.00493291253
  endloop
 endfacet

 facet normal 0 1 0
  outer loop
  vertex -0.0408041514 0.0151435593 -0.00299600046
  vertex -0.0461117886 0.0151435593 -0.00493291253
  vertex -0.0462866724 0.0151435593 -0.00495311711
  endloop
 endfacet

 facet normal 0 1 0
  outer loop
  vertex -0.0408041514 0.0151435593 -0.00299600046
  vertex -0.0462866724 0.0151435593 -0.00495311711
  vertex -0.0463856645 0.0151435593 -0.00496214116
  endloop
 endfacet

 facet normal 0 1 0
  outer loop
  vertex -0.0408041514 0.0151435593 -0.00299600046
  vertex -0.0463856645 0.0151435593 -0.00496214116
  vertex -0.0464698114 0.0151435593 -0.00496979104
  endloop
 endfacet

 facet normal 0 1 0
  outer loop
  vertex -0.0408041514 0.0151435593 -0.00299600046
  vertex -0.0464698114 0.0151435593 -0.00496979104
  vertex -0.0466578975 0.0151435593 -0.00498293433
  endloop
 endfacet

 facet normal 0 1 0
  outer loop
  vertex -0.0408041514 0.0151435593 -0.00299600046
  vertex -0.0466578975 0.0151435593 -0.00498293433
  vertex -0.0468509309 0.0151435593 -0.00499234954
  endloop
 endfacet

 facet normal 0 1 0
  outer loop
  vertex -0.0408041514 0.0151435593 -0.00299600046
  vertex -0.0468509309 0.0151435593 -0.00499234954
  vertex -0.0470472649 0.0151435593 -0.00499803899
  endloop
 endfacet

 facet normal 0 1 0
  outer loop
  vertex -0.0408041514 0.0151435593 -0.00299600046
  vertex -0.0470472649 0.0151435593 -0.00499803899
  vertex -0.0472452492 0.0151435593 -0.00500000035
  endloop
 endfacet

 facet normal 0 1 0
  outer loop
  vertex -0.0408041514 0.0151435593 -0.00299600046
  vertex -0.0472452492 0.0151435593 -0.00500000035
  vertex -0.0505565405 0.0151435593 -0.00500000035
  endloop
 endfacet

 facet normal 0 1 0
  outer loop
  vertex -0.0408041514 0.0151435593 -0.00299600046
  vertex -0.0505565405 0.0151435593 -0.00500000035
  vertex -0.0505565405 0.0151435593 -0.00299953111
  endloop
 endfacet

 facet normal 0 1 0
  outer loop
  vertex -0.0408041514 0.0151435593 -0.00299600046
  vertex -0.0505565405 0.0151435593 -0.00299953111
  vertex -0.044978328 0.0151435593 -0.00299658906
  endloop
 endfacet

 facet normal 0 1 0
  outer loop
  vertex -0.0408041514 0.0151435593 -0.00299600046
  vertex -0.044978328 0.0151435593 -0.00299658906
  vertex -0.0434901416 0.0151435593 -0.00299600046
  endloop
 endfacet

 facet normal -0.000395586219 -0.000342612329 0.999999881
  outer loop
  vertex -0.0434901416 0.0151435593 -0.00299600046
  vertex -0.044978328 0.0151435593 -0.00299658906
  vertex -0.0505565405 0.0112788454 -0.00300011993
  endloop
 endfacet

 facet normal -0.00023274179 -0.000640363549 0.999999762
  outer loop
  vertex -0.0434901416 0.0151435593 -0.00299600046
  vertex -0.0505565405 0.0112788454 -0.00300011993
  vertex -0.0410318337 0.014250081 -0.00299600046
  endloop
 endfacet

 facet normal 0.000536156702 -0.000121667428 0.999999881
  outer loop
  vertex -0.0409988388 0.0142813409 -0.00299600046
  vertex -0.0410070866 0.0142449914 -0.00299600046
  vertex -0.0348052196 0.0077165626 -0.00300011993
  endloop
 endfacet

 facet normal 0.000536582666 -0.000121265533 0.999999881
  outer loop
  vertex -0.0409988388 0.0142813409 -0.00299600046
  vertex -0.0348052196 0.0077165626 -0.00300011993
  vertex -0.0337031074 0.0125932554 -0.00300011993
  endloop
 endfacet

 facet normal 0.978727579 -0.205163926 0.000289996213
  outer loop
  vertex -0.0337031074 0.0125932554 -0.00300011993
  vertex -0.0337163061 0.0125278253 -0.00474989321
  vertex -0.0337031074 0.0125910742 -0.00454352889
  endloop
 endfacet

 facet normal 1 0 0
  outer loop
  vertex -0.0337031074 0.0125932554 -0.00300011993
  vertex -0.0337031074 0.0125910742 -0.00454352889
  vertex -0.0337031074 0.0125932554 -0.00449998118
  endloop
 endfacet

 facet normal 0.975400984 -0.220436737 0.000886188238
  outer loop
  vertex -0.0337031074 0.0125932554 -0.00300011993
  vertex -0.0348052196 0.0077165626 -0.00300011993
  vertex -0.0337163061 0.0125278253 -0.00474989321
  endloop
 endfacet

 facet normal 0.983097494 -0.182956606 -0.00679577887
  outer loop
  vertex -0.0337031074 0.0125910742 -0.00454352889
  vertex -0.0337163061 0.0125278253 -0.00474989321
  vertex -0.0337064043 0.0125765344 -0.00462925248
  endloop
 endfacet

 facet normal 0.99928087 -0.00551114092 -0.0375138707
  outer loop
  vertex -0.0337031074 0.0125910742 -0.00454352889
  vertex -0.0337064043 0.0125765344 -0.00462925248
  vertex -0.0337047577 0.0125859855 -0.00458668498
  endloop
 endfacet

 facet normal 0.997110307 -0.0320498012 -0.0688751116
  outer loop
  vertex -0.0337064043 0.0125765344 -0.00462925248
  vertex -0.0337163061 0.0125278253 -0.00474989321
  vertex -0.0337130055 0.0125474548 -0.00471124891
  endloop
 endfacet

 facet normal 0.99713248 -0.0278225541 -0.0703760907
  outer loop
  vertex -0.0337064043 0.0125765344 -0.00462925248
  vertex -0.0337130055 0.0125474548 -0.00471124891
  vertex -0.0337097049 0.0125634484 -0.00467083929
  endloop
 endfacet

 facet normal 0.975373864 -0.220557377 0.000537493848
  outer loop
  vertex -0.0337163061 0.0125278253 -0.00474989321
  vertex -0.0348052196 0.0077165626 -0.00300011993
  vertex -0.0337740518 0.012271923 -0.00496979104
  endloop
 endfacet

 facet normal 0.976109207 -0.217252344 -0.00350183388
  outer loop
  vertex -0.0337163061 0.0125278253 -0.00474989321
  vertex -0.0337740518 0.012271923 -0.00496979104
  vertex -0.0337410532 0.0124187768 -0.00488289166
  endloop
 endfacet

 facet normal 0.98394388 -0.173802122 -0.0405856632
  outer loop
  vertex -0.0337163061 0.0125278253 -0.00474989321
  vertex -0.0337410532 0.0124187768 -0.00488289166
  vertex -0.0337278545 0.0124791171 -0.00482129632
  endloop
 endfacet

 facet normal 0.888978183 0.298426211 -0.347360969
  outer loop
  vertex -0.0337163061 0.0125278253 -0.00474989321
  vertex -0.0337278545 0.0124791171 -0.00482129632
  vertex -0.0337229073 0.0125045618 -0.00478677126
  endloop
 endfacet

 facet normal 0.184611365 0.815997779 -0.547783136
  outer loop
  vertex -0.0337163061 0.0125278253 -0.00474989321
  vertex -0.0337229073 0.0125045618 -0.00478677126
  vertex -0.0453874953 0.0151435593 -0.00478677126
  endloop
 endfacet

 facet normal 0.186507061 0.824650407 -0.534010112
  outer loop
  vertex -0.0337163061 0.0125278253 -0.00474989321
  vertex -0.0453874953 0.0151435593 -0.00478677126
  vertex -0.045281902 0.0151435593 -0.00474989321
  endloop
 endfacet

 facet normal -0.000161270291 -0.000784207776 0.999999702
  outer loop
  vertex -0.0410318337 0.014250081 -0.00299600046
  vertex -0.0348052196 0.0077165626 -0.00300011993
  vertex -0.0410070866 0.0142449914 -0.00299600046
  endloop
 endfacet

 facet normal -0.000181773881 -0.000803748146 0.999999702
  outer loop
  vertex -0.0410318337 0.014250081 -0.00299600046
  vertex -0.0505565405 0.0112788454 -0.00300011993
  vertex -0.0348052196 0.0077165626 -0.00300011993
  endloop
 endfacet

 facet normal -0.000527419324 -0.000152328284 0.999999881
  outer loop
  vertex -0.044978328 0.0151435593 -0.00299658906
  vertex -0.0505565405 0.0151435593 -0.00299953111
  vertex -0.0505565405 0.0112788454 -0.00300011993
  endloop
 endfacet

 facet normal -1 0 0
  outer loop
  vertex -0.0505565405 0.0112788454 -0.00300011993
  vertex -0.0505565405 0.0151435593 -0.00299953111
  vertex -0.0505565405 0.0151435593 -0.00500000035
  endloop
 endfacet

 facet normal -1 0 0
  outer loop
  vertex -0.0505565405 0.0112788454 -0.00300011993
  vertex -0.0505565405 0.0151435593 -0.00500000035
  vertex -0.0505565405 0.0112788454 -0.00500000035
  endloop
 endfacet

 facet normal -0.220586866 -0.975367308 0
  outer loop
  vertex -0.0505565405 0.0112788454 -0.00300011993
  vertex -0.0505565405 0.0112788454 -0.00500000035
  vertex -0.0348052196 0.0077165626 -0.00500000035
  endloop
 endfacet

 facet normal -0.220586866 -0.975367308 0
  outer loop
  vertex -0.0505565405 0.0112788454 -0.00300011993
  vertex -0.0348052196 0.0077165626 -0.00500000035
  vertex -0.0348052196 0.0077165626 -0.00300011993
  endloop
 endfacet

 facet normal 0.975324035 -0.22077851 0
  outer loop
  vertex -0.0348052196 0.0077165626 -0.00300011993
  vertex -0.0348052196 0.0077165626 -0.00500000035
  vertex -0.0337740518 0.012271923 -0.00496979104
  endloop
 endfacet

 facet normal 0.981731653 -0.169890791 -0.0856741816
  outer loop
  vertex -0.0337740518 0.012271923 -0.00496979104
  vertex -0.0337658003 0.0123111811 -0.00495311711
  vertex -0.0337410532 0.0124187768 -0.00488289166
  endloop
 endfacet

 facet normal 0.97529906 -0.220714748 -0.00876350235
  outer loop
  vertex -0.0337740518 0.012271923 -0.00496979104
  vertex -0.0348052196 0.0077165626 -0.00500000035
  vertex -0.0338119976 0.0121054407 -0.00500000035
  endloop
 endfacet

 facet normal 0.971585155 -0.197897881 -0.129841119
  outer loop
  vertex -0.0337740518 0.012271923 -0.00496979104
  vertex -0.0338119976 0.0121054407 -0.00500000035
  vertex -0.0337839499 0.0122319385 -0.00498293433
  endloop
 endfacet

 facet normal 0.0670736507 0.296538621 -0.952662587
  outer loop
  vertex -0.0337740518 0.012271923 -0.00496979104
  vertex -0.0337839499 0.0122319385 -0.00498293433
  vertex -0.0464698114 0.0151435593 -0.00496979104
  endloop
 endfacet

 facet normal 0.0840559527 0.371618867 -0.924572408
  outer loop
  vertex -0.0337740518 0.012271923 -0.00496979104
  vertex -0.0464698114 0.0151435593 -0.00496979104
  vertex -0.0463856645 0.0151435593 -0.00496214116
  endloop
 endfacet

 facet normal 0.0842487663 0.372464716 -0.924214363
  outer loop
  vertex -0.0337740518 0.012271923 -0.00496979104
  vertex -0.0463856645 0.0151435593 -0.00496214116
  vertex -0.0462866724 0.0151435593 -0.00495311711
  endloop
 endfacet

 facet normal 0.0846918523 0.374390602 -0.923395455
  outer loop
  vertex -0.0337740518 0.012271923 -0.00496979104
  vertex -0.0462866724 0.0151435593 -0.00495311711
  vertex -0.0337658003 0.0123111811 -0.00495311711
  endloop
 endfacet

 facet normal 0.988318682 -0.119009554 -0.0951995477
  outer loop
  vertex -0.0337410532 0.0124187768 -0.00488289166
  vertex -0.0337344557 0.0124500375 -0.00485346699
  vertex -0.0337278545 0.0124791171 -0.00482129632
  endloop
 endfacet

 facet normal 0.98193115 -0.161824957 -0.0981024429
  outer loop
  vertex -0.0337410532 0.0124187768 -0.00488289166
  vertex -0.0337658003 0.0123111811 -0.00495311711
  vertex -0.0337575525 0.0123489844 -0.00493291253
  endloop
 endfacet

 facet normal 0.981866717 -0.142573863 -0.124941483
  outer loop
  vertex -0.0337410532 0.0124187768 -0.00488289166
  vertex -0.0337575525 0.0123489844 -0.00493291253
  vertex -0.0337493047 0.0123853339 -0.00490956847
  endloop
 endfacet

 facet normal 0.135100916 0.597303152 -0.790554762
  outer loop
  vertex -0.0337410532 0.0124187768 -0.00488289166
  vertex -0.0337493047 0.0123853339 -0.00490956847
  vertex -0.0458692573 0.0151435593 -0.00489681866
  endloop
 endfacet

 facet normal 0.135776043 0.600320458 -0.788149953
  outer loop
  vertex -0.0337410532 0.0124187768 -0.00488289166
  vertex -0.0458692573 0.0151435593 -0.00489681866
  vertex -0.0457884111 0.0151435593 -0.00488289166
  endloop
 endfacet

 facet normal 0.147423387 0.651818156 -0.743908286
  outer loop
  vertex -0.0337410532 0.0124187768 -0.00488289166
  vertex -0.0457884111 0.0151435593 -0.00488289166
  vertex -0.0457587168 0.0151435593 -0.00487700617
  endloop
 endfacet

 facet normal 0.14855665 0.65680635 -0.739281058
  outer loop
  vertex -0.0337410532 0.0124187768 -0.00488289166
  vertex -0.0457587168 0.0151435593 -0.00487700617
  vertex -0.045641575 0.0151435593 -0.00485346699
  endloop
 endfacet

 facet normal 0.149477035 0.660785794 -0.735539854
  outer loop
  vertex -0.0337410532 0.0124187768 -0.00488289166
  vertex -0.045641575 0.0151435593 -0.00485346699
  vertex -0.0337344557 0.0124500375 -0.00485346699
  endloop
 endfacet

 facet normal 0.161814615 0.715324461 -0.679799199
  outer loop
  vertex -0.0337278545 0.0124791171 -0.00482129632
  vertex -0.0337344557 0.0124500375 -0.00485346699
  vertex -0.0456151776 0.0151435593 -0.00484718941
  endloop
 endfacet

 facet normal 0.162862942 0.72005266 -0.674536824
  outer loop
  vertex -0.0337278545 0.0124791171 -0.00482129632
  vertex -0.0456151776 0.0151435593 -0.00484718941
  vertex -0.0455079339 0.0151435593 -0.00482129632
  endloop
 endfacet

 facet normal 0.174828827 0.772956491 -0.609896123
  outer loop
  vertex -0.0337278545 0.0124791171 -0.00482129632
  vertex -0.0455079339 0.0151435593 -0.00482129632
  vertex -0.0453874953 0.0151435593 -0.00478677126
  endloop
 endfacet

 facet normal 0.176490784 0.780104101 -0.600240469
  outer loop
  vertex -0.0337278545 0.0124791171 -0.00482129632
  vertex -0.0453874953 0.0151435593 -0.00478677126
  vertex -0.0337229073 0.0125045618 -0.00478677126
  endloop
 endfacet

 facet normal 0 0 -1
  outer loop
  vertex -0.0505565405 0.0112788454 -0.00500000035
  vertex -0.0505565405 0.0151435593 -0.00500000035
  vertex -0.0472452492 0.0151435593 -0.00500000035
  endloop
 endfacet

 facet normal 0 0 -1
  outer loop
  vertex -0.0505565405 0.0112788454 -0.00500000035
  vertex -0.0472452492 0.0151435593 -0.00500000035
  vertex -0.0338119976 0.0121054407 -0.00500000035
  endloop
 endfacet

 facet normal 0 0 -1
  outer loop
  vertex -0.0505565405 0.0112788454 -0.00500000035
  vertex -0.0338119976 0.0121054407 -0.00500000035
  vertex -0.0348052196 0.0077165626 -0.00500000035
  endloop
 endfacet

 facet normal 0.102130547 0.451480508 -0.886416852
  outer loop
  vertex -0.0337658003 0.0123111811 -0.00495311711
  vertex -0.0462866724 0.0151435593 -0.00495311711
  vertex -0.0337575525 0.0123489844 -0.00493291253
  endloop
 endfacet

 facet normal 0.902946174 -0.158051223 -0.399634898
  outer loop
  vertex -0.0338119976 0.0121054407 -0.00500000035
  vertex -0.0338037498 0.0121476064 -0.00499803899
  vertex -0.033793848 0.0121897729 -0.00499234954
  endloop
 endfacet

 facet normal 0.970136404 -0.195773527 -0.143206328
  outer loop
  vertex -0.0338119976 0.0121054407 -0.00500000035
  vertex -0.033793848 0.0121897729 -0.00499234954
  vertex -0.0337839499 0.0122319385 -0.00498293433
  endloop
 endfacet

 facet normal 0.00989669375 0.0437589139 -0.998993099
  outer loop
  vertex -0.0338119976 0.0121054407 -0.00500000035
  vertex -0.0472452492 0.0151435593 -0.00500000035
  vertex -0.0470472649 0.0151435593 -0.00499803899
  endloop
 endfacet

 facet normal 0.0100664105 0.0444982499 -0.998958766
  outer loop
  vertex -0.0338119976 0.0121054407 -0.00500000035
  vertex -0.0470472649 0.0151435593 -0.00499803899
  vertex -0.0338037498 0.0121476064 -0.00499803899
  endloop
 endfacet

 facet normal 0.0468718633 0.207194969 -0.977176189
  outer loop
  vertex -0.0337839499 0.0122319385 -0.00498293433
  vertex -0.033793848 0.0121897729 -0.00499234954
  vertex -0.0468509309 0.0151435593 -0.00499234954
  endloop
 endfacet

 facet normal 0.0476252288 0.210578427 -0.97641623
  outer loop
  vertex -0.0337839499 0.0122319385 -0.00498293433
  vertex -0.0468509309 0.0151435593 -0.00499234954
  vertex -0.0466578975 0.0151435593 -0.00498293433
  endloop
 endfacet

 facet normal 0.0666167885 0.294550985 -0.953311086
  outer loop
  vertex -0.0337839499 0.0122319385 -0.00498293433
  vertex -0.0466578975 0.0151435593 -0.00498293433
  vertex -0.0464698114 0.0151435593 -0.00496979104
  endloop
 endfacet

 facet normal 0.102348924 0.452463359 -0.885890365
  outer loop
  vertex -0.0462866724 0.0151435593 -0.00495311711
  vertex -0.0461117886 0.0151435593 -0.00493291253
  vertex -0.0337575525 0.0123489844 -0.00493291253
  endloop
 endfacet

 facet normal 0.161747441 0.715028942 -0.680126071
  outer loop
  vertex -0.0337344557 0.0124500375 -0.00485346699
  vertex -0.045641575 0.0151435593 -0.00485346699
  vertex -0.0456151776 0.0151435593 -0.00484718941
  endloop
 endfacet

 facet normal 0.115695409 0.51146543 -0.851479709
  outer loop
  vertex -0.0337575525 0.0123489844 -0.00493291253
  vertex -0.0461117886 0.0151435593 -0.00493291253
  vertex -0.0460771434 0.0151435593 -0.0049282047
  endloop
 endfacet

 facet normal 0.117109291 0.517691731 -0.84751451
  outer loop
  vertex -0.0337575525 0.0123489844 -0.00493291253
  vertex -0.0460771434 0.0151435593 -0.0049282047
  vertex -0.0337493047 0.0123853339 -0.00490956847
  endloop
 endfacet

 facet normal 0.118754975 0.52507937 -0.842727065
  outer loop
  vertex -0.0337493047 0.0123853339 -0.00490956847
  vertex -0.0460771434 0.0151435593 -0.0049282047
  vertex -0.0460325927 0.0151435593 -0.00492192712
  endloop
 endfacet

 facet normal 0.119002841 0.526186466 -0.842001379
  outer loop
  vertex -0.0337493047 0.0123853339 -0.00490956847
  vertex -0.0460325927 0.0151435593 -0.00492192712
  vertex -0.0459451526 0.0151435593 -0.00490956847
  endloop
 endfacet

 facet normal 0.133649975 0.590950668 -0.795559585
  outer loop
  vertex -0.0337493047 0.0123853339 -0.00490956847
  vertex -0.0459451526 0.0151435593 -0.00490956847
  vertex -0.0458692573 0.0151435593 -0.00489681866
  endloop
 endfacet

 facet normal 0.0287310593 0.127004743 -0.991485953
  outer loop
  vertex -0.0338037498 0.0121476064 -0.00499803899
  vertex -0.0470472649 0.0151435593 -0.00499803899
  vertex -0.0468509309 0.0151435593 -0.00499234954
  endloop
 endfacet

 facet normal 0.0287369099 0.127030224 -0.991482496
  outer loop
  vertex -0.0338037498 0.0121476064 -0.00499803899
  vertex -0.0468509309 0.0151435593 -0.00499234954
  vertex -0.033793848 0.0121897729 -0.00499234954
  endloop
 endfacet

endsolid AssimpScene
