solid AssimpScene
 facet normal -0.26007551 -0.0116064157 -0.965518594
  outer loop
  vertex -0.116075695 -0.00061313418 0.0150005724
  vertex -0.115679085 0.0134041021 0.0147252409
  vertex -0.115653619 0.0128333829 0.0147252409
  endloop
 endfacet

 facet normal -0.136484832 -0.0159976408 -0.990513027
  outer loop
  vertex -0.116075695 -0.00061313418 0.0150005724
  vertex -0.115653619 0.0128333829 0.0147252409
  vertex -0.115649976 0.0128023392 0.0147252409
  endloop
 endfacet

 facet normal -0.125108048 -0.0163893439 -0.992007732
  outer loop
  vertex -0.116075695 -0.00061313418 0.0150005724
  vertex -0.115649976 0.0128023392 0.0147252409
  vertex -0.115580842 0.0122746043 0.0147252409
  endloop
 endfacet

 facet normal -0.0816467181 -0.0181540176 -0.996496081
  outer loop
  vertex -0.116075695 -0.00061313418 0.0150005724
  vertex -0.115580842 0.0122746043 0.0147252409
  vertex -0.115457132 0.0117182126 0.0147252409
  endloop
 endfacet

 facet normal -0.0649131089 -0.0190205034 -0.997709632
  outer loop
  vertex -0.116075695 -0.00061313418 0.0150005724
  vertex -0.115457132 0.0117182126 0.0147252409
  vertex -0.115448035 0.0116871698 0.0147252409
  endloop
 endfacet

 facet normal -0.0600821823 -0.0192736778 -0.998007298
  outer loop
  vertex -0.116075695 -0.00061313418 0.0150005724
  vertex -0.115448035 0.0116871698 0.0147252409
  vertex -0.115287937 0.0111880889 0.0147252409
  endloop
 endfacet

 facet normal -0.0484946892 -0.0200615115 -0.998621941
  outer loop
  vertex -0.116075695 -0.00061313418 0.0150005724
  vertex -0.115287937 0.0111880889 0.0147252409
  vertex -0.11506962 0.0106603531 0.0147252409
  endloop
 endfacet

 facet normal -0.0408577099 -0.0207510553 -0.998949468
  outer loop
  vertex -0.116075695 -0.00061313418 0.0150005724
  vertex -0.11506962 0.0106603531 0.0147252409
  vertex -0.115055069 0.0106316982 0.0147252409
  endloop
 endfacet

 facet normal -0.0396619961 -0.0208607074 -0.998995423
  outer loop
  vertex -0.116075695 -0.00061313418 0.0150005724
  vertex -0.115055069 0.0106316982 0.0147252409
  vertex -0.114807643 0.0101612732 0.0147252409
  endloop
 endfacet

 facet normal -0.0344548114 -0.0214781519 -0.999175489
  outer loop
  vertex -0.116075695 -0.00061313418 0.0150005724
  vertex -0.114807643 0.0101612732 0.0147252409
  vertex -0.114791267 0.0101350052 0.0147252409
  endloop
 endfacet

 facet normal -0.0341396667 -0.0215160679 -0.999185503
  outer loop
  vertex -0.116075695 -0.00061313418 0.0150005724
  vertex -0.114791267 0.0101350052 0.0147252409
  vertex -0.114503816 0.00967890769 0.0147252409
  endloop
 endfacet

 facet normal -0.0292293951 -0.0222697221 -0.999324679
  outer loop
  vertex -0.116075695 -0.00061313418 0.0150005724
  vertex -0.114503816 0.00967890769 0.0147252409
  vertex -0.114483804 0.00965264067 0.0147252409
  endloop
 endfacet

 facet normal -0.0288222935 -0.0223331265 -0.999334991
  outer loop
  vertex -0.116075695 -0.00061313418 0.0150005724
  vertex -0.114483804 0.00965264067 0.0147252409
  vertex -0.114158154 0.00923236273 0.0147252409
  endloop
 endfacet

 facet normal -0.0253393855 -0.0230136812 -0.999413967
  outer loop
  vertex -0.116075695 -0.00061313418 0.0150005724
  vertex -0.114158154 0.00923236273 0.0147252409
  vertex -0.113774277 0.00880969595 0.0147252409
  endloop
 endfacet

 facet normal -0.0218814369 -0.023860056 -0.999475837
  outer loop
  vertex -0.116075695 -0.00061313418 0.0150005724
  vertex -0.113774277 0.00880969595 0.0147252409
  vertex -0.113357656 0.00842762459 0.0147252409
  endloop
 endfacet

 facet normal -0.0188294612 -0.0247788206 -0.999515653
  outer loop
  vertex -0.116075695 -0.00061313418 0.0150005724
  vertex -0.113357656 0.00842762459 0.0147252409
  vertex -0.112908289 0.00808614865 0.0147252409
  endloop
 endfacet

 facet normal -0.0164993312 -0.0256278478 -0.999535441
  outer loop
  vertex -0.116075695 -0.00061313418 0.0150005724
  vertex -0.112908289 0.00808614865 0.0147252409
  vertex -0.112429813 0.00777810393 0.0147252409
  endloop
 endfacet

 facet normal -0.0136904623 -0.0268486049 -0.999545753
  outer loop
  vertex -0.116075695 -0.00061313418 0.0150005724
  vertex -0.112429813 0.00777810393 0.0147252409
  vertex -0.111924045 0.00752020581 0.0147252409
  endloop
 endfacet

 facet normal -0.0118244775 -0.0278010201 -0.999543607
  outer loop
  vertex -0.116075695 -0.00061313418 0.0150005724
  vertex -0.111924045 0.00752020581 0.0147252409
  vertex -0.111401908 0.00729812682 0.0147252409
  endloop
 endfacet

 facet normal -0.00956114195 -0.0291376617 -0.999529719
  outer loop
  vertex -0.116075695 -0.00061313418 0.0150005724
  vertex -0.111401908 0.00729812682 0.0147252409
  vertex -0.111372799 0.00728857517 0.0147252409
  endloop
 endfacet

 facet normal -0.00918830093 -0.0293594692 -0.999526799
  outer loop
  vertex -0.116075695 -0.00061313418 0.0150005724
  vertex -0.111372799 0.00728857517 0.0147252409
  vertex -0.11086157 0.0071285828 0.0147252409
  endloop
 endfacet

 facet normal -0.00712257577 -0.0307498667 -0.999501824
  outer loop
  vertex -0.116075695 -0.00061313418 0.0150005724
  vertex -0.11086157 0.0071285828 0.0147252409
  vertex -0.110830642 0.00712141907 0.0147252409
  endloop
 endfacet

 facet normal -0.00667486154 -0.0310532507 -0.999495447
  outer loop
  vertex -0.116075695 -0.00061313418 0.0150005724
  vertex -0.110830642 0.00712141907 0.0147252409
  vertex -0.110308506 0.00700918585 0.0147252409
  endloop
 endfacet

 facet normal -0.00457541738 -0.0326403268 -0.999456644
  outer loop
  vertex -0.116075695 -0.00061313418 0.0150005724
  vertex -0.110308506 0.00700918585 0.0147252409
  vertex -0.109746337 0.00693038339 0.0147252409
  endloop
 endfacet

 facet normal -0.00147309317 -0.0352404416 -0.999377847
  outer loop
  vertex -0.116075695 -0.00061313418 0.0150005724
  vertex -0.109746337 0.00693038339 0.0147252409
  vertex -0.109175079 0.00690650381 0.0147252409
  endloop
 endfacet

 facet normal 0 -0.0365905315 -0.999330401
  outer loop
  vertex -0.116075695 -0.00061313418 0.0150005724
  vertex -0.109175079 0.00690650381 0.0147252409
  vertex -0.097496964 -0.00061313418 0.0150005724
  endloop
 endfacet

 facet normal 0 -1 0
  outer loop
  vertex -0.116075695 -0.00061313418 0.0150005724
  vertex -0.097496964 -0.00061313418 0.0150005724
  vertex -0.0974896848 -0.00061313418 0.0158140156
  endloop
 endfacet

 facet normal 0 -1 0
  outer loop
  vertex -0.116075695 -0.00061313418 0.0150005724
  vertex -0.0974896848 -0.00061313418 0.0158140156
  vertex -0.107790589 -0.00061313418 0.0189991631
  endloop
 endfacet

 facet normal 0 -1 0
  outer loop
  vertex -0.116075695 -0.00061313418 0.0150005724
  vertex -0.107790589 -0.00061313418 0.0189991631
  vertex -0.116073877 -0.00061313418 0.0189991631
  endloop
 endfacet

 facet normal 0 -1 0
  outer loop
  vertex -0.116075695 -0.00061313418 0.0150005724
  vertex -0.116073877 -0.00061313418 0.0189991631
  vertex -0.116075695 -0.00061313418 0.0158140156
  endloop
 endfacet

 facet normal -1 0 0
  outer loop
  vertex -0.116075695 -0.00061313418 0.0150005724
  vertex -0.116075695 -0.00061313418 0.0158140156
  vertex -0.116075695 0.0118161179 0.0189991631
  endloop
 endfacet

 facet normal -1 0 0
  outer loop
  vertex -0.116075695 -0.00061313418 0.0150005724
  vertex -0.116075695 0.0118161179 0.0189991631
  vertex -0.116075695 0.0156296659 0.0189999994
  endloop
 endfacet

 facet normal -1 0 0
  outer loop
  vertex -0.116075695 -0.00061313418 0.0150005724
  vertex -0.116075695 0.0156296659 0.0189999994
  vertex -0.116075695 0.0237797238 0.0189999994
  endloop
 endfacet

 facet normal -1 0 0
  outer loop
  vertex -0.116075695 -0.00061313418 0.0150005724
  vertex -0.116075695 0.0237797238 0.0189999994
  vertex -0.116075695 0.0237821098 0.0158140156
  endloop
 endfacet

 facet normal -1 0 0
  outer loop
  vertex -0.116075695 -0.00061313418 0.0150005724
  vertex -0.116075695 0.0237821098 0.0158140156
  vertex -0.116075695 0.0237821098 0.0150005724
  endloop
 endfacet

 facet normal -0.570268869 0 -0.821458101
  outer loop
  vertex -0.116075695 -0.00061313418 0.0150005724
  vertex -0.116075695 0.0237821098 0.0150005724
  vertex -0.115679085 0.0134041021 0.0147252409
  endloop
 endfacet

 facet normal -0.305005938 0.0136074014 -0.952253282
  outer loop
  vertex -0.115679085 0.0134041021 0.0147252409
  vertex -0.116075695 0.0237821098 0.0150005724
  vertex -0.115655437 0.0139342258 0.0147252409
  endloop
 endfacet

 facet normal 0 0 -1
  outer loop
  vertex -0.115679085 0.0134041021 0.0147252409
  vertex -0.115655437 0.0139342258 0.0147252409
  vertex -0.115653619 0.0139652686 0.0147252409
  endloop
 endfacet

 facet normal 0 0 -1
  outer loop
  vertex -0.115679085 0.0134041021 0.0147252409
  vertex -0.115653619 0.0139652686 0.0147252409
  vertex -0.115580842 0.0145335998 0.0147252409
  endloop
 endfacet

 facet normal 0 0 -1
  outer loop
  vertex -0.115679085 0.0134041021 0.0147252409
  vertex -0.115580842 0.0145335998 0.0147252409
  vertex -0.115464412 0.015051784 0.0147252409
  endloop
 endfacet

 facet normal 0 0 -1
  outer loop
  vertex -0.115679085 0.0134041021 0.0147252409
  vertex -0.115464412 0.015051784 0.0147252409
  vertex -0.115457132 0.0150828268 0.0147252409
  endloop
 endfacet

 facet normal 0 0 -1
  outer loop
  vertex -0.115679085 0.0134041021 0.0147252409
  vertex -0.115457132 0.0150828268 0.0147252409
  vertex -0.115297034 0.0155986231 0.0147252409
  endloop
 endfacet

 facet normal 0 0 -1
  outer loop
  vertex -0.115679085 0.0134041021 0.0147252409
  vertex -0.115297034 0.0155986231 0.0147252409
  vertex -0.115287937 0.015627278 0.0147252409
  endloop
 endfacet

 facet normal 0 0 -1
  outer loop
  vertex -0.115679085 0.0134041021 0.0147252409
  vertex -0.115287937 0.015627278 0.0147252409
  vertex -0.11506962 0.0161478501 0.0147252409
  endloop
 endfacet

 facet normal 0 0 -1
  outer loop
  vertex -0.115679085 0.0134041021 0.0147252409
  vertex -0.11506962 0.0161478501 0.0147252409
  vertex -0.114822194 0.0166278277 0.0147252409
  endloop
 endfacet

 facet normal 0 0 -1
  outer loop
  vertex -0.115679085 0.0134041021 0.0147252409
  vertex -0.114822194 0.0166278277 0.0147252409
  vertex -0.114807643 0.0166517068 0.0147252409
  endloop
 endfacet

 facet normal 0 0 -1
  outer loop
  vertex -0.115679085 0.0134041021 0.0147252409
  vertex -0.114807643 0.0166517068 0.0147252409
  vertex -0.114503816 0.0171316843 0.0147252409
  endloop
 endfacet

 facet normal 0 0 -1
  outer loop
  vertex -0.115679085 0.0134041021 0.0147252409
  vertex -0.114503816 0.0171316843 0.0147252409
  vertex -0.114158154 0.0175806172 0.0147252409
  endloop
 endfacet

 facet normal 0 0 -1
  outer loop
  vertex -0.115679085 0.0134041021 0.0147252409
  vertex -0.114158154 0.0175806172 0.0147252409
  vertex -0.113774277 0.0180008952 0.0147252409
  endloop
 endfacet

 facet normal 0 0 -1
  outer loop
  vertex -0.115679085 0.0134041021 0.0147252409
  vertex -0.113774277 0.0180008952 0.0147252409
  vertex -0.113357656 0.0183829665 0.0147252409
  endloop
 endfacet

 facet normal 0 0 -1
  outer loop
  vertex -0.115679085 0.0134041021 0.0147252409
  vertex -0.113357656 0.0183829665 0.0147252409
  vertex -0.112908289 0.0187292192 0.0147252409
  endloop
 endfacet

 facet normal 0 0 -1
  outer loop
  vertex -0.115679085 0.0134041021 0.0147252409
  vertex -0.112908289 0.0187292192 0.0147252409
  vertex -0.112429813 0.0190324895 0.0147252409
  endloop
 endfacet

 facet normal 0 0 -1
  outer loop
  vertex -0.115679085 0.0134041021 0.0147252409
  vertex -0.112429813 0.0190324895 0.0147252409
  vertex -0.111924045 0.0192927737 0.0147252409
  endloop
 endfacet

 facet normal 0 0 -1
  outer loop
  vertex -0.115679085 0.0134041021 0.0147252409
  vertex -0.111924045 0.0192927737 0.0147252409
  vertex -0.111431018 0.0195005257 0.0147252409
  endloop
 endfacet

 facet normal 0 0 -1
  outer loop
  vertex -0.115679085 0.0134041021 0.0147252409
  vertex -0.111431018 0.0195005257 0.0147252409
  vertex -0.111401908 0.0195100773 0.0147252409
  endloop
 endfacet

 facet normal 0 0 -1
  outer loop
  vertex -0.115679085 0.0134041021 0.0147252409
  vertex -0.111401908 0.0195100773 0.0147252409
  vertex -0.11086157 0.0196820088 0.0147252409
  endloop
 endfacet

 facet normal 0 0 -1
  outer loop
  vertex -0.115679085 0.0134041021 0.0147252409
  vertex -0.11086157 0.0196820088 0.0147252409
  vertex -0.110308506 0.019806182 0.0147252409
  endloop
 endfacet

 facet normal 0 0 -1
  outer loop
  vertex -0.115679085 0.0134041021 0.0147252409
  vertex -0.110308506 0.019806182 0.0147252409
  vertex -0.109746337 0.0198802091 0.0147252409
  endloop
 endfacet

 facet normal 0 0 -1
  outer loop
  vertex -0.115679085 0.0134041021 0.0147252409
  vertex -0.109746337 0.0198802091 0.0147252409
  vertex -0.109209642 0.0199017003 0.0147252409
  endloop
 endfacet

 facet normal 0 0 -1
  outer loop
  vertex -0.115679085 0.0134041021 0.0147252409
  vertex -0.109209642 0.0199017003 0.0147252409
  vertex -0.109175079 0.0199017003 0.0147252409
  endloop
 endfacet

 facet normal 0 0 -1
  outer loop
  vertex -0.115679085 0.0134041021 0.0147252409
  vertex -0.109175079 0.0199017003 0.0147252409
  vertex -0.108611092 0.0198802091 0.0147252409
  endloop
 endfacet

 facet normal 0 0 -1
  outer loop
  vertex -0.115679085 0.0134041021 0.0147252409
  vertex -0.108611092 0.0198802091 0.0147252409
  vertex -0.108050749 0.019806182 0.0147252409
  endloop
 endfacet

 facet normal 0 0 -1
  outer loop
  vertex -0.115679085 0.0134041021 0.0147252409
  vertex -0.108050749 0.019806182 0.0147252409
  vertex -0.107497677 0.0196820088 0.0147252409
  endloop
 endfacet

 facet normal 0 0 -1
  outer loop
  vertex -0.115679085 0.0134041021 0.0147252409
  vertex -0.107497677 0.0196820088 0.0147252409
  vertex -0.106955528 0.0195100773 0.0147252409
  endloop
 endfacet

 facet normal 0 0 -1
  outer loop
  vertex -0.115679085 0.0134041021 0.0147252409
  vertex -0.106955528 0.0195100773 0.0147252409
  vertex -0.106437027 0.0192927737 0.0147252409
  endloop
 endfacet

 facet normal 0 0 -1
  outer loop
  vertex -0.115679085 0.0134041021 0.0147252409
  vertex -0.106437027 0.0192927737 0.0147252409
  vertex -0.105958544 0.019049203 0.0147252409
  endloop
 endfacet

 facet normal 0 0 -1
  outer loop
  vertex -0.115679085 0.0134041021 0.0147252409
  vertex -0.105958544 0.019049203 0.0147252409
  vertex -0.105452783 0.0187292192 0.0147252409
  endloop
 endfacet

 facet normal 0 0 -1
  outer loop
  vertex -0.115679085 0.0134041021 0.0147252409
  vertex -0.105452783 0.0187292192 0.0147252409
  vertex -0.105007052 0.0183829665 0.0147252409
  endloop
 endfacet

 facet normal 0 0 -1
  outer loop
  vertex -0.115679085 0.0134041021 0.0147252409
  vertex -0.105007052 0.0183829665 0.0147252409
  vertex -0.10458497 0.0180008952 0.0147252409
  endloop
 endfacet

 facet normal 0 0 -1
  outer loop
  vertex -0.115679085 0.0134041021 0.0147252409
  vertex -0.10458497 0.0180008952 0.0147252409
  vertex -0.104201101 0.0175806172 0.0147252409
  endloop
 endfacet

 facet normal 0 0 -1
  outer loop
  vertex -0.115679085 0.0134041021 0.0147252409
  vertex -0.104201101 0.0175806172 0.0147252409
  vertex -0.103877261 0.0171579514 0.0147252409
  endloop
 endfacet

 facet normal 0 0 -1
  outer loop
  vertex -0.115679085 0.0134041021 0.0147252409
  vertex -0.103877261 0.0171579514 0.0147252409
  vertex -0.103857249 0.0171316843 0.0147252409
  endloop
 endfacet

 facet normal 0 0 -1
  outer loop
  vertex -0.115679085 0.0134041021 0.0147252409
  vertex -0.103857249 0.0171316843 0.0147252409
  vertex -0.103569798 0.0166803617 0.0147252409
  endloop
 endfacet

 facet normal 0 0 -1
  outer loop
  vertex -0.115679085 0.0134041021 0.0147252409
  vertex -0.103569798 0.0166803617 0.0147252409
  vertex -0.103553429 0.0166517068 0.0147252409
  endloop
 endfacet

 facet normal 0 0 -1
  outer loop
  vertex -0.115679085 0.0134041021 0.0147252409
  vertex -0.103553429 0.0166517068 0.0147252409
  vertex -0.103291444 0.0161478501 0.0147252409
  endloop
 endfacet

 facet normal 0 0 -1
  outer loop
  vertex -0.115679085 0.0134041021 0.0147252409
  vertex -0.103291444 0.0161478501 0.0147252409
  vertex -0.103073128 0.015627278 0.0147252409
  endloop
 endfacet

 facet normal 0 0 -1
  outer loop
  vertex -0.115679085 0.0134041021 0.0147252409
  vertex -0.103073128 0.015627278 0.0147252409
  vertex -0.102902114 0.0150828268 0.0147252409
  endloop
 endfacet

 facet normal 0 0 -1
  outer loop
  vertex -0.115679085 0.0134041021 0.0147252409
  vertex -0.102902114 0.0150828268 0.0147252409
  vertex -0.102785684 0.0145646436 0.0147252409
  endloop
 endfacet

 facet normal 0 0 -1
  outer loop
  vertex -0.115679085 0.0134041021 0.0147252409
  vertex -0.102785684 0.0145646436 0.0147252409
  vertex -0.102780223 0.0145335998 0.0147252409
  endloop
 endfacet

 facet normal 0 0 -1
  outer loop
  vertex -0.115679085 0.0134041021 0.0147252409
  vertex -0.102780223 0.0145335998 0.0147252409
  vertex -0.102705635 0.0139652686 0.0147252409
  endloop
 endfacet

 facet normal 0 0 -1
  outer loop
  vertex -0.115679085 0.0134041021 0.0147252409
  vertex -0.102705635 0.0139652686 0.0147252409
  vertex -0.102680162 0.0134041021 0.0147252409
  endloop
 endfacet

 facet normal 0 0 -1
  outer loop
  vertex -0.115679085 0.0134041021 0.0147252409
  vertex -0.102680162 0.0134041021 0.0147252409
  vertex -0.10270381 0.0128644258 0.0147252409
  endloop
 endfacet

 facet normal 0 0 -1
  outer loop
  vertex -0.115679085 0.0134041021 0.0147252409
  vertex -0.10270381 0.0128644258 0.0147252409
  vertex -0.102705635 0.0128333829 0.0147252409
  endloop
 endfacet

 facet normal 0 0 -1
  outer loop
  vertex -0.115679085 0.0134041021 0.0147252409
  vertex -0.102705635 0.0128333829 0.0147252409
  vertex -0.102774762 0.0123056471 0.0147252409
  endloop
 endfacet

 facet normal 0 0 -1
  outer loop
  vertex -0.115679085 0.0134041021 0.0147252409
  vertex -0.102774762 0.0123056471 0.0147252409
  vertex -0.102780223 0.0122746043 0.0147252409
  endloop
 endfacet

 facet normal 0 0 -1
  outer loop
  vertex -0.115679085 0.0134041021 0.0147252409
  vertex -0.102780223 0.0122746043 0.0147252409
  vertex -0.102894835 0.0117468676 0.0147252409
  endloop
 endfacet

 facet normal 0 0 -1
  outer loop
  vertex -0.115679085 0.0134041021 0.0147252409
  vertex -0.102894835 0.0117468676 0.0147252409
  vertex -0.102902114 0.0117182126 0.0147252409
  endloop
 endfacet

 facet normal 0 0 -1
  outer loop
  vertex -0.115679085 0.0134041021 0.0147252409
  vertex -0.102902114 0.0117182126 0.0147252409
  vertex -0.103073128 0.0111880889 0.0147252409
  endloop
 endfacet

 facet normal 0 0 -1
  outer loop
  vertex -0.115679085 0.0134041021 0.0147252409
  vertex -0.103073128 0.0111880889 0.0147252409
  vertex -0.103291444 0.0106603531 0.0147252409
  endloop
 endfacet

 facet normal 0 0 -1
  outer loop
  vertex -0.115679085 0.0134041021 0.0147252409
  vertex -0.103291444 0.0106603531 0.0147252409
  vertex -0.103553429 0.0101612732 0.0147252409
  endloop
 endfacet

 facet normal 0 0 -1
  outer loop
  vertex -0.115679085 0.0134041021 0.0147252409
  vertex -0.103553429 0.0101612732 0.0147252409
  vertex -0.103857249 0.00967890769 0.0147252409
  endloop
 endfacet

 facet normal 0 0 -1
  outer loop
  vertex -0.115679085 0.0134041021 0.0147252409
  vertex -0.103857249 0.00967890769 0.0147252409
  vertex -0.104201101 0.00923236273 0.0147252409
  endloop
 endfacet

 facet normal 0 0 -1
  outer loop
  vertex -0.115679085 0.0134041021 0.0147252409
  vertex -0.104201101 0.00923236273 0.0147252409
  vertex -0.10458497 0.00880969595 0.0147252409
  endloop
 endfacet

 facet normal 0 0 -1
  outer loop
  vertex -0.115679085 0.0134041021 0.0147252409
  vertex -0.10458497 0.00880969595 0.0147252409
  vertex -0.104979761 0.00844911579 0.0147252409
  endloop
 endfacet

 facet normal 0 0 -1
  outer loop
  vertex -0.115679085 0.0134041021 0.0147252409
  vertex -0.104979761 0.00844911579 0.0147252409
  vertex -0.105007052 0.00842762459 0.0147252409
  endloop
 endfacet

 facet normal 0 0 -1
  outer loop
  vertex -0.115679085 0.0134041021 0.0147252409
  vertex -0.105007052 0.00842762459 0.0147252409
  vertex -0.105452783 0.00808614865 0.0147252409
  endloop
 endfacet

 facet normal 0 0 -1
  outer loop
  vertex -0.115679085 0.0134041021 0.0147252409
  vertex -0.105452783 0.00808614865 0.0147252409
  vertex -0.105903968 0.00779481931 0.0147252409
  endloop
 endfacet

 facet normal 0 0 -1
  outer loop
  vertex -0.115679085 0.0134041021 0.0147252409
  vertex -0.105903968 0.00779481931 0.0147252409
  vertex -0.105933078 0.00777810393 0.0147252409
  endloop
 endfacet

 facet normal 0 0 -1
  outer loop
  vertex -0.115679085 0.0134041021 0.0147252409
  vertex -0.105933078 0.00777810393 0.0147252409
  vertex -0.106437027 0.00752020581 0.0147252409
  endloop
 endfacet

 facet normal 0 0 -1
  outer loop
  vertex -0.115679085 0.0134041021 0.0147252409
  vertex -0.106437027 0.00752020581 0.0147252409
  vertex -0.106924601 0.00731006637 0.0147252409
  endloop
 endfacet

 facet normal 0 0 -1
  outer loop
  vertex -0.115679085 0.0134041021 0.0147252409
  vertex -0.106924601 0.00731006637 0.0147252409
  vertex -0.106955528 0.00729812682 0.0147252409
  endloop
 endfacet

 facet normal 0 0 -1
  outer loop
  vertex -0.115679085 0.0134041021 0.0147252409
  vertex -0.106955528 0.00729812682 0.0147252409
  vertex -0.10746675 0.00713813445 0.0147252409
  endloop
 endfacet

 facet normal 0 0 -1
  outer loop
  vertex -0.115679085 0.0134041021 0.0147252409
  vertex -0.10746675 0.00713813445 0.0147252409
  vertex -0.107497677 0.0071285828 0.0147252409
  endloop
 endfacet

 facet normal 0 0 -1
  outer loop
  vertex -0.115679085 0.0134041021 0.0147252409
  vertex -0.107497677 0.0071285828 0.0147252409
  vertex -0.108050749 0.00700918585 0.0147252409
  endloop
 endfacet

 facet normal 0 0 -1
  outer loop
  vertex -0.115679085 0.0134041021 0.0147252409
  vertex -0.108050749 0.00700918585 0.0147252409
  vertex -0.108611092 0.00693038339 0.0147252409
  endloop
 endfacet

 facet normal 0 0 -1
  outer loop
  vertex -0.115679085 0.0134041021 0.0147252409
  vertex -0.108611092 0.00693038339 0.0147252409
  vertex -0.109175079 0.00690650381 0.0147252409
  endloop
 endfacet

 facet normal 0 0 -1
  outer loop
  vertex -0.115679085 0.0134041021 0.0147252409
  vertex -0.109175079 0.00690650381 0.0147252409
  vertex -0.109746337 0.00693038339 0.0147252409
  endloop
 endfacet

 facet normal 0 0 -1
  outer loop
  vertex -0.115679085 0.0134041021 0.0147252409
  vertex -0.109746337 0.00693038339 0.0147252409
  vertex -0.110308506 0.00700918585 0.0147252409
  endloop
 endfacet

 facet normal 0 0 -1
  outer loop
  vertex -0.115679085 0.0134041021 0.0147252409
  vertex -0.110308506 0.00700918585 0.0147252409
  vertex -0.110830642 0.00712141907 0.0147252409
  endloop
 endfacet

 facet normal 0 0 -1
  outer loop
  vertex -0.115679085 0.0134041021 0.0147252409
  vertex -0.110830642 0.00712141907 0.0147252409
  vertex -0.11086157 0.0071285828 0.0147252409
  endloop
 endfacet

 facet normal 0 0 -1
  outer loop
  vertex -0.115679085 0.0134041021 0.0147252409
  vertex -0.11086157 0.0071285828 0.0147252409
  vertex -0.111372799 0.00728857517 0.0147252409
  endloop
 endfacet

 facet normal 0 0 -1
  outer loop
  vertex -0.115679085 0.0134041021 0.0147252409
  vertex -0.111372799 0.00728857517 0.0147252409
  vertex -0.111401908 0.00729812682 0.0147252409
  endloop
 endfacet

 facet normal 0 0 -1
  outer loop
  vertex -0.115679085 0.0134041021 0.0147252409
  vertex -0.111401908 0.00729812682 0.0147252409
  vertex -0.111924045 0.00752020581 0.0147252409
  endloop
 endfacet

 facet normal 0 0 -1
  outer loop
  vertex -0.115679085 0.0134041021 0.0147252409
  vertex -0.111924045 0.00752020581 0.0147252409
  vertex -0.112429813 0.00777810393 0.0147252409
  endloop
 endfacet

 facet normal 0 0 -1
  outer loop
  vertex -0.115679085 0.0134041021 0.0147252409
  vertex -0.112429813 0.00777810393 0.0147252409
  vertex -0.112908289 0.00808614865 0.0147252409
  endloop
 endfacet

 facet normal 0 0 -1
  outer loop
  vertex -0.115679085 0.0134041021 0.0147252409
  vertex -0.112908289 0.00808614865 0.0147252409
  vertex -0.113357656 0.00842762459 0.0147252409
  endloop
 endfacet

 facet normal 0 0 -1
  outer loop
  vertex -0.115679085 0.0134041021 0.0147252409
  vertex -0.113357656 0.00842762459 0.0147252409
  vertex -0.113774277 0.00880969595 0.0147252409
  endloop
 endfacet

 facet normal 0 0 -1
  outer loop
  vertex -0.115679085 0.0134041021 0.0147252409
  vertex -0.113774277 0.00880969595 0.0147252409
  vertex -0.114158154 0.00923236273 0.0147252409
  endloop
 endfacet

 facet normal 0 0 -1
  outer loop
  vertex -0.115679085 0.0134041021 0.0147252409
  vertex -0.114158154 0.00923236273 0.0147252409
  vertex -0.114483804 0.00965264067 0.0147252409
  endloop
 endfacet

 facet normal 0 0 -1
  outer loop
  vertex -0.115679085 0.0134041021 0.0147252409
  vertex -0.114483804 0.00965264067 0.0147252409
  vertex -0.114503816 0.00967890769 0.0147252409
  endloop
 endfacet

 facet normal 0 0 -1
  outer loop
  vertex -0.115679085 0.0134041021 0.0147252409
  vertex -0.114503816 0.00967890769 0.0147252409
  vertex -0.114791267 0.0101350052 0.0147252409
  endloop
 endfacet

 facet normal 0 0 -1
  outer loop
  vertex -0.115679085 0.0134041021 0.0147252409
  vertex -0.114791267 0.0101350052 0.0147252409
  vertex -0.114807643 0.0101612732 0.0147252409
  endloop
 endfacet

 facet normal 0 0 -1
  outer loop
  vertex -0.115679085 0.0134041021 0.0147252409
  vertex -0.114807643 0.0101612732 0.0147252409
  vertex -0.115055069 0.0106316982 0.0147252409
  endloop
 endfacet

 facet normal 0 0 -1
  outer loop
  vertex -0.115679085 0.0134041021 0.0147252409
  vertex -0.115055069 0.0106316982 0.0147252409
  vertex -0.11506962 0.0106603531 0.0147252409
  endloop
 endfacet

 facet normal 0 0 -1
  outer loop
  vertex -0.115679085 0.0134041021 0.0147252409
  vertex -0.11506962 0.0106603531 0.0147252409
  vertex -0.115287937 0.0111880889 0.0147252409
  endloop
 endfacet

 facet normal 0 0 -1
  outer loop
  vertex -0.115679085 0.0134041021 0.0147252409
  vertex -0.115287937 0.0111880889 0.0147252409
  vertex -0.115448035 0.0116871698 0.0147252409
  endloop
 endfacet

 facet normal 0 0 -1
  outer loop
  vertex -0.115679085 0.0134041021 0.0147252409
  vertex -0.115448035 0.0116871698 0.0147252409
  vertex -0.115457132 0.0117182126 0.0147252409
  endloop
 endfacet

 facet normal 0 0 -1
  outer loop
  vertex -0.115679085 0.0134041021 0.0147252409
  vertex -0.115457132 0.0117182126 0.0147252409
  vertex -0.115580842 0.0122746043 0.0147252409
  endloop
 endfacet

 facet normal 0 0 -1
  outer loop
  vertex -0.115679085 0.0134041021 0.0147252409
  vertex -0.115580842 0.0122746043 0.0147252409
  vertex -0.115649976 0.0128023392 0.0147252409
  endloop
 endfacet

 facet normal 0 0 -1
  outer loop
  vertex -0.115679085 0.0134041021 0.0147252409
  vertex -0.115649976 0.0128023392 0.0147252409
  vertex -0.115653619 0.0128333829 0.0147252409
  endloop
 endfacet

 facet normal 0.00145379198 -0.0343356617 -0.999409318
  outer loop
  vertex -0.109175079 0.00690650381 0.0147252409
  vertex -0.108611092 0.00693038339 0.0147252409
  vertex -0.097496964 -0.00061313418 0.0150005724
  endloop
 endfacet

 facet normal 0.00424997834 -0.0302204993 -0.999534249
  outer loop
  vertex -0.097496964 -0.00061313418 0.0150005724
  vertex -0.108611092 0.00693038339 0.0147252409
  vertex -0.108050749 0.00700918585 0.0147252409
  endloop
 endfacet

 facet normal 0.00600109156 -0.0277981497 -0.999595582
  outer loop
  vertex -0.097496964 -0.00061313418 0.0150005724
  vertex -0.108050749 0.00700918585 0.0147252409
  vertex -0.107497677 0.0071285828 0.0147252409
  endloop
 endfacet

 facet normal 0.0078486288 -0.0254133064 -0.999646187
  outer loop
  vertex -0.097496964 -0.00061313418 0.0150005724
  vertex -0.107497677 0.0071285828 0.0147252409
  vertex -0.10746675 0.00713813445 0.0147252409
  endloop
 endfacet

 facet normal 0.00792328455 -0.0253173485 -0.999648094
  outer loop
  vertex -0.097496964 -0.00061313418 0.0150005724
  vertex -0.10746675 0.00713813445 0.0147252409
  vertex -0.106955528 0.00729812682 0.0147252409
  endloop
 endfacet

 facet normal 0.00918961596 -0.0238042623 -0.999674439
  outer loop
  vertex -0.097496964 -0.00061313418 0.0150005724
  vertex -0.106955528 0.00729812682 0.0147252409
  vertex -0.106924601 0.00731006637 0.0147252409
  endloop
 endfacet

 facet normal 0.00989688467 -0.0229631457 -0.999687314
  outer loop
  vertex -0.097496964 -0.00061313418 0.0150005724
  vertex -0.106924601 0.00731006637 0.0147252409
  vertex -0.106437027 0.00752020581 0.0147252409
  endloop
 endfacet

 facet normal 0.0110840248 -0.0216588248 -0.999704003
  outer loop
  vertex -0.097496964 -0.00061313418 0.0150005724
  vertex -0.106437027 0.00752020581 0.0147252409
  vertex -0.105933078 0.00777810393 0.0147252409
  endloop
 endfacet

 facet normal 0.0119421249 -0.0207964163 -0.999712527
  outer loop
  vertex -0.097496964 -0.00061313418 0.0150005724
  vertex -0.105933078 0.00777810393 0.0147252409
  vertex -0.105903968 0.00779481931 0.0147252409
  endloop
 endfacet

 facet normal 0.0128452294 -0.0198936481 -0.999719679
  outer loop
  vertex -0.097496964 -0.00061313418 0.0150005724
  vertex -0.105903968 0.00779481931 0.0147252409
  vertex -0.105452783 0.00808614865 0.0147252409
  endloop
 endfacet

 facet normal 0.0142538575 -0.018605588 -0.999725401
  outer loop
  vertex -0.097496964 -0.00061313418 0.0150005724
  vertex -0.105452783 0.00808614865 0.0147252409
  vertex -0.105007052 0.00842762459 0.0147252409
  endloop
 endfacet

 facet normal 0.0144946575 -0.0184055604 -0.999725521
  outer loop
  vertex -0.097496964 -0.00061313418 0.0150005724
  vertex -0.105007052 0.00842762459 0.0147252409
  vertex -0.104979761 0.00844911579 0.0147252409
  endloop
 endfacet

 facet normal 0.015814973 -0.0173153412 -0.999724984
  outer loop
  vertex -0.097496964 -0.00061313418 0.0150005724
  vertex -0.104979761 0.00844911579 0.0147252409
  vertex -0.10458497 0.00880969595 0.0147252409
  endloop
 endfacet

 facet normal 0.017592635 -0.0159779452 -0.999717593
  outer loop
  vertex -0.097496964 -0.00061313418 0.0150005724
  vertex -0.10458497 0.00880969595 0.0147252409
  vertex -0.104201101 0.00923236273 0.0147252409
  endloop
 endfacet

 facet normal 0.0192680042 -0.0148367565 -0.999704301
  outer loop
  vertex -0.097496964 -0.00061313418 0.0150005724
  vertex -0.104201101 0.00923236273 0.0147252409
  vertex -0.103857249 0.00967890769 0.0147252409
  endloop
 endfacet

 facet normal 0.0214316733 -0.0134989731 -0.999679208
  outer loop
  vertex -0.097496964 -0.00061313418 0.0150005724
  vertex -0.103857249 0.00967890769 0.0147252409
  vertex -0.103553429 0.0101612732 0.0147252409
  endloop
 endfacet

 facet normal 0.0234997887 -0.0123356516 -0.999647737
  outer loop
  vertex -0.097496964 -0.00061313418 0.0150005724
  vertex -0.103553429 0.0101612732 0.0147252409
  vertex -0.103291444 0.0106603531 0.0147252409
  endloop
 endfacet

 facet normal 0.0263163354 -0.0108866673 -0.99959439
  outer loop
  vertex -0.097496964 -0.00061313418 0.0150005724
  vertex -0.103291444 0.0106603531 0.0147252409
  vertex -0.103073128 0.0111880889 0.0147252409
  endloop
 endfacet

 facet normal 0.0293291956 -0.00946144946 -0.999525011
  outer loop
  vertex -0.097496964 -0.00061313418 0.0150005724
  vertex -0.103073128 0.0111880889 0.0147252409
  vertex -0.102902114 0.0117182126 0.0147252409
  endloop
 endfacet

 facet normal 0.0322344862 -0.00818623975 -0.999446929
  outer loop
  vertex -0.097496964 -0.00061313418 0.0150005724
  vertex -0.102902114 0.0117182126 0.0147252409
  vertex -0.102894835 0.0117468676 0.0147252409
  endloop
 endfacet

 facet normal 0.0340455025 -0.00739412894 -0.999392927
  outer loop
  vertex -0.097496964 -0.00061313418 0.0150005724
  vertex -0.102894835 0.0117468676 0.0147252409
  vertex -0.102780223 0.0122746043 0.0147252409
  endloop
 endfacet

 facet normal 0.0364459977 -0.00640839618 -0.999315143
  outer loop
  vertex -0.097496964 -0.00061313418 0.0150005724
  vertex -0.102780223 0.0122746043 0.0147252409
  vertex -0.102774762 0.0123056471 0.0147252409
  endloop
 endfacet

 facet normal 0.0394702293 -0.00517059071 -0.999207437
  outer loop
  vertex -0.097496964 -0.00061313418 0.0150005724
  vertex -0.102774762 0.0123056471 0.0147252409
  vertex -0.102705635 0.0128333829 0.0147252409
  endloop
 endfacet

 facet normal 0.0458668508 -0.00268738833 -0.998943925
  outer loop
  vertex -0.097496964 -0.00061313418 0.0150005724
  vertex -0.102705635 0.0128333829 0.0147252409
  vertex -0.10270381 0.0128644258 0.0147252409
  endloop
 endfacet

 facet normal 0.0474380329 -0.00207891758 -0.998871982
  outer loop
  vertex -0.097496964 -0.00061313418 0.0150005724
  vertex -0.10270381 0.0128644258 0.0147252409
  vertex -0.102680162 0.0134041021 0.0147252409
  endloop
 endfacet

 facet normal 0.0530453138 0 -0.998592198
  outer loop
  vertex -0.097496964 -0.00061313418 0.0150005724
  vertex -0.102680162 0.0134041021 0.0147252409
  vertex -0.097496964 0.00130916166 0.0150005724
  endloop
 endfacet

 facet normal 0.999959946 0 -0.00894590933
  outer loop
  vertex -0.097496964 -0.00061313418 0.0150005724
  vertex -0.097496964 0.00130916166 0.0150005724
  vertex -0.0974896848 0.00104171108 0.0158140156
  endloop
 endfacet

 facet normal 0.999959946 0 -0.00894590933
  outer loop
  vertex -0.097496964 -0.00061313418 0.0150005724
  vertex -0.0974896848 0.00104171108 0.0158140156
  vertex -0.0974896848 -0.00061313418 0.0158140156
  endloop
 endfacet

 facet normal -0.999999881 -0.000146411054 0.000571332988
  outer loop
  vertex -0.116075695 -0.00061313418 0.0158140156
  vertex -0.116073877 -0.00061313418 0.0189991631
  vertex -0.116075695 0.0118161179 0.0189991631
  endloop
 endfacet

 facet normal 0 1 0
  outer loop
  vertex -0.116075695 0.0237821098 0.0150005724
  vertex -0.116075695 0.0237821098 0.0158140156
  vertex -0.109175079 0.0237821098 0.0158140156
  endloop
 endfacet

 facet normal 0 1 0
  outer loop
  vertex -0.116075695 0.0237821098 0.0150005724
  vertex -0.109175079 0.0237821098 0.0158140156
  vertex -0.109175079 0.0237821098 0.0150005724
  endloop
 endfacet

 facet normal 0 0.0707764104 -0.997492254
  outer loop
  vertex -0.116075695 0.0237821098 0.0150005724
  vertex -0.109175079 0.0237821098 0.0150005724
  vertex -0.109175079 0.0199017003 0.0147252409
  endloop
 endfacet

 facet normal 0 0.0707764104 -0.997492254
  outer loop
  vertex -0.116075695 0.0237821098 0.0150005724
  vertex -0.109175079 0.0199017003 0.0147252409
  vertex -0.109209642 0.0199017003 0.0147252409
  endloop
 endfacet

 facet normal -0.00264738942 0.06611453 -0.997808576
  outer loop
  vertex -0.116075695 0.0237821098 0.0150005724
  vertex -0.109209642 0.0199017003 0.0147252409
  vertex -0.109746337 0.0198802091 0.0147252409
  endloop
 endfacet

 facet normal -0.00764336484 0.0580440536 -0.998284876
  outer loop
  vertex -0.116075695 0.0237821098 0.0150005724
  vertex -0.109746337 0.0198802091 0.0147252409
  vertex -0.110308506 0.019806182 0.0147252409
  endloop
 endfacet

 facet normal -0.0117114587 0.052162908 -0.998569906
  outer loop
  vertex -0.116075695 0.0237821098 0.0150005724
  vertex -0.110308506 0.019806182 0.0147252409
  vertex -0.11086157 0.0196820088 0.0147252409
  endloop
 endfacet

 facet normal -0.0151929474 0.047747165 -0.998743951
  outer loop
  vertex -0.116075695 0.0237821098 0.0150005724
  vertex -0.11086157 0.0196820088 0.0147252409
  vertex -0.111401908 0.0195100773 0.0147252409
  endloop
 endfacet

 facet normal -0.0155424159 0.0473656468 -0.998756647
  outer loop
  vertex -0.116075695 0.0237821098 0.0150005724
  vertex -0.111401908 0.0195100773 0.0147252409
  vertex -0.111431018 0.0195005257 0.0147252409
  endloop
 endfacet

 facet normal -0.0185751785 0.0440820269 -0.998855233
  outer loop
  vertex -0.116075695 0.0237821098 0.0150005724
  vertex -0.111431018 0.0195005257 0.0147252409
  vertex -0.111924045 0.0192927737 0.0147252409
  endloop
 endfacet

 facet normal -0.0213616453 0.041508507 -0.998909831
  outer loop
  vertex -0.116075695 0.0237821098 0.0150005724
  vertex -0.111924045 0.0192927737 0.0147252409
  vertex -0.112429813 0.0190324895 0.0147252409
  endloop
 endfacet

 facet normal -0.0246904753 0.0389547572 -0.998935878
  outer loop
  vertex -0.116075695 0.0237821098 0.0150005724
  vertex -0.112429813 0.0190324895 0.0147252409
  vertex -0.112908289 0.0187292192 0.0147252409
  endloop
 endfacet

 facet normal -0.0282811355 0.0367034115 -0.998926044
  outer loop
  vertex -0.116075695 0.0237821098 0.0150005724
  vertex -0.112908289 0.0187292192 0.0147252409
  vertex -0.113357656 0.0183829665 0.0147252409
  endloop
 endfacet

 facet normal -0.0319594406 0.0348493978 -0.998881459
  outer loop
  vertex -0.116075695 0.0237821098 0.0150005724
  vertex -0.113357656 0.0183829665 0.0147252409
  vertex -0.113774277 0.0180008952 0.0147252409
  endloop
 endfacet

 facet normal -0.036270719 0.0331289172 -0.998792768
  outer loop
  vertex -0.116075695 0.0237821098 0.0150005724
  vertex -0.113774277 0.0180008952 0.0147252409
  vertex -0.114158154 0.0175806172 0.0147252409
  endloop
 endfacet

 facet normal -0.0410847999 0.0316342488 -0.998654783
  outer loop
  vertex -0.116075695 0.0237821098 0.0150005724
  vertex -0.114158154 0.0175806172 0.0147252409
  vertex -0.114503816 0.0171316843 0.0147252409
  endloop
 endfacet

 facet normal -0.0475467853 0.0300970003 -0.99841547
  outer loop
  vertex -0.116075695 0.0237821098 0.0150005724
  vertex -0.114503816 0.0171316843 0.0147252409
  vertex -0.114807643 0.0166517068 0.0147252409
  endloop
 endfacet

 facet normal -0.0489626974 0.0298428498 -0.998354673
  outer loop
  vertex -0.116075695 0.0237821098 0.0150005724
  vertex -0.114807643 0.0166517068 0.0147252409
  vertex -0.114822194 0.0166278277 0.0147252409
  endloop
 endfacet

 facet normal -0.0556093976 0.0286662113 -0.998041034
  outer loop
  vertex -0.116075695 0.0237821098 0.0150005724
  vertex -0.114822194 0.0166278277 0.0147252409
  vertex -0.11506962 0.0161478501 0.0147252409
  endloop
 endfacet

 facet normal -0.065270856 0.0273731854 -0.997492075
  outer loop
  vertex -0.116075695 0.0237821098 0.0150005724
  vertex -0.11506962 0.0161478501 0.0147252409
  vertex -0.115287937 0.015627278 0.0147252409
  endloop
 endfacet

 facet normal -0.0812436417 0.0257920083 -0.9963606
  outer loop
  vertex -0.116075695 0.0237821098 0.0150005724
  vertex -0.115287937 0.015627278 0.0147252409
  vertex -0.115297034 0.0155986231 0.0147252409
  endloop
 endfacet

 facet normal -0.0826516151 0.0256542601 -0.996248245
  outer loop
  vertex -0.116075695 0.0237821098 0.0150005724
  vertex -0.115297034 0.0155986231 0.0147252409
  vertex -0.115457132 0.0150828268 0.0147252409
  endloop
 endfacet

 facet normal -0.103009284 0.0241478216 -0.994387269
  outer loop
  vertex -0.116075695 0.0237821098 0.0150005724
  vertex -0.115457132 0.0150828268 0.0147252409
  vertex -0.115464412 0.015051784 0.0147252409
  endloop
 endfacet

 facet normal -0.106370911 0.02390147 -0.994039237
  outer loop
  vertex -0.116075695 0.0237821098 0.0150005724
  vertex -0.115464412 0.015051784 0.0147252409
  vertex -0.115580842 0.0145335998 0.0147252409
  endloop
 endfacet

 facet normal -0.161781147 0.0207154918 -0.986609161
  outer loop
  vertex -0.116075695 0.0237821098 0.0150005724
  vertex -0.115580842 0.0145335998 0.0147252409
  vertex -0.115653619 0.0139652686 0.0147252409
  endloop
 endfacet

 facet normal -0.266099989 0.015591085 -0.963819385
  outer loop
  vertex -0.116075695 0.0237821098 0.0150005724
  vertex -0.115653619 0.0139652686 0.0147252409
  vertex -0.115655437 0.0139342258 0.0147252409
  endloop
 endfacet

 facet normal 0.059307646 0.00269178348 -0.99823612
  outer loop
  vertex -0.102680162 0.0134041021 0.0147252409
  vertex -0.102705635 0.0139652686 0.0147252409
  vertex -0.097496964 0.00130916166 0.0150005724
  endloop
 endfacet

 facet normal 0.996071935 0.0884198919 -0.00475424854
  outer loop
  vertex -0.097496964 0.00130916166 0.0150005724
  vertex -0.097728014 0.00391202094 0.0150005724
  vertex -0.0976770744 0.003381897 0.0158140156
  endloop
 endfacet

 facet normal 0.996245861 0.0865692124 0
  outer loop
  vertex -0.097496964 0.00130916166 0.0150005724
  vertex -0.0976770744 0.003381897 0.0158140156
  vertex -0.097496964 0.00130916166 0.0158140156
  endloop
 endfacet

 facet normal 0.999629974 0.0271997359 0
  outer loop
  vertex -0.097496964 0.00130916166 0.0150005724
  vertex -0.097496964 0.00130916166 0.0158140156
  vertex -0.0974896848 0.00104171108 0.0158140156
  endloop
 endfacet

 facet normal 0.0672436282 0.00596912159 -0.997718751
  outer loop
  vertex -0.097496964 0.00130916166 0.0150005724
  vertex -0.102705635 0.0139652686 0.0147252409
  vertex -0.097728014 0.00391202094 0.0150005724
  endloop
 endfacet

 facet normal 0.587041259 0 0.80955708
  outer loop
  vertex -0.0974896848 -0.00061313418 0.0158140156
  vertex -0.0974896848 0.00104171108 0.0158140156
  vertex -0.101883307 0.0156296659 0.0189999994
  endloop
 endfacet

 facet normal 0.293718904 -0.106870383 0.949899018
  outer loop
  vertex -0.0974896848 -0.00061313418 0.0158140156
  vertex -0.101883307 0.0156296659 0.0189999994
  vertex -0.107790589 -0.00061313418 0.0189991631
  endloop
 endfacet

 facet normal 0 -5.15036809e-05 1
  outer loop
  vertex -0.116073877 -0.00061313418 0.0189991631
  vertex -0.107790589 -0.00061313418 0.0189991631
  vertex -0.101883307 0.0156296659 0.0189999994
  endloop
 endfacet

 facet normal 0 -5.15036809e-05 1
  outer loop
  vertex -0.116073877 -0.00061313418 0.0189991631
  vertex -0.101883307 0.0156296659 0.0189999994
  vertex -0.116075695 0.0156296659 0.0189999994
  endloop
 endfacet

 facet normal -0.831758201 -0.000121778619 0.555138111
  outer loop
  vertex -0.116073877 -0.00061313418 0.0189991631
  vertex -0.116075695 0.0156296659 0.0189999994
  vertex -0.116075695 0.0118161179 0.0189991631
  endloop
 endfacet

 facet normal 0 0.999999821 0.000749225263
  outer loop
  vertex -0.116075695 0.0237821098 0.0158140156
  vertex -0.116075695 0.0237797238 0.0189999994
  vertex -0.109178714 0.0237797238 0.0189999994
  endloop
 endfacet

 facet normal 0 0.999999821 0.000749225263
  outer loop
  vertex -0.116075695 0.0237821098 0.0158140156
  vertex -0.109178714 0.0237797238 0.0189999994
  vertex -0.109175079 0.0237821098 0.0158140156
  endloop
 endfacet

 facet normal 0.120210856 0.142898738 -0.982409954
  outer loop
  vertex -0.109175079 0.0237821098 0.0150005724
  vertex -0.107173845 0.0220986102 0.0150005724
  vertex -0.105007052 0.0183829665 0.0147252409
  endloop
 endfacet

 facet normal 0.0976968408 0.125764593 -0.987237871
  outer loop
  vertex -0.109175079 0.0237821098 0.0150005724
  vertex -0.105007052 0.0183829665 0.0147252409
  vertex -0.105452783 0.0187292192 0.0147252409
  endloop
 endfacet

 facet normal 0.0641012341 0.101318195 -0.992786825
  outer loop
  vertex -0.109175079 0.0237821098 0.0150005724
  vertex -0.105452783 0.0187292192 0.0147252409
  vertex -0.105958544 0.019049203 0.0147252409
  endloop
 endfacet

 facet normal 0.0450538956 0.0885054395 -0.995056272
  outer loop
  vertex -0.109175079 0.0237821098 0.0150005724
  vertex -0.105958544 0.019049203 0.0147252409
  vertex -0.106437027 0.0192927737 0.0147252409
  endloop
 endfacet

 facet normal 0.0343925506 0.0820630193 -0.996033609
  outer loop
  vertex -0.109175079 0.0237821098 0.0150005724
  vertex -0.106437027 0.0192927737 0.0147252409
  vertex -0.106955528 0.0195100773 0.0147252409
  endloop
 endfacet

 facet normal 0.0243910272 0.0769121721 -0.996739507
  outer loop
  vertex -0.109175079 0.0237821098 0.0150005724
  vertex -0.106955528 0.0195100773 0.0147252409
  vertex -0.107497677 0.0196820088 0.0147252409
  endloop
 endfacet

 facet normal 0.016554255 0.0737330094 -0.997140706
  outer loop
  vertex -0.109175079 0.0237821098 0.0150005724
  vertex -0.107497677 0.0196820088 0.0147252409
  vertex -0.108050749 0.019806182 0.0147252409
  endloop
 endfacet

 facet normal 0.009478705 0.0717485696 -0.997377753
  outer loop
  vertex -0.109175079 0.0237821098 0.0150005724
  vertex -0.108050749 0.019806182 0.0147252409
  vertex -0.108611092 0.0198802091 0.0147252409
  endloop
 endfacet

 facet normal 0.00269691786 0.0707761496 -0.997488618
  outer loop
  vertex -0.109175079 0.0237821098 0.0150005724
  vertex -0.108611092 0.0198802091 0.0147252409
  vertex -0.109175079 0.0199017003 0.0147252409
  endloop
 endfacet

 facet normal 0.643744349 0.765240669 0
  outer loop
  vertex -0.109175079 0.0237821098 0.0150005724
  vertex -0.109175079 0.0237821098 0.0158140156
  vertex -0.107173845 0.0220986102 0.0158140156
  endloop
 endfacet

 facet normal 0.643744349 0.765240669 0
  outer loop
  vertex -0.109175079 0.0237821098 0.0150005724
  vertex -0.107173845 0.0220986102 0.0158140156
  vertex -0.107173845 0.0220986102 0.0150005724
  endloop
 endfacet

 facet normal 0.0750492439 0.00984996744 -0.997131228
  outer loop
  vertex -0.102705635 0.0139652686 0.0147252409
  vertex -0.102780223 0.0145335998 0.0147252409
  vertex -0.097728014 0.00391202094 0.0150005724
  endloop
 endfacet

 facet normal 0.984978616 0.172639728 -0.00356489862
  outer loop
  vertex -0.097728014 0.00391202094 0.0150005724
  vertex -0.0981792063 0.00648622587 0.0150005724
  vertex -0.0980845988 0.0059632659 0.0158140156
  endloop
 endfacet

 facet normal 0.985224366 0.171268731 0
  outer loop
  vertex -0.097728014 0.00391202094 0.0150005724
  vertex -0.0980845988 0.0059632659 0.0158140156
  vertex -0.097728014 0.00391202094 0.0158140156
  endloop
 endfacet

 facet normal 0.995414913 0.0956518501 0
  outer loop
  vertex -0.097728014 0.00391202094 0.0150005724
  vertex -0.097728014 0.00391202094 0.0158140156
  vertex -0.0976770744 0.003381897 0.0158140156
  endloop
 endfacet

 facet normal 0.0859671757 0.0150676873 -0.996184051
  outer loop
  vertex -0.097728014 0.00391202094 0.0150005724
  vertex -0.102780223 0.0145335998 0.0147252409
  vertex -0.0981792063 0.00648622587 0.0150005724
  endloop
 endfacet

 facet normal 0.722950101 0.0694700405 0.687398791
  outer loop
  vertex -0.0976770744 0.003381897 0.0158140156
  vertex -0.097728014 0.00391202094 0.0158140156
  vertex -0.101883307 0.0156296659 0.0189999994
  endloop
 endfacet

 facet normal 0.710650623 0.0617522821 0.700829864
  outer loop
  vertex -0.0976770744 0.003381897 0.0158140156
  vertex -0.101883307 0.0156296659 0.0189999994
  vertex -0.097496964 0.00130916166 0.0158140156
  endloop
 endfacet

 facet normal 0.623248935 0.0169584807 0.781839728
  outer loop
  vertex -0.097496964 0.00130916166 0.0158140156
  vertex -0.101883307 0.0156296659 0.0189999994
  vertex -0.0974896848 0.00104171108 0.0158140156
  endloop
 endfacet

 facet normal 0.867021739 0.498270273 0
  outer loop
  vertex -0.101883307 0.0156296659 0.0189999994
  vertex -0.100849941 0.0138315437 0.0158140156
  vertex -0.100849941 0.0138315437 0.0150005724
  endloop
 endfacet

 facet normal 0.867021739 0.498270273 0
  outer loop
  vertex -0.101883307 0.0156296659 0.0189999994
  vertex -0.100849941 0.0138315437 0.0150005724
  vertex -0.101883307 0.0156296659 0.0158135965
  endloop
 endfacet

 facet normal 0.866091967 0.499884695 0
  outer loop
  vertex -0.101883307 0.0156296659 0.0189999994
  vertex -0.101883307 0.0156296659 0.0158135965
  vertex -0.1021562 0.0161024798 0.0158135965
  endloop
 endfacet

 facet normal 0.866091967 0.499884695 0
  outer loop
  vertex -0.101883307 0.0156296659 0.0189999994
  vertex -0.1021562 0.0161024798 0.0158135965
  vertex -0.1021562 0.0161024798 0.0189999994
  endloop
 endfacet

 facet normal 0 0 1
  outer loop
  vertex -0.101883307 0.0156296659 0.0189999994
  vertex -0.1021562 0.0161024798 0.0189999994
  vertex -0.103655308 0.0182444658 0.0189999994
  endloop
 endfacet

 facet normal 0 0 1
  outer loop
  vertex -0.101883307 0.0156296659 0.0189999994
  vertex -0.103655308 0.0182444658 0.0189999994
  vertex -0.105332702 0.0202479511 0.0189999994
  endloop
 endfacet

 facet normal 0 0 1
  outer loop
  vertex -0.101883307 0.0156296659 0.0189999994
  vertex -0.105332702 0.0202479511 0.0189999994
  vertex -0.107179299 0.0220986102 0.0189999994
  endloop
 endfacet

 facet normal 0 0 1
  outer loop
  vertex -0.101883307 0.0156296659 0.0189999994
  vertex -0.107179299 0.0220986102 0.0189999994
  vertex -0.109178714 0.0237797238 0.0189999994
  endloop
 endfacet

 facet normal 0 0 1
  outer loop
  vertex -0.101883307 0.0156296659 0.0189999994
  vertex -0.109178714 0.0237797238 0.0189999994
  vertex -0.116075695 0.0237797238 0.0189999994
  endloop
 endfacet

 facet normal 0 0 1
  outer loop
  vertex -0.101883307 0.0156296659 0.0189999994
  vertex -0.116075695 0.0237797238 0.0189999994
  vertex -0.116075695 0.0156296659 0.0189999994
  endloop
 endfacet

 facet normal 0.824142575 0.143266708 0.547963321
  outer loop
  vertex -0.101883307 0.0156296659 0.0189999994
  vertex -0.097728014 0.00391202094 0.0158140156
  vertex -0.0980845988 0.0059632659 0.0158140156
  endloop
 endfacet

 facet normal 0.831384599 0.150399297 0.534957767
  outer loop
  vertex -0.101883307 0.0156296659 0.0189999994
  vertex -0.0980845988 0.0059632659 0.0158140156
  vertex -0.0981792063 0.00648622587 0.0158140156
  endloop
 endfacet

 facet normal 0.902009249 0.24048391 0.358534276
  outer loop
  vertex -0.101883307 0.0156296659 0.0189999994
  vertex -0.0981792063 0.00648622587 0.0158140156
  vertex -0.0987159014 0.00849926285 0.0158140156
  endloop
 endfacet

 facet normal 0.903689981 0.244305477 0.351652265
  outer loop
  vertex -0.101883307 0.0156296659 0.0189999994
  vertex -0.0987159014 0.00849926285 0.0158140156
  vertex -0.0988559872 0.00901744794 0.0158140156
  endloop
 endfacet

 facet normal 0.924291551 0.33532837 0.182318255
  outer loop
  vertex -0.101883307 0.0156296659 0.0189999994
  vertex -0.0988559872 0.00901744794 0.0158140156
  vertex -0.0997474417 0.0114746429 0.0158140156
  endloop
 endfacet

 facet normal 0.904675186 0.422468871 0.0555226877
  outer loop
  vertex -0.101883307 0.0156296659 0.0189999994
  vertex -0.0997474417 0.0114746429 0.0158140156
  vertex -0.100626171 0.0133563429 0.0158140156
  endloop
 endfacet

 facet normal 0.903441429 0.425432563 0.0529211462
  outer loop
  vertex -0.101883307 0.0156296659 0.0189999994
  vertex -0.100626171 0.0133563429 0.0158140156
  vertex -0.100849941 0.0138315437 0.0158140156
  endloop
 endfacet

 facet normal 0.643552005 0.765401363 0.00130825758
  outer loop
  vertex -0.109175079 0.0237821098 0.0158140156
  vertex -0.109178714 0.0237797238 0.0189999994
  vertex -0.107179299 0.0220986102 0.0189999994
  endloop
 endfacet

 facet normal 0.643743873 0.765240312 0.00110290048
  outer loop
  vertex -0.109175079 0.0237821098 0.0158140156
  vertex -0.107179299 0.0220986102 0.0189999994
  vertex -0.107173845 0.0220986102 0.0158140156
  endloop
 endfacet

 facet normal 0.708928287 0.705280662 0
  outer loop
  vertex -0.107173845 0.0220986102 0.0150005724
  vertex -0.107173845 0.0220986102 0.0158140156
  vertex -0.105332702 0.0202479511 0.0189999994
  endloop
 endfacet

 facet normal 0.708928287 0.705280662 0
  outer loop
  vertex -0.107173845 0.0220986102 0.0150005724
  vertex -0.105332702 0.0202479511 0.0189999994
  vertex -0.105332702 0.0202479511 0.0158135965
  endloop
 endfacet

 facet normal 0.709381223 0.704822063 -0.00206934079
  outer loop
  vertex -0.107173845 0.0220986102 0.0150005724
  vertex -0.105332702 0.0202479511 0.0158135965
  vertex -0.105332702 0.0202455632 0.0150005724
  endloop
 endfacet

 facet normal 0.179665014 0.178510338 -0.967395782
  outer loop
  vertex -0.107173845 0.0220986102 0.0150005724
  vertex -0.105332702 0.0202455632 0.0150005724
  vertex -0.10458497 0.0180008952 0.0147252409
  endloop
 endfacet

 facet normal 0.138994917 0.153549388 -0.978316426
  outer loop
  vertex -0.107173845 0.0220986102 0.0150005724
  vertex -0.10458497 0.0180008952 0.0147252409
  vertex -0.105007052 0.0183829665 0.0147252409
  endloop
 endfacet

 facet normal 0.086087808 0.0151370484 -0.996172607
  outer loop
  vertex -0.102780223 0.0145335998 0.0147252409
  vertex -0.102785684 0.0145646436 0.0147252409
  vertex -0.0981792063 0.00648622587 0.0150005724
  endloop
 endfacet

 facet normal 0.966063142 0.2582995 -0.00182702811
  outer loop
  vertex -0.0981792063 0.00648622587 0.0150005724
  vertex -0.0988559872 0.00901744794 0.0150005724
  vertex -0.0987159014 0.00849926285 0.0158140156
  endloop
 endfacet

 facet normal 0.966248751 0.257610708 0
  outer loop
  vertex -0.0981792063 0.00648622587 0.0150005724
  vertex -0.0987159014 0.00849926285 0.0158140156
  vertex -0.0981792063 0.00648622587 0.0158140156
  endloop
 endfacet

 facet normal 0.98402822 0.178012848 0
  outer loop
  vertex -0.0981792063 0.00648622587 0.0150005724
  vertex -0.0981792063 0.00648622587 0.0158140156
  vertex -0.0980845988 0.0059632659 0.0158140156
  endloop
 endfacet

 facet normal 0.0981398672 0.022051787 -0.9949283
  outer loop
  vertex -0.0981792063 0.00648622587 0.0150005724
  vertex -0.102785684 0.0145646436 0.0147252409
  vertex -0.102902114 0.0150828268 0.0147252409
  endloop
 endfacet

 facet normal 0.112789914 0.0301570129 -0.993161142
  outer loop
  vertex -0.0981792063 0.00648622587 0.0150005724
  vertex -0.102902114 0.0150828268 0.0147252409
  vertex -0.0988559872 0.00901744794 0.0150005724
  endloop
 endfacet

 facet normal 0.90470928 0.426029652 0
  outer loop
  vertex -0.100849941 0.0138315437 0.0158140156
  vertex -0.100626171 0.0133563429 0.0158140156
  vertex -0.100849941 0.0138315437 0.0150005724
  endloop
 endfacet

 facet normal 0.866369188 0.499393046 -0.00331249717
  outer loop
  vertex -0.101883307 0.0156296659 0.0158135965
  vertex -0.100849941 0.0138315437 0.0150005724
  vertex -0.1021562 0.0160977039 0.0150005724
  endloop
 endfacet

 facet normal 0.866088331 0.499882549 -0.00293642073
  outer loop
  vertex -0.101883307 0.0156296659 0.0158135965
  vertex -0.1021562 0.0160977039 0.0150005724
  vertex -0.1021562 0.0161024798 0.0158135965
  endloop
 endfacet

 facet normal 0.81960988 0.572922111 0
  outer loop
  vertex -0.1021562 0.0161024798 0.0189999994
  vertex -0.1021562 0.0161024798 0.0158135965
  vertex -0.103653491 0.0182444658 0.0150005724
  endloop
 endfacet

 facet normal 0.81960988 0.572922111 0
  outer loop
  vertex -0.1021562 0.0161024798 0.0189999994
  vertex -0.103653491 0.0182444658 0.0150005724
  vertex -0.103653491 0.0182444658 0.0158140156
  endloop
 endfacet

 facet normal 0.819282949 0.573389232 0.00046772341
  outer loop
  vertex -0.1021562 0.0161024798 0.0189999994
  vertex -0.103653491 0.0182444658 0.0158140156
  vertex -0.103655308 0.0182444658 0.0189999994
  endloop
 endfacet

 facet normal 0.96534586 0.260973662 0
  outer loop
  vertex -0.0987159014 0.00849926285 0.0158140156
  vertex -0.0988559872 0.00901744794 0.0150005724
  vertex -0.0988559872 0.00901744794 0.0158140156
  endloop
 endfacet

 facet normal 0.940047204 0.341044426 0
  outer loop
  vertex -0.0988559872 0.00901744794 0.0158140156
  vertex -0.0988559872 0.00901744794 0.0150005724
  vertex -0.0997474417 0.0114746429 0.0150005724
  endloop
 endfacet

 facet normal 0.940047204 0.341044426 0
  outer loop
  vertex -0.0988559872 0.00901744794 0.0158140156
  vertex -0.0997474417 0.0114746429 0.0150005724
  vertex -0.0997474417 0.0114746429 0.0158140156
  endloop
 endfacet

 facet normal 0.906072974 0.423121572 0
  outer loop
  vertex -0.0997474417 0.0114746429 0.0158140156
  vertex -0.0997474417 0.0114746429 0.0150005724
  vertex -0.100626171 0.0133563429 0.0158140156
  endloop
 endfacet

 facet normal 0.905797184 0.423708379 -0.00165529223
  outer loop
  vertex -0.100626171 0.0133563429 0.0158140156
  vertex -0.0997474417 0.0114746429 0.0150005724
  vertex -0.100849941 0.0138315437 0.0150005724
  endloop
 endfacet

 facet normal 0.70788306 0.70632863 0.00121278758
  outer loop
  vertex -0.107179299 0.0220986102 0.0189999994
  vertex -0.105332702 0.0202479511 0.0189999994
  vertex -0.107173845 0.0220986102 0.0158140156
  endloop
 endfacet

 facet normal 0.766403377 0.642359614 0
  outer loop
  vertex -0.105332702 0.0202479511 0.0158135965
  vertex -0.105332702 0.0202479511 0.0189999994
  vertex -0.103653491 0.0182444658 0.0158140156
  endloop
 endfacet

 facet normal 0.766403377 0.642359614 0
  outer loop
  vertex -0.105332702 0.0202479511 0.0158135965
  vertex -0.103653491 0.0182444658 0.0158140156
  vertex -0.103653491 0.0182444658 0.0150005724
  endloop
 endfacet

 facet normal 0.766024828 0.642808199 -0.00188726967
  outer loop
  vertex -0.105332702 0.0202479511 0.0158135965
  vertex -0.103653491 0.0182444658 0.0150005724
  vertex -0.105332702 0.0202455632 0.0150005724
  endloop
 endfacet

 facet normal 0.237011716 0.198887914 -0.950930595
  outer loop
  vertex -0.105332702 0.0202455632 0.0150005724
  vertex -0.103653491 0.0182444658 0.0150005724
  vertex -0.104201101 0.0175806172 0.0147252409
  endloop
 endfacet

 facet normal 0.20322293 0.185619578 -0.961377084
  outer loop
  vertex -0.105332702 0.0202455632 0.0150005724
  vertex -0.104201101 0.0175806172 0.0147252409
  vertex -0.10458497 0.0180008952 0.0147252409
  endloop
 endfacet

 facet normal 0.12744914 0.0400324166 -0.991036892
  outer loop
  vertex -0.0988559872 0.00901744794 0.0150005724
  vertex -0.102902114 0.0150828268 0.0147252409
  vertex -0.103073128 0.015627278 0.0147252409
  endloop
 endfacet

 facet normal 0.149429008 0.0542121008 -0.987285137
  outer loop
  vertex -0.0988559872 0.00901744794 0.0150005724
  vertex -0.103073128 0.015627278 0.0147252409
  vertex -0.0997474417 0.0114746429 0.0150005724
  endloop
 endfacet

 facet normal 0.197852477 0.0925502479 -0.975852907
  outer loop
  vertex -0.100849941 0.0138315437 0.0150005724
  vertex -0.0997474417 0.0114746429 0.0150005724
  vertex -0.103291444 0.0161478501 0.0147252409
  endloop
 endfacet

 facet normal 0.215866715 0.112239778 -0.969950438
  outer loop
  vertex -0.100849941 0.0138315437 0.0150005724
  vertex -0.103291444 0.0161478501 0.0147252409
  vertex -0.103553429 0.0166517068 0.0147252409
  endloop
 endfacet

 facet normal 0.242118701 0.138344631 -0.96033287
  outer loop
  vertex -0.100849941 0.0138315437 0.0150005724
  vertex -0.103553429 0.0166517068 0.0147252409
  vertex -0.103569798 0.0166803617 0.0147252409
  endloop
 endfacet

 facet normal 0.245039746 0.141245946 -0.959168911
  outer loop
  vertex -0.100849941 0.0138315437 0.0150005724
  vertex -0.103569798 0.0166803617 0.0147252409
  vertex -0.1021562 0.0160977039 0.0150005724
  endloop
 endfacet

 facet normal 0.252040267 0.160526246 -0.954309702
  outer loop
  vertex -0.1021562 0.0160977039 0.0150005724
  vertex -0.103569798 0.0166803617 0.0147252409
  vertex -0.103857249 0.0171316843 0.0147252409
  endloop
 endfacet

 facet normal 0.265818149 0.18539831 -0.946027517
  outer loop
  vertex -0.1021562 0.0160977039 0.0150005724
  vertex -0.103857249 0.0171316843 0.0147252409
  vertex -0.103653491 0.0182444658 0.0150005724
  endloop
 endfacet

 facet normal 0.820203722 0.572061658 -0.00336041721
  outer loop
  vertex -0.1021562 0.0160977039 0.0150005724
  vertex -0.103653491 0.0182444658 0.0150005724
  vertex -0.1021562 0.0161024798 0.0158135965
  endloop
 endfacet

 facet normal 0.766745925 0.641950607 0.000437730312
  outer loop
  vertex -0.103653491 0.0182444658 0.0158140156
  vertex -0.105332702 0.0202479511 0.0189999994
  vertex -0.103655308 0.0182444658 0.0189999994
  endloop
 endfacet

 facet normal 0.170796022 0.0716281682 -0.982699394
  outer loop
  vertex -0.0997474417 0.0114746429 0.0150005724
  vertex -0.103073128 0.015627278 0.0147252409
  vertex -0.103291444 0.0161478501 0.0147252409
  endloop
 endfacet

 facet normal 0.248699293 0.189482674 -0.949865878
  outer loop
  vertex -0.103653491 0.0182444658 0.0150005724
  vertex -0.103857249 0.0171316843 0.0147252409
  vertex -0.103877261 0.0171579514 0.0147252409
  endloop
 endfacet

 facet normal 0.247661382 0.189751551 -0.950083256
  outer loop
  vertex -0.103653491 0.0182444658 0.0150005724
  vertex -0.103877261 0.0171579514 0.0147252409
  vertex -0.104201101 0.0175806172 0.0147252409
  endloop
 endfacet

endsolid AssimpScene
