solid AssimpScene
 facet normal -0.000175105335 0.00079739833 0.999999702
  outer loop
  vertex -0.0348055437 -0.0077165626 -0.00300011993
  vertex -0.0410252288 -0.0142485145 -0.00299600046
  vertex -0.0410086662 -0.0142448777 -0.00299600046
  endloop
 endfacet

 facet normal 0.000524470583 0.00013267016 0.999999881
  outer loop
  vertex -0.0348055437 -0.0077165626 -0.00300011993
  vertex -0.0410086662 -0.0142448777 -0.00299600046
  vertex -0.0409994684 -0.0142812477 -0.00299600046
  endloop
 endfacet

 facet normal 0.000531496364 0.000126041268 0.999999881
  outer loop
  vertex -0.0348055437 -0.0077165626 -0.00300011993
  vertex -0.0409994684 -0.0142812477 -0.00299600046
  vertex -0.0409939475 -0.0143045243 -0.00299600046
  endloop
 endfacet

 facet normal 0.000532323378 0.000125264312 0.999999881
  outer loop
  vertex -0.0348055437 -0.0077165626 -0.00300011993
  vertex -0.0409939475 -0.0143045243 -0.00299600046
  vertex -0.0409865864 -0.0143358018 -0.00299600046
  endloop
 endfacet

 facet normal 0.000536408043 0.000121450037 0.999999881
  outer loop
  vertex -0.0348055437 -0.0077165626 -0.00300011993
  vertex -0.0409865864 -0.0143358018 -0.00299600046
  vertex -0.0337014571 -0.0125929778 -0.00300011993
  endloop
 endfacet

 facet normal 0.975313723 0.220824212 0
  outer loop
  vertex -0.0348055437 -0.0077165626 -0.00300011993
  vertex -0.0337014571 -0.0125929778 -0.00300011993
  vertex -0.0337014571 -0.0125929778 -0.00449998118
  endloop
 endfacet

 facet normal 0.975313723 0.220824212 0
  outer loop
  vertex -0.0348055437 -0.0077165626 -0.00300011993
  vertex -0.0337014571 -0.0125929778 -0.00449998118
  vertex -0.0348055437 -0.0077165626 -0.00500000035
  endloop
 endfacet

 facet normal -0.220584899 0.975367785 0
  outer loop
  vertex -0.0348055437 -0.0077165626 -0.00300011993
  vertex -0.0348055437 -0.0077165626 -0.00500000035
  vertex -0.0524985269 -0.0117179295 -0.00500000035
  endloop
 endfacet

 facet normal -0.220584899 0.975367785 0
  outer loop
  vertex -0.0348055437 -0.0077165626 -0.00300011993
  vertex -0.0524985269 -0.0117179295 -0.00500000035
  vertex -0.0524985269 -0.0117179295 -0.00300011993
  endloop
 endfacet

 facet normal -0.000181771669 0.000803745992 0.999999702
  outer loop
  vertex -0.0348055437 -0.0077165626 -0.00300011993
  vertex -0.0524985269 -0.0117179295 -0.00300011993
  vertex -0.0410252288 -0.0142485145 -0.00299600046
  endloop
 endfacet

 facet normal 0 0 1
  outer loop
  vertex -0.0410252288 -0.0142485145 -0.00299600046
  vertex -0.043408215 -0.0151468404 -0.00299600046
  vertex -0.0408044122 -0.0151468404 -0.00299600046
  endloop
 endfacet

 facet normal 0 0 1
  outer loop
  vertex -0.0410252288 -0.0142485145 -0.00299600046
  vertex -0.0408044122 -0.0151468404 -0.00299600046
  vertex -0.0409865864 -0.0143358018 -0.00299600046
  endloop
 endfacet

 facet normal 0 0 1
  outer loop
  vertex -0.0410252288 -0.0142485145 -0.00299600046
  vertex -0.0409865864 -0.0143358018 -0.00299600046
  vertex -0.0409939475 -0.0143045243 -0.00299600046
  endloop
 endfacet

 facet normal 0 0 1
  outer loop
  vertex -0.0410252288 -0.0142485145 -0.00299600046
  vertex -0.0409939475 -0.0143045243 -0.00299600046
  vertex -0.0409994684 -0.0142812477 -0.00299600046
  endloop
 endfacet

 facet normal 0 0 1
  outer loop
  vertex -0.0410252288 -0.0142485145 -0.00299600046
  vertex -0.0409994684 -0.0142812477 -0.00299600046
  vertex -0.0410086662 -0.0142448777 -0.00299600046
  endloop
 endfacet

 facet normal -0.00022651648 0.000600879721 0.999999762
  outer loop
  vertex -0.0410252288 -0.0142485145 -0.00299600046
  vertex -0.0524985269 -0.0117179295 -0.00300011993
  vertex -0.043408215 -0.0151468404 -0.00299600046
  endloop
 endfacet

 facet normal 0.000536626612 0.000120536592 0.999999881
  outer loop
  vertex -0.0409865864 -0.0143358018 -0.00299600046
  vertex -0.0408044122 -0.0151468404 -0.00299600046
  vertex -0.0337014571 -0.0125929778 -0.00300011993
  endloop
 endfacet

 facet normal 0.338343948 -0.941022575 0
  outer loop
  vertex -0.0337014571 -0.0125929778 -0.00300011993
  vertex -0.0408044122 -0.0151468404 -0.00299600046
  vertex -0.0337014571 -0.0125929778 -0.00449998118
  endloop
 endfacet

 facet normal 0.975315452 0.220816523 -7.8625977e-05
  outer loop
  vertex -0.0348055437 -0.0077165626 -0.00500000035
  vertex -0.0337014571 -0.0125929778 -0.00449998118
  vertex -0.0337566622 -0.0123493029 -0.00493291253
  endloop
 endfacet

 facet normal 0.975316644 0.220810235 -0.000531193509
  outer loop
  vertex -0.0348055437 -0.0077165626 -0.00500000035
  vertex -0.0337566622 -0.0123493029 -0.00493291253
  vertex -0.0338118672 -0.012105627 -0.00500000035
  endloop
 endfacet

 facet normal 0 0 -1
  outer loop
  vertex -0.0348055437 -0.0077165626 -0.00500000035
  vertex -0.0338118672 -0.012105627 -0.00500000035
  vertex -0.0472633168 -0.0151468404 -0.00500000035
  endloop
 endfacet

 facet normal 0 0 -1
  outer loop
  vertex -0.0348055437 -0.0077165626 -0.00500000035
  vertex -0.0472633168 -0.0151468404 -0.00500000035
  vertex -0.0524985269 -0.0151468404 -0.00500000035
  endloop
 endfacet

 facet normal 0 0 -1
  outer loop
  vertex -0.0348055437 -0.0077165626 -0.00500000035
  vertex -0.0524985269 -0.0151468404 -0.00500000035
  vertex -0.0524985269 -0.0117179295 -0.00500000035
  endloop
 endfacet

 facet normal -1 0 0
  outer loop
  vertex -0.0524985269 -0.0117179295 -0.00300011993
  vertex -0.0524985269 -0.0117179295 -0.00500000035
  vertex -0.0524985269 -0.0151468404 -0.00500000035
  endloop
 endfacet

 facet normal -1 0 0
  outer loop
  vertex -0.0524985269 -0.0117179295 -0.00300011993
  vertex -0.0524985269 -0.0151468404 -0.00500000035
  vertex -0.0524985269 -0.0151468404 -0.00300011993
  endloop
 endfacet

 facet normal -0.000453171466 0 0.99999994
  outer loop
  vertex -0.0524985269 -0.0117179295 -0.00300011993
  vertex -0.0524985269 -0.0151468404 -0.00300011993
  vertex -0.043408215 -0.0151468404 -0.00299600046
  endloop
 endfacet

 facet normal 0 -1 0
  outer loop
  vertex -0.043408215 -0.0151468404 -0.00299600046
  vertex -0.0524985269 -0.0151468404 -0.00300011993
  vertex -0.0524985269 -0.0151468404 -0.00500000035
  endloop
 endfacet

 facet normal 0 -1 0
  outer loop
  vertex -0.043408215 -0.0151468404 -0.00299600046
  vertex -0.0524985269 -0.0151468404 -0.00500000035
  vertex -0.0472633168 -0.0151468404 -0.00500000035
  endloop
 endfacet

 facet normal 0 -1 0
  outer loop
  vertex -0.043408215 -0.0151468404 -0.00299600046
  vertex -0.0472633168 -0.0151468404 -0.00500000035
  vertex -0.04706458 -0.0151468404 -0.00499803899
  endloop
 endfacet

 facet normal 0 -1 0
  outer loop
  vertex -0.043408215 -0.0151468404 -0.00299600046
  vertex -0.04706458 -0.0151468404 -0.00499803899
  vertex -0.0468695275 -0.0151468404 -0.00499234954
  endloop
 endfacet

 facet normal 0 -1 0
  outer loop
  vertex -0.043408215 -0.0151468404 -0.00299600046
  vertex -0.0468695275 -0.0151468404 -0.00499234954
  vertex -0.0466763116 -0.0151468404 -0.00498293433
  endloop
 endfacet

 facet normal 0 -1 0
  outer loop
  vertex -0.043408215 -0.0151468404 -0.00299600046
  vertex -0.0466763116 -0.0151468404 -0.00498293433
  vertex -0.0464867763 -0.0151468404 -0.00496979104
  endloop
 endfacet

 facet normal 0 -1 0
  outer loop
  vertex -0.043408215 -0.0151468404 -0.00299600046
  vertex -0.0464867763 -0.0151468404 -0.00496979104
  vertex -0.0463046022 -0.0151468404 -0.00495311711
  endloop
 endfacet

 facet normal 0 -1 0
  outer loop
  vertex -0.043408215 -0.0151468404 -0.00299600046
  vertex -0.0463046022 -0.0151468404 -0.00495311711
  vertex -0.0462236367 -0.0151468404 -0.00494389748
  endloop
 endfacet

 facet normal 0 -1 0
  outer loop
  vertex -0.043408215 -0.0151468404 -0.00299600046
  vertex -0.0462236367 -0.0151468404 -0.00494389748
  vertex -0.0461647511 -0.0151468404 -0.00493703177
  endloop
 endfacet

 facet normal 0 -1 0
  outer loop
  vertex -0.043408215 -0.0151468404 -0.00299600046
  vertex -0.0461647511 -0.0151468404 -0.00493703177
  vertex -0.0461297892 -0.0151468404 -0.00493291253
  endloop
 endfacet

 facet normal 0 -1 0
  outer loop
  vertex -0.043408215 -0.0151468404 -0.00299600046
  vertex -0.0461297892 -0.0151468404 -0.00493291253
  vertex -0.0459954552 -0.0151468404 -0.00491427723
  endloop
 endfacet

 facet normal 0 -1 0
  outer loop
  vertex -0.043408215 -0.0151468404 -0.00299600046
  vertex -0.0459954552 -0.0151468404 -0.00491427723
  vertex -0.0459623337 -0.0151468404 -0.00490956847
  endloop
 endfacet

 facet normal 0 -1 0
  outer loop
  vertex -0.043408215 -0.0151468404 -0.00299600046
  vertex -0.0459623337 -0.0151468404 -0.00490956847
  vertex -0.0458059236 -0.0151468404 -0.00488289166
  endloop
 endfacet

 facet normal 0 -1 0
  outer loop
  vertex -0.043408215 -0.0151468404 -0.00299600046
  vertex -0.0458059236 -0.0151468404 -0.00488289166
  vertex -0.0456881523 -0.0151468404 -0.00485935109
  endloop
 endfacet

 facet normal 0 -1 0
  outer loop
  vertex -0.043408215 -0.0151468404 -0.00299600046
  vertex -0.0456881523 -0.0151468404 -0.00485935109
  vertex -0.0456605516 -0.0151468404 -0.00485346699
  endloop
 endfacet

 facet normal 0 -1 0
  outer loop
  vertex -0.043408215 -0.0151468404 -0.00299600046
  vertex -0.0456605516 -0.0151468404 -0.00485346699
  vertex -0.045601666 -0.0151468404 -0.0048395386
  endloop
 endfacet

 facet normal 0 -1 0
  outer loop
  vertex -0.043408215 -0.0151468404 -0.00299600046
  vertex -0.045601666 -0.0151468404 -0.0048395386
  vertex -0.0455519818 -0.0151468404 -0.0048275725
  endloop
 endfacet

 facet normal 0 -1 0
  outer loop
  vertex -0.043408215 -0.0151468404 -0.00299600046
  vertex -0.0455519818 -0.0151468404 -0.0048275725
  vertex -0.0455262214 -0.0151468404 -0.00482129632
  endloop
 endfacet

 facet normal 0 -1 0
  outer loop
  vertex -0.043408215 -0.0151468404 -0.00299600046
  vertex -0.0455262214 -0.0151468404 -0.00482129632
  vertex -0.0454286933 -0.0151468404 -0.00479344046
  endloop
 endfacet

 facet normal 0 -1 0
  outer loop
  vertex -0.043408215 -0.0151468404 -0.00299600046
  vertex -0.0454286933 -0.0151468404 -0.00479344046
  vertex -0.0454066135 -0.0151468404 -0.00478677126
  endloop
 endfacet

 facet normal 0 -1 0
  outer loop
  vertex -0.043408215 -0.0151468404 -0.00299600046
  vertex -0.0454066135 -0.0151468404 -0.00478677126
  vertex -0.0453606099 -0.0151468404 -0.00477107847
  endloop
 endfacet

 facet normal 0 -1 0
  outer loop
  vertex -0.043408215 -0.0151468404 -0.00299600046
  vertex -0.0453606099 -0.0151468404 -0.00477107847
  vertex -0.0452998839 -0.0151468404 -0.00474989321
  endloop
 endfacet

 facet normal 0 -1 0
  outer loop
  vertex -0.043408215 -0.0151468404 -0.00299600046
  vertex -0.0452998839 -0.0151468404 -0.00474989321
  vertex -0.0449962579 -0.0151468404 -0.00463199895
  endloop
 endfacet

 facet normal 0 -1 0
  outer loop
  vertex -0.043408215 -0.0151468404 -0.00299600046
  vertex -0.0449962579 -0.0151468404 -0.00463199895
  vertex -0.0447165594 -0.0151468404 -0.00452332478
  endloop
 endfacet

 facet normal 0 -1 0
  outer loop
  vertex -0.043408215 -0.0151468404 -0.00299600046
  vertex -0.0447165594 -0.0151468404 -0.00452332478
  vertex -0.0445527844 -0.0151468404 -0.00445957156
  endloop
 endfacet

 facet normal 0 -1 0
  outer loop
  vertex -0.043408215 -0.0151468404 -0.00299600046
  vertex -0.0445527844 -0.0151468404 -0.00445957156
  vertex -0.040815454 -0.0151468404 -0.00300090434
  endloop
 endfacet

 facet normal 0 -1 0
  outer loop
  vertex -0.043408215 -0.0151468404 -0.00299600046
  vertex -0.040815454 -0.0151468404 -0.00300090434
  vertex -0.0408044122 -0.0151468404 -0.00299600046
  endloop
 endfacet

 facet normal 0.204891443 -0.863280237 -0.461266458
  outer loop
  vertex -0.0408044122 -0.0151468404 -0.00299600046
  vertex -0.040815454 -0.0151468404 -0.00300090434
  vertex -0.0337124988 -0.0125471521 -0.00471124891
  endloop
 endfacet

 facet normal 0.232282281 -0.891014099 -0.390049785
  outer loop
  vertex -0.0408044122 -0.0151468404 -0.00299600046
  vertex -0.0337124988 -0.0125471521 -0.00471124891
  vertex -0.0337088183 -0.0125638824 -0.00467083929
  endloop
 endfacet

 facet normal 0.267615557 -0.920265794 -0.2854698
  outer loop
  vertex -0.0408044122 -0.0151468404 -0.00299600046
  vertex -0.0337088183 -0.0125638824 -0.00467083929
  vertex -0.033706978 -0.0125762485 -0.00462925248
  endloop
 endfacet

 facet normal 0.283817589 -0.930568635 -0.231278405
  outer loop
  vertex -0.0408044122 -0.0151468404 -0.00299600046
  vertex -0.033706978 -0.0125762485 -0.00462925248
  vertex -0.0337032974 -0.0125857042 -0.00458668498
  endloop
 endfacet

 facet normal 0.311235666 -0.941811264 -0.126980275
  outer loop
  vertex -0.0408044122 -0.0151468404 -0.00299600046
  vertex -0.0337032974 -0.0125857042 -0.00458668498
  vertex -0.0337032974 -0.0125915231 -0.00454352889
  endloop
 endfacet

 facet normal 0.32946521 -0.943074703 -0.0454169288
  outer loop
  vertex -0.0408044122 -0.0151468404 -0.00299600046
  vertex -0.0337032974 -0.0125915231 -0.00454352889
  vertex -0.0337014571 -0.0125929778 -0.00449998118
  endloop
 endfacet

 facet normal 0.976367414 0.21610193 -0.00259308494
  outer loop
  vertex -0.0337014571 -0.0125929778 -0.00449998118
  vertex -0.0337032974 -0.0125857042 -0.00458668498
  vertex -0.0337217003 -0.0125049632 -0.00478677126
  endloop
 endfacet

 facet normal 0.976142466 0.217119664 -0.00226486824
  outer loop
  vertex -0.0337014571 -0.0125929778 -0.00449998118
  vertex -0.0337217003 -0.0125049632 -0.00478677126
  vertex -0.0337566622 -0.0123493029 -0.00493291253
  endloop
 endfacet

 facet normal 0.92186898 -0.384027183 -0.0517766885
  outer loop
  vertex -0.0337014571 -0.0125929778 -0.00449998118
  vertex -0.0337032974 -0.0125915231 -0.00454352889
  vertex -0.0337032974 -0.0125857042 -0.00458668498
  endloop
 endfacet

 facet normal 0.977536857 0.194672212 -0.0807740241
  outer loop
  vertex -0.0337566622 -0.0123493029 -0.00493291253
  vertex -0.0337658636 -0.0123114781 -0.00495311711
  vertex -0.0337750651 -0.0122721996 -0.00496979104
  endloop
 endfacet

 facet normal 0.977532983 0.194824219 -0.0804542825
  outer loop
  vertex -0.0337566622 -0.0123493029 -0.00493291253
  vertex -0.0337750651 -0.0122721996 -0.00496979104
  vertex -0.0337842628 -0.0122314654 -0.00498293433
  endloop
 endfacet

 facet normal 0.977274835 0.202978507 -0.061102733
  outer loop
  vertex -0.0337566622 -0.0123493029 -0.00493291253
  vertex -0.0337842628 -0.0122314654 -0.00498293433
  vertex -0.0337934643 -0.0121900048 -0.00499234954
  endloop
 endfacet

 facet normal 0.97712177 0.205981731 -0.05295901
  outer loop
  vertex -0.0337566622 -0.0123493029 -0.00493291253
  vertex -0.0337934643 -0.0121900048 -0.00499234954
  vertex -0.0338026658 -0.0121478159 -0.00499803899
  endloop
 endfacet

 facet normal 0.976747215 0.211319253 -0.0361813083
  outer loop
  vertex -0.0337566622 -0.0123493029 -0.00493291253
  vertex -0.0338026658 -0.0121478159 -0.00499803899
  vertex -0.0338118672 -0.012105627 -0.00500000035
  endloop
 endfacet

 facet normal 0.982259274 0.183255985 -0.0397978686
  outer loop
  vertex -0.0337566622 -0.0123493029 -0.00493291253
  vertex -0.0337217003 -0.0125049632 -0.00478677126
  vertex -0.0337345786 -0.0124504101 -0.00485346699
  endloop
 endfacet

 facet normal 0.985396326 0.144746214 -0.0896799937
  outer loop
  vertex -0.0337566622 -0.0123493029 -0.00493291253
  vertex -0.0337345786 -0.0124504101 -0.00485346699
  vertex -0.033749301 -0.0123849446 -0.00490956847
  endloop
 endfacet

 facet normal 0.119102739 -0.526662767 -0.841689289
  outer loop
  vertex -0.0337566622 -0.0123493029 -0.00493291253
  vertex -0.033749301 -0.0123849446 -0.00490956847
  vertex -0.0459954552 -0.0151468404 -0.00491427723
  endloop
 endfacet

 facet normal 0.117424354 -0.51935184 -0.846454501
  outer loop
  vertex -0.0337566622 -0.0123493029 -0.00493291253
  vertex -0.0459954552 -0.0151468404 -0.00491427723
  vertex -0.0461297892 -0.0151468404 -0.00493291253
  endloop
 endfacet

 facet normal 0.103918999 -0.459619492 -0.882015228
  outer loop
  vertex -0.0337566622 -0.0123493029 -0.00493291253
  vertex -0.0461297892 -0.0151468404 -0.00493291253
  vertex -0.0461647511 -0.0151468404 -0.00493703177
  endloop
 endfacet

 facet normal 0.103078246 -0.455887526 -0.884048402
  outer loop
  vertex -0.0337566622 -0.0123493029 -0.00493291253
  vertex -0.0461647511 -0.0151468404 -0.00493703177
  vertex -0.0462236367 -0.0151468404 -0.00494389748
  endloop
 endfacet

 facet normal 0.101622097 -0.44938457 -0.887539566
  outer loop
  vertex -0.0337566622 -0.0123493029 -0.00493291253
  vertex -0.0462236367 -0.0151468404 -0.00494389748
  vertex -0.0337658636 -0.0123114781 -0.00495311711
  endloop
 endfacet

 facet normal 0.0100089973 -0.044260554 -0.998969913
  outer loop
  vertex -0.0338118672 -0.012105627 -0.00500000035
  vertex -0.0338026658 -0.0121478159 -0.00499803899
  vertex -0.04706458 -0.0151468404 -0.00499803899
  endloop
 endfacet

 facet normal 0.00985937938 -0.0436085798 -0.999000132
  outer loop
  vertex -0.0338118672 -0.012105627 -0.00500000035
  vertex -0.04706458 -0.0151468404 -0.00499803899
  vertex -0.0472633168 -0.0151468404 -0.00500000035
  endloop
 endfacet

 facet normal 0.202779114 -0.860958457 -0.46650964
  outer loop
  vertex -0.040815454 -0.0151468404 -0.00300090434
  vertex -0.0337180197 -0.0125275133 -0.00474989321
  vertex -0.0337124988 -0.0125471521 -0.00471124891
  endloop
 endfacet

 facet normal 0.192076787 -0.849066675 -0.492130548
  outer loop
  vertex -0.040815454 -0.0151468404 -0.00300090434
  vertex -0.0445527844 -0.0151468404 -0.00445957156
  vertex -0.0337180197 -0.0125275133 -0.00474989321
  endloop
 endfacet

 facet normal 0.877159297 -0.365740895 -0.311167449
  outer loop
  vertex -0.0337124988 -0.0125471521 -0.00471124891
  vertex -0.0337180197 -0.0125275133 -0.00474989321
  vertex -0.0337217003 -0.0125049632 -0.00478677126
  endloop
 endfacet

 facet normal 0.981884003 0.188960746 -0.0140527654
  outer loop
  vertex -0.0337124988 -0.0125471521 -0.00471124891
  vertex -0.0337217003 -0.0125049632 -0.00478677126
  vertex -0.0337032974 -0.0125857042 -0.00458668498
  endloop
 endfacet

 facet normal 0.986485243 0.162276521 -0.0226513632
  outer loop
  vertex -0.0337124988 -0.0125471521 -0.00471124891
  vertex -0.0337032974 -0.0125857042 -0.00458668498
  vertex -0.0337088183 -0.0125638824 -0.00467083929
  endloop
 endfacet

 facet normal 0.857335746 -0.481813431 -0.181193978
  outer loop
  vertex -0.0337088183 -0.0125638824 -0.00467083929
  vertex -0.0337032974 -0.0125857042 -0.00458668498
  vertex -0.033706978 -0.0125762485 -0.00462925248
  endloop
 endfacet

 facet normal 0.865871668 -0.292097032 -0.406134933
  outer loop
  vertex -0.0337217003 -0.0125049632 -0.00478677126
  vertex -0.0337290615 -0.0124787772 -0.00482129632
  vertex -0.0337345786 -0.0124504101 -0.00485346699
  endloop
 endfacet

 facet normal 0.187610328 -0.82955575 -0.525965452
  outer loop
  vertex -0.0337217003 -0.0125049632 -0.00478677126
  vertex -0.0337180197 -0.0125275133 -0.00474989321
  vertex -0.0452998839 -0.0151468404 -0.00474989321
  endloop
 endfacet

 facet normal 0.18642047 -0.824457884 -0.534337521
  outer loop
  vertex -0.0337217003 -0.0125049632 -0.00478677126
  vertex -0.0452998839 -0.0151468404 -0.00474989321
  vertex -0.0453606099 -0.0151468404 -0.00477107847
  endloop
 endfacet

 facet normal 0.185196683 -0.819117427 -0.542907834
  outer loop
  vertex -0.0337217003 -0.0125049632 -0.00478677126
  vertex -0.0453606099 -0.0151468404 -0.00477107847
  vertex -0.0454066135 -0.0151468404 -0.00478677126
  endloop
 endfacet

 facet normal 0.178105861 -0.787754953 -0.589678288
  outer loop
  vertex -0.0337217003 -0.0125049632 -0.00478677126
  vertex -0.0454066135 -0.0151468404 -0.00478677126
  vertex -0.0454286933 -0.0151468404 -0.00479344046
  endloop
 endfacet

 facet normal 0.174562857 -0.772000551 -0.611181617
  outer loop
  vertex -0.0337217003 -0.0125049632 -0.00478677126
  vertex -0.0454286933 -0.0151468404 -0.00479344046
  vertex -0.0455262214 -0.0151468404 -0.00482129632
  endloop
 endfacet

 facet normal 0.173361748 -0.766539931 -0.618354499
  outer loop
  vertex -0.0337217003 -0.0125049632 -0.00478677126
  vertex -0.0455262214 -0.0151468404 -0.00482129632
  vertex -0.0337290615 -0.0124787772 -0.00482129632
  endloop
 endfacet

 facet normal 0.101181 -0.447449863 -0.888566852
  outer loop
  vertex -0.0337658636 -0.0123114781 -0.00495311711
  vertex -0.0462236367 -0.0151468404 -0.00494389748
  vertex -0.0463046022 -0.0151468404 -0.00495311711
  endloop
 endfacet

 facet normal 0.0845362693 -0.373842329 -0.923631668
  outer loop
  vertex -0.0337658636 -0.0123114781 -0.00495311711
  vertex -0.0463046022 -0.0151468404 -0.00495311711
  vertex -0.0464867763 -0.0151468404 -0.00496979104
  endloop
 endfacet

 facet normal 0.0842527375 -0.372567058 -0.924172819
  outer loop
  vertex -0.0337658636 -0.0123114781 -0.00495311711
  vertex -0.0464867763 -0.0151468404 -0.00496979104
  vertex -0.0337750651 -0.0122721996 -0.00496979104
  endloop
 endfacet

 facet normal 0.0662196428 -0.292824417 -0.953870416
  outer loop
  vertex -0.0337842628 -0.0122314654 -0.00498293433
  vertex -0.0337750651 -0.0122721996 -0.00496979104
  vertex -0.0464867763 -0.0151468404 -0.00496979104
  endloop
 endfacet

 facet normal 0.0661526397 -0.292532891 -0.953964472
  outer loop
  vertex -0.0337842628 -0.0122314654 -0.00498293433
  vertex -0.0464867763 -0.0151468404 -0.00496979104
  vertex -0.0466763116 -0.0151468404 -0.00498293433
  endloop
 endfacet

 facet normal 0.0477406904 -0.211113617 -0.976294994
  outer loop
  vertex -0.0337842628 -0.0122314654 -0.00498293433
  vertex -0.0466763116 -0.0151468404 -0.00498293433
  vertex -0.0337934643 -0.0121900048 -0.00499234954
  endloop
 endfacet

 facet normal 0.0475825518 -0.210425109 -0.976451337
  outer loop
  vertex -0.0337934643 -0.0121900048 -0.00499234954
  vertex -0.0466763116 -0.0151468404 -0.00498293433
  vertex -0.0468695275 -0.0151468404 -0.00499234954
  endloop
 endfacet

 facet normal 0.0289162006 -0.12787658 -0.991368473
  outer loop
  vertex -0.0337934643 -0.0121900048 -0.00499234954
  vertex -0.0468695275 -0.0151468404 -0.00499234954
  vertex -0.04706458 -0.0151468404 -0.00499803899
  endloop
 endfacet

 facet normal 0.0288130604 -0.127413556 -0.991431117
  outer loop
  vertex -0.0337934643 -0.0121900048 -0.00499234954
  vertex -0.04706458 -0.0151468404 -0.00499803899
  vertex -0.0338026658 -0.0121478159 -0.00499803899
  endloop
 endfacet

 facet normal 0.98558414 0.116519772 -0.122666761
  outer loop
  vertex -0.0337345786 -0.0124504101 -0.00485346699
  vertex -0.0337419398 -0.0124191316 -0.00488289166
  vertex -0.033749301 -0.0123849446 -0.00490956847
  endloop
 endfacet

 facet normal 0.164134279 -0.725739598 -0.668103278
  outer loop
  vertex -0.0337345786 -0.0124504101 -0.00485346699
  vertex -0.0337290615 -0.0124787772 -0.00482129632
  vertex -0.0455262214 -0.0151468404 -0.00482129632
  endloop
 endfacet

 facet normal 0.16351521 -0.723068655 -0.671144187
  outer loop
  vertex -0.0337345786 -0.0124504101 -0.00485346699
  vertex -0.0455262214 -0.0151468404 -0.00482129632
  vertex -0.0455519818 -0.0151468404 -0.0048275725
  endloop
 endfacet

 facet normal 0.162653059 -0.719330549 -0.675357342
  outer loop
  vertex -0.0337345786 -0.0124504101 -0.00485346699
  vertex -0.0455519818 -0.0151468404 -0.0048275725
  vertex -0.045601666 -0.0151468404 -0.0048395386
  endloop
 endfacet

 facet normal 0.161300749 -0.713413 -0.681926668
  outer loop
  vertex -0.0337345786 -0.0124504101 -0.00485346699
  vertex -0.045601666 -0.0151468404 -0.0048395386
  vertex -0.0456605516 -0.0151468404 -0.00485346699
  endloop
 endfacet

 facet normal 0.15327251 -0.677905083 -0.718993902
  outer loop
  vertex -0.0337345786 -0.0124504101 -0.00485346699
  vertex -0.0456605516 -0.0151468404 -0.00485346699
  vertex -0.0456881523 -0.0151468404 -0.00485935109
  endloop
 endfacet

 facet normal 0.148956031 -0.658729374 -0.737487435
  outer loop
  vertex -0.0337345786 -0.0124504101 -0.00485346699
  vertex -0.0456881523 -0.0151468404 -0.00485935109
  vertex -0.0337419398 -0.0124191316 -0.00488289166
  endloop
 endfacet

 facet normal 0.133785784 -0.591597497 -0.795055807
  outer loop
  vertex -0.033749301 -0.0123849446 -0.00490956847
  vertex -0.0337419398 -0.0124191316 -0.00488289166
  vertex -0.0459623337 -0.0151468404 -0.00490956847
  endloop
 endfacet

 facet normal 0.119492829 -0.528394341 -0.840547979
  outer loop
  vertex -0.033749301 -0.0123849446 -0.00490956847
  vertex -0.0459623337 -0.0151468404 -0.00490956847
  vertex -0.0459954552 -0.0151468404 -0.00491427723
  endloop
 endfacet

 facet normal 0.191931665 -0.848567903 -0.493046492
  outer loop
  vertex -0.0337180197 -0.0125275133 -0.00474989321
  vertex -0.0445527844 -0.0151468404 -0.00445957156
  vertex -0.0447165594 -0.0151468404 -0.00452332478
  endloop
 endfacet

 facet normal 0.191829532 -0.848197579 -0.493723124
  outer loop
  vertex -0.0337180197 -0.0125275133 -0.00474989321
  vertex -0.0447165594 -0.0151468404 -0.00452332478
  vertex -0.0449962579 -0.0151468404 -0.00463199895
  endloop
 endfacet

 facet normal 0.191797331 -0.848069429 -0.493955433
  outer loop
  vertex -0.0337180197 -0.0125275133 -0.00474989321
  vertex -0.0449962579 -0.0151468404 -0.00463199895
  vertex -0.0452998839 -0.0151468404 -0.00474989321
  endloop
 endfacet

 facet normal 0.148105025 -0.655032158 -0.740943849
  outer loop
  vertex -0.0337419398 -0.0124191316 -0.00488289166
  vertex -0.0456881523 -0.0151468404 -0.00485935109
  vertex -0.0458059236 -0.0151468404 -0.00488289166
  endloop
 endfacet

 facet normal 0.134916872 -0.596704125 -0.791038394
  outer loop
  vertex -0.0337419398 -0.0124191316 -0.00488289166
  vertex -0.0458059236 -0.0151468404 -0.00488289166
  vertex -0.0459623337 -0.0151468404 -0.00490956847
  endloop
 endfacet

endsolid AssimpScene
