solid AssimpScene
 facet normal -1 0 0
  outer loop
  vertex -0.1603643 -0.0044760243 -0.00514205499
  vertex -0.1603643 -0.0044760243 -0.00306620868
  vertex -0.1603643 0.0044791582 -0.00306435395
  endloop
 endfacet

 facet normal -1 0 0
  outer loop
  vertex -0.1603643 -0.0044760243 -0.00514205499
  vertex -0.1603643 0.0044791582 -0.00306435395
  vertex -0.1603643 0.0044791582 -0.00514050899
  endloop
 endfacet

 facet normal -1 0 0
  outer loop
  vertex -0.1603643 -0.0044760243 -0.00514205499
  vertex -0.1603643 0.0044791582 -0.00514050899
  vertex -0.1603643 0.00410310365 -0.005296004
  endloop
 endfacet

 facet normal -1 0 0
  outer loop
  vertex -0.1603643 -0.0044760243 -0.00514205499
  vertex -0.1603643 0.00410310365 -0.005296004
  vertex -0.1603643 0.00310467486 -0.00561070489
  endloop
 endfacet

 facet normal -1 0 0
  outer loop
  vertex -0.1603643 -0.0044760243 -0.00514205499
  vertex -0.1603643 0.00310467486 -0.00561070489
  vertex -0.1603643 0.00208345405 -0.00583730126
  endloop
 endfacet

 facet normal -1 0 0
  outer loop
  vertex -0.1603643 -0.0044760243 -0.00514205499
  vertex -0.1603643 0.00208345405 -0.00583730126
  vertex -0.1603643 0.00104557851 -0.00597393885
  endloop
 endfacet

 facet normal -1 0 0
  outer loop
  vertex -0.1603643 -0.0044760243 -0.00514205499
  vertex -0.1603643 0.00104557851 -0.00597393885
  vertex -0.1603643 -1.86311084e-07 -0.0060200002
  endloop
 endfacet

 facet normal -1 0 0
  outer loop
  vertex -0.1603643 -0.0044760243 -0.00514205499
  vertex -0.1603643 -1.86311084e-07 -0.0060200002
  vertex -0.1603643 -0.00104595104 -0.00597393885
  endloop
 endfacet

 facet normal -1 0 0
  outer loop
  vertex -0.1603643 -0.0044760243 -0.00514205499
  vertex -0.1603643 -0.00104595104 -0.00597393885
  vertex -0.1603643 -0.00208382658 -0.00583730126
  endloop
 endfacet

 facet normal -1 0 0
  outer loop
  vertex -0.1603643 -0.0044760243 -0.00514205499
  vertex -0.1603643 -0.00208382658 -0.00583730126
  vertex -0.1603643 -0.00310504739 -0.00561070489
  endloop
 endfacet

 facet normal -1 0 0
  outer loop
  vertex -0.1603643 -0.0044760243 -0.00514205499
  vertex -0.1603643 -0.00310504739 -0.00561070489
  vertex -0.1603643 -0.00410347618 -0.005296004
  endloop
 endfacet

 facet normal 0 -0.381909966 -0.924199522
  outer loop
  vertex -0.1603643 -0.0044760243 -0.00514205499
  vertex -0.1603643 -0.00410347618 -0.005296004
  vertex -0.15536429 -0.00410347618 -0.005296004
  endloop
 endfacet

 facet normal 0 -0.381909966 -0.924199522
  outer loop
  vertex -0.1603643 -0.0044760243 -0.00514205499
  vertex -0.15536429 -0.00410347618 -0.005296004
  vertex -0.15536429 -0.0044760243 -0.00514205499
  endloop
 endfacet

 facet normal 0 -1 0
  outer loop
  vertex -0.1603643 -0.0044760243 -0.00514205499
  vertex -0.15536429 -0.0044760243 -0.00514205499
  vertex -0.15536429 -0.0044760243 -0.00286186975
  endloop
 endfacet

 facet normal 0 -1 0
  outer loop
  vertex -0.1603643 -0.0044760243 -0.00514205499
  vertex -0.15536429 -0.0044760243 -0.00286186975
  vertex -0.159363911 -0.0044760243 -0.00286186975
  endloop
 endfacet

 facet normal 0 -1 0
  outer loop
  vertex -0.1603643 -0.0044760243 -0.00514205499
  vertex -0.159363911 -0.0044760243 -0.00286186975
  vertex -0.1603643 -0.0044760243 -0.00306620868
  endloop
 endfacet

 facet normal -0.200126514 -0.000202940835 0.979770124
  outer loop
  vertex -0.1603643 -0.0044760243 -0.00306620868
  vertex -0.159363911 -0.0044760243 -0.00286186975
  vertex -0.1603643 0.0044791582 -0.00306435395
  endloop
 endfacet

 facet normal 0 -0.300616443 -0.953745127
  outer loop
  vertex -0.1603643 -0.00410347618 -0.005296004
  vertex -0.1603643 -0.00310504739 -0.00561070489
  vertex -0.15536429 -0.00310504739 -0.00561070489
  endloop
 endfacet

 facet normal 0 -0.300616443 -0.953745127
  outer loop
  vertex -0.1603643 -0.00410347618 -0.005296004
  vertex -0.15536429 -0.00310504739 -0.00561070489
  vertex -0.15536429 -0.00410347618 -0.005296004
  endloop
 endfacet

 facet normal 1 0 0
  outer loop
  vertex -0.15536429 -0.0044760243 -0.00514205499
  vertex -0.15536429 -0.00410347618 -0.005296004
  vertex -0.15536429 -0.00310504739 -0.00561070489
  endloop
 endfacet

 facet normal 1 0 0
  outer loop
  vertex -0.15536429 -0.0044760243 -0.00514205499
  vertex -0.15536429 -0.00310504739 -0.00561070489
  vertex -0.15536429 -0.00208382658 -0.00583730126
  endloop
 endfacet

 facet normal 1 0 0
  outer loop
  vertex -0.15536429 -0.0044760243 -0.00514205499
  vertex -0.15536429 -0.00208382658 -0.00583730126
  vertex -0.15536429 -0.00104595104 -0.00597393885
  endloop
 endfacet

 facet normal 1 0 0
  outer loop
  vertex -0.15536429 -0.0044760243 -0.00514205499
  vertex -0.15536429 -0.00104595104 -0.00597393885
  vertex -0.15536429 -1.86311084e-07 -0.0060200002
  endloop
 endfacet

 facet normal 1 0 0
  outer loop
  vertex -0.15536429 -0.0044760243 -0.00514205499
  vertex -0.15536429 -1.86311084e-07 -0.0060200002
  vertex -0.15536429 0.00104557851 -0.00597393885
  endloop
 endfacet

 facet normal 1 0 0
  outer loop
  vertex -0.15536429 -0.0044760243 -0.00514205499
  vertex -0.15536429 0.00104557851 -0.00597393885
  vertex -0.15536429 0.00208345405 -0.00583730126
  endloop
 endfacet

 facet normal 1 0 0
  outer loop
  vertex -0.15536429 -0.0044760243 -0.00514205499
  vertex -0.15536429 0.00208345405 -0.00583730126
  vertex -0.15536429 0.00310467486 -0.00561070489
  endloop
 endfacet

 facet normal 1 0 0
  outer loop
  vertex -0.15536429 -0.0044760243 -0.00514205499
  vertex -0.15536429 0.00310467486 -0.00561070489
  vertex -0.15536429 0.00410310365 -0.005296004
  endloop
 endfacet

 facet normal 1 0 0
  outer loop
  vertex -0.15536429 -0.0044760243 -0.00514205499
  vertex -0.15536429 0.00410310365 -0.005296004
  vertex -0.15536429 0.0044791582 -0.00514050899
  endloop
 endfacet

 facet normal 1 0 0
  outer loop
  vertex -0.15536429 -0.0044760243 -0.00514205499
  vertex -0.15536429 0.0044791582 -0.00514050899
  vertex -0.15536429 0.0044791582 -0.00306064403
  endloop
 endfacet

 facet normal 1 0 0
  outer loop
  vertex -0.15536429 -0.0044760243 -0.00514205499
  vertex -0.15536429 0.0044791582 -0.00306064403
  vertex -0.15536429 1.56685701e-06 -0.00286186975
  endloop
 endfacet

 facet normal 1 0 0
  outer loop
  vertex -0.15536429 -0.0044760243 -0.00514205499
  vertex -0.15536429 1.56685701e-06 -0.00286186975
  vertex -0.15536429 -0.0044760243 -0.00286186975
  endloop
 endfacet

 facet normal 0 0 1
  outer loop
  vertex -0.159363911 -0.0044760243 -0.00286186975
  vertex -0.15536429 -0.0044760243 -0.00286186975
  vertex -0.15536429 1.56685701e-06 -0.00286186975
  endloop
 endfacet

 facet normal 0 0 1
  outer loop
  vertex -0.159363911 -0.0044760243 -0.00286186975
  vertex -0.15536429 1.56685701e-06 -0.00286186975
  vertex -0.159363911 1.56685701e-06 -0.00286186975
  endloop
 endfacet

 facet normal -0.198381647 0 0.980124891
  outer loop
  vertex -0.159363911 -0.0044760243 -0.00286186975
  vertex -0.159363911 1.56685701e-06 -0.00286186975
  vertex -0.1603643 0.0044791582 -0.00306435395
  endloop
 endfacet

 facet normal -0.00370465871 0.0443491526 0.999009252
  outer loop
  vertex -0.1603643 0.0044791582 -0.00306435395
  vertex -0.159363911 1.56685701e-06 -0.00286186975
  vertex -0.159363911 0.0044791582 -0.00306064403
  endloop
 endfacet

 facet normal 0 1 0
  outer loop
  vertex -0.1603643 0.0044791582 -0.00306435395
  vertex -0.159363911 0.0044791582 -0.00306064403
  vertex -0.15536429 0.0044791582 -0.00306064403
  endloop
 endfacet

 facet normal 0 1 0
  outer loop
  vertex -0.1603643 0.0044791582 -0.00306435395
  vertex -0.15536429 0.0044791582 -0.00306064403
  vertex -0.15536429 0.0044791582 -0.00514050899
  endloop
 endfacet

 facet normal 0 1 0
  outer loop
  vertex -0.1603643 0.0044791582 -0.00306435395
  vertex -0.15536429 0.0044791582 -0.00514050899
  vertex -0.1603643 0.0044791582 -0.00514050899
  endloop
 endfacet

 facet normal 0 -0.216619492 -0.976256132
  outer loop
  vertex -0.1603643 -0.00310504739 -0.00561070489
  vertex -0.1603643 -0.00208382658 -0.00583730126
  vertex -0.15536429 -0.00208382658 -0.00583730126
  endloop
 endfacet

 facet normal 0 -0.216619492 -0.976256132
  outer loop
  vertex -0.1603643 -0.00310504739 -0.00561070489
  vertex -0.15536429 -0.00208382658 -0.00583730126
  vertex -0.15536429 -0.00310504739 -0.00561070489
  endloop
 endfacet

 facet normal 0 0.0443494543 0.999016047
  outer loop
  vertex -0.159363911 1.56685701e-06 -0.00286186975
  vertex -0.15536429 1.56685701e-06 -0.00286186975
  vertex -0.15536429 0.0044791582 -0.00306064403
  endloop
 endfacet

 facet normal 0 0.0443494543 0.999016047
  outer loop
  vertex -0.159363911 1.56685701e-06 -0.00286186975
  vertex -0.15536429 0.0044791582 -0.00306064403
  vertex -0.159363911 0.0044791582 -0.00306064403
  endloop
 endfacet

 facet normal 0 0.382113814 -0.9241153
  outer loop
  vertex -0.1603643 0.0044791582 -0.00514050899
  vertex -0.15536429 0.0044791582 -0.00514050899
  vertex -0.15536429 0.00410310365 -0.005296004
  endloop
 endfacet

 facet normal 0 0.382113814 -0.9241153
  outer loop
  vertex -0.1603643 0.0044791582 -0.00514050899
  vertex -0.15536429 0.00410310365 -0.005296004
  vertex -0.1603643 0.00410310365 -0.005296004
  endloop
 endfacet

 facet normal 0 -0.130525053 -0.991445124
  outer loop
  vertex -0.1603643 -0.00208382658 -0.00583730126
  vertex -0.1603643 -0.00104595104 -0.00597393885
  vertex -0.15536429 -0.00104595104 -0.00597393885
  endloop
 endfacet

 facet normal 0 -0.130525053 -0.991445124
  outer loop
  vertex -0.1603643 -0.00208382658 -0.00583730126
  vertex -0.15536429 -0.00104595104 -0.00597393885
  vertex -0.15536429 -0.00208382658 -0.00583730126
  endloop
 endfacet

 facet normal 0 0.300616443 -0.953745127
  outer loop
  vertex -0.1603643 0.00410310365 -0.005296004
  vertex -0.15536429 0.00410310365 -0.005296004
  vertex -0.15536429 0.00310467486 -0.00561070489
  endloop
 endfacet

 facet normal 0 0.300616443 -0.953745127
  outer loop
  vertex -0.1603643 0.00410310365 -0.005296004
  vertex -0.15536429 0.00310467486 -0.00561070489
  vertex -0.1603643 0.00310467486 -0.00561070489
  endloop
 endfacet

 facet normal 0 -0.0440028831 -0.999031425
  outer loop
  vertex -0.1603643 -0.00104595104 -0.00597393885
  vertex -0.1603643 -1.86311084e-07 -0.0060200002
  vertex -0.15536429 -1.86311084e-07 -0.0060200002
  endloop
 endfacet

 facet normal 0 -0.0440028831 -0.999031425
  outer loop
  vertex -0.1603643 -0.00104595104 -0.00597393885
  vertex -0.15536429 -1.86311084e-07 -0.0060200002
  vertex -0.15536429 -0.00104595104 -0.00597393885
  endloop
 endfacet

 facet normal 0 0.216619492 -0.976256132
  outer loop
  vertex -0.1603643 0.00310467486 -0.00561070489
  vertex -0.15536429 0.00310467486 -0.00561070489
  vertex -0.15536429 0.00208345405 -0.00583730126
  endloop
 endfacet

 facet normal 0 0.216619492 -0.976256132
  outer loop
  vertex -0.1603643 0.00310467486 -0.00561070489
  vertex -0.15536429 0.00208345405 -0.00583730126
  vertex -0.1603643 0.00208345405 -0.00583730126
  endloop
 endfacet

 facet normal 0 0.0440028831 -0.999031425
  outer loop
  vertex -0.1603643 -1.86311084e-07 -0.0060200002
  vertex -0.1603643 0.00104557851 -0.00597393885
  vertex -0.15536429 0.00104557851 -0.00597393885
  endloop
 endfacet

 facet normal 0 0.0440028831 -0.999031425
  outer loop
  vertex -0.1603643 -1.86311084e-07 -0.0060200002
  vertex -0.15536429 0.00104557851 -0.00597393885
  vertex -0.15536429 -1.86311084e-07 -0.0060200002
  endloop
 endfacet

 facet normal 0 0.130525053 -0.991445124
  outer loop
  vertex -0.1603643 0.00208345405 -0.00583730126
  vertex -0.15536429 0.00208345405 -0.00583730126
  vertex -0.15536429 0.00104557851 -0.00597393885
  endloop
 endfacet

 facet normal 0 0.130525053 -0.991445124
  outer loop
  vertex -0.1603643 0.00208345405 -0.00583730126
  vertex -0.15536429 0.00104557851 -0.00597393885
  vertex -0.1603643 0.00104557851 -0.00597393885
  endloop
 endfacet

endsolid AssimpScene
