solid AssimpScene
 facet normal 0.000144603167 1 0
  outer loop
  vertex -0.138677642 0.0314178914 0.0189995803
  vertex -0.116990961 0.0314147547 0.0189995803
  vertex -0.116990961 0.0314147547 0.0147252735
  endloop
 endfacet

 facet normal 0.000144603167 1 0
  outer loop
  vertex -0.138677642 0.0314178914 0.0189995803
  vertex -0.116990961 0.0314147547 0.0147252735
  vertex -0.138677642 0.0314178914 0.0147252735
  endloop
 endfacet

 facet normal 0 1 0
  outer loop
  vertex -0.138677642 0.0314178914 0.0189995803
  vertex -0.138677642 0.0314178914 0.0147252735
  vertex -0.155360013 0.0314178914 0.0140744373
  endloop
 endfacet

 facet normal 0 1 0
  outer loop
  vertex -0.138677642 0.0314178914 0.0189995803
  vertex -0.155360013 0.0314178914 0.0140744373
  vertex -0.159360066 0.0314178914 0.0140744373
  endloop
 endfacet

 facet normal 0 1 0
  outer loop
  vertex -0.138677642 0.0314178914 0.0189995803
  vertex -0.159360066 0.0314178914 0.0140744373
  vertex -0.159360066 0.0314178914 0.0189995803
  endloop
 endfacet

 facet normal 0 0 1
  outer loop
  vertex -0.138677642 0.0314178914 0.0189995803
  vertex -0.159360066 0.0314178914 0.0189995803
  vertex -0.159360066 -0.00061313418 0.0189995803
  endloop
 endfacet

 facet normal 0 0 1
  outer loop
  vertex -0.138677642 0.0314178914 0.0189995803
  vertex -0.159360066 -0.00061313418 0.0189995803
  vertex -0.116079934 -0.00061313418 0.0189995803
  endloop
 endfacet

 facet normal 0 0 1
  outer loop
  vertex -0.138677642 0.0314178914 0.0189995803
  vertex -0.116079934 -0.00061313418 0.0189995803
  vertex -0.116079934 0.0237769745 0.0189995803
  endloop
 endfacet

 facet normal 0 0 1
  outer loop
  vertex -0.138677642 0.0314178914 0.0189995803
  vertex -0.116079934 0.0237769745 0.0189995803
  vertex -0.116990961 0.0314147547 0.0189995803
  endloop
 endfacet

 facet normal 0.992961287 0.118439607 0
  outer loop
  vertex -0.116990961 0.0314147547 0.0189995803
  vertex -0.116079934 0.0237769745 0.0189995803
  vertex -0.116079934 0.0237769745 0.0150005529
  endloop
 endfacet

 facet normal 0.992961287 0.118439607 0
  outer loop
  vertex -0.116990961 0.0314147547 0.0189995803
  vertex -0.116079934 0.0237769745 0.0150005529
  vertex -0.116990961 0.0314147547 0.0147252735
  endloop
 endfacet

 facet normal 0.000144602163 0.999993086 -0.00370647479
  outer loop
  vertex -0.138677642 0.0314178914 0.0147252735
  vertex -0.116990961 0.0314147547 0.0147252735
  vertex -0.155360013 0.0314178914 0.0140744373
  endloop
 endfacet

 facet normal -1 0 0
  outer loop
  vertex -0.159360066 0.0314178914 0.0189995803
  vertex -0.159360066 0.0314178914 0.0140744373
  vertex -0.159360066 0.0200991761 0.0140744373
  endloop
 endfacet

 facet normal -1 0 0
  outer loop
  vertex -0.159360066 0.0314178914 0.0189995803
  vertex -0.159360066 0.0200991761 0.0140744373
  vertex -0.159360066 0.00899052992 0.0140802227
  endloop
 endfacet

 facet normal -1 0 0
  outer loop
  vertex -0.159360066 0.0314178914 0.0189995803
  vertex -0.159360066 0.00899052992 0.0140802227
  vertex -0.159360066 -0.00061313418 0.0180536993
  endloop
 endfacet

 facet normal -1 0 0
  outer loop
  vertex -0.159360066 0.0314178914 0.0189995803
  vertex -0.159360066 -0.00061313418 0.0180536993
  vertex -0.159360066 -0.00061313418 0.0189995803
  endloop
 endfacet

 facet normal 1 0 0
  outer loop
  vertex -0.116079934 0.0237769745 0.0189995803
  vertex -0.116079934 -0.00061313418 0.0189995803
  vertex -0.116079934 -0.00061313418 0.0150005529
  endloop
 endfacet

 facet normal 1 0 0
  outer loop
  vertex -0.116079934 0.0237769745 0.0189995803
  vertex -0.116079934 -0.00061313418 0.0150005529
  vertex -0.116079934 0.0237769745 0.0150005529
  endloop
 endfacet

 facet normal 0.0169600956 0 -0.999856174
  outer loop
  vertex -0.116990961 0.0314147547 0.0147252735
  vertex -0.116990961 0.0267900731 0.0147252735
  vertex -0.155360013 0.0200991761 0.0140744373
  endloop
 endfacet

 facet normal 0.0169600956 0 -0.999856174
  outer loop
  vertex -0.116990961 0.0314147547 0.0147252735
  vertex -0.155360013 0.0200991761 0.0140744373
  vertex -0.155360013 0.0314178914 0.0140744373
  endloop
 endfacet

 facet normal 0.289247453 0 -0.957254469
  outer loop
  vertex -0.116990961 0.0314147547 0.0147252735
  vertex -0.116079934 0.0237769745 0.0150005529
  vertex -0.116079934 -0.00061313418 0.0150005529
  endloop
 endfacet

 facet normal 0.289247453 0 -0.957254469
  outer loop
  vertex -0.116990961 0.0314147547 0.0147252735
  vertex -0.116079934 -0.00061313418 0.0150005529
  vertex -0.116990961 0.0267900731 0.0147252735
  endloop
 endfacet

 facet normal 0 0 -1
  outer loop
  vertex -0.155360013 0.0314178914 0.0140744373
  vertex -0.155360013 0.0200991761 0.0140744373
  vertex -0.159360066 0.0200991761 0.0140744373
  endloop
 endfacet

 facet normal 0 0 -1
  outer loop
  vertex -0.155360013 0.0314178914 0.0140744373
  vertex -0.159360066 0.0200991761 0.0140744373
  vertex -0.159360066 0.0314178914 0.0140744373
  endloop
 endfacet

 facet normal 0 -1 0
  outer loop
  vertex -0.159360066 -0.00061313418 0.0189995803
  vertex -0.159360066 -0.00061313418 0.0180536993
  vertex -0.155360013 -0.00061313418 0.0147252735
  endloop
 endfacet

 facet normal 0 -1 0
  outer loop
  vertex -0.159360066 -0.00061313418 0.0189995803
  vertex -0.155360013 -0.00061313418 0.0147252735
  vertex -0.14996165 -0.00061313418 0.0147252735
  endloop
 endfacet

 facet normal 0 -1 0
  outer loop
  vertex -0.159360066 -0.00061313418 0.0189995803
  vertex -0.14996165 -0.00061313418 0.0147252735
  vertex -0.116079934 -0.00061313418 0.0150005529
  endloop
 endfacet

 facet normal 0 -1 0
  outer loop
  vertex -0.159360066 -0.00061313418 0.0189995803
  vertex -0.116079934 -0.00061313418 0.0150005529
  vertex -0.116079934 -0.00061313418 0.0189995803
  endloop
 endfacet

 facet normal 0.0233480129 -0.00926614273 -0.999684453
  outer loop
  vertex -0.116990961 0.0267900731 0.0147252735
  vertex -0.116079934 -0.00061313418 0.0150005529
  vertex -0.124685958 0.00740089314 0.0147252735
  endloop
 endfacet

 facet normal 0.020600345 -0.00817567389 -0.999754369
  outer loop
  vertex -0.116990961 0.0267900731 0.0147252735
  vertex -0.124685958 0.00740089314 0.0147252735
  vertex -0.155360013 0.00899052992 0.0140802227
  endloop
 endfacet

 facet normal 0.0170508698 -0.000520724745 -0.999854505
  outer loop
  vertex -0.116990961 0.0267900731 0.0147252735
  vertex -0.155360013 0.00899052992 0.0140802227
  vertex -0.155360013 0.0200991761 0.0140744373
  endloop
 endfacet

 facet normal 0 -0.000520800473 -0.999999881
  outer loop
  vertex -0.155360013 0.0200991761 0.0140744373
  vertex -0.155360013 0.00899052992 0.0140802227
  vertex -0.159360066 0.00899052992 0.0140802227
  endloop
 endfacet

 facet normal 0 -0.000520800473 -0.999999881
  outer loop
  vertex -0.155360013 0.0200991761 0.0140744373
  vertex -0.159360066 0.00899052992 0.0140802227
  vertex -0.159360066 0.0200991761 0.0140744373
  endloop
 endfacet

 facet normal -0.609538198 -0.303082407 -0.73253274
  outer loop
  vertex -0.159360066 -0.00061313418 0.0180536993
  vertex -0.159360066 0.00899052992 0.0140802227
  vertex -0.155360013 -0.00061313418 0.0147252735
  endloop
 endfacet

 facet normal 0.00810858142 -0.0624757931 -0.998013496
  outer loop
  vertex -0.116079934 -0.00061313418 0.0150005529
  vertex -0.14996165 -0.00061313418 0.0147252735
  vertex -0.155360013 0.00899052992 0.0140802227
  endloop
 endfacet

 facet normal 0.0203776415 -0.0124569796 -0.999714792
  outer loop
  vertex -0.116079934 -0.00061313418 0.0150005529
  vertex -0.155360013 0.00899052992 0.0140802227
  vertex -0.124685958 0.00740089314 0.0147252735
  endloop
 endfacet

 facet normal 0 -0.0670161769 -0.997751892
  outer loop
  vertex -0.155360013 0.00899052992 0.0140802227
  vertex -0.14996165 -0.00061313418 0.0147252735
  vertex -0.155360013 -0.00061313418 0.0147252735
  endloop
 endfacet

 facet normal 0 -0.0670161769 -0.997751892
  outer loop
  vertex -0.155360013 0.00899052992 0.0140802227
  vertex -0.155360013 -0.00061313418 0.0147252735
  vertex -0.159360066 0.00899052992 0.0140802227
  endloop
 endfacet

endsolid AssimpScene
