solid AssimpScene
 facet normal -0.99999994 0 -0.000293923367
  outer loop
  vertex -0.159362853 -0.0267810524 -0.00703970809
  vertex -0.159364298 -0.0267810524 -0.00211526081
  vertex -0.159364298 -0.0201008618 -0.00211526081
  endloop
 endfacet

 facet normal -0.99999994 0 -0.000293923367
  outer loop
  vertex -0.159362853 -0.0267810524 -0.00703970809
  vertex -0.159364298 -0.0201008618 -0.00211526081
  vertex -0.159362853 -0.0221851822 -0.00703970809
  endloop
 endfacet

 facet normal 0 0 -1
  outer loop
  vertex -0.159362853 -0.0267810524 -0.00703970809
  vertex -0.159362853 -0.0221851822 -0.00703970809
  vertex -0.153107807 -0.0221851822 -0.00703970809
  endloop
 endfacet

 facet normal 0 0 -1
  outer loop
  vertex -0.159362853 -0.0267810524 -0.00703970809
  vertex -0.153107807 -0.0221851822 -0.00703970809
  vertex -0.144586876 -0.0222845878 -0.00703970809
  endloop
 endfacet

 facet normal 0 0 -1
  outer loop
  vertex -0.159362853 -0.0267810524 -0.00703970809
  vertex -0.144586876 -0.0222845878 -0.00703970809
  vertex -0.144586876 -0.0267810524 -0.00703970809
  endloop
 endfacet

 facet normal 0 -1 0
  outer loop
  vertex -0.159362853 -0.0267810524 -0.00703970809
  vertex -0.144586876 -0.0267810524 -0.00703970809
  vertex -0.144586876 -0.0267810524 0.00598000037
  endloop
 endfacet

 facet normal 0 -1 0
  outer loop
  vertex -0.159362853 -0.0267810524 -0.00703970809
  vertex -0.144586876 -0.0267810524 0.00598000037
  vertex -0.159364298 -0.0267810524 0.00598000037
  endloop
 endfacet

 facet normal 0 -1 0
  outer loop
  vertex -0.159362853 -0.0267810524 -0.00703970809
  vertex -0.159364298 -0.0267810524 0.00598000037
  vertex -0.159364298 -0.0267810524 -0.00211526081
  endloop
 endfacet

 facet normal -1 0 0
  outer loop
  vertex -0.159364298 -0.0267810524 -0.00211526081
  vertex -0.159364298 -0.0267810524 0.00598000037
  vertex -0.159364298 -0.0201008618 0.00598000037
  endloop
 endfacet

 facet normal -1 0 0
  outer loop
  vertex -0.159364298 -0.0267810524 -0.00211526081
  vertex -0.159364298 -0.0201008618 0.00598000037
  vertex -0.159364298 -0.0201008618 -0.00211526081
  endloop
 endfacet

 facet normal -0.688223958 0.668043792 -0.282958329
  outer loop
  vertex -0.159362853 -0.0221851822 -0.00703970809
  vertex -0.159364298 -0.0201008618 -0.00211526081
  vertex -0.15536356 -0.0159798078 -0.00211653532
  endloop
 endfacet

 facet normal 0 0.621524036 -0.783395171
  outer loop
  vertex -0.159362853 -0.0221851822 -0.00703970809
  vertex -0.15536356 -0.0159798078 -0.00211653532
  vertex -0.15076524 -0.0159798078 -0.00211653532
  endloop
 endfacet

 facet normal 0 0.621524036 -0.783395171
  outer loop
  vertex -0.159362853 -0.0221851822 -0.00703970809
  vertex -0.15076524 -0.0159798078 -0.00211653532
  vertex -0.153107807 -0.0221851822 -0.00703970809
  endloop
 endfacet

 facet normal 0.999999881 0 -0.000587998773
  outer loop
  vertex -0.144586876 -0.0267810524 -0.00703970809
  vertex -0.144586876 -0.0222845878 -0.00703970809
  vertex -0.144583985 -0.015982978 -0.00211653532
  endloop
 endfacet

 facet normal 0.999999881 0 -0.000587998773
  outer loop
  vertex -0.144586876 -0.0267810524 -0.00703970809
  vertex -0.144583985 -0.015982978 -0.00211653532
  vertex -0.144583985 -0.0200902857 -0.00211653532
  endloop
 endfacet

 facet normal 0.99999994 -0.000432658999 0
  outer loop
  vertex -0.144586876 -0.0267810524 -0.00703970809
  vertex -0.144583985 -0.0200902857 -0.00211653532
  vertex -0.144583985 -0.0200902857 0.00598000037
  endloop
 endfacet

 facet normal 0.99999994 -0.000432658999 0
  outer loop
  vertex -0.144586876 -0.0267810524 -0.00703970809
  vertex -0.144583985 -0.0200902857 0.00598000037
  vertex -0.144586876 -0.0267810524 0.00598000037
  endloop
 endfacet

 facet normal -0.717503011 0.696555555 0
  outer loop
  vertex -0.159364298 -0.0201008618 -0.00211526081
  vertex -0.159364298 -0.0201008618 0.00598000037
  vertex -0.15536356 -0.0159798078 0.00598000037
  endloop
 endfacet

 facet normal -0.717503011 0.696555555 0
  outer loop
  vertex -0.159364298 -0.0201008618 -0.00211526081
  vertex -0.15536356 -0.0159798078 0.00598000037
  vertex -0.15536356 -0.0159798078 -0.00211653532
  endloop
 endfacet

 facet normal 0 0 1
  outer loop
  vertex -0.159364298 -0.0267810524 0.00598000037
  vertex -0.144586876 -0.0267810524 0.00598000037
  vertex -0.144583985 -0.0200902857 0.00598000037
  endloop
 endfacet

 facet normal 0 0 1
  outer loop
  vertex -0.159364298 -0.0267810524 0.00598000037
  vertex -0.144583985 -0.0200902857 0.00598000037
  vertex -0.144583985 -0.015982978 0.00598000037
  endloop
 endfacet

 facet normal 0 0 1
  outer loop
  vertex -0.159364298 -0.0267810524 0.00598000037
  vertex -0.144583985 -0.015982978 0.00598000037
  vertex -0.15076524 -0.0159798078 0.00598000037
  endloop
 endfacet

 facet normal 0 0 1
  outer loop
  vertex -0.159364298 -0.0267810524 0.00598000037
  vertex -0.15076524 -0.0159798078 0.00598000037
  vertex -0.15536356 -0.0159798078 0.00598000037
  endloop
 endfacet

 facet normal 0 0 1
  outer loop
  vertex -0.159364298 -0.0267810524 0.00598000037
  vertex -0.15536356 -0.0159798078 0.00598000037
  vertex -0.159364298 -0.0201008618 0.00598000037
  endloop
 endfacet

 facet normal 0 1 0
  outer loop
  vertex -0.15536356 -0.0159798078 -0.00211653532
  vertex -0.15536356 -0.0159798078 0.00598000037
  vertex -0.15076524 -0.0159798078 0.00598000037
  endloop
 endfacet

 facet normal 0 1 0
  outer loop
  vertex -0.15536356 -0.0159798078 -0.00211653532
  vertex -0.15076524 -0.0159798078 0.00598000037
  vertex -0.15076524 -0.0159798078 -0.00211653532
  endloop
 endfacet

 facet normal 0.000318845356 0.621450186 -0.783453703
  outer loop
  vertex -0.153107807 -0.0221851822 -0.00703970809
  vertex -0.15076524 -0.0159798078 -0.00211653532
  vertex -0.144583985 -0.015982978 -0.00211653532
  endloop
 endfacet

 facet normal 0.007181908 0.615629315 -0.788003147
  outer loop
  vertex -0.153107807 -0.0221851822 -0.00703970809
  vertex -0.144583985 -0.015982978 -0.00211653532
  vertex -0.144586876 -0.0222845878 -0.00703970809
  endloop
 endfacet

 facet normal 1 0 0
  outer loop
  vertex -0.144583985 -0.0200902857 -0.00211653532
  vertex -0.144583985 -0.015982978 -0.00211653532
  vertex -0.144583985 -0.015982978 0.00598000037
  endloop
 endfacet

 facet normal 1 0 0
  outer loop
  vertex -0.144583985 -0.0200902857 -0.00211653532
  vertex -0.144583985 -0.015982978 0.00598000037
  vertex -0.144583985 -0.0200902857 0.00598000037
  endloop
 endfacet

 facet normal 0.000513066654 0.99999994 0
  outer loop
  vertex -0.15076524 -0.0159798078 -0.00211653532
  vertex -0.15076524 -0.0159798078 0.00598000037
  vertex -0.144583985 -0.015982978 0.00598000037
  endloop
 endfacet

 facet normal 0.000513066654 0.99999994 0
  outer loop
  vertex -0.15076524 -0.0159798078 -0.00211653532
  vertex -0.144583985 -0.015982978 0.00598000037
  vertex -0.144583985 -0.015982978 -0.00211653532
  endloop
 endfacet

endsolid AssimpScene
