solid AssimpScene
 facet normal 0.259745002 0.0594201386 -0.963847399
  outer loop
  vertex -0.0548069105 -0.026257081 0.0170056652
  vertex -0.0520202778 -0.0384383686 0.0170056652
  vertex -0.0548397303 -0.026257081 0.0169968195
  endloop
 endfacet

 facet normal 0 1 0
  outer loop
  vertex -0.0548069105 -0.026257081 0.0170056652
  vertex -0.0548397303 -0.026257081 0.0169968195
  vertex -0.0558134131 -0.026257081 0.0167514198
  endloop
 endfacet

 facet normal 0 1 0
  outer loop
  vertex -0.0548069105 -0.026257081 0.0170056652
  vertex -0.0558134131 -0.026257081 0.0167514198
  vertex -0.0627682731 -0.026257081 0.0150002902
  endloop
 endfacet

 facet normal 0 1 0
  outer loop
  vertex -0.0548069105 -0.026257081 0.0170056652
  vertex -0.0627682731 -0.026257081 0.0150002902
  vertex -0.067986764 -0.026257081 0.0150002902
  endloop
 endfacet

 facet normal 0 1 0
  outer loop
  vertex -0.0548069105 -0.026257081 0.0170056652
  vertex -0.067986764 -0.026257081 0.0150002902
  vertex -0.067986764 -0.026257081 0.0169999041
  endloop
 endfacet

 facet normal 0 1 0
  outer loop
  vertex -0.0548069105 -0.026257081 0.0170056652
  vertex -0.067986764 -0.026257081 0.0169999041
  vertex -0.0630058348 -0.026257081 0.0170056652
  endloop
 endfacet

 facet normal 0 0 1
  outer loop
  vertex -0.0548069105 -0.026257081 0.0170056652
  vertex -0.0630058348 -0.026257081 0.0170056652
  vertex -0.061707072 -0.0319971666 0.0170056652
  endloop
 endfacet

 facet normal 0 0 1
  outer loop
  vertex -0.0548069105 -0.026257081 0.0170056652
  vertex -0.061707072 -0.0319971666 0.0170056652
  vertex -0.0602488928 -0.0384383686 0.0170056652
  endloop
 endfacet

 facet normal 0 0 1
  outer loop
  vertex -0.0548069105 -0.026257081 0.0170056652
  vertex -0.0602488928 -0.0384383686 0.0170056652
  vertex -0.0520202778 -0.0384383686 0.0170056652
  endloop
 endfacet

 facet normal 0.244010955 0.0557752363 -0.968167365
  outer loop
  vertex -0.0520202778 -0.0384383686 0.0170056652
  vertex -0.0558134131 -0.026257081 0.0167514198
  vertex -0.0548397303 -0.026257081 0.0169968195
  endloop
 endfacet

 facet normal 0 -1 0
  outer loop
  vertex -0.0520202778 -0.0384383686 0.0170056652
  vertex -0.0602488928 -0.0384383686 0.0170056652
  vertex -0.0679851994 -0.0384383686 0.0169996992
  endloop
 endfacet

 facet normal 0 -1 0
  outer loop
  vertex -0.0520202778 -0.0384383686 0.0170056652
  vertex -0.0679851994 -0.0384383686 0.0169996992
  vertex -0.0679851994 -0.0384383686 0.0150002902
  endloop
 endfacet

 facet normal 0 -1 0
  outer loop
  vertex -0.0520202778 -0.0384383686 0.0170056652
  vertex -0.0679851994 -0.0384383686 0.0150002902
  vertex -0.065859668 -0.0384383686 0.014904228
  endloop
 endfacet

 facet normal 0 -1 0
  outer loop
  vertex -0.0520202778 -0.0384383686 0.0170056652
  vertex -0.065859668 -0.0384383686 0.014904228
  vertex -0.0611788146 -0.0384383686 0.014904228
  endloop
 endfacet

 facet normal 0 -1 0
  outer loop
  vertex -0.0520202778 -0.0384383686 0.0170056652
  vertex -0.0611788146 -0.0384383686 0.014904228
  vertex -0.0600128993 -0.0384383686 0.0150002902
  endloop
 endfacet

 facet normal 0.242993444 0.0548696928 -0.968474805
  outer loop
  vertex -0.0520202778 -0.0384383686 0.0170056652
  vertex -0.0600128993 -0.0384383686 0.0150002902
  vertex -0.0613851137 -0.0319983587 0.0150208604
  endloop
 endfacet

 facet normal 0.243146211 0.0551077873 -0.968423069
  outer loop
  vertex -0.0520202778 -0.0384383686 0.0170056652
  vertex -0.0613851137 -0.0319983587 0.0150208604
  vertex -0.0627682731 -0.026257081 0.0150002902
  endloop
 endfacet

 facet normal 0.243785232 0.0557036698 -0.968228281
  outer loop
  vertex -0.0520202778 -0.0384383686 0.0170056652
  vertex -0.0627682731 -0.026257081 0.0150002902
  vertex -0.0558134131 -0.026257081 0.0167514198
  endloop
 endfacet

 facet normal -0.00115637307 0 0.999999285
  outer loop
  vertex -0.0630058348 -0.026257081 0.0170056652
  vertex -0.067986764 -0.026257081 0.0169999041
  vertex -0.067986764 -0.0319971666 0.0169999041
  endloop
 endfacet

 facet normal -0.00111928792 -3.21806147e-05 0.999999404
  outer loop
  vertex -0.0630058348 -0.026257081 0.0170056652
  vertex -0.067986764 -0.0319971666 0.0169999041
  vertex -0.0679851994 -0.0384383686 0.0169996992
  endloop
 endfacet

 facet normal -0.000771162682 -0.00017448455 0.999999702
  outer loop
  vertex -0.0630058348 -0.026257081 0.0170056652
  vertex -0.0679851994 -0.0384383686 0.0169996992
  vertex -0.061707072 -0.0319971666 0.0170056652
  endloop
 endfacet

 facet normal -0.000771084975 -0.000174560293 0.999999702
  outer loop
  vertex -0.0602488928 -0.0384383686 0.0170056652
  vertex -0.061707072 -0.0319971666 0.0170056652
  vertex -0.0679851994 -0.0384383686 0.0169996992
  endloop
 endfacet

 facet normal 0.0820996612 0.0185707267 -0.99645108
  outer loop
  vertex -0.0600128993 -0.0384383686 0.0150002902
  vertex -0.0611788146 -0.0384383686 0.014904228
  vertex -0.0627682731 -0.026257081 0.0150002902
  endloop
 endfacet

 facet normal 0.23619768 0.0534272902 -0.970235229
  outer loop
  vertex -0.0600128993 -0.0384383686 0.0150002902
  vertex -0.0627682731 -0.026257081 0.0150002902
  vertex -0.0613851137 -0.0319983587 0.0150208604
  endloop
 endfacet

 facet normal 0.000943819527 0.0080430489 -0.999967217
  outer loop
  vertex -0.0627682731 -0.026257081 0.0150002902
  vertex -0.0617852136 -0.0383155532 0.014904228
  vertex -0.0618055314 -0.038313169 0.014904228
  endloop
 endfacet

 facet normal 0.000872711651 0.00803737063 -0.999967277
  outer loop
  vertex -0.0627682731 -0.026257081 0.0150002902
  vertex -0.0618055314 -0.038313169 0.014904228
  vertex -0.0622228235 -0.0382678583 0.014904228
  endloop
 endfacet

 facet normal 0.000446041988 0.00801800005 -0.999967754
  outer loop
  vertex -0.0627682731 -0.026257081 0.0150002902
  vertex -0.0622228235 -0.0382678583 0.014904228
  vertex -0.0626729354 -0.0382428207 0.014904228
  endloop
 endfacet

 facet normal 0.00036001351 0.00801731367 -0.999967754
  outer loop
  vertex -0.0627682731 -0.026257081 0.0150002902
  vertex -0.0626729354 -0.0382428207 0.014904228
  vertex -0.0626995042 -0.0382416286 0.014904228
  endloop
 endfacet

 facet normal 0.000138992196 0.00801604707 -0.999967813
  outer loop
  vertex -0.0627682731 -0.026257081 0.0150002902
  vertex -0.0626995042 -0.0382416286 0.014904228
  vertex -0.0631808788 -0.0382332802 0.014904228
  endloop
 endfacet

 facet normal 0 0.00802083593 -0.999967813
  outer loop
  vertex -0.0627682731 -0.026257081 0.0150002902
  vertex -0.0631808788 -0.0382332802 0.014904228
  vertex -0.0631871298 -0.0382332802 0.014904228
  endloop
 endfacet

 facet normal 0 0.00802083593 -0.999967813
  outer loop
  vertex -0.0627682731 -0.026257081 0.0150002902
  vertex -0.0631871298 -0.0382332802 0.014904228
  vertex -0.067986764 -0.026257081 0.0150002902
  endloop
 endfacet

 facet normal 0.00203454285 0.00815124344 -0.999964714
  outer loop
  vertex -0.0627682731 -0.026257081 0.0150002902
  vertex -0.0611788146 -0.0384383686 0.014904228
  vertex -0.0614320002 -0.0383751728 0.014904228
  endloop
 endfacet

 facet normal 0.00136336754 0.00807724707 -0.999966502
  outer loop
  vertex -0.0627682731 -0.026257081 0.0150002902
  vertex -0.0614320002 -0.0383751728 0.014904228
  vertex -0.0617852136 -0.0383155532 0.014904228
  endloop
 endfacet

 facet normal -1 0 0
  outer loop
  vertex -0.067986764 -0.026257081 0.0169999041
  vertex -0.067986764 -0.026257081 0.0150002902
  vertex -0.067986764 -0.0319971666 0.0150002902
  endloop
 endfacet

 facet normal -1 0 0
  outer loop
  vertex -0.067986764 -0.026257081 0.0169999041
  vertex -0.067986764 -0.0319971666 0.0150002902
  vertex -0.067986764 -0.0319971666 0.0169999041
  endloop
 endfacet

 facet normal -0.99999994 -0.0002425852 0
  outer loop
  vertex -0.067986764 -0.0319971666 0.0169999041
  vertex -0.067986764 -0.0319971666 0.0150002902
  vertex -0.0679851994 -0.0384383686 0.0150002902
  endloop
 endfacet

 facet normal -0.99999994 -0.0002425852 0
  outer loop
  vertex -0.067986764 -0.0319971666 0.0169999041
  vertex -0.0679851994 -0.0384383686 0.0150002902
  vertex -0.0679851994 -0.0384383686 0.0169996992
  endloop
 endfacet

 facet normal 0 0 -1
  outer loop
  vertex -0.0611788146 -0.0384383686 0.014904228
  vertex -0.065859668 -0.0384383686 0.014904228
  vertex -0.0654955134 -0.0383894816 0.014904228
  endloop
 endfacet

 facet normal 0 0 -1
  outer loop
  vertex -0.0611788146 -0.0384383686 0.014904228
  vertex -0.0654955134 -0.0383894816 0.014904228
  vertex -0.0649594441 -0.0383310542 0.014904228
  endloop
 endfacet

 facet normal 0 0 -1
  outer loop
  vertex -0.0611788146 -0.0384383686 0.014904228
  vertex -0.0649594441 -0.0383310542 0.014904228
  vertex -0.0648719221 -0.0383227095 0.014904228
  endloop
 endfacet

 facet normal 0 0 -1
  outer loop
  vertex -0.0611788146 -0.0384383686 0.014904228
  vertex -0.0648719221 -0.0383227095 0.014904228
  vertex -0.0642920882 -0.0382750146 0.014904228
  endloop
 endfacet

 facet normal 0 0 -1
  outer loop
  vertex -0.0611788146 -0.0384383686 0.014904228
  vertex -0.0642920882 -0.0382750146 0.014904228
  vertex -0.0642748997 -0.0382738225 0.014904228
  endloop
 endfacet

 facet normal 0 0 -1
  outer loop
  vertex -0.0611788146 -0.0384383686 0.014904228
  vertex -0.0642748997 -0.0382738225 0.014904228
  vertex -0.0637263283 -0.0382452048 0.014904228
  endloop
 endfacet

 facet normal 0 0 -1
  outer loop
  vertex -0.0611788146 -0.0384383686 0.014904228
  vertex -0.0637263283 -0.0382452048 0.014904228
  vertex -0.0631871298 -0.0382332802 0.014904228
  endloop
 endfacet

 facet normal 0 0 -1
  outer loop
  vertex -0.0611788146 -0.0384383686 0.014904228
  vertex -0.0631871298 -0.0382332802 0.014904228
  vertex -0.0631808788 -0.0382332802 0.014904228
  endloop
 endfacet

 facet normal 0 0 -1
  outer loop
  vertex -0.0611788146 -0.0384383686 0.014904228
  vertex -0.0631808788 -0.0382332802 0.014904228
  vertex -0.0626995042 -0.0382416286 0.014904228
  endloop
 endfacet

 facet normal 0 0 -1
  outer loop
  vertex -0.0611788146 -0.0384383686 0.014904228
  vertex -0.0626995042 -0.0382416286 0.014904228
  vertex -0.0626729354 -0.0382428207 0.014904228
  endloop
 endfacet

 facet normal 0 0 -1
  outer loop
  vertex -0.0611788146 -0.0384383686 0.014904228
  vertex -0.0626729354 -0.0382428207 0.014904228
  vertex -0.0622228235 -0.0382678583 0.014904228
  endloop
 endfacet

 facet normal 0 0 -1
  outer loop
  vertex -0.0611788146 -0.0384383686 0.014904228
  vertex -0.0622228235 -0.0382678583 0.014904228
  vertex -0.0618055314 -0.038313169 0.014904228
  endloop
 endfacet

 facet normal 0 0 -1
  outer loop
  vertex -0.0611788146 -0.0384383686 0.014904228
  vertex -0.0618055314 -0.038313169 0.014904228
  vertex -0.0617852136 -0.0383155532 0.014904228
  endloop
 endfacet

 facet normal 0 0 -1
  outer loop
  vertex -0.0611788146 -0.0384383686 0.014904228
  vertex -0.0617852136 -0.0383155532 0.014904228
  vertex -0.0614320002 -0.0383751728 0.014904228
  endloop
 endfacet

 facet normal -0.000175829628 0.00795037486 -0.99996841
  outer loop
  vertex -0.067986764 -0.026257081 0.0150002902
  vertex -0.0631871298 -0.0382332802 0.014904228
  vertex -0.0637263283 -0.0382452048 0.014904228
  endloop
 endfacet

 facet normal -0.000410378649 0.00786702242 -0.999968946
  outer loop
  vertex -0.067986764 -0.026257081 0.0150002902
  vertex -0.0637263283 -0.0382452048 0.014904228
  vertex -0.0642748997 -0.0382738225 0.014904228
  endloop
 endfacet

 facet normal -0.000542669615 0.00782615971 -0.999969184
  outer loop
  vertex -0.067986764 -0.026257081 0.0150002902
  vertex -0.0642748997 -0.0382738225 0.014904228
  vertex -0.0642920882 -0.0382750146 0.014904228
  endloop
 endfacet

 facet normal -0.000641265418 0.00779585121 -0.999969423
  outer loop
  vertex -0.067986764 -0.026257081 0.0150002902
  vertex -0.0642920882 -0.0382750146 0.014904228
  vertex -0.0648719221 -0.0383227095 0.014904228
  endloop
 endfacet

 facet normal -0.000741002907 0.00777010387 -0.999969482
  outer loop
  vertex -0.067986764 -0.026257081 0.0150002902
  vertex -0.0648719221 -0.0383227095 0.014904228
  vertex -0.0649594441 -0.0383310542 0.014904228
  endloop
 endfacet

 facet normal -0.000844044785 0.00774426945 -0.999969661
  outer loop
  vertex -0.067986764 -0.026257081 0.0150002902
  vertex -0.0649594441 -0.0383310542 0.014904228
  vertex -0.0654955134 -0.0383894816 0.014904228
  endloop
 endfacet

 facet normal -0.00103441766 0.00770517951 -0.99996984
  outer loop
  vertex -0.067986764 -0.026257081 0.0150002902
  vertex -0.0654955134 -0.0383894816 0.014904228
  vertex -0.065859668 -0.0384383686 0.014904228
  endloop
 endfacet

 facet normal -0.0451152846 0 -0.998981833
  outer loop
  vertex -0.067986764 -0.026257081 0.0150002902
  vertex -0.065859668 -0.0384383686 0.014904228
  vertex -0.067986764 -0.0319971666 0.0150002902
  endloop
 endfacet

 facet normal -0.0451483838 -1.09523298e-05 -0.998980284
  outer loop
  vertex -0.067986764 -0.0319971666 0.0150002902
  vertex -0.065859668 -0.0384383686 0.014904228
  vertex -0.0679851994 -0.0384383686 0.0150002902
  endloop
 endfacet

endsolid AssimpScene
