solid AssimpScene
 facet normal 0 1 0
  outer loop
  vertex -0.150765195 -0.0146325761 -0.00211812183
  vertex -0.150765195 -0.0146325761 -0.00703999959
  vertex -0.159363419 -0.0146325761 -0.00703999959
  endloop
 endfacet

 facet normal 0 1 0
  outer loop
  vertex -0.150765195 -0.0146325761 -0.00211812183
  vertex -0.159363419 -0.0146325761 -0.00703999959
  vertex -0.159363419 -0.0146325761 -0.00212053116
  endloop
 endfacet

 facet normal 0 1 0
  outer loop
  vertex -0.150765195 -0.0146325761 -0.00211812183
  vertex -0.159363419 -0.0146325761 -0.00212053116
  vertex -0.155363068 -0.0146325761 -0.00211812183
  endloop
 endfacet

 facet normal 0 0 1
  outer loop
  vertex -0.150765195 -0.0146325761 -0.00211812183
  vertex -0.155363068 -0.0146325761 -0.00211812183
  vertex -0.159363419 -0.0200992133 -0.00211812183
  endloop
 endfacet

 facet normal 0 0 1
  outer loop
  vertex -0.150765195 -0.0146325761 -0.00211812183
  vertex -0.159363419 -0.0200992133 -0.00211812183
  vertex -0.157369763 -0.0221818835 -0.00211812183
  endloop
 endfacet

 facet normal 0 0 1
  outer loop
  vertex -0.150765195 -0.0146325761 -0.00211812183
  vertex -0.157369763 -0.0221818835 -0.00211812183
  vertex -0.148864135 -0.0222852677 -0.00211812183
  endloop
 endfacet

 facet normal 0 0 1
  outer loop
  vertex -0.150765195 -0.0146325761 -0.00211812183
  vertex -0.148864135 -0.0222852677 -0.00211812183
  vertex -0.144584551 -0.0222852677 -0.00211812183
  endloop
 endfacet

 facet normal 0 0 1
  outer loop
  vertex -0.150765195 -0.0146325761 -0.00211812183
  vertex -0.144584551 -0.0222852677 -0.00211812183
  vertex -0.144584551 -0.0159825664 -0.00211812183
  endloop
 endfacet

 facet normal 0.213390991 0.976966858 0
  outer loop
  vertex -0.150765195 -0.0146325761 -0.00211812183
  vertex -0.144584551 -0.0159825664 -0.00211812183
  vertex -0.144584551 -0.0159825664 -0.00703999959
  endloop
 endfacet

 facet normal 0.213390991 0.976966858 0
  outer loop
  vertex -0.150765195 -0.0146325761 -0.00211812183
  vertex -0.144584551 -0.0159825664 -0.00703999959
  vertex -0.150765195 -0.0146325761 -0.00703999959
  endloop
 endfacet

 facet normal 0 0 -1
  outer loop
  vertex -0.150765195 -0.0146325761 -0.00703999959
  vertex -0.144584551 -0.0159825664 -0.00703999959
  vertex -0.144584551 -0.0222852677 -0.00703999959
  endloop
 endfacet

 facet normal 0 0 -1
  outer loop
  vertex -0.150765195 -0.0146325761 -0.00703999959
  vertex -0.144584551 -0.0222852677 -0.00703999959
  vertex -0.147615552 -0.0222852677 -0.00703999959
  endloop
 endfacet

 facet normal 0 0 -1
  outer loop
  vertex -0.150765195 -0.0146325761 -0.00703999959
  vertex -0.147615552 -0.0222852677 -0.00703999959
  vertex -0.159363419 -0.0221818835 -0.00703999959
  endloop
 endfacet

 facet normal 0 0 -1
  outer loop
  vertex -0.150765195 -0.0146325761 -0.00703999959
  vertex -0.159363419 -0.0221818835 -0.00703999959
  vertex -0.159363419 -0.0146325761 -0.00703999959
  endloop
 endfacet

 facet normal -0.000602247252 0.000440709642 0.999999821
  outer loop
  vertex -0.155363068 -0.0146325761 -0.00211812183
  vertex -0.159363419 -0.0146325761 -0.00212053116
  vertex -0.159363419 -0.0200992133 -0.00211812183
  endloop
 endfacet

 facet normal 1 0 0
  outer loop
  vertex -0.144584551 -0.0159825664 -0.00211812183
  vertex -0.144584551 -0.0222852677 -0.00211812183
  vertex -0.144584551 -0.0222852677 -0.00703999959
  endloop
 endfacet

 facet normal 1 0 0
  outer loop
  vertex -0.144584551 -0.0159825664 -0.00211812183
  vertex -0.144584551 -0.0222852677 -0.00703999959
  vertex -0.144584551 -0.0159825664 -0.00703999959
  endloop
 endfacet

 facet normal -1 0 0
  outer loop
  vertex -0.159363419 -0.0146325761 -0.00703999959
  vertex -0.159363419 -0.0221818835 -0.00703999959
  vertex -0.159363419 -0.0221818835 -0.00211908552
  endloop
 endfacet

 facet normal -1 0 0
  outer loop
  vertex -0.159363419 -0.0146325761 -0.00703999959
  vertex -0.159363419 -0.0221818835 -0.00211908552
  vertex -0.159363419 -0.0200992133 -0.00211812183
  endloop
 endfacet

 facet normal -1 0 0
  outer loop
  vertex -0.159363419 -0.0146325761 -0.00703999959
  vertex -0.159363419 -0.0200992133 -0.00211812183
  vertex -0.159363419 -0.0146325761 -0.00212053116
  endloop
 endfacet

 facet normal -0.000483348034 -0.000462691532 0.999999762
  outer loop
  vertex -0.159363419 -0.0200992133 -0.00211812183
  vertex -0.159363419 -0.0221818835 -0.00211908552
  vertex -0.157369763 -0.0221818835 -0.00211812183
  endloop
 endfacet

 facet normal 0 -1 0
  outer loop
  vertex -0.144584551 -0.0222852677 -0.00211812183
  vertex -0.148864135 -0.0222852677 -0.00211812183
  vertex -0.148864135 -0.0222852677 -0.0040406175
  endloop
 endfacet

 facet normal 0 -1 0
  outer loop
  vertex -0.144584551 -0.0222852677 -0.00211812183
  vertex -0.148864135 -0.0222852677 -0.0040406175
  vertex -0.147615552 -0.0222852677 -0.00703999959
  endloop
 endfacet

 facet normal 0 -1 0
  outer loop
  vertex -0.144584551 -0.0222852677 -0.00211812183
  vertex -0.147615552 -0.0222852677 -0.00703999959
  vertex -0.144584551 -0.0222852677 -0.00703999959
  endloop
 endfacet

 facet normal -0.008799823 -0.999954581 -0.00366315525
  outer loop
  vertex -0.159363419 -0.0221818835 -0.00703999959
  vertex -0.147615552 -0.0222852677 -0.00703999959
  vertex -0.148864135 -0.0222852677 -0.0040406175
  endloop
 endfacet

 facet normal -0.0098462645 -0.999951541 0
  outer loop
  vertex -0.159363419 -0.0221818835 -0.00703999959
  vertex -0.148864135 -0.0222852677 -0.0040406175
  vertex -0.148864135 -0.0222852677 -0.00211812183
  endloop
 endfacet

 facet normal -0.0098462645 -0.999951541 0
  outer loop
  vertex -0.159363419 -0.0221818835 -0.00703999959
  vertex -0.148864135 -0.0222852677 -0.00211812183
  vertex -0.159363419 -0.0221818835 -0.00211908552
  endloop
 endfacet

 facet normal -0.000482966396 -0.0397347771 0.999210238
  outer loop
  vertex -0.159363419 -0.0221818835 -0.00211908552
  vertex -0.148864135 -0.0222852677 -0.00211812183
  vertex -0.157369763 -0.0221818835 -0.00211812183
  endloop
 endfacet

endsolid AssimpScene
