solid AssimpScene
 facet normal 0 0 1
  outer loop
  vertex -0.150106892 0.0314178914 0.0147248218
  vertex -0.150768235 0.0314178914 0.0147248218
  vertex -0.150768235 -0.000591186108 0.0147248218
  endloop
 endfacet

 facet normal 0 0 1
  outer loop
  vertex -0.150106892 0.0314178914 0.0147248218
  vertex -0.150768235 -0.000591186108 0.0147248218
  vertex -0.150721163 -0.00061313418 0.0147248218
  endloop
 endfacet

 facet normal 0 0 1
  outer loop
  vertex -0.150106892 0.0314178914 0.0147248218
  vertex -0.150721163 -0.00061313418 0.0147248218
  vertex -0.150106892 -0.00061313418 0.0147248218
  endloop
 endfacet

 facet normal 0 0 1
  outer loop
  vertex -0.150106892 0.0314178914 0.0147248218
  vertex -0.150106892 -0.00061313418 0.0147248218
  vertex -0.144153953 0.00942007732 0.0147248218
  endloop
 endfacet

 facet normal 0 0 1
  outer loop
  vertex -0.150106892 0.0314178914 0.0147248218
  vertex -0.144153953 0.00942007732 0.0147248218
  vertex -0.144221857 0.0314147547 0.0147248218
  endloop
 endfacet

 facet normal 0.000532870879 0.999999881 0
  outer loop
  vertex -0.150106892 0.0314178914 0.0147248218
  vertex -0.144221857 0.0314147547 0.0147248218
  vertex -0.144221857 0.0314147547 0.00598264718
  endloop
 endfacet

 facet normal 0.000532870879 0.999999881 0
  outer loop
  vertex -0.150106892 0.0314178914 0.0147248218
  vertex -0.144221857 0.0314147547 0.00598264718
  vertex -0.150106892 0.0314178914 0.00598160503
  endloop
 endfacet

 facet normal 0 1 0
  outer loop
  vertex -0.150106892 0.0314178914 0.0147248218
  vertex -0.150106892 0.0314178914 0.00598160503
  vertex -0.150768235 0.0314178914 0.00598160503
  endloop
 endfacet

 facet normal 0 1 0
  outer loop
  vertex -0.150106892 0.0314178914 0.0147248218
  vertex -0.150768235 0.0314178914 0.00598160503
  vertex -0.150768235 0.0314178914 0.0147248218
  endloop
 endfacet

 facet normal -1 0 0
  outer loop
  vertex -0.150768235 0.0314178914 0.0147248218
  vertex -0.150768235 0.0314178914 0.00598160503
  vertex -0.150768235 -0.00061313418 0.00598160503
  endloop
 endfacet

 facet normal -1 0 0
  outer loop
  vertex -0.150768235 0.0314178914 0.0147248218
  vertex -0.150768235 -0.00061313418 0.00598160503
  vertex -0.150768235 -0.00061313418 0.0147216963
  endloop
 endfacet

 facet normal -1 0 0
  outer loop
  vertex -0.150768235 0.0314178914 0.0147248218
  vertex -0.150768235 -0.00061313418 0.0147216963
  vertex -0.150768235 -0.000591186108 0.0147248218
  endloop
 endfacet

 facet normal 0.00082786195 2.55608461e-06 0.999999702
  outer loop
  vertex -0.144221857 0.0314147547 0.0147248218
  vertex -0.144153953 0.00942007732 0.0147248218
  vertex -0.142885268 0.00609030481 0.0147237796
  endloop
 endfacet

 facet normal 0.998610139 0.0527054779 0
  outer loop
  vertex -0.144221857 0.0314147547 0.0147248218
  vertex -0.142885268 0.00609030481 0.0147237796
  vertex -0.142885268 0.00609030481 0.00598264718
  endloop
 endfacet

 facet normal 0.998610139 0.0527054779 0
  outer loop
  vertex -0.144221857 0.0314147547 0.0147248218
  vertex -0.142885268 0.00609030481 0.00598264718
  vertex -0.144221857 0.0314147547 0.00598264718
  endloop
 endfacet

 facet normal 0.000495463319 0.68904388 -0.724719524
  outer loop
  vertex -0.150106892 0.0314178914 0.00598160503
  vertex -0.144221857 0.0314147547 0.00598264718
  vertex -0.145316139 0.0294143837 0.00407999987
  endloop
 endfacet

 facet normal 0.000450736785 0.688987613 -0.724773049
  outer loop
  vertex -0.150106892 0.0314178914 0.00598160503
  vertex -0.145316139 0.0294143837 0.00407999987
  vertex -0.150106892 0.0294175185 0.00407999987
  endloop
 endfacet

 facet normal 0 0.688987672 -0.724773109
  outer loop
  vertex -0.150106892 0.0314178914 0.00598160503
  vertex -0.150106892 0.0294175185 0.00407999987
  vertex -0.150763616 0.0294175185 0.00407999987
  endloop
 endfacet

 facet normal 0 0.688987672 -0.724773109
  outer loop
  vertex -0.150106892 0.0314178914 0.00598160503
  vertex -0.150763616 0.0294175185 0.00407999987
  vertex -0.150768235 0.0314178914 0.00598160503
  endloop
 endfacet

 facet normal -0.999997079 0 -0.00243485975
  outer loop
  vertex -0.150768235 0.0314178914 0.00598160503
  vertex -0.150763616 0.0294175185 0.00407999987
  vertex -0.150763616 0.00942007732 0.00407999987
  endloop
 endfacet

 facet normal -0.999997079 0 -0.00243485975
  outer loop
  vertex -0.150768235 0.0314178914 0.00598160503
  vertex -0.150763616 0.00942007732 0.00407999987
  vertex -0.150768235 -0.00061313418 0.00598160503
  endloop
 endfacet

 facet normal -0.0655965805 -0.140692472 0.987877965
  outer loop
  vertex -0.150768235 -0.000591186108 0.0147248218
  vertex -0.150768235 -0.00061313418 0.0147216963
  vertex -0.150721163 -0.00061313418 0.0147248218
  endloop
 endfacet

 facet normal 0.845011473 0.044598721 -0.532885194
  outer loop
  vertex -0.144221857 0.0314147547 0.00598264718
  vertex -0.142885268 0.00609030481 0.00598264718
  vertex -0.145316139 0.0294143837 0.00407999987
  endloop
 endfacet

 facet normal 0.000321110681 -0.000190522565 0.99999994
  outer loop
  vertex -0.144153953 0.00942007732 0.0147248218
  vertex -0.150106892 -0.00061313418 0.0147248218
  vertex -0.142885268 0.00609030481 0.0147237796
  endloop
 endfacet

 facet normal 0.687579036 -0.726109624 0
  outer loop
  vertex -0.142885268 0.00609030481 0.0147237796
  vertex -0.149961039 -0.000609998242 0.0147237796
  vertex -0.142885268 0.00609030481 0.00598264718
  endloop
 endfacet

 facet normal 0.00730830524 -0.00771784782 0.999943495
  outer loop
  vertex -0.142885268 0.00609030481 0.0147237796
  vertex -0.150106892 -0.00061313418 0.0147248218
  vertex -0.149961039 -0.000609998242 0.0147237796
  endloop
 endfacet

 facet normal 0 0 -1
  outer loop
  vertex -0.145316139 0.0294143837 0.00407999987
  vertex -0.145316139 0.00942321215 0.00407999987
  vertex -0.150106892 0.00942007732 0.00407999987
  endloop
 endfacet

 facet normal 0 0 -1
  outer loop
  vertex -0.145316139 0.0294143837 0.00407999987
  vertex -0.150106892 0.00942007732 0.00407999987
  vertex -0.150763616 0.00942007732 0.00407999987
  endloop
 endfacet

 facet normal 0 0 -1
  outer loop
  vertex -0.145316139 0.0294143837 0.00407999987
  vertex -0.150763616 0.00942007732 0.00407999987
  vertex -0.150763616 0.0294175185 0.00407999987
  endloop
 endfacet

 facet normal 0 0 -1
  outer loop
  vertex -0.145316139 0.0294143837 0.00407999987
  vertex -0.150763616 0.0294175185 0.00407999987
  vertex -0.150106892 0.0294175185 0.00407999987
  endloop
 endfacet

 facet normal 0.616353273 0 -0.787469804
  outer loop
  vertex -0.145316139 0.0294143837 0.00407999987
  vertex -0.142885268 0.00609030481 0.00598264718
  vertex -0.145316139 0.00942321215 0.00407999987
  endloop
 endfacet

 facet normal 0 -0.186215982 -0.982508957
  outer loop
  vertex -0.150768235 -0.00061313418 0.00598160503
  vertex -0.150763616 0.00942007732 0.00407999987
  vertex -0.150106892 0.00942007732 0.00407999987
  endloop
 endfacet

 facet normal 0 -0.186215982 -0.982508957
  outer loop
  vertex -0.150768235 -0.00061313418 0.00598160503
  vertex -0.150106892 0.00942007732 0.00407999987
  vertex -0.150106892 -0.00061313418 0.00598160503
  endloop
 endfacet

 facet normal 0 -1 0
  outer loop
  vertex -0.150768235 -0.00061313418 0.00598160503
  vertex -0.150106892 -0.00061313418 0.00598160503
  vertex -0.150106892 -0.00061313418 0.0147248218
  endloop
 endfacet

 facet normal 0 -1 0
  outer loop
  vertex -0.150768235 -0.00061313418 0.00598160503
  vertex -0.150106892 -0.00061313418 0.0147248218
  vertex -0.150721163 -0.00061313418 0.0147248218
  endloop
 endfacet

 facet normal 0 -1 0
  outer loop
  vertex -0.150768235 -0.00061313418 0.00598160503
  vertex -0.150721163 -0.00061313418 0.0147248218
  vertex -0.150768235 -0.00061313418 0.0147216963
  endloop
 endfacet

 facet normal 0.687539518 -0.726146936 -6.06496251e-05
  outer loop
  vertex -0.142885268 0.00609030481 0.00598264718
  vertex -0.149961039 -0.000609998242 0.0147237796
  vertex -0.149961814 -0.000609998242 0.00598264718
  endloop
 endfacet

 facet normal 0.289909273 -0.306188524 -0.906753063
  outer loop
  vertex -0.142885268 0.00609030481 0.00598264718
  vertex -0.149961814 -0.000609998242 0.00598264718
  vertex -0.145316139 0.00942321215 0.00407999987
  endloop
 endfacet

 facet normal 0.0214960556 -0.999768913 0
  outer loop
  vertex -0.150106892 -0.00061313418 0.0147248218
  vertex -0.150106892 -0.00061313418 0.00598160503
  vertex -0.149961039 -0.000609998242 0.0147237796
  endloop
 endfacet

 facet normal 0.0216102637 -0.999766469 -1.90629657e-06
  outer loop
  vertex -0.149961039 -0.000609998242 0.0147237796
  vertex -0.150106892 -0.00061313418 0.00598160503
  vertex -0.149961814 -0.000609998242 0.00598264718
  endloop
 endfacet

 facet normal 0.0111826323 -0.191298544 -0.981468201
  outer loop
  vertex -0.145316139 0.00942321215 0.00407999987
  vertex -0.149961814 -0.000609998242 0.00598264718
  vertex -0.150106892 -0.00061313418 0.00598160503
  endloop
 endfacet

 facet normal 0.000121876554 -0.186215967 -0.982508838
  outer loop
  vertex -0.145316139 0.00942321215 0.00407999987
  vertex -0.150106892 -0.00061313418 0.00598160503
  vertex -0.150106892 0.00942007732 0.00407999987
  endloop
 endfacet

endsolid AssimpScene
