solid AssimpScene
 facet normal -0.122352414 -0.0114285527 -0.992420912
  outer loop
  vertex -0.0100991949 0.00389834214 -0.0305424575
  vertex -0.0100991949 0.00326954364 -0.0305352155
  vertex -0.0107280593 0.00389834214 -0.0304649267
  endloop
 endfacet

 facet normal -0.122338206 0.0190443732 -0.992305696
  outer loop
  vertex -0.0100991949 0.00389834214 -0.0305424575
  vertex -0.0107280593 0.00389834214 -0.0304649267
  vertex -0.0100991949 0.00452714134 -0.0305303894
  endloop
 endfacet

 facet normal -0.00311802002 0.019188419 -0.999811113
  outer loop
  vertex -0.0100991949 0.00389834214 -0.0305424575
  vertex -0.0100991949 0.00452714134 -0.0305303894
  vertex -0.00758373924 0.00452714134 -0.0305382349
  endloop
 endfacet

 facet normal -0.00155879871 0.0129515883 -0.999914885
  outer loop
  vertex -0.0100991949 0.00389834214 -0.0305424575
  vertex -0.00758373924 0.00452714134 -0.0305382349
  vertex -0.0050682826 0.00452714134 -0.0305421557
  endloop
 endfacet

 facet normal 0 0.000479950162 -0.99999994
  outer loop
  vertex -0.0100991949 0.00389834214 -0.0305424575
  vertex -0.0050682826 0.00452714134 -0.0305421557
  vertex -0.00443941867 0.00389834214 -0.0305424575
  endloop
 endfacet

 facet normal 0 0 -1
  outer loop
  vertex -0.0100991949 0.00389834214 -0.0305424575
  vertex -0.00443941867 0.00389834214 -0.0305424575
  vertex -0.0050682826 0.00326954364 -0.0305424575
  endloop
 endfacet

 facet normal -0.000359923812 -0.00287969038 -0.999995828
  outer loop
  vertex -0.0100991949 0.00389834214 -0.0305424575
  vertex -0.0050682826 0.00326954364 -0.0305424575
  vertex -0.00758373924 0.00326954364 -0.0305415522
  endloop
 endfacet

 facet normal -0.00251855841 -0.0115150316 -0.999930561
  outer loop
  vertex -0.0100991949 0.00389834214 -0.0305424575
  vertex -0.00758373924 0.00326954364 -0.0305415522
  vertex -0.0100991949 0.00326954364 -0.0305352155
  endloop
 endfacet

 facet normal -0.156817332 -0.294420868 -0.942721963
  outer loop
  vertex -0.0100991949 0.00326954364 -0.0305352155
  vertex -0.0100991949 0.0027933435 -0.0303864945
  vertex -0.0105392551 0.00286159082 -0.0303346068
  endloop
 endfacet

 facet normal -0.222160071 -0.226675838 -0.948294759
  outer loop
  vertex -0.0100991949 0.00326954364 -0.0305352155
  vertex -0.0105392551 0.00286159082 -0.0303346068
  vertex -0.0107411295 0.00328155723 -0.0303876996
  endloop
 endfacet

 facet normal -0.224508703 -0.116381481 -0.967497349
  outer loop
  vertex -0.0100991949 0.00326954364 -0.0305352155
  vertex -0.0107411295 0.00328155723 -0.0303876996
  vertex -0.0107280593 0.00389834214 -0.0304649267
  endloop
 endfacet

 facet normal -0.00240864255 -0.292405784 -0.956291318
  outer loop
  vertex -0.0100991949 0.00326954364 -0.0305352155
  vertex -0.00758373924 0.00326954364 -0.0305415522
  vertex -0.00758373924 0.00278414134 -0.0303931311
  endloop
 endfacet

 facet normal -0.00360857183 -0.298107207 -0.95452559
  outer loop
  vertex -0.0100991949 0.00326954364 -0.0305352155
  vertex -0.00758373924 0.00278414134 -0.0303931311
  vertex -0.0100991949 0.0027933435 -0.0303864945
  endloop
 endfacet

 facet normal -0.328133404 -0.110510312 -0.938144922
  outer loop
  vertex -0.0107280593 0.00389834214 -0.0304649267
  vertex -0.0107411295 0.00328155723 -0.0303876996
  vertex -0.0110809775 0.00349933631 -0.0302944854
  endloop
 endfacet

 facet normal -0.371153295 -0.0673260838 -0.926127672
  outer loop
  vertex -0.0107280593 0.00389834214 -0.0304649267
  vertex -0.0110809775 0.00349933631 -0.0302944854
  vertex -0.0110984072 0.00389834214 -0.0303165074
  endloop
 endfacet

 facet normal -0.370813847 0.0797035247 -0.92528075
  outer loop
  vertex -0.0107280593 0.00389834214 -0.0304649267
  vertex -0.0110984072 0.00389834214 -0.0303165074
  vertex -0.0110780746 0.00428712415 -0.0302911662
  endloop
 endfacet

 facet normal -0.326748401 0.124553911 -0.936868131
  outer loop
  vertex -0.0107280593 0.00389834214 -0.0304649267
  vertex -0.0110780746 0.00428712415 -0.0302911662
  vertex -0.0107331425 0.00450899312 -0.0303819701
  endloop
 endfacet

 facet normal -0.229550719 0.129142806 -0.964690924
  outer loop
  vertex -0.0107280593 0.00389834214 -0.0304649267
  vertex -0.0107331425 0.00450899312 -0.0303819701
  vertex -0.0100991949 0.00452714134 -0.0305303894
  endloop
 endfacet

 facet normal -0.227943063 0.235075384 -0.944871128
  outer loop
  vertex -0.0100991949 0.00452714134 -0.0305303894
  vertex -0.0107331425 0.00450899312 -0.0303819701
  vertex -0.010527635 0.00492410269 -0.0303282719
  endloop
 endfacet

 facet normal -0.16287294 0.302399129 -0.93916297
  outer loop
  vertex -0.0100991949 0.00452714134 -0.0305303894
  vertex -0.010527635 0.00492410269 -0.0303282719
  vertex -0.0100991949 0.00498902705 -0.0303816684
  endloop
 endfacet

 facet normal -0.00432774611 0.306488872 -0.951864541
  outer loop
  vertex -0.0100991949 0.00452714134 -0.0305303894
  vertex -0.0100991949 0.00498902705 -0.0303816684
  vertex -0.00758373924 0.00499925157 -0.0303898118
  endloop
 endfacet

 facet normal -0.00297504058 0.299906671 -0.953963935
  outer loop
  vertex -0.0100991949 0.00452714134 -0.0305303894
  vertex -0.00758373924 0.00499925157 -0.0303898118
  vertex -0.00758373924 0.00452714134 -0.0305382349
  endloop
 endfacet

 facet normal -0.00203571701 0.299907416 -0.95396626
  outer loop
  vertex -0.00758373924 0.00452714134 -0.0305382349
  vertex -0.00758373924 0.00499925157 -0.0303898118
  vertex -0.0050682826 0.0050038523 -0.0303937346
  endloop
 endfacet

 facet normal -0.00148845557 0.29727003 -0.954792261
  outer loop
  vertex -0.00758373924 0.00452714134 -0.0305382349
  vertex -0.0050682826 0.0050038523 -0.0303937346
  vertex -0.0050682826 0.00452714134 -0.0305421557
  endloop
 endfacet

 facet normal 0.107918173 0.295534223 -0.949217081
  outer loop
  vertex -0.0050682826 0.00452714134 -0.0305421557
  vertex -0.0050682826 0.0050038523 -0.0303937346
  vertex -0.00443941867 0.00452714134 -0.0304706581
  endloop
 endfacet

 facet normal 0.112243995 0.112729371 -0.987265706
  outer loop
  vertex -0.0050682826 0.00452714134 -0.0305421557
  vertex -0.00443941867 0.00452714134 -0.0304706581
  vertex -0.00443941867 0.00389834214 -0.0305424575
  endloop
 endfacet

 facet normal 0.289663613 0.108582661 -0.95094943
  outer loop
  vertex -0.00443941867 0.00389834214 -0.0305424575
  vertex -0.00443941867 0.00452714134 -0.0304706581
  vertex -0.00395215815 0.00389834214 -0.0303940363
  endloop
 endfacet

 facet normal 0.290080398 -0.0945756286 -0.952317655
  outer loop
  vertex -0.00443941867 0.00389834214 -0.0305424575
  vertex -0.00395215815 0.00389834214 -0.0303940363
  vertex -0.00443941867 0.00326954364 -0.0304800104
  endloop
 endfacet

 facet normal 0.0983357057 -0.0983458906 -0.99028194
  outer loop
  vertex -0.00443941867 0.00389834214 -0.0305424575
  vertex -0.00443941867 0.00326954364 -0.0304800104
  vertex -0.0050682826 0.00326954364 -0.0305424575
  endloop
 endfacet

 facet normal 0.0945689529 -0.289978981 -0.952349126
  outer loop
  vertex -0.0050682826 0.00326954364 -0.0305424575
  vertex -0.00443941867 0.00326954364 -0.0304800104
  vertex -0.0050682826 0.00278209662 -0.0303940363
  endloop
 endfacet

 facet normal -0.000344317727 -0.291284412 -0.956636429
  outer loop
  vertex -0.0050682826 0.00326954364 -0.0305424575
  vertex -0.0050682826 0.00278209662 -0.0303940363
  vertex -0.00758373924 0.00326954364 -0.0305415522
  endloop
 endfacet

 facet normal -0.000581866247 -0.292406619 -0.956293941
  outer loop
  vertex -0.00758373924 0.00326954364 -0.0305415522
  vertex -0.0050682826 0.00278209662 -0.0303940363
  vertex -0.00758373924 0.00278414134 -0.0303931311
  endloop
 endfacet

 facet normal -0.184051231 -0.916262746 -0.355791718
  outer loop
  vertex -0.0100991949 0.0027933435 -0.0303864945
  vertex -0.0100991949 0.00261646137 -0.0299309734
  vertex -0.0105392551 0.00286159082 -0.0303346068
  endloop
 endfacet

 facet normal -0.0043793139 -0.927442431 -0.373940587
  outer loop
  vertex -0.0100991949 0.0027933435 -0.0303864945
  vertex -0.00758373924 0.00278414134 -0.0303931311
  vertex -0.00758373924 0.00259780185 -0.0299309734
  endloop
 endfacet

 facet normal -0.00691477209 -0.932165444 -0.361966848
  outer loop
  vertex -0.0100991949 0.0027933435 -0.0303864945
  vertex -0.00758373924 0.00259780185 -0.0299309734
  vertex -0.0100991949 0.00261646137 -0.0299309734
  endloop
 endfacet

 facet normal -0.356419414 -0.918835521 -0.169430226
  outer loop
  vertex -0.0105392551 0.00286159082 -0.0303346068
  vertex -0.0100991949 0.00261646137 -0.0299309734
  vertex -0.0106046107 0.00281251385 -0.0299309734
  endloop
 endfacet

 facet normal -0.707666755 -0.678503036 -0.197082326
  outer loop
  vertex -0.0105392551 0.00286159082 -0.0303346068
  vertex -0.0106046107 0.00281251385 -0.0299309734
  vertex -0.0109190429 0.00314046093 -0.0299309734
  endloop
 endfacet

 facet normal -0.741346657 -0.612462044 -0.274400264
  outer loop
  vertex -0.0105392551 0.00286159082 -0.0303346068
  vertex -0.0109190429 0.00314046093 -0.0299309734
  vertex -0.0110809775 0.00349933631 -0.0302944854
  endloop
 endfacet

 facet normal -0.433495581 -0.315111786 -0.844266593
  outer loop
  vertex -0.0105392551 0.00286159082 -0.0303346068
  vertex -0.0110809775 0.00349933631 -0.0302944854
  vertex -0.0107411295 0.00328155723 -0.0303876996
  endloop
 endfacet

 facet normal -0.000888609444 -0.925028205 -0.379897445
  outer loop
  vertex -0.00758373924 0.00278414134 -0.0303931311
  vertex -0.0050682826 0.00278209662 -0.0303940363
  vertex -0.0050682826 0.00259192311 -0.0299309734
  endloop
 endfacet

 facet normal -0.00216753455 -0.927449107 -0.373943269
  outer loop
  vertex -0.00758373924 0.00278414134 -0.0303931311
  vertex -0.0050682826 0.00259192311 -0.0299309734
  vertex -0.00758373924 0.00259780185 -0.0299309734
  endloop
 endfacet

 facet normal -0.859967649 -0.498550862 -0.109099269
  outer loop
  vertex -0.0110809775 0.00349933631 -0.0302944854
  vertex -0.0109190429 0.00314046093 -0.0299309734
  vertex -0.0111013101 0.0034548603 -0.0299309734
  endloop
 endfacet

 facet normal -0.990090787 -0.121591248 -0.0702562332
  outer loop
  vertex -0.0110809775 0.00349933631 -0.0302944854
  vertex -0.0111013101 0.0034548603 -0.0299309734
  vertex -0.0111557739 0.00389834214 -0.0299309734
  endloop
 endfacet

 facet normal -0.987809598 -0.0512607023 -0.146984667
  outer loop
  vertex -0.0110809775 0.00349933631 -0.0302944854
  vertex -0.0111557739 0.00389834214 -0.0299309734
  vertex -0.0110984072 0.00389834214 -0.0303165074
  endloop
 endfacet

 facet normal -0.987255633 0.0612067953 -0.146902248
  outer loop
  vertex -0.0110984072 0.00389834214 -0.0303165074
  vertex -0.0111557739 0.00389834214 -0.0299309734
  vertex -0.0110780746 0.00428712415 -0.0302911662
  endloop
 endfacet

 facet normal -0.84305203 0.527693629 -0.103935823
  outer loop
  vertex -0.0110780746 0.00428712415 -0.0302911662
  vertex -0.0110976817 0.00432674354 -0.0299309734
  vertex -0.0109008886 0.00464114314 -0.0299309734
  endloop
 endfacet

 facet normal -0.739752054 0.624682307 -0.250077784
  outer loop
  vertex -0.0110780746 0.00428712415 -0.0302911662
  vertex -0.0109008886 0.00464114314 -0.0299309734
  vertex -0.010527635 0.00492410269 -0.0303282719
  endloop
 endfacet

 facet normal -0.429071724 0.32160899 -0.844076574
  outer loop
  vertex -0.0110780746 0.00428712415 -0.0302911662
  vertex -0.010527635 0.00492410269 -0.0303282719
  vertex -0.0107331425 0.00450899312 -0.0303819701
  endloop
 endfacet

 facet normal -0.988599241 0.13405624 -0.0685602427
  outer loop
  vertex -0.0110780746 0.00428712415 -0.0302911662
  vertex -0.0111557739 0.00389834214 -0.0299309734
  vertex -0.0110976817 0.00432674354 -0.0299309734
  endloop
 endfacet

 facet normal -0.344593138 0.926501989 -0.151160955
  outer loop
  vertex -0.010527635 0.00492410269 -0.0303282719
  vertex -0.0105864564 0.00496704504 -0.0299309734
  vertex -0.0100991949 0.00514827203 -0.0299309734
  endloop
 endfacet

 facet normal -0.18134369 0.927241504 -0.327624142
  outer loop
  vertex -0.010527635 0.00492410269 -0.0303282719
  vertex -0.0100991949 0.00514827203 -0.0299309734
  vertex -0.0100991949 0.00498902705 -0.0303816684
  endloop
 endfacet

 facet normal -0.708076954 0.68315649 -0.178673685
  outer loop
  vertex -0.010527635 0.00492410269 -0.0303282719
  vertex -0.0109008886 0.00464114314 -0.0299309734
  vertex -0.0105864564 0.00496704504 -0.0299309734
  endloop
 endfacet

 facet normal -0.00728156604 0.942849636 -0.333139002
  outer loop
  vertex -0.0100991949 0.00498902705 -0.0303816684
  vertex -0.0100991949 0.00514827203 -0.0299309734
  vertex -0.00758373924 0.00516769849 -0.0299309734
  endloop
 endfacet

 facet normal -0.00493141031 0.938728631 -0.344622225
  outer loop
  vertex -0.0100991949 0.00498902705 -0.0303816684
  vertex -0.00758373924 0.00516769849 -0.0299309734
  vertex -0.00758373924 0.00499925157 -0.0303898118
  endloop
 endfacet

 facet normal -0.00305241486 0.938735604 -0.344624758
  outer loop
  vertex -0.00758373924 0.00499925157 -0.0303898118
  vertex -0.00758373924 0.00516769849 -0.0299309734
  vertex -0.0050682826 0.00517587783 -0.0299309734
  endloop
 endfacet

 facet normal -0.00225762557 0.937328279 -0.34844026
  outer loop
  vertex -0.00758373924 0.00499925157 -0.0303898118
  vertex -0.0050682826 0.00517587783 -0.0299309734
  vertex -0.0050682826 0.0050038523 -0.0303937346
  endloop
 endfacet

 facet normal 0.154692173 0.926047742 -0.344246864
  outer loop
  vertex -0.0050682826 0.0050038523 -0.0303937346
  vertex -0.0050682826 0.00517587783 -0.0299309734
  vertex -0.00443941867 0.00492538093 -0.0303222388
  endloop
 endfacet

 facet normal 0.148445114 0.345355809 -0.92665714
  outer loop
  vertex -0.0050682826 0.0050038523 -0.0303937346
  vertex -0.00443941867 0.00492538093 -0.0303222388
  vertex -0.00443941867 0.00452714134 -0.0304706581
  endloop
 endfacet

 facet normal 0.293062061 0.33389172 -0.895896792
  outer loop
  vertex -0.00443941867 0.00452714134 -0.0304706581
  vertex -0.00443941867 0.00492538093 -0.0303222388
  vertex -0.00412208214 0.0048443526 -0.0302486308
  endloop
 endfacet

 facet normal 0.330565542 0.296455383 -0.896013856
  outer loop
  vertex -0.00443941867 0.00452714134 -0.0304706581
  vertex -0.00412208214 0.0048443526 -0.0302486308
  vertex -0.00403711945 0.00452714134 -0.0303222388
  endloop
 endfacet

 facet normal 0.342097878 0.15209946 -0.927272797
  outer loop
  vertex -0.00443941867 0.00452714134 -0.0304706581
  vertex -0.00403711945 0.00452714134 -0.0303222388
  vertex -0.00395215815 0.00389834214 -0.0303940363
  endloop
 endfacet

 facet normal 0.336100519 -0.132961139 -0.932393551
  outer loop
  vertex -0.00395215815 0.00389834214 -0.0303940363
  vertex -0.00402767956 0.00326954364 -0.0303315911
  vertex -0.00443941867 0.00326954364 -0.0304800104
  endloop
 endfacet

 facet normal 0.912644327 0.165964782 -0.373545259
  outer loop
  vertex -0.00395215815 0.00389834214 -0.0303940363
  vertex -0.00403711945 0.00452714134 -0.0303222388
  vertex -0.00376262725 0.00389834214 -0.0299309734
  endloop
 endfacet

 facet normal 0.91540432 -0.147151858 -0.374674916
  outer loop
  vertex -0.00395215815 0.00389834214 -0.0303940363
  vertex -0.00376262725 0.00389834214 -0.0299309734
  vertex -0.00402767956 0.00326954364 -0.0303315911
  endloop
 endfacet

 facet normal 0.325867593 -0.276737988 -0.904005766
  outer loop
  vertex -0.00443941867 0.00326954364 -0.0304800104
  vertex -0.00402767956 0.00326954364 -0.0303315911
  vertex -0.00411118986 0.00294159655 -0.0302613005
  endloop
 endfacet

 facet normal 0.276814878 -0.325826883 -0.903996885
  outer loop
  vertex -0.00443941867 0.00326954364 -0.0304800104
  vertex -0.00411118986 0.00294159655 -0.0302613005
  vertex -0.00443941867 0.00285775703 -0.0303315911
  endloop
 endfacet

 facet normal 0.133017838 -0.336063743 -0.932398736
  outer loop
  vertex -0.00443941867 0.00326954364 -0.0304800104
  vertex -0.00443941867 0.00285775703 -0.0303315911
  vertex -0.0050682826 0.00278209662 -0.0303940363
  endloop
 endfacet

 facet normal 0.147388279 -0.914926052 -0.375748605
  outer loop
  vertex -0.0050682826 0.00278209662 -0.0303940363
  vertex -0.00443941867 0.00285775703 -0.0303315911
  vertex -0.0050682826 0.00259192311 -0.0299309734
  endloop
 endfacet

 facet normal -0.361557722 -0.932081997 -0.0223480165
  outer loop
  vertex -0.0100991949 0.00261646137 -0.0299309734
  vertex -0.0100991949 0.00260138069 -0.0293019935
  vertex -0.0106046107 0.00281251385 -0.0299309734
  endloop
 endfacet

 facet normal -0.00741548557 -0.999665439 -0.0247810073
  outer loop
  vertex -0.0100991949 0.00261646137 -0.0299309734
  vertex -0.00758373924 0.00259780185 -0.0299309734
  vertex -0.00758373924 0.00258220988 -0.0293019935
  endloop
 endfacet

 facet normal -0.00761880539 -0.999683619 -0.0239688642
  outer loop
  vertex -0.0100991949 0.00261646137 -0.0299309734
  vertex -0.00758373924 0.00258220988 -0.0293019935
  vertex -0.0100991949 0.00260138069 -0.0293019935
  endloop
 endfacet

 facet normal -0.00233622058 -0.999626815 -0.0272176862
  outer loop
  vertex -0.00758373924 0.00259780185 -0.0299309734
  vertex -0.0050682826 0.00259192311 -0.0299309734
  vertex -0.0050682826 0.00257479725 -0.0293019935
  endloop
 endfacet

 facet normal -0.00294592418 -0.999688566 -0.024781581
  outer loop
  vertex -0.00758373924 0.00259780185 -0.0299309734
  vertex -0.0050682826 0.00257479725 -0.0293019935
  vertex -0.00758373924 0.00258220988 -0.0293019935
  endloop
 endfacet

 facet normal -0.38000524 -0.92497009 -0.005137261
  outer loop
  vertex -0.0106046107 0.00281251385 -0.0299309734
  vertex -0.0100991949 0.00260138069 -0.0293019935
  vertex -0.0106075145 0.00281021348 -0.0293019935
  endloop
 endfacet

 facet normal -0.721811473 -0.692064941 -0.00586331217
  outer loop
  vertex -0.0106046107 0.00281251385 -0.0299309734
  vertex -0.0106075145 0.00281021348 -0.0293019935
  vertex -0.0109219467 0.00313816033 -0.0293019935
  endloop
 endfacet

 facet normal -0.721811473 -0.692064941 -0.00586331217
  outer loop
  vertex -0.0106046107 0.00281251385 -0.0299309734
  vertex -0.0109219467 0.00313816033 -0.0293019935
  vertex -0.0109190429 0.00314046093 -0.0299309734
  endloop
 endfacet

 facet normal -0.865117013 -0.501536071 -0.00582800852
  outer loop
  vertex -0.0109190429 0.00314046093 -0.0299309734
  vertex -0.0109219467 0.00313816033 -0.0293019935
  vertex -0.0111013101 0.0034548603 -0.0299309734
  endloop
 endfacet

 facet normal 0.236512095 -0.938514769 -0.2515001
  outer loop
  vertex -0.0050682826 0.00259192311 -0.0299309734
  vertex -0.00443941867 0.00285775703 -0.0303315911
  vertex -0.00443941867 0.00275040092 -0.0299309734
  endloop
 endfacet

 facet normal 0.24428156 -0.969345093 -0.0263931807
  outer loop
  vertex -0.0050682826 0.00259192311 -0.0299309734
  vertex -0.00443941867 0.00275040092 -0.0299309734
  vertex -0.0050682826 0.00257479725 -0.0293019935
  endloop
 endfacet

 facet normal -0.992105424 -0.125376776 -0.00274998043
  outer loop
  vertex -0.0111013101 0.0034548603 -0.0299309734
  vertex -0.011102763 0.00345255993 -0.0293019935
  vertex -0.0111601315 0.00386613561 -0.0274609104
  endloop
 endfacet

 facet normal -0.992256999 -0.124166936 -0.00295502925
  outer loop
  vertex -0.0111013101 0.0034548603 -0.0299309734
  vertex -0.0111601315 0.00386613561 -0.0274609104
  vertex -0.0111586787 0.00389834214 -0.0293019935
  endloop
 endfacet

 facet normal -0.992533028 -0.121891156 -0.00458481675
  outer loop
  vertex -0.0111013101 0.0034548603 -0.0299309734
  vertex -0.0111586787 0.00389834214 -0.0293019935
  vertex -0.0111557739 0.00389834214 -0.0299309734
  endloop
 endfacet

 facet normal -0.866856039 -0.498544037 -0.00382553809
  outer loop
  vertex -0.0111013101 0.0034548603 -0.0299309734
  vertex -0.0109219467 0.00313816033 -0.0293019935
  vertex -0.011102763 0.00345255993 -0.0293019935
  endloop
 endfacet

 facet normal -0.990920484 0.134370998 -0.00457736803
  outer loop
  vertex -0.0111557739 0.00389834214 -0.0299309734
  vertex -0.0111586787 0.00389834214 -0.0293019935
  vertex -0.0110976817 0.00432674354 -0.0299309734
  endloop
 endfacet

 facet normal -0.847633719 0.530561447 -0.00466001965
  outer loop
  vertex -0.0110976817 0.00432674354 -0.0299309734
  vertex -0.010903067 0.00464318786 -0.0293019935
  vertex -0.0109008886 0.00464114314 -0.0299309734
  endloop
 endfacet

 facet normal -0.99056381 0.137024969 -0.00273514679
  outer loop
  vertex -0.0110976817 0.00432674354 -0.0299309734
  vertex -0.0111586787 0.00389834214 -0.0293019935
  vertex -0.0111637628 0.00389834214 -0.0274609104
  endloop
 endfacet

 facet normal -0.98966527 0.143387973 -0.00160752225
  outer loop
  vertex -0.0110976817 0.00432674354 -0.0299309734
  vertex -0.0111637628 0.00389834214 -0.0274609104
  vertex -0.0110984072 0.00432878826 -0.0293019935
  endloop
 endfacet

 facet normal -0.849400163 0.527742445 -0.00269515184
  outer loop
  vertex -0.0110976817 0.00432674354 -0.0299309734
  vertex -0.0110984072 0.00432878826 -0.0293019935
  vertex -0.010903067 0.00464318786 -0.0293019935
  endloop
 endfacet

 facet normal -0.719649315 0.694321573 -0.00474913837
  outer loop
  vertex -0.0109008886 0.00464114314 -0.0299309734
  vertex -0.010903067 0.00464318786 -0.0293019935
  vertex -0.0105864564 0.00496704504 -0.0299309734
  endloop
 endfacet

 facet normal -0.36386162 0.931444824 -0.00390963815
  outer loop
  vertex -0.0105864564 0.00496704504 -0.0299309734
  vertex -0.0105886348 0.00496883411 -0.0293019935
  vertex -0.0100991949 0.00516002998 -0.0293019935
  endloop
 endfacet

 facet normal -0.348545283 0.937128246 -0.0175187178
  outer loop
  vertex -0.0105864564 0.00496704504 -0.0299309734
  vertex -0.0100991949 0.00516002998 -0.0293019935
  vertex -0.0100991949 0.00514827203 -0.0299309734
  endloop
 endfacet

 facet normal -0.719378233 0.694604337 -0.0044670729
  outer loop
  vertex -0.0105864564 0.00496704504 -0.0299309734
  vertex -0.010903067 0.00464318786 -0.0293019935
  vertex -0.0105886348 0.00496883411 -0.0293019935
  endloop
 endfacet

 facet normal -0.00772135518 0.999795437 -0.0186902229
  outer loop
  vertex -0.0100991949 0.00514827203 -0.0299309734
  vertex -0.0100991949 0.00516002998 -0.0293019935
  vertex -0.00758373924 0.00516769849 -0.0299309734
  endloop
 endfacet

 facet normal -0.00325108692 0.999834955 -0.0178775024
  outer loop
  vertex -0.00758373924 0.00516769849 -0.0299309734
  vertex -0.00758373924 0.00517894514 -0.0293019935
  vertex -0.0050682826 0.00517587783 -0.0299309734
  endloop
 endfacet

 facet normal -0.00751808472 0.999812007 -0.0178770907
  outer loop
  vertex -0.00758373924 0.00516769849 -0.0299309734
  vertex -0.0100991949 0.00516002998 -0.0293019935
  vertex -0.00758373924 0.00517894514 -0.0293019935
  endloop
 endfacet

 facet normal 0.246927574 0.968906045 -0.0157500505
  outer loop
  vertex -0.0050682826 0.00517587783 -0.0299309734
  vertex -0.0050682826 0.00518610235 -0.0293019935
  vertex -0.00443941867 0.00501561072 -0.0299309734
  endloop
 endfacet

 facet normal 0.241013631 0.945700765 -0.218088329
  outer loop
  vertex -0.0050682826 0.00517587783 -0.0299309734
  vertex -0.00443941867 0.00501561072 -0.0299309734
  vertex -0.00443941867 0.00492538093 -0.0303222388
  endloop
 endfacet

 facet normal -0.00284492294 0.999863863 -0.0162532851
  outer loop
  vertex -0.0050682826 0.00517587783 -0.0299309734
  vertex -0.00758373924 0.00517894514 -0.0293019935
  vertex -0.0050682826 0.00518610235 -0.0293019935
  endloop
 endfacet

 facet normal 0.288166314 0.933090329 -0.215180218
  outer loop
  vertex -0.00443941867 0.00492538093 -0.0303222388
  vertex -0.00443941867 0.00501561072 -0.0299309734
  vertex -0.00412208214 0.0048443526 -0.0302486308
  endloop
 endfacet

 facet normal 0.869837701 0.49324587 -0.00953903142
  outer loop
  vertex -0.00412208214 0.0048443526 -0.0302486308
  vertex -0.00411990331 0.00484665297 -0.0299309734
  vertex -0.00393182505 0.00452714134 -0.0293019935
  endloop
 endfacet

 facet normal 0.873023987 0.487527192 -0.0120957019
  outer loop
  vertex -0.00412208214 0.0048443526 -0.0302486308
  vertex -0.00393182505 0.00452714134 -0.0293019935
  vertex -0.00394053943 0.00452714134 -0.0299309734
  endloop
 endfacet

 facet normal 0.925832987 0.301008224 -0.22853303
  outer loop
  vertex -0.00412208214 0.0048443526 -0.0302486308
  vertex -0.00394053943 0.00452714134 -0.0299309734
  vertex -0.00403711945 0.00452714134 -0.0303222388
  endloop
 endfacet

 facet normal 0.467439264 0.883973062 -0.00960826036
  outer loop
  vertex -0.00412208214 0.0048443526 -0.0302486308
  vertex -0.00443941867 0.00501561072 -0.0299309734
  vertex -0.00411990331 0.00484665297 -0.0299309734
  endloop
 endfacet

 facet normal 0.936181486 0.264882803 -0.231087476
  outer loop
  vertex -0.00403711945 0.00452714134 -0.0303222388
  vertex -0.00394053943 0.00452714134 -0.0299309734
  vertex -0.00376262725 0.00389834214 -0.0299309734
  endloop
 endfacet

 facet normal 0.938902676 -0.236377567 -0.250175178
  outer loop
  vertex -0.00402767956 0.00326954364 -0.0303315911
  vertex -0.00376262725 0.00389834214 -0.0299309734
  vertex -0.00392093323 0.00326954364 -0.0299309734
  endloop
 endfacet

 facet normal 0.925216436 -0.288441122 -0.246528432
  outer loop
  vertex -0.00402767956 0.00326954364 -0.0303315911
  vertex -0.00392093323 0.00326954364 -0.0299309734
  vertex -0.00411118986 0.00294159655 -0.0302613005
  endloop
 endfacet

 facet normal 0.969445705 -0.244067058 -0.0246227123
  outer loop
  vertex -0.00376262725 0.00389834214 -0.0299309734
  vertex -0.00374665181 0.00389834214 -0.0293019935
  vertex -0.00392093323 0.00326954364 -0.0299309734
  endloop
 endfacet

 facet normal 0.961938918 0.272170573 -0.0244320463
  outer loop
  vertex -0.00376262725 0.00389834214 -0.0299309734
  vertex -0.00394053943 0.00452714134 -0.0299309734
  vertex -0.00374665181 0.00389834214 -0.0293019935
  endloop
 endfacet

 facet normal 0.878451467 -0.476712942 -0.032678511
  outer loop
  vertex -0.00411118986 0.00294159655 -0.0302613005
  vertex -0.00392093323 0.00326954364 -0.0299309734
  vertex -0.00410320144 0.00293367263 -0.0299309734
  endloop
 endfacet

 facet normal 0.478357077 -0.877559423 -0.0326187983
  outer loop
  vertex -0.00411118986 0.00294159655 -0.0302613005
  vertex -0.00410320144 0.00293367263 -0.0299309734
  vertex -0.00443941867 0.00275040092 -0.0299309734
  endloop
 endfacet

 facet normal 0.289240658 -0.924632311 -0.247779936
  outer loop
  vertex -0.00411118986 0.00294159655 -0.0302613005
  vertex -0.00443941867 0.00275040092 -0.0299309734
  vertex -0.00443941867 0.00285775703 -0.0303315911
  endloop
 endfacet

 facet normal -0.377140164 -0.926156223 0
  outer loop
  vertex -0.0100991949 0.00260138069 -0.0293019935
  vertex -0.0100991949 0.00260138069 -0.0274609104
  vertex -0.0101362299 0.00261646137 -0.0274609104
  endloop
 endfacet

 facet normal -0.380010307 -0.92498225 -6.73493778e-05
  outer loop
  vertex -0.0100991949 0.00260138069 -0.0293019935
  vertex -0.0101362299 0.00261646137 -0.0274609104
  vertex -0.0106075145 0.00281021348 -0.0293019935
  endloop
 endfacet

 facet normal -0.00762099493 -0.999970913 0
  outer loop
  vertex -0.0100991949 0.00260138069 -0.0293019935
  vertex -0.00758373924 0.00258220988 -0.0293019935
  vertex -0.00758373924 0.00258220988 -0.0274609104
  endloop
 endfacet

 facet normal -0.00762099493 -0.999970913 0
  outer loop
  vertex -0.0100991949 0.00260138069 -0.0293019935
  vertex -0.00758373924 0.00258220988 -0.0274609104
  vertex -0.0100991949 0.00260138069 -0.0274609104
  endloop
 endfacet

 facet normal -0.00294682919 -0.999995649 0
  outer loop
  vertex -0.00758373924 0.00258220988 -0.0293019935
  vertex -0.0050682826 0.00257479725 -0.0293019935
  vertex -0.0050682826 0.00257479725 -0.0274609104
  endloop
 endfacet

 facet normal -0.00294682919 -0.999995649 0
  outer loop
  vertex -0.00758373924 0.00258220988 -0.0293019935
  vertex -0.0050682826 0.00257479725 -0.0274609104
  vertex -0.00758373924 0.00258220988 -0.0274609104
  endloop
 endfacet

 facet normal 0.254302055 -0.966997206 -0.0157190226
  outer loop
  vertex -0.0050682826 0.00257479725 -0.0293019935
  vertex -0.00443941867 0.00275040092 -0.0299309734
  vertex -0.00443941867 0.00274017663 -0.0293019935
  endloop
 endfacet

 facet normal 0.254333436 -0.967116594 0
  outer loop
  vertex -0.0050682826 0.00257479725 -0.0293019935
  vertex -0.00443941867 0.00274017663 -0.0293019935
  vertex -0.00443941867 0.00274017663 -0.0274609104
  endloop
 endfacet

 facet normal 0.254333436 -0.967116594 0
  outer loop
  vertex -0.0050682826 0.00257479725 -0.0293019935
  vertex -0.00443941867 0.00274017663 -0.0274609104
  vertex -0.0050682826 0.00257479725 -0.0274609104
  endloop
 endfacet

 facet normal -0.380235404 -0.924889863 0
  outer loop
  vertex -0.0106075145 0.00281021348 -0.0293019935
  vertex -0.0101362299 0.00261646137 -0.0274609104
  vertex -0.0106075145 0.00281021348 -0.0274609104
  endloop
 endfacet

 facet normal -0.721823931 -0.692076802 0
  outer loop
  vertex -0.0106075145 0.00281021348 -0.0293019935
  vertex -0.0106075145 0.00281021348 -0.0274609104
  vertex -0.0109219467 0.00313816033 -0.0274609104
  endloop
 endfacet

 facet normal -0.721823931 -0.692076802 0
  outer loop
  vertex -0.0106075145 0.00281021348 -0.0293019935
  vertex -0.0109219467 0.00313816033 -0.0274609104
  vertex -0.0109219467 0.00313816033 -0.0293019935
  endloop
 endfacet

 facet normal -0.863393307 -0.504531324 0
  outer loop
  vertex -0.0109219467 0.00313816033 -0.0293019935
  vertex -0.0109219467 0.00313816033 -0.0274609104
  vertex -0.0111056687 0.00345255993 -0.0274609104
  endloop
 endfacet

 facet normal -0.866861522 -0.498547167 -0.00136801205
  outer loop
  vertex -0.0109219467 0.00313816033 -0.0293019935
  vertex -0.0111056687 0.00345255993 -0.0274609104
  vertex -0.011102763 0.00345255993 -0.0293019935
  endloop
 endfacet

 facet normal 0.4785631 -0.877937257 -0.0142713077
  outer loop
  vertex -0.00443941867 0.00275040092 -0.0299309734
  vertex -0.00410320144 0.00293367263 -0.0299309734
  vertex -0.00443941867 0.00274017663 -0.0293019935
  endloop
 endfacet

 facet normal -0.991439044 -0.130561143 -0.00156461028
  outer loop
  vertex -0.011102763 0.00345255993 -0.0293019935
  vertex -0.0111056687 0.00345255993 -0.0274609104
  vertex -0.0111601315 0.00386613561 -0.0274609104
  endloop
 endfacet

 facet normal -0.993701398 -0.112027459 -0.00274381018
  outer loop
  vertex -0.0111601315 0.00386613561 -0.0274609104
  vertex -0.0111637628 0.00389834214 -0.0274609104
  vertex -0.0111586787 0.00389834214 -0.0293019935
  endloop
 endfacet

 facet normal 0 0 1
  outer loop
  vertex -0.0111601315 0.00386613561 -0.0274609104
  vertex -0.0111056687 0.00345255993 -0.0274609104
  vertex -0.0109219467 0.00313816033 -0.0274609104
  endloop
 endfacet

 facet normal 0 0 1
  outer loop
  vertex -0.0111601315 0.00386613561 -0.0274609104
  vertex -0.0109219467 0.00313816033 -0.0274609104
  vertex -0.0106075145 0.00281021348 -0.0274609104
  endloop
 endfacet

 facet normal 0 0 1
  outer loop
  vertex -0.0111601315 0.00386613561 -0.0274609104
  vertex -0.0106075145 0.00281021348 -0.0274609104
  vertex -0.0101362299 0.00261646137 -0.0274609104
  endloop
 endfacet

 facet normal 0 0 1
  outer loop
  vertex -0.0111601315 0.00386613561 -0.0274609104
  vertex -0.0101362299 0.00261646137 -0.0274609104
  vertex -0.0100991949 0.00260138069 -0.0274609104
  endloop
 endfacet

 facet normal 0 0 1
  outer loop
  vertex -0.0111601315 0.00386613561 -0.0274609104
  vertex -0.0100991949 0.00260138069 -0.0274609104
  vertex -0.00758373924 0.00258220988 -0.0274609104
  endloop
 endfacet

 facet normal 0 0 1
  outer loop
  vertex -0.0111601315 0.00386613561 -0.0274609104
  vertex -0.00758373924 0.00258220988 -0.0274609104
  vertex -0.0050682826 0.00257479725 -0.0274609104
  endloop
 endfacet

 facet normal 0 0 1
  outer loop
  vertex -0.0111601315 0.00386613561 -0.0274609104
  vertex -0.0050682826 0.00257479725 -0.0274609104
  vertex -0.00443941867 0.00274017663 -0.0274609104
  endloop
 endfacet

 facet normal 0 0 1
  outer loop
  vertex -0.0111601315 0.00386613561 -0.0274609104
  vertex -0.00443941867 0.00274017663 -0.0274609104
  vertex -0.00412643841 0.00291859196 -0.0274609104
  endloop
 endfacet

 facet normal 0 0 1
  outer loop
  vertex -0.0111601315 0.00386613561 -0.0274609104
  vertex -0.00412643841 0.00291859196 -0.0274609104
  vertex -0.00410247501 0.00293239485 -0.0274609104
  endloop
 endfacet

 facet normal 0 0 1
  outer loop
  vertex -0.0111601315 0.00386613561 -0.0274609104
  vertex -0.00410247501 0.00293239485 -0.0274609104
  vertex -0.00391076598 0.00326954364 -0.0274609104
  endloop
 endfacet

 facet normal 0 0 1
  outer loop
  vertex -0.0111601315 0.00386613561 -0.0274609104
  vertex -0.00391076598 0.00326954364 -0.0274609104
  vertex -0.00389842154 0.00331504201 -0.0274609104
  endloop
 endfacet

 facet normal 0 0 1
  outer loop
  vertex -0.0111601315 0.00386613561 -0.0274609104
  vertex -0.00389842154 0.00331504201 -0.0274609104
  vertex -0.00374665181 0.00389834214 -0.0274609104
  endloop
 endfacet

 facet normal 0 0 1
  outer loop
  vertex -0.0111601315 0.00386613561 -0.0274609104
  vertex -0.00374665181 0.00389834214 -0.0274609104
  vertex -0.00375972269 0.00394384051 -0.0274609104
  endloop
 endfacet

 facet normal 0 0 1
  outer loop
  vertex -0.0111601315 0.00386613561 -0.0274609104
  vertex -0.00375972269 0.00394384051 -0.0274609104
  vertex -0.00393182505 0.00452714134 -0.0274609104
  endloop
 endfacet

 facet normal 0 0 1
  outer loop
  vertex -0.0111601315 0.00386613561 -0.0274609104
  vertex -0.00393182505 0.00452714134 -0.0274609104
  vertex -0.00394489663 0.00455040159 -0.0274609104
  endloop
 endfacet

 facet normal 0 0 1
  outer loop
  vertex -0.0111601315 0.00386613561 -0.0274609104
  vertex -0.00394489663 0.00455040159 -0.0274609104
  vertex -0.00411845138 0.00484767556 -0.0274609104
  endloop
 endfacet

 facet normal 0 0 1
  outer loop
  vertex -0.0111601315 0.00386613561 -0.0274609104
  vertex -0.00411845138 0.00484767556 -0.0274609104
  vertex -0.00441618171 0.0050094761 -0.0274609104
  endloop
 endfacet

 facet normal 0 0 1
  outer loop
  vertex -0.0111601315 0.00386613561 -0.0274609104
  vertex -0.00441618171 0.0050094761 -0.0274609104
  vertex -0.00443941867 0.00502200099 -0.0274609104
  endloop
 endfacet

 facet normal 0 0 1
  outer loop
  vertex -0.0111601315 0.00386613561 -0.0274609104
  vertex -0.00443941867 0.00502200099 -0.0274609104
  vertex -0.0050682826 0.00518610235 -0.0274609104
  endloop
 endfacet

 facet normal 0 0 1
  outer loop
  vertex -0.0111601315 0.00386613561 -0.0274609104
  vertex -0.0050682826 0.00518610235 -0.0274609104
  vertex -0.00758373924 0.00517894514 -0.0274609104
  endloop
 endfacet

 facet normal 0 0 1
  outer loop
  vertex -0.0111601315 0.00386613561 -0.0274609104
  vertex -0.00758373924 0.00517894514 -0.0274609104
  vertex -0.0100991949 0.00516002998 -0.0274609104
  endloop
 endfacet

 facet normal 0 0 1
  outer loop
  vertex -0.0111601315 0.00386613561 -0.0274609104
  vertex -0.0100991949 0.00516002998 -0.0274609104
  vertex -0.0105530536 0.00498289289 -0.0274609104
  endloop
 endfacet

 facet normal 0 0 1
  outer loop
  vertex -0.0111601315 0.00386613561 -0.0274609104
  vertex -0.0105530536 0.00498289289 -0.0274609104
  vertex -0.0105886348 0.00496883411 -0.0274609104
  endloop
 endfacet

 facet normal 0 0 1
  outer loop
  vertex -0.0111601315 0.00386613561 -0.0274609104
  vertex -0.0105886348 0.00496883411 -0.0274609104
  vertex -0.010903067 0.00464369915 -0.0274609104
  endloop
 endfacet

 facet normal 0 0 1
  outer loop
  vertex -0.0111601315 0.00386613561 -0.0274609104
  vertex -0.010903067 0.00464369915 -0.0274609104
  vertex -0.0110875145 0.00435179332 -0.0274609104
  endloop
 endfacet

 facet normal 0 0 1
  outer loop
  vertex -0.0111601315 0.00386613561 -0.0274609104
  vertex -0.0110875145 0.00435179332 -0.0274609104
  vertex -0.0111013101 0.00432904437 -0.0274609104
  endloop
 endfacet

 facet normal 0 0 1
  outer loop
  vertex -0.0111601315 0.00386613561 -0.0274609104
  vertex -0.0111013101 0.00432904437 -0.0274609104
  vertex -0.0111637628 0.00389834214 -0.0274609104
  endloop
 endfacet

 facet normal -0.849402189 0.527743638 -0.0015689471
  outer loop
  vertex -0.010903067 0.00464318786 -0.0293019935
  vertex -0.0110984072 0.00432878826 -0.0293019935
  vertex -0.0110875145 0.00435179332 -0.0274609104
  endloop
 endfacet

 facet normal -0.845376432 0.534171164 -0.000148338426
  outer loop
  vertex -0.010903067 0.00464318786 -0.0293019935
  vertex -0.0110875145 0.00435179332 -0.0274609104
  vertex -0.010903067 0.00464369915 -0.0274609104
  endloop
 endfacet

 facet normal -0.719385326 0.694611251 -0.000192892359
  outer loop
  vertex -0.010903067 0.00464318786 -0.0293019935
  vertex -0.010903067 0.00464369915 -0.0274609104
  vertex -0.0105886348 0.00496883411 -0.0293019935
  endloop
 endfacet

 facet normal -0.989648998 0.143500134 -0.001580721
  outer loop
  vertex -0.0111637628 0.00389834214 -0.0274609104
  vertex -0.0111013101 0.00432904437 -0.0274609104
  vertex -0.0110984072 0.00432878826 -0.0293019935
  endloop
 endfacet

 facet normal -0.855050266 0.518543184 -0.00142056716
  outer loop
  vertex -0.0110984072 0.00432878826 -0.0293019935
  vertex -0.0111013101 0.00432904437 -0.0274609104
  vertex -0.0110875145 0.00435179332 -0.0274609104
  endloop
 endfacet

 facet normal -0.367467731 0.930036306 0
  outer loop
  vertex -0.0105886348 0.00496883411 -0.0293019935
  vertex -0.0105886348 0.00496883411 -0.0274609104
  vertex -0.0105530536 0.00498289289 -0.0274609104
  endloop
 endfacet

 facet normal -0.363864362 0.931451976 -8.04498995e-05
  outer loop
  vertex -0.0105886348 0.00496883411 -0.0293019935
  vertex -0.0105530536 0.00498289289 -0.0274609104
  vertex -0.0100991949 0.00516002998 -0.0293019935
  endloop
 endfacet

 facet normal -0.718839765 0.695175827 0
  outer loop
  vertex -0.0105886348 0.00496883411 -0.0293019935
  vertex -0.010903067 0.00464369915 -0.0274609104
  vertex -0.0105886348 0.00496883411 -0.0274609104
  endloop
 endfacet

 facet normal -0.363581151 0.931562543 0
  outer loop
  vertex -0.0100991949 0.00516002998 -0.0293019935
  vertex -0.0105530536 0.00498289289 -0.0274609104
  vertex -0.0100991949 0.00516002998 -0.0274609104
  endloop
 endfacet

 facet normal -0.00751928613 0.999971747 0
  outer loop
  vertex -0.0100991949 0.00516002998 -0.0293019935
  vertex -0.0100991949 0.00516002998 -0.0274609104
  vertex -0.00758373924 0.00517894514 -0.0274609104
  endloop
 endfacet

 facet normal -0.00751928613 0.999971747 0
  outer loop
  vertex -0.0100991949 0.00516002998 -0.0293019935
  vertex -0.00758373924 0.00517894514 -0.0274609104
  vertex -0.00758373924 0.00517894514 -0.0293019935
  endloop
 endfacet

 facet normal -0.00284529896 0.999995947 0
  outer loop
  vertex -0.00758373924 0.00517894514 -0.0293019935
  vertex -0.00758373924 0.00517894514 -0.0274609104
  vertex -0.0050682826 0.00518610235 -0.0274609104
  endloop
 endfacet

 facet normal -0.00284529896 0.999995947 0
  outer loop
  vertex -0.00758373924 0.00517894514 -0.0293019935
  vertex -0.0050682826 0.00518610235 -0.0274609104
  vertex -0.0050682826 0.00518610235 -0.0293019935
  endloop
 endfacet

 facet normal 0.252493918 0.967598557 0
  outer loop
  vertex -0.0050682826 0.00518610235 -0.0293019935
  vertex -0.0050682826 0.00518610235 -0.0274609104
  vertex -0.00443941867 0.00502200099 -0.0274609104
  endloop
 endfacet

 facet normal 0.252493918 0.967598557 0
  outer loop
  vertex -0.0050682826 0.00518610235 -0.0293019935
  vertex -0.00443941867 0.00502200099 -0.0274609104
  vertex -0.00443941867 0.00502200099 -0.0293019935
  endloop
 endfacet

 facet normal 0.252481669 0.967551708 -0.00982984249
  outer loop
  vertex -0.0050682826 0.00518610235 -0.0293019935
  vertex -0.00443941867 0.00502200099 -0.0293019935
  vertex -0.00443941867 0.00501561072 -0.0299309734
  endloop
 endfacet

 facet normal 0.467441887 0.883978128 -0.00898077525
  outer loop
  vertex -0.00443941867 0.00501561072 -0.0299309734
  vertex -0.00443941867 0.00502200099 -0.0293019935
  vertex -0.00411990331 0.00484665297 -0.0299309734
  endloop
 endfacet

 facet normal 0.864187956 0.50316143 -0.00281267706
  outer loop
  vertex -0.00411990331 0.00484665297 -0.0299309734
  vertex -0.00411845138 0.00484767556 -0.0293019935
  vertex -0.00393182505 0.00452714134 -0.0293019935
  endloop
 endfacet

 facet normal 0.477272093 0.878751993 -0.00253020879
  outer loop
  vertex -0.00411990331 0.00484665297 -0.0299309734
  vertex -0.00443941867 0.00502200099 -0.0293019935
  vertex -0.00411845138 0.00484767556 -0.0293019935
  endloop
 endfacet

 facet normal 0.864191294 0.503163338 -0.000221258888
  outer loop
  vertex -0.00393182505 0.00452714134 -0.0293019935
  vertex -0.00411845138 0.00484767556 -0.0293019935
  vertex -0.00394489663 0.00455040159 -0.0274609104
  endloop
 endfacet

 facet normal 0.871772468 0.48991102 0
  outer loop
  vertex -0.00393182505 0.00452714134 -0.0293019935
  vertex -0.00394489663 0.00455040159 -0.0274609104
  vertex -0.00393182505 0.00452714134 -0.0274609104
  endloop
 endfacet

 facet normal 0.959123373 0.28298825 0
  outer loop
  vertex -0.00393182505 0.00452714134 -0.0293019935
  vertex -0.00393182505 0.00452714134 -0.0274609104
  vertex -0.00375972269 0.00394384051 -0.0274609104
  endloop
 endfacet

 facet normal 0.959269702 0.282492161 -0.000170847503
  outer loop
  vertex -0.00393182505 0.00452714134 -0.0293019935
  vertex -0.00375972269 0.00394384051 -0.0274609104
  vertex -0.00374665181 0.00389834214 -0.0293019935
  endloop
 endfacet

 facet normal 0.959184885 0.282467186 -0.0132894572
  outer loop
  vertex -0.00393182505 0.00452714134 -0.0293019935
  vertex -0.00374665181 0.00389834214 -0.0293019935
  vertex -0.00394053943 0.00452714134 -0.0299309734
  endloop
 endfacet

 facet normal 0.967468977 -0.25250569 -0.01563875
  outer loop
  vertex -0.00392093323 0.00326954364 -0.0299309734
  vertex -0.00374665181 0.00389834214 -0.0293019935
  vertex -0.00391076598 0.00326954364 -0.0293019935
  endloop
 endfacet

 facet normal 0.878832102 -0.476919502 -0.0142059717
  outer loop
  vertex -0.00392093323 0.00326954364 -0.0299309734
  vertex -0.00391076598 0.00326954364 -0.0293019935
  vertex -0.00410320144 0.00293367263 -0.0299309734
  endloop
 endfacet

 facet normal 0.961125493 0.27611199 0
  outer loop
  vertex -0.00374665181 0.00389834214 -0.0293019935
  vertex -0.00375972269 0.00394384051 -0.0274609104
  vertex -0.00374665181 0.00389834214 -0.0274609104
  endloop
 endfacet

 facet normal 0.967777431 -0.251807272 0
  outer loop
  vertex -0.00374665181 0.00389834214 -0.0293019935
  vertex -0.00374665181 0.00389834214 -0.0274609104
  vertex -0.00389842154 0.00331504201 -0.0274609104
  endloop
 endfacet

 facet normal 0.967587233 -0.252536565 -0.000246748241
  outer loop
  vertex -0.00374665181 0.00389834214 -0.0293019935
  vertex -0.00389842154 0.00331504201 -0.0274609104
  vertex -0.00391076598 0.00326954364 -0.0293019935
  endloop
 endfacet

 facet normal 0.869291425 -0.494295835 -0.00200816733
  outer loop
  vertex -0.00410320144 0.00293367263 -0.0299309734
  vertex -0.00391076598 0.00326954364 -0.0293019935
  vertex -0.00410247501 0.00293239485 -0.0293019935
  endloop
 endfacet

 facet normal 0.495513767 -0.868596911 -0.00233700569
  outer loop
  vertex -0.00410320144 0.00293367263 -0.0299309734
  vertex -0.00410247501 0.00293239485 -0.0293019935
  vertex -0.00443941867 0.00274017663 -0.0293019935
  endloop
 endfacet

 facet normal 0.495515168 -0.868599355 -6.23772066e-05
  outer loop
  vertex -0.00443941867 0.00274017663 -0.0293019935
  vertex -0.00410247501 0.00293239485 -0.0293019935
  vertex -0.00412643841 0.00291859196 -0.0274609104
  endloop
 endfacet

 facet normal 0.495238185 -0.868757188 0
  outer loop
  vertex -0.00443941867 0.00274017663 -0.0293019935
  vertex -0.00412643841 0.00291859196 -0.0274609104
  vertex -0.00443941867 0.00274017663 -0.0274609104
  endloop
 endfacet

 facet normal 0.474469274 0.88027209 0
  outer loop
  vertex -0.00443941867 0.00502200099 -0.0293019935
  vertex -0.00443941867 0.00502200099 -0.0274609104
  vertex -0.00441618171 0.0050094761 -0.0274609104
  endloop
 endfacet

 facet normal 0.477273554 0.878754795 -4.57167589e-05
  outer loop
  vertex -0.00443941867 0.00502200099 -0.0293019935
  vertex -0.00441618171 0.0050094761 -0.0274609104
  vertex -0.00411845138 0.00484767556 -0.0293019935
  endloop
 endfacet

 facet normal 0.477491826 0.878636241 0
  outer loop
  vertex -0.00411845138 0.00484767556 -0.0293019935
  vertex -0.00441618171 0.0050094761 -0.0274609104
  vertex -0.00411845138 0.00484767556 -0.0274609104
  endloop
 endfacet

 facet normal 0.863595366 0.504185736 0
  outer loop
  vertex -0.00411845138 0.00484767556 -0.0293019935
  vertex -0.00411845138 0.00484767556 -0.0274609104
  vertex -0.00394489663 0.00455040159 -0.0274609104
  endloop
 endfacet

 facet normal 0.965108991 -0.261848778 0
  outer loop
  vertex -0.00391076598 0.00326954364 -0.0293019935
  vertex -0.00389842154 0.00331504201 -0.0274609104
  vertex -0.00391076598 0.00326954364 -0.0274609104
  endloop
 endfacet

 facet normal 0.869293153 -0.494296879 0
  outer loop
  vertex -0.00391076598 0.00326954364 -0.0293019935
  vertex -0.00391076598 0.00326954364 -0.0274609104
  vertex -0.00410247501 0.00293239485 -0.0274609104
  endloop
 endfacet

 facet normal 0.869293153 -0.494296879 0
  outer loop
  vertex -0.00391076598 0.00326954364 -0.0293019935
  vertex -0.00410247501 0.00293239485 -0.0274609104
  vertex -0.00410247501 0.00293239485 -0.0293019935
  endloop
 endfacet

 facet normal 0.499117941 -0.866534114 0
  outer loop
  vertex -0.00410247501 0.00293239485 -0.0293019935
  vertex -0.00410247501 0.00293239485 -0.0274609104
  vertex -0.00412643841 0.00291859196 -0.0274609104
  endloop
 endfacet

endsolid AssimpScene
