solid AssimpScene
 facet normal 0 1 0
  outer loop
  vertex -0.0449881442 0.0395265147 -0.00196658238
  vertex -0.0449881442 0.0395265147 -0.0047515207
  vertex -0.0490052477 0.0395265147 -0.0047515207
  endloop
 endfacet

 facet normal 0 1 0
  outer loop
  vertex -0.0449881442 0.0395265147 -0.00196658238
  vertex -0.0490052477 0.0395265147 -0.0047515207
  vertex -0.0485242605 0.0395265147 -0.00196658238
  endloop
 endfacet

 facet normal 0 1 0.000208515965
  outer loop
  vertex -0.0449881442 0.0395265147 -0.00196658238
  vertex -0.0485242605 0.0395265147 -0.00196658238
  vertex -0.0485242605 0.0395258255 0.00135192217
  endloop
 endfacet

 facet normal 0 1 0.000208515965
  outer loop
  vertex -0.0449881442 0.0395265147 -0.00196658238
  vertex -0.0485242605 0.0395258255 0.00135192217
  vertex -0.0449881442 0.0395258255 0.00135192217
  endloop
 endfacet

 facet normal 0.567011178 0.823710084 0.000171756707
  outer loop
  vertex -0.0449881442 0.0395265147 -0.00196658238
  vertex -0.0449881442 0.0395258255 0.00135192217
  vertex -0.0427495837 0.0379855745 -0.00196658238
  endloop
 endfacet

 facet normal 0.567011178 0.823710084 0
  outer loop
  vertex -0.0449881442 0.0395265147 -0.00196658238
  vertex -0.0427495837 0.0379855745 -0.00196658238
  vertex -0.0449881442 0.0395265147 -0.0047515207
  endloop
 endfacet

 facet normal 0.567079902 0.823662877 -8.13764855e-05
  outer loop
  vertex -0.0449881442 0.0395265147 -0.0047515207
  vertex -0.0427495837 0.0379855745 -0.00196658238
  vertex -0.0353627503 0.0328998491 -0.00196658238
  endloop
 endfacet

 facet normal 0.567354918 0.823472023 -0.00148606894
  outer loop
  vertex -0.0449881442 0.0395265147 -0.0047515207
  vertex -0.0353627503 0.0328998491 -0.00196658238
  vertex -0.0415233374 0.0371393375 -0.0047515207
  endloop
 endfacet

 facet normal 0 0 -1
  outer loop
  vertex -0.0449881442 0.0395265147 -0.0047515207
  vertex -0.0415233374 0.0371393375 -0.0047515207
  vertex -0.0414324552 0.0370742977 -0.0047515207
  endloop
 endfacet

 facet normal 0 0 -1
  outer loop
  vertex -0.0449881442 0.0395265147 -0.0047515207
  vertex -0.0414324552 0.0370742977 -0.0047515207
  vertex -0.0413499586 0.0370134041 -0.0047515207
  endloop
 endfacet

 facet normal 0 0 -1
  outer loop
  vertex -0.0449881442 0.0395265147 -0.0047515207
  vertex -0.0413499586 0.0370134041 -0.0047515207
  vertex -0.0413401723 0.037005797 -0.0047515207
  endloop
 endfacet

 facet normal 0 0 -1
  outer loop
  vertex -0.0449881442 0.0395265147 -0.0047515207
  vertex -0.0413401723 0.037005797 -0.0047515207
  vertex -0.0412478894 0.0369317569 -0.0047515207
  endloop
 endfacet

 facet normal 0 0 -1
  outer loop
  vertex -0.0449881442 0.0395265147 -0.0047515207
  vertex -0.0412478894 0.0369317569 -0.0047515207
  vertex -0.0412367024 0.036922764 -0.0047515207
  endloop
 endfacet

 facet normal 0 0 -1
  outer loop
  vertex -0.0449881442 0.0395265147 -0.0047515207
  vertex -0.0412367024 0.036922764 -0.0047515207
  vertex -0.0411751792 0.0368701741 -0.0047515207
  endloop
 endfacet

 facet normal 0 0 -1
  outer loop
  vertex -0.0449881442 0.0395265147 -0.0047515207
  vertex -0.0411751792 0.0368701741 -0.0047515207
  vertex -0.0410787016 0.0367843769 -0.0047515207
  endloop
 endfacet

 facet normal 0 0 -1
  outer loop
  vertex -0.0449881442 0.0395265147 -0.0047515207
  vertex -0.0410787016 0.0367843769 -0.0047515207
  vertex -0.0409962051 0.0367034189 -0.0047515207
  endloop
 endfacet

 facet normal 0 0 -1
  outer loop
  vertex -0.0449881442 0.0395265147 -0.0047515207
  vertex -0.0409962051 0.0367034189 -0.0047515207
  vertex -0.040968243 0.0366750509 -0.0047515207
  endloop
 endfacet

 facet normal 0 0 -1
  outer loop
  vertex -0.0449881442 0.0395265147 -0.0047515207
  vertex -0.040968243 0.0366750509 -0.0047515207
  vertex -0.0409039259 0.0366072394 -0.0047515207
  endloop
 endfacet

 facet normal 0 0 -1
  outer loop
  vertex -0.0449881442 0.0395265147 -0.0047515207
  vertex -0.0409039259 0.0366072394 -0.0047515207
  vertex -0.040841002 0.036533203 -0.0047515207
  endloop
 endfacet

 facet normal 0 0 -1
  outer loop
  vertex -0.0449881442 0.0395265147 -0.0047515207
  vertex -0.040841002 0.036533203 -0.0047515207
  vertex -0.0407780819 0.0364536308 -0.0047515207
  endloop
 endfacet

 facet normal 0 0 -1
  outer loop
  vertex -0.0449881442 0.0395265147 -0.0047515207
  vertex -0.0407780819 0.0364536308 -0.0047515207
  vertex -0.0407347381 0.0363934338 -0.0047515207
  endloop
 endfacet

 facet normal 0 0 -1
  outer loop
  vertex -0.0449881442 0.0395265147 -0.0047515207
  vertex -0.0407347381 0.0363934338 -0.0047515207
  vertex -0.0407179594 0.0363685228 -0.0047515207
  endloop
 endfacet

 facet normal 0 0 -1
  outer loop
  vertex -0.0449881442 0.0395265147 -0.0047515207
  vertex -0.0407179594 0.0363685228 -0.0047515207
  vertex -0.0406983867 0.0363373868 -0.0047515207
  endloop
 endfacet

 facet normal 0 0 -1
  outer loop
  vertex -0.0449881442 0.0395265147 -0.0047515207
  vertex -0.0406983867 0.0363373868 -0.0047515207
  vertex -0.0406899974 0.0363235474 -0.0047515207
  endloop
 endfacet

 facet normal 0 0 -1
  outer loop
  vertex -0.0449881442 0.0395265147 -0.0047515207
  vertex -0.0406899974 0.0363235474 -0.0047515207
  vertex -0.0406550393 0.0362557359 -0.0047515207
  endloop
 endfacet

 facet normal 0 0 -1
  outer loop
  vertex -0.0449881442 0.0395265147 -0.0047515207
  vertex -0.0406550393 0.0362557359 -0.0047515207
  vertex -0.0406480506 0.0362419002 -0.0047515207
  endloop
 endfacet

 facet normal 0 0 -1
  outer loop
  vertex -0.0449881442 0.0395265147 -0.0047515207
  vertex -0.0406480506 0.0362419002 -0.0047515207
  vertex -0.0406256765 0.0361920781 -0.0047515207
  endloop
 endfacet

 facet normal 0 0 -1
  outer loop
  vertex -0.0449881442 0.0395265147 -0.0047515207
  vertex -0.0406256765 0.0361920781 -0.0047515207
  vertex -0.0406200849 0.0361761637 -0.0047515207
  endloop
 endfacet

 facet normal 0 0 -1
  outer loop
  vertex -0.0449881442 0.0395265147 -0.0047515207
  vertex -0.0406200849 0.0361761637 -0.0047515207
  vertex -0.0406088978 0.0361436419 -0.0047515207
  endloop
 endfacet

 facet normal 0 0 -1
  outer loop
  vertex -0.0449881442 0.0395265147 -0.0047515207
  vertex -0.0406088978 0.0361436419 -0.0047515207
  vertex -0.0406047031 0.0361311883 -0.0047515207
  endloop
 endfacet

 facet normal 0 0 -1
  outer loop
  vertex -0.0449881442 0.0395265147 -0.0047515207
  vertex -0.0406047031 0.0361311883 -0.0047515207
  vertex -0.0405935198 0.0360751413 -0.0047515207
  endloop
 endfacet

 facet normal 0 0 -1
  outer loop
  vertex -0.0449881442 0.0395265147 -0.0047515207
  vertex -0.0405935198 0.0360751413 -0.0047515207
  vertex -0.0405921191 0.036056459 -0.0047515207
  endloop
 endfacet

 facet normal 0 0 -1
  outer loop
  vertex -0.0449881442 0.0395265147 -0.0047515207
  vertex -0.0405921191 0.036056459 -0.0047515207
  vertex -0.0405907221 0.0360343158 -0.0047515207
  endloop
 endfacet

 facet normal 0 0 -1
  outer loop
  vertex -0.0449881442 0.0395265147 -0.0047515207
  vertex -0.0405907221 0.0360343158 -0.0047515207
  vertex -0.0405907221 0.0360239372 -0.0047515207
  endloop
 endfacet

 facet normal 0 0 -1
  outer loop
  vertex -0.0449881442 0.0395265147 -0.0047515207
  vertex -0.0405907221 0.0360239372 -0.0047515207
  vertex -0.0405935198 0.035996262 -0.0047515207
  endloop
 endfacet

 facet normal 0 0 -1
  outer loop
  vertex -0.0449881442 0.0395265147 -0.0047515207
  vertex -0.0405935198 0.035996262 -0.0047515207
  vertex -0.0405963138 0.0359789617 -0.0047515207
  endloop
 endfacet

 facet normal 0 0 -1
  outer loop
  vertex -0.0449881442 0.0395265147 -0.0047515207
  vertex -0.0405963138 0.0359789617 -0.0047515207
  vertex -0.0413261876 0.0327420868 -0.0047515207
  endloop
 endfacet

 facet normal 0 0 -1
  outer loop
  vertex -0.0449881442 0.0395265147 -0.0047515207
  vertex -0.0413261876 0.0327420868 -0.0047515207
  vertex -0.041359745 0.0325960889 -0.0047515207
  endloop
 endfacet

 facet normal 0 0 -1
  outer loop
  vertex -0.0449881442 0.0395265147 -0.0047515207
  vertex -0.041359745 0.0325960889 -0.0047515207
  vertex -0.0413919054 0.0324583948 -0.0047515207
  endloop
 endfacet

 facet normal 0 0 -1
  outer loop
  vertex -0.0449881442 0.0395265147 -0.0047515207
  vertex -0.0413919054 0.0324583948 -0.0047515207
  vertex -0.0469093062 0.0324583948 -0.0047515207
  endloop
 endfacet

 facet normal 0 0 -1
  outer loop
  vertex -0.0449881442 0.0395265147 -0.0047515207
  vertex -0.0469093062 0.0324583948 -0.0047515207
  vertex -0.0490052477 0.0395265147 -0.0047515207
  endloop
 endfacet

 facet normal -0.00120731106 0.999999344 0.000208515848
  outer loop
  vertex -0.0485242605 0.0395265147 -0.00196658238
  vertex -0.0490052477 0.0395265147 -0.0047515207
  vertex -0.0485242605 0.0395258255 0.00135192217
  endloop
 endfacet

 facet normal 0 0 1
  outer loop
  vertex -0.0449881442 0.0395258255 0.00135192217
  vertex -0.0485242605 0.0395258255 0.00135192217
  vertex -0.0382500887 0.0324577019 0.00135192217
  endloop
 endfacet

 facet normal 0 0 1
  outer loop
  vertex -0.0449881442 0.0395258255 0.00135192217
  vertex -0.0382500887 0.0324577019 0.00135192217
  vertex -0.0347223654 0.0324577019 0.00135192217
  endloop
 endfacet

 facet normal 0 0 1
  outer loop
  vertex -0.0449881442 0.0395258255 0.00135192217
  vertex -0.0347223654 0.0324577019 0.00135192217
  vertex -0.0396511108 0.0358516462 0.00135192217
  endloop
 endfacet

 facet normal 0.567049503 0.823683858 0.000209828708
  outer loop
  vertex -0.0449881442 0.0395258255 0.00135192217
  vertex -0.0396511108 0.0358516462 0.00135192217
  vertex -0.0427495837 0.0379855745 -0.00196658238
  endloop
 endfacet

 facet normal 0.567079902 0.823662877 0.000168000508
  outer loop
  vertex -0.0427495837 0.0379855745 -0.00196658238
  vertex -0.0396511108 0.0358516462 0.00135192217
  vertex -0.0353627503 0.0328998491 -0.00196658238
  endloop
 endfacet

 facet normal -0.956013501 -0.283490956 0.0753076896
  outer loop
  vertex -0.0490052477 0.0395265147 -0.0047515207
  vertex -0.0469093062 0.0324583948 -0.0047515207
  vertex -0.0485242605 0.0395258255 0.00135192217
  endloop
 endfacet

 facet normal 0.569175422 0.822182119 -0.00747685041
  outer loop
  vertex -0.0353627503 0.0328998491 -0.00196658238
  vertex -0.0395602286 0.0357879885 -0.00390904862
  vertex -0.0415233374 0.0371393375 -0.0047515207
  endloop
 endfacet

 facet normal 0.567144632 0.823618174 0.00029147786
  outer loop
  vertex -0.0353627503 0.0328998491 -0.00196658238
  vertex -0.0396511108 0.0358516462 0.00135192217
  vertex -0.0347223654 0.0324577019 0.00135192217
  endloop
 endfacet

 facet normal 0.568168044 0.822912633 0
  outer loop
  vertex -0.0353627503 0.0328998491 -0.00196658238
  vertex -0.0347223654 0.0324577019 0.00135192217
  vertex -0.0347223654 0.0324577019 -0.00170308549
  endloop
 endfacet

 facet normal 0.578207672 0.8150208 -0.0376423746
  outer loop
  vertex -0.0353627503 0.0328998491 -0.00196658238
  vertex -0.0347223654 0.0324577019 -0.00170308549
  vertex -0.0395602286 0.0357879885 -0.00390904862
  endloop
 endfacet

 facet normal 0.581195354 0.812125564 -0.0516165271
  outer loop
  vertex -0.0415233374 0.0371393375 -0.0047515207
  vertex -0.0395602286 0.0357879885 -0.00390904862
  vertex -0.0414324552 0.0370742977 -0.0047515207
  endloop
 endfacet

 facet normal -0.441713303 -0.642071366 0.626604974
  outer loop
  vertex -0.0485242605 0.0395258255 0.00135192217
  vertex -0.0469093062 0.0324583948 -0.0047515207
  vertex -0.0382500887 0.0324577019 0.00135192217
  endloop
 endfacet

 facet normal -0.000132275221 -1 7.42923148e-05
  outer loop
  vertex -0.0469093062 0.0324583948 -0.0047515207
  vertex -0.0401139259 0.0324577019 -0.00196658238
  vertex -0.0382500887 0.0324577019 0.00135192217
  endloop
 endfacet

 facet normal 0 -0.99999994 -0.000248465542
  outer loop
  vertex -0.0469093062 0.0324583948 -0.0047515207
  vertex -0.0413919054 0.0324583948 -0.0047515207
  vertex -0.0348244347 0.0324577019 -0.00196658238
  endloop
 endfacet

 facet normal 0 -0.99999994 -0.000248465542
  outer loop
  vertex -0.0469093062 0.0324583948 -0.0047515207
  vertex -0.0348244347 0.0324577019 -0.00196658238
  vertex -0.0401139259 0.0324577019 -0.00196658238
  endloop
 endfacet

 facet normal 0.58476162 0.808887661 -0.0612746999
  outer loop
  vertex -0.0395602286 0.0357879885 -0.00390904862
  vertex -0.0347223654 0.0324577019 -0.00170308549
  vertex -0.0347265601 0.0324577019 -0.00174311805
  endloop
 endfacet

 facet normal 0.59713167 0.794405341 -0.111148559
  outer loop
  vertex -0.0395602286 0.0357879885 -0.00390904862
  vertex -0.0347265601 0.0324577019 -0.00174311805
  vertex -0.035220135 0.0327974446 -0.00196658238
  endloop
 endfacet

 facet normal 0.597726941 0.793591678 -0.113731347
  outer loop
  vertex -0.0395602286 0.0357879885 -0.00390904862
  vertex -0.035220135 0.0327974446 -0.00196658238
  vertex -0.0347307548 0.0324577019 -0.00176522508
  endloop
 endfacet

 facet normal 0.600487113 0.789628029 -0.126106411
  outer loop
  vertex -0.0395602286 0.0357879885 -0.00390904862
  vertex -0.0347307548 0.0324577019 -0.00176522508
  vertex -0.0395700149 0.0357879885 -0.00395565294
  endloop
 endfacet

 facet normal 0.600160241 0.789887547 -0.126037747
  outer loop
  vertex -0.0395602286 0.0357879885 -0.00390904862
  vertex -0.0395700149 0.0357879885 -0.00395565294
  vertex -0.0413499586 0.0370134041 -0.0047515207
  endloop
 endfacet

 facet normal 0.59140116 0.801234841 -0.0909251198
  outer loop
  vertex -0.0395602286 0.0357879885 -0.00390904862
  vertex -0.0413499586 0.0370134041 -0.0047515207
  vertex -0.0414324552 0.0370742977 -0.0047515207
  endloop
 endfacet

 facet normal 0 -1 0
  outer loop
  vertex -0.0347223654 0.0324577019 0.00135192217
  vertex -0.0382500887 0.0324577019 0.00135192217
  vertex -0.0401139259 0.0324577019 -0.00196658238
  endloop
 endfacet

 facet normal 0 -1 0
  outer loop
  vertex -0.0347223654 0.0324577019 0.00135192217
  vertex -0.0401139259 0.0324577019 -0.00196658238
  vertex -0.0348244347 0.0324577019 -0.00196658238
  endloop
 endfacet

 facet normal 0 -1 0
  outer loop
  vertex -0.0347223654 0.0324577019 0.00135192217
  vertex -0.0348244347 0.0324577019 -0.00196658238
  vertex -0.0348104537 0.0324577019 -0.00194566988
  endloop
 endfacet

 facet normal 0 -1 0
  outer loop
  vertex -0.0347223654 0.0324577019 0.00135192217
  vertex -0.0348104537 0.0324577019 -0.00194566988
  vertex -0.0347810909 0.0324577019 -0.00189488218
  endloop
 endfacet

 facet normal 0 -1 0
  outer loop
  vertex -0.0347223654 0.0324577019 0.00135192217
  vertex -0.0347810909 0.0324577019 -0.00189488218
  vertex -0.0347713009 0.0324577019 -0.00187695725
  endloop
 endfacet

 facet normal 0 -1 0
  outer loop
  vertex -0.0347223654 0.0324577019 0.00135192217
  vertex -0.0347713009 0.0324577019 -0.00187695725
  vertex -0.0347643085 0.0324577019 -0.00186261733
  endloop
 endfacet

 facet normal 0 -1 0
  outer loop
  vertex -0.0347223654 0.0324577019 0.00135192217
  vertex -0.0347643085 0.0324577019 -0.00186261733
  vertex -0.0347503275 0.0324577019 -0.00182736502
  endloop
 endfacet

 facet normal 0 -1 0
  outer loop
  vertex -0.0347223654 0.0324577019 0.00135192217
  vertex -0.0347503275 0.0324577019 -0.00182736502
  vertex -0.0347433351 0.0324577019 -0.00180884253
  endloop
 endfacet

 facet normal 0 -1 0
  outer loop
  vertex -0.0347223654 0.0324577019 0.00135192217
  vertex -0.0347433351 0.0324577019 -0.00180884253
  vertex -0.0347391441 0.0324577019 -0.00179510028
  endloop
 endfacet

 facet normal 0 -1 0
  outer loop
  vertex -0.0347223654 0.0324577019 0.00135192217
  vertex -0.0347391441 0.0324577019 -0.00179510028
  vertex -0.0347307548 0.0324577019 -0.00176522508
  endloop
 endfacet

 facet normal 0 -1 0
  outer loop
  vertex -0.0347223654 0.0324577019 0.00135192217
  vertex -0.0347307548 0.0324577019 -0.00176522508
  vertex -0.0347265601 0.0324577019 -0.00174311805
  endloop
 endfacet

 facet normal 0 -1 0
  outer loop
  vertex -0.0347223654 0.0324577019 0.00135192217
  vertex -0.0347265601 0.0324577019 -0.00174311805
  vertex -0.0347223654 0.0324577019 -0.00170308549
  endloop
 endfacet

 facet normal 0.357360303 -0.0834623128 -0.930229902
  outer loop
  vertex -0.0413919054 0.0324583948 -0.0047515207
  vertex -0.041359745 0.0325960889 -0.0047515207
  vertex -0.0412534811 0.0324583948 -0.00469834311
  endloop
 endfacet

 facet normal 0.00101476966 -0.999995947 -0.0026415051
  outer loop
  vertex -0.0413919054 0.0324583948 -0.0047515207
  vertex -0.0412534811 0.0324583948 -0.00469834311
  vertex -0.0348244347 0.0324577019 -0.00196658238
  endloop
 endfacet

 facet normal 0.597660482 0.793688238 -0.113406651
  outer loop
  vertex -0.0347265601 0.0324577019 -0.00174311805
  vertex -0.0347307548 0.0324577019 -0.00176522508
  vertex -0.035220135 0.0327974446 -0.00196658238
  endloop
 endfacet

 facet normal 0.610671043 0.773092389 -0.171490833
  outer loop
  vertex -0.0347307548 0.0324577019 -0.00176522508
  vertex -0.0347391441 0.0324577019 -0.00179510028
  vertex -0.0351166651 0.0327178687 -0.00196658238
  endloop
 endfacet

 facet normal 0.60853976 0.776638627 -0.162824243
  outer loop
  vertex -0.0347307548 0.0324577019 -0.00176522508
  vertex -0.0351166651 0.0327178687 -0.00196658238
  vertex -0.0351502225 0.0327441655 -0.00196658238
  endloop
 endfacet

 facet normal 0.605706334 0.781390846 -0.1501607
  outer loop
  vertex -0.0347307548 0.0324577019 -0.00176522508
  vertex -0.0351502225 0.0327441655 -0.00196658238
  vertex -0.0395700149 0.0357879885 -0.00395565294
  endloop
 endfacet

 facet normal 0.608449936 0.776523948 -0.163704932
  outer loop
  vertex -0.0395700149 0.0357879885 -0.00395565294
  vertex -0.0351502225 0.0327441655 -0.00196658238
  vertex -0.0351166651 0.0327178687 -0.00196658238
  endloop
 endfacet

 facet normal 0.609641194 0.774264514 -0.16985926
  outer loop
  vertex -0.0395700149 0.0357879885 -0.00395565294
  vertex -0.0351166651 0.0327178687 -0.00196658238
  vertex -0.0395770073 0.0357879885 -0.00398074836
  endloop
 endfacet

 facet normal 0.609226584 0.774616122 -0.169743747
  outer loop
  vertex -0.0395700149 0.0357879885 -0.00395565294
  vertex -0.0395770073 0.0357879885 -0.00398074836
  vertex -0.0413401723 0.037005797 -0.0047515207
  endloop
 endfacet

 facet normal 0.606389284 0.779821634 -0.155467793
  outer loop
  vertex -0.0395700149 0.0357879885 -0.00395565294
  vertex -0.0413401723 0.037005797 -0.0047515207
  vertex -0.0413499586 0.0370134041 -0.0047515207
  endloop
 endfacet

 facet normal 0.00148168975 -0.999992847 -0.0034673491
  outer loop
  vertex -0.0348244347 0.0324577019 -0.00196658238
  vertex -0.035481602 0.0324583948 -0.00244697067
  vertex -0.0354102887 0.0324583948 -0.00241649803
  endloop
 endfacet

 facet normal 0.00168126705 -0.999991596 -0.00372722652
  outer loop
  vertex -0.0348244347 0.0324577019 -0.00196658238
  vertex -0.0354102887 0.0324583948 -0.00241649803
  vertex -0.0353851244 0.0324583948 -0.00240514567
  endloop
 endfacet

 facet normal 0.00193503569 -0.999989927 -0.00405166019
  outer loop
  vertex -0.0348244347 0.0324577019 -0.00196658238
  vertex -0.0353851244 0.0324583948 -0.00240514567
  vertex -0.0353375822 0.0324583948 -0.00238244073
  endloop
 endfacet

 facet normal 0.00232346938 -0.999987066 -0.00453096349
  outer loop
  vertex -0.0348244347 0.0324577019 -0.00196658238
  vertex -0.0353375822 0.0324583948 -0.00238244073
  vertex -0.0352956355 0.0324583948 -0.00236093067
  endloop
 endfacet

 facet normal 0.00259102462 -0.99998492 -0.00485065859
  outer loop
  vertex -0.0348244347 0.0324577019 -0.00196658238
  vertex -0.0352956355 0.0324583948 -0.00236093067
  vertex -0.0352676734 0.0324583948 -0.00234599342
  endloop
 endfacet

 facet normal 0.0031074665 -0.99998033 -0.00545397215
  outer loop
  vertex -0.0348244347 0.0324577019 -0.00196658238
  vertex -0.0352676734 0.0324583948 -0.00234599342
  vertex -0.0352508947 0.0324583948 -0.00233643316
  endloop
 endfacet

 facet normal 0.00385748362 -0.999972582 -0.00631877175
  outer loop
  vertex -0.0348244347 0.0324577019 -0.00196658238
  vertex -0.0352508947 0.0324583948 -0.00233643316
  vertex -0.0352019556 0.0324583948 -0.00230655842
  endloop
 endfacet

 facet normal 0.00423162896 -0.99996841 -0.00673422869
  outer loop
  vertex -0.0348244347 0.0324577019 -0.00196658238
  vertex -0.0352019556 0.0324583948 -0.00230655842
  vertex -0.0351781845 0.0324583948 -0.00229162117
  endloop
 endfacet

 facet normal 0.0045127715 -0.999965072 -0.00704020029
  outer loop
  vertex -0.0348244347 0.0324577019 -0.00196658238
  vertex -0.0351781845 0.0324583948 -0.00229162117
  vertex -0.0351362377 0.0324583948 -0.00226473343
  endloop
 endfacet

 facet normal 0.00608854881 -0.999943733 -0.00868809223
  outer loop
  vertex -0.0348244347 0.0324577019 -0.00196658238
  vertex -0.0351362377 0.0324583948 -0.00226473343
  vertex -0.0351012833 0.0324583948 -0.00224023638
  endloop
 endfacet

 facet normal 0.00954998471 -0.999880075 -0.0121897822
  outer loop
  vertex -0.0348244347 0.0324577019 -0.00196658238
  vertex -0.0351012833 0.0324583948 -0.00224023638
  vertex -0.0350173898 0.0324583948 -0.00217451132
  endloop
 endfacet

 facet normal 0.0137438327 -0.999776244 -0.0160812922
  outer loop
  vertex -0.0348244347 0.0324577019 -0.00196658238
  vertex -0.0350173898 0.0324583948 -0.00217451132
  vertex -0.0349852294 0.0324583948 -0.00214702659
  endloop
 endfacet

 facet normal 0.0257256087 -0.999310911 -0.0267566945
  outer loop
  vertex -0.0348244347 0.0324577019 -0.00196658238
  vertex -0.0349852294 0.0324583948 -0.00214702659
  vertex -0.0349460803 0.0324583948 -0.00210938416
  endloop
 endfacet

 facet normal 0.0320540629 -0.998969078 -0.0321459472
  outer loop
  vertex -0.0348244347 0.0324577019 -0.00196658238
  vertex -0.0349460803 0.0324583948 -0.00210938416
  vertex -0.0349209122 0.0324583948 -0.00208428921
  endloop
 endfacet

 facet normal 0.0573384725 -0.996954441 -0.0528586358
  outer loop
  vertex -0.0348244347 0.0324577019 -0.00196658238
  vertex -0.0349209122 0.0324583948 -0.00208428921
  vertex -0.0349027365 0.0324583948 -0.00206457172
  endloop
 endfacet

 facet normal 0.186605543 -0.969976127 -0.155964047
  outer loop
  vertex -0.0348244347 0.0324577019 -0.00196658238
  vertex -0.0349027365 0.0324583948 -0.00206457172
  vertex -0.0348607861 0.0324583948 -0.00201438204
  endloop
 endfacet

 facet normal 0.771213651 -0.239006802 -0.590004563
  outer loop
  vertex -0.0348244347 0.0324577019 -0.00196658238
  vertex -0.0348607861 0.0324583948 -0.00201438204
  vertex -0.0348370187 0.0324583948 -0.00198331219
  endloop
 endfacet

 facet normal 0.63505429 0.626577258 -0.451782107
  outer loop
  vertex -0.0348244347 0.0324577019 -0.00196658238
  vertex -0.0348370187 0.0324583948 -0.00198331219
  vertex -0.0396609008 0.0357879885 -0.00414625509
  endloop
 endfacet

 facet normal 0.635423779 0.642028809 -0.428993762
  outer loop
  vertex -0.0348244347 0.0324577019 -0.00196658238
  vertex -0.0396609008 0.0357879885 -0.00414625509
  vertex -0.0348845571 0.0325172096 -0.00196658238
  endloop
 endfacet

 facet normal 0.636568367 0.643185258 -0.425550699
  outer loop
  vertex -0.0348244347 0.0324577019 -0.00196658238
  vertex -0.0348845571 0.0325172096 -0.00196658238
  vertex -0.0348104537 0.0324577019 -0.00194566988
  endloop
 endfacet

 facet normal 0.0012046356 -0.999994457 -0.00308834366
  outer loop
  vertex -0.0348244347 0.0324577019 -0.00196658238
  vertex -0.0412534811 0.0324583948 -0.00469834311
  vertex -0.035481602 0.0324583948 -0.00244697067
  endloop
 endfacet

 facet normal 0.358544081 -0.0824090689 -0.929868221
  outer loop
  vertex -0.041359745 0.0325960889 -0.0047515207
  vertex -0.0413261876 0.0327420868 -0.0047515207
  vertex -0.0412534811 0.0324583948 -0.00469834311
  endloop
 endfacet

 facet normal 0.361388683 -0.0814886913 -0.928847551
  outer loop
  vertex -0.0412534811 0.0324583948 -0.00469834311
  vertex -0.0413261876 0.0327420868 -0.0047515207
  vertex -0.0405963138 0.0359789617 -0.0047515207
  endloop
 endfacet

 facet normal 0.362180084 -0.0816315636 -0.928526819
  outer loop
  vertex -0.0412534811 0.0324583948 -0.00469834311
  vertex -0.0405963138 0.0359789617 -0.0047515207
  vertex -0.035481602 0.0324583948 -0.00244697067
  endloop
 endfacet

 facet normal 0.613657892 0.767051876 -0.187231004
  outer loop
  vertex -0.0347391441 0.0324577019 -0.00179510028
  vertex -0.0347433351 0.0324577019 -0.00180884253
  vertex -0.0351166651 0.0327178687 -0.00196658238
  endloop
 endfacet

 facet normal 0.616826236 0.758713484 -0.209474251
  outer loop
  vertex -0.0351166651 0.0327178687 -0.00196658238
  vertex -0.0350579396 0.0326701254 -0.00196658238
  vertex -0.0395770073 0.0357879885 -0.00398074836
  endloop
 endfacet

 facet normal 0.616954029 0.75887078 -0.208525464
  outer loop
  vertex -0.0351166651 0.0327178687 -0.00196658238
  vertex -0.0347433351 0.0324577019 -0.00180884253
  vertex -0.0350579396 0.0326701254 -0.00196658238
  endloop
 endfacet

 facet normal 0.617253244 0.757635474 -0.212101385
  outer loop
  vertex -0.0395770073 0.0357879885 -0.00398074836
  vertex -0.0350579396 0.0326701254 -0.00196658238
  vertex -0.0395853966 0.0357872956 -0.00400763517
  endloop
 endfacet

 facet normal 0.616753757 0.758082509 -0.211957037
  outer loop
  vertex -0.0395770073 0.0357879885 -0.00398074836
  vertex -0.0395853966 0.0357872956 -0.00400763517
  vertex -0.0412367024 0.036922764 -0.0047515207
  endloop
 endfacet

 facet normal 0.61421442 0.763925016 -0.197887331
  outer loop
  vertex -0.0395770073 0.0357879885 -0.00398074836
  vertex -0.0412367024 0.036922764 -0.0047515207
  vertex -0.0412478894 0.0369317569 -0.0047515207
  endloop
 endfacet

 facet normal 0.613737166 0.764974892 -0.195294887
  outer loop
  vertex -0.0395770073 0.0357879885 -0.00398074836
  vertex -0.0412478894 0.0369317569 -0.0047515207
  vertex -0.0413401723 0.037005797 -0.0047515207
  endloop
 endfacet

 facet normal 0.375069797 -0.0606053323 -0.925013304
  outer loop
  vertex -0.035481602 0.0324583948 -0.00244697067
  vertex -0.0405963138 0.0359789617 -0.0047515207
  vertex -0.0405935198 0.035996262 -0.0047515207
  endloop
 endfacet

 facet normal 0.383990496 -0.0458806641 -0.922196388
  outer loop
  vertex -0.035481602 0.0324583948 -0.00244697067
  vertex -0.0405935198 0.035996262 -0.0047515207
  vertex -0.0402439609 0.0357872956 -0.00459557353
  endloop
 endfacet

 facet normal 0.392758787 -0.0313428566 -0.919107318
  outer loop
  vertex -0.035481602 0.0324583948 -0.00244697067
  vertex -0.0402439609 0.0357872956 -0.00459557353
  vertex -0.0354102887 0.0324583948 -0.00241649803
  endloop
 endfacet

 facet normal 0.411181092 0.000351478986 -0.911553621
  outer loop
  vertex -0.0354102887 0.0324583948 -0.00241649803
  vertex -0.0402439609 0.0357872956 -0.00459557353
  vertex -0.0353851244 0.0324583948 -0.00240514567
  endloop
 endfacet

 facet normal 0.42219317 0.0198896527 -0.90628767
  outer loop
  vertex -0.0353851244 0.0324583948 -0.00240514567
  vertex -0.0402439609 0.0357872956 -0.00459557353
  vertex -0.0401978195 0.0357879885 -0.00457406323
  endloop
 endfacet

 facet normal 0.430697918 0.0350971594 -0.901813507
  outer loop
  vertex -0.0353851244 0.0324583948 -0.00240514567
  vertex -0.0401978195 0.0357879885 -0.00457406323
  vertex -0.0353375822 0.0324583948 -0.00238244073
  endloop
 endfacet

 facet normal 0.441147029 0.0543148592 -0.895789742
  outer loop
  vertex -0.0353375822 0.0324583948 -0.00238244073
  vertex -0.0401978195 0.0357879885 -0.00457406323
  vertex -0.0405935198 0.0360751413 -0.0047515207
  endloop
 endfacet

 facet normal 0.454838872 0.0799862817 -0.886974573
  outer loop
  vertex -0.0353375822 0.0324583948 -0.00238244073
  vertex -0.0405935198 0.0360751413 -0.0047515207
  vertex -0.0352956355 0.0324583948 -0.00236093067
  endloop
 endfacet

 facet normal 0.461066574 0.0920120254 -0.882582188
  outer loop
  vertex -0.0352956355 0.0324583948 -0.00236093067
  vertex -0.0405935198 0.0360751413 -0.0047515207
  vertex -0.0406047031 0.0361311883 -0.0047515207
  endloop
 endfacet

 facet normal 0.468484044 0.106335394 -0.877049327
  outer loop
  vertex -0.0352956355 0.0324583948 -0.00236093067
  vertex -0.0406047031 0.0361311883 -0.0047515207
  vertex -0.0352676734 0.0324583948 -0.00234599342
  endloop
 endfacet

 facet normal 0.489548773 0.148624986 -0.859216213
  outer loop
  vertex -0.0352676734 0.0324583948 -0.00234599342
  vertex -0.0406047031 0.0361311883 -0.0047515207
  vertex -0.0352508947 0.0324583948 -0.00233643316
  endloop
 endfacet

 facet normal 0.498810828 0.168008089 -0.850271165
  outer loop
  vertex -0.0352508947 0.0324583948 -0.00233643316
  vertex -0.0406047031 0.0361311883 -0.0047515207
  vertex -0.0406088978 0.0361436419 -0.0047515207
  endloop
 endfacet

 facet normal 0.500827193 0.172278032 -0.848229051
  outer loop
  vertex -0.0352508947 0.0324583948 -0.00233643316
  vertex -0.0406088978 0.0361436419 -0.0047515207
  vertex -0.0406200849 0.0361761637 -0.0047515207
  endloop
 endfacet

 facet normal 0.502412558 0.175623342 -0.84660387
  outer loop
  vertex -0.0352508947 0.0324583948 -0.00233643316
  vertex -0.0406200849 0.0361761637 -0.0047515207
  vertex -0.0400202461 0.0357879885 -0.00447607413
  endloop
 endfacet

 facet normal 0.51114589 0.194121391 -0.83728528
  outer loop
  vertex -0.0352508947 0.0324583948 -0.00233643316
  vertex -0.0400202461 0.0357879885 -0.00447607413
  vertex -0.0352019556 0.0324583948 -0.00230655842
  endloop
 endfacet

 facet normal 0.519818485 0.213216275 -0.827240944
  outer loop
  vertex -0.0352019556 0.0324583948 -0.00230655842
  vertex -0.0400202461 0.0357879885 -0.00447607413
  vertex -0.0351781845 0.0324583948 -0.00229162117
  endloop
 endfacet

 facet normal 0.525637329 0.226411626 -0.820026338
  outer loop
  vertex -0.0351781845 0.0324583948 -0.00229162117
  vertex -0.0400202461 0.0357879885 -0.00447607413
  vertex -0.0351362377 0.0324583948 -0.00226473343
  endloop
 endfacet

 facet normal 0.536693692 0.252544969 -0.805096865
  outer loop
  vertex -0.0351362377 0.0324583948 -0.00226473343
  vertex -0.0400202461 0.0357879885 -0.00447607413
  vertex -0.0399852879 0.0357879885 -0.00445277151
  endloop
 endfacet

 facet normal 0.540001988 0.260489523 -0.800339401
  outer loop
  vertex -0.0351362377 0.0324583948 -0.00226473343
  vertex -0.0399852879 0.0357879885 -0.00445277151
  vertex -0.0399587229 0.0357879885 -0.00443484634
  endloop
 endfacet

 facet normal 0.550076187 0.285120845 -0.78493464
  outer loop
  vertex -0.0351362377 0.0324583948 -0.00226473343
  vertex -0.0399587229 0.0357879885 -0.00443484634
  vertex -0.0351012833 0.0324583948 -0.00224023638
  endloop
 endfacet

 facet normal 0.558932424 0.307941735 -0.769913375
  outer loop
  vertex -0.0351012833 0.0324583948 -0.00224023638
  vertex -0.0399587229 0.0357879885 -0.00443484634
  vertex -0.0406899974 0.0363235474 -0.0047515207
  endloop
 endfacet

 facet normal 0.573748112 0.347819567 -0.741508365
  outer loop
  vertex -0.0351012833 0.0324583948 -0.00224023638
  vertex -0.0406899974 0.0363235474 -0.0047515207
  vertex -0.0406983867 0.0363373868 -0.0047515207
  endloop
 endfacet

 facet normal 0.576448083 0.355418026 -0.73578918
  outer loop
  vertex -0.0351012833 0.0324583948 -0.00224023638
  vertex -0.0406983867 0.0363373868 -0.0047515207
  vertex -0.0350173898 0.0324583948 -0.00217451132
  endloop
 endfacet

 facet normal 0.579446733 0.364271522 -0.729073226
  outer loop
  vertex -0.0350173898 0.0324583948 -0.00217451132
  vertex -0.0406983867 0.0363373868 -0.0047515207
  vertex -0.0407179594 0.0363685228 -0.0047515207
  endloop
 endfacet

 facet normal 0.590281963 0.397589028 -0.702488661
  outer loop
  vertex -0.0350173898 0.0324583948 -0.00217451132
  vertex -0.0407179594 0.0363685228 -0.0047515207
  vertex -0.0398412719 0.0357879885 -0.00434342958
  endloop
 endfacet

 facet normal 0.593339622 0.407384217 -0.694252253
  outer loop
  vertex -0.0350173898 0.0324583948 -0.00217451132
  vertex -0.0398412719 0.0357879885 -0.00434342958
  vertex -0.0398147032 0.0357879885 -0.0043207244
  endloop
 endfacet

 facet normal 0.593340039 0.40738529 -0.694251299
  outer loop
  vertex -0.0350173898 0.0324583948 -0.00217451132
  vertex -0.0398147032 0.0357879885 -0.0043207244
  vertex -0.0349852294 0.0324583948 -0.00214702659
  endloop
 endfacet

 facet normal 0.611198545 0.471516311 -0.635695457
  outer loop
  vertex -0.0349852294 0.0324583948 -0.00214702659
  vertex -0.0398147032 0.0357879885 -0.0043207244
  vertex -0.0349460803 0.0324583948 -0.00210938416
  endloop
 endfacet

 facet normal 0.612310052 0.476163 -0.631146073
  outer loop
  vertex -0.0349460803 0.0324583948 -0.00210938416
  vertex -0.0398147032 0.0357879885 -0.0043207244
  vertex -0.0397629701 0.0357879885 -0.0042705345
  endloop
 endfacet

 facet normal 0.615577579 0.489849895 -0.617342174
  outer loop
  vertex -0.0349460803 0.0324583948 -0.00210938416
  vertex -0.0397629701 0.0357879885 -0.0042705345
  vertex -0.0349209122 0.0324583948 -0.00208428921
  endloop
 endfacet

 facet normal 0.622431636 0.522609591 -0.582630396
  outer loop
  vertex -0.0349209122 0.0324583948 -0.00208428921
  vertex -0.0397629701 0.0357879885 -0.0042705345
  vertex -0.0397405997 0.0357879885 -0.00424663443
  endloop
 endfacet

 facet normal 0.623737931 0.529452264 -0.575005472
  outer loop
  vertex -0.0349209122 0.0324583948 -0.00208428921
  vertex -0.0397405997 0.0357879885 -0.00424663443
  vertex -0.0349027365 0.0324583948 -0.00206457172
  endloop
 endfacet

 facet normal 0.626870155 0.547657728 -0.55417037
  outer loop
  vertex -0.0349027365 0.0324583948 -0.00206457172
  vertex -0.0397405997 0.0357879885 -0.00424663443
  vertex -0.0397168286 0.0357879885 -0.00421974715
  endloop
 endfacet

 facet normal 0.630275905 0.570310056 -0.526781619
  outer loop
  vertex -0.0349027365 0.0324583948 -0.00206457172
  vertex -0.0397168286 0.0357879885 -0.00421974715
  vertex -0.0348607861 0.0324583948 -0.00201438204
  endloop
 endfacet

 facet normal 0.633030534 0.596133411 -0.493859708
  outer loop
  vertex -0.0348607861 0.0324583948 -0.00201438204
  vertex -0.0397168286 0.0357879885 -0.00421974715
  vertex -0.0397056416 0.0357879885 -0.00420540757
  endloop
 endfacet

 facet normal 0.633237481 0.598496556 -0.490726203
  outer loop
  vertex -0.0348607861 0.0324583948 -0.00201438204
  vertex -0.0397056416 0.0357879885 -0.00420540757
  vertex -0.0396762826 0.0357872956 -0.00416836282
  endloop
 endfacet

 facet normal 0.633631468 0.602933764 -0.484749526
  outer loop
  vertex -0.0348607861 0.0324583948 -0.00201438204
  vertex -0.0396762826 0.0357872956 -0.00416836282
  vertex -0.0348370187 0.0324583948 -0.00198331219
  endloop
 endfacet

 facet normal 0.634744227 0.620111525 -0.461043894
  outer loop
  vertex -0.0348370187 0.0324583948 -0.00198331219
  vertex -0.0396762826 0.0357872956 -0.00416836282
  vertex -0.0396609008 0.0357879885 -0.00414625509
  endloop
 endfacet

 facet normal 0.634434164 0.62057817 -0.460842729
  outer loop
  vertex -0.0396609008 0.0357879885 -0.00414625509
  vertex -0.0396762826 0.0357872956 -0.00416836282
  vertex -0.040968243 0.0366750509 -0.0047515207
  endloop
 endfacet

 facet normal 0.634578049 0.625514507 -0.453919023
  outer loop
  vertex -0.0396609008 0.0357879885 -0.00414625509
  vertex -0.040968243 0.0366750509 -0.0047515207
  vertex -0.0409962051 0.0367034189 -0.0047515207
  endloop
 endfacet

 facet normal 0.63493073 0.646997452 -0.422205329
  outer loop
  vertex -0.0396609008 0.0357879885 -0.00414625509
  vertex -0.0409962051 0.0367034189 -0.0047515207
  vertex -0.0410787016 0.0367843769 -0.0047515207
  endloop
 endfacet

 facet normal 0.63502878 0.650859058 -0.416078091
  outer loop
  vertex -0.0396609008 0.0357879885 -0.00414625509
  vertex -0.0410787016 0.0367843769 -0.0047515207
  vertex -0.0396413244 0.0357879885 -0.00411638012
  endloop
 endfacet

 facet normal 0.635359466 0.650397658 -0.416294754
  outer loop
  vertex -0.0396609008 0.0357879885 -0.00414625509
  vertex -0.0396413244 0.0357879885 -0.00411638012
  vertex -0.0348845571 0.0325172096 -0.00196658238
  endloop
 endfacet

 facet normal 0.637930095 0.684823811 -0.352223992
  outer loop
  vertex -0.0348845571 0.0325172096 -0.00196658238
  vertex -0.0349083282 0.0325393528 -0.00196658238
  vertex -0.0347810909 0.0324577019 -0.00189488218
  endloop
 endfacet

 facet normal 0.642779231 0.669867754 -0.371634334
  outer loop
  vertex -0.0348845571 0.0325172096 -0.00196658238
  vertex -0.0347810909 0.0324577019 -0.00189488218
  vertex -0.0348104537 0.0324577019 -0.00194566988
  endloop
 endfacet

 facet normal 0.635039568 0.663103282 -0.396256089
  outer loop
  vertex -0.0348845571 0.0325172096 -0.00196658238
  vertex -0.0396413244 0.0357879885 -0.00411638012
  vertex -0.0396301411 0.0357879885 -0.00409845496
  endloop
 endfacet

 facet normal 0.634020746 0.680627227 -0.367102593
  outer loop
  vertex -0.0348845571 0.0325172096 -0.00196658238
  vertex -0.0396301411 0.0357879885 -0.00409845496
  vertex -0.0349083282 0.0325393528 -0.00196658238
  endloop
 endfacet

 facet normal 0.622069836 0.746917963 -0.234825209
  outer loop
  vertex -0.0347433351 0.0324577019 -0.00180884253
  vertex -0.0347503275 0.0324577019 -0.00182736502
  vertex -0.0350579396 0.0326701254 -0.00196658238
  endloop
 endfacet

 facet normal 0.624449968 0.736280084 -0.260679811
  outer loop
  vertex -0.0350579396 0.0326701254 -0.00196658238
  vertex -0.0396021754 0.0357879885 -0.00404587528
  vertex -0.0395853966 0.0357872956 -0.00400763517
  endloop
 endfacet

 facet normal 0.623901129 0.741290927 -0.247457594
  outer loop
  vertex -0.0350579396 0.0326701254 -0.00196658238
  vertex -0.0347503275 0.0324577019 -0.00182736502
  vertex -0.0347643085 0.0324577019 -0.00186261733
  endloop
 endfacet

 facet normal 0.624947488 0.734761596 -0.263753861
  outer loop
  vertex -0.0350579396 0.0326701254 -0.00196658238
  vertex -0.0347643085 0.0324577019 -0.00186261733
  vertex -0.0349684507 0.032594014 -0.00196658238
  endloop
 endfacet

 facet normal 0.624899626 0.734705329 -0.26402387
  outer loop
  vertex -0.0350579396 0.0326701254 -0.00196658238
  vertex -0.0349684507 0.032594014 -0.00196658238
  vertex -0.0396021754 0.0357879885 -0.00404587528
  endloop
 endfacet

 facet normal 0.623953283 0.736781299 -0.260452807
  outer loop
  vertex -0.0395853966 0.0357872956 -0.00400763517
  vertex -0.0396021754 0.0357879885 -0.00404587528
  vertex -0.0412367024 0.036922764 -0.0047515207
  endloop
 endfacet

 facet normal 0.625259519 0.731482685 -0.271999538
  outer loop
  vertex -0.0412367024 0.036922764 -0.0047515207
  vertex -0.0396021754 0.0357879885 -0.00404587528
  vertex -0.0411751792 0.0368701741 -0.0047515207
  endloop
 endfacet

 facet normal 0.387491703 -0.0391616151 -0.921041012
  outer loop
  vertex -0.0405935198 0.035996262 -0.0047515207
  vertex -0.0405907221 0.0360239372 -0.0047515207
  vertex -0.0402439609 0.0357872956 -0.00459557353
  endloop
 endfacet

 facet normal 0.410157651 0 -0.912014663
  outer loop
  vertex -0.0402439609 0.0357872956 -0.00459557353
  vertex -0.0405907221 0.0360239372 -0.0047515207
  vertex -0.0405907221 0.0360343158 -0.0047515207
  endloop
 endfacet

 facet normal 0.422180504 0.0204976238 -0.906280041
  outer loop
  vertex -0.0402439609 0.0357872956 -0.00459557353
  vertex -0.0405907221 0.0360343158 -0.0047515207
  vertex -0.0401978195 0.0357879885 -0.00457406323
  endloop
 endfacet

 facet normal 0.425406784 0.0268511698 -0.904603839
  outer loop
  vertex -0.0401978195 0.0357879885 -0.00457406323
  vertex -0.0405907221 0.0360343158 -0.0047515207
  vertex -0.0405921191 0.036056459 -0.0047515207
  endloop
 endfacet

 facet normal 0.428282589 0.032085292 -0.903075099
  outer loop
  vertex -0.0401978195 0.0357879885 -0.00457406323
  vertex -0.0405921191 0.036056459 -0.0047515207
  vertex -0.0405935198 0.0360751413 -0.0047515207
  endloop
 endfacet

 facet normal 0.502888918 0.176722467 -0.846092224
  outer loop
  vertex -0.0406200849 0.0361761637 -0.0047515207
  vertex -0.0406256765 0.0361920781 -0.0047515207
  vertex -0.0400202461 0.0357879885 -0.00447607413
  endloop
 endfacet

 facet normal 0.529191554 0.237633526 -0.814546883
  outer loop
  vertex -0.0400202461 0.0357879885 -0.00447607413
  vertex -0.0406256765 0.0361920781 -0.0047515207
  vertex -0.0406480506 0.0362419002 -0.0047515207
  endloop
 endfacet

 facet normal 0.536530793 0.253667265 -0.804852545
  outer loop
  vertex -0.0400202461 0.0357879885 -0.00447607413
  vertex -0.0406480506 0.0362419002 -0.0047515207
  vertex -0.0399852879 0.0357879885 -0.00445277151
  endloop
 endfacet

 facet normal 0.539830565 0.261622995 -0.800085247
  outer loop
  vertex -0.0399852879 0.0357879885 -0.00445277151
  vertex -0.0406480506 0.0362419002 -0.0047515207
  vertex -0.0399587229 0.0357879885 -0.00443484634
  endloop
 endfacet

 facet normal 0.545090795 0.275340468 -0.791873515
  outer loop
  vertex -0.0399587229 0.0357879885 -0.00443484634
  vertex -0.0406480506 0.0362419002 -0.0047515207
  vertex -0.0406550393 0.0362557359 -0.0047515207
  endloop
 endfacet

 facet normal 0.547842264 0.282417536 -0.787470102
  outer loop
  vertex -0.0399587229 0.0357879885 -0.00443484634
  vertex -0.0406550393 0.0362557359 -0.0047515207
  vertex -0.0406899974 0.0363235474 -0.0047515207
  endloop
 endfacet

 facet normal 0.590292454 0.397625804 -0.702458978
  outer loop
  vertex -0.0407179594 0.0363685228 -0.0047515207
  vertex -0.0407347381 0.0363934338 -0.0047515207
  vertex -0.0398412719 0.0357879885 -0.00434342958
  endloop
 endfacet

 facet normal 0.593274355 0.407609314 -0.694175899
  outer loop
  vertex -0.0398412719 0.0357879885 -0.00434342958
  vertex -0.0407347381 0.0363934338 -0.0047515207
  vertex -0.0398147032 0.0357879885 -0.0043207244
  endloop
 endfacet

 facet normal 0.599627852 0.431741357 -0.673829317
  outer loop
  vertex -0.0398147032 0.0357879885 -0.0043207244
  vertex -0.0407347381 0.0363934338 -0.0047515207
  vertex -0.0407780819 0.0364536308 -0.0047515207
  endloop
 endfacet

 facet normal 0.611855745 0.477366 -0.63067776
  outer loop
  vertex -0.0398147032 0.0357879885 -0.0043207244
  vertex -0.0407780819 0.0364536308 -0.0047515207
  vertex -0.0397629701 0.0357879885 -0.0042705345
  endloop
 endfacet

 facet normal 0.613384247 0.48502183 -0.623308599
  outer loop
  vertex -0.0397629701 0.0357879885 -0.0042705345
  vertex -0.0407780819 0.0364536308 -0.0047515207
  vertex -0.040841002 0.036533203 -0.0047515207
  endloop
 endfacet

 facet normal 0.621860504 0.52388376 -0.582095742
  outer loop
  vertex -0.0397629701 0.0357879885 -0.0042705345
  vertex -0.040841002 0.036533203 -0.0047515207
  vertex -0.0397405997 0.0357879885 -0.00424663443
  endloop
 endfacet

 facet normal 0.622802138 0.529290378 -0.576167762
  outer loop
  vertex -0.0397405997 0.0357879885 -0.00424663443
  vertex -0.040841002 0.036533203 -0.0047515207
  vertex -0.0409039259 0.0366072394 -0.0047515207
  endloop
 endfacet

 facet normal 0.626538634 0.548333287 -0.553877234
  outer loop
  vertex -0.0397405997 0.0357879885 -0.00424663443
  vertex -0.0409039259 0.0366072394 -0.0047515207
  vertex -0.0397168286 0.0357879885 -0.00421974715
  endloop
 endfacet

 facet normal 0.632817686 0.596496701 -0.493693709
  outer loop
  vertex -0.0397168286 0.0357879885 -0.00421974715
  vertex -0.0409039259 0.0366072394 -0.0047515207
  vertex -0.0397056416 0.0357879885 -0.00420540757
  endloop
 endfacet

 facet normal 0.633013666 0.598884523 -0.490541577
  outer loop
  vertex -0.0397056416 0.0357879885 -0.00420540757
  vertex -0.0409039259 0.0366072394 -0.0047515207
  vertex -0.0396762826 0.0357872956 -0.00416836282
  endloop
 endfacet

 facet normal 0.633099973 0.600505114 -0.488444537
  outer loop
  vertex -0.0396762826 0.0357872956 -0.00416836282
  vertex -0.0409039259 0.0366072394 -0.0047515207
  vertex -0.040968243 0.0366750509 -0.0047515207
  endloop
 endfacet

 facet normal 0.634868264 0.663331032 -0.396149248
  outer loop
  vertex -0.0410787016 0.0367843769 -0.0047515207
  vertex -0.0396301411 0.0357879885 -0.00409845496
  vertex -0.0396413244 0.0357879885 -0.00411638012
  endloop
 endfacet

 facet normal 0.630050898 0.708468616 -0.317975014
  outer loop
  vertex -0.0410787016 0.0367843769 -0.0047515207
  vertex -0.0411751792 0.0368701741 -0.0047515207
  vertex -0.0396021754 0.0357879885 -0.00404587528
  endloop
 endfacet

 facet normal 0.631901979 0.698394299 -0.336073399
  outer loop
  vertex -0.0410787016 0.0367843769 -0.0047515207
  vertex -0.0396021754 0.0357879885 -0.00404587528
  vertex -0.0396301411 0.0357879885 -0.00409845496
  endloop
 endfacet

 facet normal 0.634060502 0.697397232 -0.33407259
  outer loop
  vertex -0.0349083282 0.0325393528 -0.00196658238
  vertex -0.0349684507 0.032594014 -0.00196658238
  vertex -0.0347713009 0.0324577019 -0.00187695725
  endloop
 endfacet

 facet normal 0.637301803 0.687574565 -0.347976625
  outer loop
  vertex -0.0349083282 0.0325393528 -0.00196658238
  vertex -0.0347713009 0.0324577019 -0.00187695725
  vertex -0.0347810909 0.0324577019 -0.00189488218
  endloop
 endfacet

 facet normal 0.632446468 0.695622087 -0.340765923
  outer loop
  vertex -0.0349083282 0.0325393528 -0.00196658238
  vertex -0.0396301411 0.0357879885 -0.00409845496
  vertex -0.0349684507 0.032594014 -0.00196658238
  endloop
 endfacet

 facet normal 0.632093906 0.698171496 -0.336175501
  outer loop
  vertex -0.0396301411 0.0357879885 -0.00409845496
  vertex -0.0396021754 0.0357879885 -0.00404587528
  vertex -0.0349684507 0.032594014 -0.00196658238
  endloop
 endfacet

 facet normal 0.631824911 0.711257637 -0.308074743
  outer loop
  vertex -0.0347643085 0.0324577019 -0.00186261733
  vertex -0.0347713009 0.0324577019 -0.00187695725
  vertex -0.0349684507 0.032594014 -0.00196658238
  endloop
 endfacet

endsolid AssimpScene
