solid AssimpScene
 facet normal 0.00642841076 0.00933595188 0.999935746
  outer loop
  vertex -0.0347196534 0.0324577019 0.00135113799
  vertex -0.0352117494 0.0160773974 0.00150723709
  vertex -0.0299520008 0.0291748624 0.00135113799
  endloop
 endfacet

 facet normal 0.567124367 0.823632181 0
  outer loop
  vertex -0.0347196534 0.0324577019 0.00135113799
  vertex -0.0299520008 0.0291748624 0.00135113799
  vertex -0.0299520008 0.0291748624 0.00046337425
  endloop
 endfacet

 facet normal 0.567124367 0.823632181 0
  outer loop
  vertex -0.0347196534 0.0324577019 0.00135113799
  vertex -0.0299520008 0.0291748624 0.00046337425
  vertex -0.0347196534 0.0324577019 -0.00168438943
  endloop
 endfacet

 facet normal 0 1 0
  outer loop
  vertex -0.0347196534 0.0324577019 0.00135113799
  vertex -0.0347196534 0.0324577019 -0.00168438943
  vertex -0.0347236879 0.0324577019 -0.00173001864
  endloop
 endfacet

 facet normal 0 1 0
  outer loop
  vertex -0.0347196534 0.0324577019 0.00135113799
  vertex -0.0347236879 0.0324577019 -0.00173001864
  vertex -0.0347277224 0.0324577019 -0.00176043762
  endloop
 endfacet

 facet normal 0 1 0
  outer loop
  vertex -0.0347196534 0.0324577019 0.00135113799
  vertex -0.0347277224 0.0324577019 -0.00176043762
  vertex -0.0347418375 0.0324577019 -0.00180926884
  endloop
 endfacet

 facet normal 0 1 0
  outer loop
  vertex -0.0347196534 0.0324577019 0.00135113799
  vertex -0.0347418375 0.0324577019 -0.00180926884
  vertex -0.0347478874 0.0324577019 -0.00182768016
  endloop
 endfacet

 facet normal 0 1 0
  outer loop
  vertex -0.0347196534 0.0324577019 0.00135113799
  vertex -0.0347478874 0.0324577019 -0.00182768016
  vertex -0.0347620063 0.0324577019 -0.00185890018
  endloop
 endfacet

 facet normal 0 1 0
  outer loop
  vertex -0.0347196534 0.0324577019 0.00135113799
  vertex -0.0347620063 0.0324577019 -0.00185890018
  vertex -0.0347801559 0.0324577019 -0.00189492328
  endloop
 endfacet

 facet normal 0 1 0
  outer loop
  vertex -0.0347196534 0.0324577019 0.00135113799
  vertex -0.0347801559 0.0324577019 -0.00189492328
  vertex -0.0347983092 0.0324577019 -0.0019277439
  endloop
 endfacet

 facet normal 0 1 0
  outer loop
  vertex -0.0347196534 0.0324577019 0.00135113799
  vertex -0.0347983092 0.0324577019 -0.0019277439
  vertex -0.0348184779 0.0324577019 -0.0019597644
  endloop
 endfacet

 facet normal 0 1 0
  outer loop
  vertex -0.0347196534 0.0324577019 0.00135113799
  vertex -0.0348184779 0.0324577019 -0.0019597644
  vertex -0.0348346084 0.0324577019 -0.00198297901
  endloop
 endfacet

 facet normal 0 1 0
  outer loop
  vertex -0.0347196534 0.0324577019 0.00135113799
  vertex -0.0348346084 0.0324577019 -0.00198297901
  vertex -0.0348446965 0.0324577019 -0.0019973882
  endloop
 endfacet

 facet normal 0 1 0
  outer loop
  vertex -0.0347196534 0.0324577019 0.00135113799
  vertex -0.0348446965 0.0324577019 -0.0019973882
  vertex -0.0348749459 0.0324577019 -0.00203421153
  endloop
 endfacet

 facet normal 0 1 0
  outer loop
  vertex -0.0347196534 0.0324577019 0.00135113799
  vertex -0.0348749459 0.0324577019 -0.00203421153
  vertex -0.03489713 0.0324577019 -0.00205982779
  endloop
 endfacet

 facet normal 0 1 0
  outer loop
  vertex -0.0347196534 0.0324577019 0.00135113799
  vertex -0.03489713 0.0324577019 -0.00205982779
  vertex -0.0349132642 0.0324577019 -0.0020774391
  endloop
 endfacet

 facet normal 0 1 0
  outer loop
  vertex -0.0347196534 0.0324577019 0.00135113799
  vertex -0.0349132642 0.0324577019 -0.0020774391
  vertex -0.0349616669 0.0324577019 -0.00212627021
  endloop
 endfacet

 facet normal 0 1 0
  outer loop
  vertex -0.0347196534 0.0324577019 0.00135113799
  vertex -0.0349616669 0.0324577019 -0.00212627021
  vertex -0.034983851 0.0324577019 -0.0021462827
  endloop
 endfacet

 facet normal 0 1 0
  outer loop
  vertex -0.0347196534 0.0324577019 0.00135113799
  vertex -0.034983851 0.0324577019 -0.0021462827
  vertex -0.035020154 0.0324577019 -0.00217750273
  endloop
 endfacet

 facet normal 0 1 0
  outer loop
  vertex -0.0347196534 0.0324577019 0.00135113799
  vertex -0.035020154 0.0324577019 -0.00217750273
  vertex -0.0350403227 0.0324577019 -0.00219431333
  endloop
 endfacet

 facet normal 0 1 0
  outer loop
  vertex -0.0347196534 0.0324577019 0.00135113799
  vertex -0.0350403227 0.0324577019 -0.00219431333
  vertex -0.0350826718 0.0324577019 -0.00222793478
  endloop
 endfacet

 facet normal 0 1 0
  outer loop
  vertex -0.0347196534 0.0324577019 0.00135113799
  vertex -0.0350826718 0.0324577019 -0.00222793478
  vertex -0.035135109 0.0324577019 -0.00226475787
  endloop
 endfacet

 facet normal 0 1 0
  outer loop
  vertex -0.0347196534 0.0324577019 0.00135113799
  vertex -0.035135109 0.0324577019 -0.00226475787
  vertex -0.0351814963 0.0324577019 -0.0022959779
  endloop
 endfacet

 facet normal 0 1 0
  outer loop
  vertex -0.0347196534 0.0324577019 0.00135113799
  vertex -0.0351814963 0.0324577019 -0.0022959779
  vertex -0.0352662019 0.0324577019 -0.00234560925
  endloop
 endfacet

 facet normal 0 1 0
  outer loop
  vertex -0.0347196534 0.0324577019 0.00135113799
  vertex -0.0352662019 0.0324577019 -0.00234560925
  vertex -0.0353105702 0.0324577019 -0.0023696248
  endloop
 endfacet

 facet normal 0 1 0
  outer loop
  vertex -0.0347196534 0.0324577019 0.00135113799
  vertex -0.0353105702 0.0324577019 -0.0023696248
  vertex -0.0353650227 0.0324577019 -0.00239604106
  endloop
 endfacet

 facet normal 0 1 0
  outer loop
  vertex -0.0347196534 0.0324577019 0.00135113799
  vertex -0.0353650227 0.0324577019 -0.00239604106
  vertex -0.0354073755 0.0324577019 -0.00241605425
  endloop
 endfacet

 facet normal 0 1 0
  outer loop
  vertex -0.0347196534 0.0324577019 0.00135113799
  vertex -0.0354073755 0.0324577019 -0.00241605425
  vertex -0.0354819931 0.0324577019 -0.00244647358
  endloop
 endfacet

 facet normal 0 1 0
  outer loop
  vertex -0.0347196534 0.0324577019 0.00135113799
  vertex -0.0354819931 0.0324577019 -0.00244647358
  vertex -0.0357441753 0.0324577019 -0.00254893862
  endloop
 endfacet

 facet normal 0 1 0
  outer loop
  vertex -0.0347196534 0.0324577019 0.00135113799
  vertex -0.0357441753 0.0324577019 -0.00254893862
  vertex -0.0361334123 0.0324577019 -0.00270023453
  endloop
 endfacet

 facet normal 0 1 0
  outer loop
  vertex -0.0347196534 0.0324577019 0.00135113799
  vertex -0.0361334123 0.0324577019 -0.00270023453
  vertex -0.0361334123 0.0324577019 0.00135113799
  endloop
 endfacet

 facet normal 0 0.0095292544 0.999954641
  outer loop
  vertex -0.0347196534 0.0324577019 0.00135113799
  vertex -0.0361334123 0.0324577019 0.00135113799
  vertex -0.0352117494 0.0160773974 0.00150723709
  endloop
 endfacet

 facet normal 0.0641005859 -0.0145291341 0.997837722
  outer loop
  vertex -0.0352117494 0.0160773974 0.00150723709
  vertex -0.0323660783 0.0185162239 0.00135994353
  vertex -0.0306074508 0.026275048 0.00135994353
  endloop
 endfacet

 facet normal 0.0505260155 -0.0083878627 0.998687506
  outer loop
  vertex -0.0352117494 0.0160773974 0.00150723709
  vertex -0.0306074508 0.026275048 0.00135994353
  vertex -0.0299520008 0.0291748624 0.00135113799
  endloop
 endfacet

 facet normal -7.64241759e-06 0.00952882413 0.999954641
  outer loop
  vertex -0.0352117494 0.0160773974 0.00150723709
  vertex -0.0361334123 0.0324577019 0.00135113799
  vertex -0.038246993 0.0324560069 0.00135113799
  endloop
 endfacet

 facet normal -0.139051765 -0.0163319465 0.990150392
  outer loop
  vertex -0.0352117494 0.0160773974 0.00150723709
  vertex -0.038246993 0.0324560069 0.00135113799
  vertex -0.0391847901 0.0160773974 0.000949282723
  endloop
 endfacet

 facet normal -0.0517520532 -0.928181171 0.368512481
  outer loop
  vertex -0.0352117494 0.0160773974 0.00150723709
  vertex -0.0391847901 0.0160773974 0.000949282723
  vertex -0.0505553633 0.0151435593 -0.0029996247
  endloop
 endfacet

 facet normal -0.000116676521 -0.979121685 0.203274846
  outer loop
  vertex -0.0352117494 0.0160773974 0.00150723709
  vertex -0.0505553633 0.0151435593 -0.0029996247
  vertex -0.0449769646 0.0151435593 -0.00299642258
  endloop
 endfacet

 facet normal -0.000109630884 -0.979124725 0.203260213
  outer loop
  vertex -0.0352117494 0.0160773974 0.00150723709
  vertex -0.0449769646 0.0151435593 -0.00299642258
  vertex -0.0434926189 0.0151435593 -0.00299562211
  endloop
 endfacet

 facet normal 0 -0.979164958 0.20306693
  outer loop
  vertex -0.0352117494 0.0160773974 0.00150723709
  vertex -0.0434926189 0.0151435593 -0.00299562211
  vertex -0.0408042632 0.0151435593 -0.00299562211
  endloop
 endfacet

 facet normal 0.164699733 -0.986343801 0
  outer loop
  vertex -0.0352117494 0.0160773974 0.00150723709
  vertex -0.0408042632 0.0151435593 -0.00299562211
  vertex -0.0352117494 0.0160773974 -0.000897489546
  endloop
 endfacet

 facet normal 0.650742412 -0.759298682 0
  outer loop
  vertex -0.0352117494 0.0160773974 0.00150723709
  vertex -0.0352117494 0.0160773974 -0.000897489546
  vertex -0.0323660783 0.0185162239 -1.72106456e-06
  endloop
 endfacet

 facet normal 0.650742412 -0.759298682 0
  outer loop
  vertex -0.0352117494 0.0160773974 0.00150723709
  vertex -0.0323660783 0.0185162239 -1.72106456e-06
  vertex -0.0323660783 0.0185162239 0.00135994353
  endloop
 endfacet

 facet normal 0.975393832 -0.220470175 0
  outer loop
  vertex -0.0299520008 0.0291748624 0.00135113799
  vertex -0.0306074508 0.026275048 0.00135994353
  vertex -0.0306074508 0.026275048 -1.72106456e-06
  endloop
 endfacet

 facet normal 0.975393832 -0.220470175 0
  outer loop
  vertex -0.0299520008 0.0291748624 0.00135113799
  vertex -0.0306074508 0.026275048 -1.72106456e-06
  vertex -0.0299520008 0.0291748624 0.00046337425
  endloop
 endfacet

 facet normal 0.581987739 0.811569631 -0.0514315329
  outer loop
  vertex -0.0347196534 0.0324577019 -0.00168438943
  vertex -0.0299520008 0.0291748624 0.00046337425
  vertex -0.0347236879 0.0324577019 -0.00173001864
  endloop
 endfacet

 facet normal -0.000157343602 1 0
  outer loop
  vertex -0.0361334123 0.0324577019 0.00135113799
  vertex -0.0361334123 0.0324577019 -0.00270023453
  vertex -0.0469070189 0.0324560069 -0.00474953558
  endloop
 endfacet

 facet normal -0.000802030787 0.999999046 0.00113849854
  outer loop
  vertex -0.0361334123 0.0324577019 0.00135113799
  vertex -0.0469070189 0.0324560069 -0.00474953558
  vertex -0.038246993 0.0324560069 0.00135113799
  endloop
 endfacet

 facet normal 0.975261569 -0.221054241 0
  outer loop
  vertex -0.0323660783 0.0185162239 0.00135994353
  vertex -0.0323660783 0.0185162239 -1.72106456e-06
  vertex -0.0306074508 0.026275048 -1.72106456e-06
  endloop
 endfacet

 facet normal 0.975261569 -0.221054241 0
  outer loop
  vertex -0.0323660783 0.0185162239 0.00135994353
  vertex -0.0306074508 0.026275048 -1.72106456e-06
  vertex -0.0306074508 0.026275048 0.00135994353
  endloop
 endfacet

 facet normal -0.558357477 0.244995922 0.79259944
  outer loop
  vertex -0.038246993 0.0324560069 0.00135113799
  vertex -0.0469070189 0.0324560069 -0.00474953558
  vertex -0.0505553633 0.0184670761 -0.00299562211
  endloop
 endfacet

 facet normal -0.332999229 0 0.942927122
  outer loop
  vertex -0.038246993 0.0324560069 0.00135113799
  vertex -0.0505553633 0.0184670761 -0.00299562211
  vertex -0.0505553633 0.0177094955 -0.00299562211
  endloop
 endfacet

 facet normal -0.331764519 -0.00115862931 0.943361521
  outer loop
  vertex -0.038246993 0.0324560069 0.00135113799
  vertex -0.0505553633 0.0177094955 -0.00299562211
  vertex -0.0505553633 0.0164061897 -0.00299722282
  endloop
 endfacet

 facet normal -0.331026047 -0.00179497234 0.943620026
  outer loop
  vertex -0.038246993 0.0324560069 0.00135113799
  vertex -0.0505553633 0.0164061897 -0.00299722282
  vertex -0.0505553633 0.0151435593 -0.0029996247
  endloop
 endfacet

 facet normal -0.327743709 -0.0044141626 0.944756389
  outer loop
  vertex -0.038246993 0.0324560069 0.00135113799
  vertex -0.0505553633 0.0151435593 -0.0029996247
  vertex -0.0391847901 0.0160773974 0.000949282723
  endloop
 endfacet

 facet normal -1 0 0
  outer loop
  vertex -0.0505553633 0.0151435593 -0.0029996247
  vertex -0.0505553633 0.0164061897 -0.00299722282
  vertex -0.0505553633 0.0177094955 -0.00299562211
  endloop
 endfacet

 facet normal -1 0 0
  outer loop
  vertex -0.0505553633 0.0151435593 -0.0029996247
  vertex -0.0505553633 0.0177094955 -0.00299562211
  vertex -0.0505553633 0.0184670761 -0.00299562211
  endloop
 endfacet

 facet normal -1 0 0
  outer loop
  vertex -0.0505553633 0.0151435593 -0.0029996247
  vertex -0.0505553633 0.0184670761 -0.00299562211
  vertex -0.0505553633 0.019994095 -0.00500489771
  endloop
 endfacet

 facet normal -1 0 0
  outer loop
  vertex -0.0505553633 0.0151435593 -0.0029996247
  vertex -0.0505553633 0.019994095 -0.00500489771
  vertex -0.0505553633 0.0164061897 -0.00500489771
  endloop
 endfacet

 facet normal -1 0 0
  outer loop
  vertex -0.0505553633 0.0151435593 -0.0029996247
  vertex -0.0505553633 0.0164061897 -0.00500489771
  vertex -0.0505553633 0.0151435593 -0.00499929441
  endloop
 endfacet

 facet normal 0 -1 0
  outer loop
  vertex -0.0505553633 0.0151435593 -0.0029996247
  vertex -0.0505553633 0.0151435593 -0.00499929441
  vertex -0.0472438224 0.0151435593 -0.00499929441
  endloop
 endfacet

 facet normal 0 -1 0
  outer loop
  vertex -0.0505553633 0.0151435593 -0.0029996247
  vertex -0.0472438224 0.0151435593 -0.00499929441
  vertex -0.0470441617 0.0151435593 -0.00499769347
  endloop
 endfacet

 facet normal 0 -1 0
  outer loop
  vertex -0.0505553633 0.0151435593 -0.0029996247
  vertex -0.0470441617 0.0151435593 -0.00499769347
  vertex -0.0468485318 0.0151435593 -0.00499128876
  endloop
 endfacet

 facet normal 0 -1 0
  outer loop
  vertex -0.0505553633 0.0151435593 -0.0029996247
  vertex -0.0468485318 0.0151435593 -0.00499128876
  vertex -0.0466569401 0.0151435593 -0.00498248404
  endloop
 endfacet

 facet normal 0 -1 0
  outer loop
  vertex -0.0505553633 0.0151435593 -0.0029996247
  vertex -0.0466569401 0.0151435593 -0.00498248404
  vertex -0.0464693792 0.0151435593 -0.00496887462
  endloop
 endfacet

 facet normal 0 -1 0
  outer loop
  vertex -0.0505553633 0.0151435593 -0.0029996247
  vertex -0.0464693792 0.0151435593 -0.00496887462
  vertex -0.0462838337 0.0151435593 -0.00495206425
  endloop
 endfacet

 facet normal 0 -1 0
  outer loop
  vertex -0.0505553633 0.0151435593 -0.0029996247
  vertex -0.0462838337 0.0151435593 -0.00495206425
  vertex -0.0461083762 0.0151435593 -0.00493205199
  endloop
 endfacet

 facet normal 0 -1 0
  outer loop
  vertex -0.0505553633 0.0151435593 -0.0029996247
  vertex -0.0461083762 0.0151435593 -0.00493205199
  vertex -0.045940984 0.0151435593 -0.00490803597
  endloop
 endfacet

 facet normal 0 -1 0
  outer loop
  vertex -0.0505553633 0.0151435593 -0.0029996247
  vertex -0.045940984 0.0151435593 -0.00490803597
  vertex -0.0457856953 0.0151435593 -0.00488241948
  endloop
 endfacet

 facet normal 0 -1 0
  outer loop
  vertex -0.0505553633 0.0151435593 -0.0029996247
  vertex -0.0457856953 0.0151435593 -0.00488241948
  vertex -0.0456384681 0.0151435593 -0.00485280156
  endloop
 endfacet

 facet normal 0 -1 0
  outer loop
  vertex -0.0505553633 0.0151435593 -0.0029996247
  vertex -0.0456384681 0.0151435593 -0.00485280156
  vertex -0.0455053635 0.0151435593 -0.00482078036
  endloop
 endfacet

 facet normal 0 -1 0
  outer loop
  vertex -0.0505553633 0.0151435593 -0.0029996247
  vertex -0.0455053635 0.0151435593 -0.00482078036
  vertex -0.0453883894 0.0151435593 -0.00478635868
  endloop
 endfacet

 facet normal 0 -1 0
  outer loop
  vertex -0.0505553633 0.0151435593 -0.0029996247
  vertex -0.0453883894 0.0151435593 -0.00478635868
  vertex -0.0452814996 0.0151435593 -0.00474953558
  endloop
 endfacet

 facet normal 0 -1 0
  outer loop
  vertex -0.0505553633 0.0151435593 -0.0029996247
  vertex -0.0452814996 0.0151435593 -0.00474953558
  vertex -0.0408647656 0.0151435593 -0.0030196372
  endloop
 endfacet

 facet normal 0 -1 0
  outer loop
  vertex -0.0505553633 0.0151435593 -0.0029996247
  vertex -0.0408647656 0.0151435593 -0.0030196372
  vertex -0.0408042632 0.0151435593 -0.00299562211
  endloop
 endfacet

 facet normal 0 -1 0
  outer loop
  vertex -0.0505553633 0.0151435593 -0.0029996247
  vertex -0.0408042632 0.0151435593 -0.00299562211
  vertex -0.0434926189 0.0151435593 -0.00299562211
  endloop
 endfacet

 facet normal 0 -1 0
  outer loop
  vertex -0.0505553633 0.0151435593 -0.0029996247
  vertex -0.0434926189 0.0151435593 -0.00299562211
  vertex -0.0449769646 0.0151435593 -0.00299642258
  endloop
 endfacet

 facet normal 0.366248488 -0.120217644 -0.922718704
  outer loop
  vertex -0.0408042632 0.0151435593 -0.00299562211
  vertex -0.0408647656 0.0151435593 -0.0030196372
  vertex -0.0352117494 0.0160773974 -0.000897489546
  endloop
 endfacet

 facet normal 0.363170236 -0.0913148522 -0.927237272
  outer loop
  vertex -0.0352117494 0.0160773974 -0.000897489546
  vertex -0.0408647656 0.0151435593 -0.0030196372
  vertex -0.0452814996 0.0151435593 -0.00474953558
  endloop
 endfacet

 facet normal 0.362723112 -0.0822883174 -0.92825675
  outer loop
  vertex -0.0352117494 0.0160773974 -0.000897489546
  vertex -0.0452814996 0.0151435593 -0.00474953558
  vertex -0.0323660783 0.0185162239 -1.72106456e-06
  endloop
 endfacet

 facet normal 0.975560606 -0.219720185 -0.00215563015
  outer loop
  vertex -0.0299520008 0.0291748624 0.00046337425
  vertex -0.029996369 0.028981654 7.75292938e-05
  vertex -0.0299701504 0.0290969014 0.000196004403
  endloop
 endfacet

 facet normal 0.984969258 -0.1719179 -0.016732743
  outer loop
  vertex -0.0299520008 0.0291748624 0.00046337425
  vertex -0.0299701504 0.0290969014 0.000196004403
  vertex -0.0299540162 0.0291697774 0.00039693201
  endloop
 endfacet

 facet normal 0.589530885 0.803833842 -0.0794026777
  outer loop
  vertex -0.0299520008 0.0291748624 0.00046337425
  vertex -0.0299540162 0.0291697774 0.00039693201
  vertex -0.0347277224 0.0324577019 -0.00176043762
  endloop
 endfacet

 facet normal 0.58919704 0.804201841 -0.0781425387
  outer loop
  vertex -0.0299520008 0.0291748624 0.00046337425
  vertex -0.0347277224 0.0324577019 -0.00176043762
  vertex -0.0347236879 0.0324577019 -0.00173001864
  endloop
 endfacet

 facet normal 0.975457907 -0.220177576 -0.00191478
  outer loop
  vertex -0.0299520008 0.0291748624 0.00046337425
  vertex -0.0306074508 0.026275048 -1.72106456e-06
  vertex -0.029996369 0.028981654 7.75292938e-05
  endloop
 endfacet

 facet normal 0.103260718 0.958521485 -0.265657336
  outer loop
  vertex -0.0361334123 0.0324577019 -0.00270023453
  vertex -0.0357441753 0.0324577019 -0.00254893862
  vertex -0.0412560217 0.0324560069 -0.00469750259
  endloop
 endfacet

 facet normal 0.00774495583 0.999755502 -0.0207128488
  outer loop
  vertex -0.0361334123 0.0324577019 -0.00270023453
  vertex -0.0412560217 0.0324560069 -0.00469750259
  vertex -0.0413951762 0.0324560069 -0.00474953558
  endloop
 endfacet

 facet normal 0 0.999999702 -0.000827188022
  outer loop
  vertex -0.0361334123 0.0324577019 -0.00270023453
  vertex -0.0413951762 0.0324560069 -0.00474953558
  vertex -0.0469070189 0.0324560069 -0.00474953558
  endloop
 endfacet

 facet normal -0.884920716 0.277670562 0.373917699
  outer loop
  vertex -0.0469070189 0.0324560069 -0.00474953558
  vertex -0.0489540435 0.026275048 -0.00500409724
  vertex -0.0505553633 0.0184670761 -0.00299562211
  endloop
 endfacet

 facet normal 0 0.911368728 -0.411590993
  outer loop
  vertex -0.0469070189 0.0324560069 -0.00474953558
  vertex -0.0413951762 0.0324560069 -0.00474953558
  vertex -0.0442065597 0.0319780707 -0.00580780767
  endloop
 endfacet

 facet normal 0 0.911368728 -0.411590993
  outer loop
  vertex -0.0469070189 0.0324560069 -0.00474953558
  vertex -0.0442065597 0.0319780707 -0.00580780767
  vertex -0.0464350954 0.0319780707 -0.00580780767
  endloop
 endfacet

 facet normal -0.817844808 0.291294426 -0.496263355
  outer loop
  vertex -0.0469070189 0.0324560069 -0.00474953558
  vertex -0.0464350954 0.0319780707 -0.00580780767
  vertex -0.0489540435 0.026275048 -0.00500409724
  endloop
 endfacet

 facet normal 0.362707824 -0.0822118968 -0.928269506
  outer loop
  vertex -0.0323660783 0.0185162239 -1.72106456e-06
  vertex -0.0452814996 0.0151435593 -0.00474953558
  vertex -0.0306074508 0.026275048 -1.72106456e-06
  endloop
 endfacet

 facet normal 0.973410964 -0.21914351 -0.0666888431
  outer loop
  vertex -0.0306074508 0.026275048 -1.72106456e-06
  vertex -0.0300568733 0.0287206545 -1.72106456e-06
  vertex -0.030046789 0.0287647191 6.80491041e-07
  endloop
 endfacet

 facet normal 0.975282788 -0.219605789 -0.0244288463
  outer loop
  vertex -0.0306074508 0.026275048 -1.72106456e-06
  vertex -0.030046789 0.0287647191 6.80491041e-07
  vertex -0.0300225876 0.0288697965 2.22942472e-05
  endloop
 endfacet

 facet normal 0.975401759 -0.219691306 -0.0180892088
  outer loop
  vertex -0.0306074508 0.026275048 -1.72106456e-06
  vertex -0.0300225876 0.0288697965 2.22942472e-05
  vertex -0.029996369 0.028981654 7.75292938e-05
  endloop
 endfacet

 facet normal 0.362291634 -0.081569694 -0.928488672
  outer loop
  vertex -0.0306074508 0.026275048 -1.72106456e-06
  vertex -0.0452814996 0.0151435593 -0.00474953558
  vertex -0.0390920229 0.0324560069 -0.00385536766
  endloop
 endfacet

 facet normal 0.362295687 -0.0815634429 -0.928487659
  outer loop
  vertex -0.0306074508 0.026275048 -1.72106456e-06
  vertex -0.0390920229 0.0324560069 -0.00385536766
  vertex -0.0300568733 0.0287206545 -1.72106456e-06
  endloop
 endfacet

 facet normal -0.952372074 0.242782176 0.184510916
  outer loop
  vertex -0.0505553633 0.0184670761 -0.00299562211
  vertex -0.0489540435 0.026275048 -0.00500409724
  vertex -0.0505553633 0.019994095 -0.00500489771
  endloop
 endfacet

 facet normal -0.724567652 -0.00305847451 -0.689196944
  outer loop
  vertex -0.0505553633 0.0151435593 -0.00499929441
  vertex -0.0505553633 0.0164061897 -0.00500489771
  vertex -0.0490609333 0.0193534587 -0.00658910349
  endloop
 endfacet

 facet normal -0.630622745 -0.0680906177 -0.77309674
  outer loop
  vertex -0.0505553633 0.0151435593 -0.00499929441
  vertex -0.0490609333 0.0193534587 -0.00658910349
  vertex -0.0490609333 0.0163722951 -0.00632653665
  endloop
 endfacet

 facet normal -0.629938602 -0.0693994239 -0.773538113
  outer loop
  vertex -0.0505553633 0.0151435593 -0.00499929441
  vertex -0.0490609333 0.0163722951 -0.00632653665
  vertex -0.0490609333 0.0160689242 -0.00629931921
  endloop
 endfacet

 facet normal 0 -0.814688146 -0.579899311
  outer loop
  vertex -0.0505553633 0.0151435593 -0.00499929441
  vertex -0.0490609333 0.0160689242 -0.00629931921
  vertex -0.0472438224 0.0151435593 -0.00499929441
  endloop
 endfacet

 facet normal 0.315747917 -0.245427415 -0.916552663
  outer loop
  vertex -0.0452814996 0.0151435593 -0.00474953558
  vertex -0.0453883894 0.0151435593 -0.00478635868
  vertex -0.0490609333 0.0160689242 -0.00629931921
  endloop
 endfacet

 facet normal 0.360540837 -0.0833480582 -0.92901206
  outer loop
  vertex -0.0452814996 0.0151435593 -0.00474953558
  vertex -0.0490609333 0.0160689242 -0.00629931921
  vertex -0.0490609333 0.0163722951 -0.00632653665
  endloop
 endfacet

 facet normal 0.361017585 -0.0818185583 -0.928963006
  outer loop
  vertex -0.0452814996 0.0151435593 -0.00474953558
  vertex -0.0490609333 0.0163722951 -0.00632653665
  vertex -0.0490609333 0.0193534587 -0.00658910349
  endloop
 endfacet

 facet normal 0.361147404 -0.0816850588 -0.928924203
  outer loop
  vertex -0.0452814996 0.0151435593 -0.00474953558
  vertex -0.0490609333 0.0193534587 -0.00658910349
  vertex -0.0482925437 0.0236701313 -0.00666995533
  endloop
 endfacet

 facet normal 0.361631483 -0.0814758763 -0.92875427
  outer loop
  vertex -0.0452814996 0.0151435593 -0.00474953558
  vertex -0.0482925437 0.0236701313 -0.00666995533
  vertex -0.0442065597 0.0319780707 -0.00580780767
  endloop
 endfacet

 facet normal 0.36209175 -0.0814938769 -0.928573251
  outer loop
  vertex -0.0452814996 0.0151435593 -0.00474953558
  vertex -0.0442065597 0.0319780707 -0.00580780767
  vertex -0.0390920229 0.0324560069 -0.00385536766
  endloop
 endfacet

 facet normal 0.969146132 -0.121162578 -0.214652061
  outer loop
  vertex -0.029996369 0.028981654 7.75292938e-05
  vertex -0.0300225876 0.0288697965 2.22942472e-05
  vertex -0.0300145224 0.028908778 3.67033354e-05
  endloop
 endfacet

 facet normal 0.936537266 -0.0380602404 -0.348495752
  outer loop
  vertex -0.029996369 0.028981654 7.75292938e-05
  vertex -0.0300145224 0.028908778 3.67033354e-05
  vertex -0.0300104879 0.0289274212 4.55089576e-05
  endloop
 endfacet

 facet normal 0.562177777 0.30702886 -0.767912388
  outer loop
  vertex -0.029996369 0.028981654 7.75292938e-05
  vertex -0.0300104879 0.0289274212 4.55089576e-05
  vertex -0.0300024208 0.0289647058 6.63221144e-05
  endloop
 endfacet

 facet normal 0.559606016 0.308736175 -0.769105375
  outer loop
  vertex -0.029996369 0.028981654 7.75292938e-05
  vertex -0.0300024208 0.0289647058 6.63221144e-05
  vertex -0.0350826718 0.0324577019 -0.00222793478
  endloop
 endfacet

 facet normal 0.579200625 0.363610476 -0.729598641
  outer loop
  vertex -0.029996369 0.028981654 7.75292938e-05
  vertex -0.0350826718 0.0324577019 -0.00222793478
  vertex -0.0350403227 0.0324577019 -0.00219431333
  endloop
 endfacet

 facet normal 0.588834047 0.392736286 -0.706422567
  outer loop
  vertex -0.029996369 0.028981654 7.75292938e-05
  vertex -0.0350403227 0.0324577019 -0.00219431333
  vertex -0.035020154 0.0324577019 -0.00217750273
  endloop
 endfacet

 facet normal 0.594502568 0.410766333 -0.691258132
  outer loop
  vertex -0.029996369 0.028981654 7.75292938e-05
  vertex -0.035020154 0.0324577019 -0.00217750273
  vertex -0.034983851 0.0324577019 -0.0021462827
  endloop
 endfacet

 facet normal 0.596345305 0.416716754 -0.686089993
  outer loop
  vertex -0.029996369 0.028981654 7.75292938e-05
  vertex -0.034983851 0.0324577019 -0.0021462827
  vertex -0.0299903192 0.0290138554 0.000102344959
  endloop
 endfacet

 facet normal 0.924275279 0.108443044 -0.365999073
  outer loop
  vertex -0.029996369 0.028981654 7.75292938e-05
  vertex -0.0299903192 0.0290138554 0.000102344959
  vertex -0.0299862865 0.0290308036 0.000117554642
  endloop
 endfacet

 facet normal 0.985736132 -0.0829860345 -0.146415606
  outer loop
  vertex -0.029996369 0.028981654 7.75292938e-05
  vertex -0.0299862865 0.0290308036 0.000117554642
  vertex -0.0299762022 0.0290714782 0.000162383105
  endloop
 endfacet

 facet normal 0.981711149 -0.187081292 -0.0352662317
  outer loop
  vertex -0.029996369 0.028981654 7.75292938e-05
  vertex -0.0299762022 0.0290714782 0.000162383105
  vertex -0.0299701504 0.0290969014 0.000196004403
  endloop
 endfacet

 facet normal 0.944939554 0.224692285 -0.237913534
  outer loop
  vertex -0.0299701504 0.0290969014 0.000196004403
  vertex -0.0299661178 0.0291189328 0.00023282785
  vertex -0.0299681351 0.0291070696 0.00021361564
  endloop
 endfacet

 facet normal 0.991588831 -0.122060433 -0.0430435725
  outer loop
  vertex -0.0299701504 0.0290969014 0.000196004403
  vertex -0.0299681351 0.0291070696 0.00021361564
  vertex -0.0299620852 0.029135881 0.00027125224
  endloop
 endfacet

 facet normal 0.985205948 -0.170503363 -0.0172648001
  outer loop
  vertex -0.0299701504 0.0290969014 0.000196004403
  vertex -0.0299620852 0.029135881 0.00027125224
  vertex -0.0299540162 0.0291697774 0.00039693201
  endloop
 endfacet

 facet normal 0.6291188 0.561329305 -0.537697911
  outer loop
  vertex -0.0299701504 0.0290969014 0.000196004403
  vertex -0.0299762022 0.0290714782 0.000162383105
  vertex -0.0348749459 0.0324577019 -0.00203421153
  endloop
 endfacet

 facet normal 0.631099939 0.5769912 -0.518453538
  outer loop
  vertex -0.0299701504 0.0290969014 0.000196004403
  vertex -0.0348749459 0.0324577019 -0.00203421153
  vertex -0.0348446965 0.0324577019 -0.0019973882
  endloop
 endfacet

 facet normal 0.63532418 0.630050182 -0.446542263
  outer loop
  vertex -0.0299701504 0.0290969014 0.000196004403
  vertex -0.0348446965 0.0324577019 -0.0019973882
  vertex -0.0299661178 0.0291189328 0.00023282785
  endloop
 endfacet

 facet normal 0.987368107 -0.157040268 -0.0210346561
  outer loop
  vertex -0.0299540162 0.0291697774 0.00039693201
  vertex -0.0299620852 0.029135881 0.00027125224
  vertex -0.0299560335 0.0291629992 0.000352904142
  endloop
 endfacet

 facet normal 0.605505586 0.781934619 -0.148126006
  outer loop
  vertex -0.0299540162 0.0291697774 0.00039693201
  vertex -0.0299560335 0.0291629992 0.000352904142
  vertex -0.0347277224 0.0324577019 -0.00176043762
  endloop
 endfacet

 facet normal 0.611033022 0.771643221 -0.176650599
  outer loop
  vertex -0.0347277224 0.0324577019 -0.00176043762
  vertex -0.0299560335 0.0291629992 0.000352904142
  vertex -0.0347418375 0.0324577019 -0.00180926884
  endloop
 endfacet

 facet normal 0.163838133 0.892137647 -0.421007961
  outer loop
  vertex -0.0357441753 0.0324577019 -0.00254893862
  vertex -0.0390920229 0.0324560069 -0.00385536766
  vertex -0.0412560217 0.0324560069 -0.00469750259
  endloop
 endfacet

 facet normal 0.362820685 -0.0806189775 -0.928365111
  outer loop
  vertex -0.0357441753 0.0324577019 -0.00254893862
  vertex -0.0354819931 0.0324577019 -0.00244647358
  vertex -0.0300568733 0.0287206545 -1.72106456e-06
  endloop
 endfacet

 facet normal 0.362360686 -0.0813953578 -0.928477108
  outer loop
  vertex -0.0357441753 0.0324577019 -0.00254893862
  vertex -0.0300568733 0.0287206545 -1.72106456e-06
  vertex -0.0390920229 0.0324560069 -0.00385536766
  endloop
 endfacet

 facet normal 0.361675978 -0.073734358 -0.929383516
  outer loop
  vertex -0.0412560217 0.0324560069 -0.00469750259
  vertex -0.0390920229 0.0324560069 -0.00385536766
  vertex -0.0442065597 0.0319780707 -0.00580780767
  endloop
 endfacet

 facet normal 0.350203454 0.0137917679 -0.936572194
  outer loop
  vertex -0.0412560217 0.0324560069 -0.00469750259
  vertex -0.0442065597 0.0319780707 -0.00580780767
  vertex -0.0413951762 0.0324560069 -0.00474953558
  endloop
 endfacet

 facet normal -0.726549745 0.229642719 -0.647602975
  outer loop
  vertex -0.0489540435 0.026275048 -0.00500409724
  vertex -0.0464350954 0.0319780707 -0.00580780767
  vertex -0.0482925437 0.0236701313 -0.00666995533
  endloop
 endfacet

 facet normal -0.767295599 0.195698604 -0.610704243
  outer loop
  vertex -0.0489540435 0.026275048 -0.00500409724
  vertex -0.0482925437 0.0236701313 -0.00666995533
  vertex -0.0505553633 0.019994095 -0.00500489771
  endloop
 endfacet

 facet normal 0 0.103219599 -0.994658649
  outer loop
  vertex -0.0464350954 0.0319780707 -0.00580780767
  vertex -0.0442065597 0.0319780707 -0.00580780767
  vertex -0.0482925437 0.0236701313 -0.00666995533
  endloop
 endfacet

 facet normal 0.376865685 -0.057681568 -0.924470127
  outer loop
  vertex -0.0300568733 0.0287206545 -1.72106456e-06
  vertex -0.0354819931 0.0324577019 -0.00244647358
  vertex -0.0354073755 0.0324577019 -0.00241605425
  endloop
 endfacet

 facet normal 0.388401985 -0.0387136266 -0.92067647
  outer loop
  vertex -0.0300568733 0.0287206545 -1.72106456e-06
  vertex -0.0354073755 0.0324577019 -0.00241605425
  vertex -0.030046789 0.0287647191 6.80491041e-07
  endloop
 endfacet

 facet normal 0.801380575 -0.0820847675 -0.592495799
  outer loop
  vertex -0.030046789 0.0287647191 6.80491041e-07
  vertex -0.0300427563 0.0287867524 3.08204653e-06
  vertex -0.030032672 0.028827427 1.10870687e-05
  endloop
 endfacet

 facet normal 0.971978545 -0.197716862 -0.127145082
  outer loop
  vertex -0.030046789 0.0287647191 6.80491041e-07
  vertex -0.030032672 0.028827427 1.10870687e-05
  vertex -0.0300225876 0.0288697965 2.22942472e-05
  endloop
 endfacet

 facet normal 0.423066944 0.0213085972 -0.905847907
  outer loop
  vertex -0.030046789 0.0287647191 6.80491041e-07
  vertex -0.0354073755 0.0324577019 -0.00241605425
  vertex -0.0300427563 0.0287867524 3.08204653e-06
  endloop
 endfacet

 facet normal 0.514673412 0.201568291 -0.833355606
  outer loop
  vertex -0.0300225876 0.0288697965 2.22942472e-05
  vertex -0.0351814963 0.0324577019 -0.0022959779
  vertex -0.0300145224 0.028908778 3.67033354e-05
  endloop
 endfacet

 facet normal 0.644937336 0.0482360683 -0.762711763
  outer loop
  vertex -0.0300225876 0.0288697965 2.22942472e-05
  vertex -0.030032672 0.028827427 1.10870687e-05
  vertex -0.0300286394 0.0288494602 1.58901803e-05
  endloop
 endfacet

 facet normal 0.480612695 0.13005273 -0.867235661
  outer loop
  vertex -0.0300225876 0.0288697965 2.22942472e-05
  vertex -0.0300286394 0.0288494602 1.58901803e-05
  vertex -0.0352662019 0.0324577019 -0.00234560925
  endloop
 endfacet

 facet normal 0.498440236 0.167033002 -0.85068053
  outer loop
  vertex -0.0300225876 0.0288697965 2.22942472e-05
  vertex -0.0352662019 0.0324577019 -0.00234560925
  vertex -0.0351814963 0.0324577019 -0.0022959779
  endloop
 endfacet

 facet normal -0.700012147 0.111393921 -0.705389619
  outer loop
  vertex -0.0505553633 0.019994095 -0.00500489771
  vertex -0.0482925437 0.0236701313 -0.00666995533
  vertex -0.0490609333 0.0193534587 -0.00658910349
  endloop
 endfacet

 facet normal -0.727417469 0 -0.686195254
  outer loop
  vertex -0.0505553633 0.019994095 -0.00500489771
  vertex -0.0490609333 0.0193534587 -0.00658910349
  vertex -0.0505553633 0.0164061897 -0.00500489771
  endloop
 endfacet

 facet normal 0.00468530599 -0.811573684 -0.584231317
  outer loop
  vertex -0.0490609333 0.0160689242 -0.00629931921
  vertex -0.0470441617 0.0151435593 -0.00499769347
  vertex -0.0472438224 0.0151435593 -0.00499929441
  endloop
 endfacet

 facet normal 0.257618904 -0.408925027 -0.875450075
  outer loop
  vertex -0.0490609333 0.0160689242 -0.00629931921
  vertex -0.0453883894 0.0151435593 -0.00478635868
  vertex -0.0455053635 0.0151435593 -0.00482078036
  endloop
 endfacet

 facet normal 0.195678636 -0.547791958 -0.813408792
  outer loop
  vertex -0.0490609333 0.0160689242 -0.00629931921
  vertex -0.0455053635 0.0151435593 -0.00482078036
  vertex -0.0456384681 0.0151435593 -0.00485280156
  endloop
 endfacet

 facet normal 0.153779671 -0.626139343 -0.764396071
  outer loop
  vertex -0.0490609333 0.0160689242 -0.00629931921
  vertex -0.0456384681 0.0151435593 -0.00485280156
  vertex -0.0457856953 0.0151435593 -0.00488241948
  endloop
 endfacet

 facet normal 0.118903309 -0.682851791 -0.720815837
  outer loop
  vertex -0.0490609333 0.0160689242 -0.00629931921
  vertex -0.0457856953 0.0151435593 -0.00488241948
  vertex -0.045940984 0.0151435593 -0.00490803597
  endloop
 endfacet

 facet normal 0.0999491513 -0.710418403 -0.696646154
  outer loop
  vertex -0.0490609333 0.0160689242 -0.00629931921
  vertex -0.045940984 0.0151435593 -0.00490803597
  vertex -0.0461083762 0.0151435593 -0.00493205199
  endloop
 endfacet

 facet normal 0.075983569 -0.74189508 -0.666196823
  outer loop
  vertex -0.0490609333 0.0160689242 -0.00629931921
  vertex -0.0461083762 0.0151435593 -0.00493205199
  vertex -0.0462838337 0.0151435593 -0.00495206425
  endloop
 endfacet

 facet normal 0.0583604835 -0.762675285 -0.644143283
  outer loop
  vertex -0.0490609333 0.0160689242 -0.00629931921
  vertex -0.0462838337 0.0151435593 -0.00495206425
  vertex -0.0464693792 0.0151435593 -0.00496887462
  endloop
 endfacet

 facet normal 0.0456234738 -0.776248693 -0.628773808
  outer loop
  vertex -0.0490609333 0.0160689242 -0.00629931921
  vertex -0.0464693792 0.0151435593 -0.00496887462
  vertex -0.0466569401 0.0151435593 -0.00498248404
  endloop
 endfacet

 facet normal 0.0279587954 -0.793141067 -0.608395934
  outer loop
  vertex -0.0490609333 0.0160689242 -0.00629931921
  vertex -0.0466569401 0.0151435593 -0.00498248404
  vertex -0.0468485318 0.0151435593 -0.00499128876
  endloop
 endfacet

 facet normal 0.0196219012 -0.800260425 -0.599331498
  outer loop
  vertex -0.0490609333 0.0160689242 -0.00629931921
  vertex -0.0468485318 0.0151435593 -0.00499128876
  vertex -0.0470441617 0.0151435593 -0.00499769347
  endloop
 endfacet

 facet normal 0.539376199 0.258543313 -0.80139178
  outer loop
  vertex -0.0300145224 0.028908778 3.67033354e-05
  vertex -0.0351814963 0.0324577019 -0.0022959779
  vertex -0.035135109 0.0324577019 -0.00226475787
  endloop
 endfacet

 facet normal 0.540367544 0.260903686 -0.799957633
  outer loop
  vertex -0.0300145224 0.028908778 3.67033354e-05
  vertex -0.035135109 0.0324577019 -0.00226475787
  vertex -0.0300104879 0.0289274212 4.55089576e-05
  endloop
 endfacet

 facet normal 0.550656676 0.286192775 -0.78413713
  outer loop
  vertex -0.0300104879 0.0289274212 4.55089576e-05
  vertex -0.035135109 0.0324577019 -0.00226475787
  vertex -0.0350826718 0.0324577019 -0.00222793478
  endloop
 endfacet

 facet normal 0.559479475 0.308404267 -0.769330621
  outer loop
  vertex -0.0300104879 0.0289274212 4.55089576e-05
  vertex -0.0350826718 0.0324577019 -0.00222793478
  vertex -0.0300024208 0.0289647058 6.63221144e-05
  endloop
 endfacet

 facet normal 0.602337241 0.437381119 -0.667748153
  outer loop
  vertex -0.034983851 0.0324577019 -0.0021462827
  vertex -0.0349616669 0.0324577019 -0.00212627021
  vertex -0.0299903192 0.0290138554 0.000102344959
  endloop
 endfacet

 facet normal 0.605068862 0.447147787 -0.658749223
  outer loop
  vertex -0.0299903192 0.0290138554 0.000102344959
  vertex -0.0349616669 0.0324577019 -0.00212627021
  vertex -0.0299862865 0.0290308036 0.000117554642
  endloop
 endfacet

 facet normal 0.926662385 0.150105283 -0.344623446
  outer loop
  vertex -0.0299862865 0.0290308036 0.000117554642
  vertex -0.0299802348 0.029059615 0.000146373073
  vertex -0.0299762022 0.0290714782 0.000162383105
  endloop
 endfacet

 facet normal 0.615534544 0.488969833 -0.618082464
  outer loop
  vertex -0.0299862865 0.0290308036 0.000117554642
  vertex -0.0349616669 0.0324577019 -0.00212627021
  vertex -0.0299802348 0.029059615 0.000146373073
  endloop
 endfacet

 facet normal 0.626211762 0.542638898 -0.559823215
  outer loop
  vertex -0.0299762022 0.0290714782 0.000162383105
  vertex -0.0299802348 0.029059615 0.000146373073
  vertex -0.03489713 0.0324577019 -0.00205982779
  endloop
 endfacet

 facet normal 0.62831974 0.556001544 -0.544129252
  outer loop
  vertex -0.0299762022 0.0290714782 0.000162383105
  vertex -0.03489713 0.0324577019 -0.00205982779
  vertex -0.0348749459 0.0324577019 -0.00203421153
  endloop
 endfacet

 facet normal 0.992125034 0.0287933126 -0.121896401
  outer loop
  vertex -0.0299661178 0.0291189328 0.00023282785
  vertex -0.0299641024 0.0291274078 0.000251239457
  vertex -0.0299681351 0.0291070696 0.00021361564
  endloop
 endfacet

 facet normal 0.635353446 0.631342292 -0.444671839
  outer loop
  vertex -0.0299661178 0.0291189328 0.00023282785
  vertex -0.0348446965 0.0324577019 -0.0019973882
  vertex -0.0348346084 0.0324577019 -0.00198297901
  endloop
 endfacet

 facet normal 0.635399818 0.63345927 -0.441583991
  outer loop
  vertex -0.0299661178 0.0291189328 0.00023282785
  vertex -0.0348346084 0.0324577019 -0.00198297901
  vertex -0.0348184779 0.0324577019 -0.0019597644
  endloop
 endfacet

 facet normal 0.635293901 0.660528183 -0.400130391
  outer loop
  vertex -0.0299661178 0.0291189328 0.00023282785
  vertex -0.0348184779 0.0324577019 -0.0019597644
  vertex -0.0347983092 0.0324577019 -0.0019277439
  endloop
 endfacet

 facet normal 0.63475132 0.673185825 -0.379356921
  outer loop
  vertex -0.0299661178 0.0291189328 0.00023282785
  vertex -0.0347983092 0.0324577019 -0.0019277439
  vertex -0.0299641024 0.0291274078 0.000251239457
  endloop
 endfacet

 facet normal 0.995520294 -0.0546559207 -0.0771508217
  outer loop
  vertex -0.0299681351 0.0291070696 0.00021361564
  vertex -0.0299641024 0.0291274078 0.000251239457
  vertex -0.0299620852 0.029135881 0.00027125224
  endloop
 endfacet

 facet normal 0.633576035 0.687469661 -0.354918212
  outer loop
  vertex -0.0299620852 0.029135881 0.00027125224
  vertex -0.0299641024 0.0291274078 0.000251239457
  vertex -0.0347983092 0.0324577019 -0.0019277439
  endloop
 endfacet

 facet normal 0.633280158 0.690138519 -0.350235939
  outer loop
  vertex -0.0299620852 0.029135881 0.00027125224
  vertex -0.0347983092 0.0324577019 -0.0019277439
  vertex -0.0347801559 0.0324577019 -0.00189492328
  endloop
 endfacet

 facet normal 0.631805301 0.701825142 -0.329034269
  outer loop
  vertex -0.0299620852 0.029135881 0.00027125224
  vertex -0.0347801559 0.0324577019 -0.00189492328
  vertex -0.0299600679 0.0291528292 0.000311277603
  endloop
 endfacet

 facet normal 0.956482649 0.248247117 -0.153343946
  outer loop
  vertex -0.0299620852 0.029135881 0.00027125224
  vertex -0.0299600679 0.0291528292 0.000311277603
  vertex -0.0299560335 0.0291629992 0.000352904142
  endloop
 endfacet

 facet normal 0.622115314 0.744529188 -0.242175281
  outer loop
  vertex -0.0299560335 0.0291629992 0.000352904142
  vertex -0.0299600679 0.0291528292 0.000311277603
  vertex -0.0347478874 0.0324577019 -0.00182768016
  endloop
 endfacet

 facet normal 0.615697265 0.761562288 -0.202335835
  outer loop
  vertex -0.0299560335 0.0291629992 0.000352904142
  vertex -0.0347478874 0.0324577019 -0.00182768016
  vertex -0.0347418375 0.0324577019 -0.00180926884
  endloop
 endfacet

 facet normal 0.427071542 0.0285317264 -0.903767586
  outer loop
  vertex -0.0354073755 0.0324577019 -0.00241605425
  vertex -0.0353650227 0.0324577019 -0.00239604106
  vertex -0.0300427563 0.0287867524 3.08204653e-06
  endloop
 endfacet

 facet normal 0.621909559 -7.86951423e-05 -0.783089101
  outer loop
  vertex -0.0300427563 0.0287867524 3.08204653e-06
  vertex -0.0300387219 0.0288070887 6.28395765e-06
  vertex -0.030032672 0.028827427 1.10870687e-05
  endloop
 endfacet

 facet normal 0.436038375 0.044769723 -0.898813725
  outer loop
  vertex -0.0300427563 0.0287867524 3.08204653e-06
  vertex -0.0353650227 0.0324577019 -0.00239604106
  vertex -0.0353105702 0.0324577019 -0.0023696248
  endloop
 endfacet

 facet normal 0.440900981 0.0535957776 -0.895954132
  outer loop
  vertex -0.0300427563 0.0287867524 3.08204653e-06
  vertex -0.0353105702 0.0324577019 -0.0023696248
  vertex -0.0300387219 0.0288070887 6.28395765e-06
  endloop
 endfacet

 facet normal 0.452543676 0.0752185583 -0.888564289
  outer loop
  vertex -0.030032672 0.028827427 1.10870687e-05
  vertex -0.0300387219 0.0288070887 6.28395765e-06
  vertex -0.0353105702 0.0324577019 -0.0023696248
  endloop
 endfacet

 facet normal 0.46829161 0.105534375 -0.877248883
  outer loop
  vertex -0.030032672 0.028827427 1.10870687e-05
  vertex -0.0353105702 0.0324577019 -0.0023696248
  vertex -0.0300286394 0.0288494602 1.58901803e-05
  endloop
 endfacet

 facet normal 0.472869843 0.114618354 -0.873645723
  outer loop
  vertex -0.0300286394 0.0288494602 1.58901803e-05
  vertex -0.0353105702 0.0324577019 -0.0023696248
  vertex -0.0352662019 0.0324577019 -0.00234560925
  endloop
 endfacet

 facet normal 0.616936803 0.495418012 -0.611514568
  outer loop
  vertex -0.0349616669 0.0324577019 -0.00212627021
  vertex -0.0349132642 0.0324577019 -0.0020774391
  vertex -0.0299802348 0.029059615 0.000146373073
  endloop
 endfacet

 facet normal 0.624326766 0.532002628 -0.572004616
  outer loop
  vertex -0.0299802348 0.029059615 0.000146373073
  vertex -0.0349132642 0.0324577019 -0.0020774391
  vertex -0.03489713 0.0324577019 -0.00205982779
  endloop
 endfacet

 facet normal 0.630814672 0.707841098 -0.317858219
  outer loop
  vertex -0.0347801559 0.0324577019 -0.00189492328
  vertex -0.0347620063 0.0324577019 -0.00185890018
  vertex -0.0299600679 0.0291528292 0.000311277603
  endloop
 endfacet

 facet normal 0.627340138 0.725240409 -0.283673346
  outer loop
  vertex -0.0299600679 0.0291528292 0.000311277603
  vertex -0.0347620063 0.0324577019 -0.00185890018
  vertex -0.0347478874 0.0324577019 -0.00182768016
  endloop
 endfacet

endsolid AssimpScene
