solid AssimpScene
 facet normal 0.516061783 0.856551349 0
  outer loop
  vertex -0.149116457 -0.012526433 0.0140771577
  vertex -0.139285281 -0.0184495989 0.0140771577
  vertex -0.139285281 -0.0184495989 0.0059799999
  endloop
 endfacet

 facet normal 0.516061783 0.856551349 0
  outer loop
  vertex -0.149116457 -0.012526433 0.0140771577
  vertex -0.139285281 -0.0184495989 0.0059799999
  vertex -0.149116457 -0.012526433 0.0059799999
  endloop
 endfacet

 facet normal 0 1 0
  outer loop
  vertex -0.149116457 -0.012526433 0.0140771577
  vertex -0.149116457 -0.012526433 0.0059799999
  vertex -0.155360684 -0.012526433 0.0059799999
  endloop
 endfacet

 facet normal 0 1 0
  outer loop
  vertex -0.149116457 -0.012526433 0.0140771577
  vertex -0.155360684 -0.012526433 0.0059799999
  vertex -0.155360684 -0.012526433 0.0140771577
  endloop
 endfacet

 facet normal 0 0 1
  outer loop
  vertex -0.149116457 -0.012526433 0.0140771577
  vertex -0.155360684 -0.012526433 0.0140771577
  vertex -0.159362346 -0.0201002732 0.0140771577
  endloop
 endfacet

 facet normal 0 0 1
  outer loop
  vertex -0.149116457 -0.012526433 0.0140771577
  vertex -0.159362346 -0.0201002732 0.0140771577
  vertex -0.159362346 -0.0267797057 0.0140771577
  endloop
 endfacet

 facet normal 0 0 1
  outer loop
  vertex -0.149116457 -0.012526433 0.0140771577
  vertex -0.159362346 -0.0267797057 0.0140771577
  vertex -0.139605641 -0.0267797057 0.0140771577
  endloop
 endfacet

 facet normal 0 0 1
  outer loop
  vertex -0.149116457 -0.012526433 0.0140771577
  vertex -0.139605641 -0.0267797057 0.0140771577
  vertex -0.139285281 -0.0184495989 0.0140771577
  endloop
 endfacet

 facet normal 0.99926132 -0.0384306461 0
  outer loop
  vertex -0.139285281 -0.0184495989 0.0140771577
  vertex -0.139605641 -0.0267797057 0.0140771577
  vertex -0.139605641 -0.0267797057 0.0059799999
  endloop
 endfacet

 facet normal 0.99926132 -0.0384306461 0
  outer loop
  vertex -0.139285281 -0.0184495989 0.0140771577
  vertex -0.139605641 -0.0267797057 0.0059799999
  vertex -0.139285281 -0.0184495989 0.0059799999
  endloop
 endfacet

 facet normal 0 0 -1
  outer loop
  vertex -0.149116457 -0.012526433 0.0059799999
  vertex -0.139285281 -0.0184495989 0.0059799999
  vertex -0.139605641 -0.0267797057 0.0059799999
  endloop
 endfacet

 facet normal 0 0 -1
  outer loop
  vertex -0.149116457 -0.012526433 0.0059799999
  vertex -0.139605641 -0.0267797057 0.0059799999
  vertex -0.159362346 -0.0267797057 0.0059799999
  endloop
 endfacet

 facet normal 0 0 -1
  outer loop
  vertex -0.149116457 -0.012526433 0.0059799999
  vertex -0.159362346 -0.0267797057 0.0059799999
  vertex -0.159362346 -0.0201002732 0.0059799999
  endloop
 endfacet

 facet normal 0 0 -1
  outer loop
  vertex -0.149116457 -0.012526433 0.0059799999
  vertex -0.159362346 -0.0201002732 0.0059799999
  vertex -0.155360684 -0.012526433 0.0059799999
  endloop
 endfacet

 facet normal -0.884175003 0.467155874 0
  outer loop
  vertex -0.155360684 -0.012526433 0.0140771577
  vertex -0.155360684 -0.012526433 0.0059799999
  vertex -0.159362346 -0.0201002732 0.0059799999
  endloop
 endfacet

 facet normal -0.884175003 0.467155874 0
  outer loop
  vertex -0.155360684 -0.012526433 0.0140771577
  vertex -0.159362346 -0.0201002732 0.0059799999
  vertex -0.159362346 -0.0201002732 0.0140771577
  endloop
 endfacet

 facet normal 0 -1 0
  outer loop
  vertex -0.139605641 -0.0267797057 0.0140771577
  vertex -0.159362346 -0.0267797057 0.0140771577
  vertex -0.159362346 -0.0267797057 0.0059799999
  endloop
 endfacet

 facet normal 0 -1 0
  outer loop
  vertex -0.139605641 -0.0267797057 0.0140771577
  vertex -0.159362346 -0.0267797057 0.0059799999
  vertex -0.139605641 -0.0267797057 0.0059799999
  endloop
 endfacet

 facet normal -1 0 0
  outer loop
  vertex -0.159362346 -0.0201002732 0.0140771577
  vertex -0.159362346 -0.0201002732 0.0059799999
  vertex -0.159362346 -0.0267797057 0.0059799999
  endloop
 endfacet

 facet normal -1 0 0
  outer loop
  vertex -0.159362346 -0.0201002732 0.0140771577
  vertex -0.159362346 -0.0267797057 0.0059799999
  vertex -0.159362346 -0.0267797057 0.0140771577
  endloop
 endfacet

endsolid AssimpScene
