solid AssimpScene
 facet normal 0 1 0
  outer loop
  vertex -0.155367374 0.0294097513 -0.00211860356
  vertex -0.155367374 0.0294097513 -0.00404091133
  vertex -0.156527683 0.0294097513 -0.00703951856
  endloop
 endfacet

 facet normal 0 1 0
  outer loop
  vertex -0.155367374 0.0294097513 -0.00211860356
  vertex -0.156527683 0.0294097513 -0.00703951856
  vertex -0.159363911 0.0294097513 -0.00703951856
  endloop
 endfacet

 facet normal 0 1 0
  outer loop
  vertex -0.155367374 0.0294097513 -0.00211860356
  vertex -0.159363911 0.0294097513 -0.00703951856
  vertex -0.159363911 0.0294097513 -0.00211860356
  endloop
 endfacet

 facet normal 0 0 1
  outer loop
  vertex -0.155367374 0.0294097513 -0.00211860356
  vertex -0.159363911 0.0294097513 -0.00211860356
  vertex -0.159363911 0.0200935937 -0.00211860356
  endloop
 endfacet

 facet normal 0 0 1
  outer loop
  vertex -0.155367374 0.0294097513 -0.00211860356
  vertex -0.159363911 0.0200935937 -0.00211860356
  vertex -0.155367374 0.0200935937 -0.00211860356
  endloop
 endfacet

 facet normal 1 0 0
  outer loop
  vertex -0.155367374 0.0294097513 -0.00211860356
  vertex -0.155367374 0.0200935937 -0.00211860356
  vertex -0.155367374 -0.0146318274 -0.0021205307
  endloop
 endfacet

 facet normal 1 0 0
  outer loop
  vertex -0.155367374 0.0294097513 -0.00211860356
  vertex -0.155367374 -0.0146318274 -0.0021205307
  vertex -0.155367374 -0.0146318274 -0.00703951856
  endloop
 endfacet

 facet normal 1 0 0
  outer loop
  vertex -0.155367374 0.0294097513 -0.00211860356
  vertex -0.155367374 -0.0146318274 -0.00703951856
  vertex -0.155367374 0.0241589043 -0.00703951856
  endloop
 endfacet

 facet normal 1 0 0
  outer loop
  vertex -0.155367374 0.0294097513 -0.00211860356
  vertex -0.155367374 0.0241589043 -0.00703951856
  vertex -0.155367374 0.0294097513 -0.00404091133
  endloop
 endfacet

 facet normal 0.913419008 0.20184356 -0.353447258
  outer loop
  vertex -0.155367374 0.0294097513 -0.00404091133
  vertex -0.155367374 0.0241589043 -0.00703951856
  vertex -0.156527683 0.0294097513 -0.00703951856
  endloop
 endfacet

 facet normal -1 0 0
  outer loop
  vertex -0.159363911 0.0294097513 -0.00211860356
  vertex -0.159363911 0.0294097513 -0.00703951856
  vertex -0.159363911 -0.0146318274 -0.00703951856
  endloop
 endfacet

 facet normal -1 0 0
  outer loop
  vertex -0.159363911 0.0294097513 -0.00211860356
  vertex -0.159363911 -0.0146318274 -0.00703951856
  vertex -0.159363911 -0.0146318274 -0.0021205307
  endloop
 endfacet

 facet normal -1 0 0
  outer loop
  vertex -0.159363911 0.0294097513 -0.00211860356
  vertex -0.159363911 -0.0146318274 -0.0021205307
  vertex -0.159363911 0.0200935937 -0.00211860356
  endloop
 endfacet

 facet normal 0 -5.5493565e-05 1
  outer loop
  vertex -0.155367374 0.0200935937 -0.00211860356
  vertex -0.159363911 0.0200935937 -0.00211860356
  vertex -0.159363911 -0.0146318274 -0.0021205307
  endloop
 endfacet

 facet normal 0 -5.5493565e-05 1
  outer loop
  vertex -0.155367374 0.0200935937 -0.00211860356
  vertex -0.159363911 -0.0146318274 -0.0021205307
  vertex -0.155367374 -0.0146318274 -0.0021205307
  endloop
 endfacet

 facet normal 0 0 -1
  outer loop
  vertex -0.155367374 0.0241589043 -0.00703951856
  vertex -0.155367374 -0.0146318274 -0.00703951856
  vertex -0.159363911 -0.0146318274 -0.00703951856
  endloop
 endfacet

 facet normal 0 0 -1
  outer loop
  vertex -0.155367374 0.0241589043 -0.00703951856
  vertex -0.159363911 -0.0146318274 -0.00703951856
  vertex -0.159363911 0.0294097513 -0.00703951856
  endloop
 endfacet

 facet normal 0 0 -1
  outer loop
  vertex -0.155367374 0.0241589043 -0.00703951856
  vertex -0.159363911 0.0294097513 -0.00703951856
  vertex -0.156527683 0.0294097513 -0.00703951856
  endloop
 endfacet

 facet normal 0 -1 0
  outer loop
  vertex -0.155367374 -0.0146318274 -0.0021205307
  vertex -0.159363911 -0.0146318274 -0.0021205307
  vertex -0.159363911 -0.0146318274 -0.00703951856
  endloop
 endfacet

 facet normal 0 -1 0
  outer loop
  vertex -0.155367374 -0.0146318274 -0.0021205307
  vertex -0.159363911 -0.0146318274 -0.00703951856
  vertex -0.155367374 -0.0146318274 -0.00703951856
  endloop
 endfacet

endsolid AssimpScene
