solid AssimpScene
 facet normal 0 -1 0
  outer loop
  vertex -0.11698059 0.00420753751 -0.00704000005
  vertex -0.109188065 0.00420753751 -0.00704000005
  vertex -0.109188065 0.00420753751 -0.00304031302
  endloop
 endfacet

 facet normal 0 -1 0
  outer loop
  vertex -0.11698059 0.00420753751 -0.00704000005
  vertex -0.109188065 0.00420753751 -0.00304031302
  vertex -0.11698059 0.00420753751 -0.00304031302
  endloop
 endfacet

 facet normal -1 0 0
  outer loop
  vertex -0.11698059 0.00420753751 -0.00704000005
  vertex -0.11698059 0.00420753751 -0.00304031302
  vertex -0.11698059 0.0237821098 -0.00304031302
  endloop
 endfacet

 facet normal -1 0 0
  outer loop
  vertex -0.11698059 0.00420753751 -0.00704000005
  vertex -0.11698059 0.0237821098 -0.00304031302
  vertex -0.11698059 0.0237821098 -0.00704000005
  endloop
 endfacet

 facet normal 0 0 -1
  outer loop
  vertex -0.11698059 0.00420753751 -0.00704000005
  vertex -0.11698059 0.0237821098 -0.00704000005
  vertex -0.109188065 0.0237821098 -0.00704000005
  endloop
 endfacet

 facet normal 0 0 -1
  outer loop
  vertex -0.11698059 0.00420753751 -0.00704000005
  vertex -0.109188065 0.0237821098 -0.00704000005
  vertex -0.109188065 0.00420753751 -0.00704000005
  endloop
 endfacet

 facet normal 1 0 0
  outer loop
  vertex -0.109188065 0.00420753751 -0.00704000005
  vertex -0.109188065 0.0237821098 -0.00704000005
  vertex -0.109188065 0.0237821098 -0.00304031302
  endloop
 endfacet

 facet normal 1 0 0
  outer loop
  vertex -0.109188065 0.00420753751 -0.00704000005
  vertex -0.109188065 0.0237821098 -0.00304031302
  vertex -0.109188065 0.0199039839 -0.00303050107
  endloop
 endfacet

 facet normal 1 0 0
  outer loop
  vertex -0.109188065 0.00420753751 -0.00704000005
  vertex -0.109188065 0.0199039839 -0.00303050107
  vertex -0.109188065 0.00690728007 -0.00303050107
  endloop
 endfacet

 facet normal 1 0 0
  outer loop
  vertex -0.109188065 0.00420753751 -0.00704000005
  vertex -0.109188065 0.00690728007 -0.00303050107
  vertex -0.109188065 0.00420753751 -0.00304031302
  endloop
 endfacet

 facet normal 0 -0.00363438297 0.999993324
  outer loop
  vertex -0.11698059 0.00420753751 -0.00304031302
  vertex -0.109188065 0.00420753751 -0.00304031302
  vertex -0.109188065 0.00690728007 -0.00303050107
  endloop
 endfacet

 facet normal -0.000143291967 -0.00322079053 0.999994755
  outer loop
  vertex -0.11698059 0.00420753751 -0.00304031302
  vertex -0.109188065 0.00690728007 -0.00303050107
  vertex -0.109747939 0.00693218922 -0.00303050107
  endloop
 endfacet

 facet normal -0.000347085268 -0.0026798225 0.999996364
  outer loop
  vertex -0.11698059 0.00420753751 -0.00304031302
  vertex -0.109747939 0.00693218922 -0.00303050107
  vertex -0.110310107 0.00700500002 -0.00303050107
  endloop
 endfacet

 facet normal -0.000513928535 -0.00228199107 0.999997258
  outer loop
  vertex -0.11698059 0.00420753751 -0.00304031302
  vertex -0.110310107 0.00700500002 -0.00303050107
  vertex -0.110863119 0.00712954439 -0.00303050107
  endloop
 endfacet

 facet normal -0.000637796824 -0.00202266406 0.999997795
  outer loop
  vertex -0.11698059 0.00420753751 -0.00304031302
  vertex -0.110863119 0.00712954439 -0.00303050107
  vertex -0.111403927 0.00730007468 -0.00303050107
  endloop
 endfacet

 facet normal -0.000751213287 -0.00181814504 0.999998033
  outer loop
  vertex -0.11698059 0.00420753751 -0.00304031302
  vertex -0.111403927 0.00730007468 -0.00303050107
  vertex -0.111927956 0.00751659041 -0.00303050107
  endloop
 endfacet

 facet normal -0.000858002342 -0.00165508827 0.999998271
  outer loop
  vertex -0.11698059 0.00420753751 -0.00304031302
  vertex -0.111927956 0.00751659041 -0.00303050107
  vertex -0.112430625 0.00777717587 -0.00303050107
  endloop
 endfacet

 facet normal -0.000966338557 -0.00151699991 0.999998331
  outer loop
  vertex -0.11698059 0.00420753751 -0.00304031302
  vertex -0.112430625 0.00777717587 -0.00303050107
  vertex -0.112908885 0.00808183104 -0.00303050107
  endloop
 endfacet

 facet normal -0.00108035281 -0.00139717665 0.99999851
  outer loop
  vertex -0.11698059 0.00420753751 -0.00304031302
  vertex -0.112908885 0.00808183104 -0.00303050107
  vertex -0.113357402 0.00842863973 -0.00303050107
  endloop
 endfacet

 facet normal -0.00119258219 -0.00130084448 0.99999851
  outer loop
  vertex -0.11698059 0.00420753751 -0.00304031302
  vertex -0.113357402 0.00842863973 -0.00303050107
  vertex -0.113775402 0.00881185383 -0.00303050107
  endloop
 endfacet

 facet normal -0.00131784135 -0.00121364777 0.99999845
  outer loop
  vertex -0.11698059 0.00420753751 -0.00304031302
  vertex -0.113775402 0.00881185383 -0.00303050107
  vertex -0.114158317 0.00922764093 -0.00303050107
  endloop
 endfacet

 facet normal -0.00147002982 -0.00112808833 0.999998391
  outer loop
  vertex -0.11698059 0.00420753751 -0.00304031302
  vertex -0.114158317 0.00922764093 -0.00303050107
  vertex -0.114503853 0.0096779177 -0.00303050107
  endloop
 endfacet

 facet normal -0.00164840359 -0.00104732835 0.999998093
  outer loop
  vertex -0.11698059 0.00420753751 -0.00304031302
  vertex -0.114503853 0.0096779177 -0.00303050107
  vertex -0.114808202 0.0101569351 -0.00303050107
  endloop
 endfacet

 facet normal -0.00186077738 -0.000969780784 0.999997795
  outer loop
  vertex -0.11698059 0.00420753751 -0.00304031302
  vertex -0.114808202 0.0101569351 -0.00303050107
  vertex -0.115069836 0.010658945 -0.00303050107
  endloop
 endfacet

 facet normal -0.00213678903 -0.000888031791 0.999997318
  outer loop
  vertex -0.11698059 0.00420753751 -0.00304031302
  vertex -0.115069836 0.010658945 -0.00303050107
  vertex -0.115287229 0.0111820325 -0.00303050107
  endloop
 endfacet

 facet normal -0.00252805627 -0.000793033279 0.999996543
  outer loop
  vertex -0.11698059 0.00420753751 -0.00304031302
  vertex -0.115287229 0.0111820325 -0.00303050107
  vertex -0.115457326 0.0117242811 -0.00303050107
  endloop
 endfacet

 facet normal -0.00307553983 -0.000682083948 0.999994993
  outer loop
  vertex -0.11698059 0.00420753751 -0.00304031302
  vertex -0.115457326 0.0117242811 -0.00303050107
  vertex -0.115580134 0.012278025 -0.00303050107
  endloop
 endfacet

 facet normal -0.00398195582 -0.000524791249 0.999991894
  outer loop
  vertex -0.11698059 0.00420753751 -0.00304031302
  vertex -0.115580134 0.012278025 -0.00303050107
  vertex -0.115654126 0.0128394337 -0.00303050107
  endloop
 endfacet

 facet normal -0.00573936105 -0.000254720129 0.999983609
  outer loop
  vertex -0.11698059 0.00420753751 -0.00304031302
  vertex -0.115654126 0.0128394337 -0.00303050107
  vertex -0.115679294 0.0134065896 -0.00303050107
  endloop
 endfacet

 facet normal -0.00753992191 0 0.999971569
  outer loop
  vertex -0.11698059 0.00420753751 -0.00304031302
  vertex -0.115679294 0.0134065896 -0.00303050107
  vertex -0.11698059 0.0237821098 -0.00304031302
  endloop
 endfacet

 facet normal 0 1 0
  outer loop
  vertex -0.11698059 0.0237821098 -0.00704000005
  vertex -0.11698059 0.0237821098 -0.00304031302
  vertex -0.109188065 0.0237821098 -0.00304031302
  endloop
 endfacet

 facet normal 0 1 0
  outer loop
  vertex -0.11698059 0.0237821098 -0.00704000005
  vertex -0.109188065 0.0237821098 -0.00304031302
  vertex -0.109188065 0.0237821098 -0.00704000005
  endloop
 endfacet

 facet normal 0 0 1
  outer loop
  vertex -0.109188065 0.00690728007 -0.00303050107
  vertex -0.109188065 0.0199039839 -0.00303050107
  vertex -0.109747939 0.0198790748 -0.00303050107
  endloop
 endfacet

 facet normal 0 0 1
  outer loop
  vertex -0.109188065 0.00690728007 -0.00303050107
  vertex -0.109747939 0.0198790748 -0.00303050107
  vertex -0.110310107 0.019806264 -0.00303050107
  endloop
 endfacet

 facet normal 0 0 1
  outer loop
  vertex -0.109188065 0.00690728007 -0.00303050107
  vertex -0.110310107 0.019806264 -0.00303050107
  vertex -0.110863119 0.0196817201 -0.00303050107
  endloop
 endfacet

 facet normal 0 0 1
  outer loop
  vertex -0.109188065 0.00690728007 -0.00303050107
  vertex -0.110863119 0.0196817201 -0.00303050107
  vertex -0.111403927 0.0195111893 -0.00303050107
  endloop
 endfacet

 facet normal 0 0 1
  outer loop
  vertex -0.109188065 0.00690728007 -0.00303050107
  vertex -0.111403927 0.0195111893 -0.00303050107
  vertex -0.111927956 0.0192946736 -0.00303050107
  endloop
 endfacet

 facet normal 0 0 1
  outer loop
  vertex -0.109188065 0.00690728007 -0.00303050107
  vertex -0.111927956 0.0192946736 -0.00303050107
  vertex -0.112430625 0.019032171 -0.00303050107
  endloop
 endfacet

 facet normal 0 0 1
  outer loop
  vertex -0.109188065 0.00690728007 -0.00303050107
  vertex -0.112430625 0.019032171 -0.00303050107
  vertex -0.112908885 0.0187275186 -0.00303050107
  endloop
 endfacet

 facet normal 0 0 1
  outer loop
  vertex -0.109188065 0.00690728007 -0.00303050107
  vertex -0.112908885 0.0187275186 -0.00303050107
  vertex -0.113357402 0.0183845405 -0.00303050107
  endloop
 endfacet

 facet normal 0 0 1
  outer loop
  vertex -0.109188065 0.00690728007 -0.00303050107
  vertex -0.113357402 0.0183845405 -0.00303050107
  vertex -0.113775402 0.0180013254 -0.00303050107
  endloop
 endfacet

 facet normal 0 0 1
  outer loop
  vertex -0.109188065 0.00690728007 -0.00303050107
  vertex -0.113775402 0.0180013254 -0.00303050107
  vertex -0.114158317 0.0175836235 -0.00303050107
  endloop
 endfacet

 facet normal 0 0 1
  outer loop
  vertex -0.109188065 0.00690728007 -0.00303050107
  vertex -0.114158317 0.0175836235 -0.00303050107
  vertex -0.114503853 0.0171333458 -0.00303050107
  endloop
 endfacet

 facet normal 0 0 1
  outer loop
  vertex -0.109188065 0.00690728007 -0.00303050107
  vertex -0.114503853 0.0171333458 -0.00303050107
  vertex -0.114808202 0.0166543294 -0.00303050107
  endloop
 endfacet

 facet normal 0 0 1
  outer loop
  vertex -0.109188065 0.00690728007 -0.00303050107
  vertex -0.114808202 0.0166543294 -0.00303050107
  vertex -0.115069836 0.0161523186 -0.00303050107
  endloop
 endfacet

 facet normal 0 0 1
  outer loop
  vertex -0.109188065 0.00690728007 -0.00303050107
  vertex -0.115069836 0.0161523186 -0.00303050107
  vertex -0.115287229 0.0156292319 -0.00303050107
  endloop
 endfacet

 facet normal 0 0 1
  outer loop
  vertex -0.109188065 0.00690728007 -0.00303050107
  vertex -0.115287229 0.0156292319 -0.00303050107
  vertex -0.115457326 0.0150869843 -0.00303050107
  endloop
 endfacet

 facet normal 0 0 1
  outer loop
  vertex -0.109188065 0.00690728007 -0.00303050107
  vertex -0.115457326 0.0150869843 -0.00303050107
  vertex -0.115580134 0.0145332385 -0.00303050107
  endloop
 endfacet

 facet normal 0 0 1
  outer loop
  vertex -0.109188065 0.00690728007 -0.00303050107
  vertex -0.115580134 0.0145332385 -0.00303050107
  vertex -0.115654126 0.0139737464 -0.00303050107
  endloop
 endfacet

 facet normal 0 0 1
  outer loop
  vertex -0.109188065 0.00690728007 -0.00303050107
  vertex -0.115654126 0.0139737464 -0.00303050107
  vertex -0.115679294 0.0134065896 -0.00303050107
  endloop
 endfacet

 facet normal 0 0 1
  outer loop
  vertex -0.109188065 0.00690728007 -0.00303050107
  vertex -0.115679294 0.0134065896 -0.00303050107
  vertex -0.115654126 0.0128394337 -0.00303050107
  endloop
 endfacet

 facet normal 0 0 1
  outer loop
  vertex -0.109188065 0.00690728007 -0.00303050107
  vertex -0.115654126 0.0128394337 -0.00303050107
  vertex -0.115580134 0.012278025 -0.00303050107
  endloop
 endfacet

 facet normal 0 0 1
  outer loop
  vertex -0.109188065 0.00690728007 -0.00303050107
  vertex -0.115580134 0.012278025 -0.00303050107
  vertex -0.115457326 0.0117242811 -0.00303050107
  endloop
 endfacet

 facet normal 0 0 1
  outer loop
  vertex -0.109188065 0.00690728007 -0.00303050107
  vertex -0.115457326 0.0117242811 -0.00303050107
  vertex -0.115287229 0.0111820325 -0.00303050107
  endloop
 endfacet

 facet normal 0 0 1
  outer loop
  vertex -0.109188065 0.00690728007 -0.00303050107
  vertex -0.115287229 0.0111820325 -0.00303050107
  vertex -0.115069836 0.010658945 -0.00303050107
  endloop
 endfacet

 facet normal 0 0 1
  outer loop
  vertex -0.109188065 0.00690728007 -0.00303050107
  vertex -0.115069836 0.010658945 -0.00303050107
  vertex -0.114808202 0.0101569351 -0.00303050107
  endloop
 endfacet

 facet normal 0 0 1
  outer loop
  vertex -0.109188065 0.00690728007 -0.00303050107
  vertex -0.114808202 0.0101569351 -0.00303050107
  vertex -0.114503853 0.0096779177 -0.00303050107
  endloop
 endfacet

 facet normal 0 0 1
  outer loop
  vertex -0.109188065 0.00690728007 -0.00303050107
  vertex -0.114503853 0.0096779177 -0.00303050107
  vertex -0.114158317 0.00922764093 -0.00303050107
  endloop
 endfacet

 facet normal 0 0 1
  outer loop
  vertex -0.109188065 0.00690728007 -0.00303050107
  vertex -0.114158317 0.00922764093 -0.00303050107
  vertex -0.113775402 0.00881185383 -0.00303050107
  endloop
 endfacet

 facet normal 0 0 1
  outer loop
  vertex -0.109188065 0.00690728007 -0.00303050107
  vertex -0.113775402 0.00881185383 -0.00303050107
  vertex -0.113357402 0.00842863973 -0.00303050107
  endloop
 endfacet

 facet normal 0 0 1
  outer loop
  vertex -0.109188065 0.00690728007 -0.00303050107
  vertex -0.113357402 0.00842863973 -0.00303050107
  vertex -0.112908885 0.00808183104 -0.00303050107
  endloop
 endfacet

 facet normal 0 0 1
  outer loop
  vertex -0.109188065 0.00690728007 -0.00303050107
  vertex -0.112908885 0.00808183104 -0.00303050107
  vertex -0.112430625 0.00777717587 -0.00303050107
  endloop
 endfacet

 facet normal 0 0 1
  outer loop
  vertex -0.109188065 0.00690728007 -0.00303050107
  vertex -0.112430625 0.00777717587 -0.00303050107
  vertex -0.111927956 0.00751659041 -0.00303050107
  endloop
 endfacet

 facet normal 0 0 1
  outer loop
  vertex -0.109188065 0.00690728007 -0.00303050107
  vertex -0.111927956 0.00751659041 -0.00303050107
  vertex -0.111403927 0.00730007468 -0.00303050107
  endloop
 endfacet

 facet normal 0 0 1
  outer loop
  vertex -0.109188065 0.00690728007 -0.00303050107
  vertex -0.111403927 0.00730007468 -0.00303050107
  vertex -0.110863119 0.00712954439 -0.00303050107
  endloop
 endfacet

 facet normal 0 0 1
  outer loop
  vertex -0.109188065 0.00690728007 -0.00303050107
  vertex -0.110863119 0.00712954439 -0.00303050107
  vertex -0.110310107 0.00700500002 -0.00303050107
  endloop
 endfacet

 facet normal 0 0 1
  outer loop
  vertex -0.109188065 0.00690728007 -0.00303050107
  vertex -0.110310107 0.00700500002 -0.00303050107
  vertex -0.109747939 0.00693218922 -0.00303050107
  endloop
 endfacet

 facet normal -0.00556927361 0.000247171032 0.999984562
  outer loop
  vertex -0.115679294 0.0134065896 -0.00303050107
  vertex -0.115654126 0.0139737464 -0.00303050107
  vertex -0.11698059 0.0237821098 -0.00304031302
  endloop
 endfacet

 facet normal -0.00373990927 0.000494579901 0.999992847
  outer loop
  vertex -0.11698059 0.0237821098 -0.00304031302
  vertex -0.115654126 0.0139737464 -0.00303050107
  vertex -0.115580134 0.0145332385 -0.00303050107
  endloop
 endfacet

 facet normal -0.00284268288 0.000630440481 0.999995708
  outer loop
  vertex -0.11698059 0.0237821098 -0.00304031302
  vertex -0.115580134 0.0145332385 -0.00303050107
  vertex -0.115457326 0.0150869843 -0.00303050107
  endloop
 endfacet

 facet normal -0.00230822107 0.000724072452 0.999997079
  outer loop
  vertex -0.11698059 0.0237821098 -0.00304031302
  vertex -0.115457326 0.0150869843 -0.00303050107
  vertex -0.115287229 0.0156292319 -0.00303050107
  endloop
 endfacet

 facet normal -0.00193086162 0.000802451512 0.999997914
  outer loop
  vertex -0.11698059 0.0237821098 -0.00304031302
  vertex -0.115287229 0.0156292319 -0.00303050107
  vertex -0.115069836 0.0161523186 -0.00303050107
  endloop
 endfacet

 facet normal -0.00166666554 0.000868615578 0.999998271
  outer loop
  vertex -0.11698059 0.0237821098 -0.00304031302
  vertex -0.115069836 0.0161523186 -0.00303050107
  vertex -0.114808202 0.0166543294 -0.00303050107
  endloop
 endfacet

 facet normal -0.0014642321 0.000930313196 0.99999851
  outer loop
  vertex -0.11698059 0.0237821098 -0.00304031302
  vertex -0.114808202 0.0166543294 -0.00303050107
  vertex -0.114503853 0.0171333458 -0.00303050107
  endloop
 endfacet

 facet normal -0.00129463512 0.000993489986 0.999998689
  outer loop
  vertex -0.11698059 0.0237821098 -0.00304031302
  vertex -0.114503853 0.0171333458 -0.00303050107
  vertex -0.114158317 0.0175836235 -0.00303050107
  endloop
 endfacet

 facet normal -0.0011537344 0.00105764496 0.999998868
  outer loop
  vertex -0.11698059 0.0237821098 -0.00304031302
  vertex -0.114158317 0.0175836235 -0.00303050107
  vertex -0.113775402 0.0180013254 -0.00303050107
  endloop
 endfacet

 facet normal -0.00103167212 0.001125323 0.999998808
  outer loop
  vertex -0.11698059 0.0237821098 -0.00304031302
  vertex -0.113775402 0.0180013254 -0.00303050107
  vertex -0.113357402 0.0183845405 -0.00303050107
  endloop
 endfacet

 facet normal -0.000918582024 0.00120123627 0.999998808
  outer loop
  vertex -0.11698059 0.0237821098 -0.00304031302
  vertex -0.113357402 0.0183845405 -0.00303050107
  vertex -0.112908885 0.0187275186 -0.00303050107
  endloop
 endfacet

 facet normal -0.000817207794 0.00128289766 0.999998808
  outer loop
  vertex -0.11698059 0.0237821098 -0.00304031302
  vertex -0.112908885 0.0187275186 -0.00303050107
  vertex -0.112430625 0.019032171 -0.00303050107
  endloop
 endfacet

 facet normal -0.000719052216 0.00137692073 0.999998748
  outer loop
  vertex -0.11698059 0.0237821098 -0.00304031302
  vertex -0.112430625 0.019032171 -0.00303050107
  vertex -0.111927956 0.0192946736 -0.00303050107
  endloop
 endfacet

 facet normal -0.000616581237 0.00149229798 0.999998689
  outer loop
  vertex -0.11698059 0.0237821098 -0.00304031302
  vertex -0.111927956 0.0192946736 -0.00303050107
  vertex -0.111403927 0.0195111893 -0.00303050107
  endloop
 endfacet

 facet normal -0.000513147213 0.00162735465 0.999998569
  outer loop
  vertex -0.11698059 0.0237821098 -0.00304031302
  vertex -0.111403927 0.0195111893 -0.00303050107
  vertex -0.110863119 0.0196817201 -0.00303050107
  endloop
 endfacet

 facet normal -0.00040337682 0.00179112307 0.999998271
  outer loop
  vertex -0.11698059 0.0237821098 -0.00304031302
  vertex -0.110863119 0.0196817201 -0.00303050107
  vertex -0.110310107 0.019806264 -0.00303050107
  endloop
 endfacet

 facet normal -0.000262579473 0.00202734536 0.999997973
  outer loop
  vertex -0.11698059 0.0237821098 -0.00304031302
  vertex -0.110310107 0.019806264 -0.00303050107
  vertex -0.109747939 0.0198790748 -0.00303050107
  endloop
 endfacet

 facet normal -0.000103323546 0.00232245843 0.999997318
  outer loop
  vertex -0.11698059 0.0237821098 -0.00304031302
  vertex -0.109747939 0.0198790748 -0.00303050107
  vertex -0.109188065 0.0199039839 -0.00303050107
  endloop
 endfacet

 facet normal 0 0.00253007095 0.999996841
  outer loop
  vertex -0.11698059 0.0237821098 -0.00304031302
  vertex -0.109188065 0.0199039839 -0.00303050107
  vertex -0.109188065 0.0237821098 -0.00304031302
  endloop
 endfacet

endsolid AssimpScene
