solid AssimpScene
 facet normal 0.963681042 0.267056286 0
  outer loop
  vertex -0.0337075144 -0.0125934342 0.0174970068
  vertex -0.033704143 -0.0126056047 0.0175842959
  vertex -0.0337075144 -0.0125934342 0.0170066822
  endloop
 endfacet

 facet normal -0.220640957 0.975355208 0
  outer loop
  vertex -0.0337075144 -0.0125934342 0.0174970068
  vertex -0.0337075144 -0.0125934342 0.0170066822
  vertex -0.0484211147 -0.015921887 0.0170056857
  endloop
 endfacet

 facet normal -0.220640957 0.975355208 0
  outer loop
  vertex -0.0337075144 -0.0125934342 0.0174970068
  vertex -0.0484211147 -0.015921887 0.0170056857
  vertex -0.0484211147 -0.015921887 0.0190058853
  endloop
 endfacet

 facet normal -0.208074421 0.971454382 0.113935679
  outer loop
  vertex -0.0337075144 -0.0125934342 0.0174970068
  vertex -0.0484211147 -0.015921887 0.0190058853
  vertex -0.0531772301 -0.0170080438 0.019581005
  endloop
 endfacet

 facet normal -0.206718266 0.970449865 0.124477781
  outer loop
  vertex -0.0337075144 -0.0125934342 0.0174970068
  vertex -0.0531772301 -0.0170080438 0.019581005
  vertex -0.0484211147 -0.015931014 0.0190827008
  endloop
 endfacet

 facet normal -0.206661448 0.970406115 0.124912821
  outer loop
  vertex -0.0337075144 -0.0125934342 0.0174970068
  vertex -0.0484211147 -0.015931014 0.0190827008
  vertex -0.0400726125 -0.0140386038 0.0181933343
  endloop
 endfacet

 facet normal -0.20539926 0.969408631 0.134380117
  outer loop
  vertex -0.0337075144 -0.0125934342 0.0174970068
  vertex -0.0400726125 -0.0140386038 0.0181933343
  vertex -0.0337075144 -0.0125995195 0.0175409019
  endloop
 endfacet

 facet normal 0.0206042957 0.990318179 0.137278602
  outer loop
  vertex -0.0337075144 -0.0125934342 0.0174970068
  vertex -0.0337075144 -0.0125995195 0.0175409019
  vertex -0.033704143 -0.0126056047 0.0175842959
  endloop
 endfacet

 facet normal 0.697919071 0.700497568 0.149036929
  outer loop
  vertex -0.033704143 -0.0126056047 0.0175842959
  vertex -0.033704143 -0.0126147317 0.0176271927
  vertex -0.0337007679 -0.0126269022 0.0176685937
  endloop
 endfacet

 facet normal 0.916234016 0.395616025 0.0632705614
  outer loop
  vertex -0.033704143 -0.0126056047 0.0175842959
  vertex -0.0337007679 -0.0126269022 0.0176685937
  vertex -0.0336838998 -0.0126847085 0.0177858137
  endloop
 endfacet

 facet normal 0.969069958 0.246785551 -0.000458575989
  outer loop
  vertex -0.033704143 -0.0126056047 0.0175842959
  vertex -0.0336838998 -0.0126847085 0.0177858137
  vertex -0.0337075144 -0.0125934342 0.0170066822
  endloop
 endfacet

 facet normal -0.203162596 0.967361331 0.151450202
  outer loop
  vertex -0.033704143 -0.0126056047 0.0175842959
  vertex -0.0337075144 -0.0125995195 0.0175409019
  vertex -0.0484211147 -0.015931014 0.0190827008
  endloop
 endfacet

 facet normal -0.201837346 0.966015518 0.16147989
  outer loop
  vertex -0.033704143 -0.0126056047 0.0175842959
  vertex -0.0484211147 -0.015931014 0.0190827008
  vertex -0.0531772301 -0.0170080438 0.019581005
  endloop
 endfacet

 facet normal -0.195918769 0.959151864 0.204067871
  outer loop
  vertex -0.033704143 -0.0126056047 0.0175842959
  vertex -0.0531772301 -0.0170080438 0.019581005
  vertex -0.033704143 -0.0126147317 0.0176271927
  endloop
 endfacet

 facet normal 0.970060408 0.242862388 -0.00094818545
  outer loop
  vertex -0.0337075144 -0.0125934342 0.0170066822
  vertex -0.0336838998 -0.0126847085 0.0177858137
  vertex -0.0336838998 -0.0126877511 0.0170066822
  endloop
 endfacet

 facet normal 0.967470288 0.242213905 -0.0730317682
  outer loop
  vertex -0.0337075144 -0.0125934342 0.0170066822
  vertex -0.0336838998 -0.0126877511 0.0170066822
  vertex -0.0322300829 -0.0191286393 0.014904228
  endloop
 endfacet

 facet normal 0 0.306253761 -0.951949954
  outer loop
  vertex -0.0337075144 -0.0125934342 0.0170066822
  vertex -0.0322300829 -0.0191286393 0.014904228
  vertex -0.0342809446 -0.0191286393 0.014904228
  endloop
 endfacet

 facet normal -0.0703072846 0.311081141 -0.947779298
  outer loop
  vertex -0.0337075144 -0.0125934342 0.0170066822
  vertex -0.0342809446 -0.0191286393 0.014904228
  vertex -0.0484211147 -0.015921887 0.0170056857
  endloop
 endfacet

 facet normal -0.221004829 0.975272655 0
  outer loop
  vertex -0.0484211147 -0.015921887 0.0190058853
  vertex -0.0484211147 -0.015921887 0.0170056857
  vertex -0.0627333149 -0.019165149 0.0170056857
  endloop
 endfacet

 facet normal -0.221093178 0.975252509 0.00066491327
  outer loop
  vertex -0.0484211147 -0.015921887 0.0190058853
  vertex -0.0627333149 -0.019165149 0.0170056857
  vertex -0.0531704836 -0.0169989169 0.0194932148
  endloop
 endfacet

 facet normal -0.212064311 0.973559499 0.0849156827
  outer loop
  vertex -0.0484211147 -0.015921887 0.0190058853
  vertex -0.0531704836 -0.0169989169 0.0194932148
  vertex -0.0531772301 -0.0170080438 0.019581005
  endloop
 endfacet

 facet normal -0.186307639 0.944776952 0.269603312
  outer loop
  vertex -0.0531772301 -0.0170080438 0.019581005
  vertex -0.0531772301 -0.0170323849 0.0196662992
  vertex -0.0484211147 -0.0159431826 0.0191360731
  endloop
 endfacet

 facet normal -0.190551281 0.951689601 0.240784615
  outer loop
  vertex -0.0531772301 -0.0170080438 0.019581005
  vertex -0.0484211147 -0.0159431826 0.0191360731
  vertex -0.033704143 -0.0126147317 0.0176271927
  endloop
 endfacet

 facet normal -0.240442365 0.967187405 0.0820724592
  outer loop
  vertex -0.0531772301 -0.0170080438 0.019581005
  vertex -0.0531704836 -0.0169989169 0.0194932148
  vertex -0.0627333149 -0.019165149 0.0170056857
  endloop
 endfacet

 facet normal -0.253047287 0.957739174 0.1367587
  outer loop
  vertex -0.0531772301 -0.0170080438 0.019581005
  vertex -0.0627333149 -0.019165149 0.0170056857
  vertex -0.06306725 -0.0192533806 0.0170056857
  endloop
 endfacet

 facet normal -0.27832076 0.923618317 0.263565481
  outer loop
  vertex -0.0531772301 -0.0170080438 0.019581005
  vertex -0.06306725 -0.0192533806 0.0170056857
  vertex -0.0531772301 -0.0170323849 0.0196662992
  endloop
 endfacet

 facet normal -0.204535797 0.968636036 0.141100019
  outer loop
  vertex -0.0484211147 -0.015931014 0.0190827008
  vertex -0.0337075144 -0.0125995195 0.0175409019
  vertex -0.0400726125 -0.0140386038 0.0181933343
  endloop
 endfacet

 facet normal -0.183098286 0.940034389 0.287767947
  outer loop
  vertex -0.033704143 -0.0126147317 0.0176271927
  vertex -0.0484211147 -0.0159431826 0.0191360731
  vertex -0.0484177433 -0.0159553532 0.0191779714
  endloop
 endfacet

 facet normal -0.182561353 0.939154088 0.290965796
  outer loop
  vertex -0.033704143 -0.0126147317 0.0176271927
  vertex -0.0484177433 -0.0159553532 0.0191779714
  vertex -0.0337007679 -0.0126269022 0.0176685937
  endloop
 endfacet

 facet normal 0.888076723 0.449956894 0.0941199809
  outer loop
  vertex -0.0337007679 -0.0126269022 0.0176685937
  vertex -0.0336973928 -0.0126421144 0.0177094955
  vertex -0.0336838998 -0.0126847085 0.0177858137
  endloop
 endfacet

 facet normal -0.171289504 0.918723822 0.355817974
  outer loop
  vertex -0.0337007679 -0.0126269022 0.0176685937
  vertex -0.0484177433 -0.0159553532 0.0191779714
  vertex -0.0336973928 -0.0126421144 0.0177094955
  endloop
 endfacet

 facet normal 0.261633724 0.763537586 0.590388179
  outer loop
  vertex -0.0336838998 -0.0126847085 0.0177858137
  vertex -0.0336805284 -0.0127120912 0.0178197306
  vertex -0.0336737819 -0.012739473 0.0178521536
  endloop
 endfacet

 facet normal 0.913924336 0.370276541 0.166245848
  outer loop
  vertex -0.0336838998 -0.0126847085 0.0177858137
  vertex -0.0336737819 -0.012739473 0.0178521536
  vertex -0.0336569175 -0.0128064072 0.0179085191
  endloop
 endfacet

 facet normal 0.975340307 0.220663548 0.0043541044
  outer loop
  vertex -0.0336838998 -0.0126847085 0.0177858137
  vertex -0.0336569175 -0.0128064072 0.0179085191
  vertex -0.0303512476 -0.0274193436 0.0179983024
  endloop
 endfacet

 facet normal 0.975356817 0.220627427 0.00159233401
  outer loop
  vertex -0.0336838998 -0.0126847085 0.0177858137
  vertex -0.0303512476 -0.0274193436 0.0179983024
  vertex -0.029953219 -0.0291718002 0.0170056857
  endloop
 endfacet

 facet normal 0.975341916 0.2206994 0
  outer loop
  vertex -0.0336838998 -0.0126847085 0.0177858137
  vertex -0.029953219 -0.0291718002 0.0170056857
  vertex -0.029953219 -0.0291718002 0.014904228
  endloop
 endfacet

 facet normal 0.975309074 0.220842689 -0.000862215878
  outer loop
  vertex -0.0336838998 -0.0126847085 0.0177858137
  vertex -0.029953219 -0.0291718002 0.014904228
  vertex -0.0336838998 -0.0126877511 0.0170066822
  endloop
 endfacet

 facet normal 0.104298502 0.876175821 0.470571905
  outer loop
  vertex -0.0336838998 -0.0126847085 0.0177858137
  vertex -0.0336973928 -0.0126421144 0.0177094955
  vertex -0.0336940214 -0.0126634119 0.0177484024
  endloop
 endfacet

 facet normal -0.137756363 0.84428072 0.517893195
  outer loop
  vertex -0.0336838998 -0.0126847085 0.0177858137
  vertex -0.0336940214 -0.0126634119 0.0177484024
  vertex -0.0531738587 -0.0170901902 0.0197835192
  endloop
 endfacet

 facet normal -0.112015955 0.776654661 0.619887173
  outer loop
  vertex -0.0336838998 -0.0126847085 0.0177858137
  vertex -0.0531738587 -0.0170901902 0.0197835192
  vertex -0.0531704836 -0.0171175729 0.0198184345
  endloop
 endfacet

 facet normal -0.108924799 0.768138885 0.630950093
  outer loop
  vertex -0.0336838998 -0.0126847085 0.0177858137
  vertex -0.0531704836 -0.0171175729 0.0198184345
  vertex -0.0336805284 -0.0127120912 0.0178197306
  endloop
 endfacet

 facet normal 0.975247502 0.221096262 -0.00295978459
  outer loop
  vertex -0.0336838998 -0.0126877511 0.0170066822
  vertex -0.029953219 -0.0291718002 0.014904228
  vertex -0.0322300829 -0.0191286393 0.014904228
  endloop
 endfacet

 facet normal 0 0 -1
  outer loop
  vertex -0.0322300829 -0.0191286393 0.014904228
  vertex -0.029953219 -0.0291718002 0.014904228
  vertex -0.03733363 -0.0342527069 0.014904228
  endloop
 endfacet

 facet normal 0 0 -1
  outer loop
  vertex -0.0322300829 -0.0191286393 0.014904228
  vertex -0.03733363 -0.0342527069 0.014904228
  vertex -0.0408585556 -0.0342527069 0.014904228
  endloop
 endfacet

 facet normal 0 0 -1
  outer loop
  vertex -0.0322300829 -0.0191286393 0.014904228
  vertex -0.0408585556 -0.0342527069 0.014904228
  vertex -0.0342809446 -0.0191286393 0.014904228
  endloop
 endfacet

 facet normal -0.0704251751 0.0306286123 -0.997046709
  outer loop
  vertex -0.0342809446 -0.0191286393 0.014904228
  vertex -0.0408585556 -0.0342527069 0.014904228
  vertex -0.0643962696 -0.0199653152 0.0170056857
  endloop
 endfacet

 facet normal -0.070640251 0.0391576849 -0.996733069
  outer loop
  vertex -0.0342809446 -0.0191286393 0.014904228
  vertex -0.0643962696 -0.0199653152 0.0170056857
  vertex -0.0643760264 -0.0199288055 0.0170056857
  endloop
 endfacet

 facet normal -0.070855245 0.0483431891 -0.996314466
  outer loop
  vertex -0.0342809446 -0.0191286393 0.014904228
  vertex -0.0643760264 -0.0199288055 0.0170056857
  vertex -0.0643490404 -0.0198892541 0.0170056857
  endloop
 endfacet

 facet normal -0.0710010082 0.055104237 -0.995953023
  outer loop
  vertex -0.0342809446 -0.0191286393 0.014904228
  vertex -0.0643490404 -0.0198892541 0.0170056857
  vertex -0.0643254295 -0.0198588297 0.0170056857
  endloop
 endfacet

 facet normal -0.0713012218 0.0702665076 -0.994976759
  outer loop
  vertex -0.0342809446 -0.0191286393 0.014904228
  vertex -0.0643254295 -0.0198588297 0.0170056857
  vertex -0.0642714649 -0.019804066 0.0170056857
  endloop
 endfacet

 facet normal -0.0717634112 0.0982846171 -0.99256748
  outer loop
  vertex -0.0342809446 -0.0191286393 0.014904228
  vertex -0.0642714649 -0.019804066 0.0170056857
  vertex -0.0642006248 -0.0197523441 0.0170056857
  endloop
 endfacet

 facet normal -0.0717944428 0.100543581 -0.992338896
  outer loop
  vertex -0.0342809446 -0.0191286393 0.014904228
  vertex -0.0642006248 -0.0197523441 0.0170056857
  vertex -0.0641196743 -0.0196945369 0.0170056857
  endloop
 endfacet

 facet normal -0.0720293596 0.121887587 -0.989926815
  outer loop
  vertex -0.0342809446 -0.0191286393 0.014904228
  vertex -0.0641196743 -0.0196945369 0.0170056857
  vertex -0.0640218481 -0.0196367297 0.0170056857
  endloop
 endfacet

 facet normal -0.0721908957 0.143225521 -0.987053752
  outer loop
  vertex -0.0342809446 -0.0191286393 0.014904228
  vertex -0.0640218481 -0.0196367297 0.0170056857
  vertex -0.0639071614 -0.0195789244 0.0170056857
  endloop
 endfacet

 facet normal -0.0722277313 0.151255473 -0.98585242
  outer loop
  vertex -0.0342809446 -0.0191286393 0.014904228
  vertex -0.0639071614 -0.0195789244 0.0170056857
  vertex -0.0637924746 -0.0195241589 0.0170056857
  endloop
 endfacet

 facet normal -0.0722537935 0.164430827 -0.98373878
  outer loop
  vertex -0.0342809446 -0.0191286393 0.014904228
  vertex -0.0637924746 -0.0195241589 0.0170056857
  vertex -0.0636609271 -0.0194663517 0.0170056857
  endloop
 endfacet

 facet normal -0.0722407401 0.177981675 -0.981378615
  outer loop
  vertex -0.0342809446 -0.0191286393 0.014904228
  vertex -0.0636609271 -0.0194663517 0.0170056857
  vertex -0.0635259971 -0.0194115881 0.0170056857
  endloop
 endfacet

 facet normal -0.0721490234 0.199976608 -0.977140665
  outer loop
  vertex -0.0342809446 -0.0191286393 0.014904228
  vertex -0.0635259971 -0.0194115881 0.0170056857
  vertex -0.0632224157 -0.019302059 0.0170056857
  endloop
 endfacet

 facet normal -0.0718597919 0.229052112 -0.97075808
  outer loop
  vertex -0.0342809446 -0.0191286393 0.014904228
  vertex -0.0632224157 -0.019302059 0.0170056857
  vertex -0.06306725 -0.0192533806 0.0170056857
  endloop
 endfacet

 facet normal -0.071271874 0.269751459 -0.960288703
  outer loop
  vertex -0.0342809446 -0.0191286393 0.014904228
  vertex -0.06306725 -0.0192533806 0.0170056857
  vertex -0.0627333149 -0.019165149 0.0170056857
  endloop
 endfacet

 facet normal -0.070408985 0.310707957 -0.947894156
  outer loop
  vertex -0.0342809446 -0.0191286393 0.014904228
  vertex -0.0627333149 -0.019165149 0.0170056857
  vertex -0.0484211147 -0.015921887 0.0170056857
  endloop
 endfacet

 facet normal -0.285411417 0.909744918 0.301503867
  outer loop
  vertex -0.0531772301 -0.0170323849 0.0196662992
  vertex -0.06306725 -0.0192533806 0.0170056857
  vertex -0.0632224157 -0.019302059 0.0170056857
  endloop
 endfacet

 facet normal -0.291542619 0.895208359 0.337053031
  outer loop
  vertex -0.0531772301 -0.0170323849 0.0196662992
  vertex -0.0632224157 -0.019302059 0.0170056857
  vertex -0.0531772301 -0.0170475971 0.0197067037
  endloop
 endfacet

 facet normal -0.172978073 0.921756864 0.34704873
  outer loop
  vertex -0.0531772301 -0.0170323849 0.0196662992
  vertex -0.0531772301 -0.0170475971 0.0197067037
  vertex -0.0484177433 -0.0159553532 0.0191779714
  endloop
 endfacet

 facet normal -0.18319194 0.940015495 0.287769973
  outer loop
  vertex -0.0531772301 -0.0170323849 0.0196662992
  vertex -0.0484177433 -0.0159553532 0.0191779714
  vertex -0.0484211147 -0.0159431826 0.0191360731
  endloop
 endfacet

 facet normal -0.171033606 0.918218493 0.357242942
  outer loop
  vertex -0.0484177433 -0.0159553532 0.0191779714
  vertex -0.0531772301 -0.0170475971 0.0197067037
  vertex -0.0336973928 -0.0126421144 0.0177094955
  endloop
 endfacet

 facet normal -0.149542615 0.872293711 0.465554208
  outer loop
  vertex -0.0336973928 -0.0126421144 0.0177094955
  vertex -0.0531772301 -0.0170475971 0.0197067037
  vertex -0.0531772301 -0.0170688946 0.0197466072
  endloop
 endfacet

 facet normal -0.145313844 0.862509012 0.484729022
  outer loop
  vertex -0.0336973928 -0.0126421144 0.0177094955
  vertex -0.0531772301 -0.0170688946 0.0197466072
  vertex -0.0336940214 -0.0126634119 0.0177484024
  endloop
 endfacet

 facet normal -0.10230469 0.749389589 0.654178202
  outer loop
  vertex -0.0336805284 -0.0127120912 0.0178197306
  vertex -0.0531704836 -0.0171175729 0.0198184345
  vertex -0.0336737819 -0.012739473 0.0178521536
  endloop
 endfacet

 facet normal 0.596698165 0.599526525 0.533403575
  outer loop
  vertex -0.0336737819 -0.012739473 0.0178521536
  vertex -0.033663664 -0.0127881523 0.0178955495
  vertex -0.0336569175 -0.0128064072 0.0179085191
  endloop
 endfacet

 facet normal -0.099709779 0.741847217 0.663114429
  outer loop
  vertex -0.0336737819 -0.012739473 0.0178521536
  vertex -0.0531704836 -0.0171175729 0.0198184345
  vertex -0.0484211147 -0.0160770528 0.0193685144
  endloop
 endfacet

 facet normal -0.0710387155 0.65548259 0.751861691
  outer loop
  vertex -0.0336737819 -0.012739473 0.0178521536
  vertex -0.0484211147 -0.0160770528 0.0193685144
  vertex -0.033663664 -0.0127881523 0.0178955495
  endloop
 endfacet

 facet normal -0.043990992 0.567759752 0.822018027
  outer loop
  vertex -0.0336569175 -0.0128064072 0.0179085191
  vertex -0.033663664 -0.0127881523 0.0178955495
  vertex -0.0400726125 -0.0142546184 0.0185654424
  endloop
 endfacet

 facet normal -0.0375407413 0.545965314 0.836966276
  outer loop
  vertex -0.0336569175 -0.0128064072 0.0179085191
  vertex -0.0400726125 -0.0142546184 0.0185654424
  vertex -0.0484211147 -0.0161622409 0.0194353536
  endloop
 endfacet

 facet normal -0.0367345475 0.543240488 0.838773191
  outer loop
  vertex -0.0336569175 -0.0128064072 0.0179085191
  vertex -0.0484211147 -0.0161622409 0.0194353536
  vertex -0.0336535461 -0.012824662 0.0179204885
  endloop
 endfacet

 facet normal 0.930693567 0.304636687 0.202499732
  outer loop
  vertex -0.0336569175 -0.0128064072 0.0179085191
  vertex -0.0336535461 -0.012824662 0.0179204885
  vertex -0.033623185 -0.0129585294 0.0179823413
  endloop
 endfacet

 facet normal 0.975302637 0.22068432 0.00912019983
  outer loop
  vertex -0.0336569175 -0.0128064072 0.0179085191
  vertex -0.033623185 -0.0129585294 0.0179823413
  vertex -0.0303512476 -0.0274193436 0.0179983024
  endloop
 endfacet

 facet normal 0.975126386 0.220657453 0.0209474154
  outer loop
  vertex -0.0303512476 -0.0274193436 0.0179983024
  vertex -0.033623185 -0.0129585294 0.0179823413
  vertex -0.0336096957 -0.0130193792 0.0179953109
  endloop
 endfacet

 facet normal 0.973707318 0.220344007 0.0578161106
  outer loop
  vertex -0.0303512476 -0.0274193436 0.0179983024
  vertex -0.0336096957 -0.0130193792 0.0179953109
  vertex -0.0335995741 -0.0130650168 0.0179988015
  endloop
 endfacet

 facet normal 0.279508173 0.0632182583 0.958059788
  outer loop
  vertex -0.0303512476 -0.0274193436 0.0179983024
  vertex -0.0335995741 -0.0130650168 0.0179988015
  vertex -0.0319332443 -0.0204399396 0.0179993007
  endloop
 endfacet

 facet normal 0.236678496 0.0535084754 0.970113575
  outer loop
  vertex -0.0303512476 -0.0274193436 0.0179983024
  vertex -0.0319332443 -0.0204399396 0.0179993007
  vertex -0.030071279 -0.0286667515 0.0179988015
  endloop
 endfacet

 facet normal 0.974673271 0.2187749 0.0463631861
  outer loop
  vertex -0.0303512476 -0.0274193436 0.0179983024
  vertex -0.030071279 -0.0286667515 0.0179988015
  vertex -0.0300206803 -0.0288827661 0.0179544073
  endloop
 endfacet

 facet normal 0.975436211 0.220270261 0.00225477316
  outer loop
  vertex -0.0303512476 -0.0274193436 0.0179983024
  vertex -0.0300206803 -0.0288827661 0.0179544073
  vertex -0.029953219 -0.0291718002 0.0170056857
  endloop
 endfacet

 facet normal 0.975450039 0.220209062 0.00227440149
  outer loop
  vertex -0.029953219 -0.0291718002 0.0170056857
  vertex -0.0300206803 -0.0288827661 0.0179544073
  vertex -0.0299700834 -0.0291048661 0.0177583788
  endloop
 endfacet

 facet normal 0.981002927 0.193935439 0.0047352328
  outer loop
  vertex -0.029953219 -0.0291718002 0.0170056857
  vertex -0.0299700834 -0.0291048661 0.0177583788
  vertex -0.0299565904 -0.0291687585 0.017579807
  endloop
 endfacet

 facet normal 0.999057233 -0.0429823324 0.00609676447
  outer loop
  vertex -0.029953219 -0.0291718002 0.0170056857
  vertex -0.0299565904 -0.0291687585 0.017579807
  vertex -0.0299565904 -0.0291718002 0.0175583586
  endloop
 endfacet

 facet normal 0.567458212 -0.823395014 0.00346292346
  outer loop
  vertex -0.029953219 -0.0291718002 0.0170056857
  vertex -0.0299565904 -0.0291718002 0.0175583586
  vertex -0.0476891436 -0.041384235 0.0195291284
  endloop
 endfacet

 facet normal 0.567146182 -0.82361716 0.000195285305
  outer loop
  vertex -0.029953219 -0.0291718002 0.0170056857
  vertex -0.0476891436 -0.041384235 0.0195291284
  vertex -0.0453819223 -0.0397960693 0.0170066822
  endloop
 endfacet

 facet normal 0.567146182 -0.82361716 0
  outer loop
  vertex -0.029953219 -0.0291718002 0.0170056857
  vertex -0.0453819223 -0.0397960693 0.0170066822
  vertex -0.029953219 -0.0291718002 0.014904228
  endloop
 endfacet

 facet normal 0.567049444 -0.823683202 -0.00104391179
  outer loop
  vertex -0.029953219 -0.0291718002 0.014904228
  vertex -0.0453819223 -0.0397960693 0.0170066822
  vertex -0.03733363 -0.0342527069 0.014904228
  endloop
 endfacet

 facet normal -0.140896797 0.851897001 0.504400253
  outer loop
  vertex -0.0336940214 -0.0126634119 0.0177484024
  vertex -0.0531772301 -0.0170688946 0.0197466072
  vertex -0.0531738587 -0.0170901902 0.0197835192
  endloop
 endfacet

 facet normal -0.314556658 0.809470773 0.495793581
  outer loop
  vertex -0.0531738587 -0.0170901902 0.0197835192
  vertex -0.0531772301 -0.0170688946 0.0197466072
  vertex -0.0635259971 -0.0194115881 0.0170056857
  endloop
 endfacet

 facet normal -0.318602383 0.784950137 0.531362295
  outer loop
  vertex -0.0531738587 -0.0170901902 0.0197835192
  vertex -0.0635259971 -0.0194115881 0.0170056857
  vertex -0.0636609271 -0.0194663517 0.0170056857
  endloop
 endfacet

 facet normal -0.324054867 0.737464428 0.592566311
  outer loop
  vertex -0.0531738587 -0.0170901902 0.0197835192
  vertex -0.0636609271 -0.0194663517 0.0170056857
  vertex -0.0637924746 -0.0195241589 0.0170056857
  endloop
 endfacet

 facet normal -0.324753881 0.728753269 0.60287118
  outer loop
  vertex -0.0531738587 -0.0170901902 0.0197835192
  vertex -0.0637924746 -0.0195241589 0.0170056857
  vertex -0.0531704836 -0.0171175729 0.0198184345
  endloop
 endfacet

 facet normal -0.327487469 0.68580693 0.64993906
  outer loop
  vertex -0.0531704836 -0.0171175729 0.0198184345
  vertex -0.0637924746 -0.0195241589 0.0170056857
  vertex -0.0639071614 -0.0195789244 0.0170056857
  endloop
 endfacet

 facet normal -0.32849893 0.651736379 0.683614135
  outer loop
  vertex -0.0531704836 -0.0171175729 0.0198184345
  vertex -0.0639071614 -0.0195789244 0.0170056857
  vertex -0.0640218481 -0.0196367297 0.0170056857
  endloop
 endfacet

 facet normal -0.328594923 0.642500401 0.692256272
  outer loop
  vertex -0.0531704836 -0.0171175729 0.0198184345
  vertex -0.0640218481 -0.0196367297 0.0170056857
  vertex -0.0531637371 -0.0171662532 0.0198668186
  endloop
 endfacet

 facet normal -0.085075438 0.696431398 0.712562561
  outer loop
  vertex -0.0531704836 -0.0171175729 0.0198184345
  vertex -0.0531637371 -0.0171662532 0.0198668186
  vertex -0.0484211147 -0.0160770528 0.0193685144
  endloop
 endfacet

 facet normal 0 -0.217677459 -0.976020873
  outer loop
  vertex -0.0408585556 -0.0342527069 0.014904228
  vertex -0.03733363 -0.0342527069 0.014904228
  vertex -0.0583482422 -0.0436752066 0.0170056857
  endloop
 endfacet

 facet normal -0.00496057887 -0.208894596 -0.977925539
  outer loop
  vertex -0.0408585556 -0.0342527069 0.014904228
  vertex -0.0583482422 -0.0436752066 0.0170056857
  vertex -0.058476422 -0.043672163 0.0170056857
  endloop
 endfacet

 facet normal -0.01114967 -0.197820529 -0.980174899
  outer loop
  vertex -0.0408585556 -0.0342527069 0.014904228
  vertex -0.058476422 -0.043672163 0.0170056857
  vertex -0.0585843623 -0.0436660796 0.0170056857
  endloop
 endfacet

 facet normal -0.0187894665 -0.184008241 -0.982745111
  outer loop
  vertex -0.0408585556 -0.0342527069 0.014904228
  vertex -0.0585843623 -0.0436660796 0.0170056857
  vertex -0.0587631389 -0.0436478257 0.0170056857
  endloop
 endfacet

 facet normal -0.0348311774 -0.154474318 -0.98738265
  outer loop
  vertex -0.0408585556 -0.0342527069 0.014904228
  vertex -0.0587631389 -0.0436478257 0.0170056857
  vertex -0.0588845685 -0.0436204448 0.0170056857
  endloop
 endfacet

 facet normal -0.0466866381 -0.132273808 -0.990113199
  outer loop
  vertex -0.0408585556 -0.0342527069 0.014904228
  vertex -0.0588845685 -0.0436204448 0.0170056857
  vertex -0.0589621514 -0.0435930602 0.0170056857
  endloop
 endfacet

 facet normal -0.0570938103 -0.112528555 -0.992006958
  outer loop
  vertex -0.0408585556 -0.0342527069 0.014904228
  vertex -0.0589621514 -0.0435930602 0.0170056857
  vertex -0.0590161234 -0.0435656793 0.0170056857
  endloop
 endfacet

 facet normal -0.067201212 -0.0931326449 -0.993383288
  outer loop
  vertex -0.0408585556 -0.0342527069 0.014904228
  vertex -0.0590161234 -0.0435656793 0.0170056857
  vertex -0.0590498522 -0.0435413383 0.0170056857
  endloop
 endfacet

 facet normal -0.0733195394 -0.0812875181 -0.993990183
  outer loop
  vertex -0.0408585556 -0.0342527069 0.014904228
  vertex -0.0590498522 -0.0435413383 0.0170056857
  vertex -0.0590903312 -0.0435048304 0.0170056857
  endloop
 endfacet

 facet normal -0.0833664164 -0.0616307072 -0.994611263
  outer loop
  vertex -0.0408585556 -0.0342527069 0.014904228
  vertex -0.0590903312 -0.0435048304 0.0170056857
  vertex -0.0590970777 -0.0434957035 0.0170056857
  endloop
 endfacet

 facet normal -0.0954570994 -0.0377968028 -0.994715691
  outer loop
  vertex -0.0408585556 -0.0342527069 0.014904228
  vertex -0.0590970777 -0.0434957035 0.0170056857
  vertex -0.0591139421 -0.0434531085 0.0170056857
  endloop
 endfacet

 facet normal -0.10275875 -0.0232446976 -0.994434714
  outer loop
  vertex -0.0408585556 -0.0342527069 0.014904228
  vertex -0.0591139421 -0.0434531085 0.0170056857
  vertex -0.0644063875 -0.0200565886 0.0170056857
  endloop
 endfacet

 facet normal -0.102442198 -0.0227129366 -0.994479716
  outer loop
  vertex -0.0408585556 -0.0342527069 0.014904228
  vertex -0.0644063875 -0.0200565886 0.0170056857
  vertex -0.0644097626 -0.0200413782 0.0170056857
  endloop
 endfacet

 facet normal -0.0981682241 -0.015545954 -0.995048463
  outer loop
  vertex -0.0408585556 -0.0342527069 0.014904228
  vertex -0.0644097626 -0.0200413782 0.0170056857
  vertex -0.0644131303 -0.0200200807 0.0170056857
  endloop
 endfacet

 facet normal -0.0749874413 0.0230934694 -0.996917129
  outer loop
  vertex -0.0408585556 -0.0342527069 0.014904228
  vertex -0.0644131303 -0.0200200807 0.0170056857
  vertex -0.0643962696 -0.0199653152 0.0170056857
  endloop
 endfacet

 facet normal -0.272805452 0.0840144008 0.958393931
  outer loop
  vertex -0.0643962696 -0.0199653152 0.0170056857
  vertex -0.0644131303 -0.0200200807 0.0170056857
  vertex -0.0531131402 -0.0174339898 0.0199955106
  endloop
 endfacet

 facet normal -0.279486597 0.120720379 0.952530265
  outer loop
  vertex -0.0643962696 -0.0199653152 0.0170056857
  vertex -0.0531131402 -0.0174339898 0.0199955106
  vertex -0.0531232618 -0.0173944365 0.0199875291
  endloop
 endfacet

 facet normal -0.286128134 0.158608109 0.944973171
  outer loop
  vertex -0.0643962696 -0.0199653152 0.0170056857
  vertex -0.0531232618 -0.0173944365 0.0199875291
  vertex -0.0643760264 -0.0199288055 0.0170056857
  endloop
 endfacet

 facet normal -0.288401097 0.172350347 0.94187063
  outer loop
  vertex -0.0643760264 -0.0199288055 0.0170056857
  vertex -0.0531232618 -0.0173944365 0.0199875291
  vertex -0.0531266332 -0.0173700973 0.0199820418
  endloop
 endfacet

 facet normal -0.292840749 0.199799687 0.93505311
  outer loop
  vertex -0.0643760264 -0.0199288055 0.0170056857
  vertex -0.0531266332 -0.0173700973 0.0199820418
  vertex -0.0643490404 -0.0198892541 0.0170056857
  endloop
 endfacet

 facet normal -0.297521055 0.230907544 0.926370859
  outer loop
  vertex -0.0643490404 -0.0198892541 0.0170056857
  vertex -0.0531266332 -0.0173700973 0.0199820418
  vertex -0.0643254295 -0.0198588297 0.0170056857
  endloop
 endfacet

 facet normal -0.299408376 0.244220972 0.922339857
  outer loop
  vertex -0.0643254295 -0.0198588297 0.0170056857
  vertex -0.0531266332 -0.0173700973 0.0199820418
  vertex -0.0531333797 -0.0173275024 0.019968573
  endloop
 endfacet

 facet normal -0.302158445 0.263749778 0.916043878
  outer loop
  vertex -0.0643254295 -0.0198588297 0.0170056857
  vertex -0.0531333797 -0.0173275024 0.019968573
  vertex -0.0531401262 -0.0173092484 0.0199610926
  endloop
 endfacet

 facet normal -0.307399482 0.302938521 0.902071953
  outer loop
  vertex -0.0643254295 -0.0198588297 0.0170056857
  vertex -0.0531401262 -0.0173092484 0.0199610926
  vertex -0.0642714649 -0.019804066 0.0170056857
  endloop
 endfacet

 facet normal -0.314572662 0.366047233 0.875815868
  outer loop
  vertex -0.0642714649 -0.019804066 0.0170056857
  vertex -0.0531401262 -0.0173092484 0.0199610926
  vertex -0.0531468727 -0.0172696952 0.0199421383
  endloop
 endfacet

 facet normal -0.320408106 0.426258445 0.845956504
  outer loop
  vertex -0.0642714649 -0.019804066 0.0170056857
  vertex -0.0531468727 -0.0172696952 0.0199421383
  vertex -0.0531502441 -0.0172514413 0.0199316628
  endloop
 endfacet

 facet normal -0.321625203 0.440486431 0.838169992
  outer loop
  vertex -0.0642714649 -0.019804066 0.0170056857
  vertex -0.0531502441 -0.0172514413 0.0199316628
  vertex -0.0642006248 -0.0197523441 0.0170056857
  endloop
 endfacet

 facet normal -0.322482318 0.451616138 0.831894279
  outer loop
  vertex -0.0642006248 -0.0197523441 0.0170056857
  vertex -0.0531502441 -0.0172514413 0.0199316628
  vertex -0.0641196743 -0.0196945369 0.0170056857
  endloop
 endfacet

 facet normal -0.323064983 0.460063636 0.827025115
  outer loop
  vertex -0.0641196743 -0.0196945369 0.0170056857
  vertex -0.0531502441 -0.0172514413 0.0199316628
  vertex -0.0531536192 -0.0172331855 0.0199201908
  endloop
 endfacet

 facet normal -0.325480342 0.499329358 0.802952647
  outer loop
  vertex -0.0641196743 -0.0196945369 0.0170056857
  vertex -0.0531536192 -0.0172331855 0.0199201908
  vertex -0.0531603657 -0.0171966758 0.0198947508
  endloop
 endfacet

 facet normal -0.328020543 0.555074096 0.764392138
  outer loop
  vertex -0.0641196743 -0.0196945369 0.0170056857
  vertex -0.0531603657 -0.0171966758 0.0198947508
  vertex -0.0640218481 -0.0196367297 0.0170056857
  endloop
 endfacet

 facet normal -0.328783035 0.618675113 0.713542461
  outer loop
  vertex -0.0640218481 -0.0196367297 0.0170056857
  vertex -0.0531603657 -0.0171966758 0.0198947508
  vertex -0.0531637371 -0.0171662532 0.0198668186
  endloop
 endfacet

 facet normal -0.308584511 0.839159191 0.447869897
  outer loop
  vertex -0.0635259971 -0.0194115881 0.0170056857
  vertex -0.0531772301 -0.0170688946 0.0197466072
  vertex -0.0531772301 -0.0170475971 0.0197067037
  endloop
 endfacet

 facet normal -0.306310356 0.849005401 0.430539012
  outer loop
  vertex -0.0635259971 -0.0194115881 0.0170056857
  vertex -0.0531772301 -0.0170475971 0.0197067037
  vertex -0.0632224157 -0.019302059 0.0170056857
  endloop
 endfacet

 facet normal -0.0693098456 0.64994365 0.756815374
  outer loop
  vertex -0.033663664 -0.0127881523 0.0178955495
  vertex -0.0484211147 -0.0160770528 0.0193685144
  vertex -0.0484177433 -0.0161074754 0.0193949509
  endloop
 endfacet

 facet normal -0.0658100396 0.638789892 0.766561627
  outer loop
  vertex -0.033663664 -0.0127881523 0.0178955495
  vertex -0.0484177433 -0.0161074754 0.0193949509
  vertex -0.0484211147 -0.0161287747 0.0194124095
  endloop
 endfacet

 facet normal -0.0472733974 0.578563809 0.814266086
  outer loop
  vertex -0.033663664 -0.0127881523 0.0178955495
  vertex -0.0484211147 -0.0161287747 0.0194124095
  vertex -0.0400726125 -0.0142546184 0.0185654424
  endloop
 endfacet

 facet normal -0.0788316131 0.677717924 0.731084108
  outer loop
  vertex -0.0484211147 -0.0160770528 0.0193685144
  vertex -0.0531637371 -0.0171662532 0.0198668186
  vertex -0.0531603657 -0.0171814654 0.0198812839
  endloop
 endfacet

 facet normal -0.0732674748 0.661097884 0.746713817
  outer loop
  vertex -0.0484211147 -0.0160770528 0.0193685144
  vertex -0.0531603657 -0.0171814654 0.0198812839
  vertex -0.0531603657 -0.0171966758 0.0198947508
  endloop
 endfacet

 facet normal -0.0695055947 0.649922252 0.756815791
  outer loop
  vertex -0.0484211147 -0.0160770528 0.0193685144
  vertex -0.0531603657 -0.0171966758 0.0198947508
  vertex -0.0484177433 -0.0161074754 0.0193949509
  endloop
 endfacet

 facet normal -0.0432243496 0.564929128 0.824006557
  outer loop
  vertex -0.0400726125 -0.0142546184 0.0185654424
  vertex -0.0484211147 -0.0161287747 0.0194124095
  vertex -0.0484211147 -0.0161622409 0.0194353536
  endloop
 endfacet

 facet normal -0.0433280952 0.564926505 0.824002862
  outer loop
  vertex -0.0484211147 -0.0161622409 0.0194353536
  vertex -0.0484211147 -0.0161287747 0.0194124095
  vertex -0.0531536192 -0.0172149315 0.0199082196
  endloop
 endfacet

 facet normal -0.0383984298 0.547978759 0.835610509
  outer loop
  vertex -0.0484211147 -0.0161622409 0.0194353536
  vertex -0.0531536192 -0.0172149315 0.0199082196
  vertex -0.0531536192 -0.0172331855 0.0199201908
  endloop
 endfacet

 facet normal -0.0336585902 0.531821668 0.846187294
  outer loop
  vertex -0.0484211147 -0.0161622409 0.0194353536
  vertex -0.0531536192 -0.0172331855 0.0199201908
  vertex -0.0484211147 -0.0161804948 0.0194468256
  endloop
 endfacet

 facet normal -0.0333935842 0.531826437 0.846194744
  outer loop
  vertex -0.0484211147 -0.0161622409 0.0194353536
  vertex -0.0484211147 -0.0161804948 0.0194468256
  vertex -0.0336535461 -0.012824662 0.0179204885
  endloop
 endfacet

 facet normal 0.918075204 0.318255186 0.236329481
  outer loop
  vertex -0.0336535461 -0.012824662 0.0179204885
  vertex -0.033650171 -0.0128429169 0.0179319624
  vertex -0.0336333066 -0.012918978 0.0179688744
  endloop
 endfacet

 facet normal 0.924088836 0.31173107 0.221096367
  outer loop
  vertex -0.0336535461 -0.012824662 0.0179204885
  vertex -0.0336333066 -0.012918978 0.0179688744
  vertex -0.033623185 -0.0129585294 0.0179823413
  endloop
 endfacet

 facet normal -0.0321495757 0.527580857 0.848896265
  outer loop
  vertex -0.0336535461 -0.012824662 0.0179204885
  vertex -0.0484211147 -0.0161804948 0.0194468256
  vertex -0.033650171 -0.0128429169 0.0179319624
  endloop
 endfacet

 facet normal 0.441213071 0.279569387 0.852743804
  outer loop
  vertex -0.033623185 -0.0129585294 0.0179823413
  vertex -0.0336164385 -0.0129980817 0.0179918185
  vertex -0.0336096957 -0.0130193792 0.0179953109
  endloop
 endfacet

 facet normal 0.0228449069 0.327477098 0.94458288
  outer loop
  vertex -0.033623185 -0.0129585294 0.0179823413
  vertex -0.0336333066 -0.012918978 0.0179688744
  vertex -0.0484211147 -0.0162626412 0.0194857325
  endloop
 endfacet

 facet normal 0.0269553177 0.311474651 0.949872136
  outer loop
  vertex -0.033623185 -0.0129585294 0.0179823413
  vertex -0.0484211147 -0.0162626412 0.0194857325
  vertex -0.0484211147 -0.0162900239 0.0194947124
  endloop
 endfacet

 facet normal 0.0309472065 0.295937717 0.954705834
  outer loop
  vertex -0.033623185 -0.0129585294 0.0179823413
  vertex -0.0484211147 -0.0162900239 0.0194947124
  vertex -0.0531266332 -0.0173700973 0.0199820418
  endloop
 endfacet

 facet normal 0.0336805657 0.28527984 0.957852304
  outer loop
  vertex -0.033623185 -0.0129585294 0.0179823413
  vertex -0.0531266332 -0.0173700973 0.0199820418
  vertex -0.0484211147 -0.0163295753 0.0195066817
  endloop
 endfacet

 facet normal 0.0452034771 0.240057468 0.969705701
  outer loop
  vertex -0.033623185 -0.0129585294 0.0179823413
  vertex -0.0484211147 -0.0163295753 0.0195066817
  vertex -0.0336164385 -0.0129980817 0.0179918185
  endloop
 endfacet

 facet normal 0.0599955954 0.179994568 0.981836379
  outer loop
  vertex -0.0336096957 -0.0130193792 0.0179953109
  vertex -0.0336164385 -0.0129980817 0.0179918185
  vertex -0.0484211147 -0.0163539164 0.0195116717
  endloop
 endfacet

 facet normal 0.0684881136 0.144669116 0.987107098
  outer loop
  vertex -0.0336096957 -0.0130193792 0.0179953109
  vertex -0.0484211147 -0.0163539164 0.0195116717
  vertex -0.0531131402 -0.0174339898 0.0199955106
  endloop
 endfacet

 facet normal 0.0709816515 0.134240195 0.98840344
  outer loop
  vertex -0.0336096957 -0.0130193792 0.0179953109
  vertex -0.0531131402 -0.0174339898 0.0199955106
  vertex -0.0531063937 -0.0174522437 0.0199975055
  endloop
 endfacet

 facet normal 0.0785086378 0.102588139 0.991620958
  outer loop
  vertex -0.0336096957 -0.0130193792 0.0179953109
  vertex -0.0531063937 -0.0174522437 0.0199975055
  vertex -0.0484211147 -0.016399553 0.0195176564
  endloop
 endfacet

 facet normal 0.0805861279 0.093801558 0.992324114
  outer loop
  vertex -0.0336096957 -0.0130193792 0.0179953109
  vertex -0.0484211147 -0.016399553 0.0195176564
  vertex -0.0335995741 -0.0130650168 0.0179988015
  endloop
 endfacet

 facet normal 0.227268398 0.0514159016 0.972473979
  outer loop
  vertex -0.0335995741 -0.0130650168 0.0179988015
  vertex -0.033596199 -0.0130893551 0.0179993007
  vertex -0.0319332443 -0.0204399396 0.0179993007
  endloop
 endfacet

 facet normal 0.0834470242 0.0814733431 0.993176103
  outer loop
  vertex -0.0335995741 -0.0130650168 0.0179988015
  vertex -0.0484211147 -0.016399553 0.0195176564
  vertex -0.0484211147 -0.016417807 0.019519154
  endloop
 endfacet

 facet normal 0.0923675746 0.042777583 0.994805694
  outer loop
  vertex -0.0335995741 -0.0130650168 0.0179988015
  vertex -0.0484211147 -0.016417807 0.019519154
  vertex -0.0530996509 -0.0174978804 0.0199999996
  endloop
 endfacet

 facet normal 0.094500035 0.0334675834 0.994962156
  outer loop
  vertex -0.0335995741 -0.0130650168 0.0179988015
  vertex -0.0530996509 -0.0174978804 0.0199999996
  vertex -0.033596199 -0.0130893551 0.0179993007
  endloop
 endfacet

 facet normal 0.0973885581 0.0220326316 0.995002627
  outer loop
  vertex -0.0319332443 -0.0204399396 0.0179993007
  vertex -0.033596199 -0.0130893551 0.0179993007
  vertex -0.0330902301 -0.0274223853 0.0182671584
  endloop
 endfacet

 facet normal 0.0975175053 0.022010792 0.994990349
  outer loop
  vertex -0.0319332443 -0.0204399396 0.0179993007
  vertex -0.0330902301 -0.0274223853 0.0182671584
  vertex -0.030071279 -0.0286667515 0.0179988015
  endloop
 endfacet

 facet normal 0.974345863 0.213752836 0.0704265684
  outer loop
  vertex -0.030071279 -0.0286667515 0.0179988015
  vertex -0.0300611593 -0.0287123881 0.0179973058
  vertex -0.0300206803 -0.0288827661 0.0179544073
  endloop
 endfacet

 facet normal 0.0973677859 0.0216426384 0.995013118
  outer loop
  vertex -0.030071279 -0.0286667515 0.0179988015
  vertex -0.0330902301 -0.0274223853 0.0182671584
  vertex -0.0478072055 -0.0408791862 0.0199999996
  endloop
 endfacet

 facet normal 0.116669543 -0.00669458089 0.993148267
  outer loop
  vertex -0.030071279 -0.0286667515 0.0179988015
  vertex -0.0478072055 -0.0408791862 0.0199999996
  vertex -0.0300611593 -0.0287123881 0.0179973058
  endloop
 endfacet

 facet normal 0.938249946 -0.0100697456 0.345811784
  outer loop
  vertex -0.0300206803 -0.0288827661 0.0179544073
  vertex -0.0300139356 -0.0289223194 0.0179349557
  vertex -0.0299970694 -0.028995337 0.0178870689
  endloop
 endfacet

 facet normal 0.983644724 0.168934971 0.062482588
  outer loop
  vertex -0.0300206803 -0.0288827661 0.0179544073
  vertex -0.0299970694 -0.028995337 0.0178870689
  vertex -0.0299700834 -0.0291048661 0.0177583788
  endloop
 endfacet

 facet normal 0.97398448 0.209880382 0.0854659379
  outer loop
  vertex -0.0300206803 -0.0288827661 0.0179544073
  vertex -0.0300611593 -0.0287123881 0.0179973058
  vertex -0.0300409198 -0.0288006198 0.0179833397
  endloop
 endfacet

 facet normal 0.295355111 -0.251808554 0.921606064
  outer loop
  vertex -0.0300206803 -0.0288827661 0.0179544073
  vertex -0.0300409198 -0.0288006198 0.0179833397
  vertex -0.0300341733 -0.028840173 0.0179703701
  endloop
 endfacet

 facet normal 0.281434476 -0.257282495 0.924445987
  outer loop
  vertex -0.0300206803 -0.0288827661 0.0179544073
  vertex -0.0300341733 -0.028840173 0.0179703701
  vertex -0.045837298 -0.0397230498 0.0197525937
  endloop
 endfacet

 facet normal 0.281907648 -0.258031458 0.924093008
  outer loop
  vertex -0.0300206803 -0.0288827661 0.0179544073
  vertex -0.045837298 -0.0397230498 0.0197525937
  vertex -0.0477701016 -0.0410647765 0.0199675765
  endloop
 endfacet

 facet normal 0.29396984 -0.277150154 0.914751053
  outer loop
  vertex -0.0300206803 -0.0288827661 0.0179544073
  vertex -0.0477701016 -0.0410647765 0.0199675765
  vertex -0.04775998 -0.0410952009 0.0199551061
  endloop
 endfacet

 facet normal 0.340919465 -0.352427602 0.871532381
  outer loop
  vertex -0.0300206803 -0.0288827661 0.0179544073
  vertex -0.04775998 -0.0410952009 0.0199551061
  vertex -0.0477498621 -0.0411347523 0.0199351534
  endloop
 endfacet

 facet normal 0.348729908 -0.365077496 0.863195181
  outer loop
  vertex -0.0300206803 -0.0288827661 0.0179544073
  vertex -0.0477498621 -0.0411347523 0.0199351534
  vertex -0.0300139356 -0.0289223194 0.0179349557
  endloop
 endfacet

 facet normal 0.863112867 -0.421603918 0.278004378
  outer loop
  vertex -0.0299700834 -0.0291048661 0.0177583788
  vertex -0.0299700834 -0.0291170366 0.0177399218
  vertex -0.0299633369 -0.0291413758 0.0176820625
  endloop
 endfacet

 facet normal 0.99671489 0.0482900441 0.0650206953
  outer loop
  vertex -0.0299700834 -0.0291048661 0.0177583788
  vertex -0.0299633369 -0.0291413758 0.0176820625
  vertex -0.0299599636 -0.029156588 0.0176416598
  endloop
 endfacet

 facet normal 0.991174459 0.1294467 0.028577473
  outer loop
  vertex -0.0299700834 -0.0291048661 0.0177583788
  vertex -0.0299599636 -0.029156588 0.0176416598
  vertex -0.0299565904 -0.0291687585 0.017579807
  endloop
 endfacet

 facet normal 0.985548198 0.149722725 0.0792331919
  outer loop
  vertex -0.0299700834 -0.0291048661 0.0177583788
  vertex -0.0299970694 -0.028995337 0.0178870689
  vertex -0.0299734566 -0.0290926956 0.017777333
  endloop
 endfacet

 facet normal 0.522119045 -0.672429919 0.524623513
  outer loop
  vertex -0.0299700834 -0.0291048661 0.0177583788
  vertex -0.0299734566 -0.0290926956 0.017777333
  vertex -0.0476992652 -0.0413112156 0.01975758
  endloop
 endfacet

 facet normal 0.537169874 -0.704166532 0.464325279
  outer loop
  vertex -0.0299700834 -0.0291048661 0.0177583788
  vertex -0.0476992652 -0.0413112156 0.01975758
  vertex -0.0299700834 -0.0291170366 0.0177399218
  endloop
 endfacet

 facet normal 0.870810688 -0.471203923 0.140198737
  outer loop
  vertex -0.0299565904 -0.0291687585 0.017579807
  vertex -0.0299599636 -0.029156588 0.0176416598
  vertex -0.0299599636 -0.0291626733 0.017621208
  endloop
 endfacet

 facet normal 0.571847379 -0.803655565 0.164707184
  outer loop
  vertex -0.0299565904 -0.0291687585 0.017579807
  vertex -0.0299599636 -0.0291626733 0.017621208
  vertex -0.0476857722 -0.0413659811 0.0196199119
  endloop
 endfacet

 facet normal 0.57189697 -0.804230154 0.161702663
  outer loop
  vertex -0.0299565904 -0.0291687585 0.017579807
  vertex -0.0476857722 -0.0413659811 0.0196199119
  vertex -0.0476857722 -0.0413751081 0.0195745192
  endloop
 endfacet

 facet normal 0.572112679 -0.811256528 0.120623514
  outer loop
  vertex -0.0299565904 -0.0291687585 0.017579807
  vertex -0.0476857722 -0.0413751081 0.0195745192
  vertex -0.0476891436 -0.041384235 0.0195291284
  endloop
 endfacet

 facet normal 0.572076619 -0.812071621 0.115187064
  outer loop
  vertex -0.0299565904 -0.0291687585 0.017579807
  vertex -0.0476891436 -0.041384235 0.0195291284
  vertex -0.0299565904 -0.0291718002 0.0175583586
  endloop
 endfacet

 facet normal 0.566439331 -0.824103236 -0.000757292146
  outer loop
  vertex -0.0476891436 -0.041384235 0.0195291284
  vertex -0.0476925187 -0.041384235 0.0170056857
  vertex -0.0453819223 -0.0397960693 0.0170066822
  endloop
 endfacet

 facet normal 0.171063662 -0.968303859 0.182002589
  outer loop
  vertex -0.0476891436 -0.041384235 0.0195291284
  vertex -0.0476857722 -0.0413751081 0.0195745192
  vertex -0.0547018871 -0.0429632701 0.0177194718
  endloop
 endfacet

 facet normal 0.179318145 -0.971809447 0.153073847
  outer loop
  vertex -0.0476891436 -0.041384235 0.0195291284
  vertex -0.0547018871 -0.0429632701 0.0177194718
  vertex -0.0573902726 -0.0435717627 0.0170056857
  endloop
 endfacet

 facet normal 0.197710842 -0.976446629 0.0863848776
  outer loop
  vertex -0.0476891436 -0.041384235 0.0195291284
  vertex -0.0573902726 -0.0435717627 0.0170056857
  vertex -0.0572249889 -0.0435382985 0.0170056857
  endloop
 endfacet

 facet normal 0.213415131 -0.976584136 0.0271572303
  outer loop
  vertex -0.0476891436 -0.041384235 0.0195291284
  vertex -0.0572249889 -0.0435382985 0.0170056857
  vertex -0.0506912321 -0.0420627035 0.0187230632
  endloop
 endfacet

 facet normal 0.216749609 -0.976121783 0.0143492837
  outer loop
  vertex -0.0476891436 -0.041384235 0.0195291284
  vertex -0.0506912321 -0.0420627035 0.0187230632
  vertex -0.0547018871 -0.0429693572 0.0176291894
  endloop
 endfacet

 facet normal 0.220472559 -0.975393236 0
  outer loop
  vertex -0.0476891436 -0.041384235 0.0195291284
  vertex -0.0547018871 -0.0429693572 0.0176291894
  vertex -0.0547018871 -0.0429693572 0.0170056857
  endloop
 endfacet

 facet normal 0.220497295 -0.975387573 -7.23362173e-05
  outer loop
  vertex -0.0476891436 -0.041384235 0.0195291284
  vertex -0.0547018871 -0.0429693572 0.0170056857
  vertex -0.0506912321 -0.0420627035 0.0170056857
  endloop
 endfacet

 facet normal 0.220675379 -0.975347281 -0.00029502844
  outer loop
  vertex -0.0476891436 -0.041384235 0.0195291284
  vertex -0.0506912321 -0.0420627035 0.0170056857
  vertex -0.0476925187 -0.041384235 0.0170056857
  endloop
 endfacet

 facet normal 0.56643486 -0.824094415 -0.00448051747
  outer loop
  vertex -0.0453819223 -0.0397960693 0.0170066822
  vertex -0.0476925187 -0.041384235 0.0170056857
  vertex -0.03733363 -0.0342527069 0.014904228
  endloop
 endfacet

 facet normal 0.0905596465 -0.400258124 -0.911916912
  outer loop
  vertex -0.03733363 -0.0342527069 0.014904228
  vertex -0.0476925187 -0.041384235 0.0170056857
  vertex -0.0506912321 -0.0420627035 0.0170056857
  endloop
 endfacet

 facet normal 0.090443179 -0.400082707 -0.912005424
  outer loop
  vertex -0.03733363 -0.0342527069 0.014904228
  vertex -0.0506912321 -0.0420627035 0.0170056857
  vertex -0.0547018871 -0.0429693572 0.0170056857
  endloop
 endfacet

 facet normal 0.0900630653 -0.399405897 -0.912339628
  outer loop
  vertex -0.03733363 -0.0342527069 0.014904228
  vertex -0.0547018871 -0.0429693572 0.0170056857
  vertex -0.0572249889 -0.0435382985 0.0170056857
  endloop
 endfacet

 facet normal 0.0749342814 -0.370082527 -0.925971746
  outer loop
  vertex -0.03733363 -0.0342527069 0.014904228
  vertex -0.0572249889 -0.0435382985 0.0170056857
  vertex -0.0573902726 -0.0435717627 0.0170056857
  endloop
 endfacet

 facet normal 0.0468669944 -0.314653993 -0.94804877
  outer loop
  vertex -0.03733363 -0.0342527069 0.014904228
  vertex -0.0573902726 -0.0435717627 0.0170056857
  vertex -0.0577579439 -0.0436265282 0.0170056857
  endloop
 endfacet

 facet normal 0.0417760722 -0.30436632 -0.951638579
  outer loop
  vertex -0.03733363 -0.0342527069 0.014904228
  vertex -0.0577579439 -0.0436265282 0.0170056857
  vertex -0.0579131059 -0.0436478257 0.0170056857
  endloop
 endfacet

 facet normal 0.0165079888 -0.252552927 -0.967442274
  outer loop
  vertex -0.03733363 -0.0342527069 0.014904228
  vertex -0.0579131059 -0.0436478257 0.0170056857
  vertex -0.0581458546 -0.0436630398 0.0170056857
  endloop
 endfacet

 facet normal 0.0155875562 -0.250632167 -0.967956901
  outer loop
  vertex -0.03733363 -0.0342527069 0.014904228
  vertex -0.0581458546 -0.0436630398 0.0170056857
  vertex -0.0582436733 -0.0436691232 0.0170056857
  endloop
 endfacet

 facet normal 0.0144476257 -0.248242185 -0.96859026
  outer loop
  vertex -0.03733363 -0.0342527069 0.014904228
  vertex -0.0582436733 -0.0436691232 0.0170056857
  vertex -0.0583482422 -0.0436752066 0.0170056857
  endloop
 endfacet

 facet normal -0.216190621 0.647203088 0.731019676
  outer loop
  vertex -0.0531637371 -0.0171662532 0.0198668186
  vertex -0.0531603657 -0.0171966758 0.0198947508
  vertex -0.0531603657 -0.0171814654 0.0198812839
  endloop
 endfacet

 facet normal -0.0172629636 -0.726959586 0.686463296
  outer loop
  vertex -0.0583482422 -0.0436752066 0.0170056857
  vertex -0.0506912321 -0.0419136249 0.0190637466
  vertex -0.058476422 -0.043672163 0.0170056857
  endloop
 endfacet

 facet normal 0.0491352938 -0.844253063 0.533687711
  outer loop
  vertex -0.0583482422 -0.0436752066 0.0170056857
  vertex -0.0582436733 -0.0436691232 0.0170056857
  vertex -0.0547018871 -0.0428780839 0.017930964
  endloop
 endfacet

 facet normal 0.0336745568 -0.818975747 0.5728392
  outer loop
  vertex -0.0583482422 -0.0436752066 0.0170056857
  vertex -0.0547018871 -0.0428780839 0.017930964
  vertex -0.0506912321 -0.0419714302 0.0189914182
  endloop
 endfacet

 facet normal 0.025147263 -0.804554105 0.593346655
  outer loop
  vertex -0.0583482422 -0.0436752066 0.0170056857
  vertex -0.0506912321 -0.0419714302 0.0189914182
  vertex -0.0477127582 -0.0412625372 0.0198264159
  endloop
 endfacet

 facet normal -0.00904027652 -0.74281168 0.669439435
  outer loop
  vertex -0.0583482422 -0.0436752066 0.0170056857
  vertex -0.0477127582 -0.0412625372 0.0198264159
  vertex -0.0506912321 -0.0419136249 0.0190637466
  endloop
 endfacet

 facet normal -0.0282730069 -0.704618871 0.709022522
  outer loop
  vertex -0.058476422 -0.043672163 0.0170056857
  vertex -0.0506912321 -0.0419136249 0.0190637466
  vertex -0.0477296226 -0.0412108153 0.0198802873
  endloop
 endfacet

 facet normal -0.0385145508 -0.6833359 0.729087532
  outer loop
  vertex -0.058476422 -0.043672163 0.0170056857
  vertex -0.0477296226 -0.0412108153 0.0198802873
  vertex -0.0585843623 -0.0436660796 0.0170056857
  endloop
 endfacet

 facet normal -0.0640094727 -0.626855016 0.776502252
  outer loop
  vertex -0.0585843623 -0.0436660796 0.0170056857
  vertex -0.0506912321 -0.0418466888 0.0191250984
  vertex -0.0587631389 -0.0436478257 0.0170056857
  endloop
 endfacet

 facet normal -0.0540307313 -0.649302125 0.758608937
  outer loop
  vertex -0.0585843623 -0.0436660796 0.0170056857
  vertex -0.0477296226 -0.0412108153 0.0198802873
  vertex -0.0506912321 -0.0418466888 0.0191250984
  endloop
 endfacet

 facet normal -0.0915304646 -0.559292972 0.823901415
  outer loop
  vertex -0.0587631389 -0.0436478257 0.0170056857
  vertex -0.0506912321 -0.0418466888 0.0191250984
  vertex -0.0477498621 -0.0411347523 0.0199351534
  endloop
 endfacet

 facet normal -0.113312453 -0.502534389 0.857099473
  outer loop
  vertex -0.0587631389 -0.0436478257 0.0170056857
  vertex -0.0477498621 -0.0411347523 0.0199351534
  vertex -0.0588845685 -0.0436204448 0.0170056857
  endloop
 endfacet

 facet normal -0.145334408 -0.411765277 0.899626255
  outer loop
  vertex -0.0588845685 -0.0436204448 0.0170056857
  vertex -0.0547018871 -0.0426316448 0.0181339774
  vertex -0.0589621514 -0.0435930602 0.0170056857
  endloop
 endfacet

 facet normal -0.12092106 -0.481423825 0.868106723
  outer loop
  vertex -0.0588845685 -0.0436204448 0.0170056857
  vertex -0.0477498621 -0.0411347523 0.0199351534
  vertex -0.04775998 -0.0411043279 0.0199506171
  endloop
 endfacet

 facet normal -0.136429161 -0.437238336 0.888937473
  outer loop
  vertex -0.0588845685 -0.0436204448 0.0170056857
  vertex -0.04775998 -0.0411043279 0.0199506171
  vertex -0.0547018871 -0.0426316448 0.0181339774
  endloop
 endfacet

 facet normal -0.169452414 -0.336296648 0.926385641
  outer loop
  vertex -0.0589621514 -0.0435930602 0.0170056857
  vertex -0.0547018871 -0.0426316448 0.0181339774
  vertex -0.0547018871 -0.0425890498 0.0181494411
  endloop
 endfacet

 facet normal -0.16990453 -0.334871858 0.926818967
  outer loop
  vertex -0.0589621514 -0.0435930602 0.0170056857
  vertex -0.0547018871 -0.0425890498 0.0181494411
  vertex -0.0590161234 -0.0435656793 0.0170056857
  endloop
 endfacet

 facet normal -0.186843738 -0.278071821 0.942213058
  outer loop
  vertex -0.0590161234 -0.0435656793 0.0170056857
  vertex -0.0547018871 -0.0425890498 0.0181494411
  vertex -0.0547018871 -0.0425586253 0.0181584191
  endloop
 endfacet

 facet normal -0.190844297 -0.264486849 0.945317507
  outer loop
  vertex -0.0590161234 -0.0435656793 0.0170056857
  vertex -0.0547018871 -0.0425586253 0.0181584191
  vertex -0.0590498522 -0.0435413383 0.0170056857
  endloop
 endfacet

 facet normal -0.195266888 -0.248837203 0.948657453
  outer loop
  vertex -0.0590498522 -0.0435413383 0.0170056857
  vertex -0.0547018871 -0.0425586253 0.0181584191
  vertex -0.0547018871 -0.0425434113 0.0181624088
  endloop
 endfacet

 facet normal -0.202180982 -0.224152952 0.95335114
  outer loop
  vertex -0.0590498522 -0.0435413383 0.0170056857
  vertex -0.0547018871 -0.0425434113 0.0181624088
  vertex -0.0590903312 -0.0435048304 0.0170056857
  endloop
 endfacet

 facet normal -0.209486455 -0.196288377 0.957907319
  outer loop
  vertex -0.0590903312 -0.0435048304 0.0170056857
  vertex -0.0547018871 -0.0425434113 0.0181624088
  vertex -0.0547018871 -0.0425190739 0.018167397
  endloop
 endfacet

 facet normal -0.212812901 -0.18358247 0.959691703
  outer loop
  vertex -0.0590903312 -0.0435048304 0.0170056857
  vertex -0.0547018871 -0.0425190739 0.018167397
  vertex -0.0547018871 -0.0425008163 0.0181708895
  endloop
 endfacet

 facet normal -0.218555629 -0.161572725 0.962355316
  outer loop
  vertex -0.0590903312 -0.0435048304 0.0170056857
  vertex -0.0547018871 -0.0425008163 0.0181708895
  vertex -0.0590970777 -0.0434957035 0.0170056857
  endloop
 endfacet

 facet normal -0.234916493 -0.0951415151 0.967348099
  outer loop
  vertex -0.0590970777 -0.0434957035 0.0170056857
  vertex -0.0547018871 -0.0425008163 0.0181708895
  vertex -0.0547018871 -0.0424551815 0.0181753784
  endloop
 endfacet

 facet normal -0.235394076 -0.0932056606 0.967420518
  outer loop
  vertex -0.0590970777 -0.0434957035 0.0170056857
  vertex -0.0547018871 -0.0424551815 0.0181753784
  vertex -0.0591139421 -0.0434531085 0.0170056857
  endloop
 endfacet

 facet normal -0.244171992 -0.0552589707 0.968156278
  outer loop
  vertex -0.0591139421 -0.0434531085 0.0170056857
  vertex -0.0547018871 -0.0424551815 0.0181753784
  vertex -0.0624938197 -0.0214135274 0.0174112115
  endloop
 endfacet

 facet normal -0.244502723 -0.0553080961 0.968069971
  outer loop
  vertex -0.0591139421 -0.0434531085 0.0170056857
  vertex -0.0624938197 -0.0214135274 0.0174112115
  vertex -0.0644063875 -0.0200565886 0.0170056857
  endloop
 endfacet

 facet normal -0.244049177 -0.0546230152 0.968223393
  outer loop
  vertex -0.0644063875 -0.0200565886 0.0170056857
  vertex -0.0624938197 -0.0214135274 0.0174112115
  vertex -0.0530996509 -0.0174978804 0.0199999996
  endloop
 endfacet

 facet normal -0.244159758 -0.0541337989 0.968222857
  outer loop
  vertex -0.0644063875 -0.0200565886 0.0170056857
  vertex -0.0530996509 -0.0174978804 0.0199999996
  vertex -0.0644097626 -0.0200413782 0.0170056857
  endloop
 endfacet

 facet normal -0.247486949 -0.0391921178 0.968098283
  outer loop
  vertex -0.0644097626 -0.0200413782 0.0170056857
  vertex -0.0530996509 -0.0174978804 0.0199999996
  vertex -0.0644131303 -0.0200200807 0.0170056857
  endloop
 endfacet

 facet normal -0.256703794 0.00406988524 0.966481566
  outer loop
  vertex -0.0644131303 -0.0200200807 0.0170056857
  vertex -0.0530996509 -0.0174978804 0.0199999996
  vertex -0.0531030223 -0.0174735412 0.0199990012
  endloop
 endfacet

 facet normal -0.259745151 0.0187368039 0.965495348
  outer loop
  vertex -0.0644131303 -0.0200200807 0.0170056857
  vertex -0.0531030223 -0.0174735412 0.0199990012
  vertex -0.0531131402 -0.0174339898 0.0199955106
  endloop
 endfacet

 facet normal -0.181617767 0.0402313918 0.982545972
  outer loop
  vertex -0.0531131402 -0.0174339898 0.0199955106
  vertex -0.0531030223 -0.0174735412 0.0199990012
  vertex -0.0531063937 -0.0174522437 0.0199975055
  endloop
 endfacet

 facet normal 0.0547191948 0.200479522 0.978168607
  outer loop
  vertex -0.0531131402 -0.0174339898 0.0199955106
  vertex -0.0484211147 -0.0163539164 0.0195116717
  vertex -0.0484211147 -0.0163295753 0.0195066817
  endloop
 endfacet

 facet normal 0.052193597 0.210352033 0.976231515
  outer loop
  vertex -0.0531131402 -0.0174339898 0.0199955106
  vertex -0.0484211147 -0.0163295753 0.0195066817
  vertex -0.0531232618 -0.0173944365 0.0199875291
  endloop
 endfacet

 facet normal 0.0483065955 0.226022303 0.972923636
  outer loop
  vertex -0.0531232618 -0.0173944365 0.0199875291
  vertex -0.0484211147 -0.0163295753 0.0195066817
  vertex -0.0531266332 -0.0173700973 0.0199820418
  endloop
 endfacet

 facet normal 0.0284585468 0.305459678 0.951779723
  outer loop
  vertex -0.0531266332 -0.0173700973 0.0199820418
  vertex -0.0484211147 -0.0162900239 0.0194947124
  vertex -0.0531333797 -0.0173275024 0.019968573
  endloop
 endfacet

 facet normal 0.0269424394 0.3114748 0.949872434
  outer loop
  vertex -0.0531333797 -0.0173275024 0.019968573
  vertex -0.0484211147 -0.0162900239 0.0194947124
  vertex -0.0484211147 -0.0162626412 0.0194857325
  endloop
 endfacet

 facet normal 0.0120520322 0.368206143 0.929666042
  outer loop
  vertex -0.0531333797 -0.0173275024 0.019968573
  vertex -0.0484211147 -0.0162626412 0.0194857325
  vertex -0.0484177433 -0.0162413437 0.0194772538
  endloop
 endfacet

 facet normal 0.00834205933 0.3818371 0.924192071
  outer loop
  vertex -0.0531333797 -0.0173275024 0.019968573
  vertex -0.0484177433 -0.0162413437 0.0194772538
  vertex -0.0531401262 -0.0173092484 0.0199610926
  endloop
 endfacet

 facet normal 0.00166031998 0.406589746 0.913609385
  outer loop
  vertex -0.0531401262 -0.0173092484 0.0199610926
  vertex -0.0484177433 -0.0162413437 0.0194772538
  vertex -0.0484177433 -0.0162200481 0.0194677766
  endloop
 endfacet

 facet normal -0.00526483636 0.431418508 0.902136505
  outer loop
  vertex -0.0531401262 -0.0173092484 0.0199610926
  vertex -0.0484177433 -0.0162200481 0.0194677766
  vertex -0.0531468727 -0.0172696952 0.0199421383
  endloop
 endfacet

 facet normal -0.0127369706 0.458879203 0.88840735
  outer loop
  vertex -0.0531468727 -0.0172696952 0.0199421383
  vertex -0.0484177433 -0.0162200481 0.0194677766
  vertex -0.0484211147 -0.0162017923 0.0194582995
  endloop
 endfacet

 facet normal -0.017026525 0.474173427 0.880266845
  outer loop
  vertex -0.0531468727 -0.0172696952 0.0199421383
  vertex -0.0484211147 -0.0162017923 0.0194582995
  vertex -0.0484211147 -0.0161804948 0.0194468256
  endloop
 endfacet

 facet normal -0.0228797253 0.494411945 0.868926525
  outer loop
  vertex -0.0531468727 -0.0172696952 0.0199421383
  vertex -0.0484211147 -0.0161804948 0.0194468256
  vertex -0.0531502441 -0.0172514413 0.0199316628
  endloop
 endfacet

 facet normal -0.0324283615 0.527521133 0.848922729
  outer loop
  vertex -0.0531502441 -0.0172514413 0.0199316628
  vertex -0.0484211147 -0.0161804948 0.0194468256
  vertex -0.0531536192 -0.0172331855 0.0199201908
  endloop
 endfacet

 facet normal -0.182394356 0.539184272 0.822199821
  outer loop
  vertex -0.0531536192 -0.0172331855 0.0199201908
  vertex -0.0531536192 -0.0172149315 0.0199082196
  vertex -0.0531603657 -0.0171966758 0.0198947508
  endloop
 endfacet

 facet normal -0.0483359322 0.581362128 0.812207937
  outer loop
  vertex -0.0531603657 -0.0171966758 0.0198947508
  vertex -0.0531536192 -0.0172149315 0.0199082196
  vertex -0.0484211147 -0.0161287747 0.0194124095
  endloop
 endfacet

 facet normal -0.0659247935 0.638795853 0.766546667
  outer loop
  vertex -0.0531603657 -0.0171966758 0.0198947508
  vertex -0.0484211147 -0.0161287747 0.0194124095
  vertex -0.0484177433 -0.0161074754 0.0193949509
  endloop
 endfacet

 facet normal -0.0169333499 0.474174142 0.880268216
  outer loop
  vertex -0.0484211147 -0.0161804948 0.0194468256
  vertex -0.0484211147 -0.0162017923 0.0194582995
  vertex -0.0336434245 -0.0128794257 0.0179529116
  endloop
 endfacet

 facet normal -0.0226038676 0.494425952 0.86892581
  outer loop
  vertex -0.0484211147 -0.0161804948 0.0194468256
  vertex -0.0336434245 -0.0128794257 0.0179529116
  vertex -0.033650171 -0.0128429169 0.0179319624
  endloop
 endfacet

 facet normal 0.859204412 0.364667326 0.35886699
  outer loop
  vertex -0.033650171 -0.0128429169 0.0179319624
  vertex -0.0336434245 -0.0128794257 0.0179529116
  vertex -0.0336333066 -0.012918978 0.0179688744
  endloop
 endfacet

 facet normal 0.00995035097 0.376411289 0.926399231
  outer loop
  vertex -0.0336333066 -0.012918978 0.0179688744
  vertex -0.0336434245 -0.0128794257 0.0179529116
  vertex -0.0400726125 -0.0143458918 0.0186178163
  endloop
 endfacet

 facet normal 0.011532682 0.370368481 0.928813338
  outer loop
  vertex -0.0336333066 -0.012918978 0.0179688744
  vertex -0.0400726125 -0.0143458918 0.0186178163
  vertex -0.0484177433 -0.0162413437 0.0194772538
  endloop
 endfacet

 facet normal 0.0121076107 0.368198335 0.929668427
  outer loop
  vertex -0.0336333066 -0.012918978 0.0179688744
  vertex -0.0484177433 -0.0162413437 0.0194772538
  vertex -0.0484211147 -0.0162626412 0.0194857325
  endloop
 endfacet

 facet normal 0.0549748763 0.200476706 0.978154838
  outer loop
  vertex -0.0336164385 -0.0129980817 0.0179918185
  vertex -0.0484211147 -0.0163295753 0.0195066817
  vertex -0.0484211147 -0.0163539164 0.0195116717
  endloop
 endfacet

 facet normal 0.0830849856 0.0828891695 0.993089318
  outer loop
  vertex -0.0531063937 -0.0174522437 0.0199975055
  vertex -0.0531030223 -0.0174735412 0.0199990012
  vertex -0.0484211147 -0.016399553 0.0195176564
  endloop
 endfacet

 facet normal 0.0834188834 0.0814735368 0.993178368
  outer loop
  vertex -0.0484211147 -0.016399553 0.0195176564
  vertex -0.0531030223 -0.0174735412 0.0199990012
  vertex -0.0484211147 -0.016417807 0.019519154
  endloop
 endfacet

 facet normal 0.0970927477 0.0220288318 0.995031536
  outer loop
  vertex -0.033596199 -0.0130893551 0.0179993007
  vertex -0.0530996509 -0.0174978804 0.0199999996
  vertex -0.0484177433 -0.0192077421 0.019581005
  endloop
 endfacet

 facet normal 0.0970952213 0.0220228136 0.995031476
  outer loop
  vertex -0.033596199 -0.0130893551 0.0179993007
  vertex -0.0484177433 -0.0192077421 0.019581005
  vertex -0.0330902301 -0.0274223853 0.0182671584
  endloop
 endfacet

 facet normal 0.0899204835 0.0532524064 0.99452436
  outer loop
  vertex -0.0484211147 -0.016417807 0.019519154
  vertex -0.0531030223 -0.0174735412 0.0199990012
  vertex -0.0530996509 -0.0174978804 0.0199999996
  endloop
 endfacet

 facet normal -0.243879169 -0.0550434813 0.968242347
  outer loop
  vertex -0.0530996509 -0.0174978804 0.0199999996
  vertex -0.0624938197 -0.0214135274 0.0174112115
  vertex -0.0522158891 -0.0214135274 0.0199999996
  endloop
 endfacet

 facet normal 0 0 1
  outer loop
  vertex -0.0530996509 -0.0174978804 0.0199999996
  vertex -0.0522158891 -0.0214135274 0.0199999996
  vertex -0.0508565158 -0.0274284706 0.0199999996
  endloop
 endfacet

 facet normal 0 0 1
  outer loop
  vertex -0.0530996509 -0.0174978804 0.0199999996
  vertex -0.0508565158 -0.0274284706 0.0199999996
  vertex -0.0478072055 -0.0408791862 0.0199999996
  endloop
 endfacet

 facet normal 0 0 1
  outer loop
  vertex -0.0530996509 -0.0174978804 0.0199999996
  vertex -0.0478072055 -0.0408791862 0.0199999996
  vertex -0.0502189957 -0.0302184056 0.0199999996
  endloop
 endfacet

 facet normal 0.0970594808 0.0219798218 0.995035827
  outer loop
  vertex -0.0530996509 -0.0174978804 0.0199999996
  vertex -0.0502189957 -0.0302184056 0.0199999996
  vertex -0.0502864569 -0.0214074422 0.0198119506
  endloop
 endfacet

 facet normal 0.0970806181 0.0219951458 0.995033443
  outer loop
  vertex -0.0530996509 -0.0174978804 0.0199999996
  vertex -0.0502864569 -0.0214074422 0.0198119506
  vertex -0.0484177433 -0.0192077421 0.019581005
  endloop
 endfacet

 facet normal 0.0970805809 0.0219951756 0.995033443
  outer loop
  vertex -0.0330902301 -0.0274223853 0.0182671584
  vertex -0.0484177433 -0.0192077421 0.019581005
  vertex -0.0502864569 -0.0214074422 0.0198119506
  endloop
 endfacet

 facet normal 0.0970753282 0.0219799094 0.995034337
  outer loop
  vertex -0.0330902301 -0.0274223853 0.0182671584
  vertex -0.0502864569 -0.0214074422 0.0198119506
  vertex -0.0502189957 -0.0302184056 0.0199999996
  endloop
 endfacet

 facet normal 0.0970782489 0.0219620224 0.995034397
  outer loop
  vertex -0.0330902301 -0.0274223853 0.0182671584
  vertex -0.0502189957 -0.0302184056 0.0199999996
  vertex -0.0478072055 -0.0408791862 0.0199999996
  endloop
 endfacet

 facet normal 0.962593257 0.190259203 0.192913324
  outer loop
  vertex -0.0300611593 -0.0287123881 0.0179973058
  vertex -0.0300510377 -0.0287580248 0.0179918185
  vertex -0.0300409198 -0.0288006198 0.0179833397
  endloop
 endfacet

 facet normal 0.119151533 -0.0103684533 0.992821932
  outer loop
  vertex -0.0300611593 -0.0287123881 0.0179973058
  vertex -0.0478072055 -0.0408791862 0.0199999996
  vertex -0.045837298 -0.0395435467 0.0197775327
  endloop
 endfacet

 facet normal 0.13328056 -0.0313160233 0.990583539
  outer loop
  vertex -0.0300611593 -0.0287123881 0.0179973058
  vertex -0.045837298 -0.0395435467 0.0197775327
  vertex -0.047800459 -0.0409248248 0.0199980047
  endloop
 endfacet

 facet normal 0.15570046 -0.06468492 0.985684097
  outer loop
  vertex -0.0300611593 -0.0287123881 0.0179973058
  vertex -0.047800459 -0.0409248248 0.0199980047
  vertex -0.047800459 -0.0409400351 0.0199970063
  endloop
 endfacet

 facet normal 0.166734487 -0.081188187 0.982653558
  outer loop
  vertex -0.0300611593 -0.0287123881 0.0179973058
  vertex -0.047800459 -0.0409400351 0.0199970063
  vertex -0.0300510377 -0.0287580248 0.0179918185
  endloop
 endfacet

 facet normal 0.128466204 -0.0243407842 0.991415143
  outer loop
  vertex -0.0478072055 -0.0408791862 0.0199999996
  vertex -0.047800459 -0.0409248248 0.0199980047
  vertex -0.045837298 -0.0395435467 0.0197775327
  endloop
 endfacet

 facet normal -0.234166086 -0.0530860499 0.97074616
  outer loop
  vertex -0.0478072055 -0.0408791862 0.0199999996
  vertex -0.0508565158 -0.0274284706 0.0199999996
  vertex -0.0478072055 -0.0408974402 0.0199990012
  endloop
 endfacet

 facet normal -0.07395643 -0.0544547066 0.995773673
  outer loop
  vertex -0.0478072055 -0.0408791862 0.0199999996
  vertex -0.0478072055 -0.0408974402 0.0199990012
  vertex -0.047800459 -0.0409248248 0.0199980047
  endloop
 endfacet

 facet normal 0.46535337 -0.407722801 0.785626054
  outer loop
  vertex -0.0300139356 -0.0289223194 0.0179349557
  vertex -0.0300071873 -0.0289588273 0.0179120097
  vertex -0.0299970694 -0.028995337 0.0178870689
  endloop
 endfacet

 facet normal 0.381623149 -0.41931051 0.823736906
  outer loop
  vertex -0.0300139356 -0.0289223194 0.0179349557
  vertex -0.0477498621 -0.0411347523 0.0199351534
  vertex -0.0477363691 -0.0411773473 0.0199072212
  endloop
 endfacet

 facet normal 0.391962767 -0.436500281 0.809834957
  outer loop
  vertex -0.0300139356 -0.0289223194 0.0179349557
  vertex -0.0477363691 -0.0411773473 0.0199072212
  vertex -0.0300071873 -0.0289588273 0.0179120097
  endloop
 endfacet

 facet normal 0.985969543 0.144032285 0.0843724757
  outer loop
  vertex -0.0299970694 -0.028995337 0.0178870689
  vertex -0.0299936943 -0.0290105492 0.017873602
  vertex -0.0299734566 -0.0290926956 0.017777333
  endloop
 endfacet

 facet normal 0.39474386 -0.44117105 0.805943847
  outer loop
  vertex -0.0299970694 -0.028995337 0.0178870689
  vertex -0.0300071873 -0.0289588273 0.0179120097
  vertex -0.0477363691 -0.0411773473 0.0199072212
  endloop
 endfacet

 facet normal 0.434668154 -0.509850621 0.742371917
  outer loop
  vertex -0.0299970694 -0.028995337 0.0178870689
  vertex -0.0477363691 -0.0411773473 0.0199072212
  vertex -0.0477296226 -0.0412108153 0.0198802873
  endloop
 endfacet

 facet normal 0.448716283 -0.534513175 0.716204822
  outer loop
  vertex -0.0299970694 -0.028995337 0.0178870689
  vertex -0.0477296226 -0.0412108153 0.0198802873
  vertex -0.0299936943 -0.0290105492 0.017873602
  endloop
 endfacet

 facet normal 0.207751483 -0.143264577 0.967633486
  outer loop
  vertex -0.0300409198 -0.0288006198 0.0179833397
  vertex -0.0300510377 -0.0287580248 0.0179918185
  vertex -0.0477903411 -0.0409826301 0.0199905224
  endloop
 endfacet

 facet normal 0.219846219 -0.16181159 0.962021112
  outer loop
  vertex -0.0300409198 -0.0288006198 0.0179833397
  vertex -0.0477903411 -0.0409826301 0.0199905224
  vertex -0.0477802195 -0.0410252251 0.0199810453
  endloop
 endfacet

 facet normal 0.273167342 -0.244351625 0.930414915
  outer loop
  vertex -0.0300409198 -0.0288006198 0.0179833397
  vertex -0.0477802195 -0.0410252251 0.0199810453
  vertex -0.045837298 -0.0397230498 0.0197525937
  endloop
 endfacet

 facet normal 0.280343086 -0.255565464 0.92525351
  outer loop
  vertex -0.0300409198 -0.0288006198 0.0179833397
  vertex -0.045837298 -0.0397230498 0.0197525937
  vertex -0.0300341733 -0.028840173 0.0179703701
  endloop
 endfacet

 facet normal 0.273242682 -0.244473562 0.930360734
  outer loop
  vertex -0.045837298 -0.0397230498 0.0197525937
  vertex -0.0477802195 -0.0410252251 0.0199810453
  vertex -0.047773473 -0.0410556495 0.0199710689
  endloop
 endfacet

 facet normal 0.27798757 -0.251924932 0.926961064
  outer loop
  vertex -0.045837298 -0.0397230498 0.0197525937
  vertex -0.047773473 -0.0410556495 0.0199710689
  vertex -0.0477701016 -0.0410647765 0.0199675765
  endloop
 endfacet

 facet normal -0.148550898 -0.400769562 0.904055536
  outer loop
  vertex -0.0477701016 -0.0410647765 0.0199675765
  vertex -0.047773473 -0.0410556495 0.0199710689
  vertex -0.0547018871 -0.0426316448 0.0181339774
  endloop
 endfacet

 facet normal -0.143558368 -0.415821642 0.898044229
  outer loop
  vertex -0.0477701016 -0.0410647765 0.0199675765
  vertex -0.0547018871 -0.0426316448 0.0181339774
  vertex -0.04775998 -0.0410952009 0.0199551061
  endloop
 endfacet

 facet normal -0.136420041 -0.437265575 0.888925493
  outer loop
  vertex -0.04775998 -0.0410952009 0.0199551061
  vertex -0.0547018871 -0.0426316448 0.0181339774
  vertex -0.04775998 -0.0411043279 0.0199506171
  endloop
 endfacet

 facet normal 0.0440149419 -0.440964311 0.896444738
  outer loop
  vertex -0.04775998 -0.0410952009 0.0199551061
  vertex -0.04775998 -0.0411043279 0.0199506171
  vertex -0.0477498621 -0.0411347523 0.0199351534
  endloop
 endfacet

 facet normal -0.088834092 -0.565744996 0.819781184
  outer loop
  vertex -0.0477498621 -0.0411347523 0.0199351534
  vertex -0.0506912321 -0.0418466888 0.0191250984
  vertex -0.0477363691 -0.0411773473 0.0199072212
  endloop
 endfacet

 facet normal 0.847455025 -0.446754545 0.286758393
  outer loop
  vertex -0.0299700834 -0.0291170366 0.0177399218
  vertex -0.029966712 -0.0291352905 0.0177015159
  vertex -0.0299633369 -0.0291413758 0.0176820625
  endloop
 endfacet

 facet normal 0.542159081 -0.715290666 0.440934151
  outer loop
  vertex -0.0299700834 -0.0291170366 0.0177399218
  vertex -0.0476992652 -0.0413112156 0.01975758
  vertex -0.0476925187 -0.0413294695 0.0197196715
  endloop
 endfacet

 facet normal 0.550387621 -0.734298706 0.397339791
  outer loop
  vertex -0.0299700834 -0.0291170366 0.0177399218
  vertex -0.0476925187 -0.0413294695 0.0197196715
  vertex -0.029966712 -0.0291352905 0.0177015159
  endloop
 endfacet

 facet normal 0.574947715 -0.747157991 0.333451807
  outer loop
  vertex -0.0299633369 -0.0291413758 0.0176820625
  vertex -0.029966712 -0.0291352905 0.0177015159
  vertex -0.0299633369 -0.0291505028 0.0176616106
  endloop
 endfacet

 facet normal 0.606784225 -0.725859344 0.323946297
  outer loop
  vertex -0.0299633369 -0.0291413758 0.0176820625
  vertex -0.0299633369 -0.0291505028 0.0176616106
  vertex -0.0299599636 -0.029156588 0.0176416598
  endloop
 endfacet

 facet normal 0.560688019 -0.760804415 0.326811522
  outer loop
  vertex -0.0299599636 -0.029156588 0.0176416598
  vertex -0.0299633369 -0.0291505028 0.0176616106
  vertex -0.045837298 -0.04007902 0.0194543079
  endloop
 endfacet

 facet normal 0.56696701 -0.780419528 0.26361689
  outer loop
  vertex -0.0299599636 -0.029156588 0.0176416598
  vertex -0.045837298 -0.04007902 0.0194543079
  vertex -0.0476857722 -0.0413659811 0.0196199119
  endloop
 endfacet

 facet normal 0.569047987 -0.78815788 0.234503016
  outer loop
  vertex -0.0299599636 -0.029156588 0.0176416598
  vertex -0.0476857722 -0.0413659811 0.0196199119
  vertex -0.0299599636 -0.0291626733 0.017621208
  endloop
 endfacet

 facet normal 0.987337351 0.114144847 0.110163145
  outer loop
  vertex -0.0299734566 -0.0290926956 0.017777333
  vertex -0.0299936943 -0.0290105492 0.017873602
  vertex -0.0299903229 -0.0290257614 0.0178591367
  endloop
 endfacet

 facet normal 0.98683691 0.0711921751 0.145205408
  outer loop
  vertex -0.0299734566 -0.0290926956 0.017777333
  vertex -0.0299903229 -0.0290257614 0.0178591367
  vertex -0.0299835764 -0.0290561877 0.0178282112
  endloop
 endfacet

 facet normal 0.5097785 -0.647718728 0.566203594
  outer loop
  vertex -0.0299734566 -0.0290926956 0.017777333
  vertex -0.0299835764 -0.0290561877 0.0178282112
  vertex -0.0477060117 -0.0412868783 0.0197929963
  endloop
 endfacet

 facet normal 0.514763713 -0.65764302 0.550021708
  outer loop
  vertex -0.0299734566 -0.0290926956 0.017777333
  vertex -0.0477060117 -0.0412868783 0.0197929963
  vertex -0.0476992652 -0.0413112156 0.01975758
  endloop
 endfacet

 facet normal 0.034953285 -0.820515633 0.570554554
  outer loop
  vertex -0.0476992652 -0.0413112156 0.01975758
  vertex -0.0477060117 -0.0412868783 0.0197929963
  vertex -0.0506912321 -0.0419714302 0.0189914182
  endloop
 endfacet

 facet normal 0.0459668599 -0.838465452 0.543012619
  outer loop
  vertex -0.0476992652 -0.0413112156 0.01975758
  vertex -0.0506912321 -0.0419714302 0.0189914182
  vertex -0.0547018871 -0.0428780839 0.017930964
  endloop
 endfacet

 facet normal 0.0614560656 -0.861746669 0.503602922
  outer loop
  vertex -0.0476992652 -0.0413112156 0.01975758
  vertex -0.0547018871 -0.0428780839 0.017930964
  vertex -0.0579131059 -0.0436478257 0.0170056857
  endloop
 endfacet

 facet normal 0.0842723623 -0.891826332 0.444459081
  outer loop
  vertex -0.0476992652 -0.0413112156 0.01975758
  vertex -0.0579131059 -0.0436478257 0.0170056857
  vertex -0.0476925187 -0.0413294695 0.0197196715
  endloop
 endfacet

 facet normal 0.562943995 -0.769877434 0.300637513
  outer loop
  vertex -0.0476857722 -0.0413659811 0.0196199119
  vertex -0.045837298 -0.04007902 0.0194543079
  vertex -0.0476891436 -0.0413446836 0.0196807645
  endloop
 endfacet

 facet normal 0.123657361 -0.934465051 0.333892196
  outer loop
  vertex -0.0476857722 -0.0413659811 0.0196199119
  vertex -0.0476891436 -0.0413446836 0.0196807645
  vertex -0.0506912321 -0.0420322791 0.0188682154
  endloop
 endfacet

 facet normal 0.126906484 -0.93761313 0.323691905
  outer loop
  vertex -0.0476857722 -0.0413659811 0.0196199119
  vertex -0.0506912321 -0.0420322791 0.0188682154
  vertex -0.0506912321 -0.042041406 0.0188417789
  endloop
 endfacet

 facet normal 0.154847786 -0.959614098 0.234868437
  outer loop
  vertex -0.0476857722 -0.0413659811 0.0196199119
  vertex -0.0506912321 -0.042041406 0.0188417789
  vertex -0.0547018871 -0.0429632701 0.0177194718
  endloop
 endfacet

 facet normal 0.167403877 -0.966544628 0.194338471
  outer loop
  vertex -0.0476857722 -0.0413659811 0.0196199119
  vertex -0.0547018871 -0.0429632701 0.0177194718
  vertex -0.0476857722 -0.0413751081 0.0195745192
  endloop
 endfacet

 facet normal 0.154695794 -0.959523618 0.235337302
  outer loop
  vertex -0.0547018871 -0.0429632701 0.0177194718
  vertex -0.0506912321 -0.042041406 0.0188417789
  vertex -0.0573902726 -0.0435717627 0.0170056857
  endloop
 endfacet

 facet normal 0.146128222 -0.953953266 0.261953443
  outer loop
  vertex -0.0573902726 -0.0435717627 0.0170056857
  vertex -0.0506912321 -0.042041406 0.0188417789
  vertex -0.0547018871 -0.0429480597 0.017777333
  endloop
 endfacet

 facet normal 0.141636208 -0.950912237 0.275145471
  outer loop
  vertex -0.0573902726 -0.0435717627 0.0170056857
  vertex -0.0547018871 -0.0429480597 0.017777333
  vertex -0.0577579439 -0.0436265282 0.0170056857
  endloop
 endfacet

 facet normal 0.219969556 -0.975506842 0
  outer loop
  vertex -0.0572249889 -0.0435382985 0.0170056857
  vertex -0.0547018871 -0.0429693572 0.0170056857
  vertex -0.0547018871 -0.0429693572 0.0176291894
  endloop
 endfacet

 facet normal 0.214819521 -0.976413369 0.0216675065
  outer loop
  vertex -0.0572249889 -0.0435382985 0.0170056857
  vertex -0.0547018871 -0.0429693572 0.0176291894
  vertex -0.0506912321 -0.0420627035 0.0187230632
  endloop
 endfacet

 facet normal 0.134905234 -0.945332229 0.296896905
  outer loop
  vertex -0.0577579439 -0.0436265282 0.0170056857
  vertex -0.0547018871 -0.0429480597 0.017777333
  vertex -0.0506912321 -0.042041406 0.0188417789
  endloop
 endfacet

 facet normal 0.12905702 -0.940265656 0.31503135
  outer loop
  vertex -0.0577579439 -0.0436265282 0.0170056857
  vertex -0.0506912321 -0.042041406 0.0188417789
  vertex -0.0579131059 -0.0436478257 0.0170056857
  endloop
 endfacet

 facet normal 0.0558373034 -0.854245365 0.51686275
  outer loop
  vertex -0.0579131059 -0.0436478257 0.0170056857
  vertex -0.0547018871 -0.0428780839 0.017930964
  vertex -0.0581458546 -0.0436630398 0.0170056857
  endloop
 endfacet

 facet normal 0.126275361 -0.937689245 0.32371819
  outer loop
  vertex -0.0579131059 -0.0436478257 0.0170056857
  vertex -0.0506912321 -0.042041406 0.0188417789
  vertex -0.0506912321 -0.0420322791 0.0188682154
  endloop
 endfacet

 facet normal 0.108583257 -0.919879556 0.376870483
  outer loop
  vertex -0.0579131059 -0.0436478257 0.0170056857
  vertex -0.0506912321 -0.0420322791 0.0188682154
  vertex -0.0476925187 -0.0413294695 0.0197196715
  endloop
 endfacet

 facet normal 0.0528583452 -0.849908829 0.524271786
  outer loop
  vertex -0.0581458546 -0.0436630398 0.0170056857
  vertex -0.0547018871 -0.0428780839 0.017930964
  vertex -0.0582436733 -0.0436691232 0.0170056857
  endloop
 endfacet

 facet normal -0.0170968771 -0.726487398 0.686967075
  outer loop
  vertex -0.0506912321 -0.0419136249 0.0190637466
  vertex -0.0477127582 -0.0412625372 0.0198264159
  vertex -0.0477228761 -0.0412321128 0.0198583379
  endloop
 endfacet

 facet normal -0.0200793408 -0.720600605 0.693059623
  outer loop
  vertex -0.0506912321 -0.0419136249 0.0190637466
  vertex -0.0477228761 -0.0412321128 0.0198583379
  vertex -0.0477296226 -0.0412108153 0.0198802873
  endloop
 endfacet

 facet normal 0.0257912874 -0.805582285 0.591922283
  outer loop
  vertex -0.0506912321 -0.0419714302 0.0189914182
  vertex -0.0477060117 -0.0412868783 0.0197929963
  vertex -0.0477127582 -0.0412625372 0.0198264159
  endloop
 endfacet

 facet normal 0.464228481 -0.563009381 0.683748722
  outer loop
  vertex -0.0477127582 -0.0412625372 0.0198264159
  vertex -0.045837298 -0.0399360247 0.0196453501
  vertex -0.0477228761 -0.0412321128 0.0198583379
  endloop
 endfacet

 facet normal 0.507994533 -0.644243598 0.571744561
  outer loop
  vertex -0.0477127582 -0.0412625372 0.0198264159
  vertex -0.0477060117 -0.0412868783 0.0197929963
  vertex -0.0299835764 -0.0290561877 0.0178282112
  endloop
 endfacet

 facet normal 0.49817729 -0.62523663 0.60074842
  outer loop
  vertex -0.0477127582 -0.0412625372 0.0198264159
  vertex -0.0299835764 -0.0290561877 0.0178282112
  vertex -0.0299869496 -0.0290440172 0.017843673
  endloop
 endfacet

 facet normal 0.469614595 -0.572178364 0.672364593
  outer loop
  vertex -0.0477127582 -0.0412625372 0.0198264159
  vertex -0.0299869496 -0.0290440172 0.017843673
  vertex -0.045837298 -0.0399360247 0.0196453501
  endloop
 endfacet

 facet normal 0.462983549 -0.560756147 0.686439216
  outer loop
  vertex -0.0477296226 -0.0412108153 0.0198802873
  vertex -0.0477228761 -0.0412321128 0.0198583379
  vertex -0.045837298 -0.0399360247 0.0196453501
  endloop
 endfacet

 facet normal 0.455041587 -0.545807064 0.703585029
  outer loop
  vertex -0.0477296226 -0.0412108153 0.0198802873
  vertex -0.045837298 -0.0399360247 0.0196453501
  vertex -0.0299869496 -0.0290440172 0.017843673
  endloop
 endfacet

 facet normal 0.452857345 -0.541880071 0.70801568
  outer loop
  vertex -0.0477296226 -0.0412108153 0.0198802873
  vertex -0.0299869496 -0.0290440172 0.017843673
  vertex -0.0299936943 -0.0290105492 0.017873602
  endloop
 endfacet

 facet normal -0.0607919507 -0.633218646 0.771581829
  outer loop
  vertex -0.0477296226 -0.0412108153 0.0198802873
  vertex -0.0477363691 -0.0411773473 0.0199072212
  vertex -0.0506912321 -0.0418466888 0.0191250984
  endloop
 endfacet

 facet normal -0.167832613 -0.34055981 0.925122261
  outer loop
  vertex -0.0547018871 -0.0426316448 0.0181339774
  vertex -0.047773473 -0.0410556495 0.0199710689
  vertex -0.0477802195 -0.0410252251 0.0199810453
  endloop
 endfacet

 facet normal -0.169167563 -0.336313367 0.926431656
  outer loop
  vertex -0.0547018871 -0.0426316448 0.0181339774
  vertex -0.0477802195 -0.0410252251 0.0199810453
  vertex -0.0547018871 -0.0425890498 0.0181494411
  endloop
 endfacet

 facet normal -0.186514124 -0.278089583 0.94227314
  outer loop
  vertex -0.0547018871 -0.0425890498 0.0181494411
  vertex -0.0477802195 -0.0410252251 0.0199810453
  vertex -0.0547018871 -0.0425586253 0.0181584191
  endloop
 endfacet

 facet normal -0.192585722 -0.256496489 0.947164297
  outer loop
  vertex -0.0547018871 -0.0425586253 0.0181584191
  vertex -0.0477802195 -0.0410252251 0.0199810453
  vertex -0.0477903411 -0.0409826301 0.0199905224
  endloop
 endfacet

 facet normal -0.194748491 -0.248863339 0.948757112
  outer loop
  vertex -0.0547018871 -0.0425586253 0.0181584191
  vertex -0.0477903411 -0.0409826301 0.0199905224
  vertex -0.0547018871 -0.0425434113 0.0181624088
  endloop
 endfacet

 facet normal -0.204509944 -0.213339731 0.955333412
  outer loop
  vertex -0.0547018871 -0.0425434113 0.0181624088
  vertex -0.0477903411 -0.0409826301 0.0199905224
  vertex -0.0477937125 -0.0409704596 0.0199925173
  endloop
 endfacet

 facet normal -0.209092364 -0.196305335 0.957989991
  outer loop
  vertex -0.0547018871 -0.0425434113 0.0181624088
  vertex -0.0477937125 -0.0409704596 0.0199925173
  vertex -0.0547018871 -0.0425190739 0.018167397
  endloop
 endfacet

 facet normal -0.211183235 -0.188324913 0.959132612
  outer loop
  vertex -0.0547018871 -0.0425190739 0.018167397
  vertex -0.0477937125 -0.0409704596 0.0199925173
  vertex -0.047800459 -0.0409400351 0.0199970063
  endloop
 endfacet

 facet normal -0.212434411 -0.183597952 0.959772587
  outer loop
  vertex -0.0547018871 -0.0425190739 0.018167397
  vertex -0.047800459 -0.0409400351 0.0199970063
  vertex -0.0547018871 -0.0425008163 0.0181708895
  endloop
 endfacet

 facet normal -0.234469622 -0.0951520726 0.967455506
  outer loop
  vertex -0.0547018871 -0.0425008163 0.0181708895
  vertex -0.047800459 -0.0409400351 0.0199970063
  vertex -0.0547018871 -0.0424551815 0.0181753784
  endloop
 endfacet

 facet normal -0.237274811 -0.0829069838 0.967898309
  outer loop
  vertex -0.0547018871 -0.0424551815 0.0181753784
  vertex -0.047800459 -0.0409400351 0.0199970063
  vertex -0.0478072055 -0.0408974402 0.0199990012
  endloop
 endfacet

 facet normal -0.243632764 -0.0552290753 0.968293786
  outer loop
  vertex -0.0547018871 -0.0424551815 0.0181753784
  vertex -0.0478072055 -0.0408974402 0.0199990012
  vertex -0.0508565158 -0.0274284706 0.0199999996
  endloop
 endfacet

 facet normal -0.243896231 -0.0551541224 0.968231678
  outer loop
  vertex -0.0547018871 -0.0424551815 0.0181753784
  vertex -0.0508565158 -0.0274284706 0.0199999996
  vertex -0.0624938197 -0.0214135274 0.0174112115
  endloop
 endfacet

 facet normal -0.243878156 -0.0551162474 0.968238354
  outer loop
  vertex -0.0624938197 -0.0214135274 0.0174112115
  vertex -0.0508565158 -0.0274284706 0.0199999996
  vertex -0.0522158891 -0.0214135274 0.0199999996
  endloop
 endfacet

 facet normal 0.00173983234 0.406589717 0.913609266
  outer loop
  vertex -0.0484177433 -0.0162413437 0.0194772538
  vertex -0.0400726125 -0.0143458918 0.0186178163
  vertex -0.0484177433 -0.0162200481 0.0194677766
  endloop
 endfacet

 facet normal 0.00146866031 0.407594293 0.913161933
  outer loop
  vertex -0.0484177433 -0.0162200481 0.0194677766
  vertex -0.0400726125 -0.0143458918 0.0186178163
  vertex -0.0336434245 -0.0128794257 0.0179529116
  endloop
 endfacet

 facet normal -0.0126683591 0.458889663 0.888402939
  outer loop
  vertex -0.0484177433 -0.0162200481 0.0194677766
  vertex -0.0336434245 -0.0128794257 0.0179529116
  vertex -0.0484211147 -0.0162017923 0.0194582995
  endloop
 endfacet

 facet normal 0.181567624 -0.103581473 0.977908075
  outer loop
  vertex -0.0300510377 -0.0287580248 0.0179918185
  vertex -0.047800459 -0.0409400351 0.0199970063
  vertex -0.045837298 -0.0396226496 0.0197720453
  endloop
 endfacet

 facet normal 0.185298741 -0.109218083 0.976593971
  outer loop
  vertex -0.0300510377 -0.0287580248 0.0179918185
  vertex -0.045837298 -0.0396226496 0.0197720453
  vertex -0.0477903411 -0.0409826301 0.0199905224
  endloop
 endfacet

 facet normal -0.117591068 -0.0650292262 0.990930676
  outer loop
  vertex -0.047800459 -0.0409248248 0.0199980047
  vertex -0.0478072055 -0.0408974402 0.0199990012
  vertex -0.047800459 -0.0409400351 0.0199970063
  endloop
 endfacet

 facet normal 0.181800619 -0.10394261 0.977826357
  outer loop
  vertex -0.047800459 -0.0409400351 0.0199970063
  vertex -0.0477937125 -0.0409704596 0.0199925173
  vertex -0.045837298 -0.0396226496 0.0197720453
  endloop
 endfacet

 facet normal 0.936500251 -0.109233081 0.333219856
  outer loop
  vertex -0.0299936943 -0.0290105492 0.017873602
  vertex -0.0299869496 -0.0290440172 0.017843673
  vertex -0.0299903229 -0.0290257614 0.0178591367
  endloop
 endfacet

 facet normal 0.185066447 -0.108871222 0.976676702
  outer loop
  vertex -0.0477903411 -0.0409826301 0.0199905224
  vertex -0.045837298 -0.0396226496 0.0197720453
  vertex -0.0477937125 -0.0409704596 0.0199925173
  endloop
 endfacet

 facet normal 0.556584477 -0.749879718 0.357623041
  outer loop
  vertex -0.029966712 -0.0291352905 0.0177015159
  vertex -0.0476925187 -0.0413294695 0.0197196715
  vertex -0.045837298 -0.04007902 0.0194543079
  endloop
 endfacet

 facet normal 0.559528887 -0.757592916 0.336125821
  outer loop
  vertex -0.029966712 -0.0291352905 0.0177015159
  vertex -0.045837298 -0.04007902 0.0194543079
  vertex -0.0299633369 -0.0291505028 0.0176616106
  endloop
 endfacet

 facet normal 0.111028746 -0.922278047 0.370237529
  outer loop
  vertex -0.0476925187 -0.0413294695 0.0197196715
  vertex -0.0506912321 -0.0420322791 0.0188682154
  vertex -0.0476891436 -0.0413446836 0.0196807645
  endloop
 endfacet

 facet normal 0.55817467 -0.755197585 0.343682438
  outer loop
  vertex -0.0476925187 -0.0413294695 0.0197196715
  vertex -0.0476891436 -0.0413446836 0.0196807645
  vertex -0.045837298 -0.04007902 0.0194543079
  endloop
 endfacet

 facet normal 0.977029324 0 0.213104829
  outer loop
  vertex -0.0299903229 -0.0290257614 0.0178591367
  vertex -0.0299869496 -0.0290440172 0.017843673
  vertex -0.0299835764 -0.0290561877 0.0178282112
  endloop
 endfacet

endsolid AssimpScene
