solid AssimpScene
 facet normal 0 1 0
  outer loop
  vertex -0.155367374 0.0294100568 0.0059799999
  vertex -0.155367374 0.0294100568 -0.00211715861
  vertex -0.159363911 0.0294100568 -0.00211715861
  endloop
 endfacet

 facet normal 0 1 0
  outer loop
  vertex -0.155367374 0.0294100568 0.0059799999
  vertex -0.159363911 0.0294100568 -0.00211715861
  vertex -0.159363911 0.0294100568 0.0059799999
  endloop
 endfacet

 facet normal 0 0 1
  outer loop
  vertex -0.155367374 0.0294100568 0.0059799999
  vertex -0.159363911 0.0294100568 0.0059799999
  vertex -0.159363911 0.0201009102 0.0059799999
  endloop
 endfacet

 facet normal 0 0 1
  outer loop
  vertex -0.155367374 0.0294100568 0.0059799999
  vertex -0.159363911 0.0201009102 0.0059799999
  vertex -0.155367374 0.0201009102 0.0059799999
  endloop
 endfacet

 facet normal 1 0 0
  outer loop
  vertex -0.155367374 0.0294100568 0.0059799999
  vertex -0.155367374 0.0201009102 0.0059799999
  vertex -0.155367374 0.0201009102 -0.00211715861
  endloop
 endfacet

 facet normal 1 0 0
  outer loop
  vertex -0.155367374 0.0294100568 0.0059799999
  vertex -0.155367374 0.0201009102 -0.00211715861
  vertex -0.155367374 0.0294100568 -0.00211715861
  endloop
 endfacet

 facet normal 0 0 -1
  outer loop
  vertex -0.155367374 0.0294100568 -0.00211715861
  vertex -0.155367374 0.0201009102 -0.00211715861
  vertex -0.159363911 0.0201009102 -0.00211715861
  endloop
 endfacet

 facet normal 0 0 -1
  outer loop
  vertex -0.155367374 0.0294100568 -0.00211715861
  vertex -0.159363911 0.0201009102 -0.00211715861
  vertex -0.159363911 0.0294100568 -0.00211715861
  endloop
 endfacet

 facet normal -1 0 0
  outer loop
  vertex -0.159363911 0.0294100568 0.0059799999
  vertex -0.159363911 0.0294100568 -0.00211715861
  vertex -0.159363911 0.0201009102 -0.00211715861
  endloop
 endfacet

 facet normal -1 0 0
  outer loop
  vertex -0.159363911 0.0294100568 0.0059799999
  vertex -0.159363911 0.0201009102 -0.00211715861
  vertex -0.159363911 0.0201009102 0.0059799999
  endloop
 endfacet

 facet normal 0 -1 0
  outer loop
  vertex -0.155367374 0.0201009102 0.0059799999
  vertex -0.159363911 0.0201009102 0.0059799999
  vertex -0.159363911 0.0201009102 -0.00211715861
  endloop
 endfacet

 facet normal 0 -1 0
  outer loop
  vertex -0.155367374 0.0201009102 0.0059799999
  vertex -0.159363911 0.0201009102 -0.00211715861
  vertex -0.155367374 0.0201009102 -0.00211715861
  endloop
 endfacet

endsolid AssimpScene
