solid AssimpScene
 facet normal 0 -1 0
  outer loop
  vertex -0.157364294 -0.0199999996 -0.00202000071
  vertex -0.15536429 -0.0199999996 -0.00202000071
  vertex -0.15536429 -0.0199999996 0.0139797106
  endloop
 endfacet

 facet normal 0 -1 0
  outer loop
  vertex -0.157364294 -0.0199999996 -0.00202000071
  vertex -0.15536429 -0.0199999996 0.0139797106
  vertex -0.159364298 -0.0199999996 0.0139797106
  endloop
 endfacet

 facet normal 0 -1 0
  outer loop
  vertex -0.157364294 -0.0199999996 -0.00202000071
  vertex -0.159364298 -0.0199999996 0.0139797106
  vertex -0.159364298 -0.0199999996 -0.00201843423
  endloop
 endfacet

 facet normal -0.000783203286 0 -0.999999702
  outer loop
  vertex -0.157364294 -0.0199999996 -0.00202000071
  vertex -0.159364298 -0.0199999996 -0.00201843423
  vertex -0.159364298 -0.0175723452 -0.00201843423
  endloop
 endfacet

 facet normal -0.000783203286 0 -0.999999702
  outer loop
  vertex -0.157364294 -0.0199999996 -0.00202000071
  vertex -0.159364298 -0.0175723452 -0.00201843423
  vertex -0.157364294 -0.0152104301 -0.00202000071
  endloop
 endfacet

 facet normal 0 0 -1
  outer loop
  vertex -0.157364294 -0.0199999996 -0.00202000071
  vertex -0.157364294 -0.0152104301 -0.00202000071
  vertex -0.15536429 -0.0152104301 -0.00202000071
  endloop
 endfacet

 facet normal 0 0 -1
  outer loop
  vertex -0.157364294 -0.0199999996 -0.00202000071
  vertex -0.15536429 -0.0152104301 -0.00202000071
  vertex -0.15536429 -0.0199999996 -0.00202000071
  endloop
 endfacet

 facet normal 1 0 0
  outer loop
  vertex -0.15536429 -0.0199999996 -0.00202000071
  vertex -0.15536429 -0.0152104301 -0.00202000071
  vertex -0.15536429 -0.0152029181 0.00597985554
  endloop
 endfacet

 facet normal 1 0 0
  outer loop
  vertex -0.15536429 -0.0199999996 -0.00202000071
  vertex -0.15536429 -0.0152029181 0.00597985554
  vertex -0.15536429 -0.0152029181 0.0139797106
  endloop
 endfacet

 facet normal 1 0 0
  outer loop
  vertex -0.15536429 -0.0199999996 -0.00202000071
  vertex -0.15536429 -0.0152029181 0.0139797106
  vertex -0.15536429 -0.0199999996 0.0139797106
  endloop
 endfacet

 facet normal -1 0 0
  outer loop
  vertex -0.159364298 -0.0199999996 -0.00201843423
  vertex -0.159364298 -0.0199999996 0.0139797106
  vertex -0.159364298 -0.0152029181 0.0139797106
  endloop
 endfacet

 facet normal -1 0 0
  outer loop
  vertex -0.159364298 -0.0199999996 -0.00201843423
  vertex -0.159364298 -0.0152029181 0.0139797106
  vertex -0.159364298 -0.0152029181 0.0124824792
  endloop
 endfacet

 facet normal -1 0 0
  outer loop
  vertex -0.159364298 -0.0199999996 -0.00201843423
  vertex -0.159364298 -0.0152029181 0.0124824792
  vertex -0.159364298 -0.0175723452 -0.00201843423
  endloop
 endfacet

 facet normal 0 0.999999523 -0.000939271529
  outer loop
  vertex -0.157364294 -0.0152104301 -0.00202000071
  vertex -0.157364294 -0.0152029181 0.00597828906
  vertex -0.15536429 -0.0152104301 -0.00202000071
  endloop
 endfacet

 facet normal -0.758969307 0.64260447 -0.105000608
  outer loop
  vertex -0.157364294 -0.0152104301 -0.00202000071
  vertex -0.159364298 -0.0175723452 -0.00201843423
  vertex -0.159364298 -0.0152029181 0.0124824792
  endloop
 endfacet

 facet normal -0.00305457972 0.999994934 -0.000939267164
  outer loop
  vertex -0.157364294 -0.0152104301 -0.00202000071
  vertex -0.159364298 -0.0152029181 0.0124824792
  vertex -0.157364294 -0.0152029181 0.00597828906
  endloop
 endfacet

 facet normal 7.35370975e-07 0.999999523 -0.000939087593
  outer loop
  vertex -0.15536429 -0.0152104301 -0.00202000071
  vertex -0.157364294 -0.0152029181 0.00597828906
  vertex -0.15536429 -0.0152029181 0.00597985554
  endloop
 endfacet

 facet normal 0 0 1
  outer loop
  vertex -0.15536429 -0.0199999996 0.0139797106
  vertex -0.15536429 -0.0152029181 0.0139797106
  vertex -0.159364298 -0.0152029181 0.0139797106
  endloop
 endfacet

 facet normal 0 0 1
  outer loop
  vertex -0.15536429 -0.0199999996 0.0139797106
  vertex -0.159364298 -0.0152029181 0.0139797106
  vertex -0.159364298 -0.0199999996 0.0139797106
  endloop
 endfacet

 facet normal 0 1 0
  outer loop
  vertex -0.157364294 -0.0152029181 0.00597828906
  vertex -0.159364298 -0.0152029181 0.0124824792
  vertex -0.159364298 -0.0152029181 0.0139797106
  endloop
 endfacet

 facet normal 0 1 0
  outer loop
  vertex -0.157364294 -0.0152029181 0.00597828906
  vertex -0.159364298 -0.0152029181 0.0139797106
  vertex -0.15536429 -0.0152029181 0.0139797106
  endloop
 endfacet

 facet normal 0 1 0
  outer loop
  vertex -0.157364294 -0.0152029181 0.00597828906
  vertex -0.15536429 -0.0152029181 0.0139797106
  vertex -0.15536429 -0.0152029181 0.00597985554
  endloop
 endfacet

endsolid AssimpScene
