solid AssimpScene
 facet normal 0 0 1
  outer loop
  vertex -0.155364484 -0.012004829 0.0139800003
  vertex -0.159364298 -0.012004829 0.0139800003
  vertex -0.159364298 -0.0152026843 0.0139800003
  endloop
 endfacet

 facet normal 0 0 1
  outer loop
  vertex -0.155364484 -0.012004829 0.0139800003
  vertex -0.159364298 -0.0152026843 0.0139800003
  vertex -0.157364398 -0.0152026843 0.0139800003
  endloop
 endfacet

 facet normal 0 0 1
  outer loop
  vertex -0.155364484 -0.012004829 0.0139800003
  vertex -0.157364398 -0.0152026843 0.0139800003
  vertex -0.155364484 -0.0152023705 0.0139800003
  endloop
 endfacet

 facet normal 1 0 0
  outer loop
  vertex -0.155364484 -0.012004829 0.0139800003
  vertex -0.155364484 -0.0152023705 0.0139800003
  vertex -0.155364484 -0.0152102206 0.000940382015
  endloop
 endfacet

 facet normal 1 0 0
  outer loop
  vertex -0.155364484 -0.012004829 0.0139800003
  vertex -0.155364484 -0.0152102206 0.000940382015
  vertex -0.155364484 -0.0152102206 -0.00201960839
  endloop
 endfacet

 facet normal 1 0 0
  outer loop
  vertex -0.155364484 -0.012004829 0.0139800003
  vertex -0.155364484 -0.0152102206 -0.00201960839
  vertex -0.155364484 -0.0120023172 -0.00201960839
  endloop
 endfacet

 facet normal 1 0 0
  outer loop
  vertex -0.155364484 -0.012004829 0.0139800003
  vertex -0.155364484 -0.0120023172 -0.00201960839
  vertex -0.155364484 -0.0120023172 0.00198812457
  endloop
 endfacet

 facet normal 0.729768038 0.68369478 0.000143202225
  outer loop
  vertex -0.155364484 -0.012004829 0.0139800003
  vertex -0.155364484 -0.0120023172 0.00198812457
  vertex -0.155365273 -0.0120023172 0.00597862992
  endloop
 endfacet

 facet normal 0 0.99999994 0.000313913653
  outer loop
  vertex -0.155364484 -0.012004829 0.0139800003
  vertex -0.155365273 -0.0120023172 0.00597862992
  vertex -0.157365963 -0.0120023172 0.00597862992
  endloop
 endfacet

 facet normal 0 0.99999994 0.000313913653
  outer loop
  vertex -0.155364484 -0.012004829 0.0139800003
  vertex -0.157365963 -0.0120023172 0.00597862992
  vertex -0.159364298 -0.012004829 0.0139800003
  endloop
 endfacet

 facet normal -0.00125691225 0.999999225 0
  outer loop
  vertex -0.159364298 -0.012004829 0.0139800003
  vertex -0.157365963 -0.0120023172 0.00597862992
  vertex -0.157365963 -0.0120023172 0.00198969082
  endloop
 endfacet

 facet normal -0.00125691225 0.999999225 0
  outer loop
  vertex -0.159364298 -0.012004829 0.0139800003
  vertex -0.157365963 -0.0120023172 0.00198969082
  vertex -0.159364298 -0.012004829 0.00998323038
  endloop
 endfacet

 facet normal -1 0 0
  outer loop
  vertex -0.159364298 -0.012004829 0.0139800003
  vertex -0.159364298 -0.012004829 0.00998323038
  vertex -0.159364298 -0.0133004254 0.00998323038
  endloop
 endfacet

 facet normal -1 0 0
  outer loop
  vertex -0.159364298 -0.012004829 0.0139800003
  vertex -0.159364298 -0.0133004254 0.00998323038
  vertex -0.159364298 -0.0152026843 0.0124827772
  endloop
 endfacet

 facet normal -1 0 0
  outer loop
  vertex -0.159364298 -0.012004829 0.0139800003
  vertex -0.159364298 -0.0152026843 0.0124827772
  vertex -0.159364298 -0.0152026843 0.0139800003
  endloop
 endfacet

 facet normal 0.000156767492 -0.999999523 0.000981057528
  outer loop
  vertex -0.155364484 -0.0152023705 0.0139800003
  vertex -0.157364398 -0.0152026843 0.0139800003
  vertex -0.155365273 -0.0152102206 0.00597862992
  endloop
 endfacet

 facet normal 0.968251705 -0.249977291 0.000150487904
  outer loop
  vertex -0.155364484 -0.0152023705 0.0139800003
  vertex -0.155365273 -0.0152102206 0.00597862992
  vertex -0.155364484 -0.0152102206 0.000940382015
  endloop
 endfacet

 facet normal 0 1 0
  outer loop
  vertex -0.155364484 -0.0120023172 0.00198812457
  vertex -0.155364484 -0.0120023172 -0.00201960839
  vertex -0.157363996 -0.0120023172 -0.00201960839
  endloop
 endfacet

 facet normal 0 1 0
  outer loop
  vertex -0.155364484 -0.0120023172 0.00198812457
  vertex -0.157363996 -0.0120023172 -0.00201960839
  vertex -0.157365963 -0.0120023172 0.00198969082
  endloop
 endfacet

 facet normal 0 1 0
  outer loop
  vertex -0.155364484 -0.0120023172 0.00198812457
  vertex -0.157365963 -0.0120023172 0.00198969082
  vertex -0.157365963 -0.0120023172 0.00597862992
  endloop
 endfacet

 facet normal 0 1 0
  outer loop
  vertex -0.155364484 -0.0120023172 0.00198812457
  vertex -0.157365963 -0.0120023172 0.00597862992
  vertex -0.155365273 -0.0120023172 0.00597862992
  endloop
 endfacet

 facet normal -0.00125937187 0.999999225 -6.149196e-07
  outer loop
  vertex -0.159364298 -0.012004829 0.00998323038
  vertex -0.157365963 -0.0120023172 0.00198969082
  vertex -0.157363996 -0.0120023172 -0.00201960839
  endloop
 endfacet

 facet normal -0.986396372 0 -0.164384961
  outer loop
  vertex -0.159364298 -0.012004829 0.00998323038
  vertex -0.157363996 -0.0120023172 -0.00201960839
  vertex -0.157363996 -0.0152102206 -0.00201960839
  endloop
 endfacet

 facet normal -0.986396372 0 -0.164384961
  outer loop
  vertex -0.159364298 -0.012004829 0.00998323038
  vertex -0.157363996 -0.0152102206 -0.00201960839
  vertex -0.159364298 -0.0133004254 0.00998323038
  endloop
 endfacet

 facet normal -0.00377130881 -0.999992847 0
  outer loop
  vertex -0.159364298 -0.0152026843 0.0139800003
  vertex -0.159364298 -0.0152026843 0.0124827772
  vertex -0.157365963 -0.0152102206 0.00448767189
  endloop
 endfacet

 facet normal -0.00377130881 -0.999992847 0
  outer loop
  vertex -0.159364298 -0.0152026843 0.0139800003
  vertex -0.157365963 -0.0152102206 0.00448767189
  vertex -0.157365963 -0.0152102206 0.00597862992
  endloop
 endfacet

 facet normal 0 -0.999999523 0.000941889535
  outer loop
  vertex -0.159364298 -0.0152026843 0.0139800003
  vertex -0.157365963 -0.0152102206 0.00597862992
  vertex -0.155365273 -0.0152102206 0.00597862992
  endloop
 endfacet

 facet normal 0 -0.999999523 0.000941889535
  outer loop
  vertex -0.159364298 -0.0152026843 0.0139800003
  vertex -0.155365273 -0.0152102206 0.00597862992
  vertex -0.157364398 -0.0152026843 0.0139800003
  endloop
 endfacet

 facet normal 0 -1 0
  outer loop
  vertex -0.155365273 -0.0152102206 0.00597862992
  vertex -0.157365963 -0.0152102206 0.00597862992
  vertex -0.157365963 -0.0152102206 0.00448767189
  endloop
 endfacet

 facet normal 0 -1 0
  outer loop
  vertex -0.155365273 -0.0152102206 0.00597862992
  vertex -0.157365963 -0.0152102206 0.00448767189
  vertex -0.157363996 -0.0152102206 -0.00201960839
  endloop
 endfacet

 facet normal 0 -1 0
  outer loop
  vertex -0.155365273 -0.0152102206 0.00597862992
  vertex -0.157363996 -0.0152102206 -0.00201960839
  vertex -0.155364484 -0.0152102206 -0.00201960839
  endloop
 endfacet

 facet normal 0 -1 0
  outer loop
  vertex -0.155365273 -0.0152102206 0.00597862992
  vertex -0.155364484 -0.0152102206 -0.00201960839
  vertex -0.155364484 -0.0152102206 0.000940382015
  endloop
 endfacet

 facet normal 0 0 -1
  outer loop
  vertex -0.155364484 -0.0120023172 -0.00201960839
  vertex -0.155364484 -0.0152102206 -0.00201960839
  vertex -0.157363996 -0.0152102206 -0.00201960839
  endloop
 endfacet

 facet normal 0 0 -1
  outer loop
  vertex -0.155364484 -0.0120023172 -0.00201960839
  vertex -0.157363996 -0.0152102206 -0.00201960839
  vertex -0.157363996 -0.0120023172 -0.00201960839
  endloop
 endfacet

 facet normal -0.975064456 -0.176597223 -0.134397775
  outer loop
  vertex -0.159364298 -0.0133004254 0.00998323038
  vertex -0.157363996 -0.0152102206 -0.00201960839
  vertex -0.159364298 -0.0152026843 0.0124827772
  endloop
 endfacet

 facet normal -0.00377585366 -0.999992847 -1.13592182e-06
  outer loop
  vertex -0.159364298 -0.0152026843 0.0124827772
  vertex -0.157363996 -0.0152102206 -0.00201960839
  vertex -0.157365963 -0.0152102206 0.00448767189
  endloop
 endfacet

endsolid AssimpScene
