solid AssimpScene
 facet normal 0 0 -1
  outer loop
  vertex -0.00539730676 0.0218837205 -0.0235974956
  vertex -0.00539730676 0.030064201 -0.0235974956
  vertex 0.00591593795 0.030064201 -0.0235974956
  endloop
 endfacet

 facet normal 0 0 -1
  outer loop
  vertex -0.00539730676 0.0218837205 -0.0235974956
  vertex 0.00591593795 0.030064201 -0.0235974956
  vertex 0.0147172716 0.0300630145 -0.0235974956
  endloop
 endfacet

 facet normal 0 0 -1
  outer loop
  vertex -0.00539730676 0.0218837205 -0.0235974956
  vertex 0.0147172716 0.0300630145 -0.0235974956
  vertex 0.0147172716 0.0256639868 -0.0235974956
  endloop
 endfacet

 facet normal 0 0 -1
  outer loop
  vertex -0.00539730676 0.0218837205 -0.0235974956
  vertex 0.0147172716 0.0256639868 -0.0235974956
  vertex 0.0140941096 0.0212637708 -0.0235974956
  endloop
 endfacet

 facet normal 0 0 -1
  outer loop
  vertex -0.00539730676 0.0218837205 -0.0235974956
  vertex 0.0140941096 0.0212637708 -0.0235974956
  vertex 0.0078068329 0.0193825457 -0.0235974956
  endloop
 endfacet

 facet normal 0 0 -1
  outer loop
  vertex -0.00539730676 0.0218837205 -0.0235974956
  vertex 0.0078068329 0.0193825457 -0.0235974956
  vertex 0.00760981999 0.0193825457 -0.0235974956
  endloop
 endfacet

 facet normal -0.172725424 -0.898242235 -0.404137254
  outer loop
  vertex -0.00539730676 0.0218837205 -0.0235974956
  vertex 0.00760981999 0.0193825457 -0.0235974956
  vertex -0.00602046726 0.0218837205 -0.0233311616
  endloop
 endfacet

 facet normal -0.393003643 0 -0.919537008
  outer loop
  vertex -0.00539730676 0.0218837205 -0.0235974956
  vertex -0.00602046726 0.0218837205 -0.0233311616
  vertex -0.00539730676 0.030064201 -0.0235974956
  endloop
 endfacet

 facet normal 0 0.00662343856 -0.999978065
  outer loop
  vertex -0.00539730676 0.030064201 -0.0235974956
  vertex -0.00539730676 0.0306924637 -0.0235933345
  vertex 0.00760981999 0.0306924637 -0.0235933345
  endloop
 endfacet

 facet normal 0 0.00662343856 -0.999978065
  outer loop
  vertex -0.00539730676 0.030064201 -0.0235974956
  vertex 0.00760981999 0.0306924637 -0.0235933345
  vertex 0.00591593795 0.030064201 -0.0235974956
  endloop
 endfacet

 facet normal -0.394749969 0.00015739775 -0.918788612
  outer loop
  vertex -0.00539730676 0.030064201 -0.0235974956
  vertex -0.00602046726 0.0218837205 -0.0233311616
  vertex -0.00602689106 0.030064201 -0.0233270004
  endloop
 endfacet

 facet normal -0.394748181 0.0030428227 -0.91878444
  outer loop
  vertex -0.00539730676 0.030064201 -0.0235974956
  vertex -0.00602689106 0.030064201 -0.0233270004
  vertex -0.00602689106 0.0306924637 -0.023324918
  endloop
 endfacet

 facet normal -0.39217481 0.00609283987 -0.919870555
  outer loop
  vertex -0.00539730676 0.030064201 -0.0235974956
  vertex -0.00602689106 0.0306924637 -0.023324918
  vertex -0.00539730676 0.0306924637 -0.0235933345
  endloop
 endfacet

 facet normal -0.176229224 -0.984349191 -3.15779216e-05
  outer loop
  vertex 0.00760981999 0.0193825457 -0.0235974956
  vertex -0.00636309804 0.0218837205 -0.010728104
  vertex -0.00636095647 0.0218837205 -0.0226798877
  endloop
 endfacet

 facet normal -0.176572904 -0.98427242 -0.00547352387
  outer loop
  vertex 0.00760981999 0.0193825457 -0.0235974956
  vertex -0.00636095647 0.0218837205 -0.0226798877
  vertex -0.00635024952 0.0218837205 -0.023025291
  endloop
 endfacet

 facet normal -0.180704981 -0.964280367 -0.193672225
  outer loop
  vertex 0.00760981999 0.0193825457 -0.0235974956
  vertex -0.00635024952 0.0218837205 -0.023025291
  vertex -0.00602689106 0.0218837205 -0.0233270004
  endloop
 endfacet

 facet normal -0.178696647 -0.944442987 -0.275852859
  outer loop
  vertex 0.00760981999 0.0193825457 -0.0235974956
  vertex -0.00602689106 0.0218837205 -0.0233270004
  vertex -0.00602046726 0.0218837205 -0.0233311616
  endloop
 endfacet

 facet normal 0 -1 0
  outer loop
  vertex 0.00760981999 0.0193825457 -0.0235974956
  vertex 0.0078068329 0.0193825457 -0.0235974956
  vertex 0.0084278509 0.0193825457 -0.0234996993
  endloop
 endfacet

 facet normal 0 -1 0
  outer loop
  vertex 0.00760981999 0.0193825457 -0.0235974956
  vertex 0.0084278509 0.0193825457 -0.0234996993
  vertex 0.00843641628 0.0193825457 -0.0234955382
  endloop
 endfacet

 facet normal 0 -1 0
  outer loop
  vertex 0.00760981999 0.0193825457 -0.0235974956
  vertex 0.00843641628 0.0193825457 -0.0234955382
  vertex 0.00886470545 0.0193825457 -0.0231979936
  endloop
 endfacet

 facet normal 0 -1 0
  outer loop
  vertex 0.00760981999 0.0193825457 -0.0235974956
  vertex 0.00886470545 0.0193825457 -0.0231979936
  vertex 0.0110061495 0.0193825457 -0.021000728
  endloop
 endfacet

 facet normal 0 -1 0
  outer loop
  vertex 0.00760981999 0.0193825457 -0.0235974956
  vertex 0.0110061495 0.0193825457 -0.021000728
  vertex 0.0110061495 0.0193825457 -0.0104555255
  endloop
 endfacet

 facet normal 0 -1 0
  outer loop
  vertex 0.00760981999 0.0193825457 -0.0235974956
  vertex 0.0110061495 0.0193825457 -0.0104555255
  vertex 0.0078068329 0.0193825457 -0.0104555255
  endloop
 endfacet

 facet normal 0 -1 0
  outer loop
  vertex 0.00760981999 0.0193825457 -0.0235974956
  vertex 0.0078068329 0.0193825457 -0.0104555255
  vertex 0.00760981999 0.0193825457 -0.0104680117
  endloop
 endfacet

 facet normal -0.176201046 -0.984354317 0
  outer loop
  vertex 0.00760981999 0.0193825457 -0.0235974956
  vertex 0.00760981999 0.0193825457 -0.0104680117
  vertex -0.00636309804 0.0218837205 -0.00615879381
  endloop
 endfacet

 facet normal -0.176201046 -0.984354317 0
  outer loop
  vertex 0.00760981999 0.0193825457 -0.0235974956
  vertex -0.00636309804 0.0218837205 -0.00615879381
  vertex -0.00636309804 0.0218837205 -0.010728104
  endloop
 endfacet

 facet normal -0.54368788 0 -0.83928746
  outer loop
  vertex -0.00602046726 0.0218837205 -0.0233311616
  vertex -0.00602689106 0.0218837205 -0.0233270004
  vertex -0.00602689106 0.030064201 -0.0233270004
  endloop
 endfacet

 facet normal -4.69405059e-05 0.468537748 -0.883443534
  outer loop
  vertex -0.00539730676 0.0306924637 -0.0235933345
  vertex -0.00539730676 0.0312613435 -0.0232916269
  vertex 0.0147172716 0.0306984019 -0.0235912539
  endloop
 endfacet

 facet normal 0 0.330668837 -0.943746805
  outer loop
  vertex -0.00539730676 0.0306924637 -0.0235933345
  vertex 0.0147172716 0.0306984019 -0.0235912539
  vertex 0.00760981999 0.0306924637 -0.0235933345
  endloop
 endfacet

 facet normal -0.371487737 0.320546389 -0.871347785
  outer loop
  vertex -0.00539730676 0.0306924637 -0.0235933345
  vertex -0.00602689106 0.0306924637 -0.023324918
  vertex -0.00602689106 0.0311449561 -0.023158459
  endloop
 endfacet

 facet normal -0.263792336 0.451941907 -0.852151513
  outer loop
  vertex -0.00539730676 0.0306924637 -0.0235933345
  vertex -0.00602689106 0.0311449561 -0.023158459
  vertex -0.00539730676 0.0312613435 -0.0232916269
  endloop
 endfacet

 facet normal 8.92612775e-07 0.00662103202 -0.999978065
  outer loop
  vertex 0.00591593795 0.030064201 -0.0235974956
  vertex 0.00760981999 0.0306924637 -0.0235933345
  vertex 0.0147172716 0.0300630145 -0.0235974956
  endloop
 endfacet

 facet normal -0.681474268 0 -0.731842101
  outer loop
  vertex -0.00602689106 0.030064201 -0.0233270004
  vertex -0.00602689106 0.0218837205 -0.0233270004
  vertex -0.00612968067 0.0264917724 -0.0232312847
  endloop
 endfacet

 facet normal -0.682167053 3.72358736e-05 -0.731196344
  outer loop
  vertex -0.00602689106 0.030064201 -0.0233270004
  vertex -0.00612968067 0.0264917724 -0.0232312847
  vertex -0.00635024952 0.0306924637 -0.023025291
  endloop
 endfacet

 facet normal -0.679676533 0.00242922618 -0.73350805
  outer loop
  vertex -0.00602689106 0.030064201 -0.0233270004
  vertex -0.00635024952 0.0306924637 -0.023025291
  vertex -0.00602689106 0.0306924637 -0.023324918
  endloop
 endfacet

 facet normal -0.679330051 0.0320164114 -0.733134151
  outer loop
  vertex -0.00602689106 0.0306924637 -0.023324918
  vertex -0.00635024952 0.0306924637 -0.023025291
  vertex -0.00634810794 0.0310238171 -0.0230128057
  endloop
 endfacet

 facet normal -0.485781759 0.301779211 -0.820332527
  outer loop
  vertex -0.00602689106 0.0306924637 -0.023324918
  vertex -0.00634810794 0.0310238171 -0.0230128057
  vertex -0.00602689106 0.0311449561 -0.023158459
  endloop
 endfacet

 facet normal -0.99999994 0.000243089278 0
  outer loop
  vertex -0.00636309804 0.0218837205 -0.010728104
  vertex -0.00636309804 0.0218837205 -0.00615879381
  vertex -0.00636095647 0.0306936521 -0.00615879381
  endloop
 endfacet

 facet normal -0.99999994 0.000243089278 0
  outer loop
  vertex -0.00636309804 0.0218837205 -0.010728104
  vertex -0.00636095647 0.0306936521 -0.00615879381
  vertex -0.00636095647 0.0306936521 -0.0142820114
  endloop
 endfacet

 facet normal -0.99999994 0.000243075396 -3.44158231e-08
  outer loop
  vertex -0.00636309804 0.0218837205 -0.010728104
  vertex -0.00636095647 0.0306936521 -0.0142820114
  vertex -0.00636095647 0.0306924637 -0.0226757266
  endloop
 endfacet

 facet normal -1 8.4649983e-08 -0.000179186667
  outer loop
  vertex -0.00636309804 0.0218837205 -0.010728104
  vertex -0.00636095647 0.0306924637 -0.0226757266
  vertex -0.00636095647 0.0218837205 -0.0226798877
  endloop
 endfacet

 facet normal -0.999633789 1.27837584e-05 -0.0270605944
  outer loop
  vertex -0.00636095647 0.0218837205 -0.0226798877
  vertex -0.00636095647 0.0306924637 -0.0226757266
  vertex -0.00635453267 0.0264917724 -0.0229150113
  endloop
 endfacet

 facet normal -0.999519825 -0.000187554266 -0.0309837796
  outer loop
  vertex -0.00636095647 0.0218837205 -0.0226798877
  vertex -0.00635453267 0.0264917724 -0.0229150113
  vertex -0.00635024952 0.0218837205 -0.023025291
  endloop
 endfacet

 facet normal -0.999246597 0 -0.0388101451
  outer loop
  vertex -0.00635024952 0.0218837205 -0.023025291
  vertex -0.00635453267 0.0264917724 -0.0229150113
  vertex -0.00635024952 0.0306924637 -0.023025291
  endloop
 endfacet

 facet normal -0.6825459 0 -0.730842769
  outer loop
  vertex -0.00635024952 0.0218837205 -0.023025291
  vertex -0.00635024952 0.0306924637 -0.023025291
  vertex -0.00612968067 0.0264917724 -0.0232312847
  endloop
 endfacet

 facet normal -0.682205737 -3.04796849e-05 -0.731160283
  outer loop
  vertex -0.00635024952 0.0218837205 -0.023025291
  vertex -0.00612968067 0.0264917724 -0.0232312847
  vertex -0.00602689106 0.0218837205 -0.0233270004
  endloop
 endfacet

 facet normal 0.000331352989 -0.00110742112 -0.999999285
  outer loop
  vertex 0.0078068329 0.0193825457 -0.0235974956
  vertex 0.0140941096 0.0212637708 -0.0235974956
  vertex 0.0140941096 0.0193849206 -0.0235954151
  endloop
 endfacet

 facet normal 0.000396802759 -0.998220801 -0.0596251599
  outer loop
  vertex 0.0078068329 0.0193825457 -0.0235974956
  vertex 0.0140941096 0.0193849206 -0.0235954151
  vertex 0.0147194117 0.0193849206 -0.0235912539
  endloop
 endfacet

 facet normal 0.000345553359 -0.999997556 -0.00219431869
  outer loop
  vertex 0.0078068329 0.0193825457 -0.0235974956
  vertex 0.0147194117 0.0193849206 -0.0235912539
  vertex 0.0084278509 0.0193825457 -0.0234996993
  endloop
 endfacet

 facet normal -0.0227092579 -0.93332088 0.358324587
  outer loop
  vertex 0.00760981999 0.0193825457 -0.0104680117
  vertex 0.0078068329 0.0193825457 -0.0104555255
  vertex 0.0155117456 0.0219870452 -0.00318333134
  endloop
 endfacet

 facet normal -0.0475476049 -0.923098564 0.381612718
  outer loop
  vertex 0.00760981999 0.0193825457 -0.0104680117
  vertex 0.0155117456 0.0219870452 -0.00318333134
  vertex -0.00636309804 0.0218837205 -0.00615879381
  endloop
 endfacet

 facet normal 0 0.469845265 -0.882748842
  outer loop
  vertex -0.00539730676 0.0312613435 -0.0232916269
  vertex 0.00760981999 0.0312613435 -0.0232916269
  vertex 0.0147172716 0.0306984019 -0.0235912539
  endloop
 endfacet

 facet normal -0.243781731 0.897106767 -0.368469894
  outer loop
  vertex -0.00539730676 0.0312613435 -0.0232916269
  vertex -0.00602689106 0.0311449561 -0.023158459
  vertex -0.00539730676 0.0315143131 -0.0226757266
  endloop
 endfacet

 facet normal -0.000142992474 0.925014257 -0.379932344
  outer loop
  vertex -0.00539730676 0.0312613435 -0.0232916269
  vertex -0.00539730676 0.0315143131 -0.0226757266
  vertex 0.0078068329 0.0315155014 -0.0226778071
  endloop
 endfacet

 facet normal 0 0.923930824 -0.382559717
  outer loop
  vertex -0.00539730676 0.0312613435 -0.0232916269
  vertex 0.0078068329 0.0315155014 -0.0226778071
  vertex 0.0110061495 0.0315155014 -0.0226778071
  endloop
 endfacet

 facet normal 0 0.923930824 -0.382559717
  outer loop
  vertex -0.00539730676 0.0312613435 -0.0232916269
  vertex 0.0110061495 0.0315155014 -0.0226778071
  vertex 0.00760981999 0.0312613435 -0.0232916269
  endloop
 endfacet

 facet normal 0.99859798 0.0249538869 -0.046685759
  outer loop
  vertex 0.0147172716 0.0306984019 -0.0235912539
  vertex 0.0147172716 0.0312589705 -0.0232916269
  vertex 0.0155117456 0.0315155014 -0.00616087439
  endloop
 endfacet

 facet normal 0.998961866 0.000447516417 -0.0455535464
  outer loop
  vertex 0.0147172716 0.0306984019 -0.0235912539
  vertex 0.0155117456 0.0315155014 -0.00616087439
  vertex 0.0147172716 0.0300630145 -0.0235974956
  endloop
 endfacet

 facet normal 0.000284524431 0.00982349273 -0.99995178
  outer loop
  vertex 0.0147172716 0.0306984019 -0.0235912539
  vertex 0.0147172716 0.0300630145 -0.0235974956
  vertex 0.00760981999 0.0306924637 -0.0235933345
  endloop
 endfacet

 facet normal 0.000157517614 0.471394241 -0.881922603
  outer loop
  vertex 0.0147172716 0.0306984019 -0.0235912539
  vertex 0.00760981999 0.0312613435 -0.0232916269
  vertex 0.0147172716 0.0312589705 -0.0232916269
  endloop
 endfacet

 facet normal -0.43844831 0.863687217 -0.248610899
  outer loop
  vertex -0.00602689106 0.0311449561 -0.023158459
  vertex -0.00634810794 0.0310238171 -0.0230128057
  vertex -0.00602689106 0.0312839076 -0.0226757266
  endloop
 endfacet

 facet normal -0.331764281 0.906552672 -0.260949671
  outer loop
  vertex -0.00602689106 0.0311449561 -0.023158459
  vertex -0.00602689106 0.0312839076 -0.0226757266
  vertex -0.00539730676 0.0315143131 -0.0226757266
  endloop
 endfacet

 facet normal 0.998962939 0.000194914741 -0.0455325507
  outer loop
  vertex 0.0147172716 0.0300630145 -0.0235974956
  vertex 0.0155117456 0.0315155014 -0.00616087439
  vertex 0.0147194117 0.0205499977 -0.0235912539
  endloop
 endfacet

 facet normal 0.945921063 0 -0.324396908
  outer loop
  vertex 0.0147172716 0.0300630145 -0.0235974956
  vertex 0.0147194117 0.0205499977 -0.0235912539
  vertex 0.0147194117 0.0193849206 -0.0235912539
  endloop
 endfacet

 facet normal 0.945921063 0 -0.324396908
  outer loop
  vertex 0.0147172716 0.0300630145 -0.0235974956
  vertex 0.0147194117 0.0193849206 -0.0235912539
  vertex 0.0147172716 0.0256639868 -0.0235974956
  endloop
 endfacet

 facet normal -0.999531329 0.000215427935 -0.0306152906
  outer loop
  vertex -0.00635024952 0.0306924637 -0.023025291
  vertex -0.00635453267 0.0264917724 -0.0229150113
  vertex -0.00636095647 0.0306924637 -0.0226757266
  endloop
 endfacet

 facet normal -0.999502301 0.00761358719 -0.0306143984
  outer loop
  vertex -0.00635024952 0.0306924637 -0.023025291
  vertex -0.00636095647 0.0306924637 -0.0226757266
  vertex -0.00634810794 0.0310238171 -0.0230128057
  endloop
 endfacet

 facet normal -0.616033852 0.787451327 -0.0205584373
  outer loop
  vertex -0.00634810794 0.0310238171 -0.0230128057
  vertex -0.00635024952 0.0310309418 -0.0226757266
  vertex -0.00602689106 0.0312839076 -0.0226757266
  endloop
 endfacet

 facet normal -0.999475539 0.0316163972 -0.0070183496
  outer loop
  vertex -0.00634810794 0.0310238171 -0.0230128057
  vertex -0.00636095647 0.0306924637 -0.0226757266
  vertex -0.00635024952 0.0310309418 -0.0226757266
  endloop
 endfacet

 facet normal -0.0567596853 -0.892098844 0.448261112
  outer loop
  vertex -0.00636309804 0.0218837205 -0.00615879381
  vertex 0.0155117456 0.0219870452 -0.00318333134
  vertex 0.00780254975 0.0224775411 -0.00318333134
  endloop
 endfacet

 facet normal -0.0615853891 -0.881033897 0.469027221
  outer loop
  vertex -0.00636309804 0.0218837205 -0.00615879381
  vertex 0.00780254975 0.0224775411 -0.00318333134
  vertex 0.00780254975 0.0227079429 -0.00275053689
  endloop
 endfacet

 facet normal -0.215341181 -0.226743162 0.94985044
  outer loop
  vertex -0.00636309804 0.0218837205 -0.00615879381
  vertex 0.00780254975 0.0227079429 -0.00275053689
  vertex 0.00780254975 0.0231960658 -0.00263401517
  endloop
 endfacet

 facet normal -0.241302073 -0.00184000831 0.970448256
  outer loop
  vertex -0.00636309804 0.0218837205 -0.00615879381
  vertex 0.00780254975 0.0231960658 -0.00263401517
  vertex 0.00780254975 0.0286829732 -0.00262361183
  endloop
 endfacet

 facet normal -0.242134005 0 0.970242858
  outer loop
  vertex -0.00636309804 0.0218837205 -0.00615879381
  vertex 0.00780254975 0.0286829732 -0.00262361183
  vertex 0.00780254975 0.0315143131 -0.00262361183
  endloop
 endfacet

 facet normal -0.242171645 5.88693365e-05 0.970233381
  outer loop
  vertex -0.00636309804 0.0218837205 -0.00615879381
  vertex 0.00780254975 0.0315143131 -0.00262361183
  vertex -0.00636095647 0.0306936521 -0.00615879381
  endloop
 endfacet

 facet normal -0.999718726 0.0237202756 0
  outer loop
  vertex -0.00636095647 0.0306936521 -0.0142820114
  vertex -0.00636095647 0.0306936521 -0.00615879381
  vertex -0.00635881489 0.0307839122 -0.00615879381
  endloop
 endfacet

 facet normal -0.999711275 0.0240262486 -3.40175575e-06
  outer loop
  vertex -0.00636095647 0.0306936521 -0.0142820114
  vertex -0.00635881489 0.0307839122 -0.00615879381
  vertex -0.00636095647 0.0306924637 -0.0226757266
  endloop
 endfacet

 facet normal -0.999674976 0.0254941117 -1.15335279e-05
  outer loop
  vertex -0.00636095647 0.0306924637 -0.0226757266
  vertex -0.00635881489 0.0307839122 -0.00615879381
  vertex -0.00635239109 0.0310321301 -0.0142820114
  endloop
 endfacet

 facet normal -0.999499977 0.0316171683 -0.000259492226
  outer loop
  vertex -0.00636095647 0.0306924637 -0.0226757266
  vertex -0.00635239109 0.0310321301 -0.0142820114
  vertex -0.00635024952 0.0310309418 -0.0226757266
  endloop
 endfacet

 facet normal 0.00700244447 -0.000991690671 -0.999974966
  outer loop
  vertex 0.0140941096 0.0212637708 -0.0235974956
  vertex 0.0147172716 0.0256639868 -0.0235974956
  vertex 0.0147194117 0.0193849206 -0.0235912539
  endloop
 endfacet

 facet normal 0.00665480364 -0.00110739667 -0.999977231
  outer loop
  vertex 0.0140941096 0.0212637708 -0.0235974956
  vertex 0.0147194117 0.0193849206 -0.0235912539
  vertex 0.0140941096 0.0193849206 -0.0235954151
  endloop
 endfacet

 facet normal 0.998968482 0 -0.0454101786
  outer loop
  vertex 0.0147194117 0.0193849206 -0.0235912539
  vertex 0.0147194117 0.0205499977 -0.0235912539
  vertex 0.0155117456 0.0315155014 -0.00616087439
  endloop
 endfacet

 facet normal 0.998968482 0 -0.0454101786
  outer loop
  vertex 0.0147194117 0.0193849206 -0.0235912539
  vertex 0.0155117456 0.0315155014 -0.00616087439
  vertex 0.0155117456 0.021320777 -0.00616087439
  endloop
 endfacet

 facet normal 0.9254812 -0.378793657 0
  outer loop
  vertex 0.0147194117 0.0193849206 -0.0235912539
  vertex 0.0155117456 0.021320777 -0.00616087439
  vertex 0.0147194117 0.0193849206 -0.0104534449
  endloop
 endfacet

 facet normal 0.000639591948 -0.999999762 0
  outer loop
  vertex 0.0147194117 0.0193849206 -0.0235912539
  vertex 0.0147194117 0.0193849206 -0.0104534449
  vertex 0.0110061495 0.0193825457 -0.0104555255
  endloop
 endfacet

 facet normal 0.000639591948 -0.999999762 0
  outer loop
  vertex 0.0147194117 0.0193849206 -0.0235912539
  vertex 0.0110061495 0.0193825457 -0.0104555255
  vertex 0.0110061495 0.0193825457 -0.021000728
  endloop
 endfacet

 facet normal 0.000380728277 -0.99999994 -0.00037105591
  outer loop
  vertex 0.0147194117 0.0193849206 -0.0235912539
  vertex 0.0110061495 0.0193825457 -0.021000728
  vertex 0.00886470545 0.0193825457 -0.0231979936
  endloop
 endfacet

 facet normal 0.000369889254 -0.999999762 -0.00053242268
  outer loop
  vertex 0.0147194117 0.0193849206 -0.0235912539
  vertex 0.00886470545 0.0193825457 -0.0231979936
  vertex 0.00843641628 0.0193825457 -0.0234955382
  endloop
 endfacet

 facet normal 0.000366507651 -0.999999702 -0.000754394918
  outer loop
  vertex 0.0147194117 0.0193849206 -0.0235912539
  vertex 0.00843641628 0.0193825457 -0.0234955382
  vertex 0.0084278509 0.0193825457 -0.0234996993
  endloop
 endfacet

 facet normal 0 -0.941442728 0.337172806
  outer loop
  vertex 0.0078068329 0.0193825457 -0.0104555255
  vertex 0.0110061495 0.0193825457 -0.0104555255
  vertex 0.0155117456 0.0219870452 -0.00318333134
  endloop
 endfacet

 facet normal -0.0502689891 -0.851205826 0.522419155
  outer loop
  vertex 0.0155117456 0.0219870452 -0.00318333134
  vertex 0.0155117456 0.0223433375 -0.00260280399
  vertex 0.00780254975 0.0227079429 -0.00275053689
  endloop
 endfacet

 facet normal -0.0560739189 -0.881320596 0.469179809
  outer loop
  vertex 0.0155117456 0.0219870452 -0.00318333134
  vertex 0.00780254975 0.0227079429 -0.00275053689
  vertex 0.00780254975 0.0224775411 -0.00318333134
  endloop
 endfacet

 facet normal 0.000413388014 -0.941523969 0.336945832
  outer loop
  vertex 0.0155117456 0.0219870452 -0.00318333134
  vertex 0.0110061495 0.0193825457 -0.0104555255
  vertex 0.0147194117 0.0193849206 -0.0104534449
  endloop
 endfacet

 facet normal 0.768550575 -0.624349296 0.139706969
  outer loop
  vertex 0.0155117456 0.0219870452 -0.00318333134
  vertex 0.0147194117 0.0193849206 -0.0104534449
  vertex 0.0155117456 0.021320777 -0.00616087439
  endloop
 endfacet

 facet normal 1 0 0
  outer loop
  vertex 0.0155117456 0.0219870452 -0.00318333134
  vertex 0.0155117456 0.021320777 -0.00616087439
  vertex 0.0155117456 0.0315155014 -0.00616087439
  endloop
 endfacet

 facet normal 1 0 0
  outer loop
  vertex 0.0155117456 0.0219870452 -0.00318333134
  vertex 0.0155117456 0.0315155014 -0.00616087439
  vertex 0.0155117456 0.0315155014 -0.00234063086
  endloop
 endfacet

 facet normal 1 0 0
  outer loop
  vertex 0.0155117456 0.0219870452 -0.00318333134
  vertex 0.0155117456 0.0315155014 -0.00234063086
  vertex 0.0155117456 0.0282043535 -0.00234063086
  endloop
 endfacet

 facet normal 1 0 0
  outer loop
  vertex 0.0155117456 0.0219870452 -0.00318333134
  vertex 0.0155117456 0.0282043535 -0.00234063086
  vertex 0.0155117456 0.023052359 -0.00235311501
  endloop
 endfacet

 facet normal 1 0 0
  outer loop
  vertex 0.0155117456 0.0219870452 -0.00318333134
  vertex 0.0155117456 0.023052359 -0.00235311501
  vertex 0.0155117456 0.0225630514 -0.00235519581
  endloop
 endfacet

 facet normal 1 0 0
  outer loop
  vertex 0.0155117456 0.0219870452 -0.00318333134
  vertex 0.0155117456 0.0225630514 -0.00235519581
  vertex 0.0155117456 0.0223433375 -0.00260280399
  endloop
 endfacet

 facet normal 0.000182305681 0.923573852 -0.383420646
  outer loop
  vertex 0.00760981999 0.0312613435 -0.0232916269
  vertex 0.0110061495 0.0315155014 -0.0226778071
  vertex 0.0147172716 0.0312625319 -0.0232853834
  endloop
 endfacet

 facet normal 0.000290195399 0.868451715 -0.495773762
  outer loop
  vertex 0.00760981999 0.0312613435 -0.0232916269
  vertex 0.0147172716 0.0312625319 -0.0232853834
  vertex 0.0147172716 0.0312589705 -0.0232916269
  endloop
 endfacet

 facet normal -0.34367162 0.939089894 -4.45607657e-05
  outer loop
  vertex -0.00539730676 0.0315143131 -0.0226757266
  vertex -0.00602689106 0.0312839076 -0.0226757266
  vertex -0.00539944833 0.0315143131 -0.00615879381
  endloop
 endfacet

 facet normal -8.98619401e-05 1 -1.16515784e-08
  outer loop
  vertex -0.00539730676 0.0315143131 -0.0226757266
  vertex -0.00539944833 0.0315143131 -0.00615879381
  vertex 0.0078068329 0.0315155014 -0.0226778071
  endloop
 endfacet

 facet normal 0 1 0
  outer loop
  vertex 0.0078068329 0.0315155014 -0.0226778071
  vertex 0.0078068329 0.0315155014 -0.00318333134
  vertex 0.00787535869 0.0315155014 -0.00262361183
  endloop
 endfacet

 facet normal 0 1 0
  outer loop
  vertex 0.0078068329 0.0315155014 -0.0226778071
  vertex 0.00787535869 0.0315155014 -0.00262361183
  vertex 0.0110575436 0.0315155014 -0.00234063086
  endloop
 endfacet

 facet normal 0 1 0
  outer loop
  vertex 0.0078068329 0.0315155014 -0.0226778071
  vertex 0.0110575436 0.0315155014 -0.00234063086
  vertex 0.0155117456 0.0315155014 -0.00234063086
  endloop
 endfacet

 facet normal 0 1 0
  outer loop
  vertex 0.0078068329 0.0315155014 -0.0226778071
  vertex 0.0155117456 0.0315155014 -0.00234063086
  vertex 0.0155117456 0.0315155014 -0.00616087439
  endloop
 endfacet

 facet normal 0 1 0
  outer loop
  vertex 0.0078068329 0.0315155014 -0.0226778071
  vertex 0.0155117456 0.0315155014 -0.00616087439
  vertex 0.0110061495 0.0315155014 -0.0226778071
  endloop
 endfacet

 facet normal -8.9847359e-05 1 0
  outer loop
  vertex 0.0078068329 0.0315155014 -0.0226778071
  vertex -0.00539944833 0.0315143131 -0.00615879381
  vertex 0.0078068329 0.0315155014 -0.00318333134
  endloop
 endfacet

 facet normal 0.995417535 0.083045356 -0.0474081747
  outer loop
  vertex 0.0147172716 0.0312589705 -0.0232916269
  vertex 0.0147172716 0.0312625319 -0.0232853834
  vertex 0.0155117456 0.0315155014 -0.00616087439
  endloop
 endfacet

 facet normal 0.992196321 0.115186624 -0.0477335267
  outer loop
  vertex 0.0155117456 0.0315155014 -0.00616087439
  vertex 0.0147172716 0.0312625319 -0.0232853834
  vertex 0.0147172716 0.0315143131 -0.0226778071
  endloop
 endfacet

 facet normal 0.000319727988 0.99999994 -8.72174787e-05
  outer loop
  vertex 0.0155117456 0.0315155014 -0.00616087439
  vertex 0.0147172716 0.0315143131 -0.0226778071
  vertex 0.0110061495 0.0315155014 -0.0226778071
  endloop
 endfacet

 facet normal -0.616164029 0.787617803 -0.000268724951
  outer loop
  vertex -0.00602689106 0.0312839076 -0.0226757266
  vertex -0.00635024952 0.0310309418 -0.0226757266
  vertex -0.00635239109 0.0310321301 -0.0142820114
  endloop
 endfacet

 facet normal -0.613095284 0.790008962 -7.79955153e-05
  outer loop
  vertex -0.00602689106 0.0312839076 -0.0226757266
  vertex -0.00635239109 0.0310321301 -0.0142820114
  vertex -0.0061146901 0.0312174018 -0.00615879381
  endloop
 endfacet

 facet normal -0.603813529 0.797125697 0
  outer loop
  vertex -0.00602689106 0.0312839076 -0.0226757266
  vertex -0.0061146901 0.0312174018 -0.00615879381
  vertex -0.00602689106 0.0312839076 -0.00615879381
  endloop
 endfacet

 facet normal -0.344705522 0.938710868 0
  outer loop
  vertex -0.00602689106 0.0312839076 -0.0226757266
  vertex -0.00602689106 0.0312839076 -0.00615879381
  vertex -0.00539944833 0.0315143131 -0.00615879381
  endloop
 endfacet

 facet normal -0.242478237 0.00575326895 0.970139861
  outer loop
  vertex -0.00636095647 0.0306936521 -0.00615879381
  vertex 0.00780254975 0.0315143131 -0.00262361183
  vertex -0.00635881489 0.0307839122 -0.00615879381
  endloop
 endfacet

 facet normal -0.0480392538 -0.747118711 0.662952363
  outer loop
  vertex 0.00780254975 0.0227079429 -0.00275053689
  vertex 0.0155117456 0.0223433375 -0.00260280399
  vertex 0.0155117456 0.0225630514 -0.00235519581
  endloop
 endfacet

 facet normal -0.0541645847 -0.23184976 0.971242428
  outer loop
  vertex 0.00780254975 0.0227079429 -0.00275053689
  vertex 0.0155117456 0.0225630514 -0.00235519581
  vertex 0.00780254975 0.0231960658 -0.00263401517
  endloop
 endfacet

 facet normal -0.038579043 -0.0298986472 0.998808146
  outer loop
  vertex 0.00780254975 0.0231960658 -0.00263401517
  vertex 0.0155117456 0.0225630514 -0.00235519581
  vertex 0.0110575436 0.0287969876 -0.00234063086
  endloop
 endfacet

 facet normal -0.086544916 -0.00188892218 0.996246219
  outer loop
  vertex 0.00780254975 0.0231960658 -0.00263401517
  vertex 0.0110575436 0.0287969876 -0.00234063086
  vertex 0.00780254975 0.0286829732 -0.00262361183
  endloop
 endfacet

 facet normal -0.0866107568 0 0.996242344
  outer loop
  vertex 0.00780254975 0.0286829732 -0.00262361183
  vertex 0.0110575436 0.0287969876 -0.00234063086
  vertex 0.0110575436 0.0315155014 -0.00234063086
  endloop
 endfacet

 facet normal -0.0866107568 0 0.996242344
  outer loop
  vertex 0.00780254975 0.0286829732 -0.00262361183
  vertex 0.0110575436 0.0315155014 -0.00234063086
  vertex 0.00780254975 0.0315143131 -0.00262361183
  endloop
 endfacet

 facet normal -0.0160277802 0.983492911 0.180236116
  outer loop
  vertex 0.00780254975 0.0315143131 -0.00262361183
  vertex 0.0110575436 0.0315155014 -0.00234063086
  vertex 0.00787535869 0.0315155014 -0.00262361183
  endloop
 endfacet

 facet normal -0.0162645448 0.998021245 0.0607393049
  outer loop
  vertex 0.00780254975 0.0315143131 -0.00262361183
  vertex 0.00787535869 0.0315155014 -0.00262361183
  vertex -0.00539944833 0.0315143131 -0.00615879381
  endloop
 endfacet

 facet normal -0.211467296 0.575873077 0.789716244
  outer loop
  vertex 0.00780254975 0.0315143131 -0.00262361183
  vertex -0.00539944833 0.0315143131 -0.00615879381
  vertex -0.00602689106 0.0312839076 -0.00615879381
  endloop
 endfacet

 facet normal -0.239867091 0.31666106 0.917708874
  outer loop
  vertex 0.00780254975 0.0315143131 -0.00262361183
  vertex -0.00602689106 0.0312839076 -0.00615879381
  vertex -0.0061146901 0.0312174018 -0.00615879381
  endloop
 endfacet

 facet normal -0.240371495 0.308391899 0.920389056
  outer loop
  vertex 0.00780254975 0.0315143131 -0.00262361183
  vertex -0.0061146901 0.0312174018 -0.00615879381
  vertex -0.00635239109 0.0310321301 -0.00615879381
  endloop
 endfacet

 facet normal -0.242502883 0.00627596816 0.970130503
  outer loop
  vertex 0.00780254975 0.0315143131 -0.00262361183
  vertex -0.00635239109 0.0310321301 -0.00615879381
  vertex -0.00635881489 0.0307839122 -0.00615879381
  endloop
 endfacet

 facet normal -0.99966526 0.0258713104 0
  outer loop
  vertex -0.00635881489 0.0307839122 -0.00615879381
  vertex -0.00635239109 0.0310321301 -0.00615879381
  vertex -0.00635239109 0.0310321301 -0.0142820114
  endloop
 endfacet

 facet normal -0.614754736 0.788718343 0
  outer loop
  vertex -0.00635239109 0.0310321301 -0.0142820114
  vertex -0.00635239109 0.0310321301 -0.00615879381
  vertex -0.0061146901 0.0312174018 -0.00615879381
  endloop
 endfacet

 facet normal 0.000295370468 0.923818052 -0.382831693
  outer loop
  vertex 0.0110061495 0.0315155014 -0.0226778071
  vertex 0.0147172716 0.0315143131 -0.0226778071
  vertex 0.0147172716 0.0312625319 -0.0232853834
  endloop
 endfacet

 facet normal -9.23960106e-05 1 1.13118967e-05
  outer loop
  vertex -0.00539944833 0.0315143131 -0.00615879381
  vertex 0.00787535869 0.0315155014 -0.00262361183
  vertex 0.0078068329 0.0315155014 -0.00318333134
  endloop
 endfacet

 facet normal 0 0 1
  outer loop
  vertex 0.0155117456 0.0315155014 -0.00234063086
  vertex 0.0110575436 0.0315155014 -0.00234063086
  vertex 0.0110575436 0.0287969876 -0.00234063086
  endloop
 endfacet

 facet normal 0 0 1
  outer loop
  vertex 0.0155117456 0.0315155014 -0.00234063086
  vertex 0.0110575436 0.0287969876 -0.00234063086
  vertex 0.0155117456 0.0282043535 -0.00234063086
  endloop
 endfacet

 facet normal -0.00268141879 -0.00425223354 0.999987364
  outer loop
  vertex 0.0155117456 0.0225630514 -0.00235519581
  vertex 0.0155117456 0.023052359 -0.00235311501
  vertex 0.0110575436 0.0287969876 -0.00234063086
  endloop
 endfacet

 facet normal -0.000322400854 -0.00242314697 0.999997079
  outer loop
  vertex 0.0110575436 0.0287969876 -0.00234063086
  vertex 0.0155117456 0.023052359 -0.00235311501
  vertex 0.0155117456 0.0282043535 -0.00234063086
  endloop
 endfacet

endsolid AssimpScene
