solid AssimpScene
 facet normal 0 1 0
  outer loop
  vertex 0.00757024484 0.021882493 -0.00615784153
  vertex 0.00761287613 0.021882493 -0.00616325671
  vertex 0.00761287613 0.021882493 -0.0235957373
  endloop
 endfacet

 facet normal 0 1 0
  outer loop
  vertex 0.00757024484 0.021882493 -0.00615784153
  vertex 0.00761287613 0.021882493 -0.0235957373
  vertex 0.00592782395 0.021882493 -0.0235957373
  endloop
 endfacet

 facet normal 0 1 0
  outer loop
  vertex 0.00757024484 0.021882493 -0.00615784153
  vertex 0.00592782395 0.021882493 -0.0235957373
  vertex 0.00529957516 0.021882493 -0.0235289522
  endloop
 endfacet

 facet normal 0 1 0
  outer loop
  vertex 0.00757024484 0.021882493 -0.00615784153
  vertex 0.00529957516 0.021882493 -0.0235289522
  vertex 0.00473415153 0.021882493 -0.0232437644
  endloop
 endfacet

 facet normal 0 1 0
  outer loop
  vertex 0.00757024484 0.021882493 -0.00615784153
  vertex 0.00473415153 0.021882493 -0.0232437644
  vertex 0.00471956702 0.021882493 -0.0232275203
  endloop
 endfacet

 facet normal 0 1 0
  outer loop
  vertex 0.00757024484 0.021882493 -0.00615784153
  vertex 0.00471956702 0.021882493 -0.0232275203
  vertex 0.00394323096 0.021882493 -0.0216932893
  endloop
 endfacet

 facet normal 0 1 0
  outer loop
  vertex 0.00757024484 0.021882493 -0.00615784153
  vertex 0.00394323096 0.021882493 -0.0216932893
  vertex 0.00394323096 0.021882493 -0.00615964644
  endloop
 endfacet

 facet normal 0 1 0
  outer loop
  vertex 0.00757024484 0.021882493 -0.00615784153
  vertex 0.00394323096 0.021882493 -0.00615964644
  vertex 0.00426296471 0.021882493 -0.00615784153
  endloop
 endfacet

 facet normal 0 0 1
  outer loop
  vertex 0.00757024484 0.021882493 -0.00615784153
  vertex 0.00426296471 0.021882493 -0.00615784153
  vertex 0.00426296471 0.0198684707 -0.00615784153
  endloop
 endfacet

 facet normal 0 0 1
  outer loop
  vertex 0.00757024484 0.021882493 -0.00615784153
  vertex 0.00426296471 0.0198684707 -0.00615784153
  vertex 0.00716637122 -0.0109927151 -0.00615784153
  endloop
 endfacet

 facet normal 0 0 1
  outer loop
  vertex 0.00757024484 0.021882493 -0.00615784153
  vertex 0.00716637122 -0.0109927151 -0.00615784153
  vertex 0.0109403515 -0.0109927151 -0.00615784153
  endloop
 endfacet

 facet normal 0 0 1
  outer loop
  vertex 0.00757024484 0.021882493 -0.00615784153
  vertex 0.0109403515 -0.0109927151 -0.00615784153
  vertex 0.0154042821 -0.0020591286 -0.00615784153
  endloop
 endfacet

 facet normal 0 0 1
  outer loop
  vertex 0.00757024484 0.021882493 -0.00615784153
  vertex 0.0154042821 -0.0020591286 -0.00615784153
  vertex 0.0154042821 -0.0018454222 -0.00615784153
  endloop
 endfacet

 facet normal 0.125906557 0.0415694565 0.991170824
  outer loop
  vertex 0.00757024484 0.021882493 -0.00615784153
  vertex 0.0154042821 -0.0018454222 -0.00615784153
  vertex 0.00761287613 0.021882493 -0.00616325671
  endloop
 endfacet

 facet normal 0.332274079 0.943183005 0
  outer loop
  vertex 0.00761287613 0.021882493 -0.00616325671
  vertex 0.0147176953 0.0193795357 -0.0104536908
  vertex 0.0147176953 0.0193795357 -0.0235921275
  endloop
 endfacet

 facet normal 0.332274079 0.943183005 0
  outer loop
  vertex 0.00761287613 0.021882493 -0.00616325671
  vertex 0.0147176953 0.0193795357 -0.0235921275
  vertex 0.00761287613 0.021882493 -0.0235957373
  endloop
 endfacet

 facet normal 0.554533362 0.182274386 0.811953723
  outer loop
  vertex 0.00761287613 0.021882493 -0.00616325671
  vertex 0.0154042821 -0.0018454222 -0.00615784153
  vertex 0.0147176953 0.0193795357 -0.0104536908
  endloop
 endfacet

 facet normal -0.005645636 0 0.999984026
  outer loop
  vertex 0.00426296471 0.021882493 -0.00615784153
  vertex 0.00394323096 0.021882493 -0.00615964644
  vertex 0.00394323096 0.0177249275 -0.00615964644
  endloop
 endfacet

 facet normal -0.005645636 0 0.999984026
  outer loop
  vertex 0.00426296471 0.021882493 -0.00615784153
  vertex 0.00394323096 0.0177249275 -0.00615964644
  vertex 0.00426296471 0.0198684707 -0.00615784153
  endloop
 endfacet

 facet normal 1 0 0
  outer loop
  vertex 0.0154042821 -0.0018454222 -0.00615784153
  vertex 0.0154042821 -0.0020591286 -0.00615784153
  vertex 0.0154042821 -0.00729494169 -0.00748811057
  endloop
 endfacet

 facet normal 1 0 0
  outer loop
  vertex 0.0154042821 -0.0018454222 -0.00615784153
  vertex 0.0154042821 -0.00729494169 -0.00748811057
  vertex 0.0154042821 -0.00729494169 -0.0235957373
  endloop
 endfacet

 facet normal 1 0 0
  outer loop
  vertex 0.0154042821 -0.0018454222 -0.00615784153
  vertex 0.0154042821 -0.00729494169 -0.0235957373
  vertex 0.0154042821 -0.00389182498 -0.0245433506
  endloop
 endfacet

 facet normal 1 0 0
  outer loop
  vertex 0.0154042821 -0.0018454222 -0.00615784153
  vertex 0.0154042821 -0.00389182498 -0.0245433506
  vertex 0.0154042821 -0.00326365675 -0.0245902799
  endloop
 endfacet

 facet normal 1 0 0
  outer loop
  vertex 0.0154042821 -0.0018454222 -0.00615784153
  vertex 0.0154042821 -0.00326365675 -0.0245902799
  vertex 0.0154042821 -0.00263548945 -0.0245974995
  endloop
 endfacet

 facet normal 1 0 0
  outer loop
  vertex 0.0154042821 -0.0018454222 -0.00615784153
  vertex 0.0154042821 -0.00263548945 -0.0245974995
  vertex 0.0154042821 -0.00200732099 -0.0245956965
  endloop
 endfacet

 facet normal 1 0 0
  outer loop
  vertex 0.0154042821 -0.0018454222 -0.00615784153
  vertex 0.0154042821 -0.00200732099 -0.0245956965
  vertex 0.0154042821 -0.00098735746 -0.0244170018
  endloop
 endfacet

 facet normal 1 0 0
  outer loop
  vertex 0.0154042821 -0.0018454222 -0.00615784153
  vertex 0.0154042821 -0.00098735746 -0.0244170018
  vertex 0.0154042821 0.00150912511 -0.0236065686
  endloop
 endfacet

 facet normal 1 0 0
  outer loop
  vertex 0.0154042821 -0.0018454222 -0.00615784153
  vertex 0.0154042821 0.00150912511 -0.0236065686
  vertex 0.0154042821 0.00150912511 -0.0105024232
  endloop
 endfacet

 facet normal 1 0 0
  outer loop
  vertex 0.0154042821 -0.0018454222 -0.00615784153
  vertex 0.0154042821 0.00150912511 -0.0105024232
  vertex 0.0154042821 -0.000993833411 -0.00666143047
  endloop
 endfacet

 facet normal 1 0 0
  outer loop
  vertex 0.0154042821 -0.0018454222 -0.00615784153
  vertex 0.0154042821 -0.000993833411 -0.00666143047
  vertex 0.0154042821 -0.00134677335 -0.00629321486
  endloop
 endfacet

 facet normal 0.899694324 0.114367299 0.421272397
  outer loop
  vertex 0.0154042821 -0.0018454222 -0.00615784153
  vertex 0.0154042821 -0.00134677335 -0.00629321486
  vertex 0.0147176953 0.0193795357 -0.0104536908
  endloop
 endfacet

 facet normal 0.969872892 0.243611708 0
  outer loop
  vertex 0.0147176953 0.0193795357 -0.0104536908
  vertex 0.015229268 0.0173428468 -0.0120745609
  vertex 0.015229268 0.0173428468 -0.0235903226
  endloop
 endfacet

 facet normal 0.969872892 0.243611708 0
  outer loop
  vertex 0.0147176953 0.0193795357 -0.0104536908
  vertex 0.015229268 0.0173428468 -0.0235903226
  vertex 0.0147176953 0.0193795357 -0.0235921275
  endloop
 endfacet

 facet normal 0.97413373 0.075054653 0.213143557
  outer loop
  vertex 0.0147176953 0.0193795357 -0.0104536908
  vertex 0.0154042821 -0.00134677335 -0.00629321486
  vertex 0.015229268 0.0173428468 -0.0120745609
  endloop
 endfacet

 facet normal 0.0643909723 0.181362778 -0.981305957
  outer loop
  vertex 0.00761287613 0.021882493 -0.0235957373
  vertex 0.0147176953 0.0193795357 -0.0235921275
  vertex 0.0103233214 0.0155975753 -0.0245794486
  endloop
 endfacet

 facet normal 0.022628136 0.164115205 -0.986181676
  outer loop
  vertex 0.00761287613 0.021882493 -0.0235957373
  vertex 0.0103233214 0.0155975753 -0.0245794486
  vertex 0.00969395041 0.0155975753 -0.0245938897
  endloop
 endfacet

 facet normal 0.0187404566 0.162873536 -0.986468971
  outer loop
  vertex 0.00761287613 0.021882493 -0.0235957373
  vertex 0.00969395041 0.0155975753 -0.0245938897
  vertex 0.00717983348 0.016225744 -0.0245379359
  endloop
 endfacet

 facet normal 0 0.16429846 -0.986410737
  outer loop
  vertex 0.00761287613 0.021882493 -0.0235957373
  vertex 0.00717983348 0.016225744 -0.0245379359
  vertex 0.00592782395 0.021882493 -0.0235957373
  endloop
 endfacet

 facet normal -1 0 0
  outer loop
  vertex 0.00394323096 0.021882493 -0.00615964644
  vertex 0.00394323096 0.021882493 -0.0216932893
  vertex 0.00394323096 0.0177249275 -0.0234549474
  endloop
 endfacet

 facet normal -1 0 0
  outer loop
  vertex 0.00394323096 0.021882493 -0.00615964644
  vertex 0.00394323096 0.0177249275 -0.0234549474
  vertex 0.00394323096 0.0177249275 -0.00615964644
  endloop
 endfacet

 facet normal -0.00346207898 -0.000325710833 0.99999398
  outer loop
  vertex 0.00426296471 0.0198684707 -0.00615784153
  vertex 0.00394323096 0.0177249275 -0.00615964644
  vertex 0.00716637122 -0.0109927151 -0.00615784153
  endloop
 endfacet

 facet normal 0.000555057428 -0.00027735086 0.999999762
  outer loop
  vertex 0.0154042821 -0.0020591286 -0.00615784153
  vertex 0.0109403515 -0.0109927151 -0.00615784153
  vertex 0.0140905688 -0.0111967074 -0.00615964644
  endloop
 endfacet

 facet normal 0.863415718 -0.124230161 0.48895812
  outer loop
  vertex 0.0154042821 -0.0020591286 -0.00615784153
  vertex 0.0140905688 -0.0111967074 -0.00615964644
  vertex 0.0154042821 -0.00729494169 -0.00748811057
  endloop
 endfacet

 facet normal 0.999830008 0.013308635 0.0127565181
  outer loop
  vertex 0.0154042821 -0.00134677335 -0.00629321486
  vertex 0.0154042821 -0.000993833411 -0.00666143047
  vertex 0.015229268 0.0173428468 -0.0120745609
  endloop
 endfacet

 facet normal 0.99990052 0.0118166599 0.00770025095
  outer loop
  vertex 0.015229268 0.0173428468 -0.0120745609
  vertex 0.0154042821 -0.000993833411 -0.00666143047
  vertex 0.0154042821 0.00150912511 -0.0105024232
  endloop
 endfacet

 facet normal 0.999938905 0.0110525219 0
  outer loop
  vertex 0.015229268 0.0173428468 -0.0120745609
  vertex 0.0154042821 0.00150912511 -0.0105024232
  vertex 0.0154042821 0.00150912511 -0.0236065686
  endloop
 endfacet

 facet normal 0.999938905 0.0110525219 0
  outer loop
  vertex 0.015229268 0.0173428468 -0.0120745609
  vertex 0.0154042821 0.00150912511 -0.0236065686
  vertex 0.015229268 0.0173428468 -0.0235903226
  endloop
 endfacet

 facet normal 0.63278079 0.158269435 -0.757983685
  outer loop
  vertex 0.0147176953 0.0193795357 -0.0235921275
  vertex 0.015229268 0.0173428468 -0.0235903226
  vertex 0.015229268 0.0125797782 -0.0245848652
  endloop
 endfacet

 facet normal 0.148115739 0.153773189 -0.976941943
  outer loop
  vertex 0.0147176953 0.0193795357 -0.0235921275
  vertex 0.015229268 0.0125797782 -0.0245848652
  vertex 0.0148814898 0.0129262423 -0.0245830584
  endloop
 endfacet

 facet normal 0.142066076 0.1537579 -0.977842331
  outer loop
  vertex 0.0147176953 0.0193795357 -0.0235921275
  vertex 0.0148814898 0.0129262423 -0.0245830584
  vertex 0.0147221824 0.0130849034 -0.0245812554
  endloop
 endfacet

 facet normal 0.125907928 0.154085815 -0.980002403
  outer loop
  vertex 0.0147176953 0.0193795357 -0.0235921275
  vertex 0.0147221824 0.0130849034 -0.0245812554
  vertex 0.0140939336 0.0137130711 -0.0245632045
  endloop
 endfacet

 facet normal 0.102416322 0.157059401 -0.9822644
  outer loop
  vertex 0.0147176953 0.0193795357 -0.0235921275
  vertex 0.0140939336 0.0137130711 -0.0245632045
  vertex 0.0128363147 0.0143412389 -0.0245938897
  endloop
 endfacet

 facet normal 0.090741545 0.161503851 -0.982691467
  outer loop
  vertex 0.0147176953 0.0193795357 -0.0235921275
  vertex 0.0128363147 0.0143412389 -0.0245938897
  vertex 0.0122069446 0.0149694066 -0.0245487671
  endloop
 endfacet

 facet normal 0.0731809363 0.171453446 -0.982470512
  outer loop
  vertex 0.0147176953 0.0193795357 -0.0235921275
  vertex 0.0122069446 0.0149694066 -0.0245487671
  vertex 0.0103233214 0.0155975753 -0.0245794486
  endloop
 endfacet

 facet normal -0.00566953374 0.163074747 -0.986597478
  outer loop
  vertex 0.00592782395 0.021882493 -0.0235957373
  vertex 0.00717983348 0.016225744 -0.0245379359
  vertex 0.00655158563 0.016225744 -0.024534326
  endloop
 endfacet

 facet normal -0.0169919543 0.161838442 -0.986670971
  outer loop
  vertex 0.00592782395 0.021882493 -0.0235957373
  vertex 0.00655158563 0.016225744 -0.024534326
  vertex 0.00410141516 0.0155943371 -0.0245956965
  endloop
 endfacet

 facet normal -0.103870824 0.18555513 -0.977128506
  outer loop
  vertex 0.00592782395 0.021882493 -0.0235957373
  vertex 0.00410141516 0.0155943371 -0.0245956965
  vertex 0.00529957516 0.021882493 -0.0235289522
  endloop
 endfacet

 facet normal 0.070670113 0.163852185 -0.983950317
  outer loop
  vertex 0.0103233214 0.0155975753 -0.0245794486
  vertex 0.0122069446 0.0149694066 -0.0245487671
  vertex 0.0115786958 0.0149694066 -0.0245938897
  endloop
 endfacet

 facet normal 0.0228850245 0.0686638504 -0.997377455
  outer loop
  vertex 0.0103233214 0.0155975753 -0.0245794486
  vertex 0.0115786958 0.0149694066 -0.0245938897
  vertex 0.00969395041 0.0155975753 -0.0245938897
  endloop
 endfacet

 facet normal 0.000864265603 0.00259312824 -0.999996185
  outer loop
  vertex 0.00969395041 0.0155975753 -0.0245938897
  vertex 0.0115786958 0.0149694066 -0.0245938897
  vertex 0.00761287613 0.0155943371 -0.0245956965
  endloop
 endfacet

 facet normal 0.000722139375 0.0915897191 -0.995796621
  outer loop
  vertex 0.00969395041 0.0155975753 -0.0245938897
  vertex 0.00761287613 0.0155943371 -0.0245956965
  vertex 0.00717983348 0.016225744 -0.0245379359
  endloop
 endfacet

 facet normal 0 0.0910985842 -0.99584192
  outer loop
  vertex 0.00717983348 0.016225744 -0.0245379359
  vertex 0.00761287613 0.0155943371 -0.0245956965
  vertex 0.00410141516 0.0155943371 -0.0245956965
  endloop
 endfacet

 facet normal -0.00570586417 0.118650161 -0.992919683
  outer loop
  vertex 0.00717983348 0.016225744 -0.0245379359
  vertex 0.00410141516 0.0155943371 -0.0245956965
  vertex 0.00655158563 0.016225744 -0.024534326
  endloop
 endfacet

 facet normal -0.876378477 0.187902868 -0.443456233
  outer loop
  vertex 0.00394323096 0.021882493 -0.0216932893
  vertex 0.00471956702 0.021882493 -0.0232275203
  vertex 0.00394323096 0.0177249275 -0.0234549474
  endloop
 endfacet

 facet normal -0.999866426 -0.0163474549 0
  outer loop
  vertex 0.00394323096 0.0177249275 -0.00615964644
  vertex 0.00394323096 0.0177249275 -0.0234549474
  vertex 0.00410141516 0.00804984383 -0.0221770238
  endloop
 endfacet

 facet normal -0.999866426 -0.0163474549 0
  outer loop
  vertex 0.00394323096 0.0177249275 -0.00615964644
  vertex 0.00410141516 0.00804984383 -0.0221770238
  vertex 0.00410141516 0.00804984383 -0.0138939796
  endloop
 endfacet

 facet normal -0.999851584 -0.0171975605 0.00106372382
  outer loop
  vertex 0.00394323096 0.0177249275 -0.00615964644
  vertex 0.00410141516 0.00804984383 -0.0138939796
  vertex 0.00410141516 0.00805308204 -0.0138416346
  endloop
 endfacet

 facet normal -0.986688077 -0.110733978 0.119099848
  outer loop
  vertex 0.00394323096 0.0177249275 -0.00615964644
  vertex 0.00410141516 0.00805308204 -0.0138416346
  vertex 0.00716637122 -0.0109927151 -0.00615784153
  endloop
 endfacet

 facet normal -0.0539736375 -0.998542309 0
  outer loop
  vertex 0.00716637122 -0.0109927151 -0.00615784153
  vertex 0.00716637122 -0.0109927151 -0.0235939324
  vertex 0.0109403515 -0.0111967074 -0.0152802011
  endloop
 endfacet

 facet normal -0.0539736375 -0.998542309 0
  outer loop
  vertex 0.00716637122 -0.0109927151 -0.00615784153
  vertex 0.0109403515 -0.0111967074 -0.0152802011
  vertex 0.0109403515 -0.0111967074 -0.00615964644
  endloop
 endfacet

 facet normal 0 -0.00884864293 0.99996084
  outer loop
  vertex 0.00716637122 -0.0109927151 -0.00615784153
  vertex 0.0109403515 -0.0111967074 -0.00615964644
  vertex 0.0140905688 -0.0111967074 -0.00615964644
  endloop
 endfacet

 facet normal 0 -0.00884864293 0.99996084
  outer loop
  vertex 0.00716637122 -0.0109927151 -0.00615784153
  vertex 0.0140905688 -0.0111967074 -0.00615964644
  vertex 0.0109403515 -0.0109927151 -0.00615784153
  endloop
 endfacet

 facet normal -0.987852097 -0.155100301 0.00959344674
  outer loop
  vertex 0.00716637122 -0.0109927151 -0.00615784153
  vertex 0.00410141516 0.00805308204 -0.0138416346
  vertex 0.00410141516 0.00804984383 -0.0138939796
  endloop
 endfacet

 facet normal -0.987293422 -0.158907801 0
  outer loop
  vertex 0.00716637122 -0.0109927151 -0.00615784153
  vertex 0.00410141516 0.00804984383 -0.0138939796
  vertex 0.00410141516 0.00804984383 -0.0221770238
  endloop
 endfacet

 facet normal -0.987293422 -0.158907801 0
  outer loop
  vertex 0.00716637122 -0.0109927151 -0.00615784153
  vertex 0.00410141516 0.00804984383 -0.0221770238
  vertex 0.00716637122 -0.0109927151 -0.0235939324
  endloop
 endfacet

 facet normal 0 -1 0
  outer loop
  vertex 0.0140905688 -0.0111967074 -0.00615964644
  vertex 0.0109403515 -0.0111967074 -0.00615964644
  vertex 0.0109403515 -0.0111967074 -0.0152802011
  endloop
 endfacet

 facet normal 0 -1 0
  outer loop
  vertex 0.0140905688 -0.0111967074 -0.00615964644
  vertex 0.0109403515 -0.0111967074 -0.0152802011
  vertex 0.0117009804 -0.0111967074 -0.020991154
  endloop
 endfacet

 facet normal 0 -1 0
  outer loop
  vertex 0.0140905688 -0.0111967074 -0.00615964644
  vertex 0.0117009804 -0.0111967074 -0.020991154
  vertex 0.0117694139 -0.0111967074 -0.0212113615
  endloop
 endfacet

 facet normal 0 -1 0
  outer loop
  vertex 0.0140905688 -0.0111967074 -0.00615964644
  vertex 0.0117694139 -0.0111967074 -0.0212113615
  vertex 0.013470172 -0.0111967074 -0.0232979152
  endloop
 endfacet

 facet normal 0 -1 0
  outer loop
  vertex 0.0140905688 -0.0111967074 -0.00615964644
  vertex 0.013470172 -0.0111967074 -0.0232979152
  vertex 0.0138157094 -0.0111967074 -0.0234748032
  endloop
 endfacet

 facet normal 0 -1 0
  outer loop
  vertex 0.0140905688 -0.0111967074 -0.00615964644
  vertex 0.0138157094 -0.0111967074 -0.0234748032
  vertex 0.0140905688 -0.0111967074 -0.0235921275
  endloop
 endfacet

 facet normal 0.947722733 -0.319095373 0
  outer loop
  vertex 0.0140905688 -0.0111967074 -0.00615964644
  vertex 0.0140905688 -0.0111967074 -0.0235921275
  vertex 0.0154042821 -0.00729494169 -0.0235957373
  endloop
 endfacet

 facet normal 0.947722733 -0.319095373 0
  outer loop
  vertex 0.0140905688 -0.0111967074 -0.00615964644
  vertex 0.0154042821 -0.00729494169 -0.0235957373
  vertex 0.0154042821 -0.00729494169 -0.00748811057
  endloop
 endfacet

 facet normal 0.999355793 0.0110811014 -0.0341345221
  outer loop
  vertex 0.015229268 0.0173428468 -0.0235903226
  vertex 0.0154042821 0.00150912511 -0.0236065686
  vertex 0.0154042821 -0.00098735746 -0.0244170018
  endloop
 endfacet

 facet normal 0.998229742 0.0121566057 -0.0582203977
  outer loop
  vertex 0.015229268 0.0173428468 -0.0235903226
  vertex 0.0154042821 -0.00098735746 -0.0244170018
  vertex 0.015229268 0.0125797782 -0.0245848652
  endloop
 endfacet

 facet normal 0.0247978475 0.0285687782 -0.999284208
  outer loop
  vertex 0.015229268 0.0125797782 -0.0245848652
  vertex 0.015229268 0.0124534974 -0.0245884769
  vertex 0.0128363147 0.0143412389 -0.0245938897
  endloop
 endfacet

 facet normal 0.029116584 0.0344373472 -0.998982728
  outer loop
  vertex 0.015229268 0.0125797782 -0.0245848652
  vertex 0.0128363147 0.0143412389 -0.0245938897
  vertex 0.0148814898 0.0129262423 -0.0245830584
  endloop
 endfacet

 facet normal 0.997571528 0.0120196138 -0.0686061978
  outer loop
  vertex 0.015229268 0.0125797782 -0.0245848652
  vertex 0.0154042821 -0.00098735746 -0.0244170018
  vertex 0.0154042821 -0.00200732099 -0.0245956965
  endloop
 endfacet

 facet normal 0.918326497 0.0113116829 -0.395662189
  outer loop
  vertex 0.015229268 0.0125797782 -0.0245848652
  vertex 0.0154042821 -0.00200732099 -0.0245956965
  vertex 0.015229268 0.0124534974 -0.0245884769
  endloop
 endfacet

 facet normal 0.0429966636 0.0545096844 -0.997587144
  outer loop
  vertex 0.0148814898 0.0129262423 -0.0245830584
  vertex 0.0128363147 0.0143412389 -0.0245938897
  vertex 0.0147221824 0.0130849034 -0.0245812554
  endloop
 endfacet

 facet normal 0.0767768547 0.105278127 -0.991474688
  outer loop
  vertex 0.0147221824 0.0130849034 -0.0245812554
  vertex 0.0128363147 0.0143412389 -0.0245938897
  vertex 0.0140939336 0.0137130711 -0.0245632045
  endloop
 endfacet

 facet normal 0.000665640109 0.00133263879 -0.999998927
  outer loop
  vertex 0.0128363147 0.0143412389 -0.0245938897
  vertex 0.00761287613 0.0155943371 -0.0245956965
  vertex 0.0115786958 0.0149694066 -0.0245938897
  endloop
 endfacet

 facet normal 0.0709126741 0.141970098 -0.987327695
  outer loop
  vertex 0.0128363147 0.0143412389 -0.0245938897
  vertex 0.0115786958 0.0149694066 -0.0245938897
  vertex 0.0122069446 0.0149694066 -0.0245487671
  endloop
 endfacet

 facet normal 0.0107700666 0.0107850498 -0.99988395
  outer loop
  vertex 0.0128363147 0.0143412389 -0.0245938897
  vertex 0.015229268 0.0124534974 -0.0245884769
  vertex 0.015229268 0.0119516095 -0.0245938897
  endloop
 endfacet

 facet normal 0.000455325644 0.000455959089 -0.999999762
  outer loop
  vertex 0.0128363147 0.0143412389 -0.0245938897
  vertex 0.015229268 0.0119516095 -0.0245938897
  vertex 0.00761287613 0.0155943371 -0.0245956965
  endloop
 endfacet

 facet normal -0.438173354 0.230866119 -0.868737578
  outer loop
  vertex 0.00529957516 0.021882493 -0.0235289522
  vertex 0.00410141516 0.0155943371 -0.0245956965
  vertex 0.00473415153 0.021882493 -0.0232437644
  endloop
 endfacet

 facet normal 0 9.89178588e-05 -1
  outer loop
  vertex 0.00410141516 0.0155943371 -0.0245956965
  vertex 0.00761287613 0.0155943371 -0.0245956965
  vertex 0.0154042821 -0.00263548945 -0.0245974995
  endloop
 endfacet

 facet normal 0 9.89178588e-05 -1
  outer loop
  vertex 0.00410141516 0.0155943371 -0.0245956965
  vertex 0.0154042821 -0.00263548945 -0.0245974995
  vertex 0.0153526757 -0.00263548945 -0.0245974995
  endloop
 endfacet

 facet normal -3.55083139e-05 7.70024926e-05 -1
  outer loop
  vertex 0.00410141516 0.0155943371 -0.0245956965
  vertex 0.0153526757 -0.00263548945 -0.0245974995
  vertex 0.00716524897 -0.00641097361 -0.0245974995
  endloop
 endfacet

 facet normal -0.000588561583 0 -0.999999881
  outer loop
  vertex 0.00410141516 0.0155943371 -0.0245956965
  vertex 0.00716524897 -0.00641097361 -0.0245974995
  vertex 0.00716524897 -0.0070359041 -0.0245974995
  endloop
 endfacet

 facet normal -0.000588561583 0 -0.999999881
  outer loop
  vertex 0.00410141516 0.0155943371 -0.0245956965
  vertex 0.00716524897 -0.0070359041 -0.0245974995
  vertex 0.00410141516 0.0149661694 -0.0245956965
  endloop
 endfacet

 facet normal -0.990522146 0 -0.13735269
  outer loop
  vertex 0.00410141516 0.0155943371 -0.0245956965
  vertex 0.00410141516 0.0149661694 -0.0245956965
  vertex 0.00394323096 0.0177249275 -0.0234549474
  endloop
 endfacet

 facet normal -0.936317146 0.109179243 -0.333751738
  outer loop
  vertex 0.00410141516 0.0155943371 -0.0245956965
  vertex 0.00394323096 0.0177249275 -0.0234549474
  vertex 0.00410141516 0.0161350798 -0.0244188048
  endloop
 endfacet

 facet normal -0.727115631 0.213447183 -0.65249002
  outer loop
  vertex 0.00410141516 0.0155943371 -0.0245956965
  vertex 0.00410141516 0.0161350798 -0.0244188048
  vertex 0.00471956702 0.021882493 -0.0232275203
  endloop
 endfacet

 facet normal -0.726948857 0.21346961 -0.652668476
  outer loop
  vertex 0.00410141516 0.0155943371 -0.0245956965
  vertex 0.00471956702 0.021882493 -0.0232275203
  vertex 0.00473415153 0.021882493 -0.0232437644
  endloop
 endfacet

 facet normal 0.000357675919 0.000251788093 -0.99999994
  outer loop
  vertex 0.00761287613 0.0155943371 -0.0245956965
  vertex 0.015229268 0.0119516095 -0.0245938897
  vertex 0.0154042821 -0.00263548945 -0.0245974995
  endloop
 endfacet

 facet normal -0.871850848 0.187548846 -0.452439636
  outer loop
  vertex 0.00471956702 0.021882493 -0.0232275203
  vertex 0.00410141516 0.0161350798 -0.0244188048
  vertex 0.00394323096 0.0177249275 -0.0234549474
  endloop
 endfacet

 facet normal -0.991796434 -0.00403823284 -0.127763435
  outer loop
  vertex 0.00394323096 0.0177249275 -0.0234549474
  vertex 0.00410141516 0.0149661694 -0.0245956965
  vertex 0.00410141516 0.0143380016 -0.0245758425
  endloop
 endfacet

 facet normal -0.995325565 -0.0149075016 -0.095418565
  outer loop
  vertex 0.00394323096 0.0177249275 -0.0234549474
  vertex 0.00410141516 0.0143380016 -0.0245758425
  vertex 0.00410141516 0.00805308204 -0.0235939324
  endloop
 endfacet

 facet normal -0.999866247 -0.0163523871 -3.73659968e-05
  outer loop
  vertex 0.00394323096 0.0177249275 -0.0234549474
  vertex 0.00410141516 0.00805308204 -0.0235939324
  vertex 0.00410141516 0.00804984383 -0.0221770238
  endloop
 endfacet

 facet normal -0.00699002808 -0.245842129 -0.969284713
  outer loop
  vertex 0.00716637122 -0.0109927151 -0.0235939324
  vertex 0.00716524897 -0.0070359041 -0.0245974995
  vertex 0.0140905688 -0.0111967074 -0.0235921275
  endloop
 endfacet

 facet normal -0.0293604191 -0.997199476 -0.0687837824
  outer loop
  vertex 0.00716637122 -0.0109927151 -0.0235939324
  vertex 0.0140905688 -0.0111967074 -0.0235921275
  vertex 0.0138157094 -0.0111967074 -0.0234748032
  endloop
 endfacet

 facet normal -0.0295787789 -0.997891068 -0.0577799529
  outer loop
  vertex 0.00716637122 -0.0109927151 -0.0235939324
  vertex 0.0138157094 -0.0111967074 -0.0234748032
  vertex 0.013470172 -0.0111967074 -0.0232979152
  endloop
 endfacet

 facet normal -0.0311421584 -0.999192655 -0.0253840983
  outer loop
  vertex 0.00716637122 -0.0109927151 -0.0235939324
  vertex 0.013470172 -0.0111967074 -0.0232979152
  vertex 0.0117694139 -0.0111967074 -0.0212113615
  endloop
 endfacet

 facet normal -0.0381455906 -0.999201894 -0.0118545005
  outer loop
  vertex 0.00716637122 -0.0109927151 -0.0235939324
  vertex 0.0117694139 -0.0111967074 -0.0212113615
  vertex 0.0117009804 -0.0111967074 -0.020991154
  endloop
 endfacet

 facet normal -0.0417538583 -0.999112487 -0.00556110172
  outer loop
  vertex 0.00716637122 -0.0109927151 -0.0235939324
  vertex 0.0117009804 -0.0111967074 -0.020991154
  vertex 0.0109403515 -0.0111967074 -0.0152802011
  endloop
 endfacet

 facet normal -0.987297654 -0.158881456 -0.000363051833
  outer loop
  vertex 0.00716637122 -0.0109927151 -0.0235939324
  vertex 0.00410141516 0.00804984383 -0.0221770238
  vertex 0.00410141516 0.00805308204 -0.0235939324
  endloop
 endfacet

 facet normal -0.83710444 -0.134711504 -0.530197144
  outer loop
  vertex 0.00716637122 -0.0109927151 -0.0235939324
  vertex 0.00410141516 0.00805308204 -0.0235939324
  vertex 0.00716524897 -0.0070359041 -0.0245974995
  endloop
 endfacet

 facet normal 0.0366238132 -0.192724809 -0.980569124
  outer loop
  vertex 0.0140905688 -0.0111967074 -0.0235921275
  vertex 0.00906794518 -0.0070359041 -0.0245974995
  vertex 0.00969619397 -0.0070359041 -0.0245740358
  endloop
 endfacet

 facet normal 0.0599123389 -0.168894142 -0.983811617
  outer loop
  vertex 0.0140905688 -0.0111967074 -0.0235921275
  vertex 0.00969619397 -0.0070359041 -0.0245740358
  vertex 0.0115764523 -0.00641097361 -0.0245668143
  endloop
 endfacet

 facet normal 0.0795157105 -0.15865986 -0.98412621
  outer loop
  vertex 0.0140905688 -0.0111967074 -0.0235921275
  vertex 0.0115764523 -0.00641097361 -0.0245668143
  vertex 0.0128363147 -0.00577956717 -0.0245668143
  endloop
 endfacet

 facet normal 0.104436055 -0.152641982 -0.982747972
  outer loop
  vertex 0.0140905688 -0.0111967074 -0.0235921275
  vertex 0.0128363147 -0.00577956717 -0.0245668143
  vertex 0.0134656848 -0.00515139895 -0.0245974995
  endloop
 endfacet

 facet normal 0.114969127 -0.151389763 -0.981765389
  outer loop
  vertex 0.0140905688 -0.0111967074 -0.0235921275
  vertex 0.0134656848 -0.00515139895 -0.0245974995
  vertex 0.014724426 -0.00452323165 -0.0245469604
  endloop
 endfacet

 facet normal 0.136932492 -0.153035551 -0.978687704
  outer loop
  vertex 0.0140905688 -0.0111967074 -0.0235921275
  vertex 0.014724426 -0.00452323165 -0.0245469604
  vertex 0.0153526757 -0.00389182498 -0.0245577917
  endloop
 endfacet

 facet normal 0.265495241 -0.171293557 -0.948773324
  outer loop
  vertex 0.0140905688 -0.0111967074 -0.0235921275
  vertex 0.0153526757 -0.00389182498 -0.0245577917
  vertex 0.0154042821 -0.00389182498 -0.0245433506
  endloop
 endfacet

 facet normal 0.621854246 -0.210074514 -0.75443089
  outer loop
  vertex 0.0140905688 -0.0111967074 -0.0235921275
  vertex 0.0154042821 -0.00389182498 -0.0245433506
  vertex 0.0154042821 -0.00729494169 -0.0235957373
  endloop
 endfacet

 facet normal 0 -0.234870359 -0.972026706
  outer loop
  vertex 0.0140905688 -0.0111967074 -0.0235921275
  vertex 0.00716524897 -0.0070359041 -0.0245974995
  vertex 0.00906794518 -0.0070359041 -0.0245974995
  endloop
 endfacet

 facet normal 0.64761889 0.00821830146 -0.761920154
  outer loop
  vertex 0.015229268 0.0124534974 -0.0245884769
  vertex 0.0154042821 -0.00200732099 -0.0245956965
  vertex 0.015229268 0.0119516095 -0.0245938897
  endloop
 endfacet

 facet normal 0.213590249 0.00280439993 -0.976919353
  outer loop
  vertex 0.0154042821 -0.00200732099 -0.0245956965
  vertex 0.0154042821 -0.00263548945 -0.0245974995
  vertex 0.015229268 0.0119516095 -0.0245938897
  endloop
 endfacet

 facet normal 0 0 -1
  outer loop
  vertex 0.0153526757 -0.00263548945 -0.0245974995
  vertex 0.0154042821 -0.00263548945 -0.0245974995
  vertex 0.0153526757 -0.00326365675 -0.0245974995
  endloop
 endfacet

 facet normal 0 0 -1
  outer loop
  vertex 0.0153526757 -0.00263548945 -0.0245974995
  vertex 0.0153526757 -0.00326365675 -0.0245974995
  vertex 0.0140950568 -0.00452323165 -0.0245974995
  endloop
 endfacet

 facet normal 0 0 -1
  outer loop
  vertex 0.0153526757 -0.00263548945 -0.0245974995
  vertex 0.0140950568 -0.00452323165 -0.0245974995
  vertex 0.0134656848 -0.00515139895 -0.0245974995
  endloop
 endfacet

 facet normal 0 0 -1
  outer loop
  vertex 0.0153526757 -0.00263548945 -0.0245974995
  vertex 0.0134656848 -0.00515139895 -0.0245974995
  vertex 0.0109538138 -0.00641097361 -0.0245974995
  endloop
 endfacet

 facet normal 0 0 -1
  outer loop
  vertex 0.0153526757 -0.00263548945 -0.0245974995
  vertex 0.0109538138 -0.00641097361 -0.0245974995
  vertex 0.00906794518 -0.0070359041 -0.0245974995
  endloop
 endfacet

 facet normal 0 0 -1
  outer loop
  vertex 0.0153526757 -0.00263548945 -0.0245974995
  vertex 0.00906794518 -0.0070359041 -0.0245974995
  vertex 0.00716524897 -0.0070359041 -0.0245974995
  endloop
 endfacet

 facet normal 0 0 -1
  outer loop
  vertex 0.0153526757 -0.00263548945 -0.0245974995
  vertex 0.00716524897 -0.0070359041 -0.0245974995
  vertex 0.00716524897 -0.00641097361 -0.0245974995
  endloop
 endfacet

 facet normal -0.2217879 -0.0308045447 -0.974608183
  outer loop
  vertex 0.00410141516 0.0149661694 -0.0245956965
  vertex 0.00716524897 -0.0070359041 -0.0245974995
  vertex 0.00410141516 0.0143380016 -0.0245758425
  endloop
 endfacet

 facet normal 0.138556331 -0.011382957 -0.990289271
  outer loop
  vertex 0.0154042821 -0.00263548945 -0.0245974995
  vertex 0.0154042821 -0.00326365675 -0.0245902799
  vertex 0.0153526757 -0.00326365675 -0.0245974995
  endloop
 endfacet

 facet normal -0.734958768 -0.10467349 -0.66998446
  outer loop
  vertex 0.00410141516 0.0143380016 -0.0245758425
  vertex 0.00716524897 -0.0070359041 -0.0245974995
  vertex 0.00410141516 0.00805308204 -0.0235939324
  endloop
 endfacet

 facet normal 0.0370890126 -0.111924514 -0.993024349
  outer loop
  vertex 0.00906794518 -0.0070359041 -0.0245974995
  vertex 0.0109538138 -0.00641097361 -0.0245974995
  vertex 0.00969619397 -0.0070359041 -0.0245740358
  endloop
 endfacet

 facet normal 0.0487703495 -0.135303766 -0.989603162
  outer loop
  vertex 0.00969619397 -0.0070359041 -0.0245740358
  vertex 0.0109538138 -0.00641097361 -0.0245974995
  vertex 0.0115764523 -0.00641097361 -0.0245668143
  endloop
 endfacet

 facet normal 0.0489872918 -0.0977456793 -0.994005084
  outer loop
  vertex 0.0115764523 -0.00641097361 -0.0245668143
  vertex 0.0109538138 -0.00641097361 -0.0245974995
  vertex 0.0128363147 -0.00577956717 -0.0245668143
  endloop
 endfacet

 facet normal 0.0489333235 -0.0975838825 -0.994023561
  outer loop
  vertex 0.0128363147 -0.00577956717 -0.0245668143
  vertex 0.0109538138 -0.00641097361 -0.0245974995
  vertex 0.0134656848 -0.00515139895 -0.0245974995
  endloop
 endfacet

 facet normal 0.063278988 -0.0634003133 -0.995980024
  outer loop
  vertex 0.0134656848 -0.00515139895 -0.0245974995
  vertex 0.0140950568 -0.00452323165 -0.0245974995
  vertex 0.0153526757 -0.00389182498 -0.0245577917
  endloop
 endfacet

 facet normal 0.0956972539 -0.112184599 -0.989068627
  outer loop
  vertex 0.0134656848 -0.00515139895 -0.0245974995
  vertex 0.0153526757 -0.00389182498 -0.0245577917
  vertex 0.014724426 -0.00452323165 -0.0245469604
  endloop
 endfacet

 facet normal 0.0630605668 -0.0629626364 -0.996021688
  outer loop
  vertex 0.0153526757 -0.00389182498 -0.0245577917
  vertex 0.0140950568 -0.00452323165 -0.0245974995
  vertex 0.0153526757 -0.00326365675 -0.0245974995
  endloop
 endfacet

 facet normal 0.138294548 -0.0624819919 -0.988418281
  outer loop
  vertex 0.0153526757 -0.00389182498 -0.0245577917
  vertex 0.0153526757 -0.00326365675 -0.0245974995
  vertex 0.0154042821 -0.00326365675 -0.0245902799
  endloop
 endfacet

 facet normal 0.268783391 -0.0717594773 -0.960523844
  outer loop
  vertex 0.0153526757 -0.00389182498 -0.0245577917
  vertex 0.0154042821 -0.00326365675 -0.0245902799
  vertex 0.0154042821 -0.00389182498 -0.0245433506
  endloop
 endfacet

endsolid AssimpScene
