solid AssimpScene
 facet normal 0.0215682052 0.79880923 0.60119772
  outer loop
  vertex -0.0583472773 0.0436756387 0.0170054175
  vertex -0.0481391475 0.0413688421 0.0197042339
  vertex -0.0582925417 0.0436741635 0.0170054175
  endloop
 endfacet

 facet normal 0 0 -1
  outer loop
  vertex -0.0583472773 0.0436756387 0.0170054175
  vertex -0.0582925417 0.0436741635 0.0170054175
  vertex -0.05821044 0.0436712056 0.0170054175
  endloop
 endfacet

 facet normal 0 0 -1
  outer loop
  vertex -0.0583472773 0.0436756387 0.0170054175
  vertex -0.05821044 0.0436712056 0.0170054175
  vertex -0.0581526645 0.0436682478 0.0170054175
  endloop
 endfacet

 facet normal 0 0 -1
  outer loop
  vertex -0.0583472773 0.0436756387 0.0170054175
  vertex -0.0581526645 0.0436682478 0.0170054175
  vertex -0.0580431931 0.0436608531 0.0170054175
  endloop
 endfacet

 facet normal 0 0 -1
  outer loop
  vertex -0.0583472773 0.0436756387 0.0170054175
  vertex -0.0580431931 0.0436608531 0.0170054175
  vertex -0.0579154752 0.0436475463 0.0170054175
  endloop
 endfacet

 facet normal 0 0 -1
  outer loop
  vertex -0.0583472773 0.0436756387 0.0170054175
  vertex -0.0579154752 0.0436475463 0.0170054175
  vertex -0.0578485765 0.0436401516 0.0170054175
  endloop
 endfacet

 facet normal 0 0 -1
  outer loop
  vertex -0.0583472773 0.0436756387 0.0170054175
  vertex -0.0578485765 0.0436401516 0.0170054175
  vertex -0.0577299856 0.0436268449 0.0170054175
  endloop
 endfacet

 facet normal 0 0 -1
  outer loop
  vertex -0.0583472773 0.0436756387 0.0170054175
  vertex -0.0577299856 0.0436268449 0.0170054175
  vertex -0.0575992279 0.0436090976 0.0170054175
  endloop
 endfacet

 facet normal 0 0 -1
  outer loop
  vertex -0.0583472773 0.0436756387 0.0170054175
  vertex -0.0575992279 0.0436090976 0.0170054175
  vertex -0.0575627387 0.0436031818 0.0170054175
  endloop
 endfacet

 facet normal 0 0 -1
  outer loop
  vertex -0.0583472773 0.0436756387 0.0170054175
  vertex -0.0575627387 0.0436031818 0.0170054175
  vertex -0.0574380644 0.0435824804 0.0170054175
  endloop
 endfacet

 facet normal 0 0 -1
  outer loop
  vertex -0.0583472773 0.0436756387 0.0170054175
  vertex -0.0574380644 0.0435824804 0.0170054175
  vertex -0.0573954917 0.0435750894 0.0170054175
  endloop
 endfacet

 facet normal 0 0 -1
  outer loop
  vertex -0.0583472773 0.0436756387 0.0170054175
  vertex -0.0573954917 0.0435750894 0.0170054175
  vertex -0.057225205 0.0435425565 0.0170054175
  endloop
 endfacet

 facet normal 0 0 -1
  outer loop
  vertex -0.0583472773 0.0436756387 0.0170054175
  vertex -0.057225205 0.0435425565 0.0170054175
  vertex -0.0570549183 0.0435055867 0.0170054175
  endloop
 endfacet

 facet normal 0 0 -1
  outer loop
  vertex -0.0583472773 0.0436756387 0.0170054175
  vertex -0.0570549183 0.0435055867 0.0170054175
  vertex -0.0481361076 0.0414886177 0.0170054175
  endloop
 endfacet

 facet normal 0 0 -1
  outer loop
  vertex -0.0583472773 0.0436756387 0.0170054175
  vertex -0.0481361076 0.0414886177 0.0170054175
  vertex -0.0476921424 0.0413880646 0.0170054175
  endloop
 endfacet

 facet normal 0 0 -1
  outer loop
  vertex -0.0583472773 0.0436756387 0.0170054175
  vertex -0.0476921424 0.0413880646 0.0170054175
  vertex -0.0314205624 0.0301867742 0.0170054175
  endloop
 endfacet

 facet normal 0 0 -1
  outer loop
  vertex -0.0583472773 0.0436756387 0.0170054175
  vertex -0.0314205624 0.0301867742 0.0170054175
  vertex -0.0542816631 0.0285690576 0.0170054175
  endloop
 endfacet

 facet normal 0 0 -1
  outer loop
  vertex -0.0583472773 0.0436756387 0.0170054175
  vertex -0.0542816631 0.0285690576 0.0170054175
  vertex -0.0624858737 0.0285690576 0.0170054175
  endloop
 endfacet

 facet normal 0 0 -1
  outer loop
  vertex -0.0583472773 0.0436756387 0.0170054175
  vertex -0.0624858737 0.0285690576 0.0170054175
  vertex -0.0591166131 0.0434567928 0.0170054175
  endloop
 endfacet

 facet normal 0 0 -1
  outer loop
  vertex -0.0583472773 0.0436756387 0.0170054175
  vertex -0.0591166131 0.0434567928 0.0170054175
  vertex -0.0591014065 0.0434981957 0.0170054175
  endloop
 endfacet

 facet normal 0 0 -1
  outer loop
  vertex -0.0583472773 0.0436756387 0.0170054175
  vertex -0.0591014065 0.0434981957 0.0170054175
  vertex -0.0590679571 0.0435366407 0.0170054175
  endloop
 endfacet

 facet normal 0 0 -1
  outer loop
  vertex -0.0583472773 0.0436756387 0.0170054175
  vertex -0.0590679571 0.0435366407 0.0170054175
  vertex -0.0590405911 0.0435573421 0.0170054175
  endloop
 endfacet

 facet normal 0 0 -1
  outer loop
  vertex -0.0583472773 0.0436756387 0.0170054175
  vertex -0.0590405911 0.0435573421 0.0170054175
  vertex -0.0590223446 0.0435706526 0.0170054175
  endloop
 endfacet

 facet normal 0 0 -1
  outer loop
  vertex -0.0583472773 0.0436756387 0.0170054175
  vertex -0.0590223446 0.0435706526 0.0170054175
  vertex -0.0589615293 0.0435987487 0.0170054175
  endloop
 endfacet

 facet normal 0 0 -1
  outer loop
  vertex -0.0583472773 0.0436756387 0.0170054175
  vertex -0.0589615293 0.0435987487 0.0170054175
  vertex -0.0588855073 0.043623887 0.0170054175
  endloop
 endfacet

 facet normal 0 0 -1
  outer loop
  vertex -0.0583472773 0.0436756387 0.0170054175
  vertex -0.0588855073 0.043623887 0.0170054175
  vertex -0.0588064454 0.0436401516 0.0170054175
  endloop
 endfacet

 facet normal 0 0 -1
  outer loop
  vertex -0.0583472773 0.0436756387 0.0170054175
  vertex -0.0588064454 0.0436401516 0.0170054175
  vertex -0.0587699562 0.0436475463 0.0170054175
  endloop
 endfacet

 facet normal 0 0 -1
  outer loop
  vertex -0.0583472773 0.0436756387 0.0170054175
  vertex -0.0587699562 0.0436475463 0.0170054175
  vertex -0.0587000176 0.0436578952 0.0170054175
  endloop
 endfacet

 facet normal 0 0 -1
  outer loop
  vertex -0.0583472773 0.0436756387 0.0170054175
  vertex -0.0587000176 0.0436578952 0.0170054175
  vertex -0.0585875027 0.0436682478 0.0170054175
  endloop
 endfacet

 facet normal 0 0 -1
  outer loop
  vertex -0.0583472773 0.0436756387 0.0170054175
  vertex -0.0585875027 0.0436682478 0.0170054175
  vertex -0.058478035 0.0436741635 0.0170054175
  endloop
 endfacet

 facet normal -0.00841248315 0.744298637 0.667793989
  outer loop
  vertex -0.0583472773 0.0436756387 0.0170054175
  vertex -0.058478035 0.0436741635 0.0170054175
  vertex -0.0477164686 0.0412431508 0.0198505037
  endloop
 endfacet

 facet normal -0.00384977716 0.752912223 0.658109665
  outer loop
  vertex -0.0583472773 0.0436756387 0.0170054175
  vertex -0.0477164686 0.0412431508 0.0198505037
  vertex -0.0481391475 0.0413688421 0.0197042339
  endloop
 endfacet

 facet normal -0.00302372733 0.754104733 0.656747282
  outer loop
  vertex -0.0481391475 0.0413688421 0.0197042339
  vertex -0.0477164686 0.0412431508 0.0198505037
  vertex -0.0477103889 0.0412638523 0.0198267605
  endloop
 endfacet

 facet normal 0.00320881139 0.7648772 0.644168258
  outer loop
  vertex -0.0481391475 0.0413688421 0.0197042339
  vertex -0.0477103889 0.0412638523 0.0198267605
  vertex -0.0477073491 0.0412712432 0.019817967
  endloop
 endfacet

 facet normal 0.0266873762 0.8064484 0.590701938
  outer loop
  vertex -0.0481391475 0.0413688421 0.0197042339
  vertex -0.0477073491 0.0412712432 0.019817967
  vertex -0.0481361076 0.0413880646 0.0196778532
  endloop
 endfacet

 facet normal 0.0261116102 0.806492448 0.590667605
  outer loop
  vertex -0.0481391475 0.0413688421 0.0197042339
  vertex -0.0481361076 0.0413880646 0.0196778532
  vertex -0.0582925417 0.0436741635 0.0170054175
  endloop
 endfacet

 facet normal 0.029243147 0.811753809 0.583267152
  outer loop
  vertex -0.0582925417 0.0436741635 0.0170054175
  vertex -0.0481361076 0.0413880646 0.0196778532
  vertex -0.05821044 0.0436712056 0.0170054175
  endloop
 endfacet

 facet normal -0.0370864756 0.686320722 0.726352811
  outer loop
  vertex -0.058478035 0.0436741635 0.0170054175
  vertex -0.0585875027 0.0436682478 0.0170054175
  vertex -0.0481391475 0.0413052551 0.0197716542
  endloop
 endfacet

 facet normal -0.0328117162 0.695248067 0.718020678
  outer loop
  vertex -0.058478035 0.0436741635 0.0170054175
  vertex -0.0481391475 0.0413052551 0.0197716542
  vertex -0.0477195121 0.0412357561 0.0198581256
  endloop
 endfacet

 facet normal -0.0199517682 0.721587539 0.692035675
  outer loop
  vertex -0.058478035 0.0436741635 0.0170054175
  vertex -0.0477195121 0.0412357561 0.0198581256
  vertex -0.0477164686 0.0412431508 0.0198505037
  endloop
 endfacet

 facet normal 0.412944198 0.565829158 0.713662744
  outer loop
  vertex -0.0477164686 0.0412431508 0.0198505037
  vertex -0.0477195121 0.0412357561 0.0198581256
  vertex -0.0477255918 0.0412120968 0.0198804028
  endloop
 endfacet

 facet normal 0.454531759 0.544901133 0.704615951
  outer loop
  vertex -0.0477164686 0.0412431508 0.0198505037
  vertex -0.0477255918 0.0412120968 0.0198804028
  vertex -0.0316972807 0.0301867742 0.0180671215
  endloop
 endfacet

 facet normal 0.461639822 0.557568252 0.689932108
  outer loop
  vertex -0.0477164686 0.0412431508 0.0198505037
  vertex -0.0316972807 0.0301867742 0.0180671215
  vertex -0.0316455849 0.0301867742 0.0180325322
  endloop
 endfacet

 facet normal 0.477116168 0.585783303 0.655147374
  outer loop
  vertex -0.0477164686 0.0412431508 0.0198505037
  vertex -0.0316455849 0.0301867742 0.0180325322
  vertex -0.0316182151 0.0301867742 0.0180126019
  endloop
 endfacet

 facet normal 0.480730832 0.592499137 0.646407545
  outer loop
  vertex -0.0477164686 0.0412431508 0.0198505037
  vertex -0.0316182151 0.0301867742 0.0180126019
  vertex -0.0477073491 0.0412712432 0.019817967
  endloop
 endfacet

 facet normal 0.24331221 0.699343681 0.672099471
  outer loop
  vertex -0.0477164686 0.0412431508 0.0198505037
  vertex -0.0477073491 0.0412712432 0.019817967
  vertex -0.0477103889 0.0412638523 0.0198267605
  endloop
 endfacet

 facet normal 0.504159987 0.63677007 0.583392441
  outer loop
  vertex -0.0477073491 0.0412712432 0.019817967
  vertex -0.0316182151 0.0301867742 0.0180126019
  vertex -0.0477012657 0.0412889905 0.0197933447
  endloop
 endfacet

 facet normal 0.0276225284 0.80772841 0.58890748
  outer loop
  vertex -0.0477073491 0.0412712432 0.019817967
  vertex -0.0477012657 0.0412889905 0.0197933447
  vertex -0.0481361076 0.0413880646 0.0196778532
  endloop
 endfacet

 facet normal 0.0341610238 0.818482637 0.573514819
  outer loop
  vertex -0.0481361076 0.0413880646 0.0196778532
  vertex -0.0477012657 0.0412889905 0.0197933447
  vertex -0.0477012657 0.0412963852 0.0197827909
  endloop
 endfacet

 facet normal 0.038246166 0.825665414 0.562862277
  outer loop
  vertex -0.0481361076 0.0413880646 0.0196778532
  vertex -0.0477012657 0.0412963852 0.0197827909
  vertex -0.0481361076 0.0413954556 0.019667007
  endloop
 endfacet

 facet normal 0.0378094129 0.825679183 0.562871575
  outer loop
  vertex -0.0481361076 0.0413880646 0.0196778532
  vertex -0.0481361076 0.0413954556 0.019667007
  vertex -0.05821044 0.0436712056 0.0170054175
  endloop
 endfacet

 facet normal 0.0426620692 0.833364427 0.551075101
  outer loop
  vertex -0.05821044 0.0436712056 0.0170054175
  vertex -0.0481361076 0.0413954556 0.019667007
  vertex -0.0581526645 0.0436682478 0.0170054175
  endloop
 endfacet

 facet normal -0.058752697 0.638618886 0.767277002
  outer loop
  vertex -0.0585875027 0.0436682478 0.0170054175
  vertex -0.0587000176 0.0436578952 0.0170054175
  vertex -0.0481391475 0.0412978604 0.0197783951
  endloop
 endfacet

 facet normal -0.0432116836 0.673152804 0.738239884
  outer loop
  vertex -0.0585875027 0.0436682478 0.0170054175
  vertex -0.0481391475 0.0412978604 0.0197783951
  vertex -0.0481391475 0.0413052551 0.0197716542
  endloop
 endfacet

 facet normal -0.0424931422 0.673173547 0.738262594
  outer loop
  vertex -0.0481391475 0.0413052551 0.0197716542
  vertex -0.0481391475 0.0412978604 0.0197783951
  vertex -0.0477255918 0.0412120968 0.0198804028
  endloop
 endfacet

 facet normal -0.0347624496 0.689832091 0.723134398
  outer loop
  vertex -0.0481391475 0.0413052551 0.0197716542
  vertex -0.0477255918 0.0412120968 0.0198804028
  vertex -0.0477195121 0.0412357561 0.0198581256
  endloop
 endfacet

 facet normal 0.416394532 0.478304446 0.773201466
  outer loop
  vertex -0.0477255918 0.0412120968 0.0198804028
  vertex -0.0477377549 0.0411795639 0.0199070778
  vertex -0.0317276902 0.0301867742 0.0180852972
  endloop
 endfacet

 facet normal 0.439005107 0.517405629 0.734551609
  outer loop
  vertex -0.0477255918 0.0412120968 0.0198804028
  vertex -0.0317276902 0.0301867742 0.0180852972
  vertex -0.0316972807 0.0301867742 0.0180671215
  endloop
 endfacet

 facet normal -0.0541846864 0.645168841 0.762116253
  outer loop
  vertex -0.0477255918 0.0412120968 0.0198804028
  vertex -0.0481391475 0.0412978604 0.0197783951
  vertex -0.0477377549 0.0411795639 0.0199070778
  endloop
 endfacet

 facet normal 0.114062026 -0.974969625 0.19085072
  outer loop
  vertex -0.0316972807 0.0301867742 0.0180671215
  vertex -0.0317276902 0.0301867742 0.0180852972
  vertex -0.0484006628 0.0285690576 0.0197857246
  endloop
 endfacet

 facet normal 0.112099141 -0.97947216 0.167534962
  outer loop
  vertex -0.0316972807 0.0301867742 0.0180671215
  vertex -0.0484006628 0.0285690576 0.0197857246
  vertex -0.0316455849 0.0301867742 0.0180325322
  endloop
 endfacet

 facet normal 0.110738173 -0.98214817 0.152059034
  outer loop
  vertex -0.0316455849 0.0301867742 0.0180325322
  vertex -0.0484006628 0.0285690576 0.0197857246
  vertex -0.0316182151 0.0301867742 0.0180126019
  endloop
 endfacet

 facet normal 0.107854813 -0.986838222 0.120489359
  outer loop
  vertex -0.0316182151 0.0301867742 0.0180126019
  vertex -0.0484006628 0.0285690576 0.0197857246
  vertex -0.0315756463 0.0301867742 0.017974494
  endloop
 endfacet

 facet normal 0.509018719 0.646173716 0.568647206
  outer loop
  vertex -0.0316182151 0.0301867742 0.0180126019
  vertex -0.0315756463 0.0301867742 0.017974494
  vertex -0.0477012657 0.0412889905 0.0197933447
  endloop
 endfacet

 facet normal 0.516666293 0.661361456 0.543743491
  outer loop
  vertex -0.0477012657 0.0412889905 0.0197933447
  vertex -0.0315756463 0.0301867742 0.017974494
  vertex -0.0315543599 0.0301867742 0.0179542694
  endloop
 endfacet

 facet normal 0.525729358 0.679938972 0.51116699
  outer loop
  vertex -0.0477012657 0.0412889905 0.0197933447
  vertex -0.0315543599 0.0301867742 0.0179542694
  vertex -0.047695186 0.0413111709 0.0197575837
  endloop
 endfacet

 facet normal 0.37258026 0.758896589 0.534097314
  outer loop
  vertex -0.0477012657 0.0412889905 0.0197933447
  vertex -0.047695186 0.0413111709 0.0197575837
  vertex -0.047695186 0.0413200408 0.0197449792
  endloop
 endfacet

 facet normal 0.356876075 0.765033484 0.536062717
  outer loop
  vertex -0.0477012657 0.0412889905 0.0197933447
  vertex -0.047695186 0.0413200408 0.0197449792
  vertex -0.0477012657 0.0412963852 0.0197827909
  endloop
 endfacet

 facet normal 0.0495352894 0.843098044 0.535473585
  outer loop
  vertex -0.0477012657 0.0412963852 0.0197827909
  vertex -0.047695186 0.0413200408 0.0197449792
  vertex -0.0481391475 0.0414205976 0.0196277276
  endloop
 endfacet

 facet normal 0.0494291894 0.842976034 0.535675466
  outer loop
  vertex -0.0477012657 0.0412963852 0.0197827909
  vertex -0.0481391475 0.0414205976 0.0196277276
  vertex -0.0481361076 0.0413954556 0.019667007
  endloop
 endfacet

 facet normal 0.048924759 0.842979312 0.535716653
  outer loop
  vertex -0.0481361076 0.0413954556 0.019667007
  vertex -0.0481391475 0.0414205976 0.0196277276
  vertex -0.0581526645 0.0436682478 0.0170054175
  endloop
 endfacet

 facet normal 0.0578350686 0.856347978 0.513150454
  outer loop
  vertex -0.0581526645 0.0436682478 0.0170054175
  vertex -0.0481391475 0.0414205976 0.0196277276
  vertex -0.0580431931 0.0436608531 0.0170054175
  endloop
 endfacet

 facet normal -0.0851844102 0.575566649 0.813306034
  outer loop
  vertex -0.0587000176 0.0436578952 0.0170054175
  vertex -0.0587699562 0.0436475463 0.0170054175
  vertex -0.0481391475 0.0412623733 0.0198068283
  endloop
 endfacet

 facet normal -0.0746961907 0.601146042 0.795640588
  outer loop
  vertex -0.0587000176 0.0436578952 0.0170054175
  vertex -0.0481391475 0.0412623733 0.0198068283
  vertex -0.0477377549 0.0411795639 0.0199070778
  endloop
 endfacet

 facet normal -0.0623706803 0.630219698 0.773907661
  outer loop
  vertex -0.0587000176 0.0436578952 0.0170054175
  vertex -0.0477377549 0.0411795639 0.0199070778
  vertex -0.0481391475 0.0412978604 0.0197783951
  endloop
 endfacet

 facet normal 0.215892911 0.499050468 0.839249015
  outer loop
  vertex -0.0477377549 0.0411795639 0.0199070778
  vertex -0.0477468781 0.0411440767 0.0199305285
  vertex -0.0477377549 0.0411706939 0.0199123546
  endloop
 endfacet

 facet normal 0.409406364 0.466306657 0.784184098
  outer loop
  vertex -0.0477377549 0.0411795639 0.0199070778
  vertex -0.0477377549 0.0411706939 0.0199123546
  vertex -0.0317276902 0.0301867742 0.0180852972
  endloop
 endfacet

 facet normal -0.0883818716 0.564844131 0.820450962
  outer loop
  vertex -0.0477377549 0.0411795639 0.0199070778
  vertex -0.0481391475 0.0412623733 0.0198068283
  vertex -0.0477468781 0.0411440767 0.0199305285
  endloop
 endfacet

 facet normal 0.117138289 -0.96628803 0.229273289
  outer loop
  vertex -0.0317276902 0.0301867742 0.0180852972
  vertex -0.0317885056 0.0301867742 0.018116368
  vertex -0.0484006628 0.0285690576 0.0197857246
  endloop
 endfacet

 facet normal 0.404476017 0.45787406 0.791675746
  outer loop
  vertex -0.0317276902 0.0301867742 0.0180852972
  vertex -0.0477377549 0.0411706939 0.0199123546
  vertex -0.0317885056 0.0301867742 0.018116368
  endloop
 endfacet

 facet normal 0.0965054035 -0.995239258 0.0136211468
  outer loop
  vertex -0.0484006628 0.0285690576 0.0197857246
  vertex -0.0314205624 0.0301867742 0.0176819544
  vertex -0.0314266421 0.0301867742 0.017725043
  endloop
 endfacet

 facet normal 0.0973341167 -0.99503845 0.0206049606
  outer loop
  vertex -0.0484006628 0.0285690576 0.0197857246
  vertex -0.0314266421 0.0301867742 0.017725043
  vertex -0.0314357653 0.0301867742 0.0177681334
  endloop
 endfacet

 facet normal 0.0984766409 -0.994671762 0.0305058714
  outer loop
  vertex -0.0484006628 0.0285690576 0.0197857246
  vertex -0.0314357653 0.0301867742 0.0177681334
  vertex -0.0314418487 0.0301867742 0.0177877732
  endloop
 endfacet

 facet normal 0.0998415872 -0.994092643 0.042560596
  outer loop
  vertex -0.0484006628 0.0285690576 0.0197857246
  vertex -0.0314418487 0.0301867742 0.0177877732
  vertex -0.0314600915 0.0301867742 0.0178305693
  endloop
 endfacet

 facet normal 0.10140907 -0.993218303 0.0568655841
  outer loop
  vertex -0.0484006628 0.0285690576 0.0197857246
  vertex -0.0314600915 0.0301867742 0.0178305693
  vertex -0.0314722545 0.0301867742 0.0178522617
  endloop
 endfacet

 facet normal 0.101685025 -0.993039787 0.0594310313
  outer loop
  vertex -0.0484006628 0.0285690576 0.0197857246
  vertex -0.0314722545 0.0301867742 0.0178522617
  vertex -0.0314844213 0.0301867742 0.017873073
  endloop
 endfacet

 facet normal 0.103265241 -0.991867602 0.0743984804
  outer loop
  vertex -0.0484006628 0.0285690576 0.0197857246
  vertex -0.0314844213 0.0301867742 0.017873073
  vertex -0.0314996243 0.0301867742 0.0178941786
  endloop
 endfacet

 facet normal 0.105311058 -0.989957035 0.0943119526
  outer loop
  vertex -0.0484006628 0.0285690576 0.0197857246
  vertex -0.0314996243 0.0301867742 0.0178941786
  vertex -0.0315361135 0.0301867742 0.0179349221
  endloop
 endfacet

 facet normal 0.105859578 -0.989356756 0.0998347849
  outer loop
  vertex -0.0484006628 0.0285690576 0.0197857246
  vertex -0.0315361135 0.0301867742 0.0179349221
  vertex -0.0315543599 0.0301867742 0.0179542694
  endloop
 endfacet

 facet normal 0.107115261 -0.987835288 0.112728909
  outer loop
  vertex -0.0484006628 0.0285690576 0.0197857246
  vertex -0.0315543599 0.0301867742 0.0179542694
  vertex -0.0315756463 0.0301867742 0.017974494
  endloop
 endfacet

 facet normal 0.118866459 -0.960336983 0.252237737
  outer loop
  vertex -0.0484006628 0.0285690576 0.0197857246
  vertex -0.0317885056 0.0301867742 0.018116368
  vertex -0.0318432413 0.0301867742 0.0181421619
  endloop
 endfacet

 facet normal 0.123570226 -0.939167261 0.320460856
  outer loop
  vertex -0.0484006628 0.0285690576 0.0197857246
  vertex -0.0318432413 0.0301867742 0.0181421619
  vertex -0.0319162197 0.0301867742 0.0181703027
  endloop
 endfacet

 facet normal 0.126938269 -0.917783976 0.376243442
  outer loop
  vertex -0.0484006628 0.0285690576 0.0197857246
  vertex -0.0319162197 0.0301867742 0.0181703027
  vertex -0.0319770388 0.0301867742 0.0181908216
  endloop
 endfacet

 facet normal 0.132421881 -0.862017155 0.489275903
  outer loop
  vertex -0.0484006628 0.0285690576 0.0197857246
  vertex -0.0319770388 0.0301867742 0.0181908216
  vertex -0.0320561007 0.0301867742 0.0182122197
  endloop
 endfacet

 facet normal 0.136129707 -0.774438798 0.617829621
  outer loop
  vertex -0.0484006628 0.0285690576 0.0197857246
  vertex -0.0320561007 0.0301867742 0.0182122197
  vertex -0.0321199559 0.0301867742 0.0182262901
  endloop
 endfacet

 facet normal 0.136655718 -0.691937208 0.708906353
  outer loop
  vertex -0.0484006628 0.0285690576 0.0197857246
  vertex -0.0321199559 0.0301867742 0.0182262901
  vertex -0.0321290828 0.0301867742 0.0182280485
  endloop
 endfacet

 facet normal 0.134413898 -0.574682176 0.807262838
  outer loop
  vertex -0.0484006628 0.0285690576 0.0197857246
  vertex -0.0321290828 0.0301867742 0.0182280485
  vertex -0.0321959779 0.0301867742 0.0182391871
  endloop
 endfacet

 facet normal 0.120251089 -0.299807221 0.946390629
  outer loop
  vertex -0.0484006628 0.0285690576 0.0197857246
  vertex -0.0321959779 0.0301867742 0.0182391871
  vertex -0.0322628766 0.0301867742 0.0182476882
  endloop
 endfacet

 facet normal 0.101176515 -0.0654871613 0.992710829
  outer loop
  vertex -0.0484006628 0.0285690576 0.0197857246
  vertex -0.0322628766 0.0301867742 0.0182476882
  vertex -0.0484006628 0.0285734925 0.019786017
  endloop
 endfacet

 facet normal 0.097828947 -0.0655091852 0.993044794
  outer loop
  vertex -0.0484006628 0.0285690576 0.0197857246
  vertex -0.0484006628 0.0285734925 0.019786017
  vertex -0.0486773774 0.0285690576 0.0198129844
  endloop
 endfacet

 facet normal 0 -1 0
  outer loop
  vertex -0.0484006628 0.0285690576 0.0197857246
  vertex -0.0486773774 0.0285690576 0.0198129844
  vertex -0.0505931117 0.0285690576 0.0199999996
  endloop
 endfacet

 facet normal 0 -1 0
  outer loop
  vertex -0.0484006628 0.0285690576 0.0197857246
  vertex -0.0505931117 0.0285690576 0.0199999996
  vertex -0.0624858737 0.0285690576 0.0170054175
  endloop
 endfacet

 facet normal 0 -1 0
  outer loop
  vertex -0.0484006628 0.0285690576 0.0197857246
  vertex -0.0624858737 0.0285690576 0.0170054175
  vertex -0.0542816631 0.0285690576 0.0170054175
  endloop
 endfacet

 facet normal 0 -1 0
  outer loop
  vertex -0.0484006628 0.0285690576 0.0197857246
  vertex -0.0542816631 0.0285690576 0.0170054175
  vertex -0.0484006628 0.0285690576 0.0177766345
  endloop
 endfacet

 facet normal 0.0948419273 -0.995492399 0
  outer loop
  vertex -0.0484006628 0.0285690576 0.0197857246
  vertex -0.0484006628 0.0285690576 0.0177766345
  vertex -0.0314205624 0.0301867742 0.0170054175
  endloop
 endfacet

 facet normal 0.0948419273 -0.995492399 0
  outer loop
  vertex -0.0484006628 0.0285690576 0.0197857246
  vertex -0.0314205624 0.0301867742 0.0170054175
  vertex -0.0314205624 0.0301867742 0.0176819544
  endloop
 endfacet

 facet normal 0.528932214 0.686586082 0.498829007
  outer loop
  vertex -0.0315543599 0.0301867742 0.0179542694
  vertex -0.0315361135 0.0301867742 0.0179349221
  vertex -0.047695186 0.0413111709 0.0197575837
  endloop
 endfacet

 facet normal 0.531763792 0.692569017 0.487417161
  outer loop
  vertex -0.047695186 0.0413111709 0.0197575837
  vertex -0.0315361135 0.0301867742 0.0179349221
  vertex -0.047695186 0.0413200408 0.0197449792
  endloop
 endfacet

 facet normal 0.53397429 0.697275162 0.478203863
  outer loop
  vertex -0.047695186 0.0413200408 0.0197449792
  vertex -0.0315361135 0.0301867742 0.0179349221
  vertex -0.0314996243 0.0301867742 0.0178941786
  endloop
 endfacet

 facet normal 0.544235289 0.720162332 0.430318594
  outer loop
  vertex -0.047695186 0.0413200408 0.0197449792
  vertex -0.0314996243 0.0301867742 0.0178941786
  vertex -0.0476891026 0.041339267 0.019705113
  endloop
 endfacet

 facet normal 0.086246036 0.892167687 0.443394244
  outer loop
  vertex -0.047695186 0.0413200408 0.0197449792
  vertex -0.0476891026 0.041339267 0.019705113
  vertex -0.0481361076 0.0414339043 0.0196016394
  endloop
 endfacet

 facet normal 0.0787277296 0.884286165 0.4602606
  outer loop
  vertex -0.047695186 0.0413200408 0.0197449792
  vertex -0.0481361076 0.0414339043 0.0196016394
  vertex -0.0481391475 0.0414205976 0.0196277276
  endloop
 endfacet

 facet normal 0.078181088 0.884350777 0.460229844
  outer loop
  vertex -0.0481391475 0.0414205976 0.0196277276
  vertex -0.0481361076 0.0414339043 0.0196016394
  vertex -0.0580431931 0.0436608531 0.0170054175
  endloop
 endfacet

 facet normal 0.0930490121 0.902984262 0.419477522
  outer loop
  vertex -0.0580431931 0.0436608531 0.0170054175
  vertex -0.0481361076 0.0414339043 0.0196016394
  vertex -0.0481391475 0.041441299 0.0195863973
  endloop
 endfacet

 facet normal 0.0942458138 0.904414773 0.416115135
  outer loop
  vertex -0.0580431931 0.0436608531 0.0170054175
  vertex -0.0481391475 0.041441299 0.0195863973
  vertex -0.0579154752 0.0436475463 0.0170054175
  endloop
 endfacet

 facet normal -0.105857156 0.522461295 0.846066475
  outer loop
  vertex -0.0587699562 0.0436475463 0.0170054175
  vertex -0.0588064454 0.0436401516 0.0170054175
  vertex -0.0477468781 0.0411440767 0.0199305285
  endloop
 endfacet

 facet normal -0.093345955 0.554888129 0.826671481
  outer loop
  vertex -0.0587699562 0.0436475463 0.0170054175
  vertex -0.0477468781 0.0411440767 0.0199305285
  vertex -0.0481391475 0.0412623733 0.0198068283
  endloop
 endfacet

 facet normal -0.0799387619 0.483765513 0.871539354
  outer loop
  vertex -0.0477468781 0.0411440767 0.0199305285
  vertex -0.0477590412 0.041105628 0.0199507531
  vertex -0.0477590412 0.0410982333 0.0199548565
  endloop
 endfacet

 facet normal 0.00702266907 0.467333913 0.884052992
  outer loop
  vertex -0.0477468781 0.0411440767 0.0199305285
  vertex -0.0477590412 0.0410982333 0.0199548565
  vertex -0.0477468781 0.0411352031 0.0199352186
  endloop
 endfacet

 facet normal 0.369544446 0.434263527 0.821493864
  outer loop
  vertex -0.0477468781 0.0411440767 0.0199305285
  vertex -0.0477468781 0.0411352031 0.0199352186
  vertex -0.0477377549 0.0411706939 0.0199123546
  endloop
 endfacet

 facet normal -0.106913708 0.519650817 0.847663045
  outer loop
  vertex -0.0477468781 0.0411440767 0.0199305285
  vertex -0.0588064454 0.0436401516 0.0170054175
  vertex -0.0588855073 0.043623887 0.0170054175
  endloop
 endfacet

 facet normal -0.110769913 0.509202003 0.853488922
  outer loop
  vertex -0.0477468781 0.0411440767 0.0199305285
  vertex -0.0588855073 0.043623887 0.0170054175
  vertex -0.0481391475 0.0411928743 0.0198505037
  endloop
 endfacet

 facet normal -0.115139045 0.490754396 0.863656938
  outer loop
  vertex -0.0477468781 0.0411440767 0.0199305285
  vertex -0.0481391475 0.0411928743 0.0198505037
  vertex -0.0477590412 0.041105628 0.0199507531
  endloop
 endfacet

 facet normal 0.386328161 0.427315295 0.81740582
  outer loop
  vertex -0.0477377549 0.0411706939 0.0199123546
  vertex -0.0477468781 0.0411352031 0.0199352186
  vertex -0.0317885056 0.0301867742 0.018116368
  endloop
 endfacet

 facet normal 0.385638922 0.426156133 0.818335891
  outer loop
  vertex -0.0317885056 0.0301867742 0.018116368
  vertex -0.0477468781 0.0411352031 0.0199352186
  vertex -0.0318432413 0.0301867742 0.0181421619
  endloop
 endfacet

 facet normal 0.567029834 0.823697269 0
  outer loop
  vertex -0.0314205624 0.0301867742 0.0176819544
  vertex -0.0314205624 0.0301867742 0.0170054175
  vertex -0.0476921424 0.0413880646 0.0170054175
  endloop
 endfacet

 facet normal 0.567029834 0.823697269 0
  outer loop
  vertex -0.0314205624 0.0301867742 0.0176819544
  vertex -0.0476921424 0.0413880646 0.0170054175
  vertex -0.0476921424 0.0413880646 0.0194832161
  endloop
 endfacet

 facet normal 0.568114877 0.822806299 0.0153418258
  outer loop
  vertex -0.0314205624 0.0301867742 0.0176819544
  vertex -0.0476921424 0.0413880646 0.0194832161
  vertex -0.0476891026 0.0413851067 0.0195292365
  endloop
 endfacet

 facet normal 0.570861697 0.818340182 0.0666064471
  outer loop
  vertex -0.0314205624 0.0301867742 0.0176819544
  vertex -0.0476891026 0.0413851067 0.0195292365
  vertex -0.0476860628 0.0413806699 0.0195576716
  endloop
 endfacet

 facet normal 0.571367383 0.816722572 0.080644995
  outer loop
  vertex -0.0314205624 0.0301867742 0.0176819544
  vertex -0.0476860628 0.0413806699 0.0195576716
  vertex -0.0314266421 0.0301867742 0.017725043
  endloop
 endfacet

 facet normal 0.571881473 0.813960433 0.102078579
  outer loop
  vertex -0.0314266421 0.0301867742 0.017725043
  vertex -0.0476860628 0.0413806699 0.0195576716
  vertex -0.0476830229 0.0413732789 0.0195995886
  endloop
 endfacet

 facet normal 0.572148263 0.811157346 0.121119827
  outer loop
  vertex -0.0314266421 0.0301867742 0.017725043
  vertex -0.0476830229 0.0413732789 0.0195995886
  vertex -0.0314357653 0.0301867742 0.0177681334
  endloop
 endfacet

 facet normal 0.571599185 0.801199853 0.177068695
  outer loop
  vertex -0.0314357653 0.0301867742 0.0177681334
  vertex -0.0476830229 0.0413732789 0.0195995886
  vertex -0.0314418487 0.0301867742 0.0177877732
  endloop
 endfacet

 facet normal 0.57078135 0.796165407 0.200821519
  outer loop
  vertex -0.0314418487 0.0301867742 0.0177877732
  vertex -0.0476830229 0.0413732789 0.0195995886
  vertex -0.0476830229 0.0413629264 0.0196406245
  endloop
 endfacet

 facet normal 0.56859529 0.786098421 0.242381483
  outer loop
  vertex -0.0314418487 0.0301867742 0.0177877732
  vertex -0.0476830229 0.0413629264 0.0196406245
  vertex -0.0314600915 0.0301867742 0.0178305693
  endloop
 endfacet

 facet normal 0.564070463 0.7708444 0.296012908
  outer loop
  vertex -0.0314600915 0.0301867742 0.0178305693
  vertex -0.0476830229 0.0413629264 0.0196406245
  vertex -0.0476860628 0.0413496159 0.0196810775
  endloop
 endfacet

 facet normal 0.562036633 0.764713228 0.315164536
  outer loop
  vertex -0.0314600915 0.0301867742 0.0178305693
  vertex -0.0476860628 0.0413496159 0.0196810775
  vertex -0.0314722545 0.0301867742 0.0178522617
  endloop
 endfacet

 facet normal 0.560569108 0.760539234 0.327631295
  outer loop
  vertex -0.0314722545 0.0301867742 0.0178522617
  vertex -0.0476860628 0.0413496159 0.0196810775
  vertex -0.0314844213 0.0301867742 0.017873073
  endloop
 endfacet

 facet normal 0.551927507 0.738260269 0.387747049
  outer loop
  vertex -0.0314844213 0.0301867742 0.017873073
  vertex -0.0476860628 0.0413496159 0.0196810775
  vertex -0.0476891026 0.041339267 0.019705113
  endloop
 endfacet

 facet normal 0.550450504 0.734663606 0.396577567
  outer loop
  vertex -0.0314844213 0.0301867742 0.017873073
  vertex -0.0476891026 0.041339267 0.019705113
  vertex -0.0314996243 0.0301867742 0.0178941786
  endloop
 endfacet

 facet normal 0.340253204 0.351406753 0.872204721
  outer loop
  vertex -0.0318432413 0.0301867742 0.0181421619
  vertex -0.0477468781 0.0411352031 0.0199352186
  vertex -0.0477590412 0.0410982333 0.0199548565
  endloop
 endfacet

 facet normal 0.33744818 0.346830755 0.875121236
  outer loop
  vertex -0.0318432413 0.0301867742 0.0181421619
  vertex -0.0477590412 0.0410982333 0.0199548565
  vertex -0.0319162197 0.0301867742 0.0181703027
  endloop
 endfacet

 facet normal 0.305414021 0.295392573 0.905243337
  outer loop
  vertex -0.0319162197 0.0301867742 0.0181703027
  vertex -0.0477590412 0.0410982333 0.0199548565
  vertex -0.0319770388 0.0301867742 0.0181908216
  endloop
 endfacet

 facet normal 0.30131489 0.28890416 0.90870446
  outer loop
  vertex -0.0319770388 0.0301867742 0.0181908216
  vertex -0.0477590412 0.0410982333 0.0199548565
  vertex -0.0477681644 0.041067183 0.0199677553
  endloop
 endfacet

 facet normal 0.273184031 0.244540051 0.930360615
  outer loop
  vertex -0.0319770388 0.0301867742 0.0181908216
  vertex -0.0477681644 0.041067183 0.0199677553
  vertex -0.0477712043 0.0410583094 0.0199709795
  endloop
 endfacet

 facet normal 0.262385756 0.227646157 0.937726438
  outer loop
  vertex -0.0319770388 0.0301867742 0.0181908216
  vertex -0.0477712043 0.0410583094 0.0199709795
  vertex -0.0477803275 0.0410169065 0.0199835841
  endloop
 endfacet

 facet normal 0.255071104 0.216191828 0.94244355
  outer loop
  vertex -0.0319770388 0.0301867742 0.0181908216
  vertex -0.0477803275 0.0410169065 0.0199835841
  vertex -0.0320561007 0.0301867742 0.0182122197
  endloop
 endfacet

 facet normal 0.226922676 0.172700614 0.958478332
  outer loop
  vertex -0.0320561007 0.0301867742 0.0182122197
  vertex -0.0477803275 0.0410169065 0.0199835841
  vertex -0.0477864109 0.0409858525 0.0199906193
  endloop
 endfacet

 facet normal 0.212711498 0.150860429 0.965398908
  outer loop
  vertex -0.0320561007 0.0301867742 0.0182122197
  vertex -0.0477864109 0.0409858525 0.0199906193
  vertex -0.0321199559 0.0301867742 0.0182262901
  endloop
 endfacet

 facet normal 0.18806313 0.113438487 0.975583971
  outer loop
  vertex -0.0321199559 0.0301867742 0.0182262901
  vertex -0.0477864109 0.0409858525 0.0199906193
  vertex -0.0321290828 0.0301867742 0.0182280485
  endloop
 endfacet

 facet normal 0.184703991 0.108369492 0.976801157
  outer loop
  vertex -0.0321290828 0.0301867742 0.0182280485
  vertex -0.0477864109 0.0409858525 0.0199906193
  vertex -0.0477894507 0.0409725457 0.01999267
  endloop
 endfacet

 facet normal 0.168695614 0.0842658728 0.982059658
  outer loop
  vertex -0.0321290828 0.0301867742 0.0182280485
  vertex -0.0477894507 0.0409725457 0.01999267
  vertex -0.047798574 0.0409429707 0.0199967753
  endloop
 endfacet

 facet normal 0.164512947 0.0779705718 0.983288407
  outer loop
  vertex -0.0321290828 0.0301867742 0.0182280485
  vertex -0.047798574 0.0409429707 0.0199967753
  vertex -0.047798574 0.0409281813 0.0199979469
  endloop
 endfacet

 facet normal 0.163758993 0.07683523 0.98350358
  outer loop
  vertex -0.0321290828 0.0301867742 0.0182280485
  vertex -0.047798574 0.0409281813 0.0199979469
  vertex -0.0321959779 0.0301867742 0.0182391871
  endloop
 endfacet

 facet normal 0.128265113 0.0239769109 0.991450131
  outer loop
  vertex -0.0321959779 0.0301867742 0.0182391871
  vertex -0.047798574 0.0409281813 0.0199979469
  vertex -0.0478046536 0.0409000888 0.0199994128
  endloop
 endfacet

 facet normal 0.126022518 0.020650059 0.991812408
  outer loop
  vertex -0.0321959779 0.0301867742 0.0182391871
  vertex -0.0478046536 0.0409000888 0.0199994128
  vertex -0.0322628766 0.0301867742 0.0182476882
  endloop
 endfacet

 facet normal 0.120249286 0.0121346889 0.992669582
  outer loop
  vertex -0.0322628766 0.0301867742 0.0182476882
  vertex -0.0478046536 0.0409000888 0.0199994128
  vertex -0.0478076972 0.0408823416 0.0199999996
  endloop
 endfacet

 facet normal 0.0971286148 -0.0218556579 0.995031834
  outer loop
  vertex -0.0322628766 0.0301867742 0.0182476882
  vertex -0.0478076972 0.0408823416 0.0199999996
  vertex -0.0481361076 0.0394228473 0.0199999996
  endloop
 endfacet

 facet normal 0.0970613211 -0.0219720658 0.995035827
  outer loop
  vertex -0.0322628766 0.0301867742 0.0182476882
  vertex -0.0481361076 0.0394228473 0.0199999996
  vertex -0.0505931117 0.0285690576 0.0199999996
  endloop
 endfacet

 facet normal 0.0971330926 -0.0228134599 0.995009899
  outer loop
  vertex -0.0322628766 0.0301867742 0.0182476882
  vertex -0.0505931117 0.0285690576 0.0199999996
  vertex -0.0486773774 0.0285690576 0.0198129844
  endloop
 endfacet

 facet normal 0.0973673686 -0.0252701864 0.994927645
  outer loop
  vertex -0.0322628766 0.0301867742 0.0182476882
  vertex -0.0486773774 0.0285690576 0.0198129844
  vertex -0.0484006628 0.0285734925 0.019786017
  endloop
 endfacet

 facet normal 0.0621543489 -0.87834692 -0.473965764
  outer loop
  vertex -0.0484006628 0.0285690576 0.0177766345
  vertex -0.0542816631 0.0285690576 0.0170054175
  vertex -0.0314205624 0.0301867742 0.0170054175
  endloop
 endfacet

 facet normal 0.0995309204 0.909260392 0.404152483
  outer loop
  vertex -0.0476891026 0.041339267 0.019705113
  vertex -0.0476860628 0.0413496159 0.0196810775
  vertex -0.0481391475 0.041441299 0.0195863973
  endloop
 endfacet

 facet normal 0.0941209346 0.902974606 0.419259012
  outer loop
  vertex -0.0476891026 0.041339267 0.019705113
  vertex -0.0481391475 0.041441299 0.0195863973
  vertex -0.0481361076 0.0414339043 0.0196016394
  endloop
 endfacet

 facet normal 0.100781284 0.911927879 0.397782207
  outer loop
  vertex -0.0579154752 0.0436475463 0.0170054175
  vertex -0.0481391475 0.041441299 0.0195863973
  vertex -0.0578485765 0.0436401516 0.0170054175
  endloop
 endfacet

 facet normal 0.102560125 0.913899839 0.39277038
  outer loop
  vertex -0.0481391475 0.041441299 0.0195863973
  vertex -0.0577299856 0.0436268449 0.0170054175
  vertex -0.0578485765 0.0436401516 0.0170054175
  endloop
 endfacet

 facet normal 0.102975801 0.91405201 0.392307013
  outer loop
  vertex -0.0481391475 0.041441299 0.0195863973
  vertex -0.0476860628 0.0413496159 0.0196810775
  vertex -0.0481361076 0.0414516479 0.0195614807
  endloop
 endfacet

 facet normal 0.102731496 0.914086282 0.392291486
  outer loop
  vertex -0.0481391475 0.041441299 0.0195863973
  vertex -0.0481361076 0.0414516479 0.0195614807
  vertex -0.0577299856 0.0436268449 0.0170054175
  endloop
 endfacet

 facet normal -0.118365571 0.481906831 0.868190944
  outer loop
  vertex -0.0477590412 0.041105628 0.0199507531
  vertex -0.0481391475 0.0411928743 0.0198505037
  vertex -0.0477590412 0.0410982333 0.0199548565
  endloop
 endfacet

 facet normal -0.134187132 0.440071195 0.887880206
  outer loop
  vertex -0.0477590412 0.0410982333 0.0199548565
  vertex -0.0481391475 0.0411928743 0.0198505037
  vertex -0.0481391475 0.0411840007 0.0198549014
  endloop
 endfacet

 facet normal -0.140969038 0.420045555 0.896487355
  outer loop
  vertex -0.0477590412 0.0410982333 0.0199548565
  vertex -0.0481391475 0.0411840007 0.0198549014
  vertex -0.0481391475 0.0411514677 0.0198701434
  endloop
 endfacet

 facet normal -0.14215523 0.415007472 0.898643851
  outer loop
  vertex -0.0477590412 0.0410982333 0.0199548565
  vertex -0.0481391475 0.0411514677 0.0198701434
  vertex -0.0477681644 0.041067183 0.0199677553
  endloop
 endfacet

 facet normal -0.140572786 0.425117224 0.89415592
  outer loop
  vertex -0.0588855073 0.043623887 0.0170054175
  vertex -0.0589615293 0.0435987487 0.0170054175
  vertex -0.0481391475 0.0411840007 0.0198549014
  endloop
 endfacet

 facet normal -0.135489285 0.439992517 0.887721419
  outer loop
  vertex -0.0588855073 0.043623887 0.0170054175
  vertex -0.0481391475 0.0411840007 0.0198549014
  vertex -0.0481391475 0.0411928743 0.0198505037
  endloop
 endfacet

 facet normal 0.220893502 0.975298047 0
  outer loop
  vertex -0.0476921424 0.0413880646 0.0194832161
  vertex -0.0476921424 0.0413880646 0.0170054175
  vertex -0.0481361076 0.0414886177 0.0170054175
  endloop
 endfacet

 facet normal 0.220893502 0.975298047 0
  outer loop
  vertex -0.0476921424 0.0413880646 0.0194832161
  vertex -0.0481361076 0.0414886177 0.0170054175
  vertex -0.0481361076 0.0414886177 0.0193656739
  endloop
 endfacet

 facet normal 0.212499589 0.976609647 0.0328261182
  outer loop
  vertex -0.0476921424 0.0413880646 0.0194832161
  vertex -0.0481361076 0.0414886177 0.0193656739
  vertex -0.0481361076 0.0414871387 0.0194096416
  endloop
 endfacet

 facet normal 0.20981589 0.976517558 0.0488959849
  outer loop
  vertex -0.0476921424 0.0413880646 0.0194832161
  vertex -0.0481361076 0.0414871387 0.0194096416
  vertex -0.0476891026 0.0413851067 0.0195292365
  endloop
 endfacet

 facet normal 0.189488143 0.97416532 0.122866832
  outer loop
  vertex -0.0476891026 0.0413851067 0.0195292365
  vertex -0.0481361076 0.0414871387 0.0194096416
  vertex -0.0481391475 0.0414841808 0.0194377825
  endloop
 endfacet

 facet normal 0.187502295 0.973382711 0.131791323
  outer loop
  vertex -0.0476891026 0.0413851067 0.0195292365
  vertex -0.0481391475 0.0414841808 0.0194377825
  vertex -0.0476860628 0.0413806699 0.0195576716
  endloop
 endfacet

 facet normal 0.179944322 0.970874071 0.158188462
  outer loop
  vertex -0.0476860628 0.0413806699 0.0195576716
  vertex -0.0481391475 0.0414841808 0.0194377825
  vertex -0.0476830229 0.0413732789 0.0195995886
  endloop
 endfacet

 facet normal 0.179051206 0.970651031 0.160553217
  outer loop
  vertex -0.0476830229 0.0413732789 0.0195995886
  vertex -0.0481391475 0.0414841808 0.0194377825
  vertex -0.0481391475 0.041481223 0.0194556639
  endloop
 endfacet

 facet normal 0.171317175 0.968049645 0.183112845
  outer loop
  vertex -0.0476830229 0.0413732789 0.0195995886
  vertex -0.0481391475 0.041481223 0.0194556639
  vertex -0.0481391475 0.0414767861 0.0194791127
  endloop
 endfacet

 facet normal 0.153597385 0.958124161 0.241673321
  outer loop
  vertex -0.0476830229 0.0413732789 0.0195995886
  vertex -0.0481391475 0.0414767861 0.0194791127
  vertex -0.0476830229 0.0413629264 0.0196406245
  endloop
 endfacet

 facet normal 0.128248483 0.939163685 0.318628043
  outer loop
  vertex -0.0476830229 0.0413629264 0.0196406245
  vertex -0.0481361076 0.0414516479 0.0195614807
  vertex -0.0476860628 0.0413496159 0.0196810775
  endloop
 endfacet

 facet normal 0.151684433 0.957215548 0.246435136
  outer loop
  vertex -0.0476830229 0.0413629264 0.0196406245
  vertex -0.0481391475 0.0414767861 0.0194791127
  vertex -0.0481361076 0.0414708704 0.0195002183
  endloop
 endfacet

 facet normal 0.148986936 0.95567286 0.253953725
  outer loop
  vertex -0.0476830229 0.0413629264 0.0196406245
  vertex -0.0481361076 0.0414708704 0.0195002183
  vertex -0.0575992279 0.0436090976 0.0170054175
  endloop
 endfacet

 facet normal 0.128687918 0.939737022 0.316755116
  outer loop
  vertex -0.0476830229 0.0413629264 0.0196406245
  vertex -0.0575992279 0.0436090976 0.0170054175
  vertex -0.0481361076 0.0414516479 0.0195614807
  endloop
 endfacet

 facet normal -0.152563259 0.383389533 0.910898924
  outer loop
  vertex -0.0477681644 0.041067183 0.0199677553
  vertex -0.0481391475 0.0411514677 0.0198701434
  vertex -0.0477712043 0.0410583094 0.0199709795
  endloop
 endfacet

 facet normal 0.213102877 0.241259083 0.946774125
  outer loop
  vertex -0.0477712043 0.0410583094 0.0199709795
  vertex -0.0477803275 0.0410272554 0.0199809466
  vertex -0.0477803275 0.0410169065 0.0199835841
  endloop
 endfacet

 facet normal -0.165766895 0.345183074 0.923780322
  outer loop
  vertex -0.0477712043 0.0410583094 0.0199709795
  vertex -0.0481391475 0.0411514677 0.0198701434
  vertex -0.0477803275 0.0410272554 0.0199809466
  endloop
 endfacet

 facet normal -0.138532579 0.244550228 0.959689498
  outer loop
  vertex -0.0477803275 0.0410169065 0.0199835841
  vertex -0.0477803275 0.0410272554 0.0199809466
  vertex -0.0477864109 0.0409858525 0.0199906193
  endloop
 endfacet

 facet normal -0.185196683 0.190917343 0.963977575
  outer loop
  vertex -0.0477864109 0.0409858525 0.0199906193
  vertex -0.047798574 0.0409429707 0.0199967753
  vertex -0.0477894507 0.0409725457 0.01999267
  endloop
 endfacet

 facet normal -0.191863164 0.249903366 0.949071586
  outer loop
  vertex -0.0477864109 0.0409858525 0.0199906193
  vertex -0.0477803275 0.0410272554 0.0199809466
  vertex -0.0481391475 0.0410657041 0.0198982842
  endloop
 endfacet

 facet normal -0.206510589 0.196187213 0.958573937
  outer loop
  vertex -0.0477864109 0.0409858525 0.0199906193
  vertex -0.0481391475 0.0410657041 0.0198982842
  vertex -0.047798574 0.0409429707 0.0199967753
  endloop
 endfacet

 facet normal -0.123909429 0.078438431 0.989188552
  outer loop
  vertex -0.047798574 0.0409429707 0.0199967753
  vertex -0.0478046536 0.0409000888 0.0199994128
  vertex -0.047798574 0.0409281813 0.0199979469
  endloop
 endfacet

 facet normal -0.2088736 0.190189272 0.959270597
  outer loop
  vertex -0.047798574 0.0409429707 0.0199967753
  vertex -0.0481391475 0.0410657041 0.0198982842
  vertex -0.0481391475 0.0410523936 0.0199009217
  endloop
 endfacet

 facet normal -0.212020606 0.181297421 0.96030128
  outer loop
  vertex -0.047798574 0.0409429707 0.0199967753
  vertex -0.0481391475 0.0410523936 0.0199009217
  vertex -0.0481391475 0.0410213433 0.0199067853
  endloop
 endfacet

 facet normal -0.233597368 0.0959052965 0.96759212
  outer loop
  vertex -0.047798574 0.0409429707 0.0199967753
  vertex -0.0481391475 0.0410213433 0.0199067853
  vertex -0.0481391475 0.041003596 0.0199085437
  endloop
 endfacet

 facet normal -0.234199256 0.0927590057 0.967753351
  outer loop
  vertex -0.047798574 0.0409429707 0.0199967753
  vertex -0.0481391475 0.041003596 0.0199085437
  vertex -0.0478046536 0.0409000888 0.0199994128
  endloop
 endfacet

 facet normal -0.234796911 0.0908587277 0.967788815
  outer loop
  vertex -0.0478046536 0.0409000888 0.0199994128
  vertex -0.0481391475 0.041003596 0.0199085437
  vertex -0.0481391475 0.0409755036 0.0199111812
  endloop
 endfacet

 facet normal -0.238978475 0.0728924796 0.968285084
  outer loop
  vertex -0.0478046536 0.0409000888 0.0199994128
  vertex -0.0481391475 0.0409755036 0.0199111812
  vertex -0.0478076972 0.0408823416 0.0199999996
  endloop
 endfacet

 facet normal -0.243324727 0.0573912337 0.968245506
  outer loop
  vertex -0.0478076972 0.0408823416 0.0199999996
  vertex -0.0481391475 0.0409755036 0.0199111812
  vertex -0.0591166131 0.0434567928 0.0170054175
  endloop
 endfacet

 facet normal -0.243746206 0.0555418953 0.968247354
  outer loop
  vertex -0.0478076972 0.0408823416 0.0199999996
  vertex -0.0591166131 0.0434567928 0.0170054175
  vertex -0.0481391475 0.0408483334 0.0199185107
  endloop
 endfacet

 facet normal -0.243725583 0.0552943908 0.968266785
  outer loop
  vertex -0.0478076972 0.0408823416 0.0199999996
  vertex -0.0481391475 0.0408483334 0.0199185107
  vertex -0.0481391475 0.0394213684 0.0199999996
  endloop
 endfacet

 facet normal 0 0 1
  outer loop
  vertex -0.0478076972 0.0408823416 0.0199999996
  vertex -0.0481391475 0.0394213684 0.0199999996
  vertex -0.0505931117 0.0285690576 0.0199999996
  endloop
 endfacet

 facet normal 0 0 1
  outer loop
  vertex -0.0478076972 0.0408823416 0.0199999996
  vertex -0.0505931117 0.0285690576 0.0199999996
  vertex -0.0481361076 0.0394228473 0.0199999996
  endloop
 endfacet

 facet normal -0.243804902 0.055130057 0.968256116
  outer loop
  vertex -0.0505931117 0.0285690576 0.0199999996
  vertex -0.0481391475 0.0394213684 0.0199999996
  vertex -0.0565805435 0.032650318 0.0182600003
  endloop
 endfacet

 facet normal -0.243805557 0.0551290475 0.968255937
  outer loop
  vertex -0.0505931117 0.0285690576 0.0199999996
  vertex -0.0565805435 0.032650318 0.0182600003
  vertex -0.0624858737 0.0285690576 0.0170054175
  endloop
 endfacet

 facet normal 0.127371043 0.938590467 0.320662707
  outer loop
  vertex -0.0577299856 0.0436268449 0.0170054175
  vertex -0.0481361076 0.0414516479 0.0195614807
  vertex -0.0575992279 0.0436090976 0.0170054175
  endloop
 endfacet

 facet normal -0.142291054 0.419965267 0.896316051
  outer loop
  vertex -0.0481391475 0.0411840007 0.0198549014
  vertex -0.0589615293 0.0435987487 0.0170054175
  vertex -0.0481391475 0.0411514677 0.0198701434
  endloop
 endfacet

 facet normal -0.163628265 0.354201138 0.920742869
  outer loop
  vertex -0.0481391475 0.0411514677 0.0198701434
  vertex -0.0589615293 0.0435987487 0.0170054175
  vertex -0.0590223446 0.0435706526 0.0170054175
  endloop
 endfacet

 facet normal -0.167883545 0.34033221 0.925196826
  outer loop
  vertex -0.0481391475 0.0411514677 0.0198701434
  vertex -0.0590223446 0.0435706526 0.0170054175
  vertex -0.0477803275 0.0410272554 0.0199809466
  endloop
 endfacet

 facet normal 0.220577955 0.975369394 0
  outer loop
  vertex -0.0481361076 0.0414886177 0.0193656739
  vertex -0.0481361076 0.0414886177 0.0170054175
  vertex -0.0570549183 0.0435055867 0.0170054175
  endloop
 endfacet

 facet normal 0.212186188 0.976677775 0.0328284055
  outer loop
  vertex -0.0481361076 0.0414886177 0.0193656739
  vertex -0.0570549183 0.0435055867 0.0170054175
  vertex -0.0481361076 0.0414871387 0.0194096416
  endloop
 endfacet

 facet normal 0.212035179 0.976691127 0.0333998464
  outer loop
  vertex -0.0481361076 0.0414871387 0.0194096416
  vertex -0.0570549183 0.0435055867 0.0170054175
  vertex -0.057225205 0.0435425565 0.0170054175
  endloop
 endfacet

 facet normal 0.18790774 0.974488676 0.122730054
  outer loop
  vertex -0.0481361076 0.0414871387 0.0194096416
  vertex -0.057225205 0.0435425565 0.0170054175
  vertex -0.0481391475 0.0414841808 0.0194377825
  endloop
 endfacet

 facet normal 0.186069384 0.974006474 0.129189074
  outer loop
  vertex -0.0481391475 0.0414841808 0.0194377825
  vertex -0.057225205 0.0435425565 0.0170054175
  vertex -0.0573954917 0.0435750894 0.0170054175
  endloop
 endfacet

 facet normal 0.17713213 0.970993698 0.160609901
  outer loop
  vertex -0.0481391475 0.0414841808 0.0194377825
  vertex -0.0573954917 0.0435750894 0.0170054175
  vertex -0.0481391475 0.041481223 0.0194556639
  endloop
 endfacet

 facet normal 0.170532972 0.968183398 0.183138162
  outer loop
  vertex -0.0481391475 0.041481223 0.0194556639
  vertex -0.0573954917 0.0435750894 0.0170054175
  vertex -0.0481391475 0.0414767861 0.0194791127
  endloop
 endfacet

 facet normal 0.167927861 0.966952443 0.19184202
  outer loop
  vertex -0.0481391475 0.0414767861 0.0194791127
  vertex -0.0573954917 0.0435750894 0.0170054175
  vertex -0.0574380644 0.0435824804 0.0170054175
  endloop
 endfacet

 facet normal 0.159846172 0.962643921 0.218554586
  outer loop
  vertex -0.0481391475 0.0414767861 0.0194791127
  vertex -0.0574380644 0.0435824804 0.0170054175
  vertex -0.0575627387 0.0436031818 0.0170054175
  endloop
 endfacet

 facet normal 0.155641854 0.960091949 0.232377261
  outer loop
  vertex -0.0481391475 0.0414767861 0.0194791127
  vertex -0.0575627387 0.0436031818 0.0170054175
  vertex -0.0575992279 0.0436090976 0.0170054175
  endloop
 endfacet

 facet normal 0.151309863 0.957257867 0.246500939
  outer loop
  vertex -0.0481391475 0.0414767861 0.0194791127
  vertex -0.0575992279 0.0436090976 0.0170054175
  vertex -0.0481361076 0.0414708704 0.0195002183
  endloop
 endfacet

 facet normal -0.184955299 0.283369482 0.941006541
  outer loop
  vertex -0.0477803275 0.0410272554 0.0199809466
  vertex -0.0590223446 0.0435706526 0.0170054175
  vertex -0.0481391475 0.0410967581 0.0198894907
  endloop
 endfacet

 facet normal -0.188996956 0.267535269 0.944830775
  outer loop
  vertex -0.0477803275 0.0410272554 0.0199809466
  vertex -0.0481391475 0.0410967581 0.0198894907
  vertex -0.0481391475 0.0410657041 0.0198982842
  endloop
 endfacet

 facet normal -0.189547569 0.267506391 0.944728673
  outer loop
  vertex -0.0481391475 0.0410657041 0.0198982842
  vertex -0.0481391475 0.0410967581 0.0198894907
  vertex -0.0590223446 0.0435706526 0.0170054175
  endloop
 endfacet

 facet normal -0.191131294 0.262028962 0.945943892
  outer loop
  vertex -0.0481391475 0.0410657041 0.0198982842
  vertex -0.0590223446 0.0435706526 0.0170054175
  vertex -0.0590405911 0.0435573421 0.0170054175
  endloop
 endfacet

 facet normal -0.193072587 0.255233318 0.947406411
  outer loop
  vertex -0.0481391475 0.0410657041 0.0198982842
  vertex -0.0590405911 0.0435573421 0.0170054175
  vertex -0.0590679571 0.0435366407 0.0170054175
  endloop
 endfacet

 facet normal -0.210828632 0.190107629 0.958858907
  outer loop
  vertex -0.0481391475 0.0410657041 0.0198982842
  vertex -0.0590679571 0.0435366407 0.0170054175
  vertex -0.0481391475 0.0410523936 0.0199009217
  endloop
 endfacet

 facet normal -0.212261945 0.184671432 0.95960474
  outer loop
  vertex -0.0481391475 0.0410523936 0.0199009217
  vertex -0.0590679571 0.0435366407 0.0170054175
  vertex -0.0591014065 0.0434981957 0.0170054175
  endloop
 endfacet

 facet normal -0.213145316 0.181252047 0.960060835
  outer loop
  vertex -0.0481391475 0.0410523936 0.0199009217
  vertex -0.0591014065 0.0434981957 0.0170054175
  vertex -0.0481391475 0.0410213433 0.0199067853
  endloop
 endfacet

 facet normal -0.234376907 0.0958867818 0.967405319
  outer loop
  vertex -0.0481391475 0.0410213433 0.0199067853
  vertex -0.0591014065 0.0434981957 0.0170054175
  vertex -0.0481391475 0.041003596 0.0199085437
  endloop
 endfacet

 facet normal -0.235576898 0.0908410922 0.967600822
  outer loop
  vertex -0.0481391475 0.041003596 0.0199085437
  vertex -0.0591014065 0.0434981957 0.0170054175
  vertex -0.0481391475 0.0409755036 0.0199111812
  endloop
 endfacet

 facet normal -0.236528724 0.0868587717 0.967734337
  outer loop
  vertex -0.0481391475 0.0409755036 0.0199111812
  vertex -0.0591014065 0.0434981957 0.0170054175
  vertex -0.0591166131 0.0434567928 0.0170054175
  endloop
 endfacet

 facet normal -0.243844062 0.0551846437 0.968243122
  outer loop
  vertex -0.0591166131 0.0434567928 0.0170054175
  vertex -0.0624858737 0.0285690576 0.0170054175
  vertex -0.0481391475 0.0394213684 0.0199999996
  endloop
 endfacet

 facet normal -0.24380511 0.0552932434 0.968246698
  outer loop
  vertex -0.0591166131 0.0434567928 0.0170054175
  vertex -0.0481391475 0.0394213684 0.0199999996
  vertex -0.0481391475 0.0408483334 0.0199185107
  endloop
 endfacet

 facet normal -0.243814081 0.0551422462 0.968253076
  outer loop
  vertex -0.0481391475 0.0394213684 0.0199999996
  vertex -0.0624858737 0.0285690576 0.0170054175
  vertex -0.0565805435 0.032650318 0.0182600003
  endloop
 endfacet

endsolid AssimpScene
