solid AssimpScene
 facet normal -1 0 0
  outer loop
  vertex -0.00615436072 0.00785327982 0.0152335949
  vertex -0.00615436072 0.0273763705 0.0152335949
  vertex -0.00615436072 0.0273763705 0.00780901313
  endloop
 endfacet

 facet normal -1 0 0
  outer loop
  vertex -0.00615436072 0.00785327982 0.0152335949
  vertex -0.00615436072 0.0273763705 0.00780901313
  vertex -0.00615436072 0.0273738932 0.00740798283
  endloop
 endfacet

 facet normal -1 0 0
  outer loop
  vertex -0.00615436072 0.00785327982 0.0152335949
  vertex -0.00615436072 0.0273738932 0.00740798283
  vertex -0.00615436072 0.00805148482 0.00740798283
  endloop
 endfacet

 facet normal -0.335464716 -0.941750765 -0.023852339
  outer loop
  vertex -0.00615436072 0.00785327982 0.0152335949
  vertex -0.00615436072 0.00805148482 0.00740798283
  vertex 0.0106530674 0.00206572446 0.00735745905
  endloop
 endfacet

 facet normal -0.299575388 -0.952159882 0.0603833199
  outer loop
  vertex -0.00615436072 0.00785327982 0.0152335949
  vertex 0.0106530674 0.00206572446 0.00735745905
  vertex 0.0112547837 0.00238780607 0.0154214799
  endloop
 endfacet

 facet normal -0.0239566118 -0.0419722646 0.99883163
  outer loop
  vertex -0.00615436072 0.00785327982 0.0152335949
  vertex 0.0112547837 0.00238780607 0.0154214799
  vertex 0.010625382 0.00274705118 0.0154214799
  endloop
 endfacet

 facet normal -0.0164743122 -0.0173519794 0.999713659
  outer loop
  vertex -0.00615436072 0.00785327982 0.0152335949
  vertex 0.010625382 0.00274705118 0.0154214799
  vertex 0.0105497055 0.00281889946 0.0154214799
  endloop
 endfacet

 facet normal -0.0112471692 0 0.999936759
  outer loop
  vertex -0.00615436072 0.00785327982 0.0152335949
  vertex 0.0105497055 0.00281889946 0.0154214799
  vertex 0.0105497055 0.0128678409 0.0154214799
  endloop
 endfacet

 facet normal -0.0112471692 0 0.999936759
  outer loop
  vertex -0.00615436072 0.00785327982 0.0152335949
  vertex 0.0105497055 0.0128678409 0.0154214799
  vertex -0.00615436072 0.0273763705 0.0152335949
  endloop
 endfacet

 facet normal 0 1 0
  outer loop
  vertex -0.00615436072 0.0273763705 0.0152335949
  vertex 0.0105460146 0.0273763705 0.0152335949
  vertex 0.0105460146 0.0273763705 0.00780901313
  endloop
 endfacet

 facet normal 0 1 0
  outer loop
  vertex -0.00615436072 0.0273763705 0.0152335949
  vertex 0.0105460146 0.0273763705 0.00780901313
  vertex -0.00615436072 0.0273763705 0.00780901313
  endloop
 endfacet

 facet normal 0 0.012948906 0.999916196
  outer loop
  vertex -0.00615436072 0.0273763705 0.0152335949
  vertex 0.0105497055 0.0128678409 0.0154214799
  vertex 0.0126981623 0.0128678409 0.0154214799
  endloop
 endfacet

 facet normal 0 0.012948906 0.999916196
  outer loop
  vertex -0.00615436072 0.0273763705 0.0152335949
  vertex 0.0126981623 0.0128678409 0.0154214799
  vertex 0.0105460146 0.0273763705 0.0152335949
  endloop
 endfacet

 facet normal -0.00302463653 0 -0.99999553
  outer loop
  vertex -0.00615436072 0.00805148482 0.00740798283
  vertex -0.00615436072 0.0273738932 0.00740798283
  vertex 0.0105497055 0.0128678409 0.00735745905
  endloop
 endfacet

 facet normal -0.00302463653 0 -0.99999553
  outer loop
  vertex -0.00615436072 0.00805148482 0.00740798283
  vertex 0.0105497055 0.0128678409 0.00735745905
  vertex 0.0105497055 0.00246708747 0.00735745905
  endloop
 endfacet

 facet normal -0.00330956979 -0.000852304744 -0.999994218
  outer loop
  vertex -0.00615436072 0.00805148482 0.00740798283
  vertex 0.0105497055 0.00246708747 0.00735745905
  vertex 0.0106530674 0.00206572446 0.00735745905
  endloop
 endfacet

 facet normal 0 0 -1
  outer loop
  vertex 0.0106530674 0.00206572446 0.00735745905
  vertex 0.0105497055 0.00246708747 0.00735745905
  vertex 0.0105497055 0.0128678409 0.00735745905
  endloop
 endfacet

 facet normal 0 0 -1
  outer loop
  vertex 0.0106530674 0.00206572446 0.00735745905
  vertex 0.0105497055 0.0128678409 0.00735745905
  vertex 0.0122884046 0.0128678409 0.00735745905
  endloop
 endfacet

 facet normal 0 0 -1
  outer loop
  vertex 0.0106530674 0.00206572446 0.00735745905
  vertex 0.0122884046 0.0128678409 0.00735745905
  vertex 0.0117752859 0.00327229151 0.00735745905
  endloop
 endfacet

 facet normal 0 0 -1
  outer loop
  vertex 0.0106530674 0.00206572446 0.00735745905
  vertex 0.0117752859 0.00327229151 0.00735745905
  vertex 0.0116996104 0.00269502215 0.00735745905
  endloop
 endfacet

 facet normal 0 0 -1
  outer loop
  vertex 0.0106530674 0.00206572446 0.00735745905
  vertex 0.0116996104 0.00269502215 0.00735745905
  vertex 0.011284316 0.0023580757 0.00735745905
  endloop
 endfacet

 facet normal 0 0 -1
  outer loop
  vertex 0.0106530674 0.00206572446 0.00735745905
  vertex 0.011284316 0.0023580757 0.00735745905
  vertex 0.0107638137 0.00208802242 0.00735745905
  endloop
 endfacet

 facet normal 0.197329253 -0.980060577 0.0232909024
  outer loop
  vertex 0.0106530674 0.00206572446 0.00735745905
  vertex 0.0107638137 0.00208802242 0.00735745905
  vertex 0.0114855021 0.00242496957 0.0154214799
  endloop
 endfacet

 facet normal 0.158966765 -0.986899316 0.0275556557
  outer loop
  vertex 0.0106530674 0.00206572446 0.00735745905
  vertex 0.0114855021 0.00242496957 0.0154214799
  vertex 0.0112547837 0.00238780607 0.0154214799
  endloop
 endfacet

 facet normal 0 0 1
  outer loop
  vertex 0.0112547837 0.00238780607 0.0154214799
  vertex 0.0114855021 0.00242496957 0.0154214799
  vertex 0.0119358664 0.00262317294 0.0154214799
  endloop
 endfacet

 facet normal 0 0 1
  outer loop
  vertex 0.0112547837 0.00238780607 0.0154214799
  vertex 0.0119358664 0.00262317294 0.0154214799
  vertex 0.0121352077 0.00311372778 0.0154214799
  endloop
 endfacet

 facet normal 0 0 1
  outer loop
  vertex 0.0112547837 0.00238780607 0.0154214799
  vertex 0.0121352077 0.00311372778 0.0154214799
  vertex 0.0121702766 0.00327229151 0.0154214799
  endloop
 endfacet

 facet normal 0 0 1
  outer loop
  vertex 0.0112547837 0.00238780607 0.0154214799
  vertex 0.0121702766 0.00327229151 0.0154214799
  vertex 0.0126907788 0.012662204 0.0154214799
  endloop
 endfacet

 facet normal 0 0 1
  outer loop
  vertex 0.0112547837 0.00238780607 0.0154214799
  vertex 0.0126907788 0.012662204 0.0154214799
  vertex 0.0126981623 0.0128678409 0.0154214799
  endloop
 endfacet

 facet normal 0 0 1
  outer loop
  vertex 0.0112547837 0.00238780607 0.0154214799
  vertex 0.0126981623 0.0128678409 0.0154214799
  vertex 0.0105497055 0.0128678409 0.0154214799
  endloop
 endfacet

 facet normal 0 0 1
  outer loop
  vertex 0.0112547837 0.00238780607 0.0154214799
  vertex 0.0105497055 0.0128678409 0.0154214799
  vertex 0.0105497055 0.00281889946 0.0154214799
  endloop
 endfacet

 facet normal 0 0 1
  outer loop
  vertex 0.0112547837 0.00238780607 0.0154214799
  vertex 0.0105497055 0.00281889946 0.0154214799
  vertex 0.010625382 0.00274705118 0.0154214799
  endloop
 endfacet

 facet normal 0.989176393 0.146731213 0
  outer loop
  vertex 0.0105460146 0.0273763705 0.0152335949
  vertex 0.0126981623 0.0128678409 0.0154214799
  vertex 0.0105460146 0.0273763705 0.00780901313
  endloop
 endfacet

 facet normal 0 0.999980927 -0.00617914181
  outer loop
  vertex -0.00615436072 0.0273763705 0.00780901313
  vertex 0.0105460146 0.0273763705 0.00780901313
  vertex 0.0105460146 0.0273738932 0.00740798283
  endloop
 endfacet

 facet normal 0 0.999980927 -0.00617914181
  outer loop
  vertex -0.00615436072 0.0273763705 0.00780901313
  vertex 0.0105460146 0.0273738932 0.00740798283
  vertex -0.00615436072 0.0273738932 0.00740798283
  endloop
 endfacet

 facet normal 0 0.00348293595 -0.99999398
  outer loop
  vertex -0.00615436072 0.0273738932 0.00740798283
  vertex 0.0105460146 0.0273738932 0.00740798283
  vertex 0.0122884046 0.0128678409 0.00735745905
  endloop
 endfacet

 facet normal 0 0.00348293595 -0.99999398
  outer loop
  vertex -0.00615436072 0.0273738932 0.00740798283
  vertex 0.0122884046 0.0128678409 0.00735745905
  vertex 0.0105497055 0.0128678409 0.00735745905
  endloop
 endfacet

 facet normal 0.460521668 -0.887612224 -0.00802944787
  outer loop
  vertex 0.0107638137 0.00208802242 0.00735745905
  vertex 0.011284316 0.0023580757 0.00735745905
  vertex 0.0119358664 0.00262317294 0.0154214799
  endloop
 endfacet

 facet normal 0.402811378 -0.915280461 0.0021945124
  outer loop
  vertex 0.0107638137 0.00208802242 0.00735745905
  vertex 0.0119358664 0.00262317294 0.0154214799
  vertex 0.0114855021 0.00242496957 0.0154214799
  endloop
 endfacet

 facet normal 0.989244699 0.146267146 -0.000903822598
  outer loop
  vertex 0.0105460146 0.0273763705 0.00780901313
  vertex 0.0126981623 0.0128678409 0.0154214799
  vertex 0.0105460146 0.0273738932 0.00740798283
  endloop
 endfacet

 facet normal 0.998069942 -0.0358367339 -0.0507150255
  outer loop
  vertex 0.0126981623 0.0128678409 0.0154214799
  vertex 0.0126907788 0.012662204 0.0154214799
  vertex 0.0122884046 0.0128678409 0.00735745905
  endloop
 endfacet

 facet normal 0.991581559 0.11927902 -0.0503853336
  outer loop
  vertex 0.0126981623 0.0128678409 0.0154214799
  vertex 0.0122884046 0.0128678409 0.00735745905
  vertex 0.0105460146 0.0273738932 0.00740798283
  endloop
 endfacet

 facet normal 0.629848778 -0.776303351 -0.0253697839
  outer loop
  vertex 0.011284316 0.0023580757 0.00735745905
  vertex 0.0116996104 0.00269502215 0.00735745905
  vertex 0.0119358664 0.00262317294 0.0154214799
  endloop
 endfacet

 facet normal 0.926000953 -0.376288623 -0.0304822698
  outer loop
  vertex 0.0119358664 0.00262317294 0.0154214799
  vertex 0.0116996104 0.00269502215 0.00735745905
  vertex 0.0121352077 0.00311372778 0.0154214799
  endloop
 endfacet

 facet normal 0.997275233 -0.0552810542 -0.0488483906
  outer loop
  vertex 0.0126907788 0.012662204 0.0154214799
  vertex 0.0121702766 0.00327229151 0.0154214799
  vertex 0.0117752859 0.00327229151 0.00735745905
  endloop
 endfacet

 facet normal 0.997267663 -0.0533285737 -0.0511210524
  outer loop
  vertex 0.0126907788 0.012662204 0.0154214799
  vertex 0.0117752859 0.00327229151 0.00735745905
  vertex 0.0122884046 0.0128678409 0.00735745905
  endloop
 endfacet

 facet normal 0.990349233 -0.129827529 -0.0485091396
  outer loop
  vertex 0.0116996104 0.00269502215 0.00735745905
  vertex 0.0117752859 0.00327229151 0.00735745905
  vertex 0.0121702766 0.00327229151 0.0154214799
  endloop
 endfacet

 facet normal 0.975564122 -0.21576111 -0.0414945669
  outer loop
  vertex 0.0116996104 0.00269502215 0.00735745905
  vertex 0.0121702766 0.00327229151 0.0154214799
  vertex 0.0121352077 0.00311372778 0.0154214799
  endloop
 endfacet

endsolid AssimpScene
