solid AssimpScene
 facet normal -0.000264590111 0.00116748712 0.999999225
  outer loop
  vertex -0.0348067544 -0.0077165626 0.0169996992
  vertex -0.0383011848 -0.00850851275 0.0169996992
  vertex -0.0625759661 -0.0191195197 0.0170056652
  endloop
 endfacet

 facet normal -0.000262989081 0.00116358825 0.999999285
  outer loop
  vertex -0.0348067544 -0.0077165626 0.0169996992
  vertex -0.0625759661 -0.0191195197 0.0170056652
  vertex -0.0337515995 -0.0126047637 0.0170056652
  endloop
 endfacet

 facet normal -0.000234469946 0.0011697443 0.999999285
  outer loop
  vertex -0.0348067544 -0.0077165626 0.0169996992
  vertex -0.0337515995 -0.0126047637 0.0170056652
  vertex -0.0337019451 -0.0125948107 0.0170056652
  endloop
 endfacet

 facet normal 0.975300431 0.220882624 0
  outer loop
  vertex -0.0348067544 -0.0077165626 0.0169996992
  vertex -0.0337019451 -0.0125948107 0.0170056652
  vertex -0.0337019451 -0.0125948107 0.014904228
  endloop
 endfacet

 facet normal 0.975300431 0.220882624 0
  outer loop
  vertex -0.0348067544 -0.0077165626 0.0169996992
  vertex -0.0337019451 -0.0125948107 0.014904228
  vertex -0.0348067544 -0.0077165626 0.0150002902
  endloop
 endfacet

 facet normal -0.220537648 0.975378454 0
  outer loop
  vertex -0.0348067544 -0.0077165626 0.0169996992
  vertex -0.0348067544 -0.0077165626 0.0150002902
  vertex -0.0951430351 -0.0213588793 0.0150004961
  endloop
 endfacet

 facet normal -0.220537648 0.975378454 0
  outer loop
  vertex -0.0348067544 -0.0077165626 0.0169996992
  vertex -0.0951430351 -0.0213588793 0.0150004961
  vertex -0.0951430351 -0.0213588793 0.0169994943
  endloop
 endfacet

 facet normal -0.00146358879 0.0064579933 0.999978065
  outer loop
  vertex -0.0348067544 -0.0077165626 0.0169996992
  vertex -0.0951430351 -0.0213588793 0.0169994943
  vertex -0.0383011848 -0.00850851275 0.0169996992
  endloop
 endfacet

 facet normal -0.000270725403 0.00118152297 0.999999225
  outer loop
  vertex -0.0383011848 -0.00850851275 0.0169996992
  vertex -0.0951430351 -0.0213588793 0.0169994943
  vertex -0.0625759661 -0.0191195197 0.0170056652
  endloop
 endfacet

 facet normal 0 0 1
  outer loop
  vertex -0.0625759661 -0.0191195197 0.0170056652
  vertex -0.062743552 -0.0191593319 0.0170056652
  vertex -0.0629111379 -0.0192019846 0.0170056652
  endloop
 endfacet

 facet normal 0 0 1
  outer loop
  vertex -0.0625759661 -0.0191195197 0.0170056652
  vertex -0.0629111379 -0.0192019846 0.0170056652
  vertex -0.0630787164 -0.0192489047 0.0170056652
  endloop
 endfacet

 facet normal 0 0 1
  outer loop
  vertex -0.0625759661 -0.0191195197 0.0170056652
  vertex -0.0630787164 -0.0192489047 0.0170056652
  vertex -0.0632338896 -0.0192972478 0.0170056652
  endloop
 endfacet

 facet normal 0 0 1
  outer loop
  vertex -0.0625759661 -0.0191195197 0.0170056652
  vertex -0.0632338896 -0.0192972478 0.0170056652
  vertex -0.0633828491 -0.0193498544 0.0170056652
  endloop
 endfacet

 facet normal 0 0 1
  outer loop
  vertex -0.0625759661 -0.0191195197 0.0170056652
  vertex -0.0633828491 -0.0193498544 0.0170056652
  vertex -0.0635380223 -0.0194053054 0.0170056652
  endloop
 endfacet

 facet normal 0 0 1
  outer loop
  vertex -0.0625759661 -0.0191195197 0.0170056652
  vertex -0.0635380223 -0.0194053054 0.0170056652
  vertex -0.0636683628 -0.0194593333 0.0170056652
  endloop
 endfacet

 facet normal 0 0 1
  outer loop
  vertex -0.0625759661 -0.0191195197 0.0170056652
  vertex -0.0636683628 -0.0194593333 0.0170056652
  vertex -0.063804917 -0.0195176285 0.0170056652
  endloop
 endfacet

 facet normal 0 0 1
  outer loop
  vertex -0.0625759661 -0.0191195197 0.0170056652
  vertex -0.063804917 -0.0195176285 0.0170056652
  vertex -0.0639166385 -0.0195716564 0.0170056652
  endloop
 endfacet

 facet normal 0 0 1
  outer loop
  vertex -0.0625759661 -0.0191195197 0.0170056652
  vertex -0.0639166385 -0.0195716564 0.0170056652
  vertex -0.0640283599 -0.0196313746 0.0170056652
  endloop
 endfacet

 facet normal 0 0 1
  outer loop
  vertex -0.0625759661 -0.0191195197 0.0170056652
  vertex -0.0640283599 -0.0196313746 0.0170056652
  vertex -0.0642083585 -0.0197451189 0.0170056652
  endloop
 endfacet

 facet normal 0 0 1
  outer loop
  vertex -0.0625759661 -0.0191195197 0.0170056652
  vertex -0.0642083585 -0.0197451189 0.0170056652
  vertex -0.0642766282 -0.0198005699 0.0170056652
  endloop
 endfacet

 facet normal 0 0 1
  outer loop
  vertex -0.0625759661 -0.0191195197 0.0170056652
  vertex -0.0642766282 -0.0198005699 0.0170056652
  vertex -0.0643324926 -0.0198545977 0.0170056652
  endloop
 endfacet

 facet normal 0 0 1
  outer loop
  vertex -0.0625759661 -0.0191195197 0.0170056652
  vertex -0.0643324926 -0.0198545977 0.0170056652
  vertex -0.0643883571 -0.019932799 0.0170056652
  endloop
 endfacet

 facet normal 0 0 1
  outer loop
  vertex -0.0625759661 -0.0191195197 0.0170056652
  vertex -0.0643883571 -0.019932799 0.0170056652
  vertex -0.0644131824 -0.0199925136 0.0170056652
  endloop
 endfacet

 facet normal 0 0 1
  outer loop
  vertex -0.0625759661 -0.0191195197 0.0170056652
  vertex -0.0644131824 -0.0199925136 0.0170056652
  vertex -0.0644193888 -0.0200152639 0.0170056652
  endloop
 endfacet

 facet normal 0 0 1
  outer loop
  vertex -0.0625759661 -0.0191195197 0.0170056652
  vertex -0.0644193888 -0.0200152639 0.0170056652
  vertex -0.0644193888 -0.0200266391 0.0170056652
  endloop
 endfacet

 facet normal 0 0 1
  outer loop
  vertex -0.0625759661 -0.0191195197 0.0170056652
  vertex -0.0644193888 -0.0200266391 0.0170056652
  vertex -0.0639228448 -0.0222418271 0.0170056652
  endloop
 endfacet

 facet normal 0 0 1
  outer loop
  vertex -0.0625759661 -0.0191195197 0.0170056652
  vertex -0.0639228448 -0.0222418271 0.0170056652
  vertex -0.0588705093 -0.0222418271 0.0170056652
  endloop
 endfacet

 facet normal 0 0 1
  outer loop
  vertex -0.0625759661 -0.0191195197 0.0170056652
  vertex -0.0588705093 -0.0222418271 0.0170056652
  vertex -0.0322247259 -0.0191266295 0.0170056652
  endloop
 endfacet

 facet normal 0 0 1
  outer loop
  vertex -0.0625759661 -0.0191195197 0.0170056652
  vertex -0.0322247259 -0.0191266295 0.0170056652
  vertex -0.0337019451 -0.0125948107 0.0170056652
  endloop
 endfacet

 facet normal 0 0 1
  outer loop
  vertex -0.0625759661 -0.0191195197 0.0170056652
  vertex -0.0337019451 -0.0125948107 0.0170056652
  vertex -0.0337515995 -0.0126047637 0.0170056652
  endloop
 endfacet

 facet normal -0.000266670337 0.00112254976 0.999999285
  outer loop
  vertex -0.0625759661 -0.0191195197 0.0170056652
  vertex -0.0951430351 -0.0213588793 0.0169994943
  vertex -0.062743552 -0.0191593319 0.0170056652
  endloop
 endfacet

 facet normal 0.975367486 0.220586523 0
  outer loop
  vertex -0.0337019451 -0.0125948107 0.0170056652
  vertex -0.0322247259 -0.0191266295 0.0170056652
  vertex -0.0322247259 -0.0191266295 0.014904228
  endloop
 endfacet

 facet normal 0.975367486 0.220586523 0
  outer loop
  vertex -0.0337019451 -0.0125948107 0.0170056652
  vertex -0.0322247259 -0.0191266295 0.014904228
  vertex -0.0337019451 -0.0125948107 0.014904228
  endloop
 endfacet

 facet normal -0.00422708318 0.0187309869 -0.999815643
  outer loop
  vertex -0.0348067544 -0.0077165626 0.0150002902
  vertex -0.0337019451 -0.0125948107 0.014904228
  vertex -0.0383011848 -0.0136327362 0.014904228
  endloop
 endfacet

 facet normal -0.00423504878 0.0187356863 -0.999815464
  outer loop
  vertex -0.0348067544 -0.0077165626 0.0150002902
  vertex -0.0383011848 -0.0136327362 0.014904228
  vertex -0.0519002751 -0.0167066995 0.014904228
  endloop
 endfacet

 facet normal -0.0042390679 0.0187433288 -0.999815404
  outer loop
  vertex -0.0348067544 -0.0077165626 0.0150002902
  vertex -0.0519002751 -0.0167066995 0.014904228
  vertex -0.07144548 -0.0211271234 0.014904228
  endloop
 endfacet

 facet normal -0.00424506329 0.018759707 -0.999815106
  outer loop
  vertex -0.0348067544 -0.0077165626 0.0150002902
  vertex -0.07144548 -0.0211271234 0.014904228
  vertex -0.0951430351 -0.0213588793 0.0150004961
  endloop
 endfacet

 facet normal -0.220603153 0.975363672 0
  outer loop
  vertex -0.0951430351 -0.0213588793 0.0169994943
  vertex -0.0951430351 -0.0213588793 0.0150004961
  vertex -0.0956333727 -0.0214697812 0.0155005539
  endloop
 endfacet

 facet normal -0.220603153 0.975363672 0
  outer loop
  vertex -0.0951430351 -0.0213588793 0.0169994943
  vertex -0.0956333727 -0.0214697812 0.0155005539
  vertex -0.0956333727 -0.0214697812 0.0164994355
  endloop
 endfacet

 facet normal -0.224292204 0.974514484 0.00380564993
  outer loop
  vertex -0.0951430351 -0.0213588793 0.0169994943
  vertex -0.0956333727 -0.0214697812 0.0164994355
  vertex -0.095385097 -0.0214143302 0.0169324353
  endloop
 endfacet

 facet normal -0.242985487 0.96692431 0.0775597095
  outer loop
  vertex -0.0951430351 -0.0213588793 0.0169994943
  vertex -0.095385097 -0.0214143302 0.0169324353
  vertex -0.0952671692 -0.0213887375 0.0169828311
  endloop
 endfacet

 facet normal -0.264607012 0.797674656 0.541939378
  outer loop
  vertex -0.0951430351 -0.0213588793 0.0169994943
  vertex -0.0952671692 -0.0213887375 0.0169828311
  vertex -0.0951802731 -0.0213702545 0.0169980545
  endloop
 endfacet

 facet normal -0.0361881331 -0.00801095366 0.999312997
  outer loop
  vertex -0.0951430351 -0.0213588793 0.0169994943
  vertex -0.0951802731 -0.0213702545 0.0169980545
  vertex -0.0949816629 -0.0222418271 0.0169982594
  endloop
 endfacet

 facet normal -0.0283939466 -0.00658677332 0.999575078
  outer loop
  vertex -0.0951430351 -0.0213588793 0.0169994943
  vertex -0.0949816629 -0.0222418271 0.0169982594
  vertex -0.0949382111 -0.0222418271 0.0169994943
  endloop
 endfacet

 facet normal -0.000198962138 -4.61548552e-05 1
  outer loop
  vertex -0.0951430351 -0.0213588793 0.0169994943
  vertex -0.0949382111 -0.0222418271 0.0169994943
  vertex -0.0639228448 -0.0222418271 0.0170056652
  endloop
 endfacet

 facet normal -0.000198917856 -4.45882833e-05 1
  outer loop
  vertex -0.0951430351 -0.0213588793 0.0169994943
  vertex -0.0639228448 -0.0222418271 0.0170056652
  vertex -0.0644193888 -0.0200266391 0.0170056652
  endloop
 endfacet

 facet normal -0.000200851282 0 1
  outer loop
  vertex -0.0951430351 -0.0213588793 0.0169994943
  vertex -0.0644193888 -0.0200266391 0.0170056652
  vertex -0.0644193888 -0.0200152639 0.0170056652
  endloop
 endfacet

 facet normal -0.000203276722 5.54608669e-05 1
  outer loop
  vertex -0.0951430351 -0.0213588793 0.0169994943
  vertex -0.0644193888 -0.0200152639 0.0170056652
  vertex -0.0644131824 -0.0199925136 0.0170056652
  endloop
 endfacet

 facet normal -0.000204592798 8.50600627e-05 1
  outer loop
  vertex -0.0951430351 -0.0213588793 0.0169994943
  vertex -0.0644131824 -0.0199925136 0.0170056652
  vertex -0.0643883571 -0.019932799 0.0170056652
  endloop
 endfacet

 facet normal -0.000207522477 0.000148241204 0.99999994
  outer loop
  vertex -0.0951430351 -0.0213588793 0.0169994943
  vertex -0.0643883571 -0.019932799 0.0170056652
  vertex -0.0643324926 -0.0198545977 0.0170056652
  endloop
 endfacet

 facet normal -0.000210932572 0.000218086498 0.99999994
  outer loop
  vertex -0.0951430351 -0.0213588793 0.0169994943
  vertex -0.0643324926 -0.0198545977 0.0170056652
  vertex -0.0642766282 -0.0198005699 0.0170056652
  endloop
 endfacet

 facet normal -0.00021317348 0.000262473302 0.99999994
  outer loop
  vertex -0.0951430351 -0.0213588793 0.0169994943
  vertex -0.0642766282 -0.0198005699 0.0170056652
  vertex -0.0642083585 -0.0197451189 0.0170056652
  endloop
 endfacet

 facet normal -0.000217430352 0.000344075554 0.999999881
  outer loop
  vertex -0.0951430351 -0.0213588793 0.0169994943
  vertex -0.0642083585 -0.0197451189 0.0170056652
  vertex -0.0640283599 -0.0196313746 0.0170056652
  endloop
 endfacet

 facet normal -0.00022131564 0.00041405388 0.99999994
  outer loop
  vertex -0.0951430351 -0.0213588793 0.0169994943
  vertex -0.0640283599 -0.0196313746 0.0170056652
  vertex -0.0639166385 -0.0195716564 0.0170056652
  endloop
 endfacet

 facet normal -0.000224145333 0.00046349474 0.999999881
  outer loop
  vertex -0.0951430351 -0.0213588793 0.0169994943
  vertex -0.0639166385 -0.0195716564 0.0170056652
  vertex -0.063804917 -0.0195176285 0.0170056652
  endloop
 endfacet

 facet normal -0.000228338409 0.000534861465 0.999999881
  outer loop
  vertex -0.0951430351 -0.0213588793 0.0169994943
  vertex -0.063804917 -0.0195176285 0.0170056652
  vertex -0.0636683628 -0.0194593333 0.0170056652
  endloop
 endfacet

 facet normal -0.000229468482 0.000553585996 0.999999881
  outer loop
  vertex -0.0951430351 -0.0213588793 0.0169994943
  vertex -0.0636683628 -0.0194593333 0.0170056652
  vertex -0.0635380223 -0.0194053054 0.0170056652
  endloop
 endfacet

 facet normal -0.00023608614 0.000660647464 0.999999702
  outer loop
  vertex -0.0951430351 -0.0213588793 0.0169994943
  vertex -0.0635380223 -0.0194053054 0.0170056652
  vertex -0.0633828491 -0.0193498544 0.0170056652
  endloop
 endfacet

 facet normal -0.000236691601 0.000670219131 0.999999702
  outer loop
  vertex -0.0951430351 -0.0213588793 0.0169994943
  vertex -0.0633828491 -0.0193498544 0.0170056652
  vertex -0.0632338896 -0.0192972478 0.0170056652
  endloop
 endfacet

 facet normal -0.000243989169 0.000783167954 0.999999702
  outer loop
  vertex -0.0951430351 -0.0213588793 0.0169994943
  vertex -0.0632338896 -0.0192972478 0.0170056652
  vertex -0.0630787164 -0.0192489047 0.0170056652
  endloop
 endfacet

 facet normal -0.000251584017 0.000898583909 0.999999523
  outer loop
  vertex -0.0951430351 -0.0213588793 0.0169994943
  vertex -0.0630787164 -0.0192489047 0.0170056652
  vertex -0.0629111379 -0.0192019846 0.0170056652
  endloop
 endfacet

 facet normal -0.000259741646 0.00102048903 0.999999464
  outer loop
  vertex -0.0951430351 -0.0213588793 0.0169994943
  vertex -0.0629111379 -0.0192019846 0.0170056652
  vertex -0.062743552 -0.0191593319 0.0170056652
  endloop
 endfacet

 facet normal 0 0 -1
  outer loop
  vertex -0.0337019451 -0.0125948107 0.014904228
  vertex -0.0322247259 -0.0191266295 0.014904228
  vertex -0.0629049316 -0.0222418271 0.014904228
  endloop
 endfacet

 facet normal 0 0 -1
  outer loop
  vertex -0.0337019451 -0.0125948107 0.014904228
  vertex -0.0629049316 -0.0222418271 0.014904228
  vertex -0.0718737543 -0.0222418271 0.014904228
  endloop
 endfacet

 facet normal 0 0 -1
  outer loop
  vertex -0.0337019451 -0.0125948107 0.014904228
  vertex -0.0718737543 -0.0222418271 0.014904228
  vertex -0.0719358176 -0.0219716821 0.014904228
  endloop
 endfacet

 facet normal 0 0 -1
  outer loop
  vertex -0.0337019451 -0.0125948107 0.014904228
  vertex -0.0719358176 -0.0219716821 0.014904228
  vertex -0.0719916821 -0.0217200201 0.014904228
  endloop
 endfacet

 facet normal 0 0 -1
  outer loop
  vertex -0.0337019451 -0.0125948107 0.014904228
  vertex -0.0719916821 -0.0217200201 0.014904228
  vertex -0.0719916821 -0.0215892121 0.014904228
  endloop
 endfacet

 facet normal 0 0 -1
  outer loop
  vertex -0.0337019451 -0.0125948107 0.014904228
  vertex -0.0719916821 -0.0215892121 0.014904228
  vertex -0.0719730631 -0.0215024818 0.014904228
  endloop
 endfacet

 facet normal 0 0 -1
  outer loop
  vertex -0.0337019451 -0.0125948107 0.014904228
  vertex -0.0719730631 -0.0215024818 0.014904228
  vertex -0.0719606504 -0.0214626715 0.014904228
  endloop
 endfacet

 facet normal 0 0 -1
  outer loop
  vertex -0.0337019451 -0.0125948107 0.014904228
  vertex -0.0719606504 -0.0214626715 0.014904228
  vertex -0.0719420239 -0.0214228611 0.014904228
  endloop
 endfacet

 facet normal 0 0 -1
  outer loop
  vertex -0.0337019451 -0.0125948107 0.014904228
  vertex -0.0719420239 -0.0214228611 0.014904228
  vertex -0.0719171986 -0.0213830508 0.014904228
  endloop
 endfacet

 facet normal 0 0 -1
  outer loop
  vertex -0.0337019451 -0.0125948107 0.014904228
  vertex -0.0719171986 -0.0213830508 0.014904228
  vertex -0.0718923733 -0.0213489272 0.014904228
  endloop
 endfacet

 facet normal 0 0 -1
  outer loop
  vertex -0.0337019451 -0.0125948107 0.014904228
  vertex -0.0718923733 -0.0213489272 0.014904228
  vertex -0.0718365088 -0.0212835222 0.014904228
  endloop
 endfacet

 facet normal 0 0 -1
  outer loop
  vertex -0.0337019451 -0.0125948107 0.014904228
  vertex -0.0718365088 -0.0212835222 0.014904228
  vertex -0.0717682391 -0.0212294944 0.014904228
  endloop
 endfacet

 facet normal 0 0 -1
  outer loop
  vertex -0.0337019451 -0.0125948107 0.014904228
  vertex -0.0717682391 -0.0212294944 0.014904228
  vertex -0.0717309937 -0.0212081671 0.014904228
  endloop
 endfacet

 facet normal 0 0 -1
  outer loop
  vertex -0.0337019451 -0.0125948107 0.014904228
  vertex -0.0717309937 -0.0212081671 0.014904228
  vertex -0.0716875494 -0.021189684 0.014904228
  endloop
 endfacet

 facet normal 0 0 -1
  outer loop
  vertex -0.0337019451 -0.0125948107 0.014904228
  vertex -0.0716875494 -0.021189684 0.014904228
  vertex -0.0716440976 -0.0211754646 0.014904228
  endloop
 endfacet

 facet normal 0 0 -1
  outer loop
  vertex -0.0337019451 -0.0125948107 0.014904228
  vertex -0.0716440976 -0.0211754646 0.014904228
  vertex -0.0716068596 -0.0211640913 0.014904228
  endloop
 endfacet

 facet normal 0 0 -1
  outer loop
  vertex -0.0337019451 -0.0125948107 0.014904228
  vertex -0.0716068596 -0.0211640913 0.014904228
  vertex -0.07144548 -0.0211271234 0.014904228
  endloop
 endfacet

 facet normal 0 0 -1
  outer loop
  vertex -0.0337019451 -0.0125948107 0.014904228
  vertex -0.07144548 -0.0211271234 0.014904228
  vertex -0.0519002751 -0.0167066995 0.014904228
  endloop
 endfacet

 facet normal 0 0 -1
  outer loop
  vertex -0.0337019451 -0.0125948107 0.014904228
  vertex -0.0519002751 -0.0167066995 0.014904228
  vertex -0.0383011848 -0.0136327362 0.014904228
  endloop
 endfacet

 facet normal 0.116120562 -0.993235111 0
  outer loop
  vertex -0.0322247259 -0.0191266295 0.0170056652
  vertex -0.0588705093 -0.0222418271 0.0170056652
  vertex -0.0588705093 -0.0222418271 0.0162059013
  endloop
 endfacet

 facet normal 0.116120562 -0.993235111 0
  outer loop
  vertex -0.0322247259 -0.0191266295 0.0170056652
  vertex -0.0588705093 -0.0222418271 0.0162059013
  vertex -0.0322247259 -0.0191266295 0.014904228
  endloop
 endfacet

 facet normal -0.00424275082 0.0185213778 -0.999819577
  outer loop
  vertex -0.07144548 -0.0211271234 0.014904228
  vertex -0.0716068596 -0.0211640913 0.014904228
  vertex -0.0951430351 -0.0213588793 0.0150004961
  endloop
 endfacet

 facet normal -0.00420368742 0.0137633076 -0.999896467
  outer loop
  vertex -0.0951430351 -0.0213588793 0.0150004961
  vertex -0.0716068596 -0.0211640913 0.014904228
  vertex -0.0716440976 -0.0211754646 0.014904228
  endloop
 endfacet

 facet normal -0.00419639843 0.0128230276 -0.999908924
  outer loop
  vertex -0.0951430351 -0.0213588793 0.0150004961
  vertex -0.0716440976 -0.0211754646 0.014904228
  vertex -0.0716875494 -0.021189684 0.014904228
  endloop
 endfacet

 facet normal -0.00417483086 0.0098135611 -0.999943197
  outer loop
  vertex -0.0951430351 -0.0213588793 0.0150004961
  vertex -0.0716875494 -0.021189684 0.014904228
  vertex -0.0717309937 -0.0212081671 0.014904228
  endloop
 endfacet

 facet normal -0.00415848987 0.0072612795 -0.999964952
  outer loop
  vertex -0.0951430351 -0.0213588793 0.0150004961
  vertex -0.0717309937 -0.0212081671 0.014904228
  vertex -0.0717682391 -0.0212294944 0.014904228
  endloop
 endfacet

 facet normal -0.00414735917 0.00524094049 -0.999977589
  outer loop
  vertex -0.0951430351 -0.0213588793 0.0150004961
  vertex -0.0717682391 -0.0212294944 0.014904228
  vertex -0.0718365088 -0.0212835222 0.014904228
  endloop
 endfacet

 facet normal -0.00414188299 0.00353756803 -0.999985158
  outer loop
  vertex -0.0951430351 -0.0213588793 0.0150004961
  vertex -0.0718365088 -0.0212835222 0.014904228
  vertex -0.0718923733 -0.0213489272 0.014904228
  endloop
 endfacet

 facet normal -0.00414166506 0.00301334052 -0.999986827
  outer loop
  vertex -0.0951430351 -0.0213588793 0.0150004961
  vertex -0.0718923733 -0.0213489272 0.014904228
  vertex -0.0719171986 -0.0213830508 0.014904228
  endloop
 endfacet

 facet normal -0.00414211815 0.00258317264 -0.999988079
  outer loop
  vertex -0.0951430351 -0.0213588793 0.0150004961
  vertex -0.0719171986 -0.0213830508 0.014904228
  vertex -0.0719420239 -0.0214228611 0.014904228
  endloop
 endfacet

 facet normal -0.00414390303 0.00193818868 -0.99998951
  outer loop
  vertex -0.0951430351 -0.0213588793 0.0150004961
  vertex -0.0719420239 -0.0214228611 0.014904228
  vertex -0.0719606504 -0.0214626715 0.014904228
  endloop
 endfacet

 facet normal -0.00414679619 0.00129299366 -0.999990582
  outer loop
  vertex -0.0951430351 -0.0213588793 0.0150004961
  vertex -0.0719606504 -0.0214626715 0.014904228
  vertex -0.0719730631 -0.0215024818 0.014904228
  endloop
 endfacet

 facet normal -0.00414929027 0.000890864292 -0.99999094
  outer loop
  vertex -0.0951430351 -0.0213588793 0.0150004961
  vertex -0.0719730631 -0.0215024818 0.014904228
  vertex -0.0719916821 -0.0215892121 0.014904228
  endloop
 endfacet

 facet normal -0.00415815506 0 -0.999991357
  outer loop
  vertex -0.0951430351 -0.0213588793 0.0150004961
  vertex -0.0719916821 -0.0215892121 0.014904228
  vertex -0.0719916821 -0.0217200201 0.014904228
  endloop
 endfacet

 facet normal -0.00417260081 -0.000926202512 -0.99999088
  outer loop
  vertex -0.0951430351 -0.0213588793 0.0150004961
  vertex -0.0719916821 -0.0217200201 0.014904228
  vertex -0.0719358176 -0.0219716821 0.014904228
  endloop
 endfacet

 facet normal -0.00417346414 -0.000958888617 -0.99999088
  outer loop
  vertex -0.0951430351 -0.0213588793 0.0150004961
  vertex -0.0719358176 -0.0219716821 0.014904228
  vertex -0.0718737543 -0.0222418271 0.014904228
  endloop
 endfacet

 facet normal -0.00417381898 -0.000968234439 -0.99999088
  outer loop
  vertex -0.0951430351 -0.0213588793 0.0150004961
  vertex -0.0718737543 -0.0222418271 0.014904228
  vertex -0.0949382111 -0.0222418271 0.0150004961
  endloop
 endfacet

 facet normal -0.0331174508 -0.00768252229 -0.999422014
  outer loop
  vertex -0.0951430351 -0.0213588793 0.0150004961
  vertex -0.0949382111 -0.0222418271 0.0150004961
  vertex -0.0949816629 -0.0222418271 0.0150019359
  endloop
 endfacet

 facet normal -0.036120858 -0.00823127944 -0.999313653
  outer loop
  vertex -0.0951430351 -0.0213588793 0.0150004961
  vertex -0.0949816629 -0.0222418271 0.0150019359
  vertex -0.0951802731 -0.0213702545 0.0150019359
  endloop
 endfacet

 facet normal -0.265595853 0.801736712 -0.535422444
  outer loop
  vertex -0.0951430351 -0.0213588793 0.0150004961
  vertex -0.0951802731 -0.0213702545 0.0150019359
  vertex -0.0952671692 -0.0213887375 0.0150173632
  endloop
 endfacet

 facet normal -0.243205369 0.966796398 -0.0784591362
  outer loop
  vertex -0.0951430351 -0.0213588793 0.0150004961
  vertex -0.0952671692 -0.0213887375 0.0150173632
  vertex -0.095385097 -0.0214143302 0.015067555
  endloop
 endfacet

 facet normal -0.224292204 0.974514484 -0.00380564993
  outer loop
  vertex -0.0951430351 -0.0213588793 0.0150004961
  vertex -0.095385097 -0.0214143302 0.015067555
  vertex -0.0956333727 -0.0214697812 0.0155005539
  endloop
 endfacet

 facet normal -0.973882556 -0.227052614 0
  outer loop
  vertex -0.0956333727 -0.0214697812 0.0164994355
  vertex -0.0956333727 -0.0214697812 0.0155005539
  vertex -0.0954533741 -0.0222418271 0.0155005539
  endloop
 endfacet

 facet normal -0.973882556 -0.227052614 0
  outer loop
  vertex -0.0956333727 -0.0214697812 0.0164994355
  vertex -0.0954533741 -0.0222418271 0.0155005539
  vertex -0.0954533741 -0.0222418271 0.0165066347
  endloop
 endfacet

 facet normal -0.971662641 -0.225885808 0.0696225241
  outer loop
  vertex -0.0956333727 -0.0214697812 0.0164994355
  vertex -0.0954533741 -0.0222418271 0.0165066347
  vertex -0.0954471752 -0.0222418271 0.0165932346
  endloop
 endfacet

 facet normal -0.966704965 -0.216593117 0.136267632
  outer loop
  vertex -0.0956333727 -0.0214697812 0.0164994355
  vertex -0.0954471752 -0.0222418271 0.0165932346
  vertex -0.0956271663 -0.0214697812 0.0165434554
  endloop
 endfacet

 facet normal -0.986775339 0.0832260847 0.139096782
  outer loop
  vertex -0.0956333727 -0.0214697812 0.0164994355
  vertex -0.0956271663 -0.0214697812 0.0165434554
  vertex -0.09562096 -0.0214683581 0.0165866539
  endloop
 endfacet

 facet normal -0.31863609 0.947405279 0.0299058538
  outer loop
  vertex -0.0956333727 -0.0214697812 0.0164994355
  vertex -0.09562096 -0.0214683581 0.0165866539
  vertex -0.0955961347 -0.0214626715 0.0166709907
  endloop
 endfacet

 facet normal -0.253920615 0.96710813 0.0150418496
  outer loop
  vertex -0.0956333727 -0.0214697812 0.0164994355
  vertex -0.0955961347 -0.0214626715 0.0166709907
  vertex -0.0955775082 -0.021458406 0.0167111009
  endloop
 endfacet

 facet normal -0.25124377 0.967818201 0.0142972432
  outer loop
  vertex -0.0956333727 -0.0214697812 0.0164994355
  vertex -0.0955775082 -0.021458406 0.0167111009
  vertex -0.0955588892 -0.0214541405 0.0167495683
  endloop
 endfacet

 facet normal -0.240290105 0.970640361 0.0108591225
  outer loop
  vertex -0.0956333727 -0.0214697812 0.0164994355
  vertex -0.0955588892 -0.0214541405 0.0167495683
  vertex -0.0955154449 -0.0214441884 0.0168213565
  endloop
 endfacet

 facet normal -0.229938686 0.97318089 0.00686513726
  outer loop
  vertex -0.0956333727 -0.0214697812 0.0164994355
  vertex -0.0955154449 -0.0214441884 0.0168213565
  vertex -0.0954844132 -0.0214370787 0.0168530345
  endloop
 endfacet

 facet normal -0.229287416 0.973336637 0.0065763602
  outer loop
  vertex -0.0956333727 -0.0214697812 0.0164994355
  vertex -0.0954844132 -0.0214370787 0.0168530345
  vertex -0.0954533741 -0.021429969 0.016882861
  endloop
 endfacet

 facet normal -0.227060422 0.97386539 0.00547601515
  outer loop
  vertex -0.0956333727 -0.0214697812 0.0164994355
  vertex -0.0954533741 -0.021429969 0.016882861
  vertex -0.095385097 -0.0214143302 0.0169324353
  endloop
 endfacet

 facet normal -0.52188164 -0.120347723 0.8444857
  outer loop
  vertex -0.095385097 -0.0214143302 0.0169324353
  vertex -0.0952671692 -0.0222418271 0.0168873873
  vertex -0.0951616541 -0.0222418271 0.0169525947
  endloop
 endfacet

 facet normal -0.405135006 -0.0872252211 0.910086513
  outer loop
  vertex -0.095385097 -0.0214143302 0.0169324353
  vertex -0.0951616541 -0.0222418271 0.0169525947
  vertex -0.0953416526 -0.0214057993 0.0169525947
  endloop
 endfacet

 facet normal -0.370582581 0.808951795 0.456361294
  outer loop
  vertex -0.095385097 -0.0214143302 0.0169324353
  vertex -0.0953416526 -0.0214057993 0.0169525947
  vertex -0.0952671692 -0.0213887375 0.0169828311
  endloop
 endfacet

 facet normal -0.564061522 -0.124821447 0.816244006
  outer loop
  vertex -0.095385097 -0.0214143302 0.0169324353
  vertex -0.0954533741 -0.021429969 0.016882861
  vertex -0.0952671692 -0.0222418271 0.0168873873
  endloop
 endfacet

 facet normal -0.397968143 0.711986721 0.578529477
  outer loop
  vertex -0.0952671692 -0.0213887375 0.0169828311
  vertex -0.0953416526 -0.0214057993 0.0169525947
  vertex -0.0953044146 -0.0213986896 0.016969461
  endloop
 endfacet

 facet normal -0.319666684 -0.0729503781 0.944717646
  outer loop
  vertex -0.0952671692 -0.0213887375 0.0169828311
  vertex -0.0953044146 -0.0213986896 0.016969461
  vertex -0.0951120034 -0.0222418271 0.016969461
  endloop
 endfacet

 facet normal -0.293436497 -0.0683175847 0.953534365
  outer loop
  vertex -0.0952671692 -0.0213887375 0.0169828311
  vertex -0.0951120034 -0.0222418271 0.016969461
  vertex -0.0950685591 -0.0222418271 0.0169828311
  endloop
 endfacet

 facet normal -0.245845854 -0.0572375767 0.967617512
  outer loop
  vertex -0.0952671692 -0.0213887375 0.0169828311
  vertex -0.0950685591 -0.0222418271 0.0169828311
  vertex -0.0950313136 -0.0222418271 0.0169922933
  endloop
 endfacet

 facet normal -0.179561719 -0.0387412272 0.98298353
  outer loop
  vertex -0.0952671692 -0.0213887375 0.0169828311
  vertex -0.0950313136 -0.0222418271 0.0169922933
  vertex -0.0952175185 -0.0213787835 0.0169922933
  endloop
 endfacet

 facet normal -0.265623063 0.754056573 0.600702226
  outer loop
  vertex -0.0952671692 -0.0213887375 0.0169828311
  vertex -0.0952175185 -0.0213787835 0.0169922933
  vertex -0.0951802731 -0.0213702545 0.0169980545
  endloop
 endfacet

 facet normal -0.11924006 -0.0269385651 0.992499948
  outer loop
  vertex -0.0951802731 -0.0213702545 0.0169980545
  vertex -0.0950313136 -0.0222418271 0.0169922933
  vertex -0.0949816629 -0.0222418271 0.0169982594
  endloop
 endfacet

 facet normal -0.14572677 -0.0314411893 0.988825202
  outer loop
  vertex -0.0951802731 -0.0213702545 0.0169980545
  vertex -0.0952175185 -0.0213787835 0.0169922933
  vertex -0.0950313136 -0.0222418271 0.0169922933
  endloop
 endfacet

 facet normal 0 -1 0
  outer loop
  vertex -0.0949816629 -0.0222418271 0.0169982594
  vertex -0.0950313136 -0.0222418271 0.0169922933
  vertex -0.0950685591 -0.0222418271 0.0169828311
  endloop
 endfacet

 facet normal 0 -1 0
  outer loop
  vertex -0.0949816629 -0.0222418271 0.0169982594
  vertex -0.0950685591 -0.0222418271 0.0169828311
  vertex -0.0951120034 -0.0222418271 0.016969461
  endloop
 endfacet

 facet normal 0 -1 0
  outer loop
  vertex -0.0949816629 -0.0222418271 0.0169982594
  vertex -0.0951120034 -0.0222418271 0.016969461
  vertex -0.0951616541 -0.0222418271 0.0169525947
  endloop
 endfacet

 facet normal 0 -1 0
  outer loop
  vertex -0.0949816629 -0.0222418271 0.0169982594
  vertex -0.0951616541 -0.0222418271 0.0169525947
  vertex -0.0952671692 -0.0222418271 0.0168873873
  endloop
 endfacet

 facet normal 0 -1 0
  outer loop
  vertex -0.0949816629 -0.0222418271 0.0169982594
  vertex -0.0952671692 -0.0222418271 0.0168873873
  vertex -0.0953044146 -0.0222418271 0.0168530345
  endloop
 endfacet

 facet normal 0 -1 0
  outer loop
  vertex -0.0949816629 -0.0222418271 0.0169982594
  vertex -0.0953044146 -0.0222418271 0.0168530345
  vertex -0.0953354463 -0.0222418271 0.0168213565
  endloop
 endfacet

 facet normal 0 -1 0
  outer loop
  vertex -0.0949816629 -0.0222418271 0.0169982594
  vertex -0.0953354463 -0.0222418271 0.0168213565
  vertex -0.095385097 -0.0222418271 0.0167495683
  endloop
 endfacet

 facet normal 0 -1 0
  outer loop
  vertex -0.0949816629 -0.0222418271 0.0169982594
  vertex -0.095385097 -0.0222418271 0.0167495683
  vertex -0.0954161361 -0.0222418271 0.0166773666
  endloop
 endfacet

 facet normal 0 -1 0
  outer loop
  vertex -0.0949816629 -0.0222418271 0.0169982594
  vertex -0.0954161361 -0.0222418271 0.0166773666
  vertex -0.0954347551 -0.0222418271 0.0166292321
  endloop
 endfacet

 facet normal 0 -1 0
  outer loop
  vertex -0.0949816629 -0.0222418271 0.0169982594
  vertex -0.0954347551 -0.0222418271 0.0166292321
  vertex -0.0954471752 -0.0222418271 0.0165932346
  endloop
 endfacet

 facet normal 0 -1 0
  outer loop
  vertex -0.0949816629 -0.0222418271 0.0169982594
  vertex -0.0954471752 -0.0222418271 0.0165932346
  vertex -0.0954533741 -0.0222418271 0.0165066347
  endloop
 endfacet

 facet normal 0 -1 0
  outer loop
  vertex -0.0949816629 -0.0222418271 0.0169982594
  vertex -0.0954533741 -0.0222418271 0.0165066347
  vertex -0.0954533741 -0.0222418271 0.0155005539
  endloop
 endfacet

 facet normal 0 -1 0
  outer loop
  vertex -0.0949816629 -0.0222418271 0.0169982594
  vertex -0.0954533741 -0.0222418271 0.0155005539
  vertex -0.0954471752 -0.0222418271 0.0154133365
  endloop
 endfacet

 facet normal 0 -1 0
  outer loop
  vertex -0.0949816629 -0.0222418271 0.0169982594
  vertex -0.0954471752 -0.0222418271 0.0154133365
  vertex -0.0954347551 -0.0222418271 0.0153707573
  endloop
 endfacet

 facet normal 0 -1 0
  outer loop
  vertex -0.0949816629 -0.0222418271 0.0169982594
  vertex -0.0954347551 -0.0222418271 0.0153707573
  vertex -0.0954223424 -0.0222418271 0.0153359938
  endloop
 endfacet

 facet normal 0 -1 0
  outer loop
  vertex -0.0949816629 -0.0222418271 0.0169982594
  vertex -0.0954223424 -0.0222418271 0.0153359938
  vertex -0.095385097 -0.0222418271 0.0152504221
  endloop
 endfacet

 facet normal 0 -1 0
  outer loop
  vertex -0.0949816629 -0.0222418271 0.0169982594
  vertex -0.095385097 -0.0222418271 0.0152504221
  vertex -0.0953354463 -0.0222418271 0.0151843922
  endloop
 endfacet

 facet normal 0 -1 0
  outer loop
  vertex -0.0949816629 -0.0222418271 0.0169982594
  vertex -0.0953354463 -0.0222418271 0.0151843922
  vertex -0.0953044146 -0.0222418271 0.0151469549
  endloop
 endfacet

 facet normal 0 -1 0
  outer loop
  vertex -0.0949816629 -0.0222418271 0.0169982594
  vertex -0.0953044146 -0.0222418271 0.0151469549
  vertex -0.0952299312 -0.0222418271 0.0150905931
  endloop
 endfacet

 facet normal 0 -1 0
  outer loop
  vertex -0.0949816629 -0.0222418271 0.0169982594
  vertex -0.0952299312 -0.0222418271 0.0150905931
  vertex -0.0951616541 -0.0222418271 0.0150473956
  endloop
 endfacet

 facet normal 0 -1 0
  outer loop
  vertex -0.0949816629 -0.0222418271 0.0169982594
  vertex -0.0951616541 -0.0222418271 0.0150473956
  vertex -0.0950809717 -0.0222418271 0.0150196264
  endloop
 endfacet

 facet normal 0 -1 0
  outer loop
  vertex -0.0949816629 -0.0222418271 0.0169982594
  vertex -0.0950809717 -0.0222418271 0.0150196264
  vertex -0.0950313136 -0.0222418271 0.0150076952
  endloop
 endfacet

 facet normal 0 -1 0
  outer loop
  vertex -0.0949816629 -0.0222418271 0.0169982594
  vertex -0.0950313136 -0.0222418271 0.0150076952
  vertex -0.0949816629 -0.0222418271 0.0150019359
  endloop
 endfacet

 facet normal 0 -1 0
  outer loop
  vertex -0.0949816629 -0.0222418271 0.0169982594
  vertex -0.0949816629 -0.0222418271 0.0150019359
  vertex -0.0949382111 -0.0222418271 0.0150004961
  endloop
 endfacet

 facet normal 0 -1 0
  outer loop
  vertex -0.0949816629 -0.0222418271 0.0169982594
  vertex -0.0949382111 -0.0222418271 0.0150004961
  vertex -0.0718737543 -0.0222418271 0.014904228
  endloop
 endfacet

 facet normal 0 -1 0
  outer loop
  vertex -0.0949816629 -0.0222418271 0.0169982594
  vertex -0.0718737543 -0.0222418271 0.014904228
  vertex -0.0629049316 -0.0222418271 0.014904228
  endloop
 endfacet

 facet normal 0 -1 0
  outer loop
  vertex -0.0949816629 -0.0222418271 0.0169982594
  vertex -0.0629049316 -0.0222418271 0.014904228
  vertex -0.0588705093 -0.0222418271 0.0162059013
  endloop
 endfacet

 facet normal 0 -1 0
  outer loop
  vertex -0.0949816629 -0.0222418271 0.0169982594
  vertex -0.0588705093 -0.0222418271 0.0162059013
  vertex -0.0588705093 -0.0222418271 0.0170056652
  endloop
 endfacet

 facet normal 0 -1 0
  outer loop
  vertex -0.0949816629 -0.0222418271 0.0169982594
  vertex -0.0588705093 -0.0222418271 0.0170056652
  vertex -0.0639228448 -0.0222418271 0.0170056652
  endloop
 endfacet

 facet normal 0 -1 0
  outer loop
  vertex -0.0949816629 -0.0222418271 0.0169982594
  vertex -0.0639228448 -0.0222418271 0.0170056652
  vertex -0.0949382111 -0.0222418271 0.0169994943
  endloop
 endfacet

 facet normal 0.0964035317 -0.94943589 -0.298794091
  outer loop
  vertex -0.0322247259 -0.0191266295 0.014904228
  vertex -0.0588705093 -0.0222418271 0.0162059013
  vertex -0.0629049316 -0.0222418271 0.014904228
  endloop
 endfacet

 facet normal -0.115189329 -0.0262495317 -0.992996633
  outer loop
  vertex -0.0949816629 -0.0222418271 0.0150019359
  vertex -0.0950313136 -0.0222418271 0.0150076952
  vertex -0.0951802731 -0.0213702545 0.0150019359
  endloop
 endfacet

 facet normal -0.266305178 0.784344375 -0.560254812
  outer loop
  vertex -0.0951802731 -0.0213702545 0.0150019359
  vertex -0.0952175185 -0.0213787835 0.0150076952
  vertex -0.0952671692 -0.0213887375 0.0150173632
  endloop
 endfacet

 facet normal -0.14572677 -0.0314411893 -0.988825202
  outer loop
  vertex -0.0951802731 -0.0213702545 0.0150019359
  vertex -0.0950313136 -0.0222418271 0.0150076952
  vertex -0.0952175185 -0.0213787835 0.0150076952
  endloop
 endfacet

 facet normal -0.392866939 0.729513049 -0.559880674
  outer loop
  vertex -0.0952671692 -0.0213887375 0.0150173632
  vertex -0.0953044146 -0.0213986896 0.0150305284
  vertex -0.0953416526 -0.0214057993 0.0150473956
  endloop
 endfacet

 facet normal -0.365662515 0.819477022 -0.441303015
  outer loop
  vertex -0.0952671692 -0.0213887375 0.0150173632
  vertex -0.0953416526 -0.0214057993 0.0150473956
  vertex -0.095385097 -0.0214143302 0.015067555
  endloop
 endfacet

 facet normal -0.183326244 -0.0395534411 -0.982256114
  outer loop
  vertex -0.0952671692 -0.0213887375 0.0150173632
  vertex -0.0952175185 -0.0213787835 0.0150076952
  vertex -0.0950313136 -0.0222418271 0.0150076952
  endloop
 endfacet

 facet normal -0.233280569 -0.0534928404 -0.970937014
  outer loop
  vertex -0.0952671692 -0.0213887375 0.0150173632
  vertex -0.0950313136 -0.0222418271 0.0150076952
  vertex -0.0950809717 -0.0222418271 0.0150196264
  endloop
 endfacet

 facet normal -0.315425366 -0.0713568926 -0.94626385
  outer loop
  vertex -0.0952671692 -0.0213887375 0.0150173632
  vertex -0.0950809717 -0.0222418271 0.0150196264
  vertex -0.0953044146 -0.0213986896 0.0150305284
  endloop
 endfacet

 facet normal -0.405135006 -0.0872252211 -0.910086513
  outer loop
  vertex -0.095385097 -0.0214143302 0.015067555
  vertex -0.0953416526 -0.0214057993 0.0150473956
  vertex -0.0951616541 -0.0222418271 0.0150473956
  endloop
 endfacet

 facet normal -0.530610442 -0.122846454 -0.838666439
  outer loop
  vertex -0.095385097 -0.0214143302 0.015067555
  vertex -0.0951616541 -0.0222418271 0.0150473956
  vertex -0.0952299312 -0.0222418271 0.0150905931
  endloop
 endfacet

 facet normal -0.563259721 -0.128344625 -0.816251278
  outer loop
  vertex -0.095385097 -0.0214143302 0.015067555
  vertex -0.0952299312 -0.0222418271 0.0150905931
  vertex -0.0954533741 -0.021429969 0.0151171284
  endloop
 endfacet

 facet normal -0.227060422 0.97386539 -0.00547601515
  outer loop
  vertex -0.095385097 -0.0214143302 0.015067555
  vertex -0.0954533741 -0.021429969 0.0151171284
  vertex -0.0956333727 -0.0214697812 0.0155005539
  endloop
 endfacet

 facet normal -0.229287416 0.973336637 -0.0065763602
  outer loop
  vertex -0.0956333727 -0.0214697812 0.0155005539
  vertex -0.0954533741 -0.021429969 0.0151171284
  vertex -0.0954844132 -0.0214370787 0.0151469549
  endloop
 endfacet

 facet normal -0.229938686 0.97318089 -0.00686513726
  outer loop
  vertex -0.0956333727 -0.0214697812 0.0155005539
  vertex -0.0954844132 -0.0214370787 0.0151469549
  vertex -0.0955154449 -0.0214441884 0.0151786329
  endloop
 endfacet

 facet normal -0.240290105 0.970640361 -0.0108591225
  outer loop
  vertex -0.0956333727 -0.0214697812 0.0155005539
  vertex -0.0955154449 -0.0214441884 0.0151786329
  vertex -0.0955588892 -0.0214541405 0.0152504221
  endloop
 endfacet

 facet normal -0.251630843 0.967715919 -0.0144188879
  outer loop
  vertex -0.0956333727 -0.0214697812 0.0155005539
  vertex -0.0955588892 -0.0214541405 0.0152504221
  vertex -0.0955775082 -0.021458406 0.0152890943
  endloop
 endfacet

 facet normal -0.253630459 0.967185259 -0.0149756735
  outer loop
  vertex -0.0956333727 -0.0214697812 0.0155005539
  vertex -0.0955775082 -0.021458406 0.0152890943
  vertex -0.0955961347 -0.0214626715 0.0153289996
  endloop
 endfacet

 facet normal -0.31863609 0.947405279 -0.0299058538
  outer loop
  vertex -0.0956333727 -0.0214697812 0.0155005539
  vertex -0.0955961347 -0.0214626715 0.0153289996
  vertex -0.09562096 -0.0214683581 0.0154133365
  endloop
 endfacet

 facet normal -0.986775339 0.0832260847 -0.139096782
  outer loop
  vertex -0.0956333727 -0.0214697812 0.0155005539
  vertex -0.09562096 -0.0214683581 0.0154133365
  vertex -0.0956271663 -0.0214697812 0.015456534
  endloop
 endfacet

 facet normal -0.966461301 -0.217699945 -0.136233285
  outer loop
  vertex -0.0956333727 -0.0214697812 0.0155005539
  vertex -0.0956271663 -0.0214697812 0.015456534
  vertex -0.0954471752 -0.0222418271 0.0154133365
  endloop
 endfacet

 facet normal -0.971553206 -0.226509556 -0.0691217631
  outer loop
  vertex -0.0956333727 -0.0214697812 0.0155005539
  vertex -0.0954471752 -0.0222418271 0.0154133365
  vertex -0.0954533741 -0.0222418271 0.0155005539
  endloop
 endfacet

 facet normal -0.924569607 -0.208582848 0.318848312
  outer loop
  vertex -0.0954471752 -0.0222418271 0.0165932346
  vertex -0.0954347551 -0.0222418271 0.0166292321
  vertex -0.0955961347 -0.0214626715 0.0166709907
  endloop
 endfacet

 facet normal -0.931598127 -0.20786497 0.298189759
  outer loop
  vertex -0.0954471752 -0.0222418271 0.0165932346
  vertex -0.0955961347 -0.0214626715 0.0166709907
  vertex -0.0956085473 -0.0214669369 0.0166292321
  endloop
 endfacet

 facet normal -0.937130749 -0.20817624 0.280087203
  outer loop
  vertex -0.0954471752 -0.0222418271 0.0165932346
  vertex -0.0956085473 -0.0214669369 0.0166292321
  vertex -0.09562096 -0.0214683581 0.0165866539
  endloop
 endfacet

 facet normal -0.965502739 -0.215693086 0.145879835
  outer loop
  vertex -0.0954471752 -0.0222418271 0.0165932346
  vertex -0.09562096 -0.0214683581 0.0165866539
  vertex -0.0956271663 -0.0214697812 0.0165434554
  endloop
 endfacet

 facet normal -0.957606196 0.0812253803 0.276392758
  outer loop
  vertex -0.09562096 -0.0214683581 0.0165866539
  vertex -0.0956085473 -0.0214669369 0.0166292321
  vertex -0.0955961347 -0.0214626715 0.0166709907
  endloop
 endfacet

 facet normal -0.912258148 -0.207860947 0.352957487
  outer loop
  vertex -0.0955961347 -0.0214626715 0.0166709907
  vertex -0.0954347551 -0.0222418271 0.0166292321
  vertex -0.0954161361 -0.0222418271 0.0166773666
  endloop
 endfacet

 facet normal -0.899294972 -0.204591364 0.386537135
  outer loop
  vertex -0.0955961347 -0.0214626715 0.0166709907
  vertex -0.0954161361 -0.0222418271 0.0166773666
  vertex -0.095385097 -0.0222418271 0.0167495683
  endloop
 endfacet

 facet normal -0.881429374 -0.195367664 0.430016041
  outer loop
  vertex -0.0955961347 -0.0214626715 0.0166709907
  vertex -0.095385097 -0.0222418271 0.0167495683
  vertex -0.0955775082 -0.021458406 0.0167111009
  endloop
 endfacet

 facet normal -0.874617934 -0.192971155 0.444753468
  outer loop
  vertex -0.0955775082 -0.021458406 0.0167111009
  vertex -0.095385097 -0.0222418271 0.0167495683
  vertex -0.0955588892 -0.0214541405 0.0167495683
  endloop
 endfacet

 facet normal -0.829620957 -0.183043256 0.527469695
  outer loop
  vertex -0.0955588892 -0.0214541405 0.0167495683
  vertex -0.095385097 -0.0222418271 0.0167495683
  vertex -0.0955154449 -0.0214441884 0.0168213565
  endloop
 endfacet

 facet normal -0.80863905 -0.182478473 0.559289396
  outer loop
  vertex -0.0955154449 -0.0214441884 0.0168213565
  vertex -0.095385097 -0.0222418271 0.0167495683
  vertex -0.0953354463 -0.0222418271 0.0168213565
  endloop
 endfacet

 facet normal -0.705227017 -0.15914236 0.690889716
  outer loop
  vertex -0.0955154449 -0.0214441884 0.0168213565
  vertex -0.0953354463 -0.0222418271 0.0168213565
  vertex -0.0953044146 -0.0222418271 0.0168530345
  endloop
 endfacet

 facet normal -0.688322484 -0.153955549 0.708879352
  outer loop
  vertex -0.0955154449 -0.0214441884 0.0168213565
  vertex -0.0953044146 -0.0222418271 0.0168530345
  vertex -0.0954844132 -0.0214370787 0.0168530345
  endloop
 endfacet

 facet normal -0.670345485 -0.149934635 0.726743877
  outer loop
  vertex -0.0954844132 -0.0214370787 0.0168530345
  vertex -0.0953044146 -0.0222418271 0.0168530345
  vertex -0.0952671692 -0.0222418271 0.0168873873
  endloop
 endfacet

 facet normal -0.667265475 -0.148974046 0.729769528
  outer loop
  vertex -0.0954844132 -0.0214370787 0.0168530345
  vertex -0.0952671692 -0.0222418271 0.0168873873
  vertex -0.0954533741 -0.021429969 0.016882861
  endloop
 endfacet

 facet normal -0.320790708 -0.0732069016 0.944316745
  outer loop
  vertex -0.0951616541 -0.0222418271 0.0169525947
  vertex -0.0951120034 -0.0222418271 0.016969461
  vertex -0.0953044146 -0.0213986896 0.016969461
  endloop
 endfacet

 facet normal -0.397485852 -0.0855783597 0.913609028
  outer loop
  vertex -0.0951616541 -0.0222418271 0.0169525947
  vertex -0.0953044146 -0.0213986896 0.016969461
  vertex -0.0953416526 -0.0214057993 0.0169525947
  endloop
 endfacet

 facet normal -0.324543297 -0.0738156587 -0.94298619
  outer loop
  vertex -0.0953044146 -0.0213986896 0.0150305284
  vertex -0.0950809717 -0.0222418271 0.0150196264
  vertex -0.0951616541 -0.0222418271 0.0150473956
  endloop
 endfacet

 facet normal -0.397485852 -0.0855783597 -0.913609028
  outer loop
  vertex -0.0953044146 -0.0213986896 0.0150305284
  vertex -0.0951616541 -0.0222418271 0.0150473956
  vertex -0.0953416526 -0.0214057993 0.0150473956
  endloop
 endfacet

 facet normal -0.597598732 -0.138662964 -0.789714098
  outer loop
  vertex -0.0952299312 -0.0222418271 0.0150905931
  vertex -0.0953044146 -0.0222418271 0.0151469549
  vertex -0.0954533741 -0.021429969 0.0151171284
  endloop
 endfacet

 facet normal -0.667206883 -0.149232641 -0.729770243
  outer loop
  vertex -0.0954533741 -0.021429969 0.0151171284
  vertex -0.0953044146 -0.0222418271 0.0151469549
  vertex -0.0954844132 -0.0214370787 0.0151469549
  endloop
 endfacet

 facet normal -0.688322484 -0.153955549 -0.708879352
  outer loop
  vertex -0.0954844132 -0.0214370787 0.0151469549
  vertex -0.0953044146 -0.0222418271 0.0151469549
  vertex -0.0955154449 -0.0214441884 0.0151786329
  endloop
 endfacet

 facet normal -0.757921398 -0.175570294 -0.628275633
  outer loop
  vertex -0.0955154449 -0.0214441884 0.0151786329
  vertex -0.0953044146 -0.0222418271 0.0151469549
  vertex -0.0953354463 -0.0222418271 0.0151843922
  endloop
 endfacet

 facet normal -0.785948455 -0.181625813 -0.59101367
  outer loop
  vertex -0.0955154449 -0.0214441884 0.0151786329
  vertex -0.0953354463 -0.0222418271 0.0151843922
  vertex -0.095385097 -0.0222418271 0.0152504221
  endloop
 endfacet

 facet normal -0.829620957 -0.183043256 -0.527469695
  outer loop
  vertex -0.0955154449 -0.0214441884 0.0151786329
  vertex -0.095385097 -0.0222418271 0.0152504221
  vertex -0.0955588892 -0.0214541405 0.0152504221
  endloop
 endfacet

 facet normal -0.875536442 -0.193173811 -0.442854255
  outer loop
  vertex -0.0955588892 -0.0214541405 0.0152504221
  vertex -0.095385097 -0.0222418271 0.0152504221
  vertex -0.0955775082 -0.021458406 0.0152890943
  endloop
 endfacet

 facet normal -0.880635858 -0.19497101 -0.431818098
  outer loop
  vertex -0.0955775082 -0.021458406 0.0152890943
  vertex -0.095385097 -0.0222418271 0.0152504221
  vertex -0.0955961347 -0.0214626715 0.0153289996
  endloop
 endfacet

 facet normal -0.957606196 0.0812253803 -0.276392758
  outer loop
  vertex -0.0955961347 -0.0214626715 0.0153289996
  vertex -0.0956085473 -0.0214669369 0.0153707573
  vertex -0.09562096 -0.0214683581 0.0154133365
  endloop
 endfacet

 facet normal -0.897690415 -0.203737408 -0.390695661
  outer loop
  vertex -0.0955961347 -0.0214626715 0.0153289996
  vertex -0.095385097 -0.0222418271 0.0152504221
  vertex -0.0954223424 -0.0222418271 0.0153359938
  endloop
 endfacet

 facet normal -0.921076059 -0.208399087 -0.328920543
  outer loop
  vertex -0.0955961347 -0.0214626715 0.0153289996
  vertex -0.0954223424 -0.0222418271 0.0153359938
  vertex -0.0954347551 -0.0222418271 0.0153707573
  endloop
 endfacet

 facet normal -0.931359529 -0.208883762 -0.29822287
  outer loop
  vertex -0.0955961347 -0.0214626715 0.0153289996
  vertex -0.0954347551 -0.0222418271 0.0153707573
  vertex -0.0956085473 -0.0214669369 0.0153707573
  endloop
 endfacet

 facet normal -0.936720967 -0.210086197 -0.280031502
  outer loop
  vertex -0.09562096 -0.0214683581 0.0154133365
  vertex -0.0956085473 -0.0214669369 0.0153707573
  vertex -0.0954347551 -0.0222418271 0.0153707573
  endloop
 endfacet

 facet normal -0.938445449 -0.210855067 -0.273606271
  outer loop
  vertex -0.09562096 -0.0214683581 0.0154133365
  vertex -0.0954347551 -0.0222418271 0.0153707573
  vertex -0.0954471752 -0.0222418271 0.0154133365
  endloop
 endfacet

 facet normal -0.965237975 -0.216874957 -0.145880654
  outer loop
  vertex -0.09562096 -0.0214683581 0.0154133365
  vertex -0.0954471752 -0.0222418271 0.0154133365
  vertex -0.0956271663 -0.0214697812 0.015456534
  endloop
 endfacet

endsolid AssimpScene
