solid AssimpScene
 facet normal 0 0 1
  outer loop
  vertex 0.00780204777 0.0315141566 0.010548437
  vertex 0.00591911888 0.0315155014 0.010548437
  vertex -0.00540062739 0.0315155014 0.010548437
  endloop
 endfacet

 facet normal 0 0 1
  outer loop
  vertex 0.00780204777 0.0315141566 0.010548437
  vertex -0.00540062739 0.0315155014 0.010548437
  vertex -0.00603024103 0.0312844813 0.010548437
  endloop
 endfacet

 facet normal 0 0 1
  outer loop
  vertex 0.00780204777 0.0315141566 0.010548437
  vertex -0.00603024103 0.0312844813 0.010548437
  vertex -0.00629775273 0.0310749523 0.010548437
  endloop
 endfacet

 facet normal 0 0 1
  outer loop
  vertex 0.00780204777 0.0315141566 0.010548437
  vertex -0.00629775273 0.0310749523 0.010548437
  vertex -0.00635243766 0.0310319737 0.010548437
  endloop
 endfacet

 facet normal 0 0 1
  outer loop
  vertex 0.00780204777 0.0315141566 0.010548437
  vertex -0.00635243766 0.0310319737 0.010548437
  vertex -0.00636130571 0.0306948461 0.010548437
  endloop
 endfacet

 facet normal 0 0 1
  outer loop
  vertex 0.00780204777 0.0315141566 0.010548437
  vertex -0.00636130571 0.0306948461 0.010548437
  vertex -0.00636130571 0.0206320994 0.010548437
  endloop
 endfacet

 facet normal 0 0 1
  outer loop
  vertex 0.00780204777 0.0315141566 0.010548437
  vertex -0.00636130571 0.0206320994 0.010548437
  vertex -0.0063598277 0.0202506501 0.010548437
  endloop
 endfacet

 facet normal 0 0 1
  outer loop
  vertex 0.00780204777 0.0315141566 0.010548437
  vertex -0.0063598277 0.0202506501 0.010548437
  vertex 0.00734683452 0.0202506501 0.010548437
  endloop
 endfacet

 facet normal 0 0 1
  outer loop
  vertex 0.00780204777 0.0315141566 0.010548437
  vertex 0.00734683452 0.0202506501 0.010548437
  vertex 0.00780204777 0.023592364 0.010548437
  endloop
 endfacet

 facet normal 1 0 0
  outer loop
  vertex 0.00780204777 0.0315141566 0.010548437
  vertex 0.00780204777 0.023592364 0.010548437
  vertex 0.00780204777 0.0235749017 0.0105468016
  endloop
 endfacet

 facet normal 1 0 0
  outer loop
  vertex 0.00780204777 0.0315141566 0.010548437
  vertex 0.00780204777 0.0235749017 0.0105468016
  vertex 0.00780204777 0.0217294395 -0.00615620613
  endloop
 endfacet

 facet normal 1 0 0
  outer loop
  vertex 0.00780204777 0.0315141566 0.010548437
  vertex 0.00780204777 0.0217294395 -0.00615620613
  vertex 0.00780204777 0.0315141566 -0.00615620613
  endloop
 endfacet

 facet normal 0.000713784888 0.999999702 0
  outer loop
  vertex 0.00780204777 0.0315141566 0.010548437
  vertex 0.00780204777 0.0315141566 -0.00615620613
  vertex 0.00591911888 0.0315155014 -0.00615620613
  endloop
 endfacet

 facet normal 0.000713784888 0.999999702 0
  outer loop
  vertex 0.00780204777 0.0315141566 0.010548437
  vertex 0.00591911888 0.0315155014 -0.00615620613
  vertex 0.00591911888 0.0315155014 0.010548437
  endloop
 endfacet

 facet normal 0 1 0
  outer loop
  vertex 0.00591911888 0.0315155014 0.010548437
  vertex 0.00591911888 0.0315155014 -0.00615620613
  vertex -0.00540062739 0.0315155014 -0.00615620613
  endloop
 endfacet

 facet normal 0 1 0
  outer loop
  vertex 0.00591911888 0.0315155014 0.010548437
  vertex -0.00540062739 0.0315155014 -0.00615620613
  vertex -0.00540062739 0.0315155014 0.010548437
  endloop
 endfacet

 facet normal 0.564905584 -0.076952301 0.821559548
  outer loop
  vertex 0.00780204777 0.023592364 0.010548437
  vertex 0.00734683452 0.0202506501 0.010548437
  vertex 0.00780204777 0.0235749017 0.0105468016
  endloop
 endfacet

 facet normal 0.00237973803 0 -0.999997258
  outer loop
  vertex 0.00780204777 0.0315141566 -0.00615620613
  vertex 0.00780204777 0.0217294395 -0.00615620613
  vertex 0.00711479364 0.0202493053 -0.00615784153
  endloop
 endfacet

 facet normal 1.03626483e-07 0.000145178841 -1
  outer loop
  vertex 0.00780204777 0.0315141566 -0.00615620613
  vertex 0.00711479364 0.0202493053 -0.00615784153
  vertex 0.00591911888 0.0315155014 -0.00615620613
  endloop
 endfacet

 facet normal -0.34446606 0.938798785 0
  outer loop
  vertex -0.00540062739 0.0315155014 0.010548437
  vertex -0.00540062739 0.0315155014 -0.00615620613
  vertex -0.00603024103 0.0312844813 -0.00615620613
  endloop
 endfacet

 facet normal -0.34446606 0.938798785 0
  outer loop
  vertex -0.00540062739 0.0315155014 0.010548437
  vertex -0.00603024103 0.0312844813 -0.00615620613
  vertex -0.00603024103 0.0312844813 0.010548437
  endloop
 endfacet

 facet normal 0 0.00014516784 -1
  outer loop
  vertex 0.00591911888 0.0315155014 -0.00615620613
  vertex 0.00711479364 0.0202493053 -0.00615784153
  vertex -0.00729538035 0.0202493053 -0.00615784153
  endloop
 endfacet

 facet normal 0 0.00014516784 -1
  outer loop
  vertex 0.00591911888 0.0315155014 -0.00615620613
  vertex -0.00729538035 0.0202493053 -0.00615784153
  vertex -0.00540062739 0.0315155014 -0.00615620613
  endloop
 endfacet

 facet normal 0 -0.405298054 0.91418457
  outer loop
  vertex 0.00734683452 0.0202506501 0.010548437
  vertex -0.0063598277 0.0202506501 0.010548437
  vertex -0.00729538035 0.0177940615 0.00945932325
  endloop
 endfacet

 facet normal 0 -0.405298054 0.91418457
  outer loop
  vertex 0.00734683452 0.0202506501 0.010548437
  vertex -0.00729538035 0.0177940615 0.00945932325
  vertex 0.00417364016 0.0177940615 0.00945932325
  endloop
 endfacet

 facet normal 0.613510489 -0.789661109 -0.00634966744
  outer loop
  vertex 0.00734683452 0.0202506501 0.010548437
  vertex 0.00417364016 0.0177940615 0.00945932325
  vertex 0.00707193231 0.0201714057 -0.00615784153
  endloop
 endfacet

 facet normal 0.87607491 -0.482022464 -0.0121294046
  outer loop
  vertex 0.00734683452 0.0202506501 0.010548437
  vertex 0.00707193231 0.0201714057 -0.00615784153
  vertex 0.00711479364 0.0202493053 -0.00615784153
  endloop
 endfacet

 facet normal 0.885317802 -0.464824855 -0.0122591667
  outer loop
  vertex 0.00734683452 0.0202506501 0.010548437
  vertex 0.00711479364 0.0202493053 -0.00615784153
  vertex 0.00731579633 0.0206320994 -0.00615620613
  endloop
 endfacet

 facet normal 0.914206505 -0.405100942 -0.0109490557
  outer loop
  vertex 0.00734683452 0.0202506501 0.010548437
  vertex 0.00731579633 0.0206320994 -0.00615620613
  vertex 0.00780204777 0.0217294395 -0.00615620613
  endloop
 endfacet

 facet normal 0.99064368 -0.135648429 0.0149873719
  outer loop
  vertex 0.00734683452 0.0202506501 0.010548437
  vertex 0.00780204777 0.0217294395 -0.00615620613
  vertex 0.00780204777 0.0235749017 0.0105468016
  endloop
 endfacet

 facet normal 0.0520328432 -0.0230566636 -0.99837929
  outer loop
  vertex 0.00780204777 0.0217294395 -0.00615620613
  vertex 0.00731579633 0.0206320994 -0.00615620613
  vertex 0.00711479364 0.0202493053 -0.00615784153
  endloop
 endfacet

 facet normal 0 0 -1
  outer loop
  vertex 0.00711479364 0.0202493053 -0.00615784153
  vertex 0.00707193231 0.0201714057 -0.00615784153
  vertex 0.00394751132 0.0177940615 -0.00615784153
  endloop
 endfacet

 facet normal 0 0 -1
  outer loop
  vertex 0.00711479364 0.0202493053 -0.00615784153
  vertex 0.00394751132 0.0177940615 -0.00615784153
  vertex -0.00729538035 0.0177940615 -0.00615784153
  endloop
 endfacet

 facet normal 0 0 -1
  outer loop
  vertex 0.00711479364 0.0202493053 -0.00615784153
  vertex -0.00729538035 0.0177940615 -0.00615784153
  vertex -0.00729538035 0.0202493053 -0.00615784153
  endloop
 endfacet

 facet normal -0.616620064 0.78726089 0
  outer loop
  vertex -0.00603024103 0.0312844813 0.010548437
  vertex -0.00603024103 0.0312844813 -0.00615620613
  vertex -0.00629775273 0.0310749523 0.010548437
  endloop
 endfacet

 facet normal -5.6768411e-05 0.000154715177 -1
  outer loop
  vertex -0.00540062739 0.0315155014 -0.00615620613
  vertex -0.00729538035 0.0202493053 -0.00615784153
  vertex -0.00603024103 0.0312844813 -0.00615620613
  endloop
 endfacet

 facet normal -0.755282879 -0.00292656105 0.655392408
  outer loop
  vertex -0.0063598277 0.0202506501 0.010548437
  vertex -0.00636130571 0.0206320994 0.010548437
  vertex -0.00729538035 0.0177940615 0.00945932325
  endloop
 endfacet

 facet normal 0 -1 0
  outer loop
  vertex 0.00417364016 0.0177940615 0.00945932325
  vertex -0.00729538035 0.0177940615 0.00945932325
  vertex -0.00729538035 0.0177940615 -0.00615784153
  endloop
 endfacet

 facet normal 0 -1 0
  outer loop
  vertex 0.00417364016 0.0177940615 0.00945932325
  vertex -0.00729538035 0.0177940615 -0.00615784153
  vertex 0.00394751132 0.0177940615 -0.00615784153
  endloop
 endfacet

 facet normal 0.60550952 -0.795789838 -0.00876746979
  outer loop
  vertex 0.00417364016 0.0177940615 0.00945932325
  vertex 0.00394751132 0.0177940615 -0.00615784153
  vertex 0.00707193231 0.0201714057 -0.00615784153
  endloop
 endfacet

 facet normal -0.700362265 0.00469867233 -0.713772118
  outer loop
  vertex -0.00729538035 0.0202493053 -0.00615784153
  vertex -0.00729685789 0.0202775132 -0.00615620613
  vertex -0.00729390234 0.0207180604 -0.00615620613
  endloop
 endfacet

 facet normal -0.0395590253 0.00361098954 -0.999210775
  outer loop
  vertex -0.00729538035 0.0202493053 -0.00615784153
  vertex -0.00729390234 0.0207180604 -0.00615620613
  vertex -0.00635243766 0.0310319737 -0.00615620613
  endloop
 endfacet

 facet normal -0.000127617153 0.000162837707 -1
  outer loop
  vertex -0.00729538035 0.0202493053 -0.00615784153
  vertex -0.00635243766 0.0310319737 -0.00615620613
  vertex -0.00603024103 0.0312844813 -0.00615620613
  endloop
 endfacet

 facet normal -0.742024183 0 -0.670373142
  outer loop
  vertex -0.00729538035 0.0202493053 -0.00615784153
  vertex -0.00729538035 0.0177940615 -0.00615784153
  vertex -0.00729685789 0.0202506501 -0.00615620613
  endloop
 endfacet

 facet normal -0.742024183 0 -0.670373142
  outer loop
  vertex -0.00729538035 0.0202493053 -0.00615784153
  vertex -0.00729685789 0.0202506501 -0.00615620613
  vertex -0.00729685789 0.0202775132 -0.00615620613
  endloop
 endfacet

 facet normal -0.616844654 0.787084997 -5.80251526e-06
  outer loop
  vertex -0.00629775273 0.0310749523 0.010548437
  vertex -0.00603024103 0.0312844813 -0.00615620613
  vertex -0.00635243766 0.0310319737 -0.00615620613
  endloop
 endfacet

 facet normal -0.617940843 0.786224604 0
  outer loop
  vertex -0.00629775273 0.0310749523 0.010548437
  vertex -0.00635243766 0.0310319737 -0.00615620613
  vertex -0.00635243766 0.0310319737 0.010548437
  endloop
 endfacet

 facet normal -0.759067416 0 0.651012063
  outer loop
  vertex -0.00636130571 0.0206320994 0.010548437
  vertex -0.00636130571 0.0306948461 0.010548437
  vertex -0.00729538035 0.0185462162 0.00945932325
  endloop
 endfacet

 facet normal -0.759067416 0 0.651012063
  outer loop
  vertex -0.00636130571 0.0206320994 0.010548437
  vertex -0.00729538035 0.0185462162 0.00945932325
  vertex -0.00729538035 0.0177940615 0.00945932325
  endloop
 endfacet

 facet normal -0.999999642 0 0.000867120572
  outer loop
  vertex -0.00729538035 0.0177940615 0.00945932325
  vertex -0.00729538035 0.0185462162 0.00945932325
  vertex -0.00729685789 0.0202506501 0.00775533589
  endloop
 endfacet

 facet normal -0.999999881 -0.000601469539 0
  outer loop
  vertex -0.00729538035 0.0177940615 0.00945932325
  vertex -0.00729685789 0.0202506501 0.00775533589
  vertex -0.00729685789 0.0202506501 -0.00615620613
  endloop
 endfacet

 facet normal -0.999999881 -0.000601469539 0
  outer loop
  vertex -0.00729538035 0.0177940615 0.00945932325
  vertex -0.00729685789 0.0202506501 -0.00615620613
  vertex -0.00729538035 0.0177940615 -0.00615784153
  endloop
 endfacet

 facet normal -1 0 0
  outer loop
  vertex -0.00729685789 0.0202775132 -0.00615620613
  vertex -0.00729685789 0.0202506501 -0.00615620613
  vertex -0.00729685789 0.0202506501 0.00775533589
  endloop
 endfacet

 facet normal -1 0 0
  outer loop
  vertex -0.00729685789 0.0202775132 -0.00615620613
  vertex -0.00729685789 0.0202506501 0.00775533589
  vertex -0.00729685789 0.0205071885 0.00744135724
  endloop
 endfacet

 facet normal -1 0 0
  outer loop
  vertex -0.00729685789 0.0202775132 -0.00615620613
  vertex -0.00729685789 0.0205071885 0.00744135724
  vertex -0.00729685789 0.0207046308 0.00688862382
  endloop
 endfacet

 facet normal -1 0 0
  outer loop
  vertex -0.00729685789 0.0202775132 -0.00615620613
  vertex -0.00729685789 0.0207046308 0.00688862382
  vertex -0.00729685789 0.0207059719 0.00688044727
  endloop
 endfacet

 facet normal -1 0 0
  outer loop
  vertex -0.00729685789 0.0202775132 -0.00615620613
  vertex -0.00729685789 0.0207059719 0.00688044727
  vertex -0.00729685789 0.0207180604 0.00626066653
  endloop
 endfacet

 facet normal -1 0 0
  outer loop
  vertex -0.00729685789 0.0202775132 -0.00615620613
  vertex -0.00729685789 0.0207180604 0.00626066653
  vertex -0.00729685789 0.0207180604 -0.00569505058
  endloop
 endfacet

 facet normal -0.999956965 0.00670862896 -0.00640883436
  outer loop
  vertex -0.00729685789 0.0202775132 -0.00615620613
  vertex -0.00729685789 0.0207180604 -0.00569505058
  vertex -0.00729390234 0.0207180604 -0.00615620613
  endloop
 endfacet

 facet normal -0.995839536 0.0909012854 -0.00638244487
  outer loop
  vertex -0.00729390234 0.0207180604 -0.00615620613
  vertex -0.00729685789 0.0207180604 -0.00569505058
  vertex -0.00635243766 0.0310319737 -0.00615620613
  endloop
 endfacet

 facet normal -0.995833874 0.0911861286 0
  outer loop
  vertex -0.00635243766 0.0310319737 -0.00615620613
  vertex -0.00729685789 0.0207180604 -0.00569505058
  vertex -0.00729685789 0.0207180604 0.00626066653
  endloop
 endfacet

 facet normal -0.995833874 0.0911861286 0
  outer loop
  vertex -0.00635243766 0.0310319737 -0.00615620613
  vertex -0.00729685789 0.0207180604 0.00626066653
  vertex -0.00635243766 0.0310319737 0.010548437
  endloop
 endfacet

 facet normal -0.995133758 0.0690198839 0.0703220218
  outer loop
  vertex -0.00635243766 0.0310319737 0.010548437
  vertex -0.00729538035 0.0186778419 0.00933013484
  vertex -0.00729538035 0.0185462162 0.00945932325
  endloop
 endfacet

 facet normal -0.870699584 0.0229027625 0.491281807
  outer loop
  vertex -0.00635243766 0.0310319737 0.010548437
  vertex -0.00729538035 0.0185462162 0.00945932325
  vertex -0.00636130571 0.0306948461 0.010548437
  endloop
 endfacet

 facet normal -0.995898783 0.0904585794 0.00176435697
  outer loop
  vertex -0.00635243766 0.0310319737 0.010548437
  vertex -0.00729685789 0.0207180604 0.00626066653
  vertex -0.00729685789 0.0207059719 0.00688044727
  endloop
 endfacet

 facet normal -0.996186912 0.0860918835 0.0141315423
  outer loop
  vertex -0.00635243766 0.0310319737 0.010548437
  vertex -0.00729685789 0.0207059719 0.00688044727
  vertex -0.00729685789 0.0207046308 0.00688862382
  endloop
 endfacet

 facet normal -0.996305645 0.0808731169 0.0288886242
  outer loop
  vertex -0.00635243766 0.0310319737 0.010548437
  vertex -0.00729685789 0.0207046308 0.00688862382
  vertex -0.00729685789 0.0205071885 0.00744135724
  endloop
 endfacet

 facet normal -0.995670438 0.0719818845 0.0588132739
  outer loop
  vertex -0.00635243766 0.0310319737 0.010548437
  vertex -0.00729685789 0.0205071885 0.00744135724
  vertex -0.00729685789 0.0202506501 0.00775533589
  endloop
 endfacet

 facet normal -0.995159924 0.069062613 0.0699090213
  outer loop
  vertex -0.00635243766 0.0310319737 0.010548437
  vertex -0.00729685789 0.0202506501 0.00775533589
  vertex -0.00729538035 0.0186778419 0.00933013484
  endloop
 endfacet

 facet normal -0.997793555 0.0465063974 0.0473837964
  outer loop
  vertex -0.00729538035 0.0185462162 0.00945932325
  vertex -0.00729538035 0.0186778419 0.00933013484
  vertex -0.00729685789 0.0202506501 0.00775533589
  endloop
 endfacet

endsolid AssimpScene
