solid AssimpScene
 facet normal 0 -1 0
  outer loop
  vertex -0.1603643 -0.00446633529 0.0150311971
  vertex -0.159363911 -0.00446633529 0.0144681782
  vertex -0.15536429 -0.00446633529 0.0144681782
  endloop
 endfacet

 facet normal 0 -1 0
  outer loop
  vertex -0.1603643 -0.00446633529 0.0150311971
  vertex -0.15536429 -0.00446633529 0.0144681782
  vertex -0.15536429 -0.00446633529 0.0171059128
  endloop
 endfacet

 facet normal 0 -1 0
  outer loop
  vertex -0.1603643 -0.00446633529 0.0150311971
  vertex -0.15536429 -0.00446633529 0.0171059128
  vertex -0.1603643 -0.00446633529 0.0171059128
  endloop
 endfacet

 facet normal -1 0 0
  outer loop
  vertex -0.1603643 -0.00446633529 0.0150311971
  vertex -0.1603643 -0.00446633529 0.0171059128
  vertex -0.1603643 -0.00410335883 0.0172557756
  endloop
 endfacet

 facet normal -1 0 0
  outer loop
  vertex -0.1603643 -0.00446633529 0.0150311971
  vertex -0.1603643 -0.00410335883 0.0172557756
  vertex -0.1603643 -0.00310539338 0.017570626
  endloop
 endfacet

 facet normal -1 0 0
  outer loop
  vertex -0.1603643 -0.00446633529 0.0150311971
  vertex -0.1603643 -0.00310539338 0.017570626
  vertex -0.1603643 -0.00208381237 0.0177971404
  endloop
 endfacet

 facet normal -1 0 0
  outer loop
  vertex -0.1603643 -0.00446633529 0.0150311971
  vertex -0.1603643 -0.00208381237 0.0177971404
  vertex -0.1603643 -0.00104561332 0.0179339405
  endloop
 endfacet

 facet normal -1 0 0
  outer loop
  vertex -0.1603643 -0.00446633529 0.0150311971
  vertex -0.1603643 -0.00104561332 0.0179339405
  vertex -0.1603643 4.57522617e-07 0.0179796573
  endloop
 endfacet

 facet normal -1 0 0
  outer loop
  vertex -0.1603643 -0.00446633529 0.0150311971
  vertex -0.1603643 4.57522617e-07 0.0179796573
  vertex -0.1603643 0.00104565371 0.0179342851
  endloop
 endfacet

 facet normal -1 0 0
  outer loop
  vertex -0.1603643 -0.00446633529 0.0150311971
  vertex -0.1603643 0.00104565371 0.0179342851
  vertex -0.1603643 0.00208385289 0.0177974831
  endloop
 endfacet

 facet normal -1 0 0
  outer loop
  vertex -0.1603643 -0.00446633529 0.0150311971
  vertex -0.1603643 0.00208385289 0.0177974831
  vertex -0.1603643 0.00310543389 0.0175709687
  endloop
 endfacet

 facet normal -1 0 0
  outer loop
  vertex -0.1603643 -0.00446633529 0.0150311971
  vertex -0.1603643 0.00310543389 0.0175709687
  vertex -0.1603643 0.00410339935 0.0172561184
  endloop
 endfacet

 facet normal -1 0 0
  outer loop
  vertex -0.1603643 -0.00446633529 0.0150311971
  vertex -0.1603643 0.00410339935 0.0172561184
  vertex -0.1603643 0.00446899934 0.0171048809
  endloop
 endfacet

 facet normal -1 0 0
  outer loop
  vertex -0.1603643 -0.00446633529 0.0150311971
  vertex -0.1603643 0.00446899934 0.0171048809
  vertex -0.1603643 0.00446899934 0.0150298215
  endloop
 endfacet

 facet normal -0.490458071 -0.000134111702 -0.871464729
  outer loop
  vertex -0.1603643 -0.00446633529 0.0150311971
  vertex -0.1603643 0.00446899934 0.0150298215
  vertex -0.159363911 -0.00446633529 0.0144681782
  endloop
 endfacet

 facet normal -0.48954758 0 -0.871976614
  outer loop
  vertex -0.159363911 -0.00446633529 0.0144681782
  vertex -0.1603643 0.00446899934 0.0150298215
  vertex -0.159363911 2.31981921e-05 0.0144681782
  endloop
 endfacet

 facet normal 0 0 -1
  outer loop
  vertex -0.159363911 -0.00446633529 0.0144681782
  vertex -0.159363911 2.31981921e-05 0.0144681782
  vertex -0.15536429 2.31981921e-05 0.0144681782
  endloop
 endfacet

 facet normal 0 0 -1
  outer loop
  vertex -0.159363911 -0.00446633529 0.0144681782
  vertex -0.15536429 2.31981921e-05 0.0144681782
  vertex -0.15536429 -0.00446633529 0.0144681782
  endloop
 endfacet

 facet normal 0 -0.381624877 0.9243173
  outer loop
  vertex -0.1603643 -0.00446633529 0.0171059128
  vertex -0.15536429 -0.00446633529 0.0171059128
  vertex -0.15536429 -0.00410335883 0.0172557756
  endloop
 endfacet

 facet normal 0 -0.381624877 0.9243173
  outer loop
  vertex -0.1603643 -0.00446633529 0.0171059128
  vertex -0.15536429 -0.00410335883 0.0172557756
  vertex -0.1603643 -0.00410335883 0.0172557756
  endloop
 endfacet

 facet normal 0 1 0
  outer loop
  vertex -0.1603643 0.00446899934 0.0150298215
  vertex -0.1603643 0.00446899934 0.0171048809
  vertex -0.15536429 0.00446899934 0.0171048809
  endloop
 endfacet

 facet normal 0 1 0
  outer loop
  vertex -0.1603643 0.00446899934 0.0150298215
  vertex -0.15536429 0.00446899934 0.0171048809
  vertex -0.15536429 0.00446899934 0.0148345865
  endloop
 endfacet

 facet normal 0 1 0
  outer loop
  vertex -0.1603643 0.00446899934 0.0150298215
  vertex -0.15536429 0.00446899934 0.0148345865
  vertex -0.159363911 0.00446899934 0.0148345865
  endloop
 endfacet

 facet normal -0.190921038 0.080627434 -0.978288531
  outer loop
  vertex -0.1603643 0.00446899934 0.0150298215
  vertex -0.159363911 0.00446899934 0.0148345865
  vertex -0.159363911 2.31981921e-05 0.0144681782
  endloop
 endfacet

 facet normal 1 0 0
  outer loop
  vertex -0.15536429 -0.00446633529 0.0144681782
  vertex -0.15536429 2.31981921e-05 0.0144681782
  vertex -0.15536429 0.00446899934 0.0148345865
  endloop
 endfacet

 facet normal 1 0 0
  outer loop
  vertex -0.15536429 -0.00446633529 0.0144681782
  vertex -0.15536429 0.00446899934 0.0148345865
  vertex -0.15536429 0.00446899934 0.0171048809
  endloop
 endfacet

 facet normal 1 0 0
  outer loop
  vertex -0.15536429 -0.00446633529 0.0144681782
  vertex -0.15536429 0.00446899934 0.0171048809
  vertex -0.15536429 0.00410339935 0.0172561184
  endloop
 endfacet

 facet normal 1 0 0
  outer loop
  vertex -0.15536429 -0.00446633529 0.0144681782
  vertex -0.15536429 0.00410339935 0.0172561184
  vertex -0.15536429 0.00310543389 0.0175709687
  endloop
 endfacet

 facet normal 1 0 0
  outer loop
  vertex -0.15536429 -0.00446633529 0.0144681782
  vertex -0.15536429 0.00310543389 0.0175709687
  vertex -0.15536429 0.00208385289 0.0177974831
  endloop
 endfacet

 facet normal 1 0 0
  outer loop
  vertex -0.15536429 -0.00446633529 0.0144681782
  vertex -0.15536429 0.00208385289 0.0177974831
  vertex -0.15536429 0.00104565371 0.0179342851
  endloop
 endfacet

 facet normal 1 0 0
  outer loop
  vertex -0.15536429 -0.00446633529 0.0144681782
  vertex -0.15536429 0.00104565371 0.0179342851
  vertex -0.15536429 4.57522617e-07 0.0179796573
  endloop
 endfacet

 facet normal 1 0 0
  outer loop
  vertex -0.15536429 -0.00446633529 0.0144681782
  vertex -0.15536429 4.57522617e-07 0.0179796573
  vertex -0.15536429 -0.00104561332 0.0179339405
  endloop
 endfacet

 facet normal 1 0 0
  outer loop
  vertex -0.15536429 -0.00446633529 0.0144681782
  vertex -0.15536429 -0.00104561332 0.0179339405
  vertex -0.15536429 -0.00208381237 0.0177971404
  endloop
 endfacet

 facet normal 1 0 0
  outer loop
  vertex -0.15536429 -0.00446633529 0.0144681782
  vertex -0.15536429 -0.00208381237 0.0177971404
  vertex -0.15536429 -0.00310539338 0.017570626
  endloop
 endfacet

 facet normal 1 0 0
  outer loop
  vertex -0.15536429 -0.00446633529 0.0144681782
  vertex -0.15536429 -0.00310539338 0.017570626
  vertex -0.15536429 -0.00410335883 0.0172557756
  endloop
 endfacet

 facet normal 1 0 0
  outer loop
  vertex -0.15536429 -0.00446633529 0.0144681782
  vertex -0.15536429 -0.00410335883 0.0172557756
  vertex -0.15536429 -0.00446633529 0.0171059128
  endloop
 endfacet

 facet normal 0 0.0821383223 -0.996620893
  outer loop
  vertex -0.159363911 2.31981921e-05 0.0144681782
  vertex -0.159363911 0.00446899934 0.0148345865
  vertex -0.15536429 0.00446899934 0.0148345865
  endloop
 endfacet

 facet normal 0 0.0821383223 -0.996620893
  outer loop
  vertex -0.159363911 2.31981921e-05 0.0144681782
  vertex -0.15536429 0.00446899934 0.0148345865
  vertex -0.15536429 2.31981921e-05 0.0144681782
  endloop
 endfacet

 facet normal 0 -0.300873905 0.953663945
  outer loop
  vertex -0.1603643 -0.00410335883 0.0172557756
  vertex -0.15536429 -0.00410335883 0.0172557756
  vertex -0.15536429 -0.00310539338 0.017570626
  endloop
 endfacet

 facet normal 0 -0.300873905 0.953663945
  outer loop
  vertex -0.1603643 -0.00410335883 0.0172557756
  vertex -0.15536429 -0.00310539338 0.017570626
  vertex -0.1603643 -0.00310539338 0.017570626
  endloop
 endfacet

 facet normal 0 0.382253349 0.924057603
  outer loop
  vertex -0.1603643 0.00446899934 0.0171048809
  vertex -0.1603643 0.00410339935 0.0172561184
  vertex -0.15536429 0.00410339935 0.0172561184
  endloop
 endfacet

 facet normal 0 0.382253349 0.924057603
  outer loop
  vertex -0.1603643 0.00446899934 0.0171048809
  vertex -0.15536429 0.00410339935 0.0172561184
  vertex -0.15536429 0.00446899934 0.0171048809
  endloop
 endfacet

 facet normal 0 -0.216471791 0.976288915
  outer loop
  vertex -0.1603643 -0.00310539338 0.017570626
  vertex -0.15536429 -0.00310539338 0.017570626
  vertex -0.15536429 -0.00208381237 0.0177971404
  endloop
 endfacet

 facet normal 0 -0.216471791 0.976288915
  outer loop
  vertex -0.1603643 -0.00310539338 0.017570626
  vertex -0.15536429 -0.00208381237 0.0177971404
  vertex -0.1603643 -0.00208381237 0.0177971404
  endloop
 endfacet

 facet normal 0 0.300874054 0.953663945
  outer loop
  vertex -0.1603643 0.00410339935 0.0172561184
  vertex -0.1603643 0.00310543389 0.0175709687
  vertex -0.15536429 0.00310543389 0.0175709687
  endloop
 endfacet

 facet normal 0 0.300874054 0.953663945
  outer loop
  vertex -0.1603643 0.00410339935 0.0172561184
  vertex -0.15536429 0.00310543389 0.0175709687
  vertex -0.15536429 0.00410339935 0.0172561184
  endloop
 endfacet

 facet normal 0 -0.130638346 0.991430044
  outer loop
  vertex -0.1603643 -0.00208381237 0.0177971404
  vertex -0.15536429 -0.00208381237 0.0177971404
  vertex -0.15536429 -0.00104561332 0.0179339405
  endloop
 endfacet

 facet normal 0 -0.130638346 0.991430044
  outer loop
  vertex -0.1603643 -0.00208381237 0.0177971404
  vertex -0.15536429 -0.00104561332 0.0179339405
  vertex -0.1603643 -0.00104561332 0.0179339405
  endloop
 endfacet

 facet normal 0 0.216471761 0.976288915
  outer loop
  vertex -0.1603643 0.00310543389 0.0175709687
  vertex -0.1603643 0.00208385289 0.0177974831
  vertex -0.15536429 0.00208385289 0.0177974831
  endloop
 endfacet

 facet normal 0 0.216471761 0.976288915
  outer loop
  vertex -0.1603643 0.00310543389 0.0175709687
  vertex -0.15536429 0.00208385289 0.0177974831
  vertex -0.15536429 0.00310543389 0.0175709687
  endloop
 endfacet

 facet normal 0 -0.0436604992 0.999046445
  outer loop
  vertex -0.1603643 -0.00104561332 0.0179339405
  vertex -0.15536429 -0.00104561332 0.0179339405
  vertex -0.15536429 4.57522617e-07 0.0179796573
  endloop
 endfacet

 facet normal 0 -0.0436604992 0.999046445
  outer loop
  vertex -0.1603643 -0.00104561332 0.0179339405
  vertex -0.15536429 4.57522617e-07 0.0179796573
  vertex -0.1603643 4.57522617e-07 0.0179796573
  endloop
 endfacet

 facet normal 0 0.130639479 0.991429985
  outer loop
  vertex -0.1603643 0.00208385289 0.0177974831
  vertex -0.1603643 0.00104565371 0.0179342851
  vertex -0.15536429 0.00104565371 0.0179342851
  endloop
 endfacet

 facet normal 0 0.130639479 0.991429985
  outer loop
  vertex -0.1603643 0.00208385289 0.0177974831
  vertex -0.15536429 0.00104565371 0.0179342851
  vertex -0.15536429 0.00208385289 0.0177974831
  endloop
 endfacet

 facet normal 0 0.0433682911 0.999059141
  outer loop
  vertex -0.1603643 4.57522617e-07 0.0179796573
  vertex -0.15536429 4.57522617e-07 0.0179796573
  vertex -0.15536429 0.00104565371 0.0179342851
  endloop
 endfacet

 facet normal 0 0.0433682911 0.999059141
  outer loop
  vertex -0.1603643 4.57522617e-07 0.0179796573
  vertex -0.15536429 0.00104565371 0.0179342851
  vertex -0.1603643 0.00104565371 0.0179342851
  endloop
 endfacet

endsolid AssimpScene
