solid AssimpScene
 facet normal 0 1 0
  outer loop
  vertex -0.0348935202 -0.0325756706 -0.000625507673
  vertex -0.0348935202 -0.0325756706 -0.00177460467
  vertex -0.0348962918 -0.0325756706 -0.00180937594
  endloop
 endfacet

 facet normal 0 1 0
  outer loop
  vertex -0.0348935202 -0.0325756706 -0.000625507673
  vertex -0.0348962918 -0.0325756706 -0.00180937594
  vertex -0.0349018387 -0.0325756706 -0.00183882983
  endloop
 endfacet

 facet normal 0 1 0
  outer loop
  vertex -0.0348935202 -0.0325756706 -0.000625507673
  vertex -0.0349018387 -0.0325756706 -0.00183882983
  vertex -0.0349059999 -0.0325756706 -0.00185682916
  endloop
 endfacet

 facet normal 0 1 0
  outer loop
  vertex -0.0348935202 -0.0325756706 -0.000625507673
  vertex -0.0349059999 -0.0325756706 -0.00185682916
  vertex -0.034910161 -0.0325756706 -0.0018740102
  endloop
 endfacet

 facet normal 0 1 0
  outer loop
  vertex -0.0348935202 -0.0325756706 -0.000625507673
  vertex -0.034910161 -0.0325756706 -0.0018740102
  vertex -0.0349115469 -0.0325756706 -0.00187851046
  endloop
 endfacet

 facet normal 0 1 0
  outer loop
  vertex -0.0348935202 -0.0325756706 -0.000625507673
  vertex -0.0349115469 -0.0325756706 -0.00187851046
  vertex -0.034921255 -0.0325756706 -0.00190550915
  endloop
 endfacet

 facet normal 0 1 0
  outer loop
  vertex -0.0348935202 -0.0325756706 -0.000625507673
  vertex -0.034921255 -0.0325756706 -0.00190550915
  vertex -0.0349281915 -0.0325756706 -0.00192309939
  endloop
 endfacet

 facet normal 0 1 0
  outer loop
  vertex -0.0348935202 -0.0325756706 -0.000625507673
  vertex -0.0349281915 -0.0325756706 -0.00192309939
  vertex -0.0349517651 -0.0325756706 -0.00197341572
  endloop
 endfacet

 facet normal 0 1 0
  outer loop
  vertex -0.0348935202 -0.0325756706 -0.000625507673
  vertex -0.0349517651 -0.0325756706 -0.00197341572
  vertex -0.0349697955 -0.0325756706 -0.00200573285
  endloop
 endfacet

 facet normal 0 1 0
  outer loop
  vertex -0.0348935202 -0.0325756706 -0.000625507673
  vertex -0.0349697955 -0.0325756706 -0.00200573285
  vertex -0.0349794999 -0.0325756706 -0.00202045985
  endloop
 endfacet

 facet normal 0 1 0
  outer loop
  vertex -0.0348935202 -0.0325756706 -0.000625507673
  vertex -0.0349794999 -0.0325756706 -0.00202045985
  vertex -0.0350030772 -0.0325756706 -0.00205604942
  endloop
 endfacet

 facet normal 0 1 0
  outer loop
  vertex -0.0348935202 -0.0325756706 -0.000625507673
  vertex -0.0350030772 -0.0325756706 -0.00205604942
  vertex -0.0350419059 -0.0325756706 -0.00210595713
  endloop
 endfacet

 facet normal 0 1 0
  outer loop
  vertex -0.0348935202 -0.0325756706 -0.000625507673
  vertex -0.0350419059 -0.0325756706 -0.00210595713
  vertex -0.0350585505 -0.0325756706 -0.00212518335
  endloop
 endfacet

 facet normal 0 1 0
  outer loop
  vertex -0.0348935202 -0.0325756706 -0.000625507673
  vertex -0.0350585505 -0.0325756706 -0.00212518335
  vertex -0.0350862853 -0.0325756706 -0.00215586461
  endloop
 endfacet

 facet normal 0 1 0
  outer loop
  vertex -0.0348935202 -0.0325756706 -0.000625507673
  vertex -0.0350862853 -0.0325756706 -0.00215586461
  vertex -0.0351348221 -0.0325756706 -0.00220454461
  endloop
 endfacet

 facet normal 0 1 0
  outer loop
  vertex -0.0348935202 -0.0325756706 -0.000625507673
  vertex -0.0351348221 -0.0325756706 -0.00220454461
  vertex -0.0351528525 -0.0325756706 -0.00222090748
  endloop
 endfacet

 facet normal 0 1 0
  outer loop
  vertex -0.0348935202 -0.0325756706 -0.000625507673
  vertex -0.0351528525 -0.0325756706 -0.00222090748
  vertex -0.0351750404 -0.0325756706 -0.00224054325
  endloop
 endfacet

 facet normal 0 1 0
  outer loop
  vertex -0.0348935202 -0.0325756706 -0.000625507673
  vertex -0.0351750404 -0.0325756706 -0.00224054325
  vertex -0.0352083221 -0.0325756706 -0.00226917886
  endloop
 endfacet

 facet normal 0 1 0
  outer loop
  vertex -0.0348935202 -0.0325756706 -0.000625507673
  vertex -0.0352083221 -0.0325756706 -0.00226917886
  vertex -0.035245765 -0.0325756706 -0.002297814
  endloop
 endfacet

 facet normal 0 1 0
  outer loop
  vertex -0.0348935202 -0.0325756706 -0.000625507673
  vertex -0.035245765 -0.0325756706 -0.002297814
  vertex -0.0352610201 -0.0325756706 -0.00230926811
  endloop
 endfacet

 facet normal 0 1 0
  outer loop
  vertex -0.0348935202 -0.0325756706 -0.000625507673
  vertex -0.0352610201 -0.0325756706 -0.00230926811
  vertex -0.0352943055 -0.0325756706 -0.00233340403
  endloop
 endfacet

 facet normal 0 1 0
  outer loop
  vertex -0.0348935202 -0.0325756706 -0.000625507673
  vertex -0.0352943055 -0.0325756706 -0.00233340403
  vertex -0.0353234299 -0.0325756706 -0.00235344842
  endloop
 endfacet

 facet normal 0 1 0
  outer loop
  vertex -0.0348935202 -0.0325756706 -0.000625507673
  vertex -0.0353234299 -0.0325756706 -0.00235344842
  vertex -0.0353886075 -0.0325756706 -0.00239517447
  endloop
 endfacet

 facet normal 0 1 0
  outer loop
  vertex -0.0348935202 -0.0325756706 -0.000625507673
  vertex -0.0353886075 -0.0325756706 -0.00239517447
  vertex -0.0354385339 -0.0325756706 -0.00242340053
  endloop
 endfacet

 facet normal 0 1 0
  outer loop
  vertex -0.0348935202 -0.0325756706 -0.000625507673
  vertex -0.0354385339 -0.0325756706 -0.00242340053
  vertex -0.0354621075 -0.0325756706 -0.00243649096
  endloop
 endfacet

 facet normal 0 1 0
  outer loop
  vertex -0.0348935202 -0.0325756706 -0.000625507673
  vertex -0.0354621075 -0.0325756706 -0.00243649096
  vertex -0.0355272889 -0.0325756706 -0.00246962626
  endloop
 endfacet

 facet normal 0 1 0
  outer loop
  vertex -0.0348935202 -0.0325756706 -0.000625507673
  vertex -0.0355272889 -0.0325756706 -0.00246962626
  vertex -0.0355785973 -0.0325756706 -0.00249335263
  endloop
 endfacet

 facet normal 0 1 0
  outer loop
  vertex -0.0348935202 -0.0325756706 -0.000625507673
  vertex -0.0355785973 -0.0325756706 -0.00249335263
  vertex -0.0356479399 -0.0325756706 -0.00252239755
  endloop
 endfacet

 facet normal 0 1 0
  outer loop
  vertex -0.0348935202 -0.0325756706 -0.000625507673
  vertex -0.0356479399 -0.0325756706 -0.00252239755
  vertex -0.0414974652 -0.0325756706 -0.00480463728
  endloop
 endfacet

 facet normal 0 1 0
  outer loop
  vertex -0.0348935202 -0.0325756706 -0.000625507673
  vertex -0.0414974652 -0.0325756706 -0.00480463728
  vertex -0.0470183231 -0.0325756706 -0.00480463728
  endloop
 endfacet

 facet normal 0 1 0
  outer loop
  vertex -0.0348935202 -0.0325756706 -0.000625507673
  vertex -0.0470183231 -0.0325756706 -0.00480463728
  vertex -0.0387710147 -0.0325756706 -0.000625507673
  endloop
 endfacet

 facet normal 0 0 1
  outer loop
  vertex -0.0348935202 -0.0325756706 -0.000625507673
  vertex -0.0387710147 -0.0325756706 -0.000625507673
  vertex -0.0485257767 -0.0395265147 -0.000625507673
  endloop
 endfacet

 facet normal 0 0 1
  outer loop
  vertex -0.0348935202 -0.0325756706 -0.000625507673
  vertex -0.0485257767 -0.0395265147 -0.000625507673
  vertex -0.0449880473 -0.0395265147 -0.000625507673
  endloop
 endfacet

 facet normal 0.567130446 -0.823628068 0
  outer loop
  vertex -0.0348935202 -0.0325756706 -0.000625507673
  vertex -0.0449880473 -0.0395265147 -0.000625507673
  vertex -0.0449880473 -0.0395265147 -0.00480463728
  endloop
 endfacet

 facet normal 0.567130446 -0.823628068 0
  outer loop
  vertex -0.0348935202 -0.0325756706 -0.000625507673
  vertex -0.0449880473 -0.0395265147 -0.00480463728
  vertex -0.0348935202 -0.0325756706 -0.00177460467
  endloop
 endfacet

 facet normal 0.567402542 -0.823439419 -0.00133930543
  outer loop
  vertex -0.0348935202 -0.0325756706 -0.00177460467
  vertex -0.0449880473 -0.0395265147 -0.00480463728
  vertex -0.0416486263 -0.0372254439 -0.00480463728
  endloop
 endfacet

 facet normal 0.573831081 -0.818650186 -0.0230202153
  outer loop
  vertex -0.0348935202 -0.0325756706 -0.00177460467
  vertex -0.0416486263 -0.0372254439 -0.00480463728
  vertex -0.0416389219 -0.0372186378 -0.00480463728
  endloop
 endfacet

 facet normal 0.576543868 -0.816420496 -0.0324760005
  outer loop
  vertex -0.0348935202 -0.0325756706 -0.00177460467
  vertex -0.0416389219 -0.0372186378 -0.00480463728
  vertex -0.0415473916 -0.037154004 -0.00480463728
  endloop
 endfacet

 facet normal 0.580455601 -0.812976182 -0.0462704487
  outer loop
  vertex -0.0348935202 -0.0325756706 -0.00177460467
  vertex -0.0415473916 -0.037154004 -0.00480463728
  vertex -0.0348962918 -0.0325756706 -0.00180937594
  endloop
 endfacet

 facet normal -0.381690115 0.535660625 0.753246546
  outer loop
  vertex -0.0387710147 -0.0325756706 -0.000625507673
  vertex -0.0470183231 -0.0325756706 -0.00480463728
  vertex -0.0485257767 -0.0395265147 -0.000625507673
  endloop
 endfacet

 facet normal 0 -1 0
  outer loop
  vertex -0.0449880473 -0.0395265147 -0.000625507673
  vertex -0.0485257767 -0.0395265147 -0.000625507673
  vertex -0.0490596928 -0.0395265147 -0.00480463728
  endloop
 endfacet

 facet normal 0 -1 0
  outer loop
  vertex -0.0449880473 -0.0395265147 -0.000625507673
  vertex -0.0490596928 -0.0395265147 -0.00480463728
  vertex -0.0449880473 -0.0395265147 -0.00480463728
  endloop
 endfacet

 facet normal 0.581969798 -0.811559021 -0.0517988876
  outer loop
  vertex -0.0348962918 -0.0325756706 -0.00180937594
  vertex -0.0415473916 -0.037154004 -0.00480463728
  vertex -0.0415293649 -0.0371410735 -0.00480463728
  endloop
 endfacet

 facet normal 0.597337723 -0.794059515 -0.112504505
  outer loop
  vertex -0.0348962918 -0.0325756706 -0.00180937594
  vertex -0.0415293649 -0.0371410735 -0.00480463728
  vertex -0.0349018387 -0.0325756706 -0.00183882983
  endloop
 endfacet

 facet normal 0 0 -1
  outer loop
  vertex -0.0449880473 -0.0395265147 -0.00480463728
  vertex -0.0490596928 -0.0395265147 -0.00480463728
  vertex -0.0470183231 -0.0325756706 -0.00480463728
  endloop
 endfacet

 facet normal 0 0 -1
  outer loop
  vertex -0.0449880473 -0.0395265147 -0.00480463728
  vertex -0.0470183231 -0.0325756706 -0.00480463728
  vertex -0.0414974652 -0.0325756706 -0.00480463728
  endloop
 endfacet

 facet normal 0 0 -1
  outer loop
  vertex -0.0449880473 -0.0395265147 -0.00480463728
  vertex -0.0414974652 -0.0325756706 -0.00480463728
  vertex -0.0414960794 -0.0325804316 -0.00480463728
  endloop
 endfacet

 facet normal 0 0 -1
  outer loop
  vertex -0.0449880473 -0.0395265147 -0.00480463728
  vertex -0.0414960794 -0.0325804316 -0.00480463728
  vertex -0.0407111496 -0.0360572152 -0.00480463728
  endloop
 endfacet

 facet normal 0 0 -1
  outer loop
  vertex -0.0449880473 -0.0395265147 -0.00480463728
  vertex -0.0407111496 -0.0360572152 -0.00480463728
  vertex -0.0407056026 -0.0361000821 -0.00480463728
  endloop
 endfacet

 facet normal 0 0 -1
  outer loop
  vertex -0.0449880473 -0.0395265147 -0.00480463728
  vertex -0.0407056026 -0.0361000821 -0.00480463728
  vertex -0.0407056026 -0.03611641 -0.00480463728
  endloop
 endfacet

 facet normal 0 0 -1
  outer loop
  vertex -0.0449880473 -0.0395265147 -0.00480463728
  vertex -0.0407056026 -0.03611641 -0.00480463728
  vertex -0.040708378 -0.0361551903 -0.00480463728
  endloop
 endfacet

 facet normal 0 0 -1
  outer loop
  vertex -0.0449880473 -0.0395265147 -0.00480463728
  vertex -0.040708378 -0.0361551903 -0.00480463728
  vertex -0.0407111496 -0.036171522 -0.00480463728
  endloop
 endfacet

 facet normal 0 0 -1
  outer loop
  vertex -0.0449880473 -0.0395265147 -0.00480463728
  vertex -0.0407111496 -0.036171522 -0.00480463728
  vertex -0.0407208577 -0.036211662 -0.00480463728
  endloop
 endfacet

 facet normal 0 0 -1
  outer loop
  vertex -0.0449880473 -0.0395265147 -0.00480463728
  vertex -0.0407208577 -0.036211662 -0.00480463728
  vertex -0.0407264046 -0.0362313949 -0.00480463728
  endloop
 endfacet

 facet normal 0 0 -1
  outer loop
  vertex -0.0449880473 -0.0395265147 -0.00480463728
  vertex -0.0407264046 -0.0362313949 -0.00480463728
  vertex -0.0407402739 -0.0362715386 -0.00480463728
  endloop
 endfacet

 facet normal 0 0 -1
  outer loop
  vertex -0.0449880473 -0.0395265147 -0.00480463728
  vertex -0.0407402739 -0.0362715386 -0.00480463728
  vertex -0.0407693945 -0.0363354944 -0.00480463728
  endloop
 endfacet

 facet normal 0 0 -1
  outer loop
  vertex -0.0449880473 -0.0395265147 -0.00480463728
  vertex -0.0407693945 -0.0363354944 -0.00480463728
  vertex -0.0407901965 -0.0363769978 -0.00480463728
  endloop
 endfacet

 facet normal 0 0 -1
  outer loop
  vertex -0.0449880473 -0.0395265147 -0.00480463728
  vertex -0.0407901965 -0.0363769978 -0.00480463728
  vertex -0.0408054516 -0.0364028551 -0.00480463728
  endloop
 endfacet

 facet normal 0 0 -1
  outer loop
  vertex -0.0449880473 -0.0395265147 -0.00480463728
  vertex -0.0408054516 -0.0364028551 -0.00480463728
  vertex -0.040849831 -0.0364736132 -0.00480463728
  endloop
 endfacet

 facet normal 0 0 -1
  outer loop
  vertex -0.0449880473 -0.0395265147 -0.00480463728
  vertex -0.040849831 -0.0364736132 -0.00480463728
  vertex -0.0409025289 -0.0365464166 -0.00480463728
  endloop
 endfacet

 facet normal 0 0 -1
  outer loop
  vertex -0.0449880473 -0.0395265147 -0.00480463728
  vertex -0.0409025289 -0.0365464166 -0.00480463728
  vertex -0.0409538411 -0.0366103724 -0.00480463728
  endloop
 endfacet

 facet normal 0 0 -1
  outer loop
  vertex -0.0449880473 -0.0395265147 -0.00480463728
  vertex -0.0409538411 -0.0366103724 -0.00480463728
  vertex -0.0410190225 -0.0366858952 -0.00480463728
  endloop
 endfacet

 facet normal 0 0 -1
  outer loop
  vertex -0.0449880473 -0.0395265147 -0.00480463728
  vertex -0.0410190225 -0.0366858952 -0.00480463728
  vertex -0.041074492 -0.03674509 -0.00480463728
  endloop
 endfacet

 facet normal 0 0 -1
  outer loop
  vertex -0.0449880473 -0.0395265147 -0.00480463728
  vertex -0.041074492 -0.03674509 -0.00480463728
  vertex -0.0410911329 -0.0367627777 -0.00480463728
  endloop
 endfacet

 facet normal 0 0 -1
  outer loop
  vertex -0.0449880473 -0.0395265147 -0.00480463728
  vertex -0.0410911329 -0.0367627777 -0.00480463728
  vertex -0.041100841 -0.036772985 -0.00480463728
  endloop
 endfacet

 facet normal 0 0 -1
  outer loop
  vertex -0.0449880473 -0.0395265147 -0.00480463728
  vertex -0.041100841 -0.036772985 -0.00480463728
  vertex -0.041179888 -0.0368498676 -0.00480463728
  endloop
 endfacet

 facet normal 0 0 -1
  outer loop
  vertex -0.0449880473 -0.0395265147 -0.00480463728
  vertex -0.041179888 -0.0368498676 -0.00480463728
  vertex -0.0412533879 -0.0369172283 -0.00480463728
  endloop
 endfacet

 facet normal 0 0 -1
  outer loop
  vertex -0.0449880473 -0.0395265147 -0.00480463728
  vertex -0.0412533879 -0.0369172283 -0.00480463728
  vertex -0.0413199551 -0.0369750597 -0.00480463728
  endloop
 endfacet

 facet normal 0 0 -1
  outer loop
  vertex -0.0449880473 -0.0395265147 -0.00480463728
  vertex -0.0413199551 -0.0369750597 -0.00480463728
  vertex -0.0413587876 -0.0370083973 -0.00480463728
  endloop
 endfacet

 facet normal 0 0 -1
  outer loop
  vertex -0.0449880473 -0.0395265147 -0.00480463728
  vertex -0.0413587876 -0.0370083973 -0.00480463728
  vertex -0.0414544754 -0.0370846018 -0.00480463728
  endloop
 endfacet

 facet normal 0 0 -1
  outer loop
  vertex -0.0449880473 -0.0395265147 -0.00480463728
  vertex -0.0414544754 -0.0370846018 -0.00480463728
  vertex -0.0415293649 -0.0371410735 -0.00480463728
  endloop
 endfacet

 facet normal 0 0 -1
  outer loop
  vertex -0.0449880473 -0.0395265147 -0.00480463728
  vertex -0.0415293649 -0.0371410735 -0.00480463728
  vertex -0.0415473916 -0.037154004 -0.00480463728
  endloop
 endfacet

 facet normal 0 0 -1
  outer loop
  vertex -0.0449880473 -0.0395265147 -0.00480463728
  vertex -0.0415473916 -0.037154004 -0.00480463728
  vertex -0.0416389219 -0.0372186378 -0.00480463728
  endloop
 endfacet

 facet normal 0 0 -1
  outer loop
  vertex -0.0449880473 -0.0395265147 -0.00480463728
  vertex -0.0416389219 -0.0372186378 -0.00480463728
  vertex -0.0416486263 -0.0372254439 -0.00480463728
  endloop
 endfacet

 facet normal -0.952348948 0.279692262 0.121670388
  outer loop
  vertex -0.0470183231 -0.0325756706 -0.00480463728
  vertex -0.0490596928 -0.0395265147 -0.00480463728
  vertex -0.0485257767 -0.0395265147 -0.000625507673
  endloop
 endfacet

 facet normal 0.598053455 -0.793071985 -0.115623996
  outer loop
  vertex -0.0349018387 -0.0325756706 -0.00183882983
  vertex -0.0415293649 -0.0371410735 -0.00480463728
  vertex -0.0414544754 -0.0370846018 -0.00480463728
  endloop
 endfacet

 facet normal 0.603404701 -0.7851367 -0.139510974
  outer loop
  vertex -0.0349018387 -0.0325756706 -0.00183882983
  vertex -0.0414544754 -0.0370846018 -0.00480463728
  vertex -0.0349059999 -0.0325756706 -0.00185682916
  endloop
 endfacet

 facet normal 0.361456811 0.105183482 -0.92643702
  outer loop
  vertex -0.0414974652 -0.0325756706 -0.00480463728
  vertex -0.0356479399 -0.0325756706 -0.00252239755
  vertex -0.0414960794 -0.0325804316 -0.00480463728
  endloop
 endfacet

 facet normal 0.604874313 -0.782739937 -0.146441981
  outer loop
  vertex -0.0349059999 -0.0325756706 -0.00185682916
  vertex -0.0414544754 -0.0370846018 -0.00480463728
  vertex -0.034910161 -0.0325756706 -0.0018740102
  endloop
 endfacet

 facet normal 0.612279594 -0.768848896 -0.18435055
  outer loop
  vertex -0.0414544754 -0.0370846018 -0.00480463728
  vertex -0.0413587876 -0.0370083973 -0.00480463728
  vertex -0.034910161 -0.0325756706 -0.0018740102
  endloop
 endfacet

 facet normal 0.362272024 0.0817877501 -0.928477168
  outer loop
  vertex -0.0414960794 -0.0325804316 -0.00480463728
  vertex -0.0356479399 -0.0325756706 -0.00252239755
  vertex -0.0407111496 -0.0360572152 -0.00480463728
  endloop
 endfacet

 facet normal 0.385990977 0.0428131819 -0.921508551
  outer loop
  vertex -0.0356479399 -0.0325756706 -0.00252239755
  vertex -0.0355785973 -0.0325756706 -0.00249335263
  vertex -0.0407056026 -0.0361000821 -0.00480463728
  endloop
 endfacet

 facet normal 0.381980509 0.0494352356 -0.922847271
  outer loop
  vertex -0.0356479399 -0.0325756706 -0.00252239755
  vertex -0.0407056026 -0.0361000821 -0.00480463728
  vertex -0.0407111496 -0.0360572152 -0.00480463728
  endloop
 endfacet

 facet normal 0.613159955 -0.766992688 -0.189095423
  outer loop
  vertex -0.034910161 -0.0325756706 -0.0018740102
  vertex -0.0413587876 -0.0370083973 -0.00480463728
  vertex -0.0349115469 -0.0325756706 -0.00187851046
  endloop
 endfacet

 facet normal 0.626213074 -0.72934407 -0.275525749
  outer loop
  vertex -0.0413587876 -0.0370083973 -0.00480463728
  vertex -0.0413199551 -0.0369750597 -0.00480463728
  vertex -0.0349281915 -0.0325756706 -0.00192309939
  endloop
 endfacet

 facet normal 0.622324169 -0.743309975 -0.245363161
  outer loop
  vertex -0.0413587876 -0.0370083973 -0.00480463728
  vertex -0.0349281915 -0.0325756706 -0.00192309939
  vertex -0.034921255 -0.0325756706 -0.00190550915
  endloop
 endfacet

 facet normal 0.61890614 -0.753286362 -0.222519457
  outer loop
  vertex -0.0413587876 -0.0370083973 -0.00480463728
  vertex -0.034921255 -0.0325756706 -0.00190550915
  vertex -0.0349115469 -0.0325756706 -0.00187851046
  endloop
 endfacet

 facet normal 0.419657052 -0.0152415102 -0.907554746
  outer loop
  vertex -0.0355785973 -0.0325756706 -0.00249335263
  vertex -0.0355272889 -0.0325756706 -0.00246962626
  vertex -0.0407056026 -0.03611641 -0.00480463728
  endloop
 endfacet

 facet normal 0.410975695 0 -0.911646307
  outer loop
  vertex -0.0355785973 -0.0325756706 -0.00249335263
  vertex -0.0407056026 -0.03611641 -0.00480463728
  vertex -0.0407056026 -0.0361000821 -0.00480463728
  endloop
 endfacet

 facet normal 0.627794802 -0.722619057 -0.289301842
  outer loop
  vertex -0.0413199551 -0.0369750597 -0.00480463728
  vertex -0.0412533879 -0.0369172283 -0.00480463728
  vertex -0.0349281915 -0.0325756706 -0.00192309939
  endloop
 endfacet

 facet normal 0.628364265 -0.720052958 -0.294418186
  outer loop
  vertex -0.0349281915 -0.0325756706 -0.00192309939
  vertex -0.0412533879 -0.0369172283 -0.00480463728
  vertex -0.0349517651 -0.0325756706 -0.00197341572
  endloop
 endfacet

 facet normal 0.451923221 -0.0742323622 -0.888962865
  outer loop
  vertex -0.0355272889 -0.0325756706 -0.00246962626
  vertex -0.0354621075 -0.0325756706 -0.00243649096
  vertex -0.040708378 -0.0361551903 -0.00480463728
  endloop
 endfacet

 facet normal 0.428196847 -0.0306248572 -0.903166473
  outer loop
  vertex -0.0355272889 -0.0325756706 -0.00246962626
  vertex -0.040708378 -0.0361551903 -0.00480463728
  vertex -0.0407056026 -0.03611641 -0.00480463728
  endloop
 endfacet

 facet normal 0.632973611 -0.69068563 -0.34971112
  outer loop
  vertex -0.0412533879 -0.0369172283 -0.00480463728
  vertex -0.041179888 -0.0368498676 -0.00480463728
  vertex -0.0349517651 -0.0325756706 -0.00197341572
  endloop
 endfacet

 facet normal 0.633200109 -0.688683391 -0.353232086
  outer loop
  vertex -0.0349517651 -0.0325756706 -0.00197341572
  vertex -0.041179888 -0.0368498676 -0.00480463728
  vertex -0.0349697955 -0.0325756706 -0.00200573285
  endloop
 endfacet

 facet normal 0.481225342 -0.131527901 -0.86667335
  outer loop
  vertex -0.0354621075 -0.0325756706 -0.00243649096
  vertex -0.0354385339 -0.0325756706 -0.00242340053
  vertex -0.0407208577 -0.036211662 -0.00480463728
  endloop
 endfacet

 facet normal 0.472545683 -0.114291184 -0.873863935
  outer loop
  vertex -0.0354621075 -0.0325756706 -0.00243649096
  vertex -0.0407208577 -0.036211662 -0.00480463728
  vertex -0.0407111496 -0.036171522 -0.00480463728
  endloop
 endfacet

 facet normal 0.453378618 -0.0770124048 -0.887984753
  outer loop
  vertex -0.0354621075 -0.0325756706 -0.00243649096
  vertex -0.0407111496 -0.036171522 -0.00480463728
  vertex -0.040708378 -0.0361551903 -0.00480463728
  endloop
 endfacet

 facet normal 0.635273576 -0.653153837 -0.412089407
  outer loop
  vertex -0.041179888 -0.0368498676 -0.00480463728
  vertex -0.041100841 -0.036772985 -0.00480463728
  vertex -0.0349697955 -0.0325756706 -0.00200573285
  endloop
 endfacet

 facet normal 0.635352254 -0.648805499 -0.418782711
  outer loop
  vertex -0.0349697955 -0.0325756706 -0.00200573285
  vertex -0.041100841 -0.036772985 -0.00480463728
  vertex -0.0349794999 -0.0325756706 -0.00202045985
  endloop
 endfacet

 facet normal 0.487073362 -0.143368036 -0.861513317
  outer loop
  vertex -0.0354385339 -0.0325756706 -0.00242340053
  vertex -0.0353886075 -0.0325756706 -0.00239517447
  vertex -0.0407264046 -0.0362313949 -0.00480463728
  endloop
 endfacet

 facet normal 0.4833588 -0.13584201 -0.864818692
  outer loop
  vertex -0.0354385339 -0.0325756706 -0.00242340053
  vertex -0.0407264046 -0.0362313949 -0.00480463728
  vertex -0.0407208577 -0.036211662 -0.00480463728
  endloop
 endfacet

 facet normal 0.633537889 -0.602611303 -0.485272586
  outer loop
  vertex -0.041100841 -0.036772985 -0.00480463728
  vertex -0.0410911329 -0.0367627777 -0.00480463728
  vertex -0.0350030772 -0.0325756706 -0.00205604942
  endloop
 endfacet

 facet normal 0.635365725 -0.647429764 -0.420886338
  outer loop
  vertex -0.041100841 -0.036772985 -0.00480463728
  vertex -0.0350030772 -0.0325756706 -0.00205604942
  vertex -0.0349794999 -0.0325756706 -0.00202045985
  endloop
 endfacet

 facet normal 0.525249302 -0.225669086 -0.820479512
  outer loop
  vertex -0.0353886075 -0.0325756706 -0.00239517447
  vertex -0.0353234299 -0.0325756706 -0.00235344842
  vertex -0.0407402739 -0.0362715386 -0.00480463728
  endloop
 endfacet

 facet normal 0.501292169 -0.17318812 -0.847768784
  outer loop
  vertex -0.0353886075 -0.0325756706 -0.00239517447
  vertex -0.0407402739 -0.0362715386 -0.00480463728
  vertex -0.0407264046 -0.0362313949 -0.00480463728
  endloop
 endfacet

 facet normal 0.632898569 -0.595327377 -0.494999737
  outer loop
  vertex -0.0410911329 -0.0367627777 -0.00480463728
  vertex -0.041074492 -0.03674509 -0.00480463728
  vertex -0.0350419059 -0.0325756706 -0.00210595713
  endloop
 endfacet

 facet normal 0.633077562 -0.59716022 -0.492557138
  outer loop
  vertex -0.0410911329 -0.0367627777 -0.00480463728
  vertex -0.0350419059 -0.0325756706 -0.00210595713
  vertex -0.0350030772 -0.0325756706 -0.00205604942
  endloop
 endfacet

 facet normal 0.545370936 -0.27330488 -0.792385697
  outer loop
  vertex -0.0353234299 -0.0325756706 -0.00235344842
  vertex -0.0352943055 -0.0325756706 -0.00233340403
  vertex -0.0404005088 -0.0360721834 -0.00464182487
  endloop
 endfacet

 facet normal 0.526524425 -0.228623435 -0.818842769
  outer loop
  vertex -0.0353234299 -0.0325756706 -0.00235344842
  vertex -0.0404005088 -0.0360721834 -0.00464182487
  vertex -0.0407402739 -0.0362715386 -0.00480463728
  endloop
 endfacet

 facet normal 0.531038046 -0.241813868 -0.812111259
  outer loop
  vertex -0.0407402739 -0.0362715386 -0.00480463728
  vertex -0.0404005088 -0.0360721834 -0.00464182487
  vertex -0.0407693945 -0.0363354944 -0.00480463728
  endloop
 endfacet

 facet normal 0.632655978 -0.592884779 -0.498230994
  outer loop
  vertex -0.041074492 -0.03674509 -0.00480463728
  vertex -0.0410190225 -0.0366858952 -0.00480463728
  vertex -0.0350419059 -0.0325756706 -0.00210595713
  endloop
 endfacet

 facet normal 0.628193498 -0.556496143 -0.54376924
  outer loop
  vertex -0.0350419059 -0.0325756706 -0.00210595713
  vertex -0.0410190225 -0.0366858952 -0.00480463728
  vertex -0.0350585505 -0.0325756706 -0.00212518335
  endloop
 endfacet

 facet normal 0.558714509 -0.306883395 -0.770493865
  outer loop
  vertex -0.0352943055 -0.0325756706 -0.00233340403
  vertex -0.0352610201 -0.0325756706 -0.00230926811
  vertex -0.0407901965 -0.0363769978 -0.00480463728
  endloop
 endfacet

 facet normal 0.547178447 -0.277803302 -0.789570212
  outer loop
  vertex -0.0352943055 -0.0325756706 -0.00233340403
  vertex -0.0407901965 -0.0363769978 -0.00480463728
  vertex -0.0404005088 -0.0360721834 -0.00464182487
  endloop
 endfacet

 facet normal 0.544842243 -0.273076385 -0.792828083
  outer loop
  vertex -0.0404005088 -0.0360721834 -0.00464182487
  vertex -0.0407901965 -0.0363769978 -0.00480463728
  vertex -0.0407693945 -0.0363354944 -0.00480463728
  endloop
 endfacet

 facet normal 0.625465751 -0.539798021 -0.563392162
  outer loop
  vertex -0.0410190225 -0.0366858952 -0.00480463728
  vertex -0.0409538411 -0.0366103724 -0.00480463728
  vertex -0.0401356295 -0.0360721834 -0.00441192323
  endloop
 endfacet

 facet normal 0.626024365 -0.542936862 -0.559743702
  outer loop
  vertex -0.0410190225 -0.0366858952 -0.00480463728
  vertex -0.0401356295 -0.0360721834 -0.00441192323
  vertex -0.0350585505 -0.0325756706 -0.00212518335
  endloop
 endfacet

 facet normal 0.625383496 -0.539163113 -0.564090967
  outer loop
  vertex -0.0350585505 -0.0325756706 -0.00212518335
  vertex -0.0401356295 -0.0360721834 -0.00441192323
  vertex -0.0409538411 -0.0366103724 -0.00480463728
  endloop
 endfacet

 facet normal 0.625222564 -0.53819859 -0.565189481
  outer loop
  vertex -0.0350585505 -0.0325756706 -0.00212518335
  vertex -0.0409538411 -0.0366103724 -0.00480463728
  vertex -0.0350862853 -0.0325756706 -0.00215586461
  endloop
 endfacet

 facet normal 0.567010581 -0.32902804 -0.755142033
  outer loop
  vertex -0.0352610201 -0.0325756706 -0.00230926811
  vertex -0.035245765 -0.0325756706 -0.002297814
  vertex -0.0407901965 -0.0363769978 -0.00480463728
  endloop
 endfacet

 facet normal 0.569547653 -0.33603248 -0.750131786
  outer loop
  vertex -0.0407901965 -0.0363769978 -0.00480463728
  vertex -0.035245765 -0.0325756706 -0.002297814
  vertex -0.0408054516 -0.0364028551 -0.00480463728
  endloop
 endfacet

 facet normal 0.616583943 -0.494693816 -0.612456024
  outer loop
  vertex -0.0409538411 -0.0366103724 -0.00480463728
  vertex -0.0409025289 -0.0365464166 -0.00480463728
  vertex -0.0401758477 -0.0360721834 -0.00445610378
  endloop
 endfacet

 facet normal 0.618344963 -0.502587676 -0.604197979
  outer loop
  vertex -0.0409538411 -0.0366103724 -0.00480463728
  vertex -0.0401758477 -0.0360721834 -0.00445610378
  vertex -0.0350862853 -0.0325756706 -0.00215586461
  endloop
 endfacet

 facet normal 0.61637938 -0.493553817 -0.613580644
  outer loop
  vertex -0.0350862853 -0.0325756706 -0.00215586461
  vertex -0.0401758477 -0.0360721834 -0.00445610378
  vertex -0.0409025289 -0.0365464166 -0.00480463728
  endloop
 endfacet

 facet normal 0.616201162 -0.492734849 -0.614417195
  outer loop
  vertex -0.0350862853 -0.0325756706 -0.00215586461
  vertex -0.0409025289 -0.0365464166 -0.00480463728
  vertex -0.0351348221 -0.0325756706 -0.00220454461
  endloop
 endfacet

 facet normal 0.571165025 -0.340516657 -0.746872783
  outer loop
  vertex -0.035245765 -0.0325756706 -0.002297814
  vertex -0.0352083221 -0.0325756706 -0.00226917886
  vertex -0.0408054516 -0.0364028551 -0.00480463728
  endloop
 endfacet

 facet normal 0.578980803 -0.363110244 -0.730022132
  outer loop
  vertex -0.0408054516 -0.0364028551 -0.00480463728
  vertex -0.0352083221 -0.0325756706 -0.00226917886
  vertex -0.040849831 -0.0364736132 -0.00480463728
  endloop
 endfacet

 facet normal 0.601657748 -0.435519218 -0.669575214
  outer loop
  vertex -0.0409025289 -0.0365464166 -0.00480463728
  vertex -0.040849831 -0.0364736132 -0.00480463728
  vertex -0.0351528525 -0.0325756706 -0.00222090748
  endloop
 endfacet

 facet normal 0.603197694 -0.44099468 -0.664587259
  outer loop
  vertex -0.0409025289 -0.0365464166 -0.00480463728
  vertex -0.0351528525 -0.0325756706 -0.00222090748
  vertex -0.0351348221 -0.0325756706 -0.00220454461
  endloop
 endfacet

 facet normal 0.594567299 -0.411016047 -0.691053987
  outer loop
  vertex -0.0352083221 -0.0325756706 -0.00226917886
  vertex -0.0351750404 -0.0325756706 -0.00224054325
  vertex -0.040849831 -0.0364736132 -0.00480463728
  endloop
 endfacet

 facet normal 0.599270582 -0.427004665 -0.677157104
  outer loop
  vertex -0.040849831 -0.0364736132 -0.00480463728
  vertex -0.0351750404 -0.0325756706 -0.00224054325
  vertex -0.0351528525 -0.0325756706 -0.00222090748
  endloop
 endfacet

endsolid AssimpScene
