solid AssimpScene
 facet normal 0 0 1
  outer loop
  vertex -0.15536429 -0.00260063214 0.00597716589
  vertex -0.159363508 -0.00260063214 0.00597716589
  vertex -0.159363508 -0.00553429034 0.00597716589
  endloop
 endfacet

 facet normal 0 0 1
  outer loop
  vertex -0.15536429 -0.00260063214 0.00597716589
  vertex -0.159363508 -0.00553429034 0.00597716589
  vertex -0.15536429 -0.00553429034 0.00597716589
  endloop
 endfacet

 facet normal 1 0 0
  outer loop
  vertex -0.15536429 -0.00260063214 0.00597716589
  vertex -0.15536429 -0.00553429034 0.00597716589
  vertex -0.15536429 -0.00553429034 0.00356116355
  endloop
 endfacet

 facet normal 1 0 0
  outer loop
  vertex -0.15536429 -0.00260063214 0.00597716589
  vertex -0.15536429 -0.00553429034 0.00356116355
  vertex -0.15536429 -0.00447570393 -0.00285968813
  endloop
 endfacet

 facet normal 1 0 0
  outer loop
  vertex -0.15536429 -0.00260063214 0.00597716589
  vertex -0.15536429 -0.00447570393 -0.00285968813
  vertex -0.15536429 7.472932e-07 -0.00306050526
  endloop
 endfacet

 facet normal 1 0 0
  outer loop
  vertex -0.15536429 -0.00260063214 0.00597716589
  vertex -0.15536429 7.472932e-07 -0.00306050526
  vertex -0.15536429 0.0044791582 -0.00306050526
  endloop
 endfacet

 facet normal 1 0 0
  outer loop
  vertex -0.15536429 -0.00260063214 0.00597716589
  vertex -0.15536429 0.0044791582 -0.00306050526
  vertex -0.15536429 0.0044791582 -0.0015247385
  endloop
 endfacet

 facet normal 1 0 0
  outer loop
  vertex -0.15536429 -0.00260063214 0.00597716589
  vertex -0.15536429 0.0044791582 -0.0015247385
  vertex -0.15536429 0.00236394489 0.00130174553
  endloop
 endfacet

 facet normal 0.423909396 0.620940566 0.659343362
  outer loop
  vertex -0.15536429 -0.00260063214 0.00597716589
  vertex -0.15536429 0.00236394489 0.00130174553
  vertex -0.157364294 0.00372932595 0.00130174553
  endloop
 endfacet

 facet normal 0 0.594124436 0.804373205
  outer loop
  vertex -0.15536429 -0.00260063214 0.00597716589
  vertex -0.157364294 0.00372932595 0.00130174553
  vertex -0.159363911 0.00372932595 0.00130174553
  endloop
 endfacet

 facet normal 0 0.594124436 0.804373205
  outer loop
  vertex -0.15536429 -0.00260063214 0.00597716589
  vertex -0.159363911 0.00372932595 0.00130174553
  vertex -0.159363508 -0.00260063214 0.00597716589
  endloop
 endfacet

 facet normal -0.999999404 0.000618042774 0.000920481689
  outer loop
  vertex -0.159363508 -0.00260063214 0.00597716589
  vertex -0.159363911 0.00372932595 0.00130174553
  vertex -0.159364298 7.472932e-07 0.00337980874
  endloop
 endfacet

 facet normal -0.999999762 0.000301775231 0.000603724387
  outer loop
  vertex -0.159363508 -0.00260063214 0.00597716589
  vertex -0.159364298 7.472932e-07 0.00337980874
  vertex -0.159364298 -0.00207525957 0.00441751303
  endloop
 endfacet

 facet normal -0.99999994 0 0.000502070761
  outer loop
  vertex -0.159363508 -0.00260063214 0.00597716589
  vertex -0.159364298 -0.00207525957 0.00441751303
  vertex -0.159363508 -0.00553429034 0.00597716589
  endloop
 endfacet

 facet normal 0 -1 0
  outer loop
  vertex -0.15536429 -0.00553429034 0.00597716589
  vertex -0.159363508 -0.00553429034 0.00597716589
  vertex -0.159363508 -0.00553429034 0.00213420927
  endloop
 endfacet

 facet normal 0 -1 0
  outer loop
  vertex -0.15536429 -0.00553429034 0.00597716589
  vertex -0.159363508 -0.00553429034 0.00213420927
  vertex -0.157364294 -0.00553429034 0.00213420927
  endloop
 endfacet

 facet normal 0 -1 0
  outer loop
  vertex -0.15536429 -0.00553429034 0.00597716589
  vertex -0.157364294 -0.00553429034 0.00213420927
  vertex -0.15536429 -0.00553429034 0.00356116355
  endloop
 endfacet

 facet normal 0.479614854 0.702537656 0.525747538
  outer loop
  vertex -0.15536429 0.00236394489 0.00130174553
  vertex -0.15536429 0.0044791582 -0.0015247385
  vertex -0.157364294 0.00372932595 0.00130174553
  endloop
 endfacet

 facet normal 0.308895797 0.842158318 0.441987455
  outer loop
  vertex -0.157364294 0.00372932595 0.00130174553
  vertex -0.15536429 0.0044791582 -0.0015247385
  vertex -0.157364294 0.0044791582 -0.000126977422
  endloop
 endfacet

 facet normal 0 0.885460973 0.464713752
  outer loop
  vertex -0.157364294 0.00372932595 0.00130174553
  vertex -0.157364294 0.0044791582 -0.000126977422
  vertex -0.159363911 0.0044791582 -0.000126977422
  endloop
 endfacet

 facet normal 0 0.885460973 0.464713752
  outer loop
  vertex -0.157364294 0.00372932595 0.00130174553
  vertex -0.159363911 0.0044791582 -0.000126977422
  vertex -0.159363911 0.00372932595 0.00130174553
  endloop
 endfacet

 facet normal -0.99999994 -0.00036978873 0
  outer loop
  vertex -0.159363508 -0.00553429034 0.00597716589
  vertex -0.159363911 -0.00447570393 -0.000126092898
  vertex -0.159363911 -0.00447570393 -0.00285968813
  endloop
 endfacet

 facet normal -0.99999994 -0.00036978873 0
  outer loop
  vertex -0.159363508 -0.00553429034 0.00597716589
  vertex -0.159363911 -0.00447570393 -0.00285968813
  vertex -0.159363508 -0.00553429034 0.00213420927
  endloop
 endfacet

 facet normal -1 -0.000214213273 2.69839711e-05
  outer loop
  vertex -0.159363508 -0.00553429034 0.00597716589
  vertex -0.159364298 -0.00207525957 0.00441751303
  vertex -0.159363911 -0.00447570393 -0.000126092898
  endloop
 endfacet

 facet normal -1 0.000148449268 7.79101829e-05
  outer loop
  vertex -0.159363911 0.00372932595 0.00130174553
  vertex -0.159363911 0.0044791582 -0.000126977422
  vertex -0.159364298 7.472932e-07 0.00337980874
  endloop
 endfacet

 facet normal -1 8.7442284e-05 0
  outer loop
  vertex -0.159364298 7.472932e-07 0.00337980874
  vertex -0.159363911 0.0044791582 -0.000126977422
  vertex -0.159363911 0.0044791582 -0.00306050526
  endloop
 endfacet

 facet normal -1 8.7442284e-05 0
  outer loop
  vertex -0.159364298 7.472932e-07 0.00337980874
  vertex -0.159363911 0.0044791582 -0.00306050526
  vertex -0.159364298 7.472932e-07 0.00133624743
  endloop
 endfacet

 facet normal -1 0 0
  outer loop
  vertex -0.159364298 7.472932e-07 0.00337980874
  vertex -0.159364298 7.472932e-07 0.00133624743
  vertex -0.159364298 -0.00207525957 0.00133624743
  endloop
 endfacet

 facet normal -1 0 0
  outer loop
  vertex -0.159364298 7.472932e-07 0.00337980874
  vertex -0.159364298 -0.00207525957 0.00133624743
  vertex -0.159364298 -0.00207525957 0.00441751303
  endloop
 endfacet

 facet normal -1 -0.000163137505 0
  outer loop
  vertex -0.159364298 -0.00207525957 0.00441751303
  vertex -0.159364298 -0.00207525957 0.00133624743
  vertex -0.159363911 -0.00447570393 -0.00285968813
  endloop
 endfacet

 facet normal -1 -0.000163137505 0
  outer loop
  vertex -0.159364298 -0.00207525957 0.00441751303
  vertex -0.159363911 -0.00447570393 -0.00285968813
  vertex -0.159363911 -0.00447570393 -0.000126092898
  endloop
 endfacet

 facet normal 0.115287952 -0.980101287 -0.161586404
  outer loop
  vertex -0.15536429 -0.00553429034 0.00356116355
  vertex -0.157364294 -0.00553429034 0.00213420927
  vertex -0.15536429 -0.00447570393 -0.00285968813
  endloop
 endfacet

 facet normal 0 1 0
  outer loop
  vertex -0.15536429 0.0044791582 -0.0015247385
  vertex -0.15536429 0.0044791582 -0.00306050526
  vertex -0.159363911 0.0044791582 -0.00306050526
  endloop
 endfacet

 facet normal 0 1 0
  outer loop
  vertex -0.15536429 0.0044791582 -0.0015247385
  vertex -0.159363911 0.0044791582 -0.00306050526
  vertex -0.159363911 0.0044791582 -0.000126977422
  endloop
 endfacet

 facet normal 0 1 0
  outer loop
  vertex -0.15536429 0.0044791582 -0.0015247385
  vertex -0.159363911 0.0044791582 -0.000126977422
  vertex -0.157364294 0.0044791582 -0.000126977422
  endloop
 endfacet

 facet normal 0 -0.978262901 -0.207368329
  outer loop
  vertex -0.159363508 -0.00553429034 0.00213420927
  vertex -0.159363911 -0.00447570393 -0.00285968813
  vertex -0.15536429 -0.00447570393 -0.00285968813
  endloop
 endfacet

 facet normal 0 -0.978262901 -0.207368329
  outer loop
  vertex -0.159363508 -0.00553429034 0.00213420927
  vertex -0.15536429 -0.00447570393 -0.00285968813
  vertex -0.157364294 -0.00553429034 0.00213420927
  endloop
 endfacet

 facet normal -1 0 -8.90663068e-05
  outer loop
  vertex -0.159364298 7.472932e-07 0.00133624743
  vertex -0.159363911 0.0044791582 -0.00306050526
  vertex -0.159363911 7.472932e-07 -0.00306050526
  endloop
 endfacet

 facet normal -1 0 -8.90663068e-05
  outer loop
  vertex -0.159364298 7.472932e-07 0.00133624743
  vertex -0.159363911 7.472932e-07 -0.00306050526
  vertex -0.159364298 -0.00207525957 0.00133624743
  endloop
 endfacet

 facet normal -1 -4.08204687e-06 -9.09937226e-05
  outer loop
  vertex -0.159364298 -0.00207525957 0.00133624743
  vertex -0.159363911 7.472932e-07 -0.00306050526
  vertex -0.159363911 -0.00447570393 -0.00285968813
  endloop
 endfacet

 facet normal 0 -0.0448156893 -0.998995364
  outer loop
  vertex -0.15536429 -0.00447570393 -0.00285968813
  vertex -0.159363911 -0.00447570393 -0.00285968813
  vertex -0.159363911 7.472932e-07 -0.00306050526
  endloop
 endfacet

 facet normal 0 -0.0448156893 -0.998995364
  outer loop
  vertex -0.15536429 -0.00447570393 -0.00285968813
  vertex -0.159363911 7.472932e-07 -0.00306050526
  vertex -0.15536429 7.472932e-07 -0.00306050526
  endloop
 endfacet

 facet normal 0 0 -1
  outer loop
  vertex -0.15536429 0.0044791582 -0.00306050526
  vertex -0.15536429 7.472932e-07 -0.00306050526
  vertex -0.159363911 7.472932e-07 -0.00306050526
  endloop
 endfacet

 facet normal 0 0 -1
  outer loop
  vertex -0.15536429 0.0044791582 -0.00306050526
  vertex -0.159363911 7.472932e-07 -0.00306050526
  vertex -0.159363911 0.0044791582 -0.00306050526
  endloop
 endfacet

endsolid AssimpScene
