solid AssimpScene
 facet normal 0 1 0
  outer loop
  vertex -0.157364458 0.0199995302 0.00128215319
  vertex -0.157364458 0.0199995302 -0.00202000001
  vertex -0.159364298 0.0199995302 -0.00202000001
  endloop
 endfacet

 facet normal 0 1 0
  outer loop
  vertex -0.157364458 0.0199995302 0.00128215319
  vertex -0.159364298 0.0199995302 -0.00202000001
  vertex -0.159364298 0.0199995302 0.00128215319
  endloop
 endfacet

 facet normal 0 0 1
  outer loop
  vertex -0.157364458 0.0199995302 0.00128215319
  vertex -0.159364298 0.0199995302 0.00128215319
  vertex -0.159364298 0.018403504 0.00128215319
  endloop
 endfacet

 facet normal 0 0 1
  outer loop
  vertex -0.157364458 0.0199995302 0.00128215319
  vertex -0.159364298 0.018403504 0.00128215319
  vertex -0.157364458 0.018403504 0.00128215319
  endloop
 endfacet

 facet normal 1 0 0
  outer loop
  vertex -0.157364458 0.0199995302 0.00128215319
  vertex -0.157364458 0.018403504 0.00128215319
  vertex -0.157364458 0.0152048795 -0.000524075469
  endloop
 endfacet

 facet normal 1 0 0
  outer loop
  vertex -0.157364458 0.0199995302 0.00128215319
  vertex -0.157364458 0.0152048795 -0.000524075469
  vertex -0.157364458 0.0152048795 -0.00202000001
  endloop
 endfacet

 facet normal 1 0 0
  outer loop
  vertex -0.157364458 0.0199995302 0.00128215319
  vertex -0.157364458 0.0152048795 -0.00202000001
  vertex -0.157364458 0.0199995302 -0.00202000001
  endloop
 endfacet

 facet normal 0 0 -1
  outer loop
  vertex -0.157364458 0.0199995302 -0.00202000001
  vertex -0.157364458 0.0152048795 -0.00202000001
  vertex -0.159364298 0.0152048795 -0.00202000001
  endloop
 endfacet

 facet normal 0 0 -1
  outer loop
  vertex -0.157364458 0.0199995302 -0.00202000001
  vertex -0.159364298 0.0152048795 -0.00202000001
  vertex -0.159364298 0.0199995302 -0.00202000001
  endloop
 endfacet

 facet normal -1 0 0
  outer loop
  vertex -0.159364298 0.0199995302 0.00128215319
  vertex -0.159364298 0.0199995302 -0.00202000001
  vertex -0.159364298 0.0152048795 -0.00202000001
  endloop
 endfacet

 facet normal -1 0 0
  outer loop
  vertex -0.159364298 0.0199995302 0.00128215319
  vertex -0.159364298 0.0152048795 -0.00202000001
  vertex -0.159364298 0.0152048795 -0.000524075469
  endloop
 endfacet

 facet normal -1 0 0
  outer loop
  vertex -0.159364298 0.0199995302 0.00128215319
  vertex -0.159364298 0.0152048795 -0.000524075469
  vertex -0.159364298 0.018403504 0.00128215319
  endloop
 endfacet

 facet normal 0 -0.491708755 0.870759726
  outer loop
  vertex -0.157364458 0.018403504 0.00128215319
  vertex -0.159364298 0.018403504 0.00128215319
  vertex -0.159364298 0.0152048795 -0.000524075469
  endloop
 endfacet

 facet normal 0 -0.491708755 0.870759726
  outer loop
  vertex -0.157364458 0.018403504 0.00128215319
  vertex -0.159364298 0.0152048795 -0.000524075469
  vertex -0.157364458 0.0152048795 -0.000524075469
  endloop
 endfacet

 facet normal 0 -1 0
  outer loop
  vertex -0.157364458 0.0152048795 -0.00202000001
  vertex -0.157364458 0.0152048795 -0.000524075469
  vertex -0.159364298 0.0152048795 -0.000524075469
  endloop
 endfacet

 facet normal 0 -1 0
  outer loop
  vertex -0.157364458 0.0152048795 -0.00202000001
  vertex -0.159364298 0.0152048795 -0.000524075469
  vertex -0.159364298 0.0152048795 -0.00202000001
  endloop
 endfacet

endsolid AssimpScene
