solid AssimpScene
 facet normal 0.220820114 0.975314677 0
  outer loop
  vertex -0.0510203429 0.0421408527 0.0170051251
  vertex -0.047693871 0.0413877107 0.0170051251
  vertex -0.047693871 0.0413877107 0.0149986837
  endloop
 endfacet

 facet normal 0.220820114 0.975314677 0
  outer loop
  vertex -0.0510203429 0.0421408527 0.0170051251
  vertex -0.047693871 0.0413877107 0.0149986837
  vertex -0.0510203429 0.0421408527 0.0149986837
  endloop
 endfacet

 facet normal -1 0 0
  outer loop
  vertex -0.0510203429 0.0421408527 0.0170051251
  vertex -0.0510203429 0.0421408527 0.0149986837
  vertex -0.0510203429 0.0400889218 0.0149986837
  endloop
 endfacet

 facet normal -1 0 0
  outer loop
  vertex -0.0510203429 0.0421408527 0.0170051251
  vertex -0.0510203429 0.0400889218 0.0149986837
  vertex -0.0510203429 0.0389732979 0.0170051251
  endloop
 endfacet

 facet normal 0 0 1
  outer loop
  vertex -0.0510203429 0.0421408527 0.0170051251
  vertex -0.0510203429 0.0389732979 0.0170051251
  vertex -0.0403871797 0.0290556327 0.0170051251
  endloop
 endfacet

 facet normal 0 0 1
  outer loop
  vertex -0.0510203429 0.0421408527 0.0170051251
  vertex -0.0403871797 0.0290556327 0.0170051251
  vertex -0.0299808718 0.0290556327 0.0170051251
  endloop
 endfacet

 facet normal 0 0 1
  outer loop
  vertex -0.0510203429 0.0421408527 0.0170051251
  vertex -0.0299808718 0.0290556327 0.0170051251
  vertex -0.0299540628 0.0291760322 0.0170051251
  endloop
 endfacet

 facet normal 0 0 1
  outer loop
  vertex -0.0510203429 0.0421408527 0.0170051251
  vertex -0.0299540628 0.0291760322 0.0170051251
  vertex -0.0352252722 0.0328059793 0.0170051251
  endloop
 endfacet

 facet normal 0 0 1
  outer loop
  vertex -0.0510203429 0.0421408527 0.0170051251
  vertex -0.0352252722 0.0328059793 0.0170051251
  vertex -0.0459615476 0.0401965156 0.0170051251
  endloop
 endfacet

 facet normal 0 0 1
  outer loop
  vertex -0.0510203429 0.0421408527 0.0170051251
  vertex -0.0459615476 0.0401965156 0.0170051251
  vertex -0.047693871 0.0413877107 0.0170051251
  endloop
 endfacet

 facet normal 0.56660074 0.823992491 0
  outer loop
  vertex -0.047693871 0.0413877107 0.0170051251
  vertex -0.0459615476 0.0401965156 0.0170051251
  vertex -0.047693871 0.0413877107 0.0149986837
  endloop
 endfacet

 facet normal 0 0 -1
  outer loop
  vertex -0.0510203429 0.0421408527 0.0149986837
  vertex -0.047693871 0.0413877107 0.0149986837
  vertex -0.0445591919 0.039230749 0.0149986837
  endloop
 endfacet

 facet normal 0 0 -1
  outer loop
  vertex -0.0510203429 0.0421408527 0.0149986837
  vertex -0.0445591919 0.039230749 0.0149986837
  vertex -0.0352252722 0.0328059793 0.0149986837
  endloop
 endfacet

 facet normal 0 0 -1
  outer loop
  vertex -0.0510203429 0.0421408527 0.0149986837
  vertex -0.0352252722 0.0328059793 0.0149986837
  vertex -0.0299540628 0.0291760322 0.0149986837
  endloop
 endfacet

 facet normal 0 0 -1
  outer loop
  vertex -0.0510203429 0.0421408527 0.0149986837
  vertex -0.0299540628 0.0291760322 0.0149986837
  vertex -0.0299684983 0.0291107092 0.0149986837
  endloop
 endfacet

 facet normal 0 0 -1
  outer loop
  vertex -0.0510203429 0.0421408527 0.0149986837
  vertex -0.0299684983 0.0291107092 0.0149986837
  vertex -0.0299808718 0.0290556327 0.0149986837
  endloop
 endfacet

 facet normal 0 0 -1
  outer loop
  vertex -0.0510203429 0.0421408527 0.0149986837
  vertex -0.0299808718 0.0290556327 0.0149986837
  vertex -0.0334723257 0.0290556327 0.0149986837
  endloop
 endfacet

 facet normal 0 0 -1
  outer loop
  vertex -0.0510203429 0.0421408527 0.0149986837
  vertex -0.0334723257 0.0290556327 0.0149986837
  vertex -0.0510203429 0.0400889218 0.0149986837
  endloop
 endfacet

 facet normal -0.631840587 -0.677423835 -0.376662433
  outer loop
  vertex -0.0510203429 0.0389732979 0.0170051251
  vertex -0.0510203429 0.0400889218 0.0149986837
  vertex -0.0403871797 0.0290556327 0.0170051251
  endloop
 endfacet

 facet normal 0.566862226 0.823812604 -0.000332537165
  outer loop
  vertex -0.047693871 0.0413877107 0.0149986837
  vertex -0.0459615476 0.0401965156 0.0170051251
  vertex -0.0445591919 0.039230749 0.0149986837
  endloop
 endfacet

 facet normal 0.567015767 0.823706985 0
  outer loop
  vertex -0.0459615476 0.0401965156 0.0170051251
  vertex -0.0352252722 0.0328059793 0.0170051251
  vertex -0.0352252722 0.0328059793 0.0149986837
  endloop
 endfacet

 facet normal 0.566990256 0.823724508 -0.000200662849
  outer loop
  vertex -0.0459615476 0.0401965156 0.0170051251
  vertex -0.0352252722 0.0328059793 0.0149986837
  vertex -0.0445591919 0.039230749 0.0149986837
  endloop
 endfacet

 facet normal -0.254767954 -0.405198395 -0.878013492
  outer loop
  vertex -0.0510203429 0.0400889218 0.0149986837
  vertex -0.0334723257 0.0290556327 0.0149986837
  vertex -0.0403871797 0.0290556327 0.0170051251
  endloop
 endfacet

 facet normal 0 -1 0
  outer loop
  vertex -0.0403871797 0.0290556327 0.0170051251
  vertex -0.0334723257 0.0290556327 0.0149986837
  vertex -0.0299808718 0.0290556327 0.0149986837
  endloop
 endfacet

 facet normal 0 -1 0
  outer loop
  vertex -0.0403871797 0.0290556327 0.0170051251
  vertex -0.0299808718 0.0290556327 0.0149986837
  vertex -0.0299808718 0.0290556327 0.0170051251
  endloop
 endfacet

 facet normal 0.567164063 0.823604941 0
  outer loop
  vertex -0.0352252722 0.0328059793 0.0170051251
  vertex -0.0299540628 0.0291760322 0.0170051251
  vertex -0.0299540628 0.0291760322 0.0149986837
  endloop
 endfacet

 facet normal 0.567164063 0.823604941 0
  outer loop
  vertex -0.0352252722 0.0328059793 0.0170051251
  vertex -0.0299540628 0.0291760322 0.0149986837
  vertex -0.0352252722 0.0328059793 0.0149986837
  endloop
 endfacet

 facet normal 0.975682676 -0.2191879 0
  outer loop
  vertex -0.0299808718 0.0290556327 0.0170051251
  vertex -0.0299808718 0.0290556327 0.0149986837
  vertex -0.0299684983 0.0291107092 0.0149986837
  endloop
 endfacet

 facet normal 0.976094723 -0.217345461 5.31162877e-05
  outer loop
  vertex -0.0299808718 0.0290556327 0.0170051251
  vertex -0.0299684983 0.0291107092 0.0149986837
  vertex -0.0299540628 0.0291760322 0.0170051251
  endloop
 endfacet

 facet normal 0.976439834 -0.215790212 0
  outer loop
  vertex -0.0299540628 0.0291760322 0.0170051251
  vertex -0.0299684983 0.0291107092 0.0149986837
  vertex -0.0299540628 0.0291760322 0.0149986837
  endloop
 endfacet

endsolid AssimpScene
