solid AssimpScene
 facet normal 5.5931403e-05 1 0
  outer loop
  vertex -0.0729140565 -0.0222442131 0.0169999041
  vertex -0.0588713251 -0.0222449992 0.0170056652
  vertex -0.0588713251 -0.0222449992 0.0162059013
  endloop
 endfacet

 facet normal 5.5931403e-05 1 0
  outer loop
  vertex -0.0729140565 -0.0222442131 0.0169999041
  vertex -0.0588713251 -0.0222449992 0.0162059013
  vertex -0.0729140565 -0.0222442131 0.0150000853
  endloop
 endfacet

 facet normal 0 1 0
  outer loop
  vertex -0.0729140565 -0.0222442131 0.0169999041
  vertex -0.0729140565 -0.0222442131 0.0150000853
  vertex -0.0949431211 -0.0222442131 0.0150000853
  endloop
 endfacet

 facet normal 0 1 0
  outer loop
  vertex -0.0729140565 -0.0222442131 0.0169999041
  vertex -0.0949431211 -0.0222442131 0.0150000853
  vertex -0.0949868932 -0.0222442131 0.0150021417
  endloop
 endfacet

 facet normal 0 1 0
  outer loop
  vertex -0.0729140565 -0.0222442131 0.0169999041
  vertex -0.0949868932 -0.0222442131 0.0150021417
  vertex -0.0949948505 -0.0222442131 0.0150029641
  endloop
 endfacet

 facet normal 0 1 0
  outer loop
  vertex -0.0729140565 -0.0222442131 0.0169999041
  vertex -0.0949948505 -0.0222442131 0.0150029641
  vertex -0.095034644 -0.0222442131 0.0150076952
  endloop
 endfacet

 facet normal 0 1 0
  outer loop
  vertex -0.0729140565 -0.0222442131 0.0169999041
  vertex -0.095034644 -0.0222442131 0.0150076952
  vertex -0.0950744376 -0.0222442131 0.0150173632
  endloop
 endfacet

 facet normal 0 1 0
  outer loop
  vertex -0.0729140565 -0.0222442131 0.0169999041
  vertex -0.0950744376 -0.0222442131 0.0150173632
  vertex -0.0950823948 -0.0222442131 0.0150194205
  endloop
 endfacet

 facet normal 0 1 0
  outer loop
  vertex -0.0729140565 -0.0222442131 0.0169999041
  vertex -0.0950823948 -0.0222442131 0.0150194205
  vertex -0.0951182097 -0.0222442131 0.0150305284
  endloop
 endfacet

 facet normal 0 1 0
  outer loop
  vertex -0.0729140565 -0.0222442131 0.0169999041
  vertex -0.0951182097 -0.0222442131 0.0150305284
  vertex -0.0951261669 -0.0222442131 0.0150332022
  endloop
 endfacet

 facet normal 0 1 0
  outer loop
  vertex -0.0729140565 -0.0222442131 0.0169999041
  vertex -0.0951261669 -0.0222442131 0.0150332022
  vertex -0.0951580033 -0.0222442131 0.0150471907
  endloop
 endfacet

 facet normal 0 1 0
  outer loop
  vertex -0.0729140565 -0.0222442131 0.0169999041
  vertex -0.0951580033 -0.0222442131 0.0150471907
  vertex -0.095205754 -0.0222442131 0.015071257
  endloop
 endfacet

 facet normal 0 1 0
  outer loop
  vertex -0.0729140565 -0.0222442131 0.0169999041
  vertex -0.095205754 -0.0222442131 0.015071257
  vertex -0.0952375829 -0.0222442131 0.0150905931
  endloop
 endfacet

 facet normal 0 1 0
  outer loop
  vertex -0.0729140565 -0.0222442131 0.0169999041
  vertex -0.0952375829 -0.0222442131 0.0150905931
  vertex -0.0952733979 -0.0222442131 0.0151171284
  endloop
 endfacet

 facet normal 0 1 0
  outer loop
  vertex -0.0729140565 -0.0222442131 0.0169999041
  vertex -0.0952733979 -0.0222442131 0.0151171284
  vertex -0.0953370705 -0.0222442131 0.0151788378
  endloop
 endfacet

 facet normal 0 1 0
  outer loop
  vertex -0.0729140565 -0.0222442131 0.0169999041
  vertex -0.0953370705 -0.0222442131 0.0151788378
  vertex -0.0953609422 -0.0222442131 0.0152133964
  endloop
 endfacet

 facet normal 0 1 0
  outer loop
  vertex -0.0729140565 -0.0222442131 0.0169999041
  vertex -0.0953609422 -0.0222442131 0.0152133964
  vertex -0.0953887999 -0.0222442131 0.015256593
  endloop
 endfacet

 facet normal 0 1 0
  outer loop
  vertex -0.0729140565 -0.0222442131 0.0169999041
  vertex -0.0953887999 -0.0222442131 0.015256593
  vertex -0.095408693 -0.0222442131 0.0152888885
  endloop
 endfacet

 facet normal 0 1 0
  outer loop
  vertex -0.0729140565 -0.0222442131 0.0169999041
  vertex -0.095408693 -0.0222442131 0.0152888885
  vertex -0.0954246148 -0.0222442131 0.0153292064
  endloop
 endfacet

 facet normal 0 1 0
  outer loop
  vertex -0.0729140565 -0.0222442131 0.0169999041
  vertex -0.0954246148 -0.0222442131 0.0153292064
  vertex -0.0954405293 -0.0222442131 0.0153707573
  endloop
 endfacet

 facet normal 0 1 0
  outer loop
  vertex -0.0729140565 -0.0222442131 0.0169999041
  vertex -0.0954405293 -0.0222442131 0.0153707573
  vertex -0.0954484865 -0.0222442131 0.0154133365
  endloop
 endfacet

 facet normal 0 1 0
  outer loop
  vertex -0.0729140565 -0.0222442131 0.0169999041
  vertex -0.0954484865 -0.0222442131 0.0154133365
  vertex -0.0954564437 -0.0222442131 0.0154567407
  endloop
 endfacet

 facet normal 0 1 0
  outer loop
  vertex -0.0729140565 -0.0222442131 0.0169999041
  vertex -0.0954564437 -0.0222442131 0.0154567407
  vertex -0.0954564437 -0.0222442131 0.0165434554
  endloop
 endfacet

 facet normal 0 1 0
  outer loop
  vertex -0.0729140565 -0.0222442131 0.0169999041
  vertex -0.0954564437 -0.0222442131 0.0165434554
  vertex -0.0954484865 -0.0222442131 0.0165866539
  endloop
 endfacet

 facet normal 0 1 0
  outer loop
  vertex -0.0729140565 -0.0222442131 0.0169999041
  vertex -0.0954484865 -0.0222442131 0.0165866539
  vertex -0.0954405293 -0.0222442131 0.0166292321
  endloop
 endfacet

 facet normal 0 1 0
  outer loop
  vertex -0.0729140565 -0.0222442131 0.0169999041
  vertex -0.0954405293 -0.0222442131 0.0166292321
  vertex -0.095408693 -0.0222442131 0.0167111009
  endloop
 endfacet

 facet normal 0 1 0
  outer loop
  vertex -0.0729140565 -0.0222442131 0.0169999041
  vertex -0.095408693 -0.0222442131 0.0167111009
  vertex -0.0953848213 -0.0222442131 0.0167557392
  endloop
 endfacet

 facet normal 0 1 0
  outer loop
  vertex -0.0729140565 -0.0222442131 0.0169999041
  vertex -0.0953848213 -0.0222442131 0.0167557392
  vertex -0.0953370705 -0.0222442131 0.0168211516
  endloop
 endfacet

 facet normal 0 1 0
  outer loop
  vertex -0.0729140565 -0.0222442131 0.0169999041
  vertex -0.0953370705 -0.0222442131 0.0168211516
  vertex -0.0953012556 -0.0222442131 0.016858384
  endloop
 endfacet

 facet normal 0 1 0
  outer loop
  vertex -0.0729140565 -0.0222442131 0.0169999041
  vertex -0.0953012556 -0.0222442131 0.016858384
  vertex -0.0952733979 -0.0222442131 0.016882861
  endloop
 endfacet

 facet normal 0 1 0
  outer loop
  vertex -0.0729140565 -0.0222442131 0.0169999041
  vertex -0.0952733979 -0.0222442131 0.016882861
  vertex -0.0952296332 -0.0222442131 0.0169133041
  endloop
 endfacet

 facet normal 0 1 0
  outer loop
  vertex -0.0729140565 -0.0222442131 0.0169999041
  vertex -0.0952296332 -0.0222442131 0.0169133041
  vertex -0.0951977968 -0.0222442131 0.016932847
  endloop
 endfacet

 facet normal 0 1 0
  outer loop
  vertex -0.0729140565 -0.0222442131 0.0169999041
  vertex -0.0951977968 -0.0222442131 0.016932847
  vertex -0.0951540247 -0.0222442131 0.016955886
  endloop
 endfacet

 facet normal 0 1 0
  outer loop
  vertex -0.0729140565 -0.0222442131 0.0169999041
  vertex -0.0951540247 -0.0222442131 0.016955886
  vertex -0.0951182097 -0.0222442131 0.016969461
  endloop
 endfacet

 facet normal 0 1 0
  outer loop
  vertex -0.0729140565 -0.0222442131 0.0169999041
  vertex -0.0951182097 -0.0222442131 0.016969461
  vertex -0.0950744376 -0.0222442131 0.0169826262
  endloop
 endfacet

 facet normal 0 1 0
  outer loop
  vertex -0.0729140565 -0.0222442131 0.0169999041
  vertex -0.0950744376 -0.0222442131 0.0169826262
  vertex -0.095034644 -0.0222442131 0.0169922933
  endloop
 endfacet

 facet normal 0 1 0
  outer loop
  vertex -0.0729140565 -0.0222442131 0.0169999041
  vertex -0.095034644 -0.0222442131 0.0169922933
  vertex -0.0949868932 -0.0222442131 0.0169978477
  endloop
 endfacet

 facet normal 0 1 0
  outer loop
  vertex -0.0729140565 -0.0222442131 0.0169999041
  vertex -0.0949868932 -0.0222442131 0.0169978477
  vertex -0.094978936 -0.0222442131 0.0169982594
  endloop
 endfacet

 facet normal 0 1 0
  outer loop
  vertex -0.0729140565 -0.0222442131 0.0169999041
  vertex -0.094978936 -0.0222442131 0.0169982594
  vertex -0.0949431211 -0.0222442131 0.0169999041
  endloop
 endfacet

 facet normal 0 0.990830183 0.135113209
  outer loop
  vertex -0.0729140565 -0.0222442131 0.0169999041
  vertex -0.0949431211 -0.0222442131 0.0169999041
  vertex -0.0639169961 -0.0222449992 0.0170056652
  endloop
 endfacet

 facet normal 0 0.990830183 0.135113209
  outer loop
  vertex -0.0729140565 -0.0222442131 0.0169999041
  vertex -0.0639169961 -0.0222449992 0.0170056652
  vertex -0.0588713251 -0.0222449992 0.0170056652
  endloop
 endfacet

 facet normal 0.451892436 0.892072439 0
  outer loop
  vertex -0.0588713251 -0.0222449992 0.0170056652
  vertex -0.055305928 -0.0240511037 0.0170056652
  vertex -0.0588713251 -0.0222449992 0.0162059013
  endloop
 endfacet

 facet normal 0 0 1
  outer loop
  vertex -0.0588713251 -0.0222449992 0.0170056652
  vertex -0.0639169961 -0.0222449992 0.0170056652
  vertex -0.0637140572 -0.0231574792 0.0170056652
  endloop
 endfacet

 facet normal 0 0 1
  outer loop
  vertex -0.0588713251 -0.0222449992 0.0170056652
  vertex -0.0637140572 -0.0231574792 0.0170056652
  vertex -0.0630097315 -0.0262566879 0.0170056652
  endloop
 endfacet

 facet normal 0 0 1
  outer loop
  vertex -0.0588713251 -0.0222449992 0.0170056652
  vertex -0.0630097315 -0.0262566879 0.0170056652
  vertex -0.0548045412 -0.0262566879 0.0170056652
  endloop
 endfacet

 facet normal 0 0 1
  outer loop
  vertex -0.0588713251 -0.0222449992 0.0170056652
  vertex -0.0548045412 -0.0262566879 0.0170056652
  vertex -0.055305928 -0.0240511037 0.0170056652
  endloop
 endfacet

 facet normal 7.61643896e-05 0.99999994 -0.000235630054
  outer loop
  vertex -0.0729140565 -0.0222442131 0.0150000853
  vertex -0.0588713251 -0.0222449992 0.0162059013
  vertex -0.0628983155 -0.0222449992 0.014904228
  endloop
 endfacet

 facet normal 0 0.999966383 -0.00819351617
  outer loop
  vertex -0.0729140565 -0.0222442131 0.0150000853
  vertex -0.0628983155 -0.0222449992 0.014904228
  vertex -0.0718754753 -0.0222449992 0.014904228
  endloop
 endfacet

 facet normal 0 0.999966383 -0.00819351617
  outer loop
  vertex -0.0729140565 -0.0222442131 0.0150000853
  vertex -0.0718754753 -0.0222449992 0.014904228
  vertex -0.0949431211 -0.0222442131 0.0150000853
  endloop
 endfacet

 facet normal -0.0458906367 -0.0103754001 0.998892546
  outer loop
  vertex -0.0949431211 -0.0222442131 0.0169999041
  vertex -0.094978936 -0.0222442131 0.0169982594
  vertex -0.0940358564 -0.026257081 0.0169999041
  endloop
 endfacet

 facet normal -0.000185665311 -4.19770186e-05 1
  outer loop
  vertex -0.0949431211 -0.0222442131 0.0169999041
  vertex -0.0940358564 -0.026257081 0.0169999041
  vertex -0.0637140572 -0.0231574792 0.0170056652
  endloop
 endfacet

 facet normal -0.000185645185 -4.12886948e-05 1
  outer loop
  vertex -0.0949431211 -0.0222442131 0.0169999041
  vertex -0.0637140572 -0.0231574792 0.0170056652
  vertex -0.0639169961 -0.0222449992 0.0170056652
  endloop
 endfacet

 facet normal 0.28025955 0.0637100935 -0.95780772
  outer loop
  vertex -0.055305928 -0.0240511037 0.0170056652
  vertex -0.0548045412 -0.0262566879 0.0170056652
  vertex -0.0628983155 -0.0222449992 0.014904228
  endloop
 endfacet

 facet normal 0.302392334 0.182691798 -0.935512006
  outer loop
  vertex -0.055305928 -0.0240511037 0.0170056652
  vertex -0.0628983155 -0.0222449992 0.014904228
  vertex -0.0588713251 -0.0222449992 0.0162059013
  endloop
 endfacet

 facet normal 0.2439439 -0.0157676544 -0.969661176
  outer loop
  vertex -0.0628983155 -0.0222449992 0.014904228
  vertex -0.0548045412 -0.0262566879 0.0170056652
  vertex -0.0627749562 -0.0262566879 0.0150004961
  endloop
 endfacet

 facet normal 0.0207560603 -0.0233468693 -0.999511898
  outer loop
  vertex -0.0628983155 -0.0222449992 0.014904228
  vertex -0.0627749562 -0.0262566879 0.0150004961
  vertex -0.0635389686 -0.0228145625 0.014904228
  endloop
 endfacet

 facet normal 0 0 -1
  outer loop
  vertex -0.0628983155 -0.0222449992 0.014904228
  vertex -0.0635389686 -0.0228145625 0.014904228
  vertex -0.0643746108 -0.023003893 0.014904228
  endloop
 endfacet

 facet normal 0 0 -1
  outer loop
  vertex -0.0628983155 -0.0222449992 0.014904228
  vertex -0.0643746108 -0.023003893 0.014904228
  vertex -0.0692491755 -0.0241080597 0.014904228
  endloop
 endfacet

 facet normal 0 0 -1
  outer loop
  vertex -0.0628983155 -0.0222449992 0.014904228
  vertex -0.0692491755 -0.0241080597 0.014904228
  vertex -0.0708607733 -0.0244721882 0.014904228
  endloop
 endfacet

 facet normal 0 0 -1
  outer loop
  vertex -0.0628983155 -0.0222449992 0.014904228
  vertex -0.0708607733 -0.0244721882 0.014904228
  vertex -0.0708687305 -0.0244737584 0.014904228
  endloop
 endfacet

 facet normal 0 0 -1
  outer loop
  vertex -0.0628983155 -0.0222449992 0.014904228
  vertex -0.0708687305 -0.0244737584 0.014904228
  vertex -0.0709045455 -0.0244761165 0.014904228
  endloop
 endfacet

 facet normal 0 0 -1
  outer loop
  vertex -0.0628983155 -0.0222449992 0.014904228
  vertex -0.0709045455 -0.0244761165 0.014904228
  vertex -0.0709522963 -0.0244659018 0.014904228
  endloop
 endfacet

 facet normal 0 0 -1
  outer loop
  vertex -0.0628983155 -0.0222449992 0.014904228
  vertex -0.0709522963 -0.0244659018 0.014904228
  vertex -0.071000047 -0.0244490132 0.014904228
  endloop
 endfacet

 facet normal 0 0 -1
  outer loop
  vertex -0.0628983155 -0.0222449992 0.014904228
  vertex -0.071000047 -0.0244490132 0.014904228
  vertex -0.0710477978 -0.024422301 0.014904228
  endloop
 endfacet

 facet normal 0 0 -1
  outer loop
  vertex -0.0628983155 -0.0222449992 0.014904228
  vertex -0.0710477978 -0.024422301 0.014904228
  vertex -0.0710995272 -0.0243857708 0.014904228
  endloop
 endfacet

 facet normal 0 0 -1
  outer loop
  vertex -0.0628983155 -0.0222449992 0.014904228
  vertex -0.0710995272 -0.0243857708 0.014904228
  vertex -0.071147278 -0.0243390277 0.014904228
  endloop
 endfacet

 facet normal 0 0 -1
  outer loop
  vertex -0.0628983155 -0.0222449992 0.014904228
  vertex -0.071147278 -0.0243390277 0.014904228
  vertex -0.0711950287 -0.0242918916 0.014904228
  endloop
 endfacet

 facet normal 0 0 -1
  outer loop
  vertex -0.0628983155 -0.0222449992 0.014904228
  vertex -0.0711950287 -0.0242918916 0.014904228
  vertex -0.0712109432 -0.0242757872 0.014904228
  endloop
 endfacet

 facet normal 0 0 -1
  outer loop
  vertex -0.0628983155 -0.0222449992 0.014904228
  vertex -0.0712109432 -0.0242757872 0.014904228
  vertex -0.0712427795 -0.0242404342 0.014904228
  endloop
 endfacet

 facet normal 0 0 -1
  outer loop
  vertex -0.0628983155 -0.0222449992 0.014904228
  vertex -0.0712427795 -0.0242404342 0.014904228
  vertex -0.0712945089 -0.0241752286 0.014904228
  endloop
 endfacet

 facet normal 0 0 -1
  outer loop
  vertex -0.0628983155 -0.0222449992 0.014904228
  vertex -0.0712945089 -0.0241752286 0.014904228
  vertex -0.0713343024 -0.0241222009 0.014904228
  endloop
 endfacet

 facet normal 0 0 -1
  outer loop
  vertex -0.0628983155 -0.0222449992 0.014904228
  vertex -0.0713343024 -0.0241222009 0.014904228
  vertex -0.0713462383 -0.0241041314 0.014904228
  endloop
 endfacet

 facet normal 0 0 -1
  outer loop
  vertex -0.0628983155 -0.0222449992 0.014904228
  vertex -0.0713462383 -0.0241041314 0.014904228
  vertex -0.0713740885 -0.0240613166 0.014904228
  endloop
 endfacet

 facet normal 0 0 -1
  outer loop
  vertex -0.0628983155 -0.0222449992 0.014904228
  vertex -0.0713740885 -0.0240613166 0.014904228
  vertex -0.0714138821 -0.023995718 0.014904228
  endloop
 endfacet

 facet normal 0 0 -1
  outer loop
  vertex -0.0628983155 -0.0222449992 0.014904228
  vertex -0.0714138821 -0.023995718 0.014904228
  vertex -0.071449697 -0.0239312984 0.014904228
  endloop
 endfacet

 facet normal 0 0 -1
  outer loop
  vertex -0.0628983155 -0.0222449992 0.014904228
  vertex -0.071449697 -0.0239312984 0.014904228
  vertex -0.0714815333 -0.0238664858 0.014904228
  endloop
 endfacet

 facet normal 0 0 -1
  outer loop
  vertex -0.0628983155 -0.0222449992 0.014904228
  vertex -0.0714815333 -0.0238664858 0.014904228
  vertex -0.0715014264 -0.0238209218 0.014904228
  endloop
 endfacet

 facet normal 0 0 -1
  outer loop
  vertex -0.0628983155 -0.0222449992 0.014904228
  vertex -0.0715014264 -0.0238209218 0.014904228
  vertex -0.0715173483 -0.0237839986 0.014904228
  endloop
 endfacet

 facet normal 0 0 -1
  outer loop
  vertex -0.0628983155 -0.0222449992 0.014904228
  vertex -0.0715173483 -0.0237839986 0.014904228
  vertex -0.0715372413 -0.0237313621 0.014904228
  endloop
 endfacet

 facet normal 0 0 -1
  outer loop
  vertex -0.0628983155 -0.0222449992 0.014904228
  vertex -0.0715372413 -0.0237313621 0.014904228
  vertex -0.0715730563 -0.0236009527 0.014904228
  endloop
 endfacet

 facet normal 0 0 -1
  outer loop
  vertex -0.0628983155 -0.0222449992 0.014904228
  vertex -0.0715730563 -0.0236009527 0.014904228
  vertex -0.0718714967 -0.0222858507 0.014904228
  endloop
 endfacet

 facet normal 0 0 -1
  outer loop
  vertex -0.0628983155 -0.0222449992 0.014904228
  vertex -0.0718714967 -0.0222858507 0.014904228
  vertex -0.0718754753 -0.0222449992 0.014904228
  endloop
 endfacet

 facet normal -0.00415543793 -0.00040479665 -0.999991298
  outer loop
  vertex -0.0949431211 -0.0222442131 0.0150000853
  vertex -0.0718754753 -0.0222449992 0.014904228
  vertex -0.0718714967 -0.0222858507 0.014904228
  endloop
 endfacet

 facet normal -0.00415640231 -0.000939719728 -0.99999094
  outer loop
  vertex -0.0949431211 -0.0222442131 0.0150000853
  vertex -0.0718714967 -0.0222858507 0.014904228
  vertex -0.0940358564 -0.026257081 0.0150000853
  endloop
 endfacet

 facet normal -0.0469226316 -0.0106087243 -0.998842299
  outer loop
  vertex -0.0949431211 -0.0222442131 0.0150000853
  vertex -0.0940358564 -0.026257081 0.0150000853
  vertex -0.0940796286 -0.026257081 0.0150021417
  endloop
 endfacet

 facet normal -0.0469247214 -0.0106091741 -0.99884212
  outer loop
  vertex -0.0949431211 -0.0222442131 0.0150000853
  vertex -0.0940796286 -0.026257081 0.0150021417
  vertex -0.0949868932 -0.0222442131 0.0150021417
  endloop
 endfacet

 facet normal -0.0515755564 -0.0116606783 0.998601079
  outer loop
  vertex -0.094978936 -0.0222442131 0.0169982594
  vertex -0.0949868932 -0.0222442131 0.0169978477
  vertex -0.0940796286 -0.026257081 0.0169978477
  endloop
 endfacet

 facet normal -0.0469226204 -0.0106179519 0.99884212
  outer loop
  vertex -0.094978936 -0.0222442131 0.0169982594
  vertex -0.0940796286 -0.026257081 0.0169978477
  vertex -0.0940358564 -0.026257081 0.0169999041
  endloop
 endfacet

 facet normal 0 -1 0
  outer loop
  vertex -0.0940358564 -0.026257081 0.0169999041
  vertex -0.0940796286 -0.026257081 0.0169978477
  vertex -0.0941154435 -0.026257081 0.0169935282
  endloop
 endfacet

 facet normal 0 -1 0
  outer loop
  vertex -0.0940358564 -0.026257081 0.0169999041
  vertex -0.0941154435 -0.026257081 0.0169935282
  vertex -0.0941234007 -0.026257081 0.0169922933
  endloop
 endfacet

 facet normal 0 -1 0
  outer loop
  vertex -0.0940358564 -0.026257081 0.0169999041
  vertex -0.0941234007 -0.026257081 0.0169922933
  vertex -0.0941592157 -0.026257081 0.0169846844
  endloop
 endfacet

 facet normal 0 -1 0
  outer loop
  vertex -0.0940358564 -0.026257081 0.0169999041
  vertex -0.0941592157 -0.026257081 0.0169846844
  vertex -0.0941671729 -0.026257081 0.0169826262
  endloop
 endfacet

 facet normal 0 -1 0
  outer loop
  vertex -0.0940358564 -0.026257081 0.0169999041
  vertex -0.0941671729 -0.026257081 0.0169826262
  vertex -0.0942029878 -0.026257081 0.0169723406
  endloop
 endfacet

 facet normal 0 -1 0
  outer loop
  vertex -0.0940358564 -0.026257081 0.0169999041
  vertex -0.0942029878 -0.026257081 0.0169723406
  vertex -0.0942109451 -0.026257081 0.016969461
  endloop
 endfacet

 facet normal 0 -1 0
  outer loop
  vertex -0.0940358564 -0.026257081 0.0169999041
  vertex -0.0942109451 -0.026257081 0.016969461
  vertex -0.0942507386 -0.026257081 0.0169530045
  endloop
 endfacet

 facet normal 0 -1 0
  outer loop
  vertex -0.0940358564 -0.026257081 0.0169999041
  vertex -0.0942507386 -0.026257081 0.0169530045
  vertex -0.0942865536 -0.026257081 0.0169369616
  endloop
 endfacet

 facet normal 0 -1 0
  outer loop
  vertex -0.0940358564 -0.026257081 0.0169999041
  vertex -0.0942865536 -0.026257081 0.0169369616
  vertex -0.0943303183 -0.026257081 0.0169093963
  endloop
 endfacet

 facet normal 0 -1 0
  outer loop
  vertex -0.0940358564 -0.026257081 0.0169999041
  vertex -0.0943303183 -0.026257081 0.0169093963
  vertex -0.094358176 -0.026257081 0.0168882087
  endloop
 endfacet

 facet normal 0 -1 0
  outer loop
  vertex -0.0940358564 -0.026257081 0.0169999041
  vertex -0.094358176 -0.026257081 0.0168882087
  vertex -0.0943979695 -0.026257081 0.0168532412
  endloop
 endfacet

 facet normal 0 -1 0
  outer loop
  vertex -0.0940358564 -0.026257081 0.0169999041
  vertex -0.0943979695 -0.026257081 0.0168532412
  vertex -0.0944298059 -0.026257081 0.0168211516
  endloop
 endfacet

 facet normal 0 -1 0
  outer loop
  vertex -0.0940358564 -0.026257081 0.0169999041
  vertex -0.0944298059 -0.026257081 0.0168211516
  vertex -0.0944496989 -0.026257081 0.0167935882
  endloop
 endfacet

 facet normal 0 -1 0
  outer loop
  vertex -0.0940358564 -0.026257081 0.0169999041
  vertex -0.0944496989 -0.026257081 0.0167935882
  vertex -0.0944735706 -0.026257081 0.0167571772
  endloop
 endfacet

 facet normal 0 -1 0
  outer loop
  vertex -0.0940358564 -0.026257081 0.0169999041
  vertex -0.0944735706 -0.026257081 0.0167571772
  vertex -0.0944974497 -0.026257081 0.0167189185
  endloop
 endfacet

 facet normal 0 -1 0
  outer loop
  vertex -0.0940358564 -0.026257081 0.0169999041
  vertex -0.0944974497 -0.026257081 0.0167189185
  vertex -0.0945014283 -0.026257081 0.0167111009
  endloop
 endfacet

 facet normal 0 -1 0
  outer loop
  vertex -0.0940358564 -0.026257081 0.0169999041
  vertex -0.0945014283 -0.026257081 0.0167111009
  vertex -0.094529286 -0.026257081 0.0166374613
  endloop
 endfacet

 facet normal 0 -1 0
  outer loop
  vertex -0.0940358564 -0.026257081 0.0169999041
  vertex -0.094529286 -0.026257081 0.0166374613
  vertex -0.0945412219 -0.026257081 0.0165866539
  endloop
 endfacet

 facet normal 0 -1 0
  outer loop
  vertex -0.0940358564 -0.026257081 0.0169999041
  vertex -0.0945412219 -0.026257081 0.0165866539
  vertex -0.0945452005 -0.026257081 0.0165518895
  endloop
 endfacet

 facet normal 0 -1 0
  outer loop
  vertex -0.0940358564 -0.026257081 0.0169999041
  vertex -0.0945452005 -0.026257081 0.0165518895
  vertex -0.0945491791 -0.026257081 0.0165084861
  endloop
 endfacet

 facet normal 0 -1 0
  outer loop
  vertex -0.0940358564 -0.026257081 0.0169999041
  vertex -0.0945491791 -0.026257081 0.0165084861
  vertex -0.0945491791 -0.026257081 0.0154651739
  endloop
 endfacet

 facet normal 0 -1 0
  outer loop
  vertex -0.0940358564 -0.026257081 0.0169999041
  vertex -0.0945491791 -0.026257081 0.0154651739
  vertex -0.0945412219 -0.026257081 0.0154133365
  endloop
 endfacet

 facet normal 0 -1 0
  outer loop
  vertex -0.0940358564 -0.026257081 0.0169999041
  vertex -0.0945412219 -0.026257081 0.0154133365
  vertex -0.0945213214 -0.026257081 0.0153376386
  endloop
 endfacet

 facet normal 0 -1 0
  outer loop
  vertex -0.0940358564 -0.026257081 0.0169999041
  vertex -0.0945213214 -0.026257081 0.0153376386
  vertex -0.0945014283 -0.026257081 0.0152888885
  endloop
 endfacet

 facet normal 0 -1 0
  outer loop
  vertex -0.0940358564 -0.026257081 0.0169999041
  vertex -0.0945014283 -0.026257081 0.0152888885
  vertex -0.0944616348 -0.026257081 0.0152208013
  endloop
 endfacet

 facet normal 0 -1 0
  outer loop
  vertex -0.0940358564 -0.026257081 0.0169999041
  vertex -0.0944616348 -0.026257081 0.0152208013
  vertex -0.0944337845 -0.026257081 0.0151856262
  endloop
 endfacet

 facet normal 0 -1 0
  outer loop
  vertex -0.0940358564 -0.026257081 0.0169999041
  vertex -0.0944337845 -0.026257081 0.0151856262
  vertex -0.0943979695 -0.026257081 0.0151467491
  endloop
 endfacet

 facet normal 0 -1 0
  outer loop
  vertex -0.0940358564 -0.026257081 0.0169999041
  vertex -0.0943979695 -0.026257081 0.0151467491
  vertex -0.0943382829 -0.026257081 0.0150959408
  endloop
 endfacet

 facet normal 0 -1 0
  outer loop
  vertex -0.0940358564 -0.026257081 0.0169999041
  vertex -0.0943382829 -0.026257081 0.0150959408
  vertex -0.0942984894 -0.026257081 0.0150718736
  endloop
 endfacet

 facet normal 0 -1 0
  outer loop
  vertex -0.0940358564 -0.026257081 0.0169999041
  vertex -0.0942984894 -0.026257081 0.0150718736
  vertex -0.0942905322 -0.026257081 0.0150673492
  endloop
 endfacet

 facet normal 0 -1 0
  outer loop
  vertex -0.0940358564 -0.026257081 0.0169999041
  vertex -0.0942905322 -0.026257081 0.0150673492
  vertex -0.0942586958 -0.026257081 0.0150510985
  endloop
 endfacet

 facet normal 0 -1 0
  outer loop
  vertex -0.0940358564 -0.026257081 0.0169999041
  vertex -0.0942586958 -0.026257081 0.0150510985
  vertex -0.0942507386 -0.026257081 0.0150471907
  endloop
 endfacet

 facet normal 0 -1 0
  outer loop
  vertex -0.0940358564 -0.026257081 0.0169999041
  vertex -0.0942507386 -0.026257081 0.0150471907
  vertex -0.0942109451 -0.026257081 0.0150305284
  endloop
 endfacet

 facet normal 0 -1 0
  outer loop
  vertex -0.0940358564 -0.026257081 0.0169999041
  vertex -0.0942109451 -0.026257081 0.0150305284
  vertex -0.0941671729 -0.026257081 0.0150173632
  endloop
 endfacet

 facet normal 0 -1 0
  outer loop
  vertex -0.0940358564 -0.026257081 0.0169999041
  vertex -0.0941671729 -0.026257081 0.0150173632
  vertex -0.0941234007 -0.026257081 0.0150076952
  endloop
 endfacet

 facet normal 0 -1 0
  outer loop
  vertex -0.0940358564 -0.026257081 0.0169999041
  vertex -0.0941234007 -0.026257081 0.0150076952
  vertex -0.0940796286 -0.026257081 0.0150021417
  endloop
 endfacet

 facet normal 0 -1 0
  outer loop
  vertex -0.0940358564 -0.026257081 0.0169999041
  vertex -0.0940796286 -0.026257081 0.0150021417
  vertex -0.0940358564 -0.026257081 0.0150000853
  endloop
 endfacet

 facet normal 0 -1 0
  outer loop
  vertex -0.0940358564 -0.026257081 0.0169999041
  vertex -0.0940358564 -0.026257081 0.0150000853
  vertex -0.0805223584 -0.026257081 0.0150000853
  endloop
 endfacet

 facet normal 0 -1 0
  outer loop
  vertex -0.0940358564 -0.026257081 0.0169999041
  vertex -0.0805223584 -0.026257081 0.0150000853
  vertex -0.0805223584 -0.026257081 0.0169999041
  endloop
 endfacet

 facet normal 0 -0.997683704 0.0680238903
  outer loop
  vertex -0.0940358564 -0.026257081 0.0169999041
  vertex -0.0805223584 -0.026257081 0.0169999041
  vertex -0.0548045412 -0.0262566879 0.0170056652
  endloop
 endfacet

 facet normal 0 -0.997683704 0.0680238903
  outer loop
  vertex -0.0940358564 -0.026257081 0.0169999041
  vertex -0.0548045412 -0.0262566879 0.0170056652
  vertex -0.0630097315 -0.0262566879 0.0170056652
  endloop
 endfacet

 facet normal -0.000185643614 -4.2189331e-05 1
  outer loop
  vertex -0.0940358564 -0.026257081 0.0169999041
  vertex -0.0630097315 -0.0262566879 0.0170056652
  vertex -0.0637140572 -0.0231574792 0.0170056652
  endloop
 endfacet

 facet normal 1.52701468e-05 -1 0
  outer loop
  vertex -0.0548045412 -0.0262566879 0.0170056652
  vertex -0.0805223584 -0.026257081 0.0169999041
  vertex -0.0805223584 -0.026257081 0.0150000853
  endloop
 endfacet

 facet normal 2.21300561e-05 -1 -8.79655418e-05
  outer loop
  vertex -0.0548045412 -0.0262566879 0.0170056652
  vertex -0.0805223584 -0.026257081 0.0150000853
  vertex -0.0627749562 -0.0262566879 0.0150004961
  endloop
 endfacet

 facet normal 0.00273375143 -0.0415372439 -0.999133229
  outer loop
  vertex -0.0627749562 -0.0262566879 0.0150004961
  vertex -0.0709045455 -0.0244761165 0.014904228
  vertex -0.0708687305 -0.0244737584 0.014904228
  endloop
 endfacet

 facet normal 0.00561900437 -0.0284634382 -0.999579072
  outer loop
  vertex -0.0627749562 -0.0262566879 0.0150004961
  vertex -0.0708687305 -0.0244737584 0.014904228
  vertex -0.0708607733 -0.0244721882 0.014904228
  endloop
 endfacet

 facet normal 0.00602057297 -0.0266464557 -0.999626815
  outer loop
  vertex -0.0627749562 -0.0262566879 0.0150004961
  vertex -0.0708607733 -0.0244721882 0.014904228
  vertex -0.0692491755 -0.0241080597 0.014904228
  endloop
 endfacet

 facet normal 0.00602965383 -0.026619127 -0.999627531
  outer loop
  vertex -0.0627749562 -0.0262566879 0.0150004961
  vertex -0.0692491755 -0.0241080597 0.014904228
  vertex -0.0643746108 -0.023003893 0.014904228
  endloop
 endfacet

 facet normal 0.00603093905 -0.0266184937 -0.999627531
  outer loop
  vertex -0.0627749562 -0.0262566879 0.0150004961
  vertex -0.0643746108 -0.023003893 0.014904228
  vertex -0.0635389686 -0.0228145625 0.014904228
  endloop
 endfacet

 facet normal 2.43205686e-05 -0.0538760722 -0.998547673
  outer loop
  vertex -0.0627749562 -0.0262566879 0.0150004961
  vertex -0.0805223584 -0.026257081 0.0150000853
  vertex -0.0709045455 -0.0244761165 0.014904228
  endloop
 endfacet

 facet normal -0.102842137 -0.0232514963 -0.994425952
  outer loop
  vertex -0.0949868932 -0.0222442131 0.0150021417
  vertex -0.0940796286 -0.026257081 0.0150021417
  vertex -0.0949948505 -0.0222442131 0.0150029641
  endloop
 endfacet

 facet normal -0.00415579602 -0.000943099323 -0.99999094
  outer loop
  vertex -0.0718714967 -0.0222858507 0.014904228
  vertex -0.0715730563 -0.0236009527 0.014904228
  vertex -0.0940358564 -0.026257081 0.0150000853
  endloop
 endfacet

 facet normal -0.00413310295 -0.001135014 -0.99999088
  outer loop
  vertex -0.0940358564 -0.026257081 0.0150000853
  vertex -0.0715730563 -0.0236009527 0.014904228
  vertex -0.0715372413 -0.0237313621 0.014904228
  endloop
 endfacet

 facet normal -0.00408708211 -0.00154494355 -0.999990463
  outer loop
  vertex -0.0940358564 -0.026257081 0.0150000853
  vertex -0.0715372413 -0.0237313621 0.014904228
  vertex -0.0715173483 -0.0237839986 0.014904228
  endloop
 endfacet

 facet normal -0.00406434434 -0.00175196945 -0.999990165
  outer loop
  vertex -0.0940358564 -0.026257081 0.0150000853
  vertex -0.0715173483 -0.0237839986 0.014904228
  vertex -0.0715014264 -0.0238209218 0.014904228
  endloop
 endfacet

 facet normal -0.00406199275 -0.00177372573 -0.999990284
  outer loop
  vertex -0.0940358564 -0.026257081 0.0150000853
  vertex -0.0715014264 -0.0238209218 0.014904228
  vertex -0.0714815333 -0.0238664858 0.014904228
  endloop
 endfacet

 facet normal -0.00403968431 -0.00198418577 -0.999989927
  outer loop
  vertex -0.0940358564 -0.026257081 0.0150000853
  vertex -0.0714815333 -0.0238664858 0.014904228
  vertex -0.071449697 -0.0239312984 0.014904228
  endloop
 endfacet

 facet normal -0.00401420426 -0.00223160582 -0.99998945
  outer loop
  vertex -0.0940358564 -0.026257081 0.0150000853
  vertex -0.071449697 -0.0239312984 0.014904228
  vertex -0.0714138821 -0.023995718 0.014904228
  endloop
 endfacet

 facet normal -0.00399502227 -0.00242347294 -0.999989033
  outer loop
  vertex -0.0940358564 -0.026257081 0.0150000853
  vertex -0.0714138821 -0.023995718 0.014904228
  vertex -0.0713740885 -0.0240613166 0.014904228
  endloop
 endfacet

 facet normal -0.00397901749 -0.00258864439 -0.999988735
  outer loop
  vertex -0.0940358564 -0.026257081 0.0150000853
  vertex -0.0713740885 -0.0240613166 0.014904228
  vertex -0.0713462383 -0.0241041314 0.014904228
  endloop
 endfacet

 facet normal -0.00397542911 -0.00262645562 -0.999988675
  outer loop
  vertex -0.0940358564 -0.026257081 0.0150000853
  vertex -0.0713462383 -0.0241041314 0.014904228
  vertex -0.0713343024 -0.0241222009 0.014904228
  endloop
 endfacet

 facet normal -0.00394409522 -0.00295961811 -0.999987841
  outer loop
  vertex -0.0940358564 -0.026257081 0.0150000853
  vertex -0.0713343024 -0.0241222009 0.014904228
  vertex -0.0712945089 -0.0241752286 0.014904228
  endloop
 endfacet

 facet normal -0.00392963691 -0.00311753247 -0.999987483
  outer loop
  vertex -0.0940358564 -0.026257081 0.0150000853
  vertex -0.0712945089 -0.0241752286 0.014904228
  vertex -0.0712427795 -0.0242404342 0.014904228
  endloop
 endfacet

 facet normal -0.00389512861 -0.00350750796 -0.999986291
  outer loop
  vertex -0.0940358564 -0.026257081 0.0150000853
  vertex -0.0712427795 -0.0242404342 0.014904228
  vertex -0.0712109432 -0.0242757872 0.014904228
  endloop
 endfacet

 facet normal -0.00386776472 -0.00382269314 -0.999985218
  outer loop
  vertex -0.0940358564 -0.026257081 0.0150000853
  vertex -0.0712109432 -0.0242757872 0.014904228
  vertex -0.0711950287 -0.0242918916 0.014904228
  endloop
 endfacet

 facet normal -0.00386020355 -0.00391055923 -0.99998492
  outer loop
  vertex -0.0940358564 -0.026257081 0.0150000853
  vertex -0.0711950287 -0.0242918916 0.014904228
  vertex -0.071147278 -0.0243390277 0.014904228
  endloop
 endfacet

 facet normal -0.00385767315 -0.00394074852 -0.999984741
  outer loop
  vertex -0.0940358564 -0.026257081 0.0150000853
  vertex -0.071147278 -0.0243390277 0.014904228
  vertex -0.0710995272 -0.0243857708 0.014904228
  endloop
 endfacet

 facet normal -0.0037463312 -0.00530515658 -0.99997896
  outer loop
  vertex -0.0940358564 -0.026257081 0.0150000853
  vertex -0.0710995272 -0.0243857708 0.014904228
  vertex -0.0710477978 -0.024422301 0.014904228
  endloop
 endfacet

 facet normal -0.00364906294 -0.00652348064 -0.999972165
  outer loop
  vertex -0.0940358564 -0.026257081 0.0150000853
  vertex -0.0710477978 -0.024422301 0.014904228
  vertex -0.071000047 -0.0244490132 0.014904228
  endloop
 endfacet

 facet normal -0.00340535003 -0.00962722953 -0.999947906
  outer loop
  vertex -0.0940358564 -0.026257081 0.0150000853
  vertex -0.071000047 -0.0244490132 0.014904228
  vertex -0.0709522963 -0.0244659018 0.014904228
  endloop
 endfacet

 facet normal -0.00304679363 -0.0142451841 -0.999893844
  outer loop
  vertex -0.0940358564 -0.026257081 0.0150000853
  vertex -0.0709522963 -0.0244659018 0.014904228
  vertex -0.0709045455 -0.0244761165 0.014904228
  endloop
 endfacet

 facet normal 0 -0.0537451059 -0.998554647
  outer loop
  vertex -0.0940358564 -0.026257081 0.0150000853
  vertex -0.0709045455 -0.0244761165 0.014904228
  vertex -0.0805223584 -0.026257081 0.0150000853
  endloop
 endfacet

 facet normal -0.115496501 -0.0261125155 0.992964625
  outer loop
  vertex -0.0949868932 -0.0222442131 0.0169978477
  vertex -0.095034644 -0.0222442131 0.0169922933
  vertex -0.0940796286 -0.026257081 0.0169978477
  endloop
 endfacet

 facet normal -0.119715258 -0.0271172635 0.99243784
  outer loop
  vertex -0.0940796286 -0.026257081 0.0169978477
  vertex -0.095034644 -0.0222442131 0.0169922933
  vertex -0.0941154435 -0.026257081 0.0169935282
  endloop
 endfacet

 facet normal -0.11802052 -0.0267136358 -0.992651701
  outer loop
  vertex -0.0949948505 -0.0222442131 0.0150029641
  vertex -0.0940796286 -0.026257081 0.0150021417
  vertex -0.095034644 -0.0222442131 0.0150076952
  endloop
 endfacet

 facet normal -0.125834152 -0.0285745971 -0.991639733
  outer loop
  vertex -0.0940796286 -0.026257081 0.0150021417
  vertex -0.0941234007 -0.026257081 0.0150076952
  vertex -0.095034644 -0.0222442131 0.0150076952
  endloop
 endfacet

 facet normal -0.235761389 -0.0532732457 0.970349729
  outer loop
  vertex -0.095034644 -0.0222442131 0.0169922933
  vertex -0.0950744376 -0.0222442131 0.0169826262
  vertex -0.0941592157 -0.026257081 0.0169846844
  endloop
 endfacet

 facet normal -0.207632706 -0.0471495241 0.977069974
  outer loop
  vertex -0.095034644 -0.0222442131 0.0169922933
  vertex -0.0941592157 -0.026257081 0.0169846844
  vertex -0.0941234007 -0.026257081 0.0169922933
  endloop
 endfacet

 facet normal -0.153179079 -0.0347841196 0.987586021
  outer loop
  vertex -0.095034644 -0.0222442131 0.0169922933
  vertex -0.0941234007 -0.026257081 0.0169922933
  vertex -0.0941154435 -0.026257081 0.0169935282
  endloop
 endfacet

 facet normal -0.21540992 -0.0489155874 -0.975297868
  outer loop
  vertex -0.095034644 -0.0222442131 0.0150076952
  vertex -0.0941234007 -0.026257081 0.0150076952
  vertex -0.0941671729 -0.026257081 0.0150173632
  endloop
 endfacet

 facet normal -0.235761017 -0.0533030257 -0.970348239
  outer loop
  vertex -0.095034644 -0.0222442131 0.0150076952
  vertex -0.0941671729 -0.026257081 0.0150173632
  vertex -0.0950744376 -0.0222442131 0.0150173632
  endloop
 endfacet

 facet normal -0.287405312 -0.0648635775 0.955610335
  outer loop
  vertex -0.0950744376 -0.0222442131 0.0169826262
  vertex -0.0951182097 -0.0222442131 0.016969461
  vertex -0.0942029878 -0.026257081 0.0169723406
  endloop
 endfacet

 facet normal -0.275499672 -0.0622875094 0.959281087
  outer loop
  vertex -0.0950744376 -0.0222442131 0.0169826262
  vertex -0.0942029878 -0.026257081 0.0169723406
  vertex -0.0941671729 -0.026257081 0.0169826262
  endloop
 endfacet

 facet normal -0.249860048 -0.0564906672 0.966632724
  outer loop
  vertex -0.0950744376 -0.0222442131 0.0169826262
  vertex -0.0941671729 -0.026257081 0.0169826262
  vertex -0.0941592157 -0.026257081 0.0169846844
  endloop
 endfacet

 facet normal -0.249860048 -0.0564906672 -0.966632724
  outer loop
  vertex -0.0950744376 -0.0222442131 0.0150173632
  vertex -0.0941671729 -0.026257081 0.0150173632
  vertex -0.0950823948 -0.0222442131 0.0150194205
  endloop
 endfacet

 facet normal -0.287413359 -0.0650612041 -0.95559442
  outer loop
  vertex -0.0941671729 -0.026257081 0.0150173632
  vertex -0.0942109451 -0.026257081 0.0150305284
  vertex -0.0950823948 -0.0222442131 0.0150194205
  endloop
 endfacet

 facet normal -0.353343338 -0.0798872933 0.932076454
  outer loop
  vertex -0.0951182097 -0.0222442131 0.016969461
  vertex -0.0951540247 -0.0222442131 0.016955886
  vertex -0.0942109451 -0.026257081 0.016969461
  endloop
 endfacet

 facet normal -0.339272827 -0.0767060965 0.937555432
  outer loop
  vertex -0.0951182097 -0.0222442131 0.016969461
  vertex -0.0942109451 -0.026257081 0.016969461
  vertex -0.0942029878 -0.026257081 0.0169723406
  endloop
 endfacet

 facet normal -0.295567095 -0.0668246821 -0.952981889
  outer loop
  vertex -0.0950823948 -0.0222442131 0.0150194205
  vertex -0.0942109451 -0.026257081 0.0150305284
  vertex -0.0951182097 -0.0222442131 0.0150305284
  endloop
 endfacet

 facet normal -0.384753346 -0.0871394128 -0.918896914
  outer loop
  vertex -0.0942109451 -0.026257081 0.0150305284
  vertex -0.0942507386 -0.026257081 0.0150471907
  vertex -0.0951261669 -0.0222442131 0.0150332022
  endloop
 endfacet

 facet normal -0.317712545 -0.0718315393 -0.945462346
  outer loop
  vertex -0.0942109451 -0.026257081 0.0150305284
  vertex -0.0951261669 -0.0222442131 0.0150332022
  vertex -0.0951182097 -0.0222442131 0.0150305284
  endloop
 endfacet

 facet normal -0.46322307 -0.104286723 0.880084455
  outer loop
  vertex -0.0951540247 -0.0222442131 0.016955886
  vertex -0.0951977968 -0.0222442131 0.016932847
  vertex -0.0942865536 -0.026257081 0.0169369616
  endloop
 endfacet

 facet normal -0.407096952 -0.0922887847 0.908710599
  outer loop
  vertex -0.0951540247 -0.0222442131 0.016955886
  vertex -0.0942865536 -0.026257081 0.0169369616
  vertex -0.0942507386 -0.026257081 0.0169530045
  endloop
 endfacet

 facet normal -0.380729914 -0.0863622054 0.920644522
  outer loop
  vertex -0.0951540247 -0.0222442131 0.016955886
  vertex -0.0942507386 -0.026257081 0.0169530045
  vertex -0.0942109451 -0.026257081 0.016969461
  endloop
 endfacet

 facet normal -0.438583463 -0.0991589949 -0.893203259
  outer loop
  vertex -0.0942507386 -0.026257081 0.0150471907
  vertex -0.0942586958 -0.026257081 0.0150510985
  vertex -0.0951580033 -0.0222442131 0.0150471907
  endloop
 endfacet

 facet normal -0.40062654 -0.0905773491 -0.911753356
  outer loop
  vertex -0.0942507386 -0.026257081 0.0150471907
  vertex -0.0951580033 -0.0222442131 0.0150471907
  vertex -0.0951261669 -0.0222442131 0.0150332022
  endloop
 endfacet

 facet normal -0.519546986 -0.11711137 0.846378088
  outer loop
  vertex -0.0951977968 -0.0222442131 0.016932847
  vertex -0.0952296332 -0.0222442131 0.0169133041
  vertex -0.0942865536 -0.026257081 0.0169369616
  endloop
 endfacet

 facet normal -0.529065847 -0.119385213 0.84014076
  outer loop
  vertex -0.0942865536 -0.026257081 0.0169369616
  vertex -0.0952296332 -0.0222442131 0.0169133041
  vertex -0.0943303183 -0.026257081 0.0169093963
  endloop
 endfacet

 facet normal -0.452283204 -0.102290556 -0.88598907
  outer loop
  vertex -0.0942586958 -0.026257081 0.0150510985
  vertex -0.0942905322 -0.026257081 0.0150673492
  vertex -0.095205754 -0.0222442131 0.015071257
  endloop
 endfacet

 facet normal -0.447755545 -0.101209849 -0.888409615
  outer loop
  vertex -0.0942586958 -0.026257081 0.0150510985
  vertex -0.095205754 -0.0222442131 0.015071257
  vertex -0.0951580033 -0.0222442131 0.0150471907
  endloop
 endfacet

 facet normal -0.566315413 -0.127707869 0.814234376
  outer loop
  vertex -0.0952296332 -0.0222442131 0.0169133041
  vertex -0.0952733979 -0.0222442131 0.016882861
  vertex -0.0943303183 -0.026257081 0.0169093963
  endloop
 endfacet

 facet normal -0.599805355 -0.135748297 0.788546741
  outer loop
  vertex -0.0943303183 -0.026257081 0.0169093963
  vertex -0.0952733979 -0.0222442131 0.016882861
  vertex -0.094358176 -0.026257081 0.0168882087
  endloop
 endfacet

 facet normal -0.491241455 -0.111197382 -0.86389637
  outer loop
  vertex -0.0942905322 -0.026257081 0.0150673492
  vertex -0.0942984894 -0.026257081 0.0150718736
  vertex -0.095205754 -0.0222442131 0.015071257
  endloop
 endfacet

 facet normal -0.513998985 -0.116340481 -0.849864662
  outer loop
  vertex -0.095205754 -0.0222442131 0.015071257
  vertex -0.0942984894 -0.026257081 0.0150718736
  vertex -0.0943382829 -0.026257081 0.0150959408
  endloop
 endfacet

 facet normal -0.515610158 -0.11668247 -0.848841131
  outer loop
  vertex -0.095205754 -0.0222442131 0.015071257
  vertex -0.0943382829 -0.026257081 0.0150959408
  vertex -0.0952375829 -0.0222442131 0.0150905931
  endloop
 endfacet

 facet normal -0.652849793 -0.147907048 0.742906988
  outer loop
  vertex -0.0952733979 -0.0222442131 0.016882861
  vertex -0.0953012556 -0.0222442131 0.016858384
  vertex -0.0943979695 -0.026257081 0.0168532412
  endloop
 endfacet

 facet normal -0.652846456 -0.147906348 0.742910028
  outer loop
  vertex -0.0952733979 -0.0222442131 0.016882861
  vertex -0.0943979695 -0.026257081 0.0168532412
  vertex -0.094358176 -0.026257081 0.0168882087
  endloop
 endfacet

 facet normal -0.590012431 -0.133286446 -0.796316564
  outer loop
  vertex -0.0952375829 -0.0222442131 0.0150905931
  vertex -0.0943382829 -0.026257081 0.0150959408
  vertex -0.0952733979 -0.0222442131 0.0151171284
  endloop
 endfacet

 facet normal -0.641296744 -0.145463973 -0.753378272
  outer loop
  vertex -0.0943382829 -0.026257081 0.0150959408
  vertex -0.0943979695 -0.026257081 0.0151467491
  vertex -0.0952733979 -0.0222442131 0.0151171284
  endloop
 endfacet

 facet normal -0.711318493 -0.160821438 0.68422401
  outer loop
  vertex -0.0953012556 -0.0222442131 0.016858384
  vertex -0.0953370705 -0.0222442131 0.0168211516
  vertex -0.0944298059 -0.026257081 0.0168211516
  endloop
 endfacet

 facet normal -0.700922906 -0.158667266 0.695364475
  outer loop
  vertex -0.0953012556 -0.0222442131 0.016858384
  vertex -0.0944298059 -0.026257081 0.0168211516
  vertex -0.0943979695 -0.026257081 0.0168532412
  endloop
 endfacet

 facet normal -0.68754065 -0.155227453 -0.70936054
  outer loop
  vertex -0.0952733979 -0.0222442131 0.0151171284
  vertex -0.0943979695 -0.026257081 0.0151467491
  vertex -0.0953370705 -0.0222442131 0.0151788378
  endloop
 endfacet

 facet normal -0.725478828 -0.16443406 -0.668312788
  outer loop
  vertex -0.0943979695 -0.026257081 0.0151467491
  vertex -0.0944337845 -0.026257081 0.0151856262
  vertex -0.0953370705 -0.0222442131 0.0151788378
  endloop
 endfacet

 facet normal -0.794556558 -0.179640695 0.580007911
  outer loop
  vertex -0.0953370705 -0.0222442131 0.0168211516
  vertex -0.0953848213 -0.0222442131 0.0167557392
  vertex -0.0944298059 -0.026257081 0.0168211516
  endloop
 endfacet

 facet normal -0.797536135 -0.180420667 0.57566011
  outer loop
  vertex -0.0944298059 -0.026257081 0.0168211516
  vertex -0.0953848213 -0.0222442131 0.0167557392
  vertex -0.0944496989 -0.026257081 0.0167935882
  endloop
 endfacet

 facet normal -0.771890104 -0.174784631 -0.611257732
  outer loop
  vertex -0.0953370705 -0.0222442131 0.0151788378
  vertex -0.0944337845 -0.026257081 0.0151856262
  vertex -0.0944616348 -0.026257081 0.0152208013
  endloop
 endfacet

 facet normal -0.808954418 -0.182322726 -0.558883905
  outer loop
  vertex -0.0953370705 -0.0222442131 0.0151788378
  vertex -0.0944616348 -0.026257081 0.0152208013
  vertex -0.0953609422 -0.0222442131 0.0152133964
  endloop
 endfacet

 facet normal -0.864777684 -0.195473462 0.462547123
  outer loop
  vertex -0.0953848213 -0.0222442131 0.0167557392
  vertex -0.095408693 -0.0222442131 0.0167111009
  vertex -0.0944974497 -0.026257081 0.0167189185
  endloop
 endfacet

 facet normal -0.8330791 -0.188989863 0.519867301
  outer loop
  vertex -0.0953848213 -0.0222442131 0.0167557392
  vertex -0.0944974497 -0.026257081 0.0167189185
  vertex -0.0944735706 -0.026257081 0.0167571772
  endloop
 endfacet

 facet normal -0.821593285 -0.186374873 0.538747549
  outer loop
  vertex -0.0953848213 -0.0222442131 0.0167557392
  vertex -0.0944735706 -0.026257081 0.0167571772
  vertex -0.0944496989 -0.026257081 0.0167935882
  endloop
 endfacet

 facet normal -0.82575357 -0.186038777 -0.53246659
  outer loop
  vertex -0.0953609422 -0.0222442131 0.0152133964
  vertex -0.0944616348 -0.026257081 0.0152208013
  vertex -0.0953887999 -0.0222442131 0.015256593
  endloop
 endfacet

 facet normal -0.847379386 -0.191583335 -0.495221227
  outer loop
  vertex -0.0944616348 -0.026257081 0.0152208013
  vertex -0.0945014283 -0.026257081 0.0152888885
  vertex -0.095408693 -0.0222442131 0.0152888885
  endloop
 endfacet

 facet normal -0.836125374 -0.188590065 -0.515100062
  outer loop
  vertex -0.0944616348 -0.026257081 0.0152208013
  vertex -0.095408693 -0.0222442131 0.0152888885
  vertex -0.0953887999 -0.0222442131 0.015256593
  endloop
 endfacet

 facet normal -0.911991358 -0.206191421 0.354622126
  outer loop
  vertex -0.095408693 -0.0222442131 0.0167111009
  vertex -0.0954405293 -0.0222442131 0.0166292321
  vertex -0.0945014283 -0.026257081 0.0167111009
  endloop
 endfacet

 facet normal -0.873612046 -0.197514251 0.444735974
  outer loop
  vertex -0.095408693 -0.0222442131 0.0167111009
  vertex -0.0945014283 -0.026257081 0.0167111009
  vertex -0.0944974497 -0.026257081 0.0167189185
  endloop
 endfacet

 facet normal -0.906222939 -0.204887226 -0.36983937
  outer loop
  vertex -0.0945014283 -0.026257081 0.0152888885
  vertex -0.0945213214 -0.026257081 0.0153376386
  vertex -0.095408693 -0.0222442131 0.0152888885
  endloop
 endfacet

 facet normal -0.910249412 -0.205650553 -0.359379947
  outer loop
  vertex -0.095408693 -0.0222442131 0.0152888885
  vertex -0.0945213214 -0.026257081 0.0153376386
  vertex -0.0954246148 -0.0222442131 0.0153292064
  endloop
 endfacet

 facet normal -0.959563971 -0.216947079 0.179362699
  outer loop
  vertex -0.0954405293 -0.0222442131 0.0166292321
  vertex -0.0954484865 -0.0222442131 0.0165866539
  vertex -0.0945412219 -0.026257081 0.0165866539
  endloop
 endfacet

 facet normal -0.950632095 -0.215412408 0.223374367
  outer loop
  vertex -0.0954405293 -0.0222442131 0.0166292321
  vertex -0.0945412219 -0.026257081 0.0165866539
  vertex -0.094529286 -0.026257081 0.0166374613
  endloop
 endfacet

 facet normal -0.915051341 -0.207081005 0.346119285
  outer loop
  vertex -0.0954405293 -0.0222442131 0.0166292321
  vertex -0.094529286 -0.026257081 0.0166374613
  vertex -0.0945014283 -0.026257081 0.0167111009
  endloop
 endfacet

 facet normal -0.944669127 -0.214340657 -0.248311087
  outer loop
  vertex -0.0945213214 -0.026257081 0.0153376386
  vertex -0.0945412219 -0.026257081 0.0154133365
  vertex -0.0954405293 -0.0222442131 0.0153707573
  endloop
 endfacet

 facet normal -0.913724422 -0.20641309 -0.35000205
  outer loop
  vertex -0.0945213214 -0.026257081 0.0153376386
  vertex -0.0954405293 -0.0222442131 0.0153707573
  vertex -0.0954246148 -0.0222442131 0.0153292064
  endloop
 endfacet

 facet normal -0.960002422 -0.217046231 0.176879197
  outer loop
  vertex -0.0954484865 -0.0222442131 0.0165866539
  vertex -0.0954564437 -0.0222442131 0.0165434554
  vertex -0.0945412219 -0.026257081 0.0165866539
  endloop
 endfacet

 facet normal -0.969202995 -0.219854295 0.110948488
  outer loop
  vertex -0.0945412219 -0.026257081 0.0165866539
  vertex -0.0954564437 -0.0222442131 0.0165434554
  vertex -0.0945452005 -0.026257081 0.0165518895
  endloop
 endfacet

 facet normal -0.964564204 -0.218389213 -0.148061082
  outer loop
  vertex -0.0945412219 -0.026257081 0.0154133365
  vertex -0.0945491791 -0.026257081 0.0154651739
  vertex -0.0954564437 -0.0222442131 0.0154567407
  endloop
 endfacet

 facet normal -0.960144997 -0.217078432 -0.176063746
  outer loop
  vertex -0.0945412219 -0.026257081 0.0154133365
  vertex -0.0954564437 -0.0222442131 0.0154567407
  vertex -0.0954484865 -0.0222442131 0.0154133365
  endloop
 endfacet

 facet normal -0.959563971 -0.216947079 -0.179362699
  outer loop
  vertex -0.0945412219 -0.026257081 0.0154133365
  vertex -0.0954484865 -0.0222442131 0.0154133365
  vertex -0.0954405293 -0.0222442131 0.0153707573
  endloop
 endfacet

 facet normal -0.975381613 -0.22052376 0
  outer loop
  vertex -0.0954564437 -0.0222442131 0.0165434554
  vertex -0.0954564437 -0.0222442131 0.0154567407
  vertex -0.0945491791 -0.026257081 0.0154651739
  endloop
 endfacet

 facet normal -0.975381613 -0.22052376 0
  outer loop
  vertex -0.0954564437 -0.0222442131 0.0165434554
  vertex -0.0945491791 -0.026257081 0.0154651739
  vertex -0.0945491791 -0.026257081 0.0165084861
  endloop
 endfacet

 facet normal -0.971342504 -0.220386267 0.0890147313
  outer loop
  vertex -0.0954564437 -0.0222442131 0.0165434554
  vertex -0.0945491791 -0.026257081 0.0165084861
  vertex -0.0945452005 -0.026257081 0.0165518895
  endloop
 endfacet

endsolid AssimpScene
