solid AssimpScene
 facet normal 0 -0.959883273 -0.280400336
  outer loop
  vertex -0.048526857 -0.0395251922 -0.000625507208
  vertex -0.0449869223 -0.0395251922 -0.000625507208
  vertex -0.0478741415 -0.0414293706 0.0058929869
  endloop
 endfacet

 facet normal -0.877967358 -0.47598204 -0.0511301644
  outer loop
  vertex -0.048526857 -0.0395251922 -0.000625507208
  vertex -0.0478741415 -0.0414293706 0.0058929869
  vertex -0.0483414046 -0.0415354073 0.0149035919
  endloop
 endfacet

 facet normal -0.995771527 -0.0918645039 0
  outer loop
  vertex -0.048526857 -0.0395251922 -0.000625507208
  vertex -0.0483414046 -0.0415354073 0.0149035919
  vertex -0.0483414046 -0.0415354073 0.0170056652
  endloop
 endfacet

 facet normal -0.995771527 -0.0918645039 0
  outer loop
  vertex -0.048526857 -0.0395251922 -0.000625507208
  vertex -0.0483414046 -0.0415354073 0.0170056652
  vertex -0.048526857 -0.0395251922 0.0058929869
  endloop
 endfacet

 facet normal -0.910261154 0.414034575 0
  outer loop
  vertex -0.048526857 -0.0395251922 -0.000625507208
  vertex -0.048526857 -0.0395251922 0.0058929869
  vertex -0.0483414046 -0.0391174741 0.0170056652
  endloop
 endfacet

 facet normal -0.640078902 0.768229961 -0.0110325888
  outer loop
  vertex -0.048526857 -0.0395251922 -0.000625507208
  vertex -0.0483414046 -0.0391174741 0.0170056652
  vertex -0.0326616913 -0.0262780953 0.00135575631
  endloop
 endfacet

 facet normal -0.537395239 0.711350441 -0.45297569
  outer loop
  vertex -0.048526857 -0.0395251922 -0.000625507208
  vertex -0.0326616913 -0.0262780953 0.00135575631
  vertex -0.0376597829 -0.0313155763 -0.000625507208
  endloop
 endfacet

 facet normal 0 0 -1
  outer loop
  vertex -0.048526857 -0.0395251922 -0.000625507208
  vertex -0.0376597829 -0.0313155763 -0.000625507208
  vertex -0.0330635011 -0.0313155763 -0.000625507208
  endloop
 endfacet

 facet normal 0 0 -1
  outer loop
  vertex -0.048526857 -0.0395251922 -0.000625507208
  vertex -0.0330635011 -0.0313155763 -0.000625507208
  vertex -0.0449869223 -0.0395251922 -0.000625507208
  endloop
 endfacet

 facet normal 0.566982985 -0.823729515 -2.48017168e-05
  outer loop
  vertex -0.0449869223 -0.0395251922 -0.000625507208
  vertex -0.043419674 -0.038446907 0.0149035919
  vertex -0.047692325 -0.0413875543 0.0058929869
  endloop
 endfacet

 facet normal 0.220395833 -0.958224356 -0.18229641
  outer loop
  vertex -0.0449869223 -0.0395251922 -0.000625507208
  vertex -0.047692325 -0.0413875543 0.0058929869
  vertex -0.0478741415 -0.0414293706 0.0058929869
  endloop
 endfacet

 facet normal 0.567103863 -0.823646069 -0.000733796915
  outer loop
  vertex -0.0449869223 -0.0395251922 -0.000625507208
  vertex -0.0330635011 -0.0313155763 -0.000625507208
  vertex -0.029952649 -0.0291754324 0.00135575631
  endloop
 endfacet

 facet normal 0.567042291 -0.823688686 -4.38721618e-05
  outer loop
  vertex -0.0449869223 -0.0395251922 -0.000625507208
  vertex -0.029952649 -0.0291754324 0.00135575631
  vertex -0.029954467 -0.0291769244 0.0058929869
  endloop
 endfacet

 facet normal 0.567039192 -0.823690891 -3.31495357e-05
  outer loop
  vertex -0.0449869223 -0.0395251922 -0.000625507208
  vertex -0.029954467 -0.0291769244 0.0058929869
  vertex -0.043419674 -0.038446907 0.0149035919
  endloop
 endfacet

 facet normal 0.22415179 -0.97455436 0
  outer loop
  vertex -0.0478741415 -0.0414293706 0.0058929869
  vertex -0.047692325 -0.0413875543 0.0058929869
  vertex -0.047692325 -0.0413875543 0.0170056652
  endloop
 endfacet

 facet normal 0.22415179 -0.97455436 0
  outer loop
  vertex -0.0478741415 -0.0414293706 0.0058929869
  vertex -0.047692325 -0.0413875543 0.0170056652
  vertex -0.0478741415 -0.0414293706 0.0149035919
  endloop
 endfacet

 facet normal 0.22130391 -0.975205004 0
  outer loop
  vertex -0.0478741415 -0.0414293706 0.0058929869
  vertex -0.0478741415 -0.0414293706 0.0149035919
  vertex -0.0483414046 -0.0415354073 0.0170056652
  endloop
 endfacet

 facet normal 0.22130391 -0.975205004 0
  outer loop
  vertex -0.0478741415 -0.0414293706 0.0058929869
  vertex -0.0483414046 -0.0415354073 0.0170056652
  vertex -0.0483414046 -0.0415354073 0.0149035919
  endloop
 endfacet

 facet normal -0.999860764 0 0.0166859552
  outer loop
  vertex -0.048526857 -0.0395251922 0.0058929869
  vertex -0.0483414046 -0.0415354073 0.0170056652
  vertex -0.0483414046 -0.0391174741 0.0170056652
  endloop
 endfacet

 facet normal 0 0 1
  outer loop
  vertex -0.0483414046 -0.0391174741 0.0170056652
  vertex -0.0483414046 -0.0415354073 0.0170056652
  vertex -0.047692325 -0.0413875543 0.0170056652
  endloop
 endfacet

 facet normal 0 0 1
  outer loop
  vertex -0.0483414046 -0.0391174741 0.0170056652
  vertex -0.047692325 -0.0413875543 0.0170056652
  vertex -0.0373343341 -0.0342562236 0.0170056652
  endloop
 endfacet

 facet normal 0 0 1
  outer loop
  vertex -0.0483414046 -0.0391174741 0.0170056652
  vertex -0.0373343341 -0.0342562236 0.0170056652
  vertex -0.0423978791 -0.0342562236 0.0170056652
  endloop
 endfacet

 facet normal -0.633109927 0.774061203 0.00103333686
  outer loop
  vertex -0.0483414046 -0.0391174741 0.0170056652
  vertex -0.0423978791 -0.0342562236 0.0170056652
  vertex -0.0326616913 -0.0262780953 0.0058929869
  endloop
 endfacet

 facet normal -0.633548737 0.7737028 0
  outer loop
  vertex -0.0483414046 -0.0391174741 0.0170056652
  vertex -0.0326616913 -0.0262780953 0.0058929869
  vertex -0.0326616913 -0.0262780953 0.00135575631
  endloop
 endfacet

 facet normal 0 1 0
  outer loop
  vertex -0.0326616913 -0.0262780953 0.00135575631
  vertex -0.0326616913 -0.0262780953 0.0058929869
  vertex -0.0306090005 -0.0262780953 0.0058929869
  endloop
 endfacet

 facet normal 0 1 0
  outer loop
  vertex -0.0326616913 -0.0262780953 0.00135575631
  vertex -0.0306090005 -0.0262780953 0.0058929869
  vertex -0.0306090005 -0.0262780953 0.00135575631
  endloop
 endfacet

 facet normal 0 0.366012901 -0.930609822
  outer loop
  vertex -0.0326616913 -0.0262780953 0.00135575631
  vertex -0.0306090005 -0.0262780953 0.00135575631
  vertex -0.0330635011 -0.0313155763 -0.000625507208
  endloop
 endfacet

 facet normal 0 0.366012901 -0.930609822
  outer loop
  vertex -0.0326616913 -0.0262780953 0.00135575631
  vertex -0.0330635011 -0.0313155763 -0.000625507208
  vertex -0.0376597829 -0.0313155763 -0.000625507208
  endloop
 endfacet

 facet normal 0.566947579 -0.823753953 0
  outer loop
  vertex -0.043419674 -0.038446907 0.0149035919
  vertex -0.047692325 -0.0413875543 0.0170056652
  vertex -0.047692325 -0.0413875543 0.0058929869
  endloop
 endfacet

 facet normal 0.567054152 -0.82368052 0
  outer loop
  vertex -0.043419674 -0.038446907 0.0149035919
  vertex -0.029954467 -0.0291769244 0.0058929869
  vertex -0.029954467 -0.0291769244 0.0149035919
  endloop
 endfacet

 facet normal 0.567054093 -0.82368046 0.000319541257
  outer loop
  vertex -0.043419674 -0.038446907 0.0149035919
  vertex -0.029954467 -0.0291769244 0.0149035919
  vertex -0.047692325 -0.0413875543 0.0170056652
  endloop
 endfacet

 facet normal 0.479741573 0.10867878 -0.870653152
  outer loop
  vertex -0.0330635011 -0.0313155763 -0.000625507208
  vertex -0.0306090005 -0.0262780953 0.00135575631
  vertex -0.029952649 -0.0291754324 0.00135575631
  endloop
 endfacet

 facet normal 0.975287974 0.220937908 0
  outer loop
  vertex -0.029952649 -0.0291754324 0.00135575631
  vertex -0.0306090005 -0.0262780953 0.00135575631
  vertex -0.0306090005 -0.0262780953 0.0058929869
  endloop
 endfacet

 facet normal 0.975287974 0.220937908 0
  outer loop
  vertex -0.029952649 -0.0291754324 0.00135575631
  vertex -0.0306090005 -0.0262780953 0.0058929869
  vertex -0.029952649 -0.0291754324 0.0058929869
  endloop
 endfacet

 facet normal 0.634686172 -0.772769988 0
  outer loop
  vertex -0.029952649 -0.0291754324 0.00135575631
  vertex -0.029952649 -0.0291754324 0.0058929869
  vertex -0.029954467 -0.0291769244 0.0149035919
  endloop
 endfacet

 facet normal 0.634686172 -0.772769988 0
  outer loop
  vertex -0.029952649 -0.0291754324 0.00135575631
  vertex -0.029954467 -0.0291769244 0.0149035919
  vertex -0.029954467 -0.0291769244 0.0058929869
  endloop
 endfacet

 facet normal 0.222102195 -0.975023448 0.000186609032
  outer loop
  vertex -0.0478741415 -0.0414293706 0.0149035919
  vertex -0.047692325 -0.0413875543 0.0170056652
  vertex -0.0483414046 -0.0415354073 0.0170056652
  endloop
 endfacet

 facet normal 0 0.326904595 0.945057333
  outer loop
  vertex -0.0423978791 -0.0342562236 0.0170056652
  vertex -0.0373343341 -0.0342562236 0.0170056652
  vertex -0.0301799178 -0.028179286 0.0149035919
  endloop
 endfacet

 facet normal 0 0.326904595 0.945057333
  outer loop
  vertex -0.0423978791 -0.0342562236 0.0170056652
  vertex -0.0301799178 -0.028179286 0.0149035919
  vertex -0.0322326086 -0.028179286 0.0149035919
  endloop
 endfacet

 facet normal -0.471026182 0.858317852 0.203530699
  outer loop
  vertex -0.0423978791 -0.0342562236 0.0170056652
  vertex -0.0322326086 -0.028179286 0.0149035919
  vertex -0.0326616913 -0.0262780953 0.0058929869
  endloop
 endfacet

 facet normal 0 0.978457332 0.20644933
  outer loop
  vertex -0.0326616913 -0.0262780953 0.0058929869
  vertex -0.0322326086 -0.028179286 0.0149035919
  vertex -0.0301799178 -0.028179286 0.0149035919
  endloop
 endfacet

 facet normal 0 0.978457332 0.20644933
  outer loop
  vertex -0.0326616913 -0.0262780953 0.0058929869
  vertex -0.0301799178 -0.028179286 0.0149035919
  vertex -0.0306090005 -0.0262780953 0.0058929869
  endloop
 endfacet

 facet normal 0.567079782 -0.823662698 0.000638943107
  outer loop
  vertex -0.047692325 -0.0413875543 0.0170056652
  vertex -0.029954467 -0.0291769244 0.0149035919
  vertex -0.0373343341 -0.0342562236 0.0170056652
  endloop
 endfacet

 facet normal 0.977375627 0.211510643 0.000232307983
  outer loop
  vertex -0.029954467 -0.0291769244 0.0149035919
  vertex -0.029952649 -0.0291754324 0.0058929869
  vertex -0.0299690105 -0.0291097183 0.0149035919
  endloop
 endfacet

 facet normal 0.240303427 0.0520032756 0.969303846
  outer loop
  vertex -0.029954467 -0.0291769244 0.0149035919
  vertex -0.0299690105 -0.0291097183 0.0149035919
  vertex -0.0373343341 -0.0342562236 0.0170056652
  endloop
 endfacet

 facet normal 0.975287974 0.220937908 0.000159765579
  outer loop
  vertex -0.029952649 -0.0291754324 0.0058929869
  vertex -0.0306090005 -0.0262780953 0.0058929869
  vertex -0.0299690105 -0.0291097183 0.0149035919
  endloop
 endfacet

 facet normal 0.238873109 0.0541466624 0.96954
  outer loop
  vertex -0.0373343341 -0.0342562236 0.0170056652
  vertex -0.0299690105 -0.0291097183 0.0149035919
  vertex -0.0301799178 -0.028179286 0.0149035919
  endloop
 endfacet

 facet normal 0.975258589 0.221067131 0.000202463387
  outer loop
  vertex -0.0306090005 -0.0262780953 0.0058929869
  vertex -0.0301799178 -0.028179286 0.0149035919
  vertex -0.0299690105 -0.0291097183 0.0149035919
  endloop
 endfacet

endsolid AssimpScene
