solid AssimpScene
 facet normal -1 0 0
  outer loop
  vertex -0.159364298 0.0294102523 -0.00704000005
  vertex -0.159364298 0.0294102523 0.0059799999
  vertex -0.159364298 0.0314178877 0.0059799999
  endloop
 endfacet

 facet normal -1 0 0
  outer loop
  vertex -0.159364298 0.0294102523 -0.00704000005
  vertex -0.159364298 0.0314178877 0.0059799999
  vertex -0.159364298 0.0314178877 -0.00704000005
  endloop
 endfacet

 facet normal 0 0 -1
  outer loop
  vertex -0.159364298 0.0294102523 -0.00704000005
  vertex -0.159364298 0.0314178877 -0.00704000005
  vertex -0.126025528 0.0314178877 -0.00704000005
  endloop
 endfacet

 facet normal 0 0 -1
  outer loop
  vertex -0.159364298 0.0294102523 -0.00704000005
  vertex -0.126025528 0.0314178877 -0.00704000005
  vertex -0.126025528 0.0294179171 -0.00704000005
  endloop
 endfacet

 facet normal 0 0 -1
  outer loop
  vertex -0.159364298 0.0294102523 -0.00704000005
  vertex -0.126025528 0.0294179171 -0.00704000005
  vertex -0.150762007 0.0294102523 -0.00704000005
  endloop
 endfacet

 facet normal 0 -1 0
  outer loop
  vertex -0.159364298 0.0294102523 -0.00704000005
  vertex -0.150762007 0.0294102523 -0.00704000005
  vertex -0.150762007 0.0294102523 0.0059799999
  endloop
 endfacet

 facet normal 0 -1 0
  outer loop
  vertex -0.159364298 0.0294102523 -0.00704000005
  vertex -0.150762007 0.0294102523 0.0059799999
  vertex -0.159364298 0.0294102523 0.0059799999
  endloop
 endfacet

 facet normal 0 0 1
  outer loop
  vertex -0.159364298 0.0294102523 0.0059799999
  vertex -0.150762007 0.0294102523 0.0059799999
  vertex -0.126025528 0.0294179171 0.0059799999
  endloop
 endfacet

 facet normal 0 0 1
  outer loop
  vertex -0.159364298 0.0294102523 0.0059799999
  vertex -0.126025528 0.0294179171 0.0059799999
  vertex -0.126025528 0.0314178877 0.0059799999
  endloop
 endfacet

 facet normal 0 0 1
  outer loop
  vertex -0.159364298 0.0294102523 0.0059799999
  vertex -0.126025528 0.0314178877 0.0059799999
  vertex -0.159364298 0.0314178877 0.0059799999
  endloop
 endfacet

 facet normal 0 1 0
  outer loop
  vertex -0.159364298 0.0314178877 -0.00704000005
  vertex -0.159364298 0.0314178877 0.0059799999
  vertex -0.126025528 0.0314178877 0.0059799999
  endloop
 endfacet

 facet normal 0 1 0
  outer loop
  vertex -0.159364298 0.0314178877 -0.00704000005
  vertex -0.126025528 0.0314178877 0.0059799999
  vertex -0.126025528 0.0314178877 -0.00704000005
  endloop
 endfacet

 facet normal 0.000309858879 -0.99999994 0
  outer loop
  vertex -0.150762007 0.0294102523 -0.00704000005
  vertex -0.126025528 0.0294179171 -0.00704000005
  vertex -0.126025528 0.0294179171 0.0059799999
  endloop
 endfacet

 facet normal 0.000309858879 -0.99999994 0
  outer loop
  vertex -0.150762007 0.0294102523 -0.00704000005
  vertex -0.126025528 0.0294179171 0.0059799999
  vertex -0.150762007 0.0294102523 0.0059799999
  endloop
 endfacet

 facet normal 1 0 0
  outer loop
  vertex -0.126025528 0.0314178877 -0.00704000005
  vertex -0.126025528 0.0314178877 0.0059799999
  vertex -0.126025528 0.0294179171 0.0059799999
  endloop
 endfacet

 facet normal 1 0 0
  outer loop
  vertex -0.126025528 0.0314178877 -0.00704000005
  vertex -0.126025528 0.0294179171 0.0059799999
  vertex -0.126025528 0.0294179171 -0.00704000005
  endloop
 endfacet

endsolid AssimpScene
