solid AssimpScene
 facet normal -0.959798634 -0.0210419092 -0.279900104
  outer loop
  vertex -0.00615705224 -0.011079995 0.0156692397
  vertex -0.00615705224 -0.010567816 0.0156307369
  vertex -0.00541803613 -0.010567816 0.0130965943
  endloop
 endfacet

 facet normal -0.950702667 -0.100980684 -0.293201983
  outer loop
  vertex -0.00615705224 -0.011079995 0.0156692397
  vertex -0.00541803613 -0.010567816 0.0130965943
  vertex -0.00539274281 -0.0109169213 0.0131348157
  endloop
 endfacet

 facet normal -0.928667545 -0.22540912 -0.294562936
  outer loop
  vertex -0.00615705224 -0.011079995 0.0156692397
  vertex -0.00539274281 -0.0109169213 0.0131348157
  vertex -0.00597605202 -0.0118257022 0.0156692397
  endloop
 endfacet

 facet normal 0 0 1
  outer loop
  vertex -0.00615705224 -0.011079995 0.0156692397
  vertex -0.00597605202 -0.0118257022 0.0156692397
  vertex -0.00571206165 -0.0124700833 0.0156692397
  endloop
 endfacet

 facet normal 0 0 1
  outer loop
  vertex -0.00615705224 -0.011079995 0.0156692397
  vertex -0.00571206165 -0.0124700833 0.0156692397
  vertex -0.00510504004 -0.0131215863 0.0156692397
  endloop
 endfacet

 facet normal 0 0 1
  outer loop
  vertex -0.00615705224 -0.011079995 0.0156692397
  vertex -0.00510504004 -0.0131215863 0.0156692397
  vertex -0.00443953136 -0.0137137203 0.0156692397
  endloop
 endfacet

 facet normal 0 0 1
  outer loop
  vertex -0.00615705224 -0.011079995 0.0156692397
  vertex -0.00443953136 -0.0137137203 0.0156692397
  vertex -0.00380958966 -0.013982079 0.0156692397
  endloop
 endfacet

 facet normal 0 0 1
  outer loop
  vertex -0.00615705224 -0.011079995 0.0156692397
  vertex -0.00380958966 -0.013982079 0.0156692397
  vertex -0.00318043819 -0.0140145356 0.0156692397
  endloop
 endfacet

 facet normal 0 0 1
  outer loop
  vertex -0.00615705224 -0.011079995 0.0156692397
  vertex -0.00318043819 -0.0140145356 0.0156692397
  vertex -0.00255128671 -0.0140224518 0.0156692397
  endloop
 endfacet

 facet normal 0 0 1
  outer loop
  vertex -0.00615705224 -0.011079995 0.0156692397
  vertex -0.00255128671 -0.0140224518 0.0156692397
  vertex -0.00192371535 -0.0140216602 0.0156692397
  endloop
 endfacet

 facet normal 0 0 1
  outer loop
  vertex -0.00615705224 -0.011079995 0.0156692397
  vertex -0.00192371535 -0.0140216602 0.0156692397
  vertex -0.00130088744 -0.0140153272 0.0156692397
  endloop
 endfacet

 facet normal 0 0 1
  outer loop
  vertex -0.00615705224 -0.011079995 0.0156692397
  vertex -0.00130088744 -0.0140153272 0.0156692397
  vertex -0.000675688265 -0.0139852455 0.0156692397
  endloop
 endfacet

 facet normal 0 0 1
  outer loop
  vertex -0.00615705224 -0.011079995 0.0156692397
  vertex -0.000675688265 -0.0139852455 0.0156692397
  vertex 9.66868612e-08 -0.013737468 0.0156692397
  endloop
 endfacet

 facet normal 0 0 1
  outer loop
  vertex -0.00615705224 -0.011079995 0.0156692397
  vertex 9.66868612e-08 -0.013737468 0.0156692397
  vertex 0.000631619419 -0.0131350448 0.0156692397
  endloop
 endfacet

 facet normal 0 0 1
  outer loop
  vertex -0.00615705224 -0.011079995 0.0156692397
  vertex 0.000631619419 -0.0131350448 0.0156692397
  vertex 0.000643475505 -0.0131231705 0.0156692397
  endloop
 endfacet

 facet normal 0 0 1
  outer loop
  vertex -0.00615705224 -0.011079995 0.0156692397
  vertex 0.000643475505 -0.0131231705 0.0156692397
  vertex 0.0012504959 -0.0124954144 0.0156692397
  endloop
 endfacet

 facet normal 0 0 1
  outer loop
  vertex -0.00615705224 -0.011079995 0.0156692397
  vertex 0.0012504959 -0.0124954144 0.0156692397
  vertex 0.00150104996 -0.0118177859 0.0156692397
  endloop
 endfacet

 facet normal 0 0 1
  outer loop
  vertex -0.00615705224 -0.011079995 0.0156692397
  vertex 0.00150104996 -0.0118177859 0.0156692397
  vertex 0.00186542002 -0.0106216464 0.0156692397
  endloop
 endfacet

 facet normal 0 0 1
  outer loop
  vertex -0.00615705224 -0.011079995 0.0156692397
  vertex 0.00186542002 -0.0106216464 0.0156692397
  vertex 0.0019167955 -0.00993926916 0.0156692397
  endloop
 endfacet

 facet normal 0 0 1
  outer loop
  vertex -0.00615705224 -0.011079995 0.0156692397
  vertex 0.0019167955 -0.00993926916 0.0156692397
  vertex 0.00151132501 -0.00868138205 0.0156692397
  endloop
 endfacet

 facet normal 0 0 1
  outer loop
  vertex -0.00615705224 -0.011079995 0.0156692397
  vertex 0.00151132501 -0.00868138205 0.0156692397
  vertex 0.00125444727 -0.00801958703 0.0156692397
  endloop
 endfacet

 facet normal 0 0 1
  outer loop
  vertex -0.00615705224 -0.011079995 0.0156692397
  vertex 0.00125444727 -0.00801958703 0.0156692397
  vertex 0.0006411043 -0.00737441611 0.0156692397
  endloop
 endfacet

 facet normal 0 0 1
  outer loop
  vertex -0.00615705224 -0.011079995 0.0156692397
  vertex 0.0006411043 -0.00737441611 0.0156692397
  vertex 1.67734709e-06 -0.00675615948 0.0156692397
  endloop
 endfacet

 facet normal 0 0 1
  outer loop
  vertex -0.00615705224 -0.011079995 0.0156692397
  vertex 1.67734709e-06 -0.00675615948 0.0156692397
  vertex -0.00130009733 -0.00617194269 0.0156692397
  endloop
 endfacet

 facet normal 0 0 1
  outer loop
  vertex -0.00615705224 -0.011079995 0.0156692397
  vertex -0.00130009733 -0.00617194269 0.0156692397
  vertex -0.00192371535 -0.00593762286 0.0156692397
  endloop
 endfacet

 facet normal 0 0 1
  outer loop
  vertex -0.00615705224 -0.011079995 0.0156692397
  vertex -0.00192371535 -0.00593762286 0.0156692397
  vertex -0.00248173205 -0.00593603961 0.0156692397
  endloop
 endfacet

 facet normal 0 0 1
  outer loop
  vertex -0.00615705224 -0.011079995 0.0156692397
  vertex -0.00248173205 -0.00593603961 0.0156692397
  vertex -0.00255128671 -0.00593603961 0.0156692397
  endloop
 endfacet

 facet normal 0 0 1
  outer loop
  vertex -0.00615705224 -0.011079995 0.0156692397
  vertex -0.00255128671 -0.00593603961 0.0156692397
  vertex -0.00321916677 -0.00613632007 0.0156692397
  endloop
 endfacet

 facet normal 0 0 1
  outer loop
  vertex -0.00615705224 -0.011079995 0.0156692397
  vertex -0.00321916677 -0.00613632007 0.0156692397
  vertex -0.00447588973 -0.00674191024 0.0156692397
  endloop
 endfacet

 facet normal 0 0 1
  outer loop
  vertex -0.00615705224 -0.011079995 0.0156692397
  vertex -0.00447588973 -0.00674191024 0.0156692397
  vertex -0.00449248729 -0.00675061811 0.0156692397
  endloop
 endfacet

 facet normal 0 0 1
  outer loop
  vertex -0.00615705224 -0.011079995 0.0156692397
  vertex -0.00449248729 -0.00675061811 0.0156692397
  vertex -0.00511531625 -0.00736570824 0.0156692397
  endloop
 endfacet

 facet normal 0 0 1
  outer loop
  vertex -0.00615705224 -0.011079995 0.0156692397
  vertex -0.00511531625 -0.00736570824 0.0156692397
  vertex -0.00573893497 -0.00799979735 0.0156692397
  endloop
 endfacet

 facet normal 0 0 1
  outer loop
  vertex -0.00615705224 -0.011079995 0.0156692397
  vertex -0.00573893497 -0.00799979735 0.0156692397
  vertex -0.00574762886 -0.00801800378 0.0156692397
  endloop
 endfacet

 facet normal 0 0 1
  outer loop
  vertex -0.00615705224 -0.011079995 0.0156692397
  vertex -0.00574762886 -0.00801800378 0.0156692397
  vertex -0.00599265052 -0.00868929923 0.0156692397
  endloop
 endfacet

 facet normal 0 0 1
  outer loop
  vertex -0.00615705224 -0.011079995 0.0156692397
  vertex -0.00599265052 -0.00868929923 0.0156692397
  vertex -0.00615705224 -0.00917772949 0.0156692397
  endloop
 endfacet

 facet normal -1 0 0
  outer loop
  vertex -0.00615705224 -0.011079995 0.0156692397
  vertex -0.00615705224 -0.00917772949 0.0156692397
  vertex -0.00615705224 -0.00929805543 0.0155857224
  endloop
 endfacet

 facet normal -1 0 0
  outer loop
  vertex -0.00615705224 -0.011079995 0.0156692397
  vertex -0.00615705224 -0.00929805543 0.0155857224
  vertex -0.00615705224 -0.0100310966 0.01561007
  endloop
 endfacet

 facet normal -1 0 0
  outer loop
  vertex -0.00615705224 -0.011079995 0.0156692397
  vertex -0.00615705224 -0.0100310966 0.01561007
  vertex -0.00615705224 -0.010567816 0.0156307369
  endloop
 endfacet

 facet normal -0.960535169 -0.010702474 -0.277952731
  outer loop
  vertex -0.00615705224 -0.010567816 0.0156307369
  vertex -0.00615705224 -0.0100310966 0.01561007
  vertex -0.00542673003 -0.00993926916 0.0130827231
  endloop
 endfacet

 facet normal -0.95982945 -0.0194532834 -0.279909104
  outer loop
  vertex -0.00615705224 -0.010567816 0.0156307369
  vertex -0.00542673003 -0.00993926916 0.0130827231
  vertex -0.00541803613 -0.010567816 0.0130965943
  endloop
 endfacet

 facet normal -0.469626755 -0.104150638 -0.876700282
  outer loop
  vertex -0.00541803613 -0.010567816 0.0130965943
  vertex -0.00506710261 -0.010567816 0.0129086077
  vertex -0.005092395 -0.0111544076 0.0129918428
  endloop
 endfacet

 facet normal -0.508110285 -0.130028889 -0.851420283
  outer loop
  vertex -0.00541803613 -0.010567816 0.0130965943
  vertex -0.005092395 -0.0111544076 0.0129918428
  vertex -0.00539274281 -0.0109169213 0.0131348157
  endloop
 endfacet

 facet normal -0.472035408 -0.0259758867 -0.881196737
  outer loop
  vertex -0.00541803613 -0.010567816 0.0130965943
  vertex -0.00542673003 -0.00993926916 0.0130827231
  vertex -0.00506710261 -0.010567816 0.0129086077
  endloop
 endfacet

 facet normal -0.559569895 -0.227987528 -0.796808124
  outer loop
  vertex -0.00539274281 -0.0109169213 0.0131348157
  vertex -0.005092395 -0.0111544076 0.0129918428
  vertex -0.00488056941 -0.0118257022 0.0130351605
  endloop
 endfacet

 facet normal -0.752434433 -0.363851488 -0.549048781
  outer loop
  vertex -0.00539274281 -0.0109169213 0.0131348157
  vertex -0.00488056941 -0.0118257022 0.0130351605
  vertex -0.00477702869 -0.0121692661 0.0131209427
  endloop
 endfacet

 facet normal -0.839998364 -0.409035236 -0.356500953
  outer loop
  vertex -0.00539274281 -0.0109169213 0.0131348157
  vertex -0.00477702869 -0.0121692661 0.0131209427
  vertex -0.00571206165 -0.0124700833 0.0156692397
  endloop
 endfacet

 facet normal -0.873700976 -0.357938498 -0.329433858
  outer loop
  vertex -0.00539274281 -0.0109169213 0.0131348157
  vertex -0.00571206165 -0.0124700833 0.0156692397
  vertex -0.00597605202 -0.0118257022 0.0156692397
  endloop
 endfacet

 facet normal -0.901471078 0.303427875 -0.308676958
  outer loop
  vertex -0.00615705224 -0.00917772949 0.0156692397
  vertex -0.00599265052 -0.00868929923 0.0156692397
  vertex -0.00540459901 -0.00953949988 0.0131161306
  endloop
 endfacet

 facet normal -0.929151177 0.210803717 -0.303710163
  outer loop
  vertex -0.00615705224 -0.00917772949 0.0156692397
  vertex -0.00540459901 -0.00953949988 0.0131161306
  vertex -0.00615705224 -0.00929805543 0.0155857224
  endloop
 endfacet

 facet normal -0.96056354 -0.00923059508 -0.277907431
  outer loop
  vertex -0.00615705224 -0.0100310966 0.01561007
  vertex -0.00615705224 -0.00929805543 0.0155857224
  vertex -0.00542673003 -0.00993926916 0.0130827231
  endloop
 endfacet

 facet normal -0.95156455 0.0775400922 -0.297510475
  outer loop
  vertex -0.00542673003 -0.00993926916 0.0130827231
  vertex -0.00615705224 -0.00929805543 0.0155857224
  vertex -0.00540459901 -0.00953949988 0.0131161306
  endloop
 endfacet

 facet normal -0.467698157 0.0992871001 -0.87829411
  outer loop
  vertex -0.00542673003 -0.00993926916 0.0130827231
  vertex -0.00540459901 -0.00953949988 0.0131161306
  vertex -0.00510425027 -0.00932180416 0.012980802
  endloop
 endfacet

 facet normal -0.461682111 0.0955525562 -0.881884038
  outer loop
  vertex -0.00542673003 -0.00993926916 0.0130827231
  vertex -0.00510425027 -0.00932180416 0.012980802
  vertex -0.00506710261 -0.00993926916 0.0128944516
  endloop
 endfacet

 facet normal -0.463711947 -0.0199490935 -0.88576144
  outer loop
  vertex -0.00542673003 -0.00993926916 0.0130827231
  vertex -0.00506710261 -0.00993926916 0.0128944516
  vertex -0.00506710261 -0.010567816 0.0129086077
  endloop
 endfacet

 facet normal -0.302126467 -0.104433522 -0.94753015
  outer loop
  vertex -0.00506710261 -0.010567816 0.0129086077
  vertex -0.00443874113 -0.0111963646 0.0127775269
  vertex -0.00443874113 -0.0118257022 0.0128468908
  endloop
 endfacet

 facet normal -0.32959941 -0.118692085 -0.936630368
  outer loop
  vertex -0.00506710261 -0.010567816 0.0129086077
  vertex -0.00443874113 -0.0118257022 0.0128468908
  vertex -0.005092395 -0.0111544076 0.0129918428
  endloop
 endfacet

 facet normal -0.225144744 -0.0219381656 -0.974078357
  outer loop
  vertex -0.00506710261 -0.010567816 0.0129086077
  vertex -0.00506710261 -0.00993926916 0.0128944516
  vertex -0.00443874113 -0.0111963646 0.0127775269
  endloop
 endfacet

 facet normal -0.385601252 -0.180068687 -0.904923677
  outer loop
  vertex -0.005092395 -0.0111544076 0.0129918428
  vertex -0.00443874113 -0.0118257022 0.0128468908
  vertex -0.00488056941 -0.0118257022 0.0130351605
  endloop
 endfacet

 facet normal -0.370456696 -0.327010274 -0.86938262
  outer loop
  vertex -0.00488056941 -0.0118257022 0.0130351605
  vertex -0.00443874113 -0.0118257022 0.0128468908
  vertex -0.00438815635 -0.0124091273 0.0130447857
  endloop
 endfacet

 facet normal -0.37283954 -0.328992218 -0.867614448
  outer loop
  vertex -0.00488056941 -0.0118257022 0.0130351605
  vertex -0.00438815635 -0.0124091273 0.0130447857
  vertex -0.00477702869 -0.0121692661 0.0131209427
  endloop
 endfacet

 facet normal -0.434182495 -0.457538188 -0.775979698
  outer loop
  vertex -0.00477702869 -0.0121692661 0.0131209427
  vertex -0.00438815635 -0.0124091273 0.0130447857
  vertex -0.00414471468 -0.0127851479 0.0131302848
  endloop
 endfacet

 facet normal -0.654316306 -0.676889181 -0.337181419
  outer loop
  vertex -0.00477702869 -0.0121692661 0.0131209427
  vertex -0.00414471468 -0.0127851479 0.0131302848
  vertex -0.00510504004 -0.0131215863 0.0156692397
  endloop
 endfacet

 facet normal -0.690797508 -0.643632174 -0.32944876
  outer loop
  vertex -0.00477702869 -0.0121692661 0.0131209427
  vertex -0.00510504004 -0.0131215863 0.0156692397
  vertex -0.00571206165 -0.0124700833 0.0156692397
  endloop
 endfacet

 facet normal -0.891919374 0.325549006 -0.313843429
  outer loop
  vertex -0.00599265052 -0.00868929923 0.0156692397
  vertex -0.00574762886 -0.00801800378 0.0156692397
  vertex -0.00540459901 -0.00953949988 0.0131161306
  endloop
 endfacet

 facet normal -0.711815953 0.31398806 -0.628275156
  outer loop
  vertex -0.00540459901 -0.00953949988 0.0131161306
  vertex -0.0048165475 -0.00828398857 0.0130773438
  vertex -0.00492562214 -0.00868138205 0.0130023193
  endloop
 endfacet

 facet normal -0.504137993 0.169070527 -0.846912086
  outer loop
  vertex -0.00540459901 -0.00953949988 0.0131161306
  vertex -0.00492562214 -0.00868138205 0.0130023193
  vertex -0.00510425027 -0.00932180416 0.012980802
  endloop
 endfacet

 facet normal -0.853540361 0.389072061 -0.346542746
  outer loop
  vertex -0.00540459901 -0.00953949988 0.0131161306
  vertex -0.00574762886 -0.00801800378 0.0156692397
  vertex -0.0048165475 -0.00828398857 0.0130773438
  endloop
 endfacet

 facet normal -0.357561737 0.130800113 -0.924684346
  outer loop
  vertex -0.00510425027 -0.00932180416 0.012980802
  vertex -0.00492562214 -0.00868138205 0.0130023193
  vertex -0.00443874113 -0.00868138205 0.0128140496
  endloop
 endfacet

 facet normal -0.340013921 0.110153072 -0.933946967
  outer loop
  vertex -0.00510425027 -0.00932180416 0.012980802
  vertex -0.00443874113 -0.00868138205 0.0128140496
  vertex -0.00506710261 -0.00993926916 0.0128944516
  endloop
 endfacet

 facet normal -0.236788124 0.0562880002 -0.969929397
  outer loop
  vertex -0.00506710261 -0.00993926916 0.0128944516
  vertex -0.00443874113 -0.00868138205 0.0128140496
  vertex -0.00443874113 -0.00931072142 0.0127775269
  endloop
 endfacet

 facet normal -0.182938695 0 -0.983124375
  outer loop
  vertex -0.00506710261 -0.00993926916 0.0128944516
  vertex -0.00443874113 -0.00931072142 0.0127775269
  vertex -0.00443874113 -0.0111963646 0.0127775269
  endloop
 endfacet

 facet normal -0.108933501 -0.108901225 -0.988065839
  outer loop
  vertex -0.00443874113 -0.0111963646 0.0127775269
  vertex -0.00380958966 -0.0118257022 0.0127775269
  vertex -0.00443874113 -0.0118257022 0.0128468908
  endloop
 endfacet

 facet normal 0 0 -1
  outer loop
  vertex -0.00443874113 -0.0111963646 0.0127775269
  vertex -0.00443874113 -0.00931072142 0.0127775269
  vertex -0.00380958966 -0.00868138205 0.0127775269
  endloop
 endfacet

 facet normal 0 0 -1
  outer loop
  vertex -0.00443874113 -0.0111963646 0.0127775269
  vertex -0.00380958966 -0.00868138205 0.0127775269
  vertex -0.00318043819 -0.00805283524 0.0127775269
  endloop
 endfacet

 facet normal 0 0 -1
  outer loop
  vertex -0.00443874113 -0.0111963646 0.0127775269
  vertex -0.00318043819 -0.00805283524 0.0127775269
  vertex -0.0012945648 -0.00805283524 0.0127775269
  endloop
 endfacet

 facet normal 0 0 -1
  outer loop
  vertex -0.00443874113 -0.0111963646 0.0127775269
  vertex -0.0012945648 -0.00805283524 0.0127775269
  vertex -0.000665412343 -0.00868138205 0.0127775269
  endloop
 endfacet

 facet normal 0 0 -1
  outer loop
  vertex -0.00443874113 -0.0111963646 0.0127775269
  vertex -0.000665412343 -0.00868138205 0.0127775269
  vertex -3.626131e-05 -0.00931072142 0.0127775269
  endloop
 endfacet

 facet normal 0 0 -1
  outer loop
  vertex -0.00443874113 -0.0111963646 0.0127775269
  vertex -3.626131e-05 -0.00931072142 0.0127775269
  vertex -3.626131e-05 -0.0111963646 0.0127775269
  endloop
 endfacet

 facet normal 0 0 -1
  outer loop
  vertex -0.00443874113 -0.0111963646 0.0127775269
  vertex -3.626131e-05 -0.0111963646 0.0127775269
  vertex -0.000665412343 -0.0118257022 0.0127775269
  endloop
 endfacet

 facet normal 0 0 -1
  outer loop
  vertex -0.00443874113 -0.0111963646 0.0127775269
  vertex -0.000665412343 -0.0118257022 0.0127775269
  vertex -0.00192371535 -0.0124542499 0.0127775269
  endloop
 endfacet

 facet normal 0 0 -1
  outer loop
  vertex -0.00443874113 -0.0111963646 0.0127775269
  vertex -0.00192371535 -0.0124542499 0.0127775269
  vertex -0.00255128671 -0.0124542499 0.0127775269
  endloop
 endfacet

 facet normal 0 0 -1
  outer loop
  vertex -0.00443874113 -0.0111963646 0.0127775269
  vertex -0.00255128671 -0.0124542499 0.0127775269
  vertex -0.00380958966 -0.0118257022 0.0127775269
  endloop
 endfacet

 facet normal -0.108910583 -0.110794567 -0.987857819
  outer loop
  vertex -0.00443874113 -0.0118257022 0.0128468908
  vertex -0.00380958966 -0.0118257022 0.0127775269
  vertex -0.00318043819 -0.0124542499 0.0127786594
  endloop
 endfacet

 facet normal -0.119970888 -0.13337943 -0.983776808
  outer loop
  vertex -0.00443874113 -0.0118257022 0.0128468908
  vertex -0.00318043819 -0.0124542499 0.0127786594
  vertex -0.00380958966 -0.0124542499 0.0128553836
  endloop
 endfacet

 facet normal -0.316867232 -0.329191059 -0.889510274
  outer loop
  vertex -0.00443874113 -0.0118257022 0.0128468908
  vertex -0.00380958966 -0.0124542499 0.0128553836
  vertex -0.00438815635 -0.0124091273 0.0130447857
  endloop
 endfacet

 facet normal -0.314151287 -0.384444326 -0.868050456
  outer loop
  vertex -0.00438815635 -0.0124091273 0.0130447857
  vertex -0.00380958966 -0.0124542499 0.0128553836
  vertex -0.00380958966 -0.0128793512 0.0130436532
  endloop
 endfacet

 facet normal -0.334528685 -0.409563392 -0.848733425
  outer loop
  vertex -0.00438815635 -0.0124091273 0.0130447857
  vertex -0.00380958966 -0.0128793512 0.0130436532
  vertex -0.00414471468 -0.0127851479 0.0131302848
  endloop
 endfacet

 facet normal -0.338109761 -0.867685735 -0.364421993
  outer loop
  vertex -0.00414471468 -0.0127851479 0.0131302848
  vertex -0.00380958966 -0.0128793512 0.0130436532
  vertex -0.00380958966 -0.013982079 0.0156692397
  endloop
 endfacet

 facet normal -0.366123289 -0.859432161 -0.356833428
  outer loop
  vertex -0.00414471468 -0.0127851479 0.0131302848
  vertex -0.00380958966 -0.013982079 0.0156692397
  vertex -0.00443953136 -0.0137137203 0.0156692397
  endloop
 endfacet

 facet normal -0.627320349 -0.705056489 -0.33070305
  outer loop
  vertex -0.00414471468 -0.0127851479 0.0131302848
  vertex -0.00443953136 -0.0137137203 0.0156692397
  vertex -0.00510504004 -0.0131215863 0.0156692397
  endloop
 endfacet

 facet normal -0.846770048 0.404336423 -0.345677108
  outer loop
  vertex -0.00574762886 -0.00801800378 0.0156692397
  vertex -0.00573893497 -0.00799979735 0.0156692397
  vertex -0.0048165475 -0.00828398857 0.0130773438
  endloop
 endfacet

 facet normal -0.36502251 0.268486202 -0.891444802
  outer loop
  vertex -0.0048165475 -0.00828398857 0.0130773438
  vertex -0.00442767609 -0.00806550123 0.0129839154
  vertex -0.00492562214 -0.00868138205 0.0130023193
  endloop
 endfacet

 facet normal -0.678169012 0.664359331 -0.31418699
  outer loop
  vertex -0.0048165475 -0.00828398857 0.0130773438
  vertex -0.00573893497 -0.00799979735 0.0156692397
  vertex -0.0042111082 -0.00766810728 0.0130728129
  endloop
 endfacet

 facet normal -0.42509672 0.411960244 -0.805966318
  outer loop
  vertex -0.0048165475 -0.00828398857 0.0130773438
  vertex -0.0042111082 -0.00766810728 0.0130728129
  vertex -0.00442767609 -0.00806550123 0.0129839154
  endloop
 endfacet

 facet normal -0.348736465 0.255007565 -0.901861429
  outer loop
  vertex -0.00492562214 -0.00868138205 0.0130023193
  vertex -0.00442767609 -0.00806550123 0.0129839154
  vertex -0.00443874113 -0.00868138205 0.0128140496
  endloop
 endfacet

 facet normal -0.265136182 0.260790199 -0.92827332
  outer loop
  vertex -0.00443874113 -0.00868138205 0.0128140496
  vertex -0.00442767609 -0.00806550123 0.0129839154
  vertex -0.00380958966 -0.00805283524 0.0128109343
  endloop
 endfacet

 facet normal -0.0626997501 0.0578216165 -0.99635601
  outer loop
  vertex -0.00443874113 -0.00868138205 0.0128140496
  vertex -0.00380958966 -0.00805283524 0.0128109343
  vertex -0.00443874113 -0.00931072142 0.0127775269
  endloop
 endfacet

 facet normal -0.0530159436 0.0530001521 -0.997186184
  outer loop
  vertex -0.00443874113 -0.00931072142 0.0127775269
  vertex -0.00380958966 -0.00805283524 0.0128109343
  vertex -0.00380958966 -0.00868138205 0.0127775269
  endloop
 endfacet

 facet normal -0.00179953536 -0.00360252662 -0.999991894
  outer loop
  vertex -0.00380958966 -0.0118257022 0.0127775269
  vertex -0.00255128671 -0.0124542499 0.0127775269
  vertex -0.00318043819 -0.0124542499 0.0127786594
  endloop
 endfacet

 facet normal -0.0017121702 -0.307818353 -0.951443613
  outer loop
  vertex -0.00318043819 -0.0124542499 0.0127786594
  vertex -0.00255128671 -0.0124542499 0.0127775269
  vertex -0.00252441294 -0.0131334616 0.0129972221
  endloop
 endfacet

 facet normal -0.0171356797 -0.321235389 -0.946844459
  outer loop
  vertex -0.00318043819 -0.0124542499 0.0127786594
  vertex -0.00252441294 -0.0131334616 0.0129972221
  vertex -0.00318043819 -0.0130091766 0.012966929
  endloop
 endfacet

 facet normal -0.114721499 -0.319161296 -0.940731168
  outer loop
  vertex -0.00318043819 -0.0124542499 0.0127786594
  vertex -0.00318043819 -0.0130091766 0.012966929
  vertex -0.00380958966 -0.0124542499 0.0128553836
  endloop
 endfacet

 facet normal -0.191455632 -0.39745456 -0.897426605
  outer loop
  vertex -0.00380958966 -0.0124542499 0.0128553836
  vertex -0.00318043819 -0.0130091766 0.012966929
  vertex -0.00380958966 -0.0128793512 0.0130436532
  endloop
 endfacet

 facet normal -0.231840253 -0.780086875 -0.581132293
  outer loop
  vertex -0.00380958966 -0.0128793512 0.0130436532
  vertex -0.00318043819 -0.0130091766 0.012966929
  vertex -0.00229678024 -0.0134034045 0.0131435916
  endloop
 endfacet

 facet normal -0.281890005 -0.884594917 -0.371523708
  outer loop
  vertex -0.00380958966 -0.0128793512 0.0130436532
  vertex -0.00229678024 -0.0134034045 0.0131435916
  vertex -0.00380958966 -0.013982079 0.0156692397
  endloop
 endfacet

 facet normal -0.0498657636 -0.966613948 -0.251338303
  outer loop
  vertex -0.00380958966 -0.013982079 0.0156692397
  vertex -0.00229678024 -0.0134034045 0.0131435916
  vertex -0.00318043819 -0.0140145356 0.0156692397
  endloop
 endfacet

 facet normal -0.677063704 0.665884137 -0.313341796
  outer loop
  vertex -0.00573893497 -0.00799979735 0.0156692397
  vertex -0.00511531625 -0.00736570824 0.0156692397
  vertex -0.0042111082 -0.00766810728 0.0130728129
  endloop
 endfacet

 facet normal -0.26732865 0.346801072 -0.899035215
  outer loop
  vertex -0.00442767609 -0.00806550123 0.0129839154
  vertex -0.0042111082 -0.00766810728 0.0130728129
  vertex -0.00380958966 -0.00755015574 0.0129989209
  endloop
 endfacet

 facet normal -0.260047793 0.338225484 -0.904421806
  outer loop
  vertex -0.00442767609 -0.00806550123 0.0129839154
  vertex -0.00380958966 -0.00755015574 0.0129989209
  vertex -0.00380958966 -0.00805283524 0.0128109343
  endloop
 endfacet

 facet normal -0.667758465 0.676159978 -0.311298013
  outer loop
  vertex -0.0042111082 -0.00766810728 0.0130728129
  vertex -0.00511531625 -0.00736570824 0.0156692397
  vertex -0.00449248729 -0.00675061811 0.0156692397
  endloop
 endfacet

 facet normal -0.43667084 0.832311273 -0.341433227
  outer loop
  vertex -0.0042111082 -0.00766810728 0.0130728129
  vertex -0.00449248729 -0.00675061811 0.0156692397
  vertex -0.00447588973 -0.00674191024 0.0156692397
  endloop
 endfacet

 facet normal -0.414224446 0.84307754 -0.342984736
  outer loop
  vertex -0.0042111082 -0.00766810728 0.0130728129
  vertex -0.00447588973 -0.00674191024 0.0156692397
  vertex -0.00300576142 -0.00706805848 0.0130920662
  endloop
 endfacet

 facet normal -0.319401711 0.663311779 -0.676756978
  outer loop
  vertex -0.0042111082 -0.00766810728 0.0130728129
  vertex -0.00300576142 -0.00706805848 0.0130920662
  vertex -0.00380958966 -0.00755015574 0.0129989209
  endloop
 endfacet

 facet normal -0.0529494137 0.0530003421 -0.997189701
  outer loop
  vertex -0.00380958966 -0.00805283524 0.0128109343
  vertex -0.00318043819 -0.00805283524 0.0127775269
  vertex -0.00380958966 -0.00868138205 0.0127775269
  endloop
 endfacet

 facet normal -0.147958115 0.346421152 -0.926337242
  outer loop
  vertex -0.00380958966 -0.00805283524 0.0128109343
  vertex -0.00380958966 -0.00755015574 0.0129989209
  vertex -0.00320177828 -0.00737837376 0.0129660796
  endloop
 endfacet

 facet normal -0.134553909 0.335714191 -0.932304323
  outer loop
  vertex -0.00380958966 -0.00805283524 0.0128109343
  vertex -0.00320177828 -0.00737837376 0.0129660796
  vertex -0.00255128671 -0.00742349634 0.0128559498
  endloop
 endfacet

 facet normal -0.0522083789 0.174715087 -0.983233929
  outer loop
  vertex -0.00380958966 -0.00805283524 0.0128109343
  vertex -0.00255128671 -0.00742349634 0.0128559498
  vertex -0.00318043819 -0.00805283524 0.0127775269
  endloop
 endfacet

 facet normal 0 -0.307757467 -0.951464832
  outer loop
  vertex -0.00255128671 -0.0124542499 0.0127775269
  vertex -0.00192371535 -0.0124542499 0.0127775269
  vertex -0.00252441294 -0.0131334616 0.0129972221
  endloop
 endfacet

 facet normal 0.000856118451 -0.308442742 -0.951242626
  outer loop
  vertex -0.00252441294 -0.0131334616 0.0129972221
  vertex -0.00192371535 -0.0124542499 0.0127775269
  vertex -0.00195375015 -0.0131318774 0.0129972221
  endloop
 endfacet

 facet normal 0.0013194459 -0.475370526 -0.879784703
  outer loop
  vertex -0.00252441294 -0.0131334616 0.0129972221
  vertex -0.00195375015 -0.0131318774 0.0129972221
  vertex -0.00218296424 -0.0134034045 0.0131435916
  endloop
 endfacet

 facet normal 0 -0.476661295 -0.87908709
  outer loop
  vertex -0.00252441294 -0.0131334616 0.0129972221
  vertex -0.00218296424 -0.0134034045 0.0131435916
  vertex -0.00229678024 -0.0134034045 0.0131435916
  endloop
 endfacet

 facet normal -0.0576386303 -0.51299417 -0.85645479
  outer loop
  vertex -0.00252441294 -0.0131334616 0.0129972221
  vertex -0.00229678024 -0.0134034045 0.0131435916
  vertex -0.00318043819 -0.0130091766 0.012966929
  endloop
 endfacet

 facet normal 0 -0.971251011 -0.238057718
  outer loop
  vertex -0.00229678024 -0.0134034045 0.0131435916
  vertex -0.00218296424 -0.0134034045 0.0131435916
  vertex -0.00255128671 -0.0140224518 0.0156692397
  endloop
 endfacet

 facet normal -0.0122157326 -0.970893323 -0.239201024
  outer loop
  vertex -0.00229678024 -0.0134034045 0.0131435916
  vertex -0.00255128671 -0.0140224518 0.0156692397
  vertex -0.00318043819 -0.0140145356 0.0156692397
  endloop
 endfacet

 facet normal -0.178199887 0.46470207 -0.867350459
  outer loop
  vertex -0.00380958966 -0.00755015574 0.0129989209
  vertex -0.00300576142 -0.00706805848 0.0130920662
  vertex -0.00320177828 -0.00737837376 0.0129660796
  endloop
 endfacet

 facet normal -0.408232421 0.847165465 -0.340083957
  outer loop
  vertex -0.00447588973 -0.00674191024 0.0156692397
  vertex -0.00321916677 -0.00613632007 0.0156692397
  vertex -0.00300576142 -0.00706805848 0.0130920662
  endloop
 endfacet

 facet normal -0.26938194 0.898314953 -0.347078651
  outer loop
  vertex -0.00300576142 -0.00706805848 0.0130920662
  vertex -0.00321916677 -0.00613632007 0.0156692397
  vertex -0.00255128671 -0.00593603961 0.0156692397
  endloop
 endfacet

 facet normal -0.113749556 0.916856647 -0.382668227
  outer loop
  vertex -0.00300576142 -0.00706805848 0.0130920662
  vertex -0.00255128671 -0.00593603961 0.0156692397
  vertex -0.00255128671 -0.00703164376 0.0130442195
  endloop
 endfacet

 facet normal -0.128867179 0.441838592 -0.887790442
  outer loop
  vertex -0.00300576142 -0.00706805848 0.0130920662
  vertex -0.00255128671 -0.00703164376 0.0130442195
  vertex -0.00320177828 -0.00737837376 0.0129660796
  endloop
 endfacet

 facet normal 0 0.123655148 -0.992325366
  outer loop
  vertex -0.00318043819 -0.00805283524 0.0127775269
  vertex -0.00255128671 -0.00742349634 0.0128559498
  vertex -0.0012945648 -0.00805283524 0.0127775269
  endloop
 endfacet

 facet normal -0.121651731 0.429851592 -0.894666672
  outer loop
  vertex -0.00320177828 -0.00737837376 0.0129660796
  vertex -0.00255128671 -0.00703164376 0.0130442195
  vertex -0.00255128671 -0.00742349634 0.0128559498
  endloop
 endfacet

 facet normal 0.00284571364 0.433066308 -0.901357591
  outer loop
  vertex -0.00255128671 -0.00742349634 0.0128559498
  vertex -0.00255128671 -0.00703164376 0.0130442195
  vertex -0.00192371535 -0.00742349634 0.0128579317
  endloop
 endfacet

 facet normal 0.00313041452 0.129807681 -0.991534352
  outer loop
  vertex -0.00255128671 -0.00742349634 0.0128559498
  vertex -0.00192371535 -0.00742349634 0.0128579317
  vertex -0.0012945648 -0.00805283524 0.0127775269
  endloop
 endfacet

 facet normal 0.00385138998 -0.308560699 -0.951196969
  outer loop
  vertex -0.00192371535 -0.0124542499 0.0127775269
  vertex -0.0012945648 -0.0124542499 0.012780075
  vertex -0.00195375015 -0.0131318774 0.0129972221
  endloop
 endfacet

 facet normal 0.0040488271 -0.00810542982 -0.999958932
  outer loop
  vertex -0.00192371535 -0.0124542499 0.0127775269
  vertex -0.000665412343 -0.0118257022 0.0127775269
  vertex -0.0012945648 -0.0124542499 0.012780075
  endloop
 endfacet

 facet normal 0.021624377 -0.324111462 -0.945771813
  outer loop
  vertex -0.00195375015 -0.0131318774 0.0129972221
  vertex -0.0012945648 -0.0124542499 0.012780075
  vertex -0.0012945648 -0.0130036343 0.0129683465
  endloop
 endfacet

 facet normal 0.0625108778 -0.513955116 -0.855536401
  outer loop
  vertex -0.00195375015 -0.0131318774 0.0129972221
  vertex -0.0012945648 -0.0130036343 0.0129683465
  vertex -0.00218296424 -0.0134034045 0.0131435916
  endloop
 endfacet

 facet normal 0.0465271249 -0.966988921 -0.250534981
  outer loop
  vertex -0.00218296424 -0.0134034045 0.0131435916
  vertex -0.000675688265 -0.0139852455 0.0156692397
  vertex -0.00130088744 -0.0140153272 0.0156692397
  endloop
 endfacet

 facet normal 0.00987358578 -0.971039474 -0.238715217
  outer loop
  vertex -0.00218296424 -0.0134034045 0.0131435916
  vertex -0.00130088744 -0.0140153272 0.0156692397
  vertex -0.00192371535 -0.0140216602 0.0156692397
  endloop
 endfacet

 facet normal 0.00122428115 -0.971291542 -0.237889111
  outer loop
  vertex -0.00218296424 -0.0134034045 0.0131435916
  vertex -0.00192371535 -0.0140216602 0.0156692397
  vertex -0.00255128671 -0.0140224518 0.0156692397
  endloop
 endfacet

 facet normal 0.240974873 -0.785431504 -0.570112705
  outer loop
  vertex -0.00218296424 -0.0134034045 0.0131435916
  vertex -0.0012945648 -0.0130036343 0.0129683465
  vertex -0.000665412343 -0.0128714349 0.0130521469
  endloop
 endfacet

 facet normal 0.286608994 -0.881938338 -0.374219537
  outer loop
  vertex -0.00218296424 -0.0134034045 0.0131435916
  vertex -0.000665412343 -0.0128714349 0.0130521469
  vertex -0.000675688265 -0.0139852455 0.0156692397
  endloop
 endfacet

 facet normal 0 0.922846437 -0.385168165
  outer loop
  vertex -0.00255128671 -0.00593603961 0.0156692397
  vertex -0.00248173205 -0.00593603961 0.0156692397
  vertex -0.00255128671 -0.00703164376 0.0130442195
  endloop
 endfacet

 facet normal 0.00353264692 0.433960736 -0.900924861
  outer loop
  vertex -0.00255128671 -0.00703164376 0.0130442195
  vertex -0.00192371535 -0.00703322655 0.0130459182
  vertex -0.00192371535 -0.00742349634 0.0128579317
  endloop
 endfacet

 facet normal 0.00261866255 0.922818601 -0.385225952
  outer loop
  vertex -0.00255128671 -0.00703164376 0.0130442195
  vertex -0.00248173205 -0.00593603961 0.0156692397
  vertex -0.00192371535 -0.00593762286 0.0156692397
  endloop
 endfacet

 facet normal 0.00337045733 0.922752678 -0.385378212
  outer loop
  vertex -0.00255128671 -0.00703164376 0.0130442195
  vertex -0.00192371535 -0.00593762286 0.0156692397
  vertex -0.00192371535 -0.00703322655 0.0130459182
  endloop
 endfacet

 facet normal 0.0587222539 0.184057429 -0.981159806
  outer loop
  vertex -0.0012945648 -0.00805283524 0.0127775269
  vertex -0.00192371535 -0.00742349634 0.0128579317
  vertex -0.000665412343 -0.00805283524 0.0128151821
  endloop
 endfacet

 facet normal 0.0596363991 0.0596938431 -0.996433735
  outer loop
  vertex -0.0012945648 -0.00805283524 0.0127775269
  vertex -0.000665412343 -0.00805283524 0.0128151821
  vertex -0.000665412343 -0.00868138205 0.0127775269
  endloop
 endfacet

 facet normal 0.123871312 0.430621147 -0.893991828
  outer loop
  vertex -0.00192371535 -0.00742349634 0.0128579317
  vertex -0.00192371535 -0.00703322655 0.0130459182
  vertex -0.00127954641 -0.0073807491 0.0129677784
  endloop
 endfacet

 facet normal 0.136570841 0.336353987 -0.931780279
  outer loop
  vertex -0.00192371535 -0.00742349634 0.0128579317
  vertex -0.00127954641 -0.0073807491 0.0129677784
  vertex -0.000665412343 -0.00805283524 0.0128151821
  endloop
 endfacet

 facet normal 0.125017017 -0.321643889 -0.938571215
  outer loop
  vertex -0.0012945648 -0.0124542499 0.012780075
  vertex -0.000665412343 -0.0124542499 0.0128638772
  vertex -0.0012945648 -0.0130036343 0.0129683465
  endloop
 endfacet

 facet normal 0.122263752 -0.126371071 -0.984419584
  outer loop
  vertex -0.0012945648 -0.0124542499 0.012780075
  vertex -0.000665412343 -0.0118257022 0.0127775269
  vertex -3.626131e-05 -0.0118257022 0.0128556667
  endloop
 endfacet

 facet normal 0.130664676 -0.143603727 -0.980971336
  outer loop
  vertex -0.0012945648 -0.0124542499 0.012780075
  vertex -3.626131e-05 -0.0118257022 0.0128556667
  vertex -0.000665412343 -0.0124542499 0.0128638772
  endloop
 endfacet

 facet normal 0.122326776 -0.122290432 -0.984927058
  outer loop
  vertex -0.000665412343 -0.0118257022 0.0127775269
  vertex -3.626131e-05 -0.0111963646 0.0127775269
  vertex -3.626131e-05 -0.0118257022 0.0128556667
  endloop
 endfacet

 facet normal 0.203489706 -0.402732849 -0.89241147
  outer loop
  vertex -0.0012945648 -0.0130036343 0.0129683465
  vertex -0.000665412343 -0.0124542499 0.0128638772
  vertex -0.000665412343 -0.0128714349 0.0130521469
  endloop
 endfacet

 facet normal 0.319816321 -0.872260988 -0.36997059
  outer loop
  vertex -0.000675688265 -0.0139852455 0.0156692397
  vertex -0.000665412343 -0.0128714349 0.0130521469
  vertex 9.66868612e-08 -0.013737468 0.0156692397
  endloop
 endfacet

 facet normal 0.326102793 -0.388853133 -0.861655474
  outer loop
  vertex -0.000665412343 -0.0128714349 0.0130521469
  vertex -0.000665412343 -0.0124542499 0.0128638772
  vertex -9.23791958e-05 -0.0124027943 0.0130575262
  endloop
 endfacet

 facet normal 0.344638824 -0.411725134 -0.843626976
  outer loop
  vertex -0.000665412343 -0.0128714349 0.0130521469
  vertex -9.23791958e-05 -0.0124027943 0.0130575262
  vertex -0.000338980928 -0.0127780233 0.0131399119
  endloop
 endfacet

 facet normal 0.346568048 -0.860698104 -0.372947037
  outer loop
  vertex -0.000665412343 -0.0128714349 0.0130521469
  vertex -0.000338980928 -0.0127780233 0.0131399119
  vertex 9.66868612e-08 -0.013737468 0.0156692397
  endloop
 endfacet

 facet normal 0.117082506 0.916411281 -0.382729769
  outer loop
  vertex -0.00192371535 -0.00703322655 0.0130459182
  vertex -0.00192371535 -0.00593762286 0.0156692397
  vertex -0.00147951557 -0.00706964126 0.0130946133
  endloop
 endfacet

 facet normal 0.133596107 0.446562886 -0.884722412
  outer loop
  vertex -0.00192371535 -0.00703322655 0.0130459182
  vertex -0.00147951557 -0.00706964126 0.0130946133
  vertex -0.00127954641 -0.0073807491 0.0129677784
  endloop
 endfacet

 facet normal 0.331892192 0.883297443 -0.331109136
  outer loop
  vertex -0.00192371535 -0.00593762286 0.0156692397
  vertex -0.00130009733 -0.00617194269 0.0156692397
  vertex -0.00147951557 -0.00706964126 0.0130946133
  endloop
 endfacet

 facet normal 0.27571559 0.268499136 -0.922978401
  outer loop
  vertex -0.000665412343 -0.00805283524 0.0128151821
  vertex -5.28594137e-05 -0.00807262585 0.0129924091
  vertex -3.626131e-05 -0.00868138205 0.0128202764
  endloop
 endfacet

 facet normal 0.0755690783 0.0675777048 -0.994848013
  outer loop
  vertex -0.000665412343 -0.00805283524 0.0128151821
  vertex -3.626131e-05 -0.00868138205 0.0128202764
  vertex -3.626131e-05 -0.00931072142 0.0127775269
  endloop
 endfacet

 facet normal 0.0597114041 0.0596935712 -0.996429205
  outer loop
  vertex -0.000665412343 -0.00805283524 0.0128151821
  vertex -3.626131e-05 -0.00931072142 0.0127775269
  vertex -0.000665412343 -0.00868138205 0.0127775269
  endloop
 endfacet

 facet normal 0.155078188 0.351343274 -0.923314035
  outer loop
  vertex -0.000665412343 -0.00805283524 0.0128151821
  vertex -0.00127954641 -0.0073807491 0.0129677784
  vertex -0.000665412343 -0.00755807152 0.0130034517
  endloop
 endfacet

 facet normal 0.271324933 0.342304677 -0.899561167
  outer loop
  vertex -0.000665412343 -0.00805283524 0.0128151821
  vertex -0.000665412343 -0.00755807152 0.0130034517
  vertex -5.28594137e-05 -0.00807262585 0.0129924091
  endloop
 endfacet

 facet normal 0.186117738 0.47113961 -0.862199306
  outer loop
  vertex -0.00127954641 -0.0073807491 0.0129677784
  vertex -0.00147951557 -0.00706964126 0.0130946133
  vertex -0.000665412343 -0.00755807152 0.0130034517
  endloop
 endfacet

 facet normal 0.328330874 -0.340156257 -0.881188154
  outer loop
  vertex -0.000665412343 -0.0124542499 0.0128638772
  vertex -3.626131e-05 -0.0118257022 0.0128556667
  vertex -9.23791958e-05 -0.0124027943 0.0130575262
  endloop
 endfacet

 facet normal 0.333137006 -0.116177537 -0.935693681
  outer loop
  vertex -3.626131e-05 -0.0118257022 0.0128556667
  vertex -3.626131e-05 -0.0111963646 0.0127775269
  vertex 0.000613440643 -0.0111369919 0.0130014699
  endloop
 endfacet

 facet normal 0.394444793 -0.18139182 -0.900838733
  outer loop
  vertex -3.626131e-05 -0.0118257022 0.0128556667
  vertex 0.000613440643 -0.0111369919 0.0130014699
  vertex 0.000393711525 -0.0118257022 0.0130439363
  endloop
 endfacet

 facet normal 0.377458274 -0.338237345 -0.862044573
  outer loop
  vertex -3.626131e-05 -0.0118257022 0.0128556667
  vertex 0.000393711525 -0.0118257022 0.0130439363
  vertex -9.23791958e-05 -0.0124027943 0.0130575262
  endloop
 endfacet

 facet normal 0.332675397 -0.105918542 -0.937074363
  outer loop
  vertex -3.626131e-05 -0.0111963646 0.0127775269
  vertex 0.000592099619 -0.010567816 0.0129295597
  vertex 0.000613440643 -0.0111369919 0.0130014699
  endloop
 endfacet

 facet normal 0.213062972 0 -0.977038503
  outer loop
  vertex -3.626131e-05 -0.0111963646 0.0127775269
  vertex -3.626131e-05 -0.00931072142 0.0127775269
  vertex 0.000592099619 -0.00993926916 0.0129145542
  endloop
 endfacet

 facet normal 0.256839573 -0.0230655223 -0.966178834
  outer loop
  vertex -3.626131e-05 -0.0111963646 0.0127775269
  vertex 0.000592099619 -0.00993926916 0.0129145542
  vertex 0.000592099619 -0.010567816 0.0129295597
  endloop
 endfacet

 facet normal 0.647978306 -0.679278314 -0.344536036
  outer loop
  vertex 9.66868612e-08 -0.013737468 0.0156692397
  vertex -0.000338980928 -0.0127780233 0.0131399119
  vertex 0.000631619419 -0.0131350448 0.0156692397
  endloop
 endfacet

 facet normal 0.38723883 -0.346297264 -0.854473114
  outer loop
  vertex -9.23791958e-05 -0.0124027943 0.0130575262
  vertex 0.000393711525 -0.0118257022 0.0130439363
  vertex 0.000292541779 -0.0121581834 0.0131328339
  endloop
 endfacet

 facet normal 0.4429048 -0.460040182 -0.769544303
  outer loop
  vertex -9.23791958e-05 -0.0124027943 0.0130575262
  vertex 0.000292541779 -0.0121581834 0.0131328339
  vertex -0.000338980928 -0.0127780233 0.0131399119
  endloop
 endfacet

 facet normal 0.655179024 -0.671481133 -0.346198648
  outer loop
  vertex -0.000338980928 -0.0127780233 0.0131399119
  vertex 0.000292541779 -0.0121581834 0.0131328339
  vertex 0.000631619419 -0.0131350448 0.0156692397
  endloop
 endfacet

 facet normal 0.386859536 0.862015605 -0.327519298
  outer loop
  vertex -0.00147951557 -0.00706964126 0.0130946133
  vertex -0.00130009733 -0.00617194269 0.0156692397
  vertex 1.67734709e-06 -0.00675615948 0.0156692397
  endloop
 endfacet

 facet normal 0.417499661 0.841592669 -0.34266004
  outer loop
  vertex -0.00147951557 -0.00706964126 0.0130946133
  vertex 1.67734709e-06 -0.00675615948 0.0156692397
  vertex -0.000273378624 -0.00767444074 0.0130787585
  endloop
 endfacet

 facet normal 0.326845407 0.669311225 -0.667229056
  outer loop
  vertex -0.00147951557 -0.00706964126 0.0130946133
  vertex -0.000273378624 -0.00767444074 0.0130787585
  vertex -0.000665412343 -0.00755807152 0.0130034517
  endloop
 endfacet

 facet normal 0.373704284 0.277364552 -0.885106802
  outer loop
  vertex -5.28594137e-05 -0.00807262585 0.0129924091
  vertex 0.000332851661 -0.00829507131 0.0130855544
  vertex 0.000437182724 -0.00868138205 0.0130085461
  endloop
 endfacet

 facet normal 0.356486261 0.263203204 -0.896460652
  outer loop
  vertex -5.28594137e-05 -0.00807262585 0.0129924091
  vertex 0.000437182724 -0.00868138205 0.0130085461
  vertex -3.626131e-05 -0.00868138205 0.0128202764
  endloop
 endfacet

 facet normal 0.275196493 0.346850932 -0.896638989
  outer loop
  vertex -5.28594137e-05 -0.00807262585 0.0129924091
  vertex -0.000665412343 -0.00755807152 0.0130034517
  vertex -0.000273378624 -0.00767444074 0.0130787585
  endloop
 endfacet

 facet normal 0.431836575 0.413037717 -0.801821113
  outer loop
  vertex -5.28594137e-05 -0.00807262585 0.0129924091
  vertex -0.000273378624 -0.00767444074 0.0130787585
  vertex 0.000332851661 -0.00829507131 0.0130855544
  endloop
 endfacet

 facet normal 0.36636883 0.130220041 -0.921312451
  outer loop
  vertex -3.626131e-05 -0.00868138205 0.0128202764
  vertex 0.000437182724 -0.00868138205 0.0130085461
  vertex 0.000623715634 -0.00934238639 0.0129892956
  endloop
 endfacet

 facet normal 0.33894664 0.099197045 -0.935561359
  outer loop
  vertex -3.626131e-05 -0.00868138205 0.0128202764
  vertex 0.000623715634 -0.00934238639 0.0129892956
  vertex 0.000592099619 -0.00993926916 0.0129145542
  endloop
 endfacet

 facet normal 0.274406552 0.065170005 -0.959402919
  outer loop
  vertex -3.626131e-05 -0.00868138205 0.0128202764
  vertex 0.000592099619 -0.00993926916 0.0129145542
  vertex -3.626131e-05 -0.00931072142 0.0127775269
  endloop
 endfacet

 facet normal 0.485987127 -0.0915888995 -0.869153619
  outer loop
  vertex 0.000613440643 -0.0111369919 0.0130014699
  vertex 0.000592099619 -0.010567816 0.0129295597
  vertex 0.00092880649 -0.010567816 0.0131178284
  endloop
 endfacet

 facet normal 0.527368546 -0.12025585 -0.841083229
  outer loop
  vertex 0.000613440643 -0.0111369919 0.0130014699
  vertex 0.00092880649 -0.010567816 0.0131178284
  vertex 0.000908256043 -0.0108876321 0.0131506696
  endloop
 endfacet

 facet normal 0.590227783 -0.235910699 -0.771995723
  outer loop
  vertex 0.000613440643 -0.0111369919 0.0130014699
  vertex 0.000908256043 -0.0108876321 0.0131506696
  vertex 0.000393711525 -0.0118257022 0.0130439363
  endloop
 endfacet

 facet normal 0.781639218 -0.371754676 -0.500837862
  outer loop
  vertex 0.000393711525 -0.0118257022 0.0130439363
  vertex 0.000908256043 -0.0108876321 0.0131506696
  vertex 0.000292541779 -0.0121581834 0.0131328339
  endloop
 endfacet

 facet normal 0.477647632 -0.0209676288 -0.878301322
  outer loop
  vertex 0.000592099619 -0.010567816 0.0129295597
  vertex 0.000592099619 -0.00993926916 0.0129145542
  vertex 0.000938290905 -0.00993926916 0.0131028239
  endloop
 endfacet

 facet normal 0.487844467 -0.0281898491 -0.872475326
  outer loop
  vertex 0.000592099619 -0.010567816 0.0129295597
  vertex 0.000938290905 -0.00993926916 0.0131028239
  vertex 0.00092880649 -0.010567816 0.0131178284
  endloop
 endfacet

 facet normal 0.476048112 0.0843966156 -0.875360191
  outer loop
  vertex 0.000592099619 -0.00993926916 0.0129145542
  vertex 0.000623715634 -0.00934238639 0.0129892956
  vertex 0.000938290905 -0.00993926916 0.0131028239
  endloop
 endfacet

 facet normal 0.664370716 -0.663374305 -0.344305217
  outer loop
  vertex 0.000631619419 -0.0131350448 0.0156692397
  vertex 0.000292541779 -0.0121581834 0.0131328339
  vertex 0.000643475505 -0.0131231705 0.0156692397
  endloop
 endfacet

 facet normal 0.838116288 -0.400962412 -0.369851649
  outer loop
  vertex 0.000292541779 -0.0121581834 0.0131328339
  vertex 0.000908256043 -0.0108876321 0.0131506696
  vertex 0.0012504959 -0.0124954144 0.0156692397
  endloop
 endfacet

 facet normal 0.675534844 -0.653221011 -0.341986984
  outer loop
  vertex 0.000292541779 -0.0121581834 0.0131328339
  vertex 0.0012504959 -0.0124954144 0.0156692397
  vertex 0.000643475505 -0.0131231705 0.0156692397
  endloop
 endfacet

 facet normal 0.660357773 0.682969868 -0.312217504
  outer loop
  vertex 1.67734709e-06 -0.00675615948 0.0156692397
  vertex 0.0006411043 -0.00737441611 0.0156692397
  vertex -0.000273378624 -0.00767444074 0.0130787585
  endloop
 endfacet

 facet normal 0.680265367 0.661013544 -0.316702336
  outer loop
  vertex -0.000273378624 -0.00767444074 0.0130787585
  vertex 0.0006411043 -0.00737441611 0.0156692397
  vertex 0.000332851661 -0.00829507131 0.0130855544
  endloop
 endfacet

 facet normal 0.737828374 0.317955226 -0.595410526
  outer loop
  vertex 0.000332851661 -0.00829507131 0.0130855544
  vertex 0.000920112128 -0.00957353972 0.013130568
  vertex 0.000437182724 -0.00868138205 0.0130085461
  endloop
 endfacet

 facet normal 0.68784374 0.653910339 -0.315075368
  outer loop
  vertex 0.000332851661 -0.00829507131 0.0130855544
  vertex 0.0006411043 -0.00737441611 0.0156692397
  vertex 0.00125444727 -0.00801958703 0.0156692397
  endloop
 endfacet

 facet normal 0.857028961 0.381478012 -0.346375406
  outer loop
  vertex 0.000332851661 -0.00829507131 0.0130855544
  vertex 0.00125444727 -0.00801958703 0.0156692397
  vertex 0.000920112128 -0.00957353972 0.013130568
  endloop
 endfacet

 facet normal 0.530979931 0.173993781 -0.829329014
  outer loop
  vertex 0.000437182724 -0.00868138205 0.0130085461
  vertex 0.000920112128 -0.00957353972 0.013130568
  vertex 0.000623715634 -0.00934238639 0.0129892956
  endloop
 endfacet

 facet normal 0.48489511 0.0900940895 -0.869919479
  outer loop
  vertex 0.000623715634 -0.00934238639 0.0129892956
  vertex 0.000920112128 -0.00957353972 0.013130568
  vertex 0.000938290905 -0.00993926916 0.0131028239
  endloop
 endfacet

 facet normal 0.933810353 -0.0954118297 -0.344811261
  outer loop
  vertex 0.00092880649 -0.010567816 0.0131178284
  vertex 0.00186542002 -0.0106216464 0.0156692397
  vertex 0.000908256043 -0.0108876321 0.0131506696
  endloop
 endfacet

 facet normal 0.934149504 -0.0225985255 -0.356165707
  outer loop
  vertex 0.00092880649 -0.010567816 0.0131178284
  vertex 0.000938290905 -0.00993926916 0.0131028239
  vertex 0.0019167955 -0.00993926916 0.0156692397
  endloop
 endfacet

 facet normal 0.93593061 -0.0704651624 -0.345063299
  outer loop
  vertex 0.00092880649 -0.010567816 0.0131178284
  vertex 0.0019167955 -0.00993926916 0.0156692397
  vertex 0.00186542002 -0.0106216464 0.0156692397
  endloop
 endfacet

 facet normal 0.907663345 -0.276493996 -0.31575036
  outer loop
  vertex 0.000908256043 -0.0108876321 0.0131506696
  vertex 0.00186542002 -0.0106216464 0.0156692397
  vertex 0.00150104996 -0.0118177859 0.0156692397
  endloop
 endfacet

 facet normal 0.885599494 -0.327451646 -0.329376787
  outer loop
  vertex 0.000908256043 -0.0108876321 0.0131506696
  vertex 0.00150104996 -0.0118177859 0.0156692397
  vertex 0.0012504959 -0.0124954144 0.0156692397
  endloop
 endfacet

 facet normal 0.93187654 0.0732723773 -0.355299085
  outer loop
  vertex 0.000938290905 -0.00993926916 0.0131028239
  vertex 0.000920112128 -0.00957353972 0.013130568
  vertex 0.0019167955 -0.00993926916 0.0156692397
  endloop
 endfacet

 facet normal 0.881463647 0.342142552 -0.325515628
  outer loop
  vertex 0.000920112128 -0.00957353972 0.013130568
  vertex 0.00125444727 -0.00801958703 0.0156692397
  vertex 0.00151132501 -0.00868138205 0.0156692397
  endloop
 endfacet

 facet normal 0.903975487 0.291389823 -0.312922448
  outer loop
  vertex 0.000920112128 -0.00957353972 0.013130568
  vertex 0.00151132501 -0.00868138205 0.0156692397
  vertex 0.0019167955 -0.00993926916 0.0156692397
  endloop
 endfacet

endsolid AssimpScene
