solid AssimpScene
 facet normal 0 0.999999702 0.000781856943
  outer loop
  vertex -0.157366425 -0.0120054493 0.00998381618
  vertex -0.157366812 -0.0120023172 0.00597844506
  vertex -0.159365937 -0.0120023172 0.00597844506
  endloop
 endfacet

 facet normal 0 0.999999702 0.000781856943
  outer loop
  vertex -0.157366425 -0.0120054493 0.00998381618
  vertex -0.159365937 -0.0120023172 0.00597844506
  vertex -0.159363985 -0.0120054493 0.00998381618
  endloop
 endfacet

 facet normal 0 0 1
  outer loop
  vertex -0.157366425 -0.0120054493 0.00998381618
  vertex -0.159363985 -0.0120054493 0.00998381618
  vertex -0.159363985 -0.0133010801 0.00998381618
  endloop
 endfacet

 facet normal 0 0 1
  outer loop
  vertex -0.157366425 -0.0120054493 0.00998381618
  vertex -0.159363985 -0.0133010801 0.00998381618
  vertex -0.157366425 -0.0133010801 0.00998381618
  endloop
 endfacet

 facet normal 0.999996126 0 0.00279055978
  outer loop
  vertex -0.157366425 -0.0120054493 0.00998381618
  vertex -0.157366425 -0.0133010801 0.00998381618
  vertex -0.157364458 -0.0199999996 0.00928168185
  endloop
 endfacet

 facet normal 0.999996126 0 0.00279055978
  outer loop
  vertex -0.157366425 -0.0120054493 0.00998381618
  vertex -0.157364458 -0.0199999996 0.00928168185
  vertex -0.157364458 -0.0184029676 0.00928168185
  endloop
 endfacet

 facet normal 0.999999881 0.000256407715 0.000454301422
  outer loop
  vertex -0.157366425 -0.0120054493 0.00998381618
  vertex -0.157364458 -0.0184029676 0.00928168185
  vertex -0.157364458 -0.0152034257 0.00747586042
  endloop
 endfacet

 facet normal 0.999999762 0.000612685282 0
  outer loop
  vertex -0.157366425 -0.0120054493 0.00998381618
  vertex -0.157364458 -0.0152034257 0.00747586042
  vertex -0.157364458 -0.0152034257 0.00597922783
  endloop
 endfacet

 facet normal 0.999999762 0.000612685282 0
  outer loop
  vertex -0.157366425 -0.0120054493 0.00998381618
  vertex -0.157364458 -0.0152034257 0.00597922783
  vertex -0.157366425 -0.0120054493 0.00597844506
  endloop
 endfacet

 facet normal 0.992260456 0.1241742 0
  outer loop
  vertex -0.157366425 -0.0120054493 0.00998381618
  vertex -0.157366425 -0.0120054493 0.00597844506
  vertex -0.157366812 -0.0120023172 0.00198716414
  endloop
 endfacet

 facet normal 0.992260456 0.1241742 0
  outer loop
  vertex -0.157366425 -0.0120054493 0.00998381618
  vertex -0.157366812 -0.0120023172 0.00198716414
  vertex -0.157366812 -0.0120023172 0.00597844506
  endloop
 endfacet

 facet normal 0 1 0
  outer loop
  vertex -0.157366812 -0.0120023172 0.00597844506
  vertex -0.157366812 -0.0120023172 0.00198716414
  vertex -0.159364179 -0.0120023172 0.00198716414
  endloop
 endfacet

 facet normal 0 1 0
  outer loop
  vertex -0.157366812 -0.0120023172 0.00597844506
  vertex -0.159364179 -0.0120023172 0.00198716414
  vertex -0.159366131 -0.0120023172 0.00597531442
  endloop
 endfacet

 facet normal 0 1 0
  outer loop
  vertex -0.157366812 -0.0120023172 0.00597844506
  vertex -0.159366131 -0.0120023172 0.00597531442
  vertex -0.159365937 -0.0120023172 0.00597844506
  endloop
 endfacet

 facet normal -0.012590481 0.999920368 0.000787953963
  outer loop
  vertex -0.159363985 -0.0120054493 0.00998381618
  vertex -0.159365937 -0.0120023172 0.00597844506
  vertex -0.159366131 -0.0120023172 0.00597531442
  endloop
 endfacet

 facet normal -0.999999881 0 0.00053768314
  outer loop
  vertex -0.159363985 -0.0120054493 0.00998381618
  vertex -0.159366131 -0.0120023172 0.00597531442
  vertex -0.159363985 -0.0133010801 0.00998381618
  endloop
 endfacet

 facet normal 0 -0.104241967 0.994552016
  outer loop
  vertex -0.157366425 -0.0133010801 0.00998381618
  vertex -0.159363985 -0.0133010801 0.00998381618
  vertex -0.159364179 -0.0199999996 0.00928168185
  endloop
 endfacet

 facet normal 0 -0.104241967 0.994552016
  outer loop
  vertex -0.157366425 -0.0133010801 0.00998381618
  vertex -0.159364179 -0.0199999996 0.00928168185
  vertex -0.157364458 -0.0199999996 0.00928168185
  endloop
 endfacet

 facet normal 1 0 0
  outer loop
  vertex -0.157364458 -0.0184029676 0.00928168185
  vertex -0.157364458 -0.0199999996 0.00928168185
  vertex -0.157364458 -0.0199999996 0.00597922783
  endloop
 endfacet

 facet normal 1 0 0
  outer loop
  vertex -0.157364458 -0.0184029676 0.00928168185
  vertex -0.157364458 -0.0199999996 0.00597922783
  vertex -0.157364458 -0.0174150001 0.00409199949
  endloop
 endfacet

 facet normal 1 0 0
  outer loop
  vertex -0.157364458 -0.0184029676 0.00928168185
  vertex -0.157364458 -0.0174150001 0.00409199949
  vertex -0.157364458 -0.015210472 0.00448650913
  endloop
 endfacet

 facet normal 1 0 0
  outer loop
  vertex -0.157364458 -0.0184029676 0.00928168185
  vertex -0.157364458 -0.015210472 0.00448650913
  vertex -0.157364458 -0.0152034257 0.00597922783
  endloop
 endfacet

 facet normal 1 0 0
  outer loop
  vertex -0.157364458 -0.0184029676 0.00928168185
  vertex -0.157364458 -0.0152034257 0.00597922783
  vertex -0.157364458 -0.0152034257 0.00747586042
  endloop
 endfacet

 facet normal 0.999999762 0.000612684584 -2.89221157e-06
  outer loop
  vertex -0.157366425 -0.0120054493 0.00597844506
  vertex -0.157364458 -0.0152034257 0.00597922783
  vertex -0.157364458 -0.015210472 0.00448650913
  endloop
 endfacet

 facet normal 0.999999762 0.000656805409 -9.76737938e-05
  outer loop
  vertex -0.157366425 -0.0120054493 0.00597844506
  vertex -0.157364458 -0.015210472 0.00448650913
  vertex -0.157366812 -0.0120023172 0.00198716414
  endloop
 endfacet

 facet normal 0 0 -1
  outer loop
  vertex -0.157366812 -0.0120023172 0.00198716414
  vertex -0.157366812 -0.0133010801 0.00198716414
  vertex -0.159364179 -0.0133010801 0.00198716414
  endloop
 endfacet

 facet normal 0 0 -1
  outer loop
  vertex -0.157366812 -0.0120023172 0.00198716414
  vertex -0.159364179 -0.0133010801 0.00198716414
  vertex -0.159364179 -0.0120023172 0.00198716414
  endloop
 endfacet

 facet normal 0.999999702 0.0001369034 -0.000765018864
  outer loop
  vertex -0.157366812 -0.0120023172 0.00198716414
  vertex -0.157364458 -0.015210472 0.00448650913
  vertex -0.157364458 -0.0174150001 0.00409199949
  endloop
 endfacet

 facet normal 0.999999404 0 -0.00111707207
  outer loop
  vertex -0.157366812 -0.0120023172 0.00198716414
  vertex -0.157364458 -0.0174150001 0.00409199949
  vertex -0.157366812 -0.0133010801 0.00198716414
  endloop
 endfacet

 facet normal -0.99999994 0 -0.000491293846
  outer loop
  vertex -0.159366131 -0.0120023172 0.00597531442
  vertex -0.159364179 -0.0120023172 0.00198716414
  vertex -0.159364179 -0.0133010801 0.00198716414
  endloop
 endfacet

 facet normal -0.99999994 -0.000215464155 -0.00042112681
  outer loop
  vertex -0.159366131 -0.0120023172 0.00597531442
  vertex -0.159364179 -0.0133010801 0.00198716414
  vertex -0.159364179 -0.0174150001 0.00409199949
  endloop
 endfacet

 facet normal -0.999999881 -0.000245121628 -0.000335890421
  outer loop
  vertex -0.159366131 -0.0120023172 0.00597531442
  vertex -0.159364179 -0.0174150001 0.00409199949
  vertex -0.159364179 -0.0199999996 0.00597844506
  endloop
 endfacet

 facet normal -0.99999994 -0.000244990195 0
  outer loop
  vertex -0.159366131 -0.0120023172 0.00597531442
  vertex -0.159364179 -0.0199999996 0.00597844506
  vertex -0.159364179 -0.0199999996 0.00928168185
  endloop
 endfacet

 facet normal -0.999999881 -2.62149024e-05 0.000529189478
  outer loop
  vertex -0.159366131 -0.0120023172 0.00597531442
  vertex -0.159364179 -0.0199999996 0.00928168185
  vertex -0.159363985 -0.0133010801 0.00998381618
  endloop
 endfacet

 facet normal 0 -1 0
  outer loop
  vertex -0.157364458 -0.0199999996 0.00928168185
  vertex -0.159364179 -0.0199999996 0.00928168185
  vertex -0.159364179 -0.0199999996 0.00597844506
  endloop
 endfacet

 facet normal 0 -1 0
  outer loop
  vertex -0.157364458 -0.0199999996 0.00928168185
  vertex -0.159364179 -0.0199999996 0.00597844506
  vertex -0.157364458 -0.0199999996 0.00597922783
  endloop
 endfacet

 facet normal 0 -0.455482423 -0.890244842
  outer loop
  vertex -0.157366812 -0.0133010801 0.00198716414
  vertex -0.157364458 -0.0174150001 0.00409199949
  vertex -0.159364179 -0.0174150001 0.00409199949
  endloop
 endfacet

 facet normal 0 -0.455482423 -0.890244842
  outer loop
  vertex -0.157366812 -0.0133010801 0.00198716414
  vertex -0.159364179 -0.0174150001 0.00409199949
  vertex -0.159364179 -0.0133010801 0.00198716414
  endloop
 endfacet

 facet normal 0.000316145481 -0.589648128 -0.807660282
  outer loop
  vertex -0.157364458 -0.0174150001 0.00409199949
  vertex -0.157364458 -0.0199999996 0.00597922783
  vertex -0.159364179 -0.0199999996 0.00597844506
  endloop
 endfacet

 facet normal 0 -0.589488566 -0.807776749
  outer loop
  vertex -0.157364458 -0.0174150001 0.00409199949
  vertex -0.159364179 -0.0199999996 0.00597844506
  vertex -0.159364179 -0.0174150001 0.00409199949
  endloop
 endfacet

endsolid AssimpScene
