solid AssimpScene
 facet normal 0 1 0
  outer loop
  vertex -0.0314234868 0.0301853996 0.0177007634
  vertex -0.0314234868 0.0301853996 0.0170051679
  vertex -0.0376442 0.0301853996 0.0170051679
  endloop
 endfacet

 facet normal 0 1 0
  outer loop
  vertex -0.0314234868 0.0301853996 0.0177007634
  vertex -0.0376442 0.0301853996 0.0170051679
  vertex -0.0376442 0.0301853996 0.0187718142
  endloop
 endfacet

 facet normal 0 1 0
  outer loop
  vertex -0.0314234868 0.0301853996 0.0177007634
  vertex -0.0376442 0.0301853996 0.0187718142
  vertex -0.0322732702 0.0301853996 0.0182475485
  endloop
 endfacet

 facet normal 0 1 0
  outer loop
  vertex -0.0314234868 0.0301853996 0.0177007634
  vertex -0.0322732702 0.0301853996 0.0182475485
  vertex -0.0321960188 0.0301853996 0.0182382464
  endloop
 endfacet

 facet normal 0 1 0
  outer loop
  vertex -0.0314234868 0.0301853996 0.0177007634
  vertex -0.0321960188 0.0301853996 0.0182382464
  vertex -0.0321224444 0.0301853996 0.018225519
  endloop
 endfacet

 facet normal 0 1 0
  outer loop
  vertex -0.0314234868 0.0301853996 0.0177007634
  vertex -0.0321224444 0.0301853996 0.018225519
  vertex -0.0320488699 0.0301853996 0.0182093661
  endloop
 endfacet

 facet normal 0 1 0
  outer loop
  vertex -0.0314234868 0.0301853996 0.0177007634
  vertex -0.0320488699 0.0301853996 0.0182093661
  vertex -0.031978976 0.0301853996 0.018189786
  endloop
 endfacet

 facet normal 0 1 0
  outer loop
  vertex -0.0314234868 0.0301853996 0.0177007634
  vertex -0.031978976 0.0301853996 0.018189786
  vertex -0.0319164358 0.0301853996 0.0181692261
  endloop
 endfacet

 facet normal 0 1 0
  outer loop
  vertex -0.0314234868 0.0301853996 0.0177007634
  vertex -0.0319164358 0.0301853996 0.0181692261
  vertex -0.0318428613 0.0301853996 0.0181413237
  endloop
 endfacet

 facet normal 0 1 0
  outer loop
  vertex -0.0314234868 0.0301853996 0.0177007634
  vertex -0.0318428613 0.0301853996 0.0181413237
  vertex -0.0317803249 0.0301853996 0.0181119535
  endloop
 endfacet

 facet normal 0 1 0
  outer loop
  vertex -0.0314234868 0.0301853996 0.0177007634
  vertex -0.0317803249 0.0301853996 0.0181119535
  vertex -0.0317214653 0.0301853996 0.0180811137
  endloop
 endfacet

 facet normal 0 1 0
  outer loop
  vertex -0.0314234868 0.0301853996 0.0177007634
  vertex -0.0317214653 0.0301853996 0.0180811137
  vertex -0.0316442102 0.0301853996 0.0180316735
  endloop
 endfacet

 facet normal 0 1 0
  outer loop
  vertex -0.0314234868 0.0301853996 0.0177007634
  vertex -0.0316442102 0.0301853996 0.0180316735
  vertex -0.0315963849 0.0301853996 0.0179920234
  endloop
 endfacet

 facet normal 0 1 0
  outer loop
  vertex -0.0314234868 0.0301853996 0.0177007634
  vertex -0.0315963849 0.0301853996 0.0179920234
  vertex -0.0315743126 0.0301853996 0.0179734211
  endloop
 endfacet

 facet normal 0 1 0
  outer loop
  vertex -0.0314234868 0.0301853996 0.0177007634
  vertex -0.0315743126 0.0301853996 0.0179734211
  vertex -0.0315522403 0.0301853996 0.0179528613
  endloop
 endfacet

 facet normal 0 1 0
  outer loop
  vertex -0.0314234868 0.0301853996 0.0177007634
  vertex -0.0315522403 0.0301853996 0.0179528613
  vertex -0.0315338485 0.0301853996 0.017933771
  endloop
 endfacet

 facet normal 0 1 0
  outer loop
  vertex -0.0314234868 0.0301853996 0.0177007634
  vertex -0.0315338485 0.0301853996 0.017933771
  vertex -0.0315007418 0.0301853996 0.017893631
  endloop
 endfacet

 facet normal 0 1 0
  outer loop
  vertex -0.0314234868 0.0301853996 0.0177007634
  vertex -0.0315007418 0.0301853996 0.017893631
  vertex -0.0314713083 0.0301853996 0.0178510435
  endloop
 endfacet

 facet normal 0 1 0
  outer loop
  vertex -0.0314234868 0.0301853996 0.0177007634
  vertex -0.0314713083 0.0301853996 0.0178510435
  vertex -0.031460274 0.0301853996 0.0178299956
  endloop
 endfacet

 facet normal 0 1 0
  outer loop
  vertex -0.0314234868 0.0301853996 0.0177007634
  vertex -0.031460274 0.0301853996 0.0178299956
  vertex -0.0314418823 0.0301853996 0.0177869163
  endloop
 endfacet

 facet normal 0 1 0
  outer loop
  vertex -0.0314234868 0.0301853996 0.0177007634
  vertex -0.0314418823 0.0301853996 0.0177869163
  vertex -0.0314308442 0.0301853996 0.0177433509
  endloop
 endfacet

 facet normal 0 1 0
  outer loop
  vertex -0.0314234868 0.0301853996 0.0177007634
  vertex -0.0314308442 0.0301853996 0.0177433509
  vertex -0.0314271636 0.0301853996 0.0177242607
  endloop
 endfacet

 facet normal 0.571894705 0.815432727 0.0894754156
  outer loop
  vertex -0.0314234868 0.0301853996 0.0177007634
  vertex -0.0314271636 0.0301853996 0.0177242607
  vertex -0.0299556777 0.0291692875 0.0175793655
  endloop
 endfacet

 facet normal 0.571891129 0.815517843 0.0887204036
  outer loop
  vertex -0.0314234868 0.0301853996 0.0177007634
  vertex -0.0299556777 0.0291692875 0.0175793655
  vertex -0.0299520008 0.0291736852 0.0175152384
  endloop
 endfacet

 facet normal 0.56655401 0.824024618 0
  outer loop
  vertex -0.0314234868 0.0301853996 0.0177007634
  vertex -0.0299520008 0.0291736852 0.0175152384
  vertex -0.0299520008 0.0291736852 0.0170051679
  endloop
 endfacet

 facet normal 0.56655401 0.824024618 0
  outer loop
  vertex -0.0314234868 0.0301853996 0.0177007634
  vertex -0.0299520008 0.0291736852 0.0170051679
  vertex -0.0314234868 0.0301853996 0.0170051679
  endloop
 endfacet

 facet normal 0.56563282 0.822684705 -0.0570047162
  outer loop
  vertex -0.0314234868 0.0301853996 0.0170051679
  vertex -0.0299520008 0.0291736852 0.0170051679
  vertex -0.0299814288 0.0290549193 0.0149991494
  endloop
 endfacet

 facet normal 0 0.871186614 -0.490952104
  outer loop
  vertex -0.0314234868 0.0301853996 0.0170051679
  vertex -0.0299814288 0.0290549193 0.0149991494
  vertex -0.0334725343 0.0290549193 0.0149991494
  endloop
 endfacet

 facet normal 0 0.871186614 -0.490952104
  outer loop
  vertex -0.0314234868 0.0301853996 0.0170051679
  vertex -0.0334725343 0.0290549193 0.0149991494
  vertex -0.0376442 0.0301853996 0.0170051679
  endloop
 endfacet

 facet normal 0.572087288 0.812745512 0.110276237
  outer loop
  vertex -0.0314271636 0.0301853996 0.0177242607
  vertex -0.0314308442 0.0301853996 0.0177433509
  vertex -0.0299556777 0.0291692875 0.0175793655
  endloop
 endfacet

 facet normal 0.727881849 0.654304087 0.205120355
  outer loop
  vertex -0.0299556777 0.0291692875 0.0175793655
  vertex -0.0299593564 0.0291538928 0.0176415332
  vertex -0.0299593564 0.0291472934 0.0176625811
  endloop
 endfacet

 facet normal 0.727881849 0.654304087 0.205120355
  outer loop
  vertex -0.0299556777 0.0291692875 0.0175793655
  vertex -0.0299593564 0.0291472934 0.0176625811
  vertex -0.0299556777 0.0291626882 0.0176004134
  endloop
 endfacet

 facet normal 0.971205175 0.227335125 0.0712681785
  outer loop
  vertex -0.0299556777 0.0291692875 0.0175793655
  vertex -0.0299556777 0.0291626882 0.0176004134
  vertex -0.0299520008 0.0291736852 0.0175152384
  endloop
 endfacet

 facet normal 0.572148979 0.807241559 0.144936353
  outer loop
  vertex -0.0299556777 0.0291692875 0.0175793655
  vertex -0.0314308442 0.0301853996 0.0177433509
  vertex -0.0314418823 0.0301853996 0.0177869163
  endloop
 endfacet

 facet normal 0.570986927 0.788364351 0.229031965
  outer loop
  vertex -0.0299556777 0.0291692875 0.0175793655
  vertex -0.0314418823 0.0301853996 0.0177869163
  vertex -0.0299593564 0.0291538928 0.0176415332
  endloop
 endfacet

 facet normal 0.990651846 -0.134018868 0.0254527684
  outer loop
  vertex -0.0299520008 0.0291736852 0.0175152384
  vertex -0.0299556777 0.0291626882 0.0176004134
  vertex -0.0299593564 0.0291472934 0.0176625811
  endloop
 endfacet

 facet normal 0.986444175 -0.162864611 0.0200757738
  outer loop
  vertex -0.0299520008 0.0291736852 0.0175152384
  vertex -0.0299593564 0.0291472934 0.0176625811
  vertex -0.0299703926 0.0290945079 0.0177766383
  endloop
 endfacet

 facet normal 0.975349963 -0.220656902 0.0017900056
  outer loop
  vertex -0.0299520008 0.0291736852 0.0175152384
  vertex -0.0299703926 0.0290945079 0.0177766383
  vertex -0.0335976109 0.0130632455 0.0179988761
  endloop
 endfacet

 facet normal 0.975341976 -0.220698714 0.000336878584
  outer loop
  vertex -0.0299520008 0.0291736852 0.0175152384
  vertex -0.0335976109 0.0130632455 0.0179988761
  vertex -0.0321886614 0.0192852858 0.0149991494
  endloop
 endfacet

 facet normal 0.975360513 -0.220617175 0
  outer loop
  vertex -0.0299520008 0.0291736852 0.0175152384
  vertex -0.0321886614 0.0192852858 0.0149991494
  vertex -0.0299520008 0.0291736852 0.0170051679
  endloop
 endfacet

 facet normal 0.975414872 -0.220373422 -0.00126224675
  outer loop
  vertex -0.0299520008 0.0291736852 0.0170051679
  vertex -0.0321886614 0.0192852858 0.0149991494
  vertex -0.0299814288 0.0290549193 0.0149991494
  endloop
 endfacet

 facet normal 0 0 -1
  outer loop
  vertex -0.0299814288 0.0290549193 0.0149991494
  vertex -0.0321886614 0.0192852858 0.0149991494
  vertex -0.0337042958 0.0125991777 0.0149991494
  endloop
 endfacet

 facet normal 0 0 -1
  outer loop
  vertex -0.0299814288 0.0290549193 0.0149991494
  vertex -0.0337042958 0.0125991777 0.0149991494
  vertex -0.0393474475 0.014486243 0.0149991494
  endloop
 endfacet

 facet normal 0 0 -1
  outer loop
  vertex -0.0299814288 0.0290549193 0.0149991494
  vertex -0.0393474475 0.014486243 0.0149991494
  vertex -0.0393474475 0.0159686245 0.0149991494
  endloop
 endfacet

 facet normal 0 0 -1
  outer loop
  vertex -0.0299814288 0.0290549193 0.0149991494
  vertex -0.0393474475 0.0159686245 0.0149991494
  vertex -0.0334725343 0.0290549193 0.0149991494
  endloop
 endfacet

 facet normal -0.000962262216 0.870329022 -0.492469877
  outer loop
  vertex -0.0376442 0.0301853996 0.0170051679
  vertex -0.0334725343 0.0290549193 0.0149991494
  vertex -0.0401346944 0.0301831998 0.0170061477
  endloop
 endfacet

 facet normal -0.000886577414 0.999958396 -0.00908715092
  outer loop
  vertex -0.0376442 0.0301853996 0.0170051679
  vertex -0.0401346944 0.0301831998 0.0170061477
  vertex -0.0438575596 0.0301831998 0.0173693635
  endloop
 endfacet

 facet normal -0.000882580818 0.999958932 -0.00901896413
  outer loop
  vertex -0.0376442 0.0301853996 0.0170051679
  vertex -0.0438575596 0.0301831998 0.0173693635
  vertex -0.0448029898 0.0301831998 0.0174618829
  endloop
 endfacet

 facet normal -0.000307203329 0.99999994 0
  outer loop
  vertex -0.0376442 0.0301853996 0.0170051679
  vertex -0.0448029898 0.0301831998 0.0174618829
  vertex -0.0448029898 0.0301831998 0.0194688793
  endloop
 endfacet

 facet normal -0.000307203329 0.99999994 0
  outer loop
  vertex -0.0376442 0.0301853996 0.0170051679
  vertex -0.0448029898 0.0301831998 0.0194688793
  vertex -0.0376442 0.0301853996 0.0187718142
  endloop
 endfacet

 facet normal 0.569933116 0.784833789 0.243335813
  outer loop
  vertex -0.0299593564 0.0291538928 0.0176415332
  vertex -0.0314418823 0.0301853996 0.0177869163
  vertex -0.031460274 0.0301853996 0.0178299956
  endloop
 endfacet

 facet normal 0.569785535 0.784163237 0.245830402
  outer loop
  vertex -0.0299593564 0.0291538928 0.0176415332
  vertex -0.031460274 0.0301853996 0.0178299956
  vertex -0.0299593564 0.0291472934 0.0176625811
  endloop
 endfacet

 facet normal 0.996078968 -0.0175153203 0.0867175087
  outer loop
  vertex -0.0299593564 0.0291472934 0.0176625811
  vertex -0.029963037 0.0291318987 0.0177017432
  vertex -0.0299667139 0.0291143022 0.0177404135
  endloop
 endfacet

 facet normal 0.995905221 -0.0575234778 0.0697427467
  outer loop
  vertex -0.0299593564 0.0291472934 0.0176625811
  vertex -0.0299667139 0.0291143022 0.0177404135
  vertex -0.0299703926 0.0290945079 0.0177766383
  endloop
 endfacet

 facet normal 0.565418422 0.769684315 0.296459526
  outer loop
  vertex -0.0299593564 0.0291472934 0.0176625811
  vertex -0.031460274 0.0301853996 0.0178299956
  vertex -0.0314713083 0.0301853996 0.0178510435
  endloop
 endfacet

 facet normal 0.559710741 0.751974225 0.348222196
  outer loop
  vertex -0.0299593564 0.0291472934 0.0176625811
  vertex -0.0314713083 0.0301853996 0.0178510435
  vertex -0.029963037 0.0291318987 0.0177017432
  endloop
 endfacet

 facet normal 0.981166422 -0.0205390137 0.192069829
  outer loop
  vertex -0.0299703926 0.0290945079 0.0177766383
  vertex -0.0299740732 0.0290835109 0.0177942608
  vertex -0.02997775 0.0290681161 0.0178113934
  endloop
 endfacet

 facet normal 0.985823095 -0.118998677 0.11828807
  outer loop
  vertex -0.0299703926 0.0290945079 0.0177766383
  vertex -0.02997775 0.0290681161 0.0178113934
  vertex -0.0299961455 0.0289911367 0.0178872664
  endloop
 endfacet

 facet normal 0.985721052 -0.125912055 0.111804537
  outer loop
  vertex -0.0299703926 0.0290945079 0.0177766383
  vertex -0.0299961455 0.0289911367 0.0178872664
  vertex -0.0300108586 0.0289185569 0.0179352388
  endloop
 endfacet

 facet normal 0.975350142 -0.220625132 0.00408515288
  outer loop
  vertex -0.0299703926 0.0290945079 0.0177766383
  vertex -0.0300108586 0.0289185569 0.0179352388
  vertex -0.0335976109 0.0130632455 0.0179988761
  endloop
 endfacet

 facet normal 0.542207658 0.712944031 0.444659203
  outer loop
  vertex -0.0299703926 0.0290945079 0.0177766383
  vertex -0.0299667139 0.0291143022 0.0177404135
  vertex -0.0315007418 0.0301853996 0.017893631
  endloop
 endfacet

 facet normal 0.54169333 0.711992264 0.446805805
  outer loop
  vertex -0.0299703926 0.0290945079 0.0177766383
  vertex -0.0315007418 0.0301853996 0.017893631
  vertex -0.0315338485 0.0301853996 0.017933771
  endloop
 endfacet

 facet normal 0.526778221 0.681874275 0.507495999
  outer loop
  vertex -0.0299703926 0.0290945079 0.0177766383
  vertex -0.0315338485 0.0301853996 0.017933771
  vertex -0.0315522403 0.0301853996 0.0179528613
  endloop
 endfacet

 facet normal 0.52136302 0.670797288 0.527457714
  outer loop
  vertex -0.0299703926 0.0290945079 0.0177766383
  vertex -0.0315522403 0.0301853996 0.0179528613
  vertex -0.0299740732 0.0290835109 0.0177942608
  endloop
 endfacet

 facet normal 0.17690447 -0.138039827 0.974499822
  outer loop
  vertex -0.0335976109 0.0130632455 0.0179988761
  vertex -0.0336049683 0.0130434521 0.0179974083
  vertex -0.0336086452 0.0130214579 0.0179949589
  endloop
 endfacet

 facet normal 0.690223694 -0.246054649 0.680476606
  outer loop
  vertex -0.0335976109 0.0130632455 0.0179988761
  vertex -0.0336086452 0.0130214579 0.0179949589
  vertex -0.0336123258 0.0130016645 0.0179915335
  endloop
 endfacet

 facet normal 0.952322841 -0.248628721 0.176819265
  outer loop
  vertex -0.0335976109 0.0130632455 0.0179988761
  vertex -0.0336123258 0.0130016645 0.0179915335
  vertex -0.0348079093 0.00771656074 0.016999295
  endloop
 endfacet

 facet normal 0.975319266 -0.220799297 0.000117579177
  outer loop
  vertex -0.0335976109 0.0130632455 0.0179988761
  vertex -0.0348079093 0.00771656074 0.016999295
  vertex -0.0321886614 0.0192852858 0.0149991494
  endloop
 endfacet

 facet normal 0.975323915 -0.220599934 0.0088845063
  outer loop
  vertex -0.0335976109 0.0130632455 0.0179988761
  vertex -0.0300108586 0.0289185569 0.0179352388
  vertex -0.030058682 0.0287096184 0.0179974083
  endloop
 endfacet

 facet normal 0.857361495 -0.193875045 0.476805806
  outer loop
  vertex -0.0335976109 0.0130632455 0.0179988761
  vertex -0.030058682 0.0287096184 0.0179974083
  vertex -0.0300697181 0.0286656301 0.0179993659
  endloop
 endfacet

 facet normal 0.352533668 -0.0797415227 0.932395458
  outer loop
  vertex -0.0335976109 0.0130632455 0.0179988761
  vertex -0.0300697181 0.0286656301 0.0179993659
  vertex -0.033593934 0.0130852396 0.0179993659
  endloop
 endfacet

 facet normal 0.0935053602 -0.0378176458 0.994900227
  outer loop
  vertex -0.0335976109 0.0130632455 0.0179988761
  vertex -0.033593934 0.0130852396 0.0179993659
  vertex -0.0530911423 0.0174971912 0.0199995097
  endloop
 endfacet

 facet normal 0.0868586674 -0.0666286424 0.993990064
  outer loop
  vertex -0.0335976109 0.0130632455 0.0179988761
  vertex -0.0530911423 0.0174971912 0.0199995097
  vertex -0.0530985035 0.0174729973 0.0199985318
  endloop
 endfacet

 facet normal 0.0784553364 -0.102711916 0.991612375
  outer loop
  vertex -0.0335976109 0.0130632455 0.0179988761
  vertex -0.0530985035 0.0174729973 0.0199985318
  vertex -0.0336049683 0.0130434521 0.0179974083
  endloop
 endfacet

 facet normal 0.975314856 -0.220818624 0
  outer loop
  vertex -0.0321886614 0.0192852858 0.0149991494
  vertex -0.0348079093 0.00771656074 0.016999295
  vertex -0.0348079093 0.00771656074 0.0150006181
  endloop
 endfacet

 facet normal 0.41584748 -0.0942658633 -0.904535711
  outer loop
  vertex -0.0321886614 0.0192852858 0.0149991494
  vertex -0.0348079093 0.00771656074 0.0150006181
  vertex -0.0337042958 0.0125991777 0.0149991494
  endloop
 endfacet

 facet normal -1.589987e-05 7.13802865e-06 -1
  outer loop
  vertex -0.0334725343 0.0290549193 0.0149991494
  vertex -0.0393474475 0.0159686245 0.0149991494
  vertex -0.0675337985 0.0218783505 0.0149996402
  endloop
 endfacet

 facet normal -0.0550535917 0.261228204 -0.963705897
  outer loop
  vertex -0.0334725343 0.0290549193 0.0149991494
  vertex -0.0675337985 0.0218783505 0.0149996402
  vertex -0.0564056709 0.0294552054 0.0164177548
  endloop
 endfacet

 facet normal -0.0184007436 0.844221115 -0.535679221
  outer loop
  vertex -0.0334725343 0.0290549193 0.0149991494
  vertex -0.0564056709 0.0294552054 0.0164177548
  vertex -0.0401346944 0.0301831998 0.0170061477
  endloop
 endfacet

 facet normal 0.0971274003 -0.0216557737 0.995036304
  outer loop
  vertex -0.0376442 0.0301853996 0.0187718142
  vertex -0.0312027652 0.0273394044 0.0180811137
  vertex -0.0322732702 0.0301853996 0.0182475485
  endloop
 endfacet

 facet normal 0.0968994424 -0.0204481818 0.995084167
  outer loop
  vertex -0.0376442 0.0301853996 0.0187718142
  vertex -0.0448029898 0.0301831998 0.0194688793
  vertex -0.0505932942 0.0285666585 0.0199995097
  endloop
 endfacet

 facet normal 0.0970641673 -0.0217996687 0.995039403
  outer loop
  vertex -0.0376442 0.0301853996 0.0187718142
  vertex -0.0505932942 0.0285666585 0.0199995097
  vertex -0.0312027652 0.0273394044 0.0180811137
  endloop
 endfacet

 facet normal -0.0309412684 0.947874308 -0.317138731
  outer loop
  vertex -0.0401346944 0.0301831998 0.0170061477
  vertex -0.0564056709 0.0294552054 0.0164177548
  vertex -0.0438575596 0.0301831998 0.0173693635
  endloop
 endfacet

 facet normal -0.0309872888 0.948034644 -0.316654563
  outer loop
  vertex -0.0438575596 0.0301831998 0.0173693635
  vertex -0.0564056709 0.0294552054 0.0164177548
  vertex -0.0448029898 0.0301831998 0.0174618829
  endloop
 endfacet

 facet normal -0.0626204759 0.998037457 0
  outer loop
  vertex -0.0448029898 0.0301831998 0.0174618829
  vertex -0.0564056709 0.0294552054 0.0164177548
  vertex -0.0564056709 0.0294552054 0.0170061477
  endloop
 endfacet

 facet normal -0.0626204759 0.998037457 0
  outer loop
  vertex -0.0448029898 0.0301831998 0.0174618829
  vertex -0.0564056709 0.0294552054 0.0170061477
  vertex -0.0448029898 0.0301831998 0.0194688793
  endloop
 endfacet

 facet normal 0.559512138 0.751499832 0.349563003
  outer loop
  vertex -0.029963037 0.0291318987 0.0177017432
  vertex -0.0314713083 0.0301853996 0.0178510435
  vertex -0.0299667139 0.0291252993 0.0177218113
  endloop
 endfacet

 facet normal 0.776722312 0.542183995 0.320529282
  outer loop
  vertex -0.029963037 0.0291318987 0.0177017432
  vertex -0.0299667139 0.0291252993 0.0177218113
  vertex -0.0299667139 0.0291143022 0.0177404135
  endloop
 endfacet

 facet normal 0.546093643 0.721132874 0.426320553
  outer loop
  vertex -0.0299667139 0.0291143022 0.0177404135
  vertex -0.0299667139 0.0291252993 0.0177218113
  vertex -0.0315007418 0.0301853996 0.017893631
  endloop
 endfacet

 facet normal 0.553851008 0.739416957 0.382768482
  outer loop
  vertex -0.0314713083 0.0301853996 0.0178510435
  vertex -0.0315007418 0.0301853996 0.017893631
  vertex -0.0299667139 0.0291252993 0.0177218113
  endloop
 endfacet

 facet normal 0.514000058 0.65674752 0.551803112
  outer loop
  vertex -0.0299740732 0.0290835109 0.0177942608
  vertex -0.0315522403 0.0301853996 0.0179528613
  vertex -0.0315743126 0.0301853996 0.0179734211
  endloop
 endfacet

 facet normal 0.500374258 0.630137086 0.593761683
  outer loop
  vertex -0.0299740732 0.0290835109 0.0177942608
  vertex -0.0315743126 0.0301853996 0.0179734211
  vertex -0.0315963849 0.0301853996 0.0179920234
  endloop
 endfacet

 facet normal 0.498020113 0.625429749 0.600677669
  outer loop
  vertex -0.0299740732 0.0290835109 0.0177942608
  vertex -0.0315963849 0.0301853996 0.0179920234
  vertex -0.0316442102 0.0301853996 0.0180316735
  endloop
 endfacet

 facet normal 0.484485447 0.596457422 0.63993156
  outer loop
  vertex -0.0299740732 0.0290835109 0.0177942608
  vertex -0.0316442102 0.0301853996 0.0180316735
  vertex -0.02997775 0.0290681161 0.0178113934
  endloop
 endfacet

 facet normal 0.985190094 -0.0940571353 0.143366486
  outer loop
  vertex -0.02997775 0.0290681161 0.0178113934
  vertex -0.0299851093 0.0290395226 0.0178432111
  vertex -0.0299924649 0.0290087331 0.017873561
  endloop
 endfacet

 facet normal 0.985240459 -0.0952902287 0.142200559
  outer loop
  vertex -0.02997775 0.0290681161 0.0178113934
  vertex -0.0299924649 0.0290087331 0.017873561
  vertex -0.0299961455 0.0289911367 0.0178872664
  endloop
 endfacet

 facet normal 0.482736796 0.592949271 0.644497037
  outer loop
  vertex -0.02997775 0.0290681161 0.0178113934
  vertex -0.0316442102 0.0301853996 0.0180316735
  vertex -0.0299851093 0.0290395226 0.0178432111
  endloop
 endfacet

 facet normal 0.980466843 -0.0799774751 0.179689646
  outer loop
  vertex -0.0299961455 0.0289911367 0.0178872664
  vertex -0.0300035011 0.0289559476 0.0179117434
  vertex -0.0300108586 0.0289185569 0.0179352388
  endloop
 endfacet

 facet normal 0.429082215 0.497513622 0.753902316
  outer loop
  vertex -0.0299961455 0.0289911367 0.0178872664
  vertex -0.0299924649 0.0290087331 0.017873561
  vertex -0.0317214653 0.0301853996 0.0180811137
  endloop
 endfacet

 facet normal 0.410619199 0.46599865 0.783732831
  outer loop
  vertex -0.0299961455 0.0289911367 0.0178872664
  vertex -0.0317214653 0.0301853996 0.0180811137
  vertex -0.0317803249 0.0301853996 0.0181119535
  endloop
 endfacet

 facet normal 0.408454955 0.462122142 0.787151635
  outer loop
  vertex -0.0299961455 0.0289911367 0.0178872664
  vertex -0.0317803249 0.0301853996 0.0181119535
  vertex -0.0300035011 0.0289559476 0.0179117434
  endloop
 endfacet

 facet normal 0.674694777 0.167850792 0.718758047
  outer loop
  vertex -0.0300108586 0.0289185569 0.0179352388
  vertex -0.0300218947 0.028881168 0.0179543309
  vertex -0.030029254 0.0288415793 0.0179704838
  endloop
 endfacet

 facet normal 0.976770103 -0.205286384 0.0614643209
  outer loop
  vertex -0.0300108586 0.0289185569 0.0179352388
  vertex -0.030029254 0.0288415793 0.0179704838
  vertex -0.030058682 0.0287096184 0.0179974083
  endloop
 endfacet

 facet normal 0.391261667 0.433240473 0.811921835
  outer loop
  vertex -0.0300108586 0.0289185569 0.0179352388
  vertex -0.0300035011 0.0289559476 0.0179117434
  vertex -0.0317803249 0.0301853996 0.0181119535
  endloop
 endfacet

 facet normal 0.385098428 0.423510373 0.819962382
  outer loop
  vertex -0.0300108586 0.0289185569 0.0179352388
  vertex -0.0317803249 0.0301853996 0.0181119535
  vertex -0.0318428613 0.0301853996 0.0181413237
  endloop
 endfacet

 facet normal 0.338249117 0.346838504 0.874808908
  outer loop
  vertex -0.0300108586 0.0289185569 0.0179352388
  vertex -0.0318428613 0.0301853996 0.0181413237
  vertex -0.0300218947 0.028881168 0.0179543309
  endloop
 endfacet

 facet normal 0.077248022 -0.107822627 0.991164446
  outer loop
  vertex -0.0336049683 0.0130434521 0.0179974083
  vertex -0.0530985035 0.0174729973 0.0199985318
  vertex -0.0396969281 0.0143982694 0.0186195765
  endloop
 endfacet

 facet normal 0.0738367438 -0.122497536 0.989718497
  outer loop
  vertex -0.0336049683 0.0130434521 0.0179974083
  vertex -0.0396969281 0.0143982694 0.0186195765
  vertex -0.0336086452 0.0130214579 0.0179949589
  endloop
 endfacet

 facet normal 0.0597703531 -0.181042314 0.981657445
  outer loop
  vertex -0.0336086452 0.0130214579 0.0179949589
  vertex -0.0396969281 0.0143982694 0.0186195765
  vertex -0.0336123258 0.0130016645 0.0179915335
  endloop
 endfacet

 facet normal 0.0567174964 -0.193366215 0.979485929
  outer loop
  vertex -0.0336123258 0.0130016645 0.0179915335
  vertex -0.0396969281 0.0143982694 0.0186195765
  vertex -0.0336196832 0.0129796704 0.0179876164
  endloop
 endfacet

 facet normal 0.0873177871 -0.202859491 0.975306928
  outer loop
  vertex -0.0336123258 0.0130016645 0.0179915335
  vertex -0.0336196832 0.0129796704 0.0179876164
  vertex -0.0348079093 0.00771656074 0.016999295
  endloop
 endfacet

 facet normal 0.0559499413 -0.1964553 0.978915274
  outer loop
  vertex -0.0348079093 0.00771656074 0.016999295
  vertex -0.0336196832 0.0129796704 0.0179876164
  vertex -0.0481432676 0.0162853338 0.0194811169
  endloop
 endfacet

 facet normal 0.0558958203 -0.196535751 0.978902221
  outer loop
  vertex -0.0348079093 0.00771656074 0.016999295
  vertex -0.0481432676 0.0162853338 0.0194811169
  vertex -0.0531168953 0.0173894223 0.0199867822
  endloop
 endfacet

 facet normal 0.0183756556 -0.263132632 0.964584589
  outer loop
  vertex -0.0348079093 0.00771656074 0.016999295
  vertex -0.0531168953 0.0173894223 0.0199867822
  vertex -0.0531242527 0.0173476338 0.0199755225
  endloop
 endfacet

 facet normal -0.0409835614 -0.36532709 0.929976583
  outer loop
  vertex -0.0348079093 0.00771656074 0.016999295
  vertex -0.0531242527 0.0173476338 0.0199755225
  vertex -0.053135287 0.017310245 0.0199603494
  endloop
 endfacet

 facet normal -0.0549924634 -0.388898194 0.919638038
  outer loop
  vertex -0.0348079093 0.00771656074 0.016999295
  vertex -0.053135287 0.017310245 0.0199603494
  vertex -0.053135287 0.0172882508 0.0199510474
  endloop
 endfacet

 facet normal -0.100054622 -0.463147014 0.880615652
  outer loop
  vertex -0.0348079093 0.00771656074 0.016999295
  vertex -0.053135287 0.0172882508 0.0199510474
  vertex -0.0531463251 0.0172310658 0.0199197195
  endloop
 endfacet

 facet normal -0.107245788 -0.474829137 0.873519123
  outer loop
  vertex -0.0348079093 0.00771656074 0.016999295
  vertex -0.0531463251 0.0172310658 0.0199197195
  vertex -0.0393474475 0.00874366984 0.0170002729
  endloop
 endfacet

 facet normal -0.220680296 -0.975346208 0
  outer loop
  vertex -0.0348079093 0.00771656074 0.016999295
  vertex -0.0393474475 0.00874366984 0.0170002729
  vertex -0.0393474475 0.00874366984 0.0150011079
  endloop
 endfacet

 facet normal -0.220680296 -0.975346208 0
  outer loop
  vertex -0.0348079093 0.00771656074 0.016999295
  vertex -0.0393474475 0.00874366984 0.0150011079
  vertex -0.0348079093 0.00771656074 0.0150006181
  endloop
 endfacet

 facet normal 0.91804564 -0.128185987 0.3751809
  outer loop
  vertex -0.030058682 0.0287096184 0.0179974083
  vertex -0.030029254 0.0288415793 0.0179704838
  vertex -0.0300402902 0.0287997909 0.0179832112
  endloop
 endfacet

 facet normal 0.674331546 -0.0213421863 0.738120258
  outer loop
  vertex -0.030058682 0.0287096184 0.0179974083
  vertex -0.0300402902 0.0287997909 0.0179832112
  vertex -0.0300513264 0.0287558045 0.0179920234
  endloop
 endfacet

 facet normal 0.170847386 0.0872163177 0.981429815
  outer loop
  vertex -0.030058682 0.0287096184 0.0179974083
  vertex -0.0300513264 0.0287558045 0.0179920234
  vertex -0.0321224444 0.0301853996 0.018225519
  endloop
 endfacet

 facet normal 0.169830397 0.0857468992 0.981735706
  outer loop
  vertex -0.030058682 0.0287096184 0.0179974083
  vertex -0.0321224444 0.0301853996 0.018225519
  vertex -0.0321960188 0.0301853996 0.0182382464
  endloop
 endfacet

 facet normal 0.121331654 0.0137480078 0.992516875
  outer loop
  vertex -0.030058682 0.0287096184 0.0179974083
  vertex -0.0321960188 0.0301853996 0.0182382464
  vertex -0.0300697181 0.0286656301 0.0179993659
  endloop
 endfacet

 facet normal 0.119524121 0.0111795655 0.992768407
  outer loop
  vertex -0.0300697181 0.0286656301 0.0179993659
  vertex -0.0321960188 0.0301853996 0.0182382464
  vertex -0.0322732702 0.0301853996 0.0182475485
  endloop
 endfacet

 facet normal 0.0971353278 -0.0216527451 0.995035589
  outer loop
  vertex -0.0300697181 0.0286656301 0.0179993659
  vertex -0.0322732702 0.0301853996 0.0182475485
  vertex -0.0312027652 0.0273394044 0.0180811137
  endloop
 endfacet

 facet normal 0.0976371616 -0.0220850892 0.994976997
  outer loop
  vertex -0.0300697181 0.0286656301 0.0179993659
  vertex -0.0312027652 0.0273394044 0.0180811137
  vertex -0.033593934 0.0130852396 0.0179993659
  endloop
 endfacet

 facet normal 0.097099252 -0.0219951626 0.995031595
  outer loop
  vertex -0.033593934 0.0130852396 0.0179993659
  vertex -0.0312027652 0.0273394044 0.0180811137
  vertex -0.0530911423 0.0174971912 0.0199995097
  endloop
 endfacet

 facet normal 0 0 1
  outer loop
  vertex -0.0530911423 0.0174971912 0.0199995097
  vertex -0.0505932942 0.0285666585 0.0199995097
  vertex -0.0518072695 0.0232045762 0.0199995097
  endloop
 endfacet

 facet normal -0.190651819 0.0428870246 0.98072046
  outer loop
  vertex -0.0530911423 0.0174971912 0.0199995097
  vertex -0.0518072695 0.0232045762 0.0199995097
  vertex -0.0675337985 0.0218783505 0.0170002729
  endloop
 endfacet

 facet normal -0.197356671 0.0203732885 0.980120063
  outer loop
  vertex -0.0530911423 0.0174971912 0.0199995097
  vertex -0.0675337985 0.0218783505 0.0170002729
  vertex -0.0530985035 0.0174729973 0.0199985318
  endloop
 endfacet

 facet normal 0.0970575586 -0.0219012536 0.995037735
  outer loop
  vertex -0.0530911423 0.0174971912 0.0199995097
  vertex -0.0312027652 0.0273394044 0.0180811137
  vertex -0.0505932942 0.0285666585 0.0199995097
  endloop
 endfacet

 facet normal -0.203363001 0 0.979103446
  outer loop
  vertex -0.0530985035 0.0174729973 0.0199985318
  vertex -0.0675337985 0.0218783505 0.0170002729
  vertex -0.0675337985 0.0151218642 0.0170002729
  endloop
 endfacet

 facet normal -0.19976151 -0.0227212235 0.979581058
  outer loop
  vertex -0.0530985035 0.0174729973 0.0199985318
  vertex -0.0675337985 0.0151218642 0.0170002729
  vertex -0.0531058609 0.0174532048 0.0199965723
  endloop
 endfacet

 facet normal -0.000277863524 -0.0984075367 0.995146215
  outer loop
  vertex -0.0530985035 0.0174729973 0.0199985318
  vertex -0.0531058609 0.0174532048 0.0199965723
  vertex -0.0531058609 0.0174334086 0.0199946146
  endloop
 endfacet

 facet normal 0.0762051344 -0.112187169 0.990760744
  outer loop
  vertex -0.0530985035 0.0174729973 0.0199985318
  vertex -0.0531058609 0.0174334086 0.0199946146
  vertex -0.0396969281 0.0143982694 0.0186195765
  endloop
 endfacet

 facet normal -0.213868067 -0.945120156 -0.246999219
  outer loop
  vertex -0.0348079093 0.00771656074 0.0150006181
  vertex -0.0393474475 0.00874366984 0.0150011079
  vertex -0.0675337985 0.0151218642 0.0150011079
  endloop
 endfacet

 facet normal -0.0023821746 -0.0104613453 -0.999942482
  outer loop
  vertex -0.0348079093 0.00771656074 0.0150006181
  vertex -0.0675337985 0.0151218642 0.0150011079
  vertex -0.0393474475 0.00875026826 0.0150006181
  endloop
 endfacet

 facet normal -6.51597802e-05 -0.000286149909 -0.99999994
  outer loop
  vertex -0.0348079093 0.00771656074 0.0150006181
  vertex -0.0393474475 0.00875026826 0.0150006181
  vertex -0.0337042958 0.0125991777 0.0149991494
  endloop
 endfacet

 facet normal -7.78430403e-05 -0.000267554133 -0.99999994
  outer loop
  vertex -0.0337042958 0.0125991777 0.0149991494
  vertex -0.0393474475 0.00875026826 0.0150006181
  vertex -0.0675337985 0.0151218642 0.0150011079
  endloop
 endfacet

 facet normal -7.78257527e-05 -0.00026732235 -0.99999994
  outer loop
  vertex -0.0337042958 0.0125991777 0.0149991494
  vertex -0.0675337985 0.0151218642 0.0150011079
  vertex -0.0675337985 0.0206137095 0.0149996402
  endloop
 endfacet

 facet normal -4.97177643e-05 -0.000148677937 -1
  outer loop
  vertex -0.0337042958 0.0125991777 0.0149991494
  vertex -0.0675337985 0.0206137095 0.0149996402
  vertex -0.0393474475 0.014486243 0.0149991494
  endloop
 endfacet

 facet normal -1.73964763e-05 0 -1
  outer loop
  vertex -0.0393474475 0.0159686245 0.0149991494
  vertex -0.0393474475 0.014486243 0.0149991494
  vertex -0.0675337985 0.0206137095 0.0149996402
  endloop
 endfacet

 facet normal -1.73964763e-05 0 -1
  outer loop
  vertex -0.0393474475 0.0159686245 0.0149991494
  vertex -0.0675337985 0.0206137095 0.0149996402
  vertex -0.0675337985 0.0218783505 0.0149996402
  endloop
 endfacet

 facet normal -1 0 0
  outer loop
  vertex -0.0675337985 0.0218783505 0.0149996402
  vertex -0.0675337985 0.0206137095 0.0149996402
  vertex -0.0675337985 0.0151218642 0.0150011079
  endloop
 endfacet

 facet normal -1 0 0
  outer loop
  vertex -0.0675337985 0.0218783505 0.0149996402
  vertex -0.0675337985 0.0151218642 0.0150011079
  vertex -0.0675337985 0.0151218642 0.0170002729
  endloop
 endfacet

 facet normal -1 0 0
  outer loop
  vertex -0.0675337985 0.0218783505 0.0149996402
  vertex -0.0675337985 0.0151218642 0.0170002729
  vertex -0.0675337985 0.0218783505 0.0170002729
  endloop
 endfacet

 facet normal -0.797800064 0.602922201 0
  outer loop
  vertex -0.0675337985 0.0218783505 0.0149996402
  vertex -0.0675337985 0.0218783505 0.0170002729
  vertex -0.0624792352 0.0285666585 0.0170061477
  endloop
 endfacet

 facet normal -0.144408613 0.38286981 -0.912445545
  outer loop
  vertex -0.0675337985 0.0218783505 0.0149996402
  vertex -0.0624792352 0.0285666585 0.0170061477
  vertex -0.0564056709 0.0294552054 0.0164177548
  endloop
 endfacet

 facet normal -0.144756764 0.989467263 0
  outer loop
  vertex -0.0564056709 0.0294552054 0.0164177548
  vertex -0.0624792352 0.0285666585 0.0170061477
  vertex -0.0564056709 0.0294552054 0.0170061477
  endloop
 endfacet

 facet normal -0.134886011 0.921996832 0.362942934
  outer loop
  vertex -0.0448029898 0.0301831998 0.0194688793
  vertex -0.0564056709 0.0294552054 0.0170061477
  vertex -0.0624792352 0.0285666585 0.0170061477
  endloop
 endfacet

 facet normal -0.156876981 0.766392887 0.622921824
  outer loop
  vertex -0.0448029898 0.0301831998 0.0194688793
  vertex -0.0624792352 0.0285666585 0.0170061477
  vertex -0.0505932942 0.0285666585 0.0199995097
  endloop
 endfacet

 facet normal -0.240195557 0.18068555 0.953760386
  outer loop
  vertex -0.0505932942 0.0285666585 0.0199995097
  vertex -0.0624792352 0.0285666585 0.0170061477
  vertex -0.0675337985 0.0218783505 0.0170002729
  endloop
 endfacet

 facet normal -0.190672457 0.0431682952 0.980704188
  outer loop
  vertex -0.0505932942 0.0285666585 0.0199995097
  vertex -0.0675337985 0.0218783505 0.0170002729
  vertex -0.0518072695 0.0232045762 0.0199995097
  endloop
 endfacet

 facet normal 0.453298181 0.541140676 0.7082991
  outer loop
  vertex -0.0316442102 0.0301853996 0.0180316735
  vertex -0.0317214653 0.0301853996 0.0180811137
  vertex -0.0299924649 0.0290087331 0.017873561
  endloop
 endfacet

 facet normal 0.465897679 0.56218785 0.68328923
  outer loop
  vertex -0.0316442102 0.0301853996 0.0180316735
  vertex -0.0299924649 0.0290087331 0.017873561
  vertex -0.0299851093 0.0290395226 0.0178432111
  endloop
 endfacet

 facet normal 0.333532512 0.33958745 0.879452407
  outer loop
  vertex -0.0300218947 0.028881168 0.0179543309
  vertex -0.0318428613 0.0301853996 0.0181413237
  vertex -0.0319164358 0.0301853996 0.0181692261
  endloop
 endfacet

 facet normal 0.313954622 0.308081836 0.8980636
  outer loop
  vertex -0.0300218947 0.028881168 0.0179543309
  vertex -0.0319164358 0.0301853996 0.0181692261
  vertex -0.030029254 0.0288415793 0.0179704838
  endloop
 endfacet

 facet normal 0.299279571 0.285647869 0.910404861
  outer loop
  vertex -0.030029254 0.0288415793 0.0179704838
  vertex -0.0319164358 0.0301853996 0.0181692261
  vertex -0.031978976 0.0301853996 0.018189786
  endloop
 endfacet

 facet normal 0.262652814 0.228077501 0.937546909
  outer loop
  vertex -0.030029254 0.0288415793 0.0179704838
  vertex -0.031978976 0.0301853996 0.018189786
  vertex -0.0320488699 0.0301853996 0.0182093661
  endloop
 endfacet

 facet normal 0.256952018 0.21883893 0.941321015
  outer loop
  vertex -0.030029254 0.0288415793 0.0179704838
  vertex -0.0320488699 0.0301853996 0.0182093661
  vertex -0.0300402902 0.0287997909 0.0179832112
  endloop
 endfacet

 facet normal 0.0593910366 -0.182254672 0.981456041
  outer loop
  vertex -0.0396969281 0.0143982694 0.0186195765
  vertex -0.0531058609 0.0174334086 0.0199946146
  vertex -0.0481432676 0.0162853338 0.0194811169
  endloop
 endfacet

 facet normal 0.0564758591 -0.194323227 0.979310453
  outer loop
  vertex -0.0396969281 0.0143982694 0.0186195765
  vertex -0.0481432676 0.0162853338 0.0194811169
  vertex -0.0336196832 0.0129796704 0.0179876164
  endloop
 endfacet

 facet normal 0.0577062517 -0.189010352 0.980278134
  outer loop
  vertex -0.0481432676 0.0162853338 0.0194811169
  vertex -0.0531058609 0.0174334086 0.0199946146
  vertex -0.0531168953 0.0173894223 0.0199867822
  endloop
 endfacet

 facet normal 0 -0.175287217 0.984517336
  outer loop
  vertex -0.0531168953 0.0173894223 0.0199867822
  vertex -0.0531058609 0.0174334086 0.0199946146
  vertex -0.0531132147 0.0174114164 0.0199906975
  endloop
 endfacet

 facet normal -0.179084584 -0.143340051 0.973335803
  outer loop
  vertex -0.0531168953 0.0173894223 0.0199867822
  vertex -0.0531132147 0.0174114164 0.0199906975
  vertex -0.0675337985 0.0151218642 0.0170002729
  endloop
 endfacet

 facet normal -0.162609309 -0.2299072 0.959531665
  outer loop
  vertex -0.0531168953 0.0173894223 0.0199867822
  vertex -0.0675337985 0.0151218642 0.0170002729
  vertex -0.0531242527 0.0173476338 0.0199755225
  endloop
 endfacet

 facet normal -0.141686469 -0.330189675 0.933220208
  outer loop
  vertex -0.0531242527 0.0173476338 0.0199755225
  vertex -0.0675337985 0.0151218642 0.0170002729
  vertex -0.0531316102 0.0173300393 0.01996818
  endloop
 endfacet

 facet normal -0.0868534595 -0.352514476 0.931767166
  outer loop
  vertex -0.0531242527 0.0173476338 0.0199755225
  vertex -0.0531316102 0.0173300393 0.01996818
  vertex -0.053135287 0.017310245 0.0199603494
  endloop
 endfacet

 facet normal -0.139107943 -0.341866791 0.929395556
  outer loop
  vertex -0.053135287 0.017310245 0.0199603494
  vertex -0.0531316102 0.0173300393 0.01996818
  vertex -0.0675337985 0.0151218642 0.0170002729
  endloop
 endfacet

 facet normal -0.129062265 -0.386230081 0.913328648
  outer loop
  vertex -0.053135287 0.017310245 0.0199603494
  vertex -0.0675337985 0.0151218642 0.0170002729
  vertex -0.053135287 0.0172882508 0.0199510474
  endloop
 endfacet

 facet normal -0.111086093 -0.460930586 0.88045609
  outer loop
  vertex -0.053135287 0.0172882508 0.0199510474
  vertex -0.0675337985 0.0151218642 0.0170002729
  vertex -0.0531463251 0.0172310658 0.0199197195
  endloop
 endfacet

 facet normal -0.107534699 -0.475214571 0.873274028
  outer loop
  vertex -0.0531463251 0.0172310658 0.0199197195
  vertex -0.0675337985 0.0151218642 0.0170002729
  vertex -0.0393474475 0.00874366984 0.0170002729
  endloop
 endfacet

 facet normal -0.220706493 -0.975340307 0
  outer loop
  vertex -0.0393474475 0.00874366984 0.0170002729
  vertex -0.0675337985 0.0151218642 0.0170002729
  vertex -0.0675337985 0.0151218642 0.0150011079
  endloop
 endfacet

 facet normal -0.220706493 -0.975340307 0
  outer loop
  vertex -0.0393474475 0.00874366984 0.0170002729
  vertex -0.0675337985 0.0151218642 0.0150011079
  vertex -0.0393474475 0.00874366984 0.0150011079
  endloop
 endfacet

 facet normal 0.212026402 0.149731487 0.965725303
  outer loop
  vertex -0.0300402902 0.0287997909 0.0179832112
  vertex -0.0320488699 0.0301853996 0.0182093661
  vertex -0.0321224444 0.0301853996 0.018225519
  endloop
 endfacet

 facet normal 0.207090899 0.141921848 0.967972934
  outer loop
  vertex -0.0300402902 0.0287997909 0.0179832112
  vertex -0.0321224444 0.0301853996 0.018225519
  vertex -0.0300513264 0.0287558045 0.0179920234
  endloop
 endfacet

 facet normal -0.184683546 -0.112062268 0.976388335
  outer loop
  vertex -0.0675337985 0.0151218642 0.0170002729
  vertex -0.0531132147 0.0174114164 0.0199906975
  vertex -0.0531058609 0.0174334086 0.0199946146
  endloop
 endfacet

 facet normal -0.187385097 -0.0966643915 0.977518678
  outer loop
  vertex -0.0675337985 0.0151218642 0.0170002729
  vertex -0.0531058609 0.0174334086 0.0199946146
  vertex -0.0531058609 0.0174532048 0.0199965723
  endloop
 endfacet

endsolid AssimpScene
