solid AssimpScene
 facet normal -0.998991609 0.0448982976 0
  outer loop
  vertex -0.115680076 -0.0134056285 0.0100010047
  vertex -0.115680076 -0.0134056285 0.0149900112
  vertex -0.115654625 -0.0128393602 0.0149900112
  endloop
 endfacet

 facet normal -0.998991609 0.0448982976 0
  outer loop
  vertex -0.115680076 -0.0134056285 0.0100010047
  vertex -0.115654625 -0.0128393602 0.0149900112
  vertex -0.115654625 -0.0128393602 0.0100010047
  endloop
 endfacet

 facet normal -0.938292921 0.0421702825 -0.343261123
  outer loop
  vertex -0.115680076 -0.0134056285 0.0100010047
  vertex -0.115654625 -0.0128393602 0.0100010047
  vertex -0.114179783 -0.0134056285 0.00590000022
  endloop
 endfacet

 facet normal -0.938223243 -0.0438925289 -0.343235582
  outer loop
  vertex -0.115680076 -0.0134056285 0.0100010047
  vertex -0.114179783 -0.0134056285 0.00590000022
  vertex -0.11415942 -0.0138408281 0.00590000022
  endloop
 endfacet

 facet normal -0.938201845 -0.0464867614 -0.342952341
  outer loop
  vertex -0.115680076 -0.0134056285 0.0100010047
  vertex -0.11415942 -0.0138408281 0.00590000022
  vertex -0.115652084 -0.0139706256 0.0100010047
  endloop
 endfacet

 facet normal -0.998774827 -0.0494880825 0
  outer loop
  vertex -0.115680076 -0.0134056285 0.0100010047
  vertex -0.115652084 -0.0139706256 0.0100010047
  vertex -0.115652084 -0.0139706256 0.0149900112
  endloop
 endfacet

 facet normal -0.998774827 -0.0494880825 0
  outer loop
  vertex -0.115680076 -0.0134056285 0.0100010047
  vertex -0.115652084 -0.0139706256 0.0149900112
  vertex -0.115680076 -0.0134056285 0.0149900112
  endloop
 endfacet

 facet normal 0 0 1
  outer loop
  vertex -0.115680076 -0.0134056285 0.0149900112
  vertex -0.115652084 -0.0139706256 0.0149900112
  vertex -0.115578279 -0.0145330755 0.0149900112
  endloop
 endfacet

 facet normal 0 0 1
  outer loop
  vertex -0.115680076 -0.0134056285 0.0149900112
  vertex -0.115578279 -0.0145330755 0.0149900112
  vertex -0.115454845 -0.0150866192 0.0149900112
  endloop
 endfacet

 facet normal 0 0 1
  outer loop
  vertex -0.115680076 -0.0134056285 0.0149900112
  vertex -0.115454845 -0.0150866192 0.0149900112
  vertex -0.115285598 -0.0156287104 0.0149900112
  endloop
 endfacet

 facet normal 0 0 1
  outer loop
  vertex -0.115680076 -0.0134056285 0.0149900112
  vertex -0.115285598 -0.0156287104 0.0149900112
  vertex -0.11506927 -0.016150441 0.0149900112
  endloop
 endfacet

 facet normal 0 0 1
  outer loop
  vertex -0.115680076 -0.0134056285 0.0149900112
  vertex -0.11506927 -0.016150441 0.0149900112
  vertex -0.114805862 -0.0166556295 0.0149900112
  endloop
 endfacet

 facet normal 0 0 1
  outer loop
  vertex -0.115680076 -0.0134056285 0.0149900112
  vertex -0.114805862 -0.0166556295 0.0149900112
  vertex -0.114503004 -0.0171315502 0.0149900112
  endloop
 endfacet

 facet normal 0 0 1
  outer loop
  vertex -0.115680076 -0.0134056285 0.0149900112
  vertex -0.114503004 -0.0171315502 0.0149900112
  vertex -0.114156879 -0.0175820179 0.0149900112
  endloop
 endfacet

 facet normal 0 0 1
  outer loop
  vertex -0.115680076 -0.0134056285 0.0149900112
  vertex -0.114156879 -0.0175820179 0.0149900112
  vertex -0.113772579 -0.0180006772 0.0149900112
  endloop
 endfacet

 facet normal 0 0 1
  outer loop
  vertex -0.115680076 -0.0134056285 0.0149900112
  vertex -0.113772579 -0.0180006772 0.0149900112
  vertex -0.113356464 -0.0183837023 0.0149900112
  endloop
 endfacet

 facet normal 0 0 1
  outer loop
  vertex -0.115680076 -0.0134056285 0.0149900112
  vertex -0.113356464 -0.0183837023 0.0149900112
  vertex -0.112905994 -0.0187298264 0.0149900112
  endloop
 endfacet

 facet normal 0 0 1
  outer loop
  vertex -0.115680076 -0.0134056285 0.0149900112
  vertex -0.112905994 -0.0187298264 0.0149900112
  vertex -0.112428807 -0.0190339573 0.0149900112
  endloop
 endfacet

 facet normal 0 0 1
  outer loop
  vertex -0.115680076 -0.0134056285 0.0149900112
  vertex -0.112428807 -0.0190339573 0.0149900112
  vertex -0.111924887 -0.0192948207 0.0149900112
  endloop
 endfacet

 facet normal 0 0 1
  outer loop
  vertex -0.115680076 -0.0134056285 0.0149900112
  vertex -0.111924887 -0.0192948207 0.0149900112
  vertex -0.111401886 -0.0195124224 0.0149900112
  endloop
 endfacet

 facet normal 0 0 1
  outer loop
  vertex -0.115680076 -0.0134056285 0.0149900112
  vertex -0.111401886 -0.0195124224 0.0149900112
  vertex -0.110859796 -0.0196829401 0.0149900112
  endloop
 endfacet

 facet normal 0 0 1
  outer loop
  vertex -0.115680076 -0.0134056285 0.0149900112
  vertex -0.110859796 -0.0196829401 0.0149900112
  vertex -0.110304981 -0.0198051017 0.0149900112
  endloop
 endfacet

 facet normal 0 0 1
  outer loop
  vertex -0.115680076 -0.0134056285 0.0149900112
  vertex -0.110304981 -0.0198051017 0.0149900112
  vertex -0.109743804 -0.0198789071 0.0149900112
  endloop
 endfacet

 facet normal 0 0 1
  outer loop
  vertex -0.115680076 -0.0134056285 0.0149900112
  vertex -0.109743804 -0.0198789071 0.0149900112
  vertex -0.109180078 -0.0199056286 0.0149900112
  endloop
 endfacet

 facet normal 0 0 1
  outer loop
  vertex -0.115680076 -0.0134056285 0.0149900112
  vertex -0.109180078 -0.0199056286 0.0149900112
  vertex -0.108616352 -0.0198789071 0.0149900112
  endloop
 endfacet

 facet normal 0 0 1
  outer loop
  vertex -0.115680076 -0.0134056285 0.0149900112
  vertex -0.108616352 -0.0198789071 0.0149900112
  vertex -0.108055174 -0.0198051017 0.0149900112
  endloop
 endfacet

 facet normal 0 0 1
  outer loop
  vertex -0.115680076 -0.0134056285 0.0149900112
  vertex -0.108055174 -0.0198051017 0.0149900112
  vertex -0.107500359 -0.0196829401 0.0149900112
  endloop
 endfacet

 facet normal 0 0 1
  outer loop
  vertex -0.115680076 -0.0134056285 0.0149900112
  vertex -0.107500359 -0.0196829401 0.0149900112
  vertex -0.10695827 -0.0195124224 0.0149900112
  endloop
 endfacet

 facet normal 0 0 1
  outer loop
  vertex -0.115680076 -0.0134056285 0.0149900112
  vertex -0.10695827 -0.0195124224 0.0149900112
  vertex -0.106435269 -0.0192948207 0.0149900112
  endloop
 endfacet

 facet normal 0 0 1
  outer loop
  vertex -0.115680076 -0.0134056285 0.0149900112
  vertex -0.106435269 -0.0192948207 0.0149900112
  vertex -0.105931349 -0.0190339573 0.0149900112
  endloop
 endfacet

 facet normal 0 0 1
  outer loop
  vertex -0.115680076 -0.0134056285 0.0149900112
  vertex -0.105931349 -0.0190339573 0.0149900112
  vertex -0.105454162 -0.0187298264 0.0149900112
  endloop
 endfacet

 facet normal 0 0 1
  outer loop
  vertex -0.115680076 -0.0134056285 0.0149900112
  vertex -0.105454162 -0.0187298264 0.0149900112
  vertex -0.105003685 -0.0183837023 0.0149900112
  endloop
 endfacet

 facet normal 0 0 1
  outer loop
  vertex -0.115680076 -0.0134056285 0.0149900112
  vertex -0.105003685 -0.0183837023 0.0149900112
  vertex -0.104587577 -0.0180006772 0.0149900112
  endloop
 endfacet

 facet normal 0 0 1
  outer loop
  vertex -0.115680076 -0.0134056285 0.0149900112
  vertex -0.104587577 -0.0180006772 0.0149900112
  vertex -0.104203276 -0.0175820179 0.0149900112
  endloop
 endfacet

 facet normal 0 0 1
  outer loop
  vertex -0.115680076 -0.0134056285 0.0149900112
  vertex -0.104203276 -0.0175820179 0.0149900112
  vertex -0.103858426 -0.0171315502 0.0149900112
  endloop
 endfacet

 facet normal 0 0 1
  outer loop
  vertex -0.115680076 -0.0134056285 0.0149900112
  vertex -0.103858426 -0.0171315502 0.0149900112
  vertex -0.103554294 -0.0166556295 0.0149900112
  endloop
 endfacet

 facet normal 0 0 1
  outer loop
  vertex -0.115680076 -0.0134056285 0.0149900112
  vertex -0.103554294 -0.0166556295 0.0149900112
  vertex -0.103290886 -0.016150441 0.0149900112
  endloop
 endfacet

 facet normal 0 0 1
  outer loop
  vertex -0.115680076 -0.0134056285 0.0149900112
  vertex -0.103290886 -0.016150441 0.0149900112
  vertex -0.103075832 -0.0156287104 0.0149900112
  endloop
 endfacet

 facet normal 0 0 1
  outer loop
  vertex -0.115680076 -0.0134056285 0.0149900112
  vertex -0.103075832 -0.0156287104 0.0149900112
  vertex -0.102905311 -0.0150866192 0.0149900112
  endloop
 endfacet

 facet normal 0 0 1
  outer loop
  vertex -0.115680076 -0.0134056285 0.0149900112
  vertex -0.102905311 -0.0150866192 0.0149900112
  vertex -0.102781877 -0.0145330755 0.0149900112
  endloop
 endfacet

 facet normal 0 0 1
  outer loop
  vertex -0.115680076 -0.0134056285 0.0149900112
  vertex -0.102781877 -0.0145330755 0.0149900112
  vertex -0.102708071 -0.0139706256 0.0149900112
  endloop
 endfacet

 facet normal 0 0 1
  outer loop
  vertex -0.115680076 -0.0134056285 0.0149900112
  vertex -0.102708071 -0.0139706256 0.0149900112
  vertex -0.102683894 -0.0134069016 0.0149900112
  endloop
 endfacet

 facet normal 0 0 1
  outer loop
  vertex -0.115680076 -0.0134056285 0.0149900112
  vertex -0.102683894 -0.0134069016 0.0149900112
  vertex -0.102683894 -0.0134043563 0.0149900112
  endloop
 endfacet

 facet normal 0 0 1
  outer loop
  vertex -0.115680076 -0.0134056285 0.0149900112
  vertex -0.102683894 -0.0134043563 0.0149900112
  vertex -0.102708071 -0.0128393602 0.0149900112
  endloop
 endfacet

 facet normal 0 0 1
  outer loop
  vertex -0.115680076 -0.0134056285 0.0149900112
  vertex -0.102708071 -0.0128393602 0.0149900112
  vertex -0.102781877 -0.0122781815 0.0149900112
  endloop
 endfacet

 facet normal 0 0 1
  outer loop
  vertex -0.115680076 -0.0134056285 0.0149900112
  vertex -0.102781877 -0.0122781815 0.0149900112
  vertex -0.102905311 -0.0117246378 0.0149900112
  endloop
 endfacet

 facet normal 0 0 1
  outer loop
  vertex -0.115680076 -0.0134056285 0.0149900112
  vertex -0.102905311 -0.0117246378 0.0149900112
  vertex -0.103075832 -0.0111825475 0.0149900112
  endloop
 endfacet

 facet normal 0 0 1
  outer loop
  vertex -0.115680076 -0.0134056285 0.0149900112
  vertex -0.103075832 -0.0111825475 0.0149900112
  vertex -0.103289612 -0.0106582716 0.0149900112
  endloop
 endfacet

 facet normal 0 0 1
  outer loop
  vertex -0.115680076 -0.0134056285 0.0149900112
  vertex -0.103289612 -0.0106582716 0.0149900112
  vertex -0.103554294 -0.0101581737 0.0149900112
  endloop
 endfacet

 facet normal 0 0 1
  outer loop
  vertex -0.115680076 -0.0134056285 0.0149900112
  vertex -0.103554294 -0.0101581737 0.0149900112
  vertex -0.103858426 -0.00967843551 0.0149900112
  endloop
 endfacet

 facet normal 0 0 1
  outer loop
  vertex -0.115680076 -0.0134056285 0.0149900112
  vertex -0.103858426 -0.00967843551 0.0149900112
  vertex -0.104203276 -0.00922923815 0.0149900112
  endloop
 endfacet

 facet normal 0 0 1
  outer loop
  vertex -0.115680076 -0.0134056285 0.0149900112
  vertex -0.104203276 -0.00922923815 0.0149900112
  vertex -0.104587577 -0.00881058164 0.0149900112
  endloop
 endfacet

 facet normal 0 0 1
  outer loop
  vertex -0.115680076 -0.0134056285 0.0149900112
  vertex -0.104587577 -0.00881058164 0.0149900112
  vertex -0.105002418 -0.00842755474 0.0149900112
  endloop
 endfacet

 facet normal 0 0 1
  outer loop
  vertex -0.115680076 -0.0134056285 0.0149900112
  vertex -0.105002418 -0.00842755474 0.0149900112
  vertex -0.105452888 -0.00808397587 0.0149900112
  endloop
 endfacet

 facet normal 0 0 1
  outer loop
  vertex -0.115680076 -0.0134056285 0.0149900112
  vertex -0.105452888 -0.00808397587 0.0149900112
  vertex -0.105930075 -0.0077773002 0.0149900112
  endloop
 endfacet

 facet normal 0 0 1
  outer loop
  vertex -0.115680076 -0.0134056285 0.0149900112
  vertex -0.105930075 -0.0077773002 0.0149900112
  vertex -0.106433995 -0.00751643535 0.0149900112
  endloop
 endfacet

 facet normal 0 0 1
  outer loop
  vertex -0.115680076 -0.0134056285 0.0149900112
  vertex -0.106433995 -0.00751643535 0.0149900112
  vertex -0.106956996 -0.00729883555 0.0149900112
  endloop
 endfacet

 facet normal 0 0 1
  outer loop
  vertex -0.115680076 -0.0134056285 0.0149900112
  vertex -0.106956996 -0.00729883555 0.0149900112
  vertex -0.107497811 -0.00712831831 0.0149900112
  endloop
 endfacet

 facet normal 0 0 1
  outer loop
  vertex -0.115680076 -0.0134056285 0.0149900112
  vertex -0.107497811 -0.00712831831 0.0149900112
  vertex -0.108055174 -0.00700615719 0.0149900112
  endloop
 endfacet

 facet normal 0 0 1
  outer loop
  vertex -0.115680076 -0.0134056285 0.0149900112
  vertex -0.108055174 -0.00700615719 0.0149900112
  vertex -0.108616352 -0.00693235127 0.0149900112
  endloop
 endfacet

 facet normal 0 0 1
  outer loop
  vertex -0.115680076 -0.0134056285 0.0149900112
  vertex -0.108616352 -0.00693235127 0.0149900112
  vertex -0.109180078 -0.00690562837 0.0149900112
  endloop
 endfacet

 facet normal 0 0 1
  outer loop
  vertex -0.115680076 -0.0134056285 0.0149900112
  vertex -0.109180078 -0.00690562837 0.0149900112
  vertex -0.109743804 -0.00693235127 0.0149900112
  endloop
 endfacet

 facet normal 0 0 1
  outer loop
  vertex -0.115680076 -0.0134056285 0.0149900112
  vertex -0.109743804 -0.00693235127 0.0149900112
  vertex -0.110304981 -0.00700615719 0.0149900112
  endloop
 endfacet

 facet normal 0 0 1
  outer loop
  vertex -0.115680076 -0.0134056285 0.0149900112
  vertex -0.110304981 -0.00700615719 0.0149900112
  vertex -0.110862337 -0.00712831831 0.0149900112
  endloop
 endfacet

 facet normal 0 0 1
  outer loop
  vertex -0.115680076 -0.0134056285 0.0149900112
  vertex -0.110862337 -0.00712831831 0.0149900112
  vertex -0.11140316 -0.00729883555 0.0149900112
  endloop
 endfacet

 facet normal 0 0 1
  outer loop
  vertex -0.115680076 -0.0134056285 0.0149900112
  vertex -0.11140316 -0.00729883555 0.0149900112
  vertex -0.111926161 -0.00751643535 0.0149900112
  endloop
 endfacet

 facet normal 0 0 1
  outer loop
  vertex -0.115680076 -0.0134056285 0.0149900112
  vertex -0.111926161 -0.00751643535 0.0149900112
  vertex -0.112428807 -0.0077773002 0.0149900112
  endloop
 endfacet

 facet normal 0 0 1
  outer loop
  vertex -0.115680076 -0.0134056285 0.0149900112
  vertex -0.112428807 -0.0077773002 0.0149900112
  vertex -0.112907268 -0.00808397587 0.0149900112
  endloop
 endfacet

 facet normal 0 0 1
  outer loop
  vertex -0.115680076 -0.0134056285 0.0149900112
  vertex -0.112907268 -0.00808397587 0.0149900112
  vertex -0.113357738 -0.00842755474 0.0149900112
  endloop
 endfacet

 facet normal 0 0 1
  outer loop
  vertex -0.115680076 -0.0134056285 0.0149900112
  vertex -0.113357738 -0.00842755474 0.0149900112
  vertex -0.113772579 -0.00881058164 0.0149900112
  endloop
 endfacet

 facet normal 0 0 1
  outer loop
  vertex -0.115680076 -0.0134056285 0.0149900112
  vertex -0.113772579 -0.00881058164 0.0149900112
  vertex -0.114156879 -0.00922923815 0.0149900112
  endloop
 endfacet

 facet normal 0 0 1
  outer loop
  vertex -0.115680076 -0.0134056285 0.0149900112
  vertex -0.114156879 -0.00922923815 0.0149900112
  vertex -0.114503004 -0.00967843551 0.0149900112
  endloop
 endfacet

 facet normal 0 0 1
  outer loop
  vertex -0.115680076 -0.0134056285 0.0149900112
  vertex -0.114503004 -0.00967843551 0.0149900112
  vertex -0.114805862 -0.0101581737 0.0149900112
  endloop
 endfacet

 facet normal 0 0 1
  outer loop
  vertex -0.115680076 -0.0134056285 0.0149900112
  vertex -0.114805862 -0.0101581737 0.0149900112
  vertex -0.115070544 -0.0106582716 0.0149900112
  endloop
 endfacet

 facet normal 0 0 1
  outer loop
  vertex -0.115680076 -0.0134056285 0.0149900112
  vertex -0.115070544 -0.0106582716 0.0149900112
  vertex -0.115285598 -0.0111825475 0.0149900112
  endloop
 endfacet

 facet normal 0 0 1
  outer loop
  vertex -0.115680076 -0.0134056285 0.0149900112
  vertex -0.115285598 -0.0111825475 0.0149900112
  vertex -0.115454845 -0.0117246378 0.0149900112
  endloop
 endfacet

 facet normal 0 0 1
  outer loop
  vertex -0.115680076 -0.0134056285 0.0149900112
  vertex -0.115454845 -0.0117246378 0.0149900112
  vertex -0.11558082 -0.0122781815 0.0149900112
  endloop
 endfacet

 facet normal 0 0 1
  outer loop
  vertex -0.115680076 -0.0134056285 0.0149900112
  vertex -0.11558082 -0.0122781815 0.0149900112
  vertex -0.115654625 -0.0128393602 0.0149900112
  endloop
 endfacet

 facet normal -0.991462052 0.130396351 0
  outer loop
  vertex -0.115654625 -0.0128393602 0.0100010047
  vertex -0.115654625 -0.0128393602 0.0149900112
  vertex -0.11558082 -0.0122781815 0.0149900112
  endloop
 endfacet

 facet normal -0.991462052 0.130396351 0
  outer loop
  vertex -0.115654625 -0.0128393602 0.0100010047
  vertex -0.11558082 -0.0122781815 0.0149900112
  vertex -0.11558082 -0.0122781815 0.0100010047
  endloop
 endfacet

 facet normal -0.931232333 0.122474983 -0.343229264
  outer loop
  vertex -0.115654625 -0.0128393602 0.0100010047
  vertex -0.11558082 -0.0122781815 0.0100010047
  vertex -0.114103436 -0.0125377746 0.00590000022
  endloop
 endfacet

 facet normal -0.931408405 0.120533496 -0.343438685
  outer loop
  vertex -0.115654625 -0.0128393602 0.0100010047
  vertex -0.114103436 -0.0125377746 0.00590000022
  vertex -0.11415942 -0.0129704289 0.00590000022
  endloop
 endfacet

 facet normal -0.938146472 0.0438889414 -0.343445718
  outer loop
  vertex -0.115654625 -0.0128393602 0.0100010047
  vertex -0.11415942 -0.0129704289 0.00590000022
  vertex -0.114179783 -0.0134056285 0.00590000022
  endloop
 endfacet

 facet normal 0 0 -1
  outer loop
  vertex -0.114179783 -0.0134056285 0.00590000022
  vertex -0.11415942 -0.0129704289 0.00590000022
  vertex -0.114103436 -0.0125377746 0.00590000022
  endloop
 endfacet

 facet normal 0 0 -1
  outer loop
  vertex -0.114179783 -0.0134056285 0.00590000022
  vertex -0.114103436 -0.0125377746 0.00590000022
  vertex -0.114007995 -0.0121127544 0.00590000022
  endloop
 endfacet

 facet normal 0 0 -1
  outer loop
  vertex -0.114179783 -0.0134056285 0.00590000022
  vertex -0.114007995 -0.0121127544 0.00590000022
  vertex -0.113876924 -0.0116966432 0.00590000022
  endloop
 endfacet

 facet normal 0 0 -1
  outer loop
  vertex -0.114179783 -0.0134056285 0.00590000022
  vertex -0.113876924 -0.0116966432 0.00590000022
  vertex -0.113708951 -0.0112932557 0.00590000022
  endloop
 endfacet

 facet normal 0 0 -1
  outer loop
  vertex -0.114179783 -0.0134056285 0.00590000022
  vertex -0.113708951 -0.0112932557 0.00590000022
  vertex -0.113509171 -0.0109076835 0.00590000022
  endloop
 endfacet

 facet normal 0 0 -1
  outer loop
  vertex -0.114179783 -0.0134056285 0.00590000022
  vertex -0.113509171 -0.0109076835 0.00590000022
  vertex -0.113275029 -0.0105386553 0.00590000022
  endloop
 endfacet

 facet normal 0 0 -1
  outer loop
  vertex -0.114179783 -0.0134056285 0.00590000022
  vertex -0.113275029 -0.0105386553 0.00590000022
  vertex -0.113009073 -0.0101925312 0.00590000022
  endloop
 endfacet

 facet normal 0 0 -1
  outer loop
  vertex -0.114179783 -0.0134056285 0.00590000022
  vertex -0.113009073 -0.0101925312 0.00590000022
  vertex -0.112712577 -0.00987185817 0.00590000022
  endloop
 endfacet

 facet normal 0 0 -1
  outer loop
  vertex -0.114179783 -0.0134056285 0.00590000022
  vertex -0.112712577 -0.00987185817 0.00590000022
  vertex -0.112393171 -0.0095766345 0.00590000022
  endloop
 endfacet

 facet normal 0 0 -1
  outer loop
  vertex -0.114179783 -0.0134056285 0.00590000022
  vertex -0.112393171 -0.0095766345 0.00590000022
  vertex -0.11204578 -0.0093119517 0.00590000022
  endloop
 endfacet

 facet normal 0 0 -1
  outer loop
  vertex -0.114179783 -0.0134056285 0.00590000022
  vertex -0.11204578 -0.0093119517 0.00590000022
  vertex -0.111679293 -0.00907653663 0.00590000022
  endloop
 endfacet

 facet normal 0 0 -1
  outer loop
  vertex -0.114179783 -0.0134056285 0.00590000022
  vertex -0.111679293 -0.00907653663 0.00590000022
  vertex -0.111291178 -0.00887547992 0.00590000022
  endloop
 endfacet

 facet normal 0 0 -1
  outer loop
  vertex -0.114179783 -0.0134056285 0.00590000022
  vertex -0.111291178 -0.00887547992 0.00590000022
  vertex -0.110889062 -0.00870878063 0.00590000022
  endloop
 endfacet

 facet normal 0 0 -1
  outer loop
  vertex -0.114179783 -0.0134056285 0.00590000022
  vertex -0.110889062 -0.00870878063 0.00590000022
  vertex -0.110472955 -0.00857771188 0.00590000022
  endloop
 endfacet

 facet normal 0 0 -1
  outer loop
  vertex -0.114179783 -0.0134056285 0.00590000022
  vertex -0.110472955 -0.00857771188 0.00590000022
  vertex -0.110046662 -0.00848354585 0.00590000022
  endloop
 endfacet

 facet normal 0 0 -1
  outer loop
  vertex -0.114179783 -0.0134056285 0.00590000022
  vertex -0.110046662 -0.00848354585 0.00590000022
  vertex -0.109614007 -0.00842628162 0.00590000022
  endloop
 endfacet

 facet normal 0 0 -1
  outer loop
  vertex -0.114179783 -0.0134056285 0.00590000022
  vertex -0.109614007 -0.00842628162 0.00590000022
  vertex -0.109180078 -0.0084071951 0.00590000022
  endloop
 endfacet

 facet normal 0 0 -1
  outer loop
  vertex -0.114179783 -0.0134056285 0.00590000022
  vertex -0.109180078 -0.0084071951 0.00590000022
  vertex -0.108746149 -0.00842628162 0.00590000022
  endloop
 endfacet

 facet normal 0 0 -1
  outer loop
  vertex -0.114179783 -0.0134056285 0.00590000022
  vertex -0.108746149 -0.00842628162 0.00590000022
  vertex -0.108313493 -0.00848354585 0.00590000022
  endloop
 endfacet

 facet normal 0 0 -1
  outer loop
  vertex -0.114179783 -0.0134056285 0.00590000022
  vertex -0.108313493 -0.00848354585 0.00590000022
  vertex -0.107887201 -0.00857771188 0.00590000022
  endloop
 endfacet

 facet normal 0 0 -1
  outer loop
  vertex -0.114179783 -0.0134056285 0.00590000022
  vertex -0.107887201 -0.00857771188 0.00590000022
  vertex -0.107471094 -0.00870878063 0.00590000022
  endloop
 endfacet

 facet normal 0 0 -1
  outer loop
  vertex -0.114179783 -0.0134056285 0.00590000022
  vertex -0.107471094 -0.00870878063 0.00590000022
  vertex -0.107067704 -0.00887547992 0.00590000022
  endloop
 endfacet

 facet normal 0 0 -1
  outer loop
  vertex -0.114179783 -0.0134056285 0.00590000022
  vertex -0.107067704 -0.00887547992 0.00590000022
  vertex -0.106682137 -0.00907653663 0.00590000022
  endloop
 endfacet

 facet normal 0 0 -1
  outer loop
  vertex -0.114179783 -0.0134056285 0.00590000022
  vertex -0.106682137 -0.00907653663 0.00590000022
  vertex -0.106314376 -0.0093119517 0.00590000022
  endloop
 endfacet

 facet normal 0 0 -1
  outer loop
  vertex -0.114179783 -0.0134056285 0.00590000022
  vertex -0.106314376 -0.0093119517 0.00590000022
  vertex -0.105966985 -0.0095766345 0.00590000022
  endloop
 endfacet

 facet normal 0 0 -1
  outer loop
  vertex -0.114179783 -0.0134056285 0.00590000022
  vertex -0.105966985 -0.0095766345 0.00590000022
  vertex -0.105647579 -0.00987185817 0.00590000022
  endloop
 endfacet

 facet normal 0 0 -1
  outer loop
  vertex -0.114179783 -0.0134056285 0.00590000022
  vertex -0.105647579 -0.00987185817 0.00590000022
  vertex -0.105351083 -0.0101925312 0.00590000022
  endloop
 endfacet

 facet normal 0 0 -1
  outer loop
  vertex -0.114179783 -0.0134056285 0.00590000022
  vertex -0.105351083 -0.0101925312 0.00590000022
  vertex -0.105085127 -0.0105386553 0.00590000022
  endloop
 endfacet

 facet normal 0 0 -1
  outer loop
  vertex -0.114179783 -0.0134056285 0.00590000022
  vertex -0.105085127 -0.0105386553 0.00590000022
  vertex -0.104850985 -0.0109076835 0.00590000022
  endloop
 endfacet

 facet normal 0 0 -1
  outer loop
  vertex -0.114179783 -0.0134056285 0.00590000022
  vertex -0.104850985 -0.0109076835 0.00590000022
  vertex -0.104649931 -0.0112932557 0.00590000022
  endloop
 endfacet

 facet normal 0 0 -1
  outer loop
  vertex -0.114179783 -0.0134056285 0.00590000022
  vertex -0.104649931 -0.0112932557 0.00590000022
  vertex -0.104484499 -0.0116966432 0.00590000022
  endloop
 endfacet

 facet normal 0 0 -1
  outer loop
  vertex -0.114179783 -0.0134056285 0.00590000022
  vertex -0.104484499 -0.0116966432 0.00590000022
  vertex -0.104352161 -0.0121127544 0.00590000022
  endloop
 endfacet

 facet normal 0 0 -1
  outer loop
  vertex -0.114179783 -0.0134056285 0.00590000022
  vertex -0.104352161 -0.0121127544 0.00590000022
  vertex -0.104256719 -0.0125377746 0.00590000022
  endloop
 endfacet

 facet normal 0 0 -1
  outer loop
  vertex -0.114179783 -0.0134056285 0.00590000022
  vertex -0.104256719 -0.0125377746 0.00590000022
  vertex -0.104200736 -0.0129704289 0.00590000022
  endloop
 endfacet

 facet normal 0 0 -1
  outer loop
  vertex -0.114179783 -0.0134056285 0.00590000022
  vertex -0.104200736 -0.0129704289 0.00590000022
  vertex -0.104180373 -0.0134056285 0.00590000022
  endloop
 endfacet

 facet normal 0 0 -1
  outer loop
  vertex -0.114179783 -0.0134056285 0.00590000022
  vertex -0.104180373 -0.0134056285 0.00590000022
  vertex -0.104200736 -0.0138408281 0.00590000022
  endloop
 endfacet

 facet normal 0 0 -1
  outer loop
  vertex -0.114179783 -0.0134056285 0.00590000022
  vertex -0.104200736 -0.0138408281 0.00590000022
  vertex -0.104257993 -0.0142734824 0.00590000022
  endloop
 endfacet

 facet normal 0 0 -1
  outer loop
  vertex -0.114179783 -0.0134056285 0.00590000022
  vertex -0.104257993 -0.0142734824 0.00590000022
  vertex -0.104353435 -0.0146985026 0.00590000022
  endloop
 endfacet

 facet normal 0 0 -1
  outer loop
  vertex -0.114179783 -0.0134056285 0.00590000022
  vertex -0.104353435 -0.0146985026 0.00590000022
  vertex -0.104484499 -0.0151146157 0.00590000022
  endloop
 endfacet

 facet normal 0 0 -1
  outer loop
  vertex -0.114179783 -0.0134056285 0.00590000022
  vertex -0.104484499 -0.0151146157 0.00590000022
  vertex -0.104649931 -0.0155167291 0.00590000022
  endloop
 endfacet

 facet normal 0 0 -1
  outer loop
  vertex -0.114179783 -0.0134056285 0.00590000022
  vertex -0.104649931 -0.0155167291 0.00590000022
  vertex -0.104852259 -0.0159048475 0.00590000022
  endloop
 endfacet

 facet normal 0 0 -1
  outer loop
  vertex -0.114179783 -0.0134056285 0.00590000022
  vertex -0.104852259 -0.0159048475 0.00590000022
  vertex -0.105086401 -0.0162726026 0.00590000022
  endloop
 endfacet

 facet normal 0 0 -1
  outer loop
  vertex -0.114179783 -0.0134056285 0.00590000022
  vertex -0.105086401 -0.0162726026 0.00590000022
  vertex -0.105352357 -0.0166187268 0.00590000022
  endloop
 endfacet

 facet normal 0 0 -1
  outer loop
  vertex -0.114179783 -0.0134056285 0.00590000022
  vertex -0.105352357 -0.0166187268 0.00590000022
  vertex -0.105647579 -0.0169393998 0.00590000022
  endloop
 endfacet

 facet normal 0 0 -1
  outer loop
  vertex -0.114179783 -0.0134056285 0.00590000022
  vertex -0.105647579 -0.0169393998 0.00590000022
  vertex -0.105968252 -0.0172346234 0.00590000022
  endloop
 endfacet

 facet normal 0 0 -1
  outer loop
  vertex -0.114179783 -0.0134056285 0.00590000022
  vertex -0.105968252 -0.0172346234 0.00590000022
  vertex -0.106314376 -0.0175005794 0.00590000022
  endloop
 endfacet

 facet normal 0 0 -1
  outer loop
  vertex -0.114179783 -0.0134056285 0.00590000022
  vertex -0.106314376 -0.0175005794 0.00590000022
  vertex -0.106682137 -0.0177347213 0.00590000022
  endloop
 endfacet

 facet normal 0 0 -1
  outer loop
  vertex -0.114179783 -0.0134056285 0.00590000022
  vertex -0.106682137 -0.0177347213 0.00590000022
  vertex -0.107068978 -0.0179357771 0.00590000022
  endloop
 endfacet

 facet normal 0 0 -1
  outer loop
  vertex -0.114179783 -0.0134056285 0.00590000022
  vertex -0.107068978 -0.0179357771 0.00590000022
  vertex -0.107471094 -0.0181024764 0.00590000022
  endloop
 endfacet

 facet normal 0 0 -1
  outer loop
  vertex -0.114179783 -0.0134056285 0.00590000022
  vertex -0.107471094 -0.0181024764 0.00590000022
  vertex -0.107887201 -0.0182335451 0.00590000022
  endloop
 endfacet

 facet normal 0 0 -1
  outer loop
  vertex -0.114179783 -0.0134056285 0.00590000022
  vertex -0.107887201 -0.0182335451 0.00590000022
  vertex -0.108314767 -0.0183289833 0.00590000022
  endloop
 endfacet

 facet normal 0 0 -1
  outer loop
  vertex -0.114179783 -0.0134056285 0.00590000022
  vertex -0.108314767 -0.0183289833 0.00590000022
  vertex -0.108746149 -0.0183849763 0.00590000022
  endloop
 endfacet

 facet normal 0 0 -1
  outer loop
  vertex -0.114179783 -0.0134056285 0.00590000022
  vertex -0.108746149 -0.0183849763 0.00590000022
  vertex -0.109180078 -0.018405335 0.00590000022
  endloop
 endfacet

 facet normal 0 0 -1
  outer loop
  vertex -0.114179783 -0.0134056285 0.00590000022
  vertex -0.109180078 -0.018405335 0.00590000022
  vertex -0.109614007 -0.0183849763 0.00590000022
  endloop
 endfacet

 facet normal 0 0 -1
  outer loop
  vertex -0.114179783 -0.0134056285 0.00590000022
  vertex -0.109614007 -0.0183849763 0.00590000022
  vertex -0.110046662 -0.0183289833 0.00590000022
  endloop
 endfacet

 facet normal 0 0 -1
  outer loop
  vertex -0.114179783 -0.0134056285 0.00590000022
  vertex -0.110046662 -0.0183289833 0.00590000022
  vertex -0.110472955 -0.0182335451 0.00590000022
  endloop
 endfacet

 facet normal 0 0 -1
  outer loop
  vertex -0.114179783 -0.0134056285 0.00590000022
  vertex -0.110472955 -0.0182335451 0.00590000022
  vertex -0.110889062 -0.0181024764 0.00590000022
  endloop
 endfacet

 facet normal 0 0 -1
  outer loop
  vertex -0.114179783 -0.0134056285 0.00590000022
  vertex -0.110889062 -0.0181024764 0.00590000022
  vertex -0.111291178 -0.0179357771 0.00590000022
  endloop
 endfacet

 facet normal 0 0 -1
  outer loop
  vertex -0.114179783 -0.0134056285 0.00590000022
  vertex -0.111291178 -0.0179357771 0.00590000022
  vertex -0.111678019 -0.0177347213 0.00590000022
  endloop
 endfacet

 facet normal 0 0 -1
  outer loop
  vertex -0.114179783 -0.0134056285 0.00590000022
  vertex -0.111678019 -0.0177347213 0.00590000022
  vertex -0.11204578 -0.0175005794 0.00590000022
  endloop
 endfacet

 facet normal 0 0 -1
  outer loop
  vertex -0.114179783 -0.0134056285 0.00590000022
  vertex -0.11204578 -0.0175005794 0.00590000022
  vertex -0.112391904 -0.0172346234 0.00590000022
  endloop
 endfacet

 facet normal 0 0 -1
  outer loop
  vertex -0.114179783 -0.0134056285 0.00590000022
  vertex -0.112391904 -0.0172346234 0.00590000022
  vertex -0.112712577 -0.0169393998 0.00590000022
  endloop
 endfacet

 facet normal 0 0 -1
  outer loop
  vertex -0.114179783 -0.0134056285 0.00590000022
  vertex -0.112712577 -0.0169393998 0.00590000022
  vertex -0.113007799 -0.0166187268 0.00590000022
  endloop
 endfacet

 facet normal 0 0 -1
  outer loop
  vertex -0.114179783 -0.0134056285 0.00590000022
  vertex -0.113007799 -0.0166187268 0.00590000022
  vertex -0.113273755 -0.0162726026 0.00590000022
  endloop
 endfacet

 facet normal 0 0 -1
  outer loop
  vertex -0.114179783 -0.0134056285 0.00590000022
  vertex -0.113273755 -0.0162726026 0.00590000022
  vertex -0.113507897 -0.0159048475 0.00590000022
  endloop
 endfacet

 facet normal 0 0 -1
  outer loop
  vertex -0.114179783 -0.0134056285 0.00590000022
  vertex -0.113507897 -0.0159048475 0.00590000022
  vertex -0.113708951 -0.0155167291 0.00590000022
  endloop
 endfacet

 facet normal 0 0 -1
  outer loop
  vertex -0.114179783 -0.0134056285 0.00590000022
  vertex -0.113708951 -0.0155167291 0.00590000022
  vertex -0.11387565 -0.0151146157 0.00590000022
  endloop
 endfacet

 facet normal 0 0 -1
  outer loop
  vertex -0.114179783 -0.0134056285 0.00590000022
  vertex -0.11387565 -0.0151146157 0.00590000022
  vertex -0.11400672 -0.0146985026 0.00590000022
  endloop
 endfacet

 facet normal 0 0 -1
  outer loop
  vertex -0.114179783 -0.0134056285 0.00590000022
  vertex -0.11400672 -0.0146985026 0.00590000022
  vertex -0.114102162 -0.0142734824 0.00590000022
  endloop
 endfacet

 facet normal 0 0 -1
  outer loop
  vertex -0.114179783 -0.0134056285 0.00590000022
  vertex -0.114102162 -0.0142734824 0.00590000022
  vertex -0.11415942 -0.0138408281 0.00590000022
  endloop
 endfacet

 facet normal -0.931220174 -0.123248965 -0.342985094
  outer loop
  vertex -0.11415942 -0.0138408281 0.00590000022
  vertex -0.114102162 -0.0142734824 0.00590000022
  vertex -0.115578279 -0.0145330755 0.0100010047
  endloop
 endfacet

 facet normal -0.931397259 -0.122219868 -0.34287262
  outer loop
  vertex -0.11415942 -0.0138408281 0.00590000022
  vertex -0.115578279 -0.0145330755 0.0100010047
  vertex -0.115652084 -0.0139706256 0.0100010047
  endloop
 endfacet

 facet normal -0.99150002 -0.130106658 0
  outer loop
  vertex -0.115652084 -0.0139706256 0.0100010047
  vertex -0.115578279 -0.0145330755 0.0100010047
  vertex -0.115578279 -0.0145330755 0.0149900112
  endloop
 endfacet

 facet normal -0.99150002 -0.130106658 0
  outer loop
  vertex -0.115652084 -0.0139706256 0.0100010047
  vertex -0.115578279 -0.0145330755 0.0149900112
  vertex -0.115652084 -0.0139706256 0.0149900112
  endloop
 endfacet

 facet normal -0.975066781 0.221911952 0
  outer loop
  vertex -0.11558082 -0.0122781815 0.0100010047
  vertex -0.11558082 -0.0122781815 0.0149900112
  vertex -0.115454845 -0.0117246378 0.0149900112
  endloop
 endfacet

 facet normal -0.975066781 0.221911952 0
  outer loop
  vertex -0.11558082 -0.0122781815 0.0100010047
  vertex -0.115454845 -0.0117246378 0.0149900112
  vertex -0.115454845 -0.0117246378 0.0100010047
  endloop
 endfacet

 facet normal -0.915956974 0.208459407 -0.342881143
  outer loop
  vertex -0.11558082 -0.0122781815 0.0100010047
  vertex -0.115454845 -0.0117246378 0.0100010047
  vertex -0.114007995 -0.0121127544 0.00590000022
  endloop
 endfacet

 facet normal -0.916449249 0.205791146 -0.343177557
  outer loop
  vertex -0.11558082 -0.0122781815 0.0100010047
  vertex -0.114007995 -0.0121127544 0.00590000022
  vertex -0.114103436 -0.0125377746 0.00590000022
  endloop
 endfacet

 facet normal -0.916478395 -0.205795258 -0.34309718
  outer loop
  vertex -0.114102162 -0.0142734824 0.00590000022
  vertex -0.11400672 -0.0146985026 0.00590000022
  vertex -0.115454845 -0.0150866192 0.0100010047
  endloop
 endfacet

 facet normal -0.916836619 -0.204444706 -0.342947572
  outer loop
  vertex -0.114102162 -0.0142734824 0.00590000022
  vertex -0.115454845 -0.0150866192 0.0100010047
  vertex -0.115578279 -0.0145330755 0.0100010047
  endloop
 endfacet

 facet normal -0.976028323 -0.217643827 0
  outer loop
  vertex -0.115578279 -0.0145330755 0.0100010047
  vertex -0.115454845 -0.0150866192 0.0100010047
  vertex -0.115454845 -0.0150866192 0.0149900112
  endloop
 endfacet

 facet normal -0.976028323 -0.217643827 0
  outer loop
  vertex -0.115578279 -0.0145330755 0.0100010047
  vertex -0.115454845 -0.0150866192 0.0149900112
  vertex -0.115578279 -0.0145330755 0.0149900112
  endloop
 endfacet

 facet normal -0.954559743 0.298019648 0
  outer loop
  vertex -0.115454845 -0.0117246378 0.0100010047
  vertex -0.115454845 -0.0117246378 0.0149900112
  vertex -0.115285598 -0.0111825475 0.0149900112
  endloop
 endfacet

 facet normal -0.954559743 0.298019648 0
  outer loop
  vertex -0.115454845 -0.0117246378 0.0100010047
  vertex -0.115285598 -0.0111825475 0.0149900112
  vertex -0.115285598 -0.0111825475 0.0100010047
  endloop
 endfacet

 facet normal -0.896702468 0.279956281 -0.3428545
  outer loop
  vertex -0.115454845 -0.0117246378 0.0100010047
  vertex -0.115285598 -0.0111825475 0.0100010047
  vertex -0.114007995 -0.0121127544 0.00590000022
  endloop
 endfacet

 facet normal -0.895901084 0.282196343 -0.343112946
  outer loop
  vertex -0.114007995 -0.0121127544 0.00590000022
  vertex -0.115285598 -0.0111825475 0.0100010047
  vertex -0.113876924 -0.0116966432 0.00590000022
  endloop
 endfacet

 facet normal -0.895815849 -0.282168835 -0.34335801
  outer loop
  vertex -0.11400672 -0.0146985026 0.00590000022
  vertex -0.11387565 -0.0151146157 0.00590000022
  vertex -0.115285598 -0.0156287104 0.0100010047
  endloop
 endfacet

 facet normal -0.896617115 -0.279929101 -0.343099833
  outer loop
  vertex -0.11400672 -0.0146985026 0.00590000022
  vertex -0.115285598 -0.0156287104 0.0100010047
  vertex -0.115454845 -0.0150866192 0.0100010047
  endloop
 endfacet

 facet normal -0.954559922 -0.29801923 0
  outer loop
  vertex -0.115454845 -0.0150866192 0.0100010047
  vertex -0.115285598 -0.0156287104 0.0100010047
  vertex -0.115285598 -0.0156287104 0.0149900112
  endloop
 endfacet

 facet normal -0.954559922 -0.29801923 0
  outer loop
  vertex -0.115454845 -0.0150866192 0.0100010047
  vertex -0.115285598 -0.0156287104 0.0149900112
  vertex -0.115454845 -0.0150866192 0.0149900112
  endloop
 endfacet

 facet normal -0.92518872 0.379507422 0
  outer loop
  vertex -0.115285598 -0.0111825475 0.0100010047
  vertex -0.115285598 -0.0111825475 0.0149900112
  vertex -0.115070544 -0.0106582716 0.0149900112
  endloop
 endfacet

 facet normal -0.92518872 0.379507422 0
  outer loop
  vertex -0.115285598 -0.0111825475 0.0100010047
  vertex -0.115070544 -0.0106582716 0.0149900112
  vertex -0.115070544 -0.0106582716 0.0100010047
  endloop
 endfacet

 facet normal -0.869000852 0.356459469 -0.343182415
  outer loop
  vertex -0.115285598 -0.0111825475 0.0100010047
  vertex -0.115070544 -0.0106582716 0.0100010047
  vertex -0.113876924 -0.0116966432 0.00590000022
  endloop
 endfacet

 facet normal -0.866916597 0.360986143 -0.343721956
  outer loop
  vertex -0.113876924 -0.0116966432 0.00590000022
  vertex -0.115070544 -0.0106582716 0.0100010047
  vertex -0.113708951 -0.0112932557 0.00590000022
  endloop
 endfacet

 facet normal -0.867601037 -0.359671235 -0.343373179
  outer loop
  vertex -0.11387565 -0.0151146157 0.00590000022
  vertex -0.113708951 -0.0155167291 0.00590000022
  vertex -0.115285598 -0.0156287104 0.0100010047
  endloop
 endfacet

 facet normal -0.867580056 -0.359728098 -0.343366683
  outer loop
  vertex -0.115285598 -0.0156287104 0.0100010047
  vertex -0.113708951 -0.0155167291 0.00590000022
  vertex -0.11506927 -0.016150441 0.0100010047
  endloop
 endfacet

 facet normal -0.923742235 -0.383014888 0
  outer loop
  vertex -0.115285598 -0.0156287104 0.0100010047
  vertex -0.11506927 -0.016150441 0.0100010047
  vertex -0.11506927 -0.016150441 0.0149900112
  endloop
 endfacet

 facet normal -0.923742235 -0.383014888 0
  outer loop
  vertex -0.115285598 -0.0156287104 0.0100010047
  vertex -0.11506927 -0.016150441 0.0149900112
  vertex -0.115285598 -0.0156287104 0.0149900112
  endloop
 endfacet

 facet normal -0.833789527 0.432029337 -0.343723357
  outer loop
  vertex -0.115070544 -0.0106582716 0.0100010047
  vertex -0.113509171 -0.0109076835 0.00590000022
  vertex -0.113708951 -0.0112932557 0.00590000022
  endloop
 endfacet

 facet normal -0.883842647 0.467784375 0
  outer loop
  vertex -0.115070544 -0.0106582716 0.0100010047
  vertex -0.115070544 -0.0106582716 0.0149900112
  vertex -0.114805862 -0.0101581737 0.0149900112
  endloop
 endfacet

 facet normal -0.883842647 0.467784375 0
  outer loop
  vertex -0.115070544 -0.0106582716 0.0100010047
  vertex -0.114805862 -0.0101581737 0.0149900112
  vertex -0.114805862 -0.0101581737 0.0100010047
  endloop
 endfacet

 facet normal -0.830277443 0.43943435 -0.342836559
  outer loop
  vertex -0.115070544 -0.0106582716 0.0100010047
  vertex -0.114805862 -0.0101581737 0.0100010047
  vertex -0.113509171 -0.0109076835 0.00590000022
  endloop
 endfacet

 facet normal -0.833943009 -0.432007611 -0.343378186
  outer loop
  vertex -0.113708951 -0.0155167291 0.00590000022
  vertex -0.113507897 -0.0159048475 0.00590000022
  vertex -0.11506927 -0.016150441 0.0100010047
  endloop
 endfacet

 facet normal -0.832877755 -0.434271097 -0.343108147
  outer loop
  vertex -0.11506927 -0.016150441 0.0100010047
  vertex -0.113507897 -0.0159048475 0.00590000022
  vertex -0.114805862 -0.0166556295 0.0100010047
  endloop
 endfacet

 facet normal -0.886704385 -0.462336957 0
  outer loop
  vertex -0.11506927 -0.016150441 0.0100010047
  vertex -0.114805862 -0.0166556295 0.0100010047
  vertex -0.114805862 -0.0166556295 0.0149900112
  endloop
 endfacet

 facet normal -0.886704385 -0.462336957 0
  outer loop
  vertex -0.11506927 -0.016150441 0.0100010047
  vertex -0.114805862 -0.0166556295 0.0149900112
  vertex -0.11506927 -0.016150441 0.0149900112
  endloop
 endfacet

 facet normal -0.794354677 0.501475036 -0.342816889
  outer loop
  vertex -0.113509171 -0.0109076835 0.00590000022
  vertex -0.114805862 -0.0101581737 0.0100010047
  vertex -0.114503004 -0.00967843551 0.0100010047
  endloop
 endfacet

 facet normal -0.793141246 0.503233314 -0.343049854
  outer loop
  vertex -0.113509171 -0.0109076835 0.00590000022
  vertex -0.114503004 -0.00967843551 0.0100010047
  vertex -0.113275029 -0.0105386553 0.00590000022
  endloop
 endfacet

 facet normal -0.845595837 0.53382355 0
  outer loop
  vertex -0.114805862 -0.0101581737 0.0100010047
  vertex -0.114805862 -0.0101581737 0.0149900112
  vertex -0.114503004 -0.00967843551 0.0149900112
  endloop
 endfacet

 facet normal -0.845595837 0.53382355 0
  outer loop
  vertex -0.114805862 -0.0101581737 0.0100010047
  vertex -0.114503004 -0.00967843551 0.0149900112
  vertex -0.114503004 -0.00967843551 0.0100010047
  endloop
 endfacet

 facet normal -0.792321384 -0.50445509 -0.343150079
  outer loop
  vertex -0.113507897 -0.0159048475 0.00590000022
  vertex -0.113273755 -0.0162726026 0.00590000022
  vertex -0.114503004 -0.0171315502 0.0100010047
  endloop
 endfacet

 facet normal -0.792442262 -0.504280686 -0.343127221
  outer loop
  vertex -0.113507897 -0.0159048475 0.00590000022
  vertex -0.114503004 -0.0171315502 0.0100010047
  vertex -0.114805862 -0.0166556295 0.0100010047
  endloop
 endfacet

 facet normal -0.843661904 -0.536874831 0
  outer loop
  vertex -0.114805862 -0.0166556295 0.0100010047
  vertex -0.114503004 -0.0171315502 0.0100010047
  vertex -0.114503004 -0.0171315502 0.0149900112
  endloop
 endfacet

 facet normal -0.843661904 -0.536874831 0
  outer loop
  vertex -0.114805862 -0.0166556295 0.0100010047
  vertex -0.114503004 -0.0171315502 0.0149900112
  vertex -0.114805862 -0.0166556295 0.0149900112
  endloop
 endfacet

 facet normal -0.744824111 0.57231015 -0.34307155
  outer loop
  vertex -0.114503004 -0.00967843551 0.0100010047
  vertex -0.113009073 -0.0101925312 0.00590000022
  vertex -0.113275029 -0.0105386553 0.00590000022
  endloop
 endfacet

 facet normal -0.792123258 0.610361278 0
  outer loop
  vertex -0.114503004 -0.00967843551 0.0100010047
  vertex -0.114503004 -0.00967843551 0.0149900112
  vertex -0.114156879 -0.00922923815 0.0149900112
  endloop
 endfacet

 facet normal -0.792123258 0.610361278 0
  outer loop
  vertex -0.114503004 -0.00967843551 0.0100010047
  vertex -0.114156879 -0.00922923815 0.0149900112
  vertex -0.114156879 -0.00922923815 0.0100010047
  endloop
 endfacet

 facet normal -0.744088531 0.573348701 -0.342933774
  outer loop
  vertex -0.114503004 -0.00967843551 0.0100010047
  vertex -0.114156879 -0.00922923815 0.0100010047
  vertex -0.113009073 -0.0101925312 0.00590000022
  endloop
 endfacet

 facet normal -0.744810045 -0.572299361 -0.343120277
  outer loop
  vertex -0.113273755 -0.0162726026 0.00590000022
  vertex -0.113007799 -0.0166187268 0.00590000022
  vertex -0.114156879 -0.0175820179 0.0100010047
  endloop
 endfacet

 facet normal -0.744817197 -0.572290838 -0.343119115
  outer loop
  vertex -0.113273755 -0.0162726026 0.00590000022
  vertex -0.114156879 -0.0175820179 0.0100010047
  vertex -0.114503004 -0.0171315502 0.0100010047
  endloop
 endfacet

 facet normal -0.792955995 -0.609279037 0
  outer loop
  vertex -0.114503004 -0.0171315502 0.0100010047
  vertex -0.114156879 -0.0175820179 0.0100010047
  vertex -0.114156879 -0.0175820179 0.0149900112
  endloop
 endfacet

 facet normal -0.792955995 -0.609279037 0
  outer loop
  vertex -0.114503004 -0.0171315502 0.0100010047
  vertex -0.114156879 -0.0175820179 0.0149900112
  vertex -0.114503004 -0.0171315502 0.0149900112
  endloop
 endfacet

 facet normal -0.69202584 0.635233045 -0.342898339
  outer loop
  vertex -0.113009073 -0.0101925312 0.00590000022
  vertex -0.114156879 -0.00922923815 0.0100010047
  vertex -0.113772579 -0.00881058164 0.0100010047
  endloop
 endfacet

 facet normal -0.689631224 0.637636065 -0.343262315
  outer loop
  vertex -0.113009073 -0.0101925312 0.00590000022
  vertex -0.113772579 -0.00881058164 0.0100010047
  vertex -0.112712577 -0.00987185817 0.00590000022
  endloop
 endfacet

 facet normal -0.736689448 0.676231265 0
  outer loop
  vertex -0.114156879 -0.00922923815 0.0100010047
  vertex -0.114156879 -0.00922923815 0.0149900112
  vertex -0.113772579 -0.00881058164 0.0149900112
  endloop
 endfacet

 facet normal -0.736689448 0.676231265 0
  outer loop
  vertex -0.114156879 -0.00922923815 0.0100010047
  vertex -0.113772579 -0.00881058164 0.0149900112
  vertex -0.113772579 -0.00881058164 0.0100010047
  endloop
 endfacet

 facet normal -0.691004932 -0.636161566 -0.343235672
  outer loop
  vertex -0.113007799 -0.0166187268 0.00590000022
  vertex -0.112712577 -0.0169393998 0.00590000022
  vertex -0.113772579 -0.0180006772 0.0100010047
  endloop
 endfacet

 facet normal -0.691975594 -0.63518548 -0.343087763
  outer loop
  vertex -0.113007799 -0.0166187268 0.00590000022
  vertex -0.113772579 -0.0180006772 0.0100010047
  vertex -0.114156879 -0.0175820179 0.0100010047
  endloop
 endfacet

 facet normal -0.736690223 -0.676230431 0
  outer loop
  vertex -0.114156879 -0.0175820179 0.0100010047
  vertex -0.113772579 -0.0180006772 0.0100010047
  vertex -0.113772579 -0.0180006772 0.0149900112
  endloop
 endfacet

 facet normal -0.736690223 -0.676230431 0
  outer loop
  vertex -0.114156879 -0.0175820179 0.0100010047
  vertex -0.113772579 -0.0180006772 0.0149900112
  vertex -0.114156879 -0.0175820179 0.0149900112
  endloop
 endfacet

 facet normal -0.678373992 0.734716773 0
  outer loop
  vertex -0.113772579 -0.00881058164 0.0100010047
  vertex -0.113772579 -0.00881058164 0.0149900112
  vertex -0.113357738 -0.00842755474 0.0149900112
  endloop
 endfacet

 facet normal -0.678373992 0.734716773 0
  outer loop
  vertex -0.113772579 -0.00881058164 0.0100010047
  vertex -0.113357738 -0.00842755474 0.0149900112
  vertex -0.113357738 -0.00842755474 0.0100010047
  endloop
 endfacet

 facet normal -0.637165844 0.690086007 -0.343221486
  outer loop
  vertex -0.113772579 -0.00881058164 0.0100010047
  vertex -0.113357738 -0.00842755474 0.0100010047
  vertex -0.112393171 -0.0095766345 0.00590000022
  endloop
 endfacet

 facet normal -0.637520313 0.689732194 -0.343274653
  outer loop
  vertex -0.113772579 -0.00881058164 0.0100010047
  vertex -0.112393171 -0.0095766345 0.00590000022
  vertex -0.112712577 -0.00987185817 0.00590000022
  endloop
 endfacet

 facet normal -0.636159837 -0.690999031 -0.343250692
  outer loop
  vertex -0.112712577 -0.0169393998 0.00590000022
  vertex -0.112391904 -0.0172346234 0.00590000022
  vertex -0.113772579 -0.0180006772 0.0100010047
  endloop
 endfacet

 facet normal -0.636106372 -0.691052318 -0.343242615
  outer loop
  vertex -0.113772579 -0.0180006772 0.0100010047
  vertex -0.112391904 -0.0172346234 0.00590000022
  vertex -0.113356464 -0.0183837023 0.0100010047
  endloop
 endfacet

 facet normal -0.677251518 -0.735751569 0
  outer loop
  vertex -0.113772579 -0.0180006772 0.0100010047
  vertex -0.113356464 -0.0183837023 0.0100010047
  vertex -0.113356464 -0.0183837023 0.0149900112
  endloop
 endfacet

 facet normal -0.677251518 -0.735751569 0
  outer loop
  vertex -0.113772579 -0.0180006772 0.0100010047
  vertex -0.113356464 -0.0183837023 0.0149900112
  vertex -0.113772579 -0.0180006772 0.0149900112
  endloop
 endfacet

 facet normal -0.606449246 0.795122266 0
  outer loop
  vertex -0.113357738 -0.00842755474 0.0100010047
  vertex -0.113357738 -0.00842755474 0.0149900112
  vertex -0.112907268 -0.00808397587 0.0149900112
  endloop
 endfacet

 facet normal -0.606449246 0.795122266 0
  outer loop
  vertex -0.113357738 -0.00842755474 0.0100010047
  vertex -0.112907268 -0.00808397587 0.0149900112
  vertex -0.112907268 -0.00808397587 0.0100010047
  endloop
 endfacet

 facet normal -0.569608569 0.746820092 -0.343228489
  outer loop
  vertex -0.113357738 -0.00842755474 0.0100010047
  vertex -0.112907268 -0.00808397587 0.0100010047
  vertex -0.112393171 -0.0095766345 0.00590000022
  endloop
 endfacet

 facet normal -0.569218755 0.747094035 -0.343279302
  outer loop
  vertex -0.112393171 -0.0095766345 0.00590000022
  vertex -0.112907268 -0.00808397587 0.0100010047
  vertex -0.11204578 -0.0093119517 0.00590000022
  endloop
 endfacet

 facet normal -0.572264552 -0.744764686 -0.343276829
  outer loop
  vertex -0.112391904 -0.0172346234 0.00590000022
  vertex -0.11204578 -0.0175005794 0.00590000022
  vertex -0.113356464 -0.0183837023 0.0100010047
  endloop
 endfacet

 facet normal -0.609277368 -0.792957187 0
  outer loop
  vertex -0.113356464 -0.0183837023 0.0100010047
  vertex -0.112905994 -0.0187298264 0.0100010047
  vertex -0.112905994 -0.0187298264 0.0149900112
  endloop
 endfacet

 facet normal -0.609277368 -0.792957187 0
  outer loop
  vertex -0.113356464 -0.0183837023 0.0100010047
  vertex -0.112905994 -0.0187298264 0.0149900112
  vertex -0.113356464 -0.0183837023 0.0149900112
  endloop
 endfacet

 facet normal -0.572254479 -0.744772971 -0.343275368
  outer loop
  vertex -0.113356464 -0.0183837023 0.0100010047
  vertex -0.11204578 -0.0175005794 0.00590000022
  vertex -0.112905994 -0.0187298264 0.0100010047
  endloop
 endfacet

 facet normal -0.539625823 0.841904998 0
  outer loop
  vertex -0.112907268 -0.00808397587 0.0100010047
  vertex -0.112907268 -0.00808397587 0.0149900112
  vertex -0.112428807 -0.0077773002 0.0149900112
  endloop
 endfacet

 facet normal -0.539625823 0.841904998 0
  outer loop
  vertex -0.112907268 -0.00808397587 0.0100010047
  vertex -0.112428807 -0.0077773002 0.0149900112
  vertex -0.112428807 -0.0077773002 0.0100010047
  endloop
 endfacet

 facet normal -0.506857693 0.790781379 -0.343161732
  outer loop
  vertex -0.112907268 -0.00808397587 0.0100010047
  vertex -0.112428807 -0.0077773002 0.0100010047
  vertex -0.111679293 -0.00907653663 0.00590000022
  endloop
 endfacet

 facet normal -0.507622242 0.790247619 -0.343261421
  outer loop
  vertex -0.112907268 -0.00808397587 0.0100010047
  vertex -0.111679293 -0.00907653663 0.00590000022
  vertex -0.11204578 -0.0093119517 0.00590000022
  endloop
 endfacet

 facet normal -0.50441426 -0.792264402 -0.343341529
  outer loop
  vertex -0.11204578 -0.0175005794 0.00590000022
  vertex -0.111678019 -0.0177347213 0.00590000022
  vertex -0.112428807 -0.0190339573 0.0100010047
  endloop
 endfacet

 facet normal -0.504795969 -0.792041898 -0.343293995
  outer loop
  vertex -0.11204578 -0.0175005794 0.00590000022
  vertex -0.112428807 -0.0190339573 0.0100010047
  vertex -0.112905994 -0.0187298264 0.0100010047
  endloop
 endfacet

 facet normal -0.53745842 -0.843290329 0
  outer loop
  vertex -0.112905994 -0.0187298264 0.0100010047
  vertex -0.112428807 -0.0190339573 0.0100010047
  vertex -0.112428807 -0.0190339573 0.0149900112
  endloop
 endfacet

 facet normal -0.53745842 -0.843290329 0
  outer loop
  vertex -0.112905994 -0.0187298264 0.0100010047
  vertex -0.112428807 -0.0190339573 0.0149900112
  vertex -0.112905994 -0.0187298264 0.0149900112
  endloop
 endfacet

 facet normal -0.460644573 0.887584686 0
  outer loop
  vertex -0.112428807 -0.0077773002 0.0100010047
  vertex -0.112428807 -0.0077773002 0.0149900112
  vertex -0.111926161 -0.00751643535 0.0149900112
  endloop
 endfacet

 facet normal -0.460644573 0.887584686 0
  outer loop
  vertex -0.112428807 -0.0077773002 0.0100010047
  vertex -0.111926161 -0.00751643535 0.0149900112
  vertex -0.111926161 -0.00751643535 0.0100010047
  endloop
 endfacet

 facet normal -0.432667345 0.833677411 -0.343192279
  outer loop
  vertex -0.112428807 -0.0077773002 0.0100010047
  vertex -0.111926161 -0.00751643535 0.0100010047
  vertex -0.111679293 -0.00907653663 0.00590000022
  endloop
 endfacet

 facet normal -0.432027698 0.833977878 -0.343268126
  outer loop
  vertex -0.111679293 -0.00907653663 0.00590000022
  vertex -0.111926161 -0.00751643535 0.0100010047
  vertex -0.111291178 -0.00887547992 0.00590000022
  endloop
 endfacet

 facet normal -0.433137149 -0.833381355 -0.34331879
  outer loop
  vertex -0.111678019 -0.0177347213 0.00590000022
  vertex -0.111291178 -0.0179357771 0.00590000022
  vertex -0.112428807 -0.0190339573 0.0100010047
  endloop
 endfacet

 facet normal -0.459725916 -0.888060927 0
  outer loop
  vertex -0.112428807 -0.0190339573 0.0100010047
  vertex -0.111924887 -0.0192948207 0.0100010047
  vertex -0.111924887 -0.0192948207 0.0149900112
  endloop
 endfacet

 facet normal -0.459725916 -0.888060927 0
  outer loop
  vertex -0.112428807 -0.0190339573 0.0100010047
  vertex -0.111924887 -0.0192948207 0.0149900112
  vertex -0.112428807 -0.0190339573 0.0149900112
  endloop
 endfacet

 facet normal -0.431811035 -0.834137321 -0.343153358
  outer loop
  vertex -0.112428807 -0.0190339573 0.0100010047
  vertex -0.111291178 -0.0179357771 0.00590000022
  vertex -0.111924887 -0.0192948207 0.0100010047
  endloop
 endfacet

 facet normal -0.384136975 0.923276246 0
  outer loop
  vertex -0.111926161 -0.00751643535 0.0100010047
  vertex -0.111926161 -0.00751643535 0.0149900112
  vertex -0.11140316 -0.00729883555 0.0149900112
  endloop
 endfacet

 facet normal -0.384136975 0.923276246 0
  outer loop
  vertex -0.111926161 -0.00751643535 0.0100010047
  vertex -0.11140316 -0.00729883555 0.0149900112
  vertex -0.11140316 -0.00729883555 0.0100010047
  endloop
 endfacet

 facet normal -0.360799253 0.867183864 -0.343243569
  outer loop
  vertex -0.111926161 -0.00751643535 0.0100010047
  vertex -0.11140316 -0.00729883555 0.0100010047
  vertex -0.111291178 -0.00887547992 0.00590000022
  endloop
 endfacet

 facet normal -0.359669805 0.867601573 -0.343373358
  outer loop
  vertex -0.111291178 -0.00887547992 0.00590000022
  vertex -0.11140316 -0.00729883555 0.0100010047
  vertex -0.110889062 -0.00870878063 0.00590000022
  endloop
 endfacet

 facet normal -0.359685272 -0.867634058 -0.343274832
  outer loop
  vertex -0.111291178 -0.0179357771 0.00590000022
  vertex -0.110889062 -0.0181024764 0.00590000022
  vertex -0.111401886 -0.0195124224 0.0100010047
  endloop
 endfacet

 facet normal -0.360814422 -0.867216587 -0.343144834
  outer loop
  vertex -0.111291178 -0.0179357771 0.00590000022
  vertex -0.111401886 -0.0195124224 0.0100010047
  vertex -0.111924887 -0.0192948207 0.0100010047
  endloop
 endfacet

 facet normal -0.384138286 -0.92327559 0
  outer loop
  vertex -0.111924887 -0.0192948207 0.0100010047
  vertex -0.111401886 -0.0195124224 0.0100010047
  vertex -0.111401886 -0.0195124224 0.0149900112
  endloop
 endfacet

 facet normal -0.384138286 -0.92327559 0
  outer loop
  vertex -0.111924887 -0.0192948207 0.0100010047
  vertex -0.111401886 -0.0195124224 0.0149900112
  vertex -0.111924887 -0.0192948207 0.0149900112
  endloop
 endfacet

 facet normal -0.300701797 0.953718185 0
  outer loop
  vertex -0.11140316 -0.00729883555 0.0100010047
  vertex -0.11140316 -0.00729883555 0.0149900112
  vertex -0.110862337 -0.00712831831 0.0149900112
  endloop
 endfacet

 facet normal -0.300701797 0.953718185 0
  outer loop
  vertex -0.11140316 -0.00729883555 0.0100010047
  vertex -0.110862337 -0.00712831831 0.0149900112
  vertex -0.110862337 -0.00712831831 0.0100010047
  endloop
 endfacet

 facet normal -0.282420099 0.895735204 -0.343361914
  outer loop
  vertex -0.11140316 -0.00729883555 0.0100010047
  vertex -0.110862337 -0.00712831831 0.0100010047
  vertex -0.110889062 -0.00870878063 0.00590000022
  endloop
 endfacet

 facet normal -0.282164633 0.895804763 -0.343390405
  outer loop
  vertex -0.110889062 -0.00870878063 0.00590000022
  vertex -0.110862337 -0.00712831831 0.0100010047
  vertex -0.110472955 -0.00857771188 0.00590000022
  endloop
 endfacet

 facet normal -0.282176673 -0.895842969 -0.343280882
  outer loop
  vertex -0.110889062 -0.0181024764 0.00590000022
  vertex -0.110472955 -0.0182335451 0.00590000022
  vertex -0.111401886 -0.0195124224 0.0100010047
  endloop
 endfacet

 facet normal -0.300059378 -0.953920543 0
  outer loop
  vertex -0.111401886 -0.0195124224 0.0100010047
  vertex -0.110859796 -0.0196829401 0.0100010047
  vertex -0.110859796 -0.0196829401 0.0149900112
  endloop
 endfacet

 facet normal -0.300059378 -0.953920543 0
  outer loop
  vertex -0.111401886 -0.0195124224 0.0100010047
  vertex -0.110859796 -0.0196829401 0.0149900112
  vertex -0.111401886 -0.0195124224 0.0149900112
  endloop
 endfacet

 facet normal -0.281830013 -0.895967364 -0.343241096
  outer loop
  vertex -0.111401886 -0.0195124224 0.0100010047
  vertex -0.110472955 -0.0182335451 0.00590000022
  vertex -0.110859796 -0.0196829401 0.0100010047
  endloop
 endfacet

 facet normal -0.214096412 0.976812541 0
  outer loop
  vertex -0.110862337 -0.00712831831 0.0100010047
  vertex -0.110862337 -0.00712831831 0.0149900112
  vertex -0.110304981 -0.00700615719 0.0149900112
  endloop
 endfacet

 facet normal -0.214096412 0.976812541 0
  outer loop
  vertex -0.110862337 -0.00712831831 0.0100010047
  vertex -0.110304981 -0.00700615719 0.0149900112
  vertex -0.110304981 -0.00700615719 0.0100010047
  endloop
 endfacet

 facet normal -0.201093361 0.91748631 -0.343191564
  outer loop
  vertex -0.110862337 -0.00712831831 0.0100010047
  vertex -0.110304981 -0.00700615719 0.0100010047
  vertex -0.110046662 -0.00848354585 0.00590000022
  endloop
 endfacet

 facet normal -0.202583596 0.91709578 -0.343358934
  outer loop
  vertex -0.110862337 -0.00712831831 0.0100010047
  vertex -0.110046662 -0.00848354585 0.00590000022
  vertex -0.110472955 -0.00857771188 0.00590000022
  endloop
 endfacet

 facet normal -0.205196083 -0.916542768 -0.34328422
  outer loop
  vertex -0.110472955 -0.0182335451 0.00590000022
  vertex -0.110046662 -0.0183289833 0.00590000022
  vertex -0.110859796 -0.0196829401 0.0100010047
  endloop
 endfacet

 facet normal -0.215034962 -0.976606309 0
  outer loop
  vertex -0.110859796 -0.0196829401 0.0100010047
  vertex -0.110304981 -0.0198051017 0.0100010047
  vertex -0.110304981 -0.0198051017 0.0149900112
  endloop
 endfacet

 facet normal -0.215034962 -0.976606309 0
  outer loop
  vertex -0.110859796 -0.0196829401 0.0100010047
  vertex -0.110304981 -0.0198051017 0.0149900112
  vertex -0.110859796 -0.0196829401 0.0149900112
  endloop
 endfacet

 facet normal -0.201995596 -0.917386532 -0.342928171
  outer loop
  vertex -0.110859796 -0.0196829401 0.0100010047
  vertex -0.110046662 -0.0183289833 0.00590000022
  vertex -0.110304981 -0.0198051017 0.0100010047
  endloop
 endfacet

 facet normal -0.130396351 0.991462052 0
  outer loop
  vertex -0.110304981 -0.00700615719 0.0100010047
  vertex -0.110304981 -0.00700615719 0.0149900112
  vertex -0.109743804 -0.00693235127 0.0149900112
  endloop
 endfacet

 facet normal -0.130396351 0.991462052 0
  outer loop
  vertex -0.110304981 -0.00700615719 0.0100010047
  vertex -0.109743804 -0.00693235127 0.0149900112
  vertex -0.109743804 -0.00693235127 0.0100010047
  endloop
 endfacet

 facet normal -0.12248002 0.93127054 -0.343123615
  outer loop
  vertex -0.110304981 -0.00700615719 0.0100010047
  vertex -0.109743804 -0.00693235127 0.0100010047
  vertex -0.109614007 -0.00842628162 0.00590000022
  endloop
 endfacet

 facet normal -0.123239808 0.931139886 -0.343206376
  outer loop
  vertex -0.110304981 -0.00700615719 0.0100010047
  vertex -0.109614007 -0.00842628162 0.00590000022
  vertex -0.110046662 -0.00848354585 0.00590000022
  endloop
 endfacet

 facet normal -0.12055067 -0.931512296 -0.343150824
  outer loop
  vertex -0.110046662 -0.0183289833 0.00590000022
  vertex -0.109614007 -0.0183849763 0.00590000022
  vertex -0.109743804 -0.0198789071 0.0100010047
  endloop
 endfacet

 facet normal -0.122488715 -0.931336701 -0.342941284
  outer loop
  vertex -0.110046662 -0.0183289833 0.00590000022
  vertex -0.109743804 -0.0198789071 0.0100010047
  vertex -0.110304981 -0.0198051017 0.0100010047
  endloop
 endfacet

 facet normal -0.130396351 -0.991462052 0
  outer loop
  vertex -0.110304981 -0.0198051017 0.0100010047
  vertex -0.109743804 -0.0198789071 0.0100010047
  vertex -0.109743804 -0.0198789071 0.0149900112
  endloop
 endfacet

 facet normal -0.130396351 -0.991462052 0
  outer loop
  vertex -0.110304981 -0.0198051017 0.0100010047
  vertex -0.109743804 -0.0198789071 0.0149900112
  vertex -0.110304981 -0.0198051017 0.0149900112
  endloop
 endfacet

 facet normal -0.0473512262 0.99887836 0
  outer loop
  vertex -0.109743804 -0.00693235127 0.0100010047
  vertex -0.109743804 -0.00693235127 0.0149900112
  vertex -0.109180078 -0.00690562837 0.0149900112
  endloop
 endfacet

 facet normal -0.0473512262 0.99887836 0
  outer loop
  vertex -0.109743804 -0.00693235127 0.0100010047
  vertex -0.109180078 -0.00690562837 0.0149900112
  vertex -0.109180078 -0.00690562837 0.0100010047
  endloop
 endfacet

 facet normal -0.0444754995 0.9382146 -0.343184352
  outer loop
  vertex -0.109743804 -0.00693235127 0.0100010047
  vertex -0.109180078 -0.00690562837 0.0100010047
  vertex -0.109614007 -0.00842628162 0.00590000022
  endloop
 endfacet

 facet normal -0.0412696861 0.93823421 -0.343530834
  outer loop
  vertex -0.109614007 -0.00842628162 0.00590000022
  vertex -0.109180078 -0.00690562837 0.0100010047
  vertex -0.109180078 -0.0084071951 0.00590000022
  endloop
 endfacet

 facet normal -0.0440210328 -0.938217878 -0.343233675
  outer loop
  vertex -0.109614007 -0.0183849763 0.00590000022
  vertex -0.109180078 -0.018405335 0.00590000022
  vertex -0.109180078 -0.0199056286 0.0100010047
  endloop
 endfacet

 facet normal -0.044473961 -0.93821454 -0.343184471
  outer loop
  vertex -0.109614007 -0.0183849763 0.00590000022
  vertex -0.109180078 -0.0199056286 0.0100010047
  vertex -0.109743804 -0.0198789071 0.0100010047
  endloop
 endfacet

 facet normal -0.0473495983 -0.998878419 0
  outer loop
  vertex -0.109743804 -0.0198789071 0.0100010047
  vertex -0.109180078 -0.0199056286 0.0100010047
  vertex -0.109180078 -0.0199056286 0.0149900112
  endloop
 endfacet

 facet normal -0.0473495983 -0.998878419 0
  outer loop
  vertex -0.109743804 -0.0198789071 0.0100010047
  vertex -0.109180078 -0.0199056286 0.0149900112
  vertex -0.109743804 -0.0198789071 0.0149900112
  endloop
 endfacet

 facet normal 0.0444754995 0.9382146 -0.343184352
  outer loop
  vertex -0.109180078 -0.00690562837 0.0100010047
  vertex -0.108616352 -0.00693235127 0.0100010047
  vertex -0.108746149 -0.00842628162 0.00590000022
  endloop
 endfacet

 facet normal 0.0412696861 0.93823421 -0.343530834
  outer loop
  vertex -0.109180078 -0.00690562837 0.0100010047
  vertex -0.108746149 -0.00842628162 0.00590000022
  vertex -0.109180078 -0.0084071951 0.00590000022
  endloop
 endfacet

 facet normal 0.0473512262 0.99887836 0
  outer loop
  vertex -0.109180078 -0.00690562837 0.0100010047
  vertex -0.109180078 -0.00690562837 0.0149900112
  vertex -0.108616352 -0.00693235127 0.0149900112
  endloop
 endfacet

 facet normal 0.0473512262 0.99887836 0
  outer loop
  vertex -0.109180078 -0.00690562837 0.0100010047
  vertex -0.108616352 -0.00693235127 0.0149900112
  vertex -0.108616352 -0.00693235127 0.0100010047
  endloop
 endfacet

 facet normal 0.0440210328 -0.938217878 -0.343233675
  outer loop
  vertex -0.109180078 -0.018405335 0.00590000022
  vertex -0.108746149 -0.0183849763 0.00590000022
  vertex -0.109180078 -0.0199056286 0.0100010047
  endloop
 endfacet

 facet normal 0.044473961 -0.93821454 -0.343184471
  outer loop
  vertex -0.109180078 -0.0199056286 0.0100010047
  vertex -0.108746149 -0.0183849763 0.00590000022
  vertex -0.108616352 -0.0198789071 0.0100010047
  endloop
 endfacet

 facet normal 0.0473495983 -0.998878419 0
  outer loop
  vertex -0.109180078 -0.0199056286 0.0100010047
  vertex -0.108616352 -0.0198789071 0.0100010047
  vertex -0.108616352 -0.0198789071 0.0149900112
  endloop
 endfacet

 facet normal 0.0473495983 -0.998878419 0
  outer loop
  vertex -0.109180078 -0.0199056286 0.0100010047
  vertex -0.108616352 -0.0198789071 0.0149900112
  vertex -0.109180078 -0.0199056286 0.0149900112
  endloop
 endfacet

 facet normal 0.12248002 0.93127054 -0.343123615
  outer loop
  vertex -0.108616352 -0.00693235127 0.0100010047
  vertex -0.108055174 -0.00700615719 0.0100010047
  vertex -0.108746149 -0.00842628162 0.00590000022
  endloop
 endfacet

 facet normal 0.130396351 0.991462052 0
  outer loop
  vertex -0.108616352 -0.00693235127 0.0100010047
  vertex -0.108616352 -0.00693235127 0.0149900112
  vertex -0.108055174 -0.00700615719 0.0149900112
  endloop
 endfacet

 facet normal 0.130396351 0.991462052 0
  outer loop
  vertex -0.108616352 -0.00693235127 0.0100010047
  vertex -0.108055174 -0.00700615719 0.0149900112
  vertex -0.108055174 -0.00700615719 0.0100010047
  endloop
 endfacet

 facet normal 0.123239808 0.931139886 -0.343206376
  outer loop
  vertex -0.108746149 -0.00842628162 0.00590000022
  vertex -0.108055174 -0.00700615719 0.0100010047
  vertex -0.108313493 -0.00848354585 0.00590000022
  endloop
 endfacet

 facet normal 0.120900705 -0.931468785 -0.343145996
  outer loop
  vertex -0.108746149 -0.0183849763 0.00590000022
  vertex -0.108314767 -0.0183289833 0.00590000022
  vertex -0.108616352 -0.0198789071 0.0100010047
  endloop
 endfacet

 facet normal 0.122487098 -0.931324422 -0.342974842
  outer loop
  vertex -0.108616352 -0.0198789071 0.0100010047
  vertex -0.108314767 -0.0183289833 0.00590000022
  vertex -0.108055174 -0.0198051017 0.0100010047
  endloop
 endfacet

 facet normal 0.130396351 -0.991462052 0
  outer loop
  vertex -0.108616352 -0.0198789071 0.0100010047
  vertex -0.108055174 -0.0198051017 0.0100010047
  vertex -0.108055174 -0.0198051017 0.0149900112
  endloop
 endfacet

 facet normal 0.130396351 -0.991462052 0
  outer loop
  vertex -0.108616352 -0.0198789071 0.0100010047
  vertex -0.108055174 -0.0198051017 0.0149900112
  vertex -0.108616352 -0.0198789071 0.0149900112
  endloop
 endfacet

 facet normal 0.214096412 0.976812541 0
  outer loop
  vertex -0.108055174 -0.00700615719 0.0100010047
  vertex -0.108055174 -0.00700615719 0.0149900112
  vertex -0.107497811 -0.00712831831 0.0149900112
  endloop
 endfacet

 facet normal 0.214096412 0.976812541 0
  outer loop
  vertex -0.108055174 -0.00700615719 0.0100010047
  vertex -0.107497811 -0.00712831831 0.0149900112
  vertex -0.107497811 -0.00712831831 0.0100010047
  endloop
 endfacet

 facet normal 0.201093361 0.91748631 -0.343191564
  outer loop
  vertex -0.108055174 -0.00700615719 0.0100010047
  vertex -0.107497811 -0.00712831831 0.0100010047
  vertex -0.108313493 -0.00848354585 0.00590000022
  endloop
 endfacet

 facet normal 0.202583596 0.91709578 -0.343358934
  outer loop
  vertex -0.108313493 -0.00848354585 0.00590000022
  vertex -0.107497811 -0.00712831831 0.0100010047
  vertex -0.107887201 -0.00857771188 0.00590000022
  endloop
 endfacet

 facet normal 0.204614878 -0.916675568 -0.343276322
  outer loop
  vertex -0.108314767 -0.0183289833 0.00590000022
  vertex -0.107887201 -0.0182335451 0.00590000022
  vertex -0.107500359 -0.0196829401 0.0100010047
  endloop
 endfacet

 facet normal 0.20199126 -0.917366862 -0.342983484
  outer loop
  vertex -0.108314767 -0.0183289833 0.00590000022
  vertex -0.107500359 -0.0196829401 0.0100010047
  vertex -0.108055174 -0.0198051017 0.0100010047
  endloop
 endfacet

 facet normal 0.215034962 -0.976606309 0
  outer loop
  vertex -0.108055174 -0.0198051017 0.0100010047
  vertex -0.107500359 -0.0196829401 0.0100010047
  vertex -0.107500359 -0.0196829401 0.0149900112
  endloop
 endfacet

 facet normal 0.215034962 -0.976606309 0
  outer loop
  vertex -0.108055174 -0.0198051017 0.0100010047
  vertex -0.107500359 -0.0196829401 0.0149900112
  vertex -0.108055174 -0.0198051017 0.0149900112
  endloop
 endfacet

 facet normal 0.282420099 0.895735204 -0.343361914
  outer loop
  vertex -0.107497811 -0.00712831831 0.0100010047
  vertex -0.106956996 -0.00729883555 0.0100010047
  vertex -0.107471094 -0.00870878063 0.00590000022
  endloop
 endfacet

 facet normal 0.282164633 0.895804763 -0.343390405
  outer loop
  vertex -0.107497811 -0.00712831831 0.0100010047
  vertex -0.107471094 -0.00870878063 0.00590000022
  vertex -0.107887201 -0.00857771188 0.00590000022
  endloop
 endfacet

 facet normal 0.300701797 0.953718185 0
  outer loop
  vertex -0.107497811 -0.00712831831 0.0100010047
  vertex -0.107497811 -0.00712831831 0.0149900112
  vertex -0.106956996 -0.00729883555 0.0149900112
  endloop
 endfacet

 facet normal 0.300701797 0.953718185 0
  outer loop
  vertex -0.107497811 -0.00712831831 0.0100010047
  vertex -0.106956996 -0.00729883555 0.0149900112
  vertex -0.106956996 -0.00729883555 0.0100010047
  endloop
 endfacet

 facet normal 0.282176673 -0.895842969 -0.343280882
  outer loop
  vertex -0.107887201 -0.0182335451 0.00590000022
  vertex -0.107471094 -0.0181024764 0.00590000022
  vertex -0.10695827 -0.0195124224 0.0100010047
  endloop
 endfacet

 facet normal 0.281830013 -0.895967364 -0.343241096
  outer loop
  vertex -0.107887201 -0.0182335451 0.00590000022
  vertex -0.10695827 -0.0195124224 0.0100010047
  vertex -0.107500359 -0.0196829401 0.0100010047
  endloop
 endfacet

 facet normal 0.300059378 -0.953920543 0
  outer loop
  vertex -0.107500359 -0.0196829401 0.0100010047
  vertex -0.10695827 -0.0195124224 0.0100010047
  vertex -0.10695827 -0.0195124224 0.0149900112
  endloop
 endfacet

 facet normal 0.300059378 -0.953920543 0
  outer loop
  vertex -0.107500359 -0.0196829401 0.0100010047
  vertex -0.10695827 -0.0195124224 0.0149900112
  vertex -0.107500359 -0.0196829401 0.0149900112
  endloop
 endfacet

 facet normal 0.384136975 0.923276246 0
  outer loop
  vertex -0.106956996 -0.00729883555 0.0100010047
  vertex -0.106956996 -0.00729883555 0.0149900112
  vertex -0.106433995 -0.00751643535 0.0149900112
  endloop
 endfacet

 facet normal 0.384136975 0.923276246 0
  outer loop
  vertex -0.106956996 -0.00729883555 0.0100010047
  vertex -0.106433995 -0.00751643535 0.0149900112
  vertex -0.106433995 -0.00751643535 0.0100010047
  endloop
 endfacet

 facet normal 0.360813081 0.867217183 -0.343144774
  outer loop
  vertex -0.106956996 -0.00729883555 0.0100010047
  vertex -0.106433995 -0.00751643535 0.0100010047
  vertex -0.107067704 -0.00887547992 0.00590000022
  endloop
 endfacet

 facet normal 0.358698666 0.867997766 -0.343387783
  outer loop
  vertex -0.106956996 -0.00729883555 0.0100010047
  vertex -0.107067704 -0.00887547992 0.00590000022
  vertex -0.107471094 -0.00870878063 0.00590000022
  endloop
 endfacet

 facet normal 0.359685272 -0.867634058 -0.343274832
  outer loop
  vertex -0.107471094 -0.0181024764 0.00590000022
  vertex -0.107068978 -0.0179357771 0.00590000022
  vertex -0.10695827 -0.0195124224 0.0100010047
  endloop
 endfacet

 facet normal 0.384138286 -0.92327559 0
  outer loop
  vertex -0.10695827 -0.0195124224 0.0100010047
  vertex -0.106435269 -0.0192948207 0.0100010047
  vertex -0.106435269 -0.0192948207 0.0149900112
  endloop
 endfacet

 facet normal 0.384138286 -0.92327559 0
  outer loop
  vertex -0.10695827 -0.0195124224 0.0100010047
  vertex -0.106435269 -0.0192948207 0.0149900112
  vertex -0.10695827 -0.0195124224 0.0149900112
  endloop
 endfacet

 facet normal 0.360814422 -0.867216587 -0.343144834
  outer loop
  vertex -0.10695827 -0.0195124224 0.0100010047
  vertex -0.107068978 -0.0179357771 0.00590000022
  vertex -0.106435269 -0.0192948207 0.0100010047
  endloop
 endfacet

 facet normal 0.459727168 0.888060272 0
  outer loop
  vertex -0.106433995 -0.00751643535 0.0100010047
  vertex -0.106433995 -0.00751643535 0.0149900112
  vertex -0.105930075 -0.0077773002 0.0149900112
  endloop
 endfacet

 facet normal 0.459727168 0.888060272 0
  outer loop
  vertex -0.106433995 -0.00751643535 0.0100010047
  vertex -0.105930075 -0.0077773002 0.0149900112
  vertex -0.105930075 -0.0077773002 0.0100010047
  endloop
 endfacet

 facet normal 0.431812257 0.834136665 -0.343153358
  outer loop
  vertex -0.106433995 -0.00751643535 0.0100010047
  vertex -0.105930075 -0.0077773002 0.0100010047
  vertex -0.107067704 -0.00887547992 0.00590000022
  endloop
 endfacet

 facet normal 0.434240192 0.832750678 -0.343455732
  outer loop
  vertex -0.107067704 -0.00887547992 0.00590000022
  vertex -0.105930075 -0.0077773002 0.0100010047
  vertex -0.106682137 -0.00907653663 0.00590000022
  endloop
 endfacet

 facet normal 0.433137149 -0.833381355 -0.34331879
  outer loop
  vertex -0.107068978 -0.0179357771 0.00590000022
  vertex -0.106682137 -0.0177347213 0.00590000022
  vertex -0.105931349 -0.0190339573 0.0100010047
  endloop
 endfacet

 facet normal 0.431811035 -0.834137321 -0.343153358
  outer loop
  vertex -0.107068978 -0.0179357771 0.00590000022
  vertex -0.105931349 -0.0190339573 0.0100010047
  vertex -0.106435269 -0.0192948207 0.0100010047
  endloop
 endfacet

 facet normal 0.459725916 -0.888060927 0
  outer loop
  vertex -0.106435269 -0.0192948207 0.0100010047
  vertex -0.105931349 -0.0190339573 0.0100010047
  vertex -0.105931349 -0.0190339573 0.0149900112
  endloop
 endfacet

 facet normal 0.459725916 -0.888060927 0
  outer loop
  vertex -0.106435269 -0.0192948207 0.0100010047
  vertex -0.105931349 -0.0190339573 0.0149900112
  vertex -0.106435269 -0.0192948207 0.0149900112
  endloop
 endfacet

 facet normal 0.540644825 0.841251016 0
  outer loop
  vertex -0.105930075 -0.0077773002 0.0100010047
  vertex -0.105930075 -0.0077773002 0.0149900112
  vertex -0.105452888 -0.00808397587 0.0149900112
  endloop
 endfacet

 facet normal 0.540644825 0.841251016 0
  outer loop
  vertex -0.105930075 -0.0077773002 0.0100010047
  vertex -0.105452888 -0.00808397587 0.0149900112
  vertex -0.105452888 -0.00808397587 0.0100010047
  endloop
 endfacet

 facet normal 0.507794738 0.790135622 -0.343264163
  outer loop
  vertex -0.105930075 -0.0077773002 0.0100010047
  vertex -0.105452888 -0.00808397587 0.0100010047
  vertex -0.106314376 -0.0093119517 0.00590000022
  endloop
 endfacet

 facet normal 0.506340027 0.790989161 -0.343447208
  outer loop
  vertex -0.105930075 -0.0077773002 0.0100010047
  vertex -0.106314376 -0.0093119517 0.00590000022
  vertex -0.106682137 -0.00907653663 0.00590000022
  endloop
 endfacet

 facet normal 0.50441426 -0.792264402 -0.343341529
  outer loop
  vertex -0.106682137 -0.0177347213 0.00590000022
  vertex -0.106314376 -0.0175005794 0.00590000022
  vertex -0.105931349 -0.0190339573 0.0100010047
  endloop
 endfacet

 facet normal 0.53745842 -0.843290329 0
  outer loop
  vertex -0.105931349 -0.0190339573 0.0100010047
  vertex -0.105454162 -0.0187298264 0.0100010047
  vertex -0.105454162 -0.0187298264 0.0149900112
  endloop
 endfacet

 facet normal 0.53745842 -0.843290329 0
  outer loop
  vertex -0.105931349 -0.0190339573 0.0100010047
  vertex -0.105454162 -0.0187298264 0.0149900112
  vertex -0.105931349 -0.0190339573 0.0149900112
  endloop
 endfacet

 facet normal 0.504795969 -0.792041898 -0.343293995
  outer loop
  vertex -0.105931349 -0.0190339573 0.0100010047
  vertex -0.106314376 -0.0175005794 0.00590000022
  vertex -0.105454162 -0.0187298264 0.0100010047
  endloop
 endfacet

 facet normal 0.606449246 0.795122266 0
  outer loop
  vertex -0.105452888 -0.00808397587 0.0100010047
  vertex -0.105452888 -0.00808397587 0.0149900112
  vertex -0.105002418 -0.00842755474 0.0149900112
  endloop
 endfacet

 facet normal 0.606449246 0.795122266 0
  outer loop
  vertex -0.105452888 -0.00808397587 0.0100010047
  vertex -0.105002418 -0.00842755474 0.0149900112
  vertex -0.105002418 -0.00842755474 0.0100010047
  endloop
 endfacet

 facet normal 0.569608569 0.746820092 -0.343228489
  outer loop
  vertex -0.105452888 -0.00808397587 0.0100010047
  vertex -0.105002418 -0.00842755474 0.0100010047
  vertex -0.105966985 -0.0095766345 0.00590000022
  endloop
 endfacet

 facet normal 0.569218755 0.747094035 -0.343279302
  outer loop
  vertex -0.105452888 -0.00808397587 0.0100010047
  vertex -0.105966985 -0.0095766345 0.00590000022
  vertex -0.106314376 -0.0093119517 0.00590000022
  endloop
 endfacet

 facet normal 0.572264552 -0.744764686 -0.343276829
  outer loop
  vertex -0.106314376 -0.0175005794 0.00590000022
  vertex -0.105968252 -0.0172346234 0.00590000022
  vertex -0.105003685 -0.0183837023 0.0100010047
  endloop
 endfacet

 facet normal 0.572254479 -0.744772971 -0.343275368
  outer loop
  vertex -0.106314376 -0.0175005794 0.00590000022
  vertex -0.105003685 -0.0183837023 0.0100010047
  vertex -0.105454162 -0.0187298264 0.0100010047
  endloop
 endfacet

 facet normal 0.609277368 -0.792957187 0
  outer loop
  vertex -0.105454162 -0.0187298264 0.0100010047
  vertex -0.105003685 -0.0183837023 0.0100010047
  vertex -0.105003685 -0.0183837023 0.0149900112
  endloop
 endfacet

 facet normal 0.609277368 -0.792957187 0
  outer loop
  vertex -0.105454162 -0.0187298264 0.0100010047
  vertex -0.105003685 -0.0183837023 0.0149900112
  vertex -0.105454162 -0.0187298264 0.0149900112
  endloop
 endfacet

 facet normal 0.63716507 0.690086722 -0.343221515
  outer loop
  vertex -0.105002418 -0.00842755474 0.0100010047
  vertex -0.104587577 -0.00881058164 0.0100010047
  vertex -0.105966985 -0.0095766345 0.00590000022
  endloop
 endfacet

 facet normal 0.678373218 0.734717548 0
  outer loop
  vertex -0.105002418 -0.00842755474 0.0100010047
  vertex -0.105002418 -0.00842755474 0.0149900112
  vertex -0.104587577 -0.00881058164 0.0149900112
  endloop
 endfacet

 facet normal 0.678373218 0.734717548 0
  outer loop
  vertex -0.105002418 -0.00842755474 0.0100010047
  vertex -0.104587577 -0.00881058164 0.0149900112
  vertex -0.104587577 -0.00881058164 0.0100010047
  endloop
 endfacet

 facet normal 0.637520313 0.689732134 -0.343274802
  outer loop
  vertex -0.105966985 -0.0095766345 0.00590000022
  vertex -0.104587577 -0.00881058164 0.0100010047
  vertex -0.105647579 -0.00987185817 0.00590000022
  endloop
 endfacet

 facet normal 0.636105478 -0.691053033 -0.343242615
  outer loop
  vertex -0.105968252 -0.0172346234 0.00590000022
  vertex -0.104587577 -0.0180006772 0.0100010047
  vertex -0.105003685 -0.0183837023 0.0100010047
  endloop
 endfacet

 facet normal 0.636159778 -0.690998971 -0.343250841
  outer loop
  vertex -0.105968252 -0.0172346234 0.00590000022
  vertex -0.105647579 -0.0169393998 0.00590000022
  vertex -0.104587577 -0.0180006772 0.0100010047
  endloop
 endfacet

 facet normal 0.677250743 -0.735752344 0
  outer loop
  vertex -0.105003685 -0.0183837023 0.0100010047
  vertex -0.104587577 -0.0180006772 0.0100010047
  vertex -0.104587577 -0.0180006772 0.0149900112
  endloop
 endfacet

 facet normal 0.677250743 -0.735752344 0
  outer loop
  vertex -0.105003685 -0.0183837023 0.0100010047
  vertex -0.104587577 -0.0180006772 0.0149900112
  vertex -0.105003685 -0.0183837023 0.0149900112
  endloop
 endfacet

 facet normal 0.736689448 0.676231265 0
  outer loop
  vertex -0.104587577 -0.00881058164 0.0100010047
  vertex -0.104587577 -0.00881058164 0.0149900112
  vertex -0.104203276 -0.00922923815 0.0149900112
  endloop
 endfacet

 facet normal 0.736689448 0.676231265 0
  outer loop
  vertex -0.104587577 -0.00881058164 0.0100010047
  vertex -0.104203276 -0.00922923815 0.0149900112
  vertex -0.104203276 -0.00922923815 0.0100010047
  endloop
 endfacet

 facet normal 0.692025781 0.635232985 -0.342898458
  outer loop
  vertex -0.104587577 -0.00881058164 0.0100010047
  vertex -0.104203276 -0.00922923815 0.0100010047
  vertex -0.105351083 -0.0101925312 0.00590000022
  endloop
 endfacet

 facet normal 0.689631164 0.637636065 -0.343262494
  outer loop
  vertex -0.104587577 -0.00881058164 0.0100010047
  vertex -0.105351083 -0.0101925312 0.00590000022
  vertex -0.105647579 -0.00987185817 0.00590000022
  endloop
 endfacet

 facet normal 0.691004872 -0.636161566 -0.343235821
  outer loop
  vertex -0.104587577 -0.0180006772 0.0100010047
  vertex -0.105647579 -0.0169393998 0.00590000022
  vertex -0.105352357 -0.0166187268 0.00590000022
  endloop
 endfacet

 facet normal 0.691975534 -0.63518548 -0.343087882
  outer loop
  vertex -0.104587577 -0.0180006772 0.0100010047
  vertex -0.105352357 -0.0166187268 0.00590000022
  vertex -0.104203276 -0.0175820179 0.0100010047
  endloop
 endfacet

 facet normal 0.736690223 -0.676230431 0
  outer loop
  vertex -0.104587577 -0.0180006772 0.0100010047
  vertex -0.104203276 -0.0175820179 0.0100010047
  vertex -0.104203276 -0.0175820179 0.0149900112
  endloop
 endfacet

 facet normal 0.736690223 -0.676230431 0
  outer loop
  vertex -0.104587577 -0.0180006772 0.0100010047
  vertex -0.104203276 -0.0175820179 0.0149900112
  vertex -0.104587577 -0.0180006772 0.0149900112
  endloop
 endfacet

 facet normal 0.745125711 0.572036505 -0.342873335
  outer loop
  vertex -0.104203276 -0.00922923815 0.0100010047
  vertex -0.103858426 -0.00967843551 0.0100010047
  vertex -0.105085127 -0.0105386553 0.00590000022
  endloop
 endfacet

 facet normal 0.744868994 0.572344661 -0.342916578
  outer loop
  vertex -0.104203276 -0.00922923815 0.0100010047
  vertex -0.105085127 -0.0105386553 0.00590000022
  vertex -0.105351083 -0.0101925312 0.00590000022
  endloop
 endfacet

 facet normal 0.793208599 0.608950019 0
  outer loop
  vertex -0.104203276 -0.00922923815 0.0100010047
  vertex -0.104203276 -0.00922923815 0.0149900112
  vertex -0.103858426 -0.00967843551 0.0149900112
  endloop
 endfacet

 facet normal 0.793208599 0.608950019 0
  outer loop
  vertex -0.104203276 -0.00922923815 0.0100010047
  vertex -0.103858426 -0.00967843551 0.0149900112
  vertex -0.103858426 -0.00967843551 0.0100010047
  endloop
 endfacet

 facet normal 0.744809985 -0.572299361 -0.343120426
  outer loop
  vertex -0.105352357 -0.0166187268 0.00590000022
  vertex -0.105086401 -0.0162726026 0.00590000022
  vertex -0.104203276 -0.0175820179 0.0100010047
  endloop
 endfacet

 facet normal 0.745886326 -0.571004808 -0.34293887
  outer loop
  vertex -0.104203276 -0.0175820179 0.0100010047
  vertex -0.105086401 -0.0162726026 0.00590000022
  vertex -0.103858426 -0.0171315502 0.0100010047
  endloop
 endfacet

 facet normal 0.794038713 -0.607867301 0
  outer loop
  vertex -0.104203276 -0.0175820179 0.0100010047
  vertex -0.103858426 -0.0171315502 0.0100010047
  vertex -0.103858426 -0.0171315502 0.0149900112
  endloop
 endfacet

 facet normal 0.794038713 -0.607867301 0
  outer loop
  vertex -0.104203276 -0.0175820179 0.0100010047
  vertex -0.103858426 -0.0171315502 0.0149900112
  vertex -0.104203276 -0.0175820179 0.0149900112
  endloop
 endfacet

 facet normal 0.844582915 0.535424829 0
  outer loop
  vertex -0.103858426 -0.00967843551 0.0100010047
  vertex -0.103858426 -0.00967843551 0.0149900112
  vertex -0.103554294 -0.0101581737 0.0149900112
  endloop
 endfacet

 facet normal 0.844582915 0.535424829 0
  outer loop
  vertex -0.103858426 -0.00967843551 0.0100010047
  vertex -0.103554294 -0.0101581737 0.0149900112
  vertex -0.103554294 -0.0101581737 0.0100010047
  endloop
 endfacet

 facet normal 0.793410063 0.502983749 -0.34279412
  outer loop
  vertex -0.103858426 -0.00967843551 0.0100010047
  vertex -0.103554294 -0.0101581737 0.0100010047
  vertex -0.104850985 -0.0109076835 0.00590000022
  endloop
 endfacet

 facet normal 0.793208241 0.503275871 -0.342832804
  outer loop
  vertex -0.103858426 -0.00967843551 0.0100010047
  vertex -0.104850985 -0.0109076835 0.00590000022
  vertex -0.105085127 -0.0105386553 0.00590000022
  endloop
 endfacet

 facet normal 0.792328417 -0.504461467 -0.3431243
  outer loop
  vertex -0.105086401 -0.0162726026 0.00590000022
  vertex -0.104852259 -0.0159048475 0.00590000022
  vertex -0.103554294 -0.0166556295 0.0100010047
  endloop
 endfacet

 facet normal 0.791535079 -0.505820215 -0.342954814
  outer loop
  vertex -0.105086401 -0.0162726026 0.00590000022
  vertex -0.103554294 -0.0166556295 0.0100010047
  vertex -0.103858426 -0.0171315502 0.0100010047
  endloop
 endfacet

 facet normal 0.842639625 -0.538477898 0
  outer loop
  vertex -0.103858426 -0.0171315502 0.0100010047
  vertex -0.103554294 -0.0166556295 0.0100010047
  vertex -0.103554294 -0.0166556295 0.0149900112
  endloop
 endfacet

 facet normal 0.842639625 -0.538477898 0
  outer loop
  vertex -0.103858426 -0.0171315502 0.0100010047
  vertex -0.103554294 -0.0166556295 0.0149900112
  vertex -0.103858426 -0.0171315502 0.0149900112
  endloop
 endfacet

 facet normal 0.830277383 0.43943429 -0.342836708
  outer loop
  vertex -0.103554294 -0.0101581737 0.0100010047
  vertex -0.103289612 -0.0106582716 0.0100010047
  vertex -0.104850985 -0.0109076835 0.00590000022
  endloop
 endfacet

 facet normal 0.883842647 0.467784375 0
  outer loop
  vertex -0.103554294 -0.0101581737 0.0100010047
  vertex -0.103554294 -0.0101581737 0.0149900112
  vertex -0.103289612 -0.0106582716 0.0149900112
  endloop
 endfacet

 facet normal 0.883842647 0.467784375 0
  outer loop
  vertex -0.103554294 -0.0101581737 0.0100010047
  vertex -0.103289612 -0.0106582716 0.0149900112
  vertex -0.103289612 -0.0106582716 0.0100010047
  endloop
 endfacet

 facet normal 0.83274883 0.434239119 -0.343461722
  outer loop
  vertex -0.104850985 -0.0109076835 0.00590000022
  vertex -0.103289612 -0.0106582716 0.0100010047
  vertex -0.104649931 -0.0112932557 0.00590000022
  endloop
 endfacet

 facet normal 0.83287847 -0.434269965 -0.343108147
  outer loop
  vertex -0.104852259 -0.0159048475 0.00590000022
  vertex -0.103290886 -0.016150441 0.0100010047
  vertex -0.103554294 -0.0166556295 0.0100010047
  endloop
 endfacet

 facet normal 0.832910419 -0.434202194 -0.343116283
  outer loop
  vertex -0.104852259 -0.0159048475 0.00590000022
  vertex -0.104649931 -0.0155167291 0.00590000022
  vertex -0.103290886 -0.016150441 0.0100010047
  endloop
 endfacet

 facet normal 0.886705041 -0.462335587 0
  outer loop
  vertex -0.103554294 -0.0166556295 0.0100010047
  vertex -0.103290886 -0.016150441 0.0100010047
  vertex -0.103290886 -0.016150441 0.0149900112
  endloop
 endfacet

 facet normal 0.886705041 -0.462335587 0
  outer loop
  vertex -0.103554294 -0.0166556295 0.0100010047
  vertex -0.103290886 -0.016150441 0.0149900112
  vertex -0.103554294 -0.0166556295 0.0149900112
  endloop
 endfacet

 facet normal 0.92597717 0.37757954 0
  outer loop
  vertex -0.103289612 -0.0106582716 0.0100010047
  vertex -0.103289612 -0.0106582716 0.0149900112
  vertex -0.103075832 -0.0111825475 0.0149900112
  endloop
 endfacet

 facet normal 0.92597717 0.37757954 0
  outer loop
  vertex -0.103289612 -0.0106582716 0.0100010047
  vertex -0.103075832 -0.0111825475 0.0149900112
  vertex -0.103075832 -0.0111825475 0.0100010047
  endloop
 endfacet

 facet normal 0.869733453 0.354645342 -0.343206018
  outer loop
  vertex -0.103289612 -0.0106582716 0.0100010047
  vertex -0.103075832 -0.0111825475 0.0100010047
  vertex -0.104484499 -0.0116966432 0.00590000022
  endloop
 endfacet

 facet normal 0.868953407 0.356354535 -0.343411535
  outer loop
  vertex -0.103289612 -0.0106582716 0.0100010047
  vertex -0.104484499 -0.0116966432 0.00590000022
  vertex -0.104649931 -0.0112932557 0.00590000022
  endloop
 endfacet

 facet normal 0.868417859 -0.357955366 -0.343101084
  outer loop
  vertex -0.103290886 -0.016150441 0.0100010047
  vertex -0.104649931 -0.0155167291 0.00590000022
  vertex -0.103075832 -0.0156287104 0.0100010047
  endloop
 endfacet

 facet normal 0.924538791 -0.381087989 0
  outer loop
  vertex -0.103290886 -0.016150441 0.0100010047
  vertex -0.103075832 -0.0156287104 0.0100010047
  vertex -0.103075832 -0.0156287104 0.0149900112
  endloop
 endfacet

 facet normal 0.924538791 -0.381087989 0
  outer loop
  vertex -0.103290886 -0.016150441 0.0100010047
  vertex -0.103075832 -0.0156287104 0.0149900112
  vertex -0.103290886 -0.016150441 0.0149900112
  endloop
 endfacet

 facet normal 0.868638635 -0.357353806 -0.343169391
  outer loop
  vertex -0.104649931 -0.0155167291 0.00590000022
  vertex -0.104484499 -0.0151146157 0.00590000022
  vertex -0.103075832 -0.0156287104 0.0100010047
  endloop
 endfacet

 facet normal 0.896110415 0.281878531 -0.342827529
  outer loop
  vertex -0.103075832 -0.0111825475 0.0100010047
  vertex -0.102905311 -0.0117246378 0.0100010047
  vertex -0.104352161 -0.0121127544 0.00590000022
  endloop
 endfacet

 facet normal 0.89510107 0.284680337 -0.343148947
  outer loop
  vertex -0.103075832 -0.0111825475 0.0100010047
  vertex -0.104352161 -0.0121127544 0.00590000022
  vertex -0.104484499 -0.0116966432 0.00590000022
  endloop
 endfacet

 facet normal 0.953919411 0.300062805 0
  outer loop
  vertex -0.103075832 -0.0111825475 0.0100010047
  vertex -0.103075832 -0.0111825475 0.0149900112
  vertex -0.102905311 -0.0117246378 0.0149900112
  endloop
 endfacet

 facet normal 0.953919411 0.300062805 0
  outer loop
  vertex -0.103075832 -0.0111825475 0.0100010047
  vertex -0.102905311 -0.0117246378 0.0149900112
  vertex -0.102905311 -0.0117246378 0.0100010047
  endloop
 endfacet

 facet normal 0.895902097 -0.282194048 -0.34311235
  outer loop
  vertex -0.103075832 -0.0156287104 0.0100010047
  vertex -0.104484499 -0.0151146157 0.00590000022
  vertex -0.104353435 -0.0146985026 0.00590000022
  endloop
 endfacet

 facet normal 0.896025062 -0.281851232 -0.343072891
  outer loop
  vertex -0.103075832 -0.0156287104 0.0100010047
  vertex -0.104353435 -0.0146985026 0.00590000022
  vertex -0.102905311 -0.0150866192 0.0100010047
  endloop
 endfacet

 facet normal 0.95391959 -0.300062358 0
  outer loop
  vertex -0.103075832 -0.0156287104 0.0100010047
  vertex -0.102905311 -0.0150866192 0.0100010047
  vertex -0.102905311 -0.0150866192 0.0149900112
  endloop
 endfacet

 facet normal 0.95391959 -0.300062358 0
  outer loop
  vertex -0.103075832 -0.0156287104 0.0100010047
  vertex -0.102905311 -0.0150866192 0.0149900112
  vertex -0.103075832 -0.0156287104 0.0149900112
  endloop
 endfacet

 facet normal 0.976028621 0.217642277 0
  outer loop
  vertex -0.102905311 -0.0117246378 0.0100010047
  vertex -0.102905311 -0.0117246378 0.0149900112
  vertex -0.102781877 -0.0122781815 0.0149900112
  endloop
 endfacet

 facet normal 0.976028621 0.217642277 0
  outer loop
  vertex -0.102905311 -0.0117246378 0.0100010047
  vertex -0.102781877 -0.0122781815 0.0149900112
  vertex -0.102781877 -0.0122781815 0.0100010047
  endloop
 endfacet

 facet normal 0.916926384 0.204463214 -0.342696428
  outer loop
  vertex -0.102905311 -0.0117246378 0.0100010047
  vertex -0.102781877 -0.0122781815 0.0100010047
  vertex -0.104256719 -0.0125377746 0.00590000022
  endloop
 endfacet

 facet normal 0.916567683 0.205815732 -0.342846394
  outer loop
  vertex -0.102905311 -0.0117246378 0.0100010047
  vertex -0.104256719 -0.0125377746 0.00590000022
  vertex -0.104352161 -0.0121127544 0.00590000022
  endloop
 endfacet

 facet normal 0.916478336 -0.205795228 -0.343097389
  outer loop
  vertex -0.104353435 -0.0146985026 0.00590000022
  vertex -0.104257993 -0.0142734824 0.00590000022
  vertex -0.102905311 -0.0150866192 0.0100010047
  endloop
 endfacet

 facet normal 0.916836917 -0.204443261 -0.342947572
  outer loop
  vertex -0.102905311 -0.0150866192 0.0100010047
  vertex -0.104257993 -0.0142734824 0.00590000022
  vertex -0.102781877 -0.0145330755 0.0100010047
  endloop
 endfacet

 facet normal 0.976028621 -0.217642277 0
  outer loop
  vertex -0.102905311 -0.0150866192 0.0100010047
  vertex -0.102781877 -0.0145330755 0.0100010047
  vertex -0.102781877 -0.0145330755 0.0149900112
  endloop
 endfacet

 facet normal 0.976028621 -0.217642277 0
  outer loop
  vertex -0.102905311 -0.0150866192 0.0100010047
  vertex -0.102781877 -0.0145330755 0.0149900112
  vertex -0.102905311 -0.0150866192 0.0149900112
  endloop
 endfacet

 facet normal 0.931416929 0.122499272 -0.342719406
  outer loop
  vertex -0.102781877 -0.0122781815 0.0100010047
  vertex -0.102708071 -0.0128393602 0.0100010047
  vertex -0.104256719 -0.0125377746 0.00590000022
  endloop
 endfacet

 facet normal 0.991462052 0.130396351 0
  outer loop
  vertex -0.102781877 -0.0122781815 0.0100010047
  vertex -0.102781877 -0.0122781815 0.0149900112
  vertex -0.102708071 -0.0128393602 0.0149900112
  endloop
 endfacet

 facet normal 0.991462052 0.130396351 0
  outer loop
  vertex -0.102781877 -0.0122781815 0.0100010047
  vertex -0.102708071 -0.0128393602 0.0149900112
  vertex -0.102708071 -0.0128393602 0.0100010047
  endloop
 endfacet

 facet normal 0.93159318 0.120557413 -0.342928737
  outer loop
  vertex -0.104256719 -0.0125377746 0.00590000022
  vertex -0.102708071 -0.0128393602 0.0100010047
  vertex -0.104200736 -0.0129704289 0.00590000022
  endloop
 endfacet

 facet normal 0.931220174 -0.123248965 -0.342985094
  outer loop
  vertex -0.104257993 -0.0142734824 0.00590000022
  vertex -0.104200736 -0.0138408281 0.00590000022
  vertex -0.102781877 -0.0145330755 0.0100010047
  endloop
 endfacet

 facet normal 0.931397259 -0.122219868 -0.34287262
  outer loop
  vertex -0.102781877 -0.0145330755 0.0100010047
  vertex -0.104200736 -0.0138408281 0.00590000022
  vertex -0.102708071 -0.0139706256 0.0100010047
  endloop
 endfacet

 facet normal 0.99150002 -0.130106658 0
  outer loop
  vertex -0.102781877 -0.0145330755 0.0100010047
  vertex -0.102708071 -0.0139706256 0.0100010047
  vertex -0.102708071 -0.0139706256 0.0149900112
  endloop
 endfacet

 facet normal 0.99150002 -0.130106658 0
  outer loop
  vertex -0.102781877 -0.0145330755 0.0100010047
  vertex -0.102708071 -0.0139706256 0.0149900112
  vertex -0.102781877 -0.0145330755 0.0149900112
  endloop
 endfacet

 facet normal 0.998780191 0.0493771881 0
  outer loop
  vertex -0.102708071 -0.0128393602 0.0100010047
  vertex -0.102708071 -0.0128393602 0.0149900112
  vertex -0.10268008 -0.0134056285 0.0100010047
  endloop
 endfacet

 facet normal 0.938202918 0.0463823974 -0.342963815
  outer loop
  vertex -0.102708071 -0.0128393602 0.0100010047
  vertex -0.10268008 -0.0134056285 0.0100010047
  vertex -0.104200736 -0.0129704289 0.00590000022
  endloop
 endfacet

 facet normal 0.938223243 0.0438925289 -0.343235582
  outer loop
  vertex -0.104200736 -0.0129704289 0.00590000022
  vertex -0.10268008 -0.0134056285 0.0100010047
  vertex -0.104180373 -0.0134056285 0.00590000022
  endloop
 endfacet

 facet normal 0.938223243 -0.0438925289 -0.343235582
  outer loop
  vertex -0.104200736 -0.0138408281 0.00590000022
  vertex -0.104180373 -0.0134056285 0.00590000022
  vertex -0.10268008 -0.0134056285 0.0100010047
  endloop
 endfacet

 facet normal 0.938201845 -0.0464867614 -0.342952341
  outer loop
  vertex -0.104200736 -0.0138408281 0.00590000022
  vertex -0.10268008 -0.0134056285 0.0100010047
  vertex -0.102708071 -0.0139706256 0.0100010047
  endloop
 endfacet

 facet normal 0.998774827 -0.0494880825 0
  outer loop
  vertex -0.102708071 -0.0139706256 0.0100010047
  vertex -0.10268008 -0.0134056285 0.0100010047
  vertex -0.102708071 -0.0139706256 0.0149900112
  endloop
 endfacet

 facet normal 0.999081314 -0.0428508371 0.000753376866
  outer loop
  vertex -0.102708071 -0.0139706256 0.0149900112
  vertex -0.10268008 -0.0134056285 0.0100010047
  vertex -0.102683894 -0.0134069016 0.0149900112
  endloop
 endfacet

 facet normal 0.999085367 0.0427545458 0.000753404514
  outer loop
  vertex -0.102708071 -0.0128393602 0.0149900112
  vertex -0.102683894 -0.0134043563 0.0149900112
  vertex -0.10268008 -0.0134056285 0.0100010047
  endloop
 endfacet

 facet normal 0.999999702 0 0.00076501182
  outer loop
  vertex -0.10268008 -0.0134056285 0.0100010047
  vertex -0.102683894 -0.0134043563 0.0149900112
  vertex -0.102683894 -0.0134069016 0.0149900112
  endloop
 endfacet

endsolid AssimpScene
