solid AssimpScene
 facet normal 0 1 0
  outer loop
  vertex -0.155365393 0.031416785 0.0140744373
  vertex -0.155365393 0.031416785 0.0059799999
  vertex -0.159364298 0.031416785 0.0059799999
  endloop
 endfacet

 facet normal 0 1 0
  outer loop
  vertex -0.155365393 0.031416785 0.0140744373
  vertex -0.159364298 0.031416785 0.0059799999
  vertex -0.159364298 0.031416785 0.0140744373
  endloop
 endfacet

 facet normal 0 0 1
  outer loop
  vertex -0.155365393 0.031416785 0.0140744373
  vertex -0.159364298 0.031416785 0.0140744373
  vertex -0.159364298 0.0201000012 0.0140744373
  endloop
 endfacet

 facet normal 0 0 1
  outer loop
  vertex -0.155365393 0.031416785 0.0140744373
  vertex -0.159364298 0.0201000012 0.0140744373
  vertex -0.155365393 0.0201000012 0.0140744373
  endloop
 endfacet

 facet normal 1 0 0
  outer loop
  vertex -0.155365393 0.031416785 0.0140744373
  vertex -0.155365393 0.0201000012 0.0140744373
  vertex -0.155365393 0.0201000012 0.0059799999
  endloop
 endfacet

 facet normal 1 0 0
  outer loop
  vertex -0.155365393 0.031416785 0.0140744373
  vertex -0.155365393 0.0201000012 0.0059799999
  vertex -0.155365393 0.031416785 0.0059799999
  endloop
 endfacet

 facet normal 0 0 -1
  outer loop
  vertex -0.155365393 0.031416785 0.0059799999
  vertex -0.155365393 0.0201000012 0.0059799999
  vertex -0.159364298 0.0201000012 0.0059799999
  endloop
 endfacet

 facet normal 0 0 -1
  outer loop
  vertex -0.155365393 0.031416785 0.0059799999
  vertex -0.159364298 0.0201000012 0.0059799999
  vertex -0.159364298 0.031416785 0.0059799999
  endloop
 endfacet

 facet normal -1 0 0
  outer loop
  vertex -0.159364298 0.031416785 0.0140744373
  vertex -0.159364298 0.031416785 0.0059799999
  vertex -0.159364298 0.0201000012 0.0059799999
  endloop
 endfacet

 facet normal -1 0 0
  outer loop
  vertex -0.159364298 0.031416785 0.0140744373
  vertex -0.159364298 0.0201000012 0.0059799999
  vertex -0.159364298 0.0201000012 0.0140744373
  endloop
 endfacet

 facet normal 0 -1 0
  outer loop
  vertex -0.155365393 0.0201000012 0.0140744373
  vertex -0.159364298 0.0201000012 0.0140744373
  vertex -0.159364298 0.0201000012 0.0059799999
  endloop
 endfacet

 facet normal 0 -1 0
  outer loop
  vertex -0.155365393 0.0201000012 0.0140744373
  vertex -0.159364298 0.0201000012 0.0059799999
  vertex -0.155365393 0.0201000012 0.0059799999
  endloop
 endfacet

endsolid AssimpScene
