solid AssimpScene
 facet normal -0.998991668 -0.0448956341 0
  outer loop
  vertex -0.14126429 -0.00578210875 0.0120999999
  vertex -0.141252935 -0.00603475235 0.0120999999
  vertex -0.141252935 -0.00603475235 0.0149978027
  endloop
 endfacet

 facet normal -0.998991668 -0.0448956341 0
  outer loop
  vertex -0.14126429 -0.00578210875 0.0120999999
  vertex -0.141252935 -0.00603475235 0.0149978027
  vertex -0.14126429 -0.00578210875 0.0149978027
  endloop
 endfacet

 facet normal -0.998991668 0.0448956341 0
  outer loop
  vertex -0.14126429 -0.00578210875 0.0120999999
  vertex -0.14126429 -0.00578210875 0.0149978027
  vertex -0.141252935 -0.00552946562 0.0149978027
  endloop
 endfacet

 facet normal -0.998991668 0.0448956341 0
  outer loop
  vertex -0.14126429 -0.00578210875 0.0120999999
  vertex -0.141252935 -0.00552946562 0.0149978027
  vertex -0.141252935 -0.00552946562 0.0120999999
  endloop
 endfacet

 facet normal 0 0 -1
  outer loop
  vertex -0.14126429 -0.00578210875 0.0120999999
  vertex -0.141252935 -0.00552946562 0.0120999999
  vertex -0.141220003 -0.00527909398 0.0120999999
  endloop
 endfacet

 facet normal 0 0 -1
  outer loop
  vertex -0.14126429 -0.00578210875 0.0120999999
  vertex -0.141220003 -0.00527909398 0.0120999999
  vertex -0.141164944 -0.00503156055 0.0120999999
  endloop
 endfacet

 facet normal 0 0 -1
  outer loop
  vertex -0.14126429 -0.00578210875 0.0120999999
  vertex -0.141164944 -0.00503156055 0.0120999999
  vertex -0.141088858 -0.00479027303 0.0120999999
  endloop
 endfacet

 facet normal 0 0 -1
  outer loop
  vertex -0.14126429 -0.00578210875 0.0120999999
  vertex -0.141088858 -0.00479027303 0.0120999999
  vertex -0.140992343 -0.00455693295 0.0120999999
  endloop
 endfacet

 facet normal 0 0 -1
  outer loop
  vertex -0.14126429 -0.00578210875 0.0120999999
  vertex -0.140992343 -0.00455693295 0.0120999999
  vertex -0.140875384 -0.004332677 0.0120999999
  endloop
 endfacet

 facet normal 0 0 -1
  outer loop
  vertex -0.14126429 -0.00578210875 0.0120999999
  vertex -0.140875384 -0.004332677 0.0120999999
  vertex -0.140739709 -0.00411920808 0.0120999999
  endloop
 endfacet

 facet normal 0 0 -1
  outer loop
  vertex -0.14126429 -0.00578210875 0.0120999999
  vertex -0.140739709 -0.00411920808 0.0120999999
  vertex -0.140585274 -0.00391822867 0.0120999999
  endloop
 endfacet

 facet normal 0 0 -1
  outer loop
  vertex -0.14126429 -0.00578210875 0.0120999999
  vertex -0.140585274 -0.00391822867 0.0120999999
  vertex -0.140414387 -0.00373201165 0.0120999999
  endloop
 endfacet

 facet normal 0 0 -1
  outer loop
  vertex -0.14126429 -0.00578210875 0.0120999999
  vertex -0.140414387 -0.00373201165 0.0120999999
  vertex -0.140228167 -0.00356112234 0.0120999999
  endloop
 endfacet

 facet normal 0 0 -1
  outer loop
  vertex -0.14126429 -0.00578210875 0.0120999999
  vertex -0.140228167 -0.00356112234 0.0120999999
  vertex -0.140027195 -0.00340669788 0.0120999999
  endloop
 endfacet

 facet normal 0 0 -1
  outer loop
  vertex -0.14126429 -0.00578210875 0.0120999999
  vertex -0.140027195 -0.00340669788 0.0120999999
  vertex -0.139814287 -0.00327100907 0.0120999999
  endloop
 endfacet

 facet normal 0 0 -1
  outer loop
  vertex -0.14126429 -0.00578210875 0.0120999999
  vertex -0.139814287 -0.00327100907 0.0120999999
  vertex -0.139589474 -0.00315405522 0.0120999999
  endloop
 endfacet

 facet normal 0 0 -1
  outer loop
  vertex -0.14126429 -0.00578210875 0.0120999999
  vertex -0.139589474 -0.00315405522 0.0120999999
  vertex -0.139356121 -0.00305753993 0.0120999999
  endloop
 endfacet

 facet normal 0 0 -1
  outer loop
  vertex -0.14126429 -0.00578210875 0.0120999999
  vertex -0.139356121 -0.00305753993 0.0120999999
  vertex -0.139114842 -0.00298146345 0.0120999999
  endloop
 endfacet

 facet normal 0 0 -1
  outer loop
  vertex -0.14126429 -0.00578210875 0.0120999999
  vertex -0.139114842 -0.00298146345 0.0120999999
  vertex -0.138867304 -0.00292639271 0.0120999999
  endloop
 endfacet

 facet normal 0 0 -1
  outer loop
  vertex -0.14126429 -0.00578210875 0.0120999999
  vertex -0.138867304 -0.00292639271 0.0120999999
  vertex -0.138616934 -0.00289346371 0.0120999999
  endloop
 endfacet

 facet normal 0 0 -1
  outer loop
  vertex -0.14126429 -0.00578210875 0.0120999999
  vertex -0.138616934 -0.00289346371 0.0120999999
  vertex -0.138364285 -0.0028826769 0.0120999999
  endloop
 endfacet

 facet normal 0 0 -1
  outer loop
  vertex -0.14126429 -0.00578210875 0.0120999999
  vertex -0.138364285 -0.0028826769 0.0120999999
  vertex -0.138111651 -0.00289346371 0.0120999999
  endloop
 endfacet

 facet normal 0 0 -1
  outer loop
  vertex -0.14126429 -0.00578210875 0.0120999999
  vertex -0.138111651 -0.00289346371 0.0120999999
  vertex -0.137861282 -0.00292639271 0.0120999999
  endloop
 endfacet

 facet normal 0 0 -1
  outer loop
  vertex -0.14126429 -0.00578210875 0.0120999999
  vertex -0.137861282 -0.00292639271 0.0120999999
  vertex -0.137613744 -0.00298146345 0.0120999999
  endloop
 endfacet

 facet normal 0 0 -1
  outer loop
  vertex -0.14126429 -0.00578210875 0.0120999999
  vertex -0.137613744 -0.00298146345 0.0120999999
  vertex -0.137372464 -0.00305753993 0.0120999999
  endloop
 endfacet

 facet normal 0 0 -1
  outer loop
  vertex -0.14126429 -0.00578210875 0.0120999999
  vertex -0.137372464 -0.00305753993 0.0120999999
  vertex -0.137139112 -0.00315405522 0.0120999999
  endloop
 endfacet

 facet normal 0 0 -1
  outer loop
  vertex -0.14126429 -0.00578210875 0.0120999999
  vertex -0.137139112 -0.00315405522 0.0120999999
  vertex -0.136914864 -0.00327100907 0.0120999999
  endloop
 endfacet

 facet normal 0 0 -1
  outer loop
  vertex -0.14126429 -0.00578210875 0.0120999999
  vertex -0.136914864 -0.00327100907 0.0120999999
  vertex -0.13670139 -0.00340669788 0.0120999999
  endloop
 endfacet

 facet normal 0 0 -1
  outer loop
  vertex -0.14126429 -0.00578210875 0.0120999999
  vertex -0.13670139 -0.00340669788 0.0120999999
  vertex -0.136500418 -0.00356112234 0.0120999999
  endloop
 endfacet

 facet normal 0 0 -1
  outer loop
  vertex -0.14126429 -0.00578210875 0.0120999999
  vertex -0.136500418 -0.00356112234 0.0120999999
  vertex -0.136314198 -0.00373201165 0.0120999999
  endloop
 endfacet

 facet normal 0 0 -1
  outer loop
  vertex -0.14126429 -0.00578210875 0.0120999999
  vertex -0.136314198 -0.00373201165 0.0120999999
  vertex -0.136143312 -0.00391822867 0.0120999999
  endloop
 endfacet

 facet normal 0 0 -1
  outer loop
  vertex -0.14126429 -0.00578210875 0.0120999999
  vertex -0.136143312 -0.00391822867 0.0120999999
  vertex -0.135988891 -0.00411920808 0.0120999999
  endloop
 endfacet

 facet normal 0 0 -1
  outer loop
  vertex -0.14126429 -0.00578210875 0.0120999999
  vertex -0.135988891 -0.00411920808 0.0120999999
  vertex -0.135853201 -0.004332677 0.0120999999
  endloop
 endfacet

 facet normal 0 0 -1
  outer loop
  vertex -0.14126429 -0.00578210875 0.0120999999
  vertex -0.135853201 -0.004332677 0.0120999999
  vertex -0.135736242 -0.00455693295 0.0120999999
  endloop
 endfacet

 facet normal 0 0 -1
  outer loop
  vertex -0.14126429 -0.00578210875 0.0120999999
  vertex -0.135736242 -0.00455693295 0.0120999999
  vertex -0.135639727 -0.00479027303 0.0120999999
  endloop
 endfacet

 facet normal 0 0 -1
  outer loop
  vertex -0.14126429 -0.00578210875 0.0120999999
  vertex -0.135639727 -0.00479027303 0.0120999999
  vertex -0.135563657 -0.00503156055 0.0120999999
  endloop
 endfacet

 facet normal 0 0 -1
  outer loop
  vertex -0.14126429 -0.00578210875 0.0120999999
  vertex -0.135563657 -0.00503156055 0.0120999999
  vertex -0.135508582 -0.00527909398 0.0120999999
  endloop
 endfacet

 facet normal 0 0 -1
  outer loop
  vertex -0.14126429 -0.00578210875 0.0120999999
  vertex -0.135508582 -0.00527909398 0.0120999999
  vertex -0.13547565 -0.00552946562 0.0120999999
  endloop
 endfacet

 facet normal 0 0 -1
  outer loop
  vertex -0.14126429 -0.00578210875 0.0120999999
  vertex -0.13547565 -0.00552946562 0.0120999999
  vertex -0.135464296 -0.00578210875 0.0120999999
  endloop
 endfacet

 facet normal 0 0 -1
  outer loop
  vertex -0.14126429 -0.00578210875 0.0120999999
  vertex -0.135464296 -0.00578210875 0.0120999999
  vertex -0.13547565 -0.00603475235 0.0120999999
  endloop
 endfacet

 facet normal 0 0 -1
  outer loop
  vertex -0.14126429 -0.00578210875 0.0120999999
  vertex -0.13547565 -0.00603475235 0.0120999999
  vertex -0.135508582 -0.00628512353 0.0120999999
  endloop
 endfacet

 facet normal 0 0 -1
  outer loop
  vertex -0.14126429 -0.00578210875 0.0120999999
  vertex -0.135508582 -0.00628512353 0.0120999999
  vertex -0.135563657 -0.00653265696 0.0120999999
  endloop
 endfacet

 facet normal 0 0 -1
  outer loop
  vertex -0.14126429 -0.00578210875 0.0120999999
  vertex -0.135563657 -0.00653265696 0.0120999999
  vertex -0.135639727 -0.00677394541 0.0120999999
  endloop
 endfacet

 facet normal 0 0 -1
  outer loop
  vertex -0.14126429 -0.00578210875 0.0120999999
  vertex -0.135639727 -0.00677394541 0.0120999999
  vertex -0.135736242 -0.00700728502 0.0120999999
  endloop
 endfacet

 facet normal 0 0 -1
  outer loop
  vertex -0.14126429 -0.00578210875 0.0120999999
  vertex -0.135736242 -0.00700728502 0.0120999999
  vertex -0.135853201 -0.00723210862 0.0120999999
  endloop
 endfacet

 facet normal 0 0 -1
  outer loop
  vertex -0.14126429 -0.00578210875 0.0120999999
  vertex -0.135853201 -0.00723210862 0.0120999999
  vertex -0.135988891 -0.00744500989 0.0120999999
  endloop
 endfacet

 facet normal 0 0 -1
  outer loop
  vertex -0.14126429 -0.00578210875 0.0120999999
  vertex -0.135988891 -0.00744500989 0.0120999999
  vertex -0.136143312 -0.0076459893 0.0120999999
  endloop
 endfacet

 facet normal 0 0 -1
  outer loop
  vertex -0.14126429 -0.00578210875 0.0120999999
  vertex -0.136143312 -0.0076459893 0.0120999999
  vertex -0.136314198 -0.00783220585 0.0120999999
  endloop
 endfacet

 facet normal 0 0 -1
  outer loop
  vertex -0.14126429 -0.00578210875 0.0120999999
  vertex -0.136314198 -0.00783220585 0.0120999999
  vertex -0.136500418 -0.00800309516 0.0120999999
  endloop
 endfacet

 facet normal 0 0 -1
  outer loop
  vertex -0.14126429 -0.00578210875 0.0120999999
  vertex -0.136500418 -0.00800309516 0.0120999999
  vertex -0.13670139 -0.00815751962 0.0120999999
  endloop
 endfacet

 facet normal 0 0 -1
  outer loop
  vertex -0.14126429 -0.00578210875 0.0120999999
  vertex -0.13670139 -0.00815751962 0.0120999999
  vertex -0.136914864 -0.00829320867 0.0120999999
  endloop
 endfacet

 facet normal 0 0 -1
  outer loop
  vertex -0.14126429 -0.00578210875 0.0120999999
  vertex -0.136914864 -0.00829320867 0.0120999999
  vertex -0.137139112 -0.00841016322 0.0120999999
  endloop
 endfacet

 facet normal 0 0 -1
  outer loop
  vertex -0.14126429 -0.00578210875 0.0120999999
  vertex -0.137139112 -0.00841016322 0.0120999999
  vertex -0.137372464 -0.00850667804 0.0120999999
  endloop
 endfacet

 facet normal 0 0 -1
  outer loop
  vertex -0.14126429 -0.00578210875 0.0120999999
  vertex -0.137372464 -0.00850667804 0.0120999999
  vertex -0.137613744 -0.00858275406 0.0120999999
  endloop
 endfacet

 facet normal 0 0 -1
  outer loop
  vertex -0.14126429 -0.00578210875 0.0120999999
  vertex -0.137613744 -0.00858275406 0.0120999999
  vertex -0.137861282 -0.00863782503 0.0120999999
  endloop
 endfacet

 facet normal 0 0 -1
  outer loop
  vertex -0.14126429 -0.00578210875 0.0120999999
  vertex -0.137861282 -0.00863782503 0.0120999999
  vertex -0.138111651 -0.0086707538 0.0120999999
  endloop
 endfacet

 facet normal 0 0 -1
  outer loop
  vertex -0.14126429 -0.00578210875 0.0120999999
  vertex -0.138111651 -0.0086707538 0.0120999999
  vertex -0.138364285 -0.00868210848 0.0120999999
  endloop
 endfacet

 facet normal 0 0 -1
  outer loop
  vertex -0.14126429 -0.00578210875 0.0120999999
  vertex -0.138364285 -0.00868210848 0.0120999999
  vertex -0.138616934 -0.0086707538 0.0120999999
  endloop
 endfacet

 facet normal 0 0 -1
  outer loop
  vertex -0.14126429 -0.00578210875 0.0120999999
  vertex -0.138616934 -0.0086707538 0.0120999999
  vertex -0.138867304 -0.00863782503 0.0120999999
  endloop
 endfacet

 facet normal 0 0 -1
  outer loop
  vertex -0.14126429 -0.00578210875 0.0120999999
  vertex -0.138867304 -0.00863782503 0.0120999999
  vertex -0.139114842 -0.00858275406 0.0120999999
  endloop
 endfacet

 facet normal 0 0 -1
  outer loop
  vertex -0.14126429 -0.00578210875 0.0120999999
  vertex -0.139114842 -0.00858275406 0.0120999999
  vertex -0.139356121 -0.00850667804 0.0120999999
  endloop
 endfacet

 facet normal 0 0 -1
  outer loop
  vertex -0.14126429 -0.00578210875 0.0120999999
  vertex -0.139356121 -0.00850667804 0.0120999999
  vertex -0.139589474 -0.00841016322 0.0120999999
  endloop
 endfacet

 facet normal 0 0 -1
  outer loop
  vertex -0.14126429 -0.00578210875 0.0120999999
  vertex -0.139589474 -0.00841016322 0.0120999999
  vertex -0.139814287 -0.00829320867 0.0120999999
  endloop
 endfacet

 facet normal 0 0 -1
  outer loop
  vertex -0.14126429 -0.00578210875 0.0120999999
  vertex -0.139814287 -0.00829320867 0.0120999999
  vertex -0.140027195 -0.00815751962 0.0120999999
  endloop
 endfacet

 facet normal 0 0 -1
  outer loop
  vertex -0.14126429 -0.00578210875 0.0120999999
  vertex -0.140027195 -0.00815751962 0.0120999999
  vertex -0.140228167 -0.00800309516 0.0120999999
  endloop
 endfacet

 facet normal 0 0 -1
  outer loop
  vertex -0.14126429 -0.00578210875 0.0120999999
  vertex -0.140228167 -0.00800309516 0.0120999999
  vertex -0.140414387 -0.00783220585 0.0120999999
  endloop
 endfacet

 facet normal 0 0 -1
  outer loop
  vertex -0.14126429 -0.00578210875 0.0120999999
  vertex -0.140414387 -0.00783220585 0.0120999999
  vertex -0.140585274 -0.0076459893 0.0120999999
  endloop
 endfacet

 facet normal 0 0 -1
  outer loop
  vertex -0.14126429 -0.00578210875 0.0120999999
  vertex -0.140585274 -0.0076459893 0.0120999999
  vertex -0.140739709 -0.00744500989 0.0120999999
  endloop
 endfacet

 facet normal 0 0 -1
  outer loop
  vertex -0.14126429 -0.00578210875 0.0120999999
  vertex -0.140739709 -0.00744500989 0.0120999999
  vertex -0.140875384 -0.00723210862 0.0120999999
  endloop
 endfacet

 facet normal 0 0 -1
  outer loop
  vertex -0.14126429 -0.00578210875 0.0120999999
  vertex -0.140875384 -0.00723210862 0.0120999999
  vertex -0.140992343 -0.00700728502 0.0120999999
  endloop
 endfacet

 facet normal 0 0 -1
  outer loop
  vertex -0.14126429 -0.00578210875 0.0120999999
  vertex -0.140992343 -0.00700728502 0.0120999999
  vertex -0.141088858 -0.00677394541 0.0120999999
  endloop
 endfacet

 facet normal 0 0 -1
  outer loop
  vertex -0.14126429 -0.00578210875 0.0120999999
  vertex -0.141088858 -0.00677394541 0.0120999999
  vertex -0.141164944 -0.00653265696 0.0120999999
  endloop
 endfacet

 facet normal 0 0 -1
  outer loop
  vertex -0.14126429 -0.00578210875 0.0120999999
  vertex -0.141164944 -0.00653265696 0.0120999999
  vertex -0.141220003 -0.00628512353 0.0120999999
  endloop
 endfacet

 facet normal 0 0 -1
  outer loop
  vertex -0.14126429 -0.00578210875 0.0120999999
  vertex -0.141220003 -0.00628512353 0.0120999999
  vertex -0.141252935 -0.00603475235 0.0120999999
  endloop
 endfacet

 facet normal -0.991461992 -0.130395725 0
  outer loop
  vertex -0.141252935 -0.00603475235 0.0120999999
  vertex -0.141220003 -0.00628512353 0.0120999999
  vertex -0.141220003 -0.00628512353 0.0149978027
  endloop
 endfacet

 facet normal -0.991461992 -0.130395725 0
  outer loop
  vertex -0.141252935 -0.00603475235 0.0120999999
  vertex -0.141220003 -0.00628512353 0.0149978027
  vertex -0.141252935 -0.00603475235 0.0149978027
  endloop
 endfacet

 facet normal 0 0 1
  outer loop
  vertex -0.14126429 -0.00578210875 0.0149978027
  vertex -0.141252935 -0.00603475235 0.0149978027
  vertex -0.141220003 -0.00628512353 0.0149978027
  endloop
 endfacet

 facet normal 0 0 1
  outer loop
  vertex -0.14126429 -0.00578210875 0.0149978027
  vertex -0.141220003 -0.00628512353 0.0149978027
  vertex -0.141164944 -0.00653265696 0.0149978027
  endloop
 endfacet

 facet normal 0 0 1
  outer loop
  vertex -0.14126429 -0.00578210875 0.0149978027
  vertex -0.141164944 -0.00653265696 0.0149978027
  vertex -0.141088858 -0.00677394541 0.0149978027
  endloop
 endfacet

 facet normal 0 0 1
  outer loop
  vertex -0.14126429 -0.00578210875 0.0149978027
  vertex -0.141088858 -0.00677394541 0.0149978027
  vertex -0.140992343 -0.00700728502 0.0149978027
  endloop
 endfacet

 facet normal 0 0 1
  outer loop
  vertex -0.14126429 -0.00578210875 0.0149978027
  vertex -0.140992343 -0.00700728502 0.0149978027
  vertex -0.140875384 -0.00723210862 0.0149978027
  endloop
 endfacet

 facet normal 0 0 1
  outer loop
  vertex -0.14126429 -0.00578210875 0.0149978027
  vertex -0.140875384 -0.00723210862 0.0149978027
  vertex -0.140739709 -0.00744500989 0.0149978027
  endloop
 endfacet

 facet normal 0 0 1
  outer loop
  vertex -0.14126429 -0.00578210875 0.0149978027
  vertex -0.140739709 -0.00744500989 0.0149978027
  vertex -0.140585274 -0.0076459893 0.0149978027
  endloop
 endfacet

 facet normal 0 0 1
  outer loop
  vertex -0.14126429 -0.00578210875 0.0149978027
  vertex -0.140585274 -0.0076459893 0.0149978027
  vertex -0.140414387 -0.00783220585 0.0149978027
  endloop
 endfacet

 facet normal 0 0 1
  outer loop
  vertex -0.14126429 -0.00578210875 0.0149978027
  vertex -0.140414387 -0.00783220585 0.0149978027
  vertex -0.140228167 -0.00800309516 0.0149978027
  endloop
 endfacet

 facet normal 0 0 1
  outer loop
  vertex -0.14126429 -0.00578210875 0.0149978027
  vertex -0.140228167 -0.00800309516 0.0149978027
  vertex -0.140027195 -0.00815751962 0.0149978027
  endloop
 endfacet

 facet normal 0 0 1
  outer loop
  vertex -0.14126429 -0.00578210875 0.0149978027
  vertex -0.140027195 -0.00815751962 0.0149978027
  vertex -0.139814287 -0.00829320867 0.0149978027
  endloop
 endfacet

 facet normal 0 0 1
  outer loop
  vertex -0.14126429 -0.00578210875 0.0149978027
  vertex -0.139814287 -0.00829320867 0.0149978027
  vertex -0.139589474 -0.00841016322 0.0149978027
  endloop
 endfacet

 facet normal 0 0 1
  outer loop
  vertex -0.14126429 -0.00578210875 0.0149978027
  vertex -0.139589474 -0.00841016322 0.0149978027
  vertex -0.139356121 -0.00850667804 0.0149978027
  endloop
 endfacet

 facet normal 0 0 1
  outer loop
  vertex -0.14126429 -0.00578210875 0.0149978027
  vertex -0.139356121 -0.00850667804 0.0149978027
  vertex -0.139114842 -0.00858275406 0.0149978027
  endloop
 endfacet

 facet normal 0 0 1
  outer loop
  vertex -0.14126429 -0.00578210875 0.0149978027
  vertex -0.139114842 -0.00858275406 0.0149978027
  vertex -0.138867304 -0.00863782503 0.0149978027
  endloop
 endfacet

 facet normal 0 0 1
  outer loop
  vertex -0.14126429 -0.00578210875 0.0149978027
  vertex -0.138867304 -0.00863782503 0.0149978027
  vertex -0.138616934 -0.0086707538 0.0149978027
  endloop
 endfacet

 facet normal 0 0 1
  outer loop
  vertex -0.14126429 -0.00578210875 0.0149978027
  vertex -0.138616934 -0.0086707538 0.0149978027
  vertex -0.138364285 -0.00868210848 0.0149978027
  endloop
 endfacet

 facet normal 0 0 1
  outer loop
  vertex -0.14126429 -0.00578210875 0.0149978027
  vertex -0.138364285 -0.00868210848 0.0149978027
  vertex -0.138111651 -0.0086707538 0.0149978027
  endloop
 endfacet

 facet normal 0 0 1
  outer loop
  vertex -0.14126429 -0.00578210875 0.0149978027
  vertex -0.138111651 -0.0086707538 0.0149978027
  vertex -0.137861282 -0.00863782503 0.0149978027
  endloop
 endfacet

 facet normal 0 0 1
  outer loop
  vertex -0.14126429 -0.00578210875 0.0149978027
  vertex -0.137861282 -0.00863782503 0.0149978027
  vertex -0.137613744 -0.00858275406 0.0149978027
  endloop
 endfacet

 facet normal 0 0 1
  outer loop
  vertex -0.14126429 -0.00578210875 0.0149978027
  vertex -0.137613744 -0.00858275406 0.0149978027
  vertex -0.137372464 -0.00850667804 0.0149978027
  endloop
 endfacet

 facet normal 0 0 1
  outer loop
  vertex -0.14126429 -0.00578210875 0.0149978027
  vertex -0.137372464 -0.00850667804 0.0149978027
  vertex -0.137139112 -0.00841016322 0.0149978027
  endloop
 endfacet

 facet normal 0 0 1
  outer loop
  vertex -0.14126429 -0.00578210875 0.0149978027
  vertex -0.137139112 -0.00841016322 0.0149978027
  vertex -0.136914864 -0.00829320867 0.0149978027
  endloop
 endfacet

 facet normal 0 0 1
  outer loop
  vertex -0.14126429 -0.00578210875 0.0149978027
  vertex -0.136914864 -0.00829320867 0.0149978027
  vertex -0.13670139 -0.00815751962 0.0149978027
  endloop
 endfacet

 facet normal 0 0 1
  outer loop
  vertex -0.14126429 -0.00578210875 0.0149978027
  vertex -0.13670139 -0.00815751962 0.0149978027
  vertex -0.136500418 -0.00800309516 0.0149978027
  endloop
 endfacet

 facet normal 0 0 1
  outer loop
  vertex -0.14126429 -0.00578210875 0.0149978027
  vertex -0.136500418 -0.00800309516 0.0149978027
  vertex -0.136314198 -0.00783220585 0.0149978027
  endloop
 endfacet

 facet normal 0 0 1
  outer loop
  vertex -0.14126429 -0.00578210875 0.0149978027
  vertex -0.136314198 -0.00783220585 0.0149978027
  vertex -0.136143312 -0.0076459893 0.0149978027
  endloop
 endfacet

 facet normal 0 0 1
  outer loop
  vertex -0.14126429 -0.00578210875 0.0149978027
  vertex -0.136143312 -0.0076459893 0.0149978027
  vertex -0.135988891 -0.00744500989 0.0149978027
  endloop
 endfacet

 facet normal 0 0 1
  outer loop
  vertex -0.14126429 -0.00578210875 0.0149978027
  vertex -0.135988891 -0.00744500989 0.0149978027
  vertex -0.135853201 -0.00723210862 0.0149978027
  endloop
 endfacet

 facet normal 0 0 1
  outer loop
  vertex -0.14126429 -0.00578210875 0.0149978027
  vertex -0.135853201 -0.00723210862 0.0149978027
  vertex -0.135736242 -0.00700728502 0.0149978027
  endloop
 endfacet

 facet normal 0 0 1
  outer loop
  vertex -0.14126429 -0.00578210875 0.0149978027
  vertex -0.135736242 -0.00700728502 0.0149978027
  vertex -0.135639727 -0.00677394541 0.0149978027
  endloop
 endfacet

 facet normal 0 0 1
  outer loop
  vertex -0.14126429 -0.00578210875 0.0149978027
  vertex -0.135639727 -0.00677394541 0.0149978027
  vertex -0.135563657 -0.00653265696 0.0149978027
  endloop
 endfacet

 facet normal 0 0 1
  outer loop
  vertex -0.14126429 -0.00578210875 0.0149978027
  vertex -0.135563657 -0.00653265696 0.0149978027
  vertex -0.135508582 -0.00628512353 0.0149978027
  endloop
 endfacet

 facet normal 0 0 1
  outer loop
  vertex -0.14126429 -0.00578210875 0.0149978027
  vertex -0.135508582 -0.00628512353 0.0149978027
  vertex -0.13547565 -0.00603475235 0.0149978027
  endloop
 endfacet

 facet normal 0 0 1
  outer loop
  vertex -0.14126429 -0.00578210875 0.0149978027
  vertex -0.13547565 -0.00603475235 0.0149978027
  vertex -0.135464862 -0.00578210875 0.0149978027
  endloop
 endfacet

 facet normal 0 0 1
  outer loop
  vertex -0.14126429 -0.00578210875 0.0149978027
  vertex -0.135464862 -0.00578210875 0.0149978027
  vertex -0.13547565 -0.00552946562 0.0149978027
  endloop
 endfacet

 facet normal 0 0 1
  outer loop
  vertex -0.14126429 -0.00578210875 0.0149978027
  vertex -0.13547565 -0.00552946562 0.0149978027
  vertex -0.135508582 -0.00527909398 0.0149978027
  endloop
 endfacet

 facet normal 0 0 1
  outer loop
  vertex -0.14126429 -0.00578210875 0.0149978027
  vertex -0.135508582 -0.00527909398 0.0149978027
  vertex -0.135563657 -0.00503156055 0.0149978027
  endloop
 endfacet

 facet normal 0 0 1
  outer loop
  vertex -0.14126429 -0.00578210875 0.0149978027
  vertex -0.135563657 -0.00503156055 0.0149978027
  vertex -0.135639727 -0.00479027303 0.0149978027
  endloop
 endfacet

 facet normal 0 0 1
  outer loop
  vertex -0.14126429 -0.00578210875 0.0149978027
  vertex -0.135639727 -0.00479027303 0.0149978027
  vertex -0.135736242 -0.00455693295 0.0149978027
  endloop
 endfacet

 facet normal 0 0 1
  outer loop
  vertex -0.14126429 -0.00578210875 0.0149978027
  vertex -0.135736242 -0.00455693295 0.0149978027
  vertex -0.135853201 -0.004332677 0.0149978027
  endloop
 endfacet

 facet normal 0 0 1
  outer loop
  vertex -0.14126429 -0.00578210875 0.0149978027
  vertex -0.135853201 -0.004332677 0.0149978027
  vertex -0.135988891 -0.00411920808 0.0149978027
  endloop
 endfacet

 facet normal 0 0 1
  outer loop
  vertex -0.14126429 -0.00578210875 0.0149978027
  vertex -0.135988891 -0.00411920808 0.0149978027
  vertex -0.136143312 -0.00391822867 0.0149978027
  endloop
 endfacet

 facet normal 0 0 1
  outer loop
  vertex -0.14126429 -0.00578210875 0.0149978027
  vertex -0.136143312 -0.00391822867 0.0149978027
  vertex -0.136314198 -0.00373201165 0.0149978027
  endloop
 endfacet

 facet normal 0 0 1
  outer loop
  vertex -0.14126429 -0.00578210875 0.0149978027
  vertex -0.136314198 -0.00373201165 0.0149978027
  vertex -0.136500418 -0.00356112234 0.0149978027
  endloop
 endfacet

 facet normal 0 0 1
  outer loop
  vertex -0.14126429 -0.00578210875 0.0149978027
  vertex -0.136500418 -0.00356112234 0.0149978027
  vertex -0.13670139 -0.00340669788 0.0149978027
  endloop
 endfacet

 facet normal 0 0 1
  outer loop
  vertex -0.14126429 -0.00578210875 0.0149978027
  vertex -0.13670139 -0.00340669788 0.0149978027
  vertex -0.136914864 -0.00327100907 0.0149978027
  endloop
 endfacet

 facet normal 0 0 1
  outer loop
  vertex -0.14126429 -0.00578210875 0.0149978027
  vertex -0.136914864 -0.00327100907 0.0149978027
  vertex -0.137139112 -0.00315405522 0.0149978027
  endloop
 endfacet

 facet normal 0 0 1
  outer loop
  vertex -0.14126429 -0.00578210875 0.0149978027
  vertex -0.137139112 -0.00315405522 0.0149978027
  vertex -0.137372464 -0.00305753993 0.0149978027
  endloop
 endfacet

 facet normal 0 0 1
  outer loop
  vertex -0.14126429 -0.00578210875 0.0149978027
  vertex -0.137372464 -0.00305753993 0.0149978027
  vertex -0.137613744 -0.00298146345 0.0149978027
  endloop
 endfacet

 facet normal 0 0 1
  outer loop
  vertex -0.14126429 -0.00578210875 0.0149978027
  vertex -0.137613744 -0.00298146345 0.0149978027
  vertex -0.137861282 -0.00292639271 0.0149978027
  endloop
 endfacet

 facet normal 0 0 1
  outer loop
  vertex -0.14126429 -0.00578210875 0.0149978027
  vertex -0.137861282 -0.00292639271 0.0149978027
  vertex -0.138111651 -0.00289346371 0.0149978027
  endloop
 endfacet

 facet normal 0 0 1
  outer loop
  vertex -0.14126429 -0.00578210875 0.0149978027
  vertex -0.138111651 -0.00289346371 0.0149978027
  vertex -0.138364285 -0.0028826769 0.0149978027
  endloop
 endfacet

 facet normal 0 0 1
  outer loop
  vertex -0.14126429 -0.00578210875 0.0149978027
  vertex -0.138364285 -0.0028826769 0.0149978027
  vertex -0.138616934 -0.00289346371 0.0149978027
  endloop
 endfacet

 facet normal 0 0 1
  outer loop
  vertex -0.14126429 -0.00578210875 0.0149978027
  vertex -0.138616934 -0.00289346371 0.0149978027
  vertex -0.138867304 -0.00292639271 0.0149978027
  endloop
 endfacet

 facet normal 0 0 1
  outer loop
  vertex -0.14126429 -0.00578210875 0.0149978027
  vertex -0.138867304 -0.00292639271 0.0149978027
  vertex -0.139114842 -0.00298146345 0.0149978027
  endloop
 endfacet

 facet normal 0 0 1
  outer loop
  vertex -0.14126429 -0.00578210875 0.0149978027
  vertex -0.139114842 -0.00298146345 0.0149978027
  vertex -0.139356121 -0.00305753993 0.0149978027
  endloop
 endfacet

 facet normal 0 0 1
  outer loop
  vertex -0.14126429 -0.00578210875 0.0149978027
  vertex -0.139356121 -0.00305753993 0.0149978027
  vertex -0.139589474 -0.00315405522 0.0149978027
  endloop
 endfacet

 facet normal 0 0 1
  outer loop
  vertex -0.14126429 -0.00578210875 0.0149978027
  vertex -0.139589474 -0.00315405522 0.0149978027
  vertex -0.139814287 -0.00327100907 0.0149978027
  endloop
 endfacet

 facet normal 0 0 1
  outer loop
  vertex -0.14126429 -0.00578210875 0.0149978027
  vertex -0.139814287 -0.00327100907 0.0149978027
  vertex -0.140027195 -0.00340669788 0.0149978027
  endloop
 endfacet

 facet normal 0 0 1
  outer loop
  vertex -0.14126429 -0.00578210875 0.0149978027
  vertex -0.140027195 -0.00340669788 0.0149978027
  vertex -0.140228167 -0.00356112234 0.0149978027
  endloop
 endfacet

 facet normal 0 0 1
  outer loop
  vertex -0.14126429 -0.00578210875 0.0149978027
  vertex -0.140228167 -0.00356112234 0.0149978027
  vertex -0.140414387 -0.00373201165 0.0149978027
  endloop
 endfacet

 facet normal 0 0 1
  outer loop
  vertex -0.14126429 -0.00578210875 0.0149978027
  vertex -0.140414387 -0.00373201165 0.0149978027
  vertex -0.140585274 -0.00391822867 0.0149978027
  endloop
 endfacet

 facet normal 0 0 1
  outer loop
  vertex -0.14126429 -0.00578210875 0.0149978027
  vertex -0.140585274 -0.00391822867 0.0149978027
  vertex -0.140739709 -0.00411920808 0.0149978027
  endloop
 endfacet

 facet normal 0 0 1
  outer loop
  vertex -0.14126429 -0.00578210875 0.0149978027
  vertex -0.140739709 -0.00411920808 0.0149978027
  vertex -0.140875384 -0.004332677 0.0149978027
  endloop
 endfacet

 facet normal 0 0 1
  outer loop
  vertex -0.14126429 -0.00578210875 0.0149978027
  vertex -0.140875384 -0.004332677 0.0149978027
  vertex -0.140992343 -0.00455693295 0.0149978027
  endloop
 endfacet

 facet normal 0 0 1
  outer loop
  vertex -0.14126429 -0.00578210875 0.0149978027
  vertex -0.140992343 -0.00455693295 0.0149978027
  vertex -0.141088858 -0.00479027303 0.0149978027
  endloop
 endfacet

 facet normal 0 0 1
  outer loop
  vertex -0.14126429 -0.00578210875 0.0149978027
  vertex -0.141088858 -0.00479027303 0.0149978027
  vertex -0.141164944 -0.00503156055 0.0149978027
  endloop
 endfacet

 facet normal 0 0 1
  outer loop
  vertex -0.14126429 -0.00578210875 0.0149978027
  vertex -0.141164944 -0.00503156055 0.0149978027
  vertex -0.141220003 -0.00527909398 0.0149978027
  endloop
 endfacet

 facet normal 0 0 1
  outer loop
  vertex -0.14126429 -0.00578210875 0.0149978027
  vertex -0.141220003 -0.00527909398 0.0149978027
  vertex -0.141252935 -0.00552946562 0.0149978027
  endloop
 endfacet

 facet normal -0.991461992 0.130395725 0
  outer loop
  vertex -0.141252935 -0.00552946562 0.0120999999
  vertex -0.141252935 -0.00552946562 0.0149978027
  vertex -0.141220003 -0.00527909398 0.0149978027
  endloop
 endfacet

 facet normal -0.991461992 0.130395725 0
  outer loop
  vertex -0.141252935 -0.00552946562 0.0120999999
  vertex -0.141220003 -0.00527909398 0.0149978027
  vertex -0.141220003 -0.00527909398 0.0120999999
  endloop
 endfacet

 facet normal -0.976134539 -0.217166513 0
  outer loop
  vertex -0.141220003 -0.00628512353 0.0120999999
  vertex -0.141164944 -0.00653265696 0.0120999999
  vertex -0.141164944 -0.00653265696 0.0149978027
  endloop
 endfacet

 facet normal -0.976134539 -0.217166513 0
  outer loop
  vertex -0.141220003 -0.00628512353 0.0120999999
  vertex -0.141164944 -0.00653265696 0.0149978027
  vertex -0.141220003 -0.00628512353 0.0149978027
  endloop
 endfacet

 facet normal -0.976134539 0.217166513 0
  outer loop
  vertex -0.141220003 -0.00527909398 0.0120999999
  vertex -0.141220003 -0.00527909398 0.0149978027
  vertex -0.141164944 -0.00503156055 0.0149978027
  endloop
 endfacet

 facet normal -0.976134539 0.217166513 0
  outer loop
  vertex -0.141220003 -0.00527909398 0.0120999999
  vertex -0.141164944 -0.00503156055 0.0149978027
  vertex -0.141164944 -0.00503156055 0.0120999999
  endloop
 endfacet

 facet normal -0.953718424 -0.300701082 0
  outer loop
  vertex -0.141164944 -0.00653265696 0.0120999999
  vertex -0.141088858 -0.00677394541 0.0120999999
  vertex -0.141088858 -0.00677394541 0.0149978027
  endloop
 endfacet

 facet normal -0.953718424 -0.300701082 0
  outer loop
  vertex -0.141164944 -0.00653265696 0.0120999999
  vertex -0.141088858 -0.00677394541 0.0149978027
  vertex -0.141164944 -0.00653265696 0.0149978027
  endloop
 endfacet

 facet normal -0.953718305 0.300701559 0
  outer loop
  vertex -0.141164944 -0.00503156055 0.0120999999
  vertex -0.141164944 -0.00503156055 0.0149978027
  vertex -0.141088858 -0.00479027303 0.0149978027
  endloop
 endfacet

 facet normal -0.953718305 0.300701559 0
  outer loop
  vertex -0.141164944 -0.00503156055 0.0120999999
  vertex -0.141088858 -0.00479027303 0.0149978027
  vertex -0.141088858 -0.00479027303 0.0120999999
  endloop
 endfacet

 facet normal -0.924070835 -0.382221222 0
  outer loop
  vertex -0.141088858 -0.00677394541 0.0120999999
  vertex -0.140992343 -0.00700728502 0.0120999999
  vertex -0.140992343 -0.00700728502 0.0149978027
  endloop
 endfacet

 facet normal -0.924070835 -0.382221222 0
  outer loop
  vertex -0.141088858 -0.00677394541 0.0120999999
  vertex -0.140992343 -0.00700728502 0.0149978027
  vertex -0.141088858 -0.00677394541 0.0149978027
  endloop
 endfacet

 facet normal -0.924071193 0.382220596 0
  outer loop
  vertex -0.141088858 -0.00479027303 0.0120999999
  vertex -0.141088858 -0.00479027303 0.0149978027
  vertex -0.140992343 -0.00455693295 0.0149978027
  endloop
 endfacet

 facet normal -0.924071193 0.382220596 0
  outer loop
  vertex -0.141088858 -0.00479027303 0.0120999999
  vertex -0.140992343 -0.00455693295 0.0149978027
  vertex -0.140992343 -0.00455693295 0.0120999999
  endloop
 endfacet

 facet normal -0.887143135 -0.461494386 0
  outer loop
  vertex -0.140992343 -0.00700728502 0.0120999999
  vertex -0.140875384 -0.00723210862 0.0120999999
  vertex -0.140875384 -0.00723210862 0.0149978027
  endloop
 endfacet

 facet normal -0.887143135 -0.461494386 0
  outer loop
  vertex -0.140992343 -0.00700728502 0.0120999999
  vertex -0.140875384 -0.00723210862 0.0149978027
  vertex -0.140992343 -0.00700728502 0.0149978027
  endloop
 endfacet

 facet normal -0.886664629 0.462413073 0
  outer loop
  vertex -0.140992343 -0.00455693295 0.0120999999
  vertex -0.140992343 -0.00455693295 0.0149978027
  vertex -0.140875384 -0.004332677 0.0149978027
  endloop
 endfacet

 facet normal -0.886664629 0.462413073 0
  outer loop
  vertex -0.140992343 -0.00455693295 0.0120999999
  vertex -0.140875384 -0.004332677 0.0149978027
  vertex -0.140875384 -0.004332677 0.0120999999
  endloop
 endfacet

 facet normal -0.843292177 -0.537455559 0
  outer loop
  vertex -0.140875384 -0.00723210862 0.0120999999
  vertex -0.140739709 -0.00744500989 0.0120999999
  vertex -0.140739709 -0.00744500989 0.0149978027
  endloop
 endfacet

 facet normal -0.843292177 -0.537455559 0
  outer loop
  vertex -0.140875384 -0.00723210862 0.0120999999
  vertex -0.140739709 -0.00744500989 0.0149978027
  vertex -0.140875384 -0.00723210862 0.0149978027
  endloop
 endfacet

 facet normal -0.843939781 0.536437809 0
  outer loop
  vertex -0.140875384 -0.004332677 0.0120999999
  vertex -0.140875384 -0.004332677 0.0149978027
  vertex -0.140739709 -0.00411920808 0.0149978027
  endloop
 endfacet

 facet normal -0.843939781 0.536437809 0
  outer loop
  vertex -0.140875384 -0.004332677 0.0120999999
  vertex -0.140739709 -0.00411920808 0.0149978027
  vertex -0.140739709 -0.00411920808 0.0120999999
  endloop
 endfacet

 facet normal -0.792956531 -0.609278202 0
  outer loop
  vertex -0.140739709 -0.00744500989 0.0120999999
  vertex -0.140585274 -0.0076459893 0.0120999999
  vertex -0.140585274 -0.0076459893 0.0149978027
  endloop
 endfacet

 facet normal -0.792956531 -0.609278202 0
  outer loop
  vertex -0.140739709 -0.00744500989 0.0120999999
  vertex -0.140585274 -0.0076459893 0.0149978027
  vertex -0.140739709 -0.00744500989 0.0149978027
  endloop
 endfacet

 facet normal -0.792956531 0.609278202 0
  outer loop
  vertex -0.140739709 -0.00411920808 0.0120999999
  vertex -0.140739709 -0.00411920808 0.0149978027
  vertex -0.140585274 -0.00391822867 0.0149978027
  endloop
 endfacet

 facet normal -0.792956531 0.609278202 0
  outer loop
  vertex -0.140739709 -0.00411920808 0.0120999999
  vertex -0.140585274 -0.00391822867 0.0149978027
  vertex -0.140585274 -0.00391822867 0.0120999999
  endloop
 endfacet

 facet normal -0.736780167 -0.676132381 0
  outer loop
  vertex -0.140585274 -0.0076459893 0.0120999999
  vertex -0.140414387 -0.00783220585 0.0120999999
  vertex -0.140414387 -0.00783220585 0.0149978027
  endloop
 endfacet

 facet normal -0.736780167 -0.676132381 0
  outer loop
  vertex -0.140585274 -0.0076459893 0.0120999999
  vertex -0.140414387 -0.00783220585 0.0149978027
  vertex -0.140585274 -0.0076459893 0.0149978027
  endloop
 endfacet

 facet normal -0.736780167 0.676132381 0
  outer loop
  vertex -0.140585274 -0.00391822867 0.0120999999
  vertex -0.140585274 -0.00391822867 0.0149978027
  vertex -0.140414387 -0.00373201165 0.0149978027
  endloop
 endfacet

 facet normal -0.736780167 0.676132381 0
  outer loop
  vertex -0.140585274 -0.00391822867 0.0120999999
  vertex -0.140414387 -0.00373201165 0.0149978027
  vertex -0.140414387 -0.00373201165 0.0120999999
  endloop
 endfacet

 facet normal -0.676132381 -0.736780167 0
  outer loop
  vertex -0.140414387 -0.00783220585 0.0120999999
  vertex -0.140228167 -0.00800309516 0.0120999999
  vertex -0.140228167 -0.00800309516 0.0149978027
  endloop
 endfacet

 facet normal -0.676132381 -0.736780167 0
  outer loop
  vertex -0.140414387 -0.00783220585 0.0120999999
  vertex -0.140228167 -0.00800309516 0.0149978027
  vertex -0.140414387 -0.00783220585 0.0149978027
  endloop
 endfacet

 facet normal -0.676133335 0.736779332 0
  outer loop
  vertex -0.140414387 -0.00373201165 0.0120999999
  vertex -0.140414387 -0.00373201165 0.0149978027
  vertex -0.140228167 -0.00356112234 0.0149978027
  endloop
 endfacet

 facet normal -0.676133335 0.736779332 0
  outer loop
  vertex -0.140414387 -0.00373201165 0.0120999999
  vertex -0.140228167 -0.00356112234 0.0149978027
  vertex -0.140228167 -0.00356112234 0.0120999999
  endloop
 endfacet

 facet normal -0.60927999 -0.79295516 0
  outer loop
  vertex -0.140228167 -0.00800309516 0.0120999999
  vertex -0.140027195 -0.00815751962 0.0120999999
  vertex -0.140027195 -0.00815751962 0.0149978027
  endloop
 endfacet

 facet normal -0.60927999 -0.79295516 0
  outer loop
  vertex -0.140228167 -0.00800309516 0.0120999999
  vertex -0.140027195 -0.00815751962 0.0149978027
  vertex -0.140228167 -0.00800309516 0.0149978027
  endloop
 endfacet

 facet normal -0.609278858 0.792956054 0
  outer loop
  vertex -0.140228167 -0.00356112234 0.0120999999
  vertex -0.140228167 -0.00356112234 0.0149978027
  vertex -0.140027195 -0.00340669788 0.0149978027
  endloop
 endfacet

 facet normal -0.609278858 0.792956054 0
  outer loop
  vertex -0.140228167 -0.00356112234 0.0120999999
  vertex -0.140027195 -0.00340669788 0.0149978027
  vertex -0.140027195 -0.00340669788 0.0120999999
  endloop
 endfacet

 facet normal -0.537455559 -0.843292177 0
  outer loop
  vertex -0.140027195 -0.00815751962 0.0120999999
  vertex -0.139814287 -0.00829320867 0.0120999999
  vertex -0.139814287 -0.00829320867 0.0149978027
  endloop
 endfacet

 facet normal -0.537455559 -0.843292177 0
  outer loop
  vertex -0.140027195 -0.00815751962 0.0120999999
  vertex -0.139814287 -0.00829320867 0.0149978027
  vertex -0.140027195 -0.00815751962 0.0149978027
  endloop
 endfacet

 facet normal -0.537456751 0.843291283 0
  outer loop
  vertex -0.140027195 -0.00340669788 0.0120999999
  vertex -0.140027195 -0.00340669788 0.0149978027
  vertex -0.139814287 -0.00327100907 0.0149978027
  endloop
 endfacet

 facet normal -0.537456751 0.843291283 0
  outer loop
  vertex -0.140027195 -0.00340669788 0.0120999999
  vertex -0.139814287 -0.00327100907 0.0149978027
  vertex -0.139814287 -0.00327100907 0.0120999999
  endloop
 endfacet

 facet normal -0.461497247 -0.887141645 0
  outer loop
  vertex -0.139814287 -0.00829320867 0.0120999999
  vertex -0.139589474 -0.00841016322 0.0120999999
  vertex -0.139589474 -0.00841016322 0.0149978027
  endloop
 endfacet

 facet normal -0.461497247 -0.887141645 0
  outer loop
  vertex -0.139814287 -0.00829320867 0.0120999999
  vertex -0.139589474 -0.00841016322 0.0149978027
  vertex -0.139814287 -0.00829320867 0.0149978027
  endloop
 endfacet

 facet normal -0.461494386 0.887143135 0
  outer loop
  vertex -0.139814287 -0.00327100907 0.0120999999
  vertex -0.139814287 -0.00327100907 0.0149978027
  vertex -0.139589474 -0.00315405522 0.0149978027
  endloop
 endfacet

 facet normal -0.461494386 0.887143135 0
  outer loop
  vertex -0.139814287 -0.00327100907 0.0120999999
  vertex -0.139589474 -0.00315405522 0.0149978027
  vertex -0.139589474 -0.00315405522 0.0120999999
  endloop
 endfacet

 facet normal -0.382218122 -0.924072146 0
  outer loop
  vertex -0.139589474 -0.00841016322 0.0120999999
  vertex -0.139356121 -0.00850667804 0.0120999999
  vertex -0.139356121 -0.00850667804 0.0149978027
  endloop
 endfacet

 facet normal -0.382218122 -0.924072146 0
  outer loop
  vertex -0.139589474 -0.00841016322 0.0120999999
  vertex -0.139356121 -0.00850667804 0.0149978027
  vertex -0.139589474 -0.00841016322 0.0149978027
  endloop
 endfacet

 facet normal -0.382219732 0.92407161 0
  outer loop
  vertex -0.139589474 -0.00315405522 0.0120999999
  vertex -0.139589474 -0.00315405522 0.0149978027
  vertex -0.139356121 -0.00305753993 0.0149978027
  endloop
 endfacet

 facet normal -0.382219732 0.92407161 0
  outer loop
  vertex -0.139589474 -0.00315405522 0.0120999999
  vertex -0.139356121 -0.00305753993 0.0149978027
  vertex -0.139356121 -0.00305753993 0.0120999999
  endloop
 endfacet

 facet normal -0.300701082 -0.953718424 0
  outer loop
  vertex -0.139356121 -0.00850667804 0.0120999999
  vertex -0.139114842 -0.00858275406 0.0120999999
  vertex -0.139114842 -0.00858275406 0.0149978027
  endloop
 endfacet

 facet normal -0.300701082 -0.953718424 0
  outer loop
  vertex -0.139356121 -0.00850667804 0.0120999999
  vertex -0.139114842 -0.00858275406 0.0149978027
  vertex -0.139356121 -0.00850667804 0.0149978027
  endloop
 endfacet

 facet normal -0.300701082 0.953718424 0
  outer loop
  vertex -0.139356121 -0.00305753993 0.0120999999
  vertex -0.139356121 -0.00305753993 0.0149978027
  vertex -0.139114842 -0.00298146345 0.0149978027
  endloop
 endfacet

 facet normal -0.300701082 0.953718424 0
  outer loop
  vertex -0.139356121 -0.00305753993 0.0120999999
  vertex -0.139114842 -0.00298146345 0.0149978027
  vertex -0.139114842 -0.00298146345 0.0120999999
  endloop
 endfacet

 facet normal -0.217167288 -0.976134419 0
  outer loop
  vertex -0.139114842 -0.00858275406 0.0120999999
  vertex -0.138867304 -0.00863782503 0.0120999999
  vertex -0.138867304 -0.00863782503 0.0149978027
  endloop
 endfacet

 facet normal -0.217167288 -0.976134419 0
  outer loop
  vertex -0.139114842 -0.00858275406 0.0120999999
  vertex -0.138867304 -0.00863782503 0.0149978027
  vertex -0.139114842 -0.00858275406 0.0149978027
  endloop
 endfacet

 facet normal -0.217169046 0.976134121 0
  outer loop
  vertex -0.139114842 -0.00298146345 0.0120999999
  vertex -0.139114842 -0.00298146345 0.0149978027
  vertex -0.138867304 -0.00292639271 0.0149978027
  endloop
 endfacet

 facet normal -0.217169046 0.976134121 0
  outer loop
  vertex -0.139114842 -0.00298146345 0.0120999999
  vertex -0.138867304 -0.00292639271 0.0149978027
  vertex -0.138867304 -0.00292639271 0.0120999999
  endloop
 endfacet

 facet normal -0.13039887 -0.991461635 0
  outer loop
  vertex -0.138867304 -0.00863782503 0.0120999999
  vertex -0.138616934 -0.0086707538 0.0120999999
  vertex -0.138616934 -0.0086707538 0.0149978027
  endloop
 endfacet

 facet normal -0.13039887 -0.991461635 0
  outer loop
  vertex -0.138867304 -0.00863782503 0.0120999999
  vertex -0.138616934 -0.0086707538 0.0149978027
  vertex -0.138867304 -0.00863782503 0.0149978027
  endloop
 endfacet

 facet normal -0.130397052 0.991461873 0
  outer loop
  vertex -0.138867304 -0.00292639271 0.0120999999
  vertex -0.138867304 -0.00292639271 0.0149978027
  vertex -0.138616934 -0.00289346371 0.0149978027
  endloop
 endfacet

 facet normal -0.130397052 0.991461873 0
  outer loop
  vertex -0.138867304 -0.00292639271 0.0120999999
  vertex -0.138616934 -0.00289346371 0.0149978027
  vertex -0.138616934 -0.00289346371 0.0120999999
  endloop
 endfacet

 facet normal -0.044895798 -0.998991668 0
  outer loop
  vertex -0.138616934 -0.0086707538 0.0120999999
  vertex -0.138364285 -0.00868210848 0.0120999999
  vertex -0.138364285 -0.00868210848 0.0149978027
  endloop
 endfacet

 facet normal -0.044895798 -0.998991668 0
  outer loop
  vertex -0.138616934 -0.0086707538 0.0120999999
  vertex -0.138364285 -0.00868210848 0.0149978027
  vertex -0.138616934 -0.0086707538 0.0149978027
  endloop
 endfacet

 facet normal -0.0426570252 0.999089837 0
  outer loop
  vertex -0.138616934 -0.00289346371 0.0120999999
  vertex -0.138616934 -0.00289346371 0.0149978027
  vertex -0.138364285 -0.0028826769 0.0149978027
  endloop
 endfacet

 facet normal -0.0426570252 0.999089837 0
  outer loop
  vertex -0.138616934 -0.00289346371 0.0120999999
  vertex -0.138364285 -0.0028826769 0.0149978027
  vertex -0.138364285 -0.0028826769 0.0120999999
  endloop
 endfacet

 facet normal 0.044895798 -0.998991668 0
  outer loop
  vertex -0.138364285 -0.00868210848 0.0120999999
  vertex -0.138111651 -0.0086707538 0.0120999999
  vertex -0.138111651 -0.0086707538 0.0149978027
  endloop
 endfacet

 facet normal 0.044895798 -0.998991668 0
  outer loop
  vertex -0.138364285 -0.00868210848 0.0120999999
  vertex -0.138111651 -0.0086707538 0.0149978027
  vertex -0.138364285 -0.00868210848 0.0149978027
  endloop
 endfacet

 facet normal 0.0426570252 0.999089837 0
  outer loop
  vertex -0.138364285 -0.0028826769 0.0120999999
  vertex -0.138364285 -0.0028826769 0.0149978027
  vertex -0.138111651 -0.00289346371 0.0149978027
  endloop
 endfacet

 facet normal 0.0426570252 0.999089837 0
  outer loop
  vertex -0.138364285 -0.0028826769 0.0120999999
  vertex -0.138111651 -0.00289346371 0.0149978027
  vertex -0.138111651 -0.00289346371 0.0120999999
  endloop
 endfacet

 facet normal 0.13039887 -0.991461635 0
  outer loop
  vertex -0.138111651 -0.0086707538 0.0120999999
  vertex -0.137861282 -0.00863782503 0.0120999999
  vertex -0.137861282 -0.00863782503 0.0149978027
  endloop
 endfacet

 facet normal 0.13039887 -0.991461635 0
  outer loop
  vertex -0.138111651 -0.0086707538 0.0120999999
  vertex -0.137861282 -0.00863782503 0.0149978027
  vertex -0.138111651 -0.0086707538 0.0149978027
  endloop
 endfacet

 facet normal 0.130397052 0.991461873 0
  outer loop
  vertex -0.138111651 -0.00289346371 0.0120999999
  vertex -0.138111651 -0.00289346371 0.0149978027
  vertex -0.137861282 -0.00292639271 0.0149978027
  endloop
 endfacet

 facet normal 0.130397052 0.991461873 0
  outer loop
  vertex -0.138111651 -0.00289346371 0.0120999999
  vertex -0.137861282 -0.00292639271 0.0149978027
  vertex -0.137861282 -0.00292639271 0.0120999999
  endloop
 endfacet

 facet normal 0.217167288 -0.976134419 0
  outer loop
  vertex -0.137861282 -0.00863782503 0.0120999999
  vertex -0.137613744 -0.00858275406 0.0120999999
  vertex -0.137613744 -0.00858275406 0.0149978027
  endloop
 endfacet

 facet normal 0.217167288 -0.976134419 0
  outer loop
  vertex -0.137861282 -0.00863782503 0.0120999999
  vertex -0.137613744 -0.00858275406 0.0149978027
  vertex -0.137861282 -0.00863782503 0.0149978027
  endloop
 endfacet

 facet normal 0.217169046 0.976134121 0
  outer loop
  vertex -0.137861282 -0.00292639271 0.0120999999
  vertex -0.137861282 -0.00292639271 0.0149978027
  vertex -0.137613744 -0.00298146345 0.0149978027
  endloop
 endfacet

 facet normal 0.217169046 0.976134121 0
  outer loop
  vertex -0.137861282 -0.00292639271 0.0120999999
  vertex -0.137613744 -0.00298146345 0.0149978027
  vertex -0.137613744 -0.00298146345 0.0120999999
  endloop
 endfacet

 facet normal 0.300701082 -0.953718424 0
  outer loop
  vertex -0.137613744 -0.00858275406 0.0120999999
  vertex -0.137372464 -0.00850667804 0.0120999999
  vertex -0.137372464 -0.00850667804 0.0149978027
  endloop
 endfacet

 facet normal 0.300701082 -0.953718424 0
  outer loop
  vertex -0.137613744 -0.00858275406 0.0120999999
  vertex -0.137372464 -0.00850667804 0.0149978027
  vertex -0.137613744 -0.00858275406 0.0149978027
  endloop
 endfacet

 facet normal 0.300701082 0.953718424 0
  outer loop
  vertex -0.137613744 -0.00298146345 0.0120999999
  vertex -0.137613744 -0.00298146345 0.0149978027
  vertex -0.137372464 -0.00305753993 0.0149978027
  endloop
 endfacet

 facet normal 0.300701082 0.953718424 0
  outer loop
  vertex -0.137613744 -0.00298146345 0.0120999999
  vertex -0.137372464 -0.00305753993 0.0149978027
  vertex -0.137372464 -0.00305753993 0.0120999999
  endloop
 endfacet

 facet normal 0.382218122 -0.924072146 0
  outer loop
  vertex -0.137372464 -0.00850667804 0.0120999999
  vertex -0.137139112 -0.00841016322 0.0120999999
  vertex -0.137139112 -0.00841016322 0.0149978027
  endloop
 endfacet

 facet normal 0.382218122 -0.924072146 0
  outer loop
  vertex -0.137372464 -0.00850667804 0.0120999999
  vertex -0.137139112 -0.00841016322 0.0149978027
  vertex -0.137372464 -0.00850667804 0.0149978027
  endloop
 endfacet

 facet normal 0.382219732 0.92407161 0
  outer loop
  vertex -0.137372464 -0.00305753993 0.0120999999
  vertex -0.137372464 -0.00305753993 0.0149978027
  vertex -0.137139112 -0.00315405522 0.0149978027
  endloop
 endfacet

 facet normal 0.382219732 0.92407161 0
  outer loop
  vertex -0.137372464 -0.00305753993 0.0120999999
  vertex -0.137139112 -0.00315405522 0.0149978027
  vertex -0.137139112 -0.00315405522 0.0120999999
  endloop
 endfacet

 facet normal 0.462416738 -0.886662722 0
  outer loop
  vertex -0.137139112 -0.00841016322 0.0120999999
  vertex -0.136914864 -0.00829320867 0.0120999999
  vertex -0.136914864 -0.00829320867 0.0149978027
  endloop
 endfacet

 facet normal 0.462416738 -0.886662722 0
  outer loop
  vertex -0.137139112 -0.00841016322 0.0120999999
  vertex -0.136914864 -0.00829320867 0.0149978027
  vertex -0.137139112 -0.00841016322 0.0149978027
  endloop
 endfacet

 facet normal 0.462413847 0.886664271 0
  outer loop
  vertex -0.137139112 -0.00315405522 0.0120999999
  vertex -0.137139112 -0.00315405522 0.0149978027
  vertex -0.136914864 -0.00327100907 0.0149978027
  endloop
 endfacet

 facet normal 0.462413847 0.886664271 0
  outer loop
  vertex -0.137139112 -0.00315405522 0.0120999999
  vertex -0.136914864 -0.00327100907 0.0149978027
  vertex -0.136914864 -0.00327100907 0.0120999999
  endloop
 endfacet

 facet normal 0.536437035 -0.843940377 0
  outer loop
  vertex -0.136914864 -0.00829320867 0.0120999999
  vertex -0.13670139 -0.00815751962 0.0120999999
  vertex -0.13670139 -0.00815751962 0.0149978027
  endloop
 endfacet

 facet normal 0.536437035 -0.843940377 0
  outer loop
  vertex -0.136914864 -0.00829320867 0.0120999999
  vertex -0.13670139 -0.00815751962 0.0149978027
  vertex -0.136914864 -0.00829320867 0.0149978027
  endloop
 endfacet

 facet normal 0.536438346 0.843939543 0
  outer loop
  vertex -0.136914864 -0.00327100907 0.0120999999
  vertex -0.136914864 -0.00327100907 0.0149978027
  vertex -0.13670139 -0.00340669788 0.0149978027
  endloop
 endfacet

 facet normal 0.536438346 0.843939543 0
  outer loop
  vertex -0.136914864 -0.00327100907 0.0120999999
  vertex -0.13670139 -0.00340669788 0.0149978027
  vertex -0.13670139 -0.00340669788 0.0120999999
  endloop
 endfacet

 facet normal 0.60927999 -0.79295516 0
  outer loop
  vertex -0.13670139 -0.00815751962 0.0120999999
  vertex -0.136500418 -0.00800309516 0.0120999999
  vertex -0.136500418 -0.00800309516 0.0149978027
  endloop
 endfacet

 facet normal 0.60927999 -0.79295516 0
  outer loop
  vertex -0.13670139 -0.00815751962 0.0120999999
  vertex -0.136500418 -0.00800309516 0.0149978027
  vertex -0.13670139 -0.00815751962 0.0149978027
  endloop
 endfacet

 facet normal 0.609278858 0.792956054 0
  outer loop
  vertex -0.13670139 -0.00340669788 0.0120999999
  vertex -0.13670139 -0.00340669788 0.0149978027
  vertex -0.136500418 -0.00356112234 0.0149978027
  endloop
 endfacet

 facet normal 0.609278858 0.792956054 0
  outer loop
  vertex -0.13670139 -0.00340669788 0.0120999999
  vertex -0.136500418 -0.00356112234 0.0149978027
  vertex -0.136500418 -0.00356112234 0.0120999999
  endloop
 endfacet

 facet normal 0.676132381 -0.736780167 0
  outer loop
  vertex -0.136500418 -0.00800309516 0.0120999999
  vertex -0.136314198 -0.00783220585 0.0120999999
  vertex -0.136314198 -0.00783220585 0.0149978027
  endloop
 endfacet

 facet normal 0.676132381 -0.736780167 0
  outer loop
  vertex -0.136500418 -0.00800309516 0.0120999999
  vertex -0.136314198 -0.00783220585 0.0149978027
  vertex -0.136500418 -0.00800309516 0.0149978027
  endloop
 endfacet

 facet normal 0.676133335 0.736779332 0
  outer loop
  vertex -0.136500418 -0.00356112234 0.0120999999
  vertex -0.136500418 -0.00356112234 0.0149978027
  vertex -0.136314198 -0.00373201165 0.0149978027
  endloop
 endfacet

 facet normal 0.676133335 0.736779332 0
  outer loop
  vertex -0.136500418 -0.00356112234 0.0120999999
  vertex -0.136314198 -0.00373201165 0.0149978027
  vertex -0.136314198 -0.00373201165 0.0120999999
  endloop
 endfacet

 facet normal 0.736780167 -0.676132381 0
  outer loop
  vertex -0.136314198 -0.00783220585 0.0120999999
  vertex -0.136143312 -0.0076459893 0.0120999999
  vertex -0.136143312 -0.0076459893 0.0149978027
  endloop
 endfacet

 facet normal 0.736780167 -0.676132381 0
  outer loop
  vertex -0.136314198 -0.00783220585 0.0120999999
  vertex -0.136143312 -0.0076459893 0.0149978027
  vertex -0.136314198 -0.00783220585 0.0149978027
  endloop
 endfacet

 facet normal 0.736780167 0.676132381 0
  outer loop
  vertex -0.136314198 -0.00373201165 0.0120999999
  vertex -0.136314198 -0.00373201165 0.0149978027
  vertex -0.136143312 -0.00391822867 0.0149978027
  endloop
 endfacet

 facet normal 0.736780167 0.676132381 0
  outer loop
  vertex -0.136314198 -0.00373201165 0.0120999999
  vertex -0.136143312 -0.00391822867 0.0149978027
  vertex -0.136143312 -0.00391822867 0.0120999999
  endloop
 endfacet

 facet normal 0.792957425 -0.60927707 0
  outer loop
  vertex -0.136143312 -0.0076459893 0.0120999999
  vertex -0.135988891 -0.00744500989 0.0120999999
  vertex -0.135988891 -0.00744500989 0.0149978027
  endloop
 endfacet

 facet normal 0.792957425 -0.60927707 0
  outer loop
  vertex -0.136143312 -0.0076459893 0.0120999999
  vertex -0.135988891 -0.00744500989 0.0149978027
  vertex -0.136143312 -0.0076459893 0.0149978027
  endloop
 endfacet

 facet normal 0.792957425 0.60927707 0
  outer loop
  vertex -0.136143312 -0.00391822867 0.0120999999
  vertex -0.136143312 -0.00391822867 0.0149978027
  vertex -0.135988891 -0.00411920808 0.0149978027
  endloop
 endfacet

 facet normal 0.792957425 0.60927707 0
  outer loop
  vertex -0.136143312 -0.00391822867 0.0120999999
  vertex -0.135988891 -0.00411920808 0.0149978027
  vertex -0.135988891 -0.00411920808 0.0120999999
  endloop
 endfacet

 facet normal 0.843291283 -0.537456751 0
  outer loop
  vertex -0.135988891 -0.00744500989 0.0120999999
  vertex -0.135853201 -0.00723210862 0.0120999999
  vertex -0.135853201 -0.00723210862 0.0149978027
  endloop
 endfacet

 facet normal 0.843291283 -0.537456751 0
  outer loop
  vertex -0.135988891 -0.00744500989 0.0120999999
  vertex -0.135853201 -0.00723210862 0.0149978027
  vertex -0.135988891 -0.00744500989 0.0149978027
  endloop
 endfacet

 facet normal 0.843939006 0.53643918 0
  outer loop
  vertex -0.135988891 -0.00411920808 0.0120999999
  vertex -0.135988891 -0.00411920808 0.0149978027
  vertex -0.135853201 -0.004332677 0.0149978027
  endloop
 endfacet

 facet normal 0.843939006 0.53643918 0
  outer loop
  vertex -0.135988891 -0.00411920808 0.0120999999
  vertex -0.135853201 -0.004332677 0.0149978027
  vertex -0.135853201 -0.004332677 0.0120999999
  endloop
 endfacet

 facet normal 0.887143135 -0.461494386 0
  outer loop
  vertex -0.135853201 -0.00723210862 0.0120999999
  vertex -0.135736242 -0.00700728502 0.0120999999
  vertex -0.135736242 -0.00700728502 0.0149978027
  endloop
 endfacet

 facet normal 0.887143135 -0.461494386 0
  outer loop
  vertex -0.135853201 -0.00723210862 0.0120999999
  vertex -0.135736242 -0.00700728502 0.0149978027
  vertex -0.135853201 -0.00723210862 0.0149978027
  endloop
 endfacet

 facet normal 0.886664629 0.462413073 0
  outer loop
  vertex -0.135853201 -0.004332677 0.0120999999
  vertex -0.135853201 -0.004332677 0.0149978027
  vertex -0.135736242 -0.00455693295 0.0149978027
  endloop
 endfacet

 facet normal 0.886664629 0.462413073 0
  outer loop
  vertex -0.135853201 -0.004332677 0.0120999999
  vertex -0.135736242 -0.00455693295 0.0149978027
  vertex -0.135736242 -0.00455693295 0.0120999999
  endloop
 endfacet

 facet normal 0.92407161 -0.382219732 0
  outer loop
  vertex -0.135736242 -0.00700728502 0.0120999999
  vertex -0.135639727 -0.00677394541 0.0120999999
  vertex -0.135639727 -0.00677394541 0.0149978027
  endloop
 endfacet

 facet normal 0.92407161 -0.382219732 0
  outer loop
  vertex -0.135736242 -0.00700728502 0.0120999999
  vertex -0.135639727 -0.00677394541 0.0149978027
  vertex -0.135736242 -0.00700728502 0.0149978027
  endloop
 endfacet

 facet normal 0.924071848 0.382219046 0
  outer loop
  vertex -0.135736242 -0.00455693295 0.0120999999
  vertex -0.135736242 -0.00455693295 0.0149978027
  vertex -0.135639727 -0.00479027303 0.0149978027
  endloop
 endfacet

 facet normal 0.924071848 0.382219046 0
  outer loop
  vertex -0.135736242 -0.00455693295 0.0120999999
  vertex -0.135639727 -0.00479027303 0.0149978027
  vertex -0.135639727 -0.00479027303 0.0120999999
  endloop
 endfacet

 facet normal 0.953718424 -0.300701082 0
  outer loop
  vertex -0.135639727 -0.00677394541 0.0120999999
  vertex -0.135563657 -0.00653265696 0.0120999999
  vertex -0.135563657 -0.00653265696 0.0149978027
  endloop
 endfacet

 facet normal 0.953718424 -0.300701082 0
  outer loop
  vertex -0.135639727 -0.00677394541 0.0120999999
  vertex -0.135563657 -0.00653265696 0.0149978027
  vertex -0.135639727 -0.00677394541 0.0149978027
  endloop
 endfacet

 facet normal 0.953718305 0.300701559 0
  outer loop
  vertex -0.135639727 -0.00479027303 0.0120999999
  vertex -0.135639727 -0.00479027303 0.0149978027
  vertex -0.135563657 -0.00503156055 0.0149978027
  endloop
 endfacet

 facet normal 0.953718305 0.300701559 0
  outer loop
  vertex -0.135639727 -0.00479027303 0.0120999999
  vertex -0.135563657 -0.00503156055 0.0149978027
  vertex -0.135563657 -0.00503156055 0.0120999999
  endloop
 endfacet

 facet normal 0.976134241 -0.217168272 0
  outer loop
  vertex -0.135563657 -0.00653265696 0.0120999999
  vertex -0.135508582 -0.00628512353 0.0120999999
  vertex -0.135508582 -0.00628512353 0.0149978027
  endloop
 endfacet

 facet normal 0.976134241 -0.217168272 0
  outer loop
  vertex -0.135563657 -0.00653265696 0.0120999999
  vertex -0.135508582 -0.00628512353 0.0149978027
  vertex -0.135563657 -0.00653265696 0.0149978027
  endloop
 endfacet

 facet normal 0.976134241 0.217168272 0
  outer loop
  vertex -0.135563657 -0.00503156055 0.0120999999
  vertex -0.135563657 -0.00503156055 0.0149978027
  vertex -0.135508582 -0.00527909398 0.0149978027
  endloop
 endfacet

 facet normal 0.976134241 0.217168272 0
  outer loop
  vertex -0.135563657 -0.00503156055 0.0120999999
  vertex -0.135508582 -0.00527909398 0.0149978027
  vertex -0.135508582 -0.00527909398 0.0120999999
  endloop
 endfacet

 facet normal 0.991461992 -0.130395725 0
  outer loop
  vertex -0.135508582 -0.00628512353 0.0120999999
  vertex -0.13547565 -0.00603475235 0.0120999999
  vertex -0.13547565 -0.00603475235 0.0149978027
  endloop
 endfacet

 facet normal 0.991461992 -0.130395725 0
  outer loop
  vertex -0.135508582 -0.00628512353 0.0120999999
  vertex -0.13547565 -0.00603475235 0.0149978027
  vertex -0.135508582 -0.00628512353 0.0149978027
  endloop
 endfacet

 facet normal 0.991461992 0.130395725 0
  outer loop
  vertex -0.135508582 -0.00527909398 0.0120999999
  vertex -0.135508582 -0.00527909398 0.0149978027
  vertex -0.13547565 -0.00552946562 0.0149978027
  endloop
 endfacet

 facet normal 0.991461992 0.130395725 0
  outer loop
  vertex -0.135508582 -0.00527909398 0.0120999999
  vertex -0.13547565 -0.00552946562 0.0149978027
  vertex -0.13547565 -0.00552946562 0.0120999999
  endloop
 endfacet

 facet normal 0.998991609 -0.0448974557 0
  outer loop
  vertex -0.13547565 -0.00603475235 0.0120999999
  vertex -0.135464296 -0.00578210875 0.0120999999
  vertex -0.13547565 -0.00603475235 0.0149978027
  endloop
 endfacet

 facet normal 0.998991609 0.0448974557 0
  outer loop
  vertex -0.13547565 -0.00552946562 0.0120999999
  vertex -0.13547565 -0.00552946562 0.0149978027
  vertex -0.135464296 -0.00578210875 0.0120999999
  endloop
 endfacet

 facet normal 0.999089837 -0.042656865 0.000195729197
  outer loop
  vertex -0.13547565 -0.00603475235 0.0149978027
  vertex -0.135464296 -0.00578210875 0.0120999999
  vertex -0.135464862 -0.00578210875 0.0149978027
  endloop
 endfacet

 facet normal 0.999089837 0.042656865 0.000195729197
  outer loop
  vertex -0.135464296 -0.00578210875 0.0120999999
  vertex -0.13547565 -0.00552946562 0.0149978027
  vertex -0.135464862 -0.00578210875 0.0149978027
  endloop
 endfacet

endsolid AssimpScene
