solid AssimpScene
 facet normal -1 0 0
  outer loop
  vertex -0.0719986334 0.021629896 -0.002996
  vertex -0.0719986334 0.021629896 0.00589370169
  vertex -0.0719986334 0.0216310807 0.0134940706
  endloop
 endfacet

 facet normal -1 0 0
  outer loop
  vertex -0.0719986334 0.021629896 -0.002996
  vertex -0.0719986334 0.0216310807 0.0134940706
  vertex -0.0719986334 0.0216322653 0.0149982916
  endloop
 endfacet

 facet normal -1 0 0
  outer loop
  vertex -0.0719986334 0.021629896 -0.002996
  vertex -0.0719986334 0.0216322653 0.0149982916
  vertex -0.0719986334 0.0216322653 0.0134940706
  endloop
 endfacet

 facet normal -0.998999238 0.0447283201 -6.4258038e-06
  outer loop
  vertex -0.0719986334 0.021629896 -0.002996
  vertex -0.0719986334 0.0216322653 0.0134940706
  vertex -0.0719950274 0.0217127968 0.0134940706
  endloop
 endfacet

 facet normal -0.998331785 0.0577372275 -7.19712334e-05
  outer loop
  vertex -0.0719986334 0.021629896 -0.002996
  vertex -0.0719950274 0.0217127968 0.0134940706
  vertex -0.0719950274 0.0217033233 0.00589370169
  endloop
 endfacet

 facet normal -0.998222947 0.0595910512 -8.73274039e-05
  outer loop
  vertex -0.0719986334 0.021629896 -0.002996
  vertex -0.0719950274 0.0217033233 0.00589370169
  vertex -0.0719950274 0.021690296 -0.002996
  endloop
 endfacet

 facet normal 0 0 -1
  outer loop
  vertex -0.0719986334 0.021629896 -0.002996
  vertex -0.0719950274 0.021690296 -0.002996
  vertex -0.0719914213 0.0217187181 -0.002996
  endloop
 endfacet

 facet normal 0 0 -1
  outer loop
  vertex -0.0719986334 0.021629896 -0.002996
  vertex -0.0719914213 0.0217187181 -0.002996
  vertex -0.071847178 0.0223523099 -0.002996
  endloop
 endfacet

 facet normal 0 0 -1
  outer loop
  vertex -0.0719986334 0.021629896 -0.002996
  vertex -0.071847178 0.0223523099 -0.002996
  vertex -0.071757026 0.0227466747 -0.002996
  endloop
 endfacet

 facet normal 0 0 -1
  outer loop
  vertex -0.0719986334 0.021629896 -0.002996
  vertex -0.071757026 0.0227466747 -0.002996
  vertex -0.0717462078 0.0227893088 -0.002996
  endloop
 endfacet

 facet normal 0 0 -1
  outer loop
  vertex -0.0719986334 0.021629896 -0.002996
  vertex -0.0717462078 0.0227893088 -0.002996
  vertex -0.071713753 0.0228579976 -0.002996
  endloop
 endfacet

 facet normal 0 0 -1
  outer loop
  vertex -0.0719986334 0.021629896 -0.002996
  vertex -0.071713753 0.0228579976 -0.002996
  vertex -0.0716957226 0.0228958949 -0.002996
  endloop
 endfacet

 facet normal 0 0 -1
  outer loop
  vertex -0.0719986334 0.021629896 -0.002996
  vertex -0.0716957226 0.0228958949 -0.002996
  vertex -0.0716596618 0.0229444504 -0.002996
  endloop
 endfacet

 facet normal 0 0 -1
  outer loop
  vertex -0.0719986334 0.021629896 -0.002996
  vertex -0.0716596618 0.0229444504 -0.002996
  vertex -0.0716308132 0.0229740571 -0.002996
  endloop
 endfacet

 facet normal 0 0 -1
  outer loop
  vertex -0.0719986334 0.021629896 -0.002996
  vertex -0.0716308132 0.0229740571 -0.002996
  vertex -0.0715983585 0.0230036639 -0.002996
  endloop
 endfacet

 facet normal 0 0 -1
  outer loop
  vertex -0.0719986334 0.021629896 -0.002996
  vertex -0.0715983585 0.0230036639 -0.002996
  vertex -0.071576722 0.0230226126 -0.002996
  endloop
 endfacet

 facet normal 0 0 -1
  outer loop
  vertex -0.0719986334 0.021629896 -0.002996
  vertex -0.071576722 0.0230226126 -0.002996
  vertex -0.0715262368 0.0230569579 -0.002996
  endloop
 endfacet

 facet normal 0 0 -1
  outer loop
  vertex -0.0719986334 0.021629896 -0.002996
  vertex -0.0715262368 0.0230569579 -0.002996
  vertex -0.0714613274 0.023088932 -0.002996
  endloop
 endfacet

 facet normal 0 0 -1
  outer loop
  vertex -0.0719986334 0.021629896 -0.002996
  vertex -0.0714613274 0.023088932 -0.002996
  vertex -0.0714216605 0.023103144 -0.002996
  endloop
 endfacet

 facet normal 0 0 -1
  outer loop
  vertex -0.0719986334 0.021629896 -0.002996
  vertex -0.0714216605 0.023103144 -0.002996
  vertex -0.0713783875 0.0231149867 -0.002996
  endloop
 endfacet

 facet normal 0 0 -1
  outer loop
  vertex -0.0719986334 0.021629896 -0.002996
  vertex -0.0713783875 0.0231149867 -0.002996
  vertex -0.0713315085 0.0231220927 -0.002996
  endloop
 endfacet

 facet normal 0 0 -1
  outer loop
  vertex -0.0719986334 0.021629896 -0.002996
  vertex -0.0713315085 0.0231220927 -0.002996
  vertex -0.071291849 0.0231268294 -0.002996
  endloop
 endfacet

 facet normal 0 0 -1
  outer loop
  vertex -0.0719986334 0.021629896 -0.002996
  vertex -0.071291849 0.0231268294 -0.002996
  vertex -0.0712521821 0.0231268294 -0.002996
  endloop
 endfacet

 facet normal 0 0 -1
  outer loop
  vertex -0.0719986334 0.021629896 -0.002996
  vertex -0.0712521821 0.0231268294 -0.002996
  vertex -0.0712377578 0.0231256448 -0.002996
  endloop
 endfacet

 facet normal 0 0 -1
  outer loop
  vertex -0.0719986334 0.021629896 -0.002996
  vertex -0.0712377578 0.0231256448 -0.002996
  vertex -0.0712053031 0.0231220927 -0.002996
  endloop
 endfacet

 facet normal 0 0 -1
  outer loop
  vertex -0.0719986334 0.021629896 -0.002996
  vertex -0.0712053031 0.0231220927 -0.002996
  vertex -0.0413687825 0.0185116809 -0.002996
  endloop
 endfacet

 facet normal 0 0 -1
  outer loop
  vertex -0.0719986334 0.021629896 -0.002996
  vertex -0.0413687825 0.0185116809 -0.002996
  vertex -0.0403122045 0.0173570067 -0.002996
  endloop
 endfacet

 facet normal 0 0 -1
  outer loop
  vertex -0.0719986334 0.021629896 -0.002996
  vertex -0.0403122045 0.0173570067 -0.002996
  vertex -0.0410153866 0.0142482659 -0.002996
  endloop
 endfacet

 facet normal 0 0 -1
  outer loop
  vertex -0.0719986334 0.021629896 -0.002996
  vertex -0.0410153866 0.0142482659 -0.002996
  vertex -0.0410370231 0.0142518198 -0.002996
  endloop
 endfacet

 facet normal 0 0 -1
  outer loop
  vertex -0.0719986334 0.021629896 -0.002996
  vertex -0.0410370231 0.0142518198 -0.002996
  vertex -0.0716055706 0.021164475 -0.002996
  endloop
 endfacet

 facet normal 0 0 -1
  outer loop
  vertex -0.0719986334 0.021629896 -0.002996
  vertex -0.0716055706 0.021164475 -0.002996
  vertex -0.0716632679 0.0211798698 -0.002996
  endloop
 endfacet

 facet normal 0 0 -1
  outer loop
  vertex -0.0719986334 0.021629896 -0.002996
  vertex -0.0716632679 0.0211798698 -0.002996
  vertex -0.0717281774 0.0212071091 -0.002996
  endloop
 endfacet

 facet normal 0 0 -1
  outer loop
  vertex -0.0719986334 0.021629896 -0.002996
  vertex -0.0717281774 0.0212071091 -0.002996
  vertex -0.0717642382 0.0212296098 -0.002996
  endloop
 endfacet

 facet normal 0 0 -1
  outer loop
  vertex -0.0719986334 0.021629896 -0.002996
  vertex -0.0717642382 0.0212296098 -0.002996
  vertex -0.0718291476 0.0212793499 -0.002996
  endloop
 endfacet

 facet normal 0 0 -1
  outer loop
  vertex -0.0719986334 0.021629896 -0.002996
  vertex -0.0718291476 0.0212793499 -0.002996
  vertex -0.0718652084 0.0213136934 -0.002996
  endloop
 endfacet

 facet normal 0 0 -1
  outer loop
  vertex -0.0719986334 0.021629896 -0.002996
  vertex -0.0718652084 0.0213136934 -0.002996
  vertex -0.0718940571 0.0213480368 -0.002996
  endloop
 endfacet

 facet normal 0 0 -1
  outer loop
  vertex -0.0719986334 0.021629896 -0.002996
  vertex -0.0718940571 0.0213480368 -0.002996
  vertex -0.0719265118 0.0213977769 -0.002996
  endloop
 endfacet

 facet normal 0 0 -1
  outer loop
  vertex -0.0719986334 0.021629896 -0.002996
  vertex -0.0719265118 0.0213977769 -0.002996
  vertex -0.0719589666 0.0214605443 -0.002996
  endloop
 endfacet

 facet normal 0 0 -1
  outer loop
  vertex -0.0719986334 0.021629896 -0.002996
  vertex -0.0719589666 0.0214605443 -0.002996
  vertex -0.071976997 0.0215162057 -0.002996
  endloop
 endfacet

 facet normal -0.982369781 -0.186948106 -0.000398554432
  outer loop
  vertex -0.0719986334 0.021629896 -0.002996
  vertex -0.071976997 0.0215162057 -0.002996
  vertex -0.0719914213 0.0215730518 0.00589370169
  endloop
 endfacet

 facet normal -0.992049456 -0.12584874 0
  outer loop
  vertex -0.0719986334 0.021629896 -0.002996
  vertex -0.0719914213 0.0215730518 0.00589370169
  vertex -0.0719986334 0.021629896 0.00589370169
  endloop
 endfacet

 facet normal -0.992049456 -0.12584874 1.96092915e-05
  outer loop
  vertex -0.0719986334 0.021629896 0.00589370169
  vertex -0.0719914213 0.0215730518 0.00589370169
  vertex -0.0719986334 0.0216310807 0.0134940706
  endloop
 endfacet

 facet normal -0.998999238 0.0447283201 0
  outer loop
  vertex -0.0719986334 0.0216322653 0.0134940706
  vertex -0.0719986334 0.0216322653 0.0149982916
  vertex -0.0719950274 0.0217127968 0.0134940706
  endloop
 endfacet

 facet normal -0.990854383 0.134936079 -0.000168201994
  outer loop
  vertex -0.0719950274 0.0217127968 0.0134940706
  vertex -0.0719914213 0.0217187181 -0.002996
  vertex -0.0719950274 0.0217033233 0.00589370169
  endloop
 endfacet

 facet normal -0.996629655 0.0820085406 0.00200154469
  outer loop
  vertex -0.0719950274 0.0217127968 0.0134940706
  vertex -0.0719986334 0.0216322653 0.0149982916
  vertex -0.0719914213 0.0217199028 0.0149982916
  endloop
 endfacet

 facet normal -0.979118347 0.203286454 0.00138668285
  outer loop
  vertex -0.0719950274 0.0217127968 0.0134940706
  vertex -0.0719914213 0.0217199028 0.0149982916
  vertex -0.071980603 0.0217720103 0.0149982916
  endloop
 endfacet

 facet normal -0.975827515 0.21854125 0.000754616864
  outer loop
  vertex -0.0719950274 0.0217127968 0.0134940706
  vertex -0.071980603 0.0217720103 0.0149982916
  vertex -0.0717642382 0.0227443073 0.0132052032
  endloop
 endfacet

 facet normal -0.975880802 0.218304068 -0.000134991889
  outer loop
  vertex -0.0719950274 0.0217127968 0.0134940706
  vertex -0.0717642382 0.0227443073 0.0132052032
  vertex -0.0719914213 0.0217187181 -0.002996
  endloop
 endfacet

 facet normal -0.992049515 0.12584874 -0.000184424425
  outer loop
  vertex -0.0719950274 0.0217033233 0.00589370169
  vertex -0.0719914213 0.0217187181 -0.002996
  vertex -0.0719950274 0.021690296 -0.002996
  endloop
 endfacet

 facet normal -0.971993148 -0.235009357 -7.43877827e-05
  outer loop
  vertex -0.071976997 0.0215162057 -0.002996
  vertex -0.0719733909 0.0214960724 0.0134940706
  vertex -0.0719914213 0.0215730518 0.00589370169
  endloop
 endfacet

 facet normal -0.951334059 -0.308161885 -0.000168215731
  outer loop
  vertex -0.071976997 0.0215162057 -0.002996
  vertex -0.0719589666 0.0214605443 -0.002996
  vertex -0.0719733909 0.0214960724 0.0134940706
  endloop
 endfacet

 facet normal -0.978366852 -0.206877455 0.000225657568
  outer loop
  vertex -0.0719914213 0.0215730518 0.00589370169
  vertex -0.0719733909 0.0214960724 0.0134940706
  vertex -0.0719914213 0.0215813424 0.0134940706
  endloop
 endfacet

 facet normal -0.989463866 -0.14478071 0.000157923729
  outer loop
  vertex -0.0719914213 0.0215730518 0.00589370169
  vertex -0.0719914213 0.0215813424 0.0134940706
  vertex -0.0719986334 0.0216322653 0.0149982916
  endloop
 endfacet

 facet normal -0.990536332 -0.137250766 0.000108101078
  outer loop
  vertex -0.0719914213 0.0215730518 0.00589370169
  vertex -0.0719986334 0.0216322653 0.0149982916
  vertex -0.0719986334 0.0216310807 0.0134940706
  endloop
 endfacet

 facet normal -0.981076002 -0.193613917 0.00185134471
  outer loop
  vertex -0.0719986334 0.0216322653 0.0149982916
  vertex -0.0719914213 0.0215813424 0.0134940706
  vertex -0.0719733909 0.021504363 0.0149982916
  endloop
 endfacet

 facet normal 0 0 1
  outer loop
  vertex -0.0719986334 0.0216322653 0.0149982916
  vertex -0.0719733909 0.021504363 0.0149982916
  vertex -0.0719589666 0.0214629136 0.0149982916
  endloop
 endfacet

 facet normal 0 0 1
  outer loop
  vertex -0.0719986334 0.0216322653 0.0149982916
  vertex -0.0719589666 0.0214629136 0.0149982916
  vertex -0.0719409361 0.0214238316 0.0149982916
  endloop
 endfacet

 facet normal 0 0 1
  outer loop
  vertex -0.0719986334 0.0216322653 0.0149982916
  vertex -0.0719409361 0.0214238316 0.0149982916
  vertex -0.0718940571 0.0213492215 0.0149982916
  endloop
 endfacet

 facet normal 0 0 1
  outer loop
  vertex -0.0719986334 0.0216322653 0.0149982916
  vertex -0.0718940571 0.0213492215 0.0149982916
  vertex -0.0718652084 0.0213160627 0.0149982916
  endloop
 endfacet

 facet normal 0 0 1
  outer loop
  vertex -0.0719986334 0.0216322653 0.0149982916
  vertex -0.0718652084 0.0213160627 0.0149982916
  vertex -0.0718327537 0.0212840866 0.0149982916
  endloop
 endfacet

 facet normal 0 0 1
  outer loop
  vertex -0.0719986334 0.0216322653 0.0149982916
  vertex -0.0718327537 0.0212840866 0.0149982916
  vertex -0.071800299 0.0212568492 0.0149982916
  endloop
 endfacet

 facet normal 0 0 1
  outer loop
  vertex -0.0719986334 0.0216322653 0.0149982916
  vertex -0.071800299 0.0212568492 0.0149982916
  vertex -0.0717642382 0.0212307945 0.0149982916
  endloop
 endfacet

 facet normal 0 0 1
  outer loop
  vertex -0.0719986334 0.0216322653 0.0149982916
  vertex -0.0717642382 0.0212307945 0.0149982916
  vertex -0.0717281774 0.0212094765 0.0149982916
  endloop
 endfacet

 facet normal 0 0 1
  outer loop
  vertex -0.0719986334 0.0216322653 0.0149982916
  vertex -0.0717281774 0.0212094765 0.0149982916
  vertex -0.0716921166 0.0211905278 0.0149982916
  endloop
 endfacet

 facet normal 0 0 1
  outer loop
  vertex -0.0719986334 0.0216322653 0.0149982916
  vertex -0.0716921166 0.0211905278 0.0149982916
  vertex -0.0716452375 0.0211751331 0.0149982916
  endloop
 endfacet

 facet normal 0 0 1
  outer loop
  vertex -0.0719986334 0.0216322653 0.0149982916
  vertex -0.0716452375 0.0211751331 0.0149982916
  vertex -0.0716055706 0.0211632904 0.0149982916
  endloop
 endfacet

 facet normal 0 0 1
  outer loop
  vertex -0.0719986334 0.0216322653 0.0149982916
  vertex -0.0716055706 0.0211632904 0.0149982916
  vertex -0.035159152 0.0129230544 0.0149982916
  endloop
 endfacet

 facet normal 0 0 1
  outer loop
  vertex -0.0719986334 0.0216322653 0.0149982916
  vertex -0.035159152 0.0129230544 0.0149982916
  vertex -0.035159152 0.0152158244 0.0149982916
  endloop
 endfacet

 facet normal 0 0 1
  outer loop
  vertex -0.0719986334 0.0216322653 0.0149982916
  vertex -0.035159152 0.0152158244 0.0149982916
  vertex -0.063423425 0.0233352631 0.0149982916
  endloop
 endfacet

 facet normal 0 0 1
  outer loop
  vertex -0.0719986334 0.0216322653 0.0149982916
  vertex -0.063423425 0.0233352631 0.0149982916
  vertex -0.0657132715 0.0238871388 0.0149982916
  endloop
 endfacet

 facet normal 0 0 1
  outer loop
  vertex -0.0719986334 0.0216322653 0.0149982916
  vertex -0.0657132715 0.0238871388 0.0149982916
  vertex -0.0707365125 0.0250216816 0.0149982916
  endloop
 endfacet

 facet normal 0 0 1
  outer loop
  vertex -0.0719986334 0.0216322653 0.0149982916
  vertex -0.0707365125 0.0250216816 0.0149982916
  vertex -0.0708591193 0.0248902254 0.0149982916
  endloop
 endfacet

 facet normal 0 0 1
  outer loop
  vertex -0.0719986334 0.0216322653 0.0149982916
  vertex -0.0708591193 0.0248902254 0.0149982916
  vertex -0.0709673017 0.0247611385 0.0149982916
  endloop
 endfacet

 facet normal 0 0 1
  outer loop
  vertex -0.0719986334 0.0216322653 0.0149982916
  vertex -0.0709673017 0.0247611385 0.0149982916
  vertex -0.0711872727 0.0244650692 0.0149982916
  endloop
 endfacet

 facet normal 0 0 1
  outer loop
  vertex -0.0719986334 0.0216322653 0.0149982916
  vertex -0.0711872727 0.0244650692 0.0149982916
  vertex -0.0711944848 0.0244544093 0.0149982916
  endloop
 endfacet

 facet normal 0 0 1
  outer loop
  vertex -0.0719986334 0.0216322653 0.0149982916
  vertex -0.0711944848 0.0244544093 0.0149982916
  vertex -0.0712413639 0.0243821684 0.0149982916
  endloop
 endfacet

 facet normal 0 0 1
  outer loop
  vertex -0.0719986334 0.0216322653 0.0149982916
  vertex -0.0712413639 0.0243821684 0.0149982916
  vertex -0.0712882429 0.0243063755 0.0149982916
  endloop
 endfacet

 facet normal 0 0 1
  outer loop
  vertex -0.0719986334 0.0216322653 0.0149982916
  vertex -0.0712882429 0.0243063755 0.0149982916
  vertex -0.0713387281 0.0242211074 0.0149982916
  endloop
 endfacet

 facet normal 0 0 1
  outer loop
  vertex -0.0719986334 0.0216322653 0.0149982916
  vertex -0.0713387281 0.0242211074 0.0149982916
  vertex -0.0713747814 0.024154786 0.0149982916
  endloop
 endfacet

 facet normal 0 0 1
  outer loop
  vertex -0.0719986334 0.0216322653 0.0149982916
  vertex -0.0713747814 0.024154786 0.0149982916
  vertex -0.0714108422 0.0240766238 0.0149982916
  endloop
 endfacet

 facet normal 0 0 1
  outer loop
  vertex -0.0719986334 0.0216322653 0.0149982916
  vertex -0.0714108422 0.0240766238 0.0149982916
  vertex -0.0714613274 0.0239617489 0.0149982916
  endloop
 endfacet

 facet normal 0 0 1
  outer loop
  vertex -0.0719986334 0.0216322653 0.0149982916
  vertex -0.0714613274 0.0239617489 0.0149982916
  vertex -0.0714649335 0.0239534583 0.0149982916
  endloop
 endfacet

 facet normal 0 0 1
  outer loop
  vertex -0.0719986334 0.0216322653 0.0149982916
  vertex -0.0714649335 0.0239534583 0.0149982916
  vertex -0.0715046003 0.0238563474 0.0149982916
  endloop
 endfacet

 facet normal 0 0 1
  outer loop
  vertex -0.0719986334 0.0216322653 0.0149982916
  vertex -0.0715046003 0.0238563474 0.0149982916
  vertex -0.0715262368 0.0237852912 0.0149982916
  endloop
 endfacet

 facet normal 0 0 1
  outer loop
  vertex -0.0719986334 0.0216322653 0.0149982916
  vertex -0.0715262368 0.0237852912 0.0149982916
  vertex -0.0715442672 0.0237106811 0.0149982916
  endloop
 endfacet

 facet normal 0 0 1
  outer loop
  vertex -0.0719986334 0.0216322653 0.0149982916
  vertex -0.0715442672 0.0237106811 0.0149982916
  vertex -0.071980603 0.0217720103 0.0149982916
  endloop
 endfacet

 facet normal 0 0 1
  outer loop
  vertex -0.0719986334 0.0216322653 0.0149982916
  vertex -0.071980603 0.0217720103 0.0149982916
  vertex -0.0719914213 0.0217199028 0.0149982916
  endloop
 endfacet

 facet normal -0.975616515 0.21948266 -0.000213308202
  outer loop
  vertex -0.0719914213 0.0217187181 -0.002996
  vertex -0.0717642382 0.0227443073 0.0132052032
  vertex -0.0717642382 0.0227372013 0.00589370169
  endloop
 endfacet

 facet normal -0.975051224 0.221979842 -0.000513853622
  outer loop
  vertex -0.0719914213 0.0217187181 -0.002996
  vertex -0.0717642382 0.0227372013 0.00589370169
  vertex -0.071847178 0.0223523099 -0.002996
  endloop
 endfacet

 facet normal -0.97559464 0.219575316 0.00134343957
  outer loop
  vertex -0.071980603 0.0217720103 0.0149982916
  vertex -0.0715442672 0.0237106811 0.0149982916
  vertex -0.0717642382 0.0227443073 0.0132052032
  endloop
 endfacet

 facet normal -0.974972129 0.222327277 -0.000216072774
  outer loop
  vertex -0.0717642382 0.0227443073 0.0132052032
  vertex -0.0715442672 0.0237106811 0.0149982916
  vertex -0.0717642382 0.0227372013 0.00589370169
  endloop
 endfacet

 facet normal -0.926549256 -0.376173735 0
  outer loop
  vertex -0.0719733909 0.0214960724 0.0134940706
  vertex -0.0719589666 0.0214605443 -0.002996
  vertex -0.0719589666 0.0214605443 0.00589370169
  endloop
 endfacet

 facet normal -0.921982229 -0.387232304 6.0362061e-05
  outer loop
  vertex -0.0719733909 0.0214960724 0.0134940706
  vertex -0.0719589666 0.0214605443 0.00589370169
  vertex -0.0719589666 0.021461729 0.0134940706
  endloop
 endfacet

 facet normal -0.921982229 -0.387232274 0.000304864865
  outer loop
  vertex -0.0719733909 0.0214960724 0.0134940706
  vertex -0.0719589666 0.021461729 0.0134940706
  vertex -0.0719589666 0.0214629136 0.0149982916
  endloop
 endfacet

 facet normal -0.94444412 -0.328667134 0.00181129889
  outer loop
  vertex -0.0719733909 0.0214960724 0.0134940706
  vertex -0.0719589666 0.0214629136 0.0149982916
  vertex -0.0719733909 0.021504363 0.0149982916
  endloop
 endfacet

 facet normal -0.978366256 -0.206877321 0.00114010996
  outer loop
  vertex -0.0719733909 0.0214960724 0.0134940706
  vertex -0.0719733909 0.021504363 0.0149982916
  vertex -0.0719914213 0.0215813424 0.0134940706
  endloop
 endfacet

 facet normal -0.888281047 -0.459300458 -8.42926529e-05
  outer loop
  vertex -0.0719589666 0.0214605443 -0.002996
  vertex -0.0719265118 0.0213977769 -0.002996
  vertex -0.0719409361 0.0214226488 0.0134940706
  endloop
 endfacet

 facet normal -0.903006196 -0.429627538 0
  outer loop
  vertex -0.0719589666 0.0214605443 -0.002996
  vertex -0.0719409361 0.0214226488 0.0134940706
  vertex -0.0719589666 0.0214605443 0.00589370169
  endloop
 endfacet

 facet normal -0.974853039 0.222848028 -0.000553291233
  outer loop
  vertex -0.0717642382 0.0227372013 0.00589370169
  vertex -0.071757026 0.0227466747 -0.002996
  vertex -0.071847178 0.0223523099 -0.002996
  endloop
 endfacet

 facet normal -0.974289656 0.225298226 -0.000550222874
  outer loop
  vertex -0.0717642382 0.0227372013 0.00589370169
  vertex -0.0715442672 0.0237106811 0.0149982916
  vertex -0.071757026 0.0227466747 -0.002996
  endloop
 endfacet

 facet normal -0.972019792 0.234896973 -0.00109129201
  outer loop
  vertex -0.0715442672 0.0237106811 0.0149982916
  vertex -0.0715262368 0.0237852912 0.0149982916
  vertex -0.071757026 0.0227466747 -0.002996
  endloop
 endfacet

 facet normal -0.908023953 -0.418918252 6.53012903e-05
  outer loop
  vertex -0.0719589666 0.0214605443 0.00589370169
  vertex -0.0719409361 0.0214226488 0.0134940706
  vertex -0.0719589666 0.021461729 0.0134940706
  endloop
 endfacet

 facet normal -0.908023834 -0.418918252 0.000329810951
  outer loop
  vertex -0.0719589666 0.021461729 0.0134940706
  vertex -0.0719409361 0.0214226488 0.0134940706
  vertex -0.0719409361 0.0214238316 0.0149982916
  endloop
 endfacet

 facet normal -0.908023834 -0.418918252 0.000329810951
  outer loop
  vertex -0.0719589666 0.021461729 0.0134940706
  vertex -0.0719409361 0.0214238316 0.0149982916
  vertex -0.0719589666 0.0214629136 0.0149982916
  endloop
 endfacet

 facet normal -0.837490916 -0.546451211 -0.00024260857
  outer loop
  vertex -0.0719265118 0.0213977769 -0.002996
  vertex -0.0718940571 0.0213480368 -0.002996
  vertex -0.0719120875 0.0213717241 0.00589370169
  endloop
 endfacet

 facet normal -0.871540666 -0.490323186 -2.28603785e-05
  outer loop
  vertex -0.0719265118 0.0213977769 -0.002996
  vertex -0.0719120875 0.0213717241 0.00589370169
  vertex -0.0719409361 0.0214226488 0.0134940706
  endloop
 endfacet

 facet normal -0.866498947 -0.499178976 5.56118976e-05
  outer loop
  vertex -0.0719409361 0.0214226488 0.0134940706
  vertex -0.0719120875 0.0213717241 0.00589370169
  vertex -0.0719156936 0.0213788301 0.0134940706
  endloop
 endfacet

 facet normal -0.866498947 -0.499178946 0.000392999587
  outer loop
  vertex -0.0719409361 0.0214226488 0.0134940706
  vertex -0.0719156936 0.0213788301 0.0134940706
  vertex -0.0719409361 0.0214238316 0.0149982916
  endloop
 endfacet

 facet normal -0.969277322 0.245964363 -0.00176526594
  outer loop
  vertex -0.071757026 0.0227466747 -0.002996
  vertex -0.0715262368 0.0237852912 0.0149982916
  vertex -0.0717462078 0.0227893088 -0.002996
  endloop
 endfacet

 facet normal -0.956627727 0.291279912 -0.00442810915
  outer loop
  vertex -0.0715262368 0.0237852912 0.0149982916
  vertex -0.0715046003 0.0238563474 0.0149982916
  vertex -0.0717462078 0.0227893088 -0.002996
  endloop
 endfacet

 facet normal -0.846730113 -0.532019973 0.00170728262
  outer loop
  vertex -0.0719409361 0.0214238316 0.0149982916
  vertex -0.0719156936 0.0213788301 0.0134940706
  vertex -0.0718940571 0.0213492215 0.0149982916
  endloop
 endfacet

 facet normal -0.765700579 -0.643197179 -1.73448261e-05
  outer loop
  vertex -0.0718940571 0.0213480368 -0.002996
  vertex -0.0718652084 0.0213136934 -0.002996
  vertex -0.071890451 0.0213433001 0.0134940706
  endloop
 endfacet

 facet normal -0.795700788 -0.605690002 -1.05621156e-08
  outer loop
  vertex -0.0718940571 0.0213480368 -0.002996
  vertex -0.071890451 0.0213433001 0.0134940706
  vertex -0.0719120875 0.0213717241 0.00589370169
  endloop
 endfacet

 facet normal -0.815210283 -0.579165101 0.000154722307
  outer loop
  vertex -0.0719120875 0.0213717241 0.00589370169
  vertex -0.071890451 0.0213433001 0.0134940706
  vertex -0.0719156936 0.0213788301 0.0134940706
  endloop
 endfacet

 facet normal -0.815210283 -0.579165161 0.00032598048
  outer loop
  vertex -0.0719156936 0.0213788301 0.0134940706
  vertex -0.071890451 0.0213433001 0.0134940706
  vertex -0.0718940571 0.0213492215 0.0149982916
  endloop
 endfacet

 facet normal -0.925699472 0.378127813 -0.00999334455
  outer loop
  vertex -0.0717462078 0.0227893088 -0.002996
  vertex -0.0715046003 0.0238563474 0.0149982916
  vertex -0.0714649335 0.0239534583 0.0149982916
  endloop
 endfacet

 facet normal -0.916954696 0.398826569 -0.0114691509
  outer loop
  vertex -0.0717462078 0.0227893088 -0.002996
  vertex -0.0714649335 0.0239534583 0.0149982916
  vertex -0.0714613274 0.0239617489 0.0149982916
  endloop
 endfacet

 facet normal -0.915429473 0.402307868 -0.0117201274
  outer loop
  vertex -0.0717462078 0.0227893088 -0.002996
  vertex -0.0714613274 0.0239617489 0.0149982916
  vertex -0.0714108422 0.0240766238 0.0149982916
  endloop
 endfacet

 facet normal -0.907947659 0.418880463 -0.0130451731
  outer loop
  vertex -0.0717462078 0.0227893088 -0.002996
  vertex -0.0714108422 0.0240766238 0.0149982916
  vertex -0.0713747814 0.024154786 0.0149982916
  endloop
 endfacet

 facet normal -0.904069364 0.427164525 -0.0137538528
  outer loop
  vertex -0.0717462078 0.0227893088 -0.002996
  vertex -0.0713747814 0.024154786 0.0149982916
  vertex -0.071713753 0.0228579976 -0.002996
  endloop
 endfacet

 facet normal -0.754443288 -0.656364858 0.000775558408
  outer loop
  vertex -0.0718940571 0.0213492215 0.0149982916
  vertex -0.071890451 0.0213433001 0.0134940706
  vertex -0.0718652084 0.0213160627 0.0149982916
  endloop
 endfacet

 facet normal -0.760951638 -0.648808658 0
  outer loop
  vertex -0.0718652084 0.0213136934 -0.002996
  vertex -0.0718652084 0.0213136934 0.00589370169
  vertex -0.071890451 0.0213433001 0.0134940706
  endloop
 endfacet

 facet normal -0.689670444 -0.724123418 0
  outer loop
  vertex -0.0718652084 0.0213136934 -0.002996
  vertex -0.0718291476 0.0212793499 -0.002996
  vertex -0.0718291476 0.0212793499 0.0134940706
  endloop
 endfacet

 facet normal -0.689670444 -0.724123418 0
  outer loop
  vertex -0.0718652084 0.0213136934 -0.002996
  vertex -0.0718291476 0.0212793499 0.0134940706
  vertex -0.0718652084 0.0213136934 0.00589370169
  endloop
 endfacet

 facet normal -0.747682035 -0.664057016 0.000103470949
  outer loop
  vertex -0.071890451 0.0213433001 0.0134940706
  vertex -0.0718652084 0.0213136934 0.00589370169
  vertex -0.0718652084 0.021314878 0.0134940706
  endloop
 endfacet

 facet normal -0.747681916 -0.664056838 0.0005228066
  outer loop
  vertex -0.071890451 0.0213433001 0.0134940706
  vertex -0.0718652084 0.021314878 0.0134940706
  vertex -0.0718652084 0.0213160627 0.0149982916
  endloop
 endfacet

 facet normal -0.902921617 0.42957902 -0.013949479
  outer loop
  vertex -0.071713753 0.0228579976 -0.002996
  vertex -0.0713747814 0.024154786 0.0149982916
  vertex -0.0716957226 0.0228958949 -0.002996
  endloop
 endfacet

 facet normal -0.878391683 0.477611989 -0.0177473985
  outer loop
  vertex -0.0713747814 0.024154786 0.0149982916
  vertex -0.0713387281 0.0242211074 0.0149982916
  vertex -0.0716957226 0.0228958949 -0.002996
  endloop
 endfacet

 facet normal -0.701838076 -0.712336242 0.000560816668
  outer loop
  vertex -0.0718652084 0.0213160627 0.0149982916
  vertex -0.0718652084 0.021314878 0.0134940706
  vertex -0.0718291476 0.0212793499 0.0134940706
  endloop
 endfacet

 facet normal -0.701834857 -0.71233952 0.000560970628
  outer loop
  vertex -0.0718652084 0.0213160627 0.0149982916
  vertex -0.0718291476 0.0212793499 0.0134940706
  vertex -0.0718327537 0.0212840866 0.0149982916
  endloop
 endfacet

 facet normal -0.701838195 -0.712336421 0.000110993671
  outer loop
  vertex -0.0718652084 0.0213136934 0.00589370169
  vertex -0.0718291476 0.0212793499 0.0134940706
  vertex -0.0718652084 0.021314878 0.0134940706
  endloop
 endfacet

 facet normal -0.608248174 -0.793746948 -0.000387741224
  outer loop
  vertex -0.0718291476 0.0212793499 -0.002996
  vertex -0.0717642382 0.0212296098 -0.002996
  vertex -0.0717930868 0.0212473739 0.00589370169
  endloop
 endfacet

 facet normal -0.663458943 -0.748212695 0
  outer loop
  vertex -0.0718291476 0.0212793499 -0.002996
  vertex -0.0717930868 0.0212473739 0.00589370169
  vertex -0.0718291476 0.0212793499 0.0134940706
  endloop
 endfacet

 facet normal -0.860308886 0.509362817 -0.0204444844
  outer loop
  vertex -0.0716957226 0.0228958949 -0.002996
  vertex -0.0713387281 0.0242211074 0.0149982916
  vertex -0.0712882429 0.0243063755 0.0149982916
  endloop
 endfacet

 facet normal -0.850266218 0.525894403 -0.0219677296
  outer loop
  vertex -0.0716957226 0.0228958949 -0.002996
  vertex -0.0712882429 0.0243063755 0.0149982916
  vertex -0.0712413639 0.0243821684 0.0149982916
  endloop
 endfacet

 facet normal -0.838617325 0.54420197 -0.0237740185
  outer loop
  vertex -0.0716957226 0.0228958949 -0.002996
  vertex -0.0712413639 0.0243821684 0.0149982916
  vertex -0.0711944848 0.0244544093 0.0149982916
  endloop
 endfacet

 facet normal -0.827983379 0.560174644 -0.0254536495
  outer loop
  vertex -0.0716957226 0.0228958949 -0.002996
  vertex -0.0711944848 0.0244544093 0.0149982916
  vertex -0.0711872727 0.0244650692 0.0149982916
  endloop
 endfacet

 facet normal -0.802474439 0.595966995 -0.0292956773
  outer loop
  vertex -0.0716957226 0.0228958949 -0.002996
  vertex -0.0711872727 0.0244650692 0.0149982916
  vertex -0.0716596618 0.0229444504 -0.002996
  endloop
 endfacet

 facet normal -0.642861366 -0.765982151 0.000871260418
  outer loop
  vertex -0.0718327537 0.0212840866 0.0149982916
  vertex -0.0718291476 0.0212793499 0.0134940706
  vertex -0.071800299 0.0212568492 0.0149982916
  endloop
 endfacet

 facet normal -0.625233293 -0.780437887 0.000316938618
  outer loop
  vertex -0.0718291476 0.0212793499 0.0134940706
  vertex -0.0717930868 0.0212473739 0.00589370169
  vertex -0.071800299 0.0212568492 0.0149982916
  endloop
 endfacet

 facet normal -0.529377878 -0.848386168 -2.2603861e-05
  outer loop
  vertex -0.0717642382 0.0212296098 -0.002996
  vertex -0.0717281774 0.0212071091 -0.002996
  vertex -0.0717930868 0.0212473739 0.00589370169
  endloop
 endfacet

 facet normal -0.585656106 -0.81055969 0.000379631616
  outer loop
  vertex -0.0717930868 0.0212473739 0.00589370169
  vertex -0.0717642382 0.0212307945 0.0149982916
  vertex -0.071800299 0.0212568492 0.0149982916
  endloop
 endfacet

 facet normal -0.527144194 -0.84977591 0
  outer loop
  vertex -0.0717930868 0.0212473739 0.00589370169
  vertex -0.0717281774 0.0212071091 -0.002996
  vertex -0.0717281774 0.0212071091 0.00589370169
  endloop
 endfacet

 facet normal -0.527144194 -0.84977591 0.000117669741
  outer loop
  vertex -0.0717930868 0.0212473739 0.00589370169
  vertex -0.0717281774 0.0212071091 0.00589370169
  vertex -0.0717245713 0.0212059245 0.0134940706
  endloop
 endfacet

 facet normal -0.527779222 -0.849381626 0.000125544233
  outer loop
  vertex -0.0717930868 0.0212473739 0.00589370169
  vertex -0.0717245713 0.0212059245 0.0134940706
  vertex -0.0717642382 0.0212307945 0.0149982916
  endloop
 endfacet

 facet normal -0.802358329 0.596122444 -0.0293118637
  outer loop
  vertex -0.0716596618 0.0229444504 -0.002996
  vertex -0.0711872727 0.0244650692 0.0149982916
  vertex -0.0709673017 0.0247611385 0.0149982916
  endloop
 endfacet

 facet normal -0.765957534 0.641919374 -0.0353360698
  outer loop
  vertex -0.0716596618 0.0229444504 -0.002996
  vertex -0.0709673017 0.0247611385 0.0149982916
  vertex -0.0708591193 0.0248902254 0.0149982916
  endloop
 endfacet

 facet normal -0.730673432 0.681483865 -0.0411840342
  outer loop
  vertex -0.0716596618 0.0229444504 -0.002996
  vertex -0.0708591193 0.0248902254 0.0149982916
  vertex -0.0707365125 0.0250216816 0.0149982916
  endloop
 endfacet

 facet normal -0.715529382 0.697209775 -0.0437763445
  outer loop
  vertex -0.0716596618 0.0229444504 -0.002996
  vertex -0.0707365125 0.0250216816 0.0149982916
  vertex -0.0716308132 0.0229740571 -0.002996
  endloop
 endfacet

 facet normal -0.386949986 -0.922100723 -0.000150178952
  outer loop
  vertex -0.0717281774 0.0212071091 -0.002996
  vertex -0.0716632679 0.0211798698 -0.002996
  vertex -0.0716921166 0.0211905278 0.00589370169
  endloop
 endfacet

 facet normal -0.417748064 -0.908562899 0
  outer loop
  vertex -0.0717281774 0.0212071091 -0.002996
  vertex -0.0716921166 0.0211905278 0.00589370169
  vertex -0.0716921166 0.0211905278 0.0149982916
  endloop
 endfacet

 facet normal -0.417748064 -0.908562899 0
  outer loop
  vertex -0.0717281774 0.0212071091 -0.002996
  vertex -0.0716921166 0.0211905278 0.0149982916
  vertex -0.0717281774 0.0212071091 0.00589370169
  endloop
 endfacet

 facet normal -0.508877158 -0.86083883 0.000813410268
  outer loop
  vertex -0.0717642382 0.0212307945 0.0149982916
  vertex -0.0717245713 0.0212059245 0.0134940706
  vertex -0.0717281774 0.0212094765 0.0149982916
  endloop
 endfacet

 facet normal -0.431016177 -0.902344227 6.38753263e-05
  outer loop
  vertex -0.0717281774 0.0212071091 0.00589370169
  vertex -0.0716921166 0.0211905278 0.0149982916
  vertex -0.0717245713 0.0212059245 0.0134940706
  endloop
 endfacet

 facet normal -0.465161413 -0.885225415 0.000975795439
  outer loop
  vertex -0.0717245713 0.0212059245 0.0134940706
  vertex -0.0716921166 0.0211905278 0.0149982916
  vertex -0.0717281774 0.0212094765 0.0149982916
  endloop
 endfacet

 facet normal 0.220303506 0.975403786 0.00733511429
  outer loop
  vertex -0.0707365125 0.0250216816 0.0149982916
  vertex -0.0657132715 0.0238871388 0.0149982916
  vertex -0.0413687825 0.0185116809 -0.00135262928
  endloop
 endfacet

 facet normal 0.216418386 0.976300716 0
  outer loop
  vertex -0.0707365125 0.0250216816 0.0149982916
  vertex -0.0413687825 0.0185116809 -0.00135262928
  vertex -0.0413687825 0.0185116809 -0.002996
  endloop
 endfacet

 facet normal 0.15182215 0.982525229 -0.107676707
  outer loop
  vertex -0.0707365125 0.0250216816 0.0149982916
  vertex -0.0413687825 0.0185116809 -0.002996
  vertex -0.0712053031 0.0231220927 -0.002996
  endloop
 endfacet

 facet normal 0.108192638 0.988338232 -0.107153729
  outer loop
  vertex -0.0707365125 0.0250216816 0.0149982916
  vertex -0.0712053031 0.0231220927 -0.002996
  vertex -0.0712377578 0.0231256448 -0.002996
  endloop
 endfacet

 facet normal 0.0813584104 0.990958929 -0.106682375
  outer loop
  vertex -0.0707365125 0.0250216816 0.0149982916
  vertex -0.0712377578 0.0231256448 -0.002996
  vertex -0.0712521821 0.0231268294 -0.002996
  endloop
 endfacet

 facet normal 0 0.994501352 -0.104723901
  outer loop
  vertex -0.0707365125 0.0250216816 0.0149982916
  vertex -0.0712521821 0.0231268294 -0.002996
  vertex -0.071291849 0.0231268294 -0.002996
  endloop
 endfacet

 facet normal -0.117981933 0.987928092 -0.100390606
  outer loop
  vertex -0.0707365125 0.0250216816 0.0149982916
  vertex -0.071291849 0.0231268294 -0.002996
  vertex -0.0713315085 0.0231220927 -0.002996
  endloop
 endfacet

 facet normal -0.149125263 0.983856976 -0.0989310443
  outer loop
  vertex -0.0707365125 0.0250216816 0.0149982916
  vertex -0.0713315085 0.0231220927 -0.002996
  vertex -0.0713783875 0.0231149867 -0.002996
  endloop
 endfacet

 facet normal -0.262833744 0.960407555 -0.0923902094
  outer loop
  vertex -0.0707365125 0.0250216816 0.0149982916
  vertex -0.0713783875 0.0231149867 -0.002996
  vertex -0.0714216605 0.023103144 -0.002996
  endloop
 endfacet

 facet normal -0.336003631 0.937815845 -0.0871954784
  outer loop
  vertex -0.0707365125 0.0250216816 0.0149982916
  vertex -0.0714216605 0.023103144 -0.002996
  vertex -0.0714613274 0.023088932 -0.002996
  endloop
 endfacet

 facet normal -0.440551817 0.89430511 -0.0783108026
  outer loop
  vertex -0.0707365125 0.0250216816 0.0149982916
  vertex -0.0714613274 0.023088932 -0.002996
  vertex -0.0715262368 0.0230569579 -0.002996
  endloop
 endfacet

 facet normal -0.561265528 0.825043797 -0.0654505864
  outer loop
  vertex -0.0707365125 0.0250216816 0.0149982916
  vertex -0.0715262368 0.0230569579 -0.002996
  vertex -0.071576722 0.0230226126 -0.002996
  endloop
 endfacet

 facet normal -0.657929897 0.751230478 -0.0527367741
  outer loop
  vertex -0.0707365125 0.0250216816 0.0149982916
  vertex -0.071576722 0.0230226126 -0.002996
  vertex -0.0715983585 0.0230036639 -0.002996
  endloop
 endfacet

 facet normal -0.673092961 0.737831175 -0.0505078211
  outer loop
  vertex -0.0707365125 0.0250216816 0.0149982916
  vertex -0.0715983585 0.0230036639 -0.002996
  vertex -0.0716308132 0.0229740571 -0.002996
  endloop
 endfacet

 facet normal -0.312037349 -0.950069845 -5.01060704e-09
  outer loop
  vertex -0.0716632679 0.0211798698 -0.002996
  vertex -0.0716452375 0.0211739484 0.00589370169
  vertex -0.0716416314 0.0211727638 0.0134940706
  endloop
 endfacet

 facet normal -0.331186593 -0.943565309 2.7922737e-05
  outer loop
  vertex -0.0716632679 0.0211798698 -0.002996
  vertex -0.0716416314 0.0211727638 0.0134940706
  vertex -0.0716921166 0.0211905278 0.0149982916
  endloop
 endfacet

 facet normal -0.346557647 -0.938028753 0
  outer loop
  vertex -0.0716632679 0.0211798698 -0.002996
  vertex -0.0716921166 0.0211905278 0.0149982916
  vertex -0.0716921166 0.0211905278 0.00589370169
  endloop
 endfacet

 facet normal -0.257823288 -0.966192007 -0.000233285828
  outer loop
  vertex -0.0716632679 0.0211798698 -0.002996
  vertex -0.0716055706 0.021164475 -0.002996
  vertex -0.0716091767 0.0211632904 0.00589370169
  endloop
 endfacet

 facet normal -0.283448428 -0.958987474 -6.39296341e-05
  outer loop
  vertex -0.0716632679 0.0211798698 -0.002996
  vertex -0.0716091767 0.0211632904 0.00589370169
  vertex -0.0716452375 0.0211739484 0.00589370169
  endloop
 endfacet

 facet normal -0.312020481 -0.95007509 0.000748056395
  outer loop
  vertex -0.0716921166 0.0211905278 0.0149982916
  vertex -0.0716416314 0.0211727638 0.0134940706
  vertex -0.0716452375 0.0211751331 0.0149982916
  endloop
 endfacet

 facet normal 0.234200925 0.971748769 0.0292282514
  outer loop
  vertex -0.0657132715 0.0238871388 0.0149982916
  vertex -0.063423425 0.0233352631 0.0149982916
  vertex -0.0413687825 0.0185116809 -0.00135262928
  endloop
 endfacet

 facet normal 0.275017887 0.957354605 0.088529855
  outer loop
  vertex -0.0413687825 0.0185116809 -0.00135262928
  vertex -0.063423425 0.0233352631 0.0149982916
  vertex -0.035159152 0.0152158244 0.0149982916
  endloop
 endfacet

 facet normal 0.343385845 0.937368393 0.0585369617
  outer loop
  vertex -0.0413687825 0.0185116809 -0.00135262928
  vertex -0.035159152 0.0152158244 0.0149982916
  vertex -0.0352132395 0.0160779823 0.00150961836
  endloop
 endfacet

 facet normal 0.367673725 0.929954886 0
  outer loop
  vertex -0.0413687825 0.0185116809 -0.00135262928
  vertex -0.0352132395 0.0160779823 0.00150961836
  vertex -0.0352132395 0.0160779823 -0.000894669327
  endloop
 endfacet

 facet normal 0.367673725 0.929954886 0
  outer loop
  vertex -0.0413687825 0.0185116809 -0.00135262928
  vertex -0.0352132395 0.0160779823 -0.000894669327
  vertex -0.0413687825 0.0185116809 -0.002996
  endloop
 endfacet

 facet normal 0.447916567 0.483631313 -0.751978397
  outer loop
  vertex -0.0413687825 0.0185116809 -0.002996
  vertex -0.0352132395 0.0160779823 -0.000894669327
  vertex -0.0391907208 0.017198313 -0.00254332414
  endloop
 endfacet

 facet normal 0.39257881 0.35922572 -0.846663356
  outer loop
  vertex -0.0413687825 0.0185116809 -0.002996
  vertex -0.0391907208 0.017198313 -0.00254332414
  vertex -0.0403122045 0.0173570067 -0.002996
  endloop
 endfacet

 facet normal -0.283448428 -0.958987474 -1.49571933e-05
  outer loop
  vertex -0.0716452375 0.0211739484 0.00589370169
  vertex -0.0716091767 0.0211632904 0.00589370169
  vertex -0.0716416314 0.0211727638 0.0134940706
  endloop
 endfacet

 facet normal -0.258091807 -0.966120422 0.00010221055
  outer loop
  vertex -0.0716416314 0.0211727638 0.0134940706
  vertex -0.0716091767 0.0211632904 0.00589370169
  vertex -0.0716055706 0.0211632904 0.0149982916
  endloop
 endfacet

 facet normal -0.286080807 -0.958205283 0.000823035603
  outer loop
  vertex -0.0716416314 0.0211727638 0.0134940706
  vertex -0.0716055706 0.0211632904 0.0149982916
  vertex -0.0716452375 0.0211751331 0.0149982916
  endloop
 endfacet

 facet normal -0.220566854 -0.975371957 -0.000219397654
  outer loop
  vertex -0.0716055706 0.021164475 -0.002996
  vertex -0.0410370231 0.0142518198 -0.002996
  vertex -0.0716091767 0.0211632904 0.00589370169
  endloop
 endfacet

 facet normal -0.220505461 -0.975385785 2.47054004e-06
  outer loop
  vertex -0.0716091767 0.0211632904 0.00589370169
  vertex -0.0410370231 0.0142518198 -0.002996
  vertex -0.035159152 0.0129230544 0.0149982916
  endloop
 endfacet

 facet normal -0.220525607 -0.975381136 8.73334429e-05
  outer loop
  vertex -0.0716091767 0.0211632904 0.00589370169
  vertex -0.035159152 0.0129230544 0.0149982916
  vertex -0.0716055706 0.0211632904 0.0149982916
  endloop
 endfacet

 facet normal 1 0 0
  outer loop
  vertex -0.035159152 0.0152158244 0.0149982916
  vertex -0.035159152 0.0129230544 0.0149982916
  vertex -0.035159152 0.0129230544 0.00589370169
  endloop
 endfacet

 facet normal 1 0 0
  outer loop
  vertex -0.035159152 0.0152158244 0.0149982916
  vertex -0.035159152 0.0129230544 0.00589370169
  vertex -0.035159152 0.015217009 0.00589370169
  endloop
 endfacet

 facet normal 1 0 0
  outer loop
  vertex -0.035159152 0.0152158244 0.0149982916
  vertex -0.035159152 0.015217009 0.00589370169
  vertex -0.035159152 0.015217009 0.0134940706
  endloop
 endfacet

 facet normal 0.997988641 0.0633930415 4.9908831e-05
  outer loop
  vertex -0.035159152 0.0152158244 0.0149982916
  vertex -0.035159152 0.015217009 0.0134940706
  vertex -0.0352132395 0.0160779823 0.00150961836
  endloop
 endfacet

 facet normal 0.998032331 0.0627010763 0
  outer loop
  vertex -0.0352132395 0.0160779823 0.00150961836
  vertex -0.035159152 0.015217009 0.0134940706
  vertex -0.035159152 0.015217009 0.00589370169
  endloop
 endfacet

 facet normal 0.998032331 0.0627010763 0
  outer loop
  vertex -0.0352132395 0.0160779823 0.00150961836
  vertex -0.035159152 0.015217009 0.00589370169
  vertex -0.0352132395 0.0160779823 -0.000894669327
  endloop
 endfacet

 facet normal 0.99996835 0 -0.00796784833
  outer loop
  vertex -0.0352132395 0.0160779823 -0.000894669327
  vertex -0.035159152 0.015217009 0.00589370169
  vertex -0.035159152 0.0129230544 0.00589370169
  endloop
 endfacet

 facet normal 0.999965191 -0.000731492066 -0.00830778666
  outer loop
  vertex -0.0352132395 0.0160779823 -0.000894669327
  vertex -0.035159152 0.0129230544 0.00589370169
  vertex -0.0352132395 0.0129372654 -0.000618132472
  endloop
 endfacet

 facet normal 0.36214751 -0.0817559659 -0.928528488
  outer loop
  vertex -0.0352132395 0.0160779823 -0.000894669327
  vertex -0.0352132395 0.0129372654 -0.000618132472
  vertex -0.0403122045 0.0173570067 -0.002996
  endloop
 endfacet

 facet normal 0.364562213 -0.0719147772 -0.928397894
  outer loop
  vertex -0.0352132395 0.0160779823 -0.000894669327
  vertex -0.0403122045 0.0173570067 -0.002996
  vertex -0.0391907208 0.017198313 -0.00254332414
  endloop
 endfacet

 facet normal 0.362042874 -0.0818922445 -0.928557336
  outer loop
  vertex -0.0403122045 0.0173570067 -0.002996
  vertex -0.0352132395 0.0129372654 -0.000618132472
  vertex -0.0410153866 0.0142482659 -0.002996
  endloop
 endfacet

 facet normal -0.160302982 -0.975945413 -0.147761568
  outer loop
  vertex -0.0410370231 0.0142518198 -0.002996
  vertex -0.0410153866 0.0142482659 -0.002996
  vertex -0.0391907208 0.0138349524 -0.00224565063
  endloop
 endfacet

 facet normal -0.220146984 -0.975466669 -0.000244134542
  outer loop
  vertex -0.0410370231 0.0142518198 -0.002996
  vertex -0.0391907208 0.0138349524 -0.00224565063
  vertex -0.035159152 0.0129230544 0.00589370169
  endloop
 endfacet

 facet normal -0.220498249 -0.975387335 0
  outer loop
  vertex -0.0410370231 0.0142518198 -0.002996
  vertex -0.035159152 0.0129230544 0.00589370169
  vertex -0.035159152 0.0129230544 0.0149982916
  endloop
 endfacet

 facet normal -0.22003749 -0.975491405 -0.000301132619
  outer loop
  vertex -0.035159152 0.0129230544 0.00589370169
  vertex -0.0391907208 0.0138349524 -0.00224565063
  vertex -0.0352132395 0.0129372654 -0.000618132472
  endloop
 endfacet

 facet normal -0.0563289821 -0.926068664 -0.373127311
  outer loop
  vertex -0.0352132395 0.0129372654 -0.000618132472
  vertex -0.0391907208 0.0138349524 -0.00224565063
  vertex -0.0410153866 0.0142482659 -0.002996
  endloop
 endfacet

endsolid AssimpScene
