solid AssimpScene
 facet normal 0 -1 0
  outer loop
  vertex -0.159363911 0.00446915254 0.0120816715
  vertex -0.157364592 0.00446915254 0.0120816715
  vertex -0.15536429 0.00446915254 0.0134839984
  endloop
 endfacet

 facet normal 0 -1 0
  outer loop
  vertex -0.159363911 0.00446915254 0.0120816715
  vertex -0.15536429 0.00446915254 0.0134839984
  vertex -0.15536429 0.00446915254 0.0171052236
  endloop
 endfacet

 facet normal 0 -1 0
  outer loop
  vertex -0.159363911 0.00446915254 0.0120816715
  vertex -0.15536429 0.00446915254 0.0171052236
  vertex -0.1603643 0.00446915254 0.0171052236
  endloop
 endfacet

 facet normal 0 -1 0
  outer loop
  vertex -0.159363911 0.00446915254 0.0120816715
  vertex -0.1603643 0.00446915254 0.0171052236
  vertex -0.1603643 0.00446915254 0.0150278648
  endloop
 endfacet

 facet normal -0.00168789923 -0.99999845 -0.00057313405
  outer loop
  vertex -0.159363911 0.00446915254 0.0120816715
  vertex -0.1603643 0.00446915254 0.0150278648
  vertex -0.1603643 0.00448071165 -0.00514038466
  endloop
 endfacet

 facet normal 0 -0.999999762 -0.000671181537
  outer loop
  vertex -0.159363911 0.00446915254 0.0120816715
  vertex -0.1603643 0.00448071165 -0.00514038466
  vertex -0.15536429 0.00448071165 -0.00514038466
  endloop
 endfacet

 facet normal 0 -0.999999762 -0.000671181537
  outer loop
  vertex -0.159363911 0.00446915254 0.0120816715
  vertex -0.15536429 0.00448071165 -0.00514038466
  vertex -0.157364592 0.00446915254 0.0120816715
  endloop
 endfacet

 facet normal 0.000435108785 -0.999999702 -0.000620644714
  outer loop
  vertex -0.157364592 0.00446915254 0.0120816715
  vertex -0.15536429 0.00448071165 -0.00514038466
  vertex -0.15536429 0.00446915254 0.0134839984
  endloop
 endfacet

 facet normal -1 0 0
  outer loop
  vertex -0.1603643 0.00446915254 0.0150278648
  vertex -0.1603643 0.00446915254 0.0171052236
  vertex -0.1603643 0.0050723278 0.0168548096
  endloop
 endfacet

 facet normal -1 0 0
  outer loop
  vertex -0.1603643 0.00446915254 0.0150278648
  vertex -0.1603643 0.0050723278 0.0168548096
  vertex -0.1603643 0.00600125967 0.0163713992
  endloop
 endfacet

 facet normal -1 0 0
  outer loop
  vertex -0.1603643 0.00446915254 0.0150278648
  vertex -0.1603643 0.00600125967 0.0163713992
  vertex -0.1603643 0.00688290456 0.01580742
  endloop
 endfacet

 facet normal -1 0 0
  outer loop
  vertex -0.1603643 0.00446915254 0.0150278648
  vertex -0.1603643 0.00688290456 0.01580742
  vertex -0.1603643 0.0077130585 0.0151715809
  endloop
 endfacet

 facet normal -1 0 0
  outer loop
  vertex -0.1603643 0.00446915254 0.0150278648
  vertex -0.1603643 0.0077130585 0.0151715809
  vertex -0.1603643 0.00848541688 0.0144638857
  endloop
 endfacet

 facet normal -1 0 0
  outer loop
  vertex -0.1603643 0.00446915254 0.0150278648
  vertex -0.1603643 0.00848541688 0.0144638857
  vertex -0.1603643 0.0089404257 0.0139674097
  endloop
 endfacet

 facet normal -1 0 0
  outer loop
  vertex -0.1603643 0.00446915254 0.0150278648
  vertex -0.1603643 0.0089404257 0.0139674097
  vertex -0.1603643 0.00919367466 0.0136908637
  endloop
 endfacet

 facet normal -1 0 0
  outer loop
  vertex -0.1603643 0.00446915254 0.0150278648
  vertex -0.1603643 0.00919367466 0.0136908637
  vertex -0.1603643 0.00983047672 0.0128612258
  endloop
 endfacet

 facet normal -1 0 0
  outer loop
  vertex -0.1603643 0.00446915254 0.0150278648
  vertex -0.1603643 0.00983047672 0.0128612258
  vertex -0.1603643 0.0103926696 0.0119771501
  endloop
 endfacet

 facet normal -1 0 0
  outer loop
  vertex -0.1603643 0.00446915254 0.0150278648
  vertex -0.1603643 0.0103926696 0.0119771501
  vertex -0.1603643 0.0108749997 0.0110495239
  endloop
 endfacet

 facet normal -1 0 0
  outer loop
  vertex -0.1603643 0.00446915254 0.0150278648
  vertex -0.1603643 0.0108749997 0.0110495239
  vertex -0.1603643 0.011275365 0.0100827022
  endloop
 endfacet

 facet normal -1 0 0
  outer loop
  vertex -0.1603643 0.00446915254 0.0150278648
  vertex -0.1603643 0.011275365 0.0100827022
  vertex -0.1603643 0.0115906131 0.00908539537
  endloop
 endfacet

 facet normal -1 0 0
  outer loop
  vertex -0.1603643 0.00446915254 0.0150278648
  vertex -0.1603643 0.0115906131 0.00908539537
  vertex -0.1603643 0.0118175922 0.00806413498
  endloop
 endfacet

 facet normal -1 0 0
  outer loop
  vertex -0.1603643 0.00446915254 0.0150278648
  vertex -0.1603643 0.0118175922 0.00806413498
  vertex -0.1603643 0.0119542005 0.00702327769
  endloop
 endfacet

 facet normal -1 0 0
  outer loop
  vertex -0.1603643 0.00446915254 0.0150278648
  vertex -0.1603643 0.0119542005 0.00702327769
  vertex -0.1603643 0.0119993854 0.00598024251
  endloop
 endfacet

 facet normal -1 0 0
  outer loop
  vertex -0.1603643 0.00446915254 0.0150278648
  vertex -0.1603643 0.0119993854 0.00598024251
  vertex -0.1603643 0.0119542005 0.00493502943
  endloop
 endfacet

 facet normal -1 0 0
  outer loop
  vertex -0.1603643 0.00446915254 0.0150278648
  vertex -0.1603643 0.0119542005 0.00493502943
  vertex -0.1603643 0.0118175922 0.00389852701
  endloop
 endfacet

 facet normal -1 0 0
  outer loop
  vertex -0.1603643 0.00446915254 0.0150278648
  vertex -0.1603643 0.0118175922 0.00389852701
  vertex -0.1603643 0.0115906131 0.00287508965
  endloop
 endfacet

 facet normal -1 0 0
  outer loop
  vertex -0.1603643 0.00446915254 0.0150278648
  vertex -0.1603643 0.0115906131 0.00287508965
  vertex -0.1603643 0.011275365 0.0018777824
  endloop
 endfacet

 facet normal -1 0 0
  outer loop
  vertex -0.1603643 0.00446915254 0.0150278648
  vertex -0.1603643 0.011275365 0.0018777824
  vertex -0.1603643 0.0108749997 0.000910960545
  endloop
 endfacet

 facet normal -1 0 0
  outer loop
  vertex -0.1603643 0.00446915254 0.0150278648
  vertex -0.1603643 0.0108749997 0.000910960545
  vertex -0.1603643 0.0103926696 -1.88432787e-05
  endloop
 endfacet

 facet normal -1 0 0
  outer loop
  vertex -0.1603643 0.00446915254 0.0150278648
  vertex -0.1603643 0.0103926696 -1.88432787e-05
  vertex -0.1603643 0.00983152725 -0.000900741084
  endloop
 endfacet

 facet normal -1 0 0
  outer loop
  vertex -0.1603643 0.00446915254 0.0150278648
  vertex -0.1603643 0.00983152725 -0.000900741084
  vertex -0.1603643 0.00919367466 -0.00173037872
  endloop
 endfacet

 facet normal -1 0 0
  outer loop
  vertex -0.1603643 0.00446915254 0.0150278648
  vertex -0.1603643 0.00919367466 -0.00173037872
  vertex -0.1603643 0.0089404257 -0.00200910191
  endloop
 endfacet

 facet normal -1 0 0
  outer loop
  vertex -0.1603643 0.00446915254 0.0150278648
  vertex -0.1603643 0.0089404257 -0.00200910191
  vertex -0.1603643 0.00848436542 -0.0025034009
  endloop
 endfacet

 facet normal -1 0 0
  outer loop
  vertex -0.1603643 0.00446915254 0.0150278648
  vertex -0.1603643 0.00848436542 -0.0025034009
  vertex -0.1603643 0.0077130585 -0.00320891896
  endloop
 endfacet

 facet normal -1 0 0
  outer loop
  vertex -0.1603643 0.00446915254 0.0150278648
  vertex -0.1603643 0.0077130585 -0.00320891896
  vertex -0.1603643 0.00688290456 -0.0038469343
  endloop
 endfacet

 facet normal -1 0 0
  outer loop
  vertex -0.1603643 0.00446915254 0.0150278648
  vertex -0.1603643 0.00688290456 -0.0038469343
  vertex -0.1603643 0.006034886 -0.00438913843
  endloop
 endfacet

 facet normal -1 0 0
  outer loop
  vertex -0.1603643 0.00446915254 0.0150278648
  vertex -0.1603643 0.006034886 -0.00438913843
  vertex -0.1603643 0.00600125967 -0.00440873671
  endloop
 endfacet

 facet normal -1 0 0
  outer loop
  vertex -0.1603643 0.00446915254 0.0150278648
  vertex -0.1603643 0.00600125967 -0.00440873671
  vertex -0.1603643 0.00507337879 -0.00489432504
  endloop
 endfacet

 facet normal -1 0 0
  outer loop
  vertex -0.1603643 0.00446915254 0.0150278648
  vertex -0.1603643 0.00507337879 -0.00489432504
  vertex -0.1603643 0.00448071165 -0.00514038466
  endloop
 endfacet

 facet normal -0.77529633 0.242180139 -0.583321929
  outer loop
  vertex -0.1603643 0.00448071165 -0.00514038466
  vertex -0.1603643 0.00507337879 -0.00489432504
  vertex -0.159363911 0.0152044101 -0.00201781187
  endloop
 endfacet

 facet normal 0 0.279573202 -0.960124433
  outer loop
  vertex -0.1603643 0.00448071165 -0.00514038466
  vertex -0.159363911 0.0152044101 -0.00201781187
  vertex -0.15536429 0.0152044101 -0.00201781187
  endloop
 endfacet

 facet normal 0 0.279573202 -0.960124433
  outer loop
  vertex -0.1603643 0.00448071165 -0.00514038466
  vertex -0.15536429 0.0152044101 -0.00201781187
  vertex -0.15536429 0.00448071165 -0.00514038466
  endloop
 endfacet

 facet normal 1 0 0
  outer loop
  vertex -0.15536429 0.00446915254 0.0134839984
  vertex -0.15536429 0.00448071165 -0.00514038466
  vertex -0.15536429 0.0152044101 -0.00201781187
  endloop
 endfacet

 facet normal 1 0 0
  outer loop
  vertex -0.15536429 0.00446915254 0.0134839984
  vertex -0.15536429 0.0152044101 -0.00201781187
  vertex -0.15536429 0.0152044101 0.00598024251
  endloop
 endfacet

 facet normal 1 0 0
  outer loop
  vertex -0.15536429 0.00446915254 0.0134839984
  vertex -0.15536429 0.0152044101 0.00598024251
  vertex -0.15536429 0.015202309 0.0139782969
  endloop
 endfacet

 facet normal 1 0 0
  outer loop
  vertex -0.15536429 0.00446915254 0.0134839984
  vertex -0.15536429 0.015202309 0.0139782969
  vertex -0.15536429 0.00446915254 0.0171052236
  endloop
 endfacet

 facet normal -0.775164723 0.242235363 0.583473742
  outer loop
  vertex -0.1603643 0.00446915254 0.0171052236
  vertex -0.159363911 0.015202309 0.0139782969
  vertex -0.1603643 0.0050723278 0.0168548096
  endloop
 endfacet

 facet normal 0 0.279705167 0.960085988
  outer loop
  vertex -0.1603643 0.00446915254 0.0171052236
  vertex -0.15536429 0.00446915254 0.0171052236
  vertex -0.15536429 0.015202309 0.0139782969
  endloop
 endfacet

 facet normal 0 0.279705167 0.960085988
  outer loop
  vertex -0.1603643 0.00446915254 0.0171052236
  vertex -0.15536429 0.015202309 0.0139782969
  vertex -0.159363911 0.015202309 0.0139782969
  endloop
 endfacet

 facet normal -0.90657413 0.195692107 -0.373936057
  outer loop
  vertex -0.1603643 0.00507337879 -0.00489432504
  vertex -0.1603643 0.00600125967 -0.00440873671
  vertex -0.159363911 0.0152044101 -0.00201781187
  endloop
 endfacet

 facet normal -0.931812882 0.182752877 -0.313570112
  outer loop
  vertex -0.159363911 0.0152044101 -0.00201781187
  vertex -0.1603643 0.00600125967 -0.00440873671
  vertex -0.1603643 0.006034886 -0.00438913843
  endloop
 endfacet

 facet normal -0.946747959 0.173442408 -0.271267384
  outer loop
  vertex -0.159363911 0.0152044101 -0.00201781187
  vertex -0.1603643 0.006034886 -0.00438913843
  vertex -0.1603643 0.00688290456 -0.0038469343
  endloop
 endfacet

 facet normal -0.963883042 0.162291616 -0.211165771
  outer loop
  vertex -0.159363911 0.0152044101 -0.00201781187
  vertex -0.1603643 0.00688290456 -0.0038469343
  vertex -0.1603643 0.0077130585 -0.00320891896
  endloop
 endfacet

 facet normal -0.972501397 0.157191262 -0.171849266
  outer loop
  vertex -0.159363911 0.0152044101 -0.00201781187
  vertex -0.1603643 0.0077130585 -0.00320891896
  vertex -0.1603643 0.00848436542 -0.0025034009
  endloop
 endfacet

 facet normal -0.977251887 0.155872643 -0.143814206
  outer loop
  vertex -0.159363911 0.0152044101 -0.00201781187
  vertex -0.1603643 0.00848436542 -0.0025034009
  vertex -0.1603643 0.0089404257 -0.00200910191
  endloop
 endfacet

 facet normal -0.977556229 0.155924231 -0.141673595
  outer loop
  vertex -0.159363911 0.0152044101 -0.00201781187
  vertex -0.1603643 0.0089404257 -0.00200910191
  vertex -0.1603643 0.00919367466 -0.00173037872
  endloop
 endfacet

 facet normal -0.980107903 0.157339081 -0.120967433
  outer loop
  vertex -0.159363911 0.0152044101 -0.00201781187
  vertex -0.1603643 0.00919367466 -0.00173037872
  vertex -0.1603643 0.00983152725 -0.000900741084
  endloop
 endfacet

 facet normal -0.981530607 0.161402255 -0.102698497
  outer loop
  vertex -0.159363911 0.0152044101 -0.00201781187
  vertex -0.1603643 0.00983152725 -0.000900741084
  vertex -0.1603643 0.0103926696 -1.88432787e-05
  endloop
 endfacet

 facet normal -0.981936812 0.167955995 -0.087126188
  outer loop
  vertex -0.159363911 0.0152044101 -0.00201781187
  vertex -0.1603643 0.0103926696 -1.88432787e-05
  vertex -0.1603643 0.0108749997 0.000910960545
  endloop
 endfacet

 facet normal -0.981445074 0.177154586 -0.0733605772
  outer loop
  vertex -0.159363911 0.0152044101 -0.00201781187
  vertex -0.1603643 0.0108749997 0.000910960545
  vertex -0.1603643 0.011275365 0.0018777824
  endloop
 endfacet

 facet normal -0.979951382 0.189971671 -0.0600498393
  outer loop
  vertex -0.159363911 0.0152044101 -0.00201781187
  vertex -0.1603643 0.011275365 0.0018777824
  vertex -0.1603643 0.0115906131 0.00287508965
  endloop
 endfacet

 facet normal -0.977038503 0.208008751 -0.0461324528
  outer loop
  vertex -0.159363911 0.0152044101 -0.00201781187
  vertex -0.1603643 0.0115906131 0.00287508965
  vertex -0.1603643 0.0118175922 0.00389852701
  endloop
 endfacet

 facet normal -0.971905231 0.23335427 -0.0307553839
  outer loop
  vertex -0.159363911 0.0152044101 -0.00201781187
  vertex -0.1603643 0.0118175922 0.00389852701
  vertex -0.1603643 0.0119542005 0.00493502943
  endloop
 endfacet

 facet normal -0.962462127 0.271162838 -0.0117225107
  outer loop
  vertex -0.159363911 0.0152044101 -0.00201781187
  vertex -0.1603643 0.0119542005 0.00493502943
  vertex -0.1603643 0.0119993854 0.00598024251
  endloop
 endfacet

 facet normal -0.954579711 0.297955692 0
  outer loop
  vertex -0.159363911 0.0152044101 -0.00201781187
  vertex -0.1603643 0.0119993854 0.00598024251
  vertex -0.159363911 0.0152044101 0.00598024251
  endloop
 endfacet

 facet normal 0 1 0
  outer loop
  vertex -0.159363911 0.0152044101 -0.00201781187
  vertex -0.159363911 0.0152044101 0.00598024251
  vertex -0.15536429 0.0152044101 0.00598024251
  endloop
 endfacet

 facet normal 0 1 0
  outer loop
  vertex -0.159363911 0.0152044101 -0.00201781187
  vertex -0.15536429 0.0152044101 0.00598024251
  vertex -0.15536429 0.0152044101 -0.00201781187
  endloop
 endfacet

 facet normal -0.954579711 0.297955692 7.82942225e-05
  outer loop
  vertex -0.159363911 0.015202309 0.0139782969
  vertex -0.159363911 0.0152044101 0.00598024251
  vertex -0.1603643 0.0119993854 0.00598024251
  endloop
 endfacet

 facet normal -0.962434232 0.271260351 0.0117512094
  outer loop
  vertex -0.159363911 0.015202309 0.0139782969
  vertex -0.1603643 0.0119993854 0.00598024251
  vertex -0.1603643 0.0119542005 0.00702327769
  endloop
 endfacet

 facet normal -0.971835971 0.233654499 0.0306661036
  outer loop
  vertex -0.159363911 0.015202309 0.0139782969
  vertex -0.1603643 0.0119542005 0.00702327769
  vertex -0.1603643 0.0118175922 0.00806413498
  endloop
 endfacet

 facet normal -0.977035999 0.207998842 0.04622861
  outer loop
  vertex -0.159363911 0.015202309 0.0139782969
  vertex -0.1603643 0.0118175922 0.00806413498
  vertex -0.1603643 0.0115906131 0.00908539537
  endloop
 endfacet

 facet normal -0.979935586 0.190045998 0.0600733384
  outer loop
  vertex -0.159363911 0.015202309 0.0139782969
  vertex -0.1603643 0.0115906131 0.00908539537
  vertex -0.1603643 0.011275365 0.0100827022
  endloop
 endfacet

 facet normal -0.981431425 0.177219316 0.0733873844
  outer loop
  vertex -0.159363911 0.015202309 0.0139782969
  vertex -0.1603643 0.011275365 0.0100827022
  vertex -0.1603643 0.0108749997 0.0110495239
  endloop
 endfacet

 facet normal -0.981928051 0.167912453 0.0873080641
  outer loop
  vertex -0.159363911 0.015202309 0.0139782969
  vertex -0.1603643 0.0108749997 0.0110495239
  vertex -0.1603643 0.0103926696 0.0119771501
  endloop
 endfacet

 facet normal -0.981528044 0.161440954 0.102661952
  outer loop
  vertex -0.159363911 0.015202309 0.0139782969
  vertex -0.1603643 0.0103926696 0.0119771501
  vertex -0.1603643 0.00983047672 0.0128612258
  endloop
 endfacet

 facet normal -0.980116129 0.157402694 0.120816968
  outer loop
  vertex -0.159363911 0.015202309 0.0139782969
  vertex -0.1603643 0.00983047672 0.0128612258
  vertex -0.1603643 0.00919367466 0.0136908637
  endloop
 endfacet

 facet normal -0.977400899 0.155900568 0.142767355
  outer loop
  vertex -0.159363911 0.015202309 0.0139782969
  vertex -0.1603643 0.00919367466 0.0136908637
  vertex -0.1603643 0.0089404257 0.0139674097
  endloop
 endfacet

 facet normal -0.977385283 0.1558979 0.142876893
  outer loop
  vertex -0.159363911 0.015202309 0.0139782969
  vertex -0.1603643 0.0089404257 0.0139674097
  vertex -0.1603643 0.00848541688 0.0144638857
  endloop
 endfacet

 facet normal -0.972531557 0.157253027 0.171621233
  outer loop
  vertex -0.159363911 0.015202309 0.0139782969
  vertex -0.1603643 0.00848541688 0.0144638857
  vertex -0.1603643 0.0077130585 0.0151715809
  endloop
 endfacet

 facet normal -0.963616967 0.162527233 0.212196514
  outer loop
  vertex -0.159363911 0.015202309 0.0139782969
  vertex -0.1603643 0.0077130585 0.0151715809
  vertex -0.1603643 0.00688290456 0.01580742
  endloop
 endfacet

 facet normal -0.946769297 0.173468783 0.271176547
  outer loop
  vertex -0.159363911 0.015202309 0.0139782969
  vertex -0.1603643 0.00688290456 0.01580742
  vertex -0.1603643 0.00600125967 0.0163713992
  endloop
 endfacet

 facet normal -0.904724061 0.196652919 0.377891541
  outer loop
  vertex -0.159363911 0.015202309 0.0139782969
  vertex -0.1603643 0.00600125967 0.0163713992
  vertex -0.1603643 0.0050723278 0.0168548096
  endloop
 endfacet

 facet normal 0 0.99999994 0.000262771355
  outer loop
  vertex -0.159363911 0.015202309 0.0139782969
  vertex -0.15536429 0.015202309 0.0139782969
  vertex -0.15536429 0.0152044101 0.00598024251
  endloop
 endfacet

 facet normal 0 0.99999994 0.000262771355
  outer loop
  vertex -0.159363911 0.015202309 0.0139782969
  vertex -0.15536429 0.0152044101 0.00598024251
  vertex -0.159363911 0.0152044101 0.00598024251
  endloop
 endfacet

endsolid AssimpScene
