solid AssimpScene
 facet normal -1 0 0
  outer loop
  vertex -0.126025528 0.0294178296 -0.00303369272
  vertex -0.126025528 0.0294178296 0.0059799999
  vertex -0.126025528 0.0314178914 0.0059799999
  endloop
 endfacet

 facet normal -1 0 0
  outer loop
  vertex -0.126025528 0.0294178296 -0.00303369272
  vertex -0.126025528 0.0314178914 0.0059799999
  vertex -0.126025528 0.0314178914 -0.00303369272
  endloop
 endfacet

 facet normal 0 0 -1
  outer loop
  vertex -0.126025528 0.0294178296 -0.00303369272
  vertex -0.126025528 0.0314178914 -0.00303369272
  vertex -0.116985664 0.0314178914 -0.00303369272
  endloop
 endfacet

 facet normal 0 0 -1
  outer loop
  vertex -0.126025528 0.0294178296 -0.00303369272
  vertex -0.116985664 0.0314178914 -0.00303369272
  vertex -0.116985664 0.0267961696 -0.00303369272
  endloop
 endfacet

 facet normal 0 0 -1
  outer loop
  vertex -0.126025528 0.0294178296 -0.00303369272
  vertex -0.116985664 0.0267961696 -0.00303369272
  vertex -0.124471687 0.0158915874 -0.00303369272
  endloop
 endfacet

 facet normal 0 0 -1
  outer loop
  vertex -0.126025528 0.0294178296 -0.00303369272
  vertex -0.124471687 0.0158915874 -0.00303369272
  vertex -0.125963584 0.0158915874 -0.00303369272
  endloop
 endfacet

 facet normal -0.99998951 -0.00457926188 0
  outer loop
  vertex -0.126025528 0.0294178296 -0.00303369272
  vertex -0.125963584 0.0158915874 -0.00303369272
  vertex -0.125963584 0.0158915874 0.0059799999
  endloop
 endfacet

 facet normal -0.99998951 -0.00457926188 0
  outer loop
  vertex -0.126025528 0.0294178296 -0.00303369272
  vertex -0.125963584 0.0158915874 0.0059799999
  vertex -0.126025528 0.0294178296 0.0059799999
  endloop
 endfacet

 facet normal 0 0 1
  outer loop
  vertex -0.126025528 0.0294178296 0.0059799999
  vertex -0.125963584 0.0158915874 0.0059799999
  vertex -0.124471687 0.0158915874 0.0059799999
  endloop
 endfacet

 facet normal 0 0 1
  outer loop
  vertex -0.126025528 0.0294178296 0.0059799999
  vertex -0.124471687 0.0158915874 0.0059799999
  vertex -0.116985664 0.0267961696 0.0059799999
  endloop
 endfacet

 facet normal 0 0 1
  outer loop
  vertex -0.126025528 0.0294178296 0.0059799999
  vertex -0.116985664 0.0267961696 0.0059799999
  vertex -0.116985664 0.0314178914 0.0059799999
  endloop
 endfacet

 facet normal 0 0 1
  outer loop
  vertex -0.126025528 0.0294178296 0.0059799999
  vertex -0.116985664 0.0314178914 0.0059799999
  vertex -0.126025528 0.0314178914 0.0059799999
  endloop
 endfacet

 facet normal 0 1 0
  outer loop
  vertex -0.126025528 0.0314178914 -0.00303369272
  vertex -0.126025528 0.0314178914 0.0059799999
  vertex -0.116985664 0.0314178914 0.0059799999
  endloop
 endfacet

 facet normal 0 1 0
  outer loop
  vertex -0.126025528 0.0314178914 -0.00303369272
  vertex -0.116985664 0.0314178914 0.0059799999
  vertex -0.116985664 0.0314178914 -0.00303369272
  endloop
 endfacet

 facet normal 0 -1 0
  outer loop
  vertex -0.125963584 0.0158915874 -0.00303369272
  vertex -0.124471687 0.0158915874 -0.00303369272
  vertex -0.124471687 0.0158915874 0.0059799999
  endloop
 endfacet

 facet normal 0 -1 0
  outer loop
  vertex -0.125963584 0.0158915874 -0.00303369272
  vertex -0.124471687 0.0158915874 0.0059799999
  vertex -0.125963584 0.0158915874 0.0059799999
  endloop
 endfacet

 facet normal 1 0 0
  outer loop
  vertex -0.116985664 0.0314178914 -0.00303369272
  vertex -0.116985664 0.0314178914 0.0059799999
  vertex -0.116985664 0.0267961696 0.0059799999
  endloop
 endfacet

 facet normal 1 0 0
  outer loop
  vertex -0.116985664 0.0314178914 -0.00303369272
  vertex -0.116985664 0.0267961696 0.0059799999
  vertex -0.116985664 0.0267961696 -0.00303369272
  endloop
 endfacet

 facet normal 0.824425697 -0.565970182 0
  outer loop
  vertex -0.124471687 0.0158915874 -0.00303369272
  vertex -0.116985664 0.0267961696 -0.00303369272
  vertex -0.116985664 0.0267961696 0.0059799999
  endloop
 endfacet

 facet normal 0.824425697 -0.565970182 0
  outer loop
  vertex -0.124471687 0.0158915874 -0.00303369272
  vertex -0.116985664 0.0267961696 0.0059799999
  vertex -0.124471687 0.0158915874 0.0059799999
  endloop
 endfacet

endsolid AssimpScene
