solid AssimpScene
 facet normal -0.99984163 0.0177954324 0
  outer loop
  vertex -0.0484886803 0.0415687673 0.0149974013
  vertex -0.0484886803 0.0415687673 0.00589329191
  vertex -0.0485250428 0.0395258255 0.00135192263
  endloop
 endfacet

 facet normal -0.99984163 0.0177954324 0
  outer loop
  vertex -0.0484886803 0.0415687673 0.0149974013
  vertex -0.0485250428 0.0395258255 0.00135192263
  vertex -0.0485250428 0.0395258255 0.00589329191
  endloop
 endfacet

 facet normal -0.999992013 0 0.00399385113
  outer loop
  vertex -0.0484886803 0.0415687673 0.0149974013
  vertex -0.0485250428 0.0395258255 0.00589329191
  vertex -0.0484886803 0.0395078659 0.0149974013
  endloop
 endfacet

 facet normal 0 0 1
  outer loop
  vertex -0.0484886803 0.0415687673 0.0149974013
  vertex -0.0484886803 0.0395078659 0.0149974013
  vertex -0.0322390869 0.0281347558 0.0149974013
  endloop
 endfacet

 facet normal 0 0 1
  outer loop
  vertex -0.0484886803 0.0415687673 0.0149974013
  vertex -0.0322390869 0.0281347558 0.0149974013
  vertex -0.0301883444 0.0281347558 0.0149974013
  endloop
 endfacet

 facet normal 0 0 1
  outer loop
  vertex -0.0484886803 0.0415687673 0.0149974013
  vertex -0.0301883444 0.0281347558 0.0149974013
  vertex -0.0299520008 0.0291764308 0.0149974013
  endloop
 endfacet

 facet normal 0 0 1
  outer loop
  vertex -0.0484886803 0.0415687673 0.0149974013
  vertex -0.0299520008 0.0291764308 0.0149974013
  vertex -0.0476923808 0.0413876697 0.0149974013
  endloop
 endfacet

 facet normal 0.221759856 0.975101233 0
  outer loop
  vertex -0.0484886803 0.0415687673 0.0149974013
  vertex -0.0476923808 0.0413876697 0.0149974013
  vertex -0.0476923808 0.0413876697 0.00589329191
  endloop
 endfacet

 facet normal 0.221759856 0.975101233 0
  outer loop
  vertex -0.0484886803 0.0415687673 0.0149974013
  vertex -0.0476923808 0.0413876697 0.00589329191
  vertex -0.0484886803 0.0415687673 0.00589329191
  endloop
 endfacet

 facet normal 0.214218721 0.941942096 -0.258564413
  outer loop
  vertex -0.0484886803 0.0415687673 0.00589329191
  vertex -0.0476923808 0.0413876697 0.00589329191
  vertex -0.0449871458 0.0395258255 0.00135192263
  endloop
 endfacet

 facet normal 0 0.911972404 -0.410251707
  outer loop
  vertex -0.0484886803 0.0415687673 0.00589329191
  vertex -0.0449871458 0.0395258255 0.00135192263
  vertex -0.0485250428 0.0395258255 0.00135192263
  endloop
 endfacet

 facet normal -0.64107883 -0.767475069 0
  outer loop
  vertex -0.0485250428 0.0395258255 0.00589329191
  vertex -0.0485250428 0.0395258255 0.00135192263
  vertex -0.0326663256 0.0262789 0.00135192263
  endloop
 endfacet

 facet normal -0.640948713 -0.767583311 0.000769955746
  outer loop
  vertex -0.0485250428 0.0395258255 0.00589329191
  vertex -0.0326663256 0.0262789 0.00135192263
  vertex -0.0326608717 0.0262789 0.00589329191
  endloop
 endfacet

 facet normal -0.640948534 -0.767583132 0.00104566291
  outer loop
  vertex -0.0485250428 0.0395258255 0.00589329191
  vertex -0.0326608717 0.0262789 0.00589329191
  vertex -0.0484886803 0.0395078659 0.0149974013
  endloop
 endfacet

 facet normal -0.562958002 -0.80433929 0.190044388
  outer loop
  vertex -0.0484886803 0.0395078659 0.0149974013
  vertex -0.0326608717 0.0262789 0.00589329191
  vertex -0.0322390869 0.0281347558 0.0149974013
  endloop
 endfacet

 facet normal 0.566941142 0.823758364 0
  outer loop
  vertex -0.0476923808 0.0413876697 0.0149974013
  vertex -0.0449871458 0.0395258255 0.00589329191
  vertex -0.0449871458 0.0395258255 0.00135192263
  endloop
 endfacet

 facet normal 0.566941142 0.823758364 0
  outer loop
  vertex -0.0476923808 0.0413876697 0.0149974013
  vertex -0.0449871458 0.0395258255 0.00135192263
  vertex -0.0476923808 0.0413876697 0.00589329191
  endloop
 endfacet

 facet normal 0.566993058 0.823722541 2.27576802e-05
  outer loop
  vertex -0.0476923808 0.0413876697 0.0149974013
  vertex -0.0299520008 0.0291764308 0.0149974013
  vertex -0.0449871458 0.0395258255 0.00589329191
  endloop
 endfacet

 facet normal 0 0 -1
  outer loop
  vertex -0.0485250428 0.0395258255 0.00135192263
  vertex -0.0449871458 0.0395258255 0.00135192263
  vertex -0.0321445502 0.0306850635 0.00135192263
  endloop
 endfacet

 facet normal 0 0 -1
  outer loop
  vertex -0.0485250428 0.0395258255 0.00135192263
  vertex -0.0321445502 0.0306850635 0.00135192263
  vertex -0.0299538169 0.0291749332 0.00135192263
  endloop
 endfacet

 facet normal 0 0 -1
  outer loop
  vertex -0.0485250428 0.0395258255 0.00135192263
  vertex -0.0299538169 0.0291749332 0.00135192263
  vertex -0.0306101292 0.0262789 0.00135192263
  endloop
 endfacet

 facet normal 0 0 -1
  outer loop
  vertex -0.0485250428 0.0395258255 0.00135192263
  vertex -0.0306101292 0.0262789 0.00135192263
  vertex -0.0326663256 0.0262789 0.00135192263
  endloop
 endfacet

 facet normal 0.567002416 0.823716164 0
  outer loop
  vertex -0.0449871458 0.0395258255 0.00135192263
  vertex -0.0449871458 0.0395258255 0.00589329191
  vertex -0.0299520008 0.0291764308 0.0149974013
  endloop
 endfacet

 facet normal 0.567002416 0.823716164 0
  outer loop
  vertex -0.0449871458 0.0395258255 0.00135192263
  vertex -0.0299520008 0.0291764308 0.0149974013
  vertex -0.0299520008 0.0291764308 0.00589329191
  endloop
 endfacet

 facet normal 0.567028582 0.823698103 -0.000128051717
  outer loop
  vertex -0.0449871458 0.0395258255 0.00135192263
  vertex -0.0299520008 0.0291764308 0.00589329191
  vertex -0.0321445502 0.0306850635 0.00135192263
  endloop
 endfacet

 facet normal 0 -1 0
  outer loop
  vertex -0.0326663256 0.0262789 0.00135192263
  vertex -0.0306101292 0.0262789 0.00135192263
  vertex -0.0306101292 0.0262789 0.00589329191
  endloop
 endfacet

 facet normal 0 -1 0
  outer loop
  vertex -0.0326663256 0.0262789 0.00135192263
  vertex -0.0306101292 0.0262789 0.00589329191
  vertex -0.0326608717 0.0262789 0.00589329191
  endloop
 endfacet

 facet normal 0 -0.979848921 0.199740514
  outer loop
  vertex -0.0326608717 0.0262789 0.00589329191
  vertex -0.0306101292 0.0262789 0.00589329191
  vertex -0.0301883444 0.0281347558 0.0149974013
  endloop
 endfacet

 facet normal 0 -0.979848921 0.199740514
  outer loop
  vertex -0.0326608717 0.0262789 0.00589329191
  vertex -0.0301883444 0.0281347558 0.0149974013
  vertex -0.0322390869 0.0281347558 0.0149974013
  endloop
 endfacet

 facet normal 0.975213945 -0.221264288 0
  outer loop
  vertex -0.0299520008 0.0291764308 0.0149974013
  vertex -0.0301883444 0.0281347558 0.0149974013
  vertex -0.0301883444 0.0281347558 0.00589329191
  endloop
 endfacet

 facet normal 0.975213945 -0.221264288 0
  outer loop
  vertex -0.0299520008 0.0291764308 0.0149974013
  vertex -0.0301883444 0.0281347558 0.00589329191
  vertex -0.0299520008 0.0291764308 0.00589329191
  endloop
 endfacet

 facet normal 0.975213945 -0.221264288 -0.000153223213
  outer loop
  vertex -0.0299520008 0.0291764308 0.00589329191
  vertex -0.0301883444 0.0281347558 0.00589329191
  vertex -0.0306101292 0.0262789 0.00135192263
  endloop
 endfacet

 facet normal 0.975269377 -0.22101979 -0.000317247439
  outer loop
  vertex -0.0299520008 0.0291764308 0.00589329191
  vertex -0.0306101292 0.0262789 0.00135192263
  vertex -0.0299538169 0.0291749332 0.00135192263
  endloop
 endfacet

 facet normal 0.56754905 0.823339581 -0.000498412584
  outer loop
  vertex -0.0299520008 0.0291764308 0.00589329191
  vertex -0.0299538169 0.0291749332 0.00135192263
  vertex -0.0321445502 0.0306850635 0.00135192263
  endloop
 endfacet

 facet normal 0.975132883 -0.221620783 0
  outer loop
  vertex -0.0306101292 0.0262789 0.00135192263
  vertex -0.0301883444 0.0281347558 0.00589329191
  vertex -0.0301883444 0.0281347558 0.0149974013
  endloop
 endfacet

 facet normal 0.975132883 -0.221620783 0
  outer loop
  vertex -0.0306101292 0.0262789 0.00135192263
  vertex -0.0301883444 0.0281347558 0.0149974013
  vertex -0.0306101292 0.0262789 0.00589329191
  endloop
 endfacet

endsolid AssimpScene
