solid AssimpScene
 facet normal 0 -1 0
  outer loop
  vertex -0.12596266 -0.0159605462 -0.00704000005
  vertex -0.110193461 -0.0159605462 -0.00704000005
  vertex -0.109184995 -0.0159605462 -0.00354032288
  endloop
 endfacet

 facet normal 0 -1 0
  outer loop
  vertex -0.12596266 -0.0159605462 -0.00704000005
  vertex -0.109184995 -0.0159605462 -0.00354032288
  vertex -0.109184995 -0.0159605462 -0.00303050107
  endloop
 endfacet

 facet normal 0 -1 0
  outer loop
  vertex -0.12596266 -0.0159605462 -0.00704000005
  vertex -0.109184995 -0.0159605462 -0.00303050107
  vertex -0.111274198 -0.0159605462 -0.00303050107
  endloop
 endfacet

 facet normal 0 -1 0
  outer loop
  vertex -0.12596266 -0.0159605462 -0.00704000005
  vertex -0.111274198 -0.0159605462 -0.00303050107
  vertex -0.12596266 -0.0159605462 -0.00303403335
  endloop
 endfacet

 facet normal -1 0 0
  outer loop
  vertex -0.12596266 -0.0159605462 -0.00704000005
  vertex -0.12596266 -0.0159605462 -0.00303403335
  vertex -0.12596266 0.00420753751 -0.00303403335
  endloop
 endfacet

 facet normal -1 0 0
  outer loop
  vertex -0.12596266 -0.0159605462 -0.00704000005
  vertex -0.12596266 0.00420753751 -0.00303403335
  vertex -0.12596266 0.00420753751 -0.00704000005
  endloop
 endfacet

 facet normal 0 0 -1
  outer loop
  vertex -0.12596266 -0.0159605462 -0.00704000005
  vertex -0.12596266 0.00420753751 -0.00704000005
  vertex -0.109184995 0.00420753751 -0.00704000005
  endloop
 endfacet

 facet normal 0 0 -1
  outer loop
  vertex -0.12596266 -0.0159605462 -0.00704000005
  vertex -0.109184995 0.00420753751 -0.00704000005
  vertex -0.109184995 -0.0106539875 -0.00704000005
  endloop
 endfacet

 facet normal 0 0 -1
  outer loop
  vertex -0.12596266 -0.0159605462 -0.00704000005
  vertex -0.109184995 -0.0106539875 -0.00704000005
  vertex -0.110193461 -0.0159605462 -0.00704000005
  endloop
 endfacet

 facet normal 0.945269108 -0.179640442 -0.272388697
  outer loop
  vertex -0.110193461 -0.0159605462 -0.00704000005
  vertex -0.109184995 -0.0106539875 -0.00704000005
  vertex -0.109184995 -0.0159605462 -0.00354032288
  endloop
 endfacet

 facet normal -0.000217401117 -0.427493095 0.904018581
  outer loop
  vertex -0.12596266 -0.0159605462 -0.00303403335
  vertex -0.111274198 -0.0159605462 -0.00303050107
  vertex -0.11515367 -0.0159585737 -0.00303050107
  endloop
 endfacet

 facet normal -0.000326770765 -0.000134313625 0.99999994
  outer loop
  vertex -0.12596266 -0.0159605462 -0.00303403335
  vertex -0.11515367 -0.0159585737 -0.00303050107
  vertex -0.115289994 -0.0156269129 -0.00303050107
  endloop
 endfacet

 facet normal -0.00032774586 -0.000103120867 0.99999994
  outer loop
  vertex -0.12596266 -0.0159605462 -0.00303403335
  vertex -0.115289994 -0.0156269129 -0.00303050107
  vertex -0.115460806 -0.0150840171 -0.00303050107
  endloop
 endfacet

 facet normal -0.000330371724 -7.16599607e-05 0.99999994
  outer loop
  vertex -0.12596266 -0.0159605462 -0.00303403335
  vertex -0.115460806 -0.0150840171 -0.00303050107
  vertex -0.115580708 -0.0145312501 -0.00303050107
  endloop
 endfacet

 facet normal -0.000334172364 -4.40531694e-05 0.99999994
  outer loop
  vertex -0.12596266 -0.0159605462 -0.00303403335
  vertex -0.115580708 -0.0145312501 -0.00303050107
  vertex -0.115654618 -0.0139705865 -0.00303050107
  endloop
 endfacet

 facet normal -0.000339834078 -1.47254423e-05 0.99999994
  outer loop
  vertex -0.12596266 -0.0159605462 -0.00303403335
  vertex -0.115654618 -0.0139705865 -0.00303050107
  vertex -0.115679257 -0.0134020271 -0.00303050107
  endloop
 endfacet

 facet normal -0.000343497784 0 0.99999994
  outer loop
  vertex -0.12596266 -0.0159605462 -0.00303403335
  vertex -0.115679257 -0.0134020271 -0.00303050107
  vertex -0.12596266 0.00420753751 -0.00303403335
  endloop
 endfacet

 facet normal 0 1 0
  outer loop
  vertex -0.12596266 0.00420753751 -0.00704000005
  vertex -0.12596266 0.00420753751 -0.00303403335
  vertex -0.124678262 0.00420753751 -0.00303403335
  endloop
 endfacet

 facet normal 0 1 0
  outer loop
  vertex -0.12596266 0.00420753751 -0.00704000005
  vertex -0.124678262 0.00420753751 -0.00303403335
  vertex -0.109184995 0.00420753751 -0.00304031302
  endloop
 endfacet

 facet normal 0 1 0
  outer loop
  vertex -0.12596266 0.00420753751 -0.00704000005
  vertex -0.109184995 0.00420753751 -0.00304031302
  vertex -0.109184995 0.00420753751 -0.00704000005
  endloop
 endfacet

 facet normal 1 0 0
  outer loop
  vertex -0.109184995 -0.0159605462 -0.00354032288
  vertex -0.109184995 -0.0106539875 -0.00704000005
  vertex -0.109184995 0.00420753751 -0.00704000005
  endloop
 endfacet

 facet normal 1 0 0
  outer loop
  vertex -0.109184995 -0.0159605462 -0.00354032288
  vertex -0.109184995 0.00420753751 -0.00704000005
  vertex -0.109184995 0.00420753751 -0.00304031302
  endloop
 endfacet

 facet normal 1 0 0
  outer loop
  vertex -0.109184995 -0.0159605462 -0.00354032288
  vertex -0.109184995 0.00420753751 -0.00304031302
  vertex -0.109184995 -0.00690307142 -0.00303050107
  endloop
 endfacet

 facet normal 1 0 0
  outer loop
  vertex -0.109184995 -0.0159605462 -0.00354032288
  vertex -0.109184995 -0.00690307142 -0.00303050107
  vertex -0.109184995 -0.0159605462 -0.00303050107
  endloop
 endfacet

 facet normal 0 0 1
  outer loop
  vertex -0.111274198 -0.0159605462 -0.00303050107
  vertex -0.109184995 -0.0159605462 -0.00303050107
  vertex -0.109184995 -0.00690307142 -0.00303050107
  endloop
 endfacet

 facet normal 0 0 1
  outer loop
  vertex -0.111274198 -0.0159605462 -0.00303050107
  vertex -0.109184995 -0.00690307142 -0.00303050107
  vertex -0.109748356 -0.00692873541 -0.00303050107
  endloop
 endfacet

 facet normal 0 0 1
  outer loop
  vertex -0.111274198 -0.0159605462 -0.00303050107
  vertex -0.109748356 -0.00692873541 -0.00303050107
  vertex -0.110310078 -0.0069998051 -0.00303050107
  endloop
 endfacet

 facet normal 0 0 1
  outer loop
  vertex -0.111274198 -0.0159605462 -0.00303050107
  vertex -0.110310078 -0.0069998051 -0.00303050107
  vertex -0.110863581 -0.00712615205 -0.00303050107
  endloop
 endfacet

 facet normal 0 0 1
  outer loop
  vertex -0.111274198 -0.0159605462 -0.00303050107
  vertex -0.110863581 -0.00712615205 -0.00303050107
  vertex -0.11140395 -0.00729395589 -0.00303050107
  endloop
 endfacet

 facet normal 0 0 1
  outer loop
  vertex -0.111274198 -0.0159605462 -0.00303050107
  vertex -0.11140395 -0.00729395589 -0.00303050107
  vertex -0.111927889 -0.00751111424 -0.00303050107
  endloop
 endfacet

 facet normal 0 0 1
  outer loop
  vertex -0.111274198 -0.0159605462 -0.00303050107
  vertex -0.111927889 -0.00751111424 -0.00303050107
  vertex -0.112430483 -0.00777170435 -0.00303050107
  endloop
 endfacet

 facet normal 0 0 1
  outer loop
  vertex -0.111274198 -0.0159605462 -0.00303050107
  vertex -0.112430483 -0.00777170435 -0.00303050107
  vertex -0.112910077 -0.00807769969 -0.00303050107
  endloop
 endfacet

 facet normal 0 0 1
  outer loop
  vertex -0.111274198 -0.0159605462 -0.00303050107
  vertex -0.112910077 -0.00807769969 -0.00303050107
  vertex -0.113358468 -0.00842317939 -0.00303050107
  endloop
 endfacet

 facet normal 0 0 1
  outer loop
  vertex -0.111274198 -0.0159605462 -0.00303050107
  vertex -0.113358468 -0.00842317939 -0.00303050107
  vertex -0.113777295 -0.00880616717 -0.00303050107
  endloop
 endfacet

 facet normal 0 0 1
  outer loop
  vertex -0.111274198 -0.0159605462 -0.00303050107
  vertex -0.113777295 -0.00880616717 -0.00303050107
  vertex -0.114159986 -0.0092266649 -0.00303050107
  endloop
 endfacet

 facet normal 0 0 1
  outer loop
  vertex -0.111274198 -0.0159605462 -0.00303050107
  vertex -0.114159986 -0.0092266649 -0.00303050107
  vertex -0.114504904 -0.00967677496 -0.00303050107
  endloop
 endfacet

 facet normal 0 0 1
  outer loop
  vertex -0.111274198 -0.0159605462 -0.00303050107
  vertex -0.114504904 -0.00967677496 -0.00303050107
  vertex -0.114812039 -0.0101525495 -0.00303050107
  endloop
 endfacet

 facet normal 0 0 1
  outer loop
  vertex -0.111274198 -0.0159605462 -0.00303050107
  vertex -0.114812039 -0.0101525495 -0.00303050107
  vertex -0.11507155 -0.010655961 -0.00303050107
  endloop
 endfacet

 facet normal 0 0 1
  outer loop
  vertex -0.111274198 -0.0159605462 -0.00303050107
  vertex -0.11507155 -0.010655961 -0.00303050107
  vertex -0.115289994 -0.01118109 -0.00303050107
  endloop
 endfacet

 facet normal 0 0 1
  outer loop
  vertex -0.111274198 -0.0159605462 -0.00303050107
  vertex -0.115289994 -0.01118109 -0.00303050107
  vertex -0.115460806 -0.0117220115 -0.00303050107
  endloop
 endfacet

 facet normal 0 0 1
  outer loop
  vertex -0.111274198 -0.0159605462 -0.00303050107
  vertex -0.115460806 -0.0117220115 -0.00303050107
  vertex -0.115580708 -0.0122747775 -0.00303050107
  endloop
 endfacet

 facet normal 0 0 1
  outer loop
  vertex -0.111274198 -0.0159605462 -0.00303050107
  vertex -0.115580708 -0.0122747775 -0.00303050107
  vertex -0.115654618 -0.0128374156 -0.00303050107
  endloop
 endfacet

 facet normal 0 0 1
  outer loop
  vertex -0.111274198 -0.0159605462 -0.00303050107
  vertex -0.115654618 -0.0128374156 -0.00303050107
  vertex -0.11566776 -0.0131335407 -0.00303050107
  endloop
 endfacet

 facet normal 0 0 1
  outer loop
  vertex -0.111274198 -0.0159605462 -0.00303050107
  vertex -0.11566776 -0.0131335407 -0.00303050107
  vertex -0.115679257 -0.0134020271 -0.00303050107
  endloop
 endfacet

 facet normal 0 0 1
  outer loop
  vertex -0.111274198 -0.0159605462 -0.00303050107
  vertex -0.115679257 -0.0134020271 -0.00303050107
  vertex -0.115654618 -0.0139705865 -0.00303050107
  endloop
 endfacet

 facet normal 0 0 1
  outer loop
  vertex -0.111274198 -0.0159605462 -0.00303050107
  vertex -0.115654618 -0.0139705865 -0.00303050107
  vertex -0.115580708 -0.0145312501 -0.00303050107
  endloop
 endfacet

 facet normal 0 0 1
  outer loop
  vertex -0.111274198 -0.0159605462 -0.00303050107
  vertex -0.115580708 -0.0145312501 -0.00303050107
  vertex -0.115460806 -0.0150840171 -0.00303050107
  endloop
 endfacet

 facet normal 0 0 1
  outer loop
  vertex -0.111274198 -0.0159605462 -0.00303050107
  vertex -0.115460806 -0.0150840171 -0.00303050107
  vertex -0.115289994 -0.0156269129 -0.00303050107
  endloop
 endfacet

 facet normal 0 0 1
  outer loop
  vertex -0.111274198 -0.0159605462 -0.00303050107
  vertex -0.115289994 -0.0156269129 -0.00303050107
  vertex -0.11515367 -0.0159585737 -0.00303050107
  endloop
 endfacet

 facet normal -0.000320029911 1.37044535e-05 0.99999994
  outer loop
  vertex -0.115679257 -0.0134020271 -0.00303050107
  vertex -0.11566776 -0.0131335407 -0.00303050107
  vertex -0.12596266 0.00420753751 -0.00303403335
  endloop
 endfacet

 facet normal -0.000319253537 1.41653682e-05 0.99999994
  outer loop
  vertex -0.12596266 0.00420753751 -0.00303403335
  vertex -0.11566776 -0.0131335407 -0.00303050107
  vertex -0.115654618 -0.0128374156 -0.00303050107
  endloop
 endfacet

 facet normal -0.000281524088 3.69824702e-05 0.99999994
  outer loop
  vertex -0.12596266 0.00420753751 -0.00303403335
  vertex -0.115654618 -0.0128374156 -0.00303050107
  vertex -0.115580708 -0.0122747775 -0.00303050107
  endloop
 endfacet

 facet normal -0.000253084756 5.48959615e-05 0.99999994
  outer loop
  vertex -0.12596266 0.00420753751 -0.00303403335
  vertex -0.115580708 -0.0122747775 -0.00303050107
  vertex -0.115460806 -0.0117220115 -0.00303050107
  endloop
 endfacet

 facet normal -0.000227420271 7.18157462e-05 0.99999994
  outer loop
  vertex -0.12596266 0.00420753751 -0.00303403335
  vertex -0.115460806 -0.0117220115 -0.00303050107
  vertex -0.115289994 -0.01118109 -0.00303050107
  endloop
 endfacet

 facet normal -0.000206881814 8.60600485e-05 1
  outer loop
  vertex -0.12596266 0.00420753751 -0.00303403335
  vertex -0.115289994 -0.01118109 -0.00303050107
  vertex -0.11507155 -0.010655961 -0.00303050107
  endloop
 endfacet

 facet normal -0.000190388935 9.81450648e-05 1
  outer loop
  vertex -0.12596266 0.00420753751 -0.00303403335
  vertex -0.11507155 -0.010655961 -0.00303050107
  vertex -0.114812039 -0.0101525495 -0.00303050107
  endloop
 endfacet

 facet normal -0.00017297639 0.000111665919 1
  outer loop
  vertex -0.12596266 0.00420753751 -0.00303403335
  vertex -0.114812039 -0.0101525495 -0.00303050107
  vertex -0.114504904 -0.00967677496 -0.00303050107
  endloop
 endfacet

 facet normal -0.000159854055 0.000122494865 1
  outer loop
  vertex -0.12596266 0.00420753751 -0.00303403335
  vertex -0.114504904 -0.00967677496 -0.00303050107
  vertex -0.114159986 -0.0092266649 -0.00303050107
  endloop
 endfacet

 facet normal -0.0001470024 0.000133785739 1
  outer loop
  vertex -0.12596266 0.00420753751 -0.00303403335
  vertex -0.114159986 -0.0092266649 -0.00303050107
  vertex -0.113777295 -0.00880616717 -0.00303050107
  endloop
 endfacet

 facet normal -0.00013371525 0.000146227161 1
  outer loop
  vertex -0.12596266 0.00420753751 -0.00303403335
  vertex -0.113777295 -0.00880616717 -0.00303050107
  vertex -0.113358468 -0.00842317939 -0.00303050107
  endloop
 endfacet

 facet normal -0.000121815443 0.000158101961 1
  outer loop
  vertex -0.12596266 0.00420753751 -0.00303403335
  vertex -0.113358468 -0.00842317939 -0.00303050107
  vertex -0.112910077 -0.00807769969 -0.00303050107
  endloop
 endfacet

 facet normal -0.000109334156 0.00017136283 1
  outer loop
  vertex -0.12596266 0.00420753751 -0.00303403335
  vertex -0.112910077 -0.00807769969 -0.00303050107
  vertex -0.112430483 -0.00777170435 -0.00303050107
  endloop
 endfacet

 facet normal -9.64165301e-05 0.000185955054 1
  outer loop
  vertex -0.12596266 0.00420753751 -0.00303403335
  vertex -0.112430483 -0.00777170435 -0.00303050107
  vertex -0.111927889 -0.00751111424 -0.00303050107
  endloop
 endfacet

 facet normal -8.348962e-05 0.000201436866 1
  outer loop
  vertex -0.12596266 0.00420753751 -0.00303403335
  vertex -0.111927889 -0.00751111424 -0.00303050107
  vertex -0.11140395 -0.00729395589 -0.00303050107
  endloop
 endfacet

 facet normal -6.84609549e-05 0.000220460264 0.99999994
  outer loop
  vertex -0.12596266 0.00420753751 -0.00303403335
  vertex -0.11140395 -0.00729395589 -0.00303050107
  vertex -0.110863581 -0.00712615205 -0.00303050107
  endloop
 endfacet

 facet normal -5.45531148e-05 0.000238988723 0.99999994
  outer loop
  vertex -0.12596266 0.00420753751 -0.00303403335
  vertex -0.110863581 -0.00712615205 -0.00303050107
  vertex -0.110310078 -0.0069998051 -0.00303050107
  endloop
 endfacet

 facet normal -3.38886894e-05 0.00026784942 0.99999994
  outer loop
  vertex -0.12596266 0.00420753751 -0.00303403335
  vertex -0.110310078 -0.0069998051 -0.00303050107
  vertex -0.109748356 -0.00692873541 -0.00303050107
  endloop
 endfacet

 facet normal -1.355104e-05 0.000297460821 0.99999994
  outer loop
  vertex -0.12596266 0.00420753751 -0.00303403335
  vertex -0.109748356 -0.00692873541 -0.00303050107
  vertex -0.109184995 -0.00690307142 -0.00303050107
  endloop
 endfacet

 facet normal 0 0.000317923666 0.99999994
  outer loop
  vertex -0.12596266 0.00420753751 -0.00303403335
  vertex -0.109184995 -0.00690307142 -0.00303050107
  vertex -0.124678262 0.00420753751 -0.00303403335
  endloop
 endfacet

 facet normal 0.000405313971 0.000883116329 0.999999523
  outer loop
  vertex -0.124678262 0.00420753751 -0.00303403335
  vertex -0.109184995 -0.00690307142 -0.00303050107
  vertex -0.109184995 0.00420753751 -0.00304031302
  endloop
 endfacet

endsolid AssimpScene
