solid AssimpScene
 facet normal 0 -0.382342815 0.924020648
  outer loop
  vertex -0.15536429 -0.00446633529 0.017104229
  vertex -0.1603643 -0.00446633529 0.017104229
  vertex -0.1603643 -0.00507154642 0.0168538038
  endloop
 endfacet

 facet normal 0 -0.382342815 0.924020648
  outer loop
  vertex -0.15536429 -0.00446633529 0.017104229
  vertex -0.1603643 -0.00507154642 0.0168538038
  vertex -0.15536429 -0.00507154642 0.0168538038
  endloop
 endfacet

 facet normal 1 0 0
  outer loop
  vertex -0.15536429 -0.00446633529 0.017104229
  vertex -0.15536429 -0.00507154642 0.0168538038
  vertex -0.15536429 -0.00600067945 0.0163703728
  endloop
 endfacet

 facet normal 1 0 0
  outer loop
  vertex -0.15536429 -0.00446633529 0.017104229
  vertex -0.15536429 -0.00600067945 0.0163703728
  vertex -0.15536429 -0.0060349619 0.0163485948
  endloop
 endfacet

 facet normal 1 0 0
  outer loop
  vertex -0.15536429 -0.00446633529 0.017104229
  vertex -0.15536429 -0.0060349619 0.0163485948
  vertex -0.15536429 -0.00688322447 0.0158063676
  endloop
 endfacet

 facet normal 1 0 0
  outer loop
  vertex -0.15536429 -0.00446633529 0.017104229
  vertex -0.15536429 -0.00688322447 0.0158063676
  vertex -0.15536429 -0.00771258818 0.0151683269
  endloop
 endfacet

 facet normal 1 0 0
  outer loop
  vertex -0.15536429 -0.00446633529 0.017104229
  vertex -0.15536429 -0.00771258818 0.0151683269
  vertex -0.15536429 -0.00848437566 0.0144606009
  endloop
 endfacet

 facet normal 1 0 0
  outer loop
  vertex -0.15536429 -0.00446633529 0.017104229
  vertex -0.15536429 -0.00848437566 0.0144606009
  vertex -0.15536429 -0.00895641372 0.01397717
  endloop
 endfacet

 facet normal 1 0 0
  outer loop
  vertex -0.15536429 -0.00446633529 0.017104229
  vertex -0.15536429 -0.00895641372 0.01397717
  vertex -0.15536429 -0.00895641372 0.00598095777
  endloop
 endfacet

 facet normal 1 0 0
  outer loop
  vertex -0.15536429 -0.00446633529 0.017104229
  vertex -0.15536429 -0.00895641372 0.00598095777
  vertex -0.15536429 -0.00895157922 -0.00201525423
  endloop
 endfacet

 facet normal 1 0 0
  outer loop
  vertex -0.15536429 -0.00446633529 0.017104229
  vertex -0.15536429 -0.00895157922 -0.00201525423
  vertex -0.15536429 -0.00848393608 -0.00250304095
  endloop
 endfacet

 facet normal 1 0 0
  outer loop
  vertex -0.15536429 -0.00446633529 0.017104229
  vertex -0.15536429 -0.00848393608 -0.00250304095
  vertex -0.15536429 -0.00771170901 -0.00320641138
  endloop
 endfacet

 facet normal 1 0 0
  outer loop
  vertex -0.15536429 -0.00446633529 0.017104229
  vertex -0.15536429 -0.00771170901 -0.00320641138
  vertex -0.15536429 -0.00688322447 -0.00384445279
  endloop
 endfacet

 facet normal 1 0 0
  outer loop
  vertex -0.15536429 -0.00446633529 0.017104229
  vertex -0.15536429 -0.00688322447 -0.00384445279
  vertex -0.15536429 -0.00600024033 -0.00441063428
  endloop
 endfacet

 facet normal 1 0 0
  outer loop
  vertex -0.15536429 -0.00446633529 0.017104229
  vertex -0.15536429 -0.00600024033 -0.00441063428
  vertex -0.15536429 -0.00507154642 -0.00489406381
  endloop
 endfacet

 facet normal 1 0 0
  outer loop
  vertex -0.15536429 -0.00446633529 0.017104229
  vertex -0.15536429 -0.00507154642 -0.00489406381
  vertex -0.15536429 -0.00447644386 -0.0051423125
  endloop
 endfacet

 facet normal 1 0 0
  outer loop
  vertex -0.15536429 -0.00446633529 0.017104229
  vertex -0.15536429 -0.00447644386 -0.0051423125
  vertex -0.15536429 -0.00446633529 0.0134806735
  endloop
 endfacet

 facet normal 0 1 0
  outer loop
  vertex -0.15536429 -0.00446633529 0.017104229
  vertex -0.15536429 -0.00446633529 0.0134806735
  vertex -0.157364592 -0.00446633529 0.0120804645
  endloop
 endfacet

 facet normal 0 1 0
  outer loop
  vertex -0.15536429 -0.00446633529 0.017104229
  vertex -0.157364592 -0.00446633529 0.0120804645
  vertex -0.159363911 -0.00446633529 0.0120804645
  endloop
 endfacet

 facet normal 0 1 0
  outer loop
  vertex -0.15536429 -0.00446633529 0.017104229
  vertex -0.159363911 -0.00446633529 0.0120804645
  vertex -0.1603643 -0.00446633529 0.0150267817
  endloop
 endfacet

 facet normal 0 1 0
  outer loop
  vertex -0.15536429 -0.00446633529 0.017104229
  vertex -0.1603643 -0.00446633529 0.0150267817
  vertex -0.1603643 -0.00446633529 0.017104229
  endloop
 endfacet

 facet normal -1 0 0
  outer loop
  vertex -0.1603643 -0.00446633529 0.017104229
  vertex -0.1603643 -0.00446633529 0.0150267817
  vertex -0.1603643 -0.00447644386 -0.0051423125
  endloop
 endfacet

 facet normal -1 0 0
  outer loop
  vertex -0.1603643 -0.00446633529 0.017104229
  vertex -0.1603643 -0.00447644386 -0.0051423125
  vertex -0.1603643 -0.00507154642 -0.00489406381
  endloop
 endfacet

 facet normal -1 0 0
  outer loop
  vertex -0.1603643 -0.00446633529 0.017104229
  vertex -0.1603643 -0.00507154642 -0.00489406381
  vertex -0.1603643 -0.00600024033 -0.00441063428
  endloop
 endfacet

 facet normal -1 0 0
  outer loop
  vertex -0.1603643 -0.00446633529 0.017104229
  vertex -0.1603643 -0.00600024033 -0.00441063428
  vertex -0.1603643 -0.00688322447 -0.00384445279
  endloop
 endfacet

 facet normal -1 0 0
  outer loop
  vertex -0.1603643 -0.00446633529 0.017104229
  vertex -0.1603643 -0.00688322447 -0.00384445279
  vertex -0.1603643 -0.00771258818 -0.00320858881
  endloop
 endfacet

 facet normal -1 0 0
  outer loop
  vertex -0.1603643 -0.00446633529 0.017104229
  vertex -0.1603643 -0.00771258818 -0.00320858881
  vertex -0.1603643 -0.00848437566 -0.00250304095
  endloop
 endfacet

 facet normal -1 0 0
  outer loop
  vertex -0.1603643 -0.00446633529 0.017104229
  vertex -0.1603643 -0.00848437566 -0.00250304095
  vertex -0.1603643 -0.00895157922 -0.00199130038
  endloop
 endfacet

 facet normal -1 0 0
  outer loop
  vertex -0.1603643 -0.00446633529 0.017104229
  vertex -0.1603643 -0.00895157922 -0.00199130038
  vertex -0.1603643 -0.00895597413 0.0106214611
  endloop
 endfacet

 facet normal -1 0 0
  outer loop
  vertex -0.1603643 -0.00446633529 0.017104229
  vertex -0.1603643 -0.00895597413 0.0106214611
  vertex -0.1603643 -0.00895597413 0.0139466831
  endloop
 endfacet

 facet normal -1 0 0
  outer loop
  vertex -0.1603643 -0.00446633529 0.017104229
  vertex -0.1603643 -0.00895597413 0.0139466831
  vertex -0.1603643 -0.00848437566 0.0144606009
  endloop
 endfacet

 facet normal -1 0 0
  outer loop
  vertex -0.1603643 -0.00446633529 0.017104229
  vertex -0.1603643 -0.00848437566 0.0144606009
  vertex -0.1603643 -0.00771258818 0.0151683269
  endloop
 endfacet

 facet normal -1 0 0
  outer loop
  vertex -0.1603643 -0.00446633529 0.017104229
  vertex -0.1603643 -0.00771258818 0.0151683269
  vertex -0.1603643 -0.00688322447 0.0158063676
  endloop
 endfacet

 facet normal -1 0 0
  outer loop
  vertex -0.1603643 -0.00446633529 0.017104229
  vertex -0.1603643 -0.00688322447 0.0158063676
  vertex -0.1603643 -0.0060349619 0.0163485948
  endloop
 endfacet

 facet normal -1 0 0
  outer loop
  vertex -0.1603643 -0.00446633529 0.017104229
  vertex -0.1603643 -0.0060349619 0.0163485948
  vertex -0.1603643 -0.00600067945 0.0163703728
  endloop
 endfacet

 facet normal -1 0 0
  outer loop
  vertex -0.1603643 -0.00446633529 0.017104229
  vertex -0.1603643 -0.00600067945 0.0163703728
  vertex -0.1603643 -0.00507154642 0.0168538038
  endloop
 endfacet

 facet normal 0 -0.461565107 0.887106419
  outer loop
  vertex -0.15536429 -0.00507154642 0.0168538038
  vertex -0.1603643 -0.00507154642 0.0168538038
  vertex -0.1603643 -0.00600067945 0.0163703728
  endloop
 endfacet

 facet normal 0 -0.461565107 0.887106419
  outer loop
  vertex -0.15536429 -0.00507154642 0.0168538038
  vertex -0.1603643 -0.00600067945 0.0163703728
  vertex -0.15536429 -0.00600067945 0.0163703728
  endloop
 endfacet

 facet normal 0.000379974663 0.999999762 -0.000542820897
  outer loop
  vertex -0.15536429 -0.00446633529 0.0134806735
  vertex -0.15536429 -0.00447644386 -0.0051423125
  vertex -0.157364592 -0.00446633529 0.0120804645
  endloop
 endfacet

 facet normal -0.00147613988 0.999998748 -0.000501209113
  outer loop
  vertex -0.1603643 -0.00446633529 0.0150267817
  vertex -0.159363911 -0.00446633529 0.0120804645
  vertex -0.1603643 -0.00447644386 -0.0051423125
  endloop
 endfacet

 facet normal 0 -0.536195338 0.844093919
  outer loop
  vertex -0.15536429 -0.00600067945 0.0163703728
  vertex -0.1603643 -0.00600067945 0.0163703728
  vertex -0.1603643 -0.0060349619 0.0163485948
  endloop
 endfacet

 facet normal 0 -0.536195338 0.844093919
  outer loop
  vertex -0.15536429 -0.00600067945 0.0163703728
  vertex -0.1603643 -0.0060349619 0.0163485948
  vertex -0.15536429 -0.0060349619 0.0163485948
  endloop
 endfacet

 facet normal 0 0.999999881 -0.000586952199
  outer loop
  vertex -0.157364592 -0.00446633529 0.0120804645
  vertex -0.15536429 -0.00447644386 -0.0051423125
  vertex -0.1603643 -0.00447644386 -0.0051423125
  endloop
 endfacet

 facet normal 0 0.999999881 -0.000586952199
  outer loop
  vertex -0.157364592 -0.00446633529 0.0120804645
  vertex -0.1603643 -0.00447644386 -0.0051423125
  vertex -0.159363911 -0.00446633529 0.0120804645
  endloop
 endfacet

 facet normal 0 -0.384997666 -0.922917664
  outer loop
  vertex -0.15536429 -0.00447644386 -0.0051423125
  vertex -0.15536429 -0.00507154642 -0.00489406381
  vertex -0.1603643 -0.00507154642 -0.00489406381
  endloop
 endfacet

 facet normal 0 -0.384997666 -0.922917664
  outer loop
  vertex -0.15536429 -0.00447644386 -0.0051423125
  vertex -0.1603643 -0.00507154642 -0.00489406381
  vertex -0.1603643 -0.00447644386 -0.0051423125
  endloop
 endfacet

 facet normal 0 -0.538587272 0.842569768
  outer loop
  vertex -0.15536429 -0.0060349619 0.0163485948
  vertex -0.1603643 -0.0060349619 0.0163485948
  vertex -0.1603643 -0.00688322447 0.0158063676
  endloop
 endfacet

 facet normal 0 -0.538587272 0.842569768
  outer loop
  vertex -0.15536429 -0.0060349619 0.0163485948
  vertex -0.1603643 -0.00688322447 0.0158063676
  vertex -0.15536429 -0.00688322447 0.0158063676
  endloop
 endfacet

 facet normal 0 -0.46173507 -0.887017906
  outer loop
  vertex -0.15536429 -0.00507154642 -0.00489406381
  vertex -0.15536429 -0.00600024033 -0.00441063428
  vertex -0.1603643 -0.00600024033 -0.00441063428
  endloop
 endfacet

 facet normal 0 -0.46173507 -0.887017906
  outer loop
  vertex -0.15536429 -0.00507154642 -0.00489406381
  vertex -0.1603643 -0.00600024033 -0.00441063428
  vertex -0.1603643 -0.00507154642 -0.00489406381
  endloop
 endfacet

 facet normal 0 -0.609752536 0.792591929
  outer loop
  vertex -0.15536429 -0.00688322447 0.0158063676
  vertex -0.1603643 -0.00688322447 0.0158063676
  vertex -0.1603643 -0.00771258818 0.0151683269
  endloop
 endfacet

 facet normal 0 -0.609752536 0.792591929
  outer loop
  vertex -0.15536429 -0.00688322447 0.0158063676
  vertex -0.1603643 -0.00771258818 0.0151683269
  vertex -0.15536429 -0.00771258818 0.0151683269
  endloop
 endfacet

 facet normal 0.0001625234 -0.539778233 -0.841807306
  outer loop
  vertex -0.15536429 -0.00600024033 -0.00441063428
  vertex -0.15536429 -0.00688322447 -0.00384445279
  vertex -0.157364592 -0.00609253813 -0.00435183803
  endloop
 endfacet

 facet normal 0 -0.537275076 -0.843407094
  outer loop
  vertex -0.15536429 -0.00600024033 -0.00441063428
  vertex -0.157364592 -0.00609253813 -0.00435183803
  vertex -0.159367338 -0.00609253813 -0.00435183803
  endloop
 endfacet

 facet normal 0 -0.537275076 -0.843407094
  outer loop
  vertex -0.15536429 -0.00600024033 -0.00441063428
  vertex -0.159367338 -0.00609253813 -0.00435183803
  vertex -0.1603643 -0.00600024033 -0.00441063428
  endloop
 endfacet

 facet normal -0.000326084002 -0.539778233 -0.841807306
  outer loop
  vertex -0.1603643 -0.00600024033 -0.00441063428
  vertex -0.159367338 -0.00609253813 -0.00435183803
  vertex -0.1603643 -0.00688322447 -0.00384445279
  endloop
 endfacet

 facet normal 0 -0.673752487 0.738957107
  outer loop
  vertex -0.15536429 -0.00771258818 0.0151683269
  vertex -0.1603643 -0.00771258818 0.0151683269
  vertex -0.157361165 -0.00802068785 0.0148874139
  endloop
 endfacet

 facet normal 0.000595292193 -0.675856471 0.737033069
  outer loop
  vertex -0.15536429 -0.00771258818 0.0151683269
  vertex -0.157361165 -0.00802068785 0.0148874139
  vertex -0.15536429 -0.00848437566 0.0144606009
  endloop
 endfacet

 facet normal 0 -0.540069461 -0.841620445
  outer loop
  vertex -0.15536429 -0.00688322447 -0.00384445279
  vertex -0.1603643 -0.00688322447 -0.00384445279
  vertex -0.159367338 -0.00609253813 -0.00435183803
  endloop
 endfacet

 facet normal 0 -0.540069461 -0.841620445
  outer loop
  vertex -0.15536429 -0.00688322447 -0.00384445279
  vertex -0.159367338 -0.00609253813 -0.00435183803
  vertex -0.157364592 -0.00609253813 -0.00435183803
  endloop
 endfacet

 facet normal 0.00056487805 -0.610158741 -0.792279124
  outer loop
  vertex -0.15536429 -0.00688322447 -0.00384445279
  vertex -0.15536429 -0.00771170901 -0.00320641138
  vertex -0.159367815 -0.00771258818 -0.00320858881
  endloop
 endfacet

 facet normal 0.000182317657 -0.608996987 -0.793172538
  outer loop
  vertex -0.15536429 -0.00688322447 -0.00384445279
  vertex -0.159367815 -0.00771258818 -0.00320858881
  vertex -0.159367338 -0.00704892166 -0.00371815125
  endloop
 endfacet

 facet normal 0 -0.606214881 -0.795300961
  outer loop
  vertex -0.15536429 -0.00688322447 -0.00384445279
  vertex -0.159367338 -0.00704892166 -0.00371815125
  vertex -0.159367815 -0.00704892166 -0.00371815125
  endloop
 endfacet

 facet normal 0 -0.606214881 -0.795300961
  outer loop
  vertex -0.15536429 -0.00688322447 -0.00384445279
  vertex -0.159367815 -0.00704892166 -0.00371815125
  vertex -0.1603643 -0.00688322447 -0.00384445279
  endloop
 endfacet

 facet normal -0.000395826733 -0.67585659 0.737033129
  outer loop
  vertex -0.1603643 -0.00771258818 0.0151683269
  vertex -0.1603643 -0.00848437566 0.0144606009
  vertex -0.157361165 -0.00802068785 0.0148874139
  endloop
 endfacet

 facet normal -0.000586375303 -0.608442783 -0.793597579
  outer loop
  vertex -0.1603643 -0.00688322447 -0.00384445279
  vertex -0.159367815 -0.00704892166 -0.00371815125
  vertex -0.1603643 -0.00771258818 -0.00320858881
  endloop
 endfacet

 facet normal 0 -0.677245617 0.735757113
  outer loop
  vertex -0.157361165 -0.00802068785 0.0148874139
  vertex -0.1603643 -0.00848437566 0.0144606009
  vertex -0.15536429 -0.00848437566 0.0144606009
  endloop
 endfacet

 facet normal 0 -0.715487361 0.698625743
  outer loop
  vertex -0.15536429 -0.00848437566 0.0144606009
  vertex -0.1603643 -0.00848437566 0.0144606009
  vertex -0.157361165 -0.00895641372 0.01397717
  endloop
 endfacet

 facet normal 0 -0.715487361 0.698625743
  outer loop
  vertex -0.15536429 -0.00848437566 0.0144606009
  vertex -0.157361165 -0.00895641372 0.01397717
  vertex -0.15536429 -0.00895641372 0.01397717
  endloop
 endfacet

 facet normal 0.000549946795 -0.673377931 -0.739298224
  outer loop
  vertex -0.15536429 -0.00771170901 -0.00320641138
  vertex -0.15536429 -0.00848393608 -0.00250304095
  vertex -0.159367815 -0.00771258818 -0.00320858881
  endloop
 endfacet

 facet normal 7.40339092e-05 -0.67472446 -0.738069773
  outer loop
  vertex -0.159367815 -0.00771258818 -0.00320858881
  vertex -0.15536429 -0.00848393608 -0.00250304095
  vertex -0.159367815 -0.00848437566 -0.00250304095
  endloop
 endfacet

 facet normal 0 -0.67472446 -0.738069773
  outer loop
  vertex -0.159367815 -0.00771258818 -0.00320858881
  vertex -0.159367815 -0.00848437566 -0.00250304095
  vertex -0.1603643 -0.00848437566 -0.00250304095
  endloop
 endfacet

 facet normal 0 -0.67472446 -0.738069773
  outer loop
  vertex -0.159367815 -0.00771258818 -0.00320858881
  vertex -0.1603643 -0.00848437566 -0.00250304095
  vertex -0.1603643 -0.00771258818 -0.00320858881
  endloop
 endfacet

 facet normal 0 -0.608996928 -0.793172538
  outer loop
  vertex -0.159367815 -0.00771258818 -0.00320858881
  vertex -0.1603643 -0.00771258818 -0.00320858881
  vertex -0.159367815 -0.00704892166 -0.00371815125
  endloop
 endfacet

 facet normal 0 -0.608996928 -0.793172538
  outer loop
  vertex -0.159367815 -0.00771258818 -0.00320858881
  vertex -0.159367815 -0.00704892166 -0.00371815125
  vertex -0.159367338 -0.00704892166 -0.00371815125
  endloop
 endfacet

 facet normal -0.0206001103 -0.736635089 0.675976634
  outer loop
  vertex -0.1603643 -0.00848437566 0.0144606009
  vertex -0.1603643 -0.00895597413 0.0139466831
  vertex -0.159363911 -0.00895597413 0.01397717
  endloop
 endfacet

 facet normal -0.000157043425 -0.715974808 0.698126197
  outer loop
  vertex -0.1603643 -0.00848437566 0.0144606009
  vertex -0.159363911 -0.00895597413 0.01397717
  vertex -0.157361165 -0.00895641372 0.01397717
  endloop
 endfacet

 facet normal 0 -1 0
  outer loop
  vertex -0.15536429 -0.00895641372 0.01397717
  vertex -0.157361165 -0.00895641372 0.01397717
  vertex -0.157364592 -0.00895641372 0.0106149279
  endloop
 endfacet

 facet normal 0 -1 0
  outer loop
  vertex -0.15536429 -0.00895641372 0.01397717
  vertex -0.157364592 -0.00895641372 0.0106149279
  vertex -0.157364592 -0.00895641372 0.00598095777
  endloop
 endfacet

 facet normal 0 -1 0
  outer loop
  vertex -0.15536429 -0.00895641372 0.01397717
  vertex -0.157364592 -0.00895641372 0.00598095777
  vertex -0.15536429 -0.00895641372 0.00598095777
  endloop
 endfacet

 facet normal 7.92052306e-05 -0.721854389 -0.692045093
  outer loop
  vertex -0.15536429 -0.00848393608 -0.00250304095
  vertex -0.15536429 -0.00895157922 -0.00201525423
  vertex -0.159367815 -0.00848437566 -0.00250304095
  endloop
 endfacet

 facet normal 0 -0.722179174 -0.691706061
  outer loop
  vertex -0.159367815 -0.00848437566 -0.00250304095
  vertex -0.15536429 -0.00895157922 -0.00201525423
  vertex -0.159363419 -0.00895157922 -0.00201525423
  endloop
 endfacet

 facet normal 0 -0.722179174 -0.691706061
  outer loop
  vertex -0.159367815 -0.00848437566 -0.00250304095
  vertex -0.159363419 -0.00895157922 -0.00201525423
  vertex -0.1603643 -0.00848437566 -0.00250304095
  endloop
 endfacet

 facet normal -0.000146442777 -1 0
  outer loop
  vertex -0.1603643 -0.00895597413 0.0139466831
  vertex -0.1603643 -0.00895597413 0.0106214611
  vertex -0.157364592 -0.00895641372 0.00598095777
  endloop
 endfacet

 facet normal -0.000146442777 -1 0
  outer loop
  vertex -0.1603643 -0.00895597413 0.0139466831
  vertex -0.157364592 -0.00895641372 0.00598095777
  vertex -0.157364592 -0.00895641372 0.0106149279
  endloop
 endfacet

 facet normal -0.000146277234 -1 1.49051118e-07
  outer loop
  vertex -0.1603643 -0.00895597413 0.0139466831
  vertex -0.157364592 -0.00895641372 0.0106149279
  vertex -0.157361165 -0.00895641372 0.01397717
  endloop
 endfacet

 facet normal -0.000219336405 -0.999974132 0.00719735492
  outer loop
  vertex -0.1603643 -0.00895597413 0.0139466831
  vertex -0.157361165 -0.00895641372 0.01397717
  vertex -0.159363911 -0.00895597413 0.01397717
  endloop
 endfacet

 facet normal -0.0161343366 -0.738416314 -0.674152136
  outer loop
  vertex -0.1603643 -0.00848437566 -0.00250304095
  vertex -0.159363419 -0.00895157922 -0.00201525423
  vertex -0.1603643 -0.00895157922 -0.00199130038
  endloop
 endfacet

 facet normal 0 -0.999999881 -0.000604602741
  outer loop
  vertex -0.15536429 -0.00895641372 0.00598095777
  vertex -0.157364592 -0.00895641372 0.00598095777
  vertex -0.159363419 -0.00895157922 -0.00201525423
  endloop
 endfacet

 facet normal 0 -0.999999881 -0.000604602741
  outer loop
  vertex -0.15536429 -0.00895641372 0.00598095777
  vertex -0.159363419 -0.00895157922 -0.00201525423
  vertex -0.15536429 -0.00895157922 -0.00201525423
  endloop
 endfacet

 facet normal -0.00021977174 -1 -4.7401285e-05
  outer loop
  vertex -0.1603643 -0.00895597413 0.0106214611
  vertex -0.159363419 -0.00895597413 0.00598095777
  vertex -0.157364592 -0.00895641372 0.00598095777
  endloop
 endfacet

 facet normal -0.00161567575 -0.999998569 -0.000348475674
  outer loop
  vertex -0.1603643 -0.00895597413 0.0106214611
  vertex -0.1603643 -0.00895157922 -0.00199130038
  vertex -0.159363419 -0.00895597413 0.00598095777
  endloop
 endfacet

 facet normal -1.43837742e-05 -0.999999881 -0.000601007254
  outer loop
  vertex -0.159363419 -0.00895157922 -0.00201525423
  vertex -0.157364592 -0.00895641372 0.00598095777
  vertex -0.1603643 -0.00895157922 -0.00199130038
  endloop
 endfacet

 facet normal -0.000219771726 -0.999999881 -0.000523726107
  outer loop
  vertex -0.1603643 -0.00895157922 -0.00199130038
  vertex -0.157364592 -0.00895641372 0.00598095777
  vertex -0.159363419 -0.00895597413 0.00598095777
  endloop
 endfacet

endsolid AssimpScene
