solid AssimpScene
 facet normal 0 1 0
  outer loop
  vertex -0.15536429 0.00469070207 0.00597807392
  vertex -0.15536429 0.00469070207 0.00361583102
  vertex -0.157364294 0.00469070207 0.00225231168
  endloop
 endfacet

 facet normal 0 1 0
  outer loop
  vertex -0.15536429 0.00469070207 0.00597807392
  vertex -0.157364294 0.00469070207 0.00225231168
  vertex -0.159363911 0.00469070207 0.00225231168
  endloop
 endfacet

 facet normal 0 1 0
  outer loop
  vertex -0.15536429 0.00469070207 0.00597807392
  vertex -0.159363911 0.00469070207 0.00225231168
  vertex -0.159364298 0.00469070207 0.00404745201
  endloop
 endfacet

 facet normal 0 1 0
  outer loop
  vertex -0.15536429 0.00469070207 0.00597807392
  vertex -0.159364298 0.00469070207 0.00404745201
  vertex -0.159364298 0.00469070207 0.00597807392
  endloop
 endfacet

 facet normal 0 0 1
  outer loop
  vertex -0.15536429 0.00469070207 0.00597807392
  vertex -0.159364298 0.00469070207 0.00597807392
  vertex -0.159364298 0.00259989593 0.00597807392
  endloop
 endfacet

 facet normal 0 0 1
  outer loop
  vertex -0.15536429 0.00469070207 0.00597807392
  vertex -0.159364298 0.00259989593 0.00597807392
  vertex -0.15536429 0.00259989593 0.00597807392
  endloop
 endfacet

 facet normal 1 0 0
  outer loop
  vertex -0.15536429 0.00469070207 0.00597807392
  vertex -0.15536429 0.00259989593 0.00597807392
  vertex -0.15536429 2.45019783e-06 0.00338011025
  endloop
 endfacet

 facet normal 1 0 0
  outer loop
  vertex -0.15536429 0.00469070207 0.00597807392
  vertex -0.15536429 2.45019783e-06 0.00338011025
  vertex -0.15536429 2.45019783e-06 0.00130210526
  endloop
 endfacet

 facet normal 1 0 0
  outer loop
  vertex -0.15536429 0.00469070207 0.00597807392
  vertex -0.15536429 2.45019783e-06 0.00130210526
  vertex -0.15536429 0.00236493256 0.00130210526
  endloop
 endfacet

 facet normal 1 0 0
  outer loop
  vertex -0.15536429 0.00469070207 0.00597807392
  vertex -0.15536429 0.00236493256 0.00130210526
  vertex -0.15536429 0.00469070207 0.00361583102
  endloop
 endfacet

 facet normal 0.435163081 0.634989917 -0.638295233
  outer loop
  vertex -0.15536429 0.00469070207 0.00361583102
  vertex -0.15536429 0.00236493256 0.00130210526
  vertex -0.157364294 0.00469070207 0.00225231168
  endloop
 endfacet

 facet normal -1 0 0
  outer loop
  vertex -0.159364298 0.00469070207 0.00597807392
  vertex -0.159364298 0.00469070207 0.00404745201
  vertex -0.159364298 0.00173622218 0.00404745201
  endloop
 endfacet

 facet normal -1 0 0
  outer loop
  vertex -0.159364298 0.00469070207 0.00597807392
  vertex -0.159364298 0.00173622218 0.00404745201
  vertex -0.159364298 0.00259989593 0.00597807392
  endloop
 endfacet

 facet normal 0 -0.707177341 0.707036257
  outer loop
  vertex -0.15536429 0.00259989593 0.00597807392
  vertex -0.159364298 0.00259989593 0.00597807392
  vertex -0.159363911 2.45019783e-06 0.00338011025
  endloop
 endfacet

 facet normal 0 -0.707177341 0.707036257
  outer loop
  vertex -0.15536429 0.00259989593 0.00597807392
  vertex -0.159363911 2.45019783e-06 0.00338011025
  vertex -0.15536429 2.45019783e-06 0.00338011025
  endloop
 endfacet

 facet normal 0.432590127 0.633922756 -0.641098797
  outer loop
  vertex -0.157364294 0.00469070207 0.00225231168
  vertex -0.15536429 0.00236493256 0.00130210526
  vertex -0.157364294 0.00372973899 0.00130210526
  endloop
 endfacet

 facet normal 0 0.703116059 -0.711075187
  outer loop
  vertex -0.157364294 0.00469070207 0.00225231168
  vertex -0.157364294 0.00372973899 0.00130210526
  vertex -0.159363911 0.00372973899 0.00130210526
  endloop
 endfacet

 facet normal 0 0.703116059 -0.711075187
  outer loop
  vertex -0.157364294 0.00469070207 0.00225231168
  vertex -0.159363911 0.00372973899 0.00130210526
  vertex -0.159363911 0.00469070207 0.00225231168
  endloop
 endfacet

 facet normal 0 0 -1
  outer loop
  vertex -0.15536429 0.00236493256 0.00130210526
  vertex -0.15536429 2.45019783e-06 0.00130210526
  vertex -0.159363911 2.45019783e-06 0.00130210526
  endloop
 endfacet

 facet normal 0 0 -1
  outer loop
  vertex -0.15536429 0.00236493256 0.00130210526
  vertex -0.159363911 2.45019783e-06 0.00130210526
  vertex -0.159363911 0.00372973899 0.00130210526
  endloop
 endfacet

 facet normal 0 0 -1
  outer loop
  vertex -0.15536429 0.00236493256 0.00130210526
  vertex -0.159363911 0.00372973899 0.00130210526
  vertex -0.157364294 0.00372973899 0.00130210526
  endloop
 endfacet

 facet normal -1 0.000215704189 -0.000218145942
  outer loop
  vertex -0.159364298 0.00469070207 0.00404745201
  vertex -0.159363911 0.00469070207 0.00225231168
  vertex -0.159363911 0.00372973899 0.00130210526
  endloop
 endfacet

 facet normal -1 0 -0.000142642282
  outer loop
  vertex -0.159364298 0.00469070207 0.00404745201
  vertex -0.159363911 0.00372973899 0.00130210526
  vertex -0.159363911 2.45019783e-06 0.00130210526
  endloop
 endfacet

 facet normal -1 0 -0.000142642282
  outer loop
  vertex -0.159364298 0.00469070207 0.00404745201
  vertex -0.159363911 2.45019783e-06 0.00130210526
  vertex -0.159364298 0.00173622218 0.00404745201
  endloop
 endfacet

 facet normal -0.99999994 -0.0002728494 0.000122060555
  outer loop
  vertex -0.159364298 0.00259989593 0.00597807392
  vertex -0.159364298 0.00173622218 0.00404745201
  vertex -0.159363911 2.45019783e-06 0.00338011025
  endloop
 endfacet

 facet normal 0 -1 0
  outer loop
  vertex -0.15536429 2.45019783e-06 0.00338011025
  vertex -0.159363911 2.45019783e-06 0.00338011025
  vertex -0.159363911 2.45019783e-06 0.00130210526
  endloop
 endfacet

 facet normal 0 -1 0
  outer loop
  vertex -0.15536429 2.45019783e-06 0.00338011025
  vertex -0.159363911 2.45019783e-06 0.00130210526
  vertex -0.15536429 2.45019783e-06 0.00130210526
  endloop
 endfacet

 facet normal -1 -0.000225867363 0
  outer loop
  vertex -0.159364298 0.00173622218 0.00404745201
  vertex -0.159363911 2.45019783e-06 0.00130210526
  vertex -0.159363911 2.45019783e-06 0.00338011025
  endloop
 endfacet

endsolid AssimpScene
