solid AssimpScene
 facet normal 0 1 0
  outer loop
  vertex -0.137723505 0.0314178914 0.0147239659
  vertex -0.137723505 0.0314178914 0.00598085579
  vertex -0.144219965 0.0314178914 0.00598085579
  endloop
 endfacet

 facet normal 0 1 0
  outer loop
  vertex -0.137723505 0.0314178914 0.0147239659
  vertex -0.144219965 0.0314178914 0.00598085579
  vertex -0.144219965 0.0314178914 0.0147239659
  endloop
 endfacet

 facet normal 0 0 1
  outer loop
  vertex -0.137723505 0.0314178914 0.0147239659
  vertex -0.144219965 0.0314178914 0.0147239659
  vertex -0.144219965 0.0122761931 0.0147239659
  endloop
 endfacet

 facet normal 0 0 1
  outer loop
  vertex -0.137723505 0.0314178914 0.0147239659
  vertex -0.144219965 0.0122761931 0.0147239659
  vertex -0.137723505 0.0131961796 0.0147239659
  endloop
 endfacet

 facet normal 1 0 0
  outer loop
  vertex -0.137723505 0.0314178914 0.0147239659
  vertex -0.137723505 0.0131961796 0.0147239659
  vertex -0.137723505 0.0131961796 0.00598085579
  endloop
 endfacet

 facet normal 1 0 0
  outer loop
  vertex -0.137723505 0.0314178914 0.0147239659
  vertex -0.137723505 0.0131961796 0.00598085579
  vertex -0.137723505 0.0314178914 0.00598085579
  endloop
 endfacet

 facet normal 0 0 -1
  outer loop
  vertex -0.137723505 0.0314178914 0.00598085579
  vertex -0.137723505 0.0131961796 0.00598085579
  vertex -0.144219965 0.0122761931 0.00598085579
  endloop
 endfacet

 facet normal 0 0 -1
  outer loop
  vertex -0.137723505 0.0314178914 0.00598085579
  vertex -0.144219965 0.0122761931 0.00598085579
  vertex -0.144219965 0.0314178914 0.00598085579
  endloop
 endfacet

 facet normal -1 0 0
  outer loop
  vertex -0.144219965 0.0314178914 0.0147239659
  vertex -0.144219965 0.0314178914 0.00598085579
  vertex -0.144219965 0.0122761931 0.00598085579
  endloop
 endfacet

 facet normal -1 0 0
  outer loop
  vertex -0.144219965 0.0314178914 0.0147239659
  vertex -0.144219965 0.0122761931 0.00598085579
  vertex -0.144219965 0.0122761931 0.0147239659
  endloop
 endfacet

 facet normal 0.140214294 -0.990121245 0
  outer loop
  vertex -0.137723505 0.0131961796 0.0147239659
  vertex -0.144219965 0.0122761931 0.0147239659
  vertex -0.144219965 0.0122761931 0.00598085579
  endloop
 endfacet

 facet normal 0.140214294 -0.990121245 0
  outer loop
  vertex -0.137723505 0.0131961796 0.0147239659
  vertex -0.144219965 0.0122761931 0.00598085579
  vertex -0.137723505 0.0131961796 0.00598085579
  endloop
 endfacet

endsolid AssimpScene
