solid AssimpScene
 facet normal -0.997499704 -0.0706700608 -6.29083734e-05
  outer loop
  vertex -0.0719986334 -0.0216324925 -0.002996
  vertex -0.0719950274 -0.0216833577 -0.002996
  vertex -0.0719950274 -0.0216912702 0.00589278806
  endloop
 endfacet

 facet normal -0.998125792 -0.0611950457 0
  outer loop
  vertex -0.0719986334 -0.0216324925 -0.002996
  vertex -0.0719950274 -0.0216912702 0.00589278806
  vertex -0.0719986334 -0.0216324925 0.00589278806
  endloop
 endfacet

 facet normal -0.991966665 0.126499563 0
  outer loop
  vertex -0.0719986334 -0.0216324925 -0.002996
  vertex -0.0719986334 -0.0216324925 0.00589278806
  vertex -0.0719950274 -0.0216042344 0.00589278806
  endloop
 endfacet

 facet normal -0.986897349 0.161349684 -0.000112849164
  outer loop
  vertex -0.0719986334 -0.0216324925 -0.002996
  vertex -0.0719950274 -0.0216042344 0.00589278806
  vertex -0.0719878227 -0.0215601493 0.00589278806
  endloop
 endfacet

 facet normal -0.986897349 0.161349684 -0.000112849164
  outer loop
  vertex -0.0719986334 -0.0216324925 -0.002996
  vertex -0.0719878227 -0.0215601493 0.00589278806
  vertex -0.0719914213 -0.0215884093 -0.002996
  endloop
 endfacet

 facet normal 0 0 -1
  outer loop
  vertex -0.0719986334 -0.0216324925 -0.002996
  vertex -0.0719914213 -0.0215884093 -0.002996
  vertex -0.0719842166 -0.0215454549 -0.002996
  endloop
 endfacet

 facet normal 0 0 -1
  outer loop
  vertex -0.0719986334 -0.0216324925 -0.002996
  vertex -0.0719842166 -0.0215454549 -0.002996
  vertex -0.0719770119 -0.0215104148 -0.002996
  endloop
 endfacet

 facet normal 0 0 -1
  outer loop
  vertex -0.0719986334 -0.0216324925 -0.002996
  vertex -0.0719770119 -0.0215104148 -0.002996
  vertex -0.0719697997 -0.0214900672 -0.002996
  endloop
 endfacet

 facet normal 0 0 -1
  outer loop
  vertex -0.0719986334 -0.0216324925 -0.002996
  vertex -0.0719697997 -0.0214900672 -0.002996
  vertex -0.0719589964 -0.0214629397 -0.002996
  endloop
 endfacet

 facet normal 0 0 -1
  outer loop
  vertex -0.0719986334 -0.0216324925 -0.002996
  vertex -0.0719589964 -0.0214629397 -0.002996
  vertex -0.0719409734 -0.0214222465 -0.002996
  endloop
 endfacet

 facet normal 0 0 -1
  outer loop
  vertex -0.0719986334 -0.0216324925 -0.002996
  vertex -0.0719409734 -0.0214222465 -0.002996
  vertex -0.0719121471 -0.021372512 -0.002996
  endloop
 endfacet

 facet normal 0 0 -1
  outer loop
  vertex -0.0719986334 -0.0216324925 -0.002996
  vertex -0.0719121471 -0.021372512 -0.002996
  vertex -0.0718941242 -0.0213487744 -0.002996
  endloop
 endfacet

 facet normal 0 0 -1
  outer loop
  vertex -0.0719986334 -0.0216324925 -0.002996
  vertex -0.0718941242 -0.0213487744 -0.002996
  vertex -0.0718652979 -0.0213148631 -0.002996
  endloop
 endfacet

 facet normal 0 0 -1
  outer loop
  vertex -0.0719986334 -0.0216324925 -0.002996
  vertex -0.0718652979 -0.0213148631 -0.002996
  vertex -0.0718400702 -0.0212899968 -0.002996
  endloop
 endfacet

 facet normal 0 0 -1
  outer loop
  vertex -0.0719986334 -0.0216324925 -0.002996
  vertex -0.0718400702 -0.0212899968 -0.002996
  vertex -0.0718004331 -0.0212560855 -0.002996
  endloop
 endfacet

 facet normal 0 0 -1
  outer loop
  vertex -0.0719986334 -0.0216324925 -0.002996
  vertex -0.0718004331 -0.0212560855 -0.002996
  vertex -0.0717680007 -0.0212312173 -0.002996
  endloop
 endfacet

 facet normal 0 0 -1
  outer loop
  vertex -0.0719986334 -0.0216324925 -0.002996
  vertex -0.0717680007 -0.0212312173 -0.002996
  vertex -0.0717175528 -0.0212018285 -0.002996
  endloop
 endfacet

 facet normal 0 0 -1
  outer loop
  vertex -0.0719986334 -0.0216324925 -0.002996
  vertex -0.0717175528 -0.0212018285 -0.002996
  vertex -0.0716562942 -0.0211769603 -0.002996
  endloop
 endfacet

 facet normal 0 0 -1
  outer loop
  vertex -0.0719986334 -0.0216324925 -0.002996
  vertex -0.0716562942 -0.0211769603 -0.002996
  vertex -0.071649082 -0.0211747009 -0.002996
  endloop
 endfacet

 facet normal 0 0 -1
  outer loop
  vertex -0.0719986334 -0.0216324925 -0.002996
  vertex -0.071649082 -0.0211747009 -0.002996
  vertex -0.0715986341 -0.0211622659 -0.002996
  endloop
 endfacet

 facet normal 0 0 -1
  outer loop
  vertex -0.0719986334 -0.0216324925 -0.002996
  vertex -0.0715986341 -0.0211622659 -0.002996
  vertex -0.0483159535 -0.015898224 -0.002996
  endloop
 endfacet

 facet normal 0 0 -1
  outer loop
  vertex -0.0719986334 -0.0216324925 -0.002996
  vertex -0.0483159535 -0.015898224 -0.002996
  vertex -0.0410115086 -0.0142479129 -0.002996
  endloop
 endfacet

 facet normal 0 0 -1
  outer loop
  vertex -0.0719986334 -0.0216324925 -0.002996
  vertex -0.0410115086 -0.0142479129 -0.002996
  vertex -0.0410007015 -0.0142919971 -0.002996
  endloop
 endfacet

 facet normal 0 0 -1
  outer loop
  vertex -0.0719986334 -0.0216324925 -0.002996
  vertex -0.0410007015 -0.0142919971 -0.002996
  vertex -0.0403088145 -0.0173552465 -0.002996
  endloop
 endfacet

 facet normal 0 0 -1
  outer loop
  vertex -0.0719986334 -0.0216324925 -0.002996
  vertex -0.0403088145 -0.0173552465 -0.002996
  vertex -0.0413574539 -0.0184878577 -0.002996
  endloop
 endfacet

 facet normal 0 0 -1
  outer loop
  vertex -0.0719986334 -0.0216324925 -0.002996
  vertex -0.0413574539 -0.0184878577 -0.002996
  vertex -0.0712094456 -0.0231222939 -0.002996
  endloop
 endfacet

 facet normal 0 0 -1
  outer loop
  vertex -0.0719986334 -0.0216324925 -0.002996
  vertex -0.0712094456 -0.0231222939 -0.002996
  vertex -0.0712526888 -0.0231268145 -0.002996
  endloop
 endfacet

 facet normal 0 0 -1
  outer loop
  vertex -0.0719986334 -0.0216324925 -0.002996
  vertex -0.0712526888 -0.0231268145 -0.002996
  vertex -0.0712923333 -0.0231268145 -0.002996
  endloop
 endfacet

 facet normal 0 0 -1
  outer loop
  vertex -0.0719986334 -0.0216324925 -0.002996
  vertex -0.0712923333 -0.0231268145 -0.002996
  vertex -0.0713499859 -0.0231222939 -0.002996
  endloop
 endfacet

 facet normal 0 0 -1
  outer loop
  vertex -0.0719986334 -0.0216324925 -0.002996
  vertex -0.0713499859 -0.0231222939 -0.002996
  vertex -0.0713824183 -0.023115512 -0.002996
  endloop
 endfacet

 facet normal 0 0 -1
  outer loop
  vertex -0.0719986334 -0.0216324925 -0.002996
  vertex -0.0713824183 -0.023115512 -0.002996
  vertex -0.0714364722 -0.0231008176 -0.002996
  endloop
 endfacet

 facet normal 0 0 -1
  outer loop
  vertex -0.0719986334 -0.0216324925 -0.002996
  vertex -0.0714364722 -0.0231008176 -0.002996
  vertex -0.071465306 -0.0230895132 -0.002996
  endloop
 endfacet

 facet normal 0 0 -1
  outer loop
  vertex -0.0719986334 -0.0216324925 -0.002996
  vertex -0.071465306 -0.0230895132 -0.002996
  vertex -0.0715049431 -0.0230714288 -0.002996
  endloop
 endfacet

 facet normal 0 0 -1
  outer loop
  vertex -0.0719986334 -0.0216324925 -0.002996
  vertex -0.0715049431 -0.0230714288 -0.002996
  vertex -0.0715409815 -0.0230499525 -0.002996
  endloop
 endfacet

 facet normal 0 0 -1
  outer loop
  vertex -0.0719986334 -0.0216324925 -0.002996
  vertex -0.0715409815 -0.0230499525 -0.002996
  vertex -0.0715517923 -0.0230431687 -0.002996
  endloop
 endfacet

 facet normal 0 0 -1
  outer loop
  vertex -0.0719986334 -0.0216324925 -0.002996
  vertex -0.0715517923 -0.0230431687 -0.002996
  vertex -0.0715770125 -0.0230250843 -0.002996
  endloop
 endfacet

 facet normal 0 0 -1
  outer loop
  vertex -0.0719986334 -0.0216324925 -0.002996
  vertex -0.0715770125 -0.0230250843 -0.002996
  vertex -0.071613051 -0.0229968242 -0.002996
  endloop
 endfacet

 facet normal 0 0 -1
  outer loop
  vertex -0.0719986334 -0.0216324925 -0.002996
  vertex -0.071613051 -0.0229968242 -0.002996
  vertex -0.0716418773 -0.0229663067 -0.002996
  endloop
 endfacet

 facet normal 0 0 -1
  outer loop
  vertex -0.0719986334 -0.0216324925 -0.002996
  vertex -0.0716418773 -0.0229663067 -0.002996
  vertex -0.0716815144 -0.0229188316 -0.002996
  endloop
 endfacet

 facet normal 0 0 -1
  outer loop
  vertex -0.0719986334 -0.0216324925 -0.002996
  vertex -0.0716815144 -0.0229188316 -0.002996
  vertex -0.071703136 -0.0228871815 -0.002996
  endloop
 endfacet

 facet normal 0 0 -1
  outer loop
  vertex -0.0719986334 -0.0216324925 -0.002996
  vertex -0.071703136 -0.0228871815 -0.002996
  vertex -0.0717175528 -0.0228589233 -0.002996
  endloop
 endfacet

 facet normal 0 0 -1
  outer loop
  vertex -0.0719986334 -0.0216324925 -0.002996
  vertex -0.0717175528 -0.0228589233 -0.002996
  vertex -0.0717355683 -0.0228204913 -0.002996
  endloop
 endfacet

 facet normal 0 0 -1
  outer loop
  vertex -0.0719986334 -0.0216324925 -0.002996
  vertex -0.0717355683 -0.0228204913 -0.002996
  vertex -0.0717571899 -0.0227684937 -0.002996
  endloop
 endfacet

 facet normal 0 0 -1
  outer loop
  vertex -0.0719986334 -0.0216324925 -0.002996
  vertex -0.0717571899 -0.0227684937 -0.002996
  vertex -0.0719409734 -0.0219546426 -0.002996
  endloop
 endfacet

 facet normal 0 0 -1
  outer loop
  vertex -0.0719986334 -0.0216324925 -0.002996
  vertex -0.0719409734 -0.0219546426 -0.002996
  vertex -0.0719914213 -0.0217195284 -0.002996
  endloop
 endfacet

 facet normal 0 0 -1
  outer loop
  vertex -0.0719986334 -0.0216324925 -0.002996
  vertex -0.0719914213 -0.0217195284 -0.002996
  vertex -0.0719950274 -0.0216833577 -0.002996
  endloop
 endfacet

 facet normal -0.995073795 -0.0991371572 -0.000151282322
  outer loop
  vertex -0.0719950274 -0.0216833577 -0.002996
  vertex -0.0719914213 -0.0217195284 -0.002996
  vertex -0.0719914213 -0.021733094 0.00589278806
  endloop
 endfacet

 facet normal -0.996308327 -0.0858468413 -7.64182914e-05
  outer loop
  vertex -0.0719950274 -0.0216833577 -0.002996
  vertex -0.0719914213 -0.021733094 0.00589278806
  vertex -0.0719950274 -0.0216912702 0.00589278806
  endloop
 endfacet

 facet normal -0.996308327 -0.0858468413 0.000129218388
  outer loop
  vertex -0.0719950274 -0.0216912702 0.00589278806
  vertex -0.0719914213 -0.021733094 0.00589278806
  vertex -0.0719914213 -0.0217195284 0.014904228
  endloop
 endfacet

 facet normal -0.996499062 -0.0836035609 0.000136329327
  outer loop
  vertex -0.0719950274 -0.0216912702 0.00589278806
  vertex -0.0719914213 -0.0217195284 0.014904228
  vertex -0.0719950274 -0.0216765758 0.014904228
  endloop
 endfacet

 facet normal -0.998125792 -0.0611950457 9.97885727e-05
  outer loop
  vertex -0.0719950274 -0.0216912702 0.00589278806
  vertex -0.0719950274 -0.0216765758 0.014904228
  vertex -0.0719986334 -0.0216324925 0.00589278806
  endloop
 endfacet

 facet normal -0.999999881 0 0.000399900426
  outer loop
  vertex -0.0719986334 -0.0216324925 0.00589278806
  vertex -0.0719950274 -0.0216765758 0.014904228
  vertex -0.0719950274 -0.0216324925 0.014904228
  endloop
 endfacet

 facet normal -0.996499121 0.0836035684 0.000398500473
  outer loop
  vertex -0.0719986334 -0.0216324925 0.00589278806
  vertex -0.0719950274 -0.0216324925 0.014904228
  vertex -0.0719914213 -0.0215895381 0.014904228
  endloop
 endfacet

 facet normal -0.991966665 0.126499534 0.000190409643
  outer loop
  vertex -0.0719986334 -0.0216324925 0.00589278806
  vertex -0.0719914213 -0.0215895381 0.014904228
  vertex -0.0719950274 -0.0216042344 0.00589278806
  endloop
 endfacet

 facet normal -0.986897349 0.161349684 0.000131553563
  outer loop
  vertex -0.0719950274 -0.0216042344 0.00589278806
  vertex -0.0719914213 -0.0215895381 0.014904228
  vertex -0.0719878227 -0.0215601493 0.00589278806
  endloop
 endfacet

 facet normal -0.986212969 0.16548118 -0.000126261308
  outer loop
  vertex -0.0719914213 -0.0215884093 -0.002996
  vertex -0.0719878227 -0.0215601493 0.00589278806
  vertex -0.0719842166 -0.0215454549 -0.002996
  endloop
 endfacet

 facet normal -0.977744222 -0.209800512 -0.000320153486
  outer loop
  vertex -0.0719914213 -0.0217195284 -0.002996
  vertex -0.0719409734 -0.0219546426 -0.002996
  vertex -0.0719914213 -0.021733094 0.00589278806
  endloop
 endfacet

 facet normal -0.976287246 -0.216479346 -0.000145417391
  outer loop
  vertex -0.0719914213 -0.021733094 0.00589278806
  vertex -0.0719409734 -0.0219546426 -0.002996
  vertex -0.0719662011 -0.0218529105 0.014904228
  endloop
 endfacet

 facet normal -0.978151441 -0.207893878 -2.60451834e-05
  outer loop
  vertex -0.0719914213 -0.021733094 0.00589278806
  vertex -0.0719662011 -0.0218529105 0.014904228
  vertex -0.0719697997 -0.0218359549 0.014904228
  endloop
 endfacet

 facet normal -0.978838921 -0.204632223 1.28349475e-05
  outer loop
  vertex -0.0719914213 -0.021733094 0.00589278806
  vertex -0.0719697997 -0.0218359549 0.014904228
  vertex -0.0719842166 -0.0217670035 0.014904228
  endloop
 endfacet

 facet normal -0.98867166 -0.150094911 0.000225925862
  outer loop
  vertex -0.0719914213 -0.021733094 0.00589278806
  vertex -0.0719842166 -0.0217670035 0.014904228
  vertex -0.0719914213 -0.0217195284 0.014904228
  endloop
 endfacet

 facet normal 0 0 1
  outer loop
  vertex -0.0719914213 -0.0217195284 0.014904228
  vertex -0.0719842166 -0.0217670035 0.014904228
  vertex -0.0719697997 -0.0218359549 0.014904228
  endloop
 endfacet

 facet normal 0 0 1
  outer loop
  vertex -0.0719914213 -0.0217195284 0.014904228
  vertex -0.0719697997 -0.0218359549 0.014904228
  vertex -0.0719662011 -0.0218529105 0.014904228
  endloop
 endfacet

 facet normal 0 0 1
  outer loop
  vertex -0.0719914213 -0.0217195284 0.014904228
  vertex -0.0719662011 -0.0218529105 0.014904228
  vertex -0.0719157457 -0.0220755897 0.014904228
  endloop
 endfacet

 facet normal 0 0 1
  outer loop
  vertex -0.0719914213 -0.0217195284 0.014904228
  vertex -0.0719157457 -0.0220755897 0.014904228
  vertex -0.0715698078 -0.0235993024 0.014904228
  endloop
 endfacet

 facet normal 0 0 1
  outer loop
  vertex -0.0719914213 -0.0217195284 0.014904228
  vertex -0.0715698078 -0.0235993024 0.014904228
  vertex -0.0715517923 -0.0236659925 0.014904228
  endloop
 endfacet

 facet normal 0 0 1
  outer loop
  vertex -0.0719914213 -0.0217195284 0.014904228
  vertex -0.0715517923 -0.0236659925 0.014904228
  vertex -0.0715337694 -0.0237292927 0.014904228
  endloop
 endfacet

 facet normal 0 0 1
  outer loop
  vertex -0.0719914213 -0.0217195284 0.014904228
  vertex -0.0715337694 -0.0237292927 0.014904228
  vertex -0.0715085417 -0.0237948522 0.014904228
  endloop
 endfacet

 facet normal 0 0 1
  outer loop
  vertex -0.0719914213 -0.0217195284 0.014904228
  vertex -0.0715085417 -0.0237948522 0.014904228
  vertex -0.0714797154 -0.0238649342 0.014904228
  endloop
 endfacet

 facet normal 0 0 1
  outer loop
  vertex -0.0719914213 -0.0217195284 0.014904228
  vertex -0.0714797154 -0.0238649342 0.014904228
  vertex -0.071447283 -0.023929365 0.014904228
  endloop
 endfacet

 facet normal 0 0 1
  outer loop
  vertex -0.0719914213 -0.0217195284 0.014904228
  vertex -0.071447283 -0.023929365 0.014904228
  vertex -0.0714148507 -0.0239904039 0.014904228
  endloop
 endfacet

 facet normal 0 0 1
  outer loop
  vertex -0.0719914213 -0.0217195284 0.014904228
  vertex -0.0714148507 -0.0239904039 0.014904228
  vertex -0.0714040399 -0.0240084883 0.014904228
  endloop
 endfacet

 facet normal 0 0 1
  outer loop
  vertex -0.0719914213 -0.0217195284 0.014904228
  vertex -0.0714040399 -0.0240084883 0.014904228
  vertex -0.0713716075 -0.024060484 0.014904228
  endloop
 endfacet

 facet normal 0 0 1
  outer loop
  vertex -0.0719914213 -0.0217195284 0.014904228
  vertex -0.0713716075 -0.024060484 0.014904228
  vertex -0.0713319704 -0.0241203941 0.014904228
  endloop
 endfacet

 facet normal 0 0 1
  outer loop
  vertex -0.0719914213 -0.0217195284 0.014904228
  vertex -0.0713319704 -0.0241203941 0.014904228
  vertex -0.0712887272 -0.0241803024 0.014904228
  endloop
 endfacet

 facet normal 0 0 1
  outer loop
  vertex -0.0719914213 -0.0217195284 0.014904228
  vertex -0.0712887272 -0.0241803024 0.014904228
  vertex -0.071241878 -0.02423908 0.014904228
  endloop
 endfacet

 facet normal 0 0 1
  outer loop
  vertex -0.0719914213 -0.0217195284 0.014904228
  vertex -0.071241878 -0.02423908 0.014904228
  vertex -0.0712094456 -0.0242752526 0.014904228
  endloop
 endfacet

 facet normal 0 0 1
  outer loop
  vertex -0.0719914213 -0.0217195284 0.014904228
  vertex -0.0712094456 -0.0242752526 0.014904228
  vertex -0.0711950362 -0.0242910758 0.014904228
  endloop
 endfacet

 facet normal 0 0 1
  outer loop
  vertex -0.0719914213 -0.0217195284 0.014904228
  vertex -0.0711950362 -0.0242910758 0.014904228
  vertex -0.0711409822 -0.0243453328 0.014904228
  endloop
 endfacet

 facet normal 0 0 1
  outer loop
  vertex -0.0719914213 -0.0217195284 0.014904228
  vertex -0.0711409822 -0.0243453328 0.014904228
  vertex -0.071094133 -0.0243848953 0.014904228
  endloop
 endfacet

 facet normal 0 0 1
  outer loop
  vertex -0.0719914213 -0.0217195284 0.014904228
  vertex -0.071094133 -0.0243848953 0.014904228
  vertex -0.0710689127 -0.024405241 0.014904228
  endloop
 endfacet

 facet normal 0 0 1
  outer loop
  vertex -0.0719914213 -0.0217195284 0.014904228
  vertex -0.0710689127 -0.024405241 0.014904228
  vertex -0.0710472912 -0.0244221967 0.014904228
  endloop
 endfacet

 facet normal 0 0 1
  outer loop
  vertex -0.0719914213 -0.0217195284 0.014904228
  vertex -0.0710472912 -0.0244221967 0.014904228
  vertex -0.0710076466 -0.024443673 0.014904228
  endloop
 endfacet

 facet normal 0 0 1
  outer loop
  vertex -0.0719914213 -0.0217195284 0.014904228
  vertex -0.0710076466 -0.024443673 0.014904228
  vertex -0.0709968358 -0.0244481955 0.014904228
  endloop
 endfacet

 facet normal 0 0 1
  outer loop
  vertex -0.0719914213 -0.0217195284 0.014904228
  vertex -0.0709968358 -0.0244481955 0.014904228
  vertex -0.0709535927 -0.0244640205 0.014904228
  endloop
 endfacet

 facet normal 0 0 1
  outer loop
  vertex -0.0719914213 -0.0217195284 0.014904228
  vertex -0.0709535927 -0.0244640205 0.014904228
  vertex -0.070949994 -0.0244651511 0.014904228
  endloop
 endfacet

 facet normal 0 0 1
  outer loop
  vertex -0.0719914213 -0.0217195284 0.014904228
  vertex -0.070949994 -0.0244651511 0.014904228
  vertex -0.0709031448 -0.0244764537 0.014904228
  endloop
 endfacet

 facet normal 0 0 1
  outer loop
  vertex -0.0719914213 -0.0217195284 0.014904228
  vertex -0.0709031448 -0.0244764537 0.014904228
  vertex -0.0708671063 -0.0244730618 0.014904228
  endloop
 endfacet

 facet normal 0 0 1
  outer loop
  vertex -0.0719914213 -0.0217195284 0.014904228
  vertex -0.0708671063 -0.0244730618 0.014904228
  vertex -0.0708599016 -0.024471933 0.014904228
  endloop
 endfacet

 facet normal 0 0 1
  outer loop
  vertex -0.0719914213 -0.0217195284 0.014904228
  vertex -0.0708599016 -0.024471933 0.014904228
  vertex -0.0692455024 -0.0241068285 0.014904228
  endloop
 endfacet

 facet normal 0 0 1
  outer loop
  vertex -0.0719914213 -0.0217195284 0.014904228
  vertex -0.0692455024 -0.0241068285 0.014904228
  vertex -0.0635338426 -0.0228137076 0.014904228
  endloop
 endfacet

 facet normal 0 0 1
  outer loop
  vertex -0.0719914213 -0.0217195284 0.014904228
  vertex -0.0635338426 -0.0228137076 0.014904228
  vertex -0.0351845361 -0.0151194129 0.014904228
  endloop
 endfacet

 facet normal 0 0 1
  outer loop
  vertex -0.0719914213 -0.0217195284 0.014904228
  vertex -0.0351845361 -0.0151194129 0.014904228
  vertex -0.0351845361 -0.0129299248 0.014904228
  endloop
 endfacet

 facet normal 0 0 1
  outer loop
  vertex -0.0719914213 -0.0217195284 0.014904228
  vertex -0.0351845361 -0.0129299248 0.014904228
  vertex -0.0716058388 -0.0211633965 0.014904228
  endloop
 endfacet

 facet normal 0 0 1
  outer loop
  vertex -0.0719914213 -0.0217195284 0.014904228
  vertex -0.0716058388 -0.0211633965 0.014904228
  vertex -0.071649082 -0.0211758316 0.014904228
  endloop
 endfacet

 facet normal 0 0 1
  outer loop
  vertex -0.0719914213 -0.0217195284 0.014904228
  vertex -0.071649082 -0.0211758316 0.014904228
  vertex -0.0716887265 -0.0211905241 0.014904228
  endloop
 endfacet

 facet normal 0 0 1
  outer loop
  vertex -0.0719914213 -0.0217195284 0.014904228
  vertex -0.0716887265 -0.0211905241 0.014904228
  vertex -0.0717283636 -0.021209741 0.014904228
  endloop
 endfacet

 facet normal 0 0 1
  outer loop
  vertex -0.0719914213 -0.0217195284 0.014904228
  vertex -0.0717283636 -0.021209741 0.014904228
  vertex -0.0717680007 -0.0212312173 0.014904228
  endloop
 endfacet

 facet normal 0 0 1
  outer loop
  vertex -0.0719914213 -0.0217195284 0.014904228
  vertex -0.0717680007 -0.0212312173 0.014904228
  vertex -0.0718040392 -0.0212572161 0.014904228
  endloop
 endfacet

 facet normal 0 0 1
  outer loop
  vertex -0.0719914213 -0.0217195284 0.014904228
  vertex -0.0718040392 -0.0212572161 0.014904228
  vertex -0.0718364716 -0.0212843437 0.014904228
  endloop
 endfacet

 facet normal 0 0 1
  outer loop
  vertex -0.0719914213 -0.0217195284 0.014904228
  vertex -0.0718364716 -0.0212843437 0.014904228
  vertex -0.0718689039 -0.0213159937 0.014904228
  endloop
 endfacet

 facet normal 0 0 1
  outer loop
  vertex -0.0719914213 -0.0217195284 0.014904228
  vertex -0.0718689039 -0.0213159937 0.014904228
  vertex -0.0718941242 -0.0213499051 0.014904228
  endloop
 endfacet

 facet normal 0 0 1
  outer loop
  vertex -0.0719914213 -0.0217195284 0.014904228
  vertex -0.0718941242 -0.0213499051 0.014904228
  vertex -0.0719193518 -0.0213860758 0.014904228
  endloop
 endfacet

 facet normal 0 0 1
  outer loop
  vertex -0.0719914213 -0.0217195284 0.014904228
  vertex -0.0719193518 -0.0213860758 0.014904228
  vertex -0.0719409734 -0.0214222465 0.014904228
  endloop
 endfacet

 facet normal 0 0 1
  outer loop
  vertex -0.0719914213 -0.0217195284 0.014904228
  vertex -0.0719409734 -0.0214222465 0.014904228
  vertex -0.0719589964 -0.0214618091 0.014904228
  endloop
 endfacet

 facet normal 0 0 1
  outer loop
  vertex -0.0719914213 -0.0217195284 0.014904228
  vertex -0.0719589964 -0.0214618091 0.014904228
  vertex -0.0719734058 -0.0215025023 0.014904228
  endloop
 endfacet

 facet normal 0 0 1
  outer loop
  vertex -0.0719914213 -0.0217195284 0.014904228
  vertex -0.0719734058 -0.0215025023 0.014904228
  vertex -0.0719842166 -0.0215465855 0.014904228
  endloop
 endfacet

 facet normal 0 0 1
  outer loop
  vertex -0.0719914213 -0.0217195284 0.014904228
  vertex -0.0719842166 -0.0215465855 0.014904228
  vertex -0.0719914213 -0.0215895381 0.014904228
  endloop
 endfacet

 facet normal 0 0 1
  outer loop
  vertex -0.0719914213 -0.0217195284 0.014904228
  vertex -0.0719914213 -0.0215895381 0.014904228
  vertex -0.0719950274 -0.0216324925 0.014904228
  endloop
 endfacet

 facet normal 0 0 1
  outer loop
  vertex -0.0719914213 -0.0217195284 0.014904228
  vertex -0.0719950274 -0.0216324925 0.014904228
  vertex -0.0719950274 -0.0216765758 0.014904228
  endloop
 endfacet

 facet normal -0.986212969 0.16548118 0.000145301427
  outer loop
  vertex -0.0719914213 -0.0215895381 0.014904228
  vertex -0.0719842166 -0.0215465855 0.014904228
  vertex -0.0719878227 -0.0215601493 0.00589278806
  endloop
 endfacet

 facet normal -0.975061357 0.221935868 5.58651373e-05
  outer loop
  vertex -0.0719878227 -0.0215601493 0.00589278806
  vertex -0.0719842166 -0.0215465855 0.014904228
  vertex -0.0719770119 -0.0215104148 -0.002996
  endloop
 endfacet

 facet normal -0.97949481 0.201469198 -6.40435173e-05
  outer loop
  vertex -0.0719878227 -0.0215601493 0.00589278806
  vertex -0.0719770119 -0.0215104148 -0.002996
  vertex -0.0719842166 -0.0215454549 -0.002996
  endloop
 endfacet

 facet normal -0.975742161 -0.218923435 -0.000130759116
  outer loop
  vertex -0.0719409734 -0.0219546426 -0.002996
  vertex -0.0719013363 -0.0221366286 0.00589278806
  vertex -0.0719662011 -0.0218529105 0.014904228
  endloop
 endfacet

 facet normal -0.975438893 -0.220270693 -0.000159695439
  outer loop
  vertex -0.0719409734 -0.0219546426 -0.002996
  vertex -0.0717571899 -0.0227684937 -0.002996
  vertex -0.0719013363 -0.0221366286 0.00589278806
  endloop
 endfacet

 facet normal -0.975321829 -0.220788404 -6.90167435e-05
  outer loop
  vertex -0.0719662011 -0.0218529105 0.014904228
  vertex -0.0719013363 -0.0221366286 0.00589278806
  vertex -0.0717355683 -0.0228713565 0.0138143748
  endloop
 endfacet

 facet normal -0.975283325 -0.220958143 9.77597665e-05
  outer loop
  vertex -0.0719662011 -0.0218529105 0.014904228
  vertex -0.0717355683 -0.0228713565 0.0138143748
  vertex -0.0719157457 -0.0220755897 0.014904228
  endloop
 endfacet

 facet normal -0.971220434 0.238182619 9.02412867e-05
  outer loop
  vertex -0.0719842166 -0.0215465855 0.014904228
  vertex -0.0719734058 -0.0215025023 0.014904228
  vertex -0.0719770119 -0.0215104148 -0.002996
  endloop
 endfacet

 facet normal -0.960436344 0.278499663 7.02486577e-05
  outer loop
  vertex -0.0719770119 -0.0215104148 -0.002996
  vertex -0.0719734058 -0.0215025023 0.014904228
  vertex -0.0719662011 -0.0214753728 0.00589278806
  endloop
 endfacet

 facet normal -0.942609727 0.333896726 -0.000169816485
  outer loop
  vertex -0.0719770119 -0.0215104148 -0.002996
  vertex -0.0719662011 -0.0214753728 0.00589278806
  vertex -0.0719697997 -0.0214900672 -0.002996
  endloop
 endfacet

 facet normal -0.975253344 -0.221090138 -9.84368235e-05
  outer loop
  vertex -0.0719013363 -0.0221366286 0.00589278806
  vertex -0.0717571899 -0.0227684937 -0.002996
  vertex -0.0717355683 -0.0228713565 0.0138143748
  endloop
 endfacet

 facet normal -0.923308015 -0.383949846 -0.00920561608
  outer loop
  vertex -0.0717571899 -0.0227684937 -0.002996
  vertex -0.0717355683 -0.0228204913 -0.002996
  vertex -0.0714797154 -0.0238649342 0.014904228
  endloop
 endfacet

 facet normal -0.924779117 -0.380398661 -0.00896528922
  outer loop
  vertex -0.0717571899 -0.0227684937 -0.002996
  vertex -0.0714797154 -0.0238649342 0.014904228
  vertex -0.0715085417 -0.0237948522 0.014904228
  endloop
 endfacet

 facet normal -0.933269262 -0.359096587 -0.00762594258
  outer loop
  vertex -0.0717571899 -0.0227684937 -0.002996
  vertex -0.0715085417 -0.0237948522 0.014904228
  vertex -0.0715337694 -0.0237292927 0.014904228
  endloop
 endfacet

 facet normal -0.961790025 -0.273775309 -0.00269032666
  outer loop
  vertex -0.0717571899 -0.0227684937 -0.002996
  vertex -0.0715337694 -0.0237292927 0.014904228
  vertex -0.0715517923 -0.0236659925 0.014904228
  endloop
 endfacet

 facet normal -0.965390801 -0.260800034 -0.00199844153
  outer loop
  vertex -0.0717571899 -0.0227684937 -0.002996
  vertex -0.0715517923 -0.0236659925 0.014904228
  vertex -0.0715698078 -0.0235993024 0.014904228
  endloop
 endfacet

 facet normal -0.97500509 -0.222182736 -0.000105441708
  outer loop
  vertex -0.0717571899 -0.0227684937 -0.002996
  vertex -0.0715698078 -0.0235993024 0.014904228
  vertex -0.0717355683 -0.0228713565 0.0138143748
  endloop
 endfacet

 facet normal -0.97503829 -0.222036749 -2.87048852e-06
  outer loop
  vertex -0.0717355683 -0.0228713565 0.0138143748
  vertex -0.0715698078 -0.0235993024 0.014904228
  vertex -0.0716743097 -0.0231403802 0.0143733192
  endloop
 endfacet

 facet normal -0.975204051 -0.221307755 0.000366150169
  outer loop
  vertex -0.0717355683 -0.0228713565 0.0138143748
  vertex -0.0716743097 -0.0231403802 0.0143733192
  vertex -0.0719157457 -0.0220755897 0.014904228
  endloop
 endfacet

 facet normal -0.975181758 -0.221405074 0.000571397773
  outer loop
  vertex -0.0719157457 -0.0220755897 0.014904228
  vertex -0.0716743097 -0.0231403802 0.0143733192
  vertex -0.0715698078 -0.0235993024 0.014904228
  endloop
 endfacet

 facet normal -0.94262141 0.333863497 0.000251166639
  outer loop
  vertex -0.0719734058 -0.0215025023 0.014904228
  vertex -0.0719589964 -0.0214618091 0.014904228
  vertex -0.0719662011 -0.0214753728 0.00589278806
  endloop
 endfacet

 facet normal -0.91005981 0.41447708 0.000103789695
  outer loop
  vertex -0.0719662011 -0.0214753728 0.00589278806
  vertex -0.0719589964 -0.0214618091 0.014904228
  vertex -0.0719409734 -0.0214222465 0.014904228
  endloop
 endfacet

 facet normal -0.910076737 0.414439768 0.000104057093
  outer loop
  vertex -0.0719662011 -0.0214753728 0.00589278806
  vertex -0.0719409734 -0.0214222465 0.014904228
  vertex -0.0719481856 -0.0214358103 0.00589278806
  endloop
 endfacet

 facet normal -0.910076737 0.414439768 -0.000105492916
  outer loop
  vertex -0.0719662011 -0.0214753728 0.00589278806
  vertex -0.0719481856 -0.0214358103 0.00589278806
  vertex -0.0719409734 -0.0214222465 -0.002996
  endloop
 endfacet

 facet normal -0.914371192 0.404877037 -0.000174834247
  outer loop
  vertex -0.0719662011 -0.0214753728 0.00589278806
  vertex -0.0719409734 -0.0214222465 -0.002996
  vertex -0.0719589964 -0.0214629397 -0.002996
  endloop
 endfacet

 facet normal -0.928975046 0.370142162 -0.000235262007
  outer loop
  vertex -0.0719662011 -0.0214753728 0.00589278806
  vertex -0.0719589964 -0.0214629397 -0.002996
  vertex -0.0719697997 -0.0214900672 -0.002996
  endloop
 endfacet

 facet normal -0.905365884 -0.424467742 -0.0118262088
  outer loop
  vertex -0.0717355683 -0.0228204913 -0.002996
  vertex -0.0717175528 -0.0228589233 -0.002996
  vertex -0.0714797154 -0.0238649342 0.014904228
  endloop
 endfacet

 facet normal -0.893133402 -0.449592203 -0.0134007614
  outer loop
  vertex -0.0714797154 -0.0238649342 0.014904228
  vertex -0.0717175528 -0.0228589233 -0.002996
  vertex -0.071447283 -0.023929365 0.014904228
  endloop
 endfacet

 facet normal -0.883078694 0.469225138 0
  outer loop
  vertex -0.0719481856 -0.0214358103 0.00589278806
  vertex -0.0719409734 -0.0214222465 0.014904228
  vertex -0.0719409734 -0.0214222465 -0.002996
  endloop
 endfacet

 facet normal -0.865158916 0.501497924 0
  outer loop
  vertex -0.0719409734 -0.0214222465 -0.002996
  vertex -0.0719409734 -0.0214222465 0.014904228
  vertex -0.0719193518 -0.0213849451 0.00589278806
  endloop
 endfacet

 facet normal -0.865158916 0.501497924 0
  outer loop
  vertex -0.0719409734 -0.0214222465 -0.002996
  vertex -0.0719193518 -0.0213849451 0.00589278806
  vertex -0.0719121471 -0.021372512 -0.002996
  endloop
 endfacet

 facet normal -0.890713871 -0.454357356 -0.0137222512
  outer loop
  vertex -0.0717175528 -0.0228589233 -0.002996
  vertex -0.071703136 -0.0228871815 -0.002996
  vertex -0.071447283 -0.023929365 0.014904228
  endloop
 endfacet

 facet normal -0.882995009 -0.469152391 -0.0146939708
  outer loop
  vertex -0.071447283 -0.023929365 0.014904228
  vertex -0.071703136 -0.0228871815 -0.002996
  vertex -0.0714148507 -0.0239904039 0.014904228
  endloop
 endfacet

 facet normal -0.858334005 0.513091326 6.43642561e-05
  outer loop
  vertex -0.0719409734 -0.0214222465 0.014904228
  vertex -0.0719193518 -0.0213860758 0.014904228
  vertex -0.0719193518 -0.0213849451 0.00589278806
  endloop
 endfacet

 facet normal -0.854741096 0.519054472 3.30053772e-05
  outer loop
  vertex -0.0719121471 -0.021372512 -0.002996
  vertex -0.0719193518 -0.0213849451 0.00589278806
  vertex -0.0719049349 -0.0213612076 0.00589278806
  endloop
 endfacet

 facet normal -0.79651463 0.604619384 -0.000123014644
  outer loop
  vertex -0.0719121471 -0.021372512 -0.002996
  vertex -0.0719049349 -0.0213612076 0.00589278806
  vertex -0.0718941242 -0.0213487744 -0.002996
  endloop
 endfacet

 facet normal -0.825540483 -0.563924491 -0.0217329692
  outer loop
  vertex -0.071703136 -0.0228871815 -0.002996
  vertex -0.0716815144 -0.0229188316 -0.002996
  vertex -0.0713319704 -0.0241203941 0.014904228
  endloop
 endfacet

 facet normal -0.83379674 -0.551682591 -0.0207183845
  outer loop
  vertex -0.071703136 -0.0228871815 -0.002996
  vertex -0.0713319704 -0.0241203941 0.014904228
  vertex -0.0713716075 -0.024060484 0.014904228
  endloop
 endfacet

 facet normal -0.848317266 -0.52914834 -0.0189724024
  outer loop
  vertex -0.071703136 -0.0228871815 -0.002996
  vertex -0.0713716075 -0.024060484 0.014904228
  vertex -0.0714040399 -0.0240084883 0.014904228
  endloop
 endfacet

 facet normal -0.858204246 -0.512999892 -0.0177956223
  outer loop
  vertex -0.071703136 -0.0228871815 -0.002996
  vertex -0.0714040399 -0.0240084883 0.014904228
  vertex -0.0714148507 -0.0239904039 0.014904228
  endloop
 endfacet

 facet normal -0.820234179 0.572027802 0.000266492309
  outer loop
  vertex -0.0719193518 -0.0213860758 0.014904228
  vertex -0.0718941242 -0.0213499051 0.014904228
  vertex -0.0719049349 -0.0213612076 0.00589278806
  endloop
 endfacet

 facet normal -0.854741096 0.519054472 6.511229e-05
  outer loop
  vertex -0.0719193518 -0.0213860758 0.014904228
  vertex -0.0719049349 -0.0213612076 0.00589278806
  vertex -0.0719193518 -0.0213849451 0.00589278806
  endloop
 endfacet

 facet normal -0.802368402 0.596829176 0.000213948137
  outer loop
  vertex -0.0719049349 -0.0213612076 0.00589278806
  vertex -0.0718941242 -0.0213499051 0.014904228
  vertex -0.0718689039 -0.0213159937 0.014904228
  endloop
 endfacet

 facet normal -0.782020271 0.623253047 0
  outer loop
  vertex -0.0719049349 -0.0213612076 0.00589278806
  vertex -0.0718689039 -0.0213159937 0.014904228
  vertex -0.0718689039 -0.0213159937 0.00589278806
  endloop
 endfacet

 facet normal -0.782020271 0.623253047 -7.93207364e-05
  outer loop
  vertex -0.0719049349 -0.0213612076 0.00589278806
  vertex -0.0718689039 -0.0213159937 0.00589278806
  vertex -0.0718941242 -0.0213487744 -0.002996
  endloop
 endfacet

 facet normal -0.761904657 0.647689342 -0.000226520366
  outer loop
  vertex -0.0718941242 -0.0213487744 -0.002996
  vertex -0.0718689039 -0.0213159937 0.00589278806
  vertex -0.0718652979 -0.0213148631 -0.002996
  endloop
 endfacet

 facet normal -0.767289162 -0.640671849 -0.0284084436
  outer loop
  vertex -0.0716815144 -0.0229188316 -0.002996
  vertex -0.0716418773 -0.0229663067 -0.002996
  vertex -0.071241878 -0.02423908 0.014904228
  endloop
 endfacet

 facet normal -0.78172332 -0.623051226 -0.0267543159
  outer loop
  vertex -0.0716815144 -0.0229188316 -0.002996
  vertex -0.071241878 -0.02423908 0.014904228
  vertex -0.0712887272 -0.0241803024 0.014904228
  endloop
 endfacet

 facet normal -0.810617149 -0.585106969 -0.0234462675
  outer loop
  vertex -0.0716815144 -0.0229188316 -0.002996
  vertex -0.0712887272 -0.0241803024 0.014904228
  vertex -0.0713319704 -0.0241203941 0.014904228
  endloop
 endfacet

 facet normal -0.698409498 0.715698361 2.99007879e-05
  outer loop
  vertex -0.0718689039 -0.0213159937 0.014904228
  vertex -0.0718364716 -0.0212843437 0.014904228
  vertex -0.0718472824 -0.0212945174 0.00589278806
  endloop
 endfacet

 facet normal -0.704710126 0.709495366 0
  outer loop
  vertex -0.0718689039 -0.0213159937 0.014904228
  vertex -0.0718472824 -0.0212945174 0.00589278806
  vertex -0.0718689039 -0.0213159937 0.00589278806
  endloop
 endfacet

 facet normal -0.704710186 0.709495306 -0.000195472472
  outer loop
  vertex -0.0718689039 -0.0213159937 0.00589278806
  vertex -0.0718472824 -0.0212945174 0.00589278806
  vertex -0.0718652979 -0.0213148631 -0.002996
  endloop
 endfacet

 facet normal -0.702032387 0.71214509 -0.000206965633
  outer loop
  vertex -0.0718652979 -0.0213148631 -0.002996
  vertex -0.0718472824 -0.0212945174 0.00589278806
  vertex -0.0718400702 -0.0212899968 -0.002996
  endloop
 endfacet

 facet normal -0.72658056 -0.686304986 -0.0326548629
  outer loop
  vertex -0.0716418773 -0.0229663067 -0.002996
  vertex -0.071613051 -0.0229968242 -0.002996
  vertex -0.0711950362 -0.0242910758 0.014904228
  endloop
 endfacet

 facet normal -0.738907695 -0.673076153 -0.0313680992
  outer loop
  vertex -0.0716418773 -0.0229663067 -0.002996
  vertex -0.0711950362 -0.0242910758 0.014904228
  vertex -0.0712094456 -0.0242752526 0.014904228
  endloop
 endfacet

 facet normal -0.744198918 -0.667246878 -0.0308140051
  outer loop
  vertex -0.0716418773 -0.0229663067 -0.002996
  vertex -0.0712094456 -0.0242752526 0.014904228
  vertex -0.071241878 -0.02423908 0.014904228
  endloop
 endfacet

 facet normal -0.641613126 0.767028451 9.6251737e-05
  outer loop
  vertex -0.0718364716 -0.0212843437 0.014904228
  vertex -0.0718040392 -0.0212572161 0.014904228
  vertex -0.07181485 -0.0212651286 0.00589278806
  endloop
 endfacet

 facet normal -0.664324999 0.747443855 0
  outer loop
  vertex -0.0718364716 -0.0212843437 0.014904228
  vertex -0.07181485 -0.0212651286 0.00589278806
  vertex -0.0718364716 -0.0212843437 0.00589278806
  endloop
 endfacet

 facet normal -0.685304105 0.72825712 0
  outer loop
  vertex -0.0718364716 -0.0212843437 0.014904228
  vertex -0.0718364716 -0.0212843437 0.00589278806
  vertex -0.0718472824 -0.0212945174 0.00589278806
  endloop
 endfacet

 facet normal -0.685304105 0.72825712 -0.000185205485
  outer loop
  vertex -0.0718472824 -0.0212945174 0.00589278806
  vertex -0.0718364716 -0.0212843437 0.00589278806
  vertex -0.0718400702 -0.0212899968 -0.002996
  endloop
 endfacet

 facet normal -0.664324999 0.747443855 -0.00020591011
  outer loop
  vertex -0.0718400702 -0.0212899968 -0.002996
  vertex -0.0718364716 -0.0212843437 0.00589278806
  vertex -0.07181485 -0.0212651286 0.00589278806
  endloop
 endfacet

 facet normal -0.6500687 0.759875417 -0.000281144108
  outer loop
  vertex -0.0718400702 -0.0212899968 -0.002996
  vertex -0.07181485 -0.0212651286 0.00589278806
  vertex -0.0718004331 -0.0212560855 -0.002996
  endloop
 endfacet

 facet normal -0.616494179 -0.786177993 -0.0431171656
  outer loop
  vertex -0.071613051 -0.0229968242 -0.002996
  vertex -0.0715770125 -0.0230250843 -0.002996
  vertex -0.0710472912 -0.0244221967 0.014904228
  endloop
 endfacet

 facet normal -0.616498649 -0.786174536 -0.0431167558
  outer loop
  vertex -0.071613051 -0.0229968242 -0.002996
  vertex -0.0710472912 -0.0244221967 0.014904228
  vertex -0.0710689127 -0.024405241 0.014904228
  endloop
 endfacet

 facet normal -0.627250433 -0.777677715 -0.0421213731
  outer loop
  vertex -0.071613051 -0.0229968242 -0.002996
  vertex -0.0710689127 -0.024405241 0.014904228
  vertex -0.071094133 -0.0243848953 0.014904228
  endloop
 endfacet

 facet normal -0.644684017 -0.763375282 -0.0405069105
  outer loop
  vertex -0.071613051 -0.0229968242 -0.002996
  vertex -0.071094133 -0.0243848953 0.014904228
  vertex -0.0711409822 -0.0243453328 0.014904228
  endloop
 endfacet

 facet normal -0.708013713 -0.705357194 -0.034465991
  outer loop
  vertex -0.071613051 -0.0229968242 -0.002996
  vertex -0.0711409822 -0.0243453328 0.014904228
  vertex -0.0711950362 -0.0242910758 0.014904228
  endloop
 endfacet

 facet normal -0.59060812 0.806958616 0
  outer loop
  vertex -0.0718040392 -0.0212572161 0.014904228
  vertex -0.0718040392 -0.0212572161 0.00589278806
  vertex -0.07181485 -0.0212651286 0.00589278806
  endloop
 endfacet

 facet normal -0.585074782 0.810979366 0
  outer loop
  vertex -0.0718040392 -0.0212572161 0.014904228
  vertex -0.0717680007 -0.0212312173 0.014904228
  vertex -0.0717680007 -0.0212312173 -0.002996
  endloop
 endfacet

 facet normal -0.585074782 0.810979366 0
  outer loop
  vertex -0.0718040392 -0.0212572161 0.014904228
  vertex -0.0717680007 -0.0212312173 -0.002996
  vertex -0.0718040392 -0.0212572161 0.00589278806
  endloop
 endfacet

 facet normal -0.59060812 0.806958616 -3.41935156e-05
  outer loop
  vertex -0.07181485 -0.0212651286 0.00589278806
  vertex -0.0718040392 -0.0212572161 0.00589278806
  vertex -0.0717680007 -0.0212312173 -0.002996
  endloop
 endfacet

 facet normal -0.608472228 0.793575168 -0.000179403971
  outer loop
  vertex -0.07181485 -0.0212651286 0.00589278806
  vertex -0.0717680007 -0.0212312173 -0.002996
  vertex -0.0718004331 -0.0212560855 -0.002996
  endloop
 endfacet

 facet normal -0.582076848 -0.811823726 -0.0461373404
  outer loop
  vertex -0.0715770125 -0.0230250843 -0.002996
  vertex -0.0715517923 -0.0230431687 -0.002996
  vertex -0.0710472912 -0.0244221967 0.014904228
  endloop
 endfacet

 facet normal -0.476375461 0.879241943 0.000110295681
  outer loop
  vertex -0.0717680007 -0.0212312173 0.014904228
  vertex -0.0717283636 -0.021209741 0.014904228
  vertex -0.0717283636 -0.0212086104 0.00589278806
  endloop
 endfacet

 facet normal -0.480930984 0.876758516 8.40274515e-05
  outer loop
  vertex -0.0717680007 -0.0212312173 0.014904228
  vertex -0.0717283636 -0.0212086104 0.00589278806
  vertex -0.0717175528 -0.0212018285 -0.002996
  endloop
 endfacet

 facet normal -0.503358126 0.864077926 0
  outer loop
  vertex -0.0717680007 -0.0212312173 0.014904228
  vertex -0.0717175528 -0.0212018285 -0.002996
  vertex -0.0717680007 -0.0212312173 -0.002996
  endloop
 endfacet

 facet normal -0.530775189 -0.8460235 -0.0502179675
  outer loop
  vertex -0.0715517923 -0.0230431687 -0.002996
  vertex -0.0715409815 -0.0230499525 -0.002996
  vertex -0.0710472912 -0.0244221967 0.014904228
  endloop
 endfacet

 facet normal -0.511253715 -0.857875526 -0.0516649596
  outer loop
  vertex -0.0710472912 -0.0244221967 0.014904228
  vertex -0.0715409815 -0.0230499525 -0.002996
  vertex -0.0715049431 -0.0230714288 -0.002996
  endloop
 endfacet

 facet normal -0.475686431 -0.877950311 -0.0540891662
  outer loop
  vertex -0.0710472912 -0.0244221967 0.014904228
  vertex -0.0715049431 -0.0230714288 -0.002996
  vertex -0.0710076466 -0.024443673 0.014904228
  endloop
 endfacet

 facet normal -0.436230987 0.899834752 0.000134292262
  outer loop
  vertex -0.0717283636 -0.021209741 0.014904228
  vertex -0.0716887265 -0.0211905241 0.014904228
  vertex -0.0717175528 -0.0212018285 -0.002996
  endloop
 endfacet

 facet normal -0.464272499 0.885692358 0.000111104833
  outer loop
  vertex -0.0717283636 -0.021209741 0.014904228
  vertex -0.0717175528 -0.0212018285 -0.002996
  vertex -0.0717283636 -0.0212086104 0.00589278806
  endloop
 endfacet

 facet normal -0.37612924 0.926567197 2.06199293e-05
  outer loop
  vertex -0.0717175528 -0.0212018285 -0.002996
  vertex -0.0716887265 -0.0211905241 0.014904228
  vertex -0.0716562942 -0.0211769603 -0.002996
  endloop
 endfacet

 facet normal -0.414402485 -0.908236444 -0.0581134781
  outer loop
  vertex -0.0710076466 -0.024443673 0.014904228
  vertex -0.0715049431 -0.0230714288 -0.002996
  vertex -0.071465306 -0.0230895132 -0.002996
  endloop
 endfacet

 facet normal -0.385133922 -0.920919836 -0.059821289
  outer loop
  vertex -0.0710076466 -0.024443673 0.014904228
  vertex -0.071465306 -0.0230895132 -0.002996
  vertex -0.0709968358 -0.0244481955 0.014904228
  endloop
 endfacet

 facet normal -0.347574085 0.937652528 0.000117622942
  outer loop
  vertex -0.0716887265 -0.0211905241 0.014904228
  vertex -0.071649082 -0.0211758316 0.014904228
  vertex -0.071649082 -0.0211747009 0.00589278806
  endloop
 endfacet

 facet normal -0.360008806 0.932948947 5.46642259e-05
  outer loop
  vertex -0.0716887265 -0.0211905241 0.014904228
  vertex -0.071649082 -0.0211747009 0.00589278806
  vertex -0.0716562942 -0.0211769603 -0.002996
  endloop
 endfacet

 facet normal -0.299248695 0.954175174 0
  outer loop
  vertex -0.0716562942 -0.0211769603 -0.002996
  vertex -0.071649082 -0.0211747009 0.00589278806
  vertex -0.071649082 -0.0211747009 -0.002996
  endloop
 endfacet

 facet normal -0.364342809 -0.929265022 -0.0609988347
  outer loop
  vertex -0.0709968358 -0.0244481955 0.014904228
  vertex -0.071465306 -0.0230895132 -0.002996
  vertex -0.0714364722 -0.0231008176 -0.002996
  endloop
 endfacet

 facet normal -0.343008697 -0.937275589 -0.0621257685
  outer loop
  vertex -0.0709968358 -0.0244481955 0.014904228
  vertex -0.0714364722 -0.0231008176 -0.002996
  vertex -0.0709535927 -0.0244640205 0.014904228
  endloop
 endfacet

 facet normal -0.276351154 0.961056828 0.000120558871
  outer loop
  vertex -0.071649082 -0.0211758316 0.014904228
  vertex -0.0716058388 -0.0211633965 0.014904228
  vertex -0.071649082 -0.0211747009 0.00589278806
  endloop
 endfacet

 facet normal -0.252909064 0.967490137 0
  outer loop
  vertex -0.071649082 -0.0211747009 0.00589278806
  vertex -0.0716058388 -0.0211633965 0.014904228
  vertex -0.0716058388 -0.0211633965 0.00589278806
  endloop
 endfacet

 facet normal -0.252909064 0.967490137 0
  outer loop
  vertex -0.071649082 -0.0211747009 0.00589278806
  vertex -0.0716058388 -0.0211633965 0.00589278806
  vertex -0.071649082 -0.0211747009 -0.002996
  endloop
 endfacet

 facet normal -0.23929885 0.970946014 -7.06057472e-05
  outer loop
  vertex -0.071649082 -0.0211747009 -0.002996
  vertex -0.0716058388 -0.0211633965 0.00589278806
  vertex -0.0715986341 -0.0211622659 -0.002996
  endloop
 endfacet

 facet normal -0.298685312 -0.952172518 -0.0644559264
  outer loop
  vertex -0.0709535927 -0.0244640205 0.014904228
  vertex -0.0714364722 -0.0231008176 -0.002996
  vertex -0.070949994 -0.0244651511 0.014904228
  endloop
 endfacet

 facet normal -0.261756986 -0.962855697 -0.066273801
  outer loop
  vertex -0.0714364722 -0.0231008176 -0.002996
  vertex -0.0713824183 -0.023115512 -0.002996
  vertex -0.070949994 -0.0244651511 0.014904228
  endloop
 endfacet

 facet normal -0.220497966 0.975387335 0.000310142786
  outer loop
  vertex -0.0716058388 -0.0211633965 0.014904228
  vertex -0.0351845361 -0.0129299248 0.014904228
  vertex -0.0351845361 -0.0129287941 0.0113490634
  endloop
 endfacet

 facet normal -0.220526725 0.975381017 9.87167368e-07
  outer loop
  vertex -0.0716058388 -0.0211633965 0.014904228
  vertex -0.0351845361 -0.0129287941 0.0113490634
  vertex -0.037404336 -0.0134306699 0.00589278806
  endloop
 endfacet

 facet normal -0.220526963 0.975380898 0
  outer loop
  vertex -0.0716058388 -0.0211633965 0.014904228
  vertex -0.037404336 -0.0134306699 0.00589278806
  vertex -0.0716058388 -0.0211633965 0.00589278806
  endloop
 endfacet

 facet normal -0.220526963 0.975380898 -5.48210446e-05
  outer loop
  vertex -0.0716058388 -0.0211633965 0.00589278806
  vertex -0.037404336 -0.0134306699 0.00589278806
  vertex -0.0715986341 -0.0211622659 -0.002996
  endloop
 endfacet

 facet normal -0.220526397 0.975381017 -5.69907243e-05
  outer loop
  vertex -0.0715986341 -0.0211622659 -0.002996
  vertex -0.037404336 -0.0134306699 0.00589278806
  vertex -0.0483159535 -0.015898224 -0.002996
  endloop
 endfacet

 facet normal -0.234012693 -0.969889343 -0.0674743578
  outer loop
  vertex -0.070949994 -0.0244651511 0.014904228
  vertex -0.0713824183 -0.023115512 -0.002996
  vertex -0.0709031448 -0.0244764537 0.014904228
  endloop
 endfacet

 facet normal -0.204210326 -0.976508081 -0.0687755346
  outer loop
  vertex -0.0713824183 -0.023115512 -0.002996
  vertex -0.0713499859 -0.0231222939 -0.002996
  vertex -0.0709031448 -0.0244764537 0.014904228
  endloop
 endfacet

 facet normal 1 0 0
  outer loop
  vertex -0.0351845361 -0.0129299248 0.014904228
  vertex -0.0351845361 -0.0151194129 0.014904228
  vertex -0.0351845361 -0.0151035879 0.00589278806
  endloop
 endfacet

 facet normal 1 0 0
  outer loop
  vertex -0.0351845361 -0.0129299248 0.014904228
  vertex -0.0351845361 -0.0151035879 0.00589278806
  vertex -0.0351845361 -0.0129287941 0.00589278806
  endloop
 endfacet

 facet normal 1 0 0
  outer loop
  vertex -0.0351845361 -0.0129299248 0.014904228
  vertex -0.0351845361 -0.0129287941 0.00589278806
  vertex -0.0351845361 -0.0129287941 0.0113490634
  endloop
 endfacet

 facet normal -0.2205244 0.975381494 0
  outer loop
  vertex -0.0351845361 -0.0129287941 0.0113490634
  vertex -0.0351845361 -0.0129287941 0.00589278806
  vertex -0.037404336 -0.0134306699 0.00589278806
  endloop
 endfacet

 facet normal -0.2205244 0.975381494 -5.95963429e-05
  outer loop
  vertex -0.037404336 -0.0134306699 0.00589278806
  vertex -0.0351845361 -0.0129287941 0.00589278806
  vertex -0.0483159535 -0.015898224 -0.002996
  endloop
 endfacet

 facet normal -0.220427975 0.975403368 -0.000209333171
  outer loop
  vertex -0.0483159535 -0.015898224 -0.002996
  vertex -0.0351845361 -0.0129287941 0.00589278806
  vertex -0.0352133662 -0.0129367057 -0.000616544974
  endloop
 endfacet

 facet normal -0.220377967 0.975414574 -0.0004987024
  outer loop
  vertex -0.0483159535 -0.015898224 -0.002996
  vertex -0.0352133662 -0.0129367057 -0.000616544974
  vertex -0.0410115086 -0.0142479129 -0.002996
  endloop
 endfacet

 facet normal -0.0779661089 -0.994259953 -0.0732698962
  outer loop
  vertex -0.0709031448 -0.0244764537 0.014904228
  vertex -0.0713499859 -0.0231222939 -0.002996
  vertex -0.0712923333 -0.0231268145 -0.002996
  endloop
 endfacet

 facet normal 0 -0.997169614 -0.0751844272
  outer loop
  vertex -0.0709031448 -0.0244764537 0.014904228
  vertex -0.0712923333 -0.0231268145 -0.002996
  vertex -0.0712526888 -0.0231268145 -0.002996
  endloop
 endfacet

 facet normal 0.0934217572 -0.992670238 -0.0766694844
  outer loop
  vertex -0.0709031448 -0.0244764537 0.014904228
  vertex -0.0712526888 -0.0231268145 -0.002996
  vertex -0.0708671063 -0.0244730618 0.014904228
  endloop
 endfacet

 facet normal 0.260620862 -0.960246682 0.100015506
  outer loop
  vertex -0.0351845361 -0.0151194129 0.014904228
  vertex -0.0635338426 -0.0228137076 0.014904228
  vertex -0.0413574539 -0.0184878577 -0.00135070656
  endloop
 endfacet

 facet normal 0.337398887 -0.939013064 0.0664583966
  outer loop
  vertex -0.0351845361 -0.0151194129 0.014904228
  vertex -0.0413574539 -0.0184878577 -0.00135070656
  vertex -0.0352133662 -0.0160779506 0.0015070918
  endloop
 endfacet

 facet normal 0.999548078 -0.0300628841 0
  outer loop
  vertex -0.0351845361 -0.0151194129 0.014904228
  vertex -0.0352133662 -0.0160779506 0.0015070918
  vertex -0.0352133662 -0.0160779506 -0.0008933887
  endloop
 endfacet

 facet normal 0.999573112 -0.0292179994 -5.13099731e-05
  outer loop
  vertex -0.0351845361 -0.0151194129 0.014904228
  vertex -0.0352133662 -0.0160779506 -0.0008933887
  vertex -0.0351845361 -0.0151035879 0.00589278806
  endloop
 endfacet

 facet normal 0.99999094 0 -0.00424822001
  outer loop
  vertex -0.0351845361 -0.0129287941 0.00589278806
  vertex -0.0351845361 -0.0151035879 0.00589278806
  vertex -0.0352133662 -0.0160779506 -0.0008933887
  endloop
 endfacet

 facet normal 0.999990165 0.000390342087 -0.00442935666
  outer loop
  vertex -0.0351845361 -0.0129287941 0.00589278806
  vertex -0.0352133662 -0.0160779506 -0.0008933887
  vertex -0.0352133662 -0.0145271085 -0.000756718975
  endloop
 endfacet

 facet normal 0.999990165 0.000390393194 -0.00442936923
  outer loop
  vertex -0.0351845361 -0.0129287941 0.00589278806
  vertex -0.0352133662 -0.0145271085 -0.000756718975
  vertex -0.0352133662 -0.0129367057 -0.000616544974
  endloop
 endfacet

 facet normal 0.365664333 0.0817168504 -0.927152634
  outer loop
  vertex -0.0352133662 -0.0129367057 -0.000616544974
  vertex -0.0352133662 -0.0145271085 -0.000756718975
  vertex -0.0357286744 -0.0160779506 -0.0010966413
  endloop
 endfacet

 facet normal 0.362392962 0.0824399143 -0.928372264
  outer loop
  vertex -0.0352133662 -0.0129367057 -0.000616544974
  vertex -0.0357286744 -0.0160779506 -0.0010966413
  vertex -0.0410007015 -0.0142919971 -0.002996
  endloop
 endfacet

 facet normal 0.360970259 0.0885075107 -0.928367972
  outer loop
  vertex -0.0352133662 -0.0129367057 -0.000616544974
  vertex -0.0410007015 -0.0142919971 -0.002996
  vertex -0.0410115086 -0.0142479129 -0.002996
  endloop
 endfacet

 facet normal 0.103682064 -0.991639972 -0.0768130124
  outer loop
  vertex -0.0708671063 -0.0244730618 0.014904228
  vertex -0.0712526888 -0.0231268145 -0.002996
  vertex -0.0712094456 -0.0231222939 -0.002996
  endloop
 endfacet

 facet normal 0.152950749 -0.985208273 -0.0772699267
  outer loop
  vertex -0.0708671063 -0.0244730618 0.014904228
  vertex -0.0712094456 -0.0231222939 -0.002996
  vertex -0.0413574539 -0.0184878577 -0.002996
  endloop
 endfacet

 facet normal 0.15445061 -0.985166192 -0.0747832432
  outer loop
  vertex -0.0708671063 -0.0244730618 0.014904228
  vertex -0.0413574539 -0.0184878577 -0.002996
  vertex -0.0708599016 -0.024471933 0.014904228
  endloop
 endfacet

 facet normal 0.220620081 -0.974469841 0.0416577682
  outer loop
  vertex -0.0635338426 -0.0228137076 0.014904228
  vertex -0.0692455024 -0.0241068285 0.014904228
  vertex -0.0413574539 -0.0184878577 -0.00135070656
  endloop
 endfacet

 facet normal 0.220395863 -0.974537849 0.0412496291
  outer loop
  vertex -0.0413574539 -0.0184878577 -0.00135070656
  vertex -0.0692455024 -0.0241068285 0.014904228
  vertex -0.0708599016 -0.024471933 0.014904228
  endloop
 endfacet

 facet normal 0.198785231 -0.980043054 0
  outer loop
  vertex -0.0413574539 -0.0184878577 -0.00135070656
  vertex -0.0708599016 -0.024471933 0.014904228
  vertex -0.0413574539 -0.0184878577 -0.002996
  endloop
 endfacet

 facet normal 0.365147918 -0.930949569 0
  outer loop
  vertex -0.0413574539 -0.0184878577 -0.00135070656
  vertex -0.0413574539 -0.0184878577 -0.002996
  vertex -0.0352133662 -0.0160779506 -0.0008933887
  endloop
 endfacet

 facet normal 0.365147918 -0.930949569 0
  outer loop
  vertex -0.0413574539 -0.0184878577 -0.00135070656
  vertex -0.0352133662 -0.0160779506 -0.0008933887
  vertex -0.0352133662 -0.0160779506 0.0015070918
  endloop
 endfacet

 facet normal 0.36569193 0.0817054957 -0.927142739
  outer loop
  vertex -0.0352133662 -0.0160779506 -0.0008933887
  vertex -0.0357286744 -0.0160779506 -0.0010966413
  vertex -0.0352133662 -0.0145271085 -0.000756718975
  endloop
 endfacet

 facet normal 0.44811362 -0.490212291 -0.747586906
  outer loop
  vertex -0.0352133662 -0.0160779506 -0.0008933887
  vertex -0.0413574539 -0.0184878577 -0.002996
  vertex -0.0391953103 -0.0171981286 -0.00254569063
  endloop
 endfacet

 facet normal 0.366076946 0.0676982254 -0.928118885
  outer loop
  vertex -0.0352133662 -0.0160779506 -0.0008933887
  vertex -0.0391953103 -0.0171981286 -0.00254569063
  vertex -0.0357286744 -0.0160779506 -0.0010966413
  endloop
 endfacet

 facet normal 0.365589201 0.0693031773 -0.928192616
  outer loop
  vertex -0.0357286744 -0.0160779506 -0.0010966413
  vertex -0.0391953103 -0.0171981286 -0.00254569063
  vertex -0.0403088145 -0.0173552465 -0.002996
  endloop
 endfacet

 facet normal 0.362224698 0.0818145797 -0.928493202
  outer loop
  vertex -0.0357286744 -0.0160779506 -0.0010966413
  vertex -0.0403088145 -0.0173552465 -0.002996
  vertex -0.0410007015 -0.0142919971 -0.002996
  endloop
 endfacet

 facet normal 0.39288348 -0.363755763 -0.844585299
  outer loop
  vertex -0.0413574539 -0.0184878577 -0.002996
  vertex -0.0403088145 -0.0173552465 -0.002996
  vertex -0.0391953103 -0.0171981286 -0.00254569063
  endloop
 endfacet

endsolid AssimpScene
