solid AssimpScene
 facet normal 0 0 -1
  outer loop
  vertex -0.00615482358 -0.0202876497 -0.00729685696
  vertex -0.00615482358 -0.0193726346 -0.00729685696
  vertex 0.00862987619 -0.0193726346 -0.00729685696
  endloop
 endfacet

 facet normal 0 0 -1
  outer loop
  vertex -0.00615482358 -0.0202876497 -0.00729685696
  vertex 0.00862987619 -0.0193726346 -0.00729685696
  vertex 0.00775228394 -0.0202519521 -0.00729685696
  endloop
 endfacet

 facet normal 0 0 -1
  outer loop
  vertex -0.00615482358 -0.0202876497 -0.00729685696
  vertex 0.00775228394 -0.0202519521 -0.00729685696
  vertex 0.00744575681 -0.0205042064 -0.00729685696
  endloop
 endfacet

 facet normal 0 0 -1
  outer loop
  vertex -0.00615482358 -0.0202876497 -0.00729685696
  vertex 0.00744575681 -0.0205042064 -0.00729685696
  vertex 0.00743735908 -0.0205077771 -0.00729685696
  endloop
 endfacet

 facet normal 0 0 -1
  outer loop
  vertex -0.00615482358 -0.0202876497 -0.00729685696
  vertex 0.00743735908 -0.0205077771 -0.00729685696
  vertex 0.00687889103 -0.0207088664 -0.00729685696
  endloop
 endfacet

 facet normal 0 0 -1
  outer loop
  vertex -0.00615482358 -0.0202876497 -0.00729685696
  vertex 0.00687889103 -0.0207088664 -0.00729685696
  vertex 0.00624904037 -0.020720765 -0.00729685696
  endloop
 endfacet

 facet normal 0 0 -1
  outer loop
  vertex -0.00615482358 -0.0202876497 -0.00729685696
  vertex 0.00624904037 -0.020720765 -0.00729685696
  vertex -0.00570133096 -0.020720765 -0.00729685696
  endloop
 endfacet

 facet normal -0.0119418018 -0.0125036491 -0.999850512
  outer loop
  vertex -0.00615482358 -0.0202876497 -0.00729685696
  vertex -0.00570133096 -0.020720765 -0.00729685696
  vertex -0.00615482358 -0.020720765 -0.00729144085
  endloop
 endfacet

 facet normal -0.0483585857 -0.0124899093 -0.998751879
  outer loop
  vertex -0.00615482358 -0.0202876497 -0.00729685696
  vertex -0.00615482358 -0.020720765 -0.00729144085
  vertex -0.0230138358 -0.0310227089 -0.00634631282
  endloop
 endfacet

 facet normal -0.0502666235 -0.00948799588 -0.998690784
  outer loop
  vertex -0.00615482358 -0.0202876497 -0.00729685696
  vertex -0.0230138358 -0.0310227089 -0.00634631282
  vertex -0.0230222326 -0.0306931119 -0.00634902157
  endloop
 endfacet

 facet normal -0.056104809 0 -0.998424947
  outer loop
  vertex -0.00615482358 -0.0202876497 -0.00729685696
  vertex -0.0230222326 -0.0306931119 -0.00634902157
  vertex -0.0230222326 -0.0218951721 -0.00634902157
  endloop
 endfacet

 facet normal -0.056104809 0 -0.998424947
  outer loop
  vertex -0.00615482358 -0.0202876497 -0.00729685696
  vertex -0.0230222326 -0.0218951721 -0.00634902157
  vertex -0.00615482358 -0.0193726346 -0.00729685696
  endloop
 endfacet

 facet normal -0.155417472 0.971034527 -0.181486651
  outer loop
  vertex -0.00615482358 -0.0193726346 -0.00729685696
  vertex -0.0230222326 -0.0218951721 -0.00634902157
  vertex -0.0235932972 -0.0193773955 0.00761124538
  endloop
 endfacet

 facet normal -0.000272920646 0.99999994 0
  outer loop
  vertex -0.00615482358 -0.0193726346 -0.00729685696
  vertex -0.0235932972 -0.0193773955 0.00761124538
  vertex -0.0235932972 -0.0193773955 0.0140917329
  endloop
 endfacet

 facet normal -0.000272920646 0.99999994 0
  outer loop
  vertex -0.00615482358 -0.0193726346 -0.00729685696
  vertex -0.0235932972 -0.0193773955 0.0140917329
  vertex -0.00615482358 -0.0193726346 0.00398780452
  endloop
 endfacet

 facet normal 0 1 0
  outer loop
  vertex -0.00615482358 -0.0193726346 -0.00729685696
  vertex -0.00615482358 -0.0193726346 0.00398780452
  vertex 0.0105446232 -0.0193726346 0.00730252126
  endloop
 endfacet

 facet normal 0 1 0
  outer loop
  vertex -0.00615482358 -0.0193726346 -0.00729685696
  vertex 0.0105446232 -0.0193726346 0.00730252126
  vertex 0.0105446232 -0.0193726346 -0.0063571455
  endloop
 endfacet

 facet normal 0 1 0
  outer loop
  vertex -0.00615482358 -0.0193726346 -0.00729685696
  vertex 0.0105446232 -0.0193726346 -0.0063571455
  vertex 0.00862987619 -0.0193726346 -0.00729685696
  endloop
 endfacet

 facet normal 0 -0.0912962779 -0.995823801
  outer loop
  vertex -0.00570133096 -0.020720765 -0.00729685696
  vertex 0.00624904037 -0.020720765 -0.00729685696
  vertex 0.0105446232 -0.0310298484 -0.00635172939
  endloop
 endfacet

 facet normal 0 -0.0912962779 -0.995823801
  outer loop
  vertex -0.00570133096 -0.020720765 -0.00729685696
  vertex 0.0105446232 -0.0310298484 -0.00635172939
  vertex -0.00615482358 -0.0310298484 -0.00635172939
  endloop
 endfacet

 facet normal -0.000156662936 -0.0912894458 -0.995824456
  outer loop
  vertex -0.00570133096 -0.020720765 -0.00729685696
  vertex -0.00615482358 -0.0310298484 -0.00635172939
  vertex -0.0226737149 -0.0310310367 -0.00634902157
  endloop
 endfacet

 facet normal -0.00979050435 -0.0755472928 -0.997094154
  outer loop
  vertex -0.00570133096 -0.020720765 -0.00729685696
  vertex -0.0226737149 -0.0310310367 -0.00634902157
  vertex -0.0230138358 -0.0310227089 -0.00634631282
  endloop
 endfacet

 facet normal -0.011911734 -0.0720045939 -0.997333169
  outer loop
  vertex -0.00570133096 -0.020720765 -0.00729685696
  vertex -0.0230138358 -0.0310227089 -0.00634631282
  vertex -0.00615482358 -0.020720765 -0.00729144085
  endloop
 endfacet

 facet normal -0.822170377 -0.30541116 -0.480374902
  outer loop
  vertex -0.0230138358 -0.0310227089 -0.00634631282
  vertex -0.0231566001 -0.0311452672 -0.00602404959
  vertex -0.0233245604 -0.0306931119 -0.00602404959
  endloop
 endfacet

 facet normal -0.731939256 -0.0242448431 -0.680938363
  outer loop
  vertex -0.0230138358 -0.0310227089 -0.00634631282
  vertex -0.0233245604 -0.0306931119 -0.00602404959
  vertex -0.0230222326 -0.0306931119 -0.00634902157
  endloop
 endfacet

 facet normal -0.0242190622 -0.789712429 -0.612998962
  outer loop
  vertex -0.0230138358 -0.0310227089 -0.00634631282
  vertex -0.0226737149 -0.0310310367 -0.00634902157
  vertex -0.0226737149 -0.0312832892 -0.00602404959
  endloop
 endfacet

 facet normal -0.247043654 -0.864295483 -0.438135564
  outer loop
  vertex -0.0230138358 -0.0310227089 -0.00634631282
  vertex -0.0226737149 -0.0312832892 -0.00602404959
  vertex -0.0231566001 -0.0311452672 -0.00602404959
  endloop
 endfacet

 facet normal -0.732154489 -0.000439718191 -0.681138515
  outer loop
  vertex -0.0230222326 -0.0306931119 -0.00634902157
  vertex -0.0233245604 -0.0306931119 -0.00602404959
  vertex -0.0233245604 -0.0264988001 -0.00602675695
  endloop
 endfacet

 facet normal -0.729305208 0 -0.684188545
  outer loop
  vertex -0.0230222326 -0.0306931119 -0.00634902157
  vertex -0.0233245604 -0.0264988001 -0.00602675695
  vertex -0.0233245604 -0.0218951721 -0.00602675695
  endloop
 endfacet

 facet normal -0.729305208 0 -0.684188545
  outer loop
  vertex -0.0230222326 -0.0306931119 -0.00634902157
  vertex -0.0233245604 -0.0218951721 -0.00602675695
  vertex -0.0230222326 -0.0218951721 -0.00634902157
  endloop
 endfacet

 facet normal -0.193784937 0.964052558 -0.181796908
  outer loop
  vertex -0.0230222326 -0.0218951721 -0.00634902157
  vertex -0.0233245604 -0.0218951721 -0.00602675695
  vertex -0.0235932972 -0.0193773955 0.00761124538
  endloop
 endfacet

 facet normal -0.40048632 0.899634719 -0.173977464
  outer loop
  vertex -0.0235932972 -0.0193773955 0.00761124538
  vertex -0.0233245604 -0.0218951721 -0.00602675695
  vertex -0.0235974956 -0.0218951721 -0.00539847743
  endloop
 endfacet

 facet normal -0.999994278 0.00335188676 -0.000325947098
  outer loop
  vertex -0.0235932972 -0.0193773955 0.00761124538
  vertex -0.0235974956 -0.0218951721 -0.00539847743
  vertex -0.0235974956 -0.0206303336 0.0076085371
  endloop
 endfacet

 facet normal -0.999994397 0.00335118244 0
  outer loop
  vertex -0.0235932972 -0.0193773955 0.00761124538
  vertex -0.0235974956 -0.0206303336 0.0076085371
  vertex -0.0235974956 -0.0206303336 0.00780622847
  endloop
 endfacet

 facet normal -0.999994397 0.00335118244 0
  outer loop
  vertex -0.0235932972 -0.0193773955 0.00761124538
  vertex -0.0235974956 -0.0206303336 0.00780622847
  vertex -0.0235932972 -0.0193773955 0.0140917329
  endloop
 endfacet

 facet normal -0.000271858822 0.99999994 1.8326549e-06
  outer loop
  vertex -0.00615482358 -0.0193726346 0.00398780452
  vertex -0.0235932972 -0.0193773955 0.0140917329
  vertex -0.023589097 -0.0193773955 0.0147145968
  endloop
 endfacet

 facet normal -6.65866974e-05 0.99999994 0.00033546178
  outer loop
  vertex -0.00615482358 -0.0193726346 0.00398780452
  vertex -0.023589097 -0.0193773955 0.0147145968
  vertex 0.0105446232 -0.0193726346 0.00730252126
  endloop
 endfacet

 facet normal 0.440576851 0 -0.897714972
  outer loop
  vertex 0.00862987619 -0.0193726346 -0.00729685696
  vertex 0.0105446232 -0.0193726346 -0.0063571455
  vertex 0.0105446232 -0.0306907333 -0.0063571455
  endloop
 endfacet

 facet normal 0.368435502 -0.0148464758 -0.929534793
  outer loop
  vertex 0.00862987619 -0.0193726346 -0.00729685696
  vertex 0.0105446232 -0.0306907333 -0.0063571455
  vertex 0.0105446232 -0.0310298484 -0.00635172939
  endloop
 endfacet

 facet normal 0.0694195256 -0.069283314 -0.995178699
  outer loop
  vertex 0.00862987619 -0.0193726346 -0.00729685696
  vertex 0.0105446232 -0.0310298484 -0.00635172939
  vertex 0.00775228394 -0.0202519521 -0.00729685696
  endloop
 endfacet

 facet normal 0.00171142013 -0.0905889422 -0.995886922
  outer loop
  vertex 0.00624904037 -0.020720765 -0.00729685696
  vertex 0.00687889103 -0.0207088664 -0.00729685696
  vertex 0.0105446232 -0.0310298484 -0.00635172939
  endloop
 endfacet

 facet normal -4.45301193e-05 -0.786923051 -0.617051244
  outer loop
  vertex -0.00615482358 -0.0310298484 -0.00635172939
  vertex -0.0142966975 -0.0311143287 -0.0062434054
  vertex -0.0226737149 -0.0310310367 -0.00634902157
  endloop
 endfacet

 facet normal 0 -0.78638339 -0.617738724
  outer loop
  vertex -0.00615482358 -0.0310298484 -0.00635172939
  vertex 0.0105446232 -0.0310298484 -0.00635172939
  vertex 0.0105446232 -0.0312404558 -0.00608362723
  endloop
 endfacet

 facet normal -3.24548564e-05 -0.787364423 -0.616487861
  outer loop
  vertex -0.00615482358 -0.0310298484 -0.00635172939
  vertex 0.0105446232 -0.0312404558 -0.00608362723
  vertex -0.0142966975 -0.0311143287 -0.0062434054
  endloop
 endfacet

 facet normal -0.000123390753 -0.789944112 -0.613178849
  outer loop
  vertex -0.0226737149 -0.0310310367 -0.00634902157
  vertex -0.0142966975 -0.0311143287 -0.0062434054
  vertex -0.0226737149 -0.0312832892 -0.00602404959
  endloop
 endfacet

 facet normal -0.853453755 -0.449237287 -0.264201939
  outer loop
  vertex -0.0231566001 -0.0311452672 -0.00602404959
  vertex -0.0232909676 -0.0312594958 -0.00539576961
  vertex -0.023589097 -0.0306931119 -0.00539576961
  endloop
 endfacet

 facet normal -0.871951282 -0.323903263 -0.367134511
  outer loop
  vertex -0.0231566001 -0.0311452672 -0.00602404959
  vertex -0.023589097 -0.0306931119 -0.00539576961
  vertex -0.0233245604 -0.0306931119 -0.00602404959
  endloop
 endfacet

 facet normal -0.259132117 -0.906587601 -0.333090842
  outer loop
  vertex -0.0231566001 -0.0311452672 -0.00602404959
  vertex -0.0226737149 -0.0312832892 -0.00602404959
  vertex -0.0226737149 -0.0315141268 -0.00539576961
  endloop
 endfacet

 facet normal -0.369998634 -0.896906734 -0.242197156
  outer loop
  vertex -0.0231566001 -0.0311452672 -0.00602404959
  vertex -0.0226737149 -0.0315141268 -0.00539576961
  vertex -0.0232909676 -0.0312594958 -0.00539576961
  endloop
 endfacet

 facet normal -0.921566844 -0.0122950589 -0.388025105
  outer loop
  vertex -0.0233245604 -0.0306931119 -0.00602404959
  vertex -0.023589097 -0.0306931119 -0.00539576961
  vertex -0.0235974956 -0.0300636701 -0.00539576961
  endloop
 endfacet

 facet normal -0.917303801 -0.000302443514 -0.398187995
  outer loop
  vertex -0.0233245604 -0.0306931119 -0.00602404959
  vertex -0.0235974956 -0.0300636701 -0.00539576961
  vertex -0.0235974956 -0.0264988001 -0.00539847743
  endloop
 endfacet

 facet normal -0.917193115 -0.000257220207 -0.398442924
  outer loop
  vertex -0.0233245604 -0.0306931119 -0.00602404959
  vertex -0.0235974956 -0.0264988001 -0.00539847743
  vertex -0.0233245604 -0.0264988001 -0.00602675695
  endloop
 endfacet

 facet normal -7.80714035e-05 -0.790784121 -0.612095118
  outer loop
  vertex -0.0226737149 -0.0312832892 -0.00602404959
  vertex -0.0142966975 -0.0311143287 -0.0062434054
  vertex 0.0105446232 -0.0312404558 -0.00608362723
  endloop
 endfacet

 facet normal -4.04772654e-05 -0.801090002 -0.598543882
  outer loop
  vertex -0.0226737149 -0.0312832892 -0.00602404959
  vertex 0.0105446232 -0.0312404558 -0.00608362723
  vertex -0.00615482358 -0.0312821008 -0.00602675695
  endloop
 endfacet

 facet normal 0 -0.915683866 -0.401899278
  outer loop
  vertex -0.0226737149 -0.0312832892 -0.00602404959
  vertex -0.00615482358 -0.0312821008 -0.00602675695
  vertex 0.0105446232 -0.0312821008 -0.00602675695
  endloop
 endfacet

 facet normal 0 -0.915683866 -0.401899278
  outer loop
  vertex -0.0226737149 -0.0312832892 -0.00602404959
  vertex 0.0105446232 -0.0312821008 -0.00602675695
  vertex -0.00615482358 -0.0312832892 -0.00602404959
  endloop
 endfacet

 facet normal 0 -0.934235573 -0.356656492
  outer loop
  vertex -0.0226737149 -0.0312832892 -0.00602404959
  vertex -0.00615482358 -0.0312832892 -0.00602404959
  vertex -0.00615482358 -0.0313463546 -0.00585885486
  endloop
 endfacet

 facet normal -0.000134713104 -0.938650131 -0.344870925
  outer loop
  vertex -0.0226737149 -0.0312832892 -0.00602404959
  vertex -0.00615482358 -0.0313463546 -0.00585885486
  vertex -0.0226737149 -0.0315141268 -0.00539576961
  endloop
 endfacet

 facet normal -0.917193234 0 -0.398442954
  outer loop
  vertex -0.0233245604 -0.0264988001 -0.00602675695
  vertex -0.0235974956 -0.0264988001 -0.00539847743
  vertex -0.0235974956 -0.0218951721 -0.00539847743
  endloop
 endfacet

 facet normal -0.917193234 0 -0.398442954
  outer loop
  vertex -0.0233245604 -0.0264988001 -0.00602675695
  vertex -0.0235974956 -0.0218951721 -0.00539847743
  vertex -0.0233245604 -0.0218951721 -0.00602675695
  endloop
 endfacet

 facet normal -1 0 0
  outer loop
  vertex -0.0235974956 -0.0218951721 -0.00539847743
  vertex -0.0235974956 -0.0264988001 -0.00539847743
  vertex -0.0235974956 -0.0300636701 -0.00539576961
  endloop
 endfacet

 facet normal -1 0 0
  outer loop
  vertex -0.0235974956 -0.0218951721 -0.00539847743
  vertex -0.0235974956 -0.0300636701 -0.00539576961
  vertex -0.0235974956 -0.0300636701 0.00591868116
  endloop
 endfacet

 facet normal -1 0 0
  outer loop
  vertex -0.0235974956 -0.0218951721 -0.00539847743
  vertex -0.0235974956 -0.0300636701 0.00591868116
  vertex -0.0235974956 -0.0300600994 0.0147145968
  endloop
 endfacet

 facet normal -1 0 0
  outer loop
  vertex -0.0235974956 -0.0218951721 -0.00539847743
  vertex -0.0235974956 -0.0300600994 0.0147145968
  vertex -0.0235974956 -0.0256623197 0.0147145968
  endloop
 endfacet

 facet normal -1 0 0
  outer loop
  vertex -0.0235974956 -0.0218951721 -0.00539847743
  vertex -0.0235974956 -0.0256623197 0.0147145968
  vertex -0.0235974956 -0.0212645382 0.0140917329
  endloop
 endfacet

 facet normal -1 0 0
  outer loop
  vertex -0.0235974956 -0.0218951721 -0.00539847743
  vertex -0.0235974956 -0.0212645382 0.0140917329
  vertex -0.0235974956 -0.0206303336 0.00780622847
  endloop
 endfacet

 facet normal -1 0 0
  outer loop
  vertex -0.0235974956 -0.0218951721 -0.00539847743
  vertex -0.0235974956 -0.0206303336 0.00780622847
  vertex -0.0235974956 -0.0206303336 0.0076085371
  endloop
 endfacet

 facet normal -0.999997556 0.00222496944 0.000224498945
  outer loop
  vertex -0.0235932972 -0.0193773955 0.0140917329
  vertex -0.0235974956 -0.0206303336 0.00780622847
  vertex -0.0235974956 -0.0212645382 0.0140917329
  endloop
 endfacet

 facet normal -0.999974728 0.00222491869 0.00674103014
  outer loop
  vertex -0.0235932972 -0.0193773955 0.0140917329
  vertex -0.0235974956 -0.0212645382 0.0140917329
  vertex -0.023589097 -0.0193773955 0.0147145968
  endloop
 endfacet

 facet normal 0.59720099 0.797138095 0.0890056714
  outer loop
  vertex 0.0105446232 -0.0193726346 0.00730252126
  vertex 0.012513957 -0.0217678547 0.0155405682
  vertex 0.012820485 -0.0219975002 0.0155405682
  endloop
 endfacet

 facet normal 0.75554961 0.655091465 0
  outer loop
  vertex 0.0105446232 -0.0193726346 0.00730252126
  vertex 0.012820485 -0.0219975002 0.0155405682
  vertex 0.0105446232 -0.0193726346 -0.0063571455
  endloop
 endfacet

 facet normal 0 0.999999762 0.000642103318
  outer loop
  vertex 0.0105446232 -0.0193726346 0.00730252126
  vertex -0.023589097 -0.0193773955 0.0147145968
  vertex -0.0104588047 -0.0193773955 0.0147145968
  endloop
 endfacet

 facet normal 0.0908148363 0.961878717 0.257957578
  outer loop
  vertex 0.0105446232 -0.0193726346 0.00730252126
  vertex -0.0104588047 -0.0193773955 0.0147145968
  vertex 0.012513957 -0.0217678547 0.0155405682
  endloop
 endfacet

 facet normal -0.999954641 0.0013361047 0.00943367835
  outer loop
  vertex -0.023589097 -0.0193773955 0.0147145968
  vertex -0.0235974956 -0.0212645382 0.0140917329
  vertex -0.0235974956 -0.0256623197 0.0147145968
  endloop
 endfacet

 facet normal -0.308391869 0.000412062451 0.951259315
  outer loop
  vertex -0.023589097 -0.0193773955 0.0147145968
  vertex -0.0235974956 -0.0256623197 0.0147145968
  vertex -0.00615062471 -0.021876134 0.0203691144
  endloop
 endfacet

 facet normal 0 0.914672732 0.404195309
  outer loop
  vertex -0.023589097 -0.0193773955 0.0147145968
  vertex -0.00615062471 -0.021876134 0.0203691144
  vertex -0.00216156966 -0.021876134 0.0203691144
  endloop
 endfacet

 facet normal 0 0.914672732 0.404195309
  outer loop
  vertex -0.023589097 -0.0193773955 0.0147145968
  vertex -0.00216156966 -0.021876134 0.0203691144
  vertex -0.0104588047 -0.0193773955 0.0147145968
  endloop
 endfacet

 facet normal 0.791180789 0.611517191 -0.0089264214
  outer loop
  vertex 0.0105446232 -0.0193726346 -0.0063571455
  vertex 0.012820485 -0.0219975002 0.0155405682
  vertex 0.0120646637 -0.021268107 -0.00148256205
  endloop
 endfacet

 facet normal 0.79491657 0.606599987 -0.0120033994
  outer loop
  vertex 0.0105446232 -0.0193726346 -0.0063571455
  vertex 0.0120646637 -0.021268107 -0.00148256205
  vertex 0.01929955 -0.0307490379 -0.00148256205
  endloop
 endfacet

 facet normal 0.486461341 0 -0.873702168
  outer loop
  vertex 0.0105446232 -0.0193726346 -0.0063571455
  vertex 0.01929955 -0.0307490379 -0.00148256205
  vertex 0.01929955 -0.0308216196 -0.00148256205
  endloop
 endfacet

 facet normal 0.486461341 0 -0.873702168
  outer loop
  vertex 0.0105446232 -0.0193726346 -0.0063571455
  vertex 0.01929955 -0.0308216196 -0.00148256205
  vertex 0.0105446232 -0.0306907333 -0.0063571455
  endloop
 endfacet

 facet normal 0.486254752 -0.0139547763 -0.873705745
  outer loop
  vertex 0.0105446232 -0.0306907333 -0.0063571455
  vertex 0.01929955 -0.0308216196 -0.00148256205
  vertex 0.0105446232 -0.0310298484 -0.00635172939
  endloop
 endfacet

 facet normal 0.0291261263 -0.0808895677 -0.996297359
  outer loop
  vertex 0.0105446232 -0.0310298484 -0.00635172939
  vertex 0.00687889103 -0.0207088664 -0.00729685696
  vertex 0.00743735908 -0.0205077771 -0.00729685696
  endloop
 endfacet

 facet normal 0.0338069573 -0.079504028 -0.99626112
  outer loop
  vertex 0.0105446232 -0.0310298484 -0.00635172939
  vertex 0.00743735908 -0.0205077771 -0.00729685696
  vertex 0.00744575681 -0.0205042064 -0.00729685696
  endloop
 endfacet

 facet normal 0.0592236295 -0.0719659552 -0.995647311
  outer loop
  vertex 0.0105446232 -0.0310298484 -0.00635172939
  vertex 0.00744575681 -0.0205042064 -0.00729685696
  vertex 0.00775228394 -0.0202519521 -0.00729685696
  endloop
 endfacet

 facet normal 0.486387491 -0.0362979248 -0.872988939
  outer loop
  vertex 0.0105446232 -0.0310298484 -0.00635172939
  vertex 0.01929955 -0.0308216196 -0.00148256205
  vertex 0.0192701593 -0.0312154684 -0.00148256205
  endloop
 endfacet

 facet normal 0.369188994 -0.627518058 -0.685507655
  outer loop
  vertex 0.0105446232 -0.0310298484 -0.00635172939
  vertex 0.0192701593 -0.0312154684 -0.00148256205
  vertex 0.0188292637 -0.0314748622 -0.00148256205
  endloop
 endfacet

 facet normal 0.305488586 -0.74879092 -0.588208199
  outer loop
  vertex 0.0105446232 -0.0310298484 -0.00635172939
  vertex 0.0188292637 -0.0314748622 -0.00148256205
  vertex 0.0105446232 -0.0312404558 -0.00608362723
  endloop
 endfacet

 facet normal 0.292000264 -0.771631479 -0.565084815
  outer loop
  vertex 0.0105446232 -0.0312404558 -0.00608362723
  vertex 0.0188292637 -0.0314748622 -0.00148256205
  vertex 0.0105446232 -0.0312821008 -0.00602675695
  endloop
 endfacet

 facet normal 0 -0.806792915 -0.590834379
  outer loop
  vertex 0.0105446232 -0.0312404558 -0.00608362723
  vertex 0.0105446232 -0.0312821008 -0.00602675695
  vertex -0.00615482358 -0.0312821008 -0.00602675695
  endloop
 endfacet

 facet normal -0.381352633 -0.924429655 -0.00016481003
  outer loop
  vertex -0.0232909676 -0.0312594958 -0.00539576961
  vertex -0.0226737149 -0.0315141268 -0.00539576961
  vertex -0.0226779133 -0.0315153189 0.0109963724
  endloop
 endfacet

 facet normal -0.385109037 -0.922871113 0
  outer loop
  vertex -0.0232909676 -0.0312594958 -0.00539576961
  vertex -0.0226779133 -0.0315153189 0.0109963724
  vertex -0.0226779133 -0.0315153189 0.0147145968
  endloop
 endfacet

 facet normal -0.385109037 -0.922871113 0
  outer loop
  vertex -0.0232909676 -0.0312594958 -0.00539576961
  vertex -0.0226779133 -0.0315153189 0.0147145968
  vertex -0.0232909676 -0.0312594958 0.0109963724
  endloop
 endfacet

 facet normal -0.884380937 -0.466765881 0
  outer loop
  vertex -0.0232909676 -0.0312594958 -0.00539576961
  vertex -0.0232909676 -0.0312594958 0.0109963724
  vertex -0.0235051177 -0.0308537465 0.00951233227
  endloop
 endfacet

 facet normal -0.884896398 -0.465787977 -3.40206134e-05
  outer loop
  vertex -0.0232909676 -0.0312594958 -0.00539576961
  vertex -0.0235051177 -0.0308537465 0.00951233227
  vertex -0.023589097 -0.0306931119 -0.00539576961
  endloop
 endfacet

 facet normal -0.999911129 -0.0133402869 0
  outer loop
  vertex -0.023589097 -0.0306931119 -0.00539576961
  vertex -0.023589097 -0.0306931119 0.0076085371
  vertex -0.0235974956 -0.0300636701 0.00591868116
  endloop
 endfacet

 facet normal -0.999911129 -0.0133402869 0
  outer loop
  vertex -0.023589097 -0.0306931119 -0.00539576961
  vertex -0.0235974956 -0.0300636701 0.00591868116
  vertex -0.0235974956 -0.0300636701 -0.00539576961
  endloop
 endfacet

 facet normal -0.886196256 -0.463310182 0
  outer loop
  vertex -0.023589097 -0.0306931119 -0.00539576961
  vertex -0.0235051177 -0.0308537465 0.00951233227
  vertex -0.023589097 -0.0306931119 0.0076085371
  endloop
 endfacet

 facet normal -5.61238085e-05 -0.939555824 -0.342395723
  outer loop
  vertex -0.0226737149 -0.0315141268 -0.00539576961
  vertex -0.00615482358 -0.0313463546 -0.00585885486
  vertex -0.00615482358 -0.0315141268 -0.00539847743
  endloop
 endfacet

 facet normal -4.97508495e-07 -0.99999541 -0.00303516118
  outer loop
  vertex -0.0226737149 -0.0315141268 -0.00539576961
  vertex -0.00615482358 -0.0315141268 -0.00539847743
  vertex 0.0177123267 -0.0315260254 -0.00148256205
  endloop
 endfacet

 facet normal -0.000271135563 -0.999999881 -0.000242069247
  outer loop
  vertex -0.0226737149 -0.0315141268 -0.00539576961
  vertex 0.0177123267 -0.0315260254 -0.00148256205
  vertex 0.0181994122 -0.0315284058 0.00780622847
  endloop
 endfacet

 facet normal -0.000325842615 -0.99999994 -7.26974322e-05
  outer loop
  vertex -0.0226737149 -0.0315141268 -0.00539576961
  vertex 0.0181994122 -0.0315284058 0.00780622847
  vertex -0.0226779133 -0.0315153189 0.0109963724
  endloop
 endfacet

 facet normal 8.65604306e-06 -0.934235573 -0.356656492
  outer loop
  vertex -0.00615482358 -0.0312832892 -0.00602404959
  vertex 0.0105446232 -0.0312821008 -0.00602675695
  vertex -0.00615482358 -0.0313463546 -0.00585885486
  endloop
 endfacet

 facet normal 0.000126208673 -0.93807447 -0.346433848
  outer loop
  vertex -0.00615482358 -0.0313463546 -0.00585885486
  vertex 0.0105446232 -0.0312821008 -0.00602675695
  vertex 0.0105446232 -0.0315141268 -0.00539847743
  endloop
 endfacet

 facet normal 0 -0.939555824 -0.342395723
  outer loop
  vertex -0.00615482358 -0.0313463546 -0.00585885486
  vertex 0.0105446232 -0.0315141268 -0.00539847743
  vertex -0.00615482358 -0.0315141268 -0.00539847743
  endloop
 endfacet

 facet normal 0.0886710882 0.952646852 0.290863365
  outer loop
  vertex 0.012513957 -0.0217678547 0.0155405682
  vertex -0.0104588047 -0.0193773955 0.0147145968
  vertex -0.00216156966 -0.021876134 0.0203691144
  endloop
 endfacet

 facet normal 0.286275566 0.382117838 0.878653705
  outer loop
  vertex 0.012513957 -0.0217678547 0.0155405682
  vertex -0.00216156966 -0.021876134 0.0203691144
  vertex 0.012820485 -0.0219975002 0.0155405682
  endloop
 endfacet

 facet normal 0.300394058 0.227226228 0.926353931
  outer loop
  vertex 0.012820485 -0.0219975002 0.0155405682
  vertex -0.00216156966 -0.021876134 0.0203691144
  vertex 0.0188796502 -0.0300077442 0.0155405682
  endloop
 endfacet

 facet normal 0.797515512 0.603262305 -0.00659795571
  outer loop
  vertex 0.012820485 -0.0219975002 0.0155405682
  vertex 0.0188796502 -0.0300077442 0.0155405682
  vertex 0.01929955 -0.0307490379 -0.00148256205
  endloop
 endfacet

 facet normal 0.794939458 0.606617451 -0.00930324569
  outer loop
  vertex 0.012820485 -0.0219975002 0.0155405682
  vertex 0.01929955 -0.0307490379 -0.00148256205
  vertex 0.0120646637 -0.021268107 -0.00148256205
  endloop
 endfacet

 facet normal -0.308310956 0 0.951285601
  outer loop
  vertex -0.0235974956 -0.0256623197 0.0147145968
  vertex -0.0235974956 -0.0300600994 0.0147145968
  vertex -0.00615062471 -0.0306895431 0.0203691144
  endloop
 endfacet

 facet normal -0.308310956 0 0.951285601
  outer loop
  vertex -0.0235974956 -0.0256623197 0.0147145968
  vertex -0.00615062471 -0.0306895431 0.0203691144
  vertex -0.00615062471 -0.021876134 0.0203691144
  endloop
 endfacet

 facet normal 0 0 1
  outer loop
  vertex -0.00615062471 -0.021876134 0.0203691144
  vertex -0.00615062471 -0.0306895431 0.0203691144
  vertex -0.00216156966 -0.0306895431 0.0203691144
  endloop
 endfacet

 facet normal 0 0 1
  outer loop
  vertex -0.00615062471 -0.021876134 0.0203691144
  vertex -0.00216156966 -0.0306895431 0.0203691144
  vertex -0.00216156966 -0.021876134 0.0203691144
  endloop
 endfacet

 facet normal 0.808012247 0.589137912 -0.00572396955
  outer loop
  vertex 0.01929955 -0.0307490379 -0.00148256205
  vertex 0.0188796502 -0.0300077442 0.0155405682
  vertex 0.019194575 -0.0304396693 0.0155405682
  endloop
 endfacet

 facet normal 0.953388274 0.301746339 0.000395401119
  outer loop
  vertex 0.01929955 -0.0307490379 -0.00148256205
  vertex 0.019194575 -0.0304396693 0.0155405682
  vertex 0.0192785561 -0.0307050124 0.0155405682
  endloop
 endfacet

 facet normal 0.999999344 0 0.00123327656
  outer loop
  vertex 0.01929955 -0.0307490379 -0.00148256205
  vertex 0.0192785561 -0.0307050124 0.0155405682
  vertex 0.01929955 -0.0308216196 -0.00148256205
  endloop
 endfacet

 facet normal 0.999863267 -0.0164874904 0.00134604762
  outer loop
  vertex 0.01929955 -0.0308216196 -0.00148256205
  vertex 0.0192785561 -0.0307050124 0.0155405682
  vertex 0.0192701593 -0.0312142801 0.0155405682
  endloop
 endfacet

 facet normal 0.997226954 -0.0744206309 5.19547666e-06
  outer loop
  vertex 0.01929955 -0.0308216196 -0.00148256205
  vertex 0.0192701593 -0.0312142801 0.0155405682
  vertex 0.0192701593 -0.0312154684 -0.00148256205
  endloop
 endfacet

 facet normal 0.515855789 -0.856675506 5.98064908e-05
  outer loop
  vertex 0.0192701593 -0.0312154684 -0.00148256205
  vertex 0.0192701593 -0.0312142801 0.0155405682
  vertex 0.0189678296 -0.0313963294 0.0155405682
  endloop
 endfacet

 facet normal 0.507082105 -0.861897826 -0.000151497516
  outer loop
  vertex 0.0192701593 -0.0312154684 -0.00148256205
  vertex 0.0189678296 -0.0313963294 0.0155405682
  vertex 0.0188292637 -0.0314748622 -0.00148256205
  endloop
 endfacet

 facet normal 0.0913770497 -0.99581641 6.96298957e-05
  outer loop
  vertex 0.0188292637 -0.0314748622 -0.00148256205
  vertex 0.0188292637 -0.0314736702 0.0155405682
  vertex 0.0183883663 -0.0315141268 0.0155405682
  endloop
 endfacet

 facet normal 0.0822294354 -0.996613443 -0.000169130377
  outer loop
  vertex 0.0188292637 -0.0314748622 -0.00148256205
  vertex 0.0183883663 -0.0315141268 0.0155405682
  vertex 0.0181994122 -0.0315284058 0.00780622847
  endloop
 endfacet

 facet normal 0.0809652805 -0.996716917 -0.000255445659
  outer loop
  vertex 0.0188292637 -0.0314748622 -0.00148256205
  vertex 0.0181994122 -0.0315284058 0.00780622847
  vertex 0.0181994122 -0.0315260254 -0.00148256205
  endloop
 endfacet

 facet normal 0.0799321607 -0.983998656 -0.159240082
  outer loop
  vertex 0.0188292637 -0.0314748622 -0.00148256205
  vertex 0.0181994122 -0.0315260254 -0.00148256205
  vertex 0.0105446232 -0.0315141268 -0.00539847743
  endloop
 endfacet

 facet normal 0.165865913 -0.925080597 -0.341635197
  outer loop
  vertex 0.0188292637 -0.0314748622 -0.00148256205
  vertex 0.0105446232 -0.0315141268 -0.00539847743
  vertex 0.0105446232 -0.0312821008 -0.00602675695
  endloop
 endfacet

 facet normal 0.487372011 -0.873194456 6.10558709e-05
  outer loop
  vertex 0.0188292637 -0.0314748622 -0.00148256205
  vertex 0.0189678296 -0.0313963294 0.0155405682
  vertex 0.0188292637 -0.0314736702 0.0155405682
  endloop
 endfacet

 facet normal -0.000320169202 -0.99999994 0
  outer loop
  vertex -0.0226779133 -0.0315153189 0.0109963724
  vertex 0.0181994122 -0.0315284058 0.00780622847
  vertex 0.0181994122 -0.0315284058 0.0155405682
  endloop
 endfacet

 facet normal -0.000320169202 -0.99999994 0
  outer loop
  vertex -0.0226779133 -0.0315153189 0.0109963724
  vertex 0.0181994122 -0.0315284058 0.0155405682
  vertex -0.0226779133 -0.0315153189 0.0147145968
  endloop
 endfacet

 facet normal -0.884606242 -0.466338813 0.000149286934
  outer loop
  vertex -0.0232909676 -0.0312594958 0.0109963724
  vertex -0.0232909676 -0.0312583037 0.0147145968
  vertex -0.0235051177 -0.0308537465 0.00951233227
  endloop
 endfacet

 facet normal -0.386633515 -0.922233462 0.000295230479
  outer loop
  vertex -0.0232909676 -0.0312594958 0.0109963724
  vertex -0.0226779133 -0.0315153189 0.0147145968
  vertex -0.0232909676 -0.0312583037 0.0147145968
  endloop
 endfacet

 facet normal -0.886947393 -0.461870492 0.000154609123
  outer loop
  vertex -0.0235051177 -0.0308537465 0.00951233227
  vertex -0.023589097 -0.0306907333 0.0147145968
  vertex -0.023589097 -0.0306931119 0.0076085371
  endloop
 endfacet

 facet normal -0.885298193 -0.465023726 0.000280039036
  outer loop
  vertex -0.0235051177 -0.0308537465 0.00951233227
  vertex -0.0232909676 -0.0312583037 0.0147145968
  vertex -0.023589097 -0.0306907333 0.0147145968
  endloop
 endfacet

 facet normal -0.999911249 -0.013328312 4.46159493e-06
  outer loop
  vertex -0.023589097 -0.0306931119 0.0076085371
  vertex -0.023589097 -0.0306907333 0.0147145968
  vertex -0.0235974956 -0.0300636701 0.00591868116
  endloop
 endfacet

 facet normal 0 -0.99999541 -0.0030381931
  outer loop
  vertex -0.00615482358 -0.0315141268 -0.00539847743
  vertex 0.0105446232 -0.0315141268 -0.00539847743
  vertex 0.0181994122 -0.0315260254 -0.00148256205
  endloop
 endfacet

 facet normal 0 -0.99999541 -0.0030381931
  outer loop
  vertex -0.00615482358 -0.0315141268 -0.00539847743
  vertex 0.0181994122 -0.0315260254 -0.00148256205
  vertex 0.0177123267 -0.0315260254 -0.00148256205
  endloop
 endfacet

 facet normal 0 -0.99999994 -0.000256287109
  outer loop
  vertex 0.0177123267 -0.0315260254 -0.00148256205
  vertex 0.0181994122 -0.0315260254 -0.00148256205
  vertex 0.0181994122 -0.0315284058 0.00780622847
  endloop
 endfacet

 facet normal 0.0753476769 -0.997157335 0
  outer loop
  vertex 0.0181994122 -0.0315284058 0.00780622847
  vertex 0.0183883663 -0.0315141268 0.0155405682
  vertex 0.0181994122 -0.0315284058 0.0155405682
  endloop
 endfacet

 facet normal -0.999911308 -0.0133150704 5.40554629e-06
  outer loop
  vertex -0.0235974956 -0.0300636701 0.00591868116
  vertex -0.023589097 -0.0306907333 0.0147145968
  vertex -0.0235974956 -0.0300600994 0.0147145968
  endloop
 endfacet

 facet normal 0.219707847 0 0.975565791
  outer loop
  vertex -0.00216156966 -0.021876134 0.0203691144
  vertex -0.00216156966 -0.0306895431 0.0203691144
  vertex 0.0192785561 -0.0307050124 0.0155405682
  endloop
 endfacet

 facet normal 0.249906778 0.0790952295 0.965033948
  outer loop
  vertex -0.00216156966 -0.021876134 0.0203691144
  vertex 0.0192785561 -0.0307050124 0.0155405682
  vertex 0.019194575 -0.0304396693 0.0155405682
  endloop
 endfacet

 facet normal 0.29712519 0.216639906 0.929937482
  outer loop
  vertex -0.00216156966 -0.021876134 0.0203691144
  vertex 0.019194575 -0.0304396693 0.0155405682
  vertex 0.0188796502 -0.0300077442 0.0155405682
  endloop
 endfacet

 facet normal -0.308442414 -0.00410729693 0.951234102
  outer loop
  vertex -0.0235974956 -0.0300600994 0.0147145968
  vertex -0.023589097 -0.0306907333 0.0147145968
  vertex -0.00615062471 -0.0306895431 0.0203691144
  endloop
 endfacet

 facet normal -0.304465324 -0.159927577 0.93900156
  outer loop
  vertex -0.00615062471 -0.0306895431 0.0203691144
  vertex -0.023589097 -0.0306907333 0.0147145968
  vertex -0.0232909676 -0.0312583037 0.0147145968
  endloop
 endfacet

 facet normal -0.294238091 -0.264202237 0.918488503
  outer loop
  vertex -0.00615062471 -0.0306895431 0.0203691144
  vertex -0.0232909676 -0.0312583037 0.0147145968
  vertex -0.00615062471 -0.0312261768 0.0202147514
  endloop
 endfacet

 facet normal 0 -0.276439637 0.961031318
  outer loop
  vertex -0.00615062471 -0.0306895431 0.0203691144
  vertex -0.00615062471 -0.0312261768 0.0202147514
  vertex -0.00216156966 -0.0312261768 0.0202147514
  endloop
 endfacet

 facet normal 0 -0.276439637 0.961031318
  outer loop
  vertex -0.00615062471 -0.0306895431 0.0203691144
  vertex -0.00216156966 -0.0312261768 0.0202147514
  vertex -0.00216156966 -0.0306895431 0.0203691144
  endloop
 endfacet

 facet normal 0.219703943 -0.00362286204 0.97555989
  outer loop
  vertex 0.0192785561 -0.0307050124 0.0155405682
  vertex -0.00216156966 -0.0306895431 0.0203691144
  vertex 0.0192701593 -0.0312142801 0.0155405682
  endloop
 endfacet

 facet normal 0.205283791 -0.270552129 0.940563679
  outer loop
  vertex 0.0192701593 -0.0312142801 0.0155405682
  vertex -0.00216156966 -0.0306895431 0.0203691144
  vertex -0.00216156966 -0.0312261768 0.0202147514
  endloop
 endfacet

 facet normal 0.201037928 -0.333861232 0.920934618
  outer loop
  vertex 0.0192701593 -0.0312142801 0.0155405682
  vertex -0.00216156966 -0.0312261768 0.0202147514
  vertex 0.0189678296 -0.0313963294 0.0155405682
  endloop
 endfacet

 facet normal 0.199053526 -0.356631935 0.912793159
  outer loop
  vertex 0.0189678296 -0.0313963294 0.0155405682
  vertex -0.00216156966 -0.0312261768 0.0202147514
  vertex 0.0188292637 -0.0314736702 0.0155405682
  endloop
 endfacet

 facet normal 0.0969984755 -0.870942295 0.481716573
  outer loop
  vertex 0.0188292637 -0.0314736702 0.0155405682
  vertex -0.00216156966 -0.0312261768 0.0202147514
  vertex -0.00216156966 -0.0314808115 0.0197543744
  endloop
 endfacet

 facet normal 0.0832192898 -0.906913996 0.413015336
  outer loop
  vertex 0.0188292637 -0.0314736702 0.0155405682
  vertex -0.00216156966 -0.0314808115 0.0197543744
  vertex 0.0183883663 -0.0315141268 0.0155405682
  endloop
 endfacet

 facet normal 0.0705423355 -0.933563054 0.351402968
  outer loop
  vertex 0.0183883663 -0.0315141268 0.0155405682
  vertex -0.00216156966 -0.0314808115 0.0197543744
  vertex 0.0181994122 -0.0315284058 0.0155405682
  endloop
 endfacet

 facet normal -0.000358187448 -0.999998212 0.00188155076
  outer loop
  vertex -0.0226779133 -0.0315153189 0.0147145968
  vertex 0.0181994122 -0.0315284058 0.0155405682
  vertex -0.00615062471 -0.0315129384 0.0191260967
  endloop
 endfacet

 facet normal -0.013486078 -0.998604417 0.0510632694
  outer loop
  vertex -0.0226779133 -0.0315153189 0.0147145968
  vertex -0.00615062471 -0.0315129384 0.0191260967
  vertex -0.00615062471 -0.0314808115 0.0197543744
  endloop
 endfacet

 facet normal -0.144237757 -0.8659181 0.478937685
  outer loop
  vertex -0.0226779133 -0.0315153189 0.0147145968
  vertex -0.00615062471 -0.0314808115 0.0197543744
  vertex -0.00615062471 -0.0312261768 0.0202147514
  endloop
 endfacet

 facet normal -0.246271044 -0.587428033 0.770894945
  outer loop
  vertex -0.0226779133 -0.0315153189 0.0147145968
  vertex -0.00615062471 -0.0312261768 0.0202147514
  vertex -0.0232909676 -0.0312583037 0.0147145968
  endloop
 endfacet

 facet normal 0.00823396724 -0.99866128 0.0510661788
  outer loop
  vertex 0.0181994122 -0.0315284058 0.0155405682
  vertex -0.00216156966 -0.0314808115 0.0197543744
  vertex -0.00216156966 -0.0315129384 0.0191260967
  endloop
 endfacet

 facet normal 0 -0.999990642 0.0043140403
  outer loop
  vertex 0.0181994122 -0.0315284058 0.0155405682
  vertex -0.00216156966 -0.0315129384 0.0191260967
  vertex -0.00615062471 -0.0315129384 0.0191260967
  endloop
 endfacet

 facet normal 0 -0.875068665 0.483998835
  outer loop
  vertex -0.00615062471 -0.0312261768 0.0202147514
  vertex -0.00615062471 -0.0314808115 0.0197543744
  vertex -0.00216156966 -0.0314808115 0.0197543744
  endloop
 endfacet

 facet normal 0 -0.875068665 0.483998835
  outer loop
  vertex -0.00615062471 -0.0312261768 0.0202147514
  vertex -0.00216156966 -0.0314808115 0.0197543744
  vertex -0.00216156966 -0.0312261768 0.0202147514
  endloop
 endfacet

 facet normal 0 -0.998695135 0.0510679111
  outer loop
  vertex -0.00216156966 -0.0314808115 0.0197543744
  vertex -0.00615062471 -0.0314808115 0.0197543744
  vertex -0.00615062471 -0.0315129384 0.0191260967
  endloop
 endfacet

 facet normal 0 -0.998695135 0.0510679111
  outer loop
  vertex -0.00216156966 -0.0314808115 0.0197543744
  vertex -0.00615062471 -0.0315129384 0.0191260967
  vertex -0.00216156966 -0.0315129384 0.0191260967
  endloop
 endfacet

endsolid AssimpScene
