solid AssimpScene
 facet normal 0.034082789 -0.999331653 -0.0132115018
  outer loop
  vertex 0.00411172584 0.00741464691 -0.00376650551
  vertex 0.00592013309 0.00746026635 -0.00255190511
  vertex 0.00450661033 0.00741464691 -0.00274778903
  endloop
 endfacet

 facet normal 0 -1 0
  outer loop
  vertex 0.00411172584 0.00741464691 -0.00376650551
  vertex 0.00450661033 0.00741464691 -0.00274778903
  vertex 0.00456973678 0.00741464691 -0.00255190511
  endloop
 endfacet

 facet normal 0 -1 0
  outer loop
  vertex 0.00411172584 0.00741464691 -0.00376650551
  vertex 0.00456973678 0.00741464691 -0.00255190511
  vertex 0.00456222845 0.00741464691 -0.0019231427
  endloop
 endfacet

 facet normal 0 -1 0
  outer loop
  vertex 0.00411172584 0.00741464691 -0.00376650551
  vertex 0.00456222845 0.00741464691 -0.0019231427
  vertex 0.00410838798 0.00741464691 -0.000699474534
  endloop
 endfacet

 facet normal 0 -1 0
  outer loop
  vertex 0.00411172584 0.00741464691 -0.00376650551
  vertex 0.00410838798 0.00741464691 -0.000699474534
  vertex 0.00410838798 0.00741464691 -0.00373325311
  endloop
 endfacet

 facet normal -0.116651013 -0.993103921 -0.011708172
  outer loop
  vertex 0.00411172584 0.00741464691 -0.00376650551
  vertex 0.00410838798 0.00741464691 -0.00373325311
  vertex 0.00410838798 0.00741522433 -0.00378222391
  endloop
 endfacet

 facet normal 0.058026921 -0.99711442 -0.0489449874
  outer loop
  vertex 0.00411172584 0.00741464691 -0.00376650551
  vertex 0.00410838798 0.00741522433 -0.00378222391
  vertex 0.00592013309 0.00746026635 -0.00255190511
  endloop
 endfacet

 facet normal 0.0337609388 -0.999370694 -0.0108799059
  outer loop
  vertex 0.00592013309 0.00746026635 -0.00255190511
  vertex 0.00456973678 0.00741464691 -0.00255190511
  vertex 0.00450661033 0.00741464691 -0.00274778903
  endloop
 endfacet

 facet normal 0.138004899 -0.97616756 -0.167485982
  outer loop
  vertex 0.00592013309 0.00746026635 -0.00255190511
  vertex 0.00410838798 0.00741522433 -0.00378222391
  vertex 0.00654916838 0.00754919602 -0.00255190511
  endloop
 endfacet

 facet normal 0.139981315 -0.990147531 0.00363816484
  outer loop
  vertex 0.00592013309 0.00746026635 -0.00255190511
  vertex 0.00654916838 0.00754919602 -0.00255190511
  vertex 0.00654916838 0.00755150616 -0.0019231427
  endloop
 endfacet

 facet normal 0.139089644 -0.990269363 0.00454789679
  outer loop
  vertex 0.00592013309 0.00746026635 -0.00255190511
  vertex 0.00654916838 0.00755150616 -0.0019231427
  vertex 0.00592013309 0.00746315392 -0.0019231427
  endloop
 endfacet

 facet normal 0.0356988087 -0.999352098 0.00458960934
  outer loop
  vertex 0.00592013309 0.00746026635 -0.00255190511
  vertex 0.00592013309 0.00746315392 -0.0019231427
  vertex 0.00456222845 0.00741464691 -0.0019231427
  endloop
 endfacet

 facet normal 0.0337629355 -0.999429703 0.000403173908
  outer loop
  vertex 0.00592013309 0.00746026635 -0.00255190511
  vertex 0.00456222845 0.00741464691 -0.0019231427
  vertex 0.00456973678 0.00741464691 -0.00255190511
  endloop
 endfacet

 facet normal -1 0 0
  outer loop
  vertex 0.00410838798 0.00741464691 -0.00373325311
  vertex 0.00410838798 0.00741464691 -0.000699474534
  vertex 0.00410838798 0.00741580175 -0.000655945216
  endloop
 endfacet

 facet normal -1 0 0
  outer loop
  vertex 0.00410838798 0.00741464691 -0.00373325311
  vertex 0.00410838798 0.00741580175 -0.000655945216
  vertex 0.00410838798 0.0076687308 -0.000304079877
  endloop
 endfacet

 facet normal -1 0 0
  outer loop
  vertex 0.00410838798 0.00741464691 -0.00373325311
  vertex 0.00410838798 0.0076687308 -0.000304079877
  vertex 0.00410838798 0.00836342014 0.000380303798
  endloop
 endfacet

 facet normal -1 0 0
  outer loop
  vertex 0.00410838798 0.00741464691 -0.00373325311
  vertex 0.00410838798 0.00836342014 0.000380303798
  vertex 0.00410838798 0.00905117951 0.000801695278
  endloop
 endfacet

 facet normal -1 0 0
  outer loop
  vertex 0.00410838798 0.00741464691 -0.00373325311
  vertex 0.00410838798 0.00905117951 0.000801695278
  vertex 0.00410838798 0.00977531821 0.000841597444
  endloop
 endfacet

 facet normal -1 0 0
  outer loop
  vertex 0.00410838798 0.00741464691 -0.00373325311
  vertex 0.00410838798 0.00977531821 0.000841597444
  vertex 0.00410838798 0.00993931759 0.000844620983
  endloop
 endfacet

 facet normal -1 0 0
  outer loop
  vertex 0.00410838798 0.00741464691 -0.00373325311
  vertex 0.00410838798 0.00993931759 0.000844620983
  vertex 0.00410838798 0.010567599 0.000837365806
  endloop
 endfacet

 facet normal -1 0 0
  outer loop
  vertex 0.00410838798 0.00741464691 -0.00373325311
  vertex 0.00410838798 0.010567599 0.000837365806
  vertex 0.00410838798 0.0112051191 0.000758165959
  endloop
 endfacet

 facet normal -1 0 0
  outer loop
  vertex 0.00410838798 0.00741464691 -0.00373325311
  vertex 0.00410838798 0.0112051191 0.000758165959
  vertex 0.00410838798 0.0118258912 0.000388163055
  endloop
 endfacet

 facet normal -1 0 0
  outer loop
  vertex 0.00410838798 0.00741464691 -0.00373325311
  vertex 0.00410838798 0.0118258912 0.000388163055
  vertex 0.00410838798 0.0124016227 -5.8016125e-05
  endloop
 endfacet

 facet normal -1 0 0
  outer loop
  vertex 0.00410838798 0.00741464691 -0.00373325311
  vertex 0.00410838798 0.0124016227 -5.8016125e-05
  vertex 0.00410838798 0.0124328062 -8.94540644e-05
  endloop
 endfacet

 facet normal -1 0 0
  outer loop
  vertex 0.00410838798 0.00741464691 -0.00373325311
  vertex 0.00410838798 0.0124328062 -8.94540644e-05
  vertex 0.00410838798 0.0128416512 -0.000665618514
  endloop
 endfacet

 facet normal -1 0 0
  outer loop
  vertex 0.00410838798 0.00741464691 -0.00373325311
  vertex 0.00410838798 0.0128416512 -0.000665618514
  vertex 0.00410838798 0.0132193118 -0.00129982177
  endloop
 endfacet

 facet normal -1 0 0
  outer loop
  vertex 0.00410838798 0.00741464691 -0.00373325311
  vertex 0.00410838798 0.0132193118 -0.00129982177
  vertex 0.00410838798 0.0133122839 -0.0019231427
  endloop
 endfacet

 facet normal -1 0 0
  outer loop
  vertex 0.00410838798 0.00741464691 -0.00373325311
  vertex 0.00410838798 0.0133122839 -0.0019231427
  vertex 0.00410838798 0.0133140162 -0.00255190511
  endloop
 endfacet

 facet normal -1 0 0
  outer loop
  vertex 0.00410838798 0.00741464691 -0.00373325311
  vertex 0.00410838798 0.0133140162 -0.00255190511
  vertex 0.00410838798 0.0133111281 -0.00270788674
  endloop
 endfacet

 facet normal -1 0 0
  outer loop
  vertex 0.00410838798 0.00741464691 -0.00373325311
  vertex 0.00410838798 0.0133111281 -0.00270788674
  vertex 0.00410838798 0.0132273957 -0.00334632257
  endloop
 endfacet

 facet normal -1 0 0
  outer loop
  vertex 0.00410838798 0.00741464691 -0.00373325311
  vertex 0.00410838798 0.0132273957 -0.00334632257
  vertex 0.00410838798 0.0127931433 -0.0040712133
  endloop
 endfacet

 facet normal -1 0 0
  outer loop
  vertex 0.00410838798 0.00741464691 -0.00373325311
  vertex 0.00410838798 0.0127931433 -0.0040712133
  vertex 0.00410838798 0.0121082719 -0.00480335858
  endloop
 endfacet

 facet normal -1 0 0
  outer loop
  vertex 0.00410838798 0.00741464691 -0.00373325311
  vertex 0.00410838798 0.0121082719 -0.00480335858
  vertex 0.00410838798 0.0114101181 -0.00524711981
  endloop
 endfacet

 facet normal -1 0 0
  outer loop
  vertex 0.00410838798 0.00741464691 -0.00373325311
  vertex 0.00410838798 0.0114101181 -0.00524711981
  vertex 0.00410838798 0.0107350638 -0.00532087777
  endloop
 endfacet

 facet normal -1 0 0
  outer loop
  vertex 0.00410838798 0.00741464691 -0.00373325311
  vertex 0.00410838798 0.0107350638 -0.00532087777
  vertex 0.00410838798 0.010567599 -0.00532511063
  endloop
 endfacet

 facet normal -1 0 0
  outer loop
  vertex 0.00410838798 0.00741464691 -0.00373325311
  vertex 0.00410838798 0.010567599 -0.00532511063
  vertex 0.00410838798 0.010113134 -0.00533115584
  endloop
 endfacet

 facet normal -1 0 0
  outer loop
  vertex 0.00410838798 0.00741464691 -0.00373325311
  vertex 0.00410838798 0.010113134 -0.00533115584
  vertex 0.00410838798 0.00993931759 -0.00533115584
  endloop
 endfacet

 facet normal -1 0 0
  outer loop
  vertex 0.00410838798 0.00741464691 -0.00373325311
  vertex 0.00410838798 0.00993931759 -0.00533115584
  vertex 0.00410838798 0.00931046065 -0.00527251232
  endloop
 endfacet

 facet normal -1 0 0
  outer loop
  vertex 0.00410838798 0.00741464691 -0.00373325311
  vertex 0.00410838798 0.00931046065 -0.00527251232
  vertex 0.00410838798 0.00873184204 -0.00507481396
  endloop
 endfacet

 facet normal -1 0 0
  outer loop
  vertex 0.00410838798 0.00741464691 -0.00373325311
  vertex 0.00410838798 0.00873184204 -0.00507481396
  vertex 0.00410838798 0.00807006843 -0.00452525215
  endloop
 endfacet

 facet normal -1 0 0
  outer loop
  vertex 0.00410838798 0.00741464691 -0.00373325311
  vertex 0.00410838798 0.00807006843 -0.00452525215
  vertex 0.00410838798 0.00796381477 -0.00442065997
  endloop
 endfacet

 facet normal -1 0 0
  outer loop
  vertex 0.00410838798 0.00741464691 -0.00373325311
  vertex 0.00410838798 0.00796381477 -0.00442065997
  vertex 0.00410838798 0.00741522433 -0.00378222391
  endloop
 endfacet

 facet normal 0.170563087 -0.747343779 -0.642172456
  outer loop
  vertex 0.00410838798 0.00741522433 -0.00378222391
  vertex 0.00410838798 0.00796381477 -0.00442065997
  vertex 0.00654916838 0.00831202511 -0.00417761877
  endloop
 endfacet

 facet normal 0.192296669 -0.783742547 -0.590567172
  outer loop
  vertex 0.00410838798 0.00741522433 -0.00378222391
  vertex 0.00654916838 0.00831202511 -0.00417761877
  vertex 0.00626301579 0.00773340696 -0.00350290863
  endloop
 endfacet

 facet normal 0.178054675 -0.934108496 -0.309415191
  outer loop
  vertex 0.00410838798 0.00741522433 -0.00378222391
  vertex 0.00626301579 0.00773340696 -0.00350290863
  vertex 0.00650328398 0.00767046399 -0.00317462254
  endloop
 endfacet

 facet normal 0.153819233 -0.967691422 -0.199782342
  outer loop
  vertex 0.00410838798 0.00741522433 -0.00378222391
  vertex 0.00650328398 0.00767046399 -0.00317462254
  vertex 0.00654916838 0.00754919602 -0.00255190511
  endloop
 endfacet

 facet normal 0.214346826 -0.955663145 -0.201899916
  outer loop
  vertex 0.00654916838 0.00754919602 -0.00255190511
  vertex 0.00650328398 0.00767046399 -0.00317462254
  vertex 0.00688509969 0.00771088619 -0.00296060112
  endloop
 endfacet

 facet normal 0.36734134 -0.927803516 -0.0651227757
  outer loop
  vertex 0.00654916838 0.00754919602 -0.00255190511
  vertex 0.00688509969 0.00771088619 -0.00296060112
  vertex 0.00690067187 0.00768836495 -0.00255190511
  endloop
 endfacet

 facet normal 0.368122548 -0.929776609 0.00117913482
  outer loop
  vertex 0.00654916838 0.00754919602 -0.00255190511
  vertex 0.00690067187 0.00768836495 -0.00255190511
  vertex 0.00690011634 0.00768894237 -0.0019231427
  endloop
 endfacet

 facet normal 0.364647985 -0.93113929 0.00342134666
  outer loop
  vertex 0.00654916838 0.00754919602 -0.00255190511
  vertex 0.00690011634 0.00768894237 -0.0019231427
  vertex 0.00654916838 0.00755150616 -0.0019231427
  endloop
 endfacet

 facet normal 0.363805503 -0.92898792 0.0680232048
  outer loop
  vertex 0.00654916838 0.00755150616 -0.0019231427
  vertex 0.00690011634 0.00768894237 -0.0019231427
  vertex 0.00688426476 0.00771204103 -0.00152291183
  endloop
 endfacet

 facet normal 0.227468297 -0.954581559 0.19243823
  outer loop
  vertex 0.00654916838 0.00755150616 -0.0019231427
  vertex 0.00688426476 0.00771204103 -0.00152291183
  vertex 0.00654916838 0.00765949162 -0.00138748589
  endloop
 endfacet

 facet normal 0.155197889 -0.968401313 0.195224226
  outer loop
  vertex 0.00654916838 0.00755150616 -0.0019231427
  vertex 0.00654916838 0.00765949162 -0.00138748589
  vertex 0.00410838798 0.00741580175 -0.000655945216
  endloop
 endfacet

 facet normal 0.137304157 -0.977557361 0.159778193
  outer loop
  vertex 0.00654916838 0.00755150616 -0.0019231427
  vertex 0.00410838798 0.00741580175 -0.000655945216
  vertex 0.00592013309 0.00746315392 -0.0019231427
  endloop
 endfacet

 facet normal 0.0446296856 -0.998652339 0.0264908206
  outer loop
  vertex 0.00592013309 0.00746315392 -0.0019231427
  vertex 0.00410838798 0.00741580175 -0.000655945216
  vertex 0.00410838798 0.00741464691 -0.000699474534
  endloop
 endfacet

 facet normal 0.0356960557 -0.999275088 0.0132391341
  outer loop
  vertex 0.00592013309 0.00746315392 -0.0019231427
  vertex 0.00410838798 0.00741464691 -0.000699474534
  vertex 0.00456222845 0.00741464691 -0.0019231427
  endloop
 endfacet

 facet normal 0.168594897 -0.691473424 -0.702453136
  outer loop
  vertex 0.00410838798 0.00796381477 -0.00442065997
  vertex 0.00410838798 0.00807006843 -0.00452525215
  vertex 0.00654916838 0.00831202511 -0.00417761877
  endloop
 endfacet

 facet normal 0.19399929 -0.783818126 -0.589909792
  outer loop
  vertex 0.00654916838 0.00831202511 -0.00417761877
  vertex 0.00686952658 0.00835764501 -0.00413288036
  vertex 0.00626301579 0.00773340696 -0.00350290863
  endloop
 endfacet

 facet normal 0.170375213 -0.629528284 -0.758067548
  outer loop
  vertex 0.00654916838 0.00831202511 -0.00417761877
  vertex 0.00410838798 0.00807006843 -0.00452525215
  vertex 0.00410838798 0.00873184204 -0.00507481396
  endloop
 endfacet

 facet normal 0.192952722 -0.5759238 -0.794406056
  outer loop
  vertex 0.00654916838 0.00831202511 -0.00417761877
  vertex 0.00410838798 0.00873184204 -0.00507481396
  vertex 0.00686952658 0.00835764501 -0.00413288036
  endloop
 endfacet

 facet normal 0.332204819 -0.846403062 -0.416223407
  outer loop
  vertex 0.00626301579 0.00773340696 -0.00350290863
  vertex 0.00668237312 0.00783735048 -0.00337957405
  vertex 0.00688509969 0.00771088619 -0.00296060112
  endloop
 endfacet

 facet normal 0.312590837 -0.864111543 -0.394459486
  outer loop
  vertex 0.00626301579 0.00773340696 -0.00350290863
  vertex 0.00688509969 0.00771088619 -0.00296060112
  vertex 0.00650328398 0.00767046399 -0.00317462254
  endloop
 endfacet

 facet normal 0.340857834 -0.811014593 -0.47546953
  outer loop
  vertex 0.00626301579 0.00773340696 -0.00350290863
  vertex 0.00686952658 0.00835764501 -0.00413288036
  vertex 0.00668237312 0.00783735048 -0.00337957405
  endloop
 endfacet

 facet normal 0.992170393 -0.116794638 -0.0442399681
  outer loop
  vertex 0.00688509969 0.00771088619 -0.00296060112
  vertex 0.00694349734 0.00805216748 -0.00255190511
  vertex 0.00690067187 0.00768836495 -0.00255190511
  endloop
 endfacet

 facet normal 0.420543134 -0.792017579 -0.442551345
  outer loop
  vertex 0.00688509969 0.00771088619 -0.00296060112
  vertex 0.00668237312 0.00783735048 -0.00337957405
  vertex 0.00686952658 0.00835764501 -0.00413288036
  endloop
 endfacet

 facet normal 0.982670844 -0.156467304 -0.0993790552
  outer loop
  vertex 0.00688509969 0.00771088619 -0.00296060112
  vertex 0.00686952658 0.00835764501 -0.00413288036
  vertex 0.00688954862 0.00827795547 -0.00380943017
  endloop
 endfacet

 facet normal 0.989267945 -0.123837523 -0.0775458068
  outer loop
  vertex 0.00688509969 0.00771088619 -0.00296060112
  vertex 0.00688954862 0.00827795547 -0.00380943017
  vertex 0.00691068359 0.00804927945 -0.00317462254
  endloop
 endfacet

 facet normal 0.992817819 -0.107832804 -0.0518160574
  outer loop
  vertex 0.00688509969 0.00771088619 -0.00296060112
  vertex 0.00691068359 0.00804927945 -0.00317462254
  vertex 0.00694349734 0.00805216748 -0.00255190511
  endloop
 endfacet

 facet normal 0.993142247 -0.116909042 0.000877872808
  outer loop
  vertex 0.00690067187 0.00768836495 -0.00255190511
  vertex 0.00694349734 0.00805216748 -0.00255190511
  vertex 0.00694294181 0.00805216748 -0.0019231427
  endloop
 endfacet

 facet normal 0.993120551 -0.117092311 0.00098537025
  outer loop
  vertex 0.00690067187 0.00768836495 -0.00255190511
  vertex 0.00694294181 0.00805216748 -0.0019231427
  vertex 0.00690011634 0.00768894237 -0.0019231427
  endloop
 endfacet

 facet normal 0.992067814 -0.1169682 0.046042487
  outer loop
  vertex 0.00690011634 0.00768894237 -0.0019231427
  vertex 0.00694294181 0.00805216748 -0.0019231427
  vertex 0.00688426476 0.00771204103 -0.00152291183
  endloop
 endfacet

 facet normal 0.992639005 -0.108911395 0.0529731028
  outer loop
  vertex 0.00688426476 0.00771204103 -0.00152291183
  vertex 0.00694294181 0.00805216748 -0.0019231427
  vertex 0.00691012712 0.00805332232 -0.00130586792
  endloop
 endfacet

 facet normal 0.9881019 -0.12856406 0.0844156966
  outer loop
  vertex 0.00688426476 0.00771204103 -0.00152291183
  vertex 0.00691012712 0.00805332232 -0.00130586792
  vertex 0.00688593369 0.00828777254 -0.000665618514
  endloop
 endfacet

 facet normal 0.981976628 -0.1577833 0.104050353
  outer loop
  vertex 0.00688426476 0.00771204103 -0.00152291183
  vertex 0.00688593369 0.00828777254 -0.000665618514
  vertex 0.00686479919 0.0083651524 -0.000348818692
  endloop
 endfacet

 facet normal 0.358736604 -0.813186049 0.458297461
  outer loop
  vertex 0.00688426476 0.00771204103 -0.00152291183
  vertex 0.00686479919 0.0083651524 -0.000348818692
  vertex 0.00654916838 0.00781771727 -0.00107310456
  endloop
 endfacet

 facet normal 0.306299478 -0.850314379 0.427955836
  outer loop
  vertex 0.00688426476 0.00771204103 -0.00152291183
  vertex 0.00654916838 0.00781771727 -0.00107310456
  vertex 0.00654916838 0.00765949162 -0.00138748589
  endloop
 endfacet

 facet normal 0.218512833 -0.871661901 0.438699841
  outer loop
  vertex 0.00654916838 0.00765949162 -0.00138748589
  vertex 0.00654916838 0.00781771727 -0.00107310456
  vertex 0.00410838798 0.00741580175 -0.000655945216
  endloop
 endfacet

 facet normal 0.209847391 -0.793907583 0.570679367
  outer loop
  vertex 0.00410838798 0.00741580175 -0.000655945216
  vertex 0.00686479919 0.0083651524 -0.000348818692
  vertex 0.00410838798 0.0076687308 -0.000304079877
  endloop
 endfacet

 facet normal 0.224788904 -0.821963191 0.523303449
  outer loop
  vertex 0.00410838798 0.00741580175 -0.000655945216
  vertex 0.00654916838 0.00781771727 -0.00107310456
  vertex 0.00686479919 0.0083651524 -0.000348818692
  endloop
 endfacet

 facet normal 0.221078008 -0.490517139 -0.842921972
  outer loop
  vertex 0.00686952658 0.00835764501 -0.00413288036
  vertex 0.00410838798 0.00873184204 -0.00507481396
  vertex 0.00654916838 0.00912336167 -0.00466249185
  endloop
 endfacet

 facet normal 0.326139867 -0.44164452 -0.835812747
  outer loop
  vertex 0.00686952658 0.00835764501 -0.00413288036
  vertex 0.00654916838 0.00912336167 -0.00466249185
  vertex 0.0068770349 0.00956685375 -0.00476889824
  endloop
 endfacet

 facet normal 0.979682207 -0.0980926901 -0.174930394
  outer loop
  vertex 0.00686952658 0.00835764501 -0.00413288036
  vertex 0.0068770349 0.00956685375 -0.00476889824
  vertex 0.00688954862 0.00868160184 -0.00420240685
  endloop
 endfacet

 facet normal 0.990655541 -0.0842470676 -0.107257023
  outer loop
  vertex 0.00686952658 0.00835764501 -0.00413288036
  vertex 0.00688954862 0.00868160184 -0.00420240685
  vertex 0.00693209609 0.00868160184 -0.00380943017
  endloop
 endfacet

 facet normal 0.990714908 -0.104428038 -0.0870559067
  outer loop
  vertex 0.00686952658 0.00835764501 -0.00413288036
  vertex 0.00693209609 0.00868160184 -0.00380943017
  vertex 0.00688954862 0.00827795547 -0.00380943017
  endloop
 endfacet

 facet normal 0.191881359 -0.317313462 -0.928705513
  outer loop
  vertex 0.00410838798 0.00873184204 -0.00507481396
  vertex 0.00410838798 0.00931046065 -0.00527251232
  vertex 0.00654916838 0.00943807978 -0.0048118229
  endloop
 endfacet

 facet normal 0.216151536 -0.418547928 -0.882097661
  outer loop
  vertex 0.00410838798 0.00873184204 -0.00507481396
  vertex 0.00654916838 0.00943807978 -0.0048118229
  vertex 0.00654916838 0.00912336167 -0.00466249185
  endloop
 endfacet

 facet normal 0.994942129 -0.0859256461 -0.0520295799
  outer loop
  vertex 0.00694349734 0.00805216748 -0.00255190511
  vertex 0.00691068359 0.00804927945 -0.00317462254
  vertex 0.00693209609 0.00868160184 -0.00380943017
  endloop
 endfacet

 facet normal 0.999788821 -0.0132646365 -0.0157041624
  outer loop
  vertex 0.00694349734 0.00805216748 -0.00255190511
  vertex 0.00693209609 0.00868160184 -0.00380943017
  vertex 0.00694043934 0.00931046065 -0.00380943017
  endloop
 endfacet

 facet normal 0.99997586 -0.00353868376 -0.00597272534
  outer loop
  vertex 0.00694349734 0.00805216748 -0.00255190511
  vertex 0.00694043934 0.00931046065 -0.00380943017
  vertex 0.0069471132 0.0111964568 -0.00380943017
  endloop
 endfacet

 facet normal 0.999998093 -0.00157896976 -0.00107263238
  outer loop
  vertex 0.00694349734 0.00805216748 -0.00255190511
  vertex 0.0069471132 0.0111964568 -0.00380943017
  vertex 0.00694878167 0.0118258912 -0.00318066776
  endloop
 endfacet

 facet normal 0.999998987 -0.00142475823 -0.000147073937
  outer loop
  vertex 0.00694349734 0.00805216748 -0.00255190511
  vertex 0.00694878167 0.0118258912 -0.00318066776
  vertex 0.0069490592 0.0118258912 -0.0012943811
  endloop
 endfacet

 facet normal 0.999998987 -0.0014366121 -0.00011150146
  outer loop
  vertex 0.00694349734 0.00805216748 -0.00255190511
  vertex 0.0069490592 0.0118258912 -0.0012943811
  vertex 0.00694822473 0.0111964568 -0.000665618514
  endloop
 endfacet

 facet normal 0.999997556 -0.0020337794 0.000883932575
  outer loop
  vertex 0.00694349734 0.00805216748 -0.00255190511
  vertex 0.00694822473 0.0111964568 -0.000665618514
  vertex 0.00694294181 0.00805216748 -0.0019231427
  endloop
 endfacet

 facet normal 0.992002428 -0.104563758 -0.0706938803
  outer loop
  vertex 0.00688954862 0.00827795547 -0.00380943017
  vertex 0.00693209609 0.00868160184 -0.00380943017
  vertex 0.00691068359 0.00804927945 -0.00317462254
  endloop
 endfacet

 facet normal 0.999993622 -0.00265368726 0.00243395497
  outer loop
  vertex 0.00694294181 0.00805216748 -0.0019231427
  vertex 0.00694822473 0.0111964568 -0.000665618514
  vertex 0.00694321981 0.00931046065 -0.000665618514
  endloop
 endfacet

 facet normal 0.999476492 -0.0229831655 0.0227759797
  outer loop
  vertex 0.00694294181 0.00805216748 -0.0019231427
  vertex 0.00694321981 0.00931046065 -0.000665618514
  vertex 0.00692875916 0.00868160184 -0.000665618514
  endloop
 endfacet

 facet normal 0.995087862 -0.0835771337 0.0530558936
  outer loop
  vertex 0.00694294181 0.00805216748 -0.0019231427
  vertex 0.00692875916 0.00868160184 -0.000665618514
  vertex 0.00691012712 0.00805332232 -0.00130586792
  endloop
 endfacet

 facet normal 0.991194129 -0.107783392 0.0769229457
  outer loop
  vertex 0.00691012712 0.00805332232 -0.00130586792
  vertex 0.00692875916 0.00868160184 -0.000665618514
  vertex 0.00688593369 0.00828777254 -0.000665618514
  endloop
 endfacet

 facet normal 0.98989296 -0.107641898 0.0923312232
  outer loop
  vertex 0.00688593369 0.00828777254 -0.000665618514
  vertex 0.00692875916 0.00868160184 -0.000665618514
  vertex 0.00686479919 0.0083651524 -0.000348818692
  endloop
 endfacet

 facet normal 0.989826262 -0.0886459872 0.111292712
  outer loop
  vertex 0.00686479919 0.0083651524 -0.000348818692
  vertex 0.00692875916 0.00868160184 -0.000665618514
  vertex 0.00688593369 0.00868160184 -0.000284733309
  endloop
 endfacet

 facet normal 0.976570606 -0.103438124 0.188707083
  outer loop
  vertex 0.00686479919 0.0083651524 -0.000348818692
  vertex 0.00688593369 0.00868160184 -0.000284733309
  vertex 0.00687175151 0.00959110726 0.000287198549
  endloop
 endfacet

 facet normal 0.288914084 -0.442161322 0.849130154
  outer loop
  vertex 0.00686479919 0.0083651524 -0.000348818692
  vertex 0.00687175151 0.00959110726 0.000287198549
  vertex 0.00654916838 0.00916205253 0.000173537701
  endloop
 endfacet

 facet normal 0.240520507 -0.463686824 0.852727652
  outer loop
  vertex 0.00686479919 0.0083651524 -0.000348818692
  vertex 0.00654916838 0.00916205253 0.000173537701
  vertex 0.00410838798 0.00905117951 0.000801695278
  endloop
 endfacet

 facet normal 0.220326871 -0.50959909 0.831724048
  outer loop
  vertex 0.00686479919 0.0083651524 -0.000348818692
  vertex 0.00410838798 0.00905117951 0.000801695278
  vertex 0.00410838798 0.00836342014 0.000380303798
  endloop
 endfacet

 facet normal 0.185595021 -0.689610243 0.699994445
  outer loop
  vertex 0.00686479919 0.0083651524 -0.000348818692
  vertex 0.00410838798 0.00836342014 0.000380303798
  vertex 0.00410838798 0.0076687308 -0.000304079877
  endloop
 endfacet

 facet normal 0.275555342 -0.412085652 -0.868478417
  outer loop
  vertex 0.00654916838 0.00912336167 -0.00466249185
  vertex 0.00654916838 0.00943807978 -0.0048118229
  vertex 0.0068770349 0.00956685375 -0.00476889824
  endloop
 endfacet

 facet normal 0.191240832 -0.164347142 -0.967686355
  outer loop
  vertex 0.0068770349 0.00956685375 -0.00476889824
  vertex 0.00654916838 0.00943807978 -0.0048118229
  vertex 0.00410838798 0.00931046065 -0.00527251232
  endloop
 endfacet

 facet normal 0.190572396 -0.153317705 -0.969626606
  outer loop
  vertex 0.0068770349 0.00956685375 -0.00476889824
  vertex 0.00410838798 0.00931046065 -0.00527251232
  vertex 0.00654916838 0.00993931759 -0.0048922319
  endloop
 endfacet

 facet normal 0.298833579 -0.0524680912 -0.952861786
  outer loop
  vertex 0.0068770349 0.00956685375 -0.00476889824
  vertex 0.00654916838 0.00993931759 -0.0048922319
  vertex 0.00689038308 0.00993931759 -0.00478522107
  endloop
 endfacet

 facet normal 0.991614521 -0.0409092829 -0.122584932
  outer loop
  vertex 0.0068770349 0.00956685375 -0.00476889824
  vertex 0.00689038308 0.00993931759 -0.00478522107
  vertex 0.00693320855 0.00993931759 -0.00443879748
  endloop
 endfacet

 facet normal 0.992082179 -0.0460771881 -0.116833396
  outer loop
  vertex 0.0068770349 0.00956685375 -0.00476889824
  vertex 0.00693320855 0.00993931759 -0.00443879748
  vertex 0.00690595619 0.00933875609 -0.00443335576
  endloop
 endfacet

 facet normal 0.988383234 -0.0717608407 -0.133974016
  outer loop
  vertex 0.0068770349 0.00956685375 -0.00476889824
  vertex 0.00690595619 0.00933875609 -0.00443335576
  vertex 0.00688954862 0.00868160184 -0.00420240685
  endloop
 endfacet

 facet normal 0.992244482 -0.0625283346 -0.107429057
  outer loop
  vertex 0.00688954862 0.00868160184 -0.00420240685
  vertex 0.00690595619 0.00933875609 -0.00443335576
  vertex 0.00693209609 0.00868160184 -0.00380943017
  endloop
 endfacet

 facet normal 0.99487251 -0.0459614843 -0.0900900066
  outer loop
  vertex 0.00693209609 0.00868160184 -0.00380943017
  vertex 0.00690595619 0.00933875609 -0.00443335576
  vertex 0.00693320855 0.00993931759 -0.00443879748
  endloop
 endfacet

 facet normal 0.999606073 -0.0132622113 -0.0247360002
  outer loop
  vertex 0.00693209609 0.00868160184 -0.00380943017
  vertex 0.00693320855 0.00993931759 -0.00443879748
  vertex 0.00694043934 0.00931046065 -0.00380943017
  endloop
 endfacet

 facet normal 0.176249549 -0.0913973004 -0.980093181
  outer loop
  vertex 0.00410838798 0.00931046065 -0.00527251232
  vertex 0.00410838798 0.00993931759 -0.00533115584
  vertex 0.00654916838 0.00993931759 -0.0048922319
  endloop
 endfacet

 facet normal 0.99988091 -0.00353834755 -0.0150231635
  outer loop
  vertex 0.00694043934 0.00931046065 -0.00380943017
  vertex 0.00693320855 0.00993931759 -0.00443879748
  vertex 0.0069471132 0.0111964568 -0.00380943017
  endloop
 endfacet

 facet normal 0.99909085 0.00972934254 -0.0415074639
  outer loop
  vertex 0.0069471132 0.0111964568 -0.00380943017
  vertex 0.00693320855 0.00993931759 -0.00443879748
  vertex 0.00692709023 0.010567599 -0.00443879748
  endloop
 endfacet

 facet normal 0.995742798 0.047407575 -0.0790487006
  outer loop
  vertex 0.0069471132 0.0111964568 -0.00380943017
  vertex 0.00692709023 0.010567599 -0.00443879748
  vertex 0.0069012288 0.0111450627 -0.00441824179
  endloop
 endfacet

 facet normal 0.995630622 0.0494478792 -0.0792124867
  outer loop
  vertex 0.0069471132 0.0111964568 -0.00380943017
  vertex 0.0069012288 0.0111450627 -0.00441824179
  vertex 0.00691485452 0.0118333986 -0.00381729007
  endloop
 endfacet

 facet normal 0.997371793 0.0498648956 -0.0525645092
  outer loop
  vertex 0.0069471132 0.0111964568 -0.00380943017
  vertex 0.00691485452 0.0118333986 -0.00381729007
  vertex 0.00694878167 0.0118258912 -0.00318066776
  endloop
 endfacet

 facet normal 0.994671047 0.0890499279 -0.0519584939
  outer loop
  vertex 0.00694878167 0.0118258912 -0.00318066776
  vertex 0.00691485452 0.0118333986 -0.00381729007
  vertex 0.00690623373 0.0123011451 -0.00318066776
  endloop
 endfacet

 facet normal 0.995857656 0.0891561732 -0.0178550128
  outer loop
  vertex 0.00694878167 0.0118258912 -0.00318066776
  vertex 0.00690623373 0.0123011451 -0.00318066776
  vertex 0.00690150633 0.0124836229 -0.00253316318
  endloop
 endfacet

 facet normal 0.997416496 0.0718352422 -0.000146694132
  outer loop
  vertex 0.00694878167 0.0118258912 -0.00318066776
  vertex 0.00690150633 0.0124836229 -0.00253316318
  vertex 0.0069490592 0.0118258912 -0.0012943811
  endloop
 endfacet

 facet normal 0.995694041 0.0908264667 0.0185471009
  outer loop
  vertex 0.0069490592 0.0118258912 -0.0012943811
  vertex 0.00690150633 0.0124801584 -0.00194551272
  vertex 0.00690623373 0.01229537 -0.0012943811
  endloop
 endfacet

 facet normal 0.994421601 0.0907103866 0.0538262688
  outer loop
  vertex 0.0069490592 0.0118258912 -0.0012943811
  vertex 0.00690623373 0.01229537 -0.0012943811
  vertex 0.00691485452 0.011827047 -0.000664409017
  endloop
 endfacet

 facet normal 0.997148752 0.0526649877 0.0540441386
  outer loop
  vertex 0.0069490592 0.0118258912 -0.0012943811
  vertex 0.00691485452 0.011827047 -0.000664409017
  vertex 0.00694822473 0.0111964568 -0.000665618514
  endloop
 endfacet

 facet normal 0.997337997 0.0729155988 0.000429935229
  outer loop
  vertex 0.0069490592 0.0118258912 -0.0012943811
  vertex 0.00690150633 0.0124836229 -0.00253316318
  vertex 0.00690150633 0.0124801584 -0.00194551272
  endloop
 endfacet

 facet normal 0.995363951 0.0525196418 0.0805750191
  outer loop
  vertex 0.00694822473 0.0111964568 -0.000665618514
  vertex 0.00691485452 0.011827047 -0.000664409017
  vertex 0.00690623373 0.0111964568 -0.000146889244
  endloop
 endfacet

 facet normal 0.996328175 0.0287311766 0.0806530714
  outer loop
  vertex 0.00694822473 0.0111964568 -0.000665618514
  vertex 0.00690623373 0.0111964568 -0.000146889244
  vertex 0.00690873712 0.0106276544 2.48113138e-05
  endloop
 endfacet

 facet normal 0.997179031 0.0189360902 0.0726321787
  outer loop
  vertex 0.00694822473 0.0111964568 -0.000665618514
  vertex 0.00690873712 0.0106276544 2.48113138e-05
  vertex 0.00692625577 0.00993931759 -3.62514693e-05
  endloop
 endfacet

 facet normal 0.999558628 -0.00265253312 0.0295927059
  outer loop
  vertex 0.00694822473 0.0111964568 -0.000665618514
  vertex 0.00692625577 0.00993931759 -3.62514693e-05
  vertex 0.00694321981 0.00931046065 -0.000665618514
  endloop
 endfacet

 facet normal 0.998492479 -0.0229605399 0.0498555414
  outer loop
  vertex 0.00694321981 0.00931046065 -0.000665618514
  vertex 0.00692625577 0.00993931759 -3.62514693e-05
  vertex 0.00692875916 0.00868160184 -0.000665618514
  endloop
 endfacet

 facet normal 0.995276093 -0.0418542586 0.0875996202
  outer loop
  vertex 0.00692875916 0.00868160184 -0.000665618514
  vertex 0.00692625577 0.00993931759 -3.62514693e-05
  vertex 0.0069026188 0.00935319252 -4.77383182e-05
  endloop
 endfacet

 facet normal 0.99170202 -0.0639856607 0.111503616
  outer loop
  vertex 0.00692875916 0.00868160184 -0.000665618514
  vertex 0.0069026188 0.00935319252 -4.77383182e-05
  vertex 0.00688593369 0.00868160184 -0.000284733309
  endloop
 endfacet

 facet normal 0.986607075 -0.075529322 0.144574434
  outer loop
  vertex 0.00688593369 0.00868160184 -0.000284733309
  vertex 0.0069026188 0.00935319252 -4.77383182e-05
  vertex 0.00687175151 0.00959110726 0.000287198549
  endloop
 endfacet

 facet normal 0.266177654 -0.0492546037 0.962664783
  outer loop
  vertex 0.00687175151 0.00959110726 0.000287198549
  vertex 0.00688370876 0.00993931759 0.000301708496
  vertex 0.00654916838 0.00993931759 0.000394209201
  endloop
 endfacet

 facet normal 0.202840254 -0.111073457 0.972891808
  outer loop
  vertex 0.00687175151 0.00959110726 0.000287198549
  vertex 0.00654916838 0.00993931759 0.000394209201
  vertex 0.00410838798 0.00905117951 0.000801695278
  endloop
 endfacet

 facet normal 0.241721451 -0.390798897 0.8881706
  outer loop
  vertex 0.00687175151 0.00959110726 0.000287198549
  vertex 0.00410838798 0.00905117951 0.000801695278
  vertex 0.00654916838 0.00947676972 0.000324682653
  endloop
 endfacet

 facet normal 0.249993309 -0.419172049 0.872810483
  outer loop
  vertex 0.00687175151 0.00959110726 0.000287198549
  vertex 0.00654916838 0.00947676972 0.000324682653
  vertex 0.00654916838 0.00916205253 0.000173537701
  endloop
 endfacet

 facet normal 0.991687655 -0.0423737578 0.121491335
  outer loop
  vertex 0.00687175151 0.00959110726 0.000287198549
  vertex 0.0069026188 0.00935319252 -4.77383182e-05
  vertex 0.00692625577 0.00993931759 -3.62514693e-05
  endloop
 endfacet

 facet normal 0.991403997 -0.0392451249 0.124811672
  outer loop
  vertex 0.00687175151 0.00959110726 0.000287198549
  vertex 0.00692625577 0.00993931759 -3.62514693e-05
  vertex 0.00688370876 0.00993931759 0.000301708496
  endloop
 endfacet

 facet normal 0.244048283 -0.419828147 0.874176621
  outer loop
  vertex 0.00654916838 0.00916205253 0.000173537701
  vertex 0.00654916838 0.00947676972 0.000324682653
  vertex 0.00410838798 0.00905117951 0.000801695278
  endloop
 endfacet

 facet normal 0.183544382 -0.0540847555 0.981522501
  outer loop
  vertex 0.00410838798 0.00905117951 0.000801695278
  vertex 0.00654916838 0.00993931759 0.000394209201
  vertex 0.00410838798 0.00977531821 0.000841597444
  endloop
 endfacet

 facet normal 0.277041882 0.0258800909 -0.96050936
  outer loop
  vertex 0.00654916838 0.00993931759 -0.0048922319
  vertex 0.00654916838 0.010567599 -0.00487530325
  vertex 0.00688454276 0.010567599 -0.0047785705
  endloop
 endfacet

 facet normal 0.29922089 0.0128809083 -0.954096913
  outer loop
  vertex 0.00654916838 0.00993931759 -0.0048922319
  vertex 0.00688454276 0.010567599 -0.0047785705
  vertex 0.00689038308 0.00993931759 -0.00478522107
  endloop
 endfacet

 facet normal 0.176990345 0 -0.984212697
  outer loop
  vertex 0.00654916838 0.00993931759 -0.0048922319
  vertex 0.00410838798 0.00993931759 -0.00533115584
  vertex 0.00410838798 0.010113134 -0.00533115584
  endloop
 endfacet

 facet normal 0.177877977 0.0130885597 -0.983965516
  outer loop
  vertex 0.00654916838 0.00993931759 -0.0048922319
  vertex 0.00410838798 0.010113134 -0.00533115584
  vertex 0.00410838798 0.010567599 -0.00532511063
  endloop
 endfacet

 facet normal 0.180771738 0.0248501841 -0.98321104
  outer loop
  vertex 0.00654916838 0.00993931759 -0.0048922319
  vertex 0.00410838798 0.010567599 -0.00532511063
  vertex 0.00410838798 0.0107350638 -0.00532087777
  endloop
 endfacet

 facet normal 0.181281731 0.0264880881 -0.983074427
  outer loop
  vertex 0.00654916838 0.00993931759 -0.0048922319
  vertex 0.00410838798 0.0107350638 -0.00532087777
  vertex 0.00654916838 0.010567599 -0.00487530325
  endloop
 endfacet

 facet normal 0.992195606 0.0105377967 -0.124244772
  outer loop
  vertex 0.00689038308 0.00993931759 -0.00478522107
  vertex 0.00688454276 0.010567599 -0.0047785705
  vertex 0.00692709023 0.010567599 -0.00443879748
  endloop
 endfacet

 facet normal 0.992398977 0.00966417603 -0.122681908
  outer loop
  vertex 0.00689038308 0.00993931759 -0.00478522107
  vertex 0.00692709023 0.010567599 -0.00443879748
  vertex 0.00693320855 0.00993931759 -0.00443879748
  endloop
 endfacet

 facet normal 0.991068482 0.0488020293 -0.124103628
  outer loop
  vertex 0.00692709023 0.010567599 -0.00443879748
  vertex 0.00688454276 0.010567599 -0.0047785705
  vertex 0.0069012288 0.0111450627 -0.00441824179
  endloop
 endfacet

 facet normal 0.993666589 0.0620942935 -0.0936532989
  outer loop
  vertex 0.0069012288 0.0111450627 -0.00441824179
  vertex 0.00689205108 0.0116283996 -0.00419515185
  vertex 0.00691485452 0.0118333986 -0.00381729007
  endloop
 endfacet

 facet normal 0.989956319 0.053141173 -0.131006062
  outer loop
  vertex 0.0069012288 0.0111450627 -0.00441824179
  vertex 0.00688454276 0.010567599 -0.0047785705
  vertex 0.00686924811 0.010900218 -0.00475922367
  endloop
 endfacet

 facet normal 0.983186841 0.0915838331 -0.157975137
  outer loop
  vertex 0.0069012288 0.0111450627 -0.00441824179
  vertex 0.00686924811 0.010900218 -0.00475922367
  vertex 0.00689205108 0.0116283996 -0.00419515185
  endloop
 endfacet

 facet normal 0.982156515 0.133991495 -0.131964713
  outer loop
  vertex 0.00691485452 0.0118333986 -0.00381729007
  vertex 0.00689205108 0.0116283996 -0.00419515185
  vertex 0.00689205108 0.0122023979 -0.0036123374
  endloop
 endfacet

 facet normal 0.994394481 0.0911823362 -0.0535289794
  outer loop
  vertex 0.00691485452 0.0118333986 -0.00381729007
  vertex 0.00689205108 0.0122023979 -0.0036123374
  vertex 0.00690623373 0.0123011451 -0.00318066776
  endloop
 endfacet

 facet normal 0.96988672 0.228557885 -0.0841492563
  outer loop
  vertex 0.00690623373 0.0123011451 -0.00318066776
  vertex 0.00689205108 0.0122023979 -0.0036123374
  vertex 0.00686980411 0.0127758197 -0.00231128302
  endloop
 endfacet

 facet normal 0.99110353 0.129816949 -0.0293486603
  outer loop
  vertex 0.00690623373 0.0123011451 -0.00318066776
  vertex 0.00686980411 0.0127758197 -0.00231128302
  vertex 0.00690150633 0.0124836229 -0.00253316318
  endloop
 endfacet

 facet normal 0.994165778 0.107863232 0
  outer loop
  vertex 0.00690150633 0.0124836229 -0.00253316318
  vertex 0.00686980411 0.0127758197 -0.00231128302
  vertex 0.00686980411 0.0127758197 -0.00216981187
  endloop
 endfacet

 facet normal 0.994249463 0.10708712 0.000631422154
  outer loop
  vertex 0.00690150633 0.0124836229 -0.00253316318
  vertex 0.00686980411 0.0127758197 -0.00216981187
  vertex 0.00690150633 0.0124801584 -0.00194551272
  endloop
 endfacet

 facet normal 0.991278291 0.128494039 0.0292690769
  outer loop
  vertex 0.00690150633 0.0124801584 -0.00194551272
  vertex 0.00686980411 0.0127758197 -0.00216981187
  vertex 0.00690623373 0.01229537 -0.0012943811
  endloop
 endfacet

 facet normal 0.994383276 0.0910017416 0.0540433787
  outer loop
  vertex 0.00690623373 0.01229537 -0.0012943811
  vertex 0.00689205108 0.0122000882 -0.000872989127
  vertex 0.00691485452 0.011827047 -0.000664409017
  endloop
 endfacet

 facet normal 0.970431507 0.226348147 0.0838404745
  outer loop
  vertex 0.00690623373 0.01229537 -0.0012943811
  vertex 0.00686980411 0.0127758197 -0.00216981187
  vertex 0.00689205108 0.0122000882 -0.000872989127
  endloop
 endfacet

 facet normal 0.993322194 0.0647753552 0.0954744145
  outer loop
  vertex 0.00691485452 0.011827047 -0.000664409017
  vertex 0.00689205108 0.0116180051 -0.000285337825
  vertex 0.00690623373 0.0111964568 -0.000146889244
  endloop
 endfacet

 facet normal 0.981909156 0.134528428 0.133253723
  outer loop
  vertex 0.00691485452 0.011827047 -0.000664409017
  vertex 0.00689205108 0.0122000882 -0.000872989127
  vertex 0.00689205108 0.0116180051 -0.000285337825
  endloop
 endfacet

 facet normal 0.980936885 0.0896303356 0.172421619
  outer loop
  vertex 0.00690623373 0.0111964568 -0.000146889244
  vertex 0.00689205108 0.0116180051 -0.000285337825
  vertex 0.00686118426 0.0108776968 0.000275107188
  endloop
 endfacet

 facet normal 0.987133205 0.0578423999 0.149071693
  outer loop
  vertex 0.00690623373 0.0111964568 -0.000146889244
  vertex 0.00686118426 0.0108776968 0.000275107188
  vertex 0.00688204076 0.0104578808 0.000299894455
  endloop
 endfacet

 facet normal 0.991730154 0.0410691351 0.121592797
  outer loop
  vertex 0.00690623373 0.0111964568 -0.000146889244
  vertex 0.00688204076 0.0104578808 0.000299894455
  vertex 0.00690873712 0.0106276544 2.48113138e-05
  endloop
 endfacet

 facet normal 0.994209051 0.0158751961 0.106284335
  outer loop
  vertex 0.00690873712 0.0106276544 2.48113138e-05
  vertex 0.00688204076 0.0104578808 0.000299894455
  vertex 0.00692625577 0.00993931759 -3.62514693e-05
  endloop
 endfacet

 facet normal 0.99216187 0.00362888142 0.124907069
  outer loop
  vertex 0.00692625577 0.00993931759 -3.62514693e-05
  vertex 0.00688204076 0.0104578808 0.000299894455
  vertex 0.00688370876 0.00993931759 0.000301708496
  endloop
 endfacet

 facet normal 0.266498744 0.0042290194 0.96382606
  outer loop
  vertex 0.00688370876 0.00993931759 0.000301708496
  vertex 0.00688204076 0.0104578808 0.000299894455
  vertex 0.00654916838 0.00993931759 0.000394209201
  endloop
 endfacet

 facet normal 0.181460261 0.0113552315 0.983332753
  outer loop
  vertex 0.00654916838 0.00993931759 0.000394209201
  vertex 0.00410838798 0.010567599 0.000837365806
  vertex 0.00410838798 0.00993931759 0.000844620983
  endloop
 endfacet

 facet normal 0.181442156 -0.0181271918 0.983234525
  outer loop
  vertex 0.00654916838 0.00993931759 0.000394209201
  vertex 0.00410838798 0.00993931759 0.000844620983
  vertex 0.00410838798 0.00977531821 0.000841597444
  endloop
 endfacet

 facet normal 0.227506444 0.0309788343 0.973283708
  outer loop
  vertex 0.00654916838 0.00993931759 0.000394209201
  vertex 0.00688204076 0.0104578808 0.000299894455
  vertex 0.00661062635 0.0106276544 0.000357934157
  endloop
 endfacet

 facet normal 0.187252045 0.035015814 0.981687665
  outer loop
  vertex 0.00654916838 0.00993931759 0.000394209201
  vertex 0.00661062635 0.0106276544 0.000357934157
  vertex 0.00410838798 0.010567599 0.000837365806
  endloop
 endfacet

 facet normal 0.276484311 0.0684685707 -0.958576322
  outer loop
  vertex 0.00654916838 0.010567599 -0.00487530325
  vertex 0.00686924811 0.010900218 -0.00475922367
  vertex 0.00688454276 0.010567599 -0.0047785705
  endloop
 endfacet

 facet normal 0.185642406 0.106728092 -0.976803958
  outer loop
  vertex 0.00654916838 0.010567599 -0.00487530325
  vertex 0.00410838798 0.0107350638 -0.00532087777
  vertex 0.00410838798 0.0114101181 -0.00524711981
  endloop
 endfacet

 facet normal 0.198429212 0.147217363 -0.96899581
  outer loop
  vertex 0.00654916838 0.010567599 -0.00487530325
  vertex 0.00410838798 0.0114101181 -0.00524711981
  vertex 0.00686924811 0.010900218 -0.00475922367
  endloop
 endfacet

 facet normal 0.713120639 0.499474257 -0.49191916
  outer loop
  vertex 0.00689205108 0.0116283996 -0.00419515185
  vertex 0.00671101641 0.0120476373 -0.00403191568
  vertex 0.00689205108 0.0122023979 -0.0036123374
  endloop
 endfacet

 facet normal 0.554287434 0.498789907 -0.666313827
  outer loop
  vertex 0.00689205108 0.0116283996 -0.00419515185
  vertex 0.00686924811 0.010900218 -0.00475922367
  vertex 0.00671101641 0.0120476373 -0.00403191568
  endloop
 endfacet

 facet normal 0.237561792 0.476150841 -0.846666932
  outer loop
  vertex 0.00686924811 0.010900218 -0.00475922367
  vertex 0.00410838798 0.0114101181 -0.00524711981
  vertex 0.00654916838 0.0113050193 -0.00462137954
  endloop
 endfacet

 facet normal 0.330056399 0.527537048 -0.782794595
  outer loop
  vertex 0.00686924811 0.010900218 -0.00475922367
  vertex 0.00654916838 0.0113050193 -0.00462137954
  vertex 0.00652052555 0.0118333986 -0.00427737413
  endloop
 endfacet

 facet normal 0.377599448 0.532325268 -0.757660031
  outer loop
  vertex 0.00686924811 0.010900218 -0.00475922367
  vertex 0.00652052555 0.0118333986 -0.00427737413
  vertex 0.00671101641 0.0120476373 -0.00403191568
  endloop
 endfacet

 facet normal 0.445582569 0.794536114 -0.412515044
  outer loop
  vertex 0.00689205108 0.0122023979 -0.0036123374
  vertex 0.00657336228 0.012615284 -0.00316132116
  vertex 0.00679944782 0.012712298 -0.00273025595
  endloop
 endfacet

 facet normal 0.822069049 0.526082397 -0.217806742
  outer loop
  vertex 0.00689205108 0.0122023979 -0.0036123374
  vertex 0.00679944782 0.012712298 -0.00273025595
  vertex 0.00686980411 0.0127758197 -0.00231128302
  endloop
 endfacet

 facet normal 0.417769849 0.778994739 -0.467584848
  outer loop
  vertex 0.00689205108 0.0122023979 -0.0036123374
  vertex 0.00671101641 0.0120476373 -0.00403191568
  vertex 0.00652052555 0.0122786239 -0.00381729007
  endloop
 endfacet

 facet normal 0.408020258 0.798478007 -0.44266519
  outer loop
  vertex 0.00689205108 0.0122023979 -0.0036123374
  vertex 0.00652052555 0.0122786239 -0.00381729007
  vertex 0.00657336228 0.012615284 -0.00316132116
  endloop
 endfacet

 facet normal 0.277079642 0.942005336 -0.189348623
  outer loop
  vertex 0.00686980411 0.0127758197 -0.00231128302
  vertex 0.00679944782 0.012712298 -0.00273025595
  vertex 0.00638009049 0.0127937216 -0.00293883658
  endloop
 endfacet

 facet normal 0.270179629 0.945088625 -0.183876246
  outer loop
  vertex 0.00686980411 0.0127758197 -0.00231128302
  vertex 0.00638009049 0.0127937216 -0.00293883658
  vertex 0.00657336228 0.0128173968 -0.00253316318
  endloop
 endfacet

 facet normal 0.201550707 0.97565484 -0.0864573494
  outer loop
  vertex 0.00686980411 0.0127758197 -0.00231128302
  vertex 0.00657336228 0.0128173968 -0.00253316318
  vertex 0.00410838798 0.0133111281 -0.00270788674
  endloop
 endfacet

 facet normal 0.192791998 0.981071591 -0.0181623157
  outer loop
  vertex 0.00686980411 0.0127758197 -0.00231128302
  vertex 0.00410838798 0.0133111281 -0.00270788674
  vertex 0.00410838798 0.0133140162 -0.00255190511
  endloop
 endfacet

 facet normal 0.191299081 0.981531799 0
  outer loop
  vertex 0.00686980411 0.0127758197 -0.00231128302
  vertex 0.00410838798 0.0133140162 -0.00255190511
  vertex 0.00686980411 0.0127758197 -0.00216981187
  endloop
 endfacet

 facet normal 0.262180328 0.947103024 0.185087353
  outer loop
  vertex 0.00686980411 0.0127758197 -0.00216981187
  vertex 0.00656752242 0.0128156655 -0.00194551272
  vertex 0.00637008017 0.0127919884 -0.00154467649
  endloop
 endfacet

 facet normal 0.293537706 0.932476163 0.210532278
  outer loop
  vertex 0.00686980411 0.0127758197 -0.00216981187
  vertex 0.00637008017 0.0127919884 -0.00154467649
  vertex 0.00678943703 0.0127065238 -0.00175083801
  endloop
 endfacet

 facet normal 0.775549769 0.581808746 0.24499236
  outer loop
  vertex 0.00686980411 0.0127758197 -0.00216981187
  vertex 0.00678943703 0.0127065238 -0.00175083801
  vertex 0.00689205108 0.0122000882 -0.000872989127
  endloop
 endfacet

 facet normal 0.190937921 0.981598377 0.00270396657
  outer loop
  vertex 0.00686980411 0.0127758197 -0.00216981187
  vertex 0.00410838798 0.0133140162 -0.00255190511
  vertex 0.00410838798 0.0133122839 -0.0019231427
  endloop
 endfacet

 facet normal 0.197903633 0.975764215 0.0933720395
  outer loop
  vertex 0.00686980411 0.0127758197 -0.00216981187
  vertex 0.00410838798 0.0133122839 -0.0019231427
  vertex 0.00656752242 0.0128156655 -0.00194551272
  endloop
 endfacet

 facet normal 0.440128058 0.799094915 0.409554183
  outer loop
  vertex 0.00689205108 0.0122000882 -0.000872989127
  vertex 0.00678943703 0.0127065238 -0.00175083801
  vertex 0.00656752242 0.012607201 -0.00131856382
  endloop
 endfacet

 facet normal 0.379635811 0.803840518 0.457948864
  outer loop
  vertex 0.00689205108 0.0122000882 -0.000872989127
  vertex 0.00656752242 0.012607201 -0.00131856382
  vertex 0.00649494119 0.0122688059 -0.000664409017
  endloop
 endfacet

 facet normal 0.399129003 0.762948036 0.508533597
  outer loop
  vertex 0.00689205108 0.0122000882 -0.000872989127
  vertex 0.00649494119 0.0122688059 -0.000664409017
  vertex 0.00666874647 0.0120372437 -0.000453410787
  endloop
 endfacet

 facet normal 0.626675606 0.553651154 0.54840517
  outer loop
  vertex 0.00689205108 0.0122000882 -0.000872989127
  vertex 0.00666874647 0.0120372437 -0.000453410787
  vertex 0.00689205108 0.0116180051 -0.000285337825
  endloop
 endfacet

 facet normal 0.447610557 0.527806699 0.721848249
  outer loop
  vertex 0.00689205108 0.0116180051 -0.000285337825
  vertex 0.00666874647 0.0120372437 -0.000453410787
  vertex 0.00686118426 0.0108776968 0.000275107188
  endloop
 endfacet

 facet normal 0.20910877 0.470834196 0.857081532
  outer loop
  vertex 0.00686118426 0.0108776968 0.000275107188
  vertex 0.00661062635 0.0111958785 0.000161445874
  vertex 0.00644210447 0.0109856827 0.000318031991
  endloop
 endfacet

 facet normal 0.206160456 0.455920756 0.865814149
  outer loop
  vertex 0.00686118426 0.0108776968 0.000275107188
  vertex 0.00644210447 0.0109856827 0.000318031991
  vertex 0.00410838798 0.0112051191 0.000758165959
  endloop
 endfacet

 facet normal 0.186822698 0.135119051 0.973057151
  outer loop
  vertex 0.00686118426 0.0108776968 0.000275107188
  vertex 0.00410838798 0.0112051191 0.000758165959
  vertex 0.00661062635 0.0106276544 0.000357934157
  endloop
 endfacet

 facet normal 0.249956191 0.0694395155 0.965763986
  outer loop
  vertex 0.00686118426 0.0108776968 0.000275107188
  vertex 0.00661062635 0.0106276544 0.000357934157
  vertex 0.00688204076 0.0104578808 0.000299894455
  endloop
 endfacet

 facet normal 0.391530246 0.535234392 0.748484075
  outer loop
  vertex 0.00686118426 0.0108776968 0.000275107188
  vertex 0.00666874647 0.0120372437 -0.000453410787
  vertex 0.00649494119 0.011827047 -0.000212184153
  endloop
 endfacet

 facet normal 0.308052868 0.525808573 0.792861164
  outer loop
  vertex 0.00686118426 0.0108776968 0.000275107188
  vertex 0.00649494119 0.011827047 -0.000212184153
  vertex 0.00661062635 0.0111958785 0.000161445874
  endloop
 endfacet

 facet normal 0.183985233 0.121178851 0.975430727
  outer loop
  vertex 0.00410838798 0.010567599 0.000837365806
  vertex 0.00661062635 0.0106276544 0.000357934157
  vertex 0.00410838798 0.0112051191 0.000758165959
  endloop
 endfacet

 facet normal 0.232875988 0.52168119 -0.820742071
  outer loop
  vertex 0.00410838798 0.0114101181 -0.00524711981
  vertex 0.00410838798 0.0121082719 -0.00480335858
  vertex 0.00654916838 0.0113050193 -0.00462137954
  endloop
 endfacet

 facet normal 0.326679409 0.571768761 -0.752569616
  outer loop
  vertex 0.00671101641 0.0120476373 -0.00403191568
  vertex 0.00652052555 0.0118333986 -0.00427737413
  vertex 0.00629193755 0.0121510038 -0.00413529854
  endloop
 endfacet

 facet normal 0.325009376 0.773547769 -0.544052064
  outer loop
  vertex 0.00671101641 0.0120476373 -0.00403191568
  vertex 0.00629193755 0.0121510038 -0.00413529854
  vertex 0.00652052555 0.0122786239 -0.00381729007
  endloop
 endfacet

 facet normal 0.237136811 0.53718853 -0.80944103
  outer loop
  vertex 0.00654916838 0.0113050193 -0.00462137954
  vertex 0.00410838798 0.0121082719 -0.00480335858
  vertex 0.00629193755 0.0121510038 -0.00413529854
  endloop
 endfacet

 facet normal 0.24671784 0.538103044 -0.805962503
  outer loop
  vertex 0.00654916838 0.0113050193 -0.00462137954
  vertex 0.00629193755 0.0121510038 -0.00413529854
  vertex 0.00652052555 0.0118333986 -0.00427737413
  endloop
 endfacet

 facet normal 0.354193658 0.855262399 -0.378250182
  outer loop
  vertex 0.00657336228 0.012615284 -0.00316132116
  vertex 0.00638009049 0.0127937216 -0.00293883658
  vertex 0.00679944782 0.012712298 -0.00273025595
  endloop
 endfacet

 facet normal 0.258821011 0.850728273 -0.457463712
  outer loop
  vertex 0.00657336228 0.012615284 -0.00316132116
  vertex 0.00652052555 0.0122786239 -0.00381729007
  vertex 0.00638009049 0.0127937216 -0.00293883658
  endloop
 endfacet

 facet normal 0.230673477 0.834353149 -0.500644147
  outer loop
  vertex 0.00652052555 0.0122786239 -0.00381729007
  vertex 0.00629193755 0.0121510038 -0.00413529854
  vertex 0.00410838798 0.0127931433 -0.0040712133
  endloop
 endfacet

 facet normal 0.230686337 0.834710956 -0.500041485
  outer loop
  vertex 0.00652052555 0.0122786239 -0.00381729007
  vertex 0.00410838798 0.0127931433 -0.0040712133
  vertex 0.00410838798 0.0132273957 -0.00334632257
  endloop
 endfacet

 facet normal 0.245476544 0.85285604 -0.460844696
  outer loop
  vertex 0.00652052555 0.0122786239 -0.00381729007
  vertex 0.00410838798 0.0132273957 -0.00334632257
  vertex 0.00638009049 0.0127937216 -0.00293883658
  endloop
 endfacet

 facet normal 0.212354824 0.964423776 -0.157455653
  outer loop
  vertex 0.00638009049 0.0127937216 -0.00293883658
  vertex 0.00410838798 0.0132273957 -0.00334632257
  vertex 0.00657336228 0.0128173968 -0.00253316318
  endloop
 endfacet

 facet normal 0.203468233 0.970768094 -0.127318487
  outer loop
  vertex 0.00657336228 0.0128173968 -0.00253316318
  vertex 0.00410838798 0.0132273957 -0.00334632257
  vertex 0.00410838798 0.0133111281 -0.00270788674
  endloop
 endfacet

 facet normal 0.197135061 0.969649673 0.144628495
  outer loop
  vertex 0.00656752242 0.0128156655 -0.00194551272
  vertex 0.00410838798 0.0133122839 -0.0019231427
  vertex 0.00410838798 0.0132193118 -0.00129982177
  endloop
 endfacet

 facet normal 0.199623734 0.967459381 0.155475855
  outer loop
  vertex 0.00656752242 0.0128156655 -0.00194551272
  vertex 0.00410838798 0.0132193118 -0.00129982177
  vertex 0.00637008017 0.0127919884 -0.00154467649
  endloop
 endfacet

 facet normal 0.212760985 0.852906942 0.476741523
  outer loop
  vertex 0.00637008017 0.0127919884 -0.00154467649
  vertex 0.00410838798 0.0132193118 -0.00129982177
  vertex 0.00649494119 0.0122688059 -0.000664409017
  endloop
 endfacet

 facet normal 0.25788638 0.846179426 0.46634227
  outer loop
  vertex 0.00637008017 0.0127919884 -0.00154467649
  vertex 0.00649494119 0.0122688059 -0.000664409017
  vertex 0.00656752242 0.012607201 -0.00131856382
  endloop
 endfacet

 facet normal 0.360721409 0.851391256 0.380805641
  outer loop
  vertex 0.00637008017 0.0127919884 -0.00154467649
  vertex 0.00656752242 0.012607201 -0.00131856382
  vertex 0.00678943703 0.0127065238 -0.00175083801
  endloop
 endfacet

 facet normal 0.331776798 0.759218693 0.559920669
  outer loop
  vertex 0.00649494119 0.0122688059 -0.000664409017
  vertex 0.00624938961 0.0121429199 -0.000348214176
  vertex 0.00666874647 0.0120372437 -0.000453410787
  endloop
 endfacet

 facet normal 0.204525292 0.844458044 0.495035499
  outer loop
  vertex 0.00649494119 0.0122688059 -0.000664409017
  vertex 0.00410838798 0.0132193118 -0.00129982177
  vertex 0.00624938961 0.0121429199 -0.000348214176
  endloop
 endfacet

 facet normal 0.332642287 0.579117417 0.744293094
  outer loop
  vertex 0.00666874647 0.0120372437 -0.000453410787
  vertex 0.00624938961 0.0121429199 -0.000348214176
  vertex 0.00649494119 0.011827047 -0.000212184153
  endloop
 endfacet

 facet normal 0.202456981 0.501387239 0.841202736
  outer loop
  vertex 0.00661062635 0.0111958785 0.000161445874
  vertex 0.00410838798 0.0118258912 0.000388163055
  vertex 0.00410838798 0.0112051191 0.000758165959
  endloop
 endfacet

 facet normal 0.206035122 0.472974837 0.856647134
  outer loop
  vertex 0.00661062635 0.0111958785 0.000161445874
  vertex 0.00410838798 0.0112051191 0.000758165959
  vertex 0.00644210447 0.0109856827 0.000318031991
  endloop
 endfacet

 facet normal 0.222783536 0.526515305 0.820456624
  outer loop
  vertex 0.00661062635 0.0111958785 0.000161445874
  vertex 0.00649494119 0.011827047 -0.000212184153
  vertex 0.00624938961 0.0121429199 -0.000348214176
  endloop
 endfacet

 facet normal 0.206724226 0.523632884 0.826482773
  outer loop
  vertex 0.00661062635 0.0111958785 0.000161445874
  vertex 0.00624938961 0.0121429199 -0.000348214176
  vertex 0.00410838798 0.0118258912 0.000388163055
  endloop
 endfacet

 facet normal 0.191125304 0.716828108 -0.670543551
  outer loop
  vertex 0.00410838798 0.0121082719 -0.00480335858
  vertex 0.00410838798 0.0127931433 -0.0040712133
  vertex 0.00629193755 0.0121510038 -0.00413529854
  endloop
 endfacet

 facet normal 0.20040457 0.841767728 0.501263499
  outer loop
  vertex 0.00410838798 0.0132193118 -0.00129982177
  vertex 0.00410838798 0.0128416512 -0.000665618514
  vertex 0.00624938961 0.0121429199 -0.000348214176
  endloop
 endfacet

 facet normal 0.177499637 0.802587748 0.569514513
  outer loop
  vertex 0.00624938961 0.0121429199 -0.000348214176
  vertex 0.00410838798 0.0128416512 -0.000665618514
  vertex 0.00410838798 0.0124328062 -8.94540644e-05
  endloop
 endfacet

 facet normal 0.178336069 0.698598325 0.69293344
  outer loop
  vertex 0.00624938961 0.0121429199 -0.000348214176
  vertex 0.00410838798 0.0124328062 -8.94540644e-05
  vertex 0.00410838798 0.0124016227 -5.8016125e-05
  endloop
 endfacet

 facet normal 0.178252786 0.602750421 0.777764678
  outer loop
  vertex 0.00624938961 0.0121429199 -0.000348214176
  vertex 0.00410838798 0.0124016227 -5.8016125e-05
  vertex 0.00410838798 0.0118258912 0.000388163055
  endloop
 endfacet

endsolid AssimpScene
