solid AssimpScene
 facet normal 0 0 1
  outer loop
  vertex 0.027008377 -0.0253046788 0.0156386849
  vertex 0.0275600199 -0.0253002718 0.0156386849
  vertex 0.0281776842 -0.0252914578 0.0156386849
  endloop
 endfacet

 facet normal 0 0 1
  outer loop
  vertex 0.027008377 -0.0253046788 0.0156386849
  vertex 0.0281776842 -0.0252914578 0.0156386849
  vertex 0.0287704058 -0.025259139 0.0156386849
  endloop
 endfacet

 facet normal 0 0 1
  outer loop
  vertex 0.027008377 -0.0253046788 0.0156386849
  vertex 0.0287704058 -0.025259139 0.0156386849
  vertex 0.0295699928 -0.0250064712 0.0156386849
  endloop
 endfacet

 facet normal 0 0 1
  outer loop
  vertex 0.027008377 -0.0253046788 0.0156386849
  vertex 0.0295699928 -0.0250064712 0.0156386849
  vertex 0.0308273267 -0.0242499374 0.0156386849
  endloop
 endfacet

 facet normal 0 0 1
  outer loop
  vertex 0.027008377 -0.0253046788 0.0156386849
  vertex 0.0308273267 -0.0242499374 0.0156386849
  vertex 0.0310473982 -0.0240516216 0.0156386849
  endloop
 endfacet

 facet normal 0 0 1
  outer loop
  vertex 0.027008377 -0.0253046788 0.0156386849
  vertex 0.0310473982 -0.0240516216 0.0156386849
  vertex 0.0316973366 -0.0234331731 0.0156386849
  endloop
 endfacet

 facet normal 0 0 1
  outer loop
  vertex 0.027008377 -0.0253046788 0.0156386849
  vertex 0.0316973366 -0.0234331731 0.0156386849
  vertex 0.0323238038 -0.0228000358 0.0156386849
  endloop
 endfacet

 facet normal 0 0 1
  outer loop
  vertex 0.027008377 -0.0253046788 0.0156386849
  vertex 0.0323238038 -0.0228000358 0.0156386849
  vertex 0.0328974538 -0.022089038 0.0156386849
  endloop
 endfacet

 facet normal 0 0 1
  outer loop
  vertex 0.027008377 -0.0253046788 0.0156386849
  vertex 0.0328974538 -0.022089038 0.0156386849
  vertex 0.0335899405 -0.0209138393 0.0156386849
  endloop
 endfacet

 facet normal 0 0 1
  outer loop
  vertex 0.027008377 -0.0253046788 0.0156386849
  vertex 0.0335899405 -0.0209138393 0.0156386849
  vertex 0.0341122411 -0.0200001206 0.0156386849
  endloop
 endfacet

 facet normal 0 0 1
  outer loop
  vertex 0.027008377 -0.0253046788 0.0156386849
  vertex 0.0341122411 -0.0200001206 0.0156386849
  vertex 0.0341503844 -0.0198796634 0.0156386849
  endloop
 endfacet

 facet normal 0 0 1
  outer loop
  vertex 0.027008377 -0.0253046788 0.0156386849
  vertex 0.0341503844 -0.0198796634 0.0156386849
  vertex 0.0342692249 -0.0193831418 0.0156386849
  endloop
 endfacet

 facet normal 0 0 1
  outer loop
  vertex 0.027008377 -0.0253046788 0.0156386849
  vertex 0.0342692249 -0.0193831418 0.0156386849
  vertex 0.0343983322 -0.0187426582 0.0156386849
  endloop
 endfacet

 facet normal 0 0 1
  outer loop
  vertex 0.027008377 -0.0253046788 0.0156386849
  vertex 0.0343983322 -0.0187426582 0.0156386849
  vertex 0.034501031 -0.0181109887 0.0156386849
  endloop
 endfacet

 facet normal 0 0 1
  outer loop
  vertex 0.027008377 -0.0253046788 0.0156386849
  vertex 0.034501031 -0.0181109887 0.0156386849
  vertex 0.034501031 -0.0174851939 0.0156386849
  endloop
 endfacet

 facet normal 0 0 1
  outer loop
  vertex 0.027008377 -0.0253046788 0.0156386849
  vertex 0.034501031 -0.0174851939 0.0156386849
  vertex 0.0344306082 -0.0168623384 0.0156386849
  endloop
 endfacet

 facet normal 0 0 1
  outer loop
  vertex 0.027008377 -0.0253046788 0.0156386849
  vertex 0.0344306082 -0.0168623384 0.0156386849
  vertex 0.0344262086 -0.0168285519 0.0156386849
  endloop
 endfacet

 facet normal 0 0 1
  outer loop
  vertex 0.027008377 -0.0253046788 0.0156386849
  vertex 0.0344262086 -0.0168285519 0.0156386849
  vertex 0.0341753289 -0.0156019367 0.0156386849
  endloop
 endfacet

 facet normal 0 0 1
  outer loop
  vertex 0.027008377 -0.0253046788 0.0156386849
  vertex 0.0341753289 -0.0156019367 0.0156386849
  vertex 0.0340256803 -0.0149732046 0.0156386849
  endloop
 endfacet

 facet normal 0 0 1
  outer loop
  vertex 0.027008377 -0.0253046788 0.0156386849
  vertex 0.0340256803 -0.0149732046 0.0156386849
  vertex 0.0335635319 -0.0141270608 0.0156386849
  endloop
 endfacet

 facet normal 0 0 1
  outer loop
  vertex 0.027008377 -0.0253046788 0.0156386849
  vertex 0.0335635319 -0.0141270608 0.0156386849
  vertex 0.0328373015 -0.0130855404 0.0156386849
  endloop
 endfacet

 facet normal 0 0 1
  outer loop
  vertex 0.027008377 -0.0253046788 0.0156386849
  vertex 0.0328373015 -0.0130855404 0.0156386849
  vertex 0.0322005637 -0.0122834668 0.0156386849
  endloop
 endfacet

 facet normal 0 0 1
  outer loop
  vertex 0.027008377 -0.0253046788 0.0156386849
  vertex 0.0322005637 -0.0122834668 0.0156386849
  vertex 0.0314112455 -0.0116870534 0.0156386849
  endloop
 endfacet

 facet normal 0 0 1
  outer loop
  vertex 0.027008377 -0.0253046788 0.0156386849
  vertex 0.0314112455 -0.0116870534 0.0156386849
  vertex 0.0307187587 -0.0112639805 0.0156386849
  endloop
 endfacet

 facet normal 0 0 1
  outer loop
  vertex 0.027008377 -0.0253046788 0.0156386849
  vertex 0.0307187587 -0.0112639805 0.0156386849
  vertex 0.030149512 -0.0109584294 0.0156386849
  endloop
 endfacet

 facet normal 0 0 1
  outer loop
  vertex 0.027008377 -0.0253046788 0.0156386849
  vertex 0.030149512 -0.0109584294 0.0156386849
  vertex 0.0288921781 -0.0103987409 0.0156386849
  endloop
 endfacet

 facet normal 0 0 1
  outer loop
  vertex 0.027008377 -0.0253046788 0.0156386849
  vertex 0.0288921781 -0.0103987409 0.0156386849
  vertex 0.0282657109 -0.0103238206 0.0156386849
  endloop
 endfacet

 facet normal 0 0 1
  outer loop
  vertex 0.027008377 -0.0253046788 0.0156386849
  vertex 0.0282657109 -0.0103238206 0.0156386849
  vertex 0.0276348442 -0.0103017865 0.0156386849
  endloop
 endfacet

 facet normal 0 0 1
  outer loop
  vertex 0.027008377 -0.0253046788 0.0156386849
  vertex 0.0276348442 -0.0103017865 0.0156386849
  vertex 0.027008377 -0.0102973795 0.0156386849
  endloop
 endfacet

 facet normal 0 0 1
  outer loop
  vertex 0.027008377 -0.0253046788 0.0156386849
  vertex 0.027008377 -0.0102973795 0.0156386849
  vertex 0.0264582019 -0.0102973795 0.0156386849
  endloop
 endfacet

 facet normal 0 0 1
  outer loop
  vertex 0.027008377 -0.0253046788 0.0156386849
  vertex 0.0264582019 -0.0102973795 0.0156386849
  vertex 0.0258332025 -0.0103017865 0.0156386849
  endloop
 endfacet

 facet normal 0 0 1
  outer loop
  vertex 0.027008377 -0.0253046788 0.0156386849
  vertex 0.0258332025 -0.0103017865 0.0156386849
  vertex 0.0252287425 -0.0103252903 0.0156386849
  endloop
 endfacet

 facet normal 0 0 1
  outer loop
  vertex 0.027008377 -0.0253046788 0.0156386849
  vertex 0.0252287425 -0.0103252903 0.0156386849
  vertex 0.0246873703 -0.0104589695 0.0156386849
  endloop
 endfacet

 facet normal 0 0 1
  outer loop
  vertex 0.027008377 -0.0253046788 0.0156386849
  vertex 0.0246873703 -0.0104589695 0.0156386849
  vertex 0.0239097886 -0.0107189827 0.0156386849
  endloop
 endfacet

 facet normal 0 0 1
  outer loop
  vertex 0.027008377 -0.0253046788 0.0156386849
  vertex 0.0239097886 -0.0107189827 0.0156386849
  vertex 0.0219482314 -0.0118824299 0.0156386849
  endloop
 endfacet

 facet normal 0 0 1
  outer loop
  vertex 0.027008377 -0.0253046788 0.0156386849
  vertex 0.0219482314 -0.0118824299 0.0156386849
  vertex 0.0214039236 -0.0124200834 0.0156386849
  endloop
 endfacet

 facet normal 0 0 1
  outer loop
  vertex 0.027008377 -0.0253046788 0.0156386849
  vertex 0.0214039236 -0.0124200834 0.0156386849
  vertex 0.0208288077 -0.0130532226 0.0156386849
  endloop
 endfacet

 facet normal 0 0 1
  outer loop
  vertex 0.027008377 -0.0253046788 0.0156386849
  vertex 0.0208288077 -0.0130532226 0.0156386849
  vertex 0.020709971 -0.0132412538 0.0156386849
  endloop
 endfacet

 facet normal 0 0 1
  outer loop
  vertex 0.027008377 -0.0253046788 0.0156386849
  vertex 0.020709971 -0.0132412538 0.0156386849
  vertex 0.0201157816 -0.0142930578 0.0156386849
  endloop
 endfacet

 facet normal 0 0 1
  outer loop
  vertex 0.027008377 -0.0253046788 0.0156386849
  vertex 0.0201157816 -0.0142930578 0.0156386849
  vertex 0.0195215903 -0.0155887157 0.0156386849
  endloop
 endfacet

 facet normal 0 0 1
  outer loop
  vertex 0.027008377 -0.0253046788 0.0156386849
  vertex 0.0195215903 -0.0155887157 0.0156386849
  vertex 0.0195127893 -0.0162864905 0.0156386849
  endloop
 endfacet

 facet normal 0 0 1
  outer loop
  vertex 0.027008377 -0.0253046788 0.0156386849
  vertex 0.0195127893 -0.0162864905 0.0156386849
  vertex 0.0195127893 -0.0192685593 0.0156386849
  endloop
 endfacet

 facet normal 0 0 1
  outer loop
  vertex 0.027008377 -0.0253046788 0.0156386849
  vertex 0.0195127893 -0.0192685593 0.0156386849
  vertex 0.0198751707 -0.020627385 0.0156386849
  endloop
 endfacet

 facet normal 0 0 1
  outer loop
  vertex 0.027008377 -0.0253046788 0.0156386849
  vertex 0.0198751707 -0.020627385 0.0156386849
  vertex 0.0205441844 -0.0218863171 0.0156386849
  endloop
 endfacet

 facet normal 0 0 1
  outer loop
  vertex 0.027008377 -0.0253046788 0.0156386849
  vertex 0.0205441844 -0.0218863171 0.0156386849
  vertex 0.021120768 -0.0227251165 0.0156386849
  endloop
 endfacet

 facet normal 0 0 1
  outer loop
  vertex 0.027008377 -0.0253046788 0.0156386849
  vertex 0.021120768 -0.0227251165 0.0156386849
  vertex 0.0217516348 -0.0233802889 0.0156386849
  endloop
 endfacet

 facet normal 0 0 1
  outer loop
  vertex 0.027008377 -0.0253046788 0.0156386849
  vertex 0.0217516348 -0.0233802889 0.0156386849
  vertex 0.0226099081 -0.0239884555 0.0156386849
  endloop
 endfacet

 facet normal 0 0 1
  outer loop
  vertex 0.027008377 -0.0253046788 0.0156386849
  vertex 0.0226099081 -0.0239884555 0.0156386849
  vertex 0.0232613161 -0.0243777391 0.0156386849
  endloop
 endfacet

 facet normal 0 0 1
  outer loop
  vertex 0.027008377 -0.0253046788 0.0156386849
  vertex 0.0232613161 -0.0243777391 0.0156386849
  vertex 0.0238687098 -0.0246553812 0.0156386849
  endloop
 endfacet

 facet normal 0 0 1
  outer loop
  vertex 0.027008377 -0.0253046788 0.0156386849
  vertex 0.0238687098 -0.0246553812 0.0156386849
  vertex 0.0251260437 -0.0252180081 0.0156386849
  endloop
 endfacet

 facet normal 0 0 1
  outer loop
  vertex 0.027008377 -0.0253046788 0.0156386849
  vertex 0.0251260437 -0.0252180081 0.0156386849
  vertex 0.0257539768 -0.0252811741 0.0156386849
  endloop
 endfacet

 facet normal 0 0 1
  outer loop
  vertex 0.027008377 -0.0253046788 0.0156386849
  vertex 0.0257539768 -0.0252811741 0.0156386849
  vertex 0.0263833776 -0.0252973344 0.0156386849
  endloop
 endfacet

 facet normal -0.0117482468 -0.999785364 -0.0170686804
  outer loop
  vertex 0.027008377 -0.0253046788 0.0156386849
  vertex 0.0263833776 -0.0252973344 0.0156386849
  vertex 0.027008377 -0.0250123478 -0.00148431933
  endloop
 endfacet

 facet normal 0.00798729993 -0.999822378 -0.0170693137
  outer loop
  vertex 0.027008377 -0.0253046788 0.0156386849
  vertex 0.027008377 -0.0250123478 -0.00148431933
  vertex 0.0275600199 -0.0253002718 0.0156386849
  endloop
 endfacet

 facet normal 0.0142660495 -0.999749064 -0.0172703601
  outer loop
  vertex 0.0275600199 -0.0253002718 0.0156386849
  vertex 0.027008377 -0.0250123478 -0.00148431933
  vertex 0.0281776842 -0.0252914578 0.0156386849
  endloop
 endfacet

 facet normal -0.0256627426 -0.999516308 -0.01757209
  outer loop
  vertex 0.0263833776 -0.0252973344 0.0156386849
  vertex 0.0257539768 -0.0252811741 0.0156386849
  vertex 0.027008377 -0.0250123478 -0.00148431933
  endloop
 endfacet

 facet normal 0 0 -1
  outer loop
  vertex 0.027008377 -0.0250123478 -0.00148431933
  vertex 0.0265007485 -0.0249712151 -0.00148431933
  vertex 0.0263833776 -0.0249565262 -0.00148431933
  endloop
 endfacet

 facet normal 0 0 -1
  outer loop
  vertex 0.027008377 -0.0250123478 -0.00148431933
  vertex 0.0263833776 -0.0249565262 -0.00148431933
  vertex 0.0260209963 -0.0248860139 -0.00148431933
  endloop
 endfacet

 facet normal 0 0 -1
  outer loop
  vertex 0.027008377 -0.0250123478 -0.00148431933
  vertex 0.0260209963 -0.0248860139 -0.00148431933
  vertex 0.0244893078 -0.0244849771 -0.00148431933
  endloop
 endfacet

 facet normal 0 0 -1
  outer loop
  vertex 0.027008377 -0.0250123478 -0.00148431933
  vertex 0.0244893078 -0.0244849771 -0.00148431933
  vertex 0.0239479337 -0.0243395455 -0.00148431933
  endloop
 endfacet

 facet normal 0 0 -1
  outer loop
  vertex 0.027008377 -0.0250123478 -0.00148431933
  vertex 0.0239479337 -0.0243395455 -0.00148431933
  vertex 0.0239185933 -0.0243263245 -0.00148431933
  endloop
 endfacet

 facet normal 0 0 -1
  outer loop
  vertex 0.027008377 -0.0250123478 -0.00148431933
  vertex 0.0239185933 -0.0243263245 -0.00148431933
  vertex 0.0231175367 -0.023856245 -0.00148431933
  endloop
 endfacet

 facet normal 0 0 -1
  outer loop
  vertex 0.027008377 -0.0250123478 -0.00148431933
  vertex 0.0231175367 -0.023856245 -0.00148431933
  vertex 0.0224338528 -0.0234287661 -0.00148431933
  endloop
 endfacet

 facet normal 0 0 -1
  outer loop
  vertex 0.027008377 -0.0250123478 -0.00148431933
  vertex 0.0224338528 -0.0234287661 -0.00148431933
  vertex 0.0220656022 -0.0230894256 -0.00148431933
  endloop
 endfacet

 facet normal 0 0 -1
  outer loop
  vertex 0.027008377 -0.0250123478 -0.00148431933
  vertex 0.0220656022 -0.0230894256 -0.00148431933
  vertex 0.0220289249 -0.0230541714 -0.00148431933
  endloop
 endfacet

 facet normal 0 0 -1
  outer loop
  vertex 0.027008377 -0.0250123478 -0.00148431933
  vertex 0.0220289249 -0.0230541714 -0.00148431933
  vertex 0.0217325613 -0.0227603707 -0.00148431933
  endloop
 endfacet

 facet normal 0 0 -1
  outer loop
  vertex 0.027008377 -0.0250123478 -0.00148431933
  vertex 0.0217325613 -0.0227603707 -0.00148431933
  vertex 0.021446472 -0.0224636327 -0.00148431933
  endloop
 endfacet

 facet normal 0 0 -1
  outer loop
  vertex 0.027008377 -0.0250123478 -0.00148431933
  vertex 0.021446472 -0.0224636327 -0.00148431933
  vertex 0.0214141943 -0.0224239696 -0.00148431933
  endloop
 endfacet

 facet normal 0 0 -1
  outer loop
  vertex 0.027008377 -0.0250123478 -0.00148431933
  vertex 0.0214141943 -0.0224239696 -0.00148431933
  vertex 0.0211427752 -0.0220038369 -0.00148431933
  endloop
 endfacet

 facet normal 0 0 -1
  outer loop
  vertex 0.027008377 -0.0250123478 -0.00148431933
  vertex 0.0211427752 -0.0220038369 -0.00148431933
  vertex 0.0209329743 -0.0216571521 -0.00148431933
  endloop
 endfacet

 facet normal 0 0 -1
  outer loop
  vertex 0.027008377 -0.0250123478 -0.00148431933
  vertex 0.0209329743 -0.0216571521 -0.00148431933
  vertex 0.0204605572 -0.0207581241 -0.00148431933
  endloop
 endfacet

 facet normal 0 0 -1
  outer loop
  vertex 0.027008377 -0.0250123478 -0.00148431933
  vertex 0.0204605572 -0.0207581241 -0.00148431933
  vertex 0.0202918369 -0.0203996878 -0.00148431933
  endloop
 endfacet

 facet normal 0 0 -1
  outer loop
  vertex 0.027008377 -0.0250123478 -0.00148431933
  vertex 0.0202918369 -0.0203996878 -0.00148431933
  vertex 0.0201245826 -0.0199913066 -0.00148431933
  endloop
 endfacet

 facet normal 0 0 -1
  outer loop
  vertex 0.027008377 -0.0250123478 -0.00148431933
  vertex 0.0201245826 -0.0199913066 -0.00148431933
  vertex 0.0199764036 -0.0193831418 -0.00148431933
  endloop
 endfacet

 facet normal 0 0 -1
  outer loop
  vertex 0.027008377 -0.0250123478 -0.00148431933
  vertex 0.0199764036 -0.0193831418 -0.00148431933
  vertex 0.0199235864 -0.0187793821 -0.00148431933
  endloop
 endfacet

 facet normal 0 0 -1
  outer loop
  vertex 0.027008377 -0.0250123478 -0.00148431933
  vertex 0.0199235864 -0.0187793821 -0.00148431933
  vertex 0.0198825058 -0.0181844383 -0.00148431933
  endloop
 endfacet

 facet normal 0 0 -1
  outer loop
  vertex 0.027008377 -0.0250123478 -0.00148431933
  vertex 0.0198825058 -0.0181844383 -0.00148431933
  vertex 0.0198795721 -0.0181139261 -0.00148431933
  endloop
 endfacet

 facet normal 0 0 -1
  outer loop
  vertex 0.027008377 -0.0250123478 -0.00148431933
  vertex 0.0198795721 -0.0181139261 -0.00148431933
  vertex 0.0198795721 -0.0174881313 -0.00148431933
  endloop
 endfacet

 facet normal 0 0 -1
  outer loop
  vertex 0.027008377 -0.0250123478 -0.00148431933
  vertex 0.0198795721 -0.0174881313 -0.00148431933
  vertex 0.0199206527 -0.016859401 -0.00148431933
  endloop
 endfacet

 facet normal 0 0 -1
  outer loop
  vertex 0.027008377 -0.0250123478 -0.00148431933
  vertex 0.0199206527 -0.016859401 -0.00148431933
  vertex 0.019973468 -0.0162438899 -0.00148431933
  endloop
 endfacet

 facet normal 0 0 -1
  outer loop
  vertex 0.027008377 -0.0250123478 -0.00148431933
  vertex 0.019973468 -0.0162438899 -0.00148431933
  vertex 0.0199749358 -0.0162306689 -0.00148431933
  endloop
 endfacet

 facet normal 0 0 -1
  outer loop
  vertex 0.027008377 -0.0250123478 -0.00148431933
  vertex 0.0199749358 -0.0162306689 -0.00148431933
  vertex 0.0201157816 -0.0156063437 -0.00148431933
  endloop
 endfacet

 facet normal 0 0 -1
  outer loop
  vertex 0.027008377 -0.0250123478 -0.00148431933
  vertex 0.0201157816 -0.0156063437 -0.00148431933
  vertex 0.020423878 -0.0149717359 -0.00148431933
  endloop
 endfacet

 facet normal 0 0 -1
  outer loop
  vertex 0.027008377 -0.0250123478 -0.00148431933
  vertex 0.020423878 -0.0149717359 -0.00148431933
  vertex 0.020740781 -0.0143400664 -0.00148431933
  endloop
 endfacet

 facet normal 0 0 -1
  outer loop
  vertex 0.027008377 -0.0250123478 -0.00148431933
  vertex 0.020740781 -0.0143400664 -0.00148431933
  vertex 0.0214303341 -0.0131663354 -0.00148431933
  endloop
 endfacet

 facet normal 0 0 -1
  outer loop
  vertex 0.027008377 -0.0250123478 -0.00148431933
  vertex 0.0214303341 -0.0131663354 -0.00148431933
  vertex 0.0220465288 -0.0125229135 -0.00148431933
  endloop
 endfacet

 facet normal 0 0 -1
  outer loop
  vertex 0.027008377 -0.0250123478 -0.00148431933
  vertex 0.0220465288 -0.0125229135 -0.00148431933
  vertex 0.0226099081 -0.0120998416 -0.00148431933
  endloop
 endfacet

 facet normal 0 0 -1
  outer loop
  vertex 0.027008377 -0.0250123478 -0.00148431933
  vertex 0.0226099081 -0.0120998416 -0.00148431933
  vertex 0.0232011639 -0.0117179025 -0.00148431933
  endloop
 endfacet

 facet normal 0 0 -1
  outer loop
  vertex 0.027008377 -0.0250123478 -0.00148431933
  vertex 0.0232011639 -0.0117179025 -0.00148431933
  vertex 0.0239303298 -0.0112669198 -0.00148431933
  endloop
 endfacet

 facet normal 0 0 -1
  outer loop
  vertex 0.027008377 -0.0250123478 -0.00148431933
  vertex 0.0239303298 -0.0112669198 -0.00148431933
  vertex 0.0244951751 -0.0111082671 -0.00148431933
  endloop
 endfacet

 facet normal 0 0 -1
  outer loop
  vertex 0.027008377 -0.0250123478 -0.00148431933
  vertex 0.0244951751 -0.0111082671 -0.00148431933
  vertex 0.0264171213 -0.0105794277 -0.00148431933
  endloop
 endfacet

 facet normal 0 0 -1
  outer loop
  vertex 0.027008377 -0.0250123478 -0.00148431933
  vertex 0.0264171213 -0.0105794277 -0.00148431933
  vertex 0.0270054415 -0.0105618006 -0.00148431933
  endloop
 endfacet

 facet normal 0 0 -1
  outer loop
  vertex 0.027008377 -0.0250123478 -0.00148431933
  vertex 0.0270054415 -0.0105618006 -0.00148431933
  vertex 0.027008377 -0.0105618006 -0.00148431933
  endloop
 endfacet

 facet normal 0 0 -1
  outer loop
  vertex 0.027008377 -0.0250123478 -0.00148431933
  vertex 0.027008377 -0.0105618006 -0.00148431933
  vertex 0.0275937635 -0.0106176212 -0.00148431933
  endloop
 endfacet

 facet normal 0 0 -1
  outer loop
  vertex 0.027008377 -0.0250123478 -0.00148431933
  vertex 0.0275937635 -0.0106176212 -0.00148431933
  vertex 0.0296477508 -0.0111288335 -0.00148431933
  endloop
 endfacet

 facet normal 0 0 -1
  outer loop
  vertex 0.027008377 -0.0250123478 -0.00148431933
  vertex 0.0296477508 -0.0111288335 -0.00148431933
  vertex 0.0300233383 -0.0113227414 -0.00148431933
  endloop
 endfacet

 facet normal 0 0 -1
  outer loop
  vertex 0.027008377 -0.0250123478 -0.00148431933
  vertex 0.0300233383 -0.0113227414 -0.00148431933
  vertex 0.0303490404 -0.0114916759 -0.00148431933
  endloop
 endfacet

 facet normal 0 0 -1
  outer loop
  vertex 0.027008377 -0.0250123478 -0.00148431933
  vertex 0.0303490404 -0.0114916759 -0.00148431933
  vertex 0.0315770321 -0.0123099089 -0.00148431933
  endloop
 endfacet

 facet normal 0 0 -1
  outer loop
  vertex 0.027008377 -0.0250123478 -0.00148431933
  vertex 0.0315770321 -0.0123099089 -0.00148431933
  vertex 0.0322196372 -0.0128960395 -0.00148431933
  endloop
 endfacet

 facet normal 0 0 -1
  outer loop
  vertex 0.027008377 -0.0250123478 -0.00148431933
  vertex 0.0322196372 -0.0128960395 -0.00148431933
  vertex 0.0324851871 -0.0132765109 -0.00148431933
  endloop
 endfacet

 facet normal 0 0 -1
  outer loop
  vertex 0.027008377 -0.0250123478 -0.00148431933
  vertex 0.0324851871 -0.0132765109 -0.00148431933
  vertex 0.0330104232 -0.0140389204 -0.00148431933
  endloop
 endfacet

 facet normal 0 0 -1
  outer loop
  vertex 0.027008377 -0.0250123478 -0.00148431933
  vertex 0.0330104232 -0.0140389204 -0.00148431933
  vertex 0.033236362 -0.0143767912 -0.00148431933
  endloop
 endfacet

 facet normal 0 0 -1
  outer loop
  vertex 0.027008377 -0.0250123478 -0.00148431933
  vertex 0.033236362 -0.0143767912 -0.00148431933
  vertex 0.0332525 -0.0144076394 -0.00148431933
  endloop
 endfacet

 facet normal 0 0 -1
  outer loop
  vertex 0.027008377 -0.0250123478 -0.00148431933
  vertex 0.0332525 -0.0144076394 -0.00148431933
  vertex 0.0336647667 -0.0153815867 -0.00148431933
  endloop
 endfacet

 facet normal 0 0 -1
  outer loop
  vertex 0.027008377 -0.0250123478 -0.00148431933
  vertex 0.0336647667 -0.0153815867 -0.00148431933
  vertex 0.0339728631 -0.0161293074 -0.00148431933
  endloop
 endfacet

 facet normal 0 0 -1
  outer loop
  vertex 0.027008377 -0.0250123478 -0.00148431933
  vertex 0.0339728631 -0.0161293074 -0.00148431933
  vertex 0.0340388827 -0.0168505851 -0.00148431933
  endloop
 endfacet

 facet normal 0 0 -1
  outer loop
  vertex 0.027008377 -0.0250123478 -0.00148431933
  vertex 0.0340388827 -0.0168505851 -0.00148431933
  vertex 0.0340638272 -0.0174881313 -0.00148431933
  endloop
 endfacet

 facet normal 0 0 -1
  outer loop
  vertex 0.027008377 -0.0250123478 -0.00148431933
  vertex 0.0340638272 -0.0174881313 -0.00148431933
  vertex 0.0340623595 -0.0181139261 -0.00148431933
  endloop
 endfacet

 facet normal 0 0 -1
  outer loop
  vertex 0.027008377 -0.0250123478 -0.00148431933
  vertex 0.0340623595 -0.0181139261 -0.00148431933
  vertex 0.0340374149 -0.0187426582 -0.00148431933
  endloop
 endfacet

 facet normal 0 0 -1
  outer loop
  vertex 0.027008377 -0.0250123478 -0.00148431933
  vertex 0.0340374149 -0.0187426582 -0.00148431933
  vertex 0.0339684598 -0.0193302575 -0.00148431933
  endloop
 endfacet

 facet normal 0 0 -1
  outer loop
  vertex 0.027008377 -0.0250123478 -0.00148431933
  vertex 0.0339684598 -0.0193302575 -0.00148431933
  vertex 0.0339449868 -0.0194007698 -0.00148431933
  endloop
 endfacet

 facet normal 0 0 -1
  outer loop
  vertex 0.027008377 -0.0250123478 -0.00148431933
  vertex 0.0339449868 -0.0194007698 -0.00148431933
  vertex 0.0332422294 -0.0212105755 -0.00148431933
  endloop
 endfacet

 facet normal 0 0 -1
  outer loop
  vertex 0.027008377 -0.0250123478 -0.00148431933
  vertex 0.0332422294 -0.0212105755 -0.00148431933
  vertex 0.0321580172 -0.0225473661 -0.00148431933
  endloop
 endfacet

 facet normal 0 0 -1
  outer loop
  vertex 0.027008377 -0.0250123478 -0.00148431933
  vertex 0.0321580172 -0.0225473661 -0.00148431933
  vertex 0.0320641212 -0.0226604789 -0.00148431933
  endloop
 endfacet

 facet normal 0 0 -1
  outer loop
  vertex 0.027008377 -0.0250123478 -0.00148431933
  vertex 0.0320641212 -0.0226604789 -0.00148431933
  vertex 0.0314493924 -0.0232524853 -0.00148431933
  endloop
 endfacet

 facet normal 0 0 -1
  outer loop
  vertex 0.027008377 -0.0250123478 -0.00148431933
  vertex 0.0314493924 -0.0232524853 -0.00148431933
  vertex 0.0307745095 -0.0237519462 -0.00148431933
  endloop
 endfacet

 facet normal 0 0 -1
  outer loop
  vertex 0.027008377 -0.0250123478 -0.00148431933
  vertex 0.0307745095 -0.0237519462 -0.00148431933
  vertex 0.0301509779 -0.0241544526 -0.00148431933
  endloop
 endfacet

 facet normal 0 0 -1
  outer loop
  vertex 0.027008377 -0.0250123478 -0.00148431933
  vertex 0.0301509779 -0.0241544526 -0.00148431933
  vertex 0.0295553226 -0.0244629402 -0.00148431933
  endloop
 endfacet

 facet normal 0 0 -1
  outer loop
  vertex 0.027008377 -0.0250123478 -0.00148431933
  vertex 0.0295553226 -0.0244629402 -0.00148431933
  vertex 0.0276363101 -0.0249227379 -0.00148431933
  endloop
 endfacet

 facet normal 0.141216308 -0.989559889 -0.028794108
  outer loop
  vertex 0.027008377 -0.0250123478 -0.00148431933
  vertex 0.0276363101 -0.0249227379 -0.00148431933
  vertex 0.0287704058 -0.025259139 0.0156386849
  endloop
 endfacet

 facet normal 0.0544330105 -0.998317361 -0.0199899655
  outer loop
  vertex 0.027008377 -0.0250123478 -0.00148431933
  vertex 0.0287704058 -0.025259139 0.0156386849
  vertex 0.0281776842 -0.0252914578 0.0156386849
  endloop
 endfacet

 facet normal -0.0807474852 -0.996501386 -0.0215601679
  outer loop
  vertex 0.027008377 -0.0250123478 -0.00148431933
  vertex 0.0257539768 -0.0252811741 0.0156386849
  vertex 0.0265007485 -0.0249712151 -0.00148431933
  endloop
 endfacet

 facet normal -0.100063875 -0.994729519 -0.022370521
  outer loop
  vertex 0.0257539768 -0.0252811741 0.0156386849
  vertex 0.0251260437 -0.0252180081 0.0156386849
  vertex 0.0265007485 -0.0249712151 -0.00148431933
  endloop
 endfacet

 facet normal -0.124140568 -0.991968036 -0.0242636949
  outer loop
  vertex 0.0265007485 -0.0249712151 -0.00148431933
  vertex 0.0251260437 -0.0252180081 0.0156386849
  vertex 0.0263833776 -0.0249565262 -0.00148431933
  endloop
 endfacet

 facet normal 0.232867658 -0.971895635 -0.0345173515
  outer loop
  vertex 0.0276363101 -0.0249227379 -0.00148431933
  vertex 0.0295553226 -0.0244629402 -0.00148431933
  vertex 0.0287704058 -0.025259139 0.0156386849
  endloop
 endfacet

 facet normal 0.301171094 -0.953081787 -0.0305115059
  outer loop
  vertex 0.0287704058 -0.025259139 0.0156386849
  vertex 0.0295553226 -0.0244629402 -0.00148431933
  vertex 0.0295699928 -0.0250064712 0.0156386849
  endloop
 endfacet

 facet normal -0.408376366 -0.912621617 -0.0187229011
  outer loop
  vertex 0.0251260437 -0.0252180081 0.0156386849
  vertex 0.0238687098 -0.0246553812 0.0156386849
  vertex 0.0239479337 -0.0243395455 -0.00148431933
  endloop
 endfacet

 facet normal -0.259306729 -0.965275288 -0.0316805951
  outer loop
  vertex 0.0251260437 -0.0252180081 0.0156386849
  vertex 0.0239479337 -0.0243395455 -0.00148431933
  vertex 0.0244893078 -0.0244849771 -0.00148431933
  endloop
 endfacet

 facet normal -0.253159344 -0.966895938 -0.0319785699
  outer loop
  vertex 0.0251260437 -0.0252180081 0.0156386849
  vertex 0.0244893078 -0.0244849771 -0.00148431933
  vertex 0.0260209963 -0.0248860139 -0.00148431933
  endloop
 endfacet

 facet normal -0.19091855 -0.98117733 -0.0290023889
  outer loop
  vertex 0.0251260437 -0.0252180081 0.0156386849
  vertex 0.0260209963 -0.0248860139 -0.00148431933
  vertex 0.0263833776 -0.0249565262 -0.00148431933
  endloop
 endfacet

 facet normal 0.459694117 -0.887617588 -0.0285693221
  outer loop
  vertex 0.0295553226 -0.0244629402 -0.00148431933
  vertex 0.0301509779 -0.0241544526 -0.00148431933
  vertex 0.0295699928 -0.0250064712 0.0156386849
  endloop
 endfacet

 facet normal 0.515402138 -0.856579721 -0.0251347441
  outer loop
  vertex 0.0295699928 -0.0250064712 0.0156386849
  vertex 0.0301509779 -0.0241544526 -0.00148431933
  vertex 0.0308273267 -0.0242499374 0.0156386849
  endloop
 endfacet

 facet normal -0.415657222 -0.909329414 -0.018685706
  outer loop
  vertex 0.0238687098 -0.0246553812 0.0156386849
  vertex 0.0232613161 -0.0243777391 0.0156386849
  vertex 0.0239185933 -0.0243263245 -0.00148431933
  endloop
 endfacet

 facet normal -0.410735905 -0.911562324 -0.0187142789
  outer loop
  vertex 0.0238687098 -0.0246553812 0.0156386849
  vertex 0.0239185933 -0.0243263245 -0.00148431933
  vertex 0.0239479337 -0.0243395455 -0.00148431933
  endloop
 endfacet

 facet normal 0.542158365 -0.83987093 -0.0260984283
  outer loop
  vertex 0.0301509779 -0.0241544526 -0.00148431933
  vertex 0.0307745095 -0.0237519462 -0.00148431933
  vertex 0.0308273267 -0.0242499374 0.0156386849
  endloop
 endfacet

 facet normal 0.594690681 -0.803559482 -0.0252044164
  outer loop
  vertex 0.0308273267 -0.0242499374 0.0156386849
  vertex 0.0307745095 -0.0237519462 -0.00148431933
  vertex 0.0314493924 -0.0232524853 -0.00148431933
  endloop
 endfacet

 facet normal 0.669313848 -0.742738068 -0.0189504344
  outer loop
  vertex 0.0308273267 -0.0242499374 0.0156386849
  vertex 0.0314493924 -0.0232524853 -0.00148431933
  vertex 0.0310473982 -0.0240516216 0.0156386849
  endloop
 endfacet

 facet normal -0.512860656 -0.858194232 -0.0218306147
  outer loop
  vertex 0.0232613161 -0.0243777391 0.0156386849
  vertex 0.0226099081 -0.0239884555 0.0156386849
  vertex 0.0231175367 -0.023856245 -0.00148431933
  endloop
 endfacet

 facet normal -0.505993724 -0.862256229 -0.022011986
  outer loop
  vertex 0.0232613161 -0.0243777391 0.0156386849
  vertex 0.0231175367 -0.023856245 -0.00148431933
  vertex 0.0239185933 -0.0243263245 -0.00148431933
  endloop
 endfacet

 facet normal 0.689231396 -0.724327028 -0.0176235847
  outer loop
  vertex 0.0310473982 -0.0240516216 0.0156386849
  vertex 0.0314493924 -0.0232524853 -0.00148431933
  vertex 0.0316973366 -0.0234331731 0.0156386849
  endloop
 endfacet

 facet normal 0.693561316 -0.720181704 -0.017642539
  outer loop
  vertex 0.0314493924 -0.0232524853 -0.00148431933
  vertex 0.0320641212 -0.0226604789 -0.00148431933
  vertex 0.0316973366 -0.0234331731 0.0156386849
  endloop
 endfacet

 facet normal -0.578033626 -0.815749824 -0.0207206737
  outer loop
  vertex 0.0226099081 -0.0239884555 0.0156386849
  vertex 0.0217516348 -0.0233802889 0.0156386849
  vertex 0.0224338528 -0.0234287661 -0.00148431933
  endloop
 endfacet

 facet normal -0.530023932 -0.847690582 -0.0222583339
  outer loop
  vertex 0.0226099081 -0.0239884555 0.0156386849
  vertex 0.0224338528 -0.0234287661 -0.00148431933
  vertex 0.0231175367 -0.023856245 -0.00148431933
  endloop
 endfacet

 facet normal 0.710744977 -0.703255951 -0.0165106617
  outer loop
  vertex 0.0316973366 -0.0234331731 0.0156386849
  vertex 0.0320641212 -0.0226604789 -0.00148431933
  vertex 0.0323238038 -0.0228000358 0.0156386849
  endloop
 endfacet

 facet normal 0.769331098 -0.63862735 -0.0168724321
  outer loop
  vertex 0.0320641212 -0.0226604789 -0.00148431933
  vertex 0.0321580172 -0.0225473661 -0.00148431933
  vertex 0.0323238038 -0.0228000358 0.0156386849
  endloop
 endfacet

 facet normal -0.720130086 -0.693413854 -0.0242869444
  outer loop
  vertex 0.0217516348 -0.0233802889 0.0156386849
  vertex 0.021120768 -0.0227251165 0.0156386849
  vertex 0.021446472 -0.0224636327 -0.00148431933
  endloop
 endfacet

 facet normal -0.71969229 -0.693867207 -0.024319021
  outer loop
  vertex 0.0217516348 -0.0233802889 0.0156386849
  vertex 0.021446472 -0.0224636327 -0.00148431933
  vertex 0.0217325613 -0.0227603707 -0.00148431933
  endloop
 endfacet

 facet normal -0.703811347 -0.709949732 -0.0249189585
  outer loop
  vertex 0.0217516348 -0.0233802889 0.0156386849
  vertex 0.0217325613 -0.0227603707 -0.00148431933
  vertex 0.0220289249 -0.0230541714 -0.00148431933
  endloop
 endfacet

 facet normal -0.692770064 -0.720726907 -0.0249454137
  outer loop
  vertex 0.0217516348 -0.0233802889 0.0156386849
  vertex 0.0220289249 -0.0230541714 -0.00148431933
  vertex 0.0220656022 -0.0230894256 -0.00148431933
  endloop
 endfacet

 facet normal -0.677440763 -0.735155523 -0.024909433
  outer loop
  vertex 0.0217516348 -0.0233802889 0.0156386849
  vertex 0.0220656022 -0.0230894256 -0.00148431933
  vertex 0.0224338528 -0.0234287661 -0.00148431933
  endloop
 endfacet

 facet normal 0.776552618 -0.629828095 -0.0168125089
  outer loop
  vertex 0.0323238038 -0.0228000358 0.0156386849
  vertex 0.0321580172 -0.0225473661 -0.00148431933
  vertex 0.0332422294 -0.0212105755 -0.00148431933
  endloop
 endfacet

 facet normal 0.778164864 -0.627842188 -0.0165416878
  outer loop
  vertex 0.0323238038 -0.0228000358 0.0156386849
  vertex 0.0332422294 -0.0212105755 -0.00148431933
  vertex 0.0328974538 -0.022089038 0.0156386849
  endloop
 endfacet

 facet normal -0.823844671 -0.566304147 -0.0240774211
  outer loop
  vertex 0.021120768 -0.0227251165 0.0156386849
  vertex 0.0205441844 -0.0218863171 0.0156386849
  vertex 0.0214141943 -0.0224239696 -0.00148431933
  endloop
 endfacet

 facet normal -0.775384188 -0.631018817 -0.02438513
  outer loop
  vertex 0.021120768 -0.0227251165 0.0156386849
  vertex 0.0214141943 -0.0224239696 -0.00148431933
  vertex 0.021446472 -0.0224636327 -0.00148431933
  endloop
 endfacet

 facet normal 0.861518979 -0.507650971 -0.00869715214
  outer loop
  vertex 0.0328974538 -0.022089038 0.0156386849
  vertex 0.0332422294 -0.0212105755 -0.00148431933
  vertex 0.0335899405 -0.0209138393 0.0156386849
  endloop
 endfacet

 facet normal 0.931967378 -0.361888021 -0.0217702743
  outer loop
  vertex 0.0332422294 -0.0212105755 -0.00148431933
  vertex 0.0339449868 -0.0194007698 -0.00148431933
  vertex 0.0341122411 -0.0200001206 0.0156386849
  endloop
 endfacet

 facet normal 0.868136346 -0.496243864 -0.00902921241
  outer loop
  vertex 0.0332422294 -0.0212105755 -0.00148431933
  vertex 0.0341122411 -0.0200001206 0.0156386849
  vertex 0.0335899405 -0.0209138393 0.0156386849
  endloop
 endfacet

 facet normal -0.882750154 -0.469104946 -0.0263217203
  outer loop
  vertex 0.0205441844 -0.0218863171 0.0156386849
  vertex 0.0198751707 -0.020627385 0.0156386849
  vertex 0.0209329743 -0.0216571521 -0.00148431933
  endloop
 endfacet

 facet normal -0.855240703 -0.517560959 -0.0263456088
  outer loop
  vertex 0.0205441844 -0.0218863171 0.0156386849
  vertex 0.0209329743 -0.0216571521 -0.00148431933
  vertex 0.0211427752 -0.0220038369 -0.00148431933
  endloop
 endfacet

 facet normal -0.839688301 -0.542463362 -0.0256310143
  outer loop
  vertex 0.0205441844 -0.0218863171 0.0156386849
  vertex 0.0211427752 -0.0220038369 -0.00148431933
  vertex 0.0214141943 -0.0224239696 -0.00148431933
  endloop
 endfacet

 facet normal 0.948608398 -0.315799326 -0.0203195885
  outer loop
  vertex 0.0339449868 -0.0194007698 -0.00148431933
  vertex 0.0339684598 -0.0193302575 -0.00148431933
  vertex 0.0341122411 -0.0200001206 0.0156386849
  endloop
 endfacet

 facet normal 0.95315367 -0.301837415 -0.0198115539
  outer loop
  vertex 0.0341122411 -0.0200001206 0.0156386849
  vertex 0.0339684598 -0.0193302575 -0.00148431933
  vertex 0.0341503844 -0.0198796634 0.0156386849
  endloop
 endfacet

 facet normal -0.965959728 -0.257609904 -0.0236396678
  outer loop
  vertex 0.0198751707 -0.020627385 0.0156386849
  vertex 0.0195127893 -0.0192685593 0.0156386849
  vertex 0.0201245826 -0.0199913066 -0.00148431933
  endloop
 endfacet

 facet normal -0.925045729 -0.378855526 -0.027547691
  outer loop
  vertex 0.0198751707 -0.020627385 0.0156386849
  vertex 0.0201245826 -0.0199913066 -0.00148431933
  vertex 0.0202918369 -0.0203996878 -0.00148431933
  endloop
 endfacet

 facet normal -0.904429376 -0.425725311 -0.027669277
  outer loop
  vertex 0.0198751707 -0.020627385 0.0156386849
  vertex 0.0202918369 -0.0203996878 -0.00148431933
  vertex 0.0204605572 -0.0207581241 -0.00148431933
  endloop
 endfacet

 facet normal -0.884908915 -0.464998215 -0.0267020669
  outer loop
  vertex 0.0198751707 -0.020627385 0.0156386849
  vertex 0.0204605572 -0.0207581241 -0.00148431933
  vertex 0.0209329743 -0.0216571521 -0.00148431933
  endloop
 endfacet

 facet normal 0.992931485 -0.116520695 -0.0225857012
  outer loop
  vertex 0.0339684598 -0.0193302575 -0.00148431933
  vertex 0.0340374149 -0.0187426582 -0.00148431933
  vertex 0.034501031 -0.0181109887 0.0156386849
  endloop
 endfacet

 facet normal 0.986856401 -0.160446942 -0.0192689206
  outer loop
  vertex 0.0339684598 -0.0193302575 -0.00148431933
  vertex 0.034501031 -0.0181109887 0.0156386849
  vertex 0.0343983322 -0.0187426582 0.0156386849
  endloop
 endfacet

 facet normal 0.9801265 -0.197571442 -0.0178259872
  outer loop
  vertex 0.0339684598 -0.0193302575 -0.00148431933
  vertex 0.0343983322 -0.0187426582 0.0156386849
  vertex 0.0342692249 -0.0193831418 0.0156386849
  endloop
 endfacet

 facet normal 0.972378135 -0.232731402 -0.0177984796
  outer loop
  vertex 0.0339684598 -0.0193302575 -0.00148431933
  vertex 0.0342692249 -0.0193831418 0.0156386849
  vertex 0.0341503844 -0.0198796634 0.0156386849
  endloop
 endfacet

 facet normal -1 0 0
  outer loop
  vertex 0.0195127893 -0.0192685593 0.0156386849
  vertex 0.0195127893 -0.0162864905 0.0156386849
  vertex 0.0195127893 -0.0168623384 0.0155850444
  endloop
 endfacet

 facet normal -1 0 0
  outer loop
  vertex 0.0195127893 -0.0192685593 0.0156386849
  vertex 0.0195127893 -0.0168623384 0.0155850444
  vertex 0.0195127893 -0.0168946553 0.0155833662
  endloop
 endfacet

 facet normal -1 0 0
  outer loop
  vertex 0.0195127893 -0.0192685593 0.0156386849
  vertex 0.0195127893 -0.0168946553 0.0155833662
  vertex 0.0195127893 -0.0174896009 0.015553195
  endloop
 endfacet

 facet normal -1 0 0
  outer loop
  vertex 0.0195127893 -0.0192685593 0.0156386849
  vertex 0.0195127893 -0.0174896009 0.015553195
  vertex 0.0195127893 -0.0181109887 0.0155548705
  endloop
 endfacet

 facet normal -1 0 0
  outer loop
  vertex 0.0195127893 -0.0192685593 0.0156386849
  vertex 0.0195127893 -0.0181109887 0.0155548705
  vertex 0.0195127893 -0.0187426582 0.0155867198
  endloop
 endfacet

 facet normal -0.999765337 -0.00213026814 -0.0215591863
  outer loop
  vertex 0.0195127893 -0.0192685593 0.0156386849
  vertex 0.0195127893 -0.0187426582 0.0155867198
  vertex 0.0198795721 -0.0181139261 -0.00148431933
  endloop
 endfacet

 facet normal -0.998843133 -0.0415554009 -0.0241979398
  outer loop
  vertex 0.0195127893 -0.0192685593 0.0156386849
  vertex 0.0198795721 -0.0181139261 -0.00148431933
  vertex 0.0198825058 -0.0181844383 -0.00148431933
  endloop
 endfacet

 facet normal -0.997290254 -0.0688602179 -0.0258931778
  outer loop
  vertex 0.0195127893 -0.0192685593 0.0156386849
  vertex 0.0198825058 -0.0181844383 -0.00148431933
  vertex 0.0199235864 -0.0187793821 -0.00148431933
  endloop
 endfacet

 facet normal -0.995848656 -0.0871177837 -0.0263801869
  outer loop
  vertex 0.0195127893 -0.0192685593 0.0156386849
  vertex 0.0199235864 -0.0187793821 -0.00148431933
  vertex 0.0199764036 -0.0193831418 -0.00148431933
  endloop
 endfacet

 facet normal -0.97127986 -0.236653015 -0.0247143283
  outer loop
  vertex 0.0195127893 -0.0192685593 0.0156386849
  vertex 0.0199764036 -0.0193831418 -0.00148431933
  vertex 0.0201245826 -0.0199913066 -0.00148431933
  endloop
 endfacet

 facet normal 0.998887122 -0.0396259911 -0.0255836081
  outer loop
  vertex 0.0340374149 -0.0187426582 -0.00148431933
  vertex 0.0340623595 -0.0181139261 -0.00148431933
  vertex 0.034501031 -0.0181109887 0.0156386849
  endloop
 endfacet

 facet normal 0.999669254 -0.00234460318 -0.0256100409
  outer loop
  vertex 0.034501031 -0.0181109887 0.0156386849
  vertex 0.0340623595 -0.0181139261 -0.00148431933
  vertex 0.0340638272 -0.0174881313 -0.00148431933
  endloop
 endfacet

 facet normal 0.999674201 0 -0.0255248807
  outer loop
  vertex 0.034501031 -0.0181109887 0.0156386849
  vertex 0.0340638272 -0.0174881313 -0.00148431933
  vertex 0.034501031 -0.0174851939 0.0156386849
  endloop
 endfacet

 facet normal -0.999671876 0.0126110902 -0.0222985446
  outer loop
  vertex 0.0195127893 -0.0162864905 0.0156386849
  vertex 0.0195215903 -0.0155887157 0.0156386849
  vertex 0.0198795721 -0.0174881313 -0.00148431933
  endloop
 endfacet

 facet normal -0.999765635 0.00200798688 -0.0215564575
  outer loop
  vertex 0.0195127893 -0.0162864905 0.0156386849
  vertex 0.0198795721 -0.0174881313 -0.00148431933
  vertex 0.0195127893 -0.0168623384 0.0155850444
  endloop
 endfacet

 facet normal -0.99976778 -0.00108509616 -0.0215207431
  outer loop
  vertex 0.0195127893 -0.0187426582 0.0155867198
  vertex 0.0195127893 -0.0181109887 0.0155548705
  vertex 0.0198795721 -0.0181139261 -0.00148431933
  endloop
 endfacet

 facet normal -0.999768376 -5.80387859e-05 -0.0215209313
  outer loop
  vertex 0.0198795721 -0.0181139261 -0.00148431933
  vertex 0.0195127893 -0.0181109887 0.0155548705
  vertex 0.0195127893 -0.0174896009 0.015553195
  endloop
 endfacet

 facet normal -0.999768376 0 -0.0215230603
  outer loop
  vertex 0.0198795721 -0.0181139261 -0.00148431933
  vertex 0.0195127893 -0.0174896009 0.015553195
  vertex 0.0198795721 -0.0174881313 -0.00148431933
  endloop
 endfacet

 facet normal 0.998910487 0.0390790962 -0.0255120881
  outer loop
  vertex 0.034501031 -0.0174851939 0.0156386849
  vertex 0.0340638272 -0.0174881313 -0.00148431933
  vertex 0.0340388827 -0.0168505851 -0.00148431933
  endloop
 endfacet

 facet normal 0.995562196 0.0911274254 -0.0234927163
  outer loop
  vertex 0.034501031 -0.0174851939 0.0156386849
  vertex 0.0340388827 -0.0168505851 -0.00148431933
  vertex 0.0339728631 -0.0161293074 -0.00148431933
  endloop
 endfacet

 facet normal 0.993433893 0.112321548 -0.0217488073
  outer loop
  vertex 0.034501031 -0.0174851939 0.0156386849
  vertex 0.0339728631 -0.0161293074 -0.00148431933
  vertex 0.0344306082 -0.0168623384 0.0156386849
  endloop
 endfacet

 facet normal -0.908508539 0.416642636 -0.031955298
  outer loop
  vertex 0.0195215903 -0.0155887157 0.0156386849
  vertex 0.0201157816 -0.0142930578 0.0156386849
  vertex 0.0201157816 -0.0156063437 -0.00148431933
  endloop
 endfacet

 facet normal -0.97491926 0.219937846 -0.0340573341
  outer loop
  vertex 0.0195215903 -0.0155887157 0.0156386849
  vertex 0.0201157816 -0.0156063437 -0.00148431933
  vertex 0.0199749358 -0.0162306689 -0.00148431933
  endloop
 endfacet

 facet normal -0.993442237 0.110210329 -0.0304339882
  outer loop
  vertex 0.0195215903 -0.0155887157 0.0156386849
  vertex 0.0199749358 -0.0162306689 -0.00148431933
  vertex 0.019973468 -0.0162438899 -0.00148431933
  endloop
 endfacet

 facet normal -0.995903432 0.0854576081 -0.0295518301
  outer loop
  vertex 0.0195215903 -0.0155887157 0.0156386849
  vertex 0.019973468 -0.0162438899 -0.00148431933
  vertex 0.0199206527 -0.016859401 -0.00148431933
  endloop
 endfacet

 facet normal -0.997478724 0.0651721433 -0.0280831736
  outer loop
  vertex 0.0195215903 -0.0155887157 0.0156386849
  vertex 0.0199206527 -0.016859401 -0.00148431933
  vertex 0.0198795721 -0.0174881313 -0.00148431933
  endloop
 endfacet

 facet normal -0.999767721 0.00109150365 -0.0215229504
  outer loop
  vertex 0.0198795721 -0.0174881313 -0.00148431933
  vertex 0.0195127893 -0.0174896009 0.015553195
  vertex 0.0195127893 -0.0168946553 0.0155833662
  endloop
 endfacet

 facet normal -0.999767721 0.0011173276 -0.0215238519
  outer loop
  vertex 0.0198795721 -0.0174881313 -0.00148431933
  vertex 0.0195127893 -0.0168946553 0.0155833662
  vertex 0.0195127893 -0.0168623384 0.0155850444
  endloop
 endfacet

 facet normal 0.99140358 0.129147321 -0.0209742263
  outer loop
  vertex 0.0344306082 -0.0168623384 0.0156386849
  vertex 0.0339728631 -0.0161293074 -0.00148431933
  vertex 0.0344262086 -0.0168285519 0.0156386849
  endloop
 endfacet

 facet normal 0.924208105 0.380819798 -0.0285627972
  outer loop
  vertex 0.0339728631 -0.0161293074 -0.00148431933
  vertex 0.0336647667 -0.0153815867 -0.00148431933
  vertex 0.0340256803 -0.0149732046 0.0156386849
  endloop
 endfacet

 facet normal 0.972654939 0.23150669 -0.0186309889
  outer loop
  vertex 0.0339728631 -0.0161293074 -0.00148431933
  vertex 0.0340256803 -0.0149732046 0.0156386849
  vertex 0.0341753289 -0.0156019367 0.0156386849
  endloop
 endfacet

 facet normal 0.979563594 0.200349972 -0.0177530833
  outer loop
  vertex 0.0339728631 -0.0161293074 -0.00148431933
  vertex 0.0341753289 -0.0156019367 0.0156386849
  vertex 0.0344262086 -0.0168285519 0.0156386849
  endloop
 endfacet

 facet normal -0.870194793 0.491594046 -0.0331121981
  outer loop
  vertex 0.0201157816 -0.0142930578 0.0156386849
  vertex 0.020709971 -0.0132412538 0.0156386849
  vertex 0.020740781 -0.0143400664 -0.00148431933
  endloop
 endfacet

 facet normal -0.893310785 0.448163807 -0.0338367149
  outer loop
  vertex 0.0201157816 -0.0142930578 0.0156386849
  vertex 0.020740781 -0.0143400664 -0.00148431933
  vertex 0.020423878 -0.0149717359 -0.00148431933
  endloop
 endfacet

 facet normal -0.899081707 0.436498761 -0.0334782079
  outer loop
  vertex 0.0201157816 -0.0142930578 0.0156386849
  vertex 0.020423878 -0.0149717359 -0.00148431933
  vertex 0.0201157816 -0.0156063437 -0.00148431933
  endloop
 endfacet

 facet normal 0.92051661 0.389648229 -0.0286955442
  outer loop
  vertex 0.0336647667 -0.0153815867 -0.00148431933
  vertex 0.0332525 -0.0144076394 -0.00148431933
  vertex 0.0340256803 -0.0149732046 0.0156386849
  endloop
 endfacet

 facet normal 0.88578999 0.463429034 -0.0246905349
  outer loop
  vertex 0.0340256803 -0.0149732046 0.0156386849
  vertex 0.0332525 -0.0144076394 -0.00148431933
  vertex 0.033236362 -0.0143767912 -0.00148431933
  endloop
 endfacet

 facet normal 0.877380073 0.479207575 -0.0237532798
  outer loop
  vertex 0.0340256803 -0.0149732046 0.0156386849
  vertex 0.033236362 -0.0143767912 -0.00148431933
  vertex 0.0335635319 -0.0141270608 0.0156386849
  endloop
 endfacet

 facet normal -0.844858348 0.533958554 -0.0332068726
  outer loop
  vertex 0.020709971 -0.0132412538 0.0156386849
  vertex 0.0208288077 -0.0130532226 0.0156386849
  vertex 0.0214303341 -0.0131663354 -0.00148431933
  endloop
 endfacet

 facet normal -0.861716032 0.506248057 -0.0340373144
  outer loop
  vertex 0.020709971 -0.0132412538 0.0156386849
  vertex 0.0214303341 -0.0131663354 -0.00148431933
  vertex 0.020740781 -0.0143400664 -0.00148431933
  endloop
 endfacet

 facet normal 0.831026435 0.55571574 -0.0239834245
  outer loop
  vertex 0.0335635319 -0.0141270608 0.0156386849
  vertex 0.033236362 -0.0143767912 -0.00148431933
  vertex 0.0330104232 -0.0140389204 -0.00148431933
  endloop
 endfacet

 facet normal 0.823267162 0.567160249 -0.0236738734
  outer loop
  vertex 0.0335635319 -0.0141270608 0.0156386849
  vertex 0.0330104232 -0.0140389204 -0.00148431933
  vertex 0.0324851871 -0.0132765109 -0.00148431933
  endloop
 endfacet

 facet normal 0.820057034 0.571809769 -0.0232407525
  outer loop
  vertex 0.0335635319 -0.0141270608 0.0156386849
  vertex 0.0324851871 -0.0132765109 -0.00148431933
  vertex 0.0328373015 -0.0130855404 0.0156386849
  endloop
 endfacet

 facet normal -0.739867091 0.672064424 -0.0304308757
  outer loop
  vertex 0.0208288077 -0.0130532226 0.0156386849
  vertex 0.0214039236 -0.0124200834 0.0156386849
  vertex 0.0214303341 -0.0131663354 -0.00148431933
  endloop
 endfacet

 facet normal -0.72186929 0.691323876 -0.0312424805
  outer loop
  vertex 0.0214303341 -0.0131663354 -0.00148431933
  vertex 0.0214039236 -0.0124200834 0.0156386849
  vertex 0.0220465288 -0.0125229135 -0.00148431933
  endloop
 endfacet

 facet normal 0.819798887 0.572179794 -0.0232395735
  outer loop
  vertex 0.0328373015 -0.0130855404 0.0156386849
  vertex 0.0324851871 -0.0132765109 -0.00148431933
  vertex 0.0322196372 -0.0128960395 -0.00148431933
  endloop
 endfacet

 facet normal 0.783029199 0.621617854 -0.0213660784
  outer loop
  vertex 0.0328373015 -0.0130855404 0.0156386849
  vertex 0.0322196372 -0.0128960395 -0.00148431933
  vertex 0.0322005637 -0.0122834668 0.0156386849
  endloop
 endfacet

 facet normal -0.702416062 0.711107194 -0.030631233
  outer loop
  vertex 0.0214039236 -0.0124200834 0.0156386849
  vertex 0.0219482314 -0.0118824299 0.0156386849
  vertex 0.0220465288 -0.0125229135 -0.00148431933
  endloop
 endfacet

 facet normal -0.600153685 0.799189687 -0.0333388858
  outer loop
  vertex 0.0220465288 -0.0125229135 -0.00148431933
  vertex 0.0219482314 -0.0118824299 0.0156386849
  vertex 0.0226099081 -0.0120998416 -0.00148431933
  endloop
 endfacet

 facet normal 0.673673034 0.738583505 -0.0256723128
  outer loop
  vertex 0.0322005637 -0.0122834668 0.0156386849
  vertex 0.0322196372 -0.0128960395 -0.00148431933
  vertex 0.0315770321 -0.0123099089 -0.00148431933
  endloop
 endfacet

 facet normal 0.602696896 0.797633529 -0.0231789127
  outer loop
  vertex 0.0322005637 -0.0122834668 0.0156386849
  vertex 0.0315770321 -0.0123099089 -0.00148431933
  vertex 0.0314112455 -0.0116870534 0.0156386849
  endloop
 endfacet

 facet normal -0.509939075 0.859750748 -0.0281238146
  outer loop
  vertex 0.0219482314 -0.0118824299 0.0156386849
  vertex 0.0239097886 -0.0107189827 0.0156386849
  vertex 0.0239303298 -0.0112669198 -0.00148431933
  endloop
 endfacet

 facet normal -0.525770903 0.850086331 -0.0303038564
  outer loop
  vertex 0.0219482314 -0.0118824299 0.0156386849
  vertex 0.0239303298 -0.0112669198 -0.00148431933
  vertex 0.0232011639 -0.0117179025 -0.00148431933
  endloop
 endfacet

 facet normal -0.542341828 0.839562833 -0.0316175036
  outer loop
  vertex 0.0219482314 -0.0118824299 0.0156386849
  vertex 0.0232011639 -0.0117179025 -0.00148431933
  vertex 0.0226099081 -0.0120998416 -0.00148431933
  endloop
 endfacet

 facet normal 0.554327667 0.831926107 -0.0248946361
  outer loop
  vertex 0.0314112455 -0.0116870534 0.0156386849
  vertex 0.0315770321 -0.0123099089 -0.00148431933
  vertex 0.0303490404 -0.0114916759 -0.00148431933
  endloop
 endfacet

 facet normal 0.521214128 0.853126645 -0.0225985739
  outer loop
  vertex 0.0314112455 -0.0116870534 0.0156386849
  vertex 0.0303490404 -0.0114916759 -0.00148431933
  vertex 0.0307187587 -0.0112639805 0.0156386849
  endloop
 endfacet

 facet normal -0.316976815 0.94793576 -0.0307142641
  outer loop
  vertex 0.0239097886 -0.0107189827 0.0156386849
  vertex 0.0246873703 -0.0104589695 0.0156386849
  vertex 0.0239303298 -0.0112669198 -0.00148431933
  endloop
 endfacet

 facet normal -0.270262033 0.96220541 -0.0334529318
  outer loop
  vertex 0.0239303298 -0.0112669198 -0.00148431933
  vertex 0.0246873703 -0.0104589695 0.0156386849
  vertex 0.0244951751 -0.0111082671 -0.00148431933
  endloop
 endfacet

 facet normal 0.472826093 0.880882978 -0.0219228789
  outer loop
  vertex 0.0307187587 -0.0112639805 0.0156386849
  vertex 0.0303490404 -0.0114916759 -0.00148431933
  vertex 0.030149512 -0.0109584294 0.0156386849
  endloop
 endfacet

 facet normal 0.46031484 0.887476325 -0.0222739987
  outer loop
  vertex 0.0303490404 -0.0114916759 -0.00148431933
  vertex 0.0300233383 -0.0113227414 -0.00148431933
  vertex 0.030149512 -0.0109584294 0.0156386849
  endloop
 endfacet

 facet normal -0.239610523 0.970373034 -0.0310317036
  outer loop
  vertex 0.0246873703 -0.0104589695 0.0156386849
  vertex 0.0252287425 -0.0103252903 0.0156386849
  vertex 0.0264171213 -0.0105794277 -0.00148431933
  endloop
 endfacet

 facet normal -0.265148878 0.963623166 -0.0335640833
  outer loop
  vertex 0.0246873703 -0.0104589695 0.0156386849
  vertex 0.0264171213 -0.0105794277 -0.00148431933
  vertex 0.0244951751 -0.0111082671 -0.00148431933
  endloop
 endfacet

 facet normal 0.458633244 0.888346314 -0.0222801156
  outer loop
  vertex 0.030149512 -0.0109584294 0.0156386849
  vertex 0.0300233383 -0.0113227414 -0.00148431933
  vertex 0.0296477508 -0.0111288335 -0.00148431933
  endloop
 endfacet

 facet normal 0.406578749 0.913374305 -0.0210038237
  outer loop
  vertex 0.030149512 -0.0109584294 0.0156386849
  vertex 0.0296477508 -0.0111288335 -0.00148431933
  vertex 0.0288921781 -0.0103987409 0.0156386849
  endloop
 endfacet

 facet normal -0.0388492756 0.999091506 -0.0175246093
  outer loop
  vertex 0.0252287425 -0.0103252903 0.0156386849
  vertex 0.0258332025 -0.0103017865 0.0156386849
  vertex 0.0264171213 -0.0105794277 -0.00148431933
  endloop
 endfacet

 facet normal -0.0299448054 0.999403179 -0.0172260068
  outer loop
  vertex 0.0264171213 -0.0105794277 -0.00148431933
  vertex 0.0258332025 -0.0103017865 0.0156386849
  vertex 0.0270054415 -0.0105618006 -0.00148431933
  endloop
 endfacet

 facet normal 0.241405785 0.969938397 -0.0307040699
  outer loop
  vertex 0.0288921781 -0.0103987409 0.0156386849
  vertex 0.0296477508 -0.0111288335 -0.00148431933
  vertex 0.0275937635 -0.0106176212 -0.00148431933
  endloop
 endfacet

 facet normal 0.118716516 0.992691338 -0.0216915514
  outer loop
  vertex 0.0288921781 -0.0103987409 0.0156386849
  vertex 0.0275937635 -0.0106176212 -0.00148431933
  vertex 0.0282657109 -0.0103238206 0.0156386849
  endloop
 endfacet

 facet normal -0.00705004204 0.999852419 -0.0156654548
  outer loop
  vertex 0.0258332025 -0.0103017865 0.0156386849
  vertex 0.0264582019 -0.0102973795 0.0156386849
  vertex 0.0270054415 -0.0105618006 -0.00148431933
  endloop
 endfacet

 facet normal 0 0.999880791 -0.0154405786
  outer loop
  vertex 0.0270054415 -0.0105618006 -0.00148431933
  vertex 0.0264582019 -0.0102973795 0.0156386849
  vertex 0.027008377 -0.0102973795 0.0156386849
  endloop
 endfacet

 facet normal 0 0.999880791 -0.0154405786
  outer loop
  vertex 0.0270054415 -0.0105618006 -0.00148431933
  vertex 0.027008377 -0.0102973795 0.0156386849
  vertex 0.027008377 -0.0105618006 -0.00148431933
  endloop
 endfacet

 facet normal 0.0949070305 0.995268881 -0.0208014324
  outer loop
  vertex 0.0282657109 -0.0103238206 0.0156386849
  vertex 0.0275937635 -0.0106176212 -0.00148431933
  vertex 0.027008377 -0.0105618006 -0.00148431933
  endloop
 endfacet

 facet normal 0.0349014178 0.999255359 -0.0164506547
  outer loop
  vertex 0.0282657109 -0.0103238206 0.0156386849
  vertex 0.027008377 -0.0105618006 -0.00148431933
  vertex 0.0276348442 -0.0103017865 0.0156386849
  endloop
 endfacet

 facet normal 0.00703354925 0.999855995 -0.0154401949
  outer loop
  vertex 0.027008377 -0.0105618006 -0.00148431933
  vertex 0.027008377 -0.0102973795 0.0156386849
  vertex 0.0276348442 -0.0103017865 0.0156386849
  endloop
 endfacet

endsolid AssimpScene
