solid AssimpScene
 facet normal -0.998597741 -0.0529267341 -0.0011472028
  outer loop
  vertex -0.0669207498 -0.0441175513 -0.00770514878
  vertex -0.0669486895 -0.044011686 0.0117363594
  vertex -0.0669508427 -0.0439711139 0.0117363594
  endloop
 endfacet

 facet normal -0.999998748 0 -0.00154802133
  outer loop
  vertex -0.0669207498 -0.0441175513 -0.00770514878
  vertex -0.0669508427 -0.0439711139 0.0117363594
  vertex -0.0669207498 -0.0440662019 -0.00770514878
  endloop
 endfacet

 facet normal 0 0 -1
  outer loop
  vertex -0.0669207498 -0.0441175513 -0.00770514878
  vertex -0.0669207498 -0.0440662019 -0.00770514878
  vertex -0.0669185966 -0.0440230966 -0.00770514878
  endloop
 endfacet

 facet normal 0 0 -1
  outer loop
  vertex -0.0669207498 -0.0441175513 -0.00770514878
  vertex -0.0669185966 -0.0440230966 -0.00770514878
  vertex -0.0669121444 -0.0439825244 -0.00770514878
  endloop
 endfacet

 facet normal 0 0 -1
  outer loop
  vertex -0.0669207498 -0.0441175513 -0.00770514878
  vertex -0.0669121444 -0.0439825244 -0.00770514878
  vertex -0.0668992475 -0.0439349785 -0.00770514878
  endloop
 endfacet

 facet normal 0 0 -1
  outer loop
  vertex -0.0669207498 -0.0441175513 -0.00770514878
  vertex -0.0668992475 -0.0439349785 -0.00770514878
  vertex -0.0668842047 -0.0438950434 -0.00770514878
  endloop
 endfacet

 facet normal 0 0 -1
  outer loop
  vertex -0.0669207498 -0.0441175513 -0.00770514878
  vertex -0.0668842047 -0.0438950434 -0.00770514878
  vertex -0.0668691546 -0.0438633487 -0.00770514878
  endloop
 endfacet

 facet normal 0 0 -1
  outer loop
  vertex -0.0669207498 -0.0441175513 -0.00770514878
  vertex -0.0668691546 -0.0438633487 -0.00770514878
  vertex -0.0668498054 -0.0438259467 -0.00770514878
  endloop
 endfacet

 facet normal 0 0 -1
  outer loop
  vertex -0.0669207498 -0.0441175513 -0.00770514878
  vertex -0.0668498054 -0.0438259467 -0.00770514878
  vertex -0.0668455064 -0.043818973 -0.00770514878
  endloop
 endfacet

 facet normal 0 0 -1
  outer loop
  vertex -0.0669207498 -0.0441175513 -0.00770514878
  vertex -0.0668455064 -0.043818973 -0.00770514878
  vertex -0.0668261573 -0.0437910818 -0.00770514878
  endloop
 endfacet

 facet normal 0 0 -1
  outer loop
  vertex -0.0669207498 -0.0441175513 -0.00770514878
  vertex -0.0668261573 -0.0437910818 -0.00770514878
  vertex -0.0667939112 -0.0437505096 -0.00770514878
  endloop
 endfacet

 facet normal 0 0 -1
  outer loop
  vertex -0.0669207498 -0.0441175513 -0.00770514878
  vertex -0.0667939112 -0.0437505096 -0.00770514878
  vertex -0.0667681172 -0.043724522 -0.00770514878
  endloop
 endfacet

 facet normal 0 0 -1
  outer loop
  vertex -0.0669207498 -0.0441175513 -0.00770514878
  vertex -0.0667681172 -0.043724522 -0.00770514878
  vertex -0.0667272732 -0.0436896533 -0.00770514878
  endloop
 endfacet

 facet normal 0 0 -1
  outer loop
  vertex -0.0669207498 -0.0441175513 -0.00770514878
  vertex -0.0667272732 -0.0436896533 -0.00770514878
  vertex -0.066699326 -0.0436700024 -0.00770514878
  endloop
 endfacet

 facet normal 0 0 -1
  outer loop
  vertex -0.0669207498 -0.0441175513 -0.00770514878
  vertex -0.066699326 -0.0436700024 -0.00770514878
  vertex -0.066654183 -0.043644011 -0.00770514878
  endloop
 endfacet

 facet normal 0 0 -1
  outer loop
  vertex -0.0669207498 -0.0441175513 -0.00770514878
  vertex -0.066654183 -0.043644011 -0.00770514878
  vertex -0.0666154921 -0.0436243601 -0.00770514878
  endloop
 endfacet

 facet normal 0 0 -1
  outer loop
  vertex -0.0669207498 -0.0441175513 -0.00770514878
  vertex -0.0666154921 -0.0436243601 -0.00770514878
  vertex -0.0665767938 -0.0436097793 -0.00770514878
  endloop
 endfacet

 facet normal 0 0 -1
  outer loop
  vertex -0.0669207498 -0.0441175513 -0.00770514878
  vertex -0.0665767938 -0.0436097793 -0.00770514878
  vertex -0.0554026961 -0.039526701 -0.00770514878
  endloop
 endfacet

 facet normal 0 0 -1
  outer loop
  vertex -0.0669207498 -0.0441175513 -0.00770514878
  vertex -0.0554026961 -0.039526701 -0.00770514878
  vertex -0.0473671481 -0.039526701 -0.00770514878
  endloop
 endfacet

 facet normal 0 0 -1
  outer loop
  vertex -0.0669207498 -0.0441175513 -0.00770514878
  vertex -0.0473671481 -0.039526701 -0.00770514878
  vertex -0.0471994728 -0.0402614139 -0.00770514878
  endloop
 endfacet

 facet normal 0 0 -1
  outer loop
  vertex -0.0669207498 -0.0441175513 -0.00770514878
  vertex -0.0471994728 -0.0402614139 -0.00770514878
  vertex -0.0471478775 -0.0404896252 -0.00770514878
  endloop
 endfacet

 facet normal 0 0 -1
  outer loop
  vertex -0.0669207498 -0.0441175513 -0.00770514878
  vertex -0.0471478775 -0.0404896252 -0.00770514878
  vertex -0.047145728 -0.040501669 -0.00770514878
  endloop
 endfacet

 facet normal 0 0 -1
  outer loop
  vertex -0.0669207498 -0.0441175513 -0.00770514878
  vertex -0.047145728 -0.040501669 -0.00770514878
  vertex -0.0471435785 -0.0405244902 -0.00770514878
  endloop
 endfacet

 facet normal 0 0 -1
  outer loop
  vertex -0.0669207498 -0.0441175513 -0.00770514878
  vertex -0.0471435785 -0.0405244902 -0.00770514878
  vertex -0.0471435785 -0.0405561887 -0.00770514878
  endloop
 endfacet

 facet normal 0 0 -1
  outer loop
  vertex -0.0669207498 -0.0441175513 -0.00770514878
  vertex -0.0471435785 -0.0405561887 -0.00770514878
  vertex -0.047145728 -0.0405859835 -0.00770514878
  endloop
 endfacet

 facet normal 0 0 -1
  outer loop
  vertex -0.0669207498 -0.0441175513 -0.00770514878
  vertex -0.047145728 -0.0405859835 -0.00770514878
  vertex -0.047150027 -0.0406138748 -0.00770514878
  endloop
 endfacet

 facet normal 0 0 -1
  outer loop
  vertex -0.0669207498 -0.0441175513 -0.00770514878
  vertex -0.047150027 -0.0406138748 -0.00770514878
  vertex -0.0471564755 -0.0406411327 -0.00770514878
  endloop
 endfacet

 facet normal 0 0 -1
  outer loop
  vertex -0.0669207498 -0.0441175513 -0.00770514878
  vertex -0.0471564755 -0.0406411327 -0.00770514878
  vertex -0.0471672267 -0.0406759977 -0.00770514878
  endloop
 endfacet

 facet normal 0 0 -1
  outer loop
  vertex -0.0669207498 -0.0441175513 -0.00770514878
  vertex -0.0471672267 -0.0406759977 -0.00770514878
  vertex -0.0471951701 -0.0407431945 -0.00770514878
  endloop
 endfacet

 facet normal 0 0 -1
  outer loop
  vertex -0.0669207498 -0.0441175513 -0.00770514878
  vertex -0.0471951701 -0.0407431945 -0.00770514878
  vertex -0.0472102202 -0.0407761596 -0.00770514878
  endloop
 endfacet

 facet normal 0 0 -1
  outer loop
  vertex -0.0669207498 -0.0441175513 -0.00770514878
  vertex -0.0472102202 -0.0407761596 -0.00770514878
  vertex -0.0472295657 -0.0408135578 -0.00770514878
  endloop
 endfacet

 facet normal 0 0 -1
  outer loop
  vertex -0.0669207498 -0.0441175513 -0.00770514878
  vertex -0.0472295657 -0.0408135578 -0.00770514878
  vertex -0.0472768582 -0.0408896282 -0.00770514878
  endloop
 endfacet

 facet normal 0 0 -1
  outer loop
  vertex -0.0669207498 -0.0441175513 -0.00770514878
  vertex -0.0472768582 -0.0408896282 -0.00770514878
  vertex -0.047339201 -0.0409777462 -0.00770514878
  endloop
 endfacet

 facet normal 0 0 -1
  outer loop
  vertex -0.0669207498 -0.0441175513 -0.00770514878
  vertex -0.047339201 -0.0409777462 -0.00770514878
  vertex -0.047388643 -0.0410398692 -0.00770514878
  endloop
 endfacet

 facet normal 0 0 -1
  outer loop
  vertex -0.0669207498 -0.0441175513 -0.00770514878
  vertex -0.047388643 -0.0410398692 -0.00770514878
  vertex -0.0474574342 -0.0411191098 -0.00770514878
  endloop
 endfacet

 facet normal 0 0 -1
  outer loop
  vertex -0.0669207498 -0.0441175513 -0.00770514878
  vertex -0.0474574342 -0.0411191098 -0.00770514878
  vertex -0.0474703312 -0.0411330536 -0.00770514878
  endloop
 endfacet

 facet normal 0 0 -1
  outer loop
  vertex -0.0669207498 -0.0441175513 -0.00770514878
  vertex -0.0474703312 -0.0411330536 -0.00770514878
  vertex -0.0475412719 -0.0412078574 -0.00770514878
  endloop
 endfacet

 facet normal 0 0 -1
  outer loop
  vertex -0.0669207498 -0.0441175513 -0.00770514878
  vertex -0.0475412719 -0.0412078574 -0.00770514878
  vertex -0.0476186611 -0.0412839279 -0.00770514878
  endloop
 endfacet

 facet normal 0 0 -1
  outer loop
  vertex -0.0669207498 -0.0441175513 -0.00770514878
  vertex -0.0476186611 -0.0412839279 -0.00770514878
  vertex -0.0476659536 -0.0413270332 -0.00770514878
  endloop
 endfacet

 facet normal 0 0 -1
  outer loop
  vertex -0.0669207498 -0.0441175513 -0.00770514878
  vertex -0.0476659536 -0.0413270332 -0.00770514878
  vertex -0.0477261469 -0.0413485877 -0.00770514878
  endloop
 endfacet

 facet normal 0 0 -1
  outer loop
  vertex -0.0669207498 -0.0441175513 -0.00770514878
  vertex -0.0477261469 -0.0413485877 -0.00770514878
  vertex -0.0478809215 -0.0414005704 -0.00770514878
  endloop
 endfacet

 facet normal 0 0 -1
  outer loop
  vertex -0.0669207498 -0.0441175513 -0.00770514878
  vertex -0.0478809215 -0.0414005704 -0.00770514878
  vertex -0.0480399989 -0.0414500162 -0.00770514878
  endloop
 endfacet

 facet normal 0 0 -1
  outer loop
  vertex -0.0669207498 -0.0441175513 -0.00770514878
  vertex -0.0480399989 -0.0414500162 -0.00770514878
  vertex -0.0481861793 -0.0414924882 -0.00770514878
  endloop
 endfacet

 facet normal 0 0 -1
  outer loop
  vertex -0.0669207498 -0.0441175513 -0.00770514878
  vertex -0.0481861793 -0.0414924882 -0.00770514878
  vertex -0.0482076779 -0.0414981917 -0.00770514878
  endloop
 endfacet

 facet normal 0 0 -1
  outer loop
  vertex -0.0669207498 -0.0441175513 -0.00770514878
  vertex -0.0482076779 -0.0414981917 -0.00770514878
  vertex -0.0483710542 -0.0415400304 -0.00770514878
  endloop
 endfacet

 facet normal 0 0 -1
  outer loop
  vertex -0.0669207498 -0.0441175513 -0.00770514878
  vertex -0.0483710542 -0.0415400304 -0.00770514878
  vertex -0.0484591909 -0.0415615849 -0.00770514878
  endloop
 endfacet

 facet normal 0 0 -1
  outer loop
  vertex -0.0669207498 -0.0441175513 -0.00770514878
  vertex -0.0484591909 -0.0415615849 -0.00770514878
  vertex -0.066097416 -0.0455508418 -0.00770514878
  endloop
 endfacet

 facet normal 0 0 -1
  outer loop
  vertex -0.0669207498 -0.0441175513 -0.00770514878
  vertex -0.066097416 -0.0455508418 -0.00770514878
  vertex -0.0661404058 -0.0455571823 -0.00770514878
  endloop
 endfacet

 facet normal 0 0 -1
  outer loop
  vertex -0.0669207498 -0.0441175513 -0.00770514878
  vertex -0.0661404058 -0.0455571823 -0.00770514878
  vertex -0.0661769509 -0.0455603525 -0.00770514878
  endloop
 endfacet

 facet normal 0 0 -1
  outer loop
  vertex -0.0669207498 -0.0441175513 -0.00770514878
  vertex -0.0661769509 -0.0455603525 -0.00770514878
  vertex -0.0662199482 -0.0455616191 -0.00770514878
  endloop
 endfacet

 facet normal 0 0 -1
  outer loop
  vertex -0.0669207498 -0.0441175513 -0.00770514878
  vertex -0.0662199482 -0.0455616191 -0.00770514878
  vertex -0.0662629381 -0.0455571823 -0.00770514878
  endloop
 endfacet

 facet normal 0 0 -1
  outer loop
  vertex -0.0669207498 -0.0441175513 -0.00770514878
  vertex -0.0662629381 -0.0455571823 -0.00770514878
  vertex -0.0663080812 -0.0455502085 -0.00770514878
  endloop
 endfacet

 facet normal 0 0 -1
  outer loop
  vertex -0.0669207498 -0.0441175513 -0.00770514878
  vertex -0.0663080812 -0.0455502085 -0.00770514878
  vertex -0.0663489252 -0.045538798 -0.00770514878
  endloop
 endfacet

 facet normal 0 0 -1
  outer loop
  vertex -0.0669207498 -0.0441175513 -0.00770514878
  vertex -0.0663489252 -0.045538798 -0.00770514878
  vertex -0.0663897693 -0.0455242172 -0.00770514878
  endloop
 endfacet

 facet normal 0 0 -1
  outer loop
  vertex -0.0669207498 -0.0441175513 -0.00770514878
  vertex -0.0663897693 -0.0455242172 -0.00770514878
  vertex -0.0664370656 -0.0455020294 -0.00770514878
  endloop
 endfacet

 facet normal 0 0 -1
  outer loop
  vertex -0.0669207498 -0.0441175513 -0.00770514878
  vertex -0.0664370656 -0.0455020294 -0.00770514878
  vertex -0.0664671585 -0.0454842821 -0.00770514878
  endloop
 endfacet

 facet normal 0 0 -1
  outer loop
  vertex -0.0669207498 -0.0441175513 -0.00770514878
  vertex -0.0664671585 -0.0454842821 -0.00770514878
  vertex -0.0664929599 -0.0454665311 -0.00770514878
  endloop
 endfacet

 facet normal 0 0 -1
  outer loop
  vertex -0.0669207498 -0.0441175513 -0.00770514878
  vertex -0.0664929599 -0.0454665311 -0.00770514878
  vertex -0.0665037036 -0.045458924 -0.00770514878
  endloop
 endfacet

 facet normal 0 0 -1
  outer loop
  vertex -0.0669207498 -0.0441175513 -0.00770514878
  vertex -0.0665037036 -0.045458924 -0.00770514878
  vertex -0.0665381029 -0.0454310328 -0.00770514878
  endloop
 endfacet

 facet normal 0 0 -1
  outer loop
  vertex -0.0669207498 -0.0441175513 -0.00770514878
  vertex -0.0665381029 -0.0454310328 -0.00770514878
  vertex -0.0665595978 -0.0454101115 -0.00770514878
  endloop
 endfacet

 facet normal 0 0 -1
  outer loop
  vertex -0.0669207498 -0.0441175513 -0.00770514878
  vertex -0.0665595978 -0.0454101115 -0.00770514878
  vertex -0.0665681958 -0.0454006046 -0.00770514878
  endloop
 endfacet

 facet normal 0 0 -1
  outer loop
  vertex -0.0669207498 -0.0441175513 -0.00770514878
  vertex -0.0665681958 -0.0454006046 -0.00770514878
  vertex -0.0665961429 -0.0453670062 -0.00770514878
  endloop
 endfacet

 facet normal 0 0 -1
  outer loop
  vertex -0.0669207498 -0.0441175513 -0.00770514878
  vertex -0.0665961429 -0.0453670062 -0.00770514878
  vertex -0.0666219369 -0.0453321412 -0.00770514878
  endloop
 endfacet

 facet normal 0 0 -1
  outer loop
  vertex -0.0669207498 -0.0441175513 -0.00770514878
  vertex -0.0666219369 -0.0453321412 -0.00770514878
  vertex -0.0666262358 -0.0453258008 -0.00770514878
  endloop
 endfacet

 facet normal 0 0 -1
  outer loop
  vertex -0.0669207498 -0.0441175513 -0.00770514878
  vertex -0.0666262358 -0.0453258008 -0.00770514878
  vertex -0.0666477382 -0.045286499 -0.00770514878
  endloop
 endfacet

 facet normal 0 0 -1
  outer loop
  vertex -0.0669207498 -0.0441175513 -0.00770514878
  vertex -0.0666477382 -0.045286499 -0.00770514878
  vertex -0.0666627809 -0.0452548005 -0.00770514878
  endloop
 endfacet

 facet normal 0 0 -1
  outer loop
  vertex -0.0669207498 -0.0441175513 -0.00770514878
  vertex -0.0666627809 -0.0452548005 -0.00770514878
  vertex -0.0666670799 -0.0452433899 -0.00770514878
  endloop
 endfacet

 facet normal 0 0 -1
  outer loop
  vertex -0.0669207498 -0.0441175513 -0.00770514878
  vertex -0.0666670799 -0.0452433899 -0.00770514878
  vertex -0.0666778311 -0.0452142321 -0.00770514878
  endloop
 endfacet

 facet normal 0 0 -1
  outer loop
  vertex -0.0669207498 -0.0441175513 -0.00770514878
  vertex -0.0666778311 -0.0452142321 -0.00770514878
  vertex -0.0666864291 -0.0451838039 -0.00770514878
  endloop
 endfacet

 facet normal 0 0 -1
  outer loop
  vertex -0.0669207498 -0.0441175513 -0.00770514878
  vertex -0.0666864291 -0.0451838039 -0.00770514878
  vertex -0.0668627024 -0.0444078855 -0.00770514878
  endloop
 endfacet

 facet normal 0 0 -1
  outer loop
  vertex -0.0669207498 -0.0441175513 -0.00770514878
  vertex -0.0668627024 -0.0444078855 -0.00770514878
  vertex -0.0668949485 -0.0442652516 -0.00770514878
  endloop
 endfacet

 facet normal 0 0 -1
  outer loop
  vertex -0.0669207498 -0.0441175513 -0.00770514878
  vertex -0.0668949485 -0.0442652516 -0.00770514878
  vertex -0.0669099987 -0.0441961549 -0.00770514878
  endloop
 endfacet

 facet normal 0 0 -1
  outer loop
  vertex -0.0669207498 -0.0441175513 -0.00770514878
  vertex -0.0669099987 -0.0441961549 -0.00770514878
  vertex -0.0669185966 -0.044151783 -0.00770514878
  endloop
 endfacet

 facet normal -0.998032331 -0.0626908988 -0.00109322125
  outer loop
  vertex -0.0669207498 -0.0441175513 -0.00770514878
  vertex -0.0669185966 -0.044151783 -0.00770514878
  vertex -0.0669486895 -0.044011686 0.0117363594
  endloop
 endfacet

 facet normal 0 0 1
  outer loop
  vertex -0.0669486895 -0.044011686 0.0117363594
  vertex -0.0669357926 -0.0440928265 0.0117363594
  vertex -0.0669014007 -0.044246871 0.0117363594
  endloop
 endfacet

 facet normal 0 0 1
  outer loop
  vertex -0.0669486895 -0.044011686 0.0117363594
  vertex -0.0669014007 -0.044246871 0.0117363594
  vertex -0.0666928813 -0.04517176 0.0117363594
  endloop
 endfacet

 facet normal 0 0 1
  outer loop
  vertex -0.0669486895 -0.044011686 0.0117363594
  vertex -0.0666928813 -0.04517176 0.0117363594
  vertex -0.0666799843 -0.0452186689 0.0117363594
  endloop
 endfacet

 facet normal 0 0 1
  outer loop
  vertex -0.0669486895 -0.044011686 0.0117363594
  vertex -0.0666799843 -0.0452186689 0.0117363594
  vertex -0.0666520372 -0.0452858657 0.0117363594
  endloop
 endfacet

 facet normal 0 0 1
  outer loop
  vertex -0.0669486895 -0.044011686 0.0117363594
  vertex -0.0666520372 -0.0452858657 0.0117363594
  vertex -0.0666240901 -0.0453321412 0.0117363594
  endloop
 endfacet

 facet normal 0 0 1
  outer loop
  vertex -0.0669486895 -0.044011686 0.0117363594
  vertex -0.0666240901 -0.0453321412 0.0117363594
  vertex -0.0665961429 -0.0453708097 0.0117363594
  endloop
 endfacet

 facet normal 0 0 1
  outer loop
  vertex -0.0669486895 -0.044011686 0.0117363594
  vertex -0.0665961429 -0.0453708097 0.0117363594
  vertex -0.066570349 -0.0454006046 0.0117363594
  endloop
 endfacet

 facet normal 0 0 1
  outer loop
  vertex -0.0669486895 -0.044011686 0.0117363594
  vertex -0.066570349 -0.0454006046 0.0117363594
  vertex -0.0665381029 -0.0454341993 0.0117363594
  endloop
 endfacet

 facet normal 0 0 1
  outer loop
  vertex -0.0669486895 -0.044011686 0.0117363594
  vertex -0.0665381029 -0.0454341993 0.0117363594
  vertex -0.0665080026 -0.045458924 0.0117363594
  endloop
 endfacet

 facet normal 0 0 1
  outer loop
  vertex -0.0669486895 -0.044011686 0.0117363594
  vertex -0.0665080026 -0.045458924 0.0117363594
  vertex -0.0664800555 -0.045479212 0.0117363594
  endloop
 endfacet

 facet normal 0 0 1
  outer loop
  vertex -0.0669486895 -0.044011686 0.0117363594
  vertex -0.0664800555 -0.045479212 0.0117363594
  vertex -0.0664284676 -0.0455083698 0.0117363594
  endloop
 endfacet

 facet normal 0 0 1
  outer loop
  vertex -0.0669486895 -0.044011686 0.0117363594
  vertex -0.0664284676 -0.0455083698 0.0117363594
  vertex -0.0664026663 -0.0455204137 0.0117363594
  endloop
 endfacet

 facet normal 0 0 1
  outer loop
  vertex -0.0669486895 -0.044011686 0.0117363594
  vertex -0.0664026663 -0.0455204137 0.0117363594
  vertex -0.0663940683 -0.0455242172 0.0117363594
  endloop
 endfacet

 facet normal 0 0 1
  outer loop
  vertex -0.0669486895 -0.044011686 0.0117363594
  vertex -0.0663940683 -0.0455242172 0.0117363594
  vertex -0.0663532242 -0.045538798 0.0117363594
  endloop
 endfacet

 facet normal 0 0 1
  outer loop
  vertex -0.0669486895 -0.044011686 0.0117363594
  vertex -0.0663532242 -0.045538798 0.0117363594
  vertex -0.0663102344 -0.0455502085 0.0117363594
  endloop
 endfacet

 facet normal 0 0 1
  outer loop
  vertex -0.0669486895 -0.044011686 0.0117363594
  vertex -0.0663102344 -0.0455502085 0.0117363594
  vertex -0.0662672371 -0.0455578156 0.0117363594
  endloop
 endfacet

 facet normal 0 0 1
  outer loop
  vertex -0.0669486895 -0.044011686 0.0117363594
  vertex -0.0662672371 -0.0455578156 0.0117363594
  vertex -0.0662242472 -0.0455616191 0.0117363594
  endloop
 endfacet

 facet normal 0 0 1
  outer loop
  vertex -0.0669486895 -0.044011686 0.0117363594
  vertex -0.0662242472 -0.0455616191 0.0117363594
  vertex -0.0661748052 -0.0455609858 0.0117363594
  endloop
 endfacet

 facet normal 0 0 1
  outer loop
  vertex -0.0669486895 -0.044011686 0.0117363594
  vertex -0.0661748052 -0.0455609858 0.0117363594
  vertex -0.0661361068 -0.0455571823 0.0117363594
  endloop
 endfacet

 facet normal 0 0 1
  outer loop
  vertex -0.0669486895 -0.044011686 0.0117363594
  vertex -0.0661361068 -0.0455571823 0.0117363594
  vertex -0.066093117 -0.0455495752 0.0117363594
  endloop
 endfacet

 facet normal 0 0 1
  outer loop
  vertex -0.0669486895 -0.044011686 0.0117363594
  vertex -0.066093117 -0.0455495752 0.0117363594
  vertex -0.0616711974 -0.0445498824 0.0117363594
  endloop
 endfacet

 facet normal 0 0 1
  outer loop
  vertex -0.0669486895 -0.044011686 0.0117363594
  vertex -0.0616711974 -0.0445498824 0.0117363594
  vertex -0.0478766225 -0.0414303616 0.0117363594
  endloop
 endfacet

 facet normal 0 0 1
  outer loop
  vertex -0.0669486895 -0.044011686 0.0117363594
  vertex -0.0478766225 -0.0414303616 0.0117363594
  vertex -0.0478766225 -0.0390854925 0.0117363594
  endloop
 endfacet

 facet normal 0 0 1
  outer loop
  vertex -0.0669486895 -0.044011686 0.0117363594
  vertex -0.0478766225 -0.0390854925 0.0117363594
  vertex -0.0665574446 -0.0434696823 0.0117363594
  endloop
 endfacet

 facet normal 0 0 1
  outer loop
  vertex -0.0669486895 -0.044011686 0.0117363594
  vertex -0.0665574446 -0.0434696823 0.0117363594
  vertex -0.0665961429 -0.0434804596 0.0117363594
  endloop
 endfacet

 facet normal 0 0 1
  outer loop
  vertex -0.0669486895 -0.044011686 0.0117363594
  vertex -0.0665961429 -0.0434804596 0.0117363594
  vertex -0.0666348338 -0.0434937738 0.0117363594
  endloop
 endfacet

 facet normal 0 0 1
  outer loop
  vertex -0.0669486895 -0.044011686 0.0117363594
  vertex -0.0666348338 -0.0434937738 0.0117363594
  vertex -0.0666692331 -0.0435096212 0.0117363594
  endloop
 endfacet

 facet normal 0 0 1
  outer loop
  vertex -0.0669486895 -0.044011686 0.0117363594
  vertex -0.0666692331 -0.0435096212 0.0117363594
  vertex -0.0667057782 -0.0435280018 0.0117363594
  endloop
 endfacet

 facet normal 0 0 1
  outer loop
  vertex -0.0669486895 -0.044011686 0.0117363594
  vertex -0.0667057782 -0.0435280018 0.0117363594
  vertex -0.0667358711 -0.0435495563 0.0117363594
  endloop
 endfacet

 facet normal 0 0 1
  outer loop
  vertex -0.0669486895 -0.044011686 0.0117363594
  vertex -0.0667358711 -0.0435495563 0.0117363594
  vertex -0.0667659715 -0.0435736477 0.0117363594
  endloop
 endfacet

 facet normal 0 0 1
  outer loop
  vertex -0.0669486895 -0.044011686 0.0117363594
  vertex -0.0667659715 -0.0435736477 0.0117363594
  vertex -0.0667960644 -0.0435996354 0.0117363594
  endloop
 endfacet

 facet normal 0 0 1
  outer loop
  vertex -0.0669486895 -0.044011686 0.0117363594
  vertex -0.0667960644 -0.0435996354 0.0117363594
  vertex -0.0668218583 -0.0436281636 0.0117363594
  endloop
 endfacet

 facet normal 0 0 1
  outer loop
  vertex -0.0669486895 -0.044011686 0.0117363594
  vertex -0.0668218583 -0.0436281636 0.0117363594
  vertex -0.0668476596 -0.0436579585 0.0117363594
  endloop
 endfacet

 facet normal 0 0 1
  outer loop
  vertex -0.0669486895 -0.044011686 0.0117363594
  vertex -0.0668476596 -0.0436579585 0.0117363594
  vertex -0.0668734536 -0.0436985306 0.0117363594
  endloop
 endfacet

 facet normal 0 0 1
  outer loop
  vertex -0.0669486895 -0.044011686 0.0117363594
  vertex -0.0668734536 -0.0436985306 0.0117363594
  vertex -0.0668885037 -0.043723885 0.0117363594
  endloop
 endfacet

 facet normal 0 0 1
  outer loop
  vertex -0.0669486895 -0.044011686 0.0117363594
  vertex -0.0668885037 -0.043723885 0.0117363594
  vertex -0.0669056997 -0.0437581167 0.0117363594
  endloop
 endfacet

 facet normal 0 0 1
  outer loop
  vertex -0.0669486895 -0.044011686 0.0117363594
  vertex -0.0669056997 -0.0437581167 0.0117363594
  vertex -0.0669228956 -0.043808829 0.0117363594
  endloop
 endfacet

 facet normal 0 0 1
  outer loop
  vertex -0.0669486895 -0.044011686 0.0117363594
  vertex -0.0669228956 -0.043808829 0.0117363594
  vertex -0.0669357926 -0.0438487679 0.0117363594
  endloop
 endfacet

 facet normal 0 0 1
  outer loop
  vertex -0.0669486895 -0.044011686 0.0117363594
  vertex -0.0669357926 -0.0438487679 0.0117363594
  vertex -0.0669422448 -0.043888703 0.0117363594
  endloop
 endfacet

 facet normal 0 0 1
  outer loop
  vertex -0.0669486895 -0.044011686 0.0117363594
  vertex -0.0669422448 -0.043888703 0.0117363594
  vertex -0.0669486895 -0.0439299121 0.0117363594
  endloop
 endfacet

 facet normal 0 0 1
  outer loop
  vertex -0.0669486895 -0.044011686 0.0117363594
  vertex -0.0669486895 -0.0439299121 0.0117363594
  vertex -0.0669508427 -0.0439711139 0.0117363594
  endloop
 endfacet

 facet normal -0.987601697 -0.15698038 -0.000397616357
  outer loop
  vertex -0.0669486895 -0.044011686 0.0117363594
  vertex -0.0669185966 -0.044151783 -0.00770514878
  vertex -0.0669357926 -0.0440928265 0.0117363594
  endloop
 endfacet

 facet normal -0.998639643 0.0521142781 -0.00179570552
  outer loop
  vertex -0.0669508427 -0.0439711139 0.0117363594
  vertex -0.0669486895 -0.0439299121 0.0117363594
  vertex -0.0669185966 -0.0440230966 -0.00770514878
  endloop
 endfacet

 facet normal -0.998756707 0.0498199165 -0.00178976532
  outer loop
  vertex -0.0669508427 -0.0439711139 0.0117363594
  vertex -0.0669185966 -0.0440230966 -0.00770514878
  vertex -0.0669207498 -0.0440662019 -0.00770514878
  endloop
 endfacet

 facet normal -0.9817397 -0.190228567 -0.000679719262
  outer loop
  vertex -0.0669185966 -0.044151783 -0.00770514878
  vertex -0.0669099987 -0.0441961549 -0.00770514878
  vertex -0.0669142976 -0.0441872813 -0.00397898676
  endloop
 endfacet

 facet normal -0.98708564 -0.160193741 -0.000387415494
  outer loop
  vertex -0.0669185966 -0.044151783 -0.00770514878
  vertex -0.0669142976 -0.0441872813 -0.00397898676
  vertex -0.0669357926 -0.0440928265 0.0117363594
  endloop
 endfacet

 facet normal -0.975966692 -0.217919797 -2.52579393e-05
  outer loop
  vertex -0.0669357926 -0.0440928265 0.0117363594
  vertex -0.0669142976 -0.0441872813 -0.00397898676
  vertex -0.0669014007 -0.044246871 0.0117363594
  endloop
 endfacet

 facet normal -0.987971723 0.154618442 -0.00227050227
  outer loop
  vertex -0.0669486895 -0.0439299121 0.0117363594
  vertex -0.0669422448 -0.043888703 0.0117363594
  vertex -0.0669185966 -0.0440230966 -0.00770514878
  endloop
 endfacet

 facet normal -0.987598598 0.156983659 -0.00228639832
  outer loop
  vertex -0.0669185966 -0.0440230966 -0.00770514878
  vertex -0.0669422448 -0.043888703 0.0117363594
  vertex -0.0669121444 -0.0439825244 -0.00770514878
  endloop
 endfacet

 facet normal -0.977096736 -0.212794453 -0.000620613631
  outer loop
  vertex -0.0669099987 -0.0441961549 -0.00770514878
  vertex -0.0668949485 -0.0442652516 -0.00770514878
  vertex -0.0669142976 -0.0441872813 -0.00397898676
  endloop
 endfacet

 facet normal -0.975385129 -0.220507786 -0.000450322026
  outer loop
  vertex -0.0669142976 -0.0441872813 -0.00397898676
  vertex -0.0668949485 -0.0442652516 -0.00770514878
  vertex -0.0668627024 -0.0444078855 -0.00770514878
  endloop
 endfacet

 facet normal -0.975151896 -0.221537203 -0.00038614613
  outer loop
  vertex -0.0669142976 -0.0441872813 -0.00397898676
  vertex -0.0668627024 -0.0444078855 -0.00770514878
  vertex -0.0666864291 -0.0451838039 -0.00770514878
  endloop
 endfacet

 facet normal -0.975139916 -0.221590266 -0.000371225527
  outer loop
  vertex -0.0669142976 -0.0441872813 -0.00397898676
  vertex -0.0666864291 -0.0451838039 -0.00770514878
  vertex -0.0666907281 -0.045171123 -0.00397898676
  endloop
 endfacet

 facet normal -0.975139856 -0.221590251 -0.000226559743
  outer loop
  vertex -0.0669142976 -0.0441872813 -0.00397898676
  vertex -0.0666907281 -0.045171123 -0.00397898676
  vertex -0.0666928813 -0.04517176 0.00589210819
  endloop
 endfacet

 facet normal -0.975558758 -0.219738543 -3.24890752e-05
  outer loop
  vertex -0.0669142976 -0.0441872813 -0.00397898676
  vertex -0.0666928813 -0.04517176 0.00589210819
  vertex -0.0669014007 -0.044246871 0.0117363594
  endloop
 endfacet

 facet normal -0.975514829 -0.219933972 0
  outer loop
  vertex -0.0669014007 -0.044246871 0.0117363594
  vertex -0.0666928813 -0.04517176 0.00589210819
  vertex -0.0666928813 -0.04517176 0.0117363594
  endloop
 endfacet

 facet normal -0.987209201 0.159413815 -0.00229752297
  outer loop
  vertex -0.0669422448 -0.043888703 0.0117363594
  vertex -0.0669357926 -0.0438487679 0.0117363594
  vertex -0.0669121444 -0.0439825244 -0.00770514878
  endloop
 endfacet

 facet normal -0.965114474 0.261811495 -0.0029751414
  outer loop
  vertex -0.0669121444 -0.0439825244 -0.00770514878
  vertex -0.0669357926 -0.0438487679 0.0117363594
  vertex -0.0668992475 -0.0439349785 -0.00770514878
  endloop
 endfacet

 facet normal -0.962311685 -0.271948248 -0.000555323961
  outer loop
  vertex -0.0666864291 -0.0451838039 -0.00770514878
  vertex -0.0666778311 -0.0452142321 -0.00770514878
  vertex -0.0666799843 -0.0452142321 -0.00397898676
  endloop
 endfacet

 facet normal -0.970292568 -0.24193427 -0.000296410755
  outer loop
  vertex -0.0666864291 -0.0451838039 -0.00770514878
  vertex -0.0666799843 -0.0452142321 -0.00397898676
  vertex -0.0666907281 -0.045171123 -0.00397898676
  endloop
 endfacet

 facet normal -0.970292687 -0.241934285 -0.000226811433
  outer loop
  vertex -0.0666907281 -0.045171123 -0.00397898676
  vertex -0.0666799843 -0.0452142321 -0.00397898676
  vertex -0.0666928813 -0.04517176 0.00589210819
  endloop
 endfacet

 facet normal -0.961713433 -0.274056941 -7.73856955e-05
  outer loop
  vertex -0.0666928813 -0.04517176 0.00589210819
  vertex -0.0666799843 -0.0452142321 -0.00397898676
  vertex -0.0666799843 -0.0452186689 0.0117363594
  endloop
 endfacet

 facet normal -0.96421963 -0.265105069 0
  outer loop
  vertex -0.0666928813 -0.04517176 0.00589210819
  vertex -0.0666799843 -0.0452186689 0.0117363594
  vertex -0.0666928813 -0.04517176 0.0117363594
  endloop
 endfacet

 facet normal -0.951596379 0.307334393 -0.00315159978
  outer loop
  vertex -0.0669357926 -0.0438487679 0.0117363594
  vertex -0.0669228956 -0.043808829 0.0117363594
  vertex -0.0668992475 -0.0439349785 -0.00770514878
  endloop
 endfacet

 facet normal -0.947026193 0.32114014 -0.00323562301
  outer loop
  vertex -0.0668992475 -0.0439349785 -0.00770514878
  vertex -0.0669228956 -0.043808829 0.0117363594
  vertex -0.0669056997 -0.0437581167 0.0117363594
  endloop
 endfacet

 facet normal -0.935768068 0.352598608 -0.00351807382
  outer loop
  vertex -0.0668992475 -0.0439349785 -0.00770514878
  vertex -0.0669056997 -0.0437581167 0.0117363594
  vertex -0.0668842047 -0.0438950434 -0.00770514878
  endloop
 endfacet

 facet normal -0.938289165 -0.345851243 -0.000541461224
  outer loop
  vertex -0.0666778311 -0.0452142321 -0.00770514878
  vertex -0.0666670799 -0.0452433899 -0.00770514878
  vertex -0.0666799843 -0.0452142321 -0.00397898676
  endloop
 endfacet

 facet normal -0.937583447 -0.347759962 -0.000524080999
  outer loop
  vertex -0.0666799843 -0.0452142321 -0.00397898676
  vertex -0.0666670799 -0.0452433899 -0.00770514878
  vertex -0.0666649342 -0.0452548005 -0.00397898676
  endloop
 endfacet

 facet normal -0.937583625 -0.347760022 -9.81972989e-05
  outer loop
  vertex -0.0666799843 -0.0452142321 -0.00397898676
  vertex -0.0666649342 -0.0452548005 -0.00397898676
  vertex -0.0666799843 -0.0452186689 0.0117363594
  endloop
 endfacet

 facet normal -0.92332828 -0.384011835 -1.197232e-06
  outer loop
  vertex -0.0666799843 -0.0452186689 0.0117363594
  vertex -0.0666649342 -0.0452548005 -0.00397898676
  vertex -0.0666520372 -0.0452858657 0.0117363594
  endloop
 endfacet

 facet normal -0.903360486 0.428863347 -0.00401937868
  outer loop
  vertex -0.0668842047 -0.0438950434 -0.00770514878
  vertex -0.0669056997 -0.0437581167 0.0117363594
  vertex -0.0668691546 -0.0438633487 -0.00770514878
  endloop
 endfacet

 facet normal -0.893559575 0.448925912 -0.00410954794
  outer loop
  vertex -0.0669056997 -0.0437581167 0.0117363594
  vertex -0.0668885037 -0.043723885 0.0117363594
  vertex -0.0668691546 -0.0438633487 -0.00770514878
  endloop
 endfacet

 facet normal -0.935767114 -0.352618366 -0.0005400058
  outer loop
  vertex -0.0666670799 -0.0452433899 -0.00770514878
  vertex -0.0666627809 -0.0452548005 -0.00770514878
  vertex -0.0666649342 -0.0452548005 -0.00397898676
  endloop
 endfacet

 facet normal -0.903367639 -0.428866684 -0.000521308859
  outer loop
  vertex -0.0666649342 -0.0452548005 -0.00397898676
  vertex -0.0666627809 -0.0452548005 -0.00770514878
  vertex -0.0666477382 -0.045286499 -0.00770514878
  endloop
 endfacet

 facet normal -0.899954438 -0.435983658 -0.000445013924
  outer loop
  vertex -0.0666649342 -0.0452548005 -0.00397898676
  vertex -0.0666477382 -0.045286499 -0.00770514878
  vertex -0.0666520372 -0.0452814288 -0.00397898676
  endloop
 endfacet

 facet normal -0.899954557 -0.435983747 -0.000123109116
  outer loop
  vertex -0.0666649342 -0.0452548005 -0.00397898676
  vertex -0.0666520372 -0.0452814288 -0.00397898676
  vertex -0.0666520372 -0.0452858657 0.0117363594
  endloop
 endfacet

 facet normal -0.891323447 -0.453368068 -0.000128017942
  outer loop
  vertex -0.0666520372 -0.0452858657 0.0117363594
  vertex -0.0666520372 -0.0452814288 -0.00397898676
  vertex -0.066645585 -0.045294106 -0.00397898676
  endloop
 endfacet

 facet normal -0.883621931 -0.468201101 -0.000117079384
  outer loop
  vertex -0.0666520372 -0.0452858657 0.0117363594
  vertex -0.066645585 -0.045294106 -0.00397898676
  vertex -0.0666348338 -0.0453143902 -0.00397898676
  endloop
 endfacet

 facet normal -0.856021404 -0.516940475 1.59400395e-06
  outer loop
  vertex -0.0666520372 -0.0452858657 0.0117363594
  vertex -0.0666348338 -0.0453143902 -0.00397898676
  vertex -0.0666240901 -0.0453321412 0.0117363594
  endloop
 endfacet

 facet normal -0.888189554 0.459458083 -0.00417975476
  outer loop
  vertex -0.0668691546 -0.0438633487 -0.00770514878
  vertex -0.0668885037 -0.043723885 0.0117363594
  vertex -0.0668498054 -0.0438259467 -0.00770514878
  endloop
 endfacet

 facet normal -0.859961212 0.510340571 -0.00439068396
  outer loop
  vertex -0.0668885037 -0.043723885 0.0117363594
  vertex -0.0668734536 -0.0436985306 0.0117363594
  vertex -0.0668498054 -0.0438259467 -0.00770514878
  endloop
 endfacet

 facet normal -0.883621871 -0.468201101 -0.000446115155
  outer loop
  vertex -0.0666477382 -0.045286499 -0.00770514878
  vertex -0.0666348338 -0.0453143902 -0.00397898676
  vertex -0.066645585 -0.045294106 -0.00397898676
  endloop
 endfacet

 facet normal -0.891323328 -0.453368038 -0.000411392364
  outer loop
  vertex -0.0666477382 -0.045286499 -0.00770514878
  vertex -0.066645585 -0.045294106 -0.00397898676
  vertex -0.0666520372 -0.0452814288 -0.00397898676
  endloop
 endfacet

 facet normal -0.877337098 -0.479874253 -0.000555247825
  outer loop
  vertex -0.0666477382 -0.045286499 -0.00770514878
  vertex -0.0666262358 -0.0453258008 -0.00770514878
  vertex -0.0666348338 -0.0453143902 -0.00397898676
  endloop
 endfacet

 facet normal -0.855396688 -0.517973483 -0.000387949753
  outer loop
  vertex -0.0666348338 -0.0453143902 -0.00397898676
  vertex -0.0666262358 -0.0453258008 -0.00770514878
  vertex -0.0666240901 -0.0453321412 -0.00397898676
  endloop
 endfacet

 facet normal -0.855396748 -0.517973483 0
  outer loop
  vertex -0.0666348338 -0.0453143902 -0.00397898676
  vertex -0.0666240901 -0.0453321412 -0.00397898676
  vertex -0.0666240901 -0.0453321412 0.0117363594
  endloop
 endfacet

 facet normal -0.810494184 -0.585746646 0
  outer loop
  vertex -0.0666240901 -0.0453321412 0.0117363594
  vertex -0.0666240901 -0.0453321412 -0.00397898676
  vertex -0.0665961429 -0.0453708097 0.0117363594
  endloop
 endfacet

 facet normal -0.851169527 0.524871945 -0.00447522663
  outer loop
  vertex -0.0668498054 -0.0438259467 -0.00770514878
  vertex -0.0668734536 -0.0436985306 0.0117363594
  vertex -0.0668455064 -0.043818973 -0.00770514878
  endloop
 endfacet

 facet normal -0.843863189 0.536539316 -0.00453700591
  outer loop
  vertex -0.0668734536 -0.0436985306 0.0117363594
  vertex -0.0668476596 -0.0436579585 0.0117363594
  vertex -0.0668455064 -0.043818973 -0.00770514878
  endloop
 endfacet

 facet normal -0.82764101 -0.56125772 -0.000477609166
  outer loop
  vertex -0.0666262358 -0.0453258008 -0.00770514878
  vertex -0.0666219369 -0.0453321412 -0.00770514878
  vertex -0.0666240901 -0.0453321412 -0.00397898676
  endloop
 endfacet

 facet normal -0.806446671 -0.591306686 -0.000465378485
  outer loop
  vertex -0.0666240901 -0.0453321412 -0.00397898676
  vertex -0.0666219369 -0.0453321412 -0.00770514878
  vertex -0.0666068941 -0.0453555956 -0.00397898676
  endloop
 endfacet

 facet normal -0.806446731 -0.591306806 -2.08789188e-05
  outer loop
  vertex -0.0666240901 -0.0453321412 -0.00397898676
  vertex -0.0666068941 -0.0453555956 -0.00397898676
  vertex -0.0665961429 -0.0453708097 0.0117363594
  endloop
 endfacet

 facet normal -0.798600376 -0.601861656 -3.64648949e-05
  outer loop
  vertex -0.0665961429 -0.0453708097 0.0117363594
  vertex -0.0666068941 -0.0453555956 -0.00397898676
  vertex -0.0665982887 -0.0453670062 -0.00397898676
  endloop
 endfacet

 facet normal -0.779563069 -0.626323819 -4.49929321e-05
  outer loop
  vertex -0.0665961429 -0.0453708097 0.0117363594
  vertex -0.0665982887 -0.0453670062 -0.00397898676
  vertex -0.0665896907 -0.0453784168 0.00589020504
  endloop
 endfacet

 facet normal -0.756536067 -0.653951943 1.63561581e-05
  outer loop
  vertex -0.0665961429 -0.0453708097 0.0117363594
  vertex -0.0665896907 -0.0453784168 0.00589020504
  vertex -0.0665617511 -0.0454107448 0.00589210819
  endloop
 endfacet

 facet normal -0.7560004 -0.654571176 2.37397035e-05
  outer loop
  vertex -0.0665961429 -0.0453708097 0.0117363594
  vertex -0.0665617511 -0.0454107448 0.00589210819
  vertex -0.066570349 -0.0454006046 0.0117363594
  endloop
 endfacet

 facet normal -0.821674764 0.569936395 -0.00481114909
  outer loop
  vertex -0.0668455064 -0.043818973 -0.00770514878
  vertex -0.0668476596 -0.0436579585 0.0117363594
  vertex -0.0668261573 -0.0437910818 -0.00770514878
  endloop
 endfacet

 facet normal -0.755977869 0.65457648 -0.005205933
  outer loop
  vertex -0.0668476596 -0.0436579585 0.0117363594
  vertex -0.0668218583 -0.0436281636 0.0117363594
  vertex -0.0667939112 -0.0437505096 -0.00770514878
  endloop
 endfacet

 facet normal -0.782846212 0.622194171 -0.00512604788
  outer loop
  vertex -0.0668476596 -0.0436579585 0.0117363594
  vertex -0.0667939112 -0.0437505096 -0.00770514878
  vertex -0.0668261573 -0.0437910818 -0.00770514878
  endloop
 endfacet

 facet normal -0.803877234 -0.594795108 -0.000497712055
  outer loop
  vertex -0.0666219369 -0.0453321412 -0.00770514878
  vertex -0.0665961429 -0.0453670062 -0.00770514878
  vertex -0.0666068941 -0.0453555956 -0.00397898676
  endloop
 endfacet

 facet normal -0.798600316 -0.601861537 -0.000460850511
  outer loop
  vertex -0.0666068941 -0.0453555956 -0.00397898676
  vertex -0.0665961429 -0.0453670062 -0.00770514878
  vertex -0.0665982887 -0.0453670062 -0.00397898676
  endloop
 endfacet

 facet normal -0.768812001 -0.63947469 -0.00044366048
  outer loop
  vertex -0.0665982887 -0.0453670062 -0.00397898676
  vertex -0.0665961429 -0.0453670062 -0.00770514878
  vertex -0.0665681958 -0.0454006046 -0.00770514878
  endloop
 endfacet

 facet normal -0.768812001 -0.63947469 -0.00044366048
  outer loop
  vertex -0.0665982887 -0.0453670062 -0.00397898676
  vertex -0.0665681958 -0.0454006046 -0.00770514878
  vertex -0.066570349 -0.0454006046 -0.00397898676
  endloop
 endfacet

 facet normal -0.76881212 -0.639474869 -6.95671697e-05
  outer loop
  vertex -0.0665982887 -0.0453670062 -0.00397898676
  vertex -0.066570349 -0.0454006046 -0.00397898676
  vertex -0.0665896907 -0.0453784168 0.00589020504
  endloop
 endfacet

 facet normal -0.756535232 -0.653952956 -1.2954114e-05
  outer loop
  vertex -0.0665896907 -0.0453784168 0.00589020504
  vertex -0.066570349 -0.0454006046 -0.00397898676
  vertex -0.0665617511 -0.0454107448 0.00589210819
  endloop
 endfacet

 facet normal -0.710983753 -0.703208447 -0.000103250772
  outer loop
  vertex -0.0665617511 -0.0454107448 0.00589210819
  vertex -0.066570349 -0.0454006046 -0.00397898676
  vertex -0.0665402487 -0.0454310328 -0.00397898676
  endloop
 endfacet

 facet normal -0.698091865 -0.716008306 -4.88716541e-05
  outer loop
  vertex -0.0665617511 -0.0454107448 0.00589210819
  vertex -0.0665402487 -0.0454310328 -0.00397898676
  vertex -0.0665381029 -0.0454341993 0.0117363594
  endloop
 endfacet

 facet normal -0.721470118 -0.692445695 0.000140283562
  outer loop
  vertex -0.0665617511 -0.0454107448 0.00589210819
  vertex -0.0665381029 -0.0454341993 0.0117363594
  vertex -0.066570349 -0.0454006046 0.0117363594
  endloop
 endfacet

 facet normal -0.741715312 0.670694053 -0.00528685888
  outer loop
  vertex -0.0668218583 -0.0436281636 0.0117363594
  vertex -0.0667960644 -0.0435996354 0.0117363594
  vertex -0.0667939112 -0.0437505096 -0.00770514878
  endloop
 endfacet

 facet normal -0.709723651 0.704458416 -0.00554534327
  outer loop
  vertex -0.0667939112 -0.0437505096 -0.00770514878
  vertex -0.0667960644 -0.0435996354 0.0117363594
  vertex -0.0667681172 -0.043724522 -0.00770514878
  endloop
 endfacet

 facet normal -0.741712928 -0.670717418 -0.000428022409
  outer loop
  vertex -0.066570349 -0.0454006046 -0.00397898676
  vertex -0.0665681958 -0.0454006046 -0.00770514878
  vertex -0.0665595978 -0.0454101115 -0.00770514878
  endloop
 endfacet

 facet normal -0.710983753 -0.703208387 -0.00025645498
  outer loop
  vertex -0.066570349 -0.0454006046 -0.00397898676
  vertex -0.0665595978 -0.0454101115 -0.00770514878
  vertex -0.0665402487 -0.0454310328 -0.00397898676
  endloop
 endfacet

 facet normal -0.697415531 -0.716666818 -0.000402459584
  outer loop
  vertex -0.0665402487 -0.0454310328 -0.00397898676
  vertex -0.0665595978 -0.0454101115 -0.00770514878
  vertex -0.0665381029 -0.0454310328 -0.00770514878
  endloop
 endfacet

 facet normal -0.629861772 -0.776707172 -0.000363476109
  outer loop
  vertex -0.0665402487 -0.0454310328 -0.00397898676
  vertex -0.0665381029 -0.0454310328 -0.00770514878
  vertex -0.0665037036 -0.045458924 -0.00770514878
  endloop
 endfacet

 facet normal -0.629851043 -0.776715994 -0.000363304483
  outer loop
  vertex -0.0665402487 -0.0454310328 -0.00397898676
  vertex -0.0665037036 -0.045458924 -0.00770514878
  vertex -0.0665058568 -0.045458924 -0.00397898676
  endloop
 endfacet

 facet normal -0.629850984 -0.776715994 -0.000137203402
  outer loop
  vertex -0.0665402487 -0.0454310328 -0.00397898676
  vertex -0.0665058568 -0.045458924 -0.00397898676
  vertex -0.0665080026 -0.045458924 0.00589210819
  endloop
 endfacet

 facet normal -0.642461479 -0.766317964 -6.66286578e-05
  outer loop
  vertex -0.0665402487 -0.0454310328 -0.00397898676
  vertex -0.0665080026 -0.045458924 0.00589210819
  vertex -0.0665381029 -0.0454341993 0.0117363594
  endloop
 endfacet

 facet normal -0.63476783 -0.772702873 0
  outer loop
  vertex -0.0665381029 -0.0454341993 0.0117363594
  vertex -0.0665080026 -0.045458924 0.00589210819
  vertex -0.0665080026 -0.045458924 0.0117363594
  endloop
 endfacet

 facet normal -0.653569162 0.75684464 -0.00580112915
  outer loop
  vertex -0.0667960644 -0.0435996354 0.0117363594
  vertex -0.0667659715 -0.0435736477 0.0117363594
  vertex -0.0667681172 -0.043724522 -0.00770514878
  endloop
 endfacet

 facet normal -0.649251103 0.76055181 -0.00583037548
  outer loop
  vertex -0.0667681172 -0.043724522 -0.00770514878
  vertex -0.0667659715 -0.0435736477 0.0117363594
  vertex -0.0667272732 -0.0436896533 -0.00770514878
  endloop
 endfacet

 facet normal -0.584765136 -0.811202645 -0.000337298465
  outer loop
  vertex -0.0665058568 -0.045458924 -0.00397898676
  vertex -0.0665037036 -0.045458924 -0.00770514878
  vertex -0.0664865077 -0.0454728715 -0.00397898676
  endloop
 endfacet

 facet normal -0.584765136 -0.811202705 -0.00012738214
  outer loop
  vertex -0.0665058568 -0.045458924 -0.00397898676
  vertex -0.0664865077 -0.0454728715 -0.00397898676
  vertex -0.0665080026 -0.045458924 0.00589210819
  endloop
 endfacet

 facet normal -0.574438095 -0.818548143 -9.45128122e-05
  outer loop
  vertex -0.0665080026 -0.045458924 0.00589210819
  vertex -0.0664865077 -0.0454728715 -0.00397898676
  vertex -0.0664800555 -0.045479212 0.0117363594
  endloop
 endfacet

 facet normal -0.587456942 -0.809255481 0
  outer loop
  vertex -0.0665080026 -0.045458924 0.00589210819
  vertex -0.0664800555 -0.045479212 0.0117363594
  vertex -0.0665080026 -0.045458924 0.0117363594
  endloop
 endfacet

 facet normal -0.624900937 0.780681789 -0.00590202725
  outer loop
  vertex -0.0667659715 -0.0435736477 0.0117363594
  vertex -0.0667358711 -0.0435495563 0.0117363594
  vertex -0.0667272732 -0.0436896533 -0.00770514878
  endloop
 endfacet

 facet normal -0.582249701 0.81298697 -0.00611595716
  outer loop
  vertex -0.0667272732 -0.0436896533 -0.00770514878
  vertex -0.0667358711 -0.0435495563 0.0117363594
  vertex -0.0667057782 -0.0435280018 0.0117363594
  endloop
 endfacet

 facet normal -0.575184405 0.818000495 -0.00616545696
  outer loop
  vertex -0.0667272732 -0.0436896533 -0.00770514878
  vertex -0.0667057782 -0.0435280018 0.0117363594
  vertex -0.066699326 -0.0436700024 -0.00770514878
  endloop
 endfacet

 facet normal -0.577773929 -0.816196799 -0.000388259388
  outer loop
  vertex -0.0665037036 -0.045458924 -0.00770514878
  vertex -0.0664929599 -0.0454665311 -0.00770514878
  vertex -0.0664865077 -0.0454728715 -0.00397898676
  endloop
 endfacet

 facet normal -0.566816688 -0.823843896 -0.000420233991
  outer loop
  vertex -0.0664865077 -0.0454728715 -0.00397898676
  vertex -0.0664929599 -0.0454665311 -0.00770514878
  vertex -0.0664671585 -0.0454842821 -0.00770514878
  endloop
 endfacet

 facet normal -0.5528602 -0.833273947 -0.000318895385
  outer loop
  vertex -0.0664865077 -0.0454728715 -0.00397898676
  vertex -0.0664671585 -0.0454842821 -0.00770514878
  vertex -0.0664693117 -0.0454842821 -0.00397898676
  endloop
 endfacet

 facet normal -0.55286026 -0.833274007 -0.000109308327
  outer loop
  vertex -0.0664865077 -0.0454728715 -0.00397898676
  vertex -0.0664693117 -0.0454842821 -0.00397898676
  vertex -0.0664800555 -0.045479212 0.0117363594
  endloop
 endfacet

 facet normal -0.502053022 -0.864836872 -6.43768144e-05
  outer loop
  vertex -0.0664800555 -0.045479212 0.0117363594
  vertex -0.0664693117 -0.0454842821 -0.00397898676
  vertex -0.0664585605 -0.0454912558 0.00589210819
  endloop
 endfacet

 facet normal -0.492021382 -0.870583177 -1.56349688e-05
  outer loop
  vertex -0.0664800555 -0.045479212 0.0117363594
  vertex -0.0664585605 -0.0454912558 0.00589210819
  vertex -0.0664327666 -0.0455058329 0.00589210819
  endloop
 endfacet

 facet normal -0.492046416 -0.870568991 -1.59020019e-05
  outer loop
  vertex -0.0664800555 -0.045479212 0.0117363594
  vertex -0.0664327666 -0.0455058329 0.00589210819
  vertex -0.0664284676 -0.0455083698 0.0117363594
  endloop
 endfacet

 facet normal -0.449346483 0.893333852 -0.00651433039
  outer loop
  vertex -0.0667057782 -0.0435280018 0.0117363594
  vertex -0.0666692331 -0.0435096212 0.0117363594
  vertex -0.0666154921 -0.0436243601 -0.00770514878
  endloop
 endfacet

 facet normal -0.452823967 0.891576171 -0.00652176794
  outer loop
  vertex -0.0667057782 -0.0435280018 0.0117363594
  vertex -0.0666154921 -0.0436243601 -0.00770514878
  vertex -0.066654183 -0.043644011 -0.00770514878
  endloop
 endfacet

 facet normal -0.498950571 0.866606176 -0.00649517961
  outer loop
  vertex -0.0667057782 -0.0435280018 0.0117363594
  vertex -0.066654183 -0.043644011 -0.00770514878
  vertex -0.066699326 -0.0436700024 -0.00770514878
  endloop
 endfacet

 facet normal -0.508013844 -0.861348867 -0.000293027551
  outer loop
  vertex -0.0664671585 -0.0454842821 -0.00770514878
  vertex -0.0664370656 -0.0455020294 -0.00770514878
  vertex -0.0664693117 -0.0454842821 -0.00397898676
  endloop
 endfacet

 facet normal -0.496829659 -0.867848158 -0.000165282749
  outer loop
  vertex -0.0664693117 -0.0454842821 -0.00397898676
  vertex -0.0664370656 -0.0455020294 -0.00770514878
  vertex -0.0664327666 -0.0455052033 -0.00397898676
  endloop
 endfacet

 facet normal -0.496829629 -0.867848098 -7.21921024e-05
  outer loop
  vertex -0.0664693117 -0.0454842821 -0.00397898676
  vertex -0.0664327666 -0.0455052033 -0.00397898676
  vertex -0.0664585605 -0.0454912558 0.00589210819
  endloop
 endfacet

 facet normal -0.492021382 -0.870583177 -5.57621897e-05
  outer loop
  vertex -0.0664585605 -0.0454912558 0.00589210819
  vertex -0.0664327666 -0.0455052033 -0.00397898676
  vertex -0.0664327666 -0.0455058329 0.00589210819
  endloop
 endfacet

 facet normal -0.449332356 -0.893364668 -5.72213758e-05
  outer loop
  vertex -0.0664284676 -0.0455083698 0.0117363594
  vertex -0.0664327666 -0.0455058329 0.00589210819
  vertex -0.0664327666 -0.0455052033 -0.00397898676
  endloop
 endfacet

 facet normal -0.448125094 -0.893970907 -5.76739221e-05
  outer loop
  vertex -0.0664284676 -0.0455083698 0.0117363594
  vertex -0.0664327666 -0.0455052033 -0.00397898676
  vertex -0.0664112717 -0.0455159768 -0.00397898676
  endloop
 endfacet

 facet normal -0.423056722 -0.906103253 -2.43693139e-05
  outer loop
  vertex -0.0664284676 -0.0455083698 0.0117363594
  vertex -0.0664112717 -0.0455159768 -0.00397898676
  vertex -0.0664026663 -0.0455204137 0.0117363594
  endloop
 endfacet

 facet normal -0.418474644 0.908228517 0
  outer loop
  vertex -0.0666692331 -0.0435096212 0.0117363594
  vertex -0.0666348338 -0.0434937738 0.0117363594
  vertex -0.0666348338 -0.0434937738 0.0117344558
  endloop
 endfacet

 facet normal -0.41876325 0.908072114 -0.00651677046
  outer loop
  vertex -0.0666692331 -0.0435096212 0.0117363594
  vertex -0.0666348338 -0.0434937738 0.0117344558
  vertex -0.0666154921 -0.0436243601 -0.00770514878
  endloop
 endfacet

 facet normal -0.35257563 0.935759783 -0.00663688919
  outer loop
  vertex -0.0666154921 -0.0436243601 -0.00770514878
  vertex -0.0666348338 -0.0434937738 0.0117344558
  vertex -0.0665767938 -0.0436097793 -0.00770514878
  endloop
 endfacet

 facet normal -0.424733847 -0.905318201 -0.000448124454
  outer loop
  vertex -0.0664370656 -0.0455020294 -0.00770514878
  vertex -0.0663897693 -0.0455242172 -0.00770514878
  vertex -0.0664112717 -0.0455159768 -0.00397898676
  endloop
 endfacet

 facet normal -0.448125064 -0.893970847 -0.000243713366
  outer loop
  vertex -0.0664370656 -0.0455020294 -0.00770514878
  vertex -0.0664112717 -0.0455159768 -0.00397898676
  vertex -0.0664327666 -0.0455052033 -0.00397898676
  endloop
 endfacet

 facet normal -0.391873717 -0.920019031 -0.000226036762
  outer loop
  vertex -0.0664112717 -0.0455159768 -0.00397898676
  vertex -0.0663897693 -0.0455242172 -0.00770514878
  vertex -0.0663919225 -0.0455242172 -0.00397898676
  endloop
 endfacet

 facet normal -0.391873777 -0.920019031 -8.5363703e-05
  outer loop
  vertex -0.0664112717 -0.0455159768 -0.00397898676
  vertex -0.0663919225 -0.0455242172 -0.00397898676
  vertex -0.0663940683 -0.0455242172 0.00589210819
  endloop
 endfacet

 facet normal -0.419647157 -0.907687366 -2.66822826e-05
  outer loop
  vertex -0.0664112717 -0.0455159768 -0.00397898676
  vertex -0.0663940683 -0.0455242172 0.00589210819
  vertex -0.0664026663 -0.0455204137 0.0117363594
  endloop
 endfacet

 facet normal -0.404534489 -0.914522767 0
  outer loop
  vertex -0.0664026663 -0.0455204137 0.0117363594
  vertex -0.0663940683 -0.0455242172 0.00589210819
  vertex -0.0663940683 -0.0455242172 0.0117363594
  endloop
 endfacet

 facet normal -0.325321674 0.945590198 0.00499779638
  outer loop
  vertex -0.0666348338 -0.0434937738 0.0117363594
  vertex -0.0665961429 -0.0434804596 0.0117363594
  vertex -0.0554026961 -0.039526701 -0.00770514878
  endloop
 endfacet

 facet normal -0.333028108 0.94291687 0
  outer loop
  vertex -0.0666348338 -0.0434937738 0.0117363594
  vertex -0.0554026961 -0.039526701 -0.00770514878
  vertex -0.0666348338 -0.0434937738 0.0117344558
  endloop
 endfacet

 facet normal -0.34320277 0.939237952 -0.00662965979
  outer loop
  vertex -0.0666348338 -0.0434937738 0.0117344558
  vertex -0.0554026961 -0.039526701 -0.00770514878
  vertex -0.0665767938 -0.0436097793 -0.00770514878
  endloop
 endfacet

 facet normal -0.336170554 -0.94180119 -0.000193906599
  outer loop
  vertex -0.0663897693 -0.0455242172 -0.00770514878
  vertex -0.0663489252 -0.045538798 -0.00770514878
  vertex -0.0663510785 -0.045538798 -0.00397898676
  endloop
 endfacet

 facet normal -0.336170554 -0.94180119 -0.000193906599
  outer loop
  vertex -0.0663897693 -0.0455242172 -0.00770514878
  vertex -0.0663510785 -0.045538798 -0.00397898676
  vertex -0.0663919225 -0.0455242172 -0.00397898676
  endloop
 endfacet

 facet normal -0.365929812 -0.930642486 -7.9712212e-05
  outer loop
  vertex -0.0663919225 -0.0455242172 -0.00397898676
  vertex -0.0663811713 -0.045529291 0.00589210819
  vertex -0.0663940683 -0.0455242172 0.00589210819
  endloop
 endfacet

 facet normal -0.336170554 -0.94180119 -0.000117849704
  outer loop
  vertex -0.0663919225 -0.0455242172 -0.00397898676
  vertex -0.0663510785 -0.045538798 -0.00397898676
  vertex -0.0663811713 -0.045529291 0.00589210819
  endloop
 endfacet

 facet normal -0.365929812 -0.930642486 0
  outer loop
  vertex -0.0663940683 -0.0455242172 0.00589210819
  vertex -0.0663811713 -0.045529291 0.00589210819
  vertex -0.0663940683 -0.0455242172 0.0117363594
  endloop
 endfacet

 facet normal -0.336170554 -0.94180119 7.53645145e-05
  outer loop
  vertex -0.0663940683 -0.0455242172 0.0117363594
  vertex -0.0663811713 -0.045529291 0.00589210819
  vertex -0.0663532242 -0.045538798 0.0117363594
  endloop
 endfacet

 facet normal -0.268093795 0.962503433 0.0413863435
  outer loop
  vertex -0.0665961429 -0.0434804596 0.0117363594
  vertex -0.0665574446 -0.0434696823 0.0117363594
  vertex -0.0554026961 -0.039526701 -0.00770514878
  endloop
 endfacet

 facet normal -0.0585235991 0.998286128 0
  outer loop
  vertex -0.0554026961 -0.039526701 -0.00770514878
  vertex -0.0478766225 -0.0390854925 0.0117363594
  vertex -0.0478766225 -0.0390854925 0.00589210819
  endloop
 endfacet

 facet normal 0 0.999473989 -0.0324313119
  outer loop
  vertex -0.0554026961 -0.039526701 -0.00770514878
  vertex -0.0478766225 -0.0390854925 0.00589210819
  vertex -0.0473671481 -0.039526701 -0.00770514878
  endloop
 endfacet

 facet normal -0.227980062 0.971412122 0.0662087724
  outer loop
  vertex -0.0554026961 -0.039526701 -0.00770514878
  vertex -0.0665574446 -0.0434696823 0.0117363594
  vertex -0.0478766225 -0.0390854925 0.0117363594
  endloop
 endfacet

 facet normal -0.269095719 -0.963113487 -0.00015521716
  outer loop
  vertex -0.0663489252 -0.045538798 -0.00770514878
  vertex -0.0663080812 -0.0455502085 -0.00770514878
  vertex -0.0663510785 -0.045538798 -0.00397898676
  endloop
 endfacet

 facet normal -0.322080433 -0.946712255 0
  outer loop
  vertex -0.0663811713 -0.045529291 0.00589210819
  vertex -0.0663532242 -0.045538798 0.00589210819
  vertex -0.0663532242 -0.045538798 0.0117363594
  endloop
 endfacet

 facet normal -0.322080433 -0.946712255 -7.01602912e-05
  outer loop
  vertex -0.0663811713 -0.045529291 0.00589210819
  vertex -0.0663510785 -0.045538798 -0.00397898676
  vertex -0.0663532242 -0.045538798 0.00589210819
  endloop
 endfacet

 facet normal -0.26115346 -0.965297401 -5.68882897e-05
  outer loop
  vertex -0.0663510785 -0.045538798 -0.00397898676
  vertex -0.0663080812 -0.0455502085 -0.00770514878
  vertex -0.0663532242 -0.045538798 0.00589210819
  endloop
 endfacet

 facet normal -0.256550461 -0.9665308 0
  outer loop
  vertex -0.0663532242 -0.045538798 0.0117363594
  vertex -0.0663532242 -0.045538798 0.00589210819
  vertex -0.0663102344 -0.0455502085 0.00589210819
  endloop
 endfacet

 facet normal -0.256550461 -0.9665308 0
  outer loop
  vertex -0.0663532242 -0.045538798 0.0117363594
  vertex -0.0663102344 -0.0455502085 0.00589210819
  vertex -0.0663102344 -0.0455502085 0.0117363594
  endloop
 endfacet

 facet normal 0.896627307 0 0.442786068
  outer loop
  vertex -0.0478766225 -0.0390854925 0.0117363594
  vertex -0.0478766225 -0.0414303616 0.0117363594
  vertex -0.0449895896 -0.039526701 0.00589020504
  endloop
 endfacet

 facet normal 0.151070237 0.988523126 0
  outer loop
  vertex -0.0478766225 -0.0390854925 0.0117363594
  vertex -0.0449895896 -0.039526701 0.00589020504
  vertex -0.0449895896 -0.039526701 -0.00631402293
  endloop
 endfacet

 facet normal 0.151070237 0.988523126 0
  outer loop
  vertex -0.0478766225 -0.0390854925 0.0117363594
  vertex -0.0449895896 -0.039526701 -0.00631402293
  vertex -0.0478766225 -0.0390854925 0.00589210819
  endloop
 endfacet

 facet normal 0.119908117 0.992756546 -0.00752359256
  outer loop
  vertex -0.0478766225 -0.0390854925 0.00589210819
  vertex -0.0449895896 -0.039526701 -0.00631402293
  vertex -0.0449917391 -0.039526701 -0.00634827744
  endloop
 endfacet

 facet normal 0.0952027813 0.995367169 -0.0134403929
  outer loop
  vertex -0.0478766225 -0.0390854925 0.00589210819
  vertex -0.0449917391 -0.039526701 -0.00634827744
  vertex -0.0449938849 -0.039526701 -0.00636350131
  endloop
 endfacet

 facet normal 0.0830976292 0.996407688 -0.0163252037
  outer loop
  vertex -0.0478766225 -0.0390854925 0.00589210819
  vertex -0.0449938849 -0.039526701 -0.00636350131
  vertex -0.0450024866 -0.039526701 -0.00640727207
  endloop
 endfacet

 facet normal 0.0599877834 0.997961462 -0.0217812862
  outer loop
  vertex -0.0478766225 -0.0390854925 0.00589210819
  vertex -0.0450024866 -0.039526701 -0.00640727207
  vertex -0.045021832 -0.039526701 -0.00646055723
  endloop
 endfacet

 facet normal 0.0522133633 0.998357236 -0.0235921498
  outer loop
  vertex -0.0478766225 -0.0390854925 0.00589210819
  vertex -0.045021832 -0.039526701 -0.00646055723
  vertex -0.0450433306 -0.039526701 -0.00650813291
  endloop
 endfacet

 facet normal 0.0489693135 0.998503804 -0.0243385863
  outer loop
  vertex -0.0478766225 -0.0390854925 0.00589210819
  vertex -0.0450433306 -0.039526701 -0.00650813291
  vertex -0.0450669751 -0.039526701 -0.00655570906
  endloop
 endfacet

 facet normal 0.0391868912 0.998878896 -0.0265599154
  outer loop
  vertex -0.0478766225 -0.0390854925 0.00589210819
  vertex -0.0450669751 -0.039526701 -0.00655570906
  vertex -0.0451056696 -0.039526701 -0.00661280053
  endloop
 endfacet

 facet normal 0.0346760824 0.999018371 -0.0275643803
  outer loop
  vertex -0.0478766225 -0.0390854925 0.00589210819
  vertex -0.0451056696 -0.039526701 -0.00661280053
  vertex -0.0451465137 -0.039526701 -0.00666418253
  endloop
 endfacet

 facet normal 0.0321993567 0.99908632 -0.0281052813
  outer loop
  vertex -0.0478766225 -0.0390854925 0.00589210819
  vertex -0.0451465137 -0.039526701 -0.00666418253
  vertex -0.0451830588 -0.039526701 -0.00670604967
  endloop
 endfacet

 facet normal 0.0296005066 0.999150753 -0.0286631882
  outer loop
  vertex -0.0478766225 -0.0390854925 0.00589210819
  vertex -0.0451830588 -0.039526701 -0.00670604967
  vertex -0.0451959595 -0.039526701 -0.0067193713
  endloop
 endfacet

 facet normal 0.0285768341 0.999174297 -0.0288816001
  outer loop
  vertex -0.0478766225 -0.0390854925 0.00589210819
  vertex -0.0451959595 -0.039526701 -0.0067193713
  vertex -0.0452325009 -0.039526701 -0.00675552944
  endloop
 endfacet

 facet normal 0.0260389242 0.99922812 -0.0294140503
  outer loop
  vertex -0.0478766225 -0.0390854925 0.00589210819
  vertex -0.0452325009 -0.039526701 -0.00675552944
  vertex -0.0453012921 -0.039526701 -0.00681642676
  endloop
 endfacet

 facet normal 0.0228165202 0.999287367 -0.0300691184
  outer loop
  vertex -0.0478766225 -0.0390854925 0.00589210819
  vertex -0.0453012921 -0.039526701 -0.00681642676
  vertex -0.0453464352 -0.039526701 -0.00685068127
  endloop
 endfacet

 facet normal 0.021483412 0.999308825 -0.0303345621
  outer loop
  vertex -0.0478766225 -0.0390854925 0.00589210819
  vertex -0.0453464352 -0.039526701 -0.00685068127
  vertex -0.0454324223 -0.039526701 -0.00691157859
  endloop
 endfacet

 facet normal 0.0199756529 0.999331415 -0.0306231715
  outer loop
  vertex -0.0478766225 -0.0390854925 0.00589210819
  vertex -0.0454324223 -0.039526701 -0.00691157859
  vertex -0.0454732664 -0.039526701 -0.00693822186
  endloop
 endfacet

 facet normal 0.0176728815 0.999361396 -0.031055551
  outer loop
  vertex -0.0478766225 -0.0390854925 0.00589210819
  vertex -0.0454732664 -0.039526701 -0.00693822186
  vertex -0.045503363 -0.039526701 -0.00695534842
  endloop
 endfacet

 facet normal 0.0170444045 0.999368668 -0.0311718956
  outer loop
  vertex -0.0478766225 -0.0390854925 0.00589210819
  vertex -0.045503363 -0.039526701 -0.00695534842
  vertex -0.0455764532 -0.039526701 -0.00699531287
  endloop
 endfacet

 facet normal 0.0158742815 0.999381423 -0.0313811824
  outer loop
  vertex -0.0478766225 -0.0390854925 0.00589210819
  vertex -0.0455764532 -0.039526701 -0.00699531287
  vertex -0.0456516929 -0.039526701 -0.00703337369
  endloop
 endfacet

 facet normal 0.0140317855 0.999398947 -0.0316989347
  outer loop
  vertex -0.0478766225 -0.0390854925 0.00589210819
  vertex -0.0456516929 -0.039526701 -0.00703337369
  vertex -0.0456860848 -0.039526701 -0.00704859802
  endloop
 endfacet

 facet normal 0.0128366817 0.999408662 -0.0319015682
  outer loop
  vertex -0.0478766225 -0.0390854925 0.00589210819
  vertex -0.0456860848 -0.039526701 -0.00704859802
  vertex -0.0457333811 -0.039526701 -0.0070676282
  endloop
 endfacet

 facet normal 0.0124783246 0.999411285 -0.0319609195
  outer loop
  vertex -0.0478766225 -0.0390854925 0.00589210819
  vertex -0.0457333811 -0.039526701 -0.0070676282
  vertex -0.0465717614 -0.039526701 -0.00739495223
  endloop
 endfacet

 facet normal 0.0124650914 0.999411345 -0.0319622234
  outer loop
  vertex -0.0478766225 -0.0390854925 0.00589210819
  vertex -0.0465717614 -0.039526701 -0.00739495223
  vertex -0.0473671481 -0.039526701 -0.00770514878
  endloop
 endfacet

 facet normal 0.362098098 0.0826379359 -0.928469777
  outer loop
  vertex -0.0473671481 -0.039526701 -0.00770514878
  vertex -0.0465717614 -0.039526701 -0.00739495223
  vertex -0.0471994728 -0.0402614139 -0.00770514878
  endloop
 endfacet

 facet normal -0.19283621 -0.981230974 -3.04950718e-05
  outer loop
  vertex -0.0663080812 -0.0455502085 -0.00770514878
  vertex -0.0662973374 -0.0455527455 0.00589210819
  vertex -0.0663102344 -0.0455502085 0.00589210819
  endloop
 endfacet

 facet normal -0.256550461 -0.9665308 -4.05708306e-05
  outer loop
  vertex -0.0663080812 -0.0455502085 -0.00770514878
  vertex -0.0663102344 -0.0455502085 0.00589210819
  vertex -0.0663532242 -0.045538798 0.00589210819
  endloop
 endfacet

 facet normal -0.152643219 -0.988281369 -9.43523046e-05
  outer loop
  vertex -0.0663080812 -0.0455502085 -0.00770514878
  vertex -0.0662629381 -0.0455571823 -0.00770514878
  vertex -0.0662672371 -0.0455578156 0.00589210819
  endloop
 endfacet

 facet normal -0.166177198 -0.986095905 -5.24755087e-05
  outer loop
  vertex -0.0663080812 -0.0455502085 -0.00770514878
  vertex -0.0662672371 -0.0455578156 0.00589210819
  vertex -0.0662973374 -0.0455527455 0.00589210819
  endloop
 endfacet

 facet normal -0.19283621 -0.981230974 0
  outer loop
  vertex -0.0663102344 -0.0455502085 0.0117363594
  vertex -0.0663102344 -0.0455502085 0.00589210819
  vertex -0.0662973374 -0.0455527455 0.00589210819
  endloop
 endfacet

 facet normal -0.174216241 -0.984707355 4.26033694e-05
  outer loop
  vertex -0.0663102344 -0.0455502085 0.0117363594
  vertex -0.0662973374 -0.0455527455 0.00589210819
  vertex -0.0662672371 -0.0455578156 0.0117363594
  endloop
 endfacet

 facet normal 0.220571548 -0.975370824 4.42237506e-05
  outer loop
  vertex -0.0478766225 -0.0414303616 0.0117363594
  vertex -0.0616711974 -0.0445498824 0.0117363594
  vertex -0.0476960503 -0.0413897932 0.00589020504
  endloop
 endfacet

 facet normal 0.566984832 -0.823643804 0.011797078
  outer loop
  vertex -0.0478766225 -0.0414303616 0.0117363594
  vertex -0.0476960503 -0.0413897932 0.00589020504
  vertex -0.0449895896 -0.039526701 0.00589020504
  endloop
 endfacet

 facet normal 0.56702435 -0.823701084 0
  outer loop
  vertex -0.0449895896 -0.039526701 0.00589020504
  vertex -0.0476960503 -0.0413897932 0.00589020504
  vertex -0.0476960503 -0.0413897932 -0.00749200815
  endloop
 endfacet

 facet normal 0.56702435 -0.823701084 0
  outer loop
  vertex -0.0449895896 -0.039526701 0.00589020504
  vertex -0.0476960503 -0.0413897932 -0.00749200815
  vertex -0.0449895896 -0.039526701 -0.00631402293
  endloop
 endfacet

 facet normal 0.568431616 -0.822716653 -0.00479039876
  outer loop
  vertex -0.0449895896 -0.039526701 -0.00631402293
  vertex -0.0476960503 -0.0413897932 -0.00749200815
  vertex -0.0476917513 -0.0413866229 -0.00752626266
  endloop
 endfacet

 facet normal 0.576237023 -0.816677034 -0.0314556099
  outer loop
  vertex -0.0449895896 -0.039526701 -0.00631402293
  vertex -0.0476917513 -0.0413866229 -0.00752626266
  vertex -0.0476831496 -0.0413790159 -0.00756622618
  endloop
 endfacet

 facet normal 0.577642977 -0.815484464 -0.0362440012
  outer loop
  vertex -0.0449895896 -0.039526701 -0.00631402293
  vertex -0.0476831496 -0.0413790159 -0.00756622618
  vertex -0.0449917391 -0.039526701 -0.00634827744
  endloop
 endfacet

 facet normal 0.59028095 -0.802884698 -0.0833337829
  outer loop
  vertex -0.0449917391 -0.039526701 -0.00634827744
  vertex -0.0476831496 -0.0413790159 -0.00756622618
  vertex -0.0449938849 -0.039526701 -0.00636350131
  endloop
 endfacet

 facet normal 0.598436654 -0.792496979 -0.117567733
  outer loop
  vertex -0.0449938849 -0.039526701 -0.00636350131
  vertex -0.0476831496 -0.0413790159 -0.00756622618
  vertex -0.0450024866 -0.039526701 -0.00640727207
  endloop
 endfacet

 facet normal 0.599637389 -0.790738761 -0.123155259
  outer loop
  vertex -0.0450024866 -0.039526701 -0.00640727207
  vertex -0.0476831496 -0.0413790159 -0.00756622618
  vertex -0.0476767011 -0.0413676053 -0.00760809286
  endloop
 endfacet

 facet normal 0.609118342 -0.774992466 -0.168408871
  outer loop
  vertex -0.0450024866 -0.039526701 -0.00640727207
  vertex -0.0476767011 -0.0413676053 -0.00760809286
  vertex -0.0476702526 -0.0413530245 -0.00765186362
  endloop
 endfacet

 facet normal 0.619707286 -0.751885831 -0.225012824
  outer loop
  vertex -0.0450024866 -0.039526701 -0.00640727207
  vertex -0.0476702526 -0.0413530245 -0.00765186362
  vertex -0.045021832 -0.039526701 -0.00646055723
  endloop
 endfacet

 facet normal 0.627178073 -0.726741552 -0.280168533
  outer loop
  vertex -0.045021832 -0.039526701 -0.00646055723
  vertex -0.0476702526 -0.0413530245 -0.00765186362
  vertex -0.0476659536 -0.0413346402 -0.00768992445
  endloop
 endfacet

 facet normal 0.627605438 -0.725048244 -0.283577979
  outer loop
  vertex -0.045021832 -0.039526701 -0.00646055723
  vertex -0.0476659536 -0.0413346402 -0.00768992445
  vertex -0.0450433306 -0.039526701 -0.00650813291
  endloop
 endfacet

 facet normal 0.630654812 -0.709947944 -0.313446224
  outer loop
  vertex -0.0450433306 -0.039526701 -0.00650813291
  vertex -0.0476659536 -0.0413346402 -0.00768992445
  vertex -0.0450669751 -0.039526701 -0.00655570906
  endloop
 endfacet

 facet normal 0.632760465 -0.693496823 -0.344494253
  outer loop
  vertex -0.0450669751 -0.039526701 -0.00655570906
  vertex -0.0476659536 -0.0413346402 -0.00768992445
  vertex -0.0476186611 -0.0412839279 -0.00770514878
  endloop
 endfacet

 facet normal 0.635416269 -0.646436691 -0.422333777
  outer loop
  vertex -0.0450669751 -0.039526701 -0.00655570906
  vertex -0.0476186611 -0.0412839279 -0.00770514878
  vertex -0.0475412719 -0.0412078574 -0.00770514878
  endloop
 endfacet

 facet normal 0.635487914 -0.640809655 -0.430718154
  outer loop
  vertex -0.0450669751 -0.039526701 -0.00655570906
  vertex -0.0475412719 -0.0412078574 -0.00770514878
  vertex -0.0451056696 -0.039526701 -0.00661280053
  endloop
 endfacet

 facet normal 0.633405328 -0.600686252 -0.487825513
  outer loop
  vertex -0.0451056696 -0.039526701 -0.00661280053
  vertex -0.0475412719 -0.0412078574 -0.00770514878
  vertex -0.0474703312 -0.0411330536 -0.00770514878
  endloop
 endfacet

 facet normal 0.632505596 -0.589188933 -0.502785325
  outer loop
  vertex -0.0451056696 -0.039526701 -0.00661280053
  vertex -0.0474703312 -0.0411330536 -0.00770514878
  vertex -0.0451465137 -0.039526701 -0.00666418253
  endloop
 endfacet

 facet normal 0.631994009 -0.584535718 -0.508823752
  outer loop
  vertex -0.0451465137 -0.039526701 -0.00666418253
  vertex -0.0474703312 -0.0411330536 -0.00770514878
  vertex -0.0474574342 -0.0411191098 -0.00770514878
  endloop
 endfacet

 facet normal 0.627781272 -0.552838326 -0.547960281
  outer loop
  vertex -0.0451465137 -0.039526701 -0.00666418253
  vertex -0.0474574342 -0.0411191098 -0.00770514878
  vertex -0.0451830588 -0.039526701 -0.00670604967
  endloop
 endfacet

 facet normal 0.626140356 -0.543567061 -0.559001863
  outer loop
  vertex -0.0451830588 -0.039526701 -0.00670604967
  vertex -0.0474574342 -0.0411191098 -0.00770514878
  vertex -0.047388643 -0.0410398692 -0.00770514878
  endloop
 endfacet

 facet normal 0.619319558 -0.506747663 -0.599708438
  outer loop
  vertex -0.0451830588 -0.039526701 -0.00670604967
  vertex -0.047388643 -0.0410398692 -0.00770514878
  vertex -0.0451959595 -0.039526701 -0.0067193713
  endloop
 endfacet

 facet normal 0.615607023 -0.489952385 -0.617231488
  outer loop
  vertex -0.0451959595 -0.039526701 -0.0067193713
  vertex -0.047388643 -0.0410398692 -0.00770514878
  vertex -0.047339201 -0.0409777462 -0.00770514878
  endloop
 endfacet

 facet normal 0.614732921 -0.485904813 -0.621288955
  outer loop
  vertex -0.0451959595 -0.039526701 -0.0067193713
  vertex -0.047339201 -0.0409777462 -0.00770514878
  vertex -0.0452325009 -0.039526701 -0.00675552944
  endloop
 endfacet

 facet normal 0.599349141 -0.427086771 -0.677035928
  outer loop
  vertex -0.0452325009 -0.039526701 -0.00675552944
  vertex -0.047339201 -0.0409777462 -0.00770514878
  vertex -0.0453012921 -0.039526701 -0.00681642676
  endloop
 endfacet

 facet normal 0.598103285 -0.423156589 -0.680596054
  outer loop
  vertex -0.0453012921 -0.039526701 -0.00681642676
  vertex -0.047339201 -0.0409777462 -0.00770514878
  vertex -0.0472768582 -0.0408896282 -0.00770514878
  endloop
 endfacet

 facet normal 0.577528834 -0.359049618 -0.733173788
  outer loop
  vertex -0.0453012921 -0.039526701 -0.00681642676
  vertex -0.0472768582 -0.0408896282 -0.00770514878
  vertex -0.0472295657 -0.0408135578 -0.00770514878
  endloop
 endfacet

 facet normal 0.569537878 -0.335058391 -0.750574768
  outer loop
  vertex -0.0453012921 -0.039526701 -0.00681642676
  vertex -0.0472295657 -0.0408135578 -0.00770514878
  vertex -0.0453464352 -0.039526701 -0.00685068127
  endloop
 endfacet

 facet normal 0.552984238 -0.290756226 -0.780813336
  outer loop
  vertex -0.0453464352 -0.039526701 -0.00685068127
  vertex -0.0472295657 -0.0408135578 -0.00770514878
  vertex -0.0454324223 -0.039526701 -0.00691157859
  endloop
 endfacet

 facet normal 0.550437331 -0.284725308 -0.784825027
  outer loop
  vertex -0.0454324223 -0.039526701 -0.00691157859
  vertex -0.0472295657 -0.0408135578 -0.00770514878
  vertex -0.0472102202 -0.0407761596 -0.00770514878
  endloop
 endfacet

 facet normal 0.532747865 -0.24320066 -0.810575843
  outer loop
  vertex -0.0454324223 -0.039526701 -0.00691157859
  vertex -0.0472102202 -0.0407761596 -0.00770514878
  vertex -0.0471951701 -0.0407431945 -0.00770514878
  endloop
 endfacet

 facet normal 0.530614018 -0.238237351 -0.813444376
  outer loop
  vertex -0.0454324223 -0.039526701 -0.00691157859
  vertex -0.0471951701 -0.0407431945 -0.00770514878
  vertex -0.0454732664 -0.039526701 -0.00693822186
  endloop
 endfacet

 facet normal 0.520805538 -0.216602787 -0.825739026
  outer loop
  vertex -0.0454732664 -0.039526701 -0.00693822186
  vertex -0.0471951701 -0.0407431945 -0.00770514878
  vertex -0.0471672267 -0.0406759977 -0.00770514878
  endloop
 endfacet

 facet normal 0.491099924 -0.15139398 -0.857846618
  outer loop
  vertex -0.0454732664 -0.039526701 -0.00693822186
  vertex -0.0471672267 -0.0406759977 -0.00770514878
  vertex -0.0471564755 -0.0406411327 -0.00770514878
  endloop
 endfacet

 facet normal 0.489200711 -0.147288084 -0.859644651
  outer loop
  vertex -0.0454732664 -0.039526701 -0.00693822186
  vertex -0.0471564755 -0.0406411327 -0.00770514878
  vertex -0.045503363 -0.039526701 -0.00695534842
  endloop
 endfacet

 facet normal 0.476260841 -0.120442532 -0.871016204
  outer loop
  vertex -0.045503363 -0.039526701 -0.00695534842
  vertex -0.0471564755 -0.0406411327 -0.00770514878
  vertex -0.0455764532 -0.039526701 -0.00699531287
  endloop
 endfacet

 facet normal 0.471664548 -0.111586586 -0.874689102
  outer loop
  vertex -0.0455764532 -0.039526701 -0.00699531287
  vertex -0.0471564755 -0.0406411327 -0.00770514878
  vertex -0.047150027 -0.0406138748 -0.00770514878
  endloop
 endfacet

 facet normal 0.450262845 -0.070544295 -0.890105009
  outer loop
  vertex -0.0455764532 -0.039526701 -0.00699531287
  vertex -0.047150027 -0.0406138748 -0.00770514878
  vertex -0.0456516929 -0.039526701 -0.00703337369
  endloop
 endfacet

 facet normal 0.449562788 -0.0693006366 -0.890556455
  outer loop
  vertex -0.0456516929 -0.039526701 -0.00703337369
  vertex -0.047150027 -0.0406138748 -0.00770514878
  vertex -0.047145728 -0.0405859835 -0.00770514878
  endloop
 endfacet

 facet normal 0.428022921 -0.0308763608 -0.903240323
  outer loop
  vertex -0.0456516929 -0.039526701 -0.00703337369
  vertex -0.047145728 -0.0405859835 -0.00770514878
  vertex -0.0471435785 -0.0405561887 -0.00770514878
  endloop
 endfacet

 facet normal 0.410581529 0 -0.911823928
  outer loop
  vertex -0.0456516929 -0.039526701 -0.00703337369
  vertex -0.0471435785 -0.0405561887 -0.00770514878
  vertex -0.0471435785 -0.0405244902 -0.00770514878
  endloop
 endfacet

 facet normal 0.404751897 0.0104287229 -0.914367139
  outer loop
  vertex -0.0456516929 -0.039526701 -0.00703337369
  vertex -0.0471435785 -0.0405244902 -0.00770514878
  vertex -0.0456860848 -0.039526701 -0.00704859802
  endloop
 endfacet

 facet normal 0.389459312 0.0366793573 -0.92031306
  outer loop
  vertex -0.0456860848 -0.039526701 -0.00704859802
  vertex -0.0471435785 -0.0405244902 -0.00770514878
  vertex -0.047145728 -0.040501669 -0.00770514878
  endloop
 endfacet

 facet normal 0.372489572 0.0657171458 -0.925706744
  outer loop
  vertex -0.0456860848 -0.039526701 -0.00704859802
  vertex -0.047145728 -0.040501669 -0.00770514878
  vertex -0.0457333811 -0.039526701 -0.0070676282
  endloop
 endfacet

 facet normal 0.372057498 0.0664237142 -0.925830007
  outer loop
  vertex -0.0457333811 -0.039526701 -0.0070676282
  vertex -0.047145728 -0.040501669 -0.00770514878
  vertex -0.0471478775 -0.0404896252 -0.00770514878
  endloop
 endfacet

 facet normal 0.362599552 0.0819741338 -0.928332806
  outer loop
  vertex -0.0457333811 -0.039526701 -0.0070676282
  vertex -0.0471478775 -0.0404896252 -0.00770514878
  vertex -0.0471994728 -0.0402614139 -0.00770514878
  endloop
 endfacet

 facet normal 0.36245507 0.0822872669 -0.928361595
  outer loop
  vertex -0.0457333811 -0.039526701 -0.0070676282
  vertex -0.0471994728 -0.0402614139 -0.00770514878
  vertex -0.0465717614 -0.039526701 -0.00739495223
  endloop
 endfacet

 facet normal -0.166177198 -0.986095905 0
  outer loop
  vertex -0.0662973374 -0.0455527455 0.00589210819
  vertex -0.0662672371 -0.0455578156 0.00589210819
  vertex -0.0662672371 -0.0455578156 0.0117363594
  endloop
 endfacet

 facet normal -0.102666602 -0.99471581 -8.44217866e-05
  outer loop
  vertex -0.0662629381 -0.0455571823 -0.00770514878
  vertex -0.0662199482 -0.0455616191 -0.00770514878
  vertex -0.0662414432 -0.0455597155 -0.00398088899
  endloop
 endfacet

 facet normal -0.103571489 -0.994622111 -7.91347411e-05
  outer loop
  vertex -0.0662629381 -0.0455571823 -0.00770514878
  vertex -0.0662414432 -0.0455597155 -0.00398088899
  vertex -0.0662672371 -0.0455578156 0.00589210819
  endloop
 endfacet

 facet normal -0.100263737 -0.994960904 -7.04269842e-05
  outer loop
  vertex -0.0662672371 -0.0455578156 0.00589210819
  vertex -0.0662414432 -0.0455597155 -0.00398088899
  vertex -0.0662199482 -0.0455616191 -0.00770514878
  endloop
 endfacet

 facet normal -0.0978735462 -0.995198846 -6.20470237e-05
  outer loop
  vertex -0.0662672371 -0.0455578156 0.00589210819
  vertex -0.0662199482 -0.0455616191 -0.00770514878
  vertex -0.0662543401 -0.0455590859 0.00589210819
  endloop
 endfacet

 facet normal -0.0978735462 -0.995198846 0
  outer loop
  vertex -0.0662672371 -0.0455578156 0.00589210819
  vertex -0.0662543401 -0.0455590859 0.00589210819
  vertex -0.0662672371 -0.0455578156 0.0117363594
  endloop
 endfacet

 facet normal -0.0881188139 -0.996109962 2.17254965e-05
  outer loop
  vertex -0.0662672371 -0.0455578156 0.0117363594
  vertex -0.0662543401 -0.0455590859 0.00589210819
  vertex -0.0662242472 -0.0455616191 0.0117363594
  endloop
 endfacet

 facet normal 0.220511407 -0.975384414 1.47724622e-05
  outer loop
  vertex -0.0616711974 -0.0445498824 0.0117363594
  vertex -0.066093117 -0.0455495752 0.0117363594
  vertex -0.066097416 -0.0455508418 -0.00770514878
  endloop
 endfacet

 facet normal 0.220555604 -0.975374401 4.19532944e-06
  outer loop
  vertex -0.0616711974 -0.0445498824 0.0117363594
  vertex -0.066097416 -0.0455508418 -0.00770514878
  vertex -0.0476960503 -0.0413897932 0.00589020504
  endloop
 endfacet

 facet normal 0.220558569 -0.975373745 0
  outer loop
  vertex -0.0476960503 -0.0413897932 0.00589020504
  vertex -0.066097416 -0.0455508418 -0.00770514878
  vertex -0.0476960503 -0.0413897932 -0.00749200815
  endloop
 endfacet

 facet normal 0.220597804 -0.97535789 -0.003698349
  outer loop
  vertex -0.0476960503 -0.0413897932 -0.00749200815
  vertex -0.066097416 -0.0455508418 -0.00770514878
  vertex -0.0484591909 -0.0415615849 -0.00770514878
  endloop
 endfacet

 facet normal 0.235204533 -0.970076501 -0.0602538511
  outer loop
  vertex -0.0476960503 -0.0413897932 -0.00749200815
  vertex -0.0484591909 -0.0415615849 -0.00770514878
  vertex -0.0476917513 -0.0413866229 -0.00752626266
  endloop
 endfacet

 facet normal 0.236979023 -0.969072223 -0.0688489154
  outer loop
  vertex -0.0476917513 -0.0413866229 -0.00752626266
  vertex -0.0484591909 -0.0415615849 -0.00770514878
  vertex -0.0483710542 -0.0415400304 -0.00770514878
  endloop
 endfacet

 facet normal 0.245716497 -0.963433146 -0.106864601
  outer loop
  vertex -0.0476917513 -0.0413866229 -0.00752626266
  vertex -0.0483710542 -0.0415400304 -0.00770514878
  vertex -0.0476917513 -0.0413859896 -0.00753197121
  endloop
 endfacet

 facet normal 0.34440431 -0.933098912 -0.103499912
  outer loop
  vertex -0.0476917513 -0.0413866229 -0.00752626266
  vertex -0.0476917513 -0.0413859896 -0.00753197121
  vertex -0.0476831496 -0.0413790159 -0.00756622618
  endloop
 endfacet

 facet normal 0.252673537 -0.958545327 -0.131707922
  outer loop
  vertex -0.0476831496 -0.0413790159 -0.00756622618
  vertex -0.0476917513 -0.0413859896 -0.00753197121
  vertex -0.0482076779 -0.0414981917 -0.00770514878
  endloop
 endfacet

 facet normal 0.254055232 -0.957294405 -0.137997791
  outer loop
  vertex -0.0476831496 -0.0413790159 -0.00756622618
  vertex -0.0482076779 -0.0414981917 -0.00770514878
  vertex -0.0481861793 -0.0414924882 -0.00770514878
  endloop
 endfacet

 facet normal 0.270831913 -0.938520074 -0.214079827
  outer loop
  vertex -0.0476831496 -0.0413790159 -0.00756622618
  vertex -0.0481861793 -0.0414924882 -0.00770514878
  vertex -0.0476767011 -0.0413676053 -0.00760809286
  endloop
 endfacet

 facet normal 0.271973282 -0.936050415 -0.223248869
  outer loop
  vertex -0.0476767011 -0.0413676053 -0.00760809286
  vertex -0.0481861793 -0.0414924882 -0.00770514878
  vertex -0.0480399989 -0.0414500162 -0.00770514878
  endloop
 endfacet

 facet normal 0.280270427 -0.922346473 -0.265942782
  outer loop
  vertex -0.0476767011 -0.0413676053 -0.00760809286
  vertex -0.0480399989 -0.0414500162 -0.00770514878
  vertex -0.0476702526 -0.0413530245 -0.00765186362
  endloop
 endfacet

 facet normal 0.282577306 -0.909119248 -0.306026608
  outer loop
  vertex -0.0476702526 -0.0413530245 -0.00765186362
  vertex -0.0480399989 -0.0414500162 -0.00770514878
  vertex -0.0478809215 -0.0414005704 -0.00770514878
  endloop
 endfacet

 facet normal 0.294274777 -0.876219869 -0.381629527
  outer loop
  vertex -0.0476702526 -0.0413530245 -0.00765186362
  vertex -0.0478809215 -0.0414005704 -0.00770514878
  vertex -0.0477261469 -0.0413485877 -0.00770514878
  endloop
 endfacet

 facet normal 0.29994756 -0.871834993 -0.38721475
  outer loop
  vertex -0.0476702526 -0.0413530245 -0.00765186362
  vertex -0.0477261469 -0.0413485877 -0.00770514878
  vertex -0.0476659536 -0.0413346402 -0.00768992445
  endloop
 endfacet

 facet normal 0.305054724 -0.851914644 -0.42565608
  outer loop
  vertex -0.0476659536 -0.0413346402 -0.00768992445
  vertex -0.0477261469 -0.0413485877 -0.00770514878
  vertex -0.0476659536 -0.0413270332 -0.00770514878
  endloop
 endfacet

 facet normal 0.631933749 -0.693299234 -0.346404463
  outer loop
  vertex -0.0476659536 -0.0413346402 -0.00768992445
  vertex -0.0476659536 -0.0413270332 -0.00770514878
  vertex -0.0476186611 -0.0412839279 -0.00770514878
  endloop
 endfacet

 facet normal 0.0294899959 -0.999565184 -3.7297712e-05
  outer loop
  vertex -0.0662199482 -0.0455616191 -0.00770514878
  vertex -0.0661769509 -0.0455603525 -0.00770514878
  vertex -0.0661812499 -0.0455609858 0.00589210819
  endloop
 endfacet

 facet normal 0.0267617311 -0.999641836 -2.95302507e-05
  outer loop
  vertex -0.0662199482 -0.0455616191 -0.00770514878
  vertex -0.0661812499 -0.0455609858 0.00589210819
  vertex -0.0661748052 -0.0455609858 0.0117363594
  endloop
 endfacet

 facet normal 0.014047699 -0.999901295 0
  outer loop
  vertex -0.0662199482 -0.0455616191 -0.00770514878
  vertex -0.0661748052 -0.0455609858 0.0117363594
  vertex -0.0662199482 -0.0455616191 -0.00398088899
  endloop
 endfacet

 facet normal 0 -1 0
  outer loop
  vertex -0.0662199482 -0.0455616191 -0.00770514878
  vertex -0.0662199482 -0.0455616191 -0.00398088899
  vertex -0.066222094 -0.0455616191 0.00589020504
  endloop
 endfacet

 facet normal 0 -1 0
  outer loop
  vertex -0.0662199482 -0.0455616191 -0.00770514878
  vertex -0.066222094 -0.0455616191 0.00589020504
  vertex -0.0662242472 -0.0455616191 0.0117363594
  endloop
 endfacet

 facet normal 0 -1 0
  outer loop
  vertex -0.0662199482 -0.0455616191 -0.00770514878
  vertex -0.0662242472 -0.0455616191 0.0117363594
  vertex -0.0662242472 -0.0455616191 0.00589210819
  endloop
 endfacet

 facet normal 0 -1 0
  outer loop
  vertex -0.0662199482 -0.0455616191 -0.00770514878
  vertex -0.0662242472 -0.0455616191 0.00589210819
  vertex -0.066222094 -0.0455616191 -0.00397898676
  endloop
 endfacet

 facet normal -0.0950485915 -0.995472729 -5.48499593e-05
  outer loop
  vertex -0.0662199482 -0.0455616191 -0.00770514878
  vertex -0.066222094 -0.0455616191 -0.00397898676
  vertex -0.0662543401 -0.0455590859 0.00589210819
  endloop
 endfacet

 facet normal -0.0839304477 -0.996471584 0
  outer loop
  vertex -0.0662543401 -0.0455590859 0.00589210819
  vertex -0.0662242472 -0.0455616191 0.00589210819
  vertex -0.0662242472 -0.0455616191 0.0117363594
  endloop
 endfacet

 facet normal -0.0839304477 -0.996471584 -1.82746426e-05
  outer loop
  vertex -0.0662543401 -0.0455590859 0.00589210819
  vertex -0.066222094 -0.0455616191 -0.00397898676
  vertex -0.0662242472 -0.0455616191 0.00589210819
  endloop
 endfacet

 facet normal 0.0128263095 -0.999917686 4.71548174e-06
  outer loop
  vertex -0.0662242472 -0.0455616191 0.0117363594
  vertex -0.066222094 -0.0455616191 0.00589020504
  vertex -0.0661748052 -0.0455609858 0.0117363594
  endloop
 endfacet

 facet normal 0.174220115 -0.984706759 2.56172243e-05
  outer loop
  vertex -0.066093117 -0.0455495752 0.0117363594
  vertex -0.0661361068 -0.0455571823 0.0117363594
  vertex -0.066097416 -0.0455508418 -0.00770514878
  endloop
 endfacet

 facet normal 0.16169852 -0.986840189 0
  outer loop
  vertex -0.066097416 -0.0455508418 -0.00770514878
  vertex -0.0661361068 -0.0455571823 0.0117363594
  vertex -0.0661361068 -0.0455571823 0.00589210819
  endloop
 endfacet

 facet normal 0.151225165 -0.988499463 -3.05779358e-05
  outer loop
  vertex -0.066097416 -0.0455508418 -0.00770514878
  vertex -0.0661361068 -0.0455571823 0.00589210819
  vertex -0.0661339611 -0.045556549 -0.00398088899
  endloop
 endfacet

 facet normal 0.145890772 -0.989300728 -8.41499568e-05
  outer loop
  vertex -0.066097416 -0.0455508418 -0.00770514878
  vertex -0.0661339611 -0.045556549 -0.00398088899
  vertex -0.0661404058 -0.0455571823 -0.00770514878
  endloop
 endfacet

 facet normal 0.24655655 -0.962780595 -0.110740177
  outer loop
  vertex -0.0483710542 -0.0415400304 -0.00770514878
  vertex -0.0482076779 -0.0414981917 -0.00770514878
  vertex -0.0476917513 -0.0413859896 -0.00753197121
  endloop
 endfacet

 facet normal 0.0596288666 -0.998220623 -3.91557769e-05
  outer loop
  vertex -0.0661769509 -0.0455603525 -0.00770514878
  vertex -0.0661533028 -0.0455590859 -0.00398088899
  vertex -0.0661748052 -0.0455609858 0.0117363594
  endloop
 endfacet

 facet normal 0.0328373387 -0.999460697 -3.62343853e-05
  outer loop
  vertex -0.0661769509 -0.0455603525 -0.00770514878
  vertex -0.0661748052 -0.0455609858 0.0117363594
  vertex -0.0661812499 -0.0455609858 0.00589210819
  endloop
 endfacet

 facet normal 0.0863947421 -0.996261001 -0.000209771184
  outer loop
  vertex -0.0661769509 -0.0455603525 -0.00770514878
  vertex -0.0661404058 -0.0455571823 -0.00770514878
  vertex -0.0661533028 -0.0455590859 -0.00398088899
  endloop
 endfacet

 facet normal 0.0130575635 -0.999914765 2.84439056e-06
  outer loop
  vertex -0.0661748052 -0.0455609858 0.0117363594
  vertex -0.066222094 -0.0455616191 0.00589020504
  vertex -0.0662199482 -0.0455616191 -0.00398088899
  endloop
 endfacet

 facet normal 0.0978187844 -0.99520421 1.3444499e-05
  outer loop
  vertex -0.0661748052 -0.0455609858 0.0117363594
  vertex -0.0661533028 -0.0455590859 -0.00398088899
  vertex -0.0661361068 -0.0455571823 0.0117363594
  endloop
 endfacet

 facet normal 0.109965883 -0.993935347 0
  outer loop
  vertex -0.0661361068 -0.0455571823 0.0117363594
  vertex -0.0661533028 -0.0455590859 -0.00398088899
  vertex -0.0661361068 -0.0455571823 0.00589210819
  endloop
 endfacet

 facet normal 0.130014643 -0.991512179 -3.53888609e-05
  outer loop
  vertex -0.0661361068 -0.0455571823 0.00589210819
  vertex -0.0661533028 -0.0455590859 -0.00398088899
  vertex -0.0661339611 -0.045556549 -0.00398088899
  endloop
 endfacet

 facet normal 0.130014643 -0.991512179 -5.62826062e-05
  outer loop
  vertex -0.0661339611 -0.045556549 -0.00398088899
  vertex -0.0661533028 -0.0455590859 -0.00398088899
  vertex -0.0661404058 -0.0455571823 -0.00770514878
  endloop
 endfacet

endsolid AssimpScene
