solid AssimpScene
 facet normal 0 -1 0
  outer loop
  vertex -0.157364294 0.0152044082 0.0110169454
  vertex -0.15536429 0.0152044082 0.0110169454
  vertex -0.15536429 0.0152044082 0.0139800003
  endloop
 endfacet

 facet normal 0 -1 0
  outer loop
  vertex -0.157364294 0.0152044082 0.0110169454
  vertex -0.15536429 0.0152044082 0.0139800003
  vertex -0.159364298 0.0152044082 0.0139800003
  endloop
 endfacet

 facet normal 0 -1 0
  outer loop
  vertex -0.157364294 0.0152044082 0.0110169454
  vertex -0.159364298 0.0152044082 0.0139800003
  vertex -0.159364298 0.0152044082 0.0124835577
  endloop
 endfacet

 facet normal -8.61269291e-05 -1 -0.000117450356
  outer loop
  vertex -0.157364294 0.0152044082 0.0110169454
  vertex -0.159364298 0.0152044082 0.0124835577
  vertex -0.159364298 0.015205347 0.00448554708
  endloop
 endfacet

 facet normal 0 -1 -0.000143823592
  outer loop
  vertex -0.157364294 0.0152044082 0.0110169454
  vertex -0.159364298 0.015205347 0.00448554708
  vertex -0.157367811 0.015205347 0.00448554708
  endloop
 endfacet

 facet normal 0 -1 -0.000143823592
  outer loop
  vertex -0.157364294 0.0152044082 0.0110169454
  vertex -0.157367811 0.015205347 0.00448554708
  vertex -0.15536429 0.0152044082 0.0110169454
  endloop
 endfacet

 facet normal 1 0 0
  outer loop
  vertex -0.15536429 0.0152044082 0.0110169454
  vertex -0.15536429 0.0171529688 0.00997788738
  vertex -0.15536429 0.0199999996 0.00997788738
  endloop
 endfacet

 facet normal 1 0 0
  outer loop
  vertex -0.15536429 0.0152044082 0.0110169454
  vertex -0.15536429 0.0199999996 0.00997788738
  vertex -0.15536429 0.0199999996 0.0139800003
  endloop
 endfacet

 facet normal 1 0 0
  outer loop
  vertex -0.15536429 0.0152044082 0.0110169454
  vertex -0.15536429 0.0199999996 0.0139800003
  vertex -0.15536429 0.0152044082 0.0139800003
  endloop
 endfacet

 facet normal 0.91725421 -0.281873047 -0.28141129
  outer loop
  vertex -0.15536429 0.0152044082 0.0110169454
  vertex -0.157367811 0.015205347 0.00448554708
  vertex -0.157367811 0.0184030347 0.00128261372
  endloop
 endfacet

 facet normal 0.962259054 -0.128046781 -0.24012813
  outer loop
  vertex -0.15536429 0.0152044082 0.0110169454
  vertex -0.157367811 0.0184030347 0.00128261372
  vertex -0.15536429 0.0171529688 0.00997788738
  endloop
 endfacet

 facet normal -1 0 0
  outer loop
  vertex -0.159364298 0.0152044082 0.0124835577
  vertex -0.159364298 0.0152044082 0.0139800003
  vertex -0.159364298 0.0199999996 0.0139800003
  endloop
 endfacet

 facet normal -1 0 0
  outer loop
  vertex -0.159364298 0.0152044082 0.0124835577
  vertex -0.159364298 0.0199999996 0.0139800003
  vertex -0.159364298 0.0199999996 0.00997788738
  endloop
 endfacet

 facet normal -1 0 0
  outer loop
  vertex -0.159364298 0.0152044082 0.0124835577
  vertex -0.159364298 0.0199999996 0.00997788738
  vertex -0.159364298 0.0199985914 0.00128261372
  endloop
 endfacet

 facet normal -1 0 0
  outer loop
  vertex -0.159364298 0.0152044082 0.0124835577
  vertex -0.159364298 0.0199985914 0.00128261372
  vertex -0.159364298 0.0184030347 0.00128261372
  endloop
 endfacet

 facet normal -1 0 0
  outer loop
  vertex -0.159364298 0.0152044082 0.0124835577
  vertex -0.159364298 0.0184030347 0.00128261372
  vertex -0.159364298 0.015205347 0.00448554708
  endloop
 endfacet

 facet normal 0 -0.707686186 -0.706526935
  outer loop
  vertex -0.159364298 0.015205347 0.00448554708
  vertex -0.159364298 0.0184030347 0.00128261372
  vertex -0.157367811 0.0184030347 0.00128261372
  endloop
 endfacet

 facet normal 0 -0.707686186 -0.706526935
  outer loop
  vertex -0.159364298 0.015205347 0.00448554708
  vertex -0.157367811 0.0184030347 0.00128261372
  vertex -0.157367811 0.015205347 0.00448554708
  endloop
 endfacet

 facet normal 0.974466562 0 -0.224532425
  outer loop
  vertex -0.15536429 0.0171529688 0.00997788738
  vertex -0.157367811 0.0184030347 0.00128261372
  vertex -0.157367811 0.0199985914 0.00128261372
  endloop
 endfacet

 facet normal 0.974466562 0 -0.224532425
  outer loop
  vertex -0.15536429 0.0171529688 0.00997788738
  vertex -0.157367811 0.0199985914 0.00128261372
  vertex -0.15536429 0.0199999996 0.00997788738
  endloop
 endfacet

 facet normal 0 0 1
  outer loop
  vertex -0.15536429 0.0152044082 0.0139800003
  vertex -0.15536429 0.0199999996 0.0139800003
  vertex -0.159364298 0.0199999996 0.0139800003
  endloop
 endfacet

 facet normal 0 0 1
  outer loop
  vertex -0.15536429 0.0152044082 0.0139800003
  vertex -0.159364298 0.0199999996 0.0139800003
  vertex -0.159364298 0.0152044082 0.0139800003
  endloop
 endfacet

 facet normal 0 0 -1
  outer loop
  vertex -0.157367811 0.0184030347 0.00128261372
  vertex -0.159364298 0.0184030347 0.00128261372
  vertex -0.159364298 0.0199985914 0.00128261372
  endloop
 endfacet

 facet normal 0 0 -1
  outer loop
  vertex -0.157367811 0.0184030347 0.00128261372
  vertex -0.159364298 0.0199985914 0.00128261372
  vertex -0.157367811 0.0199985914 0.00128261372
  endloop
 endfacet

 facet normal 0 1 -0.000161911157
  outer loop
  vertex -0.15536429 0.0199999996 0.00997788738
  vertex -0.157367811 0.0199985914 0.00128261372
  vertex -0.159364298 0.0199985914 0.00128261372
  endloop
 endfacet

 facet normal 0 1 -0.000161911157
  outer loop
  vertex -0.15536429 0.0199999996 0.00997788738
  vertex -0.159364298 0.0199985914 0.00128261372
  vertex -0.159364298 0.0199999996 0.00997788738
  endloop
 endfacet

 facet normal 0 1 0
  outer loop
  vertex -0.15536429 0.0199999996 0.00997788738
  vertex -0.159364298 0.0199999996 0.00997788738
  vertex -0.159364298 0.0199999996 0.0139800003
  endloop
 endfacet

 facet normal 0 1 0
  outer loop
  vertex -0.15536429 0.0199999996 0.00997788738
  vertex -0.159364298 0.0199999996 0.0139800003
  vertex -0.15536429 0.0199999996 0.0139800003
  endloop
 endfacet

endsolid AssimpScene
