solid AssimpScene
 facet normal -0.843031764 0 0.53786397
  outer loop
  vertex -0.0071719829 0.00416256674 0.010550946
  vertex -0.0063667465 0.00416256674 0.0118130483
  vertex -0.0063667465 0.0173811354 0.0118130483
  endloop
 endfacet

 facet normal -0.843031764 0 0.53786397
  outer loop
  vertex -0.0071719829 0.00416256674 0.010550946
  vertex -0.0063667465 0.0173811354 0.0118130483
  vertex -0.0071719829 0.0168565437 0.010550946
  endloop
 endfacet

 facet normal -0.000141613156 0 -1
  outer loop
  vertex -0.0071719829 0.00416256674 0.010550946
  vertex -0.0071719829 0.0168565437 0.010550946
  vertex -0.00100369647 -0.013921448 0.0105500724
  endloop
 endfacet

 facet normal -0.000141613156 0 -1
  outer loop
  vertex -0.0071719829 0.00416256674 0.010550946
  vertex -0.00100369647 -0.013921448 0.0105500724
  vertex -0.00100369647 -0.0273706075 0.0105500724
  endloop
 endfacet

 facet normal -0.981400073 -0.191974223 0
  outer loop
  vertex -0.0071719829 0.00416256674 0.010550946
  vertex -0.00100369647 -0.0273706075 0.0105500724
  vertex -0.00100369647 -0.0273706075 0.0182039179
  endloop
 endfacet

 facet normal -0.981693864 -0.190337792 0.0069794911
  outer loop
  vertex -0.0071719829 0.00416256674 0.010550946
  vertex -0.00100369647 -0.0273706075 0.0182039179
  vertex -0.00100369647 -0.0273475461 0.018832786
  endloop
 endfacet

 facet normal -0.981434941 -0.167623594 0.0932079032
  outer loop
  vertex -0.0071719829 0.00416256674 0.010550946
  vertex -0.00100369647 -0.0273475461 0.018832786
  vertex -0.00100369647 -0.0270823687 0.0193096772
  endloop
 endfacet

 facet normal -0.941578507 -0.0953333303 0.323019624
  outer loop
  vertex -0.0071719829 0.00416256674 0.010550946
  vertex -0.00100369647 -0.0270823687 0.0193096772
  vertex -0.00100369647 -0.0265289526 0.0194730069
  endloop
 endfacet

 facet normal -0.842959642 -0.0130710779 0.537817955
  outer loop
  vertex -0.0071719829 0.00416256674 0.010550946
  vertex -0.00100369647 -0.0265289526 0.0194730069
  vertex -0.0063667465 0.00416256674 0.0118130483
  endloop
 endfacet

 facet normal -0.819177747 0 0.573539853
  outer loop
  vertex -0.0063667465 0.00416256674 0.0118130483
  vertex -0.00100369647 -0.0265289526 0.0194730069
  vertex -0.00100369647 -0.022758808 0.0194730069
  endloop
 endfacet

 facet normal -0.819177747 0 0.573539853
  outer loop
  vertex -0.0063667465 0.00416256674 0.0118130483
  vertex -0.00100369647 -0.022758808 0.0194730069
  vertex -0.0063667465 0.0173811354 0.0118130483
  endloop
 endfacet

 facet normal -0.843111217 0.000422681042 0.537739038
  outer loop
  vertex -0.0071719829 0.0168565437 0.010550946
  vertex -0.0063667465 0.0173811354 0.0118130483
  vertex -0.00636007357 0.0306919385 0.0118130483
  endloop
 endfacet

 facet normal -0.933209121 0.022046309 0.358656764
  outer loop
  vertex -0.0071719829 0.0168565437 0.010550946
  vertex -0.00636007357 0.0306919385 0.0118130483
  vertex -0.00635340018 0.0309744105 0.0118130483
  endloop
 endfacet

 facet normal -0.985159993 0.0422496125 0.166357353
  outer loop
  vertex -0.0071719829 0.0168565437 0.010550946
  vertex -0.00635340018 0.0309744105 0.0118130483
  vertex -0.00635117525 0.0310262926 0.0118130483
  endloop
 endfacet

 facet normal -0.99832648 0.0578297898 0
  outer loop
  vertex -0.0071719829 0.0168565437 0.010550946
  vertex -0.00635117525 0.0310262926 0.0118130483
  vertex -0.00635117525 0.0310262926 0.010550946
  endloop
 endfacet

 facet normal -0.000109859568 6.36380628e-06 -1
  outer loop
  vertex -0.0071719829 0.0168565437 0.010550946
  vertex -0.00635117525 0.0310262926 0.010550946
  vertex -0.00100369647 -0.013921448 0.0105500724
  endloop
 endfacet

 facet normal 0 -1 0
  outer loop
  vertex -0.00100369647 -0.0273706075 0.0105500724
  vertex 0.0155525794 -0.0273706075 0.0105500724
  vertex 0.0155525794 -0.0273706075 0.0182039179
  endloop
 endfacet

 facet normal 0 -1 0
  outer loop
  vertex -0.00100369647 -0.0273706075 0.0105500724
  vertex 0.0155525794 -0.0273706075 0.0182039179
  vertex -0.00100369647 -0.0273706075 0.0182039179
  endloop
 endfacet

 facet normal 0 0 -1
  outer loop
  vertex -0.00100369647 -0.0273706075 0.0105500724
  vertex -0.00100369647 -0.013921448 0.0105500724
  vertex 0.00688850647 -0.0126474388 0.0105500724
  endloop
 endfacet

 facet normal 0 0 -1
  outer loop
  vertex -0.00100369647 -0.0273706075 0.0105500724
  vertex 0.00688850647 -0.0126474388 0.0105500724
  vertex 0.0155525794 -0.0126474388 0.0105500724
  endloop
 endfacet

 facet normal 0 0 -1
  outer loop
  vertex -0.00100369647 -0.0273706075 0.0105500724
  vertex 0.0155525794 -0.0126474388 0.0105500724
  vertex 0.0155525794 -0.0273706075 0.0105500724
  endloop
 endfacet

 facet normal 0 -0.999328375 0.036644347
  outer loop
  vertex -0.00100369647 -0.0273706075 0.0182039179
  vertex 0.0155525794 -0.0273706075 0.0182039179
  vertex 0.0155525794 -0.0273475461 0.018832786
  endloop
 endfacet

 facet normal 0 -0.999328375 0.036644347
  outer loop
  vertex -0.00100369647 -0.0273706075 0.0182039179
  vertex 0.0155525794 -0.0273475461 0.018832786
  vertex -0.00100369647 -0.0273475461 0.018832786
  endloop
 endfacet

 facet normal 0 -0.873971939 0.485976279
  outer loop
  vertex -0.00100369647 -0.0273475461 0.018832786
  vertex 0.0155525794 -0.0273475461 0.018832786
  vertex 0.0155525794 -0.0270823687 0.0193096772
  endloop
 endfacet

 facet normal 0 -0.873971939 0.485976279
  outer loop
  vertex -0.00100369647 -0.0273475461 0.018832786
  vertex 0.0155525794 -0.0270823687 0.0193096772
  vertex -0.00100369647 -0.0270823687 0.0193096772
  endloop
 endfacet

 facet normal 0 -0.285798371 0.958289802
  outer loop
  vertex -0.00100369647 -0.0270823687 0.0193096772
  vertex 0.0155525794 -0.0270823687 0.0193096772
  vertex 0.0155525794 -0.0265347175 0.0194730069
  endloop
 endfacet

 facet normal 0 -0.285798371 0.958289802
  outer loop
  vertex -0.00100369647 -0.0270823687 0.0193096772
  vertex 0.0155525794 -0.0265347175 0.0194730069
  vertex 0.00688850647 -0.0265347175 0.0194730069
  endloop
 endfacet

 facet normal -0.000206732875 -0.283061296 0.959101796
  outer loop
  vertex -0.00100369647 -0.0270823687 0.0193096772
  vertex 0.00688850647 -0.0265347175 0.0194730069
  vertex -0.00100369647 -0.0265289526 0.0194730069
  endloop
 endfacet

 facet normal 0 0 1
  outer loop
  vertex -0.00100369647 -0.0265289526 0.0194730069
  vertex 0.00688850647 -0.0265347175 0.0194730069
  vertex 0.0155525794 -0.0265347175 0.0194730069
  endloop
 endfacet

 facet normal 0 0 1
  outer loop
  vertex -0.00100369647 -0.0265289526 0.0194730069
  vertex 0.0155525794 -0.0265347175 0.0194730069
  vertex 0.0155525794 -0.022758808 0.0194730069
  endloop
 endfacet

 facet normal 0 0 1
  outer loop
  vertex -0.00100369647 -0.0265289526 0.0194730069
  vertex 0.0155525794 -0.022758808 0.0194730069
  vertex -0.00100369647 -0.022758808 0.0194730069
  endloop
 endfacet

 facet normal -0.818166494 0.000410175358 0.574981213
  outer loop
  vertex -0.0063667465 0.0173811354 0.0118130483
  vertex -0.00100369647 -0.022758808 0.0194730069
  vertex -0.00636007357 0.0306919385 0.0118130483
  endloop
 endfacet

 facet normal -0.756521881 0.017872218 0.653724134
  outer loop
  vertex -0.00636007357 0.0306919385 0.0118130483
  vertex -0.00100369647 -0.022758808 0.0194730069
  vertex -0.00635340018 0.0309744105 0.0118130483
  endloop
 endfacet

 facet normal -0.707051575 0.0303226449 0.706511617
  outer loop
  vertex -0.00635340018 0.0309744105 0.0118130483
  vertex -0.00100369647 -0.022758808 0.0194730069
  vertex -0.00635117525 0.0310262926 0.0118130483
  endloop
 endfacet

 facet normal -0.626729727 0.779236734 0
  outer loop
  vertex -0.00635117525 0.0310262926 0.0118130483
  vertex -0.00602863636 0.0312857069 0.0118130483
  vertex -0.00635117525 0.0310262926 0.010550946
  endloop
 endfacet

 facet normal -0.104576513 0.130023926 0.985980511
  outer loop
  vertex -0.00635117525 0.0310262926 0.0118130483
  vertex -0.00100369647 -0.022758808 0.0194730069
  vertex -0.00602863636 0.0312857069 0.0118130483
  endloop
 endfacet

 facet normal -0.6181584 0.786045253 -0.00358988205
  outer loop
  vertex -0.00635117525 0.0310262926 0.010550946
  vertex -0.00602863636 0.0312857069 0.0118130483
  vertex -0.00602863636 0.0312799439 0.010550946
  endloop
 endfacet

 facet normal -1.39755712e-05 1.77712245e-05 -1
  outer loop
  vertex -0.00635117525 0.0310262926 0.010550946
  vertex -0.00602863636 0.0312799439 0.010550946
  vertex -0.00100369647 -0.013921448 0.0105500724
  endloop
 endfacet

 facet normal -7.00894543e-06 1.85456884e-05 -1
  outer loop
  vertex -0.00100369647 -0.013921448 0.0105500724
  vertex -0.00602863636 0.0312799439 0.010550946
  vertex -0.00592186442 0.0313202962 0.010550946
  endloop
 endfacet

 facet normal -6.75916181e-06 1.85728404e-05 -1
  outer loop
  vertex -0.00100369647 -0.013921448 0.0105500724
  vertex -0.00592186442 0.0313202962 0.010550946
  vertex -0.00539912842 0.0315105319 0.010550946
  endloop
 endfacet

 facet normal -3.05598019e-06 1.8931114e-05 -1
  outer loop
  vertex -0.00100369647 -0.013921448 0.0105500724
  vertex -0.00539912842 0.0315105319 0.010550946
  vertex 0.00688850647 -0.0126474388 0.0105500724
  endloop
 endfacet

 facet normal 1 0 0
  outer loop
  vertex 0.0155525794 -0.0273706075 0.0105500724
  vertex 0.0155525794 -0.0126474388 0.0105500724
  vertex 0.0155525794 -0.0126474388 0.0128008947
  endloop
 endfacet

 facet normal 1 0 0
  outer loop
  vertex 0.0155525794 -0.0273706075 0.0105500724
  vertex 0.0155525794 -0.0126474388 0.0128008947
  vertex 0.0155525794 -0.0211158544 0.0188834444
  endloop
 endfacet

 facet normal 1 0 0
  outer loop
  vertex 0.0155525794 -0.0273706075 0.0105500724
  vertex 0.0155525794 -0.0211158544 0.0188834444
  vertex 0.0155525794 -0.0213291496 0.0190196987
  endloop
 endfacet

 facet normal 1 0 0
  outer loop
  vertex 0.0155525794 -0.0273706075 0.0105500724
  vertex 0.0155525794 -0.0213291496 0.0190196987
  vertex 0.0155525794 -0.0218998604 0.0192948282
  endloop
 endfacet

 facet normal 1 0 0
  outer loop
  vertex 0.0155525794 -0.0273706075 0.0105500724
  vertex 0.0155525794 -0.0218998604 0.0192948282
  vertex 0.0155525794 -0.0225628074 0.0194537919
  endloop
 endfacet

 facet normal 1 0 0
  outer loop
  vertex 0.0155525794 -0.0273706075 0.0105500724
  vertex 0.0155525794 -0.0225628074 0.0194537919
  vertex 0.0155525794 -0.022758808 0.0194730069
  endloop
 endfacet

 facet normal 1 0 0
  outer loop
  vertex 0.0155525794 -0.0273706075 0.0105500724
  vertex 0.0155525794 -0.022758808 0.0194730069
  vertex 0.0155525794 -0.0265347175 0.0194730069
  endloop
 endfacet

 facet normal 1 0 0
  outer loop
  vertex 0.0155525794 -0.0273706075 0.0105500724
  vertex 0.0155525794 -0.0265347175 0.0194730069
  vertex 0.0155525794 -0.0270823687 0.0193096772
  endloop
 endfacet

 facet normal 1 0 0
  outer loop
  vertex 0.0155525794 -0.0273706075 0.0105500724
  vertex 0.0155525794 -0.0270823687 0.0193096772
  vertex 0.0155525794 -0.0273475461 0.018832786
  endloop
 endfacet

 facet normal 1 0 0
  outer loop
  vertex 0.0155525794 -0.0273706075 0.0105500724
  vertex 0.0155525794 -0.0273475461 0.018832786
  vertex 0.0155525794 -0.0273706075 0.0182039179
  endloop
 endfacet

 facet normal 0 0.0975697637 0.995228708
  outer loop
  vertex -0.00100369647 -0.022758808 0.0194730069
  vertex 0.0155525794 -0.022758808 0.0194730069
  vertex 0.0155525794 -0.0225628074 0.0194537919
  endloop
 endfacet

 facet normal -0.000504858384 0.139721647 0.990190804
  outer loop
  vertex -0.00100369647 -0.022758808 0.0194730069
  vertex 0.0155525794 -0.0225628074 0.0194537919
  vertex -0.00539912842 0.0315105319 0.0118130483
  endloop
 endfacet

 facet normal -0.0484812185 0.135746405 0.98955673
  outer loop
  vertex -0.00100369647 -0.022758808 0.0194730069
  vertex -0.00539912842 0.0315105319 0.0118130483
  vertex -0.00602863636 0.0312857069 0.0118130483
  endloop
 endfacet

 facet normal -0.336338609 0.941741168 0
  outer loop
  vertex -0.00602863636 0.0312857069 0.0118130483
  vertex -0.00539912842 0.0315105319 0.0118130483
  vertex -0.00539912842 0.0315105319 0.010550946
  endloop
 endfacet

 facet normal -0.341982663 0.939700842 -0.00317855878
  outer loop
  vertex -0.00602863636 0.0312857069 0.0118130483
  vertex -0.00539912842 0.0315105319 0.010550946
  vertex -0.00592186442 0.0313202962 0.010550946
  endloop
 endfacet

 facet normal -0.353520811 0.935416937 -0.00427206513
  outer loop
  vertex -0.00602863636 0.0312857069 0.0118130483
  vertex -0.00592186442 0.0313202962 0.010550946
  vertex -0.00602863636 0.0312799439 0.010550946
  endloop
 endfacet

 facet normal 0 1.97814879e-05 -1
  outer loop
  vertex 0.00688850647 -0.0126474388 0.0105500724
  vertex -0.00539912842 0.0315105319 0.010550946
  vertex 0.00688405754 0.0315105319 0.010550946
  endloop
 endfacet

 facet normal 0 1.97814879e-05 -1
  outer loop
  vertex 0.00688850647 -0.0126474388 0.0105500724
  vertex 0.00688405754 0.0315105319 0.010550946
  vertex 0.0155525794 -0.0126474388 0.0105500724
  endloop
 endfacet

 facet normal 0 1 0
  outer loop
  vertex -0.00539912842 0.0315105319 0.010550946
  vertex -0.00539912842 0.0315105319 0.0118130483
  vertex 0.00688405754 0.0315105319 0.0118130483
  endloop
 endfacet

 facet normal 0 1 0
  outer loop
  vertex -0.00539912842 0.0315105319 0.010550946
  vertex 0.00688405754 0.0315105319 0.0118130483
  vertex 0.00688405754 0.0315105319 0.010550946
  endloop
 endfacet

 facet normal 0.000340690691 8.66614791e-05 -0.99999994
  outer loop
  vertex 0.0155525794 -0.0126474388 0.0105500724
  vertex 0.00688405754 0.0315105319 0.010550946
  vertex 0.0155503564 -0.00255912985 0.010550946
  endloop
 endfacet

 facet normal 1 0.000220380593 -0.000145456157
  outer loop
  vertex 0.0155525794 -0.0126474388 0.0105500724
  vertex 0.0155503564 -0.00255912985 0.010550946
  vertex 0.0155503564 -0.00254760031 0.0105684139
  endloop
 endfacet

 facet normal 1 0.000220347196 -0.000127077219
  outer loop
  vertex 0.0155525794 -0.0126474388 0.0105500724
  vertex 0.0155503564 -0.00254760031 0.0105684139
  vertex 0.0155503564 -0.00249571726 0.0106583769
  endloop
 endfacet

 facet normal 1 0.000220241782 -0.000117194759
  outer loop
  vertex 0.0155525794 -0.0126474388 0.0105500724
  vertex 0.0155503564 -0.00249571726 0.0106583769
  vertex 0.0155503564 -0.0021671271 0.0112758903
  endloop
 endfacet

 facet normal 1 0.000212125393 0
  outer loop
  vertex 0.0155525794 -0.0126474388 0.0105500724
  vertex 0.0155503564 -0.0021671271 0.0112758903
  vertex 0.0155525794 -0.0126474388 0.0128008947
  endloop
 endfacet

 facet normal 0.512838244 0.200176358 0.834821165
  outer loop
  vertex 0.0155525794 -0.0225628074 0.0194537919
  vertex 0.0155525794 -0.0218998604 0.0192948282
  vertex 0.00688405754 0.0315105319 0.0118130483
  endloop
 endfacet

 facet normal 0 0.13991344 0.990163743
  outer loop
  vertex 0.0155525794 -0.0225628074 0.0194537919
  vertex 0.00688405754 0.0315105319 0.0118130483
  vertex -0.00539912842 0.0315105319 0.0118130483
  endloop
 endfacet

 facet normal 0.968449056 0.249211773 0
  outer loop
  vertex 0.00688405754 0.0315105319 0.010550946
  vertex 0.00688405754 0.0315105319 0.0118130483
  vertex 0.0155503564 -0.0021671271 0.0112758903
  endloop
 endfacet

 facet normal 0.960892141 0.244466946 -0.130085409
  outer loop
  vertex 0.00688405754 0.0315105319 0.010550946
  vertex 0.0155503564 -0.0021671271 0.0112758903
  vertex 0.0155503564 -0.00249571726 0.0106583769
  endloop
 endfacet

 facet normal 0.959486187 0.244074911 -0.140761286
  outer loop
  vertex 0.00688405754 0.0315105319 0.010550946
  vertex 0.0155503564 -0.00249571726 0.0106583769
  vertex 0.0155503564 -0.00254760031 0.0105684139
  endloop
 endfacet

 facet normal 0.956558585 0.24331978 -0.160596535
  outer loop
  vertex 0.00688405754 0.0315105319 0.010550946
  vertex 0.0155503564 -0.00254760031 0.0105684139
  vertex 0.0155503564 -0.00255912985 0.010550946
  endloop
 endfacet

 facet normal 0.999999881 0.000241931804 0.00033682902
  outer loop
  vertex 0.0155525794 -0.0126474388 0.0128008947
  vertex 0.0155503564 -0.00228242204 0.0119562903
  vertex 0.0155525794 -0.0211158544 0.0188834444
  endloop
 endfacet

 facet normal 1 0.000217488021 3.68537221e-05
  outer loop
  vertex 0.0155525794 -0.0126474388 0.0128008947
  vertex 0.0155503564 -0.0021671271 0.0112758903
  vertex 0.0155503564 -0.00228242204 0.0119562903
  endloop
 endfacet

 facet normal 0.967752814 0.248361349 0.0420852564
  outer loop
  vertex 0.0155503564 -0.0021671271 0.0112758903
  vertex 0.00688405754 0.0315105319 0.0118130483
  vertex 0.0155503564 -0.00228242204 0.0119562903
  endloop
 endfacet

 facet normal 0.999999404 0.000494559645 0.00102588022
  outer loop
  vertex 0.0155525794 -0.0218998604 0.0192948282
  vertex 0.0155525794 -0.0213291496 0.0190196987
  vertex 0.0155503564 -0.00271477783 0.0122130783
  endloop
 endfacet

 facet normal 0.999995649 0.00113145949 0.00275129918
  outer loop
  vertex 0.0155525794 -0.0218998604 0.0192948282
  vertex 0.0155503564 -0.00271477783 0.0122130783
  vertex 0.0155503564 -0.00291654421 0.0122960536
  endloop
 endfacet

 facet normal 0.797625184 0.208724797 0.565886974
  outer loop
  vertex 0.0155525794 -0.0218998604 0.0192948282
  vertex 0.0155503564 -0.00291654421 0.0122960536
  vertex 0.00688405754 0.0315105319 0.0118130483
  endloop
 endfacet

 facet normal 0.824914634 0.214989528 0.522776544
  outer loop
  vertex 0.00688405754 0.0315105319 0.0118130483
  vertex 0.0155503564 -0.00291654421 0.0122960536
  vertex 0.0155503564 -0.00271477783 0.0122130783
  endloop
 endfacet

 facet normal 0.887942016 0.229497597 0.398609966
  outer loop
  vertex 0.00688405754 0.0315105319 0.0118130483
  vertex 0.0155503564 -0.00271477783 0.0122130783
  vertex 0.0155503564 -0.00248418795 0.0120803174
  endloop
 endfacet

 facet normal 0.896883607 0.231605411 0.376774132
  outer loop
  vertex 0.00688405754 0.0315105319 0.0118130483
  vertex 0.0155503564 -0.00248418795 0.0120803174
  vertex 0.0155503564 -0.00228242204 0.0119562903
  endloop
 endfacet

 facet normal 0.999999881 0.000294220925 0.00047863659
  outer loop
  vertex 0.0155503564 -0.00228242204 0.0119562903
  vertex 0.0155503564 -0.00248418795 0.0120803174
  vertex 0.0155525794 -0.0213291496 0.0190196987
  endloop
 endfacet

 facet normal 0.999999881 0.000278257357 0.000435590366
  outer loop
  vertex 0.0155503564 -0.00228242204 0.0119562903
  vertex 0.0155525794 -0.0213291496 0.0190196987
  vertex 0.0155525794 -0.0211158544 0.0188834444
  endloop
 endfacet

 facet normal 0.999999762 0.000327313261 0.000568504096
  outer loop
  vertex 0.0155525794 -0.0213291496 0.0190196987
  vertex 0.0155503564 -0.00248418795 0.0120803174
  vertex 0.0155503564 -0.00271477783 0.0122130783
  endloop
 endfacet

endsolid AssimpScene
