solid AssimpScene
 facet normal -1 0 0
  outer loop
  vertex -0.139599547 -0.0267815329 0.0059799999
  vertex -0.139599547 -0.0267815329 0.0140767386
  vertex -0.139599547 -0.024736736 0.0140767386
  endloop
 endfacet

 facet normal -1 0 0
  outer loop
  vertex -0.139599547 -0.0267815329 0.0059799999
  vertex -0.139599547 -0.024736736 0.0140767386
  vertex -0.139599547 -0.024736736 0.0059799999
  endloop
 endfacet

 facet normal 0 0 -1
  outer loop
  vertex -0.139599547 -0.0267815329 0.0059799999
  vertex -0.139599547 -0.024736736 0.0059799999
  vertex -0.123936966 -0.0181468204 0.0059799999
  endloop
 endfacet

 facet normal 0 0 -1
  outer loop
  vertex -0.139599547 -0.0267815329 0.0059799999
  vertex -0.123936966 -0.0181468204 0.0059799999
  vertex -0.116987877 -0.0267967731 0.0059799999
  endloop
 endfacet

 facet normal -0.000674022711 -0.999999762 0
  outer loop
  vertex -0.139599547 -0.0267815329 0.0059799999
  vertex -0.116987877 -0.0267967731 0.0059799999
  vertex -0.116987877 -0.0267967731 0.0149896191
  endloop
 endfacet

 facet normal -0.000674022711 -0.999999762 0
  outer loop
  vertex -0.139599547 -0.0267815329 0.0059799999
  vertex -0.116987877 -0.0267967731 0.0149896191
  vertex -0.139599547 -0.0267815329 0.0140767386
  endloop
 endfacet

 facet normal -0.00069544639 -0.999999642 0.000530660909
  outer loop
  vertex -0.139599547 -0.0267815329 0.0140767386
  vertex -0.116987877 -0.0267967731 0.0149896191
  vertex -0.138895556 -0.0267815329 0.014999331
  endloop
 endfacet

 facet normal -0.794992328 0 0.606619537
  outer loop
  vertex -0.139599547 -0.0267815329 0.0140767386
  vertex -0.138895556 -0.0267815329 0.014999331
  vertex -0.138895556 -0.0247570574 0.014999331
  endloop
 endfacet

 facet normal -0.794992328 0 0.606619537
  outer loop
  vertex -0.139599547 -0.0267815329 0.0140767386
  vertex -0.138895556 -0.0247570574 0.014999331
  vertex -0.139599547 -0.024736736 0.0140767386
  endloop
 endfacet

 facet normal -0.387814492 0.921737432 0
  outer loop
  vertex -0.139599547 -0.024736736 0.0059799999
  vertex -0.139599547 -0.024736736 0.0140767386
  vertex -0.123936966 -0.0181468204 0.0149896191
  endloop
 endfacet

 facet normal -0.387814492 0.921737432 0
  outer loop
  vertex -0.139599547 -0.024736736 0.0059799999
  vertex -0.123936966 -0.0181468204 0.0149896191
  vertex -0.123936966 -0.0181468204 0.0059799999
  endloop
 endfacet

 facet normal 0.779586613 0.626294434 0
  outer loop
  vertex -0.116987877 -0.0267967731 0.0059799999
  vertex -0.123936966 -0.0181468204 0.0059799999
  vertex -0.123936966 -0.0181468204 0.0149896191
  endloop
 endfacet

 facet normal 0.779586613 0.626294434 0
  outer loop
  vertex -0.116987877 -0.0267967731 0.0059799999
  vertex -0.123936966 -0.0181468204 0.0149896191
  vertex -0.116987877 -0.0267967731 0.0149896191
  endloop
 endfacet

 facet normal -0.38384518 0.86907804 0.312035739
  outer loop
  vertex -0.139599547 -0.024736736 0.0140767386
  vertex -0.138895556 -0.0247570574 0.014999331
  vertex -0.123936966 -0.0181468204 0.0149896191
  endloop
 endfacet

 facet normal 0.000900469488 0.000723407895 0.999999285
  outer loop
  vertex -0.116987877 -0.0267967731 0.0149896191
  vertex -0.123936966 -0.0181468204 0.0149896191
  vertex -0.130700096 -0.0231533963 0.014999331
  endloop
 endfacet

 facet normal 0.000708258303 0 0.999999702
  outer loop
  vertex -0.116987877 -0.0267967731 0.0149896191
  vertex -0.130700096 -0.0231533963 0.014999331
  vertex -0.130700096 -0.0267815329 0.014999331
  endloop
 endfacet

 facet normal 0 -0.537392259 0.843332469
  outer loop
  vertex -0.116987877 -0.0267967731 0.0149896191
  vertex -0.130700096 -0.0267815329 0.014999331
  vertex -0.138895556 -0.0267815329 0.014999331
  endloop
 endfacet

 facet normal 0 0 1
  outer loop
  vertex -0.138895556 -0.0267815329 0.014999331
  vertex -0.130700096 -0.0267815329 0.014999331
  vertex -0.130700096 -0.0231533963 0.014999331
  endloop
 endfacet

 facet normal 0 0 1
  outer loop
  vertex -0.138895556 -0.0267815329 0.014999331
  vertex -0.130700096 -0.0231533963 0.014999331
  vertex -0.138895556 -0.0247570574 0.014999331
  endloop
 endfacet

 facet normal -0.000515957247 0.00263678189 0.999996483
  outer loop
  vertex -0.138895556 -0.0247570574 0.014999331
  vertex -0.130700096 -0.0231533963 0.014999331
  vertex -0.123936966 -0.0181468204 0.0149896191
  endloop
 endfacet

endsolid AssimpScene
