solid AssimpScene
 facet normal 0.975404918 -0.220418736 -0.000941321894
  outer loop
  vertex -0.0337012932 0.0125934342 6.02926775e-07
  vertex -0.0323633626 0.0185140911 6.02926775e-07
  vertex -0.0306078214 0.0262769666 0.00136136811
  endloop
 endfacet

 facet normal 0.975399613 -0.220443234 -0.000682721788
  outer loop
  vertex -0.0337012932 0.0125934342 6.02926775e-07
  vertex -0.0306078214 0.0262769666 0.00136136811
  vertex -0.0317224339 0.0213451143 0.00136136811
  endloop
 endfacet

 facet normal 0.975379705 -0.220532224 -8.16309621e-05
  outer loop
  vertex -0.0337012932 0.0125934342 6.02926775e-07
  vertex -0.0317224339 0.0213451143 0.00136136811
  vertex -0.0337008014 0.0125934342 0.0058946237
  endloop
 endfacet

 facet normal 0 -1 0
  outer loop
  vertex -0.0337012932 0.0125934342 6.02926775e-07
  vertex -0.0337008014 0.0125934342 0.0058946237
  vertex -0.0337008014 0.0125934342 0.0149974013
  endloop
 endfacet

 facet normal 0 -1 0
  outer loop
  vertex -0.0337012932 0.0125934342 6.02926775e-07
  vertex -0.0337008014 0.0125934342 0.0149974013
  vertex -0.0337012932 0.0125934342 0.00589304697
  endloop
 endfacet

 facet normal -0.220900774 -0.975296259 0
  outer loop
  vertex -0.0337012932 0.0125934342 6.02926775e-07
  vertex -0.0337012932 0.0125934342 0.00589304697
  vertex -0.0351587497 0.0129235433 0.0149974013
  endloop
 endfacet

 facet normal -0.220900774 -0.975296259 0
  outer loop
  vertex -0.0337012932 0.0125934342 6.02926775e-07
  vertex -0.0351587497 0.0129235433 0.0149974013
  vertex -0.0351587497 0.0129235433 0.0058946237
  endloop
 endfacet

 facet normal -0.221763343 -0.975100517 -0.000224256408
  outer loop
  vertex -0.0337012932 0.0125934342 6.02926775e-07
  vertex -0.0351587497 0.0129235433 0.0058946237
  vertex -0.0352123678 0.0129372347 -0.000619073515
  endloop
 endfacet

 facet normal 0.362140417 -0.0819083229 -0.928517938
  outer loop
  vertex -0.0337012932 0.0125934342 6.02926775e-07
  vertex -0.0352123678 0.0129372347 -0.000619073515
  vertex -0.0352123678 0.0185140911 -0.00111103058
  endloop
 endfacet

 facet normal 0.362152457 -0.0819044337 -0.928513587
  outer loop
  vertex -0.0337012932 0.0125934342 6.02926775e-07
  vertex -0.0352123678 0.0185140911 -0.00111103058
  vertex -0.0349536352 0.0185140911 -0.00101011572
  endloop
 endfacet

 facet normal 0.362285346 -0.0818680227 -0.928464949
  outer loop
  vertex -0.0337012932 0.0125934342 6.02926775e-07
  vertex -0.0349536352 0.0185140911 -0.00101011572
  vertex -0.0323633626 0.0185140911 6.02926775e-07
  endloop
 endfacet

 facet normal 0.362316132 0.0808294713 -0.928543925
  outer loop
  vertex -0.0323633626 0.0185140911 6.02926775e-07
  vertex -0.0349536352 0.0185140911 -0.00101011572
  vertex -0.0306078214 0.0262769666 0.00136136811
  endloop
 endfacet

 facet normal 0.362181693 0.0809183568 -0.92858851
  outer loop
  vertex -0.0306078214 0.0262769666 0.00136136811
  vertex -0.0349536352 0.0185140911 -0.00101011572
  vertex -0.0352123678 0.0185140911 -0.00111103058
  endloop
 endfacet

 facet normal 0 0.303470343 -0.952840924
  outer loop
  vertex -0.0306078214 0.0262769666 0.00136136811
  vertex -0.0352123678 0.0185140911 -0.00111103058
  vertex -0.0326580033 0.0262769666 0.00136136811
  endloop
 endfacet

 facet normal 0 0.925338209 -0.37914294
  outer loop
  vertex -0.0306078214 0.0262769666 0.00136136811
  vertex -0.0326580033 0.0262769666 0.00136136811
  vertex -0.0322384238 0.0281343963 0.0058946237
  endloop
 endfacet

 facet normal 0 0.925338209 -0.37914294
  outer loop
  vertex -0.0306078214 0.0262769666 0.00136136811
  vertex -0.0322384238 0.0281343963 0.0058946237
  vertex -0.0301872604 0.0281343963 0.0058946237
  endloop
 endfacet

 facet normal 0.975399852 -0.220443293 -0.000167121732
  outer loop
  vertex -0.0306078214 0.0262769666 0.00136136811
  vertex -0.0301872604 0.0281343963 0.0058946237
  vertex -0.0317224339 0.0213451143 0.00136136811
  endloop
 endfacet

 facet normal 0.975383162 -0.220517084 -5.09498714e-05
  outer loop
  vertex -0.0317224339 0.0213451143 0.00136136811
  vertex -0.0301872604 0.0281343963 0.0058946237
  vertex -0.0337008014 0.0125934342 0.0058946237
  endloop
 endfacet

 facet normal 0.975383162 -0.220517084 0
  outer loop
  vertex -0.0337008014 0.0125934342 0.0058946237
  vertex -0.0301872604 0.0281343963 0.0058946237
  vertex -0.0301872604 0.0281343963 0.0149974013
  endloop
 endfacet

 facet normal 0.975383162 -0.220517084 0
  outer loop
  vertex -0.0337008014 0.0125934342 0.0058946237
  vertex -0.0301872604 0.0281343963 0.0149974013
  vertex -0.0337008014 0.0125934342 0.0149974013
  endloop
 endfacet

 facet normal -0.220829695 -0.975312412 1.1964682e-05
  outer loop
  vertex -0.0337012932 0.0125934342 0.00589304697
  vertex -0.0337008014 0.0125934342 0.0149974013
  vertex -0.0351587497 0.0129235433 0.0149974013
  endloop
 endfacet

 facet normal -0.247426718 -0.968906641 0
  outer loop
  vertex -0.0351587497 0.0129235433 0.0058946237
  vertex -0.0351587497 0.0129235433 0.0149974013
  vertex -0.0352123678 0.0129372347 0.00589304697
  endloop
 endfacet

 facet normal -0.247426718 -0.968906641 0
  outer loop
  vertex -0.0351587497 0.0129235433 0.0058946237
  vertex -0.0352123678 0.0129372347 0.00589304697
  vertex -0.0352123678 0.0129372347 -0.000619073515
  endloop
 endfacet

 facet normal -1 0 0
  outer loop
  vertex -0.0352123678 0.0129372347 -0.000619073515
  vertex -0.0352123678 0.0129372347 0.00589304697
  vertex -0.0352123678 0.0149878627 0.00589304697
  endloop
 endfacet

 facet normal -1 0 0
  outer loop
  vertex -0.0352123678 0.0129372347 -0.000619073515
  vertex -0.0352123678 0.0149878627 0.00589304697
  vertex -0.0352123678 0.0185140911 0.00104285753
  endloop
 endfacet

 facet normal -1 0 0
  outer loop
  vertex -0.0352123678 0.0129372347 -0.000619073515
  vertex -0.0352123678 0.0185140911 0.00104285753
  vertex -0.0352123678 0.0185140911 -0.00111103058
  endloop
 endfacet

 facet normal -0.955391645 0.295341849 0
  outer loop
  vertex -0.0352123678 0.0185140911 -0.00111103058
  vertex -0.0352123678 0.0185140911 0.00104285753
  vertex -0.0322384238 0.0281343963 0.0149974013
  endloop
 endfacet

 facet normal -0.955391645 0.295341849 0
  outer loop
  vertex -0.0352123678 0.0185140911 -0.00111103058
  vertex -0.0322384238 0.0281343963 0.0149974013
  vertex -0.0322384238 0.0281343963 0.0058946237
  endloop
 endfacet

 facet normal -0.944462717 0.325396061 -0.0459104814
  outer loop
  vertex -0.0352123678 0.0185140911 -0.00111103058
  vertex -0.0322384238 0.0281343963 0.0058946237
  vertex -0.0326580033 0.0262769666 0.00136136811
  endloop
 endfacet

 facet normal 0 1 0
  outer loop
  vertex -0.0301872604 0.0281343963 0.0058946237
  vertex -0.0322384238 0.0281343963 0.0058946237
  vertex -0.0322384238 0.0281343963 0.0149974013
  endloop
 endfacet

 facet normal 0 1 0
  outer loop
  vertex -0.0301872604 0.0281343963 0.0058946237
  vertex -0.0322384238 0.0281343963 0.0149974013
  vertex -0.0301872604 0.0281343963 0.0149974013
  endloop
 endfacet

 facet normal 0 0 1
  outer loop
  vertex -0.0337008014 0.0125934342 0.0149974013
  vertex -0.0301872604 0.0281343963 0.0149974013
  vertex -0.0322384238 0.0281343963 0.0149974013
  endloop
 endfacet

 facet normal 0 0 1
  outer loop
  vertex -0.0337008014 0.0125934342 0.0149974013
  vertex -0.0322384238 0.0281343963 0.0149974013
  vertex -0.0351587497 0.0152160479 0.0149974013
  endloop
 endfacet

 facet normal 0 0 1
  outer loop
  vertex -0.0337008014 0.0125934342 0.0149974013
  vertex -0.0351587497 0.0152160479 0.0149974013
  vertex -0.0351587497 0.0129235433 0.0149974013
  endloop
 endfacet

 facet normal -0.999982715 0 0.00588881178
  outer loop
  vertex -0.0351587497 0.0129235433 0.0149974013
  vertex -0.0351587497 0.0152160479 0.0149974013
  vertex -0.0352123678 0.0149878627 0.00589304697
  endloop
 endfacet

 facet normal -0.999982715 0 0.00588881178
  outer loop
  vertex -0.0351587497 0.0129235433 0.0149974013
  vertex -0.0352123678 0.0149878627 0.00589304697
  vertex -0.0352123678 0.0129372347 0.00589304697
  endloop
 endfacet

 facet normal -0.999953151 0.00782967731 0.00569240144
  outer loop
  vertex -0.0352123678 0.0185140911 0.00104285753
  vertex -0.0352123678 0.0149878627 0.00589304697
  vertex -0.0351587497 0.0152160479 0.0149974013
  endloop
 endfacet

 facet normal -0.973869503 0.220153302 0.0557731465
  outer loop
  vertex -0.0352123678 0.0185140911 0.00104285753
  vertex -0.0351587497 0.0152160479 0.0149974013
  vertex -0.0322384238 0.0281343963 0.0149974013
  endloop
 endfacet

endsolid AssimpScene
