solid AssimpScene
 facet normal 0 1 0
  outer loop
  vertex -0.150769621 0.0314178914 0.0147239659
  vertex -0.150769621 0.0314178914 0.00598085579
  vertex -0.155364454 0.0314178914 0.00598085579
  endloop
 endfacet

 facet normal 0 1 0
  outer loop
  vertex -0.150769621 0.0314178914 0.0147239659
  vertex -0.155364454 0.0314178914 0.00598085579
  vertex -0.155364454 0.0314178914 0.0147239659
  endloop
 endfacet

 facet normal 0 0 1
  outer loop
  vertex -0.150769621 0.0314178914 0.0147239659
  vertex -0.155364454 0.0314178914 0.0147239659
  vertex -0.155364454 0.00836643577 0.0147239659
  endloop
 endfacet

 facet normal 0 0 1
  outer loop
  vertex -0.150769621 0.0314178914 0.0147239659
  vertex -0.155364454 0.00836643577 0.0147239659
  vertex -0.155363843 -0.000606383081 0.0147239659
  endloop
 endfacet

 facet normal 0 0 1
  outer loop
  vertex -0.150769621 0.0314178914 0.0147239659
  vertex -0.155363843 -0.000606383081 0.0147239659
  vertex -0.154276073 -0.000610683986 0.0147239659
  endloop
 endfacet

 facet normal 0 0 1
  outer loop
  vertex -0.150769621 0.0314178914 0.0147239659
  vertex -0.154276073 -0.000610683986 0.0147239659
  vertex -0.150769621 -0.000584875932 0.0147239659
  endloop
 endfacet

 facet normal 0.0454825461 0 0.998965204
  outer loop
  vertex -0.150769621 0.0314178914 0.0147239659
  vertex -0.150769621 -0.000584875932 0.0147239659
  vertex -0.149115309 -0.0125256926 0.0146486452
  endloop
 endfacet

 facet normal 0.999292135 0.037619628 0
  outer loop
  vertex -0.150769621 0.0314178914 0.0147239659
  vertex -0.149115309 -0.0125256926 0.0146486452
  vertex -0.149115309 -0.0125256926 0.0059799999
  endloop
 endfacet

 facet normal 0.999292135 0.037619628 0
  outer loop
  vertex -0.150769621 0.0314178914 0.0147239659
  vertex -0.149115309 -0.0125256926 0.0059799999
  vertex -0.150769621 0.0314178914 0.00598085579
  endloop
 endfacet

 facet normal 0.00057970325 4.13016642e-05 -0.999999881
  outer loop
  vertex -0.150769621 0.0314178914 0.00598085579
  vertex -0.149115309 -0.0125256926 0.0059799999
  vertex -0.149964213 -0.000610683986 0.0059799999
  endloop
 endfacet

 facet normal 0 2.67240503e-05 -1
  outer loop
  vertex -0.150769621 0.0314178914 0.00598085579
  vertex -0.149964213 -0.000610683986 0.0059799999
  vertex -0.155363843 -0.000610683986 0.0059799999
  endloop
 endfacet

 facet normal 0 2.67240503e-05 -1
  outer loop
  vertex -0.150769621 0.0314178914 0.00598085579
  vertex -0.155363843 -0.000610683986 0.0059799999
  vertex -0.155364454 0.0314178914 0.00598085579
  endloop
 endfacet

 facet normal -1 0.000199819129 0
  outer loop
  vertex -0.155364454 0.0314178914 0.0147239659
  vertex -0.155364454 0.0314178914 0.00598085579
  vertex -0.155372411 -0.0084264148 0.0146486452
  endloop
 endfacet

 facet normal -0.994459748 0 0.105118379
  outer loop
  vertex -0.155364454 0.0314178914 0.0147239659
  vertex -0.155372411 -0.0084264148 0.0146486452
  vertex -0.155372411 -0.0125256926 0.0146486452
  endloop
 endfacet

 facet normal -0.994459748 0 0.105118379
  outer loop
  vertex -0.155364454 0.0314178914 0.0147239659
  vertex -0.155372411 -0.0125256926 0.0146486452
  vertex -0.155364454 0.00836643577 0.0147239659
  endloop
 endfacet

 facet normal 4.63781689e-05 -0.00630124845 0.999980152
  outer loop
  vertex -0.150769621 -0.000584875932 0.0147239659
  vertex -0.154276073 -0.000610683986 0.0147239659
  vertex -0.149115309 -0.0125256926 0.0146486452
  endloop
 endfacet

 facet normal 0 -0.00632133568 0.999979973
  outer loop
  vertex -0.149115309 -0.0125256926 0.0146486452
  vertex -0.154276073 -0.000610683986 0.0147239659
  vertex -0.155372411 -0.0125256926 0.0146486452
  endloop
 endfacet

 facet normal 0 -1 0
  outer loop
  vertex -0.149115309 -0.0125256926 0.0146486452
  vertex -0.155372411 -0.0125256926 0.0146486452
  vertex -0.155372411 -0.0125256926 0.0140794665
  endloop
 endfacet

 facet normal 0 -1 0
  outer loop
  vertex -0.149115309 -0.0125256926 0.0146486452
  vertex -0.155372411 -0.0125256926 0.0140794665
  vertex -0.155363843 -0.0125256926 0.0059799999
  endloop
 endfacet

 facet normal 0 -1 0
  outer loop
  vertex -0.149115309 -0.0125256926 0.0146486452
  vertex -0.155363843 -0.0125256926 0.0059799999
  vertex -0.149115309 -0.0125256926 0.0059799999
  endloop
 endfacet

 facet normal -0.999999523 0 -0.00098308851
  outer loop
  vertex -0.155364454 0.0314178914 0.00598085579
  vertex -0.155364454 0.0284154806 0.00598085579
  vertex -0.155372411 -0.0125256926 0.0140794665
  endloop
 endfacet

 facet normal -0.999999523 0 -0.00098308851
  outer loop
  vertex -0.155364454 0.0314178914 0.00598085579
  vertex -0.155372411 -0.0125256926 0.0140794665
  vertex -0.155372411 -0.00898560323 0.0140794665
  endloop
 endfacet

 facet normal -1 0.000164633238 -0.000161743359
  outer loop
  vertex -0.155364454 0.0314178914 0.00598085579
  vertex -0.155372411 -0.00898560323 0.0140794665
  vertex -0.155372411 -0.0084264148 0.0146486452
  endloop
 endfacet

 facet normal -0.813259482 0 -0.581901193
  outer loop
  vertex -0.155364454 0.0314178914 0.00598085579
  vertex -0.155363843 -0.000610683986 0.0059799999
  vertex -0.155363843 -0.0125256926 0.0059799999
  endloop
 endfacet

 facet normal -0.813259482 0 -0.581901193
  outer loop
  vertex -0.155364454 0.0314178914 0.00598085579
  vertex -0.155363843 -0.0125256926 0.0059799999
  vertex -0.155364454 0.0284154806 0.00598085579
  endloop
 endfacet

 facet normal 0 0 -1
  outer loop
  vertex -0.149115309 -0.0125256926 0.0059799999
  vertex -0.155363843 -0.0125256926 0.0059799999
  vertex -0.155363843 -0.000610683986 0.0059799999
  endloop
 endfacet

 facet normal 0 0 -1
  outer loop
  vertex -0.149115309 -0.0125256926 0.0059799999
  vertex -0.155363843 -0.000610683986 0.0059799999
  vertex -0.149964213 -0.000610683986 0.0059799999
  endloop
 endfacet

 facet normal -1 0 0
  outer loop
  vertex -0.155372411 -0.0084264148 0.0146486452
  vertex -0.155372411 -0.00898560323 0.0140794665
  vertex -0.155372411 -0.0125256926 0.0140794665
  endloop
 endfacet

 facet normal -1 0 0
  outer loop
  vertex -0.155372411 -0.0084264148 0.0146486452
  vertex -0.155372411 -0.0125256926 0.0140794665
  vertex -0.155372411 -0.0125256926 0.0146486452
  endloop
 endfacet

 facet normal -0.992322206 -6.77304124e-05 0.123679295
  outer loop
  vertex -0.155364454 0.00836643577 0.0147239659
  vertex -0.155372411 -0.0125256926 0.0146486452
  vertex -0.155363843 -0.000606383081 0.0147239659
  endloop
 endfacet

 facet normal -2.49845816e-05 -0.00631903624 0.999979973
  outer loop
  vertex -0.154276073 -0.000610683986 0.0147239659
  vertex -0.155363843 -0.000606383081 0.0147239659
  vertex -0.155372411 -0.0125256926 0.0146486452
  endloop
 endfacet

 facet normal -0.999999404 -1.49367588e-05 -0.00105859863
  outer loop
  vertex -0.155364454 0.0284154806 0.00598085579
  vertex -0.155363843 -0.0125256926 0.0059799999
  vertex -0.155372411 -0.0125256926 0.0140794665
  endloop
 endfacet

endsolid AssimpScene
