solid AssimpScene
 facet normal 0 0.999992788 0.00381226791
  outer loop
  vertex -0.0157649498 0.0273711644 0.00718651991
  vertex -0.0157649498 0.0273759887 0.00592138898
  vertex -0.0226770062 0.0273711644 0.00718651991
  endloop
 endfacet

 facet normal 0 0 1
  outer loop
  vertex -0.0157649498 0.0273711644 0.00718651991
  vertex -0.0226770062 0.0273711644 0.00718651991
  vertex -0.023291776 0.0271107405 0.00718651991
  endloop
 endfacet

 facet normal 0 0 1
  outer loop
  vertex -0.0157649498 0.0273711644 0.00718651991
  vertex -0.023291776 0.0271107405 0.00718651991
  vertex -0.0235883538 0.0265464894 0.00718651991
  endloop
 endfacet

 facet normal 0 0 1
  outer loop
  vertex -0.0157649498 0.0273711644 0.00718651991
  vertex -0.0235883538 0.0265464894 0.00718651991
  vertex -0.023592677 0.0265368428 0.00718651991
  endloop
 endfacet

 facet normal 0 0 1
  outer loop
  vertex -0.0157649498 0.0273711644 0.00718651991
  vertex -0.023592677 0.0265368428 0.00718651991
  vertex -0.0245974064 0.00703878701 0.00718651991
  endloop
 endfacet

 facet normal 0 0 1
  outer loop
  vertex -0.0157649498 0.0273711644 0.00718651991
  vertex -0.0245974064 0.00703878701 0.00718651991
  vertex -0.0245974064 0.00641183974 0.00718651991
  endloop
 endfacet

 facet normal 0 0 1
  outer loop
  vertex -0.0157649498 0.0273711644 0.00718651991
  vertex -0.0245974064 0.00641183974 0.00718651991
  vertex -0.0245074835 0.00578007009 0.00718651991
  endloop
 endfacet

 facet normal 0 0 1
  outer loop
  vertex -0.0157649498 0.0273711644 0.00718651991
  vertex -0.0245074835 0.00578007009 0.00718651991
  vertex -0.024335416 0.00539907906 0.00718651991
  endloop
 endfacet

 facet normal 0 0 1
  outer loop
  vertex -0.0157649498 0.0273711644 0.00718651991
  vertex -0.024335416 0.00539907906 0.00718651991
  vertex -0.0236298572 0.00472872751 0.00718651991
  endloop
 endfacet

 facet normal 0 0 1
  outer loop
  vertex -0.0157649498 0.0273711644 0.00718651991
  vertex -0.0236298572 0.00472872751 0.00718651991
  vertex -0.0236125644 0.00472872751 0.00718651991
  endloop
 endfacet

 facet normal 0 0 1
  outer loop
  vertex -0.0157649498 0.0273711644 0.00718651991
  vertex -0.0236125644 0.00472872751 0.00718651991
  vertex -0.0157649498 0.00861097686 0.00718651991
  endloop
 endfacet

 facet normal 0.83853811 0 0.544842958
  outer loop
  vertex -0.0157649498 0.0273711644 0.00718651991
  vertex -0.0157649498 0.00861097686 0.00718651991
  vertex -0.0157640874 -0.00424143905 0.00718518998
  endloop
 endfacet

 facet normal 0.83853811 0 0.544842958
  outer loop
  vertex -0.0157649498 0.0273711644 0.00718651991
  vertex -0.0157640874 -0.00424143905 0.00718518998
  vertex -0.0157640874 0.0086061554 0.00718518998
  endloop
 endfacet

 facet normal 1 4.60504816e-05 1.75558029e-07
  outer loop
  vertex -0.0157649498 0.0273711644 0.00718651991
  vertex -0.0157640874 0.0086061554 0.00718518998
  vertex -0.0157649498 0.0273759887 0.00592138898
  endloop
 endfacet

 facet normal -1.46447258e-06 0.999992728 0.00380426622
  outer loop
  vertex -0.0157649498 0.0273759887 0.00592138898
  vertex -0.0226770062 0.0273759887 0.00591872819
  vertex -0.0226770062 0.0273711644 0.00718651991
  endloop
 endfacet

 facet normal 1 4.60386618e-05 0
  outer loop
  vertex -0.0157649498 0.0273759887 0.00592138898
  vertex -0.0157640874 0.0086061554 0.00718518998
  vertex -0.0157640874 0.0086061554 0.00329135335
  endloop
 endfacet

 facet normal 1 4.60386618e-05 0
  outer loop
  vertex -0.0157649498 0.0273759887 0.00592138898
  vertex -0.0157640874 0.0086061554 0.00329135335
  vertex -0.0157649498 0.0273759887 -0.00540093426
  endloop
 endfacet

 facet normal 0 1 0
  outer loop
  vertex -0.0157649498 0.0273759887 0.00592138898
  vertex -0.0157649498 0.0273759887 -0.00540093426
  vertex -0.0226770062 0.0273759887 -0.00540093426
  endloop
 endfacet

 facet normal 0 1 0
  outer loop
  vertex -0.0157649498 0.0273759887 0.00592138898
  vertex -0.0226770062 0.0273759887 -0.00540093426
  vertex -0.0226770062 0.0273759887 0.00591872819
  endloop
 endfacet

 facet normal -0.390056044 0.920784414 0.00350293424
  outer loop
  vertex -0.0226770062 0.0273711644 0.00718651991
  vertex -0.0226770062 0.0273759887 0.00591872819
  vertex -0.023291776 0.0271107405 0.00718651991
  endloop
 endfacet

 facet normal 3.94975796e-05 -7.98407564e-05 1
  outer loop
  vertex -0.0157649498 0.00861097686 0.00718651991
  vertex -0.0236125644 0.00472872751 0.00718651991
  vertex -0.0157649498 -0.00804652553 0.00718518998
  endloop
 endfacet

 facet normal 0.331665725 -7.53215281e-05 0.943396986
  outer loop
  vertex -0.0157649498 0.00861097686 0.00718651991
  vertex -0.0157649498 -0.00804652553 0.00718518998
  vertex -0.0157640874 -0.00424143905 0.00718518998
  endloop
 endfacet

 facet normal 1 0 0
  outer loop
  vertex -0.0157640874 0.0086061554 0.00718518998
  vertex -0.0157640874 -0.00424143905 0.00718518998
  vertex -0.0157640874 -0.00424143905 0.00329135335
  endloop
 endfacet

 facet normal 1 0 0
  outer loop
  vertex -0.0157640874 0.0086061554 0.00718518998
  vertex -0.0157640874 -0.00424143905 0.00329135335
  vertex -0.0157640874 0.0086061554 0.00329135335
  endloop
 endfacet

 facet normal -0.396157324 0.918182731 0
  outer loop
  vertex -0.0226770062 0.0273759887 0.00591872819
  vertex -0.0226770062 0.0273759887 -0.00540093426
  vertex -0.023291776 0.0271107405 -0.00540093426
  endloop
 endfacet

 facet normal -0.396157324 0.918182731 0
  outer loop
  vertex -0.0226770062 0.0273759887 0.00591872819
  vertex -0.023291776 0.0271107405 -0.00540093426
  vertex -0.023291776 0.0271107405 0.00718651991
  endloop
 endfacet

 facet normal 0 0.933529615 -0.358500302
  outer loop
  vertex -0.0157649498 0.0273759887 -0.00540093426
  vertex -0.0157649498 0.0271348543 -0.00602884358
  vertex -0.0226770062 0.0271348543 -0.00602884358
  endloop
 endfacet

 facet normal 0 0.933529615 -0.358500302
  outer loop
  vertex -0.0157649498 0.0273759887 -0.00540093426
  vertex -0.0226770062 0.0271348543 -0.00602884358
  vertex -0.0226770062 0.0273759887 -0.00540093426
  endloop
 endfacet

 facet normal 1 3.90872883e-05 -1.50105607e-05
  outer loop
  vertex -0.0157649498 0.0273759887 -0.00540093426
  vertex -0.0157640874 0.0086061554 0.00329135335
  vertex -0.0157649498 0.0271348543 -0.00602884358
  endloop
 endfacet

 facet normal -0.884550512 0.466444433 0
  outer loop
  vertex -0.023291776 0.0271107405 0.00718651991
  vertex -0.023291776 0.0271107405 -0.00540093426
  vertex -0.0235944055 0.0265368428 -0.00540093426
  endloop
 endfacet

 facet normal -0.884550512 0.466444433 0
  outer loop
  vertex -0.023291776 0.0271107405 0.00718651991
  vertex -0.0235944055 0.0265368428 -0.00540093426
  vertex -0.0235944055 0.0265368428 0.00591872819
  endloop
 endfacet

 facet normal -0.88517487 0.465258062 0.000686061452
  outer loop
  vertex -0.023291776 0.0271107405 0.00718651991
  vertex -0.0235944055 0.0265368428 0.00591872819
  vertex -0.0235883538 0.0265464894 0.00718651991
  endloop
 endfacet

 facet normal 0 -0.000104103434 1
  outer loop
  vertex -0.0236125644 0.00472872751 0.00718651991
  vertex -0.0236298572 0.00472872751 0.00718651991
  vertex -0.0235970002 -0.00804652553 0.00718518998
  endloop
 endfacet

 facet normal 0 -0.000104103434 1
  outer loop
  vertex -0.0236125644 0.00472872751 0.00718651991
  vertex -0.0235970002 -0.00804652553 0.00718518998
  vertex -0.0157649498 -0.00804652553 0.00718518998
  endloop
 endfacet

 facet normal 0 -0.2248739 0.974387884
  outer loop
  vertex -0.0157649498 -0.00804652553 0.00718518998
  vertex -0.0235970002 -0.00804652553 0.00718518998
  vertex -0.0217846818 -0.0218924135 0.00398976961
  endloop
 endfacet

 facet normal 0 -0.2248739 0.974387884
  outer loop
  vertex -0.0157649498 -0.00804652553 0.00718518998
  vertex -0.0217846818 -0.0218924135 0.00398976961
  vertex -0.0162664503 -0.0218924135 0.00398976961
  endloop
 endfacet

 facet normal 0.95422399 -0.0996448249 0.282005996
  outer loop
  vertex -0.0157649498 -0.00804652553 0.00718518998
  vertex -0.0162664503 -0.0218924135 0.00398976961
  vertex -0.0158332586 -0.017397685 0.0041121589
  endloop
 endfacet

 facet normal 0.999973297 -0.00730458368 0
  outer loop
  vertex -0.0157649498 -0.00804652553 0.00718518998
  vertex -0.0158332586 -0.017397685 0.0041121589
  vertex -0.0158332586 -0.017397685 -0.0063853683
  endloop
 endfacet

 facet normal 0.999973297 -0.00730458368 0
  outer loop
  vertex -0.0157649498 -0.00804652553 0.00718518998
  vertex -0.0158332586 -0.017397685 -0.0063853683
  vertex -0.0157649498 -0.00804652553 0.00329135335
  endloop
 endfacet

 facet normal 1 -0.000227100725 0
  outer loop
  vertex -0.0157649498 -0.00804652553 0.00718518998
  vertex -0.0157649498 -0.00804652553 0.00329135335
  vertex -0.0157640874 -0.00424143905 0.00329135335
  endloop
 endfacet

 facet normal 1 -0.000227100725 0
  outer loop
  vertex -0.0157649498 -0.00804652553 0.00718518998
  vertex -0.0157640874 -0.00424143905 0.00329135335
  vertex -0.0157640874 -0.00424143905 0.00718518998
  endloop
 endfacet

 facet normal 1 9.36886906e-08 -8.90105948e-05
  outer loop
  vertex -0.0157640874 0.0086061554 0.00329135335
  vertex -0.0157649498 0.0208750274 -0.00640399288
  vertex -0.0157649498 0.0221385676 -0.00640266296
  endloop
 endfacet

 facet normal 1 1.88603948e-07 -8.88781069e-05
  outer loop
  vertex -0.0157640874 0.0086061554 0.00329135335
  vertex -0.0157649498 0.0221385676 -0.00640266296
  vertex -0.0157649498 0.0227655154 -0.00640133256
  endloop
 endfacet

 facet normal 1 9.29096018e-07 -8.77963757e-05
  outer loop
  vertex -0.0157640874 0.0086061554 0.00329135335
  vertex -0.0157649498 0.0227655154 -0.00640133256
  vertex -0.0157649498 0.0265368428 -0.00636142259
  endloop
 endfacet

 facet normal 1 2.34901108e-06 -8.51587829e-05
  outer loop
  vertex -0.0157640874 0.0086061554 0.00329135335
  vertex -0.0157649498 0.0265368428 -0.00636142259
  vertex -0.0157649498 0.0268744305 -0.00635211077
  endloop
 endfacet

 facet normal 1 3.31887786e-05 -2.67368887e-05
  outer loop
  vertex -0.0157640874 0.0086061554 0.00329135335
  vertex -0.0157649498 0.0268744305 -0.00635211077
  vertex -0.0157649498 0.0271348543 -0.00602884358
  endloop
 endfacet

 facet normal 1 0 -8.91291565e-05
  outer loop
  vertex -0.0157640874 0.0086061554 0.00329135335
  vertex -0.0157640874 -0.00424143905 0.00329135335
  vertex -0.0157649498 -0.00803688075 -0.00640399288
  endloop
 endfacet

 facet normal 1 0 -8.91291565e-05
  outer loop
  vertex -0.0157640874 0.0086061554 0.00329135335
  vertex -0.0157649498 -0.00803688075 -0.00640399288
  vertex -0.0157649498 0.0208750274 -0.00640399288
  endloop
 endfacet

 facet normal -0.261210173 0.901119351 -0.346053839
  outer loop
  vertex -0.0226770062 0.0273759887 -0.00540093426
  vertex -0.0226770062 0.0271348543 -0.00602884358
  vertex -0.0231594834 0.0269949976 -0.00602884358
  endloop
 endfacet

 facet normal -0.384082407 0.890196323 -0.24501273
  outer loop
  vertex -0.0226770062 0.0273759887 -0.00540093426
  vertex -0.0231594834 0.0269949976 -0.00602884358
  vertex -0.023291776 0.0271107405 -0.00540093426
  endloop
 endfacet

 facet normal 0 0.778736949 -0.627350688
  outer loop
  vertex -0.0157649498 0.0271348543 -0.00602884358
  vertex -0.0157649498 0.0268744305 -0.00635211077
  vertex -0.0226770062 0.0268744305 -0.00635211077
  endloop
 endfacet

 facet normal 0 0.778736949 -0.627350688
  outer loop
  vertex -0.0157649498 0.0271348543 -0.00602884358
  vertex -0.0226770062 0.0268744305 -0.00635211077
  vertex -0.0226770062 0.0271348543 -0.00602884358
  endloop
 endfacet

 facet normal -0.853465497 0.450052589 -0.26277265
  outer loop
  vertex -0.023291776 0.0271107405 -0.00540093426
  vertex -0.0231594834 0.0269949976 -0.00602884358
  vertex -0.0235944055 0.0265368428 -0.00540093426
  endloop
 endfacet

 facet normal -0.912563324 0.408933342 0.00124537165
  outer loop
  vertex -0.0235944055 0.0265368428 0.00591872819
  vertex -0.023592677 0.0265368428 0.00718651991
  vertex -0.0235883538 0.0265464894 0.00718651991
  endloop
 endfacet

 facet normal -0.998679578 0.0513731018 0
  outer loop
  vertex -0.0235944055 0.0265368428 0.00591872819
  vertex -0.0235944055 0.0265368428 -0.00540093426
  vertex -0.0245974064 0.00703878701 0.00528948847
  endloop
 endfacet

 facet normal -0.998679578 0.0513731018 0
  outer loop
  vertex -0.0235944055 0.0265368428 0.00591872819
  vertex -0.0245974064 0.00703878701 0.00528948847
  vertex -0.0245974064 0.00703878701 0.00718651991
  endloop
 endfacet

 facet normal -0.998674035 0.0514614247 0.00136288663
  outer loop
  vertex -0.0235944055 0.0265368428 0.00591872819
  vertex -0.0245974064 0.00703878701 0.00718651991
  vertex -0.023592677 0.0265368428 0.00718651991
  endloop
 endfacet

 facet normal -9.91507259e-05 -0.000104358434 1
  outer loop
  vertex -0.0236298572 0.00472872751 0.00718651991
  vertex -0.024335416 0.00539907906 0.00718651991
  vertex -0.0235970002 -0.00804652553 0.00718518998
  endloop
 endfacet

 facet normal -0.64973402 -0.211333543 0.730194449
  outer loop
  vertex -0.0235970002 -0.00804652553 0.00718518998
  vertex -0.0245956779 -0.0155940056 0.0041121589
  vertex -0.024418423 -0.0161389671 0.0041121589
  endloop
 endfacet

 facet normal -0.52162838 -0.256096542 0.813829541
  outer loop
  vertex -0.0235970002 -0.00804652553 0.00718518998
  vertex -0.024418423 -0.0161389671 0.0041121589
  vertex -0.0217846818 -0.0218924135 0.00398976961
  endloop
 endfacet

 facet normal -0.000249333738 -0.000112606293 0.99999994
  outer loop
  vertex -0.0235970002 -0.00804652553 0.00718518998
  vertex -0.024335416 0.00539907906 0.00718651991
  vertex -0.0245074835 0.00578007009 0.00718651991
  endloop
 endfacet

 facet normal -0.0012576048 -0.000179000985 0.999999225
  outer loop
  vertex -0.0235970002 -0.00804652553 0.00718518998
  vertex -0.0245074835 0.00578007009 0.00718651991
  vertex -0.0245974064 0.00641183974 0.00718651991
  endloop
 endfacet

 facet normal -0.894480824 -0.0619317889 0.442796201
  outer loop
  vertex -0.0235970002 -0.00804652553 0.00718518998
  vertex -0.0245974064 0.00641183974 0.00718651991
  vertex -0.0245956779 -0.0155940056 0.0041121589
  endloop
 endfacet

 facet normal 0 -1 0
  outer loop
  vertex -0.0162664503 -0.0218924135 0.00398976961
  vertex -0.0217846818 -0.0218924135 0.00398976961
  vertex -0.0232969653 -0.0218924135 0.00109101005
  endloop
 endfacet

 facet normal 0 -1 0
  outer loop
  vertex -0.0162664503 -0.0218924135 0.00398976961
  vertex -0.0232969653 -0.0218924135 0.00109101005
  vertex -0.0233695954 -0.0218924135 0.000936693512
  endloop
 endfacet

 facet normal 0 -1 0
  outer loop
  vertex -0.0162664503 -0.0218924135 0.00398976961
  vertex -0.0233695954 -0.0218924135 0.000936693512
  vertex -0.0235944055 -0.0218924135 0.000258231768
  endloop
 endfacet

 facet normal 0 -1 0
  outer loop
  vertex -0.0162664503 -0.0218924135 0.00398976961
  vertex -0.0235944055 -0.0218924135 0.000258231768
  vertex -0.0235952698 -0.0218924135 -0.000371007831
  endloop
 endfacet

 facet normal 0 -1 0
  outer loop
  vertex -0.0162664503 -0.0218924135 0.00398976961
  vertex -0.0235952698 -0.0218924135 -0.000371007831
  vertex -0.0235952698 -0.0218924135 -0.00539960386
  endloop
 endfacet

 facet normal 0 -1 0
  outer loop
  vertex -0.0162664503 -0.0218924135 0.00398976961
  vertex -0.0235952698 -0.0218924135 -0.00539960386
  vertex -0.0233272277 -0.0218924135 -0.00602751365
  endloop
 endfacet

 facet normal 0 -1 0
  outer loop
  vertex -0.0162664503 -0.0218924135 0.00398976961
  vertex -0.0233272277 -0.0218924135 -0.00602751365
  vertex -0.0230245981 -0.0218924135 -0.00635211077
  endloop
 endfacet

 facet normal 0 -1 0
  outer loop
  vertex -0.0162664503 -0.0218924135 0.00398976961
  vertex -0.0230245981 -0.0218924135 -0.00635211077
  vertex -0.0226770062 -0.0218924135 -0.00636142259
  endloop
 endfacet

 facet normal 0 -1 0
  outer loop
  vertex -0.0162664503 -0.0218924135 0.00398976961
  vertex -0.0226770062 -0.0218924135 -0.00636142259
  vertex -0.0163909607 -0.0218924135 -0.00636142259
  endloop
 endfacet

 facet normal 0 -1 0
  outer loop
  vertex -0.0162664503 -0.0218924135 0.00398976961
  vertex -0.0163909607 -0.0218924135 -0.00636142259
  vertex -0.0162664503 -0.0218924135 -0.00562974857
  endloop
 endfacet

 facet normal 0.995387793 -0.0959332436 0
  outer loop
  vertex -0.0162664503 -0.0218924135 0.00398976961
  vertex -0.0162664503 -0.0218924135 -0.00562974857
  vertex -0.0158332586 -0.017397685 -0.0063853683
  endloop
 endfacet

 facet normal 0.995387793 -0.0959332436 0
  outer loop
  vertex -0.0162664503 -0.0218924135 0.00398976961
  vertex -0.0158332586 -0.017397685 -0.0063853683
  vertex -0.0158332586 -0.017397685 0.0041121589
  endloop
 endfacet

 facet normal 1 -0.000227100725 -2.25925348e-07
  outer loop
  vertex -0.0157649498 -0.00804652553 0.00329135335
  vertex -0.0157649498 -0.00803688075 -0.00640399288
  vertex -0.0157640874 -0.00424143905 0.00329135335
  endloop
 endfacet

 facet normal 0.999973297 -0.0072970707 -7.25930477e-06
  outer loop
  vertex -0.0157649498 -0.00804652553 0.00329135335
  vertex -0.0158332586 -0.017397685 -0.0063853683
  vertex -0.0157649498 -0.00803688075 -0.00640399288
  endloop
 endfacet

 facet normal -0.00580397295 0.000433065172 -0.999983013
  outer loop
  vertex -0.0157649498 0.0208750274 -0.00640399288
  vertex -0.0226770062 0.0234648027 -0.00636275299
  vertex -0.0226770062 0.0265368428 -0.00636142259
  endloop
 endfacet

 facet normal -0.00529656187 0.00105254143 -0.999985516
  outer loop
  vertex -0.0157649498 0.0208750274 -0.00640399288
  vertex -0.0226770062 0.0265368428 -0.00636142259
  vertex -0.0157649498 0.0221385676 -0.00640266296
  endloop
 endfacet

 facet normal -0.00596622657 0 -0.999982238
  outer loop
  vertex -0.0157649498 0.0208750274 -0.00640399288
  vertex -0.0157649498 -0.00803688075 -0.00640399288
  vertex -0.0226770062 0.0086061554 -0.00636275299
  endloop
 endfacet

 facet normal -0.00596622657 0 -0.999982238
  outer loop
  vertex -0.0157649498 0.0208750274 -0.00640399288
  vertex -0.0226770062 0.0086061554 -0.00636275299
  vertex -0.0226770062 0.0234648027 -0.00636275299
  endloop
 endfacet

 facet normal -0.00461603841 0.00212202454 -0.999987066
  outer loop
  vertex -0.0157649498 0.0221385676 -0.00640266296
  vertex -0.0226770062 0.0265368428 -0.00636142259
  vertex -0.0157649498 0.0227655154 -0.00640133256
  endloop
 endfacet

 facet normal 0 0.0105818035 -0.999943972
  outer loop
  vertex -0.0157649498 0.0227655154 -0.00640133256
  vertex -0.0226770062 0.0265368428 -0.00636142259
  vertex -0.0157649498 0.0265368428 -0.00636142259
  endloop
 endfacet

 facet normal 0 0.0275734123 -0.999619842
  outer loop
  vertex -0.0157649498 0.0265368428 -0.00636142259
  vertex -0.0226770062 0.0265368428 -0.00636142259
  vertex -0.0226770062 0.0268744305 -0.00635211077
  endloop
 endfacet

 facet normal 0 0.0275734123 -0.999619842
  outer loop
  vertex -0.0157649498 0.0265368428 -0.00636142259
  vertex -0.0226770062 0.0268744305 -0.00635211077
  vertex -0.0157649498 0.0268744305 -0.00635211077
  endloop
 endfacet

 facet normal -0.0160860047 0.778636217 -0.627269506
  outer loop
  vertex -0.0226770062 0.0271348543 -0.00602884358
  vertex -0.0226770062 0.0268744305 -0.00635211077
  vertex -0.0230142232 0.0268696062 -0.00634944998
  endloop
 endfacet

 facet normal -0.248841509 0.858450055 -0.448487878
  outer loop
  vertex -0.0226770062 0.0271348543 -0.00602884358
  vertex -0.0230142232 0.0268696062 -0.00634944998
  vertex -0.0231594834 0.0269949976 -0.00602884358
  endloop
 endfacet

 facet normal -0.819965184 0.298663795 -0.488320649
  outer loop
  vertex -0.0231594834 0.0269949976 -0.00602884358
  vertex -0.0230142232 0.0268696062 -0.00634944998
  vertex -0.0233263616 0.0265368428 -0.00602884358
  endloop
 endfacet

 facet normal -0.872074723 0.317644209 -0.37227416
  outer loop
  vertex -0.0231594834 0.0269949976 -0.00602884358
  vertex -0.0233263616 0.0265368428 -0.00602884358
  vertex -0.0235944055 0.0265368428 -0.00540093426
  endloop
 endfacet

 facet normal -0.998939514 0.041933056 -0.0190116689
  outer loop
  vertex -0.0235944055 0.0265368428 -0.00540093426
  vertex -0.0245974064 0.00578007009 0.00151804183
  vertex -0.0245948117 0.00641183974 0.00277519063
  endloop
 endfacet

 facet normal -0.998927832 0.0445652567 -0.0125312451
  outer loop
  vertex -0.0235944055 0.0265368428 -0.00540093426
  vertex -0.0245948117 0.00641183974 0.00277519063
  vertex -0.0245904885 0.00703878701 0.00466024922
  endloop
 endfacet

 facet normal -0.998910248 0.0453646034 -0.0109804198
  outer loop
  vertex -0.0235944055 0.0265368428 -0.00540093426
  vertex -0.0245904885 0.00703878701 0.00466024922
  vertex -0.0245974064 0.00703878701 0.00528948847
  endloop
 endfacet

 facet normal -0.919492722 0.0215433817 -0.392516166
  outer loop
  vertex -0.0235944055 0.0265368428 -0.00540093426
  vertex -0.0233263616 0.0265368428 -0.00602884358
  vertex -0.0243855659 -0.00364342798 -0.00520404754
  endloop
 endfacet

 facet normal -0.928016603 0.0219013598 -0.371894538
  outer loop
  vertex -0.0235944055 0.0265368428 -0.00540093426
  vertex -0.0243855659 -0.00364342798 -0.00520404754
  vertex -0.0245593619 -0.00364342798 -0.00477036415
  endloop
 endfacet

 facet normal -0.985667706 0.028039135 -0.166352004
  outer loop
  vertex -0.0235944055 0.0265368428 -0.00540093426
  vertex -0.0245593619 -0.00364342798 -0.00477036415
  vertex -0.0245939456 -0.00112599402 -0.00414112443
  endloop
 endfacet

 facet normal -0.997110248 0.0329102837 -0.0684701353
  outer loop
  vertex -0.0235944055 0.0265368428 -0.00540093426
  vertex -0.0245939456 -0.00112599402 -0.00414112443
  vertex -0.0245956779 0.000127900363 -0.00351321534
  endloop
 endfacet

 facet normal -0.997251928 0.0330711417 -0.0662949309
  outer loop
  vertex -0.0235944055 0.0265368428 -0.00540093426
  vertex -0.0245956779 0.000127900363 -0.00351321534
  vertex -0.0245956779 0.00138661731 -0.00288530579
  endloop
 endfacet

 facet normal -0.997968078 0.0343638435 -0.0536560789
  outer loop
  vertex -0.0235944055 0.0265368428 -0.00540093426
  vertex -0.0245956779 0.00138661731 -0.00288530579
  vertex -0.0245861672 0.00264533423 -0.00225606631
  endloop
 endfacet

 facet normal -0.998169661 0.0349374153 -0.049362205
  outer loop
  vertex -0.0235944055 0.0265368428 -0.00540093426
  vertex -0.0245861672 0.00264533423 -0.00225606631
  vertex -0.0245956779 0.00326263602 -0.00162682636
  endloop
 endfacet

 facet normal -0.998628557 0.036946401 -0.037094947
  outer loop
  vertex -0.0235944055 0.0265368428 -0.00540093426
  vertex -0.0245956779 0.00326263602 -0.00162682636
  vertex -0.0245956779 0.00389440567 -0.000997586641
  endloop
 endfacet

 facet normal -0.998630047 0.0369564258 -0.0370437168
  outer loop
  vertex -0.0235944055 0.0265368428 -0.00540093426
  vertex -0.0245956779 0.00389440567 -0.000997586641
  vertex -0.0245956779 0.00418376597 -0.00070890825
  endloop
 endfacet

 facet normal -0.998630762 0.0369618647 -0.0370179489
  outer loop
  vertex -0.0235944055 0.0265368428 -0.00540093426
  vertex -0.0245956779 0.00418376597 -0.00070890825
  vertex -0.0245956779 0.00452617602 -0.000367017055
  endloop
 endfacet

 facet normal -0.998863578 0.039257057 -0.0270286016
  outer loop
  vertex -0.0235944055 0.0265368428 -0.00540093426
  vertex -0.0245956779 0.00452617602 -0.000367017055
  vertex -0.0245974064 0.00578007009 0.00151804183
  endloop
 endfacet

 facet normal -1 0 0
  outer loop
  vertex -0.0245974064 0.00703878701 0.00718651991
  vertex -0.0245974064 0.00703878701 0.00528948847
  vertex -0.0245974064 0.00578007009 0.00151804183
  endloop
 endfacet

 facet normal -1 0 0
  outer loop
  vertex -0.0245974064 0.00703878701 0.00718651991
  vertex -0.0245974064 0.00578007009 0.00151804183
  vertex -0.0245974064 0.00389440567 -0.000707577856
  endloop
 endfacet

 facet normal -1 0 0
  outer loop
  vertex -0.0245974064 0.00703878701 0.00718651991
  vertex -0.0245974064 0.00389440567 -0.000707577856
  vertex -0.0245974064 0.00292504905 -0.000707577856
  endloop
 endfacet

 facet normal -1 0 0
  outer loop
  vertex -0.0245974064 0.00703878701 0.00718651991
  vertex -0.0245974064 0.00292504905 -0.000707577856
  vertex -0.0245974064 0.00641183974 0.00718651991
  endloop
 endfacet

 facet normal -1 -9.33241972e-05 0
  outer loop
  vertex -0.0245956779 -0.0155940056 0.0041121589
  vertex -0.0245974064 0.00292504905 -0.000707577856
  vertex -0.0245956779 -0.0155940056 0.00403100951
  endloop
 endfacet

 facet normal -0.987619519 -0.156868532 0
  outer loop
  vertex -0.0245956779 -0.0155940056 0.0041121589
  vertex -0.0245956779 -0.0155940056 0.00403100951
  vertex -0.0235952698 -0.0218924135 -0.00539960386
  endloop
 endfacet

 facet normal -0.987619519 -0.156868532 0
  outer loop
  vertex -0.0245956779 -0.0155940056 0.0041121589
  vertex -0.0235952698 -0.0218924135 -0.00539960386
  vertex -0.0235952698 -0.0218924135 -0.000371007831
  endloop
 endfacet

 facet normal -0.98746866 -0.157809839 0.00135609589
  outer loop
  vertex -0.0245956779 -0.0155940056 0.0041121589
  vertex -0.0235952698 -0.0218924135 -0.000371007831
  vertex -0.0235944055 -0.0218924135 0.000258231768
  endloop
 endfacet

 facet normal -0.920710921 -0.299471915 0.250216007
  outer loop
  vertex -0.0245956779 -0.0155940056 0.0041121589
  vertex -0.0235944055 -0.0218924135 0.000258231768
  vertex -0.024418423 -0.0161389671 0.0041121589
  endloop
 endfacet

 facet normal -1 -8.37022089e-05 3.69709232e-05
  outer loop
  vertex -0.0245956779 -0.0155940056 0.0041121589
  vertex -0.0245974064 0.00641183974 0.00718651991
  vertex -0.0245974064 0.00292504905 -0.000707577856
  endloop
 endfacet

 facet normal -0.896888137 -0.32752347 0.297187239
  outer loop
  vertex -0.024418423 -0.0161389671 0.0041121589
  vertex -0.0235944055 -0.0218924135 0.000258231768
  vertex -0.0233695954 -0.0218924135 0.000936693512
  endloop
 endfacet

 facet normal -0.840086401 -0.371372223 0.395395398
  outer loop
  vertex -0.024418423 -0.0161389671 0.0041121589
  vertex -0.0233695954 -0.0218924135 0.000936693512
  vertex -0.0232969653 -0.0218924135 0.00109101005
  endloop
 endfacet

 facet normal -0.81868118 -0.383851171 0.427105874
  outer loop
  vertex -0.024418423 -0.0161389671 0.0041121589
  vertex -0.0232969653 -0.0218924135 0.00109101005
  vertex -0.0217846818 -0.0218924135 0.00398976961
  endloop
 endfacet

 facet normal 0.0772338808 -0.996926427 -0.0131430849
  outer loop
  vertex -0.0162664503 -0.0218924135 -0.00562974857
  vertex -0.0163909607 -0.0218924135 -0.00636142259
  vertex -0.0162664503 -0.0218827669 -0.00636142259
  endloop
 endfacet

 facet normal 0.995366573 -0.0961442813 -0.00126752839
  outer loop
  vertex -0.0162664503 -0.0218924135 -0.00562974857
  vertex -0.0162664503 -0.0218827669 -0.00636142259
  vertex -0.0158332586 -0.017397685 -0.0063853683
  endloop
 endfacet

 facet normal 0.193670541 -0.0239419807 -0.980774403
  outer loop
  vertex -0.0158332586 -0.017397685 -0.0063853683
  vertex -0.0162664503 -0.0218827669 -0.00636142259
  vertex -0.0158332586 -0.0168527234 -0.00639867131
  endloop
 endfacet

 facet normal 0.950879574 -0.00755453203 -0.309468597
  outer loop
  vertex -0.0158332586 -0.017397685 -0.0063853683
  vertex -0.0158332586 -0.0168527234 -0.00639867131
  vertex -0.0157649498 -0.00803688075 -0.00640399288
  endloop
 endfacet

 facet normal -0.0050268909 -0.00056463707 -0.999987245
  outer loop
  vertex -0.0157649498 -0.00803688075 -0.00640399288
  vertex -0.0158332586 -0.0168527234 -0.00639867131
  vertex -0.0226770062 -0.0218924135 -0.00636142259
  endloop
 endfacet

 facet normal -0.00607125601 -4.36214541e-05 -0.999981582
  outer loop
  vertex -0.0157649498 -0.00803688075 -0.00640399288
  vertex -0.0226770062 -0.0218924135 -0.00636142259
  vertex -0.0226770062 0.0086061554 -0.00636275299
  endloop
 endfacet

 facet normal -0.0267153718 0 -0.999643087
  outer loop
  vertex -0.0226770062 0.0234648027 -0.00636275299
  vertex -0.0226770062 0.0086061554 -0.00636275299
  vertex -0.0230254624 0.0086061554 -0.00635344069
  endloop
 endfacet

 facet normal -0.0267153718 0 -0.999643087
  outer loop
  vertex -0.0226770062 0.0234648027 -0.00636275299
  vertex -0.0230254624 0.0086061554 -0.00635344069
  vertex -0.0230254624 0.0125848586 -0.00635344069
  endloop
 endfacet

 facet normal -0.0267817415 2.12713576e-06 -0.999641359
  outer loop
  vertex -0.0226770062 0.0234648027 -0.00636275299
  vertex -0.0230254624 0.0125848586 -0.00635344069
  vertex -0.0230245981 0.0234648027 -0.00635344069
  endloop
 endfacet

 facet normal -0.0267817341 0.000425231148 -0.99964118
  outer loop
  vertex -0.0226770062 0.0234648027 -0.00636275299
  vertex -0.0230245981 0.0234648027 -0.00635344069
  vertex -0.0230254624 0.0265368428 -0.00635211077
  endloop
 endfacet

 facet normal -0.0267140232 0.000432917936 -0.999643028
  outer loop
  vertex -0.0226770062 0.0234648027 -0.00636275299
  vertex -0.0230254624 0.0265368428 -0.00635211077
  vertex -0.0226770062 0.0265368428 -0.00636142259
  endloop
 endfacet

 facet normal -0.0267129689 0.00889523141 -0.999603629
  outer loop
  vertex -0.0226770062 0.0265368428 -0.00636142259
  vertex -0.0230254624 0.0265368428 -0.00635211077
  vertex -0.0230142232 0.0268696062 -0.00634944998
  endloop
 endfacet

 facet normal -0.00828166865 0.0275724661 -0.999585509
  outer loop
  vertex -0.0226770062 0.0265368428 -0.00636142259
  vertex -0.0230142232 0.0268696062 -0.00634944998
  vertex -0.0226770062 0.0268744305 -0.00635211077
  endloop
 endfacet

 facet normal -0.731643498 0.0301574543 -0.681020081
  outer loop
  vertex -0.0230142232 0.0268696062 -0.00634944998
  vertex -0.0230254624 0.0265368428 -0.00635211077
  vertex -0.0233263616 0.0265368428 -0.00602884358
  endloop
 endfacet

 facet normal -0.731957197 0.00726500945 -0.681312025
  outer loop
  vertex -0.0233263616 0.0265368428 -0.00602884358
  vertex -0.0230254624 0.0265368428 -0.00635211077
  vertex -0.0243924838 -0.00427519763 -0.00521202898
  endloop
 endfacet

 facet normal -0.855774581 0.0159022622 -0.517104506
  outer loop
  vertex -0.0233263616 0.0265368428 -0.00602884358
  vertex -0.0243924838 -0.00427519763 -0.00521202898
  vertex -0.0243855659 -0.00364342798 -0.00520404754
  endloop
 endfacet

 facet normal -0.999916971 0.0122248065 -0.00408001756
  outer loop
  vertex -0.0245974064 0.00578007009 0.00151804183
  vertex -0.0245974064 0.00703878701 0.00528948847
  vertex -0.0245948117 0.00641183974 0.00277519063
  endloop
 endfacet

 facet normal -0.999978244 0.00503523741 -0.00426612329
  outer loop
  vertex -0.0245974064 0.00578007009 0.00151804183
  vertex -0.0245956779 0.00452617602 -0.000367017055
  vertex -0.0245974064 0.00389440567 -0.000707577856
  endloop
 endfacet

 facet normal -0.999142945 0.0399115272 -0.0109829791
  outer loop
  vertex -0.0245948117 0.00641183974 0.00277519063
  vertex -0.0245974064 0.00703878701 0.00528948847
  vertex -0.0245904885 0.00703878701 0.00466024922
  endloop
 endfacet

 facet normal -0.928136766 0.01486059 -0.371942729
  outer loop
  vertex -0.0243855659 -0.00364342798 -0.00520404754
  vertex -0.0243924838 -0.00427519763 -0.00521202898
  vertex -0.0245593619 -0.00364342798 -0.00477036415
  endloop
 endfacet

 facet normal -0.929864347 0.0114551391 -0.36772424
  outer loop
  vertex -0.0245593619 -0.00364342798 -0.00477036415
  vertex -0.0243924838 -0.00427519763 -0.00521202898
  vertex -0.024567144 -0.00427519763 -0.00477036415
  endloop
 endfacet

 facet normal -0.994535387 0.0122518297 -0.103678234
  outer loop
  vertex -0.0245593619 -0.00364342798 -0.00477036415
  vertex -0.024567144 -0.00427519763 -0.00477036415
  vertex -0.0245939456 -0.00112599402 -0.00414112443
  endloop
 endfacet

 facet normal -0.998414397 0.00273719779 -0.0562248453
  outer loop
  vertex -0.0245939456 -0.00112599402 -0.00414112443
  vertex -0.024567144 -0.00427519763 -0.00477036415
  vertex -0.0245956779 -0.00175776379 -0.00414112443
  endloop
 endfacet

 facet normal -0.99996233 0.00274144183 -0.00823277794
  outer loop
  vertex -0.0245939456 -0.00112599402 -0.00414112443
  vertex -0.0245956779 -0.00175776379 -0.00414112443
  vertex -0.0245956779 0.000127900363 -0.00351321534
  endloop
 endfacet

 facet normal -0.999999285 0.000370949507 -0.00111399218
  outer loop
  vertex -0.0245956779 0.000127900363 -0.00351321534
  vertex -0.0245956779 -0.00175776379 -0.00414112443
  vertex -0.0245974064 0.00389440567 -0.000707577856
  endloop
 endfacet

 facet normal -0.999997795 0.000930319307 -0.00186493271
  outer loop
  vertex -0.0245956779 0.000127900363 -0.00351321534
  vertex -0.0245974064 0.00389440567 -0.000707577856
  vertex -0.0245956779 0.00138661731 -0.00288530579
  endloop
 endfacet

 facet normal -0.999991119 0.00234005158 -0.00348832132
  outer loop
  vertex -0.0245956779 0.00138661731 -0.00288530579
  vertex -0.0245974064 0.00389440567 -0.000707577856
  vertex -0.0245956779 0.00326263602 -0.00162682636
  endloop
 endfacet

 facet normal -0.998585939 0.0296148024 -0.0441468693
  outer loop
  vertex -0.0245956779 0.00138661731 -0.00288530579
  vertex -0.0245956779 0.00326263602 -0.00162682636
  vertex -0.0245861672 0.00264533423 -0.00225606631
  endloop
 endfacet

 facet normal -0.999964654 0.0059353197 -0.00595918205
  outer loop
  vertex -0.0245956779 0.00326263602 -0.00162682636
  vertex -0.0245974064 0.00389440567 -0.000707577856
  vertex -0.0245956779 0.00389440567 -0.000997586641
  endloop
 endfacet

 facet normal -0.999964595 0.00594514003 -0.00595918205
  outer loop
  vertex -0.0245956779 0.00389440567 -0.000997586641
  vertex -0.0245974064 0.00389440567 -0.000707577856
  vertex -0.0245956779 0.00418376597 -0.00070890825
  endloop
 endfacet

 facet normal -0.999964595 0.00594516285 -0.00595418364
  outer loop
  vertex -0.0245956779 0.00418376597 -0.00070890825
  vertex -0.0245974064 0.00389440567 -0.000707577856
  vertex -0.0245956779 0.00452617602 -0.000367017055
  endloop
 endfacet

 facet normal -0.99999994 0 -0.000503350049
  outer loop
  vertex -0.0245974064 0.00292504905 -0.000707577856
  vertex -0.0245974064 0.00389440567 -0.000707577856
  vertex -0.0245956779 -0.00175776379 -0.00414112443
  endloop
 endfacet

 facet normal -0.99999994 0 -0.000503350049
  outer loop
  vertex -0.0245974064 0.00292504905 -0.000707577856
  vertex -0.0245956779 -0.00175776379 -0.00414112443
  vertex -0.0245956779 -0.00741957873 -0.00414112443
  endloop
 endfacet

 facet normal -1 -0.000100428115 -0.000200779104
  outer loop
  vertex -0.0245974064 0.00292504905 -0.000707577856
  vertex -0.0245956779 -0.00741957873 -0.00414112443
  vertex -0.0245956779 -0.011190908 -0.00225473591
  endloop
 endfacet

 facet normal -1 -0.000110285138 -0.000110845715
  outer loop
  vertex -0.0245974064 0.00292504905 -0.000707577856
  vertex -0.0245956779 -0.011190908 -0.00225473591
  vertex -0.0245956779 -0.0124544473 -0.000997586641
  endloop
 endfacet

 facet normal -1 -0.000110298643 -0.000110129557
  outer loop
  vertex -0.0245974064 0.00292504905 -0.000707577856
  vertex -0.0245956779 -0.0124544473 -0.000997586641
  vertex -0.0245956779 -0.01370834 0.000258231768
  endloop
 endfacet

 facet normal -1 -0.00010700956 -5.34842547e-05
  outer loop
  vertex -0.0245974064 0.00292504905 -0.000707577856
  vertex -0.0245956779 -0.01370834 0.000258231768
  vertex -0.0245956779 -0.0155940056 0.00403100951
  endloop
 endfacet

 facet normal -0.999438822 -0.0299664848 -0.0149774952
  outer loop
  vertex -0.0245956779 -0.0155940056 0.00403100951
  vertex -0.0245956779 -0.01370834 0.000258231768
  vertex -0.0245861672 -0.0149670579 0.00214195973
  endloop
 endfacet

 facet normal -0.994199038 -0.100484565 -0.0383550338
  outer loop
  vertex -0.0245956779 -0.0155940056 0.00403100951
  vertex -0.0245861672 -0.0149670579 0.00214195973
  vertex -0.0235952698 -0.0218924135 -0.00539960386
  endloop
 endfacet

 facet normal 0 -0.00739089679 -0.999972701
  outer loop
  vertex -0.0163909607 -0.0218924135 -0.00636142259
  vertex -0.0226770062 -0.0218924135 -0.00636142259
  vertex -0.0158332586 -0.0168527234 -0.00639867131
  endloop
 endfacet

 facet normal 0.000577538507 -0.00745480321 -0.999972045
  outer loop
  vertex -0.0163909607 -0.0218924135 -0.00636142259
  vertex -0.0158332586 -0.0168527234 -0.00639867131
  vertex -0.0162664503 -0.0218827669 -0.00636142259
  endloop
 endfacet

 facet normal -0.026780393 -4.43500394e-05 -0.999641359
  outer loop
  vertex -0.0226770062 -0.0218924135 -0.00636142259
  vertex -0.0230245981 -0.0218924135 -0.00635211077
  vertex -0.0230254624 0.0086061554 -0.00635344069
  endloop
 endfacet

 facet normal -0.0267153718 -4.36066875e-05 -0.999643087
  outer loop
  vertex -0.0226770062 -0.0218924135 -0.00636142259
  vertex -0.0230254624 0.0086061554 -0.00635344069
  vertex -0.0226770062 0.0086061554 -0.00636275299
  endloop
 endfacet

 facet normal -0.608676314 0 -0.793418646
  outer loop
  vertex -0.0230254624 0.0125848586 -0.00635344069
  vertex -0.0230254624 0.0086061554 -0.00635344069
  vertex -0.0233393312 -0.00427519763 -0.00611265376
  endloop
 endfacet

 facet normal -0.61031425 4.84741176e-05 -0.792159438
  outer loop
  vertex -0.0230254624 0.0125848586 -0.00635344069
  vertex -0.0233393312 -0.00427519763 -0.00611265376
  vertex -0.0230245981 0.0234648027 -0.00635344069
  endloop
 endfacet

 facet normal -0.616877496 0.00016721143 -0.787059188
  outer loop
  vertex -0.0230245981 0.0234648027 -0.00635344069
  vertex -0.0233393312 -0.00427519763 -0.00611265376
  vertex -0.0230254624 0.0265368428 -0.00635211077
  endloop
 endfacet

 facet normal -0.649926662 0.000714187976 -0.759996593
  outer loop
  vertex -0.0230254624 0.0265368428 -0.00635211077
  vertex -0.0233393312 -0.00427519763 -0.00611265376
  vertex -0.0243924838 -0.00427519763 -0.00521202898
  endloop
 endfacet

 facet normal -0.649926364 -0.0012809746 -0.759996176
  outer loop
  vertex -0.0243924838 -0.00427519763 -0.00521202898
  vertex -0.0233393312 -0.00427519763 -0.00611265376
  vertex -0.0230245981 -0.0218924135 -0.00635211077
  endloop
 endfacet

 facet normal -0.695118368 -0.0074522025 -0.718856692
  outer loop
  vertex -0.0243924838 -0.00427519763 -0.00521202898
  vertex -0.0230245981 -0.0218924135 -0.00635211077
  vertex -0.0243898891 -0.00490214489 -0.00520803826
  endloop
 endfacet

 facet normal -0.92990756 -0.00618875679 -0.367741287
  outer loop
  vertex -0.0243924838 -0.00427519763 -0.00521202898
  vertex -0.0243898891 -0.00490214489 -0.00520803826
  vertex -0.024567144 -0.00427519763 -0.00477036415
  endloop
 endfacet

 facet normal -0.930634737 -0.00770187844 -0.36586833
  outer loop
  vertex -0.024567144 -0.00427519763 -0.00477036415
  vertex -0.0243898891 -0.00490214489 -0.00520803826
  vertex -0.0245619565 -0.00490214489 -0.00477036415
  endloop
 endfacet

 facet normal -0.996228635 -0.00824472867 -0.0863747001
  outer loop
  vertex -0.024567144 -0.00427519763 -0.00477036415
  vertex -0.0245619565 -0.00490214489 -0.00477036415
  vertex -0.0245956779 -0.00741957873 -0.00414112443
  endloop
 endfacet

 facet normal -0.998973548 0 -0.0452993363
  outer loop
  vertex -0.024567144 -0.00427519763 -0.00477036415
  vertex -0.0245956779 -0.00741957873 -0.00414112443
  vertex -0.0245956779 -0.00175776379 -0.00414112443
  endloop
 endfacet

 facet normal -0.994878352 -0.0340406373 -0.0951764137
  outer loop
  vertex -0.0245956779 -0.00741957873 -0.00414112443
  vertex -0.0245740619 -0.00805134885 -0.00414112443
  vertex -0.0245913547 -0.00930524338 -0.00351188472
  endloop
 endfacet

 facet normal -0.999881625 -0.00688588945 -0.0137664899
  outer loop
  vertex -0.0245956779 -0.00741957873 -0.00414112443
  vertex -0.0245913547 -0.00930524338 -0.00351188472
  vertex -0.0245956779 -0.011190908 -0.00225473591
  endloop
 endfacet

 facet normal -0.984594345 -0.0298736803 -0.172283381
  outer loop
  vertex -0.0245956779 -0.00741957873 -0.00414112443
  vertex -0.0245619565 -0.00490214489 -0.00477036415
  vertex -0.0245429333 -0.00552909262 -0.00477036415
  endloop
 endfacet

 facet normal -0.982472956 -0.0336161777 -0.18334949
  outer loop
  vertex -0.0245956779 -0.00741957873 -0.00414112443
  vertex -0.0245429333 -0.00552909262 -0.00477036415
  vertex -0.0245740619 -0.00805134885 -0.00414112443
  endloop
 endfacet

 facet normal -0.997176588 -0.0400588177 -0.0635150224
  outer loop
  vertex -0.0245956779 -0.011190908 -0.00225473591
  vertex -0.0245913547 -0.00930524338 -0.00351188472
  vertex -0.0245809779 -0.010559137 -0.00288397563
  endloop
 endfacet

 facet normal -0.993726492 -0.0664639324 -0.0899457037
  outer loop
  vertex -0.0245956779 -0.011190908 -0.00225473591
  vertex -0.0245809779 -0.010559137 -0.00288397563
  vertex -0.0235952698 -0.0218924135 -0.00539960386
  endloop
 endfacet

 facet normal -0.994806051 -0.0717923567 -0.0721572787
  outer loop
  vertex -0.0245956779 -0.011190908 -0.00225473591
  vertex -0.0235952698 -0.0218924135 -0.00539960386
  vertex -0.0245956779 -0.0124544473 -0.000997586641
  endloop
 endfacet

 facet normal -0.994818568 -0.0719444081 -0.0718341172
  outer loop
  vertex -0.0245956779 -0.0124544473 -0.000997586641
  vertex -0.0235952698 -0.0218924135 -0.00539960386
  vertex -0.0245956779 -0.01370834 0.000258231768
  endloop
 endfacet

 facet normal -0.995148122 -0.0840532333 -0.0511402115
  outer loop
  vertex -0.0245956779 -0.01370834 0.000258231768
  vertex -0.0245749243 -0.0143352887 0.000884810986
  vertex -0.0245861672 -0.0149670579 0.00214195973
  endloop
 endfacet

 facet normal -0.994968414 -0.0853604972 -0.0524542145
  outer loop
  vertex -0.0245956779 -0.01370834 0.000258231768
  vertex -0.0235952698 -0.0218924135 -0.00539960386
  vertex -0.0245749243 -0.0143352887 0.000884810986
  endloop
 endfacet

 facet normal -0.994959593 -0.0857460275 -0.051989235
  outer loop
  vertex -0.0245861672 -0.0149670579 0.00214195973
  vertex -0.0245749243 -0.0143352887 0.000884810986
  vertex -0.0235952698 -0.0218924135 -0.00539960386
  endloop
 endfacet

 facet normal -0.992191732 -0.0623141266 -0.108039819
  outer loop
  vertex -0.0235952698 -0.0218924135 -0.00539960386
  vertex -0.0245809779 -0.010559137 -0.00288397563
  vertex -0.0245913547 -0.00930524338 -0.00351188472
  endloop
 endfacet

 facet normal -0.988375127 -0.057082098 -0.140912682
  outer loop
  vertex -0.0235952698 -0.0218924135 -0.00539960386
  vertex -0.0245913547 -0.00930524338 -0.00351188472
  vertex -0.0245740619 -0.00805134885 -0.00414112443
  endloop
 endfacet

 facet normal -0.970420301 -0.0470954441 -0.236783847
  outer loop
  vertex -0.0235952698 -0.0218924135 -0.00539960386
  vertex -0.0245740619 -0.00805134885 -0.00414112443
  vertex -0.0245429333 -0.00552909262 -0.00477036415
  endloop
 endfacet

 facet normal -0.924533606 -0.0389651805 -0.379103273
  outer loop
  vertex -0.0235952698 -0.0218924135 -0.00539960386
  vertex -0.0245429333 -0.00552909262 -0.00477036415
  vertex -0.0243898891 -0.00490214489 -0.00520803826
  endloop
 endfacet

 facet normal -0.919023395 -0.0385585353 -0.392312735
  outer loop
  vertex -0.0235952698 -0.0218924135 -0.00539960386
  vertex -0.0243898891 -0.00490214489 -0.00520803826
  vertex -0.0233272277 -0.0218924135 -0.00602751365
  endloop
 endfacet

 facet normal -0.731362581 -0.0128554162 -0.681867719
  outer loop
  vertex -0.0230245981 -0.0218924135 -0.00635211077
  vertex -0.0233272277 -0.0218924135 -0.00602751365
  vertex -0.0243898891 -0.00490214489 -0.00520803826
  endloop
 endfacet

 facet normal -0.607335925 -5.18513698e-05 -0.794445217
  outer loop
  vertex -0.0230245981 -0.0218924135 -0.00635211077
  vertex -0.0233393312 -0.00427519763 -0.00611265376
  vertex -0.0230254624 0.0086061554 -0.00635344069
  endloop
 endfacet

 facet normal -0.930291593 -0.0282260757 -0.365733415
  outer loop
  vertex -0.0243898891 -0.00490214489 -0.00520803826
  vertex -0.0245429333 -0.00552909262 -0.00477036415
  vertex -0.0245619565 -0.00490214489 -0.00477036415
  endloop
 endfacet

endsolid AssimpScene
