solid AssimpScene
 facet normal -1 0 0
  outer loop
  vertex -0.109188065 0.00420592306 -0.00704000005
  vertex -0.109188065 0.00420592306 -0.00304031302
  vertex -0.109188065 0.00690178806 -0.00303050107
  endloop
 endfacet

 facet normal -1 0 0
  outer loop
  vertex -0.109188065 0.00420592306 -0.00704000005
  vertex -0.109188065 0.00690178806 -0.00303050107
  vertex -0.109188065 0.019898735 -0.00303050107
  endloop
 endfacet

 facet normal -1 0 0
  outer loop
  vertex -0.109188065 0.00420592306 -0.00704000005
  vertex -0.109188065 0.019898735 -0.00303050107
  vertex -0.109188065 0.023781091 -0.00304031302
  endloop
 endfacet

 facet normal -1 0 0
  outer loop
  vertex -0.109188065 0.00420592306 -0.00704000005
  vertex -0.109188065 0.023781091 -0.00304031302
  vertex -0.109188065 0.023781091 -0.00704000005
  endloop
 endfacet

 facet normal 0 0 -1
  outer loop
  vertex -0.109188065 0.00420592306 -0.00704000005
  vertex -0.109188065 0.023781091 -0.00704000005
  vertex -0.109178908 0.023781091 -0.00704000005
  endloop
 endfacet

 facet normal 0 0 -1
  outer loop
  vertex -0.109188065 0.00420592306 -0.00704000005
  vertex -0.109178908 0.023781091 -0.00704000005
  vertex -0.107178256 0.0220927726 -0.00704000005
  endloop
 endfacet

 facet normal 0 0 -1
  outer loop
  vertex -0.109188065 0.00420592306 -0.00704000005
  vertex -0.107178256 0.0220927726 -0.00704000005
  vertex -0.105330974 0.020244956 -0.00704000005
  endloop
 endfacet

 facet normal 0 0 -1
  outer loop
  vertex -0.109188065 0.00420592306 -0.00704000005
  vertex -0.105330974 0.020244956 -0.00704000005
  vertex -0.103651941 0.0182454269 -0.00704000005
  endloop
 endfacet

 facet normal 0 0 -1
  outer loop
  vertex -0.109188065 0.00420592306 -0.00704000005
  vertex -0.103651941 0.0182454269 -0.00704000005
  vertex -0.102157176 0.0160980709 -0.00704000005
  endloop
 endfacet

 facet normal 0 0 -1
  outer loop
  vertex -0.109188065 0.00420592306 -0.00704000005
  vertex -0.102157176 0.0160980709 -0.00704000005
  vertex -0.10085126 0.0138379019 -0.00704000005
  endloop
 endfacet

 facet normal 0 0 -1
  outer loop
  vertex -0.109188065 0.00420592306 -0.00704000005
  vertex -0.10085126 0.0138379019 -0.00704000005
  vertex -0.099747926 0.0114610279 -0.00704000005
  endloop
 endfacet

 facet normal 0 0 -1
  outer loop
  vertex -0.109188065 0.00420592306 -0.00704000005
  vertex -0.099747926 0.0114610279 -0.00704000005
  vertex -0.0988563374 0.00900635123 -0.00704000005
  endloop
 endfacet

 facet normal 0 0 -1
  outer loop
  vertex -0.109188065 0.00420592306 -0.00704000005
  vertex -0.0988563374 0.00900635123 -0.00704000005
  vertex -0.0981776267 0.00648165261 -0.00704000005
  endloop
 endfacet

 facet normal 0 0 -1
  outer loop
  vertex -0.109188065 0.00420592306 -0.00704000005
  vertex -0.0981776267 0.00648165261 -0.00704000005
  vertex -0.0977255329 0.00391027285 -0.00704000005
  endloop
 endfacet

 facet normal 0 0 -1
  outer loop
  vertex -0.109188065 0.00420592306 -0.00704000005
  vertex -0.0977255329 0.00391027285 -0.00704000005
  vertex -0.0974954814 0.00130777108 -0.00704000005
  endloop
 endfacet

 facet normal 0 0 -1
  outer loop
  vertex -0.109188065 0.00420592306 -0.00704000005
  vertex -0.0974954814 0.00130777108 -0.00704000005
  vertex -0.0974954814 -0.00130640098 -0.00704000005
  endloop
 endfacet

 facet normal 0 0 -1
  outer loop
  vertex -0.109188065 0.00420592306 -0.00704000005
  vertex -0.0974954814 -0.00130640098 -0.00704000005
  vertex -0.0977255329 -0.00390890287 -0.00704000005
  endloop
 endfacet

 facet normal 0 0 -1
  outer loop
  vertex -0.109188065 0.00420592306 -0.00704000005
  vertex -0.0977255329 -0.00390890287 -0.00704000005
  vertex -0.0981776267 -0.00648028264 -0.00704000005
  endloop
 endfacet

 facet normal 0 0 -1
  outer loop
  vertex -0.109188065 0.00420592306 -0.00704000005
  vertex -0.0981776267 -0.00648028264 -0.00704000005
  vertex -0.09885519 -0.00900498126 -0.00704000005
  endloop
 endfacet

 facet normal 0 0 -1
  outer loop
  vertex -0.109188065 0.00420592306 -0.00704000005
  vertex -0.09885519 -0.00900498126 -0.00704000005
  vertex -0.099747926 -0.0114635481 -0.00704000005
  endloop
 endfacet

 facet normal 0 0 -1
  outer loop
  vertex -0.109188065 0.00420592306 -0.00704000005
  vertex -0.099747926 -0.0114635481 -0.00704000005
  vertex -0.100531936 -0.0131518664 -0.00704000005
  endloop
 endfacet

 facet normal 0 0 -1
  outer loop
  vertex -0.109188065 0.00420592306 -0.00704000005
  vertex -0.100531936 -0.0131518664 -0.00704000005
  vertex -0.10085012 -0.0138365319 -0.00704000005
  endloop
 endfacet

 facet normal 0 0 -1
  outer loop
  vertex -0.109188065 0.00420592306 -0.00704000005
  vertex -0.10085012 -0.0138365319 -0.00704000005
  vertex -0.102073625 -0.0159605462 -0.00704000005
  endloop
 endfacet

 facet normal 0 0 -1
  outer loop
  vertex -0.109188065 0.00420592306 -0.00704000005
  vertex -0.102073625 -0.0159605462 -0.00704000005
  vertex -0.108168282 -0.0159605462 -0.00704000005
  endloop
 endfacet

 facet normal 0 0 -1
  outer loop
  vertex -0.109188065 0.00420592306 -0.00704000005
  vertex -0.108168282 -0.0159605462 -0.00704000005
  vertex -0.10918463 -0.0106466198 -0.00704000005
  endloop
 endfacet

 facet normal -0.99999994 -0.000231153666 -8.19650159e-05
  outer loop
  vertex -0.109188065 0.00420592306 -0.00704000005
  vertex -0.10918463 -0.0106466198 -0.00704000005
  vertex -0.10918463 -0.0118875736 -0.00354032288
  endloop
 endfacet

 facet normal -1 -0.000213329622 0
  outer loop
  vertex -0.109188065 0.00420592306 -0.00704000005
  vertex -0.10918463 -0.0118875736 -0.00354032288
  vertex -0.10918463 -0.0118875736 -0.00303050107
  endloop
 endfacet

 facet normal -1 -0.000213329622 0
  outer loop
  vertex -0.109188065 0.00420592306 -0.00704000005
  vertex -0.10918463 -0.0118875736 -0.00303050107
  vertex -0.109188065 0.00420592306 -0.00304031302
  endloop
 endfacet

 facet normal -0.998742282 -0.000182491669 0.0501400977
  outer loop
  vertex -0.109188065 0.00420592306 -0.00304031302
  vertex -0.10918463 -0.0118875736 -0.00303050107
  vertex -0.109188065 0.00690178806 -0.00303050107
  endloop
 endfacet

 facet normal 0 1 0
  outer loop
  vertex -0.109188065 0.023781091 -0.00704000005
  vertex -0.109188065 0.023781091 -0.00304031302
  vertex -0.109178908 0.023781091 -0.00304031302
  endloop
 endfacet

 facet normal 0 1 0
  outer loop
  vertex -0.109188065 0.023781091 -0.00704000005
  vertex -0.109178908 0.023781091 -0.00304031302
  vertex -0.109178908 0.023781091 -0.00704000005
  endloop
 endfacet

 facet normal -0.944603443 -0.18066588 -0.27401489
  outer loop
  vertex -0.10918463 -0.0106466198 -0.00704000005
  vertex -0.108168282 -0.0159605462 -0.00704000005
  vertex -0.109183483 -0.0159605462 -0.00354032288
  endloop
 endfacet

 facet normal -0.99999994 -0.000281126646 -9.96849703e-05
  outer loop
  vertex -0.10918463 -0.0106466198 -0.00704000005
  vertex -0.109183483 -0.0159605462 -0.00354032288
  vertex -0.10918463 -0.0118875736 -0.00354032288
  endloop
 endfacet

 facet normal -0.99999994 -0.000281126646 0
  outer loop
  vertex -0.10918463 -0.0118875736 -0.00354032288
  vertex -0.109183483 -0.0159605462 -0.00354032288
  vertex -0.109183483 -0.0159605462 -0.00303050107
  endloop
 endfacet

 facet normal -0.99999994 -0.000281126646 0
  outer loop
  vertex -0.10918463 -0.0118875736 -0.00354032288
  vertex -0.109183483 -0.0159605462 -0.00303050107
  vertex -0.10918463 -0.0118875736 -0.00303050107
  endloop
 endfacet

 facet normal 0 0 1
  outer loop
  vertex -0.109188065 0.00690178806 -0.00303050107
  vertex -0.10918463 -0.0118875736 -0.00303050107
  vertex -0.109183483 -0.0159605462 -0.00303050107
  endloop
 endfacet

 facet normal 0 0 1
  outer loop
  vertex -0.109188065 0.00690178806 -0.00303050107
  vertex -0.109183483 -0.0159605462 -0.00303050107
  vertex -0.103210151 -0.0159605462 -0.00303050107
  endloop
 endfacet

 facet normal 0 0 1
  outer loop
  vertex -0.109188065 0.00690178806 -0.00303050107
  vertex -0.103210151 -0.0159605462 -0.00303050107
  vertex -0.103072807 -0.0156259947 -0.00303050107
  endloop
 endfacet

 facet normal 0 0 1
  outer loop
  vertex -0.109188065 0.00690178806 -0.00303050107
  vertex -0.103072807 -0.0156259947 -0.00303050107
  vertex -0.102903418 -0.015085265 -0.00303050107
  endloop
 endfacet

 facet normal 0 0 1
  outer loop
  vertex -0.109188065 0.00690178806 -0.00303050107
  vertex -0.102903418 -0.015085265 -0.00303050107
  vertex -0.102779806 -0.014532866 -0.00303050107
  endloop
 endfacet

 facet normal 0 0 1
  outer loop
  vertex -0.109188065 0.00690178806 -0.00303050107
  vertex -0.102779806 -0.014532866 -0.00303050107
  vertex -0.102705412 -0.0139687955 -0.00303050107
  endloop
 endfacet

 facet normal 0 0 1
  outer loop
  vertex -0.109188065 0.00690178806 -0.00303050107
  vertex -0.102705412 -0.0139687955 -0.00303050107
  vertex -0.102681376 -0.0134047261 -0.00303050107
  endloop
 endfacet

 facet normal 0 0 1
  outer loop
  vertex -0.109188065 0.00690178806 -0.00303050107
  vertex -0.102681376 -0.0134047261 -0.00303050107
  vertex -0.102682516 0.0134022068 -0.00303050107
  endloop
 endfacet

 facet normal 0 0 1
  outer loop
  vertex -0.109188065 0.00690178806 -0.00303050107
  vertex -0.102682516 0.0134022068 -0.00303050107
  vertex -0.102706552 0.0139701664 -0.00303050107
  endloop
 endfacet

 facet normal 0 0 1
  outer loop
  vertex -0.109188065 0.00690178806 -0.00303050107
  vertex -0.102706552 0.0139701664 -0.00303050107
  vertex -0.102779806 0.0145303458 -0.00303050107
  endloop
 endfacet

 facet normal 0 0 1
  outer loop
  vertex -0.109188065 0.00690178806 -0.00303050107
  vertex -0.102779806 0.0145303458 -0.00303050107
  vertex -0.102902271 0.0150827458 -0.00303050107
  endloop
 endfacet

 facet normal 0 0 1
  outer loop
  vertex -0.109188065 0.00690178806 -0.00303050107
  vertex -0.102902271 0.0150827458 -0.00303050107
  vertex -0.103073947 0.0156273656 -0.00303050107
  endloop
 endfacet

 facet normal 0 0 1
  outer loop
  vertex -0.109188065 0.00690178806 -0.00303050107
  vertex -0.103073947 0.0156273656 -0.00303050107
  vertex -0.103291415 0.0161486436 -0.00303050107
  endloop
 endfacet

 facet normal 0 0 1
  outer loop
  vertex -0.109188065 0.00690178806 -0.00303050107
  vertex -0.103291415 0.0161486436 -0.00303050107
  vertex -0.103551224 0.016654361 -0.00303050107
  endloop
 endfacet

 facet normal 0 0 1
  outer loop
  vertex -0.109188065 0.00690178806 -0.00303050107
  vertex -0.103551224 0.016654361 -0.00303050107
  vertex -0.103855669 0.0171289574 -0.00303050107
  endloop
 endfacet

 facet normal 0 0 1
  outer loop
  vertex -0.109188065 0.00690178806 -0.00303050107
  vertex -0.103855669 0.0171289574 -0.00303050107
  vertex -0.104200177 0.017580213 -0.00303050107
  endloop
 endfacet

 facet normal 0 0 1
  outer loop
  vertex -0.109188065 0.00690178806 -0.00303050107
  vertex -0.104200177 0.017580213 -0.00303050107
  vertex -0.104583591 0.0179964583 -0.00303050107
  endloop
 endfacet

 facet normal 0 0 1
  outer loop
  vertex -0.109188065 0.00690178806 -0.00303050107
  vertex -0.104583591 0.0179964583 -0.00303050107
  vertex -0.105000205 0.0183815807 -0.00303050107
  endloop
 endfacet

 facet normal 0 0 1
  outer loop
  vertex -0.109188065 0.00690178806 -0.00303050107
  vertex -0.105000205 0.0183815807 -0.00303050107
  vertex -0.105448864 0.0187239144 -0.00303050107
  endloop
 endfacet

 facet normal 0 0 1
  outer loop
  vertex -0.109188065 0.00690178806 -0.00303050107
  vertex -0.105448864 0.0187239144 -0.00303050107
  vertex -0.105928421 0.0190312341 -0.00303050107
  endloop
 endfacet

 facet normal 0 0 1
  outer loop
  vertex -0.109188065 0.00690178806 -0.00303050107
  vertex -0.105928421 0.0190312341 -0.00303050107
  vertex -0.106432021 0.019291874 -0.00303050107
  endloop
 endfacet

 facet normal 0 0 1
  outer loop
  vertex -0.109188065 0.00690178806 -0.00303050107
  vertex -0.106432021 0.019291874 -0.00303050107
  vertex -0.106955074 0.0195097215 -0.00303050107
  endloop
 endfacet

 facet normal 0 0 1
  outer loop
  vertex -0.109188065 0.00690178806 -0.00303050107
  vertex -0.106955074 0.0195097215 -0.00303050107
  vertex -0.10749644 0.0196808875 -0.00303050107
  endloop
 endfacet

 facet normal 0 0 1
  outer loop
  vertex -0.109188065 0.00690178806 -0.00303050107
  vertex -0.10749644 0.0196808875 -0.00303050107
  vertex -0.108050391 0.0198014807 -0.00303050107
  endloop
 endfacet

 facet normal 0 0 1
  outer loop
  vertex -0.109188065 0.00690178806 -0.00303050107
  vertex -0.108050391 0.0198014807 -0.00303050107
  vertex -0.108611211 0.0198792834 -0.00303050107
  endloop
 endfacet

 facet normal 0 0 1
  outer loop
  vertex -0.109188065 0.00690178806 -0.00303050107
  vertex -0.108611211 0.0198792834 -0.00303050107
  vertex -0.109178908 0.019898735 -0.00303050107
  endloop
 endfacet

 facet normal 0 0 1
  outer loop
  vertex -0.109188065 0.00690178806 -0.00303050107
  vertex -0.109178908 0.019898735 -0.00303050107
  vertex -0.109188065 0.019898735 -0.00303050107
  endloop
 endfacet

 facet normal 0 0.00252731331 0.999996841
  outer loop
  vertex -0.109188065 0.023781091 -0.00304031302
  vertex -0.109188065 0.019898735 -0.00303050107
  vertex -0.109178908 0.019898735 -0.00303050107
  endloop
 endfacet

 facet normal 0 0.00252731331 0.999996841
  outer loop
  vertex -0.109188065 0.023781091 -0.00304031302
  vertex -0.109178908 0.019898735 -0.00303050107
  vertex -0.109178908 0.023781091 -0.00304031302
  endloop
 endfacet

 facet normal 0.644931734 0.764240205 0
  outer loop
  vertex -0.109178908 0.023781091 -0.00704000005
  vertex -0.109178908 0.023781091 -0.00304031302
  vertex -0.107178256 0.0220927726 -0.00304031302
  endloop
 endfacet

 facet normal 0.644931734 0.764240205 0
  outer loop
  vertex -0.109178908 0.023781091 -0.00704000005
  vertex -0.107178256 0.0220927726 -0.00304031302
  vertex -0.107178256 0.0220927726 -0.00704000005
  endloop
 endfacet

 facet normal 0 -1 0
  outer loop
  vertex -0.108168282 -0.0159605462 -0.00704000005
  vertex -0.102073625 -0.0159605462 -0.00704000005
  vertex -0.102073625 -0.0159605462 -0.00304031302
  endloop
 endfacet

 facet normal 0 -1 0
  outer loop
  vertex -0.108168282 -0.0159605462 -0.00704000005
  vertex -0.102073625 -0.0159605462 -0.00304031302
  vertex -0.103210151 -0.0159605462 -0.00303050107
  endloop
 endfacet

 facet normal 0 -1 0
  outer loop
  vertex -0.108168282 -0.0159605462 -0.00704000005
  vertex -0.103210151 -0.0159605462 -0.00303050107
  vertex -0.109183483 -0.0159605462 -0.00303050107
  endloop
 endfacet

 facet normal 0 -1 0
  outer loop
  vertex -0.108168282 -0.0159605462 -0.00704000005
  vertex -0.109183483 -0.0159605462 -0.00303050107
  vertex -0.109183483 -0.0159605462 -0.00354032288
  endloop
 endfacet

 facet normal 8.65925322e-05 0.00252731331 0.999996841
  outer loop
  vertex -0.109178908 0.023781091 -0.00304031302
  vertex -0.109178908 0.019898735 -0.00303050107
  vertex -0.108611211 0.0198792834 -0.00303050107
  endloop
 endfacet

 facet normal 0.000356052013 0.0025665178 0.999996662
  outer loop
  vertex -0.109178908 0.023781091 -0.00304031302
  vertex -0.108611211 0.0198792834 -0.00303050107
  vertex -0.108050391 0.0198014807 -0.00303050107
  endloop
 endfacet

 facet normal 0.000572055636 0.00262777042 0.999996483
  outer loop
  vertex -0.109178908 0.023781091 -0.00304031302
  vertex -0.108050391 0.0198014807 -0.00303050107
  vertex -0.10749644 0.0196808875 -0.00303050107
  endloop
 endfacet

 facet normal 0.000869404641 0.00274978206 0.999995887
  outer loop
  vertex -0.109178908 0.023781091 -0.00304031302
  vertex -0.10749644 0.0196808875 -0.00303050107
  vertex -0.106955074 0.0195097215 -0.00303050107
  endloop
 endfacet

 facet normal 0.0012216568 0.002933176 0.999995053
  outer loop
  vertex -0.109178908 0.023781091 -0.00304031302
  vertex -0.106955074 0.0195097215 -0.00303050107
  vertex -0.106432021 0.019291874 -0.00303050107
  endloop
 endfacet

 facet normal 0.00165545172 0.0031986055 0.999993622
  outer loop
  vertex -0.109178908 0.023781091 -0.00304031302
  vertex -0.106432021 0.019291874 -0.00303050107
  vertex -0.105928421 0.0190312341 -0.00303050107
  endloop
 endfacet

 facet normal 0.00235778606 0.00367922895 0.999990463
  outer loop
  vertex -0.109178908 0.023781091 -0.00304031302
  vertex -0.105928421 0.0190312341 -0.00303050107
  vertex -0.105448864 0.0187239144 -0.00303050107
  endloop
 endfacet

 facet normal 0.00338591356 0.0044375374 0.999984443
  outer loop
  vertex -0.109178908 0.023781091 -0.00304031302
  vertex -0.105448864 0.0187239144 -0.00303050107
  vertex -0.105000205 0.0183815807 -0.00303050107
  endloop
 endfacet

 facet normal 0.00442032423 0.00523805758 0.999976575
  outer loop
  vertex -0.109178908 0.023781091 -0.00304031302
  vertex -0.105000205 0.0183815807 -0.00303050107
  vertex -0.107178256 0.0220927726 -0.00304031302
  endloop
 endfacet

 facet normal 0.70720911 0.707004428 0
  outer loop
  vertex -0.107178256 0.0220927726 -0.00704000005
  vertex -0.107178256 0.0220927726 -0.00304031302
  vertex -0.105330974 0.020244956 -0.00304031302
  endloop
 endfacet

 facet normal 0.70720911 0.707004428 0
  outer loop
  vertex -0.107178256 0.0220927726 -0.00704000005
  vertex -0.105330974 0.020244956 -0.00304031302
  vertex -0.105330974 0.020244956 -0.00704000005
  endloop
 endfacet

 facet normal 0.866517961 -0.499145925 0
  outer loop
  vertex -0.102073625 -0.0159605462 -0.00704000005
  vertex -0.10085012 -0.0138365319 -0.00704000005
  vertex -0.10085012 -0.0138365319 -0.00304031302
  endloop
 endfacet

 facet normal 0.866517961 -0.499145925 0
  outer loop
  vertex -0.102073625 -0.0159605462 -0.00704000005
  vertex -0.10085012 -0.0138365319 -0.00304031302
  vertex -0.102073625 -0.0159605462 -0.00304031302
  endloop
 endfacet

 facet normal 0.00863288995 -0.00497285929 0.999950349
  outer loop
  vertex -0.103210151 -0.0159605462 -0.00303050107
  vertex -0.102073625 -0.0159605462 -0.00304031302
  vertex -0.10085012 -0.0138365319 -0.00304031302
  endloop
 endfacet

 facet normal 0.00714640971 -0.00332111632 0.999968946
  outer loop
  vertex -0.103210151 -0.0159605462 -0.00303050107
  vertex -0.10085012 -0.0138365319 -0.00304031302
  vertex -0.100531936 -0.0131518664 -0.00304031302
  endloop
 endfacet

 facet normal 0.00714124693 -0.00331619335 0.999969006
  outer loop
  vertex -0.103210151 -0.0159605462 -0.00303050107
  vertex -0.100531936 -0.0131518664 -0.00304031302
  vertex -0.099747926 -0.0114635481 -0.00304031302
  endloop
 endfacet

 facet normal 0.00607135333 -0.00249246578 0.999978483
  outer loop
  vertex -0.103210151 -0.0159605462 -0.00303050107
  vertex -0.099747926 -0.0114635481 -0.00304031302
  vertex -0.103072807 -0.0156259947 -0.00303050107
  endloop
 endfacet

 facet normal 0.00534241041 0.00577919837 0.999969006
  outer loop
  vertex -0.105000205 0.0183815807 -0.00303050107
  vertex -0.104583591 0.0179964583 -0.00303050107
  vertex -0.107178256 0.0220927726 -0.00304031302
  endloop
 endfacet

 facet normal 0.00653899647 0.00653710403 0.999957263
  outer loop
  vertex -0.107178256 0.0220927726 -0.00304031302
  vertex -0.104583591 0.0179964583 -0.00303050107
  vertex -0.105330974 0.020244956 -0.00304031302
  endloop
 endfacet

 facet normal 0.765812516 0.643063962 0
  outer loop
  vertex -0.105330974 0.020244956 -0.00704000005
  vertex -0.105330974 0.020244956 -0.00304031302
  vertex -0.103651941 0.0182454269 -0.00304031302
  endloop
 endfacet

 facet normal 0.765812516 0.643063962 0
  outer loop
  vertex -0.105330974 0.020244956 -0.00704000005
  vertex -0.103651941 0.0182454269 -0.00304031302
  vertex -0.103651941 0.0182454269 -0.00704000005
  endloop
 endfacet

 facet normal 0.906856716 -0.421439111 0
  outer loop
  vertex -0.10085012 -0.0138365319 -0.00704000005
  vertex -0.100531936 -0.0131518664 -0.00704000005
  vertex -0.100531936 -0.0131518664 -0.00304031302
  endloop
 endfacet

 facet normal 0.906856716 -0.421439111 0
  outer loop
  vertex -0.10085012 -0.0138365319 -0.00704000005
  vertex -0.100531936 -0.0131518664 -0.00304031302
  vertex -0.10085012 -0.0138365319 -0.00304031302
  endloop
 endfacet

 facet normal 0.906979203 -0.42117548 0
  outer loop
  vertex -0.100531936 -0.0131518664 -0.00304031302
  vertex -0.100531936 -0.0131518664 -0.00704000005
  vertex -0.099747926 -0.0114635481 -0.00704000005
  endloop
 endfacet

 facet normal 0.906979203 -0.42117548 0
  outer loop
  vertex -0.100531936 -0.0131518664 -0.00304031302
  vertex -0.099747926 -0.0114635481 -0.00704000005
  vertex -0.099747926 -0.0114635481 -0.00304031302
  endloop
 endfacet

 facet normal 0.93995142 -0.341308326 0
  outer loop
  vertex -0.099747926 -0.0114635481 -0.00304031302
  vertex -0.099747926 -0.0114635481 -0.00704000005
  vertex -0.09885519 -0.00900498126 -0.00704000005
  endloop
 endfacet

 facet normal 0.93995142 -0.341308326 0
  outer loop
  vertex -0.099747926 -0.0114635481 -0.00304031302
  vertex -0.09885519 -0.00900498126 -0.00704000005
  vertex -0.09885519 -0.00900498126 -0.00304031302
  endloop
 endfacet

 facet normal 0.00541059999 -0.0019646578 0.99998343
  outer loop
  vertex -0.099747926 -0.0114635481 -0.00304031302
  vertex -0.09885519 -0.00900498126 -0.00304031302
  vertex -0.103072807 -0.0156259947 -0.00303050107
  endloop
 endfacet

 facet normal 0.00457752589 -0.00143397809 0.999988496
  outer loop
  vertex -0.103072807 -0.0156259947 -0.00303050107
  vertex -0.09885519 -0.00900498126 -0.00304031302
  vertex -0.102903418 -0.015085265 -0.00303050107
  endloop
 endfacet

 facet normal 0.00741158379 0.00682710996 0.999949217
  outer loop
  vertex -0.104583591 0.0179964583 -0.00303050107
  vertex -0.104200177 0.017580213 -0.00303050107
  vertex -0.105330974 0.020244956 -0.00304031302
  endloop
 endfacet

 facet normal 0.00886438973 0.00744355749 0.999933004
  outer loop
  vertex -0.105330974 0.020244956 -0.00304031302
  vertex -0.104200177 0.017580213 -0.00303050107
  vertex -0.103651941 0.0182454269 -0.00304031302
  endloop
 endfacet

 facet normal 0.820734441 0.571309924 0
  outer loop
  vertex -0.103651941 0.0182454269 -0.00704000005
  vertex -0.103651941 0.0182454269 -0.00304031302
  vertex -0.102157176 0.0160980709 -0.00304031302
  endloop
 endfacet

 facet normal 0.820734441 0.571309924 0
  outer loop
  vertex -0.103651941 0.0182454269 -0.00704000005
  vertex -0.102157176 0.0160980709 -0.00304031302
  vertex -0.102157176 0.0160980709 -0.00704000005
  endloop
 endfacet

 facet normal 0.965822875 -0.259203017 0
  outer loop
  vertex -0.09885519 -0.00900498126 -0.00304031302
  vertex -0.09885519 -0.00900498126 -0.00704000005
  vertex -0.0981776267 -0.00648028264 -0.00704000005
  endloop
 endfacet

 facet normal 0.965822875 -0.259203017 0
  outer loop
  vertex -0.09885519 -0.00900498126 -0.00304031302
  vertex -0.0981776267 -0.00648028264 -0.00704000005
  vertex -0.0981776267 -0.00648028264 -0.00304031302
  endloop
 endfacet

 facet normal 0.00406049239 -0.00108973577 0.999991119
  outer loop
  vertex -0.09885519 -0.00900498126 -0.00304031302
  vertex -0.0981776267 -0.00648028264 -0.00304031302
  vertex -0.102903418 -0.015085265 -0.00303050107
  endloop
 endfacet

 facet normal 0.00350393634 -0.000784076692 0.999993503
  outer loop
  vertex -0.102903418 -0.015085265 -0.00303050107
  vertex -0.0981776267 -0.00648028264 -0.00304031302
  vertex -0.102779806 -0.014532866 -0.00303050107
  endloop
 endfacet

 facet normal 0.0092902733 0.00709254993 0.999931753
  outer loop
  vertex -0.104200177 0.017580213 -0.00303050107
  vertex -0.103855669 0.0171289574 -0.00303050107
  vertex -0.103651941 0.0182454269 -0.00304031302
  endloop
 endfacet

 facet normal 0.0100023123 0.00696256757 0.999925733
  outer loop
  vertex -0.103651941 0.0182454269 -0.00304031302
  vertex -0.103855669 0.0171289574 -0.00303050107
  vertex -0.102157176 0.0160980709 -0.00304031302
  endloop
 endfacet

 facet normal 0.865858436 0.500289202 0
  outer loop
  vertex -0.102157176 0.0160980709 -0.00704000005
  vertex -0.102157176 0.0160980709 -0.00304031302
  vertex -0.10085126 0.0138379019 -0.00304031302
  endloop
 endfacet

 facet normal 0.865858436 0.500289202 0
  outer loop
  vertex -0.102157176 0.0160980709 -0.00704000005
  vertex -0.10085126 0.0138379019 -0.00304031302
  vertex -0.10085126 0.0138379019 -0.00704000005
  endloop
 endfacet

 facet normal 0.98489356 -0.173160762 0
  outer loop
  vertex -0.0981776267 -0.00648028264 -0.00304031302
  vertex -0.0981776267 -0.00648028264 -0.00704000005
  vertex -0.0977255329 -0.00390890287 -0.00704000005
  endloop
 endfacet

 facet normal 0.98489356 -0.173160762 0
  outer loop
  vertex -0.0981776267 -0.00648028264 -0.00304031302
  vertex -0.0977255329 -0.00390890287 -0.00704000005
  vertex -0.0977255329 -0.00390890287 -0.00304031302
  endloop
 endfacet

 facet normal 0.00307931076 -0.000541394285 0.999995172
  outer loop
  vertex -0.0981776267 -0.00648028264 -0.00304031302
  vertex -0.0977255329 -0.00390890287 -0.00304031302
  vertex -0.102779806 -0.014532866 -0.00303050107
  endloop
 endfacet

 facet normal 0.00268593431 -0.000354247459 0.999996364
  outer loop
  vertex -0.102779806 -0.014532866 -0.00303050107
  vertex -0.0977255329 -0.00390890287 -0.00304031302
  vertex -0.102705412 -0.0139687955 -0.00303050107
  endloop
 endfacet

 facet normal 0.00945950486 0.00606813049 0.999936819
  outer loop
  vertex -0.103855669 0.0171289574 -0.00303050107
  vertex -0.103551224 0.016654361 -0.00303050107
  vertex -0.102157176 0.0160980709 -0.00304031302
  endloop
 endfacet

 facet normal 0.00914711691 0.00528516388 0.99994421
  outer loop
  vertex -0.102157176 0.0160980709 -0.00304031302
  vertex -0.103551224 0.016654361 -0.00303050107
  vertex -0.10085126 0.0138379019 -0.00304031302
  endloop
 endfacet

 facet normal 0.907040536 0.421043336 0
  outer loop
  vertex -0.10085126 0.0138379019 -0.00704000005
  vertex -0.10085126 0.0138379019 -0.00304031302
  vertex -0.099747926 0.0114610279 -0.00304031302
  endloop
 endfacet

 facet normal 0.907040536 0.421043336 0
  outer loop
  vertex -0.10085126 0.0138379019 -0.00704000005
  vertex -0.099747926 0.0114610279 -0.00304031302
  vertex -0.099747926 0.0114610279 -0.00704000005
  endloop
 endfacet

 facet normal 0.996115804 -0.0880529433 0
  outer loop
  vertex -0.0977255329 -0.00390890287 -0.00304031302
  vertex -0.0977255329 -0.00390890287 -0.00704000005
  vertex -0.0974954814 -0.00130640098 -0.00704000005
  endloop
 endfacet

 facet normal 0.996115804 -0.0880529433 0
  outer loop
  vertex -0.0977255329 -0.00390890287 -0.00304031302
  vertex -0.0974954814 -0.00130640098 -0.00704000005
  vertex -0.0974954814 -0.00130640098 -0.00304031302
  endloop
 endfacet

 facet normal 0.00239864364 -0.000212031227 0.999997079
  outer loop
  vertex -0.0977255329 -0.00390890287 -0.00304031302
  vertex -0.0974954814 -0.00130640098 -0.00304031302
  vertex -0.102705412 -0.0139687955 -0.00303050107
  endloop
 endfacet

 facet normal 0.00210088002 -8.95161866e-05 0.999997795
  outer loop
  vertex -0.102705412 -0.0139687955 -0.00303050107
  vertex -0.0974954814 -0.00130640098 -0.00304031302
  vertex -0.102681376 -0.0134047261 -0.00303050107
  endloop
 endfacet

 facet normal 0.00783032365 0.00402277801 0.999961317
  outer loop
  vertex -0.103551224 0.016654361 -0.00303050107
  vertex -0.103291415 0.0161486436 -0.00303050107
  vertex -0.10085126 0.0138379019 -0.00304031302
  endloop
 endfacet

 facet normal 0.00717478851 0.003330498 0.999968827
  outer loop
  vertex -0.10085126 0.0138379019 -0.00304031302
  vertex -0.103291415 0.0161486436 -0.00303050107
  vertex -0.099747926 0.0114610279 -0.00304031302
  endloop
 endfacet

 facet normal 0.93991828 0.341399372 0
  outer loop
  vertex -0.099747926 0.0114610279 -0.00704000005
  vertex -0.099747926 0.0114610279 -0.00304031302
  vertex -0.0988563374 0.00900635123 -0.00304031302
  endloop
 endfacet

 facet normal 0.93991828 0.341399372 0
  outer loop
  vertex -0.099747926 0.0114610279 -0.00704000005
  vertex -0.0988563374 0.00900635123 -0.00304031302
  vertex -0.0988563374 0.00900635123 -0.00704000005
  endloop
 endfacet

 facet normal 1 0 0
  outer loop
  vertex -0.0974954814 -0.00130640098 -0.00304031302
  vertex -0.0974954814 -0.00130640098 -0.00704000005
  vertex -0.0974954814 0.00130777108 -0.00704000005
  endloop
 endfacet

 facet normal 1 0 0
  outer loop
  vertex -0.0974954814 -0.00130640098 -0.00304031302
  vertex -0.0974954814 0.00130777108 -0.00704000005
  vertex -0.0974954814 0.00130777108 -0.00304031302
  endloop
 endfacet

 facet normal 0.00189204561 0 0.999998212
  outer loop
  vertex -0.0974954814 -0.00130640098 -0.00304031302
  vertex -0.0974954814 0.00130777108 -0.00304031302
  vertex -0.102681376 -0.0134047261 -0.00303050107
  endloop
 endfacet

 facet normal 0.0018918165 8.08063376e-08 0.999998212
  outer loop
  vertex -0.102681376 -0.0134047261 -0.00303050107
  vertex -0.0974954814 0.00130777108 -0.00304031302
  vertex -0.102682516 0.0134022068 -0.00303050107
  endloop
 endfacet

 facet normal 0.00617886614 0.00257763732 0.999977589
  outer loop
  vertex -0.103291415 0.0161486436 -0.00303050107
  vertex -0.103073947 0.0156273656 -0.00303050107
  vertex -0.099747926 0.0114610279 -0.00304031302
  endloop
 endfacet

 facet normal 0.00541276252 0.00196603662 0.99998343
  outer loop
  vertex -0.099747926 0.0114610279 -0.00304031302
  vertex -0.103073947 0.0156273656 -0.00303050107
  vertex -0.0988563374 0.00900635123 -0.00304031302
  endloop
 endfacet

 facet normal 0.965713382 0.259610832 0
  outer loop
  vertex -0.0988563374 0.00900635123 -0.00704000005
  vertex -0.0988563374 0.00900635123 -0.00304031302
  vertex -0.0981776267 0.00648165261 -0.00304031302
  endloop
 endfacet

 facet normal 0.965713382 0.259610832 0
  outer loop
  vertex -0.0988563374 0.00900635123 -0.00704000005
  vertex -0.0981776267 0.00648165261 -0.00304031302
  vertex -0.0981776267 0.00648165261 -0.00704000005
  endloop
 endfacet

 facet normal 0.996115804 0.0880529508 0
  outer loop
  vertex -0.0974954814 0.00130777108 -0.00304031302
  vertex -0.0974954814 0.00130777108 -0.00704000005
  vertex -0.0977255329 0.00391027285 -0.00704000005
  endloop
 endfacet

 facet normal 0.996115804 0.0880529508 0
  outer loop
  vertex -0.0974954814 0.00130777108 -0.00304031302
  vertex -0.0977255329 0.00391027285 -0.00704000005
  vertex -0.0977255329 0.00391027285 -0.00304031302
  endloop
 endfacet

 facet normal 0.00239797262 0.000211971928 0.999997079
  outer loop
  vertex -0.0974954814 0.00130777108 -0.00304031302
  vertex -0.0977255329 0.00391027285 -0.00304031302
  vertex -0.102706552 0.0139701664 -0.00303050107
  endloop
 endfacet

 facet normal 0.00209870469 8.88109644e-05 0.999997795
  outer loop
  vertex -0.0974954814 0.00130777108 -0.00304031302
  vertex -0.102706552 0.0139701664 -0.00303050107
  vertex -0.102682516 0.0134022068 -0.00303050107
  endloop
 endfacet

 facet normal 0.00460550468 0.00145180197 0.999988317
  outer loop
  vertex -0.103073947 0.0156273656 -0.00303050107
  vertex -0.102902271 0.0150827458 -0.00303050107
  vertex -0.0988563374 0.00900635123 -0.00304031302
  endloop
 endfacet

 facet normal 0.0040672184 0.00109338248 0.999991238
  outer loop
  vertex -0.0988563374 0.00900635123 -0.00304031302
  vertex -0.102902271 0.0150827458 -0.00303050107
  vertex -0.0981776267 0.00648165261 -0.00304031302
  endloop
 endfacet

 facet normal 0.98489356 0.173160762 0
  outer loop
  vertex -0.0981776267 0.00648165261 -0.00704000005
  vertex -0.0981776267 0.00648165261 -0.00304031302
  vertex -0.0977255329 0.00391027285 -0.00304031302
  endloop
 endfacet

 facet normal 0.98489356 0.173160762 0
  outer loop
  vertex -0.0981776267 0.00648165261 -0.00704000005
  vertex -0.0977255329 0.00391027285 -0.00304031302
  vertex -0.0977255329 0.00391027285 -0.00704000005
  endloop
 endfacet

 facet normal 0.00307865022 0.000541278103 0.999995172
  outer loop
  vertex -0.0977255329 0.00391027285 -0.00304031302
  vertex -0.0981776267 0.00648165261 -0.00304031302
  vertex -0.102779806 0.0145303458 -0.00303050107
  endloop
 endfacet

 facet normal 0.00267678034 0.000350020593 0.999996364
  outer loop
  vertex -0.0977255329 0.00391027285 -0.00304031302
  vertex -0.102779806 0.0145303458 -0.00303050107
  vertex -0.102706552 0.0139701664 -0.00303050107
  endloop
 endfacet

 facet normal 0.0034821087 0.000771974563 0.999993682
  outer loop
  vertex -0.102902271 0.0150827458 -0.00303050107
  vertex -0.102779806 0.0145303458 -0.00303050107
  vertex -0.0981776267 0.00648165261 -0.00304031302
  endloop
 endfacet

endsolid AssimpScene
