solid AssimpScene
 facet normal 0 1 0
  outer loop
  vertex -0.15536429 0.00446899934 0.0148341404
  vertex -0.15536429 0.00446899934 0.0134827076
  vertex -0.157364294 0.00446899934 0.0120818634
  endloop
 endfacet

 facet normal 0 1 0
  outer loop
  vertex -0.15536429 0.00446899934 0.0148341404
  vertex -0.157364294 0.00446899934 0.0120818634
  vertex -0.159363911 0.00446899934 0.0120818634
  endloop
 endfacet

 facet normal 0 1 0
  outer loop
  vertex -0.15536429 0.00446899934 0.0148341404
  vertex -0.159363911 0.00446899934 0.0120818634
  vertex -0.159363911 0.00446899934 0.0148341404
  endloop
 endfacet

 facet normal 0 0 1
  outer loop
  vertex -0.15536429 0.00446899934 0.0148341404
  vertex -0.159363911 0.00446899934 0.0148341404
  vertex -0.159363911 2.22552571e-05 0.0148341404
  endloop
 endfacet

 facet normal 0 0 1
  outer loop
  vertex -0.15536429 0.00446899934 0.0148341404
  vertex -0.159363911 2.22552571e-05 0.0148341404
  vertex -0.15536429 2.22552571e-05 0.0148341404
  endloop
 endfacet

 facet normal 1 0 0
  outer loop
  vertex -0.15536429 0.00446899934 0.0148341404
  vertex -0.15536429 2.22552571e-05 0.0148341404
  vertex -0.15536429 -0.00446559023 0.0144674592
  endloop
 endfacet

 facet normal 1 0 0
  outer loop
  vertex -0.15536429 0.00446899934 0.0148341404
  vertex -0.15536429 -0.00446559023 0.0144674592
  vertex -0.15536429 -0.00552834617 0.00839771423
  endloop
 endfacet

 facet normal 1 0 0
  outer loop
  vertex -0.15536429 0.00446899934 0.0148341404
  vertex -0.15536429 -0.00552834617 0.00839771423
  vertex -0.15536429 -0.00552834617 0.00598091166
  endloop
 endfacet

 facet normal 1 0 0
  outer loop
  vertex -0.15536429 0.00446899934 0.0148341404
  vertex -0.15536429 -0.00552834617 0.00598091166
  vertex -0.15536429 -0.00507427659 0.00597831141
  endloop
 endfacet

 facet normal 1 0 0
  outer loop
  vertex -0.15536429 0.00446899934 0.0148341404
  vertex -0.15536429 -0.00507427659 0.00597831141
  vertex -0.15536429 -0.00260038441 0.00597831141
  endloop
 endfacet

 facet normal 1 0 0
  outer loop
  vertex -0.15536429 0.00446899934 0.0148341404
  vertex -0.15536429 -0.00260038441 0.00597831141
  vertex -0.15536429 0.00236501591 0.0106558809
  endloop
 endfacet

 facet normal 1 0 0
  outer loop
  vertex -0.15536429 0.00446899934 0.0148341404
  vertex -0.15536429 0.00236501591 0.0106558809
  vertex -0.15536429 0.00446899934 0.0134827076
  endloop
 endfacet

 facet normal 0.480269849 0.703619838 -0.523698449
  outer loop
  vertex -0.15536429 0.00446899934 0.0134827076
  vertex -0.15536429 0.00236501591 0.0106558809
  vertex -0.157364294 0.00373015879 0.0106558809
  endloop
 endfacet

 facet normal 0.306695163 0.845106721 -0.437872946
  outer loop
  vertex -0.15536429 0.00446899934 0.0134827076
  vertex -0.157364294 0.00373015879 0.0106558809
  vertex -0.157364294 0.00446899934 0.0120818634
  endloop
 endfacet

 facet normal -1 8.80843872e-05 0
  outer loop
  vertex -0.159363911 0.00446899934 0.0148341404
  vertex -0.159363911 0.00446899934 0.0120818634
  vertex -0.159364298 2.32338534e-05 0.00857888721
  endloop
 endfacet

 facet normal -1 8.80843872e-05 0
  outer loop
  vertex -0.159363911 0.00446899934 0.0148341404
  vertex -0.159364298 2.32338534e-05 0.00857888721
  vertex -0.159364298 2.32338534e-05 0.0106177395
  endloop
 endfacet

 facet normal -1 0 9.28760128e-05
  outer loop
  vertex -0.159363911 0.00446899934 0.0148341404
  vertex -0.159364298 2.32338534e-05 0.0106177395
  vertex -0.159364298 -0.00373849226 0.0106177395
  endloop
 endfacet

 facet normal -1 0 9.28760128e-05
  outer loop
  vertex -0.159363911 0.00446899934 0.0148341404
  vertex -0.159364298 -0.00373849226 0.0106177395
  vertex -0.159363911 2.22552571e-05 0.0148341404
  endloop
 endfacet

 facet normal 0 -0.0814340487 0.99667877
  outer loop
  vertex -0.15536429 2.22552571e-05 0.0148341404
  vertex -0.159363911 2.22552571e-05 0.0148341404
  vertex -0.159363911 -0.00446559023 0.0144674592
  endloop
 endfacet

 facet normal 0 -0.0814340487 0.99667877
  outer loop
  vertex -0.15536429 2.22552571e-05 0.0148341404
  vertex -0.159363911 -0.00446559023 0.0144674592
  vertex -0.15536429 -0.00446559023 0.0144674592
  endloop
 endfacet

 facet normal 0 0.887896419 -0.46004349
  outer loop
  vertex -0.157364294 0.00446899934 0.0120818634
  vertex -0.157364294 0.00373015879 0.0106558809
  vertex -0.159363911 0.00373015879 0.0106558809
  endloop
 endfacet

 facet normal 0 0.887896419 -0.46004349
  outer loop
  vertex -0.157364294 0.00446899934 0.0120818634
  vertex -0.159363911 0.00373015879 0.0106558809
  vertex -0.159363911 0.00446899934 0.0120818634
  endloop
 endfacet

 facet normal 0.423902869 0.621039391 -0.659254551
  outer loop
  vertex -0.15536429 0.00236501591 0.0106558809
  vertex -0.15536429 -0.00260038441 0.00597831141
  vertex -0.157364294 0.00373015879 0.0106558809
  endloop
 endfacet

 facet normal 0 0.59426558 -0.804268956
  outer loop
  vertex -0.157364294 0.00373015879 0.0106558809
  vertex -0.15536429 -0.00260038441 0.00597831141
  vertex -0.159364298 -0.00260038441 0.00597831141
  endloop
 endfacet

 facet normal 0 0.59426558 -0.804268956
  outer loop
  vertex -0.157364294 0.00373015879 0.0106558809
  vertex -0.159364298 -0.00260038441 0.00597831141
  vertex -0.159363911 0.00373015879 0.0106558809
  endloop
 endfacet

 facet normal -1 0.000148854277 -7.71254854e-05
  outer loop
  vertex -0.159363911 0.00446899934 0.0120818634
  vertex -0.159363911 0.00373015879 0.0106558809
  vertex -0.159364298 2.32338534e-05 0.00857888721
  endloop
 endfacet

 facet normal -1 0 0
  outer loop
  vertex -0.159364298 2.32338534e-05 0.0106177395
  vertex -0.159364298 2.32338534e-05 0.00857888721
  vertex -0.159364298 -0.00260038441 0.00597831141
  endloop
 endfacet

 facet normal -1 0 0
  outer loop
  vertex -0.159364298 2.32338534e-05 0.0106177395
  vertex -0.159364298 -0.00260038441 0.00597831141
  vertex -0.159364298 -0.00552834617 0.00597831141
  endloop
 endfacet

 facet normal -1 0 0
  outer loop
  vertex -0.159364298 2.32338534e-05 0.0106177395
  vertex -0.159364298 -0.00552834617 0.00597831141
  vertex -0.159364298 -0.00552834617 0.00982282963
  endloop
 endfacet

 facet normal -1 0 0
  outer loop
  vertex -0.159364298 2.32338534e-05 0.0106177395
  vertex -0.159364298 -0.00552834617 0.00982282963
  vertex -0.159364298 -0.00373849226 0.0106177395
  endloop
 endfacet

 facet normal -1 -8.18495755e-06 0.000100176454
  outer loop
  vertex -0.159363911 2.22552571e-05 0.0148341404
  vertex -0.159364298 -0.00373849226 0.0106177395
  vertex -0.159363911 -0.00446559023 0.0144674592
  endloop
 endfacet

 facet normal 0 -0.974807143 0.223049507
  outer loop
  vertex -0.15536429 -0.00446559023 0.0144674592
  vertex -0.159363911 -0.00446559023 0.0144674592
  vertex -0.159364298 -0.00552834617 0.00982282963
  endloop
 endfacet

 facet normal 0 -0.974807143 0.223049507
  outer loop
  vertex -0.15536429 -0.00446559023 0.0144674592
  vertex -0.159364298 -0.00552834617 0.00982282963
  vertex -0.157364294 -0.00552834617 0.00982282963
  endloop
 endfacet

 facet normal 0.121974908 -0.977660358 0.17117928
  outer loop
  vertex -0.15536429 -0.00446559023 0.0144674592
  vertex -0.157364294 -0.00552834617 0.00982282963
  vertex -0.15536429 -0.00552834617 0.00839771423
  endloop
 endfacet

 facet normal 0 0 -1
  outer loop
  vertex -0.15536429 -0.00260038441 0.00597831141
  vertex -0.15536429 -0.00507427659 0.00597831141
  vertex -0.15569514 -0.00552834617 0.00597831141
  endloop
 endfacet

 facet normal 0 0 -1
  outer loop
  vertex -0.15536429 -0.00260038441 0.00597831141
  vertex -0.15569514 -0.00552834617 0.00597831141
  vertex -0.159364298 -0.00552834617 0.00597831141
  endloop
 endfacet

 facet normal 0 0 -1
  outer loop
  vertex -0.15536429 -0.00260038441 0.00597831141
  vertex -0.159364298 -0.00552834617 0.00597831141
  vertex -0.159364298 -0.00260038441 0.00597831141
  endloop
 endfacet

 facet normal -0.999999881 0.000243000628 -0.0002451537
  outer loop
  vertex -0.159363911 0.00373015879 0.0106558809
  vertex -0.159364298 -0.00260038441 0.00597831141
  vertex -0.159364298 2.32338534e-05 0.00857888721
  endloop
 endfacet

 facet normal -1 -4.16806943e-05 9.38500962e-05
  outer loop
  vertex -0.159364298 -0.00373849226 0.0106177395
  vertex -0.159364298 -0.00552834617 0.00982282963
  vertex -0.159363911 -0.00446559023 0.0144674592
  endloop
 endfacet

 facet normal 0 -1 0
  outer loop
  vertex -0.157364294 -0.00552834617 0.00982282963
  vertex -0.159364298 -0.00552834617 0.00982282963
  vertex -0.159364298 -0.00552834617 0.00597831141
  endloop
 endfacet

 facet normal 0 -1 0
  outer loop
  vertex -0.157364294 -0.00552834617 0.00982282963
  vertex -0.159364298 -0.00552834617 0.00597831141
  vertex -0.15569514 -0.00552834617 0.00597831141
  endloop
 endfacet

 facet normal 0 -1 0
  outer loop
  vertex -0.157364294 -0.00552834617 0.00982282963
  vertex -0.15569514 -0.00552834617 0.00597831141
  vertex -0.15536429 -0.00552834617 0.00598091166
  endloop
 endfacet

 facet normal 0 -1 0
  outer loop
  vertex -0.157364294 -0.00552834617 0.00982282963
  vertex -0.15536429 -0.00552834617 0.00598091166
  vertex -0.15536429 -0.00552834617 0.00839771423
  endloop
 endfacet

 facet normal 0.00785973761 -0.0057269386 -0.999952674
  outer loop
  vertex -0.15536429 -0.00507427659 0.00597831141
  vertex -0.15536429 -0.00552834617 0.00598091166
  vertex -0.15569514 -0.00552834617 0.00597831141
  endloop
 endfacet

endsolid AssimpScene
