solid AssimpScene
 facet normal 0.980316818 0 0.197430894
  outer loop
  vertex -0.127725422 0.0314178914 0.0147239659
  vertex -0.127725422 0.02497367 0.0147239659
  vertex -0.125964299 0.0201729797 0.005979368
  endloop
 endfacet

 facet normal 0.980316818 0 0.197430894
  outer loop
  vertex -0.127725422 0.0314178914 0.0147239659
  vertex -0.125964299 0.0201729797 0.005979368
  vertex -0.125964299 0.0294165947 0.005979368
  endloop
 endfacet

 facet normal 0.750717878 0.660622954 0
  outer loop
  vertex -0.127725422 0.0314178914 0.0147239659
  vertex -0.125964299 0.0294165947 0.005979368
  vertex -0.125964299 0.0294165947 0.00407999987
  endloop
 endfacet

 facet normal 0.750717878 0.660622954 0
  outer loop
  vertex -0.127725422 0.0314178914 0.0147239659
  vertex -0.125964299 0.0294165947 0.00407999987
  vertex -0.127725422 0.0314178914 0.0059814523
  endloop
 endfacet

 facet normal 0 1 0
  outer loop
  vertex -0.127725422 0.0314178914 0.0147239659
  vertex -0.127725422 0.0314178914 0.0059814523
  vertex -0.137723505 0.0314178914 0.0059814523
  endloop
 endfacet

 facet normal 0 1 0
  outer loop
  vertex -0.127725422 0.0314178914 0.0147239659
  vertex -0.137723505 0.0314178914 0.0059814523
  vertex -0.137723505 0.0314178914 0.0147239659
  endloop
 endfacet

 facet normal 0 0 1
  outer loop
  vertex -0.127725422 0.0314178914 0.0147239659
  vertex -0.137723505 0.0314178914 0.0147239659
  vertex -0.137723505 0.0201718789 0.0147239659
  endloop
 endfacet

 facet normal 0 0 1
  outer loop
  vertex -0.127725422 0.0314178914 0.0147239659
  vertex -0.137723505 0.0201718789 0.0147239659
  vertex -0.127978653 0.0201718789 0.0147239659
  endloop
 endfacet

 facet normal 0 0 1
  outer loop
  vertex -0.127725422 0.0314178914 0.0147239659
  vertex -0.127978653 0.0201718789 0.0147239659
  vertex -0.127725422 0.02497367 0.0147239659
  endloop
 endfacet

 facet normal 0.973196924 -0.0513235852 0.224173054
  outer loop
  vertex -0.127725422 0.02497367 0.0147239659
  vertex -0.127978653 0.0201718789 0.0147239659
  vertex -0.125964299 0.0201729797 0.005979368
  endloop
 endfacet

 facet normal 1 0 0
  outer loop
  vertex -0.125964299 0.0294165947 0.005979368
  vertex -0.125964299 0.0201729797 0.005979368
  vertex -0.125964299 0.0201729797 0.00407999987
  endloop
 endfacet

 facet normal 1 0 0
  outer loop
  vertex -0.125964299 0.0294165947 0.005979368
  vertex -0.125964299 0.0201729797 0.00407999987
  vertex -0.125964299 0.0294165947 0.00407999987
  endloop
 endfacet

 facet normal 0 0.688791335 -0.724959671
  outer loop
  vertex -0.127725422 0.0314178914 0.0059814523
  vertex -0.125964299 0.0294165947 0.00407999987
  vertex -0.131414562 0.0294165947 0.00407999987
  endloop
 endfacet

 facet normal 0 0.688791335 -0.724959671
  outer loop
  vertex -0.127725422 0.0314178914 0.0059814523
  vertex -0.131414562 0.0294165947 0.00407999987
  vertex -0.137723505 0.0314178914 0.0059814523
  endloop
 endfacet

 facet normal -1 0 0
  outer loop
  vertex -0.137723505 0.0314178914 0.0147239659
  vertex -0.137723505 0.0314178914 0.0059814523
  vertex -0.137723505 0.0201718789 0.0059814523
  endloop
 endfacet

 facet normal -1 0 0
  outer loop
  vertex -0.137723505 0.0314178914 0.0147239659
  vertex -0.137723505 0.0201718789 0.0059814523
  vertex -0.137723505 0.0201718789 0.0147239659
  endloop
 endfacet

 facet normal 0 -1 0
  outer loop
  vertex -0.127978653 0.0201718789 0.0147239659
  vertex -0.137723505 0.0201718789 0.0147239659
  vertex -0.137723505 0.0201718789 0.0059814523
  endloop
 endfacet

 facet normal 0 -1 0
  outer loop
  vertex -0.127978653 0.0201718789 0.0147239659
  vertex -0.137723505 0.0201718789 0.0059814523
  vertex -0.13141571 0.0201718789 0.00598041015
  endloop
 endfacet

 facet normal 0 -1 0
  outer loop
  vertex -0.127978653 0.0201718789 0.0147239659
  vertex -0.13141571 0.0201718789 0.00598041015
  vertex -0.127978653 0.0201718789 0.00598041015
  endloop
 endfacet

 facet normal 0.000546715106 -0.999999881 0
  outer loop
  vertex -0.127978653 0.0201718789 0.0147239659
  vertex -0.127978653 0.0201718789 0.00598041015
  vertex -0.125964299 0.0201729797 0.00407999987
  endloop
 endfacet

 facet normal 0.000546715106 -0.999999881 0
  outer loop
  vertex -0.127978653 0.0201718789 0.0147239659
  vertex -0.125964299 0.0201729797 0.00407999987
  vertex -0.125964299 0.0201729797 0.005979368
  endloop
 endfacet

 facet normal 0 0 -1
  outer loop
  vertex -0.125964299 0.0294165947 0.00407999987
  vertex -0.125964299 0.0201729797 0.00407999987
  vertex -0.131414562 0.0201729797 0.00407999987
  endloop
 endfacet

 facet normal 0 0 -1
  outer loop
  vertex -0.125964299 0.0294165947 0.00407999987
  vertex -0.131414562 0.0201729797 0.00407999987
  vertex -0.131414562 0.0294165947 0.00407999987
  endloop
 endfacet

 facet normal -0.288568527 0 -0.957459211
  outer loop
  vertex -0.137723505 0.0314178914 0.0059814523
  vertex -0.131414562 0.0294165947 0.00407999987
  vertex -0.131414562 0.0201729797 0.00407999987
  endloop
 endfacet

 facet normal -0.288568527 0 -0.957459211
  outer loop
  vertex -0.137723505 0.0314178914 0.0059814523
  vertex -0.131414562 0.0201729797 0.00407999987
  vertex -0.137723505 0.0201718789 0.0059814523
  endloop
 endfacet

 facet normal 0 -0.999999881 -0.000579493702
  outer loop
  vertex -0.127978653 0.0201718789 0.00598041015
  vertex -0.13141571 0.0201718789 0.00598041015
  vertex -0.131414562 0.0201729797 0.00407999987
  endloop
 endfacet

 facet normal 0 -0.999999881 -0.000579493702
  outer loop
  vertex -0.127978653 0.0201718789 0.00598041015
  vertex -0.131414562 0.0201729797 0.00407999987
  vertex -0.125964299 0.0201729797 0.00407999987
  endloop
 endfacet

 facet normal -9.57082449e-08 -0.999999881 -0.000579493761
  outer loop
  vertex -0.137723505 0.0201718789 0.0059814523
  vertex -0.131414562 0.0201729797 0.00407999987
  vertex -0.13141571 0.0201718789 0.00598041015
  endloop
 endfacet

endsolid AssimpScene
