solid AssimpScene
 facet normal 0 -1 0
  outer loop
  vertex -0.157363802 0.0152045507 0.00301848026
  vertex -0.15536429 0.0152045507 0.00301848026
  vertex -0.15536429 0.0152045507 0.00597697264
  endloop
 endfacet

 facet normal 0 -1 0
  outer loop
  vertex -0.157363802 0.0152045507 0.00301848026
  vertex -0.15536429 0.0152045507 0.00597697264
  vertex -0.157367736 0.0152045507 0.00597697264
  endloop
 endfacet

 facet normal 0 -1 0
  outer loop
  vertex -0.157363802 0.0152045507 0.00301848026
  vertex -0.157367736 0.0152045507 0.00597697264
  vertex -0.157367736 0.0152045507 0.00448304554
  endloop
 endfacet

 facet normal -0.0338057689 -0.999428451 -9.05342386e-05
  outer loop
  vertex -0.157363802 0.0152045507 0.00301848026
  vertex -0.157367736 0.0152045507 0.00448304554
  vertex -0.157364205 0.015205021 -0.00202000071
  endloop
 endfacet

 facet normal 0 -1 -9.32194816e-05
  outer loop
  vertex -0.157363802 0.0152045507 0.00301848026
  vertex -0.157364205 0.015205021 -0.00202000071
  vertex -0.15536429 0.015205021 -0.00202000071
  endloop
 endfacet

 facet normal 0 -1 -9.32194816e-05
  outer loop
  vertex -0.157363802 0.0152045507 0.00301848026
  vertex -0.15536429 0.015205021 -0.00202000071
  vertex -0.15536429 0.0152045507 0.00301848026
  endloop
 endfacet

 facet normal 1 0 0
  outer loop
  vertex -0.15536429 0.0152045507 0.00301848026
  vertex -0.15536429 0.015205021 -0.00202000071
  vertex -0.15536429 0.0199990608 -0.00202000071
  endloop
 endfacet

 facet normal 1 0 0
  outer loop
  vertex -0.15536429 0.0152045507 0.00301848026
  vertex -0.15536429 0.0199990608 -0.00202000071
  vertex -0.15536429 0.0199999996 0.00128378638
  endloop
 endfacet

 facet normal 1 0 0
  outer loop
  vertex -0.15536429 0.0152045507 0.00301848026
  vertex -0.15536429 0.0199999996 0.00128378638
  vertex -0.15536429 0.0199999996 0.00997839496
  endloop
 endfacet

 facet normal 1 0 0
  outer loop
  vertex -0.15536429 0.0152045507 0.00301848026
  vertex -0.15536429 0.0199999996 0.00997839496
  vertex -0.15536429 0.0171521138 0.00997839496
  endloop
 endfacet

 facet normal 1 0 0
  outer loop
  vertex -0.15536429 0.0152045507 0.00301848026
  vertex -0.15536429 0.0171521138 0.00997839496
  vertex -0.15536429 0.0152054904 0.00894133747
  endloop
 endfacet

 facet normal 1 0 0
  outer loop
  vertex -0.15536429 0.0152045507 0.00301848026
  vertex -0.15536429 0.0152054904 0.00894133747
  vertex -0.15536429 0.0152045507 0.00597697264
  endloop
 endfacet

 facet normal -1 0 0
  outer loop
  vertex -0.157367736 0.0152045507 0.00448304554
  vertex -0.157367736 0.0152045507 0.00597697264
  vertex -0.157367736 0.0166423395 0.00597697264
  endloop
 endfacet

 facet normal -1 0 0
  outer loop
  vertex -0.157367736 0.0152045507 0.00448304554
  vertex -0.157367736 0.0166423395 0.00597697264
  vertex -0.157367736 0.0199999996 0.00597579824
  endloop
 endfacet

 facet normal -1 0 0
  outer loop
  vertex -0.157367736 0.0152045507 0.00448304554
  vertex -0.157367736 0.0199999996 0.00597579824
  vertex -0.157367736 0.0199999996 0.00128378638
  endloop
 endfacet

 facet normal -1 0 0
  outer loop
  vertex -0.157367736 0.0152045507 0.00448304554
  vertex -0.157367736 0.0199999996 0.00128378638
  vertex -0.157367736 0.0184030812 0.00128378638
  endloop
 endfacet

 facet normal -0.999999702 -0.00054297538 -0.000542851747
  outer loop
  vertex -0.157367736 0.0152045507 0.00448304554
  vertex -0.157367736 0.0184030812 0.00128378638
  vertex -0.157364205 0.015205021 -0.00202000071
  endloop
 endfacet

 facet normal -0.999999464 0 -0.00106845098
  outer loop
  vertex -0.157364205 0.015205021 -0.00202000071
  vertex -0.157367736 0.0184030812 0.00128378638
  vertex -0.157367736 0.0199999996 0.00128378638
  endloop
 endfacet

 facet normal -0.999999464 0 -0.00106845098
  outer loop
  vertex -0.157364205 0.015205021 -0.00202000071
  vertex -0.157367736 0.0199999996 0.00128378638
  vertex -0.157364205 0.0199990608 -0.00202000071
  endloop
 endfacet

 facet normal 0 0 -1
  outer loop
  vertex -0.157364205 0.015205021 -0.00202000071
  vertex -0.157364205 0.0199990608 -0.00202000071
  vertex -0.15536429 0.0199990608 -0.00202000071
  endloop
 endfacet

 facet normal 0 0 -1
  outer loop
  vertex -0.157364205 0.015205021 -0.00202000071
  vertex -0.15536429 0.0199990608 -0.00202000071
  vertex -0.15536429 0.015205021 -0.00202000071
  endloop
 endfacet

 facet normal 0 -0.99999994 0.000316887163
  outer loop
  vertex -0.15536429 0.0152045507 0.00597697264
  vertex -0.15536429 0.0152054904 0.00894133747
  vertex -0.157364205 0.0152054904 0.00894133747
  endloop
 endfacet

 facet normal 0 -0.99999994 0.000316887163
  outer loop
  vertex -0.15536429 0.0152045507 0.00597697264
  vertex -0.157364205 0.0152054904 0.00894133747
  vertex -0.157367736 0.0152045507 0.00597697264
  endloop
 endfacet

 facet normal -0.999999046 -0.000635108736 0.00119099009
  outer loop
  vertex -0.157367736 0.0152045507 0.00597697264
  vertex -0.157364205 0.0152054904 0.00894133747
  vertex -0.157364205 0.0171502363 0.00997839496
  endloop
 endfacet

 facet normal -0.999999642 0 0.00088216993
  outer loop
  vertex -0.157367736 0.0152045507 0.00597697264
  vertex -0.157364205 0.0171502363 0.00997839496
  vertex -0.157364205 0.0199999996 0.00997839496
  endloop
 endfacet

 facet normal -0.999999642 0 0.00088216993
  outer loop
  vertex -0.157367736 0.0152045507 0.00597697264
  vertex -0.157364205 0.0199999996 0.00997839496
  vertex -0.157367736 0.0166423395 0.00597697264
  endloop
 endfacet

 facet normal 0 0.99999994 -0.000284331036
  outer loop
  vertex -0.157364205 0.0199990608 -0.00202000071
  vertex -0.157367736 0.0199999996 0.00128378638
  vertex -0.15536429 0.0199999996 0.00128378638
  endloop
 endfacet

 facet normal 0 0.99999994 -0.000284331036
  outer loop
  vertex -0.157364205 0.0199990608 -0.00202000071
  vertex -0.15536429 0.0199999996 0.00128378638
  vertex -0.15536429 0.0199990608 -0.00202000071
  endloop
 endfacet

 facet normal 0.000448050996 -0.470185131 0.882567763
  outer loop
  vertex -0.15536429 0.0152054904 0.00894133747
  vertex -0.15536429 0.0171521138 0.00997839496
  vertex -0.157334596 0.0171502363 0.00997839496
  endloop
 endfacet

 facet normal 0 -0.470538616 0.882379413
  outer loop
  vertex -0.15536429 0.0152054904 0.00894133747
  vertex -0.157334596 0.0171502363 0.00997839496
  vertex -0.157364205 0.0171502363 0.00997839496
  endloop
 endfacet

 facet normal 0 -0.470538616 0.882379413
  outer loop
  vertex -0.15536429 0.0152054904 0.00894133747
  vertex -0.157364205 0.0171502363 0.00997839496
  vertex -0.157364205 0.0152054904 0.00894133747
  endloop
 endfacet

 facet normal 0 0 1
  outer loop
  vertex -0.157364205 0.0171502363 0.00997839496
  vertex -0.157334596 0.0171502363 0.00997839496
  vertex -0.15536429 0.0171521138 0.00997839496
  endloop
 endfacet

 facet normal 0 0 1
  outer loop
  vertex -0.157364205 0.0171502363 0.00997839496
  vertex -0.15536429 0.0171521138 0.00997839496
  vertex -0.15536429 0.0199999996 0.00997839496
  endloop
 endfacet

 facet normal 0 0 1
  outer loop
  vertex -0.157364205 0.0171502363 0.00997839496
  vertex -0.15536429 0.0199999996 0.00997839496
  vertex -0.157364205 0.0199999996 0.00997839496
  endloop
 endfacet

 facet normal -0.999999642 3.08492531e-07 0.000881911139
  outer loop
  vertex -0.157367736 0.0166423395 0.00597697264
  vertex -0.157364205 0.0199999996 0.00997839496
  vertex -0.157367736 0.0199999996 0.00597579824
  endloop
 endfacet

 facet normal 0 1 0
  outer loop
  vertex -0.157367736 0.0199999996 0.00128378638
  vertex -0.157367736 0.0199999996 0.00597579824
  vertex -0.157364205 0.0199999996 0.00997839496
  endloop
 endfacet

 facet normal 0 1 0
  outer loop
  vertex -0.157367736 0.0199999996 0.00128378638
  vertex -0.157364205 0.0199999996 0.00997839496
  vertex -0.15536429 0.0199999996 0.00997839496
  endloop
 endfacet

 facet normal 0 1 0
  outer loop
  vertex -0.157367736 0.0199999996 0.00128378638
  vertex -0.15536429 0.0199999996 0.00997839496
  vertex -0.15536429 0.0199999996 0.00128378638
  endloop
 endfacet

endsolid AssimpScene
