solid AssimpScene
 facet normal -1 0 0
  outer loop
  vertex -0.126025528 0.0294176005 -0.00704000005
  vertex -0.126025528 0.0294176005 -0.00303369272
  vertex -0.126025528 0.0314178914 -0.00303369272
  endloop
 endfacet

 facet normal -1 0 0
  outer loop
  vertex -0.126025528 0.0294176005 -0.00704000005
  vertex -0.126025528 0.0314178914 -0.00303369272
  vertex -0.126025528 0.0314178914 -0.00704000005
  endloop
 endfacet

 facet normal 0 0 -1
  outer loop
  vertex -0.126025528 0.0294176005 -0.00704000005
  vertex -0.126025528 0.0314178914 -0.00704000005
  vertex -0.116985783 0.0314178914 -0.00704000005
  endloop
 endfacet

 facet normal 0 0 -1
  outer loop
  vertex -0.126025528 0.0294176005 -0.00704000005
  vertex -0.116985783 0.0314178914 -0.00704000005
  vertex -0.116981357 0.0237816274 -0.00704000005
  endloop
 endfacet

 facet normal 0 0 -1
  outer loop
  vertex -0.126025528 0.0294176005 -0.00704000005
  vertex -0.116981357 0.0237816274 -0.00704000005
  vertex -0.116981357 0.00420753751 -0.00704000005
  endloop
 endfacet

 facet normal 0 0 -1
  outer loop
  vertex -0.126025528 0.0294176005 -0.00704000005
  vertex -0.116981357 0.00420753751 -0.00704000005
  vertex -0.125963554 0.00420753751 -0.00704000005
  endloop
 endfacet

 facet normal -0.99999702 -0.00245815213 0
  outer loop
  vertex -0.126025528 0.0294176005 -0.00704000005
  vertex -0.125963554 0.00420753751 -0.00704000005
  vertex -0.125963554 0.00420753751 -0.00303369272
  endloop
 endfacet

 facet normal -0.99999702 -0.00245815213 0
  outer loop
  vertex -0.126025528 0.0294176005 -0.00704000005
  vertex -0.125963554 0.00420753751 -0.00303369272
  vertex -0.126025528 0.0294176005 -0.00303369272
  endloop
 endfacet

 facet normal 0 0 1
  outer loop
  vertex -0.126025528 0.0294176005 -0.00303369272
  vertex -0.125963554 0.00420753751 -0.00303369272
  vertex -0.124679871 0.00420753751 -0.00303369272
  endloop
 endfacet

 facet normal 0 0 1
  outer loop
  vertex -0.126025528 0.0294176005 -0.00303369272
  vertex -0.124679871 0.00420753751 -0.00303369272
  vertex -0.116985783 0.0267967116 -0.00303369272
  endloop
 endfacet

 facet normal 0 0 1
  outer loop
  vertex -0.126025528 0.0294176005 -0.00303369272
  vertex -0.116985783 0.0267967116 -0.00303369272
  vertex -0.116985783 0.0314178914 -0.00303369272
  endloop
 endfacet

 facet normal 0 0 1
  outer loop
  vertex -0.126025528 0.0294176005 -0.00303369272
  vertex -0.116985783 0.0314178914 -0.00303369272
  vertex -0.126025528 0.0314178914 -0.00303369272
  endloop
 endfacet

 facet normal 0 1 0
  outer loop
  vertex -0.126025528 0.0314178914 -0.00704000005
  vertex -0.126025528 0.0314178914 -0.00303369272
  vertex -0.116985783 0.0314178914 -0.00303369272
  endloop
 endfacet

 facet normal 0 1 0
  outer loop
  vertex -0.126025528 0.0314178914 -0.00704000005
  vertex -0.116985783 0.0314178914 -0.00303369272
  vertex -0.116985783 0.0314178914 -0.00704000005
  endloop
 endfacet

 facet normal 0 -1 0
  outer loop
  vertex -0.125963554 0.00420753751 -0.00704000005
  vertex -0.116981357 0.00420753751 -0.00704000005
  vertex -0.116981357 0.00420753751 -0.00304035936
  endloop
 endfacet

 facet normal 0 -1 0
  outer loop
  vertex -0.125963554 0.00420753751 -0.00704000005
  vertex -0.116981357 0.00420753751 -0.00304035936
  vertex -0.124679871 0.00420753751 -0.00303369272
  endloop
 endfacet

 facet normal 0 -1 0
  outer loop
  vertex -0.125963554 0.00420753751 -0.00704000005
  vertex -0.124679871 0.00420753751 -0.00303369272
  vertex -0.125963554 0.00420753751 -0.00303369272
  endloop
 endfacet

 facet normal 0.999999881 0.000579618965 0
  outer loop
  vertex -0.116985783 0.0314178914 -0.00704000005
  vertex -0.116985783 0.0314178914 -0.00303369272
  vertex -0.116981357 0.0237816274 -0.00304035936
  endloop
 endfacet

 facet normal 0.999999881 0.000579618965 0
  outer loop
  vertex -0.116985783 0.0314178914 -0.00704000005
  vertex -0.116981357 0.0237816274 -0.00304035936
  vertex -0.116981357 0.0237816274 -0.00704000005
  endloop
 endfacet

 facet normal 1 0 0
  outer loop
  vertex -0.116981357 0.00420753751 -0.00704000005
  vertex -0.116981357 0.0237816274 -0.00704000005
  vertex -0.116981357 0.0237816274 -0.00304035936
  endloop
 endfacet

 facet normal 1 0 0
  outer loop
  vertex -0.116981357 0.00420753751 -0.00704000005
  vertex -0.116981357 0.0237816274 -0.00304035936
  vertex -0.116981357 0.00420753751 -0.00304035936
  endloop
 endfacet

 facet normal 0.833103418 0 0.553117275
  outer loop
  vertex -0.116985783 0.0314178914 -0.00303369272
  vertex -0.116985783 0.0267967116 -0.00303369272
  vertex -0.116981357 0.00420753751 -0.00304035936
  endloop
 endfacet

 facet normal 0.833103418 0 0.553117275
  outer loop
  vertex -0.116985783 0.0314178914 -0.00303369272
  vertex -0.116981357 0.00420753751 -0.00304035936
  vertex -0.116981357 0.0237816274 -0.00304035936
  endloop
 endfacet

 facet normal 0.000865960144 -0.000294954429 0.999999523
  outer loop
  vertex -0.124679871 0.00420753751 -0.00303369272
  vertex -0.116981357 0.00420753751 -0.00304035936
  vertex -0.116985783 0.0267967116 -0.00303369272
  endloop
 endfacet

endsolid AssimpScene
