solid AssimpScene
 facet normal 0 0 1
  outer loop
  vertex 0.0282867365 0.0014331548 0.015639903
  vertex 0.0294319298 0.00176878239 0.015639903
  vertex 0.030193923 0.00204325072 0.015639903
  endloop
 endfacet

 facet normal 0 0 1
  outer loop
  vertex 0.0282867365 0.0014331548 0.015639903
  vertex 0.030193923 0.00204325072 0.015639903
  vertex 0.0312466212 0.00262798811 0.015639903
  endloop
 endfacet

 facet normal 0 0 1
  outer loop
  vertex 0.0282867365 0.0014331548 0.015639903
  vertex 0.0312466212 0.00262798811 0.015639903
  vertex 0.0314462967 0.00273986394 0.015639903
  endloop
 endfacet

 facet normal 0 0 1
  outer loop
  vertex 0.0282867365 0.0014331548 0.015639903
  vertex 0.0314462967 0.00273986394 0.015639903
  vertex 0.0320834927 0.00331266806 0.015639903
  endloop
 endfacet

 facet normal 0 0 1
  outer loop
  vertex 0.0282867365 0.0014331548 0.015639903
  vertex 0.0320834927 0.00331266806 0.015639903
  vertex 0.0326281935 0.00385563867 0.015639903
  endloop
 endfacet

 facet normal 0 0 1
  outer loop
  vertex 0.0282867365 0.0014331548 0.015639903
  vertex 0.0326281935 0.00385563867 0.015639903
  vertex 0.033200793 0.00449258462 0.015639903
  endloop
 endfacet

 facet normal 0 0 1
  outer loop
  vertex 0.0282867365 0.0014331548 0.015639903
  vertex 0.033200793 0.00449258462 0.015639903
  vertex 0.0338981859 0.00574260997 0.015639903
  endloop
 endfacet

 facet normal 0 0 1
  outer loop
  vertex 0.0282867365 0.0014331548 0.015639903
  vertex 0.0338981859 0.00574260997 0.015639903
  vertex 0.0341698006 0.00650634849 0.015639903
  endloop
 endfacet

 facet normal 0 0 1
  outer loop
  vertex 0.0282867365 0.0014331548 0.015639903
  vertex 0.0341698006 0.00650634849 0.015639903
  vertex 0.0345118903 0.00764897326 0.015639903
  endloop
 endfacet

 facet normal 0 0 1
  outer loop
  vertex 0.0282867365 0.0014331548 0.015639903
  vertex 0.0345118903 0.00764897326 0.015639903
  vertex 0.0345001481 0.00893629063 0.015639903
  endloop
 endfacet

 facet normal 0 0 1
  outer loop
  vertex 0.0282867365 0.0014331548 0.015639903
  vertex 0.0345001481 0.00893629063 0.015639903
  vertex 0.0344825275 0.009556829 0.015639903
  endloop
 endfacet

 facet normal 0 0 1
  outer loop
  vertex 0.0282867365 0.0014331548 0.015639903
  vertex 0.0344825275 0.009556829 0.015639903
  vertex 0.0344810598 0.00957472902 0.015639903
  endloop
 endfacet

 facet normal 0 0 1
  outer loop
  vertex 0.0282867365 0.0014331548 0.015639903
  vertex 0.0344810598 0.00957472902 0.015639903
  vertex 0.0343724117 0.0100669824 0.015639903
  endloop
 endfacet

 facet normal 0 0 1
  outer loop
  vertex 0.0282867365 0.0014331548 0.015639903
  vertex 0.0343724117 0.0100669824 0.015639903
  vertex 0.0341976993 0.0108143128 0.015639903
  endloop
 endfacet

 facet normal 0 0 1
  outer loop
  vertex 0.0282867365 0.0014331548 0.015639903
  vertex 0.0341976993 0.0108143128 0.015639903
  vertex 0.0339789353 0.0114408173 0.015639903
  endloop
 endfacet

 facet normal 0 0 1
  outer loop
  vertex 0.0282867365 0.0014331548 0.015639903
  vertex 0.0339789353 0.0114408173 0.015639903
  vertex 0.0335649066 0.0123089729 0.015639903
  endloop
 endfacet

 facet normal 0 0 1
  outer loop
  vertex 0.0282867365 0.0014331548 0.015639903
  vertex 0.0335649066 0.0123089729 0.015639903
  vertex 0.0334738754 0.012446207 0.015639903
  endloop
 endfacet

 facet normal 0 0 1
  outer loop
  vertex 0.0282867365 0.0014331548 0.015639903
  vertex 0.0334738754 0.012446207 0.015639903
  vertex 0.0324123688 0.013927443 0.015639903
  endloop
 endfacet

 facet normal 0 0 1
  outer loop
  vertex 0.0282867365 0.0014331548 0.015639903
  vertex 0.0324123688 0.013927443 0.015639903
  vertex 0.0322391242 0.014154179 0.015639903
  endloop
 endfacet

 facet normal 0 0 1
  outer loop
  vertex 0.0282867365 0.0014331548 0.015639903
  vertex 0.0322391242 0.014154179 0.015639903
  vertex 0.031637162 0.0148299085 0.015639903
  endloop
 endfacet

 facet normal 0 0 1
  outer loop
  vertex 0.0282867365 0.0014331548 0.015639903
  vertex 0.031637162 0.0148299085 0.015639903
  vertex 0.0309383012 0.015456412 0.015639903
  endloop
 endfacet

 facet normal 0 0 1
  outer loop
  vertex 0.0282867365 0.0014331548 0.015639903
  vertex 0.0309383012 0.015456412 0.015639903
  vertex 0.0301528145 0.0159024242 0.015639903
  endloop
 endfacet

 facet normal 0 0 1
  outer loop
  vertex 0.0282867365 0.0014331548 0.015639903
  vertex 0.0301528145 0.0159024242 0.015639903
  vertex 0.0282676499 0.0165244527 0.015639903
  endloop
 endfacet

 facet normal 0 0 1
  outer loop
  vertex 0.0282867365 0.0014331548 0.015639903
  vertex 0.0282676499 0.0165244527 0.015639903
  vertex 0.0276377928 0.0166452788 0.015639903
  endloop
 endfacet

 facet normal 0 0 1
  outer loop
  vertex 0.0282867365 0.0014331548 0.015639903
  vertex 0.0276377928 0.0166452788 0.015639903
  vertex 0.0270123407 0.0166721288 0.015639903
  endloop
 endfacet

 facet normal 0 0 1
  outer loop
  vertex 0.0282867365 0.0014331548 0.015639903
  vertex 0.0270123407 0.0166721288 0.015639903
  vertex 0.0265894998 0.0166691467 0.015639903
  endloop
 endfacet

 facet normal 0 0 1
  outer loop
  vertex 0.0282867365 0.0014331548 0.015639903
  vertex 0.0265894998 0.0166691467 0.015639903
  vertex 0.0259831324 0.0166467708 0.015639903
  endloop
 endfacet

 facet normal 0 0 1
  outer loop
  vertex 0.0282867365 0.0014331548 0.015639903
  vertex 0.0259831324 0.0166467708 0.015639903
  vertex 0.0250655096 0.0164573267 0.015639903
  endloop
 endfacet

 facet normal 0 0 1
  outer loop
  vertex 0.0282867365 0.0014331548 0.015639903
  vertex 0.0250655096 0.0164573267 0.015639903
  vertex 0.0239555519 0.0160844084 0.015639903
  endloop
 endfacet

 facet normal 0 0 1
  outer loop
  vertex 0.0282867365 0.0014331548 0.015639903
  vertex 0.0239555519 0.0160844084 0.015639903
  vertex 0.0232053045 0.0157994982 0.015639903
  endloop
 endfacet

 facet normal 0 0 1
  outer loop
  vertex 0.0282867365 0.0014331548 0.015639903
  vertex 0.0232053045 0.0157994982 0.015639903
  vertex 0.0215814784 0.0145181473 0.015639903
  endloop
 endfacet

 facet normal 0 0 1
  outer loop
  vertex 0.0282867365 0.0014331548 0.015639903
  vertex 0.0215814784 0.0145181473 0.015639903
  vertex 0.0214214437 0.0143570472 0.015639903
  endloop
 endfacet

 facet normal 0 0 1
  outer loop
  vertex 0.0282867365 0.0014331548 0.015639903
  vertex 0.0214214437 0.0143570472 0.015639903
  vertex 0.0201426446 0.0127341012 0.015639903
  endloop
 endfacet

 facet normal 0 0 1
  outer loop
  vertex 0.0282867365 0.0014331548 0.015639903
  vertex 0.0201426446 0.0127341012 0.015639903
  vertex 0.0198578145 0.0119808037 0.015639903
  endloop
 endfacet

 facet normal 0 0 1
  outer loop
  vertex 0.0282867365 0.0014331548 0.015639903
  vertex 0.0198578145 0.0119808037 0.015639903
  vertex 0.0195127893 0.0108888969 0.015639903
  endloop
 endfacet

 facet normal 0 0 1
  outer loop
  vertex 0.0282867365 0.0014331548 0.015639903
  vertex 0.0195127893 0.0108888969 0.015639903
  vertex 0.0195127893 0.00755052222 0.015639903
  endloop
 endfacet

 facet normal 0 0 1
  outer loop
  vertex 0.0282867365 0.0014331548 0.015639903
  vertex 0.0195127893 0.00755052222 0.015639903
  vertex 0.0198431332 0.00641535642 0.015639903
  endloop
 endfacet

 facet normal 0 0 1
  outer loop
  vertex 0.0282867365 0.0014331548 0.015639903
  vertex 0.0198431332 0.00641535642 0.015639903
  vertex 0.0200765766 0.0057858685 0.015639903
  endloop
 endfacet

 facet normal 0 0 1
  outer loop
  vertex 0.0282867365 0.0014331548 0.015639903
  vertex 0.0200765766 0.0057858685 0.015639903
  vertex 0.0204773936 0.00502362195 0.015639903
  endloop
 endfacet

 facet normal 0 0 1
  outer loop
  vertex 0.0282867365 0.0014331548 0.015639903
  vertex 0.0204773936 0.00502362195 0.015639903
  vertex 0.020798929 0.00460595218 0.015639903
  endloop
 endfacet

 facet normal 0 0 1
  outer loop
  vertex 0.0282867365 0.0014331548 0.015639903
  vertex 0.020798929 0.00460595218 0.015639903
  vertex 0.021079354 0.00426435797 0.015639903
  endloop
 endfacet

 facet normal 0 0 1
  outer loop
  vertex 0.0282867365 0.0014331548 0.015639903
  vertex 0.021079354 0.00426435797 0.015639903
  vertex 0.0213685893 0.00391978072 0.015639903
  endloop
 endfacet

 facet normal 0 0 1
  outer loop
  vertex 0.0282867365 0.0014331548 0.015639903
  vertex 0.0213685893 0.00391978072 0.015639903
  vertex 0.022001382 0.00329625956 0.015639903
  endloop
 endfacet

 facet normal 0 0 1
  outer loop
  vertex 0.0282867365 0.0014331548 0.015639903
  vertex 0.022001382 0.00329625956 0.015639903
  vertex 0.0223508142 0.0030053826 0.015639903
  endloop
 endfacet

 facet normal 0 0 1
  outer loop
  vertex 0.0282867365 0.0014331548 0.015639903
  vertex 0.0223508142 0.0030053826 0.015639903
  vertex 0.0232361369 0.0024161702 0.015639903
  endloop
 endfacet

 facet normal 0 0 1
  outer loop
  vertex 0.0282867365 0.0014331548 0.015639903
  vertex 0.0232361369 0.0024161702 0.015639903
  vertex 0.0244943816 0.00179861579 0.015639903
  endloop
 endfacet

 facet normal 0 0 1
  outer loop
  vertex 0.0282867365 0.0014331548 0.015639903
  vertex 0.0244943816 0.00179861579 0.015639903
  vertex 0.0263589919 0.00147193833 0.015639903
  endloop
 endfacet

 facet normal 0 0 1
  outer loop
  vertex 0.0282867365 0.0014331548 0.015639903
  vertex 0.0263589919 0.00147193833 0.015639903
  vertex 0.0263810158 0.00146895507 0.015639903
  endloop
 endfacet

 facet normal 0 0 1
  outer loop
  vertex 0.0282867365 0.0014331548 0.015639903
  vertex 0.0263810158 0.00146895507 0.015639903
  vertex 0.0270020626 0.00144807145 0.015639903
  endloop
 endfacet

 facet normal -0.0116068376 -0.999618113 -0.0250818506
  outer loop
  vertex 0.0282867365 0.0014331548 0.015639903
  vertex 0.0270020626 0.00144807145 0.015639903
  vertex 0.0270079356 0.0018776746 -0.00148432027
  endloop
 endfacet

 facet normal 0.0237777419 -0.999332905 -0.0277168937
  outer loop
  vertex 0.0282867365 0.0014331548 0.015639903
  vertex 0.0270079356 0.0018776746 -0.00148432027
  vertex 0.0276348554 0.00189259124 -0.00148432027
  endloop
 endfacet

 facet normal 0.0893854722 -0.995541811 -0.0301127173
  outer loop
  vertex 0.0282867365 0.0014331548 0.015639903
  vertex 0.0276348554 0.00189259124 -0.00148432027
  vertex 0.0282661803 0.00194927526 -0.00148432027
  endloop
 endfacet

 facet normal 0.226107478 -0.973652065 -0.0296170823
  outer loop
  vertex 0.0282867365 0.0014331548 0.015639903
  vertex 0.0282661803 0.00194927526 -0.00148432027
  vertex 0.0288314372 0.00208054273 -0.00148432027
  endloop
 endfacet

 facet normal 0.281140089 -0.959277809 -0.027323138
  outer loop
  vertex 0.0282867365 0.0014331548 0.015639903
  vertex 0.0288314372 0.00208054273 -0.00148432027
  vertex 0.0294319298 0.00176878239 0.015639903
  endloop
 endfacet

 facet normal 0.33874163 -0.940432429 -0.028999947
  outer loop
  vertex 0.0294319298 0.00176878239 0.015639903
  vertex 0.0288314372 0.00208054273 -0.00148432027
  vertex 0.030193923 0.00204325072 0.015639903
  endloop
 endfacet

 facet normal -0.0335975401 -0.999138594 -0.0243551619
  outer loop
  vertex 0.0270020626 0.00144807145 0.015639903
  vertex 0.0263810158 0.00146895507 0.015639903
  vertex 0.0263736751 0.00188662473 -0.00148432027
  endloop
 endfacet

 facet normal -0.0141053973 -0.999585867 -0.025081899
  outer loop
  vertex 0.0270020626 0.00144807145 0.015639903
  vertex 0.0263736751 0.00188662473 -0.00148432027
  vertex 0.0270079356 0.0018776746 -0.00148432027
  endloop
 endfacet

 facet normal 0 0 -1
  outer loop
  vertex 0.0270079356 0.0018776746 -0.00148432027
  vertex 0.0263736751 0.00188662473 -0.00148432027
  vertex 0.0257555638 0.00192839163 -0.00148432027
  endloop
 endfacet

 facet normal 0 0 -1
  outer loop
  vertex 0.0270079356 0.0018776746 -0.00148432027
  vertex 0.0257555638 0.00192839163 -0.00148432027
  vertex 0.0251550693 0.00205816748 -0.00148432027
  endloop
 endfacet

 facet normal 0 0 -1
  outer loop
  vertex 0.0270079356 0.0018776746 -0.00148432027
  vertex 0.0251550693 0.00205816748 -0.00148432027
  vertex 0.0237720292 0.00258771284 -0.00148432027
  endloop
 endfacet

 facet normal 0 0 -1
  outer loop
  vertex 0.0270079356 0.0018776746 -0.00148432027
  vertex 0.0237720292 0.00258771284 -0.00148432027
  vertex 0.0233917646 0.00278312247 -0.00148432027
  endloop
 endfacet

 facet normal 0 0 -1
  outer loop
  vertex 0.0270079356 0.0018776746 -0.00148432027
  vertex 0.0233917646 0.00278312247 -0.00148432027
  vertex 0.023059953 0.00296659907 -0.00148432027
  endloop
 endfacet

 facet normal 0 0 -1
  outer loop
  vertex 0.0270079356 0.0018776746 -0.00148432027
  vertex 0.023059953 0.00296659907 -0.00148432027
  vertex 0.0223053005 0.0035781865 -0.00148432027
  endloop
 endfacet

 facet normal 0 0 -1
  outer loop
  vertex 0.0270079356 0.0018776746 -0.00148432027
  vertex 0.0223053005 0.0035781865 -0.00148432027
  vertex 0.0216534194 0.00421214942 -0.00148432027
  endloop
 endfacet

 facet normal 0 0 -1
  outer loop
  vertex 0.0270079356 0.0018776746 -0.00148432027
  vertex 0.0216534194 0.00421214942 -0.00148432027
  vertex 0.0210690778 0.0049162209 -0.00148432027
  endloop
 endfacet

 facet normal 0 0 -1
  outer loop
  vertex 0.0270079356 0.0018776746 -0.00148432027
  vertex 0.0210690778 0.0049162209 -0.00148432027
  vertex 0.0208180156 0.00521903113 -0.00148432027
  endloop
 endfacet

 facet normal 0 0 -1
  outer loop
  vertex 0.0270079356 0.0018776746 -0.00148432027
  vertex 0.0208180156 0.00521903113 -0.00148432027
  vertex 0.0207945239 0.00525781559 -0.00148432027
  endloop
 endfacet

 facet normal 0 0 -1
  outer loop
  vertex 0.0270079356 0.0018776746 -0.00148432027
  vertex 0.0207945239 0.00525781559 -0.00148432027
  vertex 0.0203511287 0.00619160477 -0.00148432027
  endloop
 endfacet

 facet normal 0 0 -1
  outer loop
  vertex 0.0270079356 0.0018776746 -0.00148432027
  vertex 0.0203511287 0.00619160477 -0.00148432027
  vertex 0.0200193152 0.00691208476 -0.00148432027
  endloop
 endfacet

 facet normal 0 0 -1
  outer loop
  vertex 0.0270079356 0.0018776746 -0.00148432027
  vertex 0.0200193152 0.00691208476 -0.00148432027
  vertex 0.0199576523 0.00765643176 -0.00148432027
  endloop
 endfacet

 facet normal 0 0 -1
  outer loop
  vertex 0.0270079356 0.0018776746 -0.00148432027
  vertex 0.0199576523 0.00765643176 -0.00148432027
  vertex 0.019910669 0.00825907011 -0.00148432027
  endloop
 endfacet

 facet normal 0 0 -1
  outer loop
  vertex 0.0270079356 0.0018776746 -0.00148432027
  vertex 0.019910669 0.00825907011 -0.00148432027
  vertex 0.0198769011 0.0089333076 -0.00148432027
  endloop
 endfacet

 facet normal 0 0 -1
  outer loop
  vertex 0.0270079356 0.0018776746 -0.00148432027
  vertex 0.0198769011 0.0089333076 -0.00148432027
  vertex 0.0199003927 0.009556829 -0.00148432027
  endloop
 endfacet

 facet normal 0 0 -1
  outer loop
  vertex 0.0270079356 0.0018776746 -0.00148432027
  vertex 0.0199003927 0.009556829 -0.00148432027
  vertex 0.0199459065 0.0101863164 -0.00148432027
  endloop
 endfacet

 facet normal 0 0 -1
  outer loop
  vertex 0.0270079356 0.0018776746 -0.00148432027
  vertex 0.0199459065 0.0101863164 -0.00148432027
  vertex 0.0200075712 0.0108143128 -0.00148432027
  endloop
 endfacet

 facet normal 0 0 -1
  outer loop
  vertex 0.0270079356 0.0018776746 -0.00148432027
  vertex 0.0200075712 0.0108143128 -0.00148432027
  vertex 0.0201529209 0.0113930833 -0.00148432027
  endloop
 endfacet

 facet normal 0 0 -1
  outer loop
  vertex 0.0270079356 0.0018776746 -0.00148432027
  vertex 0.0201529209 0.0113930833 -0.00148432027
  vertex 0.0207695663 0.0126625001 -0.00148432027
  endloop
 endfacet

 facet normal 0 0 -1
  outer loop
  vertex 0.0270079356 0.0018776746 -0.00148432027
  vertex 0.0207695663 0.0126625001 -0.00148432027
  vertex 0.0213260129 0.0133397216 -0.00148432027
  endloop
 endfacet

 facet normal 0 0 -1
  outer loop
  vertex 0.0270079356 0.0018776746 -0.00148432027
  vertex 0.0213260129 0.0133397216 -0.00148432027
  vertex 0.0218619034 0.013975176 -0.00148432027
  endloop
 endfacet

 facet normal 0 0 -1
  outer loop
  vertex 0.0270079356 0.0018776746 -0.00148432027
  vertex 0.0218619034 0.013975176 -0.00148432027
  vertex 0.0219661463 0.014078103 -0.00148432027
  endloop
 endfacet

 facet normal 0 0 -1
  outer loop
  vertex 0.0270079356 0.0018776746 -0.00148432027
  vertex 0.0219661463 0.014078103 -0.00148432027
  vertex 0.0226018764 0.0146180894 -0.00148432027
  endloop
 endfacet

 facet normal 0 0 -1
  outer loop
  vertex 0.0270079356 0.0018776746 -0.00148432027
  vertex 0.0226018764 0.0146180894 -0.00148432027
  vertex 0.0232787151 0.0151729938 -0.00148432027
  endloop
 endfacet

 facet normal 0 0 -1
  outer loop
  vertex 0.0270079356 0.0018776746 -0.00148432027
  vertex 0.0232787151 0.0151729938 -0.00148432027
  vertex 0.0245428327 0.0157935303 -0.00148432027
  endloop
 endfacet

 facet normal 0 0 -1
  outer loop
  vertex 0.0270079356 0.0018776746 -0.00148432027
  vertex 0.0245428327 0.0157935303 -0.00148432027
  vertex 0.0251257066 0.0159382243 -0.00148432027
  endloop
 endfacet

 facet normal 0 0 -1
  outer loop
  vertex 0.0270079356 0.0018776746 -0.00148432027
  vertex 0.0251257066 0.0159382243 -0.00148432027
  vertex 0.0257555638 0.0159993805 -0.00148432027
  endloop
 endfacet

 facet normal 0 0 -1
  outer loop
  vertex 0.0270079356 0.0018776746 -0.00148432027
  vertex 0.0257555638 0.0159993805 -0.00148432027
  vertex 0.0263824835 0.0160486065 -0.00148432027
  endloop
 endfacet

 facet normal 0 0 -1
  outer loop
  vertex 0.0270079356 0.0018776746 -0.00148432027
  vertex 0.0263824835 0.0160486065 -0.00148432027
  vertex 0.0270079356 0.0160769485 -0.00148432027
  endloop
 endfacet

 facet normal 0 0 -1
  outer loop
  vertex 0.0270079356 0.0018776746 -0.00148432027
  vertex 0.0270079356 0.0160769485 -0.00148432027
  vertex 0.0270857513 0.0160739664 -0.00148432027
  endloop
 endfacet

 facet normal 0 0 -1
  outer loop
  vertex 0.0270079356 0.0018776746 -0.00148432027
  vertex 0.0270857513 0.0160739664 -0.00148432027
  vertex 0.0276847742 0.0160396565 -0.00148432027
  endloop
 endfacet

 facet normal 0 0 -1
  outer loop
  vertex 0.0270079356 0.0018776746 -0.00148432027
  vertex 0.0276847742 0.0160396565 -0.00148432027
  vertex 0.0282808635 0.0159889404 -0.00148432027
  endloop
 endfacet

 facet normal 0 0 -1
  outer loop
  vertex 0.0270079356 0.0018776746 -0.00148432027
  vertex 0.0282808635 0.0159889404 -0.00148432027
  vertex 0.028893102 0.0159068983 -0.00148432027
  endloop
 endfacet

 facet normal 0 0 -1
  outer loop
  vertex 0.0270079356 0.0018776746 -0.00148432027
  vertex 0.028893102 0.0159068983 -0.00148432027
  vertex 0.0294304602 0.0157756321 -0.00148432027
  endloop
 endfacet

 facet normal 0 0 -1
  outer loop
  vertex 0.0270079356 0.0018776746 -0.00148432027
  vertex 0.0294304602 0.0157756321 -0.00148432027
  vertex 0.0294598248 0.0157636963 -0.00148432027
  endloop
 endfacet

 facet normal 0 0 -1
  outer loop
  vertex 0.0270079356 0.0018776746 -0.00148432027
  vertex 0.0294598248 0.0157636963 -0.00148432027
  vertex 0.0306901745 0.0151521098 -0.00148432027
  endloop
 endfacet

 facet normal 0 0 -1
  outer loop
  vertex 0.0270079356 0.0018776746 -0.00148432027
  vertex 0.0306901745 0.0151521098 -0.00148432027
  vertex 0.0307254121 0.0151312258 -0.00148432027
  endloop
 endfacet

 facet normal 0 0 -1
  outer loop
  vertex 0.0270079356 0.0018776746 -0.00148432027
  vertex 0.0307254121 0.0151312258 -0.00148432027
  vertex 0.0313963778 0.0145360474 -0.00148432027
  endloop
 endfacet

 facet normal 0 0 -1
  outer loop
  vertex 0.0270079356 0.0018776746 -0.00148432027
  vertex 0.0313963778 0.0145360474 -0.00148432027
  vertex 0.031993933 0.013960259 -0.00148432027
  endloop
 endfacet

 facet normal 0 0 -1
  outer loop
  vertex 0.0270079356 0.0018776746 -0.00148432027
  vertex 0.031993933 0.013960259 -0.00148432027
  vertex 0.0320144892 0.0139378859 -0.00148432027
  endloop
 endfacet

 facet normal 0 0 -1
  outer loop
  vertex 0.0270079356 0.0018776746 -0.00148432027
  vertex 0.0320144892 0.0139378859 -0.00148432027
  vertex 0.0325753391 0.0133218216 -0.00148432027
  endloop
 endfacet

 facet normal 0 0 -1
  outer loop
  vertex 0.0270079356 0.0018776746 -0.00148432027
  vertex 0.0325753391 0.0133218216 -0.00148432027
  vertex 0.0326091088 0.0132800555 -0.00148432027
  endloop
 endfacet

 facet normal 0 0 -1
  outer loop
  vertex 0.0270079356 0.0018776746 -0.00148432027
  vertex 0.0326091088 0.0132800555 -0.00148432027
  vertex 0.0326458141 0.0132278465 -0.00148432027
  endloop
 endfacet

 facet normal 0 0 -1
  outer loop
  vertex 0.0270079356 0.0018776746 -0.00148432027
  vertex 0.0326458141 0.0132278465 -0.00148432027
  vertex 0.0331053585 0.012498416 -0.00148432027
  endloop
 endfacet

 facet normal 0 0 -1
  outer loop
  vertex 0.0270079356 0.0018776746 -0.00148432027
  vertex 0.0331053585 0.012498416 -0.00148432027
  vertex 0.0333153121 0.0121105798 -0.00148432027
  endloop
 endfacet

 facet normal 0 0 -1
  outer loop
  vertex 0.0270079356 0.0018776746 -0.00148432027
  vertex 0.0333153121 0.0121105798 -0.00148432027
  vertex 0.0338864401 0.0107904458 -0.00148432027
  endloop
 endfacet

 facet normal 0 0 -1
  outer loop
  vertex 0.0270079356 0.0018776746 -0.00148432027
  vertex 0.0338864401 0.0107904458 -0.00148432027
  vertex 0.0340171084 0.0101863164 -0.00148432027
  endloop
 endfacet

 facet normal 0 0 -1
  outer loop
  vertex 0.0270079356 0.0018776746 -0.00148432027
  vertex 0.0340171084 0.0101863164 -0.00148432027
  vertex 0.0340552814 0.009556829 -0.00148432027
  endloop
 endfacet

 facet normal 0 0 -1
  outer loop
  vertex 0.0270079356 0.0018776746 -0.00148432027
  vertex 0.0340552814 0.009556829 -0.00148432027
  vertex 0.0340640917 0.00894524157 -0.00148432027
  endloop
 endfacet

 facet normal 0 0 -1
  outer loop
  vertex 0.0270079356 0.0018776746 -0.00148432027
  vertex 0.0340640917 0.00894524157 -0.00148432027
  vertex 0.0340640917 0.0089333076 -0.00148432027
  endloop
 endfacet

 facet normal 0 0 -1
  outer loop
  vertex 0.0270079356 0.0018776746 -0.00148432027
  vertex 0.0340640917 0.0089333076 -0.00148432027
  vertex 0.0340494104 0.0083053112 -0.00148432027
  endloop
 endfacet

 facet normal 0 0 -1
  outer loop
  vertex 0.0270079356 0.0018776746 -0.00148432027
  vertex 0.0340494104 0.0083053112 -0.00148432027
  vertex 0.0339950882 0.00767731527 -0.00148432027
  endloop
 endfacet

 facet normal 0 0 -1
  outer loop
  vertex 0.0270079356 0.0018776746 -0.00148432027
  vertex 0.0339950882 0.00767731527 -0.00148432027
  vertex 0.0338629484 0.00710003683 -0.00148432027
  endloop
 endfacet

 facet normal 0 0 -1
  outer loop
  vertex 0.0270079356 0.0018776746 -0.00148432027
  vertex 0.0338629484 0.00710003683 -0.00148432027
  vertex 0.0332742035 0.005793327 -0.00148432027
  endloop
 endfacet

 facet normal 0 0 -1
  outer loop
  vertex 0.0270079356 0.0018776746 -0.00148432027
  vertex 0.0332742035 0.005793327 -0.00148432027
  vertex 0.0325929597 0.00460147718 -0.00148432027
  endloop
 endfacet

 facet normal 0 0 -1
  outer loop
  vertex 0.0270079356 0.0018776746 -0.00148432027
  vertex 0.0325929597 0.00460147718 -0.00148432027
  vertex 0.0319851227 0.00395259773 -0.00148432027
  endloop
 endfacet

 facet normal 0 0 -1
  outer loop
  vertex 0.0270079356 0.0018776746 -0.00148432027
  vertex 0.0319851227 0.00395259773 -0.00148432027
  vertex 0.0313361809 0.00334548508 -0.00148432027
  endloop
 endfacet

 facet normal 0 0 -1
  outer loop
  vertex 0.0270079356 0.0018776746 -0.00148432027
  vertex 0.0313361809 0.00334548508 -0.00148432027
  vertex 0.0301469415 0.00266528013 -0.00148432027
  endloop
 endfacet

 facet normal 0 0 -1
  outer loop
  vertex 0.0270079356 0.0018776746 -0.00148432027
  vertex 0.0301469415 0.00266528013 -0.00148432027
  vertex 0.0288314372 0.00208054273 -0.00148432027
  endloop
 endfacet

 facet normal 0 0 -1
  outer loop
  vertex 0.0270079356 0.0018776746 -0.00148432027
  vertex 0.0288314372 0.00208054273 -0.00148432027
  vertex 0.0282661803 0.00194927526 -0.00148432027
  endloop
 endfacet

 facet normal 0 0 -1
  outer loop
  vertex 0.0270079356 0.0018776746 -0.00148432027
  vertex 0.0282661803 0.00194927526 -0.00148432027
  vertex 0.0276348554 0.00189259124 -0.00148432027
  endloop
 endfacet

 facet normal 0.40593943 -0.913256526 -0.0342873521
  outer loop
  vertex 0.0288314372 0.00208054273 -0.00148432027
  vertex 0.0301469415 0.00266528013 -0.00148432027
  vertex 0.030193923 0.00204325072 0.015639903
  endloop
 endfacet

 facet normal 0.485317171 -0.873712659 -0.033068724
  outer loop
  vertex 0.030193923 0.00204325072 0.015639903
  vertex 0.0301469415 0.00266528013 -0.00148432027
  vertex 0.0312466212 0.00262798811 0.015639903
  endloop
 endfacet

 facet normal -0.134200856 -0.990716934 -0.0216789562
  outer loop
  vertex 0.0263810158 0.00146895507 0.015639903
  vertex 0.0263589919 0.00147193833 0.015639903
  vertex 0.0257555638 0.00192839163 -0.00148432027
  endloop
 endfacet

 facet normal -0.0673980117 -0.997430265 -0.0242990088
  outer loop
  vertex 0.0263810158 0.00146895507 0.015639903
  vertex 0.0257555638 0.00192839163 -0.00148432027
  vertex 0.0263736751 0.00188662473 -0.00148432027
  endloop
 endfacet

 facet normal 0.496205926 -0.867543876 -0.0338726304
  outer loop
  vertex 0.0301469415 0.00266528013 -0.00148432027
  vertex 0.0313361809 0.00334548508 -0.00148432027
  vertex 0.0314462967 0.00273986394 0.015639903
  endloop
 endfacet

 facet normal 0.488527119 -0.871914089 -0.0332709365
  outer loop
  vertex 0.0301469415 0.00266528013 -0.00148432027
  vertex 0.0314462967 0.00273986394 0.015639903
  vertex 0.0312466212 0.00262798811 0.015639903
  endloop
 endfacet

 facet normal -0.172535121 -0.984796882 -0.0201703198
  outer loop
  vertex 0.0263589919 0.00147193833 0.015639903
  vertex 0.0244943816 0.00179861579 0.015639903
  vertex 0.0257555638 0.00192839163 -0.00148432027
  endloop
 endfacet

 facet normal -0.211182892 -0.977177024 -0.0229589418
  outer loop
  vertex 0.0257555638 0.00192839163 -0.00148432027
  vertex 0.0244943816 0.00179861579 0.015639903
  vertex 0.0251550693 0.00205816748 -0.00148432027
  endloop
 endfacet

 facet normal 0.682846665 -0.729895294 -0.0311986636
  outer loop
  vertex 0.0313361809 0.00334548508 -0.00148432027
  vertex 0.0319851227 0.00395259773 -0.00148432027
  vertex 0.0320834927 0.00331266806 0.015639903
  endloop
 endfacet

 facet normal 0.668217242 -0.743337214 -0.0305859856
  outer loop
  vertex 0.0313361809 0.00334548508 -0.00148432027
  vertex 0.0320834927 0.00331266806 0.015639903
  vertex 0.0314462967 0.00273986394 0.015639903
  endloop
 endfacet

 facet normal -0.440484583 -0.897471309 -0.0227751769
  outer loop
  vertex 0.0244943816 0.00179861579 0.015639903
  vertex 0.0232361369 0.0024161702 0.015639903
  vertex 0.0237720292 0.00258771284 -0.00148432027
  endloop
 endfacet

 facet normal -0.357431352 -0.93352145 -0.0279398318
  outer loop
  vertex 0.0244943816 0.00179861579 0.015639903
  vertex 0.0237720292 0.00258771284 -0.00148432027
  vertex 0.0251550693 0.00205816748 -0.00148432027
  endloop
 endfacet

 facet normal 0.729455829 -0.683313251 -0.0312624387
  outer loop
  vertex 0.0319851227 0.00395259773 -0.00148432027
  vertex 0.0325929597 0.00460147718 -0.00148432027
  vertex 0.0326281935 0.00385563867 0.015639903
  endloop
 endfacet

 facet normal 0.705652237 -0.707901418 -0.0305077601
  outer loop
  vertex 0.0319851227 0.00395259773 -0.00148432027
  vertex 0.0326281935 0.00385563867 0.015639903
  vertex 0.0320834927 0.00331266806 0.015639903
  endloop
 endfacet

 facet normal -0.553924501 -0.832300663 -0.0210538115
  outer loop
  vertex 0.0232361369 0.0024161702 0.015639903
  vertex 0.0223508142 0.0030053826 0.015639903
  vertex 0.023059953 0.00296659907 -0.00148432027
  endloop
 endfacet

 facet normal -0.483772099 -0.874888062 -0.0231444743
  outer loop
  vertex 0.0232361369 0.0024161702 0.015639903
  vertex 0.023059953 0.00296659907 -0.00148432027
  vertex 0.0233917646 0.00278312247 -0.00148432027
  endloop
 endfacet

 facet normal -0.456938714 -0.889195442 -0.023207197
  outer loop
  vertex 0.0232361369 0.0024161702 0.015639903
  vertex 0.0233917646 0.00278312247 -0.00148432027
  vertex 0.0237720292 0.00258771284 -0.00148432027
  endloop
 endfacet

 facet normal 0.867683768 -0.495955795 -0.0339526944
  outer loop
  vertex 0.0325929597 0.00460147718 -0.00148432027
  vertex 0.0332742035 0.005793327 -0.00148432027
  vertex 0.033200793 0.00449258462 0.015639903
  endloop
 endfacet

 facet normal 0.743324757 -0.668228865 -0.030633986
  outer loop
  vertex 0.0325929597 0.00460147718 -0.00148432027
  vertex 0.033200793 0.00449258462 0.015639903
  vertex 0.0326281935 0.00385563867 0.015639903
  endloop
 endfacet

 facet normal -0.639590263 -0.768341303 -0.0240010303
  outer loop
  vertex 0.0223508142 0.0030053826 0.015639903
  vertex 0.022001382 0.00329625956 0.015639903
  vertex 0.0223053005 0.0035781865 -0.00148432027
  endloop
 endfacet

 facet normal -0.629433751 -0.776673913 -0.0243067499
  outer loop
  vertex 0.0223508142 0.0030053826 0.015639903
  vertex 0.0223053005 0.0035781865 -0.00148432027
  vertex 0.023059953 0.00296659907 -0.00148432027
  endloop
 endfacet

 facet normal 0.911191463 -0.410542905 -0.0344184451
  outer loop
  vertex 0.0332742035 0.005793327 -0.00148432027
  vertex 0.0338629484 0.00710003683 -0.00148432027
  vertex 0.0338981859 0.00574260997 0.015639903
  endloop
 endfacet

 facet normal 0.872802734 -0.48693943 -0.0332458802
  outer loop
  vertex 0.0332742035 0.005793327 -0.00148432027
  vertex 0.0338981859 0.00574260997 0.015639903
  vertex 0.033200793 0.00449258462 0.015639903
  endloop
 endfacet

 facet normal -0.701669931 -0.712103665 -0.0238290243
  outer loop
  vertex 0.022001382 0.00329625956 0.015639903
  vertex 0.0213685893 0.00391978072 0.015639903
  vertex 0.0216534194 0.00421214942 -0.00148432027
  endloop
 endfacet

 facet normal -0.696982086 -0.716681063 -0.0241690967
  outer loop
  vertex 0.022001382 0.00329625956 0.015639903
  vertex 0.0216534194 0.00421214942 -0.00148432027
  vertex 0.0223053005 0.0035781865 -0.00148432027
  endloop
 endfacet

 facet normal 0.974357069 -0.223028645 -0.0297750067
  outer loop
  vertex 0.0338629484 0.00710003683 -0.00148432027
  vertex 0.0339950882 0.00767731527 -0.00148432027
  vertex 0.0345118903 0.00764897326 0.015639903
  endloop
 endfacet

 facet normal 0.957635164 -0.286706001 -0.0271000601
  outer loop
  vertex 0.0338629484 0.00710003683 -0.00148432027
  vertex 0.0345118903 0.00764897326 0.015639903
  vertex 0.0341698006 0.00650634849 0.015639903
  endloop
 endfacet

 facet normal 0.941806912 -0.334945142 -0.0284888558
  outer loop
  vertex 0.0338629484 0.00710003683 -0.00148432027
  vertex 0.0341698006 0.00650634849 0.015639903
  vertex 0.0338981859 0.00574260997 0.015639903
  endloop
 endfacet

 facet normal -0.765719354 -0.642737746 -0.0237100534
  outer loop
  vertex 0.0213685893 0.00391978072 0.015639903
  vertex 0.021079354 0.00426435797 0.015639903
  vertex 0.0216534194 0.00421214942 -0.00148432027
  endloop
 endfacet

 facet normal -0.76928252 -0.638463616 -0.0238425341
  outer loop
  vertex 0.0216534194 0.00421214942 -0.00148432027
  vertex 0.021079354 0.00426435797 0.015639903
  vertex 0.0210690778 0.0049162209 -0.00148432027
  endloop
 endfacet

 facet normal 0.99582541 -0.0861404166 -0.0301963519
  outer loop
  vertex 0.0339950882 0.00767731527 -0.00148432027
  vertex 0.0340494104 0.0083053112 -0.00148432027
  vertex 0.0345118903 0.00764897326 0.015639903
  endloop
 endfacet

 facet normal 0.99933809 -0.0233650114 -0.0278851651
  outer loop
  vertex 0.0345118903 0.00764897326 0.015639903
  vertex 0.0340494104 0.0083053112 -0.00148432027
  vertex 0.0340640917 0.0089333076 -0.00148432027
  endloop
 endfacet

 facet normal 0.999658287 0 -0.0261411369
  outer loop
  vertex 0.0345118903 0.00764897326 0.015639903
  vertex 0.0340640917 0.0089333076 -0.00148432027
  vertex 0.0340640917 0.00894524157 -0.00148432027
  endloop
 endfacet

 facet normal 0.999634445 0.00912069995 -0.0254500937
  outer loop
  vertex 0.0345118903 0.00764897326 0.015639903
  vertex 0.0340640917 0.00894524157 -0.00148432027
  vertex 0.0345001481 0.00893629063 0.015639903
  endloop
 endfacet

 facet normal -0.772700429 -0.634333134 -0.0235715341
  outer loop
  vertex 0.021079354 0.00426435797 0.015639903
  vertex 0.020798929 0.00460595218 0.015639903
  vertex 0.0208180156 0.00521903113 -0.00148432027
  endloop
 endfacet

 facet normal -0.769600749 -0.638080716 -0.023827767
  outer loop
  vertex 0.021079354 0.00426435797 0.015639903
  vertex 0.0208180156 0.00521903113 -0.00148432027
  vertex 0.0210690778 0.0049162209 -0.00148432027
  endloop
 endfacet

 facet normal 0.999572515 0.0143991113 -0.0254457593
  outer loop
  vertex 0.0345001481 0.00893629063 0.015639903
  vertex 0.0340640917 0.00894524157 -0.00148432027
  vertex 0.0340552814 0.009556829 -0.00148432027
  endloop
 endfacet

 facet normal 0.999286532 0.0283716973 -0.0249319971
  outer loop
  vertex 0.0345001481 0.00893629063 0.015639903
  vertex 0.0340552814 0.009556829 -0.00148432027
  vertex 0.0344825275 0.009556829 0.015639903
  endloop
 endfacet

 facet normal -0.792188585 -0.609853446 -0.0227168389
  outer loop
  vertex 0.020798929 0.00460595218 0.015639903
  vertex 0.0204773936 0.00502362195 0.015639903
  vertex 0.0208180156 0.00521903113 -0.00148432027
  endloop
 endfacet

 facet normal -0.855114222 -0.517932951 -0.0229195748
  outer loop
  vertex 0.0208180156 0.00521903113 -0.00148432027
  vertex 0.0204773936 0.00502362195 0.015639903
  vertex 0.0207945239 0.00525781559 -0.00148432027
  endloop
 endfacet

 facet normal 0.997857094 0.0605098605 -0.0248963349
  outer loop
  vertex 0.0344825275 0.009556829 0.015639903
  vertex 0.0340552814 0.009556829 -0.00148432027
  vertex 0.0340171084 0.0101863164 -0.00148432027
  endloop
 endfacet

 facet normal 0.996366441 0.0816958994 -0.0240770206
  outer loop
  vertex 0.0344825275 0.009556829 0.015639903
  vertex 0.0340171084 0.0101863164 -0.00148432027
  vertex 0.0344810598 0.00957472902 0.015639903
  endloop
 endfacet

 facet normal -0.884863615 -0.465294182 -0.0227506217
  outer loop
  vertex 0.0204773936 0.00502362195 0.015639903
  vertex 0.0200765766 0.0057858685 0.015639903
  vertex 0.0207945239 0.00525781559 -0.00148432027
  endloop
 endfacet

 facet normal -0.903061152 -0.428804845 -0.0246387795
  outer loop
  vertex 0.0207945239 0.00525781559 -0.00148432027
  vertex 0.0200765766 0.0057858685 0.015639903
  vertex 0.0203511287 0.00619160477 -0.00148432027
  endloop
 endfacet

 facet normal 0.977223039 0.211368978 -0.0189271178
  outer loop
  vertex 0.0344810598 0.00957472902 0.015639903
  vertex 0.0340171084 0.0101863164 -0.00148432027
  vertex 0.0338864401 0.0107904458 -0.00148432027
  endloop
 endfacet

 facet normal 0.976328969 0.215489298 -0.018603554
  outer loop
  vertex 0.0344810598 0.00957472902 0.015639903
  vertex 0.0338864401 0.0107904458 -0.00148432027
  vertex 0.0343724117 0.0100669824 0.015639903
  endloop
 endfacet

 facet normal -0.937421083 -0.347638488 -0.01972875
  outer loop
  vertex 0.0200765766 0.0057858685 0.015639903
  vertex 0.0198431332 0.00641535642 0.015639903
  vertex 0.0200193152 0.00691208476 -0.00148432027
  endloop
 endfacet

 facet normal -0.908030748 -0.418188423 -0.0244669132
  outer loop
  vertex 0.0200765766 0.0057858685 0.015639903
  vertex 0.0200193152 0.00691208476 -0.00148432027
  vertex 0.0203511287 0.00619160477 -0.00148432027
  endloop
 endfacet

 facet normal 0.973585606 0.227610469 -0.0180136077
  outer loop
  vertex 0.0343724117 0.0100669824 0.015639903
  vertex 0.0338864401 0.0107904458 -0.00148432027
  vertex 0.0341976993 0.0108143128 0.015639903
  endloop
 endfacet

 facet normal 0.917607188 0.396983176 -0.0200337265
  outer loop
  vertex 0.0338864401 0.0107904458 -0.00148432027
  vertex 0.0333153121 0.0121105798 -0.00148432027
  vertex 0.0339789353 0.0114408173 0.015639903
  endloop
 endfacet

 facet normal 0.943953454 0.329608083 -0.0176171586
  outer loop
  vertex 0.0338864401 0.0107904458 -0.00148432027
  vertex 0.0339789353 0.0114408173 0.015639903
  vertex 0.0341976993 0.0108143128 0.015639903
  endloop
 endfacet

 facet normal -0.960014105 -0.279373437 -0.0179810096
  outer loop
  vertex 0.0198431332 0.00641535642 0.015639903
  vertex 0.0195127893 0.00755052222 0.015639903
  vertex 0.0200193152 0.00691208476 -0.00148432027
  endloop
 endfacet

 facet normal -0.996238947 -0.0825315267 -0.0263913311
  outer loop
  vertex 0.0200193152 0.00691208476 -0.00148432027
  vertex 0.0195127893 0.00755052222 0.015639903
  vertex 0.0199576523 0.00765643176 -0.00148432027
  endloop
 endfacet

 facet normal 0.879264295 0.475981534 -0.0183301941
  outer loop
  vertex 0.0333153121 0.0121105798 -0.00148432027
  vertex 0.0331053585 0.012498416 -0.00148432027
  vertex 0.0335649066 0.0123089729 0.015639903
  endloop
 endfacet

 facet normal 0.902460337 0.430390894 -0.0181400925
  outer loop
  vertex 0.0333153121 0.0121105798 -0.00148432027
  vertex 0.0335649066 0.0123089729 0.015639903
  vertex 0.0339789353 0.0114408173 0.015639903
  endloop
 endfacet

 facet normal -1 0 0
  outer loop
  vertex 0.0195127893 0.00755052222 0.015639903
  vertex 0.0195127893 0.0108888969 0.015639903
  vertex 0.0195127893 0.0108724879 0.0156248147
  endloop
 endfacet

 facet normal -1 0 0
  outer loop
  vertex 0.0195127893 0.00755052222 0.015639903
  vertex 0.0195127893 0.0108724879 0.0156248147
  vertex 0.0195127893 0.009556829 0.0155661432
  endloop
 endfacet

 facet normal -1 0 0
  outer loop
  vertex 0.0195127893 0.00755052222 0.015639903
  vertex 0.0195127893 0.009556829 0.0155661432
  vertex 0.0195127893 0.00951655395 0.0155644659
  endloop
 endfacet

 facet normal -1 0 0
  outer loop
  vertex 0.0195127893 0.00755052222 0.015639903
  vertex 0.0195127893 0.00951655395 0.0155644659
  vertex 0.0195127893 0.00893032365 0.0155527312
  endloop
 endfacet

 facet normal -1 0 0
  outer loop
  vertex 0.0195127893 0.00755052222 0.015639903
  vertex 0.0195127893 0.00893032365 0.0155527312
  vertex 0.0195127893 0.0083053112 0.0155762006
  endloop
 endfacet

 facet normal -1 0 0
  outer loop
  vertex 0.0195127893 0.00755052222 0.015639903
  vertex 0.0195127893 0.0083053112 0.0155762006
  vertex 0.0195127893 0.00767284026 0.0156248147
  endloop
 endfacet

 facet normal -0.999765992 -0.00264853798 -0.0214719456
  outer loop
  vertex 0.0195127893 0.00755052222 0.015639903
  vertex 0.0195127893 0.00767284026 0.0156248147
  vertex 0.0198769011 0.0089333076 -0.00148432027
  endloop
 endfacet

 facet normal -0.998429418 -0.0500044674 -0.0252675302
  outer loop
  vertex 0.0195127893 0.00755052222 0.015639903
  vertex 0.0198769011 0.0089333076 -0.00148432027
  vertex 0.019910669 0.00825907011 -0.00148432027
  endloop
 endfacet

 facet normal -0.996628165 -0.0776979029 -0.0263715442
  outer loop
  vertex 0.0195127893 0.00755052222 0.015639903
  vertex 0.019910669 0.00825907011 -0.00148432027
  vertex 0.0199576523 0.00765643176 -0.00148432027
  endloop
 endfacet

 facet normal 0.845968723 0.532967508 -0.016806243
  outer loop
  vertex 0.0331053585 0.012498416 -0.00148432027
  vertex 0.0326458141 0.0132278465 -0.00148432027
  vertex 0.0335649066 0.0123089729 0.015639903
  endloop
 endfacet

 facet normal 0.833244085 0.552700043 -0.0150644546
  outer loop
  vertex 0.0335649066 0.0123089729 0.015639903
  vertex 0.0326458141 0.0132278465 -0.00148432027
  vertex 0.0334738754 0.012446207 0.015639903
  endloop
 endfacet

 facet normal -0.953187585 0.30119282 -0.026763808
  outer loop
  vertex 0.0195127893 0.0108888969 0.015639903
  vertex 0.0198578145 0.0119808037 0.015639903
  vertex 0.0201529209 0.0113930833 -0.00148432027
  endloop
 endfacet

 facet normal -0.969472349 0.243471369 -0.0290720556
  outer loop
  vertex 0.0195127893 0.0108888969 0.015639903
  vertex 0.0201529209 0.0113930833 -0.00148432027
  vertex 0.0200075712 0.0108143128 -0.00148432027
  endloop
 endfacet

 facet normal -0.994790316 0.097680226 -0.0291685946
  outer loop
  vertex 0.0195127893 0.0108888969 0.015639903
  vertex 0.0200075712 0.0108143128 -0.00148432027
  vertex 0.0199459065 0.0101863164 -0.00148432027
  endloop
 endfacet

 facet normal -0.997000456 0.07208547 -0.0281743817
  outer loop
  vertex 0.0195127893 0.0108888969 0.015639903
  vertex 0.0199459065 0.0101863164 -0.00148432027
  vertex 0.0199003927 0.009556829 -0.00148432027
  endloop
 endfacet

 facet normal -0.998965204 0.0376358293 -0.0255390685
  outer loop
  vertex 0.0195127893 0.0108888969 0.015639903
  vertex 0.0199003927 0.009556829 -0.00148432027
  vertex 0.0198769011 0.0089333076 -0.00148432027
  endloop
 endfacet

 facet normal -0.999479532 0.0218343921 -0.0237454753
  outer loop
  vertex 0.0195127893 0.0108888969 0.015639903
  vertex 0.0198769011 0.0089333076 -0.00148432027
  vertex 0.0195127893 0.0108724879 0.0156248147
  endloop
 endfacet

 facet normal -0.999769628 -0.00164475921 -0.0213980731
  outer loop
  vertex 0.0195127893 0.00767284026 0.0156248147
  vertex 0.0195127893 0.0083053112 0.0155762006
  vertex 0.0198769011 0.0089333076 -0.00148432027
  endloop
 endfacet

 facet normal -0.999771357 -0.000802311988 -0.021367101
  outer loop
  vertex 0.0198769011 0.0089333076 -0.00148432027
  vertex 0.0195127893 0.0083053112 0.0155762006
  vertex 0.0195127893 0.00893032365 0.0155527312
  endloop
 endfacet

 facet normal -0.999771714 0.000427691091 -0.0213668924
  outer loop
  vertex 0.0198769011 0.0089333076 -0.00148432027
  vertex 0.0195127893 0.00893032365 0.0155527312
  vertex 0.0195127893 0.00951655395 0.0155644659
  endloop
 endfacet

 facet normal -0.999771059 0.00089069776 -0.0213827174
  outer loop
  vertex 0.0198769011 0.0089333076 -0.00148432027
  vertex 0.0195127893 0.00951655395 0.0155644659
  vertex 0.0195127893 0.009556829 0.0155661432
  endloop
 endfacet

 facet normal -0.99977082 0.000953657785 -0.0213850159
  outer loop
  vertex 0.0198769011 0.0089333076 -0.00148432027
  vertex 0.0195127893 0.009556829 0.0155661432
  vertex 0.0195127893 0.0108724879 0.0156248147
  endloop
 endfacet

 facet normal 0.81799531 0.575071096 -0.0133059528
  outer loop
  vertex 0.0326458141 0.0132278465 -0.00148432027
  vertex 0.0326091088 0.0132800555 -0.00148432027
  vertex 0.0334738754 0.012446207 0.015639903
  endloop
 endfacet

 facet normal 0.812763691 0.582455516 -0.0126821762
  outer loop
  vertex 0.0334738754 0.012446207 0.015639903
  vertex 0.0326091088 0.0132800555 -0.00148432027
  vertex 0.0324123688 0.013927443 0.015639903
  endloop
 endfacet

 facet normal -0.934995651 0.353532374 -0.0282466486
  outer loop
  vertex 0.0198578145 0.0119808037 0.015639903
  vertex 0.0201426446 0.0127341012 0.015639903
  vertex 0.0201529209 0.0113930833 -0.00148432027
  endloop
 endfacet

 facet normal -0.898945808 0.436680496 -0.0347364359
  outer loop
  vertex 0.0201529209 0.0113930833 -0.00148432027
  vertex 0.0201426446 0.0127341012 0.015639903
  vertex 0.0207695663 0.0126625001 -0.00148432027
  endloop
 endfacet

 facet normal 0.777536273 0.628652215 -0.0152907427
  outer loop
  vertex 0.0326091088 0.0132800555 -0.00148432027
  vertex 0.0325753391 0.0133218216 -0.00148432027
  vertex 0.0322391242 0.014154179 0.015639903
  endloop
 endfacet

 facet normal 0.794516683 0.607085109 -0.0138229458
  outer loop
  vertex 0.0326091088 0.0132800555 -0.00148432027
  vertex 0.0322391242 0.014154179 0.015639903
  vertex 0.0324123688 0.013927443 0.015639903
  endloop
 endfacet

 facet normal -0.785079122 0.618602753 -0.0313284174
  outer loop
  vertex 0.0201426446 0.0127341012 0.015639903
  vertex 0.0214214437 0.0143570472 0.015639903
  vertex 0.0207695663 0.0126625001 -0.00148432027
  endloop
 endfacet

 facet normal -0.77220732 0.634492695 -0.0333908163
  outer loop
  vertex 0.0207695663 0.0126625001 -0.00148432027
  vertex 0.0214214437 0.0143570472 0.015639903
  vertex 0.0213260129 0.0133397216 -0.00148432027
  endloop
 endfacet

 facet normal 0.739335418 0.673075676 -0.0187703706
  outer loop
  vertex 0.0325753391 0.0133218216 -0.00148432027
  vertex 0.0320144892 0.0139378859 -0.00148432027
  vertex 0.031637162 0.0148299085 0.015639903
  endloop
 endfacet

 facet normal 0.746572196 0.665069818 -0.0176688414
  outer loop
  vertex 0.0325753391 0.0133218216 -0.00148432027
  vertex 0.031637162 0.0148299085 0.015639903
  vertex 0.0322391242 0.014154179 0.015639903
  endloop
 endfacet

 facet normal -0.709042549 0.704348266 -0.0339445435
  outer loop
  vertex 0.0214214437 0.0143570472 0.015639903
  vertex 0.0215814784 0.0145181473 0.015639903
  vertex 0.0218619034 0.013975176 -0.00148432027
  endloop
 endfacet

 facet normal -0.764011145 0.644305587 -0.0340194628
  outer loop
  vertex 0.0214214437 0.0143570472 0.015639903
  vertex 0.0218619034 0.013975176 -0.00148432027
  vertex 0.0213260129 0.0133397216 -0.00148432027
  endloop
 endfacet

 facet normal 0.736293316 0.676395416 -0.0190103333
  outer loop
  vertex 0.0320144892 0.0139378859 -0.00148432027
  vertex 0.031993933 0.013960259 -0.00148432027
  vertex 0.031637162 0.0148299085 0.015639903
  endloop
 endfacet

 facet normal 0.693698108 0.719926536 -0.0221084934
  outer loop
  vertex 0.031637162 0.0148299085 0.015639903
  vertex 0.031993933 0.013960259 -0.00148432027
  vertex 0.0313963778 0.0145360474 -0.00148432027
  endloop
 endfacet

 facet normal 0.667345047 0.744418979 -0.0221582465
  outer loop
  vertex 0.031637162 0.0148299085 0.015639903
  vertex 0.0313963778 0.0145360474 -0.00148432027
  vertex 0.0309383012 0.015456412 0.015639903
  endloop
 endfacet

 facet normal -0.619155526 0.784641922 -0.0313610509
  outer loop
  vertex 0.0215814784 0.0145181473 0.015639903
  vertex 0.0232053045 0.0157994982 0.015639903
  vertex 0.0232787151 0.0151729938 -0.00148432027
  endloop
 endfacet

 facet normal -0.633657932 0.772898674 -0.0332475007
  outer loop
  vertex 0.0215814784 0.0145181473 0.015639903
  vertex 0.0232787151 0.0151729938 -0.00148432027
  vertex 0.0226018764 0.0146180894 -0.00148432027
  endloop
 endfacet

 facet normal -0.647004724 0.761722744 -0.0341080353
  outer loop
  vertex 0.0215814784 0.0145181473 0.015639903
  vertex 0.0226018764 0.0146180894 -0.00148432027
  vertex 0.0219661463 0.014078103 -0.00148432027
  endloop
 endfacet

 facet normal -0.702193856 0.71117121 -0.0340487286
  outer loop
  vertex 0.0215814784 0.0145181473 0.015639903
  vertex 0.0219661463 0.014078103 -0.00148432027
  vertex 0.0218619034 0.013975176 -0.00148432027
  endloop
 endfacet

 facet normal 0.66342777 0.747903526 -0.0224503111
  outer loop
  vertex 0.0309383012 0.015456412 0.015639903
  vertex 0.0313963778 0.0145360474 -0.00148432027
  vertex 0.0307254121 0.0151312258 -0.00148432027
  endloop
 endfacet

 facet normal 0.509720266 0.860041499 -0.0226688944
  outer loop
  vertex 0.0309383012 0.015456412 0.015639903
  vertex 0.0307254121 0.0151312258 -0.00148432027
  vertex 0.0306901745 0.0151521098 -0.00148432027
  endloop
 endfacet

 facet normal 0.493642509 0.869371176 -0.0226017218
  outer loop
  vertex 0.0309383012 0.015456412 0.015639903
  vertex 0.0306901745 0.0151521098 -0.00148432027
  vertex 0.0301528145 0.0159024242 0.015639903
  endloop
 endfacet

 facet normal -0.354878217 0.934491932 -0.028044207
  outer loop
  vertex 0.0232053045 0.0157994982 0.015639903
  vertex 0.0239555519 0.0160844084 0.015639903
  vertex 0.0245428327 0.0157935303 -0.00148432027
  endloop
 endfacet

 facet normal -0.440390795 0.897135019 -0.0347103514
  outer loop
  vertex 0.0232053045 0.0157994982 0.015639903
  vertex 0.0245428327 0.0157935303 -0.00148432027
  vertex 0.0232787151 0.0151729938 -0.00148432027
  endloop
 endfacet

 facet normal 0.44498083 0.895183921 -0.0252597388
  outer loop
  vertex 0.0301528145 0.0159024242 0.015639903
  vertex 0.0306901745 0.0151521098 -0.00148432027
  vertex 0.0294598248 0.0157636963 -0.00148432027
  endloop
 endfacet

 facet normal 0.37643677 0.926163316 -0.0227368381
  outer loop
  vertex 0.0301528145 0.0159024242 0.015639903
  vertex 0.0294598248 0.0157636963 -0.00148432027
  vertex 0.0294304602 0.0157756321 -0.00148432027
  endloop
 endfacet

 facet normal 0.313279182 0.949445367 -0.0202450398
  outer loop
  vertex 0.0301528145 0.0159024242 0.015639903
  vertex 0.0294304602 0.0157756321 -0.00148432027
  vertex 0.0282676499 0.0165244527 0.015639903
  endloop
 endfacet

 facet normal -0.318365455 0.947583079 -0.0270143598
  outer loop
  vertex 0.0239555519 0.0160844084 0.015639903
  vertex 0.0250655096 0.0164573267 0.015639903
  vertex 0.0245428327 0.0157935303 -0.00148432027
  endloop
 endfacet

 facet normal -0.240818888 0.970098436 -0.0302540697
  outer loop
  vertex 0.0245428327 0.0157935303 -0.00148432027
  vertex 0.0250655096 0.0164573267 0.015639903
  vertex 0.0251257066 0.0159382243 -0.00148432027
  endloop
 endfacet

 facet normal 0.237220705 0.971098125 -0.0263565984
  outer loop
  vertex 0.0282676499 0.0165244527 0.015639903
  vertex 0.0294304602 0.0157756321 -0.00148432027
  vertex 0.028893102 0.0159068983 -0.00148432027
  endloop
 endfacet

 facet normal 0.188318461 0.981693685 -0.0285248365
  outer loop
  vertex 0.0282676499 0.0165244527 0.015639903
  vertex 0.028893102 0.0159068983 -0.00148432027
  vertex 0.0276377928 0.0166452788 0.015639903
  endloop
 endfacet

 facet normal -0.202092692 0.978894949 -0.0303845964
  outer loop
  vertex 0.0250655096 0.0164573267 0.015639903
  vertex 0.0259831324 0.0166467708 0.015639903
  vertex 0.0251257066 0.0159382243 -0.00148432027
  endloop
 endfacet

 facet normal -0.0965783298 0.994662583 -0.0363202207
  outer loop
  vertex 0.0251257066 0.0159382243 -0.00148432027
  vertex 0.0259831324 0.0166467708 0.015639903
  vertex 0.0257555638 0.0159993805 -0.00148432027
  endloop
 endfacet

 facet normal 0.132744581 0.990601301 -0.0329828225
  outer loop
  vertex 0.0276377928 0.0166452788 0.015639903
  vertex 0.028893102 0.0159068983 -0.00148432027
  vertex 0.0282808635 0.0159889404 -0.00148432027
  endloop
 endfacet

 facet normal 0.0847233161 0.995790184 -0.034985058
  outer loop
  vertex 0.0276377928 0.0166452788 0.015639903
  vertex 0.0282808635 0.0159889404 -0.00148432027
  vertex 0.0276847742 0.0160396565 -0.00148432027
  endloop
 endfacet

 facet normal 0.0571484827 0.997747421 -0.0351299345
  outer loop
  vertex 0.0276377928 0.0166452788 0.015639903
  vertex 0.0276847742 0.0160396565 -0.00148432027
  vertex 0.0270857513 0.0160739664 -0.00148432027
  endloop
 endfacet

 facet normal 0.0428638421 0.998478472 -0.0346938223
  outer loop
  vertex 0.0276377928 0.0166452788 0.015639903
  vertex 0.0270857513 0.0160739664 -0.00148432027
  vertex 0.0270123407 0.0166721288 0.015639903
  endloop
 endfacet

 facet normal -0.0368530974 0.998692155 -0.0354376957
  outer loop
  vertex 0.0259831324 0.0166467708 0.015639903
  vertex 0.0265894998 0.0166691467 0.015639903
  vertex 0.0270079356 0.0160769485 -0.00148432027
  endloop
 endfacet

 facet normal -0.0452391021 0.998329997 -0.0359275118
  outer loop
  vertex 0.0259831324 0.0166467708 0.015639903
  vertex 0.0270079356 0.0160769485 -0.00148432027
  vertex 0.0263824835 0.0160486065 -0.00148432027
  endloop
 endfacet

 facet normal -0.0782267302 0.99626267 -0.0366245918
  outer loop
  vertex 0.0259831324 0.0166467708 0.015639903
  vertex 0.0263824835 0.0160486065 -0.00148432027
  vertex 0.0257555638 0.0159993805 -0.00148432027
  endloop
 endfacet

 facet normal -0.00704859337 0.999371767 -0.0347329229
  outer loop
  vertex 0.0270123407 0.0166721288 0.015639903
  vertex 0.0270079356 0.0160769485 -0.00148432027
  vertex 0.0265894998 0.0166691467 0.015639903
  endloop
 endfacet

 facet normal 0.0382741392 0.998663902 -0.0347199813
  outer loop
  vertex 0.0270123407 0.0166721288 0.015639903
  vertex 0.0270857513 0.0160739664 -0.00148432027
  vertex 0.0270079356 0.0160769485 -0.00148432027
  endloop
 endfacet

endsolid AssimpScene
